v 0.04642685875296593 0.11037281900644302 0.650368869304657
v 0.058934587985277176 0.10619106143712997 0.6498576402664185
v 0.05173590034246445 0.10202326625585556 0.6551494598388672
v 0.0411301888525486 0.10659419000148773 0.6560670733451843
v 0.06809432059526443 0.09831090271472931 0.6680557727813721
v 0.07181598246097565 0.10372304916381836 0.6779018640518188
v 0.05501025542616844 0.10192357748746872 0.6786340475082397
v 0.05535513535141945 0.09696341305971146 0.6694262027740479
v 0.035903625190258026 0.106687031686306 0.6596528887748718
v 0.044690925627946854 0.10050030052661896 0.6584298610687256
v 0.03385457769036293 0.11228098720312119 0.6599077582359314
v 0.026332594454288483 0.12088298052549362 0.6650518774986267
v 0.02730434760451317 0.11413078755140305 0.6635337471961975
v 0.01920185424387455 0.12491107732057571 0.6661840081214905
v 0.03216651827096939 0.13053101301193237 0.665727972984314
v 0.021310467272996902 0.133141428232193 0.662369966506958
v 0.04042910411953926 0.14462149143218994 0.6475186347961426
v 0.043810587376356125 0.14556004106998444 0.6353376507759094
v 0.02744780108332634 0.14398129284381866 0.6339474320411682
v 0.02595505118370056 0.14208656549453735 0.6465961933135986
v 0.0377730131149292 0.1409161537885666 0.616554319858551
v 0.031000640243291855 0.1427239328622818 0.6260243654251099
v 0.04759958013892174 0.1452954262495041 0.6274123787879944
v 0.05279039591550827 0.14318662881851196 0.618948221206665
v 0.053719472140073776 0.11497769504785538 0.6388351917266846
v 0.0652560144662857 0.11304978281259537 0.6379181742668152
v 0.06380454450845718 0.11128565669059753 0.6423167586326599
v 0.05208108201622963 0.11383884400129318 0.6432852745056152
v 0.03140532597899437 0.11533918976783752 0.664887011051178
v 0.038873739540576935 0.12346567213535309 0.669645369052887
v 0.03463103622198105 0.11994867026805878 0.6644216179847717
v 0.031609807163476944 0.11117658019065857 0.6612672209739685
v 0.09059077501296997 0.10686088353395462 0.6297945380210876
v 0.10243628174066544 0.11270222067832947 0.6320735812187195
v 0.10179828107357025 0.11316490173339844 0.6380131840705872
v 0.09123075008392334 0.10803434252738953 0.6347321271896362
v 0.09342079609632492 0.10935607552528381 0.6634768843650818
v 0.10088110715150833 0.11548495292663574 0.6574140191078186
v 0.10474499315023422 0.1246805191040039 0.6662716865539551
v 0.0955275222659111 0.12230067700147629 0.6710361242294312
v 0.08327409625053406 0.10491161048412323 0.672360897064209
v 0.0854584276676178 0.11621490120887756 0.6780092716217041
v 0.07084960490465164 0.1141902282834053 0.6832187175750732
v 0.052532944828271866 0.1097923219203949 0.6834397912025452
v 0.1038978174328804 0.11465813964605331 0.619521975517273
v 0.09555958211421967 0.11013983190059662 0.616033136844635
v -0.023967958986759186 0.15194877982139587 0.6527619361877441
v -0.023194853216409683 0.15136875212192535 0.647006630897522
v -0.021919768303632736 0.14430323243141174 0.6503859758377075
v -0.022199198603630066 0.14659102261066437 0.6552955508232117
v 0.09722866117954254 0.12887518107891083 0.6070684194564819
v 0.09579197317361832 0.1387941688299179 0.6079656481742859
v 0.10295052081346512 0.13772612810134888 0.6077483296394348
v 0.10450808703899384 0.12853886187076569 0.6087878346443176
v 0.08756835013628006 0.12918564677238464 0.604924201965332
v 0.08577047288417816 0.13963212072849274 0.6087925434112549
v -0.013910822570323944 0.15738141536712646 0.656868040561676
v -0.018651213496923447 0.1559337079524994 0.6579671502113342
v -0.015531488694250584 0.15147484838962555 0.6594346761703491
v -0.010450600646436214 0.15212465822696686 0.6570395827293396
v 0.03072052076458931 0.11097747832536697 0.659396767616272
v 0.0356544554233551 0.11153384298086166 0.6521531939506531
v 0.007241584360599518 0.11555686593055725 0.6602388024330139
v 0.020754585042595863 0.11343730986118317 0.6554530262947083
v 0.02030358463525772 0.1140221431851387 0.6625258326530457
v 0.010026547126471996 0.11754685640335083 0.6656230092048645
v 0.031193524599075317 0.11592383682727814 0.6339308023452759
v 0.042879171669483185 0.11618756502866745 0.6351784467697144
v 0.039939578622579575 0.11591937392950058 0.6408555507659912
v 0.026736978441476822 0.11496071517467499 0.6413210034370422
v 0.04725642874836922 0.11345731467008591 0.6220309734344482
v 0.03541078045964241 0.11387082189321518 0.6218567490577698
v 0.039203427731990814 0.11219020187854767 0.6144332885742188
v 0.04702707380056381 0.11129355430603027 0.6158905625343323
v 0.014458509162068367 0.11592111736536026 0.6245906352996826
v 0.0077570537105202675 0.11973828822374344 0.6233072280883789
v 0.007184477522969246 0.116521455347538 0.6173057556152344
v 0.015658805146813393 0.11551754176616669 0.620756208896637
v 0.10999564081430435 0.1377437710762024 0.607999324798584
v 0.11127559095621109 0.12860971689224243 0.6113236546516418
v 0.0475400947034359 0.1335040032863617 0.5988541841506958
v 0.05389712005853653 0.1258181482553482 0.5941721796989441
v 0.041930146515369415 0.12301120907068253 0.590339183807373
v 0.03860756754875183 0.1322641223669052 0.5963737964630127
v 0.09264706820249557 0.14638830721378326 0.6142539978027344
v 0.10012296587228775 0.14637722074985504 0.6119714975357056
v -0.009689011611044407 0.15798281133174896 0.652348518371582
v -0.007404186762869358 0.15246932208538055 0.6518759727478027
v 0.07117745280265808 0.1257530152797699 0.6808299422264099
v 0.05124153196811676 0.11902064085006714 0.6825177669525146
v 0.08595148473978043 0.12988100945949554 0.67564857006073
v 0.0952487587928772 0.13378116488456726 0.670295000076294
v 0.10374993830919266 0.136185884475708 0.6681792140007019
v 0.016589011996984482 0.11308987438678741 0.6498396992683411
v 0.04189843684434891 0.11393912136554718 0.6459447145462036
v 0.05525432899594307 0.1148984283208847 0.6343349814414978
v 0.06013466417789459 0.10720030218362808 0.6051873564720154
v 0.07057510316371918 0.10686337202787399 0.6068618297576904
v 0.06487744301557541 0.10666705667972565 0.6158198714256287
v 0.056900713592767715 0.10766859352588654 0.6124337315559387
v 0.054650574922561646 0.11603447794914246 0.5932629108428955
v 0.051920562982559204 0.11008632928133011 0.597636878490448
v 0.0427732840180397 0.10990732908248901 0.5960136651992798
v 0.04409048333764076 0.1147526279091835 0.5911705493927002
v 0.031139466911554337 0.11718723177909851 0.6716854572296143
v 0.04330054298043251 0.12586718797683716 0.6743735074996948
v 0.0979776605963707 0.11878670006990433 0.6098342537879944
v 0.10462876409292221 0.11968168616294861 0.6136496663093567
v 0.11226920038461685 0.1223982647061348 0.6158736944198608
v 0.07838975638151169 0.10889647901058197 0.6356073021888733
v 0.09179557859897614 0.10858702659606934 0.6384788751602173
v 0.09103848785161972 0.10767380893230438 0.643861711025238
v 0.07830220460891724 0.10896427184343338 0.6388363242149353
v 0.0707957074046135 0.10095168650150299 0.653765857219696
v 0.08122614771127701 0.10080716013908386 0.6602751612663269
v 0.060375113040208817 0.09724429249763489 0.6586173176765442
v 0.10264292359352112 0.11403056234121323 0.6465973854064941
v 0.11150716245174408 0.1153297871351242 0.6398777365684509
v 0.11101475358009338 0.11700278520584106 0.6487343311309814
v 0.11244706064462662 0.1161029189825058 0.6301642060279846
v 0.11275584250688553 0.11829495429992676 0.6215476393699646
v 0.10793942213058472 0.14923779666423798 0.6103798151016235
v 0.1094302088022232 0.12010958045721054 0.6565260291099548
v 0.04657139256596565 0.09665161371231079 0.6687310338020325
v 0.038497861474752426 0.09561017155647278 0.6676015853881836
v 0.037153322249650955 0.09874674677848816 0.6603426933288574
v 0.04447134584188461 0.09881997108459473 0.6604413986206055
v 0.011234278790652752 0.13031955063343048 0.6659027338027954
v 0.00957044679671526 0.12325628101825714 0.6677603125572205
v 0.020516088232398033 0.11801756918430328 0.6670829057693481
v 0.080990269780159 0.10580962896347046 0.6233954429626465
v 0.0857413038611412 0.10833075642585754 0.6120535731315613
v 0.003576931543648243 0.1166495829820633 0.6543265581130981
v -0.005397110246121883 0.15183527767658234 0.6560328602790833
v -0.009593998081982136 0.14983516931533813 0.6599197387695312
v 0.002731174696236849 0.14161457121372223 0.6623300313949585
v 0.005450878292322159 0.1447993516921997 0.6575143337249756
v -0.0027950163930654526 0.12444844096899033 0.6473485827445984
v -0.0018736951751634479 0.12253166735172272 0.6537197232246399
v -0.004116920288652182 0.12699437141418457 0.6524302363395691
v -0.0050432030111551285 0.12982803583145142 0.6468406319618225
v 0.013489003293216228 0.11559735983610153 0.6111457943916321
v 0.020479151979088783 0.11452047526836395 0.6139336824417114
v 0.010689586400985718 0.13561952114105225 0.6450112462043762
v 0.015619424171745777 0.13780739903450012 0.6560122966766357
v 0.02476995438337326 0.1397992968559265 0.6553885340690613
v 0.03437451273202896 0.11520582437515259 0.6272107362747192
v 0.023900145664811134 0.11483314633369446 0.6253255605697632
v 0.025186812505126 0.11453936249017715 0.621376633644104
v 0.013187765143811703 0.11403687298297882 0.6462802290916443
v 0.0031456714496016502 0.11664147675037384 0.6478206515312195
v 0.008845464326441288 0.11576004326343536 0.6422355771064758
v 0.017292985692620277 0.11506535112857819 0.6410910487174988
v 0.066299207508564 0.1282416135072708 0.597375750541687
v 0.06727097183465958 0.11675268411636353 0.5958702564239502
v -0.02229325659573078 0.15376144647598267 0.6566771268844604
v -0.019566427916288376 0.14891090989112854 0.6587422490119934
v 0.04574622958898544 0.11544950306415558 0.6285812258720398
v 0.03781135380268097 0.1407800316810608 0.6556808948516846
v 0.057054243981838226 0.11414038389921188 0.6292988657951355
v 0.02162087708711624 0.13259269297122955 0.6064177751541138
v 0.02149450033903122 0.12665331363677979 0.602716326713562
v 0.01625441387295723 0.12659293413162231 0.603490948677063
v 0.014205115847289562 0.13170143961906433 0.6056809425354004
v -0.013192575424909592 0.14108173549175262 0.6421402096748352
v -0.016839172691106796 0.14003846049308777 0.6466342806816101
v -0.02010023221373558 0.14365705847740173 0.6444277167320251
v -0.015892602503299713 0.1447170376777649 0.6409077048301697
v -0.0004105749540030956 0.12306799739599228 0.659476101398468
v 0.002362549304962158 0.12470182776451111 0.6650195717811584
v -0.0029658661223948 0.13105103373527527 0.6624196767807007
v -0.004236638080328703 0.1286497861146927 0.6573513150215149
v 0.004088649060577154 0.1310320794582367 0.6661546230316162
v -0.00017308886162936687 0.13645711541175842 0.6641095876693726
v -0.00760585768148303 0.1445384919643402 0.6414387226104736
v -0.0025288257747888565 0.14901791512966156 0.6452171802520752
v 0.004358026199042797 0.1415826976299286 0.6453519463539124
v -0.0018384071299806237 0.13656605780124664 0.6442582011222839
v 0.06714130192995071 0.146323561668396 0.6214714050292969
v 0.07089459151029587 0.14247964322566986 0.6118505001068115
v 0.056678254157304764 0.13934208452701569 0.6090053915977478
v 0.04291611909866333 0.1371021568775177 0.6057395339012146
v 0.030008580535650253 0.13416609168052673 0.6039620637893677
v 0.02497245743870735 0.13982003927230835 0.6143164038658142
v 0.06070840358734131 0.13619646430015564 0.6027893424034119
v -0.0013877225574105978 0.12488676607608795 0.6406238675117493
v 0.006207317113876343 0.13328927755355835 0.6477481126785278
v 0.001981566194444895 0.12960603833198547 0.6429217457771301
v 0.058640241622924805 0.11143006384372711 0.622596025466919
v -0.012934059835970402 0.147110253572464 0.6605738401412964
v 0.09298627823591232 0.15019148588180542 0.6563671231269836
v 0.09322673827409744 0.15398773550987244 0.6438648700714111
v 0.08481566607952118 0.1519966870546341 0.6454623937606812
v 0.08426360040903091 0.14725956320762634 0.6589308977127075
v -0.01789119839668274 0.1405128836631775 0.6534872055053711
v -0.016736675053834915 0.14328564703464508 0.6584550142288208
v 0.021577320992946625 0.11442691087722778 0.6077494621276855
v 0.015879923477768898 0.1170685887336731 0.6067460179328918
v 0.016044452786445618 0.12046824395656586 0.6034728288650513
v 0.020491592586040497 0.11602406948804855 0.6027824282646179
v 0.07413679361343384 0.13993871212005615 0.6076734662055969
v 0.033841680735349655 0.11973324418067932 0.5885498523712158
v 0.032272640615701675 0.1288471221923828 0.5929663181304932
v 0.08325433731079102 0.14531707763671875 0.6147214770317078
v 0.08007495850324631 0.14926089346408844 0.6229826807975769
v 0.08954707533121109 0.15125742554664612 0.6234772205352783
v 0.013835936784744263 0.13800852000713348 0.6255062818527222
v 0.062482427805662155 0.14784744381904602 0.6285594701766968
v 0.07662482559680939 0.15021537244319916 0.6297008991241455
v 0.08781681954860687 0.15260133147239685 0.6306040287017822
v 0.09583446383476257 0.15484172105789185 0.630509078502655
v 0.09696017950773239 0.1529330462217331 0.6227162480354309
v -0.0030801636166870594 0.15080706775188446 0.6503264904022217
v -0.00632066885009408 0.15114258229732513 0.6461281180381775
v 0.1052449569106102 0.1563182920217514 0.6212849020957947
v 0.10374712944030762 0.1576969474554062 0.6302887201309204
v 0.07348566502332687 0.15044155716896057 0.638336181640625
v 0.07010878622531891 0.14946205914020538 0.6483466029167175
v 0.059947505593299866 0.14798729121685028 0.6367967128753662
v 0.05547820031642914 0.14688949286937714 0.6467296481132507
v 0.015059162862598896 0.14217069745063782 0.6352963447570801
v -0.013171152211725712 0.16760577261447906 0.6407610177993774
v -0.010008459910750389 0.15592530369758606 0.6416213512420654
v -0.014852982014417648 0.15331561863422394 0.6394575834274292
v -0.015001046471297741 0.1644788533449173 0.6377418637275696
v -0.01063296478241682 0.1475149691104889 0.6416236162185669
v -0.007703438401222229 0.15742188692092896 0.6464937925338745
v 0.052635546773672104 0.14198365807533264 0.6576945185661316
v 0.0002809870056807995 0.11778440326452255 0.6397185325622559
v 0.06832867860794067 0.14244304597377777 0.6617549061775208
v 0.04418489336967468 0.13496306538581848 0.6674678921699524
v 0.05532197281718254 0.13392159342765808 0.670947253704071
v 0.08397135138511658 0.1412898451089859 0.6687215566635132
v 0.06972832977771759 0.13530291616916656 0.6747434139251709
v 0.10158291459083557 0.14539013803005219 0.6638017892837524
v 0.09272025525569916 0.14380325376987457 0.6653233766555786
v 0.055019717663526535 0.12842272222042084 0.6779873967170715
v -0.027284052222967148 0.15940473973751068 0.6448341608047485
v -0.023966364562511444 0.15821534395217896 0.6400184035301208
v 0.1010042130947113 0.15251994132995605 0.6554811596870422
v 0.05108475685119629 0.09729288518428802 0.660315215587616
v 0.06891528517007828 0.109526127576828 0.625870406627655
v 0.06739997118711472 0.11163239181041718 0.6306846737861633
v 0.07668671011924744 0.1072060763835907 0.6086182594299316
v 0.07197272032499313 0.1063632145524025 0.6192901134490967
v -0.027308903634548187 0.16195321083068848 0.6495873928070068
v 0.004412330687046051 0.12539559602737427 0.6214413642883301
v 0.0042177652940154076 0.12043991684913635 0.6175470948219299
v 0.0458725281059742 0.09910202026367188 0.6773131489753723
v 0.03855767473578453 0.0970015600323677 0.6752752661705017
v 0.032060880213975906 0.10773060470819473 0.6795462369918823
v 0.035069335252046585 0.10122356563806534 0.6798598766326904
v 0.04309200122952461 0.10560650378465652 0.6820342540740967
v 0.04058561846613884 0.1128743514418602 0.6814568042755127
v 0.07819373160600662 0.10845357179641724 0.6329266428947449
v 0.078424371778965 0.10760987550020218 0.6290862560272217
v 0.07769175618886948 0.128557488322258 0.6010913252830505
v 0.07789186388254166 0.11711505055427551 0.5998777747154236
v 0.006948537193238735 0.13566604256629944 0.6638451218605042
v 0.013645587489008904 0.1354292333126068 0.6617740392684937
v 0.009899814613163471 0.1393972635269165 0.6588258147239685
v 0.0073693543672561646 0.1440281867980957 0.6512731313705444
v -0.0034357127733528614 0.12178488820791245 0.63848477602005
v -9.343959391117096e-06 0.12861700356006622 0.6452931761741638
v 0.08670009672641754 0.10418997704982758 0.6508702039718628
v 0.07627817988395691 0.10613283514976501 0.6452733278274536
v 0.040041256695985794 0.10263726115226746 0.6585696935653687
v 0.034250739961862564 0.104481540620327 0.6579586267471313
v 0.02191251516342163 0.11530134081840515 0.6342679858207703
v 0.004295628517866135 0.13675713539123535 0.6279239654541016
v 0.004302474670112133 0.13799723982810974 0.6348745226860046
v 0.01235068030655384 0.11612547188997269 0.6340042948722839
v -0.021939879283308983 0.16811861097812653 0.6516748666763306
v -0.02579214982688427 0.16479797661304474 0.6514026522636414
v 0.01050148718059063 0.13929051160812378 0.6532962918281555
v 0.028574997559189796 0.1124308854341507 0.6140371561050415
v 0.007842796854674816 0.13175104558467865 0.6217978596687317
v 0.004071720875799656 0.13281261920928955 0.6240952014923096
v 0.03755874186754227 0.11304942518472672 0.5905148983001709
v 0.10186155885457993 0.1560201197862625 0.6434606909751892
v -0.020072536543011665 0.1519864946603775 0.6413195133209229
v -0.019636332988739014 0.15922994911670685 0.6369917988777161
v -0.012693860568106174 0.16929540038108826 0.6446103453636169
v -0.015472730621695518 0.1694219559431076 0.6497400403022766
v 0.08723617345094681 0.11710900813341141 0.6052438616752625
v 0.0661180391907692 0.11275988072156906 0.6337679028511047
v 0.04219943284988403 0.12211877107620239 0.6778309941291809
v 0.031043563038110733 0.1142975315451622 0.675871729850769
v 0.006096155848354101 0.11778217554092407 0.6321690082550049
v 0.02676941268146038 0.12990809977054596 0.5995501279830933
v 0.015637589618563652 0.13678894937038422 0.6134012937545776
v 0.0073456112295389175 0.13423418998718262 0.6106467247009277
v 0.0016832308610901237 0.12972842156887054 0.6134122610092163
v -0.0003169190604239702 0.12308718264102936 0.6133804321289062
v -0.015485338866710663 0.17343434691429138 0.6413233280181885
v -0.01940503716468811 0.1741742342710495 0.6452691555023193
v -0.025069504976272583 0.17252376675605774 0.6453737020492554
v -0.02841133624315262 0.16841986775398254 0.6458436250686646
v -0.02911956235766411 0.1639859974384308 0.6451202630996704
v -0.01534790638834238 0.17117664217948914 0.6379323601722717
v -0.0161905437707901 0.16788646578788757 0.6362166404724121
v -0.01983548328280449 0.16190195083618164 0.6366750001907349
v -0.014976655133068562 0.17171454429626465 0.6342638731002808
v -0.01697746105492115 0.1758536994457245 0.6348056793212891
v -0.029379673302173615 0.17677117884159088 0.6320372223854065
v -0.026612380519509315 0.17654818296432495 0.6369590759277344
v -0.025853734463453293 0.17753015458583832 0.6349955201148987
v -0.027427304536104202 0.17861559987068176 0.6306605339050293
v -0.02777126058936119 0.1805950105190277 0.6261855363845825
v -0.030398719012737274 0.1785242259502411 0.6270662546157837
v -0.021635498851537704 0.17692303657531738 0.6364054679870605
v -0.0230720154941082 0.17872433364391327 0.630500853061676
v -0.019315071403980255 0.1776944398880005 0.6291284561157227
v -0.020420368760824203 0.18021392822265625 0.6246389746665955
v -0.023908600211143494 0.1814313530921936 0.6256997585296631
v -0.018659435212612152 0.17668843269348145 0.6333248019218445
v -0.021049248054623604 0.17708352208137512 0.6381710171699524
v -0.02899329736828804 0.17984315752983093 0.6232178211212158
v -0.02742995321750641 0.18165574967861176 0.6236646175384521
v -0.024323180317878723 0.181883305311203 0.6229124069213867
v -0.025159984827041626 0.18065288662910461 0.6204420328140259
v -0.02903898060321808 0.1713452935218811 0.6394519805908203
v -0.030501965433359146 0.17465978860855103 0.6316747665405273
v -0.03026055172085762 0.1757260262966156 0.6260533928871155
v -0.028849981725215912 0.1772911548614502 0.6223437786102295
v -0.029760591685771942 0.1715518832206726 0.6294596195220947
v -0.029040448367595673 0.1732875555753708 0.6252052187919617
v -0.027509700506925583 0.17435935139656067 0.62184077501297
v -0.02744026482105255 0.16892282664775848 0.6272767186164856
v -0.026963040232658386 0.1713169813156128 0.623955249786377
v -0.027158483862876892 0.16333653032779694 0.6388174295425415
v -0.028771094977855682 0.16614225506782532 0.6405245065689087
v -0.02665647864341736 0.17240089178085327 0.6217057108879089
v -0.024828709661960602 0.17870771884918213 0.6197824478149414
v -0.016783587634563446 0.1751621663570404 0.6291741132736206
v -0.01891685649752617 0.17753833532333374 0.623396635055542
v -0.016190126538276672 0.17322947084903717 0.6283277273178101
v -0.017909985035657883 0.17553816735744476 0.6225098371505737
v -0.020474757999181747 0.1797466278076172 0.6203170418739319
v -0.02157539874315262 0.18095695972442627 0.6222670674324036
v -0.027360178530216217 0.16051137447357178 0.642383873462677
v -0.023193417116999626 0.1598435640335083 0.638759195804596
v -0.022067805752158165 0.16207291185855865 0.6362156867980957
v -0.023310746997594833 0.1673658788204193 0.6257830858230591
v -0.01829676702618599 0.16356047987937927 0.6342049837112427
v -0.015265114605426788 0.1686130166053772 0.632422685623169
v -0.016690142452716827 0.17119836807250977 0.6265934705734253
v -0.018642880022525787 0.1688271164894104 0.6255686283111572
v -0.018475186079740524 0.17314490675926208 0.6223927736282349
v -0.02030283212661743 0.1713624894618988 0.6224657297134399
v -0.023774784058332443 0.1702495813369751 0.6227172613143921
v -0.02099384367465973 0.1746656894683838 0.6199301481246948
v -0.020371828228235245 0.1775543987751007 0.6198311448097229
v -0.024538177996873856 0.1753823310136795 0.619805634021759
v -0.021432626992464066 0.17288163304328918 0.6206281185150146
v -0.02429977059364319 0.17307287454605103 0.6210066080093384
v -0.01470443420112133 0.1297905147075653 0.6041432619094849
v -0.012570840306580067 0.13539916276931763 0.6045788526535034
v -0.012798625975847244 0.12987999618053436 0.6091861724853516
v -0.015506677329540253 0.1261676847934723 0.6103463768959045
v -0.02683078683912754 0.13184770941734314 0.6111170649528503
v -0.023327510803937912 0.12810927629470825 0.6072621941566467
v -0.024049390107393265 0.12756021320819855 0.6159462332725525
v -0.025097930803894997 0.13361681997776031 0.6189637184143066
v -0.02608318440616131 0.13813596963882446 0.6134413480758667
v -0.02174576371908188 0.13887260854244232 0.6195406913757324
v -0.02432113327085972 0.13613486289978027 0.6233695149421692
v -0.02337980456650257 0.1290808767080307 0.6215909719467163
v -0.008572938852012157 0.1269938349723816 0.6346387267112732
v -0.009328112006187439 0.1338883340358734 0.6356723308563232
v 0.002576432190835476 0.1249677762389183 0.6224471926689148
v 0.002157935407012701 0.1294078677892685 0.6215256452560425
v -0.018489833921194077 0.12800340354442596 0.604880690574646
v -0.01999122090637684 0.12536029517650604 0.6126789450645447
v -0.008716996759176254 0.13575854897499084 0.6093721985816956
v -0.010168785229325294 0.13050727546215057 0.6093313097953796
v -0.010372597724199295 0.1339767575263977 0.6083661913871765
v -0.010911772958934307 0.1387014538049698 0.6094837784767151
v -0.0037722932174801826 0.12098535895347595 0.630810022354126
v 0.00048522825818508863 0.12219996005296707 0.6272163987159729
v -0.0066924989223480225 0.12309087812900543 0.6324753165245056
v -0.010606669820845127 0.1414177119731903 0.6124242544174194
v -0.014793004840612411 0.14484013617038727 0.6166492700576782
v -0.0028914478607475758 0.14180365204811096 0.6270568370819092
v 0.00019858719315379858 0.13828912377357483 0.6232031583786011
v -0.020889775827527046 0.12552620470523834 0.6183868050575256
v -0.013790368102490902 0.12637418508529663 0.6112179756164551
v -0.01706969551742077 0.12414507567882538 0.6142548322677612
v -0.020130526274442673 0.1420777440071106 0.6215851306915283
v -0.018351545557379723 0.1434027999639511 0.6151800751686096
v -0.01961860992014408 0.15086692571640015 0.5994825959205627
v -0.01846649870276451 0.14605604112148285 0.609553873538971
v -0.014159810729324818 0.1444339156150818 0.6072255373001099
v -0.015119313262403011 0.15008360147476196 0.5982323288917542
v -0.014570224098861217 0.1420186311006546 0.6125978231430054
v -0.02287183329463005 0.14388827979564667 0.6110606789588928
v -0.01479241345077753 0.13876202702522278 0.5907384753227234
v -0.011315523646771908 0.14377829432487488 0.5931379795074463
v -0.01891947351396084 0.13684439659118652 0.5899560451507568
v -0.006721077021211386 0.1401934027671814 0.6322920322418213
v -0.027764733880758286 0.13898548483848572 0.5944018363952637
v -0.023068256676197052 0.13633719086647034 0.5910395979881287
v -0.011433757841587067 0.14080215990543365 0.6058405637741089
v -0.011930922977626324 0.14795507490634918 0.5957543849945068
v -0.02389206551015377 0.14953488111495972 0.5992685556411743
v -0.02839009091258049 0.14371904730796814 0.5985885262489319
v -0.01978180557489395 0.15150974690914154 0.593096137046814
v -0.02475574240088463 0.1492704153060913 0.5911951661109924
v -0.025020655244588852 0.14597254991531372 0.5876186490058899
v -0.022334499284625053 0.14210379123687744 0.5856567621231079
v -0.01872757449746132 0.14061014354228973 0.5860008597373962
v -0.016677170991897583 0.15181246399879456 0.5933467745780945
v -0.012945667840540409 0.1505873054265976 0.5926141738891602
v -0.01128333993256092 0.14727094769477844 0.5920702815055847
v -0.01145980041474104 0.153089240193367 0.5873092412948608
v -0.014765224419534206 0.15456269681453705 0.585796594619751
v -0.018448606133461 0.15247975289821625 0.5705583691596985
v -0.02064014971256256 0.150817409157753 0.5752981901168823
v -0.02027665264904499 0.15320955216884613 0.576011061668396
v -0.017996367067098618 0.1549244523048401 0.5719143748283386
v -0.02255033701658249 0.1507660448551178 0.5803325772285461
v -0.021437574177980423 0.15277692675590515 0.5797470211982727
v -0.01902318373322487 0.15445482730865479 0.5830249190330505
v -0.016813870519399643 0.15541604161262512 0.5783423185348511
v -0.013253304176032543 0.15646955370903015 0.5812329649925232
v -0.011375418864190578 0.15880250930786133 0.5771493315696716
v -0.015152825973927975 0.15834465622901917 0.5741402506828308
v -0.015591849572956562 0.15578651428222656 0.5836334824562073
v -0.01587456837296486 0.1564205437898636 0.5698345899581909
v -0.01463248860090971 0.15517187118530273 0.5680071115493774
v -0.020058011636137962 0.1530640572309494 0.5844423174858093
v -0.022673457860946655 0.14502272009849548 0.5819680690765381
v -0.019747944548726082 0.14810481667518616 0.5743626952171326
v -0.016518792137503624 0.15017259120941162 0.5695728063583374
v -0.012006000615656376 0.15364854037761688 0.5678275227546692
v -0.0164520014077425 0.14595268666744232 0.5741049647331238
v -0.013667314313352108 0.14877115190029144 0.5699248909950256
v -0.010198005475103855 0.1520390510559082 0.5689610242843628
v -0.012109446339309216 0.14492833614349365 0.5749947428703308
v -0.009773067198693752 0.14817161858081818 0.5713202953338623
v -0.015456880442798138 0.14091408252716064 0.5842924118041992
v -0.019537344574928284 0.14157484471797943 0.5825167894363403
v -0.009129813872277737 0.15040871500968933 0.5702549815177917
v -0.011662903241813183 0.15867078304290771 0.5695896744728088
v -0.009179587475955486 0.15641485154628754 0.5690805315971375
v -0.012945852242410183 0.15881061553955078 0.5708568692207336
v -0.011241122148931026 0.15613076090812683 0.5819597840309143
v -0.009187142364680767 0.15801212191581726 0.5772255659103394
v -0.008873130194842815 0.15491245687007904 0.5823679566383362
v -0.007135122083127499 0.1568855345249176 0.5767659544944763
v -0.00868139136582613 0.15918979048728943 0.5731722712516785
v -0.010314981453120708 0.159661203622818 0.5730936527252197
v -0.015317782759666443 0.1415499448776245 0.5879828929901123
v -0.011702927760779858 0.14462879300117493 0.5905069708824158
v -0.01144357305020094 0.14266879856586456 0.5868533849716187
v -0.008201408199965954 0.14631137251853943 0.5775641202926636
v -0.009788122959434986 0.1459968090057373 0.588564932346344
v -0.009479793719947338 0.15025784075260162 0.5878379940986633
v -0.007283593527972698 0.1526084840297699 0.5822047591209412
v -0.006521127186715603 0.14947225153446198 0.580203115940094
v -0.00540714617818594 0.1555185467004776 0.5770308971405029
v -0.005487433634698391 0.15225990116596222 0.5769380927085876
v -0.00682299118489027 0.14901310205459595 0.5737769603729248
v -0.00554251205176115 0.15657484531402588 0.5728247761726379
v -0.007183111272752285 0.1583045870065689 0.5728413462638855
v -0.008076085709035397 0.15465125441551208 0.5697203278541565
v -0.005259010009467602 0.1537502110004425 0.5736662149429321
v -0.007112923078238964 0.15201815962791443 0.5711081027984619
v -0.005773340351879597 0.11048099398612976 0.5869948267936707
v -0.00028952688444405794 0.111548513174057 0.5864878296852112
v 0.0003729563904926181 0.11144974827766418 0.5900076031684875
v -0.00477240327745676 0.11052089929580688 0.5914605259895325
v -0.012617363594472408 0.12196387350559235 0.5865031480789185
v -0.012822030112147331 0.11675713211297989 0.5860787630081177
v -0.012467347085475922 0.11760199815034866 0.5913776755332947
v -0.012497271411120892 0.1233925074338913 0.5927423238754272
v -0.008913788013160229 0.12618565559387207 0.5843011140823364
v -0.008358893916010857 0.12859001755714417 0.5911808609962463
v -0.011734426021575928 0.12524928152561188 0.597510576248169
v -0.011667352169752121 0.11883627623319626 0.5963262915611267
v -0.003412820864468813 0.12134495377540588 0.6088995933532715
v -0.003581895027309656 0.1281522661447525 0.608543336391449
v -0.009978416375815868 0.1129918172955513 0.5864060521125793
v -0.00916327815502882 0.11316557228565216 0.5913391709327698
v 0.0050049517303705215 0.11940917372703552 0.589028537273407
v 0.0038584349676966667 0.11536423116922379 0.5898836851119995
v 0.0038546277210116386 0.11485262960195541 0.5880695581436157
v 0.00473651010543108 0.11868879199028015 0.5876253843307495
v 0.004693282302469015 0.11467942595481873 0.6090203523635864
v 0.009604154154658318 0.11633966863155365 0.606277346611023
v -8.754990994930267e-05 0.11668600887060165 0.6086339354515076
v 0.002814191859215498 0.12571223080158234 0.5892921090126038
v -0.0019299696432426572 0.13104969263076782 0.5914666652679443
v 0.007046694867312908 0.1322171986103058 0.6006098389625549
v 0.010737873613834381 0.12749485671520233 0.599481999874115
v -0.00847683660686016 0.1144314706325531 0.5956546664237976
v 0.0007885148515924811 0.11181265115737915 0.5926799774169922
v -0.00412096967920661 0.1112242043018341 0.5946092009544373
v -0.007637342903763056 0.1298476755619049 0.5954770445823669
v -0.002242816612124443 0.1284179836511612 0.5880677103996277
v 0.0008528725011274219 0.12487685680389404 0.5689465999603271
v 0.0020359093323349953 0.1253921240568161 0.5842711329460144
v 0.00447868462651968 0.11990173161029816 0.5849441289901733
v 0.0039020786061882973 0.12170769274234772 0.5696817636489868
v 0.002965318039059639 0.12463262677192688 0.5870169401168823
v -0.00311835203319788 0.12824782729148865 0.584091067314148
v -0.0027178237214684486 0.1092820018529892 0.5703207850456238
v 0.0019106221152469516 0.11192359030246735 0.5711854696273804
v -0.006780277006328106 0.11067323386669159 0.5705501437187195
v 0.0005305195227265358 0.13316331803798676 0.6054283976554871
v 0.012670598924160004 0.12125710397958755 0.6014355421066284
v -0.010659259743988514 0.11665880680084229 0.5687840580940247
v -0.009217492304742336 0.11275812983512878 0.5697077512741089
v 0.003330557607114315 0.11552596092224121 0.5855973958969116
v 0.004781418479979038 0.1168813407421112 0.5705839991569519
v -0.0038622459396719933 0.1256219893693924 0.5689870119094849
v -0.009129665791988373 0.12259706854820251 0.5693916082382202
v -0.0023801205679774284 0.12521882355213165 0.5640429854393005
v -0.007080974988639355 0.12159296870231628 0.5636016130447388
v -0.00820398610085249 0.11596513539552689 0.5625978708267212
v -0.006306816823780537 0.11230405420064926 0.5637526512145996
v -0.003843768499791622 0.1103474497795105 0.5650266408920288
v 0.002179310657083988 0.12502709031105042 0.5644157528877258
v 0.004729301668703556 0.12236008048057556 0.5654065608978271
v 0.005034397356212139 0.11764100939035416 0.5685684680938721
v 0.004058710299432278 0.1248672604560852 0.5611382126808167
v -0.00014962174464017153 0.12476639449596405 0.5578245520591736
v 0.0030173948034644127 0.11340722441673279 0.5460437536239624
v -0.00016480789054185152 0.11367365717887878 0.5508993268013
v 2.853840123862028e-05 0.11491113901138306 0.550684928894043
v 0.0027557043358683586 0.11510299146175385 0.5456704497337341
v -0.004653968848288059 0.11598870158195496 0.5558237433433533
v -0.0031004799529910088 0.11676541715860367 0.554225742816925
v -0.002828597091138363 0.12053965032100677 0.5554013848304749
v 0.0010394667042419314 0.12015793472528458 0.5501164197921753
v 0.005034326575696468 0.1235310509800911 0.5531868934631348
v 0.007213420234620571 0.12269861996173859 0.5488681197166443
v 0.003642759285867214 0.11985482275485992 0.5455357432365417
v 0.0003879227442666888 0.12370619922876358 0.556190013885498
v 0.004730737768113613 0.11599192023277283 0.5433248281478882
v 0.004816892556846142 0.11439495533704758 0.5424141883850098
v -0.004555533640086651 0.1210523396730423 0.5573386549949646
v -0.003893219865858555 0.1117713674902916 0.5582879781723022
v 0.0008399643702432513 0.11108950525522232 0.55186927318573
v 0.004172212444245815 0.1105961948633194 0.5469168424606323
v 0.007202587090432644 0.112204909324646 0.5441771149635315
v 0.003918091766536236 0.10998746752738953 0.5539301037788391
v 0.006525537930428982 0.11010392010211945 0.5490404963493347
v 0.009147352539002895 0.11149518936872482 0.5464684963226318
v 0.006541474722325802 0.11045785248279572 0.5556825399398804
v 0.008903815411031246 0.11081382632255554 0.5511872172355652
v 0.001039625029079616 0.11038845032453537 0.5643818974494934
v -0.0016149237053468823 0.1102926954627037 0.5613648295402527
v 0.010220839641988277 0.11183544993400574 0.5484829545021057
v 0.007440908811986446 0.11838684976100922 0.5423044562339783
v 0.010802007280290127 0.11650070548057556 0.5440066456794739
v 0.006225450895726681 0.11879514157772064 0.543360710144043
v 0.005916419439017773 0.12438283860683441 0.5545622706413269
v 0.009456402622163296 0.12332230806350708 0.54930180311203
v 0.008029895834624767 0.12384450435638428 0.5562499165534973
v 0.011567502282559872 0.1226714551448822 0.5509222745895386
v 0.009724549017846584 0.1218501627445221 0.5455135107040405
v 0.008535205386579037 0.121665358543396 0.545505940914154
v -0.0007290068315342069 0.11025221645832062 0.5673106908798218
v 0.0031089549884200096 0.11307935416698456 0.5687609314918518
v 0.004455943591892719 0.11331228166818619 0.566217303276062
v 0.009916937910020351 0.11324691772460938 0.5570672750473022
v 0.006031711585819721 0.11777188628911972 0.5663412809371948
v 0.006624394096434116 0.12248154729604721 0.5621376633644104
v 0.009876920841634274 0.12135016173124313 0.5572638511657715
v 0.01089473906904459 0.11770908534526825 0.5573515892028809
v 0.012757367454469204 0.12053963541984558 0.5522336959838867
v 0.012527271173894405 0.11797840893268585 0.5534501671791077
v 0.011895052157342434 0.11319517344236374 0.5526672601699829
v 0.012908599339425564 0.11876827478408813 0.5486689209938049
v 0.011925159953534603 0.120854452252388 0.5468506813049316
v 0.012052404694259167 0.11489422619342804 0.5464202761650085
v 0.013165469281375408 0.11691603064537048 0.5503085851669312
v 0.012368119321763515 0.11395885795354843 0.5487276315689087
v 0.012290391139686108 0.11833198368549347 0.6036692261695862
v 0.006229597143828869 0.11736924946308136 0.6014363765716553
v 0.006344699300825596 0.11343081295490265 0.6023643016815186
v 0.009858747012913227 0.11190779507160187 0.5999684929847717
v 0.01069819275289774 0.11574997752904892 0.5995628237724304
v 0.002064335159957409 0.11973021179437637 0.5917794108390808
v 0.003420683555305004 0.12094148993492126 0.595812201499939
v 0.007122221402823925 0.12050079554319382 0.5932029485702515
v 0.006098602898418903 0.11960121244192123 0.5888504981994629
v 0.0007514402968809009 0.11553426831960678 0.5892816185951233
v 0.004806694574654102 0.11578376591205597 0.5860967636108398
v 0.008756970055401325 0.12294310331344604 0.5888044238090515
v 0.009382953867316246 0.12256109714508057 0.5936458110809326
v 0.01900620199739933 0.12649045884609222 0.5992326736450195
v 0.02083161473274231 0.12836576998233795 0.5950249433517456
v 0.030913636088371277 0.11181469261646271 0.5909109115600586
v 0.03131196275353432 0.10941215604543686 0.5949849486351013
v 0.02351365052163601 0.10999945551156998 0.5950433611869812
v 0.0246762465685606 0.11082354187965393 0.5909357070922852
v 0.0049866074696183205 0.11989554762840271 0.5989903807640076
v 0.008792194537818432 0.11898265779018402 0.5974745750427246
v 0.013592110015451908 0.10631898790597916 0.5927476286888123
v 0.013643748126924038 0.10756752640008926 0.5969842672348022
v 0.010017906315624714 0.10800869762897491 0.5992512702941895
v 0.008421610109508038 0.10538351535797119 0.5961929559707642
v 0.028071999549865723 0.1098945289850235 0.5990997552871704
v 0.025301190093159676 0.11210329830646515 0.6017383933067322
v 0.02129048854112625 0.11387861520051956 0.6016629934310913
v 0.021289799362421036 0.1113823726773262 0.598811149597168
v 0.018668636679649353 0.11951155960559845 0.6025834679603577
v 0.012485477142035961 0.10751333087682724 0.5885793566703796
v 0.010821149684488773 0.11206366121768951 0.5844697952270508
v 0.025559259578585625 0.11822737753391266 0.5853307247161865
v 0.02620924822986126 0.11380598694086075 0.5874056220054626
v 0.010207973420619965 0.12024331092834473 0.5976279973983765
v 0.012627076357603073 0.1110014095902443 0.5993343591690063
v 0.011641625314950943 0.1157846599817276 0.5995333790779114
v 0.00966457650065422 0.11921220272779465 0.5846028327941895
v 0.004579714499413967 0.10986605286598206 0.5872134566307068
v -0.005620832554996014 0.10644964873790741 0.6002340912818909
v 0.0015888259513303638 0.10585242509841919 0.5947616100311279
v 0.00354169774800539 0.10604062676429749 0.5990358591079712
v -0.003814469091594219 0.10643258690834045 0.6029375791549683
v 0.007362487725913525 0.10637345165014267 0.5912566781044006
v -0.00020914815831929445 0.10951600968837738 0.590854287147522
v -0.0005227579968050122 0.1179862916469574 0.6064239144325256
v -0.00019491009879857302 0.11271228641271591 0.606656551361084
v -0.0017528823809698224 0.12041682004928589 0.6045907139778137
v 0.023260517045855522 0.12603655457496643 0.5888420343399048
v -0.006067114882171154 0.11998173594474792 0.5985305309295654
v -0.004089723341166973 0.12134505808353424 0.6021974086761475
v 0.005391574464738369 0.10948257148265839 0.60158371925354
v -0.0016444987850263715 0.10857781022787094 0.6053160429000854
v -0.007432996295392513 0.10929662734270096 0.5972263216972351
v -0.007456815801560879 0.11524863541126251 0.5955851078033447
v -0.011090039275586605 0.10973614454269409 0.6009312272071838
v -0.010996735654771328 0.1153479814529419 0.599782407283783
v -0.008960447274148464 0.1201094463467598 0.6036580801010132
v -0.005923251621425152 0.12057255208492279 0.6057997941970825
v -0.003530277870595455 0.1195126473903656 0.607613205909729
v -0.008370722644031048 0.10663405060768127 0.6034167408943176
v -0.005956216715276241 0.10646450519561768 0.6055081486701965
v -0.003055284731090069 0.10844297707080841 0.6071255803108215
v -0.011375109665095806 0.10692371428012848 0.606968104839325
v -0.014327521435916424 0.11063424497842789 0.6071927547454834
v -0.013390987180173397 0.11643879115581512 0.6191771030426025
v -0.011666598729789257 0.11758027970790863 0.615725040435791
v -0.012592772953212261 0.11710229516029358 0.6151779294013977
v -0.014379261992871761 0.11655636131763458 0.6187409162521362
v -0.011010277085006237 0.1188153624534607 0.6104896664619446
v -0.012169151566922665 0.11771316081285477 0.6111934781074524
v -0.013384713791310787 0.11561809480190277 0.6085332632064819
v -0.015482964925467968 0.1146126240491867 0.613172173500061
v -0.015957072377204895 0.10933004319667816 0.6125139594078064
v -0.01757161319255829 0.1091843917965889 0.6162266731262207
v -0.01729816570878029 0.11393581330776215 0.6163320541381836
v -0.01495476346462965 0.11168347299098969 0.6087585091590881
v -0.016379497945308685 0.11574306339025497 0.6204217076301575
v -0.016150712966918945 0.11568628251552582 0.6218082904815674
v -0.013330615125596523 0.11628903448581696 0.6062330007553101
v -0.007163877598941326 0.11946074664592743 0.6112962365150452
v -0.009837779216468334 0.11755434423685074 0.6175045371055603
v -0.012554648332297802 0.11613912135362625 0.6214074492454529
v -0.015174987725913525 0.11411359161138535 0.6231799125671387
v -0.007642406038939953 0.1163165271282196 0.6175169944763184
v -0.010813436470925808 0.11485414952039719 0.6222251653671265
v -0.013314171694219112 0.11280907690525055 0.6237897872924805
v -0.005748155526816845 0.11358863860368729 0.617361843585968
v -0.009395557455718517 0.11269073933362961 0.621631383895874
v -0.002444579266011715 0.1149052307009697 0.611571729183197
v -0.004443305544555187 0.11782170832157135 0.6118078827857971
v -0.012025556527078152 0.11183523386716843 0.6229912638664246
v -0.01863836497068405 0.11271809041500092 0.6210863590240479
v -0.016695506870746613 0.11117767542600632 0.6227390766143799
v -0.01886921003460884 0.1130928099155426 0.6195031404495239
v -0.015519174747169018 0.10803601890802383 0.6122778058052063
v -0.017332881689071655 0.10770313441753387 0.6168988347053528
v -0.01385506521910429 0.10622028261423111 0.6125936508178711
v -0.015806611627340317 0.1065007895231247 0.6178742051124573
v -0.018542025238275528 0.10925471782684326 0.6198256611824036
v -0.01867840066552162 0.11047762632369995 0.6184208989143372
v -0.0017080820398405194 0.11634856462478638 0.6092668771743774
v -0.001494656433351338 0.11253441125154495 0.6083016395568848
v -0.002543955110013485 0.1110307052731514 0.6104033589363098
v -0.005740842781960964 0.10980203747749329 0.6162514090538025
v -0.004783972166478634 0.10727889090776443 0.6088820695877075
v -0.008296086452901363 0.10608644038438797 0.6076309680938721
v -0.011425039730966091 0.10561150312423706 0.6135138869285583
v -0.00847699400037527 0.10641762614250183 0.6149036884307861
v -0.01395150925964117 0.10631775110960007 0.6189842224121094
v -0.011130995117127895 0.10709011554718018 0.6197459101676941
v -0.00919324066489935 0.10951758176088333 0.620764970779419
v -0.015104386024177074 0.10850105434656143 0.621896505355835
v -0.016930632293224335 0.10856582969427109 0.6213756799697876
v -0.014777096919715405 0.11041931807994843 0.6231021881103516
v -0.013159523718059063 0.10858441889286041 0.622026264667511
v -0.012505642138421535 0.10997094959020615 0.6226142644882202
v 0.029372867196798325 0.114860899746418 0.588722288608551
v 0.017229927703738213 0.10629778355360031 0.6680454015731812
v 0.0190871711820364 0.10652676224708557 0.6627669930458069
v 0.026749558746814728 0.0920472964644432 0.6603910326957703
v 0.023821989074349403 0.0981341153383255 0.6571478843688965
v 0.026561986654996872 0.08883091062307358 0.6667699217796326
v 0.02253950759768486 0.09208698570728302 0.6762876510620117
v 0.025814983993768692 0.08976812660694122 0.6725394129753113
v 0.021446779370307922 0.10321439057588577 0.6584868431091309
v 0.017445033416152 0.10371603071689606 0.6731484532356262
v 0.01959691010415554 0.09784094244241714 0.6772855520248413
v 0.006504385732114315 0.09764008969068527 0.6704307198524475
v 0.010055524297058582 0.09097513556480408 0.6737934947013855
v 0.014386636205017567 0.08490128070116043 0.6714720129966736
v 0.01978614181280136 0.08489268273115158 0.6673914194107056
v 0.022292444482445717 0.08535537868738174 0.6633315682411194
v 0.010158750228583813 0.10261569172143936 0.6650038361549377
v 0.013049240224063396 0.10363355278968811 0.6601810455322266
v 0.017594799399375916 0.10069946944713593 0.6565051674842834
v 0.00503088254481554 0.09925045818090439 0.6592686772346497
v 0.0025340402498841286 0.0912647694349289 0.6545671820640564
v 0.009710465557873249 0.07656148821115494 0.6440451741218567
v 0.012217716313898563 0.07837845385074615 0.6498406529426575
v 0.009594949893653393 0.07917570322751999 0.650199830532074
v 0.007419857196509838 0.07705851644277573 0.6450580358505249
v 0.011262635700404644 0.07986585050821304 0.6552321314811707
v 0.009536889381706715 0.08095249533653259 0.6541526317596436
v 0.006248864345252514 0.08525397628545761 0.6556175351142883
v 0.004515969194471836 0.08303728699684143 0.6503806710243225
v 0.0038714343681931496 0.08907041698694229 0.6534480452537537
v 0.002993808127939701 0.08883986622095108 0.6491599082946777
v 0.002902851440012455 0.08129575103521347 0.6452890038490295
v 0.0046727629378438 0.0768369808793068 0.642407238483429
v 0.0018760048551484942 0.07985731959342957 0.6411021947860718
v 0.006534776650369167 0.07672419399023056 0.6402252912521362
v 0.0032486403360962868 0.08422573655843735 0.6581623554229736
v 0.016734234988689423 0.08072207868099213 0.6586088538169861
v 0.01566818729043007 0.0789961889386177 0.649877667427063
v 0.01267311256378889 0.07787501811981201 0.6428504586219788
v 0.008637499995529652 0.07826431840658188 0.638642430305481
v 0.01845918595790863 0.0815805047750473 0.6484484672546387
v 0.015068999491631985 0.0812329426407814 0.6422216892242432
v 0.0109196612611413 0.08221830427646637 0.6384850144386292
v 0.01903592422604561 0.08597277104854584 0.6468796730041504
v 0.015122509561479092 0.08498238027095795 0.6418374180793762
v 0.02274850755929947 0.0894383043050766 0.6563153862953186
v 0.021464362740516663 0.08417509496212006 0.6585479974746704
v 0.011832316406071186 0.08452180027961731 0.6393981575965881
v 0.0018997796578332782 0.07991372793912888 0.638708770275116
v 0.00412504468113184 0.08180084824562073 0.6371387243270874
v 0.002710801549255848 0.09200195223093033 0.6489896178245544
v 0.000816573272459209 0.08702258765697479 0.6447318196296692
v 0.0014318943722173572 0.08935192972421646 0.6436377763748169
v 0.00441321823745966 0.09542320668697357 0.6488396525382996
v 0.0028431983664631844 0.09152360260486603 0.642518937587738
v 0.0005698472959920764 0.08541399240493774 0.6400154829025269
v 0.000482977251522243 0.08392356336116791 0.6420292854309082
v 0.023887604475021362 0.08940912038087845 0.6587095856666565
v 0.021906401962041855 0.0954568013548851 0.6562396287918091
v 0.02022300846874714 0.09574410319328308 0.6549443006515503
v 0.016853900626301765 0.09198741614818573 0.6465054154396057
v 0.015204411931335926 0.10043250024318695 0.6543096303939819
v 0.009197794832289219 0.1014334112405777 0.6568500399589539
v 0.007421177811920643 0.09718248248100281 0.6474812030792236
v 0.01224807370454073 0.09629291296005249 0.6468100547790527
v 0.006050371564924717 0.0924946516752243 0.6416739821434021
v 0.00897750724107027 0.09194570034742355 0.6416177749633789
v 0.012975280173122883 0.08886990696191788 0.6410969495773315
v 0.005441176705062389 0.0884043276309967 0.6386131048202515
v 0.0024372944608330727 0.08741700649261475 0.6388139128684998
v 0.007293268106877804 0.08470205962657928 0.6374261975288391
v 0.007863410748541355 0.08909633010625839 0.639576256275177
v 0.009628894738852978 0.08663475513458252 0.638935923576355
v 0.037380438297986984 0.1096547544002533 0.5956962704658508
v 0.03435753285884857 0.10920596122741699 0.6011855006217957
v 0.04102526232600212 0.10890364646911621 0.6011430621147156
v 0.05024423450231552 0.10801742970943451 0.602938711643219
v 0.06031228229403496 0.10971511900424957 0.5996943116188049
v 0.0482601635158062 0.10894626379013062 0.6094136834144592
v 0.03881354257464409 0.10986941307783127 0.6070535182952881
v 0.02935425005853176 0.11129849404096603 0.6066900491714478
v 0.05444144830107689 0.11054836958646774 0.6174675226211548
f 2 3 1
f 1 3 4
f 5 6 8
f 8 6 7
f 9 4 10
f 10 4 3
f 12 13 11
f 11 13 9
f 14 12 16
f 16 12 15
f 18 19 17
f 17 19 20
f 22 23 21
f 21 23 24
f 26 27 25
f 25 27 28
f 30 31 29
f 29 31 32
f 33 34 36
f 36 34 35
f 37 38 40
f 40 38 39
f 41 42 6
f 6 42 43
f 6 43 7
f 7 43 44
f 45 34 46
f 46 34 33
f 48 49 47
f 47 49 50
f 52 53 51
f 51 53 54
f 56 52 55
f 55 52 51
f 58 59 57
f 57 59 60
f 61 62 4
f 4 62 1
f 64 65 63
f 63 65 66
f 68 69 67
f 67 69 70
f 72 73 71
f 71 73 74
f 76 77 75
f 75 77 78
f 53 79 54
f 54 79 80
f 82 83 81
f 81 83 84
f 85 86 52
f 52 86 53
f 57 60 87
f 87 60 88
f 89 90 43
f 43 90 44
f 43 42 89
f 89 42 91
f 40 39 92
f 92 39 93
f 94 70 64
f 64 70 69
f 13 61 9
f 9 61 4
f 25 28 69
f 69 28 95
f 96 25 68
f 68 25 69
f 98 99 97
f 97 99 100
f 101 102 104
f 104 102 103
f 106 30 105
f 105 30 29
f 51 54 107
f 107 54 108
f 54 80 108
f 108 80 109
f 111 112 110
f 110 112 113
f 115 5 114
f 114 5 116
f 115 41 5
f 5 41 6
f 36 35 111
f 111 35 117
f 35 118 117
f 117 118 119
f 34 120 35
f 35 120 118
f 34 45 120
f 120 45 121
f 125 126 124
f 124 126 127
f 128 129 14
f 14 129 130
f 33 131 46
f 46 131 132
f 133 94 63
f 63 94 64
f 134 135 137
f 137 135 136
f 139 140 138
f 138 140 141
f 77 142 78
f 78 142 143
f 144 145 20
f 20 145 146
f 148 149 147
f 147 149 72
f 151 152 150
f 150 152 153
f 82 101 83
f 83 101 104
f 101 82 155
f 155 82 154
f 156 157 58
f 58 157 59
f 158 68 147
f 147 68 67
f 159 146 15
f 15 146 16
f 68 158 96
f 96 158 160
f 129 66 130
f 130 66 65
f 162 163 161
f 161 163 164
f 166 167 165
f 165 167 168
f 170 171 169
f 169 171 172
f 174 171 173
f 173 171 170
f 176 177 175
f 175 177 178
f 180 181 179
f 179 181 24
f 182 183 21
f 21 183 184
f 81 185 82
f 82 185 154
f 186 187 188
f 188 187 144
f 158 71 160
f 160 71 189
f 190 135 157
f 157 135 59
f 169 172 139
f 139 172 140
f 147 72 158
f 158 72 71
f 192 193 191
f 191 193 194
f 167 166 49
f 49 166 195
f 196 190 50
f 50 190 157
f 197 198 200
f 200 198 199
f 21 24 182
f 182 24 181
f 146 159 20
f 20 159 17
f 182 181 81
f 81 181 185
f 201 185 180
f 180 185 181
f 202 203 83
f 83 203 84
f 205 206 204
f 204 206 85
f 207 22 184
f 184 22 21
f 179 24 208
f 208 24 23
f 208 209 179
f 179 209 205
f 209 210 205
f 205 210 206
f 212 206 211
f 211 206 210
f 179 205 180
f 180 205 204
f 213 176 88
f 88 176 214
f 86 85 212
f 212 85 206
f 193 217 218
f 217 219 218
f 218 219 220
f 219 18 220
f 220 18 17
f 19 221 20
f 20 221 144
f 222 223 225
f 225 223 224
f 175 226 176
f 176 226 214
f 227 87 214
f 214 87 88
f 220 17 228
f 228 17 159
f 134 213 60
f 60 213 88
f 138 229 151
f 151 229 152
f 193 192 210
f 210 192 211
f 230 194 218
f 218 194 193
f 231 232 228
f 228 232 230
f 233 234 91
f 91 234 89
f 235 236 93
f 93 236 92
f 230 232 234
f 234 232 237
f 47 238 48
f 48 238 239
f 240 191 235
f 235 191 236
f 5 8 116
f 116 8 241
f 242 243 189
f 189 243 160
f 244 245 98
f 98 245 99
f 156 246 47
f 47 246 238
f 76 247 77
f 77 247 248
f 250 125 249
f 249 125 124
f 252 253 251
f 251 253 254
f 111 110 36
f 36 110 255
f 256 33 255
f 255 33 36
f 257 258 154
f 154 258 155
f 63 169 133
f 133 169 139
f 66 170 63
f 63 170 169
f 173 170 129
f 129 170 66
f 129 128 173
f 173 128 259
f 128 260 259
f 259 260 261
f 213 134 262
f 262 134 137
f 263 264 186
f 186 264 187
f 112 265 113
f 113 265 266
f 11 267 268
f 234 233 230
f 230 233 194
f 153 269 70
f 70 269 67
f 175 178 165
f 165 178 141
f 150 153 94
f 94 153 70
f 271 221 270
f 270 221 207
f 269 153 272
f 272 153 152
f 121 45 109
f 109 45 108
f 47 50 156
f 156 50 157
f 57 273 58
f 58 273 274
f 145 275 260
f 260 275 261
f 276 149 143
f 143 149 78
f 148 269 75
f 75 269 272
f 207 277 270
f 270 277 278
f 195 196 49
f 49 196 50
f 59 135 60
f 60 135 134
f 83 104 202
f 202 104 279
f 149 148 78
f 78 148 75
f 247 278 248
f 248 278 277
f 183 182 84
f 84 182 81
f 48 239 281
f 281 239 282
f 227 223 283
f 283 223 222
f 223 226 224
f 224 226 168
f 281 282 224
f 224 282 225
f 165 168 175
f 175 168 226
f 264 263 138
f 138 263 229
f 14 16 128
f 128 16 260
f 220 228 218
f 218 228 230
f 87 227 284
f 284 227 283
f 260 16 145
f 145 16 146
f 244 98 258
f 258 98 155
f 58 274 156
f 156 274 246
f 107 285 51
f 51 285 55
f 243 286 160
f 160 286 96
f 234 237 89
f 89 237 90
f 46 132 107
f 107 132 285
f 253 252 249
f 249 252 250
f 286 26 96
f 96 26 25
f 106 105 287
f 287 105 288
f 272 152 289
f 289 152 229
f 138 151 139
f 139 151 133
f 183 290 161
f 161 290 162
f 291 292 277
f 277 292 293
f 151 150 133
f 133 150 94
f 262 275 177
f 177 275 187
f 144 187 145
f 145 187 275
f 273 57 284
f 284 57 87
f 174 136 190
f 190 136 135
f 111 117 112
f 112 117 38
f 117 119 38
f 38 119 123
f 112 38 265
f 265 38 37
f 287 288 254
f 254 288 251
f 228 159 231
f 231 159 15
f 223 227 226
f 226 227 214
f 147 67 148
f 148 67 269
f 224 168 281
f 281 168 167
f 199 163 200
f 200 163 162
f 45 46 108
f 108 46 107
f 281 167 48
f 48 167 49
f 161 164 291
f 291 164 292
f 38 123 39
f 293 294 277
f 277 294 248
f 284 283 296
f 296 283 295
f 284 296 273
f 273 296 297
f 274 273 298
f 298 273 297
f 246 274 299
f 299 274 298
f 283 222 295
f 295 222 300
f 222 225 300
f 300 225 301
f 301 225 302
f 302 225 282
f 303 304 300
f 300 304 295
f 306 307 305
f 305 307 308
f 309 310 308
f 308 310 305
f 308 307 312
f 312 307 311
f 313 314 312
f 312 314 315
f 311 316 312
f 312 316 313
f 317 304 311
f 311 304 316
f 315 309 312
f 312 309 308
f 318 319 321
f 321 319 320
f 319 318 309
f 309 318 310
f 311 307 317
f 317 307 306
f 306 297 317
f 317 297 296
f 306 322 297
f 297 322 298
f 305 323 306
f 306 323 322
f 323 305 324
f 324 305 310
f 304 317 295
f 295 317 296
f 318 325 310
f 310 325 324
f 323 324 326
f 326 324 327
f 324 325 327
f 327 325 328
f 326 327 329
f 329 327 330
f 329 331 326
f 326 331 332
f 333 330 328
f 328 330 327
f 323 326 322
f 322 326 332
f 322 332 298
f 298 332 299
f 325 318 334
f 334 318 321
f 313 316 335
f 335 316 304
f 335 336 313
f 313 336 314
f 304 303 335
f 335 303 337
f 336 335 338
f 338 335 337
f 336 339 314
f 314 339 340
f 246 299 238
f 238 299 341
f 239 342 282
f 282 342 302
f 342 239 341
f 341 239 238
f 341 331 342
f 342 331 343
f 331 329 343
f 343 329 344
f 342 343 302
f 302 343 345
f 341 299 331
f 331 299 332
f 346 301 345
f 345 301 302
f 346 303 301
f 301 303 300
f 347 337 346
f 346 337 303
f 347 346 348
f 348 346 345
f 349 347 350
f 350 347 348
f 343 344 345
f 345 344 348
f 344 351 348
f 348 351 350
f 337 347 338
f 338 347 349
f 353 338 352
f 352 338 349
f 352 355 354
f 354 355 356
f 352 349 355
f 355 349 350
f 352 354 353
f 353 354 334
f 353 334 339
f 339 334 321
f 339 336 353
f 353 336 338
f 329 330 344
f 344 330 351
f 356 351 333
f 333 351 330
f 356 355 351
f 351 355 350
f 354 356 328
f 328 356 333
f 328 325 354
f 354 325 334
f 309 315 319
f 319 315 320
f 320 340 321
f 321 340 339
f 320 315 340
f 340 315 314
f 137 136 261
f 261 136 259
f 140 166 141
f 141 166 165
f 172 171 195
f 195 171 196
f 171 174 196
f 196 174 190
f 178 177 264
f 264 177 187
f 172 195 140
f 140 195 166
f 137 261 262
f 262 261 275
f 178 264 141
f 141 264 138
f 262 177 213
f 213 177 176
f 136 174 259
f 259 174 173
f 358 359 357
f 357 359 360
f 362 363 361
f 361 363 364
f 361 364 365
f 365 364 366
f 367 368 370
f 370 368 369
f 76 371 247
f 247 371 372
f 373 374 362
f 362 374 363
f 376 377 375
f 375 377 378
f 289 229 380
f 380 229 379
f 381 379 263
f 263 379 229
f 383 384 382
f 382 384 385
f 386 368 374
f 374 368 363
f 76 289 371
f 371 289 380
f 377 376 359
f 359 376 387
f 388 386 360
f 360 386 374
f 389 383 366
f 366 383 390
f 392 393 391
f 391 393 394
f 383 382 390
f 390 382 395
f 396 365 390
f 390 365 366
f 389 366 367
f 367 366 364
f 357 397 358
f 358 397 398
f 373 399 357
f 357 399 397
f 389 367 400
f 400 367 370
f 382 385 375
f 375 385 372
f 357 360 373
f 373 360 374
f 361 401 362
f 362 401 402
f 387 388 359
f 359 388 360
f 363 368 364
f 364 368 367
f 358 398 403
f 403 398 404
f 396 392 405
f 405 392 391
f 392 395 393
f 393 395 378
f 393 403 394
f 394 403 404
f 375 378 382
f 382 378 395
f 365 396 406
f 406 396 405
f 362 402 373
f 373 402 399
f 271 270 400
f 400 270 384
f 401 361 406
f 406 361 365
f 381 369 386
f 386 369 368
f 392 396 395
f 395 396 390
f 393 378 403
f 403 378 377
f 403 377 358
f 358 377 359
f 406 405 408
f 408 405 407
f 406 408 401
f 401 408 409
f 401 409 402
f 402 409 410
f 402 410 399
f 399 410 411
f 405 391 407
f 407 391 412
f 391 394 412
f 412 394 413
f 394 404 413
f 413 404 414
f 415 416 412
f 412 416 407
f 418 419 417
f 417 419 420
f 421 422 418
f 418 422 419
f 419 422 424
f 424 422 423
f 425 426 424
f 424 426 427
f 423 428 424
f 424 428 425
f 427 420 424
f 424 420 419
f 420 429 417
f 417 429 430
f 423 422 431
f 431 422 421
f 421 409 431
f 431 409 408
f 421 432 409
f 409 432 410
f 418 433 421
f 421 433 432
f 434 433 417
f 417 433 418
f 431 416 423
f 423 416 428
f 416 431 407
f 407 431 408
f 435 434 430
f 430 434 417
f 433 434 436
f 436 434 437
f 434 435 437
f 437 435 438
f 436 437 439
f 439 437 440
f 439 441 436
f 436 441 442
f 438 443 437
f 437 443 440
f 436 442 433
f 433 442 432
f 432 442 410
f 410 442 411
f 435 430 445
f 445 430 444
f 430 429 444
f 444 429 446
f 425 428 447
f 447 428 416
f 426 425 448
f 448 425 447
f 416 415 447
f 447 415 449
f 447 449 448
f 448 449 450
f 451 452 448
f 448 452 426
f 446 452 444
f 444 452 451
f 399 411 397
f 397 411 453
f 398 454 404
f 404 454 414
f 454 398 453
f 453 398 397
f 453 441 454
f 454 441 455
f 441 439 455
f 455 439 456
f 454 455 414
f 414 455 457
f 441 453 442
f 442 453 411
f 458 413 457
f 457 413 414
f 458 415 413
f 413 415 412
f 458 459 415
f 415 459 449
f 459 458 460
f 460 458 457
f 461 459 462
f 462 459 460
f 455 456 457
f 457 456 460
f 456 463 460
f 460 463 462
f 459 461 449
f 449 461 450
f 465 450 464
f 464 450 461
f 464 467 466
f 466 467 468
f 464 461 467
f 467 461 462
f 464 466 465
f 465 466 445
f 465 445 451
f 451 445 444
f 451 448 465
f 465 448 450
f 439 440 456
f 456 440 463
f 468 463 443
f 443 463 440
f 468 467 463
f 463 467 462
f 466 468 438
f 438 468 443
f 438 435 466
f 466 435 445
f 420 427 429
f 429 427 446
f 446 427 452
f 452 427 426
f 370 369 188
f 188 369 186
f 371 376 372
f 372 376 375
f 380 379 387
f 387 379 388
f 379 381 388
f 388 381 386
f 385 384 278
f 278 384 270
f 380 387 371
f 371 387 376
f 400 370 271
f 271 370 188
f 385 278 372
f 372 278 247
f 400 384 389
f 389 384 383
f 369 381 186
f 186 381 263
f 221 271 144
f 144 271 188
f 221 19 207
f 207 19 22
f 19 18 22
f 22 18 23
f 18 219 23
f 23 219 208
f 469 470 472
f 472 470 471
f 474 475 473
f 473 475 476
f 473 476 477
f 477 476 478
f 480 481 479
f 479 481 482
f 483 484 474
f 474 484 475
f 486 487 485
f 485 487 488
f 489 490 77
f 77 490 142
f 491 489 248
f 248 489 77
f 493 494 492
f 492 494 495
f 496 480 484
f 484 480 475
f 486 497 487
f 487 497 471
f 498 496 472
f 472 496 484
f 499 493 478
f 478 493 500
f 501 502 504
f 504 502 503
f 493 492 500
f 500 492 505
f 506 477 500
f 500 477 478
f 499 478 479
f 479 478 476
f 469 507 470
f 470 507 508
f 483 509 469
f 469 509 507
f 479 482 499
f 499 482 510
f 492 495 485
f 485 495 511
f 483 469 484
f 484 469 472
f 473 512 474
f 474 512 513
f 497 498 471
f 471 498 472
f 475 480 476
f 476 480 479
f 470 508 514
f 514 508 515
f 506 502 516
f 516 502 501
f 503 502 488
f 488 502 505
f 514 515 503
f 503 515 504
f 485 488 492
f 492 488 505
f 477 506 517
f 517 506 516
f 474 513 483
f 483 513 509
f 510 292 494
f 494 292 164
f 512 473 517
f 517 473 477
f 491 481 496
f 496 481 480
f 502 506 505
f 505 506 500
f 503 488 514
f 514 488 487
f 514 487 470
f 470 487 471
f 517 516 519
f 519 516 518
f 517 519 512
f 512 519 520
f 512 520 513
f 513 520 521
f 513 521 509
f 509 521 522
f 516 501 518
f 518 501 523
f 501 504 523
f 523 504 524
f 524 504 525
f 525 504 515
f 526 527 523
f 523 527 518
f 529 530 528
f 528 530 531
f 532 533 529
f 529 533 530
f 530 533 535
f 535 533 534
f 536 537 535
f 535 537 538
f 534 539 535
f 535 539 536
f 538 531 535
f 535 531 530
f 540 541 531
f 531 541 528
f 533 532 534
f 534 532 542
f 532 520 542
f 542 520 519
f 532 543 520
f 520 543 521
f 529 544 532
f 532 544 543
f 544 529 545
f 545 529 528
f 534 542 539
f 539 542 527
f 527 542 518
f 518 542 519
f 541 546 528
f 528 546 545
f 547 544 548
f 548 544 545
f 546 549 545
f 545 549 548
f 550 547 551
f 551 547 548
f 547 550 553
f 553 550 552
f 549 554 548
f 548 554 551
f 544 547 543
f 543 547 553
f 543 553 521
f 521 553 522
f 546 541 556
f 556 541 555
f 541 540 555
f 555 540 557
f 536 539 558
f 558 539 527
f 537 536 559
f 559 536 558
f 527 526 558
f 558 526 560
f 559 558 561
f 561 558 560
f 559 562 537
f 537 562 563
f 557 563 555
f 555 563 562
f 509 522 507
f 507 522 564
f 508 565 515
f 515 565 525
f 565 508 564
f 564 508 507
f 564 552 565
f 565 552 566
f 552 550 566
f 566 550 567
f 565 566 525
f 525 566 568
f 564 522 552
f 552 522 553
f 569 524 568
f 568 524 525
f 569 526 524
f 524 526 523
f 570 560 569
f 569 560 526
f 570 569 571
f 571 569 568
f 572 570 573
f 573 570 571
f 566 567 568
f 568 567 571
f 567 574 571
f 571 574 573
f 570 572 560
f 560 572 561
f 576 561 575
f 575 561 572
f 575 578 577
f 577 578 579
f 575 572 578
f 578 572 573
f 575 577 576
f 576 577 556
f 576 556 562
f 562 556 555
f 562 559 576
f 576 559 561
f 550 551 567
f 567 551 574
f 579 574 554
f 554 574 551
f 579 578 574
f 574 578 573
f 579 554 577
f 577 554 549
f 549 546 577
f 577 546 556
f 531 538 540
f 540 538 557
f 557 538 563
f 563 538 537
f 481 294 482
f 482 294 293
f 580 486 511
f 511 486 485
f 490 489 497
f 497 489 498
f 489 491 498
f 498 491 496
f 163 495 164
f 164 495 494
f 580 490 486
f 486 490 497
f 482 293 510
f 510 293 292
f 495 163 511
f 511 163 199
f 494 493 510
f 510 493 499
f 481 491 294
f 294 491 248
f 582 583 581
f 581 583 584
f 586 587 585
f 585 587 588
f 585 588 589
f 589 588 590
f 592 593 591
f 591 593 594
f 595 596 598
f 598 596 597
f 599 600 586
f 586 600 587
f 601 602 604
f 604 602 603
f 605 606 608
f 608 606 607
f 609 607 200
f 200 607 606
f 610 611 613
f 613 611 612
f 600 614 587
f 587 614 592
f 596 605 597
f 597 605 608
f 602 615 603
f 603 615 583
f 616 614 584
f 584 614 600
f 611 618 617
f 617 618 590
f 620 621 619
f 619 621 622
f 610 623 611
f 611 623 618
f 624 589 618
f 618 589 590
f 617 590 591
f 591 590 588
f 581 625 582
f 582 625 626
f 599 627 581
f 581 627 625
f 591 594 617
f 617 594 628
f 601 610 598
f 598 610 613
f 581 584 599
f 599 584 600
f 585 629 586
f 586 629 630
f 615 616 583
f 583 616 584
f 587 592 588
f 588 592 591
f 582 626 631
f 631 626 632
f 624 620 633
f 633 620 619
f 621 620 604
f 604 620 623
f 631 632 621
f 621 632 622
f 610 601 623
f 623 601 604
f 589 624 634
f 634 624 633
f 586 630 599
f 599 630 627
f 203 202 628
f 628 202 612
f 629 585 634
f 634 585 589
f 609 593 614
f 614 593 592
f 620 624 623
f 623 624 618
f 631 621 603
f 603 621 604
f 582 631 583
f 583 631 603
f 634 633 636
f 636 633 635
f 634 636 629
f 629 636 637
f 629 637 630
f 630 637 638
f 630 638 627
f 627 638 639
f 633 619 635
f 635 619 640
f 619 622 640
f 640 622 641
f 641 622 642
f 642 622 632
f 644 635 643
f 643 635 640
f 645 646 648
f 648 646 647
f 649 650 646
f 646 650 647
f 647 650 652
f 652 650 651
f 652 653 655
f 655 653 654
f 651 656 652
f 652 656 653
f 655 648 652
f 652 648 647
f 648 657 645
f 645 657 658
f 650 649 651
f 651 649 659
f 649 637 659
f 659 637 636
f 649 660 637
f 637 660 638
f 661 660 646
f 646 660 649
f 662 661 645
f 645 661 646
f 651 659 656
f 656 659 644
f 644 659 635
f 635 659 636
f 663 662 658
f 658 662 645
f 664 661 665
f 665 661 662
f 663 666 662
f 662 666 665
f 667 664 668
f 668 664 665
f 664 667 670
f 670 667 669
f 666 671 665
f 665 671 668
f 661 664 660
f 660 664 670
f 660 670 638
f 638 670 639
f 658 672 663
f 663 672 673
f 658 657 672
f 672 657 674
f 653 656 675
f 675 656 644
f 653 675 654
f 654 675 676
f 675 644 677
f 677 644 643
f 676 675 678
f 678 675 677
f 679 680 676
f 676 680 654
f 674 680 672
f 672 680 679
f 627 639 625
f 625 639 681
f 626 682 632
f 632 682 642
f 681 682 625
f 625 682 626
f 669 683 681
f 681 683 682
f 667 684 669
f 669 684 683
f 682 683 642
f 642 683 685
f 681 639 669
f 669 639 670
f 686 641 685
f 685 641 642
f 641 686 640
f 640 686 643
f 686 687 643
f 643 687 677
f 687 686 688
f 688 686 685
f 689 687 690
f 690 687 688
f 683 684 685
f 685 684 688
f 684 691 688
f 688 691 690
f 687 689 677
f 677 689 678
f 693 678 692
f 692 678 689
f 692 695 694
f 694 695 696
f 692 689 695
f 695 689 690
f 692 694 693
f 693 694 673
f 693 673 679
f 679 673 672
f 679 676 693
f 693 676 678
f 684 667 691
f 691 667 668
f 696 691 671
f 671 691 668
f 696 695 691
f 691 695 690
f 694 696 666
f 666 696 671
f 666 663 694
f 694 663 673
f 648 655 657
f 657 655 674
f 674 655 680
f 680 655 654
f 593 162 594
f 594 162 290
f 598 597 601
f 601 597 602
f 615 608 616
f 616 608 607
f 607 609 616
f 616 609 614
f 697 595 613
f 613 595 598
f 597 608 602
f 602 608 615
f 594 290 628
f 628 290 203
f 628 612 617
f 617 612 611
f 593 609 162
f 162 609 200
f 105 29 698
f 698 29 699
f 268 126 701
f 701 126 700
f 126 125 700
f 700 125 702
f 252 703 250
f 250 703 704
f 32 268 705
f 705 268 701
f 288 105 706
f 706 105 698
f 29 32 699
f 699 32 705
f 707 251 706
f 706 251 288
f 250 704 125
f 125 704 702
f 703 252 707
f 707 252 251
f 706 708 707
f 707 708 709
f 707 709 703
f 703 709 710
f 703 710 704
f 704 710 711
f 704 711 702
f 702 711 712
f 706 698 708
f 708 698 713
f 698 699 713
f 713 699 714
f 699 705 714
f 714 705 715
f 717 708 716
f 716 708 713
f 719 720 718
f 718 720 721
f 722 723 719
f 719 723 720
f 724 725 723
f 723 725 720
f 724 726 725
f 725 726 727
f 728 721 725
f 725 721 720
f 721 728 729
f 729 728 730
f 729 731 721
f 721 731 718
f 724 723 732
f 732 723 722
f 722 710 732
f 732 710 709
f 722 733 710
f 710 733 711
f 719 734 722
f 722 734 733
f 734 719 735
f 735 719 718
f 724 732 726
f 726 732 717
f 717 732 708
f 708 732 709
f 731 736 718
f 718 736 735
f 737 734 738
f 738 734 735
f 736 739 735
f 735 739 738
f 740 737 741
f 741 737 738
f 737 740 743
f 743 740 742
f 739 744 738
f 738 744 741
f 734 737 733
f 733 737 743
f 733 743 711
f 711 743 712
f 736 731 746
f 746 731 745
f 731 729 745
f 745 729 730
f 727 726 747
f 747 726 717
f 748 727 749
f 749 727 747
f 747 717 750
f 750 717 716
f 749 747 751
f 751 747 750
f 749 752 748
f 748 752 753
f 730 753 745
f 745 753 752
f 728 725 748
f 748 725 727
f 730 728 753
f 753 728 748
f 700 702 754
f 754 702 712
f 705 701 715
f 715 701 755
f 754 755 700
f 700 755 701
f 742 756 754
f 754 756 755
f 740 757 742
f 742 757 756
f 755 756 715
f 715 756 758
f 754 712 742
f 742 712 743
f 759 714 758
f 758 714 715
f 714 759 713
f 713 759 716
f 759 760 716
f 716 760 750
f 760 759 761
f 761 759 758
f 762 760 763
f 763 760 761
f 756 757 758
f 758 757 761
f 757 764 761
f 761 764 763
f 760 762 750
f 750 762 751
f 766 751 765
f 765 751 762
f 767 765 769
f 769 765 768
f 765 762 768
f 768 762 763
f 765 767 766
f 766 767 746
f 766 746 752
f 752 746 745
f 752 749 766
f 766 749 751
f 757 740 764
f 764 740 741
f 769 764 744
f 744 764 741
f 769 768 764
f 764 768 763
f 767 769 739
f 739 769 744
f 739 736 767
f 767 736 746
f 219 217 208
f 208 217 209
f 209 217 210
f 210 217 193
f 198 580 199
f 199 580 511
f 76 75 289
f 289 75 272
f 277 207 291
f 291 207 184
f 290 183 203
f 203 183 84
f 490 580 142
f 142 580 198
f 142 198 143
f 143 198 197
f 149 276 72
f 72 276 73
f 104 103 279
f 279 103 770
f 770 596 279
f 279 596 595
f 605 596 771
f 771 596 770
f 771 770 772
f 772 770 103
f 772 103 773
f 773 103 102
f 155 774 101
f 101 774 102
f 773 102 97
f 97 102 774
f 775 773 100
f 100 773 97
f 773 775 772
f 772 775 776
f 772 776 771
f 771 776 777
f 200 606 197
f 197 606 777
f 189 71 778
f 778 71 74
f 97 774 98
f 98 774 155
f 183 161 184
f 184 161 291
f 777 276 197
f 197 276 143
f 777 606 771
f 771 606 605
f 613 612 697
f 697 612 202
f 595 697 279
f 279 697 202
f 73 276 776
f 776 276 777
f 776 775 73
f 73 775 74
f 100 778 775
f 775 778 74
f 778 100 189
f 189 100 99
f 245 242 99
f 99 242 189
f 131 33 256
f 28 1 95
f 95 1 62
f 27 2 28
f 28 2 1
f 265 115 266
f 266 115 114
f 95 62 69
f 69 62 64
f 62 61 64
f 64 61 65
f 61 13 65
f 65 13 130
f 13 12 130
f 130 12 14
f 31 11 32
f 32 11 268
f 15 12 31
f 31 12 11
f 31 30 15
f 15 30 231
f 30 106 231
f 231 106 232
f 287 237 106
f 106 237 232
f 254 90 287
f 287 90 237
f 253 44 254
f 254 44 90
f 253 249 44
f 44 249 7
f 267 127 268
f 268 127 126
f 10 3 241
f 241 3 116
f 3 2 116
f 116 2 114
f 2 27 114
f 114 27 266
f 27 26 266
f 266 26 113
f 26 286 113
f 113 286 110
f 286 243 110
f 110 243 255
f 243 242 255
f 255 242 256
f 242 245 256
f 256 245 131
f 245 244 131
f 131 244 132
f 265 37 115
f 115 37 41
f 41 37 42
f 42 37 40
f 92 91 40
f 40 91 42
f 236 233 92
f 92 233 91
f 191 194 236
f 236 194 233
f 258 285 244
f 244 285 132
f 257 55 258
f 258 55 285
f 257 154 201
f 201 154 185
f 56 201 204
f 204 201 180
f 55 257 56
f 56 257 201
f 204 85 56
f 56 85 52
f 86 122 53
f 53 122 79
f 212 215 86
f 86 215 122
f 211 216 212
f 212 216 215
f 192 280 211
f 211 280 216
f 191 240 192
f 192 240 280
f 249 124 7
f 7 124 8
f 124 127 8
f 8 127 241
f 127 267 241
f 241 267 10
f 10 267 9
f 9 267 11
