v 0.04386519268155098 0.08211862295866013 0.6011329293251038
v 0.0551254041492939 0.07747415453195572 0.6020649075508118
v 0.04723304510116577 0.07594180107116699 0.6100678443908691
v 0.03804366663098335 0.07934708148241043 0.6082578301429749
v 0.06560880690813065 0.07521072775125504 0.6225246787071228
v 0.07197152078151703 0.0818135067820549 0.6291400790214539
v 0.05469699576497078 0.08442498743534088 0.632951557636261
v 0.051334697753190994 0.07798255980014801 0.6271265745162964
v 0.032601263374090195 0.08126230537891388 0.6133056282997131
v 0.04000520706176758 0.07700600475072861 0.6151452660560608
v 0.03196780011057854 0.08934944123029709 0.6137884855270386
v 0.02482626959681511 0.09494944661855698 0.616180956363678
v 0.02519267424941063 0.08739376068115234 0.6147505640983582
v 0.01758277788758278 0.09781777858734131 0.6164954304695129
v 0.031688250601291656 0.1043076366186142 0.615649938583374
v 0.01999160647392273 0.10561250150203705 0.6121982336044312
v 0.0390922874212265 0.11655200272798538 0.5969697833061218
v 0.04246408864855766 0.11760146915912628 0.5849462151527405
v 0.02677164226770401 0.11575901508331299 0.583607017993927
v 0.02491782233119011 0.11403009295463562 0.5962294340133667
v 0.03700874373316765 0.11259876191616058 0.5663837790489197
v 0.030333388596773148 0.11453462392091751 0.57569420337677
v 0.04625777527689934 0.11736250668764114 0.5770618915557861
v 0.05142883583903313 0.11524510383605957 0.5686129927635193
v 0.05200234800577164 0.08691303431987762 0.5885143876075745
v 0.06317950040102005 0.08430854231119156 0.5876461863517761
v 0.06097850576043129 0.081706702709198 0.5925703644752502
v 0.050059184432029724 0.08543449640274048 0.5931835770606995
v 0.03470341116189957 0.10073380917310715 0.6174980998039246
v 0.04125163331627846 0.10234060883522034 0.620159924030304
v 0.03530183061957359 0.09799094498157501 0.6162974834442139
v 0.03237919881939888 0.09559657424688339 0.6156898736953735
v 0.08891038596630096 0.0790339857339859 0.5794101357460022
v 0.10075533390045166 0.08482854813337326 0.5816959738731384
v 0.1000804677605629 0.08516710251569748 0.587624728679657
v 0.08942496031522751 0.07994218915700912 0.5843062400817871
v 0.09275050461292267 0.08288084715604782 0.6137821674346924
v 0.09957178682088852 0.08768143504858017 0.6068167686462402
v 0.10376665741205215 0.0973697230219841 0.6156519055366516
v 0.09543430805206299 0.09622979909181595 0.6201533079147339
v 0.08340639621019363 0.08116918057203293 0.6227169632911682
v 0.08689801394939423 0.09243153035640717 0.6265571117401123
v 0.07382865995168686 0.09276726841926575 0.6313023567199707
v 0.05636726692318916 0.09361160546541214 0.6337203979492188
v 0.10225913673639297 0.08677872270345688 0.5691206455230713
v 0.09393969923257828 0.08233197778463364 0.5656381845474243
v -0.02376195415854454 0.12611331045627594 0.6018028259277344
v -0.022947251796722412 0.12505856156349182 0.5961084961891174
v -0.022015679627656937 0.11810854822397232 0.5998392105102539
v -0.022230852395296097 0.12064346671104431 0.604627251625061
v 0.0956452488899231 0.10102350264787674 0.5566596984863281
v 0.09421500563621521 0.11095650494098663 0.5575342774391174
v 0.10137146711349487 0.10985895246267319 0.5573110580444336
v 0.10291057080030441 0.10066119581460953 0.5583698153495789
v 0.0859912782907486 0.10133498907089233 0.5545340776443481
v 0.08419956266880035 0.1118042916059494 0.5583780407905579
v -0.01345323771238327 0.13117630779743195 0.6056905388832092
v -0.01827917993068695 0.1301238089799881 0.6068179607391357
v -0.015353395603597164 0.12547801434993744 0.6086724996566772
v -0.01013123244047165 0.12576505541801453 0.6063695549964905
v 0.028602372854948044 0.08340077102184296 0.6099936366081238
v 0.03371316194534302 0.0835643857717514 0.6022277474403381
v 0.005455678328871727 0.08795783668756485 0.6098747849464417
v 0.0190458744764328 0.08557552099227905 0.6051578521728516
v 0.018488917499780655 0.08629366010427475 0.612471342086792
v 0.008269780315458775 0.08988083153963089 0.6153649687767029
v 0.029559988528490067 0.08799644559621811 0.5835294127464294
v 0.041285041719675064 0.08830253034830093 0.5847856402397156
v 0.03829214349389076 0.08796793222427368 0.5905001759529114
v 0.025103118270635605 0.08705421537160873 0.5909113883972168
v 0.0456409826874733 0.08555552363395691 0.571645200252533
v 0.033750761300325394 0.08589108288288116 0.571476936340332
v 0.03754784166812897 0.08419705182313919 0.5640700459480286
v 0.04540756344795227 0.08338921517133713 0.5655046701431274
v 0.010324073024094105 0.08725737780332565 0.5746009349822998
v 0.0011664298363029957 0.09025147557258606 0.5743359327316284
v 0.0018208608962595463 0.09273933619260788 0.5685520172119141
v 0.01214239839464426 0.08825697004795074 0.5706604719161987
v 0.10840664058923721 0.10984907299280167 0.5575565695762634
v 0.10965791344642639 0.10070336610078812 0.5608987212181091
v 0.04610550403594971 0.10556229203939438 0.5485422015190125
v 0.05233796685934067 0.09806723892688751 0.5436908006668091
v 0.03998588025569916 0.09581265598535538 0.5395830869674683
v 0.03716760873794556 0.10429660230875015 0.5460161566734314
v 0.09108036756515503 0.11857224255800247 0.563808798789978
v 0.09856048226356506 0.11853040754795074 0.5615132451057434
v -0.009117682464420795 0.13119518756866455 0.6012237668037415
v -0.0069653731770813465 0.1257384717464447 0.6012363433837891
v 0.07471297681331635 0.10247578471899033 0.6267667412757874
v 0.057298507541418076 0.10133207589387894 0.6297181844711304
v 0.08712887018918991 0.10396872460842133 0.6225167512893677
v 0.09517175704240799 0.10660749673843384 0.6182044148445129
v 0.10299897193908691 0.10866551846265793 0.6170386672019958
v 0.014821757562458515 0.08526695519685745 0.5994411706924438
v 0.04008954018354416 0.08586502075195312 0.595764696598053
v 0.05364180728793144 0.08700710535049438 0.5839604139328003
v 0.058545008301734924 0.07934436202049255 0.554789125919342
v 0.06898827105760574 0.07902062684297562 0.5564745664596558
v 0.06328172981739044 0.07883493602275848 0.565427303314209
v 0.05529896169900894 0.07980559021234512 0.5620381236076355
v 0.053044579923152924 0.08833915740251541 0.5427500009536743
v 0.05032401531934738 0.08233553916215897 0.5471480488777161
v 0.041119735687971115 0.08242141455411911 0.5452926158905029
v 0.04223835840821266 0.08756682276725769 0.5403008460998535
v 0.03671231493353844 0.10516692698001862 0.6227957606315613
v 0.04697780683636665 0.10550874471664429 0.6235150098800659
v 0.09638144820928574 0.09093958139419556 0.5594336986541748
v 0.10301300883293152 0.09180773794651031 0.563245952129364
v 0.11063011735677719 0.09447740018367767 0.5654551386833191
v 0.07637117803096771 0.0802367702126503 0.5852603912353516
v 0.08990108966827393 0.0801960676908493 0.5880604982376099
v 0.08905518800020218 0.07892268896102905 0.5937526822090149
v 0.0758759155869484 0.07950648665428162 0.5887055397033691
v 0.06667815148830414 0.07265877723693848 0.6069722175598145
v 0.079086072742939 0.07430509477853775 0.6118593811988831
v 0.05534563586115837 0.07279887795448303 0.6156576871871948
v 0.10100699216127396 0.08581476658582687 0.5961769819259644
v 0.10979930311441422 0.08728010952472687 0.5894657969474792
v 0.10939037799835205 0.08891983330249786 0.5983178615570068
v 0.11075520515441895 0.08811654150485992 0.5797461867332458
v 0.11109741032123566 0.09035174548625946 0.5711210370063782
v 0.10638300329446793 0.12135617434978485 0.5599163770675659
v 0.10790225863456726 0.0922422781586647 0.6060960292816162
v 0.041948046535253525 0.08090249449014664 0.6274999976158142
v 0.03323499485850334 0.08455502241849899 0.6270183324813843
v 0.031759802252054214 0.08469250053167343 0.6196863055229187
v 0.03883805498480797 0.08046387881040573 0.619953989982605
v 0.009789819829165936 0.10272002965211868 0.6157641410827637
v 0.007909891195595264 0.09572140127420425 0.6176654696464539
v 0.01869857683777809 0.09076105058193207 0.6174567937850952
v 0.07937180250883102 0.07803811877965927 0.5730096101760864
v 0.08413811773061752 0.08052267134189606 0.5616677403450012
v 0.001790886279195547 0.08922932296991348 0.6039568185806274
v -0.005120629910379648 0.12495085597038269 0.6054174900054932
v -0.009447514079511166 0.12330852448940277 0.6093344688415527
v 0.0023450693115592003 0.11420372128486633 0.6117194294929504
v 0.005241721402853727 0.11717191338539124 0.6068571209907532
v -0.004274601582437754 0.09907782077789307 0.5975092649459839
v -0.0033416387159377337 0.09543873369693756 0.603337824344635
v -0.005407593213021755 0.10003986209630966 0.6020206212997437
v -0.006143536418676376 0.10300770401954651 0.5964678525924683
v 0.007958968169987202 0.09024731814861298 0.5626435875892639
v 0.01669349893927574 0.08673391491174698 0.5640381574630737
v 0.010302632115781307 0.10892694443464279 0.594768226146698
v 0.014455717988312244 0.10985329747200012 0.6056166291236877
v 0.023559510707855225 0.11173663288354874 0.6048862338066101
v 0.032730020582675934 0.08724428713321686 0.5768188238143921
v 0.021873239427804947 0.08671511709690094 0.5749552249908447
v 0.023137185722589493 0.08653878420591354 0.5710210204124451
v 0.011283197440207005 0.08631487190723419 0.5959064364433289
v 0.0009937356226146221 0.0897744670510292 0.5977054834365845
v 0.005723204463720322 0.08884670585393906 0.5924075841903687
v 0.01534315850585699 0.08723623305559158 0.5907378792762756
v 0.0647563561797142 0.10035713762044907 0.5470128655433655
v 0.06570354849100113 0.08889827132225037 0.5454779863357544
v -0.022027622908353806 0.12809333205223083 0.6056024432182312
v -0.01951904594898224 0.12302062660455704 0.6080197691917419
v 0.044138722121715546 0.08755585551261902 0.5781877636909485
v 0.036698486655950546 0.1127343699336052 0.6048774719238281
v 0.05546138435602188 0.08630158007144928 0.5789089202880859
v 0.022610407322645187 0.1032397672533989 0.5562491416931152
v 0.021745596081018448 0.09714651107788086 0.5531632900238037
v 0.016415756195783615 0.09708774089813232 0.5544360280036926
v 0.017343156039714813 0.10290102660655975 0.5549477338790894
v -0.013568020425736904 0.11442651599645615 0.5916983485221863
v -0.017256293445825577 0.11368080973625183 0.596185028553009
v -0.020195282995700836 0.11710033565759659 0.5939702391624451
v -0.0159318745136261 0.11773873120546341 0.5904936790466309
v -0.0018944921903312206 0.09584023058414459 0.6090695261955261
v 0.0009276298806071281 0.09727124869823456 0.614618182182312
v -0.003990345634520054 0.10401897877454758 0.611942708492279
v -0.0054311854764819145 0.10168725252151489 0.6069047451019287
v 0.0029441649094223976 0.1034950464963913 0.615733802318573
v -0.0008843247778713703 0.10925619304180145 0.6135737895965576
v -0.007764727342873812 0.11750639230012894 0.5909347534179688
v -0.002413941780105233 0.1217675432562828 0.5946429967880249
v 0.003969363868236542 0.1140495240688324 0.5946702361106873
v -0.002611324191093445 0.1094631627202034 0.5937222838401794
v 0.06563899666070938 0.11846882104873657 0.5710806250572205
v 0.0693712830543518 0.11462146043777466 0.5614660978317261
v 0.05525722727179527 0.11139833927154541 0.5586808323860168
v 0.041813306510448456 0.10888221859931946 0.5555164217948914
v 0.029510781168937683 0.10516328364610672 0.5538614392280579
v 0.025634638965129852 0.11082116514444351 0.5640155076980591
v 0.059215422719717026 0.1082802340388298 0.552455723285675
v -0.0005960275884717703 0.10463722050189972 0.5922709107398987
v 0.00638399925082922 0.10765808820724487 0.5973584651947021
v 0.0044608642347157 0.10755755752325058 0.5933524370193481
v 0.05704566463828087 0.08360272645950317 0.5722036957740784
v -0.012923641130328178 0.12072178721427917 0.6100043058395386
v 0.09184225648641586 0.12225785106420517 0.6054441928863525
v 0.09176672250032425 0.12614665925502777 0.5933321118354797
v 0.08337434381246567 0.12411187589168549 0.5948527455329895
v 0.08341766893863678 0.11922162771224976 0.6074402928352356
v -0.018263578414916992 0.11432591080665588 0.6030017733573914
v -0.016927046701312065 0.11707788705825806 0.6079363822937012
v 0.018371157348155975 0.08584123849868774 0.5579346418380737
v 0.0115698566660285 0.08944790065288544 0.5581706762313843
v 0.012553376145660877 0.09102711081504822 0.5552938580513
v 0.01813098043203354 0.08625944703817368 0.5535065531730652
v 0.07259351015090942 0.11208390444517136 0.5572943091392517
v 0.03147997707128525 0.09278043359518051 0.5381239056587219
v 0.030434172600507736 0.10117649286985397 0.5428565144538879
v 0.0816972479224205 0.11750787496566772 0.564294159412384
v 0.07852762192487717 0.12145651876926422 0.5725513100624084
v 0.08799299597740173 0.12345798313617706 0.5730250477790833
v 0.014283319003880024 0.11042378097772598 0.5746039152145386
v 0.060995008796453476 0.11999224871397018 0.5781668424606323
v 0.07508973777294159 0.12240215390920639 0.5792706608772278
v 0.08627405762672424 0.1248021125793457 0.5801501274108887
v 0.0943015068769455 0.1270301789045334 0.5800424218177795
v 0.09541632235050201 0.12511005997657776 0.5722533464431763
v -0.002846420742571354 0.1237182468175888 0.5997446179389954
v -0.00602524820715189 0.12399511784315109 0.5955854654312134
v 0.10371634364128113 0.12846490740776062 0.5708097815513611
v 0.10223326086997986 0.1298580765724182 0.5798062086105347
v 0.07196300476789474 0.12261496484279633 0.5878917574882507
v 0.06881525367498398 0.12139089405536652 0.5974389314651489
v 0.05846649035811424 0.12011146545410156 0.5863723754882812
v 0.054068684577941895 0.11888051778078079 0.5961124897003174
v 0.01617896556854248 0.11402557790279388 0.5845487713813782
v -0.0119245620444417 0.1400250494480133 0.5887737274169922
v -0.0095289945602417 0.1283605694770813 0.5906069874763489
v -0.014497172087430954 0.12590381503105164 0.5885616540908813
v -0.01393646840006113 0.1369408369064331 0.5859290361404419
v -0.0105215422809124 0.1202894002199173 0.5911728143692017
v -0.0071601527743041515 0.1300988495349884 0.5953970551490784
v 0.0517965704202652 0.11391904950141907 0.6063583493232727
v -0.00405573844909668 0.09540492296218872 0.5919357538223267
v 0.06822257488965988 0.11435379087924957 0.6093233227729797
v 0.044785596430301666 0.10882166773080826 0.6162812113761902
v 0.056703414767980576 0.10839468240737915 0.6187494397163391
v 0.08434150367975235 0.11386319994926453 0.6156302690505981
v 0.07192625105381012 0.10980737954378128 0.6206925511360168
v 0.1005866602063179 0.11769521236419678 0.6128044724464417
v 0.09219380468130112 0.11611853539943695 0.6135884523391724
v 0.059934090822935104 0.10678645968437195 0.6242808699607849
v -0.02647176757454872 0.13339579105377197 0.5931845903396606
v -0.02322351187467575 0.13164183497428894 0.5885154604911804
v 0.09971446543931961 0.12466402351856232 0.6048083305358887
v 0.04541754350066185 0.07621943950653076 0.6193920373916626
v 0.06728231906890869 0.0816681832075119 0.5754787921905518
v 0.06569353491067886 0.08362440764904022 0.5802892446517944
v 0.07509729266166687 0.07937662303447723 0.5582354068756104
v 0.07037538290023804 0.07855883985757828 0.5688990950584412
v -0.02639678493142128 0.13621234893798828 0.5977499485015869
v -8.94560944288969e-05 0.09535478800535202 0.572127103805542
v 0.0005128374323248863 0.09817900508642197 0.5684712529182434
v 0.04476651921868324 0.08650140464305878 0.6330713033676147
v 0.03612687811255455 0.08841019868850708 0.6327506303787231
v 0.03658870607614517 0.10126812011003494 0.6319555044174194
v 0.03622357174754143 0.09481950849294662 0.6346860527992249
v 0.04631132259964943 0.09476535767316818 0.6341084241867065
v 0.0468921922147274 0.1016375944018364 0.6306062936782837
v 0.07641870528459549 0.08038811385631561 0.5825285911560059
v 0.07678017020225525 0.07980614900588989 0.5786996483802795
v 0.07613188773393631 0.10068027675151825 0.5507264733314514
v 0.07632552832365036 0.08925376087427139 0.5495003461837769
v 0.006027809344232082 0.10787270218133926 0.6133695244789124
v 0.012404252775013447 0.10738115757703781 0.6113854050636292
v 0.009218767285346985 0.11132703721523285 0.6082485318183899
v 0.007080058567225933 0.11626274138689041 0.6005770564079285
v -0.004902544431388378 0.1017204150557518 0.5907027721405029
v -0.00046750251203775406 0.103812076151371 0.5953068137168884
v 0.08454316854476929 0.07606472074985504 0.6017330884933472
v 0.07309108972549438 0.07628443837165833 0.596109926700592
v 0.035820372402668 0.08226770907640457 0.6165609955787659
v 0.031370144337415695 0.088533416390419 0.6151744723320007
v 0.019914571195840836 0.08725852519273758 0.5839270353317261
v 0.008773638866841793 0.1071513369679451 0.5762791633605957
v 0.010697083547711372 0.11200588196516037 0.5845502018928528
v 0.009171666577458382 0.08820591121912003 0.5839723944664001
v -0.020642966032028198 0.1419844627380371 0.5994758605957031
v -0.0247182659804821 0.13900849223136902 0.5993727445602417
v 0.009765463881194592 0.11124391108751297 0.6027096509933472
v 0.026472657918930054 0.08423853665590286 0.5637555718421936
v 0.010243597440421581 0.1070299744606018 0.5702491402626038
v 0.00507553294301033 0.10075536370277405 0.5725731253623962
v 0.0355491116642952 0.08602003753185272 0.5396274328231812
v 0.10040310025215149 0.12818503379821777 0.5929396152496338
v -0.01975289359688759 0.12506578862667084 0.5904403924942017
v -0.01888936012983322 0.13209879398345947 0.5854787826538086
v -0.01131497323513031 0.14191991090774536 0.5924921035766602
v -0.014105700887739658 0.14264896512031555 0.5975270867347717
v 0.0856563150882721 0.08926732838153839 0.5548519492149353
v 0.0643152967095375 0.0845283567905426 0.5833941698074341
v 0.04943098500370979 0.10641360282897949 0.6251013875007629
v 0.03714166209101677 0.10525591671466827 0.6268804669380188
v -0.00022060098126530647 0.09087824076414108 0.5837991237640381
v 0.026216313242912292 0.10111084580421448 0.5495901107788086
v 0.01847245544195175 0.10949061065912247 0.5619084239006042
v 0.01402460690587759 0.10970520228147507 0.5581786632537842
v 0.007513363845646381 0.11037535220384598 0.5607976317405701
v 0.001111646182835102 0.1065426766872406 0.5624440908432007
v -0.013795171864330769 0.14592576026916504 0.5890307426452637
v -0.01761353760957718 0.147394061088562 0.5928686261177063
v -0.02335548773407936 0.14640477299690247 0.5930031538009644
v -0.027069035917520523 0.14278380572795868 0.5933807492256165
v -0.02807758003473282 0.1383223533630371 0.592823326587677
v -0.013818220235407352 0.1436239778995514 0.585676908493042
v -0.01493119914084673 0.14050094783306122 0.5839035511016846
v -0.01896601915359497 0.1348625123500824 0.584521472454071
v -0.013394048437476158 0.14458349347114563 0.5820092558860779
v -0.014821338467299938 0.1489580273628235 0.5827383399009705
v -0.02680186927318573 0.15194404125213623 0.5802170634269714
v -0.024137504398822784 0.15098831057548523 0.5850414037704468
v -0.023243647068738937 0.1520158052444458 0.5831699967384338
v -0.02461453154683113 0.15361270308494568 0.5789403319358826
v -0.0246410071849823 0.15588775277137756 0.5746119618415833
v -0.027522701770067215 0.154127299785614 0.5753967761993408
v -0.01917683705687523 0.15072712302207947 0.5844588279724121
v -0.02030738815665245 0.15310969948768616 0.5787451267242432
v -0.016726236790418625 0.1516401469707489 0.5772857666015625
v -0.017406225204467773 0.15456071496009827 0.5730016231536865
v -0.020697373896837234 0.1561986804008484 0.5741609334945679
v -0.016273468732833862 0.15026210248470306 0.5813782811164856
v -0.018661879003047943 0.15052887797355652 0.5860530734062195
v -0.02592666819691658 0.1554613709449768 0.5716339945793152
v -0.024129100143909454 0.15702514350414276 0.572176456451416
v -0.021014656871557236 0.15685351192951202 0.5714333057403564
v -0.022004514932632446 0.15589159727096558 0.5688843131065369
v -0.027288388460874557 0.14602887630462646 0.5873390436172485
v -0.028201904147863388 0.15000081062316895 0.5797979235649109
v -0.027771111577749252 0.15136726200580597 0.574260413646698
v -0.026141494512557983 0.15295051038265228 0.5706292986869812
v -0.027892690151929855 0.14690113067626953 0.5774766802787781
v -0.026897192001342773 0.14882944524288177 0.573302149772644
v -0.025228559970855713 0.1498839408159256 0.5699810981750488
v -0.02594316005706787 0.1441052258014679 0.5751879215240479
v -0.025121718645095825 0.14666007459163666 0.5719541311264038
v -0.026379361748695374 0.13765369355678558 0.5864328742027283
v -0.02767963707447052 0.14073596894741058 0.5882282257080078
v -0.024669058620929718 0.1478332281112671 0.5697410106658936
v -0.02195340394973755 0.15393541753292084 0.5681169033050537
v -0.014602044597268105 0.1487421691417694 0.577159583568573
v -0.016305163502693176 0.15176528692245483 0.5715797543525696
v -0.014282431453466415 0.1467936933040619 0.5762354731559753
v -0.015593272633850574 0.14967358112335205 0.570582926273346
v -0.017497748136520386 0.15434511005878448 0.5686687231063843
v -0.01842743530869484 0.15559059381484985 0.5707074999809265
v -0.026512712240219116 0.1344943642616272 0.590324342250824
v -0.02244521677494049 0.1332387924194336 0.5866604447364807
v -0.02154727280139923 0.13579592108726501 0.5837827324867249
v -0.02210254967212677 0.1420924961566925 0.5735552310943604
v -0.01766262948513031 0.1368507593870163 0.5817486643791199
v -0.014029856771230698 0.14171822369098663 0.5801070928573608
v -0.015033384785056114 0.14494383335113525 0.5744318962097168
v -0.017295174300670624 0.1429027020931244 0.573343813419342
v -0.016494501382112503 0.14736923575401306 0.5703716278076172
v -0.018559526652097702 0.14585193991661072 0.570392370223999
v -0.022134598344564438 0.14522424340248108 0.5706281661987305
v -0.018748577684164047 0.14938244223594666 0.5680091381072998
v -0.017716795206069946 0.15217117965221405 0.5680572390556335
v -0.022145118564367294 0.15059396624565125 0.5679667592048645
v -0.019442934542894363 0.14762669801712036 0.568640947341919
v -0.022242970764636993 0.14819711446762085 0.5690565705299377
v -0.017750054597854614 0.11797242611646652 0.5526793003082275
v -0.012258466333150864 0.1164676770567894 0.551570475101471
v -0.014765880070626736 0.11133059859275818 0.5586832761764526
v -0.01818132773041725 0.11397433280944824 0.5609222650527954
v -0.015816695988178253 0.12636569142341614 0.5627204179763794
v -0.01970639079809189 0.12406368553638458 0.5591626167297363
v -0.017011530697345734 0.12221051752567291 0.5666388273239136
v -0.011060520075261593 0.12368281185626984 0.5674064755439758
v -0.010051273740828037 0.12614767253398895 0.562957763671875
v -0.006113690324127674 0.12158262729644775 0.5660837292671204
v -0.006770571693778038 0.12416694313287735 0.5699566602706909
v -0.013152464292943478 0.12155560404062271 0.5712880492210388
v -0.003339049406349659 0.10990998893976212 0.5854213237762451
v 0.0018844958394765854 0.1138114333152771 0.5831001996994019
v -0.004589729942381382 0.09465216845273972 0.5752507448196411
v -0.002461190801113844 0.09696608781814575 0.5727848410606384
v -0.019892964512109756 0.12087487429380417 0.5552314519882202
v -0.019115392118692398 0.11834372580051422 0.5638328194618225
v -0.008614799939095974 0.10738721489906311 0.5578948259353638
v -0.013370664790272713 0.1073068305850029 0.5602979063987732
v -0.01095427293330431 0.10992854088544846 0.5561250448226929
v -0.006561002228409052 0.11139626801013947 0.5558512210845947
v -0.007458191365003586 0.10145414620637894 0.5847909450531006
v -0.0059997765347361565 0.09651181101799011 0.5808183550834656
v -0.006169662810862064 0.105805903673172 0.5851682424545288
v -0.0032701995223760605 0.11092963814735413 0.5582210421562195
v 0.00021981378085911274 0.11610163003206253 0.5605186223983765
v 0.007559777237474918 0.10811404883861542 0.5716550350189209
v 0.003992923069745302 0.10250498354434967 0.5699867010116577
v -0.017065681517124176 0.11793047189712524 0.5699746608734131
v -0.016924694180488586 0.10974033921957016 0.563967227935791
v -0.018527057021856308 0.1130920797586441 0.5669795274734497
v -0.00167743768543005 0.12144850194454193 0.5657323002815247
v -0.0025835391134023666 0.11910665780305862 0.5610016584396362
v 5.581509321928024e-05 0.1312810480594635 0.5495868921279907
v -0.0023746630176901817 0.12164797633886337 0.5574878454208374
v -0.0036642728373408318 0.11879756301641464 0.5535740256309509
v 7.172953337430954e-05 0.12829039990901947 0.545713484287262
v -0.0034323292784392834 0.11517912149429321 0.5585730671882629
v -0.004987018182873726 0.12439864128828049 0.5605521202087402
v -0.012580249458551407 0.12847965955734253 0.5406925678253174
v -0.006597794592380524 0.12628310918807983 0.5399635434150696
v -0.015544340945780277 0.1313517540693283 0.5427337884902954
v 0.00661782082170248 0.11318787932395935 0.5772988796234131
v -0.014456982724368572 0.13634870946407318 0.5512221455574036
v -0.016794908791780472 0.1336929351091385 0.5460572838783264
v -0.006870795041322708 0.11659452319145203 0.5514559745788574
v -0.0019647423177957535 0.1266166865825653 0.5420103669166565
v -0.0023678671568632126 0.13408347964286804 0.5521904230117798
v -0.008979756385087967 0.13605380058288574 0.5544168949127197
v -0.0012243278324604034 0.13723929226398468 0.5467325448989868
v -0.00651110615581274 0.13987062871456146 0.5482950806617737
v -0.011850914917886257 0.14031529426574707 0.5454238653182983
v -0.014500305987894535 0.1370207667350769 0.5417839884757996
v -0.01401467900723219 0.13373500108718872 0.5396380424499512
v 0.000702686607837677 0.13469146192073822 0.5444146990776062
v 0.0007182126864790916 0.13144971430301666 0.5412388443946838
v -0.002278883010149002 0.12845036387443542 0.539306640625
v 0.0013668695464730263 0.13596110045909882 0.5367361307144165
v -1.668650656938553e-05 0.1400519162416458 0.5378512740135193
v -0.011909500695765018 0.14490295946598053 0.5255123376846313
v -0.012052473612129688 0.14388005435466766 0.5312768816947937
v -0.009747544303536415 0.14505136013031006 0.5313583016395569
v -0.009358976036310196 0.14595165848731995 0.5260991454124451
v -0.010769822634756565 0.1440381407737732 0.5371705889701843
v -0.008910927921533585 0.14463600516319275 0.5357010364532471
v -0.004688570275902748 0.14351999759674072 0.5371830463409424
v -0.0050926972180604935 0.14400383830070496 0.5312635898590088
v -0.000978211872279644 0.14153623580932617 0.5315114855766296
v -0.0005301618948578835 0.14313066005706787 0.526235044002533
v -0.004406050778925419 0.14596013724803925 0.5258814096450806
v -0.001526077277958393 0.1420132964849472 0.5355963706970215
v -0.008190011605620384 0.1463831216096878 0.5227927565574646
v -0.009186143055558205 0.1453002542257309 0.5206888914108276
v -0.00496888579800725 0.14343267679214478 0.5401028990745544
v -0.014221726916730404 0.13954788446426392 0.538658857345581
v -0.013808292336761951 0.1416192352771759 0.5301653146743774
v -0.012826572172343731 0.14228935539722443 0.5238127708435059
v -0.008797276765108109 0.14266127347946167 0.5192080736160278
v -0.013512582518160343 0.13800650835037231 0.5281524658203125
v -0.011988040991127491 0.13940539956092834 0.5226009488105774
v -0.008280405774712563 0.14000366628170013 0.5193251371383667
v -0.011290478520095348 0.1341872662305832 0.5265629291534424
v -0.009463738650083542 0.1361677646636963 0.5216167569160461
v -0.012034260667860508 0.13110414147377014 0.5365071296691895
v -0.014654292725026608 0.13494926691055298 0.537411630153656
v -0.008101279847323895 0.13772623240947723 0.5200381278991699
v -0.004457008559256792 0.14555901288986206 0.5198574662208557
v -0.004762173164635897 0.14261481165885925 0.5182496905326843
v -0.0044631799682974815 0.14604681730270386 0.5216367244720459
v 0.0003912756219506264 0.13988345861434937 0.5312446355819702
v 0.0002033645287156105 0.1412496268749237 0.5252119898796082
v 0.0011239070445299149 0.1373642086982727 0.5301594734191895
v 0.0005101943388581276 0.13935837149620056 0.5237163305282593
v -0.00067141093313694 0.14307713508605957 0.5210905075073242
v -0.0013396171852946281 0.14436864852905273 0.5219560265541077
v -0.011096139438450336 0.13059711456298828 0.5387812256813049
v -0.006027843803167343 0.12822525203227997 0.5384082198143005
v -0.007175695151090622 0.12844610214233398 0.5363044142723083
v -0.006587519310414791 0.13198941946029663 0.5264583230018616
v -0.0026288675144314766 0.1288416087627411 0.5367145538330078
v 0.0005831681191921234 0.1324157416820526 0.5359886884689331
v 0.0005591157823801041 0.13469570875167847 0.5293211340904236
v -0.0020759757608175278 0.13245725631713867 0.5274479985237122
v 0.0007609007880091667 0.13726088404655457 0.5231015682220459
v -0.0013979068025946617 0.1348511278629303 0.5234621167182922
v -0.005911031737923622 0.13424554467201233 0.5219568014144897
v -0.0007432010024785995 0.13939717411994934 0.5193387866020203
v -0.000545150600373745 0.1416580080986023 0.5200334787368774
v -0.004980448167771101 0.14041908085346222 0.5183798670768738
v -0.001967114396393299 0.13685089349746704 0.5202643871307373
v -0.005463410168886185 0.13744570314884186 0.5193995237350464
v -0.014229952357709408 0.10571762174367905 0.5321463942527771
v -0.011327496729791164 0.10107201337814331 0.531119167804718
v -0.012491696514189243 0.09588643908500671 0.5367934107780457
v -0.015567532740533352 0.10123232007026672 0.5380688309669495
v -0.00691142026335001 0.11280292272567749 0.5400432348251343
v -0.011198720894753933 0.11245989054441452 0.5373982191085815
v -0.01264865417033434 0.10974004119634628 0.5416795015335083
v -0.008027457632124424 0.11036912351846695 0.5448158383369446
v -0.0015608323737978935 0.11129902303218842 0.5394908785820007
v -0.002459517680108547 0.10888572037220001 0.5439232587814331
v -0.005554104223847389 0.11271793395280838 0.547319233417511
v -0.011129355989396572 0.10973664373159409 0.5465006232261658
v -0.001951245591044426 0.10765789449214935 0.5577936768531799
v 0.0032801302149891853 0.11201390624046326 0.555855929851532
v -0.013570624403655529 0.10973653197288513 0.5344034433364868
v -0.01521364226937294 0.10637106001377106 0.5394495725631714
v -0.0013805162161588669 0.09413263946771622 0.5398971438407898
v -0.004966174252331257 0.09390811622142792 0.5419034957885742
v -0.0076928650960326195 0.09419172257184982 0.5350421071052551
v -0.0038840575143694878 0.09491614252328873 0.5347660183906555
v -0.0015858383849263191 0.0966695249080658 0.56128990650177
v 0.0032559428364038467 0.09370388835668564 0.5589609742164612
v -0.0036167409271001816 0.10185503959655762 0.5594402551651001
v 0.0020800288766622543 0.09846001863479614 0.5399132370948792
v 0.004014122299849987 0.10596402734518051 0.5418274402618408
v 0.012419285252690315 0.10461211949586868 0.5494126081466675
v 0.011185040697455406 0.09849387407302856 0.5502737164497375
v -0.013411077670753002 0.10541880130767822 0.5463564991950989
v -0.009436871856451035 0.09535351395606995 0.5442225933074951
v -0.013288237154483795 0.09985259920358658 0.5456991195678711
v 0.00020894687622785568 0.11138343811035156 0.5448079109191895
v 0.000283936969935894 0.10381940752267838 0.5405638813972473
v 0.007595551200211048 0.11176548898220062 0.5240862369537354
v 0.0013313321396708488 0.10067138820886612 0.5350967049598694
v -0.0021744249388575554 0.09861497581005096 0.5319125652313232
v 0.005876441486179829 0.10915689915418625 0.5211178660392761
v -0.0002353498712182045 0.09786683320999146 0.5367087125778198
v 0.0020035887137055397 0.10606471449136734 0.5381994843482971
v -0.005723600275814533 0.11461363732814789 0.5180976390838623
v -0.0027699200436472893 0.11001427471637726 0.5180419683456421
v -0.006176489405333996 0.1175442561507225 0.5209688544273376
v 0.009492728859186172 0.1113203763961792 0.5523852705955505
v 0.008387461304664612 0.09348082542419434 0.5539252161979675
v -0.0017084470018744469 0.12138417363166809 0.5250111818313599
v -0.004954156465828419 0.1200532615184784 0.5227794051170349
v -0.006470353342592716 0.09881511330604553 0.5311708450317383
v 0.002151154913008213 0.10816927254199982 0.5188238620758057
v 0.006620918400585651 0.1153801828622818 0.5265507698059082
v 0.002908513881266117 0.11954906582832336 0.5275894403457642
v 0.009106718935072422 0.11612558364868164 0.5223784446716309
v 0.005794507451355457 0.1206217110157013 0.5228089094161987
v 0.002487701363861561 0.12308409810066223 0.5202641487121582
v -0.0004161735996603966 0.12221570312976837 0.5179566144943237
v -0.0021233512088656425 0.1199108362197876 0.5160195827484131
v 0.009694923646748066 0.1127428337931633 0.5198005437850952
v 0.0076822275295853615 0.11062304675579071 0.5173060297966003
v 0.0034310491755604744 0.10984596610069275 0.5166623592376709
v 0.011743896640837193 0.11226056516170502 0.5165771245956421
v 0.013221860863268375 0.11719098687171936 0.5178216695785522
v 0.014336076565086842 0.12665100395679474 0.5055731534957886
v 0.010884304530918598 0.12557700276374817 0.5095875859260559
v 0.012014144100248814 0.12527568638324738 0.5101445317268372
v 0.015773344784975052 0.1265919804573059 0.5064576268196106
v 0.008179047144949436 0.12443513423204422 0.5156062245368958
v 0.01047841552644968 0.12435108423233032 0.5146583914756775
v 0.012126334942877293 0.12181878834962845 0.5167485475540161
v 0.016148608177900314 0.12271703779697418 0.5118998289108276
v 0.017180729657411575 0.11701054871082306 0.512247622013092
v 0.019646231085062027 0.11862722039222717 0.5086246728897095
v 0.019267696887254715 0.12403495609760284 0.5083221197128296
v 0.014395617879927158 0.11803969740867615 0.5165503025054932
v 0.01814890280365944 0.12620428204536438 0.5047141909599304
v 0.01765015348792076 0.12761308252811432 0.503289520740509
v 0.009997219778597355 0.12166155874729156 0.5182810425758362
v 0.003767956979572773 0.12458083033561707 0.5141845345497131
v 0.008613348938524723 0.12552624940872192 0.5079641938209534
v 0.011853170581161976 0.12674184143543243 0.5032948851585388
v 0.015338865108788013 0.12564635276794434 0.5011352896690369
v 0.006841466762125492 0.12288539856672287 0.5061320066452026
v 0.010485258884727955 0.12402532249689102 0.5022560358047485
v 0.01363410521298647 0.12324370443820953 0.5001786947250366
v 0.0061676958575844765 0.11987133324146271 0.50536048412323
v 0.00993939209729433 0.12084536254405975 0.5019463300704956
v -0.0006412779912352562 0.11751598864793777 0.5130689144134521
v 0.0009216153994202614 0.12165316194295883 0.5134580135345459
v 0.012705315835773945 0.12122348695993423 0.5004042983055115
v 0.020971786230802536 0.12418565154075623 0.5038015246391296
v 0.019074413925409317 0.12164454162120819 0.5010367631912231
v 0.02006443217396736 0.12399519979953766 0.5052886009216309
v 0.016721155494451523 0.11522173881530762 0.5124711990356445
v 0.020300913602113724 0.11654829233884811 0.5076324939727783
v 0.01525802630931139 0.11298675090074539 0.5113667845726013
v 0.01892443373799324 0.11436712741851807 0.5063590407371521
v 0.021715346723794937 0.1193104088306427 0.5053306221961975
v 0.02123962715268135 0.12019878625869751 0.5059758424758911
v -0.0026308996602892876 0.11584416031837463 0.5154865980148315
v -0.000395885668694973 0.11171068996191025 0.5154635310173035
v 0.0007840963080525398 0.11328519880771637 0.5130369663238525
v 0.007729203440248966 0.11593516170978546 0.5049909353256226
v 0.00407280120998621 0.11065717041492462 0.5143171548843384
v 0.009702817536890507 0.11095858365297318 0.5141154527664185
v 0.013089985586702824 0.11224596947431564 0.5092236399650574
v 0.010650497861206532 0.11321787536144257 0.5067229866981506
v 0.01669057458639145 0.11357112973928452 0.504828929901123
v 0.01401140633970499 0.11444855481386185 0.504160463809967
v 0.011080396361649036 0.11718087643384933 0.5016387104988098
v 0.01789785549044609 0.1166083887219429 0.502534031867981
v 0.02043185755610466 0.11744002997875214 0.5036341547966003
v 0.016600795090198517 0.12004585564136505 0.5000539422035217
v 0.015534226782619953 0.11625081300735474 0.5019835829734802
v 0.014419016428291798 0.11882814764976501 0.5001260042190552
v 0.0065676551312208176 0.09231287986040115 0.5565425157546997
v 0.0034352662041783333 0.08835430443286896 0.5547924041748047
v 0.0025079743936657906 0.08470270037651062 0.5547189116477966
v 0.007898584939539433 0.083377406001091 0.5518613457679749
v 0.009447739459574223 0.08691282570362091 0.5526442527770996
v 0.0015512751415371895 0.0929887667298317 0.54546058177948
v 0.002607000060379505 0.09302042424678802 0.5498919486999512
v 0.007336008362472057 0.09275420755147934 0.5479058027267456
v 0.006234883330762386 0.09307229518890381 0.5431577563285828
v -0.0005838489159941673 0.09022165089845657 0.5420124530792236
v 0.004125150851905346 0.09054848551750183 0.5393261313438416
v 0.00888309720903635 0.09623636305332184 0.543032705783844
v 0.00981792900711298 0.09492501616477966 0.5477557182312012
v 0.01993921771645546 0.09756362438201904 0.5505657196044922
v 0.020917784422636032 0.10012436658143997 0.5464990139007568
v 0.02901313826441765 0.08472970128059387 0.5400925278663635
v 0.02980491891503334 0.08195698261260986 0.5442345142364502
v 0.022256996482610703 0.08252070844173431 0.5444766879081726
v 0.022751037031412125 0.08397121727466583 0.5403295755386353
v 0.003254682756960392 0.09130426496267319 0.5530662536621094
v 0.008211611770093441 0.09022185951471329 0.5519023537635803
v 0.011626903899013996 0.08045294135808945 0.542564868927002
v 0.011761215515434742 0.08060376346111298 0.5471514463424683
v 0.007289593107998371 0.08030899614095688 0.549606442451477
v 0.005746233277022839 0.07927152514457703 0.5450733304023743
v 0.0268339104950428 0.08215788751840591 0.5483880043029785
v 0.0236293226480484 0.08362516015768051 0.5515102744102478
v 0.020901087671518326 0.0850101113319397 0.5516079664230347
v 0.020926296710968018 0.08325888216495514 0.5486897230148315
v 0.01917128637433052 0.09005279093980789 0.5532375574111938
v 0.010475882329046726 0.0826045423746109 0.5389942526817322
v 0.008981444872915745 0.08754526823759079 0.536541759967804
v 0.02309577167034149 0.09211666882038116 0.5357884168624878
v 0.023847728967666626 0.08762922883033752 0.5370761156082153
v 0.010719970799982548 0.09201613068580627 0.5512030720710754
v 0.01112119946628809 0.08304304629564285 0.5506598353385925
v 0.011524843983352184 0.08743972331285477 0.5517274737358093
v 0.00844112504273653 0.09366441518068314 0.5383316278457642
v 0.003268674947321415 0.08523863554000854 0.5381932258605957
v -0.01032355334609747 0.08219072967767715 0.5494912266731262
v -0.0006225025281310081 0.08046641945838928 0.5443335771560669
v -2.7774833142757416e-05 0.07959064841270447 0.5488479137420654
v -0.010644751600921154 0.08216167986392975 0.5522335767745972
v 0.0052587175741791725 0.08150646835565567 0.5402917861938477
v -0.001369859091937542 0.08475858718156815 0.5412915349006653
v -0.008331256918609142 0.09108755737543106 0.5582853555679321
v -0.008557039313018322 0.0864604115486145 0.5577777624130249
v -0.007783967070281506 0.09339474141597748 0.556599497795105
v 0.021748755127191544 0.09896870702505112 0.5401639938354492
v -0.00870975386351347 0.0937565490603447 0.5499780178070068
v -0.008341672830283642 0.0948801189661026 0.5538488626480103
v 0.0013803476467728615 0.08164021372795105 0.5526113510131836
v -0.009711096994578838 0.08364839106798172 0.554987907409668
v -0.010069883428514004 0.08461928367614746 0.5470651984214783
v -0.009701068513095379 0.09023673087358475 0.5464707016944885
v -0.013646143488585949 0.0850600004196167 0.5473061800003052
v -0.013295306824147701 0.09097541868686676 0.5473077893257141
v -0.012779400683939457 0.09541401267051697 0.551122784614563
v -0.012439829297363758 0.0960969626903534 0.5541971921920776
v -0.012569529004395008 0.0949849858880043 0.5570487380027771
v -0.014381525106728077 0.08284859359264374 0.5499765872955322
v -0.014648051001131535 0.08290593326091766 0.5529912114143372
v -0.013590010814368725 0.08427630364894867 0.5561378002166748
v -0.018397275358438492 0.0848977267742157 0.5480586290359497
v -0.01781250350177288 0.08839617669582367 0.5443559885025024
v -0.025566652417182922 0.09952428936958313 0.5459627509117126
v -0.022593501955270767 0.09835261851549149 0.5476893782615662
v -0.022046826779842377 0.09788164496421814 0.5466992259025574
v -0.025073785334825516 0.09972559660673141 0.5449613332748413
v -0.017926525324583054 0.09682849049568176 0.5488193035125732
v -0.018581107258796692 0.09618045389652252 0.5470545291900635
v -0.01762101799249649 0.09340813010931015 0.5454568862915039
v -0.021265588700771332 0.09525441378355026 0.5433269739151001
v -0.023202236741781235 0.09053964912891388 0.542153537273407
v -0.02602393925189972 0.09270121902227402 0.5405515432357788
v -0.02388601005077362 0.09672141075134277 0.5415666103363037
v -0.01895390823483467 0.09039370715618134 0.5433558225631714
v -0.02651207149028778 0.10029599070549011 0.5430088639259338
v -0.027703233063220978 0.10088850557804108 0.5433639287948608
v -0.01612834259867668 0.0933777317404747 0.5464750528335571
v -0.01740366593003273 0.09725587069988251 0.5532450675964355
v -0.023838073015213013 0.09888515621423721 0.5495451092720032
v -0.02737191691994667 0.10021422058343887 0.5467920303344727
v -0.029441192746162415 0.10001274943351746 0.5441212058067322
v -0.023885060101747513 0.0974697396159172 0.5517677068710327
v -0.028644386678934097 0.0992567390203476 0.5484522581100464
v -0.03070702776312828 0.0988246276974678 0.5458584427833557
v -0.02437903732061386 0.09491361677646637 0.5537018775939941
v -0.02875465527176857 0.09683628380298615 0.549738883972168
v -0.01720510795712471 0.09240223467350006 0.5580612421035767
v -0.017174016684293747 0.09544036537408829 0.5559677481651306
v -0.03022971749305725 0.09735047817230225 0.5469412803649902
v -0.028158869594335556 0.09838370978832245 0.5405828952789307
v -0.030435889959335327 0.0976189374923706 0.5422040224075317
v -0.026801403611898422 0.09799651801586151 0.5402355194091797
v -0.023480836302042007 0.08916884660720825 0.5426775813102722
v -0.027263663709163666 0.09171739965677261 0.5408551096916199
v -0.024472270160913467 0.08762028813362122 0.5448423624038696
v -0.028699226677417755 0.09104620665311813 0.5424723625183105
v -0.02881568670272827 0.09478692710399628 0.5400332808494568
v -0.027116719633340836 0.09519205242395401 0.5399847030639648
v -0.013074587099254131 0.09193502366542816 0.5589141845703125
v -0.012412096373736858 0.08761880546808243 0.5582646131515503
v -0.01683550328016281 0.08824306726455688 0.5578393340110779
v -0.024749189615249634 0.09133879095315933 0.5538860559463501
v -0.018002580851316452 0.0849912017583847 0.5551089644432068
v -0.018264472484588623 0.08424236625432968 0.5513203144073486
v -0.02486250177025795 0.08762567490339279 0.5477107167243958
v -0.02516094595193863 0.08868668228387833 0.5508841276168823
v -0.02955719456076622 0.09133252501487732 0.5445873737335205
v -0.029679007828235626 0.09209130704402924 0.5475232005119324
v -0.02926255762577057 0.09401056915521622 0.549680769443512
v -0.030909664928913116 0.09472084790468216 0.5434808135032654
v -0.0304630845785141 0.0947289764881134 0.5415970683097839
v -0.03096003085374832 0.09679143875837326 0.5440778136253357
v -0.030952759087085724 0.09459671378135681 0.5455007553100586
v -0.030752092599868774 0.09579935669898987 0.5463322997093201
v 0.02724834531545639 0.08793854713439941 0.5383107662200928
v 0.021075792610645294 0.10634586215019226 0.6229645609855652
v 0.02120795100927353 0.102891705930233 0.6179574131965637
v 0.016618527472019196 0.08878966420888901 0.6219332218170166
v 0.017628375440835953 0.09269636124372482 0.6165940761566162
v 0.015913225710392 0.08907483518123627 0.6283485293388367
v 0.018031064420938492 0.09685457497835159 0.6347002387046814
v 0.017720874398946762 0.0919097512960434 0.6327545642852783
v 0.01959097757935524 0.09769726544618607 0.6148959398269653
v 0.021024994552135468 0.10695915669202805 0.6284865736961365
v 0.01992972195148468 0.10312661528587341 0.633741557598114
v 0.016231074929237366 0.1131119430065155 0.6267104744911194
v 0.012196839787065983 0.10875889658927917 0.6321890354156494
v 0.008484725840389729 0.1033041700720787 0.6324126720428467
v 0.009068992920219898 0.0960974246263504 0.6293073892593384
v 0.009146303869783878 0.09257455170154572 0.6254875659942627
v 0.019029177725315094 0.1091674342751503 0.6203539371490479
v 0.019330698996782303 0.10521109402179718 0.6158227920532227
v 0.016974937170743942 0.09871838986873627 0.613760769367218
v 0.01858844980597496 0.1103760227560997 0.6137410998344421
v 0.010388237424194813 0.11289332807064056 0.611860990524292
v -0.007387700490653515 0.10603824257850647 0.6091641187667847
v -0.0033130599185824394 0.10380914807319641 0.6143279671669006
v -0.0026083914563059807 0.10649269074201584 0.6136871576309204
v -0.006586733274161816 0.10850830376148224 0.609430730342865
v 0.000579548068344593 0.10528262704610825 0.6184784770011902
v 0.0007298113778233528 0.10670841485261917 0.6163753271102905
v 0.00494347233325243 0.1099659651517868 0.615347683429718
v 0.0011719586327672005 0.111504465341568 0.6115206480026245
v 0.007869099266827106 0.11188572645187378 0.611569344997406
v 0.006136712618172169 0.11245457828044891 0.6079543828964233
v -0.0023126034066081047 0.11304046213626862 0.6075811386108398
v -0.007720115594565868 0.1113215833902359 0.6068692803382874
v -0.005200008861720562 0.11411552131175995 0.6041985750198364
v -0.008741739206016064 0.10908646881580353 0.6049019694328308
v 0.004934635944664478 0.11222119629383087 0.6181570291519165
v 0.0027151750400662422 0.09991487860679626 0.6223357319831848
v -0.002397487871348858 0.10034570097923279 0.6148658990859985
v -0.006535406224429607 0.10262639820575714 0.6081005334854126
v -0.007884587161242962 0.1065075471997261 0.6031690835952759
v -0.0003591654822230339 0.09721636772155762 0.6131256222724915
v -0.0034423647448420525 0.09997814148664474 0.6068043112754822
v -0.004089514724910259 0.10364454984664917 0.6022108197212219
v 0.0030283229425549507 0.09589935839176178 0.610206663608551
v -4.644971340894699e-05 0.09956323355436325 0.6050877571105957
v 0.010109500028192997 0.09251253306865692 0.6178794503211975
v 0.005877156741917133 0.09458731859922409 0.621563732624054
v -0.0014872429892420769 0.10257279872894287 0.6024367213249207
v -0.0060214875265955925 0.11355714499950409 0.6016610860824585
v -0.0049113137647509575 0.11075998097658157 0.5997230410575867
v 0.009188053198158741 0.11232946068048477 0.606490433216095
v 0.002982405014336109 0.11455968022346497 0.6044504642486572
v 0.004857351072132587 0.11341825127601624 0.6024358868598938
v 0.01231656689196825 0.1102042868733406 0.6054546236991882
v 0.0063598500564694405 0.11151105165481567 0.6009302139282227
v -0.00015978049486875534 0.11455723643302917 0.600536584854126
v -0.0008507845923304558 0.11521625518798828 0.6032121181488037
v 0.011696749366819859 0.09099623560905457 0.6205599904060364
v 0.014592374674975872 0.09352190792560577 0.616384744644165
v 0.01460567582398653 0.09486304223537445 0.6143503785133362
v 0.008498256094753742 0.09746643155813217 0.6069958806037903
v 0.017912473529577255 0.09932024776935577 0.611242949962616
v 0.019263871014118195 0.10552928596735 0.6116144061088562
v 0.013376877643167973 0.10683190822601318 0.6041967272758484
v 0.012487241066992283 0.10208635032176971 0.6046181917190552
v 0.0067043425515294075 0.10788309574127197 0.6006314158439636
v 0.006165315397083759 0.10488636791706085 0.6013468503952026
v 0.0032390179112553596 0.10124687850475311 0.6026498079299927
v 0.0018403874710202217 0.10853590071201324 0.5992441773414612
v 0.0011281045153737068 0.11210288852453232 0.5989701747894287
v -0.0021493984386324883 0.10702462494373322 0.5996512770652771
v 0.002712731249630451 0.10598152130842209 0.600416898727417
v 0.00020413566380739212 0.10440661013126373 0.60096275806427
v 0.03572618588805199 0.08223330974578857 0.544979453086853
v 0.03278045728802681 0.08144060522317886 0.5506102442741394
v 0.039418477565050125 0.08113367855548859 0.5506394505500793
v 0.04865376651287079 0.08017723262310028 0.5525102019309998
v 0.05872724950313568 0.08187815546989441 0.5492743253707886
v 0.0466550774872303 0.08104833960533142 0.5590237379074097
v 0.03717891871929169 0.0819164514541626 0.5566683411598206
v 0.027400974184274673 0.08305094391107559 0.5563933253288269
v 0.052836183458566666 0.08268886059522629 0.5670761466026306
f 2 3 1
f 1 3 4
f 5 6 8
f 8 6 7
f 9 4 10
f 10 4 3
f 12 13 11
f 11 13 9
f 14 12 16
f 16 12 15
f 18 19 17
f 17 19 20
f 22 23 21
f 21 23 24
f 26 27 25
f 25 27 28
f 30 31 29
f 29 31 32
f 33 34 36
f 36 34 35
f 37 38 40
f 40 38 39
f 41 42 6
f 6 42 43
f 6 43 7
f 7 43 44
f 45 34 46
f 46 34 33
f 48 49 47
f 47 49 50
f 52 53 51
f 51 53 54
f 56 52 55
f 55 52 51
f 58 59 57
f 57 59 60
f 61 62 4
f 4 62 1
f 64 65 63
f 63 65 66
f 68 69 67
f 67 69 70
f 72 73 71
f 71 73 74
f 76 77 75
f 75 77 78
f 53 79 54
f 54 79 80
f 82 83 81
f 81 83 84
f 85 86 52
f 52 86 53
f 57 60 87
f 87 60 88
f 89 90 43
f 43 90 44
f 43 42 89
f 89 42 91
f 40 39 92
f 92 39 93
f 94 70 64
f 64 70 69
f 13 61 9
f 9 61 4
f 25 28 69
f 69 28 95
f 96 25 68
f 68 25 69
f 98 99 97
f 97 99 100
f 101 102 104
f 104 102 103
f 106 30 105
f 105 30 29
f 51 54 107
f 107 54 108
f 54 80 108
f 108 80 109
f 111 112 110
f 110 112 113
f 115 5 114
f 114 5 116
f 115 41 5
f 5 41 6
f 36 35 111
f 111 35 117
f 35 118 117
f 117 118 119
f 34 120 35
f 35 120 118
f 34 45 120
f 120 45 121
f 125 126 124
f 124 126 127
f 128 129 14
f 14 129 130
f 33 131 46
f 46 131 132
f 133 94 63
f 63 94 64
f 134 135 137
f 137 135 136
f 139 140 138
f 138 140 141
f 77 142 78
f 78 142 143
f 144 145 20
f 20 145 146
f 148 149 147
f 147 149 72
f 151 152 150
f 150 152 153
f 82 101 83
f 83 101 104
f 101 82 155
f 155 82 154
f 156 157 58
f 58 157 59
f 158 68 147
f 147 68 67
f 159 146 15
f 15 146 16
f 68 158 96
f 96 158 160
f 129 66 130
f 130 66 65
f 162 163 161
f 161 163 164
f 166 167 165
f 165 167 168
f 170 171 169
f 169 171 172
f 174 171 173
f 173 171 170
f 176 177 175
f 175 177 178
f 180 181 179
f 179 181 24
f 182 183 21
f 21 183 184
f 81 185 82
f 82 185 154
f 186 187 188
f 188 187 144
f 158 71 160
f 160 71 189
f 190 135 157
f 157 135 59
f 169 172 139
f 139 172 140
f 147 72 158
f 158 72 71
f 192 193 191
f 191 193 194
f 167 166 49
f 49 166 195
f 196 190 50
f 50 190 157
f 197 198 200
f 200 198 199
f 21 24 182
f 182 24 181
f 146 159 20
f 20 159 17
f 182 181 81
f 81 181 185
f 201 185 180
f 180 185 181
f 202 203 83
f 83 203 84
f 205 206 204
f 204 206 85
f 207 22 184
f 184 22 21
f 179 24 208
f 208 24 23
f 208 209 179
f 179 209 205
f 209 210 205
f 205 210 206
f 212 206 211
f 211 206 210
f 179 205 180
f 180 205 204
f 213 176 88
f 88 176 214
f 86 85 212
f 212 85 206
f 193 217 218
f 217 219 218
f 218 219 220
f 219 18 220
f 220 18 17
f 19 221 20
f 20 221 144
f 222 223 225
f 225 223 224
f 175 226 176
f 176 226 214
f 227 87 214
f 214 87 88
f 220 17 228
f 228 17 159
f 134 213 60
f 60 213 88
f 138 229 151
f 151 229 152
f 193 192 210
f 210 192 211
f 230 194 218
f 218 194 193
f 231 232 228
f 228 232 230
f 233 234 91
f 91 234 89
f 235 236 93
f 93 236 92
f 230 232 234
f 234 232 237
f 47 238 48
f 48 238 239
f 240 191 235
f 235 191 236
f 5 8 116
f 116 8 241
f 242 243 189
f 189 243 160
f 244 245 98
f 98 245 99
f 156 246 47
f 47 246 238
f 76 247 77
f 77 247 248
f 250 125 249
f 249 125 124
f 252 253 251
f 251 253 254
f 111 110 36
f 36 110 255
f 256 33 255
f 255 33 36
f 257 258 154
f 154 258 155
f 63 169 133
f 133 169 139
f 66 170 63
f 63 170 169
f 173 170 129
f 129 170 66
f 129 128 173
f 173 128 259
f 128 260 259
f 259 260 261
f 213 134 262
f 262 134 137
f 263 264 186
f 186 264 187
f 112 265 113
f 113 265 266
f 11 267 268
f 234 233 230
f 230 233 194
f 153 269 70
f 70 269 67
f 175 178 165
f 165 178 141
f 150 153 94
f 94 153 70
f 271 221 270
f 270 221 207
f 269 153 272
f 272 153 152
f 121 45 109
f 109 45 108
f 47 50 156
f 156 50 157
f 57 273 58
f 58 273 274
f 145 275 260
f 260 275 261
f 276 149 143
f 143 149 78
f 148 269 75
f 75 269 272
f 207 277 270
f 270 277 278
f 195 196 49
f 49 196 50
f 59 135 60
f 60 135 134
f 83 104 202
f 202 104 279
f 149 148 78
f 78 148 75
f 247 278 248
f 248 278 277
f 183 182 84
f 84 182 81
f 48 239 281
f 281 239 282
f 227 223 283
f 283 223 222
f 223 226 224
f 224 226 168
f 281 282 224
f 224 282 225
f 165 168 175
f 175 168 226
f 264 263 138
f 138 263 229
f 14 16 128
f 128 16 260
f 220 228 218
f 218 228 230
f 87 227 284
f 284 227 283
f 260 16 145
f 145 16 146
f 244 98 258
f 258 98 155
f 58 274 156
f 156 274 246
f 107 285 51
f 51 285 55
f 243 286 160
f 160 286 96
f 234 237 89
f 89 237 90
f 46 132 107
f 107 132 285
f 253 252 249
f 249 252 250
f 286 26 96
f 96 26 25
f 106 105 287
f 287 105 288
f 272 152 289
f 289 152 229
f 138 151 139
f 139 151 133
f 183 290 161
f 161 290 162
f 291 292 277
f 277 292 293
f 151 150 133
f 133 150 94
f 262 275 177
f 177 275 187
f 144 187 145
f 145 187 275
f 273 57 284
f 284 57 87
f 174 136 190
f 190 136 135
f 111 117 112
f 112 117 38
f 117 119 38
f 38 119 123
f 112 38 265
f 265 38 37
f 287 288 254
f 254 288 251
f 228 159 231
f 231 159 15
f 223 227 226
f 226 227 214
f 147 67 148
f 148 67 269
f 224 168 281
f 281 168 167
f 199 163 200
f 200 163 162
f 45 46 108
f 108 46 107
f 281 167 48
f 48 167 49
f 161 164 291
f 291 164 292
f 38 123 39
f 293 294 277
f 277 294 248
f 284 283 296
f 296 283 295
f 284 296 273
f 273 296 297
f 274 273 298
f 298 273 297
f 246 274 299
f 299 274 298
f 283 222 295
f 295 222 300
f 222 225 300
f 300 225 301
f 301 225 302
f 302 225 282
f 303 304 300
f 300 304 295
f 306 307 305
f 305 307 308
f 309 310 308
f 308 310 305
f 308 307 312
f 312 307 311
f 313 314 312
f 312 314 315
f 311 316 312
f 312 316 313
f 317 304 311
f 311 304 316
f 315 309 312
f 312 309 308
f 318 319 321
f 321 319 320
f 319 318 309
f 309 318 310
f 311 307 317
f 317 307 306
f 306 297 317
f 317 297 296
f 306 322 297
f 297 322 298
f 305 323 306
f 306 323 322
f 323 305 324
f 324 305 310
f 304 317 295
f 295 317 296
f 318 325 310
f 310 325 324
f 323 324 326
f 326 324 327
f 324 325 327
f 327 325 328
f 326 327 329
f 329 327 330
f 329 331 326
f 326 331 332
f 333 330 328
f 328 330 327
f 323 326 322
f 322 326 332
f 322 332 298
f 298 332 299
f 325 318 334
f 334 318 321
f 313 316 335
f 335 316 304
f 335 336 313
f 313 336 314
f 304 303 335
f 335 303 337
f 336 335 338
f 338 335 337
f 336 339 314
f 314 339 340
f 246 299 238
f 238 299 341
f 239 342 282
f 282 342 302
f 342 239 341
f 341 239 238
f 341 331 342
f 342 331 343
f 331 329 343
f 343 329 344
f 342 343 302
f 302 343 345
f 341 299 331
f 331 299 332
f 346 301 345
f 345 301 302
f 346 303 301
f 301 303 300
f 347 337 346
f 346 337 303
f 347 346 348
f 348 346 345
f 349 347 350
f 350 347 348
f 343 344 345
f 345 344 348
f 344 351 348
f 348 351 350
f 337 347 338
f 338 347 349
f 353 338 352
f 352 338 349
f 352 355 354
f 354 355 356
f 352 349 355
f 355 349 350
f 352 354 353
f 353 354 334
f 353 334 339
f 339 334 321
f 339 336 353
f 353 336 338
f 329 330 344
f 344 330 351
f 356 351 333
f 333 351 330
f 356 355 351
f 351 355 350
f 354 356 328
f 328 356 333
f 328 325 354
f 354 325 334
f 309 315 319
f 319 315 320
f 320 340 321
f 321 340 339
f 320 315 340
f 340 315 314
f 137 136 261
f 261 136 259
f 140 166 141
f 141 166 165
f 172 171 195
f 195 171 196
f 171 174 196
f 196 174 190
f 178 177 264
f 264 177 187
f 172 195 140
f 140 195 166
f 137 261 262
f 262 261 275
f 178 264 141
f 141 264 138
f 262 177 213
f 213 177 176
f 136 174 259
f 259 174 173
f 358 359 357
f 357 359 360
f 362 363 361
f 361 363 364
f 361 364 365
f 365 364 366
f 367 368 370
f 370 368 369
f 76 371 247
f 247 371 372
f 373 374 362
f 362 374 363
f 376 377 375
f 375 377 378
f 289 229 380
f 380 229 379
f 381 379 263
f 263 379 229
f 383 384 382
f 382 384 385
f 386 368 374
f 374 368 363
f 76 289 371
f 371 289 380
f 377 376 359
f 359 376 387
f 388 386 360
f 360 386 374
f 389 383 366
f 366 383 390
f 392 393 391
f 391 393 394
f 383 382 390
f 390 382 395
f 396 365 390
f 390 365 366
f 389 366 367
f 367 366 364
f 357 397 358
f 358 397 398
f 373 399 357
f 357 399 397
f 389 367 400
f 400 367 370
f 382 385 375
f 375 385 372
f 357 360 373
f 373 360 374
f 361 401 362
f 362 401 402
f 387 388 359
f 359 388 360
f 363 368 364
f 364 368 367
f 358 398 403
f 403 398 404
f 396 392 405
f 405 392 391
f 392 395 393
f 393 395 378
f 393 403 394
f 394 403 404
f 375 378 382
f 382 378 395
f 365 396 406
f 406 396 405
f 362 402 373
f 373 402 399
f 271 270 400
f 400 270 384
f 401 361 406
f 406 361 365
f 381 369 386
f 386 369 368
f 392 396 395
f 395 396 390
f 393 378 403
f 403 378 377
f 403 377 358
f 358 377 359
f 406 405 408
f 408 405 407
f 406 408 401
f 401 408 409
f 401 409 402
f 402 409 410
f 402 410 399
f 399 410 411
f 405 391 407
f 407 391 412
f 391 394 412
f 412 394 413
f 394 404 413
f 413 404 414
f 415 416 412
f 412 416 407
f 418 419 417
f 417 419 420
f 421 422 418
f 418 422 419
f 419 422 424
f 424 422 423
f 425 426 424
f 424 426 427
f 423 428 424
f 424 428 425
f 427 420 424
f 424 420 419
f 420 429 417
f 417 429 430
f 423 422 431
f 431 422 421
f 421 409 431
f 431 409 408
f 421 432 409
f 409 432 410
f 418 433 421
f 421 433 432
f 434 433 417
f 417 433 418
f 431 416 423
f 423 416 428
f 416 431 407
f 407 431 408
f 435 434 430
f 430 434 417
f 433 434 436
f 436 434 437
f 434 435 437
f 437 435 438
f 436 437 439
f 439 437 440
f 439 441 436
f 436 441 442
f 438 443 437
f 437 443 440
f 436 442 433
f 433 442 432
f 432 442 410
f 410 442 411
f 435 430 445
f 445 430 444
f 430 429 444
f 444 429 446
f 425 428 447
f 447 428 416
f 426 425 448
f 448 425 447
f 416 415 447
f 447 415 449
f 447 449 448
f 448 449 450
f 451 452 448
f 448 452 426
f 446 452 444
f 444 452 451
f 399 411 397
f 397 411 453
f 398 454 404
f 404 454 414
f 454 398 453
f 453 398 397
f 453 441 454
f 454 441 455
f 441 439 455
f 455 439 456
f 454 455 414
f 414 455 457
f 441 453 442
f 442 453 411
f 458 413 457
f 457 413 414
f 458 415 413
f 413 415 412
f 458 459 415
f 415 459 449
f 459 458 460
f 460 458 457
f 461 459 462
f 462 459 460
f 455 456 457
f 457 456 460
f 456 463 460
f 460 463 462
f 459 461 449
f 449 461 450
f 465 450 464
f 464 450 461
f 464 467 466
f 466 467 468
f 464 461 467
f 467 461 462
f 464 466 465
f 465 466 445
f 465 445 451
f 451 445 444
f 451 448 465
f 465 448 450
f 439 440 456
f 456 440 463
f 468 463 443
f 443 463 440
f 468 467 463
f 463 467 462
f 466 468 438
f 438 468 443
f 438 435 466
f 466 435 445
f 420 427 429
f 429 427 446
f 446 427 452
f 452 427 426
f 370 369 188
f 188 369 186
f 371 376 372
f 372 376 375
f 380 379 387
f 387 379 388
f 379 381 388
f 388 381 386
f 385 384 278
f 278 384 270
f 380 387 371
f 371 387 376
f 400 370 271
f 271 370 188
f 385 278 372
f 372 278 247
f 400 384 389
f 389 384 383
f 369 381 186
f 186 381 263
f 221 271 144
f 144 271 188
f 221 19 207
f 207 19 22
f 19 18 22
f 22 18 23
f 18 219 23
f 23 219 208
f 469 470 472
f 472 470 471
f 474 475 473
f 473 475 476
f 473 476 477
f 477 476 478
f 480 481 479
f 479 481 482
f 483 484 474
f 474 484 475
f 486 487 485
f 485 487 488
f 489 490 77
f 77 490 142
f 491 489 248
f 248 489 77
f 493 494 492
f 492 494 495
f 496 480 484
f 484 480 475
f 486 497 487
f 487 497 471
f 498 496 472
f 472 496 484
f 499 493 478
f 478 493 500
f 501 502 504
f 504 502 503
f 493 492 500
f 500 492 505
f 506 477 500
f 500 477 478
f 499 478 479
f 479 478 476
f 469 507 470
f 470 507 508
f 483 509 469
f 469 509 507
f 479 482 499
f 499 482 510
f 492 495 485
f 485 495 511
f 483 469 484
f 484 469 472
f 473 512 474
f 474 512 513
f 497 498 471
f 471 498 472
f 475 480 476
f 476 480 479
f 470 508 514
f 514 508 515
f 506 502 516
f 516 502 501
f 503 502 488
f 488 502 505
f 514 515 503
f 503 515 504
f 485 488 492
f 492 488 505
f 477 506 517
f 517 506 516
f 474 513 483
f 483 513 509
f 510 292 494
f 494 292 164
f 512 473 517
f 517 473 477
f 491 481 496
f 496 481 480
f 502 506 505
f 505 506 500
f 503 488 514
f 514 488 487
f 514 487 470
f 470 487 471
f 517 516 519
f 519 516 518
f 517 519 512
f 512 519 520
f 512 520 513
f 513 520 521
f 513 521 509
f 509 521 522
f 516 501 518
f 518 501 523
f 501 504 523
f 523 504 524
f 524 504 525
f 525 504 515
f 526 527 523
f 523 527 518
f 529 530 528
f 528 530 531
f 532 533 529
f 529 533 530
f 530 533 535
f 535 533 534
f 536 537 535
f 535 537 538
f 534 539 535
f 535 539 536
f 538 531 535
f 535 531 530
f 540 541 531
f 531 541 528
f 533 532 534
f 534 532 542
f 532 520 542
f 542 520 519
f 532 543 520
f 520 543 521
f 529 544 532
f 532 544 543
f 544 529 545
f 545 529 528
f 534 542 539
f 539 542 527
f 527 542 518
f 518 542 519
f 541 546 528
f 528 546 545
f 547 544 548
f 548 544 545
f 546 549 545
f 545 549 548
f 550 547 551
f 551 547 548
f 547 550 553
f 553 550 552
f 549 554 548
f 548 554 551
f 544 547 543
f 543 547 553
f 543 553 521
f 521 553 522
f 546 541 556
f 556 541 555
f 541 540 555
f 555 540 557
f 536 539 558
f 558 539 527
f 537 536 559
f 559 536 558
f 527 526 558
f 558 526 560
f 559 558 561
f 561 558 560
f 559 562 537
f 537 562 563
f 557 563 555
f 555 563 562
f 509 522 507
f 507 522 564
f 508 565 515
f 515 565 525
f 565 508 564
f 564 508 507
f 564 552 565
f 565 552 566
f 552 550 566
f 566 550 567
f 565 566 525
f 525 566 568
f 564 522 552
f 552 522 553
f 569 524 568
f 568 524 525
f 569 526 524
f 524 526 523
f 570 560 569
f 569 560 526
f 570 569 571
f 571 569 568
f 572 570 573
f 573 570 571
f 566 567 568
f 568 567 571
f 567 574 571
f 571 574 573
f 570 572 560
f 560 572 561
f 576 561 575
f 575 561 572
f 575 578 577
f 577 578 579
f 575 572 578
f 578 572 573
f 575 577 576
f 576 577 556
f 576 556 562
f 562 556 555
f 562 559 576
f 576 559 561
f 550 551 567
f 567 551 574
f 579 574 554
f 554 574 551
f 579 578 574
f 574 578 573
f 579 554 577
f 577 554 549
f 549 546 577
f 577 546 556
f 531 538 540
f 540 538 557
f 557 538 563
f 563 538 537
f 481 294 482
f 482 294 293
f 580 486 511
f 511 486 485
f 490 489 497
f 497 489 498
f 489 491 498
f 498 491 496
f 163 495 164
f 164 495 494
f 580 490 486
f 486 490 497
f 482 293 510
f 510 293 292
f 495 163 511
f 511 163 199
f 494 493 510
f 510 493 499
f 481 491 294
f 294 491 248
f 582 583 581
f 581 583 584
f 586 587 585
f 585 587 588
f 585 588 589
f 589 588 590
f 592 593 591
f 591 593 594
f 595 596 598
f 598 596 597
f 599 600 586
f 586 600 587
f 601 602 604
f 604 602 603
f 605 606 608
f 608 606 607
f 609 607 200
f 200 607 606
f 610 611 613
f 613 611 612
f 600 614 587
f 587 614 592
f 596 605 597
f 597 605 608
f 602 615 603
f 603 615 583
f 616 614 584
f 584 614 600
f 611 618 617
f 617 618 590
f 620 621 619
f 619 621 622
f 610 623 611
f 611 623 618
f 624 589 618
f 618 589 590
f 617 590 591
f 591 590 588
f 581 625 582
f 582 625 626
f 599 627 581
f 581 627 625
f 591 594 617
f 617 594 628
f 601 610 598
f 598 610 613
f 581 584 599
f 599 584 600
f 585 629 586
f 586 629 630
f 615 616 583
f 583 616 584
f 587 592 588
f 588 592 591
f 582 626 631
f 631 626 632
f 624 620 633
f 633 620 619
f 621 620 604
f 604 620 623
f 631 632 621
f 621 632 622
f 610 601 623
f 623 601 604
f 589 624 634
f 634 624 633
f 586 630 599
f 599 630 627
f 203 202 628
f 628 202 612
f 629 585 634
f 634 585 589
f 609 593 614
f 614 593 592
f 620 624 623
f 623 624 618
f 631 621 603
f 603 621 604
f 582 631 583
f 583 631 603
f 634 633 636
f 636 633 635
f 634 636 629
f 629 636 637
f 629 637 630
f 630 637 638
f 630 638 627
f 627 638 639
f 633 619 635
f 635 619 640
f 619 622 640
f 640 622 641
f 641 622 642
f 642 622 632
f 644 635 643
f 643 635 640
f 645 646 648
f 648 646 647
f 649 650 646
f 646 650 647
f 647 650 652
f 652 650 651
f 652 653 655
f 655 653 654
f 651 656 652
f 652 656 653
f 655 648 652
f 652 648 647
f 648 657 645
f 645 657 658
f 650 649 651
f 651 649 659
f 649 637 659
f 659 637 636
f 649 660 637
f 637 660 638
f 661 660 646
f 646 660 649
f 662 661 645
f 645 661 646
f 651 659 656
f 656 659 644
f 644 659 635
f 635 659 636
f 663 662 658
f 658 662 645
f 664 661 665
f 665 661 662
f 663 666 662
f 662 666 665
f 667 664 668
f 668 664 665
f 664 667 670
f 670 667 669
f 666 671 665
f 665 671 668
f 661 664 660
f 660 664 670
f 660 670 638
f 638 670 639
f 658 672 663
f 663 672 673
f 658 657 672
f 672 657 674
f 653 656 675
f 675 656 644
f 653 675 654
f 654 675 676
f 675 644 677
f 677 644 643
f 676 675 678
f 678 675 677
f 679 680 676
f 676 680 654
f 674 680 672
f 672 680 679
f 627 639 625
f 625 639 681
f 626 682 632
f 632 682 642
f 681 682 625
f 625 682 626
f 669 683 681
f 681 683 682
f 667 684 669
f 669 684 683
f 682 683 642
f 642 683 685
f 681 639 669
f 669 639 670
f 686 641 685
f 685 641 642
f 641 686 640
f 640 686 643
f 686 687 643
f 643 687 677
f 687 686 688
f 688 686 685
f 689 687 690
f 690 687 688
f 683 684 685
f 685 684 688
f 684 691 688
f 688 691 690
f 687 689 677
f 677 689 678
f 693 678 692
f 692 678 689
f 692 695 694
f 694 695 696
f 692 689 695
f 695 689 690
f 692 694 693
f 693 694 673
f 693 673 679
f 679 673 672
f 679 676 693
f 693 676 678
f 684 667 691
f 691 667 668
f 696 691 671
f 671 691 668
f 696 695 691
f 691 695 690
f 694 696 666
f 666 696 671
f 666 663 694
f 694 663 673
f 648 655 657
f 657 655 674
f 674 655 680
f 680 655 654
f 593 162 594
f 594 162 290
f 598 597 601
f 601 597 602
f 615 608 616
f 616 608 607
f 607 609 616
f 616 609 614
f 697 595 613
f 613 595 598
f 597 608 602
f 602 608 615
f 594 290 628
f 628 290 203
f 628 612 617
f 617 612 611
f 593 609 162
f 162 609 200
f 105 29 698
f 698 29 699
f 268 126 701
f 701 126 700
f 126 125 700
f 700 125 702
f 252 703 250
f 250 703 704
f 32 268 705
f 705 268 701
f 288 105 706
f 706 105 698
f 29 32 699
f 699 32 705
f 707 251 706
f 706 251 288
f 250 704 125
f 125 704 702
f 703 252 707
f 707 252 251
f 706 708 707
f 707 708 709
f 707 709 703
f 703 709 710
f 703 710 704
f 704 710 711
f 704 711 702
f 702 711 712
f 706 698 708
f 708 698 713
f 698 699 713
f 713 699 714
f 699 705 714
f 714 705 715
f 717 708 716
f 716 708 713
f 719 720 718
f 718 720 721
f 722 723 719
f 719 723 720
f 724 725 723
f 723 725 720
f 724 726 725
f 725 726 727
f 728 721 725
f 725 721 720
f 721 728 729
f 729 728 730
f 729 731 721
f 721 731 718
f 724 723 732
f 732 723 722
f 722 710 732
f 732 710 709
f 722 733 710
f 710 733 711
f 719 734 722
f 722 734 733
f 734 719 735
f 735 719 718
f 724 732 726
f 726 732 717
f 717 732 708
f 708 732 709
f 731 736 718
f 718 736 735
f 737 734 738
f 738 734 735
f 736 739 735
f 735 739 738
f 740 737 741
f 741 737 738
f 737 740 743
f 743 740 742
f 739 744 738
f 738 744 741
f 734 737 733
f 733 737 743
f 733 743 711
f 711 743 712
f 736 731 746
f 746 731 745
f 731 729 745
f 745 729 730
f 727 726 747
f 747 726 717
f 748 727 749
f 749 727 747
f 747 717 750
f 750 717 716
f 749 747 751
f 751 747 750
f 749 752 748
f 748 752 753
f 730 753 745
f 745 753 752
f 728 725 748
f 748 725 727
f 730 728 753
f 753 728 748
f 700 702 754
f 754 702 712
f 705 701 715
f 715 701 755
f 754 755 700
f 700 755 701
f 742 756 754
f 754 756 755
f 740 757 742
f 742 757 756
f 755 756 715
f 715 756 758
f 754 712 742
f 742 712 743
f 759 714 758
f 758 714 715
f 714 759 713
f 713 759 716
f 759 760 716
f 716 760 750
f 760 759 761
f 761 759 758
f 762 760 763
f 763 760 761
f 756 757 758
f 758 757 761
f 757 764 761
f 761 764 763
f 760 762 750
f 750 762 751
f 766 751 765
f 765 751 762
f 767 765 769
f 769 765 768
f 765 762 768
f 768 762 763
f 765 767 766
f 766 767 746
f 766 746 752
f 752 746 745
f 752 749 766
f 766 749 751
f 757 740 764
f 764 740 741
f 769 764 744
f 744 764 741
f 769 768 764
f 764 768 763
f 767 769 739
f 739 769 744
f 739 736 767
f 767 736 746
f 219 217 208
f 208 217 209
f 209 217 210
f 210 217 193
f 198 580 199
f 199 580 511
f 76 75 289
f 289 75 272
f 277 207 291
f 291 207 184
f 290 183 203
f 203 183 84
f 490 580 142
f 142 580 198
f 142 198 143
f 143 198 197
f 149 276 72
f 72 276 73
f 104 103 279
f 279 103 770
f 770 596 279
f 279 596 595
f 605 596 771
f 771 596 770
f 771 770 772
f 772 770 103
f 772 103 773
f 773 103 102
f 155 774 101
f 101 774 102
f 773 102 97
f 97 102 774
f 775 773 100
f 100 773 97
f 773 775 772
f 772 775 776
f 772 776 771
f 771 776 777
f 200 606 197
f 197 606 777
f 189 71 778
f 778 71 74
f 97 774 98
f 98 774 155
f 183 161 184
f 184 161 291
f 777 276 197
f 197 276 143
f 777 606 771
f 771 606 605
f 613 612 697
f 697 612 202
f 595 697 279
f 279 697 202
f 73 276 776
f 776 276 777
f 776 775 73
f 73 775 74
f 100 778 775
f 775 778 74
f 778 100 189
f 189 100 99
f 245 242 99
f 99 242 189
f 131 33 256
f 28 1 95
f 95 1 62
f 27 2 28
f 28 2 1
f 265 115 266
f 266 115 114
f 95 62 69
f 69 62 64
f 62 61 64
f 64 61 65
f 61 13 65
f 65 13 130
f 13 12 130
f 130 12 14
f 31 11 32
f 32 11 268
f 15 12 31
f 31 12 11
f 31 30 15
f 15 30 231
f 30 106 231
f 231 106 232
f 287 237 106
f 106 237 232
f 254 90 287
f 287 90 237
f 253 44 254
f 254 44 90
f 253 249 44
f 44 249 7
f 267 127 268
f 268 127 126
f 10 3 241
f 241 3 116
f 3 2 116
f 116 2 114
f 2 27 114
f 114 27 266
f 27 26 266
f 266 26 113
f 26 286 113
f 113 286 110
f 286 243 110
f 110 243 255
f 243 242 255
f 255 242 256
f 242 245 256
f 256 245 131
f 245 244 131
f 131 244 132
f 265 37 115
f 115 37 41
f 41 37 42
f 42 37 40
f 92 91 40
f 40 91 42
f 236 233 92
f 92 233 91
f 191 194 236
f 236 194 233
f 258 285 244
f 244 285 132
f 257 55 258
f 258 55 285
f 257 154 201
f 201 154 185
f 56 201 204
f 204 201 180
f 55 257 56
f 56 257 201
f 204 85 56
f 56 85 52
f 86 122 53
f 53 122 79
f 212 215 86
f 86 215 122
f 211 216 212
f 212 216 215
f 192 280 211
f 211 280 216
f 191 240 192
f 192 240 280
f 249 124 7
f 7 124 8
f 124 127 8
f 8 127 241
f 127 267 241
f 241 267 10
f 10 267 9
f 9 267 11
