v 0.04452850669622421 0.09172229468822479 0.6038654446601868
v 0.05595652386546135 0.08762800693511963 0.603759229183197
v 0.048900142312049866 0.08379187434911728 0.6116103529930115
v 0.03896549716591835 0.0880964919924736 0.6110106706619263
v 0.0687757208943367 0.0802815780043602 0.6216297149658203
v 0.07476754486560822 0.0856732577085495 0.6303847432136536
v 0.058461993932724 0.08408434689044952 0.6358697414398193
v 0.056104496121406555 0.07891595363616943 0.6276394128799438
v 0.033872418105602264 0.08835969865322113 0.6166835427284241
v 0.04243398830294609 0.0824422687292099 0.6171876192092896
v 0.03279060870409012 0.09418850392103195 0.6189583539962769
v 0.025113770738244057 0.10255157947540283 0.6207208633422852
v 0.02588016353547573 0.09563364833593369 0.6182860136032104
v 0.01803443767130375 0.10637006908655167 0.6203033328056335
v 0.0314338281750679 0.11216500401496887 0.6209146976470947
v 0.02028549835085869 0.11448482424020767 0.6161267757415771
v 0.03975285589694977 0.1258094161748886 0.5999801158905029
v 0.04334848001599312 0.1266809105873108 0.5876574516296387
v 0.027782829478383064 0.12455146014690399 0.5863688588142395
v 0.02568754367530346 0.12316859513521194 0.5990759134292603
v 0.03830002248287201 0.12119842320680618 0.569258987903595
v 0.03150450065732002 0.12313658744096756 0.578467845916748
v 0.04720635339617729 0.12640008330345154 0.5797793865203857
v 0.052445027977228165 0.12424731254577637 0.5713825821876526
v 0.05276254564523697 0.09627475589513779 0.5912162661552429
v 0.06380369514226913 0.09434531629085541 0.5901492238044739
v 0.061466120183467865 0.09251932054758072 0.5947723388671875
v 0.05072179436683655 0.09511741250753403 0.5958930850028992
v 0.03356429934501648 0.09922441840171814 0.6262960433959961
v 0.04030614346265793 0.10597506165504456 0.6276534199714661
v 0.03490782901644707 0.10221900790929794 0.6230327486991882
v 0.03269200026988983 0.09458194673061371 0.6232671141624451
v 0.08976979553699493 0.08821073919534683 0.5821022391319275
v 0.10161346197128296 0.0940052792429924 0.5844056606292725
v 0.10094624012708664 0.09444908797740936 0.5902549624443054
v 0.09027446061372757 0.08936384320259094 0.5868079662322998
v 0.09369422495365143 0.0911305844783783 0.6146946549415588
v 0.10041889548301697 0.09687070548534393 0.6090518236160278
v 0.10456794500350952 0.10619626939296722 0.6182475686073303
v 0.09608161449432373 0.10417672246694565 0.6228152513504028
v 0.08500159531831741 0.08725210279226303 0.6233187317848206
v 0.08767833560705185 0.09834311902523041 0.6294998526573181
v 0.07530089467763901 0.09613803029060364 0.6357113122940063
v 0.05807027965784073 0.09264358133077621 0.640131413936615
v 0.10309627652168274 0.09592276811599731 0.5718440413475037
v 0.09478183835744858 0.09145689010620117 0.5683977007865906
v -0.02328599989414215 0.13524284958839417 0.6047004461288452
v -0.022401880472898483 0.134322851896286 0.5990047454833984
v -0.02157561667263508 0.12704844772815704 0.6026421785354614
v -0.02187325991690159 0.12955832481384277 0.607450544834137
v 0.09647013992071152 0.11012635380029678 0.5593886971473694
v 0.09503977000713348 0.12007016688585281 0.5602322816848755
v 0.10218875855207443 0.11896216869354248 0.560002326965332
v 0.1037280485033989 0.10977063328027725 0.5610814690589905
v 0.08681411296129227 0.11040250211954117 0.5573199391365051
v 0.08503692597150803 0.1209133118391037 0.5610966682434082
v -0.012958846986293793 0.13987168669700623 0.6089014410972595
v -0.017820805311203003 0.1389269381761551 0.6099048256874084
v -0.015033511444926262 0.13421665132045746 0.6116697788238525
v -0.009758759289979935 0.13447561860084534 0.6094434261322021
v 0.02937021292746067 0.09234685450792313 0.6129441261291504
v 0.0344637893140316 0.09282669425010681 0.6050150394439697
v 0.006305250339210033 0.09702806174755096 0.6125293374061584
v 0.019858337938785553 0.09470181912183762 0.6078832745552063
v 0.019277092069387436 0.09532970190048218 0.6152939200401306
v 0.009077048860490322 0.0989198237657547 0.618102490901947
v 0.030356023460626602 0.09707361459732056 0.5862290859222412
v 0.042099129408597946 0.09740903228521347 0.5874944925308228
v 0.03908608853816986 0.0971641093492508 0.5932223200798035
v 0.025914622470736504 0.09615878760814667 0.5936092734336853
v 0.04640057682991028 0.09459429979324341 0.5743739604949951
v 0.034451987594366074 0.09485819935798645 0.5741788148880005
v 0.038140080869197845 0.09303180128335953 0.5668155550956726
v 0.04611023887991905 0.09235619008541107 0.568260908126831
v 0.011048800311982632 0.09628099203109741 0.5771858096122742
v 0.001996791921555996 0.09924492985010147 0.5773203372955322
v 0.003227155189961195 0.10167867690324783 0.57197105884552
v 0.012863929383456707 0.09721754491329193 0.5728157758712769
v 0.10921487212181091 0.11895942687988281 0.5602412819862366
v 0.11046624928712845 0.10982699692249298 0.5636028051376343
v 0.04765882343053818 0.11381419003009796 0.5520606637001038
v 0.05362379923462868 0.10612476617097855 0.5472802519798279
v 0.04275651276111603 0.10278844833374023 0.5440260767936707
v 0.03975220397114754 0.11161646991968155 0.549891471862793
v 0.09190907329320908 0.12770530581474304 0.5664963722229004
v 0.09937956929206848 0.12764963507652283 0.5641915202140808
v -0.008531972765922546 0.13989271223545074 0.6045249104499817
v -0.006488444749265909 0.13459521532058716 0.604350745677948
v 0.0747532844543457 0.10765868425369263 0.6334125399589539
v 0.056707631796598434 0.10163850337266922 0.6389827132225037
v 0.08750177919864655 0.11160336434841156 0.6270225644111633
v 0.0956811010837555 0.11528969556093216 0.6218088865280151
v 0.10365916788578033 0.11765855550765991 0.6200510859489441
v 0.01566212810575962 0.09438171237707138 0.6021165251731873
v 0.04084142670035362 0.09520119428634644 0.5985151529312134
v 0.054450470954179764 0.09619901329278946 0.5866692662239075
v 0.059291139245033264 0.08818964660167694 0.5577117204666138
v 0.06980003416538239 0.08797603845596313 0.5593736171722412
v 0.06407846510410309 0.08787678182125092 0.5682114362716675
v 0.056035637855529785 0.08877648413181305 0.5648438930511475
v 0.05415523424744606 0.09639487415552139 0.546288013458252
v 0.05111871287226677 0.09062226116657257 0.550451934337616
v 0.04186110943555832 0.09003335237503052 0.5491909384727478
v 0.0440511591732502 0.09454624354839325 0.5447286367416382
v 0.03480178862810135 0.10194826126098633 0.6328599452972412
v 0.045655883848667145 0.10851041227579117 0.6319061517715454
v 0.09720935672521591 0.1000550389289856 0.5621878504753113
v 0.10383822023868561 0.10093365609645844 0.5659747123718262
v 0.11145000904798508 0.10361911356449127 0.5681654214859009
v 0.07709186524152756 0.09019871801137924 0.5875293612480164
v 0.09073428064584732 0.08989062905311584 0.5902922749519348
v 0.08986879140138626 0.0889701321721077 0.5952833890914917
v 0.07649151235818863 0.0902061015367508 0.5904447436332703
v 0.06813189387321472 0.08260661363601685 0.6063568592071533
v 0.08051930367946625 0.0828915610909462 0.6111342906951904
v 0.05841679498553276 0.07911187410354614 0.6146782040596008
v 0.10185889154672623 0.09527797996997833 0.5985788702964783
v 0.11067879945039749 0.09653714299201965 0.5921695232391357
v 0.11025620251893997 0.09821242094039917 0.6009656190872192
v 0.11161576956510544 0.09732624888420105 0.5824616551399231
v 0.11193346977233887 0.09951561689376831 0.5738335847854614
v 0.10719207674264908 0.13047471642494202 0.5625913739204407
v 0.10876400023698807 0.10143127292394638 0.6087284088134766
v 0.04743000119924545 0.07924146205186844 0.6299015879631042
v 0.039373092353343964 0.07966238260269165 0.6309452652931213
v 0.037080757319927216 0.08177993446588516 0.6238293647766113
v 0.043632496148347855 0.08086302876472473 0.6225215196609497
v 0.010347340255975723 0.11163906753063202 0.6190898418426514
v 0.0086118308827281 0.10464217513799667 0.6206677556037903
v 0.01937243528664112 0.09942407160997391 0.6207257509231567
v 0.0802183672785759 0.0871477797627449 0.5757651925086975
v 0.08497249335050583 0.0896100178360939 0.564465343952179
v 0.002647296991199255 0.09831265360116959 0.6066082715988159
v -0.004663435742259026 0.13382872939109802 0.60844886302948
v -0.009022627025842667 0.13209302723407745 0.612321138381958
v 0.002874048426747322 0.12321105599403381 0.6146135330200195
v 0.005734072998166084 0.12627124786376953 0.6097972989082336
v -0.003474427852779627 0.10824474692344666 0.6001856923103333
v -0.0025220541283488274 0.10448320209980011 0.6060085296630859
v -0.004640007391571999 0.10905763506889343 0.6047249436378479
v -0.005404922645539045 0.11208091676235199 0.5992075204849243
v 0.009057949297130108 0.10028824955224991 0.5643795132637024
v 0.017062382772564888 0.0961831584572792 0.5652408003807068
v 0.011181115172803402 0.11803008615970612 0.5975101590156555
v 0.015160933136940002 0.1190631240606308 0.6085115075111389
v 0.02396381087601185 0.1209515631198883 0.6084017753601074
v 0.03349195420742035 0.09627382457256317 0.5795173048973083
v 0.022587750107049942 0.09570712596178055 0.5775726437568665
v 0.02376522310078144 0.09546785801649094 0.5734832286834717
v 0.012116716243326664 0.09543289989233017 0.5985848903656006
v 0.001841093529947102 0.09891323745250702 0.6003658175468445
v 0.006513606756925583 0.09800846129655838 0.5951088666915894
v 0.016142599284648895 0.0963464304804802 0.593432605266571
v 0.06572111696004868 0.10906093567609787 0.5500941872596741
v 0.06659805029630661 0.09762883931398392 0.5485346913337708
v -0.021577870473265648 0.13705173134803772 0.6085766553878784
v -0.019193582236766815 0.13183024525642395 0.6109136939048767
v 0.04493085667490959 0.0966339260339737 0.5808993577957153
v 0.03689369931817055 0.1220429539680481 0.6087853908538818
v 0.05627713352441788 0.09544249624013901 0.5816274881362915
v 0.023887837305665016 0.11227819323539734 0.5588710904121399
v 0.022422010079026222 0.1071871966123581 0.554837167263031
v 0.016625577583909035 0.10864684730768204 0.5564772486686707
v 0.018138140439987183 0.11371155083179474 0.5586638450622559
v -0.012935323640704155 0.12346862256526947 0.5945042967796326
v -0.01664961501955986 0.12263436615467072 0.5989900827407837
v -0.019682740792632103 0.1261109560728073 0.5967708826065063
v -0.015375029295682907 0.12677136063575745 0.5933415293693542
v -0.0010939600178971887 0.10484449565410614 0.6117480397224426
v 0.0016902255592867732 0.10627561807632446 0.617334246635437
v -0.003309610765427351 0.1129479929804802 0.6146999001502991
v -0.0047002630308270454 0.11064989119768143 0.609630286693573
v 0.0036095185205340385 0.11249670386314392 0.6185766458511353
v -0.00028823676984757185 0.11819819360971451 0.6164084076881409
v -0.007136139087378979 0.12661387026309967 0.5938296318054199
v -0.0018287926213815808 0.1308610737323761 0.5976467728614807
v 0.004560915287584066 0.12330078333616257 0.5975824594497681
v -0.001960058230906725 0.11862128227949142 0.5965604782104492
v 0.06653770804405212 0.1275537759065628 0.5738034844398499
v 0.07027585059404373 0.12368173152208328 0.5642123818397522
v 0.056333333253860474 0.12030425667762756 0.5615403056144714
v 0.04331527650356293 0.11741165071725845 0.5586198568344116
v 0.03130015358328819 0.11305395513772964 0.557110071182251
v 0.02711092121899128 0.11879264563322067 0.5670484304428101
v 0.06026577576994896 0.11711707711219788 0.5554144978523254
v 0.00026015506591647863 0.11389537900686264 0.5948878526687622
v 0.0071792807430028915 0.11695298552513123 0.6000754237174988
v 0.005338545888662338 0.11671563982963562 0.5960433483123779
v 0.057848185300827026 0.09270104020833969 0.5749481916427612
v -0.012460599653422832 0.12951074540615082 0.6129286289215088
v 0.09247016161680222 0.13151969015598297 0.6084235310554504
v 0.09254724532365799 0.13532252609729767 0.596073567867279
v 0.08412954211235046 0.13332851231098175 0.5976632237434387
v 0.08385058492422104 0.12858472764492035 0.610867977142334
v -0.017696993425488472 0.12317383289337158 0.6058224439620972
v -0.01642117090523243 0.1258828043937683 0.6107890009880066
v 0.01822833903133869 0.09628184884786606 0.5589475035667419
v 0.012034046463668346 0.10085596889257431 0.559262216091156
v 0.012468809261918068 0.10339220613241196 0.5564537644386292
v 0.01781534217298031 0.09788429737091064 0.5538303256034851
v 0.07348901778459549 0.12113185226917267 0.5600746273994446
v 0.035901352763175964 0.10034892708063126 0.5420176386833191
v 0.0344170406460762 0.10888324677944183 0.5464513897895813
v 0.08254724740982056 0.12663863599300385 0.566992461681366
v 0.07937558740377426 0.13059639930725098 0.5752441883087158
v 0.08882105350494385 0.13260430097579956 0.5757110118865967
v 0.015711836516857147 0.11847150325775146 0.5779407024383545
v 0.06187824904918671 0.1290978044271469 0.5808765292167664
v 0.07593473047018051 0.1315411478281021 0.5819666981697083
v 0.08709971606731415 0.1339520514011383 0.5828434824943542
v 0.09511562436819077 0.13617898523807526 0.5827347636222839
v 0.09623456001281738 0.13424894213676453 0.5749374032020569
v -0.0023218607529997826 0.13270139694213867 0.6027753949165344
v -0.005436488427221775 0.13291035592556 0.5987085103988647
v 0.10452526062726974 0.13760194182395935 0.5734917521476746
v 0.10303748399019241 0.1390078067779541 0.5824970602989197
v 0.07279305905103683 0.13176128268241882 0.5906009078025818
v 0.06939258426427841 0.1307632476091385 0.6005567312240601
v 0.05931418761610985 0.12924490869045258 0.5890885591506958
v 0.05476055666804314 0.12813834846019745 0.5990518927574158
v 0.017280392348766327 0.12265391647815704 0.587485134601593
v -0.010839968919754028 0.14908967912197113 0.5923495292663574
v -0.008832968771457672 0.1373685896396637 0.5938307642936707
v -0.013827932998538017 0.1351180225610733 0.5916070938110352
v -0.012950863689184189 0.1461682766675949 0.5894303321838379
v -0.009945884346961975 0.1292983591556549 0.5941546559333801
v -0.006472885608673096 0.13889551162719727 0.5987077951431274
v 0.05186440050601959 0.12329855561256409 0.6105301380157471
v -0.0032897917553782463 0.10469840466976166 0.5946006178855896
v 0.06804858148097992 0.12377271801233292 0.6140668392181396
v 0.044133711606264114 0.11663717776536942 0.6222610473632812
v 0.05607333034276962 0.11567071825265884 0.6252548694610596
v 0.08442533016204834 0.12276142090559006 0.6202726364135742
v 0.0715036392211914 0.11702920496463776 0.6274431347846985
v 0.10122225433588028 0.1268107146024704 0.6157954335212708
v 0.09263422340154648 0.12523461878299713 0.6170905828475952
v 0.05863972380757332 0.11069473624229431 0.6334119439125061
v -0.025596825405955315 0.1429084688425064 0.5962939858436584
v -0.022376887500286102 0.14118877053260803 0.5916603207588196
v 0.10042892396450043 0.13385331630706787 0.6076196432113647
v 0.049572329968214035 0.07925531268119812 0.6198869943618774
v 0.06810026615858078 0.09085475653409958 0.5781978368759155
v 0.06647786498069763 0.09298032522201538 0.5829564929008484
v 0.07592887431383133 0.08839672058820724 0.5610841512680054
v 0.07120531797409058 0.08764225244522095 0.5716670155525208
v -0.025483908131718636 0.14553552865982056 0.600930392742157
v 0.0009398426627740264 0.10418296605348587 0.5757966637611389
v 0.002520066685974598 0.10636343061923981 0.5735889077186584
v 0.04898955672979355 0.08293233066797256 0.6374075412750244
v 0.04124509543180466 0.08228889852762222 0.6379081010818481
v 0.0371130034327507 0.09427244961261749 0.6414723992347717
v 0.0393296480178833 0.0874408632516861 0.6421317458152771
v 0.048136863857507706 0.0904940515756607 0.6415561437606812
v 0.04618550091981888 0.09792205691337585 0.6407066583633423
v 0.07722295075654984 0.08981096744537354 0.5851022601127625
v 0.07761913537979126 0.08897663652896881 0.5814076066017151
v 0.07699082791805267 0.10962918400764465 0.5536195039749146
v 0.07718480378389359 0.09821021556854248 0.5524111986160278
v 0.006640042178332806 0.11695484071969986 0.6162880659103394
v 0.013014757074415684 0.11652280390262604 0.6144639253616333
v 0.00981520302593708 0.1205277144908905 0.6111316084861755
v 0.007609037682414055 0.1254761815071106 0.6035144925117493
v -0.004081834107637405 0.1110345870256424 0.5932908654212952
v 0.0003231748705729842 0.1130656898021698 0.5980083346366882
v 0.0854455903172493 0.08581225574016571 0.6020562052726746
v 0.07372044026851654 0.08750352263450623 0.5967844128608704
v 0.03870518505573273 0.08476430177688599 0.6200296878814697
v 0.03426317125558853 0.0873587355017662 0.6209549307823181
v 0.020685935392975807 0.09633539617061615 0.5866209268569946
v 0.010108334943652153 0.11542625725269318 0.5799158215522766
v 0.011789652518928051 0.12073773145675659 0.5875297784805298
v 0.00992625392973423 0.09731611609458923 0.5866789817810059
v -0.0195419043302536 0.15101227164268494 0.602916419506073
v -0.023733247071504593 0.1481812447309494 0.6026598215103149
v 0.010405376553535461 0.12051891535520554 0.6055711507797241
v 0.02681572735309601 0.09319234639406204 0.5659911036491394
v 0.012925916351377964 0.1139228492975235 0.5753869414329529
v 0.006329097785055637 0.10921764373779297 0.576507031917572
v 0.03767377510666847 0.09332399815320969 0.5440183281898499
v 0.10118626058101654 0.13734599947929382 0.5956612825393677
v -0.019115399569272995 0.13439637422561646 0.5933915376663208
v -0.018024828284978867 0.14155778288841248 0.5887308716773987
v -0.010129600763320923 0.15086732804775238 0.5961040258407593
v -0.012959981337189674 0.15148350596427917 0.6010957956314087
v 0.08649209141731262 0.09834273904561996 0.5576586723327637
v 0.06504731625318527 0.09409394860267639 0.5860115885734558
v 0.0469726137816906 0.10587707906961441 0.6360163688659668
v 0.03598563000559807 0.10020744800567627 0.6374425292015076
v 0.0005049671744927764 0.10003388673067093 0.586601197719574
v 0.02884102240204811 0.10948537290096283 0.5524472594261169
v 0.020227279514074326 0.11775517463684082 0.5658808946609497
v 0.01639428362250328 0.11911113560199738 0.5651992559432983
v 0.010948366485536098 0.11870667338371277 0.5699198246002197
v 0.004332445561885834 0.11486989259719849 0.5712471008300781
v -0.012133214622735977 0.15485326945781708 0.5927401185035706
v -0.01598387584090233 0.15661653876304626 0.5965402126312256
v -0.021739277988672256 0.1560518443584442 0.5964450836181641
v -0.025801099836826324 0.15251582860946655 0.5966536998748779
v -0.027052506804466248 0.14796382188796997 0.5960503816604614
v -0.012454409152269363 0.15244710445404053 0.5894140601158142
v -0.013811374083161354 0.14934700727462769 0.5876327753067017
v -0.01821986399590969 0.14404866099357605 0.5880254507064819
v -0.011608771979808807 0.1531418114900589 0.5859021544456482
v -0.012381576001644135 0.15764352679252625 0.586588978767395
v -0.02364475652575493 0.16223210096359253 0.5835716724395752
v -0.02135813981294632 0.16088390350341797 0.5885370373725891
v -0.020237671211361885 0.16177208721637726 0.5866614580154419
v -0.021190349012613297 0.16362205147743225 0.5824098587036133
v -0.020710492506623268 0.165946826338768 0.5781316161155701
v -0.02383606694638729 0.1645224243402481 0.5787474513053894
v -0.016454769298434258 0.15994104743003845 0.588115930557251
v -0.016980433836579323 0.16255828738212585 0.5824209451675415
v -0.013544907793402672 0.16062821447849274 0.5811182260513306
v -0.01358465664088726 0.16371311247348785 0.5768917202949524
v -0.016717547550797462 0.16577205061912537 0.5779005289077759
v -0.0135072972625494 0.15911456942558289 0.5851752758026123
v -0.016136711463332176 0.1597054898738861 0.5897724628448486
v -0.021875809878110886 0.1656797230243683 0.5750893354415894
v -0.019921673461794853 0.16702894866466522 0.5757402181625366
v -0.016793357208371162 0.1664920449256897 0.575167179107666
v -0.017759641632437706 0.16564126312732697 0.5725522637367249
v -0.025291886180639267 0.15627598762512207 0.5906302332878113
v -0.025228966027498245 0.16046103835105896 0.5830875039100647
v -0.024348406121134758 0.1618087887763977 0.5775959491729736
v -0.022335320711135864 0.16319702565670013 0.5740758180618286
v -0.025204230099916458 0.15736156702041626 0.5807660818099976
v -0.02374124340713024 0.15917816758155823 0.5766665935516357
v -0.021779503673315048 0.16003495454788208 0.5734356045722961
v -0.023531567305326462 0.15431785583496094 0.5785467624664307
v -0.022198721766471863 0.15679731965065002 0.5753730535507202
v -0.02547541819512844 0.14752599596977234 0.5897149443626404
v -0.026364699006080627 0.15090878307819366 0.5914170145988464
v -0.021470457315444946 0.15794116258621216 0.5732073783874512
v -0.017914138734340668 0.1636628359556198 0.5718032717704773
v -0.011837881058454514 0.15746617317199707 0.5810462832450867
v -0.012767722830176353 0.16078712046146393 0.5754768252372742
v -0.011762138456106186 0.15550599992275238 0.5801344513893127
v -0.012312319129705429 0.15860560536384583 0.5744970440864563
v -0.013459289446473122 0.16353675723075867 0.5725605487823486
v -0.014331299811601639 0.16490864753723145 0.5745664238929749
v -0.02568415366113186 0.1440734565258026 0.5935299396514893
v -0.021764550358057022 0.1426171362400055 0.5900302529335022
v -0.02080913819372654 0.14518685638904572 0.5872651934623718
v -0.019911259412765503 0.1518605649471283 0.5770778059959412
v -0.016762807965278625 0.14583832025527954 0.5854192972183228
v -0.012469863519072533 0.15038248896598816 0.5839627385139465
v -0.012628782540559769 0.15378853678703308 0.578296959400177
v -0.015051847323775291 0.15204362571239471 0.5770881772041321
v -0.013488994911313057 0.1564294695854187 0.5742307305335999
v -0.01572759635746479 0.15516991913318634 0.5741226673126221
v -0.01935591548681259 0.15500755608081818 0.5741756558418274
v -0.015311410650610924 0.1587354838848114 0.5717883110046387
v -0.013927634805440903 0.16138091683387756 0.5719125866889954
v -0.018523380160331726 0.16036663949489594 0.5715923309326172
v -0.016271596774458885 0.1570766270160675 0.5723743438720703
v -0.018988143652677536 0.15798625349998474 0.5726425051689148
v -0.015527855604887009 0.12772832810878754 0.5542654991149902
v -0.010244661010801792 0.12543727457523346 0.5536128878593445
v -0.013756822794675827 0.11995959281921387 0.5607622861862183
v -0.016987256705760956 0.12302614003419876 0.5628343820571899
v -0.013468208722770214 0.13557784259319305 0.5646372437477112
v -0.01725311018526554 0.13385425508022308 0.5607672333717346
v -0.015323080122470856 0.13148590922355652 0.5684664249420166
v -0.009271110408008099 0.13269485533237457 0.5694722533226013
v -0.00789767038077116 0.13465529680252075 0.5653455257415771
v -0.004296594765037298 0.13023468852043152 0.568318784236908
v -0.004934754688292742 0.13305483758449554 0.5720120072364807
v -0.011469230055809021 0.13078008592128754 0.5732685327529907
v -0.0023057982325553894 0.11910684406757355 0.5878180861473083
v 0.0030584707856178284 0.1227252185344696 0.5855050086975098
v -0.0038842912763357162 0.10367894917726517 0.578123152256012
v -0.0016335084801539779 0.10587957501411438 0.575773298740387
v -0.01749337650835514 0.13082633912563324 0.5567627549171448
v -0.017615504562854767 0.127655029296875 0.5657272934913635
v -0.007268442772328854 0.11599937081336975 0.5603482127189636
v -0.012085091322660446 0.11620035022497177 0.5626519322395325
v -0.009921124204993248 0.11821078509092331 0.5584872961044312
v -0.005471694748848677 0.11921090632677078 0.55838942527771
v -0.0066872239112854 0.11080442368984222 0.5873163342475891
v -0.005310830194503069 0.10571550577878952 0.5835210084915161
v -0.005263654049485922 0.11511862277984619 0.5876061916351318
v -0.0018232850125059485 0.11932256817817688 0.5607028007507324
v 0.001868987805210054 0.12442023307085037 0.562903106212616
v 0.008736258372664452 0.11654409021139145 0.574544370174408
v 0.005013811402022839 0.11108003556728363 0.5728912353515625
v -0.015526115894317627 0.1272948533296585 0.5719802975654602
v -0.015595905482769012 0.11886994540691376 0.5661880970001221
v -0.017118092626333237 0.12241898477077484 0.569053590297699
v 0.00010984449181705713 0.1300155520439148 0.5679555535316467
v -0.0009365753503516316 0.1271098554134369 0.5634651184082031
v 0.004249176010489464 0.13802725076675415 0.5533555746078491
v -0.0004588403971865773 0.12899889051914215 0.5606215000152588
v -0.0017600377323105931 0.1264435350894928 0.5565086007118225
v 0.004052149131894112 0.1352914273738861 0.5495300889015198
v -0.00227496400475502 0.12277563661336899 0.5611239075660706
v -0.002952548675239086 0.13217316567897797 0.5634419918060303
v -0.007206961512565613 0.13830973207950592 0.5433267951011658
v -0.0017489028396084905 0.13488687574863434 0.5429612994194031
v -0.009765233844518661 0.14164339005947113 0.5452311038970947
v 0.007846478372812271 0.12175644934177399 0.5799206495285034
v -0.00866167526692152 0.14605948328971863 0.5537726879119873
v -0.010929280892014503 0.144060879945755 0.548473596572876
v -0.004947960376739502 0.12482151389122009 0.5539916753768921
v 0.0023715924471616745 0.13431048393249512 0.5456204414367676
v 0.0022323615849018097 0.14139020442962646 0.5556954741477966
v -0.003986384719610214 0.14481088519096375 0.5574173927307129
v 0.004585416987538338 0.14329639077186584 0.5489838719367981
v 0.0011563411680981517 0.14761343598365784 0.5507294535636902
v -0.0026232823729515076 0.14950455725193024 0.5480009317398071
v -0.006029260344803333 0.14781250059604645 0.544563353061676
v -0.006638019345700741 0.14465990662574768 0.542357325553894
v 0.005552303045988083 0.14081113040447235 0.5471506714820862
v 0.005097854882478714 0.13821247220039368 0.5440939664840698
v 0.0021173208951950073 0.1364537924528122 0.5422993898391724
v 0.006991209462285042 0.141889750957489 0.5388848781585693
v 0.007307557389140129 0.14581522345542908 0.5400251150131226
v 0.0007182190893217921 0.15726196765899658 0.5306757688522339
v -0.0002804436953738332 0.1553146243095398 0.535782516002655
v 0.002229781821370125 0.15541818737983704 0.5360620021820068
v 0.0034166108816862106 0.15688049793243408 0.5313613414764404
v 0.0004885102389380336 0.1536288857460022 0.5409466028213501
v 0.002438865602016449 0.153799906373024 0.5397282838821411
v 0.00539182685315609 0.15059882402420044 0.5406094789505005
v 0.005639219656586647 0.15221147239208221 0.5354546904563904
v 0.008152849972248077 0.14823400974273682 0.535216748714447
v 0.00979420356452465 0.15021425485610962 0.5307447910308838
v 0.007762588560581207 0.1545756608247757 0.5310342311859131
v 0.007569704204797745 0.1482132226228714 0.5387418270111084
v 0.004847770556807518 0.1571839153766632 0.5283233523368835
v 0.0035837609320878983 0.15709689259529114 0.5261264443397522
v 0.004474980756640434 0.1501142978668213 0.5426085591316223
v -0.004474274814128876 0.15088483691215515 0.5421556234359741
v -0.002808688208460808 0.15437264740467072 0.5344694256782532
v -0.001219648984260857 0.155772402882576 0.5286330580711365
v 0.0027355309575796127 0.15489579737186432 0.5242052674293518
v -0.004106893204152584 0.1515042930841446 0.532042920589447
v -0.0017976743401959538 0.1530972421169281 0.5269632339477539
v 0.0019001791952177882 0.15237921476364136 0.5238502025604248
v -0.0038294997066259384 0.1475469172000885 0.5298054218292236
v -0.0011090246262028813 0.14929047226905823 0.5253914594650269
v -0.006138376891613007 0.14291465282440186 0.539078414440155
v -0.006868206895887852 0.14722633361816406 0.540436327457428
v 0.0009079462615773082 0.15026599168777466 0.5241227149963379
v 0.007904639467597008 0.15516069531440735 0.5252732634544373
v 0.00627964548766613 0.15303903818130493 0.5231969356536865
v 0.007991386577486992 0.15527582168579102 0.5270731449127197
v 0.008487166836857796 0.14623156189918518 0.5344408750534058
v 0.009569341316819191 0.14838741719722748 0.5293443202972412
v 0.00798233412206173 0.14389628171920776 0.5331138372421265
v 0.00888797640800476 0.14688993990421295 0.5275988578796387
v 0.009889274835586548 0.15099520981311798 0.5259076952934265
v 0.009908763691782951 0.15232056379318237 0.5269535779953003
v -0.004753071814775467 0.14093850553035736 0.5416463613510132
v -0.0007843953790143132 0.13726192712783813 0.5412155389785767
v -0.003006907179951668 0.13884751498699188 0.5384094715118408
v -0.0009490271331742406 0.14362113177776337 0.5291365385055542
v 0.0009326374856755137 0.13752399384975433 0.5386607050895691
v 0.004850761964917183 0.13919606804847717 0.5379252433776855
v 0.0062035322189331055 0.14208455383777618 0.5319181680679321
v 0.003005165606737137 0.1417742669582367 0.5299273729324341
v 0.008142640814185143 0.14504367113113403 0.5266336798667908
v 0.005058733746409416 0.14406445622444153 0.5266444683074951
v 0.0009609683183953166 0.14593422412872314 0.525221586227417
v 0.008153105154633522 0.1481688916683197 0.523512601852417
v 0.009362492710351944 0.14988109469413757 0.5246375203132629
v 0.005029791966080666 0.1512754112482071 0.5229431390762329
v 0.005755336955189705 0.14649111032485962 0.5239818692207336
v 0.0030976179987192154 0.14884544909000397 0.5233649611473083
v -0.01760759949684143 0.1270362138748169 0.5504747033119202
v -0.01579335890710354 0.12327923625707626 0.5467508435249329
v -0.015046208165585995 0.11741712689399719 0.5498364567756653
v -0.017046431079506874 0.12120497226715088 0.5539769530296326
v -0.00721312128007412 0.1326676607131958 0.5560412406921387
v -0.012261495925486088 0.13257358968257904 0.5555916428565979
v -0.012019343674182892 0.1284113973379135 0.5587831139564514
v -0.006389789283275604 0.12841151654720306 0.5598613619804382
v -0.0026723016053438187 0.13203869760036469 0.5526256561279297
v -0.0015289263101294637 0.1273420751094818 0.5564656257629395
v -0.003285489045083523 0.12808087468147278 0.562813401222229
v -0.009384064935147762 0.12597094476222992 0.5623393058776855
v 0.0011736619053408504 0.11775040626525879 0.5689079761505127
v 0.00652804970741272 0.12236305326223373 0.5679428577423096
v -0.015718908980488777 0.13036809861660004 0.5533497333526611
v -0.015600568614900112 0.12554839253425598 0.5567086338996887
v -0.004158436320722103 0.11497750878334045 0.5477179288864136
v -0.007522921077907085 0.113827645778656 0.5500131249427795
v -0.011251908726990223 0.11664344370365143 0.546112596988678
v -0.007761841639876366 0.11728791892528534 0.5448007583618164
v 0.00013847218360751867 0.1066388338804245 0.5670391917228699
v 0.004206045065075159 0.10463445633649826 0.562652587890625
v -0.0012997445883229375 0.11206970363855362 0.5680503845214844
v 8.839636575430632e-05 0.11894228309392929 0.5482586622238159
v 0.003532477654516697 0.12444305419921875 0.5524410605430603
v 0.012758105993270874 0.1186656728386879 0.5566786527633667
v 0.01085752621293068 0.11288575828075409 0.5551385283470154
v -0.012575007975101471 0.12212476879358292 0.5608581900596619
v -0.010938000865280628 0.11411609500646591 0.5539776086807251
v -0.013571946881711483 0.11749231815338135 0.5580449104309082
v 0.001355019281618297 0.12778490781784058 0.5585652589797974
v -0.00044621166307479143 0.12409161776304245 0.5505340695381165
v -0.0011270028771832585 0.1376774162054062 0.5358249545097351
v -0.0024025868624448776 0.1237124651670456 0.5444400310516357
v -0.007361145690083504 0.12192307412624359 0.5427765250205994
v -0.004085656255483627 0.13542625308036804 0.5336271524429321
v -0.0030453596264123917 0.11992663145065308 0.5455904603004456
v -0.00012463529128581285 0.12796002626419067 0.5484055876731873
v -0.016479728743433952 0.13974729180335999 0.537575900554657
v -0.013735752552747726 0.13591305911540985 0.5349238514900208
v -0.01555699110031128 0.14198260009288788 0.5409277081489563
v 0.011616361327469349 0.12328701466321945 0.5630366206169128
v 0.008191201835870743 0.10677274316549301 0.557086706161499
v -0.009938005357980728 0.14563705027103424 0.5433930158615112
v -0.013696141541004181 0.144179105758667 0.5424652695655823
v -0.011572262272238731 0.12173973768949509 0.5439513921737671
v -0.00876457430422306 0.13446542620658875 0.5329592227935791
v -0.0008076374651864171 0.1406932771205902 0.5394479632377625
v -0.004217036068439484 0.14399585127830505 0.5432764291763306
v -0.0004926492692902684 0.1431441456079483 0.5354315042495728
v -0.004119774326682091 0.1468246877193451 0.5379611253738403
v -0.00915403664112091 0.14874280989170074 0.5372872352600098
v -0.01271200180053711 0.14711815118789673 0.5361558198928833
v -0.014719685539603233 0.14473551511764526 0.5348601341247559
v -0.0005470534088090062 0.13995970785617828 0.5323160886764526
v -0.003263324499130249 0.13771052658557892 0.5307931303977966
v -0.008023448288440704 0.13588367402553558 0.5315706729888916
v 0.0002314409939572215 0.14024755358695984 0.5292796492576599
v 0.0008140205172821879 0.1454932689666748 0.5301679968833923
v -0.006628129631280899 0.15324540436267853 0.5180935263633728
v -0.007682714611291885 0.1519770622253418 0.5235780477523804
v -0.006414651870727539 0.1518132984638214 0.5235036611557007
v -0.004924692213535309 0.15342949330806732 0.5183569192886353
v -0.007004484534263611 0.15113255381584167 0.5304798483848572
v -0.00557621568441391 0.15116585791110992 0.5284530520439148
v -0.0023537203669548035 0.14947161078453064 0.5297662019729614
v -0.0012189821572974324 0.1505587249994278 0.5233926773071289
v 0.0013910419074818492 0.1451093703508377 0.5232018828392029
v 0.001587130012921989 0.14673775434494019 0.5187364220619202
v -0.0003542491467669606 0.15201148390769958 0.5185689330101013
v 0.0006447358755394816 0.14619305729866028 0.5285571217536926
v -0.0034356489777565002 0.15350455045700073 0.5156406164169312
v -0.004706121981143951 0.15444093942642212 0.514646053314209
v -0.0029086023569107056 0.14931026101112366 0.5322443246841431
v -0.011614393442869186 0.14972004294395447 0.5308315753936768
v -0.010369816794991493 0.15112747251987457 0.52302086353302
v -0.009585011750459671 0.15242314338684082 0.5172562003135681
v -0.007228083908557892 0.15193277597427368 0.5136507153511047
v -0.011835908517241478 0.1477896273136139 0.5219916105270386
v -0.010523054748773575 0.14939484000205994 0.5168655514717102
v -0.008470214903354645 0.1491294503211975 0.5135715007781982
v -0.011808158829808235 0.14469802379608154 0.5214114189147949
v -0.010322386398911476 0.14613378047943115 0.5167118906974792
v -0.014327533543109894 0.14214462041854858 0.5309731364250183
v -0.013622775673866272 0.1461551934480667 0.531021237373352
v -0.008637651801109314 0.14693386852741241 0.5141798257827759
v -0.000780917820520699 0.15193623304367065 0.5135294795036316
v -0.0029705241322517395 0.14877544343471527 0.5118793845176697
v -0.0007845909567549825 0.15189382433891296 0.515180766582489
v 0.0018295234767720103 0.1434004008769989 0.5236607789993286
v 0.0022180378437042236 0.1448041796684265 0.517545759677887
v 0.0008672325639054179 0.1408371925354004 0.5231477618217468
v 0.0012049711076542735 0.14229528605937958 0.5169403553009033
v 0.001732081058435142 0.1474842131137848 0.5147076845169067
v 0.0014661996392533183 0.14833329617977142 0.515476644039154
v -0.015091273002326488 0.1410159021615982 0.5340170860290527
v -0.01245127059519291 0.13731087744235992 0.532404899597168
v -0.011940078809857368 0.13823983073234558 0.5301660299301147
v -0.009507369250059128 0.14098593592643738 0.5203478932380676
v -0.007733805105090141 0.1365222930908203 0.5298863053321838
v -0.002262793481349945 0.138180673122406 0.5277025699615479
v -0.0017745197983458638 0.1393260657787323 0.5220085382461548
v -0.0053129903972148895 0.13933348655700684 0.5206599831581116
v -0.0011675396235659719 0.14092224836349487 0.516478419303894
v -0.003975238651037216 0.1408100128173828 0.5169622302055359
v -0.008383981883525848 0.14264443516731262 0.5159544944763184
v -0.001968957483768463 0.14368702471256256 0.5137988328933716
v 0.0004805399803444743 0.1452251672744751 0.5137677788734436
v -0.005115542560815811 0.14654827117919922 0.5121574401855469
v -0.004164908081293106 0.14272192120552063 0.51427161693573
v -0.006622530519962311 0.1449018120765686 0.5131887793540955
v 0.006827818229794502 0.10442711412906647 0.5592498779296875
v 0.001410411554388702 0.10094089806079865 0.5417885780334473
v 0.00032559584360569715 0.09735102951526642 0.5417184233665466
v 0.006367034278810024 0.09517566859722137 0.5431658625602722
v 0.007449698634445667 0.09866184741258621 0.5442994832992554
v 0.006113262847065926 0.1037658229470253 0.5327064394950867
v 0.004305092617869377 0.1046179011464119 0.5368200540542603
v 0.009162141010165215 0.10372079908847809 0.5384876132011414
v 0.011047309264540672 0.10332448780536652 0.5339236259460449
v 0.0060788774862885475 0.1004759669303894 0.5290296673774719
v 0.011239012703299522 0.10039122402667999 0.5298506617546082
v 0.013688449747860432 0.10650604218244553 0.5354822874069214
v 0.011728500947356224 0.10572850704193115 0.5400317907333374
v 0.020079365000128746 0.10775472968816757 0.5489652156829834
v 0.023552050814032555 0.10954727232456207 0.5457720756530762
v 0.03134873881936073 0.0934046134352684 0.5431629419326782
v 0.030000880360603333 0.09099370241165161 0.5476408004760742
v 0.022999435663223267 0.09289849549531937 0.5451006889343262
v 0.02566724829375744 0.09356211125850677 0.5416750907897949
v 0.002665899693965912 0.10351961851119995 0.5399196743965149
v 0.00724334642291069 0.10185880213975906 0.542488694190979
v 0.014881815761327744 0.09091553092002869 0.5383994579315186
v 0.01240573264658451 0.0916808471083641 0.5421537756919861
v 0.006957734934985638 0.09180605411529541 0.5415089726448059
v 0.008350972086191177 0.09015338867902756 0.537196934223175
v 0.0259164497256279 0.09198635816574097 0.5510398745536804
v 0.023075424134731293 0.09392986446619034 0.5534047484397888
v 0.019384728744626045 0.09639479219913483 0.5515965223312378
v 0.02011731080710888 0.09413374215364456 0.5484156608581543
v 0.017380837351083755 0.1015346422791481 0.5524460673332214
v 0.016181042417883873 0.09252241253852844 0.5345439314842224
v 0.016691338270902634 0.09706562757492065 0.5311281681060791
v 0.029316388070583344 0.10061924904584885 0.5373814105987549
v 0.028725555166602135 0.09644918888807297 0.5393520593643188
v 0.010165815241634846 0.10332435369491577 0.5438493490219116
v 0.01011739019304514 0.09447845816612244 0.5442307591438293
v 0.010198932141065598 0.09897677600383759 0.545250415802002
v 0.015503428876399994 0.10329766571521759 0.5314871072769165
v 0.01087439339607954 0.09500286728143692 0.5292414426803589
v -0.006883002817630768 0.0940287858247757 0.5299128890037537
v 0.0037369225174188614 0.09127704799175262 0.5325358510017395
v 0.0013275108067318797 0.09127956628799438 0.5365369915962219
v -0.008797163143754005 0.09461786597967148 0.5318328738212585
v 0.010978331789374352 0.09161833673715591 0.5326728224754333
v 0.005467538721859455 0.09492576867341995 0.5289386510848999
v -0.009666798636317253 0.10474500060081482 0.5362781286239624
v -0.010082382708787918 0.10003487020730972 0.5365752577781677
v -0.007927561178803444 0.1066342443227768 0.5348738431930542
v 0.02681044675409794 0.10795698314905167 0.5400975346565247
v -0.004383297637104988 0.10551442205905914 0.5291339159011841
v -0.006414966657757759 0.1074867844581604 0.5321083068847656
v 0.0003854072419926524 0.0939418151974678 0.5399350523948669
v -0.009587172418832779 0.09664875268936157 0.5342493653297424
v -0.004840891808271408 0.09583088755607605 0.5277082920074463
v -0.0034324917942285538 0.10123293101787567 0.5264703035354614
v -0.008215174078941345 0.09614791721105576 0.5253651738166809
v -0.006726671941578388 0.10182581096887589 0.5245193839073181
v -0.008487334474921227 0.1070498675107956 0.5267065763473511
v -0.009998195804655552 0.10845395922660828 0.5293152332305908
v -0.011933594010770321 0.10805804282426834 0.5317463278770447
v -0.010637934319674969 0.09457048028707504 0.52756667137146
v -0.012640994042158127 0.0953366681933403 0.5299129486083984
v -0.013535945676267147 0.09738165885210037 0.5327077507972717
v -0.01347140409052372 0.09570147097110748 0.523597002029419
v -0.01094911340624094 0.09821050614118576 0.5199882388114929
v -0.01788116618990898 0.10907183587551117 0.5153766870498657
v -0.015943357720971107 0.10856913775205612 0.5184686779975891
v -0.01508114580065012 0.10788445174694061 0.5179537534713745
v -0.016987524926662445 0.10902514308691025 0.5146763920783997
v -0.01226598396897316 0.10751046240329742 0.5217732787132263
v -0.012173762544989586 0.10648038983345032 0.5202333927154541
v -0.010763738304376602 0.10337884724140167 0.5199877023696899
v -0.013126877136528492 0.10452300310134888 0.5160451531410217
v -0.014649049378931522 0.09953488409519196 0.5153231620788574
v -0.016448667272925377 0.10106195509433746 0.5122154951095581
v -0.014702286571264267 0.10533223301172256 0.5130082964897156
v -0.011350331827998161 0.09986865520477295 0.5182716846466064
v -0.017470989376306534 0.10894063860177994 0.5122153759002686
v -0.018650073558092117 0.10954514145851135 0.5118457078933716
v -0.009770425967872143 0.10355910658836365 0.5213823318481445
v -0.013846349902451038 0.1090785413980484 0.5255488753318787
v -0.0178692564368248 0.10950852930545807 0.5193815231323242
v -0.019852211698889732 0.10985653102397919 0.5151339769363403
v -0.020619507879018784 0.10879020392894745 0.511971652507782
v -0.019053852185606956 0.10868512094020844 0.5215874910354614
v -0.021787861362099648 0.10927031934261322 0.5162551403045654
v -0.02257208526134491 0.10802938044071198 0.5132281184196472
v -0.020617851987481117 0.10663998872041702 0.5236005187034607
v -0.022651156410574913 0.10724218189716339 0.5178903341293335
v -0.01654253527522087 0.10565339028835297 0.5308193564414978
v -0.01520254835486412 0.10805414617061615 0.5283450484275818
v -0.02273905649781227 0.10691485553979874 0.5147348642349243
v -0.018060455098748207 0.10638944059610367 0.5098518133163452
v -0.020844601094722748 0.10592834651470184 0.510485827922821
v -0.016714923083782196 0.10599914193153381 0.5102673172950745
v -0.015228061005473137 0.09831830859184265 0.5159422159194946
v -0.0177394337952137 0.10011747479438782 0.5121551752090454
v -0.017172018066048622 0.0972411185503006 0.5176601409912109
v -0.019760455936193466 0.09977392852306366 0.5130636692047119
v -0.018622249364852905 0.10274729132652283 0.5100052356719971
v -0.017050033435225487 0.10323040932416916 0.5106160640716553
v -0.01385175995528698 0.10554078221321106 0.5336403846740723
v -0.013495907187461853 0.10116985440254211 0.5344060659408569
v -0.01660802587866783 0.10159949958324432 0.5316792726516724
v -0.021303227171301842 0.10317452251911163 0.5243713855743408
v -0.01649516075849533 0.09770691394805908 0.5297409296035767
v -0.014993862248957157 0.09595301747322083 0.5266125202178955
v -0.01888676919043064 0.09790463745594025 0.5199100375175476
v -0.020557038486003876 0.09972742199897766 0.5222427845001221
v -0.021461639553308487 0.10048431158065796 0.5144112706184387
v -0.022826984524726868 0.10195203125476837 0.5167191028594971
v -0.02328752540051937 0.10442333668470383 0.5183093547821045
v -0.02200457826256752 0.10341684520244598 0.5120956301689148
v -0.020779820159077644 0.10298880189657211 0.5106716156005859
v -0.022188013419508934 0.10557407140731812 0.5120818614959717
v -0.022929130122065544 0.10381022095680237 0.5138487815856934
v -0.023036690428853035 0.10520727187395096 0.5143626928329468
v 0.03092801198363304 0.09641026705503464 0.5407475233078003
v 0.02076948992908001 0.09385649114847183 0.6330127716064453
v 0.021483683958649635 0.0928836464881897 0.6275380253791809
v 0.026531493291258812 0.07713949680328369 0.6266821622848511
v 0.0239246878772974 0.08295322954654694 0.6228886246681213
v 0.02714112587273121 0.0750884860754013 0.633459746837616
v 0.025593450292944908 0.08062586188316345 0.6426494121551514
v 0.027634235098958015 0.07712064683437347 0.6389523148536682
v 0.022450409829616547 0.08851121366024017 0.623623251914978
v 0.02161313220858574 0.09228145331144333 0.6383636593818665
v 0.023724135011434555 0.0869392454624176 0.6430850625038147
v 0.010534428060054779 0.0877966582775116 0.6388679146766663
v 0.013554802164435387 0.08136098831892014 0.6429651379585266
v 0.01637086644768715 0.07435469329357147 0.6415706872940063
v 0.020584162324666977 0.07239988446235657 0.6365622282028198
v 0.022197823971509933 0.07166874408721924 0.6320220828056335
v 0.013321835547685623 0.0907752737402916 0.6319015622138977
v 0.015140857547521591 0.09036371111869812 0.6264814138412476
v 0.01833890564739704 0.08614736050367355 0.6226711273193359
v 0.00655418261885643 0.08705306053161621 0.62810879945755
v 0.0015175900189206004 0.07874975353479385 0.6267054080963135
v 0.0035202093422412872 0.06059178709983826 0.6199819445610046
v 0.007708452641963959 0.0633528083562851 0.6242294311523438
v 0.005347650498151779 0.06473878771066666 0.6248548626899719
v 0.0016021354822441936 0.06178664416074753 0.6212668418884277
v 0.008437693119049072 0.06638763844966888 0.6288946866989136
v 0.00660497322678566 0.06747455149888992 0.627946674823761
v 0.004394549876451492 0.07253485172986984 0.6286989450454712
v 0.0010355449048802257 0.06944148987531662 0.6249500513076782
v 0.002066928893327713 0.07609843462705612 0.6260281205177307
v 1.0013463906943798e-05 0.07492993026971817 0.6223654747009277
v -0.002163652330636978 0.06677242368459702 0.6212021708488464
v -0.0017976203234866261 0.06139211356639862 0.6194972991943359
v -0.00451694056391716 0.0644916221499443 0.6179935932159424
v -0.0005534739466384053 0.06032417714595795 0.6170412302017212
v 0.0023119673132896423 0.07274116575717926 0.631827712059021
v 0.014784302562475204 0.06690816581249237 0.6305307149887085
v 0.011156834661960602 0.06325622648000717 0.6232976913452148
v 0.006272967904806137 0.0609353668987751 0.6177957057952881
v 0.0012873447267338634 0.060971055179834366 0.6146292090415955
v 0.013846319168806076 0.06482350826263428 0.6205151081085205
v 0.008845964446663857 0.06353140622377396 0.6156400442123413
v 0.003996923565864563 0.06429454684257507 0.6127628684043884
v 0.014575432986021042 0.06852617859840393 0.6175981760025024
v 0.009305005893111229 0.06702777743339539 0.6141031980514526
v 0.021340273320674896 0.07381568849086761 0.6245893239974976
v 0.019870009273290634 0.06931581348180771 0.6284051537513733
v 0.005427602678537369 0.06657078862190247 0.6127063632011414
v -0.005071267485618591 0.06388125568628311 0.6156264543533325
v -0.003026030957698822 0.06483300030231476 0.6130642890930176
v 0.00017881009262055159 0.07799072563648224 0.62130206823349
v -0.0035463757812976837 0.07247673720121384 0.6193056702613831
v -0.0028903521597385406 0.07435029745101929 0.6174070239067078
v 0.002294827252626419 0.08086664229631424 0.6197670102119446
v -0.0015054532559588552 0.07582785189151764 0.6153944134712219
v -0.005272820591926575 0.06979230791330338 0.6154289245605469
v -0.005062606185674667 0.0689115971326828 0.6178532838821411
v 0.02326938882470131 0.07454966753721237 0.626283586025238
v 0.02172655612230301 0.08038096874952316 0.6228706240653992
v 0.01958141103386879 0.08004463464021683 0.622011661529541
v 0.013181162998080254 0.07465469837188721 0.6159485578536987
v 0.015260644257068634 0.08517143130302429 0.6211556196212769
v 0.010212158784270287 0.08774658292531967 0.6243690252304077
v 0.0051174648106098175 0.08157581090927124 0.617358922958374
v 0.009427862241864204 0.07964694499969482 0.6159392595291138
v 0.0015278829960152507 0.07586922496557236 0.6135953068733215
v 0.004268530756235123 0.07475392520427704 0.6130735278129578
v 0.007557757198810577 0.07094332575798035 0.6127164959907532
v -0.0004282371373847127 0.07129113376140594 0.6121150255203247
v -0.0034696869552135468 0.07100473344326019 0.6132700443267822
v 0.0005316733149811625 0.0670769214630127 0.6117618680000305
v 0.0022479593753814697 0.0717235803604126 0.6122654676437378
v 0.0034547634422779083 0.06886758655309677 0.612059473991394
v 0.03626800701022148 0.09004566073417664 0.5487511157989502
v 0.032723356038331985 0.08992239087820053 0.5539396405220032
v 0.03978583589196205 0.08931969106197357 0.5538772940635681
v 0.04930344596505165 0.08878193795681 0.5555532574653625
v 0.05952237546443939 0.09054222702980042 0.5523238778114319
v 0.04728988930583 0.08985897898674011 0.5618679523468018
v 0.037546198815107346 0.09048131108283997 0.5595272779464722
v 0.02726040780544281 0.0923156812787056 0.558621883392334
v 0.053590595722198486 0.09172393381595612 0.5698401927947998
f 2 3 1
f 1 3 4
f 5 6 8
f 8 6 7
f 9 4 10
f 10 4 3
f 12 13 11
f 11 13 9
f 14 12 16
f 16 12 15
f 18 19 17
f 17 19 20
f 22 23 21
f 21 23 24
f 26 27 25
f 25 27 28
f 30 31 29
f 29 31 32
f 33 34 36
f 36 34 35
f 37 38 40
f 40 38 39
f 41 42 6
f 6 42 43
f 6 43 7
f 7 43 44
f 45 34 46
f 46 34 33
f 48 49 47
f 47 49 50
f 52 53 51
f 51 53 54
f 56 52 55
f 55 52 51
f 58 59 57
f 57 59 60
f 61 62 4
f 4 62 1
f 64 65 63
f 63 65 66
f 68 69 67
f 67 69 70
f 72 73 71
f 71 73 74
f 76 77 75
f 75 77 78
f 53 79 54
f 54 79 80
f 82 83 81
f 81 83 84
f 85 86 52
f 52 86 53
f 57 60 87
f 87 60 88
f 89 90 43
f 43 90 44
f 43 42 89
f 89 42 91
f 40 39 92
f 92 39 93
f 94 70 64
f 64 70 69
f 13 61 9
f 9 61 4
f 25 28 69
f 69 28 95
f 96 25 68
f 68 25 69
f 98 99 97
f 97 99 100
f 101 102 104
f 104 102 103
f 106 30 105
f 105 30 29
f 51 54 107
f 107 54 108
f 54 80 108
f 108 80 109
f 111 112 110
f 110 112 113
f 115 5 114
f 114 5 116
f 115 41 5
f 5 41 6
f 36 35 111
f 111 35 117
f 35 118 117
f 117 118 119
f 34 120 35
f 35 120 118
f 34 45 120
f 120 45 121
f 125 126 124
f 124 126 127
f 128 129 14
f 14 129 130
f 33 131 46
f 46 131 132
f 133 94 63
f 63 94 64
f 134 135 137
f 137 135 136
f 139 140 138
f 138 140 141
f 77 142 78
f 78 142 143
f 144 145 20
f 20 145 146
f 148 149 147
f 147 149 72
f 151 152 150
f 150 152 153
f 82 101 83
f 83 101 104
f 101 82 155
f 155 82 154
f 156 157 58
f 58 157 59
f 158 68 147
f 147 68 67
f 159 146 15
f 15 146 16
f 68 158 96
f 96 158 160
f 129 66 130
f 130 66 65
f 162 163 161
f 161 163 164
f 166 167 165
f 165 167 168
f 170 171 169
f 169 171 172
f 174 171 173
f 173 171 170
f 176 177 175
f 175 177 178
f 180 181 179
f 179 181 24
f 182 183 21
f 21 183 184
f 81 185 82
f 82 185 154
f 186 187 188
f 188 187 144
f 158 71 160
f 160 71 189
f 190 135 157
f 157 135 59
f 169 172 139
f 139 172 140
f 147 72 158
f 158 72 71
f 192 193 191
f 191 193 194
f 167 166 49
f 49 166 195
f 196 190 50
f 50 190 157
f 197 198 200
f 200 198 199
f 21 24 182
f 182 24 181
f 146 159 20
f 20 159 17
f 182 181 81
f 81 181 185
f 201 185 180
f 180 185 181
f 202 203 83
f 83 203 84
f 205 206 204
f 204 206 85
f 207 22 184
f 184 22 21
f 179 24 208
f 208 24 23
f 208 209 179
f 179 209 205
f 209 210 205
f 205 210 206
f 212 206 211
f 211 206 210
f 179 205 180
f 180 205 204
f 213 176 88
f 88 176 214
f 86 85 212
f 212 85 206
f 193 217 218
f 217 219 218
f 218 219 220
f 219 18 220
f 220 18 17
f 19 221 20
f 20 221 144
f 222 223 225
f 225 223 224
f 175 226 176
f 176 226 214
f 227 87 214
f 214 87 88
f 220 17 228
f 228 17 159
f 134 213 60
f 60 213 88
f 138 229 151
f 151 229 152
f 193 192 210
f 210 192 211
f 230 194 218
f 218 194 193
f 231 232 228
f 228 232 230
f 233 234 91
f 91 234 89
f 235 236 93
f 93 236 92
f 230 232 234
f 234 232 237
f 47 238 48
f 48 238 239
f 240 191 235
f 235 191 236
f 5 8 116
f 116 8 241
f 242 243 189
f 189 243 160
f 244 245 98
f 98 245 99
f 156 246 47
f 47 246 238
f 76 247 77
f 77 247 248
f 250 125 249
f 249 125 124
f 252 253 251
f 251 253 254
f 111 110 36
f 36 110 255
f 256 33 255
f 255 33 36
f 257 258 154
f 154 258 155
f 63 169 133
f 133 169 139
f 66 170 63
f 63 170 169
f 173 170 129
f 129 170 66
f 129 128 173
f 173 128 259
f 128 260 259
f 259 260 261
f 213 134 262
f 262 134 137
f 263 264 186
f 186 264 187
f 112 265 113
f 113 265 266
f 11 267 268
f 234 233 230
f 230 233 194
f 153 269 70
f 70 269 67
f 175 178 165
f 165 178 141
f 150 153 94
f 94 153 70
f 271 221 270
f 270 221 207
f 269 153 272
f 272 153 152
f 121 45 109
f 109 45 108
f 47 50 156
f 156 50 157
f 57 273 58
f 58 273 274
f 145 275 260
f 260 275 261
f 276 149 143
f 143 149 78
f 148 269 75
f 75 269 272
f 207 277 270
f 270 277 278
f 195 196 49
f 49 196 50
f 59 135 60
f 60 135 134
f 83 104 202
f 202 104 279
f 149 148 78
f 78 148 75
f 247 278 248
f 248 278 277
f 183 182 84
f 84 182 81
f 48 239 281
f 281 239 282
f 227 223 283
f 283 223 222
f 223 226 224
f 224 226 168
f 281 282 224
f 224 282 225
f 165 168 175
f 175 168 226
f 264 263 138
f 138 263 229
f 14 16 128
f 128 16 260
f 220 228 218
f 218 228 230
f 87 227 284
f 284 227 283
f 260 16 145
f 145 16 146
f 244 98 258
f 258 98 155
f 58 274 156
f 156 274 246
f 107 285 51
f 51 285 55
f 243 286 160
f 160 286 96
f 234 237 89
f 89 237 90
f 46 132 107
f 107 132 285
f 253 252 249
f 249 252 250
f 286 26 96
f 96 26 25
f 106 105 287
f 287 105 288
f 272 152 289
f 289 152 229
f 138 151 139
f 139 151 133
f 183 290 161
f 161 290 162
f 291 292 277
f 277 292 293
f 151 150 133
f 133 150 94
f 262 275 177
f 177 275 187
f 144 187 145
f 145 187 275
f 273 57 284
f 284 57 87
f 174 136 190
f 190 136 135
f 111 117 112
f 112 117 38
f 117 119 38
f 38 119 123
f 112 38 265
f 265 38 37
f 287 288 254
f 254 288 251
f 228 159 231
f 231 159 15
f 223 227 226
f 226 227 214
f 147 67 148
f 148 67 269
f 224 168 281
f 281 168 167
f 199 163 200
f 200 163 162
f 45 46 108
f 108 46 107
f 281 167 48
f 48 167 49
f 161 164 291
f 291 164 292
f 38 123 39
f 293 294 277
f 277 294 248
f 284 283 296
f 296 283 295
f 284 296 273
f 273 296 297
f 274 273 298
f 298 273 297
f 246 274 299
f 299 274 298
f 283 222 295
f 295 222 300
f 222 225 300
f 300 225 301
f 301 225 302
f 302 225 282
f 303 304 300
f 300 304 295
f 306 307 305
f 305 307 308
f 309 310 308
f 308 310 305
f 308 307 312
f 312 307 311
f 313 314 312
f 312 314 315
f 311 316 312
f 312 316 313
f 317 304 311
f 311 304 316
f 315 309 312
f 312 309 308
f 318 319 321
f 321 319 320
f 319 318 309
f 309 318 310
f 311 307 317
f 317 307 306
f 306 297 317
f 317 297 296
f 306 322 297
f 297 322 298
f 305 323 306
f 306 323 322
f 323 305 324
f 324 305 310
f 304 317 295
f 295 317 296
f 318 325 310
f 310 325 324
f 323 324 326
f 326 324 327
f 324 325 327
f 327 325 328
f 326 327 329
f 329 327 330
f 329 331 326
f 326 331 332
f 333 330 328
f 328 330 327
f 323 326 322
f 322 326 332
f 322 332 298
f 298 332 299
f 325 318 334
f 334 318 321
f 313 316 335
f 335 316 304
f 335 336 313
f 313 336 314
f 304 303 335
f 335 303 337
f 336 335 338
f 338 335 337
f 336 339 314
f 314 339 340
f 246 299 238
f 238 299 341
f 239 342 282
f 282 342 302
f 342 239 341
f 341 239 238
f 341 331 342
f 342 331 343
f 331 329 343
f 343 329 344
f 342 343 302
f 302 343 345
f 341 299 331
f 331 299 332
f 346 301 345
f 345 301 302
f 346 303 301
f 301 303 300
f 347 337 346
f 346 337 303
f 347 346 348
f 348 346 345
f 349 347 350
f 350 347 348
f 343 344 345
f 345 344 348
f 344 351 348
f 348 351 350
f 337 347 338
f 338 347 349
f 353 338 352
f 352 338 349
f 352 355 354
f 354 355 356
f 352 349 355
f 355 349 350
f 352 354 353
f 353 354 334
f 353 334 339
f 339 334 321
f 339 336 353
f 353 336 338
f 329 330 344
f 344 330 351
f 356 351 333
f 333 351 330
f 356 355 351
f 351 355 350
f 354 356 328
f 328 356 333
f 328 325 354
f 354 325 334
f 309 315 319
f 319 315 320
f 320 340 321
f 321 340 339
f 320 315 340
f 340 315 314
f 137 136 261
f 261 136 259
f 140 166 141
f 141 166 165
f 172 171 195
f 195 171 196
f 171 174 196
f 196 174 190
f 178 177 264
f 264 177 187
f 172 195 140
f 140 195 166
f 137 261 262
f 262 261 275
f 178 264 141
f 141 264 138
f 262 177 213
f 213 177 176
f 136 174 259
f 259 174 173
f 358 359 357
f 357 359 360
f 362 363 361
f 361 363 364
f 361 364 365
f 365 364 366
f 367 368 370
f 370 368 369
f 76 371 247
f 247 371 372
f 373 374 362
f 362 374 363
f 376 377 375
f 375 377 378
f 289 229 380
f 380 229 379
f 381 379 263
f 263 379 229
f 383 384 382
f 382 384 385
f 386 368 374
f 374 368 363
f 76 289 371
f 371 289 380
f 377 376 359
f 359 376 387
f 388 386 360
f 360 386 374
f 389 383 366
f 366 383 390
f 392 393 391
f 391 393 394
f 383 382 390
f 390 382 395
f 396 365 390
f 390 365 366
f 389 366 367
f 367 366 364
f 357 397 358
f 358 397 398
f 373 399 357
f 357 399 397
f 389 367 400
f 400 367 370
f 382 385 375
f 375 385 372
f 357 360 373
f 373 360 374
f 361 401 362
f 362 401 402
f 387 388 359
f 359 388 360
f 363 368 364
f 364 368 367
f 358 398 403
f 403 398 404
f 396 392 405
f 405 392 391
f 392 395 393
f 393 395 378
f 393 403 394
f 394 403 404
f 375 378 382
f 382 378 395
f 365 396 406
f 406 396 405
f 362 402 373
f 373 402 399
f 271 270 400
f 400 270 384
f 401 361 406
f 406 361 365
f 381 369 386
f 386 369 368
f 392 396 395
f 395 396 390
f 393 378 403
f 403 378 377
f 403 377 358
f 358 377 359
f 406 405 408
f 408 405 407
f 406 408 401
f 401 408 409
f 401 409 402
f 402 409 410
f 402 410 399
f 399 410 411
f 405 391 407
f 407 391 412
f 391 394 412
f 412 394 413
f 394 404 413
f 413 404 414
f 415 416 412
f 412 416 407
f 418 419 417
f 417 419 420
f 421 422 418
f 418 422 419
f 419 422 424
f 424 422 423
f 425 426 424
f 424 426 427
f 423 428 424
f 424 428 425
f 427 420 424
f 424 420 419
f 420 429 417
f 417 429 430
f 423 422 431
f 431 422 421
f 421 409 431
f 431 409 408
f 421 432 409
f 409 432 410
f 418 433 421
f 421 433 432
f 434 433 417
f 417 433 418
f 431 416 423
f 423 416 428
f 416 431 407
f 407 431 408
f 435 434 430
f 430 434 417
f 433 434 436
f 436 434 437
f 434 435 437
f 437 435 438
f 436 437 439
f 439 437 440
f 439 441 436
f 436 441 442
f 438 443 437
f 437 443 440
f 436 442 433
f 433 442 432
f 432 442 410
f 410 442 411
f 435 430 445
f 445 430 444
f 430 429 444
f 444 429 446
f 425 428 447
f 447 428 416
f 426 425 448
f 448 425 447
f 416 415 447
f 447 415 449
f 447 449 448
f 448 449 450
f 451 452 448
f 448 452 426
f 446 452 444
f 444 452 451
f 399 411 397
f 397 411 453
f 398 454 404
f 404 454 414
f 454 398 453
f 453 398 397
f 453 441 454
f 454 441 455
f 441 439 455
f 455 439 456
f 454 455 414
f 414 455 457
f 441 453 442
f 442 453 411
f 458 413 457
f 457 413 414
f 458 415 413
f 413 415 412
f 458 459 415
f 415 459 449
f 459 458 460
f 460 458 457
f 461 459 462
f 462 459 460
f 455 456 457
f 457 456 460
f 456 463 460
f 460 463 462
f 459 461 449
f 449 461 450
f 465 450 464
f 464 450 461
f 464 467 466
f 466 467 468
f 464 461 467
f 467 461 462
f 464 466 465
f 465 466 445
f 465 445 451
f 451 445 444
f 451 448 465
f 465 448 450
f 439 440 456
f 456 440 463
f 468 463 443
f 443 463 440
f 468 467 463
f 463 467 462
f 466 468 438
f 438 468 443
f 438 435 466
f 466 435 445
f 420 427 429
f 429 427 446
f 446 427 452
f 452 427 426
f 370 369 188
f 188 369 186
f 371 376 372
f 372 376 375
f 380 379 387
f 387 379 388
f 379 381 388
f 388 381 386
f 385 384 278
f 278 384 270
f 380 387 371
f 371 387 376
f 400 370 271
f 271 370 188
f 385 278 372
f 372 278 247
f 400 384 389
f 389 384 383
f 369 381 186
f 186 381 263
f 221 271 144
f 144 271 188
f 221 19 207
f 207 19 22
f 19 18 22
f 22 18 23
f 18 219 23
f 23 219 208
f 469 470 472
f 472 470 471
f 474 475 473
f 473 475 476
f 473 476 477
f 477 476 478
f 480 481 479
f 479 481 482
f 483 484 474
f 474 484 475
f 486 487 485
f 485 487 488
f 489 490 77
f 77 490 142
f 491 489 248
f 248 489 77
f 493 494 492
f 492 494 495
f 496 480 484
f 484 480 475
f 486 497 487
f 487 497 471
f 498 496 472
f 472 496 484
f 499 493 478
f 478 493 500
f 501 502 504
f 504 502 503
f 493 492 500
f 500 492 505
f 506 477 500
f 500 477 478
f 499 478 479
f 479 478 476
f 469 507 470
f 470 507 508
f 483 509 469
f 469 509 507
f 479 482 499
f 499 482 510
f 492 495 485
f 485 495 511
f 483 469 484
f 484 469 472
f 473 512 474
f 474 512 513
f 497 498 471
f 471 498 472
f 475 480 476
f 476 480 479
f 470 508 514
f 514 508 515
f 506 502 516
f 516 502 501
f 503 502 488
f 488 502 505
f 514 515 503
f 503 515 504
f 485 488 492
f 492 488 505
f 477 506 517
f 517 506 516
f 474 513 483
f 483 513 509
f 510 292 494
f 494 292 164
f 512 473 517
f 517 473 477
f 491 481 496
f 496 481 480
f 502 506 505
f 505 506 500
f 503 488 514
f 514 488 487
f 514 487 470
f 470 487 471
f 517 516 519
f 519 516 518
f 517 519 512
f 512 519 520
f 512 520 513
f 513 520 521
f 513 521 509
f 509 521 522
f 516 501 518
f 518 501 523
f 501 504 523
f 523 504 524
f 524 504 525
f 525 504 515
f 526 527 523
f 523 527 518
f 529 530 528
f 528 530 531
f 532 533 529
f 529 533 530
f 530 533 535
f 535 533 534
f 536 537 535
f 535 537 538
f 534 539 535
f 535 539 536
f 538 531 535
f 535 531 530
f 540 541 531
f 531 541 528
f 533 532 534
f 534 532 542
f 532 520 542
f 542 520 519
f 532 543 520
f 520 543 521
f 529 544 532
f 532 544 543
f 544 529 545
f 545 529 528
f 534 542 539
f 539 542 527
f 527 542 518
f 518 542 519
f 541 546 528
f 528 546 545
f 547 544 548
f 548 544 545
f 546 549 545
f 545 549 548
f 550 547 551
f 551 547 548
f 547 550 553
f 553 550 552
f 549 554 548
f 548 554 551
f 544 547 543
f 543 547 553
f 543 553 521
f 521 553 522
f 546 541 556
f 556 541 555
f 541 540 555
f 555 540 557
f 536 539 558
f 558 539 527
f 537 536 559
f 559 536 558
f 527 526 558
f 558 526 560
f 559 558 561
f 561 558 560
f 559 562 537
f 537 562 563
f 557 563 555
f 555 563 562
f 509 522 507
f 507 522 564
f 508 565 515
f 515 565 525
f 565 508 564
f 564 508 507
f 564 552 565
f 565 552 566
f 552 550 566
f 566 550 567
f 565 566 525
f 525 566 568
f 564 522 552
f 552 522 553
f 569 524 568
f 568 524 525
f 569 526 524
f 524 526 523
f 570 560 569
f 569 560 526
f 570 569 571
f 571 569 568
f 572 570 573
f 573 570 571
f 566 567 568
f 568 567 571
f 567 574 571
f 571 574 573
f 570 572 560
f 560 572 561
f 576 561 575
f 575 561 572
f 575 578 577
f 577 578 579
f 575 572 578
f 578 572 573
f 575 577 576
f 576 577 556
f 576 556 562
f 562 556 555
f 562 559 576
f 576 559 561
f 550 551 567
f 567 551 574
f 579 574 554
f 554 574 551
f 579 578 574
f 574 578 573
f 579 554 577
f 577 554 549
f 549 546 577
f 577 546 556
f 531 538 540
f 540 538 557
f 557 538 563
f 563 538 537
f 481 294 482
f 482 294 293
f 580 486 511
f 511 486 485
f 490 489 497
f 497 489 498
f 489 491 498
f 498 491 496
f 163 495 164
f 164 495 494
f 580 490 486
f 486 490 497
f 482 293 510
f 510 293 292
f 495 163 511
f 511 163 199
f 494 493 510
f 510 493 499
f 481 491 294
f 294 491 248
f 582 583 581
f 581 583 584
f 586 587 585
f 585 587 588
f 585 588 589
f 589 588 590
f 592 593 591
f 591 593 594
f 595 596 598
f 598 596 597
f 599 600 586
f 586 600 587
f 601 602 604
f 604 602 603
f 605 606 608
f 608 606 607
f 609 607 200
f 200 607 606
f 610 611 613
f 613 611 612
f 600 614 587
f 587 614 592
f 596 605 597
f 597 605 608
f 602 615 603
f 603 615 583
f 616 614 584
f 584 614 600
f 611 618 617
f 617 618 590
f 620 621 619
f 619 621 622
f 610 623 611
f 611 623 618
f 624 589 618
f 618 589 590
f 617 590 591
f 591 590 588
f 581 625 582
f 582 625 626
f 599 627 581
f 581 627 625
f 591 594 617
f 617 594 628
f 601 610 598
f 598 610 613
f 581 584 599
f 599 584 600
f 585 629 586
f 586 629 630
f 615 616 583
f 583 616 584
f 587 592 588
f 588 592 591
f 582 626 631
f 631 626 632
f 624 620 633
f 633 620 619
f 621 620 604
f 604 620 623
f 631 632 621
f 621 632 622
f 610 601 623
f 623 601 604
f 589 624 634
f 634 624 633
f 586 630 599
f 599 630 627
f 203 202 628
f 628 202 612
f 629 585 634
f 634 585 589
f 609 593 614
f 614 593 592
f 620 624 623
f 623 624 618
f 631 621 603
f 603 621 604
f 582 631 583
f 583 631 603
f 634 633 636
f 636 633 635
f 634 636 629
f 629 636 637
f 629 637 630
f 630 637 638
f 630 638 627
f 627 638 639
f 633 619 635
f 635 619 640
f 619 622 640
f 640 622 641
f 641 622 642
f 642 622 632
f 644 635 643
f 643 635 640
f 645 646 648
f 648 646 647
f 649 650 646
f 646 650 647
f 647 650 652
f 652 650 651
f 652 653 655
f 655 653 654
f 651 656 652
f 652 656 653
f 655 648 652
f 652 648 647
f 648 657 645
f 645 657 658
f 650 649 651
f 651 649 659
f 649 637 659
f 659 637 636
f 649 660 637
f 637 660 638
f 661 660 646
f 646 660 649
f 662 661 645
f 645 661 646
f 651 659 656
f 656 659 644
f 644 659 635
f 635 659 636
f 663 662 658
f 658 662 645
f 664 661 665
f 665 661 662
f 663 666 662
f 662 666 665
f 667 664 668
f 668 664 665
f 664 667 670
f 670 667 669
f 666 671 665
f 665 671 668
f 661 664 660
f 660 664 670
f 660 670 638
f 638 670 639
f 658 672 663
f 663 672 673
f 658 657 672
f 672 657 674
f 653 656 675
f 675 656 644
f 653 675 654
f 654 675 676
f 675 644 677
f 677 644 643
f 676 675 678
f 678 675 677
f 679 680 676
f 676 680 654
f 674 680 672
f 672 680 679
f 627 639 625
f 625 639 681
f 626 682 632
f 632 682 642
f 681 682 625
f 625 682 626
f 669 683 681
f 681 683 682
f 667 684 669
f 669 684 683
f 682 683 642
f 642 683 685
f 681 639 669
f 669 639 670
f 686 641 685
f 685 641 642
f 641 686 640
f 640 686 643
f 686 687 643
f 643 687 677
f 687 686 688
f 688 686 685
f 689 687 690
f 690 687 688
f 683 684 685
f 685 684 688
f 684 691 688
f 688 691 690
f 687 689 677
f 677 689 678
f 693 678 692
f 692 678 689
f 692 695 694
f 694 695 696
f 692 689 695
f 695 689 690
f 692 694 693
f 693 694 673
f 693 673 679
f 679 673 672
f 679 676 693
f 693 676 678
f 684 667 691
f 691 667 668
f 696 691 671
f 671 691 668
f 696 695 691
f 691 695 690
f 694 696 666
f 666 696 671
f 666 663 694
f 694 663 673
f 648 655 657
f 657 655 674
f 674 655 680
f 680 655 654
f 593 162 594
f 594 162 290
f 598 597 601
f 601 597 602
f 615 608 616
f 616 608 607
f 607 609 616
f 616 609 614
f 697 595 613
f 613 595 598
f 597 608 602
f 602 608 615
f 594 290 628
f 628 290 203
f 628 612 617
f 617 612 611
f 593 609 162
f 162 609 200
f 105 29 698
f 698 29 699
f 268 126 701
f 701 126 700
f 126 125 700
f 700 125 702
f 252 703 250
f 250 703 704
f 32 268 705
f 705 268 701
f 288 105 706
f 706 105 698
f 29 32 699
f 699 32 705
f 707 251 706
f 706 251 288
f 250 704 125
f 125 704 702
f 703 252 707
f 707 252 251
f 706 708 707
f 707 708 709
f 707 709 703
f 703 709 710
f 703 710 704
f 704 710 711
f 704 711 702
f 702 711 712
f 706 698 708
f 708 698 713
f 698 699 713
f 713 699 714
f 699 705 714
f 714 705 715
f 717 708 716
f 716 708 713
f 719 720 718
f 718 720 721
f 722 723 719
f 719 723 720
f 724 725 723
f 723 725 720
f 724 726 725
f 725 726 727
f 728 721 725
f 725 721 720
f 721 728 729
f 729 728 730
f 729 731 721
f 721 731 718
f 724 723 732
f 732 723 722
f 722 710 732
f 732 710 709
f 722 733 710
f 710 733 711
f 719 734 722
f 722 734 733
f 734 719 735
f 735 719 718
f 724 732 726
f 726 732 717
f 717 732 708
f 708 732 709
f 731 736 718
f 718 736 735
f 737 734 738
f 738 734 735
f 736 739 735
f 735 739 738
f 740 737 741
f 741 737 738
f 737 740 743
f 743 740 742
f 739 744 738
f 738 744 741
f 734 737 733
f 733 737 743
f 733 743 711
f 711 743 712
f 736 731 746
f 746 731 745
f 731 729 745
f 745 729 730
f 727 726 747
f 747 726 717
f 748 727 749
f 749 727 747
f 747 717 750
f 750 717 716
f 749 747 751
f 751 747 750
f 749 752 748
f 748 752 753
f 730 753 745
f 745 753 752
f 728 725 748
f 748 725 727
f 730 728 753
f 753 728 748
f 700 702 754
f 754 702 712
f 705 701 715
f 715 701 755
f 754 755 700
f 700 755 701
f 742 756 754
f 754 756 755
f 740 757 742
f 742 757 756
f 755 756 715
f 715 756 758
f 754 712 742
f 742 712 743
f 759 714 758
f 758 714 715
f 714 759 713
f 713 759 716
f 759 760 716
f 716 760 750
f 760 759 761
f 761 759 758
f 762 760 763
f 763 760 761
f 756 757 758
f 758 757 761
f 757 764 761
f 761 764 763
f 760 762 750
f 750 762 751
f 766 751 765
f 765 751 762
f 767 765 769
f 769 765 768
f 765 762 768
f 768 762 763
f 765 767 766
f 766 767 746
f 766 746 752
f 752 746 745
f 752 749 766
f 766 749 751
f 757 740 764
f 764 740 741
f 769 764 744
f 744 764 741
f 769 768 764
f 764 768 763
f 767 769 739
f 739 769 744
f 739 736 767
f 767 736 746
f 219 217 208
f 208 217 209
f 209 217 210
f 210 217 193
f 198 580 199
f 199 580 511
f 76 75 289
f 289 75 272
f 277 207 291
f 291 207 184
f 290 183 203
f 203 183 84
f 490 580 142
f 142 580 198
f 142 198 143
f 143 198 197
f 149 276 72
f 72 276 73
f 104 103 279
f 279 103 770
f 770 596 279
f 279 596 595
f 605 596 771
f 771 596 770
f 771 770 772
f 772 770 103
f 772 103 773
f 773 103 102
f 155 774 101
f 101 774 102
f 773 102 97
f 97 102 774
f 775 773 100
f 100 773 97
f 773 775 772
f 772 775 776
f 772 776 771
f 771 776 777
f 200 606 197
f 197 606 777
f 189 71 778
f 778 71 74
f 97 774 98
f 98 774 155
f 183 161 184
f 184 161 291
f 777 276 197
f 197 276 143
f 777 606 771
f 771 606 605
f 613 612 697
f 697 612 202
f 595 697 279
f 279 697 202
f 73 276 776
f 776 276 777
f 776 775 73
f 73 775 74
f 100 778 775
f 775 778 74
f 778 100 189
f 189 100 99
f 245 242 99
f 99 242 189
f 131 33 256
f 28 1 95
f 95 1 62
f 27 2 28
f 28 2 1
f 265 115 266
f 266 115 114
f 95 62 69
f 69 62 64
f 62 61 64
f 64 61 65
f 61 13 65
f 65 13 130
f 13 12 130
f 130 12 14
f 31 11 32
f 32 11 268
f 15 12 31
f 31 12 11
f 31 30 15
f 15 30 231
f 30 106 231
f 231 106 232
f 287 237 106
f 106 237 232
f 254 90 287
f 287 90 237
f 253 44 254
f 254 44 90
f 253 249 44
f 44 249 7
f 267 127 268
f 268 127 126
f 10 3 241
f 241 3 116
f 3 2 116
f 116 2 114
f 2 27 114
f 114 27 266
f 27 26 266
f 266 26 113
f 26 286 113
f 113 286 110
f 286 243 110
f 110 243 255
f 243 242 255
f 255 242 256
f 242 245 256
f 256 245 131
f 245 244 131
f 131 244 132
f 265 37 115
f 115 37 41
f 41 37 42
f 42 37 40
f 92 91 40
f 40 91 42
f 236 233 92
f 92 233 91
f 191 194 236
f 236 194 233
f 258 285 244
f 244 285 132
f 257 55 258
f 258 55 285
f 257 154 201
f 201 154 185
f 56 201 204
f 204 201 180
f 55 257 56
f 56 257 201
f 204 85 56
f 56 85 52
f 86 122 53
f 53 122 79
f 212 215 86
f 86 215 122
f 211 216 212
f 212 216 215
f 192 280 211
f 211 280 216
f 191 240 192
f 192 240 280
f 249 124 7
f 7 124 8
f 124 127 8
f 8 127 241
f 127 267 241
f 241 267 10
f 10 267 9
f 9 267 11
