v 0.04334598779678345 0.07981077581644058 0.5920042991638184
v 0.054622501134872437 0.07510717213153839 0.5929833054542542
v 0.04678282141685486 0.07330575585365295 0.6012747287750244
v 0.03752489760518074 0.07688292860984802 0.5992740988731384
v 0.0654856264591217 0.07273320108652115 0.6134464144706726
v 0.07180757820606232 0.07921260595321655 0.619827926158905
v 0.0544954352080822 0.0815291553735733 0.6241375803947449
v 0.05093352869153023 0.07525179535150528 0.6186490654945374
v 0.03205049782991409 0.0785733088850975 0.6045773029327393
v 0.0394945852458477 0.0741787999868393 0.6066526770591736
v 0.03147207573056221 0.08643387258052826 0.6052560210227966
v 0.024289008229970932 0.09241802990436554 0.6072795391082764
v 0.024670321494340897 0.0849505364894867 0.6057505011558533
v 0.017035597935318947 0.09546255320310593 0.6074555516242981
v 0.031138502061367035 0.10179883241653442 0.6066900491714478
v 0.01941683329641819 0.10330788791179657 0.6031356453895569
v 0.038611236959695816 0.11433567106723785 0.5877447128295898
v 0.0420394241809845 0.11538763344287872 0.5757075548171997
v 0.026427825912833214 0.1135416105389595 0.5743838548660278
v 0.024462178349494934 0.1118413507938385 0.5870106816291809
v 0.036706406623125076 0.11023342609405518 0.5571971535682678
v 0.030048459768295288 0.11223461478948593 0.5664796829223633
v 0.04584740474820137 0.115139901638031 0.5678269267082214
v 0.05102745071053505 0.1130150556564331 0.5593855977058411
v 0.05153634771704674 0.08471262454986572 0.5792804956436157
v 0.06268201023340225 0.08212584257125854 0.5783969163894653
v 0.06043753772974014 0.07949589192867279 0.5833412408828735
v 0.049563419073820114 0.0832124799489975 0.5839710831642151
v 0.03477040305733681 0.09784658998250961 0.6085748076438904
v 0.04097050428390503 0.09955142438411713 0.6113384366035461
v 0.03494454175233841 0.09513535350561142 0.607586681842804
v 0.03225095942616463 0.09263353049755096 0.6070078611373901
v 0.08846358209848404 0.07684715837240219 0.5701727271080017
v 0.1003081351518631 0.08263833075761795 0.5724607706069946
v 0.0996326431632042 0.08299114555120468 0.5783786773681641
v 0.08897635340690613 0.07777690142393112 0.5750443935394287
v 0.09245268255472183 0.08085789531469345 0.6042505502700806
v 0.09916428476572037 0.08560674637556076 0.5974596738815308
v 0.10333620756864548 0.09525058418512344 0.606338620185852
v 0.095040462911129 0.09412388503551483 0.6107412576675415
v 0.08323778957128525 0.07900853455066681 0.6131437420845032
v 0.08657354861497879 0.09022361040115356 0.6170029640197754
v 0.07361679524183273 0.0901225209236145 0.6218841671943665
v 0.056360386312007904 0.09067809581756592 0.6244171857833862
v 0.10181082040071487 0.08458071947097778 0.5598840713500977
v 0.09349210560321808 0.08013695478439331 0.5564063787460327
v -0.025086773559451103 0.12322856485843658 0.5924030542373657
v -0.02412915974855423 0.12213832139968872 0.5867312550544739
v -0.023107310757040977 0.11514541506767273 0.5904337167739868
v -0.023497704416513443 0.11771059036254883 0.5952320098876953
v 0.09519702941179276 0.09881985932588577 0.5474214553833008
v 0.09376735240221024 0.10875572264194489 0.5482888221740723
v 0.10092254728078842 0.10765491425991058 0.5480645298957825
v 0.10246051102876663 0.09845693409442902 0.5491286516189575
v 0.0855432078242302 0.09912574291229248 0.545304536819458
v 0.08375416696071625 0.10960259288549423 0.5491368770599365
v -0.014974365010857582 0.1285058557987213 0.5964831709861755
v -0.01980271004140377 0.1273716241121292 0.5975090861320496
v -0.016837989911437035 0.1227918416261673 0.5994516015052795
v -0.011569807305932045 0.12325722724199295 0.597270131111145
v 0.028108760714530945 0.08108633011579514 0.6008637547492981
v 0.03323353826999664 0.08131934702396393 0.5930367112159729
v 0.005068800877779722 0.08565682917833328 0.6005425453186035
v 0.01861032098531723 0.08336673676967621 0.5959162712097168
v 0.01804373227059841 0.08405108749866486 0.6032496690750122
v 0.0078123160637915134 0.08759481459856033 0.6060858964920044
v 0.02910248190164566 0.08578595519065857 0.5742883086204529
v 0.04083286598324776 0.08609951287508011 0.5755466818809509
v 0.03783395513892174 0.08576318621635437 0.5812656283378601
v 0.024648962542414665 0.0848509818315506 0.5816689133644104
v 0.045178938657045364 0.0833437368273735 0.5624066591262817
v 0.03327471390366554 0.08365965634584427 0.5622344613075256
v 0.037055302411317825 0.08195459842681885 0.5548257827758789
v 0.0449364073574543 0.08117103576660156 0.5562655925750732
v 0.010187773033976555 0.08523125946521759 0.5652729272842407
v 0.0016583781689405441 0.08857851475477219 0.5649744272232056
v 0.0017518582753837109 0.09174883365631104 0.5594484210014343
v 0.011618191376328468 0.08628670871257782 0.5613499879837036
v 0.10795524716377258 0.10764417797327042 0.5483089089393616
v 0.10920464992523193 0.09849927574396133 0.5516562461853027
v 0.04575413092970848 0.10327029228210449 0.539381742477417
v 0.051940035074949265 0.09577034413814545 0.5345082879066467
v 0.03969891741871834 0.09351950883865356 0.5303956866264343
v 0.036909304559230804 0.10192222893238068 0.5368607044219971
v 0.09063361585140228 0.11637655645608902 0.5545610189437866
v 0.09811250120401382 0.11633066833019257 0.5522630214691162
v -0.01050950400531292 0.12859418988227844 0.5921251773834229
v -0.008250607177615166 0.12341609597206116 0.5921906232833862
v 0.0743178203701973 0.10004136711359024 0.6173028349876404
v 0.05719848722219467 0.09834770113229752 0.6203327178955078
v 0.08666539192199707 0.10185267776250839 0.6130669713020325
v 0.09470021724700928 0.10451994091272354 0.6088337898254395
v 0.10253208875656128 0.10653060674667358 0.6077354550361633
v 0.014427835121750832 0.08306862413883209 0.5901694297790527
v 0.039616379886865616 0.0836450532078743 0.5865478515625
v 0.05318870767951012 0.08481108397245407 0.5747233033180237
v 0.05808084085583687 0.07711927592754364 0.5455656051635742
v 0.06853577494621277 0.07680602371692657 0.5472543835639954
v 0.06282660365104675 0.07663054019212723 0.5561962723731995
v 0.05483356490731239 0.0775923877954483 0.5528047680854797
v 0.05261322855949402 0.08605651557445526 0.5335578918457031
v 0.04985276982188225 0.08007126301527023 0.5379402041435242
v 0.040621332824230194 0.08013921231031418 0.5360826253890991
v 0.04185040295124054 0.08526814728975296 0.5311081409454346
v 0.036959487944841385 0.10242713987827301 0.613632082939148
v 0.046665631234645844 0.10276910662651062 0.6145968437194824
v 0.09593318402767181 0.08873851597309113 0.5502002239227295
v 0.10256343334913254 0.08960674703121185 0.5540093779563904
v 0.11017681658267975 0.09227565675973892 0.5562153458595276
v 0.07590150088071823 0.07808496057987213 0.5759799480438232
v 0.08945360779762268 0.07805915921926498 0.5787643194198608
v 0.0886281356215477 0.0768386572599411 0.5843837857246399
v 0.07538973540067673 0.077384352684021 0.5793793201446533
v 0.06636480242013931 0.0703887939453125 0.5977616310119629
v 0.07886633276939392 0.0721948966383934 0.6023774743080139
v 0.05513541027903557 0.07022097706794739 0.6068817377090454
v 0.1005655825138092 0.08367849141359329 0.5868911743164062
v 0.10934755951166153 0.08509670943021774 0.5802292823791504
v 0.10894174873828888 0.08674987405538559 0.5890717506408691
v 0.11030373722314835 0.08592395484447479 0.570509672164917
v 0.11064505577087402 0.08815310895442963 0.5618818998336792
v 0.10593370348215103 0.11915367841720581 0.5506653785705566
v 0.10745656490325928 0.09008002281188965 0.5968434810638428
v 0.041474539786577225 0.07820610702037811 0.6191875338554382
v 0.03294414281845093 0.08221045136451721 0.6187411546707153
v 0.03129856288433075 0.08194617927074432 0.6115683913230896
v 0.038187749683856964 0.07758121192455292 0.6119162440299988
v 0.009141594171524048 0.10046685487031937 0.6066807508468628
v 0.007348057348281145 0.09341413527727127 0.6084773540496826
v 0.018201597034931183 0.08843964338302612 0.6083388328552246
v 0.0789237692952156 0.07584470510482788 0.5637785196304321
v 0.0836896300315857 0.07832358777523041 0.5524402260780334
v 0.0014426331035792828 0.08691929280757904 0.5946067571640015
v -0.006597593426704407 0.12252993881702423 0.5964154005050659
v -0.010917600244283676 0.12068796157836914 0.6002398729324341
v 0.0011212769895792007 0.11179099231958389 0.6027154922485352
v 0.003985696937888861 0.11495447158813477 0.5979605317115784
v -0.0048057157546281815 0.09652402251958847 0.5882052183151245
v -0.003765679197385907 0.09299907833337784 0.5939521789550781
v -0.005921336822211742 0.09752564877271652 0.5926339030265808
v -0.0066806962713599205 0.10055551677942276 0.5871224403381348
v 0.00716652674600482 0.08890033513307571 0.5533714294433594
v 0.01584538444876671 0.08469438552856445 0.5546315312385559
v 0.009701346978545189 0.10680952668190002 0.5855433344841003
v 0.013905346393585205 0.10775779187679291 0.5964776873588562
v 0.023019583895802498 0.10947873443365097 0.5957380533218384
v 0.03226511925458908 0.08502302318811417 0.5675776600837708
v 0.02142409235239029 0.08450347930192947 0.5656937956809998
v 0.022616369649767876 0.08431488275527954 0.5617470145225525
v 0.010891906917095184 0.08410529047250748 0.5866323113441467
v 0.0006811679340898991 0.08743599057197571 0.5883693695068359
v 0.00542624993249774 0.08649113029241562 0.5831066966056824
v 0.014917463064193726 0.085021011531353 0.5814834237098694
v 0.0643293708562851 0.09810500591993332 0.5378088355064392
v 0.0652611032128334 0.08665526658296585 0.5362684726715088
v -0.023471659049391747 0.1252671331167221 0.5962254405021667
v -0.02092469297349453 0.12018350511789322 0.5986993908882141
v 0.04368213191628456 0.08534828573465347 0.5689485669136047
v 0.0361303985118866 0.11044952273368835 0.5957270860671997
v 0.055010437965393066 0.08410616219043732 0.5696716904640198
v 0.022462254390120506 0.1006079837679863 0.5470978617668152
v 0.0212770514190197 0.09479045867919922 0.543897271156311
v 0.01585834100842476 0.09481464326381683 0.5452004075050354
v 0.01742791011929512 0.1002790778875351 0.5457196831703186
v -0.014392923563718796 0.11184893548488617 0.5823788642883301
v -0.018139032647013664 0.11088313162326813 0.586795449256897
v -0.021114610135555267 0.1142161637544632 0.5845903754234314
v -0.016807863488793373 0.11499619483947754 0.5812036395072937
v -0.002411914523690939 0.09336104243993759 0.5997048020362854
v 0.0002976474352180958 0.09484288841485977 0.60532546043396
v -0.004828203935176134 0.10138557106256485 0.602647602558136
v -0.006090171169489622 0.09908642619848251 0.5975395441055298
v 0.0021109716035425663 0.10111809521913528 0.6065725088119507
v -0.0019499363843351603 0.10668960958719254 0.6044259667396545
v -0.008686661720275879 0.11518383771181107 0.5817814469337463
v -0.00355465617030859 0.11962949484586716 0.5856420397758484
v 0.0030461279675364494 0.11200997978448868 0.5857130289077759
v -0.003343066433444619 0.10719159245491028 0.584558367729187
v 0.06520801037549973 0.11626182496547699 0.5618423223495483
v 0.06893990188837051 0.11240994930267334 0.5522300601005554
v 0.054858382791280746 0.1091596931219101 0.549461841583252
v 0.04148836433887482 0.10656310617923737 0.5463300943374634
v 0.029242992401123047 0.10263784229755402 0.5447131395339966
v 0.025544770061969757 0.10823247581720352 0.5548721551895142
v 0.05880565196275711 0.10604007542133331 0.5432427525520325
v -0.0017574445810168982 0.10211201012134552 0.5830578207969666
v 0.005534178111702204 0.1055365577340126 0.5882771015167236
v 0.003168789204210043 0.10556621849536896 0.584084153175354
v 0.0565921850502491 0.08140437304973602 0.5629687309265137
v -0.01431664451956749 0.11792979389429092 0.6008039712905884
v 0.09136346727609634 0.12008445709943771 0.5961849689483643
v 0.09131239354610443 0.12395863234996796 0.584087610244751
v 0.0829140767455101 0.12192714959383011 0.5856072306632996
v 0.08289719372987747 0.11706608533859253 0.5981653928756714
v -0.019302716478705406 0.11137554049491882 0.5936006903648376
v -0.01815461553633213 0.11414182186126709 0.5986080169677734
v 0.017440762370824814 0.08380261063575745 0.5484916567802429
v 0.010560756549239159 0.08781670778989792 0.5488221645355225
v 0.011404948309063911 0.08926448225975037 0.5459761023521423
v 0.017113668844103813 0.08423912525177002 0.544040858745575
v 0.07215912640094757 0.10987123847007751 0.5480623841285706
v 0.03131287917494774 0.09072595834732056 0.5288071632385254
v 0.03024280071258545 0.09893707185983658 0.5336177945137024
v 0.08125470578670502 0.11531169712543488 0.5550490617752075
v 0.07808497548103333 0.11926323175430298 0.563305675983429
v 0.08754629641771317 0.12126671522855759 0.5637772083282471
v 0.014229703694581985 0.10845305025577545 0.565426230430603
v 0.06056220084428787 0.11778990924358368 0.5689271092414856
v 0.07464684545993805 0.12020933628082275 0.5700263381004333
v 0.08582662045955658 0.12261278927326202 0.5709042549133301
v 0.09385174512863159 0.12483936548233032 0.5707955360412598
v 0.09496820718050003 0.12291596829891205 0.5630044341087341
v -0.004160493146628141 0.12150467932224274 0.5907542705535889
v -0.007127212360501289 0.12165399640798569 0.5865780711174011
v 0.10326796025037766 0.1262679100036621 0.561559796333313
v 0.10178332030773163 0.12766459584236145 0.5705578923225403
v 0.07151706516742706 0.1204230934381485 0.5786491632461548
v 0.06831683963537216 0.11920557916164398 0.5881919860839844
v 0.058026272803545 0.11791270971298218 0.5771312713623047
v 0.05359334871172905 0.11668006330728531 0.5868756771087646
v 0.015783071517944336 0.11205779016017914 0.5753415822982788
v -0.013173680752515793 0.1371210366487503 0.579534113407135
v -0.010635102167725563 0.12561683356761932 0.5814953446388245
v -0.015537749975919724 0.12306336313486099 0.5793319344520569
v -0.015139186754822731 0.13405168056488037 0.5766671299934387
v -0.011472899466753006 0.11774486303329468 0.5820388197898865
v -0.008376854471862316 0.12746956944465637 0.5863324403762817
v 0.05120343714952469 0.11166796833276749 0.5971786975860596
v -0.0043464661575853825 0.0924670398235321 0.5825788378715515
v 0.06758958101272583 0.11216440796852112 0.600079357624054
v 0.04420901834964752 0.10633323341608047 0.6072846055030823
v 0.05610141158103943 0.10601837933063507 0.6096739768981934
v 0.08377748727798462 0.11174454540014267 0.6062869429588318
v 0.07133132964372635 0.10756897926330566 0.6113808155059814
v 0.10011346638202667 0.1155281513929367 0.6035387516021729
v 0.0916869044303894 0.11398342251777649 0.604284942150116
v 0.059567324817180634 0.1040942519903183 0.6150471568107605
v -0.027730748057365417 0.13054387271404266 0.5837299227714539
v -0.02440780960023403 0.12878310680389404 0.5791305899620056
v 0.09925316274166107 0.12247844785451889 0.5955623984336853
v 0.04492989182472229 0.07343695312738419 0.6111090183258057
v 0.06683037430047989 0.07947622239589691 0.5662431120872498
v 0.06523453444242477 0.08143842220306396 0.5710484385490417
v 0.07464897632598877 0.07716893404722214 0.5490130186080933
v 0.06992559134960175 0.07636004686355591 0.5596681237220764
v -0.027756180614233017 0.13336463272571564 0.5882837176322937
v 0.00045907055027782917 0.09423963725566864 0.5629488825798035
v 0.0010296599939465523 0.09754452109336853 0.5595800876617432
v 0.044643208384513855 0.08395861089229584 0.6241959929466248
v 0.03620833903551102 0.08627618104219437 0.6240648031234741
v 0.03711716830730438 0.09896820783615112 0.6226007342338562
v 0.03660890832543373 0.09266424924135208 0.6255465149879456
v 0.04651879891753197 0.09221334010362625 0.6247829794883728
v 0.0471699982881546 0.09899821132421494 0.6211097836494446
v 0.07596324384212494 0.07821190357208252 0.5732784271240234
v 0.07633157074451447 0.07761784642934799 0.5694635510444641
v 0.07569047063589096 0.09845321625471115 0.5415100455284119
v 0.07588251680135727 0.0870312973856926 0.5402843952178955
v 0.005098387133330107 0.1056557446718216 0.604324221611023
v 0.01172056794166565 0.1053067147731781 0.6023327112197876
v 0.008226901292800903 0.10929776728153229 0.5992972254753113
v 0.005975539330393076 0.11423641443252563 0.5917061567306519
v -0.005734449252486229 0.09873371571302414 0.581446647644043
v -0.0012414820957928896 0.10138697177171707 0.5861397981643677
v 0.08419416844844818 0.07401643693447113 0.5922811031341553
v 0.07263047248125076 0.07416495680809021 0.5867559909820557
v 0.03527615964412689 0.07934863120317459 0.608445405960083
v 0.030998073518276215 0.08553202450275421 0.6068738698959351
v 0.01950194500386715 0.08504923433065414 0.5746720433235168
v 0.008348308503627777 0.10652836412191391 0.5670331120491028
v 0.009169617667794228 0.11101116240024567 0.5750572085380554
v 0.008915342390537262 0.0859735906124115 0.574676513671875
v -0.022030608728528023 0.13912077248096466 0.5900924801826477
v -0.026111353188753128 0.1361558437347412 0.5899286270141602
v 0.008924169465899467 0.10931261628866196 0.5937479734420776
v 0.0258602537214756 0.08198821544647217 0.5544466376304626
v 0.011171694844961166 0.10551315546035767 0.5612119436264038
v 0.005328381899744272 0.10026663541793823 0.5634939670562744
v 0.035175420343875885 0.08383892476558685 0.5303575992584229
v 0.0999504029750824 0.12599459290504456 0.5836946964263916
v -0.02079932764172554 0.12216086685657501 0.5811117887496948
v -0.020054128021001816 0.12922704219818115 0.5761547684669495
v -0.012597402557730675 0.13903674483299255 0.5832521915435791
v -0.015463296324014664 0.13979393243789673 0.5882369875907898
v 0.085209921002388 0.08706051856279373 0.5456246733665466
v 0.06384485214948654 0.08234484493732452 0.574149489402771
v 0.04945795238018036 0.10350064933300018 0.6157433986663818
v 0.03755132853984833 0.10268975049257278 0.6175406575202942
v 3.8275960832834244e-05 0.08845803141593933 0.5743994116783142
v 0.025955114513635635 0.09870799630880356 0.5403633117675781
v 0.01891014352440834 0.1070089042186737 0.5527763962745667
v 0.015378791838884354 0.10738199204206467 0.5491628050804138
v 0.009430654346942902 0.10893111675977707 0.5520684123039246
v 0.0025613545440137386 0.10606150329113007 0.5538941621780396
v -0.015018908306956291 0.1429506242275238 0.5797797441482544
v -0.01886197365820408 0.14448429644107819 0.5835851430892944
v -0.024607546627521515 0.14357902109622955 0.5836608409881592
v -0.02835806831717491 0.14001992344856262 0.583915114402771
v -0.0293632410466671 0.1355406939983368 0.5833176374435425
v -0.015024598687887192 0.14067722856998444 0.5764067769050598
v -0.016143586486577988 0.13760900497436523 0.5745665431022644
v -0.02018200233578682 0.13200592994689941 0.5751039981842041
v -0.014562252908945084 0.14178603887557983 0.5727682113647461
v -0.015901438891887665 0.14618170261383057 0.5735912919044495
v -0.027750425040721893 0.14955675601959229 0.571071207523346
v -0.025163954123854637 0.14838972687721252 0.5758806467056274
v -0.024225961416959763 0.14946159720420837 0.5740501880645752
v -0.02551284432411194 0.15122051537036896 0.5698604583740234
v -0.025438755750656128 0.15361788868904114 0.565601646900177
v -0.028365392237901688 0.1518920212984085 0.5663133859634399
v -0.020206822082400322 0.14804238080978394 0.5753249526023865
v -0.02121984027326107 0.15062332153320312 0.5696856379508972
v -0.017657415941357613 0.14911019802093506 0.568218469619751
v -0.018214985728263855 0.15216904878616333 0.5640220046043396
v -0.021481962874531746 0.1538524031639099 0.5651974081993103
v -0.01728867180645466 0.14759626984596252 0.5722659826278687
v -0.019734203815460205 0.14774218201637268 0.5768834352493286
v -0.026698987931013107 0.15329527854919434 0.5626049637794495
v -0.02487189695239067 0.15480849146842957 0.5632076859474182
v -0.021751323714852333 0.15458786487579346 0.5624912977218628
v -0.02273658663034439 0.1537150740623474 0.5599029064178467
v -0.028455715626478195 0.14343294501304626 0.5780290961265564
v -0.029188070446252823 0.14764802157878876 0.5705997347831726
v -0.028663750737905502 0.1491612046957016 0.5651083588600159
v -0.026960134506225586 0.15081211924552917 0.56153404712677
v -0.02892543002963066 0.14459410309791565 0.5682127475738525
v -0.027835663408041 0.14662954211235046 0.5640963912010193
v -0.02611064910888672 0.14774183928966522 0.5608159899711609
v -0.027013029903173447 0.14181552827358246 0.5658776164054871
v -0.026097796857357025 0.14445781707763672 0.5627097487449646
v -0.027681834995746613 0.13499417901039124 0.5769410133361816
v -0.02895330637693405 0.13810957968235016 0.5787871479988098
v -0.02559732273221016 0.14568699896335602 0.5605275630950928
v -0.02272324450314045 0.1517716497182846 0.5590837001800537
v -0.015605581924319267 0.1461595594882965 0.5680290460586548
v -0.017165569588541985 0.14938609302043915 0.5625284910202026
v -0.015323065221309662 0.14422821998596191 0.5670633316040039
v -0.01649477332830429 0.14729946851730347 0.5614833235740662
v -0.018263110890984535 0.15207308530807495 0.5596846342086792
v -0.019185882061719894 0.15328633785247803 0.5617527365684509
v -0.027759183198213577 0.1316930651664734 0.5808362364768982
v -0.023674894124269485 0.13041061162948608 0.5772002935409546
v -0.022873003035783768 0.13309109210968018 0.5742972493171692
v -0.023209907114505768 0.13976866006851196 0.564217209815979
v -0.018959831446409225 0.1341165453195572 0.5723100900650024
v -0.015227928757667542 0.13900169730186462 0.5708065032958984
v -0.016091732308268547 0.14244277775287628 0.5652115345001221
v -0.018386919051408768 0.1404748558998108 0.5640599727630615
v -0.01744833216071129 0.14501594007015228 0.5612084865570068
v -0.01954871416091919 0.14354288578033447 0.5611762404441833
v -0.02313602901995182 0.14299224317073822 0.5613671541213989
v -0.019626347348093987 0.14714887738227844 0.558879554271698
v -0.018528761342167854 0.14991527795791626 0.5590105056762695
v -0.022992350161075592 0.14843787252902985 0.5588439106941223
v -0.020369987934827805 0.14538927376270294 0.559464693069458
v -0.023157672956585884 0.1460116058588028 0.5598713755607605
v -0.021060885861516 0.11227858811616898 0.5438268780708313
v -0.015394113957881927 0.11202195286750793 0.5426943898200989
v -0.016908898949623108 0.10683482140302658 0.5496805906295776
v -0.020798679441213608 0.10858631134033203 0.5519213676452637
v -0.020948095247149467 0.12128487229347229 0.553736686706543
v -0.024251993745565414 0.11803543567657471 0.5501936078071594
v -0.021367134526371956 0.11683991551399231 0.5578125715255737
v -0.015832019969820976 0.1195826381444931 0.5587430596351624
v -0.01519622839987278 0.12231992185115814 0.5539920330047607
v -0.010455237701535225 0.1185406893491745 0.5574474930763245
v -0.011741485446691513 0.12087173759937286 0.5613981485366821
v -0.017478125169873238 0.11693330109119415 0.5625718832015991
v -0.0054863085970282555 0.1070266142487526 0.5765011310577393
v -0.0009702662937343121 0.11202764511108398 0.5743764638900757
v -0.0039407555013895035 0.0923268124461174 0.5659172534942627
v -0.0020930974278599024 0.09515415132045746 0.563568651676178
v -0.0237322635948658 0.11472294479608536 0.5463062524795532
v -0.022596297785639763 0.11260637640953064 0.5548921227455139
v -0.010069750249385834 0.10440625250339508 0.5488438010215759
v -0.014744216576218605 0.10328683257102966 0.5511698126792908
v -0.012873847037553787 0.1063021570444107 0.547142744064331
v -0.008856681175529957 0.10866136848926544 0.5469340085983276
v -0.008044295012950897 0.09798043221235275 0.5756051540374756
v -0.005734249949455261 0.09360063076019287 0.5714966058731079
v -0.007590224500745535 0.10243966430425644 0.5761255025863647
v -0.005530979484319687 0.10896579176187515 0.549339234828949
v -0.0031635481864213943 0.1147070825099945 0.5518221855163574
v 0.005887578707188368 0.1080496609210968 0.5628831386566162
v 0.0033211628906428814 0.10187622159719467 0.5610055327415466
v -0.020545881241559982 0.11260314285755157 0.5610999464988708
v -0.018754253163933754 0.10484792292118073 0.5548370480537415
v -0.021017197519540787 0.10767094790935516 0.5579677224159241
v -0.006124856881797314 0.11940602958202362 0.5571743845939636
v -0.006495263893157244 0.11701170355081558 0.5522541999816895
v -0.006494163069874048 0.12872405350208282 0.5398856401443481
v -0.006811318453401327 0.11947190761566162 0.5482892990112305
v -0.007476896047592163 0.11622150987386703 0.5445073843002319
v -0.005883666221052408 0.12565337121486664 0.5361977219581604
v -0.0065657999366521835 0.11303019523620605 0.5496821403503418
v -0.009893545880913734 0.12175804376602173 0.5513747334480286
v -0.018161118030548096 0.12308523058891296 0.5312119722366333
v -0.011863948777318 0.12208838760852814 0.5305333137512207
v -0.02164575643837452 0.12537622451782227 0.5331377983093262
v 0.004020605701953173 0.11262380331754684 0.5686159729957581
v -0.021606022492051125 0.13088086247444153 0.5413918495178223
v -0.023345736786723137 0.1275583803653717 0.5363690257072449
v -0.010140310972929 0.11326024681329727 0.5425012111663818
v -0.007465176749974489 0.12348039448261261 0.5325693488121033
v -0.009431255981326103 0.13112759590148926 0.5423266291618347
v -0.016243351623415947 0.13189361989498138 0.5445376038551331
v -0.008942244574427605 0.13399142026901245 0.5364584922790527
v -0.014430917799472809 0.13576847314834595 0.5380398035049438
v -0.019554734230041504 0.13517606258392334 0.5353330373764038
v -0.021580349653959274 0.13138514757156372 0.5319486856460571
v -0.020531468093395233 0.1281435787677765 0.5299133062362671
v -0.0066460794769227505 0.1318567395210266 0.5343314409255981
v -0.005958384368568659 0.12866607308387756 0.5313129425048828
v -0.008199140429496765 0.12513534724712372 0.5296246409416199
v -0.006257222965359688 0.1331094205379486 0.5264455080032349
v -0.008360955864191055 0.13684627413749695 0.5273894667625427
v -0.020834200084209442 0.13991689682006836 0.5157722234725952
v -0.02068464457988739 0.13877654075622559 0.5214347243309021
v -0.018648050725460052 0.14034448564052582 0.5214897394180298
v -0.018483441323041916 0.141377255320549 0.5163078308105469
v -0.019307442009449005 0.13904057443141937 0.5271542072296143
v -0.01766679249703884 0.1399802267551422 0.5256776809692383
v -0.01333269476890564 0.13951437175273895 0.5269831418991089
v -0.013911101967096329 0.13998408615589142 0.5212298631668091
v -0.009471014142036438 0.13824069499969482 0.5213770866394043
v -0.009313344955444336 0.13998806476593018 0.5162106156349182
v -0.013596586883068085 0.14218007028102875 0.5159862041473389
v -0.010039017535746098 0.13856977224349976 0.5253371596336365
v -0.017448391765356064 0.1420121192932129 0.5130253434181213
v -0.018307015299797058 0.14079076051712036 0.510948121547699
v -0.013592755421996117 0.1392708718776703 0.5296680331230164
v -0.02185087651014328 0.13404086232185364 0.5288589596748352
v -0.02205376699566841 0.13625988364219666 0.5203957557678223
v -0.0213470496237278 0.13719797134399414 0.514092206954956
v -0.01754268817603588 0.1382552683353424 0.5094329118728638
v -0.021216079592704773 0.13276951014995575 0.5184136629104614
v -0.020092472434043884 0.1344946026802063 0.5128507018089294
v -0.016618244349956512 0.13571549952030182 0.5095096230506897
v -0.018457645550370216 0.12940232455730438 0.5167617797851562
v -0.017131393775343895 0.1317044496536255 0.5117842555046082
v -0.018321681767702103 0.12603946030139923 0.5268042087554932
v -0.02153593674302101 0.12940257787704468 0.5277059078216553
v -0.0160785224288702 0.13349230587482452 0.5101850032806396
v -0.013696545735001564 0.14181740581989288 0.5100218653678894
v -0.013578640297055244 0.13886018097400665 0.508391261100769
v -0.013743560761213303 0.1422838270664215 0.511793315410614
v -0.007896296679973602 0.1368153840303421 0.5210148096084595
v -0.008320514112710953 0.1382342278957367 0.5151394009590149
v -0.006782196927815676 0.13446053862571716 0.5199723839759827
v -0.007783087436109781 0.13640694320201874 0.5136426091194153
v -0.009545953944325447 0.13994024693965912 0.5111231803894043
v -0.010390672832727432 0.1411217749118805 0.5120065808296204
v -0.017075516283512115 0.125596821308136 0.5291856527328491
v -0.011707797646522522 0.12418703734874725 0.5287836194038391
v -0.01315283589065075 0.12427487969398499 0.5264952182769775
v -0.013549499213695526 0.12797777354717255 0.5165252089500427
v -0.00882883369922638 0.12548403441905975 0.5267484188079834
v -0.006384783890098333 0.12947824597358704 0.5258141160011292
v -0.0069307503290474415 0.1317453384399414 0.5191516876220703
v -0.009197652339935303 0.12913525104522705 0.5173684358596802
v -0.007214174140244722 0.134370818734169 0.5130070447921753
v -0.008974628522992134 0.1316620260477066 0.5133956074714661
v -0.013349529355764389 0.13036152720451355 0.5120046138763428
v -0.009092485532164574 0.13629364967346191 0.5093293786048889
v -0.009229084476828575 0.13855628669261932 0.5100553035736084
v -0.013449305668473244 0.1366560161113739 0.5084985494613647
v -0.009898776188492775 0.13357515633106232 0.5102506875991821
v -0.013450095430016518 0.13363230228424072 0.5094826817512512
v -0.013322532176971436 0.10950671136379242 0.5244860053062439
v -0.010676456615328789 0.10497178137302399 0.5228604078292847
v -0.012747660279273987 0.09888865053653717 0.528228223323822
v -0.01515401154756546 0.10455925017595291 0.5300191044807434
v -0.006055821198970079 0.11448980867862701 0.5337507724761963
v -0.01022719033062458 0.11483224481344223 0.5309628844261169
v -0.01176466979086399 0.11179135739803314 0.5345743894577026
v -0.0071352035738527775 0.11149834841489792 0.5376615524291992
v -0.0008263648487627506 0.11277571320533752 0.5331583023071289
v -0.0017009028233587742 0.10976414382457733 0.5365615487098694
v -0.0036911810748279095 0.11347077786922455 0.5396744012832642
v -0.009729860350489616 0.11134514212608337 0.5389537215232849
v -0.0003328905440866947 0.10782419145107269 0.5494710206985474
v 0.005517872516065836 0.11134634166955948 0.5474492907524109
v -0.012617005035281181 0.11287091672420502 0.527388334274292
v -0.014449451118707657 0.10930804163217545 0.5319712162017822
v -0.00223003001883626 0.09492900967597961 0.531154453754425
v -0.005841344129294157 0.09526729583740234 0.5335089564323425
v -0.008048338815569878 0.09689158946275711 0.5263315439224243
v -0.003906963858753443 0.09749241173267365 0.5260345339775085
v -0.0016183922998607159 0.09676821529865265 0.5526241660118103
v 0.0025773257948458195 0.09312554448843002 0.5500363707542419
v -0.0028909691609442234 0.10232648998498917 0.5510028004646301
v 0.0018154089339077473 0.09866142272949219 0.5313478708267212
v 0.0047480580396950245 0.10570207983255386 0.5335270762443542
v 0.012967726215720177 0.10277482122182846 0.5404095649719238
v 0.01077902689576149 0.0969170331954956 0.541179358959198
v -0.012425072491168976 0.10771223902702332 0.5387327075004578
v -0.009932609274983406 0.09723873436450958 0.5359325408935547
v -0.013083994388580322 0.10225566476583481 0.5377838611602783
v 0.0018344526179134846 0.11153614521026611 0.5368345379829407
v 0.0005592829547822475 0.10486585646867752 0.5329271554946899
v 0.00890270620584488 0.11583834141492844 0.5183207392692566
v 0.001694138627499342 0.10284069180488586 0.5270540714263916
v -0.001625236589461565 0.10171933472156525 0.5233936905860901
v 0.007235355209559202 0.11398749053478241 0.5148099660873413
v -0.00027988338842988014 0.09975593537092209 0.5283941626548767
v 0.0024520582519471645 0.10752411931753159 0.5310391187667847
v -0.004181800875812769 0.12032949924468994 0.5127339363098145
v -0.0013476279564201832 0.11580579727888107 0.5117397308349609
v -0.004695242736488581 0.12253499776124954 0.5162203311920166
v 0.011363035067915916 0.1097760871052742 0.5436831116676331
v 0.007368709426373243 0.092317596077919 0.5448417067527771
v -0.0003070537932217121 0.1252395659685135 0.5212165117263794
v -0.0034797457046806812 0.12448355555534363 0.5186110734939575
v -0.005931307096034288 0.1023162379860878 0.5226679444313049
v 0.0035132127813994884 0.11363578587770462 0.5122553110122681
v 0.008007176220417023 0.11881191283464432 0.5215877294540405
v 0.004314288031309843 0.12277833372354507 0.5235095024108887
v 0.01048889011144638 0.12077657133340836 0.5176873803138733
v 0.006961911451071501 0.12504766881465912 0.5192089080810547
v 0.0032723392359912395 0.1281047910451889 0.5171048641204834
v 0.00041516823694109917 0.127588152885437 0.514534056186676
v -0.0011299666948616505 0.12572890520095825 0.5120924115180969
v 0.011221569031476974 0.11804623901844025 0.5143657922744751
v 0.009337615221738815 0.11655518412590027 0.5113521218299866
v 0.004857625346630812 0.11569790542125702 0.5104726552963257
v 0.013352010399103165 0.1191200390458107 0.5109853744506836
v 0.014410972595214844 0.12376491725444794 0.5133216381072998
v 0.014297693967819214 0.1361793428659439 0.5033881664276123
v 0.010983701795339584 0.13383543491363525 0.5071033239364624
v 0.012123838067054749 0.13350722193717957 0.5075819492340088
v 0.015753239393234253 0.13602861762046814 0.5042631030082703
v 0.008498668670654297 0.1310947835445404 0.5127097368240356
v 0.010715249925851822 0.1314219832420349 0.5117748975753784
v 0.012681741267442703 0.12866279482841492 0.5132571458816528
v 0.01656266674399376 0.13110092282295227 0.5088146328926086
v 0.01816876232624054 0.12556037306785583 0.5078278183937073
v 0.020554710179567337 0.1282440721988678 0.5046502351760864
v 0.01958950236439705 0.13355174660682678 0.5055685043334961
v 0.015309717506170273 0.1252632439136505 0.5122541189193726
v 0.018183905631303787 0.13637122511863708 0.502457320690155
v 0.01749030500650406 0.13792523741722107 0.501389741897583
v 0.010804358869791031 0.12778201699256897 0.5148027539253235
v 0.004094242583960295 0.13099776208400726 0.5112244486808777
v 0.00869685411453247 0.13386133313179016 0.5054481029510498
v 0.011809445917606354 0.13641256093978882 0.5012059807777405
v 0.015363320708274841 0.13629837334156036 0.4988206923007965
v 0.00718415854498744 0.13151146471500397 0.5030136704444885
v 0.010698430240154266 0.13389325141906738 0.4995574355125427
v 0.013892479240894318 0.1339784413576126 0.497364342212677
v 0.006861827801913023 0.128694087266922 0.5015401244163513
v 0.010470807552337646 0.13083267211914062 0.4985007047653198
v 0.00038633449003100395 0.12404438853263855 0.5085151195526123
v 0.001529607456177473 0.12809638679027557 0.5097680687904358
v 0.013178370893001556 0.13185429573059082 0.49711525440216064
v 0.021195225417613983 0.13491949439048767 0.5010926723480225
v 0.019537243992090225 0.13288697600364685 0.49779433012008667
v 0.020427729934453964 0.13435578346252441 0.5025373697280884
v 0.01794278994202614 0.12371526658535004 0.5076528191566467
v 0.021346084773540497 0.12653759121894836 0.5031651854515076
v 0.01673543080687523 0.12165224552154541 0.5060577392578125
v 0.020192284137010574 0.12459738552570343 0.5014340281486511
v 0.022504426538944244 0.1299428641796112 0.5014808773994446
v 0.021989434957504272 0.1305902600288391 0.502362847328186
v -0.0014372100122272968 0.1219097226858139 0.5105774402618408
v 0.00093510327860713 0.11784647405147552 0.5096833109855652
v 0.0021964567713439465 0.11994766443967819 0.5075842142105103
v 0.00883646309375763 0.1250547617673874 0.5003498792648315
v 0.005718130152672529 0.11723467707633972 0.5082708597183228
v 0.011452890932559967 0.11820870637893677 0.5082316994667053
v 0.014634702354669571 0.12117229402065277 0.5037700533866882
v 0.012063287198543549 0.122319795191288 0.5014771223068237
v 0.018018826842308044 0.12394607067108154 0.49978694319725037
v 0.015255719423294067 0.12453211098909378 0.4992702007293701
v 0.012004360556602478 0.1274343729019165 0.49741101264953613
v 0.018913988023996353 0.12749294936656952 0.49814262986183167
v 0.02138747274875641 0.1283663511276245 0.49941593408584595
v 0.017194896936416626 0.13124702870845795 0.49650439620018005
v 0.01656287908554077 0.12698112428188324 0.49752962589263916
v 0.015135318040847778 0.12978233397006989 0.49633610248565674
v 0.005522145424038172 0.0913090929389 0.5474798679351807
v 0.002404663246124983 0.0859752967953682 0.5444621443748474
v 0.0014455909840762615 0.08233573287725449 0.5441914200782776
v 0.00691003305837512 0.08109848201274872 0.541553258895874
v 0.008457111194729805 0.08458821475505829 0.5425387024879456
v 0.000989678781479597 0.09105546027421951 0.5352501273155212
v 0.0018391716293990612 0.09087733179330826 0.5397281646728516
v 0.006628367584198713 0.09065045416355133 0.5379343628883362
v 0.0057642641477286816 0.0911598801612854 0.5331605672836304
v -0.0009939600713551044 0.08844517171382904 0.531586229801178
v 0.0038316394202411175 0.08877261728048325 0.5291369557380676
v 0.008428709581494331 0.09423518925905228 0.5331700444221497
v 0.009152336046099663 0.09277172386646271 0.537894606590271
v 0.019368061795830727 0.09533469378948212 0.541069746017456
v 0.0205508042126894 0.09792117029428482 0.5370474457740784
v 0.028686482459306717 0.0827784538269043 0.5306740999221802
v 0.029249444603919983 0.0799250602722168 0.5348794460296631
v 0.02179761603474617 0.080529123544693 0.5348191261291504
v 0.022448590025305748 0.08199837058782578 0.5306885242462158
v 0.0023309732787311077 0.08900464326143265 0.5428517460823059
v 0.0072959656827151775 0.08794138580560684 0.5418646335601807
v 0.011020665988326073 0.0784362405538559 0.5323728919029236
v 0.010976020246744156 0.07844965159893036 0.5369579792022705
v 0.006348810624331236 0.07812468707561493 0.5391606092453003
v 0.004982430022209883 0.07726217806339264 0.5345386862754822
v 0.026163162663578987 0.0801423117518425 0.5390130281448364
v 0.022864416241645813 0.08156028389930725 0.5421031713485718
v 0.020097073167562485 0.08302266895771027 0.542081356048584
v 0.020349042490124702 0.08122817426919937 0.5390297174453735
v 0.018365496769547462 0.08797182142734528 0.5437210202217102
v 0.010037945583462715 0.08069010078907013 0.528830885887146
v 0.008711468428373337 0.0857263132929802 0.5264359712600708
v 0.02300877869129181 0.0901804193854332 0.5262829065322876
v 0.023686004802584648 0.08567702770233154 0.5275403261184692
v 0.009886791929602623 0.08974206447601318 0.5412886738777161
v 0.01023026928305626 0.08078957349061966 0.5405028462409973
v 0.010641474276781082 0.08515071868896484 0.541732132434845
v 0.008163483813405037 0.09180557727813721 0.5283734202384949
v 0.002936761360615492 0.08350742608308792 0.5277688503265381
v -0.011123348027467728 0.0802072137594223 0.5382193922996521
v -0.0012975004501640797 0.07858668267726898 0.5334832668304443
v -0.0009044934995472431 0.07751256972551346 0.5379800796508789
v -0.011543769389390945 0.08002696931362152 0.5409560203552246
v 0.004738907795399427 0.07964825630187988 0.5298451781272888
v -0.001846738625317812 0.08302342891693115 0.530596137046814
v -0.009371474385261536 0.0886162593960762 0.5475625395774841
v -0.009638246148824692 0.08402403444051743 0.5468192100524902
v -0.008737213909626007 0.09100683033466339 0.5460148453712463
v 0.021545926108956337 0.09694670140743256 0.5307055115699768
v -0.009400516748428345 0.09174279868602753 0.5393795371055603
v -0.009175475686788559 0.09264044463634491 0.5433238744735718
v 0.00036730943247675896 0.07938332110643387 0.5419014692306519
v -0.010715484619140625 0.08135897666215897 0.5438442826271057
v -0.010749612003564835 0.08278124034404755 0.5359207391738892
v -0.010287418961524963 0.08841384202241898 0.5356347560882568
v -0.014295635744929314 0.08331656455993652 0.5360491871833801
v -0.013916153460741043 0.08918167650699615 0.5364065766334534
v -0.013534225523471832 0.09339238703250885 0.5405097603797913
v -0.01329597644507885 0.09386515617370605 0.5436279773712158
v -0.013527637347579002 0.09257672727108002 0.5464035868644714
v -0.015143556520342827 0.08092088997364044 0.5385715365409851
v -0.015509339049458504 0.08078759908676147 0.5415768027305603
v -0.014572566375136375 0.08195865154266357 0.5448442697525024
v -0.019040429964661598 0.08310975134372711 0.5366770625114441
v -0.018366258591413498 0.0868525505065918 0.5332587957382202
v -0.02623143419623375 0.09776116907596588 0.5353900790214539
v -0.023298796266317368 0.09650418907403946 0.5371165871620178
v -0.022729136049747467 0.09609698504209518 0.5361162424087524
v -0.025713559240102768 0.09802284836769104 0.5344177484512329
v -0.01865813136100769 0.09495746344327927 0.5382509231567383
v -0.01926608383655548 0.09441310167312622 0.5364540219306946
v -0.018235933035612106 0.09177006781101227 0.534700334072113
v -0.02183884009718895 0.09370193630456924 0.5326037406921387
v -0.02371092513203621 0.08906315267086029 0.5310807824134827
v -0.026503559201955795 0.09129192680120468 0.5295463800430298
v -0.024416688829660416 0.09524988383054733 0.5308700799942017
v -0.019493672996759415 0.08888351917266846 0.5323787927627563
v -0.027100011706352234 0.09870800375938416 0.5324634313583374
v -0.028303440660238266 0.0992700383067131 0.5328217148780823
v -0.016770336776971817 0.09170403331518173 0.5357077717781067
v -0.018261147662997246 0.09508854150772095 0.5426850318908691
v -0.024600602686405182 0.09690527617931366 0.5389699935913086
v -0.028064582496881485 0.09838463366031647 0.5362120270729065
v -0.03005826100707054 0.09834037721157074 0.5334739089012146
v -0.024699179455637932 0.09533713012933731 0.5410876870155334
v -0.02937500551342964 0.09731226414442062 0.5377691388130188
v -0.03136284276843071 0.09703870117664337 0.5350956916809082
v -0.025229686871170998 0.0926499143242836 0.5428295731544495
v -0.029510226100683212 0.09481127560138702 0.5388922095298767
v -0.01818178780376911 0.08991469442844391 0.5471644997596741
v -0.018102439120411873 0.0930885449051857 0.5452785491943359
v -0.030911173671483994 0.09550014138221741 0.5360950231552124
v -0.02867104485630989 0.09694426506757736 0.5298716425895691
v -0.030986610800027847 0.09606797248125076 0.5313804149627686
v -0.027300003916025162 0.09658726304769516 0.5295379161834717
v -0.023992598056793213 0.08766636997461319 0.5315018892288208
v -0.02774617448449135 0.09028582274913788 0.5297480821609497
v -0.02502851001918316 0.08597522974014282 0.5335190296173096
v -0.02922023832798004 0.08950318396091461 0.5312747955322266
v -0.02929302304983139 0.09338752925395966 0.529080867767334
v -0.027594920247793198 0.09380251169204712 0.5291029810905457
v -0.014116249978542328 0.08942113071680069 0.5480791330337524
v -0.013461336493492126 0.08517016470432281 0.5472047328948975
v -0.01781429722905159 0.08579334616661072 0.5466819405555725
v -0.025582853704690933 0.08907519280910492 0.5427592396736145
v -0.01886465772986412 0.0827222689986229 0.5437185168266296
v -0.01900448463857174 0.08222631365060806 0.5398836135864258
v -0.025497525930404663 0.0857800543308258 0.5363578200340271
v -0.02589181810617447 0.08662249147891998 0.5395792722702026
v -0.030138004571199417 0.08964376151561737 0.5333747863769531
v -0.030343201011419296 0.09020865708589554 0.5363484025001526
v -0.030000876635313034 0.09198880195617676 0.538637101650238
v -0.0314820297062397 0.09309125691652298 0.5324563384056091
v -0.030982818454504013 0.09322263300418854 0.5305910706520081
v -0.031559694558382034 0.09512113034725189 0.5331829190254211
v -0.03157856687903404 0.09283718466758728 0.5344612002372742
v -0.0314088873565197 0.09398725628852844 0.5353738069534302
v 0.027024012058973312 0.085982546210289 0.5288554430007935
v 0.022554391995072365 0.10396069288253784 0.6134043335914612
v 0.02202952653169632 0.1001303419470787 0.6086674332618713
v 0.016601521521806717 0.08712965995073318 0.6140826940536499
v 0.01756277307868004 0.09024803340435028 0.6084808111190796
v 0.016254344955086708 0.0880797877907753 0.6203258037567139
v 0.01956663280725479 0.09620952606201172 0.6256937980651855
v 0.018589351326227188 0.09115591645240784 0.6242943406105042
v 0.01980988122522831 0.09491248428821564 0.6060724258422852
v 0.022931089624762535 0.10543728619813919 0.618781566619873
v 0.02198999933898449 0.10218653082847595 0.6242313981056213
v 0.02146797999739647 0.10946647077798843 0.6169233322143555
v 0.017473040148615837 0.10692766308784485 0.6227570176124573
v 0.012882953509688377 0.10269889235496521 0.6236498355865479
v 0.011557836085557938 0.09580501914024353 0.6215732097625732
v 0.01039084792137146 0.09203970432281494 0.6181115508079529
v 0.022332139313220978 0.10480329394340515 0.6107612252235413
v 0.021335940808057785 0.10066913813352585 0.6064754724502563
v 0.01758933812379837 0.09474863111972809 0.6053009033203125
v 0.022454258054494858 0.10436631739139557 0.6035500764846802
v 0.015834901481866837 0.10976780951023102 0.6017010807991028
v -0.003070176113396883 0.11074519157409668 0.6012194156646729
v 0.00042475340887904167 0.10741598904132843 0.6063221096992493
v 0.0019575092010200024 0.10960306227207184 0.6052287220954895
v -0.0013896790333092213 0.11277709156274796 0.6010646820068359
v 0.005056295078247786 0.10739800333976746 0.6098660230636597
v 0.005377675872296095 0.10860588401556015 0.607521116733551
v 0.010215211659669876 0.10986553132534027 0.6056790947914124
v 0.007070764433592558 0.11253509670495987 0.6021371483802795
v 0.013239342719316483 0.11007754504680634 0.6015432476997375
v 0.011550776660442352 0.11106552183628082 0.5981053709983826
v 0.004094622563570738 0.1151672974228859 0.5983852744102478
v -0.0016411361284554005 0.11572679877281189 0.5982722043991089
v 0.0015177088789641857 0.11716876178979874 0.5950857400894165
v -0.0037126359529793262 0.11382947117090225 0.5966091156005859
v 0.011226765811443329 0.11142422258853912 0.6082108020782471
v 0.005453541409224272 0.10168147087097168 0.614276647567749
v 0.00014546094462275505 0.10377040505409241 0.6072449684143066
v -0.0036471826024353504 0.10702326893806458 0.6005545854568481
v -0.0040619526989758015 0.11084672808647156 0.5951886177062988
v 0.0007905806414783001 0.09975454211235046 0.6058428287506104
v -0.0018246364779770374 0.10315239429473877 0.5994120836257935
v -0.0016642366535961628 0.10642755031585693 0.5943933725357056
v 0.003150134813040495 0.09681142866611481 0.6030092835426331
v 0.0009627263061702251 0.1012004017829895 0.5975467562675476
v 0.009308025240898132 0.09135650843381882 0.6106091737747192
v 0.006398953031748533 0.09537410736083984 0.6141862273216248
v 0.0003926563076674938 0.10435228049755096 0.5945887565612793
v 0.00017515895888209343 0.11661674082279205 0.5925586223602295
v -0.00011075707152485847 0.11328749358654022 0.5909102559089661
v 0.014134660363197327 0.1094580888748169 0.5964733958244324
v 0.009158600121736526 0.1140756830573082 0.5946013331413269
v 0.010236810892820358 0.11194673925638199 0.5925750732421875
v 0.016095682978630066 0.10608656704425812 0.5956166386604309
v 0.010690953582525253 0.10937755554914474 0.5912641286849976
v 0.005888122599571943 0.11501187831163406 0.5908564925193787
v 0.005845877807587385 0.11626214534044266 0.5935767292976379
v 0.012056734412908554 0.08956028521060944 0.6133071184158325
v 0.014833161607384682 0.09092896431684494 0.6087192296981812
v 0.013917073607444763 0.0914221853017807 0.6064870357513428
v 0.008403893560171127 0.09564876556396484 0.5991885662078857
v 0.018063336610794067 0.09406746923923492 0.6026101112365723
v 0.021299147978425026 0.09941820055246353 0.6020255088806152
v 0.015786897391080856 0.10234234482049942 0.5948154926300049
v 0.013463340699672699 0.09825203567743301 0.5959252715110779
v 0.009612716734409332 0.10573025792837143 0.5914756059646606
v 0.008125972002744675 0.10318373143672943 0.5926418900489807
v 0.004303842317312956 0.1011958122253418 0.5946771502494812
v 0.005229815375059843 0.10820015519857407 0.5903187990188599
v 0.005907848011702299 0.11196522414684296 0.5895503163337708
v 0.0010394412092864513 0.10855522751808167 0.5911992788314819
v 0.005220349412411451 0.10551303625106812 0.5917761325836182
v 0.002406503539532423 0.10517335683107376 0.5927227735519409
v 0.03519854322075844 0.0800061970949173 0.5357193350791931
v 0.03218329697847366 0.07922636717557907 0.5413302779197693
v 0.03888442739844322 0.07886756211519241 0.5413957834243774
v 0.048170313239097595 0.07793492823839188 0.5432848930358887
v 0.058267008513212204 0.07963548600673676 0.5400573015213013
v 0.04617325961589813 0.07881821691989899 0.5497868061065674
v 0.036647651344537735 0.0796574130654335 0.5474117398262024
v 0.026721904054284096 0.08085083961486816 0.5470424890518188
v 0.05237410590052605 0.08048169314861298 0.5578407645225525
f 2 3 1
f 1 3 4
f 5 6 8
f 8 6 7
f 9 4 10
f 10 4 3
f 12 13 11
f 11 13 9
f 14 12 16
f 16 12 15
f 18 19 17
f 17 19 20
f 22 23 21
f 21 23 24
f 26 27 25
f 25 27 28
f 30 31 29
f 29 31 32
f 33 34 36
f 36 34 35
f 37 38 40
f 40 38 39
f 41 42 6
f 6 42 43
f 6 43 7
f 7 43 44
f 45 34 46
f 46 34 33
f 48 49 47
f 47 49 50
f 52 53 51
f 51 53 54
f 56 52 55
f 55 52 51
f 58 59 57
f 57 59 60
f 61 62 4
f 4 62 1
f 64 65 63
f 63 65 66
f 68 69 67
f 67 69 70
f 72 73 71
f 71 73 74
f 76 77 75
f 75 77 78
f 53 79 54
f 54 79 80
f 82 83 81
f 81 83 84
f 85 86 52
f 52 86 53
f 57 60 87
f 87 60 88
f 89 90 43
f 43 90 44
f 43 42 89
f 89 42 91
f 40 39 92
f 92 39 93
f 94 70 64
f 64 70 69
f 13 61 9
f 9 61 4
f 25 28 69
f 69 28 95
f 96 25 68
f 68 25 69
f 98 99 97
f 97 99 100
f 101 102 104
f 104 102 103
f 106 30 105
f 105 30 29
f 51 54 107
f 107 54 108
f 54 80 108
f 108 80 109
f 111 112 110
f 110 112 113
f 115 5 114
f 114 5 116
f 115 41 5
f 5 41 6
f 36 35 111
f 111 35 117
f 35 118 117
f 117 118 119
f 34 120 35
f 35 120 118
f 34 45 120
f 120 45 121
f 125 126 124
f 124 126 127
f 128 129 14
f 14 129 130
f 33 131 46
f 46 131 132
f 133 94 63
f 63 94 64
f 134 135 137
f 137 135 136
f 139 140 138
f 138 140 141
f 77 142 78
f 78 142 143
f 144 145 20
f 20 145 146
f 148 149 147
f 147 149 72
f 151 152 150
f 150 152 153
f 82 101 83
f 83 101 104
f 101 82 155
f 155 82 154
f 156 157 58
f 58 157 59
f 158 68 147
f 147 68 67
f 159 146 15
f 15 146 16
f 68 158 96
f 96 158 160
f 129 66 130
f 130 66 65
f 162 163 161
f 161 163 164
f 166 167 165
f 165 167 168
f 170 171 169
f 169 171 172
f 174 171 173
f 173 171 170
f 176 177 175
f 175 177 178
f 180 181 179
f 179 181 24
f 182 183 21
f 21 183 184
f 81 185 82
f 82 185 154
f 186 187 188
f 188 187 144
f 158 71 160
f 160 71 189
f 190 135 157
f 157 135 59
f 169 172 139
f 139 172 140
f 147 72 158
f 158 72 71
f 192 193 191
f 191 193 194
f 167 166 49
f 49 166 195
f 196 190 50
f 50 190 157
f 197 198 200
f 200 198 199
f 21 24 182
f 182 24 181
f 146 159 20
f 20 159 17
f 182 181 81
f 81 181 185
f 201 185 180
f 180 185 181
f 202 203 83
f 83 203 84
f 205 206 204
f 204 206 85
f 207 22 184
f 184 22 21
f 179 24 208
f 208 24 23
f 208 209 179
f 179 209 205
f 209 210 205
f 205 210 206
f 212 206 211
f 211 206 210
f 179 205 180
f 180 205 204
f 213 176 88
f 88 176 214
f 86 85 212
f 212 85 206
f 193 217 218
f 217 219 218
f 218 219 220
f 219 18 220
f 220 18 17
f 19 221 20
f 20 221 144
f 222 223 225
f 225 223 224
f 175 226 176
f 176 226 214
f 227 87 214
f 214 87 88
f 220 17 228
f 228 17 159
f 134 213 60
f 60 213 88
f 138 229 151
f 151 229 152
f 193 192 210
f 210 192 211
f 230 194 218
f 218 194 193
f 231 232 228
f 228 232 230
f 233 234 91
f 91 234 89
f 235 236 93
f 93 236 92
f 230 232 234
f 234 232 237
f 47 238 48
f 48 238 239
f 240 191 235
f 235 191 236
f 5 8 116
f 116 8 241
f 242 243 189
f 189 243 160
f 244 245 98
f 98 245 99
f 156 246 47
f 47 246 238
f 76 247 77
f 77 247 248
f 250 125 249
f 249 125 124
f 252 253 251
f 251 253 254
f 111 110 36
f 36 110 255
f 256 33 255
f 255 33 36
f 257 258 154
f 154 258 155
f 63 169 133
f 133 169 139
f 66 170 63
f 63 170 169
f 173 170 129
f 129 170 66
f 129 128 173
f 173 128 259
f 128 260 259
f 259 260 261
f 213 134 262
f 262 134 137
f 263 264 186
f 186 264 187
f 112 265 113
f 113 265 266
f 11 267 268
f 234 233 230
f 230 233 194
f 153 269 70
f 70 269 67
f 175 178 165
f 165 178 141
f 150 153 94
f 94 153 70
f 271 221 270
f 270 221 207
f 269 153 272
f 272 153 152
f 121 45 109
f 109 45 108
f 47 50 156
f 156 50 157
f 57 273 58
f 58 273 274
f 145 275 260
f 260 275 261
f 276 149 143
f 143 149 78
f 148 269 75
f 75 269 272
f 207 277 270
f 270 277 278
f 195 196 49
f 49 196 50
f 59 135 60
f 60 135 134
f 83 104 202
f 202 104 279
f 149 148 78
f 78 148 75
f 247 278 248
f 248 278 277
f 183 182 84
f 84 182 81
f 48 239 281
f 281 239 282
f 227 223 283
f 283 223 222
f 223 226 224
f 224 226 168
f 281 282 224
f 224 282 225
f 165 168 175
f 175 168 226
f 264 263 138
f 138 263 229
f 14 16 128
f 128 16 260
f 220 228 218
f 218 228 230
f 87 227 284
f 284 227 283
f 260 16 145
f 145 16 146
f 244 98 258
f 258 98 155
f 58 274 156
f 156 274 246
f 107 285 51
f 51 285 55
f 243 286 160
f 160 286 96
f 234 237 89
f 89 237 90
f 46 132 107
f 107 132 285
f 253 252 249
f 249 252 250
f 286 26 96
f 96 26 25
f 106 105 287
f 287 105 288
f 272 152 289
f 289 152 229
f 138 151 139
f 139 151 133
f 183 290 161
f 161 290 162
f 291 292 277
f 277 292 293
f 151 150 133
f 133 150 94
f 262 275 177
f 177 275 187
f 144 187 145
f 145 187 275
f 273 57 284
f 284 57 87
f 174 136 190
f 190 136 135
f 111 117 112
f 112 117 38
f 117 119 38
f 38 119 123
f 112 38 265
f 265 38 37
f 287 288 254
f 254 288 251
f 228 159 231
f 231 159 15
f 223 227 226
f 226 227 214
f 147 67 148
f 148 67 269
f 224 168 281
f 281 168 167
f 199 163 200
f 200 163 162
f 45 46 108
f 108 46 107
f 281 167 48
f 48 167 49
f 161 164 291
f 291 164 292
f 38 123 39
f 293 294 277
f 277 294 248
f 284 283 296
f 296 283 295
f 284 296 273
f 273 296 297
f 274 273 298
f 298 273 297
f 246 274 299
f 299 274 298
f 283 222 295
f 295 222 300
f 222 225 300
f 300 225 301
f 301 225 302
f 302 225 282
f 303 304 300
f 300 304 295
f 306 307 305
f 305 307 308
f 309 310 308
f 308 310 305
f 308 307 312
f 312 307 311
f 313 314 312
f 312 314 315
f 311 316 312
f 312 316 313
f 317 304 311
f 311 304 316
f 315 309 312
f 312 309 308
f 318 319 321
f 321 319 320
f 319 318 309
f 309 318 310
f 311 307 317
f 317 307 306
f 306 297 317
f 317 297 296
f 306 322 297
f 297 322 298
f 305 323 306
f 306 323 322
f 323 305 324
f 324 305 310
f 304 317 295
f 295 317 296
f 318 325 310
f 310 325 324
f 323 324 326
f 326 324 327
f 324 325 327
f 327 325 328
f 326 327 329
f 329 327 330
f 329 331 326
f 326 331 332
f 333 330 328
f 328 330 327
f 323 326 322
f 322 326 332
f 322 332 298
f 298 332 299
f 325 318 334
f 334 318 321
f 313 316 335
f 335 316 304
f 335 336 313
f 313 336 314
f 304 303 335
f 335 303 337
f 336 335 338
f 338 335 337
f 336 339 314
f 314 339 340
f 246 299 238
f 238 299 341
f 239 342 282
f 282 342 302
f 342 239 341
f 341 239 238
f 341 331 342
f 342 331 343
f 331 329 343
f 343 329 344
f 342 343 302
f 302 343 345
f 341 299 331
f 331 299 332
f 346 301 345
f 345 301 302
f 346 303 301
f 301 303 300
f 347 337 346
f 346 337 303
f 347 346 348
f 348 346 345
f 349 347 350
f 350 347 348
f 343 344 345
f 345 344 348
f 344 351 348
f 348 351 350
f 337 347 338
f 338 347 349
f 353 338 352
f 352 338 349
f 352 355 354
f 354 355 356
f 352 349 355
f 355 349 350
f 352 354 353
f 353 354 334
f 353 334 339
f 339 334 321
f 339 336 353
f 353 336 338
f 329 330 344
f 344 330 351
f 356 351 333
f 333 351 330
f 356 355 351
f 351 355 350
f 354 356 328
f 328 356 333
f 328 325 354
f 354 325 334
f 309 315 319
f 319 315 320
f 320 340 321
f 321 340 339
f 320 315 340
f 340 315 314
f 137 136 261
f 261 136 259
f 140 166 141
f 141 166 165
f 172 171 195
f 195 171 196
f 171 174 196
f 196 174 190
f 178 177 264
f 264 177 187
f 172 195 140
f 140 195 166
f 137 261 262
f 262 261 275
f 178 264 141
f 141 264 138
f 262 177 213
f 213 177 176
f 136 174 259
f 259 174 173
f 358 359 357
f 357 359 360
f 362 363 361
f 361 363 364
f 361 364 365
f 365 364 366
f 367 368 370
f 370 368 369
f 76 371 247
f 247 371 372
f 373 374 362
f 362 374 363
f 376 377 375
f 375 377 378
f 289 229 380
f 380 229 379
f 381 379 263
f 263 379 229
f 383 384 382
f 382 384 385
f 386 368 374
f 374 368 363
f 76 289 371
f 371 289 380
f 377 376 359
f 359 376 387
f 388 386 360
f 360 386 374
f 389 383 366
f 366 383 390
f 392 393 391
f 391 393 394
f 383 382 390
f 390 382 395
f 396 365 390
f 390 365 366
f 389 366 367
f 367 366 364
f 357 397 358
f 358 397 398
f 373 399 357
f 357 399 397
f 389 367 400
f 400 367 370
f 382 385 375
f 375 385 372
f 357 360 373
f 373 360 374
f 361 401 362
f 362 401 402
f 387 388 359
f 359 388 360
f 363 368 364
f 364 368 367
f 358 398 403
f 403 398 404
f 396 392 405
f 405 392 391
f 392 395 393
f 393 395 378
f 393 403 394
f 394 403 404
f 375 378 382
f 382 378 395
f 365 396 406
f 406 396 405
f 362 402 373
f 373 402 399
f 271 270 400
f 400 270 384
f 401 361 406
f 406 361 365
f 381 369 386
f 386 369 368
f 392 396 395
f 395 396 390
f 393 378 403
f 403 378 377
f 403 377 358
f 358 377 359
f 406 405 408
f 408 405 407
f 406 408 401
f 401 408 409
f 401 409 402
f 402 409 410
f 402 410 399
f 399 410 411
f 405 391 407
f 407 391 412
f 391 394 412
f 412 394 413
f 394 404 413
f 413 404 414
f 415 416 412
f 412 416 407
f 418 419 417
f 417 419 420
f 421 422 418
f 418 422 419
f 419 422 424
f 424 422 423
f 425 426 424
f 424 426 427
f 423 428 424
f 424 428 425
f 427 420 424
f 424 420 419
f 420 429 417
f 417 429 430
f 423 422 431
f 431 422 421
f 421 409 431
f 431 409 408
f 421 432 409
f 409 432 410
f 418 433 421
f 421 433 432
f 434 433 417
f 417 433 418
f 431 416 423
f 423 416 428
f 416 431 407
f 407 431 408
f 435 434 430
f 430 434 417
f 433 434 436
f 436 434 437
f 434 435 437
f 437 435 438
f 436 437 439
f 439 437 440
f 439 441 436
f 436 441 442
f 438 443 437
f 437 443 440
f 436 442 433
f 433 442 432
f 432 442 410
f 410 442 411
f 435 430 445
f 445 430 444
f 430 429 444
f 444 429 446
f 425 428 447
f 447 428 416
f 426 425 448
f 448 425 447
f 416 415 447
f 447 415 449
f 447 449 448
f 448 449 450
f 451 452 448
f 448 452 426
f 446 452 444
f 444 452 451
f 399 411 397
f 397 411 453
f 398 454 404
f 404 454 414
f 454 398 453
f 453 398 397
f 453 441 454
f 454 441 455
f 441 439 455
f 455 439 456
f 454 455 414
f 414 455 457
f 441 453 442
f 442 453 411
f 458 413 457
f 457 413 414
f 458 415 413
f 413 415 412
f 458 459 415
f 415 459 449
f 459 458 460
f 460 458 457
f 461 459 462
f 462 459 460
f 455 456 457
f 457 456 460
f 456 463 460
f 460 463 462
f 459 461 449
f 449 461 450
f 465 450 464
f 464 450 461
f 464 467 466
f 466 467 468
f 464 461 467
f 467 461 462
f 464 466 465
f 465 466 445
f 465 445 451
f 451 445 444
f 451 448 465
f 465 448 450
f 439 440 456
f 456 440 463
f 468 463 443
f 443 463 440
f 468 467 463
f 463 467 462
f 466 468 438
f 438 468 443
f 438 435 466
f 466 435 445
f 420 427 429
f 429 427 446
f 446 427 452
f 452 427 426
f 370 369 188
f 188 369 186
f 371 376 372
f 372 376 375
f 380 379 387
f 387 379 388
f 379 381 388
f 388 381 386
f 385 384 278
f 278 384 270
f 380 387 371
f 371 387 376
f 400 370 271
f 271 370 188
f 385 278 372
f 372 278 247
f 400 384 389
f 389 384 383
f 369 381 186
f 186 381 263
f 221 271 144
f 144 271 188
f 221 19 207
f 207 19 22
f 19 18 22
f 22 18 23
f 18 219 23
f 23 219 208
f 469 470 472
f 472 470 471
f 474 475 473
f 473 475 476
f 473 476 477
f 477 476 478
f 480 481 479
f 479 481 482
f 483 484 474
f 474 484 475
f 486 487 485
f 485 487 488
f 489 490 77
f 77 490 142
f 491 489 248
f 248 489 77
f 493 494 492
f 492 494 495
f 496 480 484
f 484 480 475
f 486 497 487
f 487 497 471
f 498 496 472
f 472 496 484
f 499 493 478
f 478 493 500
f 501 502 504
f 504 502 503
f 493 492 500
f 500 492 505
f 506 477 500
f 500 477 478
f 499 478 479
f 479 478 476
f 469 507 470
f 470 507 508
f 483 509 469
f 469 509 507
f 479 482 499
f 499 482 510
f 492 495 485
f 485 495 511
f 483 469 484
f 484 469 472
f 473 512 474
f 474 512 513
f 497 498 471
f 471 498 472
f 475 480 476
f 476 480 479
f 470 508 514
f 514 508 515
f 506 502 516
f 516 502 501
f 503 502 488
f 488 502 505
f 514 515 503
f 503 515 504
f 485 488 492
f 492 488 505
f 477 506 517
f 517 506 516
f 474 513 483
f 483 513 509
f 510 292 494
f 494 292 164
f 512 473 517
f 517 473 477
f 491 481 496
f 496 481 480
f 502 506 505
f 505 506 500
f 503 488 514
f 514 488 487
f 514 487 470
f 470 487 471
f 517 516 519
f 519 516 518
f 517 519 512
f 512 519 520
f 512 520 513
f 513 520 521
f 513 521 509
f 509 521 522
f 516 501 518
f 518 501 523
f 501 504 523
f 523 504 524
f 524 504 525
f 525 504 515
f 526 527 523
f 523 527 518
f 529 530 528
f 528 530 531
f 532 533 529
f 529 533 530
f 530 533 535
f 535 533 534
f 536 537 535
f 535 537 538
f 534 539 535
f 535 539 536
f 538 531 535
f 535 531 530
f 540 541 531
f 531 541 528
f 533 532 534
f 534 532 542
f 532 520 542
f 542 520 519
f 532 543 520
f 520 543 521
f 529 544 532
f 532 544 543
f 544 529 545
f 545 529 528
f 534 542 539
f 539 542 527
f 527 542 518
f 518 542 519
f 541 546 528
f 528 546 545
f 547 544 548
f 548 544 545
f 546 549 545
f 545 549 548
f 550 547 551
f 551 547 548
f 547 550 553
f 553 550 552
f 549 554 548
f 548 554 551
f 544 547 543
f 543 547 553
f 543 553 521
f 521 553 522
f 546 541 556
f 556 541 555
f 541 540 555
f 555 540 557
f 536 539 558
f 558 539 527
f 537 536 559
f 559 536 558
f 527 526 558
f 558 526 560
f 559 558 561
f 561 558 560
f 559 562 537
f 537 562 563
f 557 563 555
f 555 563 562
f 509 522 507
f 507 522 564
f 508 565 515
f 515 565 525
f 565 508 564
f 564 508 507
f 564 552 565
f 565 552 566
f 552 550 566
f 566 550 567
f 565 566 525
f 525 566 568
f 564 522 552
f 552 522 553
f 569 524 568
f 568 524 525
f 569 526 524
f 524 526 523
f 570 560 569
f 569 560 526
f 570 569 571
f 571 569 568
f 572 570 573
f 573 570 571
f 566 567 568
f 568 567 571
f 567 574 571
f 571 574 573
f 570 572 560
f 560 572 561
f 576 561 575
f 575 561 572
f 575 578 577
f 577 578 579
f 575 572 578
f 578 572 573
f 575 577 576
f 576 577 556
f 576 556 562
f 562 556 555
f 562 559 576
f 576 559 561
f 550 551 567
f 567 551 574
f 579 574 554
f 554 574 551
f 579 578 574
f 574 578 573
f 579 554 577
f 577 554 549
f 549 546 577
f 577 546 556
f 531 538 540
f 540 538 557
f 557 538 563
f 563 538 537
f 481 294 482
f 482 294 293
f 580 486 511
f 511 486 485
f 490 489 497
f 497 489 498
f 489 491 498
f 498 491 496
f 163 495 164
f 164 495 494
f 580 490 486
f 486 490 497
f 482 293 510
f 510 293 292
f 495 163 511
f 511 163 199
f 494 493 510
f 510 493 499
f 481 491 294
f 294 491 248
f 582 583 581
f 581 583 584
f 586 587 585
f 585 587 588
f 585 588 589
f 589 588 590
f 592 593 591
f 591 593 594
f 595 596 598
f 598 596 597
f 599 600 586
f 586 600 587
f 601 602 604
f 604 602 603
f 605 606 608
f 608 606 607
f 609 607 200
f 200 607 606
f 610 611 613
f 613 611 612
f 600 614 587
f 587 614 592
f 596 605 597
f 597 605 608
f 602 615 603
f 603 615 583
f 616 614 584
f 584 614 600
f 611 618 617
f 617 618 590
f 620 621 619
f 619 621 622
f 610 623 611
f 611 623 618
f 624 589 618
f 618 589 590
f 617 590 591
f 591 590 588
f 581 625 582
f 582 625 626
f 599 627 581
f 581 627 625
f 591 594 617
f 617 594 628
f 601 610 598
f 598 610 613
f 581 584 599
f 599 584 600
f 585 629 586
f 586 629 630
f 615 616 583
f 583 616 584
f 587 592 588
f 588 592 591
f 582 626 631
f 631 626 632
f 624 620 633
f 633 620 619
f 621 620 604
f 604 620 623
f 631 632 621
f 621 632 622
f 610 601 623
f 623 601 604
f 589 624 634
f 634 624 633
f 586 630 599
f 599 630 627
f 203 202 628
f 628 202 612
f 629 585 634
f 634 585 589
f 609 593 614
f 614 593 592
f 620 624 623
f 623 624 618
f 631 621 603
f 603 621 604
f 582 631 583
f 583 631 603
f 634 633 636
f 636 633 635
f 634 636 629
f 629 636 637
f 629 637 630
f 630 637 638
f 630 638 627
f 627 638 639
f 633 619 635
f 635 619 640
f 619 622 640
f 640 622 641
f 641 622 642
f 642 622 632
f 644 635 643
f 643 635 640
f 645 646 648
f 648 646 647
f 649 650 646
f 646 650 647
f 647 650 652
f 652 650 651
f 652 653 655
f 655 653 654
f 651 656 652
f 652 656 653
f 655 648 652
f 652 648 647
f 648 657 645
f 645 657 658
f 650 649 651
f 651 649 659
f 649 637 659
f 659 637 636
f 649 660 637
f 637 660 638
f 661 660 646
f 646 660 649
f 662 661 645
f 645 661 646
f 651 659 656
f 656 659 644
f 644 659 635
f 635 659 636
f 663 662 658
f 658 662 645
f 664 661 665
f 665 661 662
f 663 666 662
f 662 666 665
f 667 664 668
f 668 664 665
f 664 667 670
f 670 667 669
f 666 671 665
f 665 671 668
f 661 664 660
f 660 664 670
f 660 670 638
f 638 670 639
f 658 672 663
f 663 672 673
f 658 657 672
f 672 657 674
f 653 656 675
f 675 656 644
f 653 675 654
f 654 675 676
f 675 644 677
f 677 644 643
f 676 675 678
f 678 675 677
f 679 680 676
f 676 680 654
f 674 680 672
f 672 680 679
f 627 639 625
f 625 639 681
f 626 682 632
f 632 682 642
f 681 682 625
f 625 682 626
f 669 683 681
f 681 683 682
f 667 684 669
f 669 684 683
f 682 683 642
f 642 683 685
f 681 639 669
f 669 639 670
f 686 641 685
f 685 641 642
f 641 686 640
f 640 686 643
f 686 687 643
f 643 687 677
f 687 686 688
f 688 686 685
f 689 687 690
f 690 687 688
f 683 684 685
f 685 684 688
f 684 691 688
f 688 691 690
f 687 689 677
f 677 689 678
f 693 678 692
f 692 678 689
f 692 695 694
f 694 695 696
f 692 689 695
f 695 689 690
f 692 694 693
f 693 694 673
f 693 673 679
f 679 673 672
f 679 676 693
f 693 676 678
f 684 667 691
f 691 667 668
f 696 691 671
f 671 691 668
f 696 695 691
f 691 695 690
f 694 696 666
f 666 696 671
f 666 663 694
f 694 663 673
f 648 655 657
f 657 655 674
f 674 655 680
f 680 655 654
f 593 162 594
f 594 162 290
f 598 597 601
f 601 597 602
f 615 608 616
f 616 608 607
f 607 609 616
f 616 609 614
f 697 595 613
f 613 595 598
f 597 608 602
f 602 608 615
f 594 290 628
f 628 290 203
f 628 612 617
f 617 612 611
f 593 609 162
f 162 609 200
f 105 29 698
f 698 29 699
f 268 126 701
f 701 126 700
f 126 125 700
f 700 125 702
f 252 703 250
f 250 703 704
f 32 268 705
f 705 268 701
f 288 105 706
f 706 105 698
f 29 32 699
f 699 32 705
f 707 251 706
f 706 251 288
f 250 704 125
f 125 704 702
f 703 252 707
f 707 252 251
f 706 708 707
f 707 708 709
f 707 709 703
f 703 709 710
f 703 710 704
f 704 710 711
f 704 711 702
f 702 711 712
f 706 698 708
f 708 698 713
f 698 699 713
f 713 699 714
f 699 705 714
f 714 705 715
f 717 708 716
f 716 708 713
f 719 720 718
f 718 720 721
f 722 723 719
f 719 723 720
f 724 725 723
f 723 725 720
f 724 726 725
f 725 726 727
f 728 721 725
f 725 721 720
f 721 728 729
f 729 728 730
f 729 731 721
f 721 731 718
f 724 723 732
f 732 723 722
f 722 710 732
f 732 710 709
f 722 733 710
f 710 733 711
f 719 734 722
f 722 734 733
f 734 719 735
f 735 719 718
f 724 732 726
f 726 732 717
f 717 732 708
f 708 732 709
f 731 736 718
f 718 736 735
f 737 734 738
f 738 734 735
f 736 739 735
f 735 739 738
f 740 737 741
f 741 737 738
f 737 740 743
f 743 740 742
f 739 744 738
f 738 744 741
f 734 737 733
f 733 737 743
f 733 743 711
f 711 743 712
f 736 731 746
f 746 731 745
f 731 729 745
f 745 729 730
f 727 726 747
f 747 726 717
f 748 727 749
f 749 727 747
f 747 717 750
f 750 717 716
f 749 747 751
f 751 747 750
f 749 752 748
f 748 752 753
f 730 753 745
f 745 753 752
f 728 725 748
f 748 725 727
f 730 728 753
f 753 728 748
f 700 702 754
f 754 702 712
f 705 701 715
f 715 701 755
f 754 755 700
f 700 755 701
f 742 756 754
f 754 756 755
f 740 757 742
f 742 757 756
f 755 756 715
f 715 756 758
f 754 712 742
f 742 712 743
f 759 714 758
f 758 714 715
f 714 759 713
f 713 759 716
f 759 760 716
f 716 760 750
f 760 759 761
f 761 759 758
f 762 760 763
f 763 760 761
f 756 757 758
f 758 757 761
f 757 764 761
f 761 764 763
f 760 762 750
f 750 762 751
f 766 751 765
f 765 751 762
f 767 765 769
f 769 765 768
f 765 762 768
f 768 762 763
f 765 767 766
f 766 767 746
f 766 746 752
f 752 746 745
f 752 749 766
f 766 749 751
f 757 740 764
f 764 740 741
f 769 764 744
f 744 764 741
f 769 768 764
f 764 768 763
f 767 769 739
f 739 769 744
f 739 736 767
f 767 736 746
f 219 217 208
f 208 217 209
f 209 217 210
f 210 217 193
f 198 580 199
f 199 580 511
f 76 75 289
f 289 75 272
f 277 207 291
f 291 207 184
f 290 183 203
f 203 183 84
f 490 580 142
f 142 580 198
f 142 198 143
f 143 198 197
f 149 276 72
f 72 276 73
f 104 103 279
f 279 103 770
f 770 596 279
f 279 596 595
f 605 596 771
f 771 596 770
f 771 770 772
f 772 770 103
f 772 103 773
f 773 103 102
f 155 774 101
f 101 774 102
f 773 102 97
f 97 102 774
f 775 773 100
f 100 773 97
f 773 775 772
f 772 775 776
f 772 776 771
f 771 776 777
f 200 606 197
f 197 606 777
f 189 71 778
f 778 71 74
f 97 774 98
f 98 774 155
f 183 161 184
f 184 161 291
f 777 276 197
f 197 276 143
f 777 606 771
f 771 606 605
f 613 612 697
f 697 612 202
f 595 697 279
f 279 697 202
f 73 276 776
f 776 276 777
f 776 775 73
f 73 775 74
f 100 778 775
f 775 778 74
f 778 100 189
f 189 100 99
f 245 242 99
f 99 242 189
f 131 33 256
f 28 1 95
f 95 1 62
f 27 2 28
f 28 2 1
f 265 115 266
f 266 115 114
f 95 62 69
f 69 62 64
f 62 61 64
f 64 61 65
f 61 13 65
f 65 13 130
f 13 12 130
f 130 12 14
f 31 11 32
f 32 11 268
f 15 12 31
f 31 12 11
f 31 30 15
f 15 30 231
f 30 106 231
f 231 106 232
f 287 237 106
f 106 237 232
f 254 90 287
f 287 90 237
f 253 44 254
f 254 44 90
f 253 249 44
f 44 249 7
f 267 127 268
f 268 127 126
f 10 3 241
f 241 3 116
f 3 2 116
f 116 2 114
f 2 27 114
f 114 27 266
f 27 26 266
f 266 26 113
f 26 286 113
f 113 286 110
f 286 243 110
f 110 243 255
f 243 242 255
f 255 242 256
f 242 245 256
f 256 245 131
f 245 244 131
f 131 244 132
f 265 37 115
f 115 37 41
f 41 37 42
f 42 37 40
f 92 91 40
f 40 91 42
f 236 233 92
f 92 233 91
f 191 194 236
f 236 194 233
f 258 285 244
f 244 285 132
f 257 55 258
f 258 55 285
f 257 154 201
f 201 154 185
f 56 201 204
f 204 201 180
f 55 257 56
f 56 257 201
f 204 85 56
f 56 85 52
f 86 122 53
f 53 122 79
f 212 215 86
f 86 215 122
f 211 216 212
f 212 216 215
f 192 280 211
f 211 280 216
f 191 240 192
f 192 240 280
f 249 124 7
f 7 124 8
f 124 127 8
f 8 127 241
f 127 267 241
f 241 267 10
f 10 267 9
f 9 267 11
