v 0.0487305223941803 0.07813967764377594 0.5701192021369934
v 0.06004717946052551 0.07396144419908524 0.5701943039894104
v 0.05306167155504227 0.07026022672653198 0.5785000324249268
v 0.043165531009435654 0.07454179227352142 0.5775102376937866
v 0.07335279881954193 0.06715686619281769 0.5882709622383118
v 0.07958671450614929 0.07275907695293427 0.59662264585495
v 0.06341446191072464 0.07143869996070862 0.6027994751930237
v 0.06070007383823395 0.06602662056684494 0.5950065851211548
v 0.03810808062553406 0.07486924529075623 0.5834885239601135
v 0.04667437821626663 0.06905678659677505 0.584425151348114
v 0.0371406190097332 0.0807877853512764 0.585940957069397
v 0.029428699985146523 0.08909168839454651 0.5871706604957581
v 0.03015853650867939 0.08214017748832703 0.5846813321113586
v 0.022328641265630722 0.09289718419313431 0.586552083492279
v 0.035801660269498825 0.09871427714824677 0.5871896743774414
v 0.024579579010605812 0.1009703055024147 0.5822864770889282
v 0.044061049818992615 0.11230474710464478 0.5660278797149658
v 0.047669168561697006 0.11319977790117264 0.5537123680114746
v 0.03206828609108925 0.11120147258043289 0.5524150729179382
v 0.02999078296124935 0.109697625041008 0.565132200717926
v 0.04262395203113556 0.10772774368524551 0.5354108214378357
v 0.0357825942337513 0.10978615283966064 0.5445612668991089
v 0.05153369531035423 0.11291839927434921 0.5458416938781738
v 0.056787654757499695 0.11075561493635178 0.5374485850334167
v 0.057055532932281494 0.08276432752609253 0.5572797060012817
v 0.06803293526172638 0.0807742178440094 0.5562093257904053
v 0.06559272855520248 0.07884824275970459 0.5609040856361389
v 0.0549689456820488 0.08156222850084305 0.5619951486587524
v 0.03843590244650841 0.08650866895914078 0.5933109521865845
v 0.045033007860183716 0.09286817163228989 0.5941332578659058
v 0.03945893421769142 0.08896423131227493 0.5897321701049805
v 0.0373707041144371 0.08171264082193375 0.5905664563179016
v 0.09407401084899902 0.0747290849685669 0.5481539964675903
v 0.1059170737862587 0.08051668852567673 0.5504587292671204
v 0.10524360835552216 0.08095379173755646 0.556300163269043
v 0.09455665200948715 0.07586400955915451 0.5528396964073181
v 0.0981527641415596 0.0778636485338211 0.5806978940963745
v 0.10475770384073257 0.08343981951475143 0.5750219225883484
v 0.10894955694675446 0.09280093014240265 0.5842392444610596
v 0.10056313127279282 0.09093189239501953 0.588748037815094
v 0.08967630565166473 0.07425098121166229 0.5893287658691406
v 0.09238885343074799 0.0853395015001297 0.5953495502471924
v 0.0803045704960823 0.083339624106884 0.6015987992286682
v 0.06333871930837631 0.08024226129055023 0.6065760254859924
v 0.10740150511264801 0.08242985606193542 0.537894070148468
v 0.09909143298864365 0.07797349244356155 0.534454345703125
v -0.01795496605336666 0.12251567840576172 0.5697065591812134
v -0.017164239659905434 0.12116509675979614 0.5640738010406494
v -0.01645749621093273 0.11420869827270508 0.5680205225944519
v -0.01663481630384922 0.11696291714906693 0.5727128386497498
v 0.10078252851963043 0.09663352370262146 0.5254390835762024
v 0.09935391694307327 0.10658303648233414 0.5262761116027832
v 0.1065014898777008 0.10546761006116867 0.5260435938835144
v 0.10803654789924622 0.09627389907836914 0.5271273851394653
v 0.09112705290317535 0.09690620005130768 0.5233816504478455
v 0.08935429155826569 0.10742964595556259 0.5271449089050293
v -0.007477975450456142 0.12725523114204407 0.5734537839889526
v -0.012345016933977604 0.1264776736497879 0.5745794773101807
v -0.009635793045163155 0.12179580330848694 0.5766522884368896
v -0.00437253899872303 0.12187892943620682 0.5743947625160217
v 0.0336393266916275 0.0788317620754242 0.5791863203048706
v 0.038737934082746506 0.07930349558591843 0.5711526870727539
v 0.010547668673098087 0.08365003764629364 0.5786660313606262
v 0.024148855358362198 0.08121154457330704 0.573973536491394
v 0.023550093173980713 0.08185449242591858 0.5814481973648071
v 0.013351081870496273 0.08553843945264816 0.5842329263687134
v 0.03466789424419403 0.08358387649059296 0.5522797107696533
v 0.04641420766711235 0.08391938358545303 0.5535460114479065
v 0.04339221492409706 0.08366572856903076 0.5592811107635498
v 0.030227813869714737 0.08267132937908173 0.5596581101417542
v 0.050707656890153885 0.08109280467033386 0.5404324531555176
v 0.03875279799103737 0.08134914934635162 0.5402398705482483
v 0.04242463409900665 0.07949583977460861 0.5328837037086487
v 0.050406601279973984 0.07884291559457779 0.5343233942985535
v 0.015195420943200588 0.08306021988391876 0.5433271527290344
v 0.006132490001618862 0.08631303161382675 0.5432992577552795
v 0.007140521891415119 0.09018348902463913 0.537529468536377
v 0.016831424087285995 0.08426224440336227 0.5391379594802856
v 0.11352543532848358 0.10546103119850159 0.5262801647186279
v 0.11477095633745193 0.09632796794176102 0.5296461582183838
v 0.05210445076227188 0.10023966431617737 0.518248975276947
v 0.058013319969177246 0.09253795444965363 0.5134432911872864
v 0.04733697697520256 0.08942107856273651 0.5102155208587646
v 0.04429183527827263 0.09803599119186401 0.516196608543396
v 0.0962267816066742 0.11422397196292877 0.532538115978241
v 0.10369648784399033 0.11416129767894745 0.5302301645278931
v -0.0030897234100848436 0.12689578533172607 0.5690401196479797
v -0.0011110631749033928 0.12167271971702576 0.5692698955535889
v 0.07962801307439804 0.09470541030168533 0.5990794897079468
v 0.06199011206626892 0.08910515904426575 0.6050919890403748
v 0.09207704663276672 0.09840038418769836 0.5927098989486694
v 0.10012336820363998 0.10193142294883728 0.5876241326332092
v 0.1080528274178505 0.10423797369003296 0.5859919786453247
v 0.019934527575969696 0.08089344203472137 0.5682116746902466
v 0.04512516036629677 0.08168124407529831 0.564605176448822
v 0.05876200646162033 0.08270885050296783 0.55272376537323
v 0.06358660757541656 0.07466871291399002 0.5237932205200195
v 0.07410719245672226 0.07446762174367905 0.5254574418067932
v 0.06838726252317429 0.07438142597675323 0.5342751145362854
v 0.06033385172486305 0.07526861131191254 0.5309097766876221
v 0.058499276638031006 0.08283136785030365 0.5124188661575317
v 0.05540795251727104 0.07707466930150986 0.5165530443191528
v 0.046140797436237335 0.07653515040874481 0.515243411064148
v 0.0484946146607399 0.08112082630395889 0.5108082294464111
v 0.0399528369307518 0.08957716077566147 0.599683940410614
v 0.0505230538547039 0.09553959965705872 0.5982033014297485
v 0.1015191450715065 0.08656392246484756 0.5282425284385681
v 0.1081443727016449 0.08743911981582642 0.532024621963501
v 0.11575310677289963 0.09012003242969513 0.5342094898223877
v 0.08133397996425629 0.07664881646633148 0.5535595417022705
v 0.09499835222959518 0.07637269794940948 0.5563046932220459
v 0.09411878138780594 0.07543718069791794 0.56128990650177
v 0.0806678906083107 0.0765867829322815 0.5564727783203125
v 0.07228126376867294 0.06901279091835022 0.5728000402450562
v 0.08490095287561417 0.06958317756652832 0.5772780776023865
v 0.06269758939743042 0.06572452187538147 0.5817576050758362
v 0.10615987330675125 0.08177738636732101 0.5645982623100281
v 0.11498107016086578 0.08303076028823853 0.5582170486450195
v 0.11456786096096039 0.08470887690782547 0.5670077800750732
v 0.11591777205467224 0.08382415771484375 0.5485080480575562
v 0.11623596400022507 0.08601544797420502 0.5398771166801453
v 0.11150846630334854 0.11698116362094879 0.5286281108856201
v 0.11308842152357101 0.08795581758022308 0.5747672319412231
v 0.0520622655749321 0.06657656282186508 0.5976114869117737
v 0.04408474266529083 0.06730479001998901 0.5989651083946228
v 0.04158078134059906 0.06900911033153534 0.5918328762054443
v 0.04801458120346069 0.06785063445568085 0.5903505086898804
v 0.014712934382259846 0.09817926585674286 0.5851456522941589
v 0.012933469377458096 0.09126398712396622 0.586784303188324
v 0.023661280050873756 0.08595819771289825 0.5869700312614441
v 0.08453017473220825 0.07367001473903656 0.5418232679367065
v 0.08928297460079193 0.07612196356058121 0.5305299758911133
v 0.006892435252666473 0.08489681035280228 0.5727363228797913
v 0.000557023799046874 0.12086006253957748 0.5734924674034119
v -0.0038125242572277784 0.11939259618520737 0.5774378776550293
v 0.007730972021818161 0.10997842997312546 0.580087423324585
v 0.010699355974793434 0.11280038952827454 0.5751845240592957
v 0.0009531552204862237 0.09475646167993546 0.5661556124687195
v 0.0018077919958159328 0.09113701432943344 0.5720421075820923
v -0.00019592978060245514 0.09575314074754715 0.5706363320350647
v -0.0008519438561052084 0.09862402826547623 0.5650225877761841
v 0.01263550017029047 0.08769179880619049 0.5309614539146423
v 0.02084130421280861 0.08294275403022766 0.5320671200752258
v 0.01552534569054842 0.10457750409841537 0.5635300874710083
v 0.01951945759356022 0.105458565056324 0.5745357275009155
v 0.028256434947252274 0.10742433369159698 0.5744897723197937
v 0.037800610065460205 0.08277764916419983 0.5455719232559204
v 0.026856908574700356 0.08225742727518082 0.5436601638793945
v 0.027973411604762077 0.08205225318670273 0.5396454930305481
v 0.0163966603577137 0.08194226771593094 0.5646727085113525
v 0.006106884218752384 0.08543137460947037 0.5664811134338379
v 0.010814262554049492 0.08455434441566467 0.5611796975135803
v 0.020452409982681274 0.08286843448877335 0.5594830513000488
v 0.0700630471110344 0.09550763666629791 0.5162120461463928
v 0.0709187462925911 0.08408799022436142 0.5146421194076538
v -0.016154779121279716 0.12457235157489777 0.5734220743179321
v -0.013873851858079433 0.11939730495214462 0.5760474801063538
v 0.04924339801073074 0.08314133435487747 0.5469529628753662
v 0.04119037464261055 0.10851874947547913 0.5748505592346191
v 0.060592059046030045 0.08195749670267105 0.5476810932159424
v 0.0285557359457016 0.09792543947696686 0.525637149810791
v 0.026797421276569366 0.09257203340530396 0.5218446850776672
v 0.02149895578622818 0.0930894985795021 0.5230567455291748
v 0.023724636062979698 0.09800802916288376 0.5242085456848145
v -0.008029122836887836 0.11013533174991608 0.5599652528762817
v -0.011757148429751396 0.10954973846673965 0.5644675493240356
v -0.014613826759159565 0.11294853687286377 0.5621952414512634
v -0.010321584530174732 0.11334063857793808 0.5587277412414551
v 0.0032385981176048517 0.09160980582237244 0.5777680277824402
v 0.006068198010325432 0.09304853528738022 0.5833207368850708
v 0.0012374661164358258 0.09989851713180542 0.5804853439331055
v -0.00021827616728842258 0.09749610722064972 0.5754866600036621
v 0.008124656975269318 0.09922957420349121 0.5844245553016663
v 0.004410621244460344 0.10512028634548187 0.5820309519767761
v -0.0021507779601961374 0.11311738193035126 0.5591714382171631
v 0.003280117642134428 0.11740586161613464 0.5627959370613098
v 0.00946271512657404 0.10947149246931076 0.5630661845207214
v 0.002804301679134369 0.1049712523818016 0.5621689558029175
v 0.07086662203073502 0.11406822502613068 0.5398557186126709
v 0.07460668683052063 0.11019325256347656 0.5302679538726807
v 0.06069546192884445 0.1067887619137764 0.5276188850402832
v 0.047734178602695465 0.10382508486509323 0.5248087048530579
v 0.03571208566427231 0.09921152144670486 0.5235962271690369
v 0.031458016484975815 0.10539109259843826 0.5332270860671997
v 0.06462624669075012 0.10359100252389908 0.521510660648346
v 0.004710926674306393 0.10039824992418289 0.5609209537506104
v 0.011684867553412914 0.10322755575180054 0.5659980773925781
v 0.009791014716029167 0.10321268439292908 0.5620589256286621
v 0.06216062605381012 0.07921424508094788 0.541005551815033
v -0.007343192584812641 0.11686160415410995 0.5781447291374207
v 0.09681717306375504 0.11803552508354187 0.5744077563285828
v 0.09687554836273193 0.12183673679828644 0.5621093511581421
v 0.08845362067222595 0.11984051764011383 0.5636897087097168
v 0.08820199221372604 0.115102618932724 0.5767841935157776
v -0.012787641026079655 0.11036010086536407 0.571263313293457
v -0.011415043845772743 0.11322996020317078 0.5761434435844421
v 0.022172093391418457 0.08253157138824463 0.525784432888031
v 0.01593152992427349 0.08684296905994415 0.5262213945388794
v 0.016708020120859146 0.08828730136156082 0.5233447551727295
v 0.021946560591459274 0.08321928232908249 0.5208778977394104
v 0.07781830430030823 0.10763932764530182 0.526136040687561
v 0.04083758965134621 0.08746729046106339 0.5082233548164368
v 0.039023444056510925 0.09561358392238617 0.5129286050796509
v 0.08686839789152145 0.11316020786762238 0.5330376625061035
v 0.08369721472263336 0.11711755394935608 0.5412899255752563
v 0.09314095973968506 0.11912502348423004 0.5417534708976746
v 0.02005755342543125 0.10565385222434998 0.5436914563179016
v 0.06620500236749649 0.11561234295368195 0.5469285249710083
v 0.08025679737329483 0.11805924773216248 0.548014223575592
v 0.09142107516527176 0.12047089636325836 0.5488875508308411
v 0.09943783283233643 0.12269624322652817 0.5487768054008484
v 0.10055515915155411 0.12076516449451447 0.540977954864502
v 0.002853549085557461 0.11949820071458817 0.5678429007530212
v -0.0001815378200262785 0.11962194740772247 0.5637160539627075
v 0.10884655267000198 0.12411434948444366 0.5395295023918152
v 0.10736097395420074 0.1255224049091339 0.5485360622406006
v 0.07711486518383026 0.11827623844146729 0.5566476583480835
v 0.0737089216709137 0.11726193875074387 0.5665522813796997
v 0.06363709270954132 0.11575647443532944 0.5551376938819885
v 0.05907415226101875 0.11463796347379684 0.5650845766067505
v 0.02157621830701828 0.10947959125041962 0.5534143447875977
v -0.005394887179136276 0.13507436215877533 0.5562189817428589
v -0.003603454912081361 0.12354961037635803 0.5585379600524902
v -0.008681805804371834 0.1212516725063324 0.5565356016159058
v -0.007628759369254112 0.13206739723682404 0.553518533706665
v -0.00482124462723732 0.11580342799425125 0.5593867301940918
v -0.0011352843139320612 0.12541882693767548 0.5632639527320862
v 0.05618221312761307 0.10978636890649796 0.5765215754508972
v 0.0010456439340487123 0.09128735959529877 0.5606896281242371
v 0.07241732627153397 0.11029155552387238 0.5799047946929932
v 0.04858880117535591 0.10323558747768402 0.588370680809021
v 0.06062391400337219 0.10237246006727219 0.5912214517593384
v 0.08886178582906723 0.10938254743814468 0.5859887599945068
v 0.07613030076026917 0.10383140295743942 0.5931235551834106
v 0.10559053719043732 0.11335454881191254 0.5817664861679077
v 0.09702233225107193 0.1118016242980957 0.582965612411499
v 0.06362489610910416 0.09778871387243271 0.5992901921272278
v -0.020221497863531113 0.12972229719161987 0.5607855319976807
v -0.017132524400949478 0.1275855302810669 0.5562357902526855
v 0.10477349907159805 0.12036897242069244 0.5736374855041504
v 0.053899966180324554 0.06607672572135925 0.5874496102333069
v 0.07240893691778183 0.07736967504024506 0.5442520380020142
v 0.070773184299469 0.07948274165391922 0.5490061044692993
v 0.0802399069070816 0.07489722222089767 0.5271593332290649
v 0.07551849633455276 0.07415620982646942 0.5377272367477417
v -0.019975503906607628 0.13265813887119293 0.5652245283126831
v 0.005239601247012615 0.09157043695449829 0.5413199067115784
v 0.0067830560728907585 0.09571503847837448 0.5380944609642029
v 0.05398412048816681 0.07069811224937439 0.6047464609146118
v 0.04628340154886246 0.07034987211227417 0.6056523323059082
v 0.04254467785358429 0.0826186016201973 0.6086121201515198
v 0.04464282840490341 0.07578226923942566 0.6095873117446899
v 0.053463712334632874 0.07855300605297089 0.6084555983543396
v 0.05162022262811661 0.08595617115497589 0.6072856783866882
v 0.0815088227391243 0.0763111561536789 0.5511449575424194
v 0.0819278433918953 0.07549839466810226 0.5474608540534973
v 0.08131217211484909 0.09611142426729202 0.5197038054466248
v 0.08150293678045273 0.08469603210687637 0.5184988975524902
v 0.011249084025621414 0.10351161658763885 0.5820353627204895
v 0.017445936799049377 0.10291841626167297 0.5804221034049988
v 0.014537767507135868 0.10686495900154114 0.5767814517021179
v 0.012561378069221973 0.11173928529024124 0.5689396262168884
v 0.00033744540996849537 0.09757117927074432 0.5593393445014954
v 0.004861148074269295 0.09941394627094269 0.56388920545578
v 0.08971524238586426 0.07235467433929443 0.5681349635124207
v 0.07782794535160065 0.07383866608142853 0.5629044771194458
v 0.04304470121860504 0.0715632364153862 0.5876075029373169
v 0.038760993629693985 0.07439088076353073 0.5886790156364441
v 0.024988366290926933 0.08285914361476898 0.5526745319366455
v 0.014571836218237877 0.10235651582479477 0.5454439520835876
v 0.016239387914538383 0.1072995662689209 0.5534489154815674
v 0.014208115637302399 0.08388584107160568 0.5527421236038208
v -0.013855145312845707 0.13803866505622864 0.5667401552200317
v -0.018128084018826485 0.135356605052948 0.5667376518249512
v 0.01508273370563984 0.10670752078294754 0.571302056312561
v 0.030958494171500206 0.07970602065324783 0.5322580933570862
v 0.017520517110824585 0.10221938788890839 0.5400641560554504
v 0.010799293406307697 0.09636417776346207 0.5418155789375305
v 0.04224664345383644 0.08014656603336334 0.5099650621414185
v 0.10551624000072479 0.12386006116867065 0.5616979598999023
v -0.013944770209491253 0.12076953053474426 0.558417558670044
v -0.012840284034609795 0.12761037051677704 0.5532174110412598
v -0.004574202001094818 0.137080118060112 0.55982905626297
v -0.007298365235328674 0.13817566633224487 0.5647904872894287
v 0.09080501645803452 0.08484815061092377 0.5237244367599487
v 0.06932403892278671 0.0805741474032402 0.5520617365837097
v 0.052256807684898376 0.09342406690120697 0.6022317409515381
v 0.041373543441295624 0.08827906847000122 0.6043083071708679
v 0.004754167050123215 0.08671357482671738 0.5526805520057678
v 0.033237967640161514 0.09552544355392456 0.5192371606826782
v 0.025140300393104553 0.10410280525684357 0.5314667820930481
v 0.02269388549029827 0.10479859262704849 0.5285761952400208
v 0.017214715480804443 0.1067538857460022 0.5318179726600647
v 0.009945704601705074 0.1046772226691246 0.5332709550857544
v -0.0065696826204657555 0.14090806245803833 0.5563119053840637
v -0.010258855298161507 0.14302700757980347 0.560032844543457
v -0.01600535586476326 0.14269480109214783 0.5600834488868713
v -0.02012867107987404 0.1393931806087494 0.5604727268218994
v -0.021515989676117897 0.13487154245376587 0.5601229667663574
v -0.006944423541426659 0.13840752840042114 0.5530966520309448
v -0.008375762961804867 0.13534137606620789 0.551439106464386
v -0.012905319221317768 0.13018649816513062 0.5521719455718994
v -0.006124717183411121 0.13918979465961456 0.5495378971099854
v -0.006790085695683956 0.14373816549777985 0.5501304268836975
v -0.017892584204673767 0.14865100383758545 0.5472167134284973
v -0.015599208883941174 0.14731170237064362 0.552139401435852
v -0.014480025507509708 0.14815515279769897 0.5502671003341675
v -0.015417634509503841 0.14995983242988586 0.5460059642791748
v -0.014914832077920437 0.15218645334243774 0.5416893362998962
v -0.01806814596056938 0.15086549520492554 0.5423746705055237
v -0.01074062380939722 0.14623446762561798 0.5516831874847412
v -0.011252746917307377 0.14876750111579895 0.545973002910614
v -0.007895530201494694 0.14671693742275238 0.544657826423645
v -0.007889199070632458 0.14971280097961426 0.540388822555542
v -0.010940705426037312 0.15188027918338776 0.54140704870224
v -0.007861885242164135 0.14527325332164764 0.5487309694290161
v -0.010424480773508549 0.145948588848114 0.5532581210136414
v -0.016123970970511436 0.15189556777477264 0.5386786460876465
v -0.014123250730335712 0.15319591760635376 0.5392794609069824
v -0.011028583161532879 0.1525447815656662 0.5386761426925659
v -0.012053540907800198 0.15168626606464386 0.5360870957374573
v -0.019627857953310013 0.14288179576396942 0.5544091463088989
v -0.019544806331396103 0.1469157338142395 0.5467998385429382
v -0.01868554763495922 0.14814066886901855 0.5412845611572266
v -0.016679218038916588 0.14941124618053436 0.5377121567726135
v -0.019649352878332138 0.14375489950180054 0.5445584058761597
v -0.018174128606915474 0.14547662436962128 0.5404043793678284
v -0.016233593225479126 0.1462222784757614 0.5371311902999878
v -0.01808878220617771 0.1406322717666626 0.5423934459686279
v -0.01672377809882164 0.14303036034107208 0.5391446352005005
v -0.020026158541440964 0.134121373295784 0.5537497401237488
v -0.020832715556025505 0.1375848650932312 0.5553733706474304
v -0.01599743962287903 0.1441129446029663 0.5369364023208618
v -0.01228258479386568 0.14970053732395172 0.5353672504425049
v -0.006291837431490421 0.14349596202373505 0.5446160435676575
v -0.007190871052443981 0.14674098789691925 0.5390098094940186
v -0.006275876425206661 0.1415170133113861 0.5437469482421875
v -0.006809930317103863 0.14452610909938812 0.5380637645721436
v -0.007827089168131351 0.14945310354232788 0.5360639095306396
v -0.008631841279566288 0.15087972581386566 0.5380626916885376
v -0.020285064354538918 0.1307772696018219 0.5578320622444153
v -0.016454020515084267 0.128991037607193 0.5543094873428345
v -0.015485831536352634 0.13155710697174072 0.55129474401474
v -0.014572097919881344 0.13804423809051514 0.5409095883369446
v -0.011463379487395287 0.13203155994415283 0.5493476390838623
v -0.007069491781294346 0.13644394278526306 0.547697901725769
v -0.0072147054597735405 0.13978657126426697 0.5419636964797974
v -0.009711473248898983 0.13808804750442505 0.540838360786438
v -0.008057461120188236 0.14237523078918457 0.5378624200820923
v -0.010337659157812595 0.14118561148643494 0.5378235578536987
v -0.01396177802234888 0.14113162457942963 0.5379378199577332
v -0.009841612540185452 0.14469586312770844 0.5354024767875671
v -0.008374513126909733 0.1473018229007721 0.535459578037262
v -0.012999498285353184 0.14641998708248138 0.5352291464805603
v -0.010843482799828053 0.14307284355163574 0.5360403060913086
v -0.01352387573570013 0.14407216012477875 0.5363369584083557
v -0.011049337685108185 0.11369796842336655 0.5202831029891968
v -0.005708165466785431 0.11159847676753998 0.5196260809898376
v -0.009208465926349163 0.1064823642373085 0.5268945097923279
v -0.01241284143179655 0.10950012505054474 0.5289334654808044
v -0.009058773517608643 0.12196186929941177 0.5303598642349243
v -0.012840225361287594 0.11999860405921936 0.526591420173645
v -0.010715954937040806 0.11796806752681732 0.5344236493110657
v -0.004701334983110428 0.11914606392383575 0.5353449583053589
v -0.0034644848201423883 0.12118387222290039 0.5310025215148926
v 0.00018748408183455467 0.11664506047964096 0.5342041850090027
v -0.00031433720141649246 0.11952832341194153 0.5378873944282532
v -0.006857650354504585 0.11735443770885468 0.5392342805862427
v 0.0022100640926510096 0.1056651920080185 0.5538088083267212
v 0.007608641870319843 0.10917806625366211 0.5514208674430847
v 0.00032824696972966194 0.09032292664051056 0.5441685914993286
v 0.0026051043532788754 0.09254440665245056 0.5416961908340454
v -0.013053149916231632 0.11681395769119263 0.5226830840110779
v -0.013026458211243153 0.11411172151565552 0.531734824180603
v -0.0030018037650734186 0.10242610424757004 0.5264039635658264
v -0.00778226088732481 0.1027199849486351 0.528755247592926
v -0.005417448468506336 0.10471288859844208 0.5245870351791382
v -0.0009586780797690153 0.10576833039522171 0.5244202017784119
v -0.00230865809135139 0.09744279086589813 0.5533925890922546
v -0.0010369752999395132 0.09232538193464279 0.5496158003807068
v -0.0008057625964283943 0.10173191875219345 0.5536441802978516
v 0.002508091041818261 0.10567370802164078 0.5266754031181335
v 0.006274380721151829 0.11073338985443115 0.5287999510765076
v 0.01316200289875269 0.10291961580514908 0.5402973294258118
v 0.009332812391221523 0.09750856459140778 0.5387351512908936
v -0.010960363782942295 0.1139209046959877 0.5380126237869263
v -0.01122272852808237 0.105483777821064 0.5322958827018738
v -0.01266105193644762 0.10905245691537857 0.535149335861206
v 0.004651200491935015 0.11637584120035172 0.5338108539581299
v 0.00351715344004333 0.11360077559947968 0.5293408036231995
v 0.00830917153507471 0.12499982118606567 0.5187728404998779
v 0.0041109127923846245 0.11576879769563675 0.5262899994850159
v 0.0028554860036820173 0.1130092442035675 0.5223004817962646
v 0.008375263772904873 0.12208418548107147 0.5150106549263
v 0.0022890043910592794 0.10941736400127411 0.5270988941192627
v 0.0015071870293468237 0.11886952817440033 0.529036283493042
v -0.003427782328799367 0.12374760210514069 0.5088261365890503
v 0.0023183568846434355 0.12077665328979492 0.5085630416870117
v -0.006268905475735664 0.12693636119365692 0.510586142539978
v 0.012347704730927944 0.10813450813293457 0.5457494258880615
v -0.005470805801451206 0.13180868327617645 0.5190272927284241
v -0.0076088616624474525 0.12942054867744446 0.5137366056442261
v -0.0003612183500081301 0.11116217821836472 0.51994389295578
v 0.00669980701059103 0.12067030370235443 0.5111326575279236
v 0.005897483788430691 0.12810413539409637 0.5209838151931763
v -0.000537278363481164 0.13097622990608215 0.5226078629493713
v 0.007627254351973534 0.13120071589946747 0.5152787566184998
v 0.0029530355241149664 0.13436540961265564 0.5166592001914978
v -0.0016367367934435606 0.13550540804862976 0.513791561126709
v -0.00436723418533802 0.13268212974071503 0.5102466940879822
v -0.004096268676221371 0.12932375073432922 0.5081014037132263
v 0.009445910342037678 0.12873518466949463 0.5133419632911682
v 0.009644124656915665 0.12558811902999878 0.5103481411933899
v 0.006887562572956085 0.12285116314888 0.5083080530166626
v 0.010360106825828552 0.13015201687812805 0.5049970149993896
v 0.009167693555355072 0.13438673317432404 0.5059846639633179
v -0.0024249895941466093 0.14066630601882935 0.49482595920562744
v -0.0023898931685835123 0.13939669728279114 0.5004710555076599
v -5.580531433224678e-05 0.14045560359954834 0.5005125403404236
v 0.00023639854043722153 0.1414104402065277 0.49531272053718567
v -0.000787082826718688 0.13922357559204102 0.5060492157936096
v 0.0009310832247138023 0.1397828757762909 0.5046128630638123
v 0.005065473727881908 0.13819843530654907 0.5057849287986755
v 0.004371282644569874 0.1387542188167572 0.5000343322753906
v 0.008270913735032082 0.13602705299854279 0.5000280141830444
v 0.008676273748278618 0.13769447803497314 0.4948291778564453
v 0.0050862450152635574 0.14086207747459412 0.49478837847709656
v 0.007945394143462181 0.1364937424659729 0.5040104389190674
v 0.001274932874366641 0.14178581535816193 0.49198049306869507
v 7.995287887752056e-05 0.14095258712768555 0.4899013340473175
v 0.004877842962741852 0.13802604377269745 0.5083815455436707
v -0.004278495907783508 0.13513365387916565 0.5076608657836914
v -0.004396433942019939 0.1373491883277893 0.49938979744911194
v -0.003687935648486018 0.13822610676288605 0.49308520555496216
v 0.00010544783435761929 0.13836881518363953 0.4882783889770508
v -0.004547996446490288 0.13383448123931885 0.4972926080226898
v -0.0032347000669687986 0.13531965017318726 0.49172723293304443
v 0.00033664959482848644 0.13569286465644836 0.48828279972076416
v -0.0027614871505647898 0.12993338704109192 0.4954930543899536
v -0.0011098345275968313 0.13190418481826782 0.49051108956336975
v -0.0028177869971841574 0.12655006349086761 0.5053975582122803
v -0.005160156637430191 0.13064751029014587 0.506363034248352
v 0.0003003638703376055 0.13339555263519287 0.4889037013053894
v 0.0047192201018333435 0.1407357156276703 0.48881959915161133
v 0.0040133558213710785 0.13793379068374634 0.4870914816856384
v 0.004826050251722336 0.14108768105506897 0.49059635400772095
v 0.009404187090694904 0.13422591984272003 0.49956250190734863
v 0.00911287497729063 0.13576683402061462 0.4936904311180115
v 0.009844559244811535 0.1316605508327484 0.4984350800514221
v 0.009055481292307377 0.13391423225402832 0.4921231269836426
v 0.00821373425424099 0.13781651854515076 0.4897199273109436
v 0.007729021832346916 0.13912588357925415 0.4906478524208069
v -0.001326360972598195 0.1259414553642273 0.5074830651283264
v 0.0034310852643102407 0.12299172580242157 0.5071843862533569
v 0.0017222443129867315 0.123472660779953 0.5050374269485474
v 0.0016519103664904833 0.12731210887432098 0.49509555101394653
v 0.006152787245810032 0.12349104881286621 0.5052856802940369
v 0.00929507426917553 0.12661711871623993 0.5043385624885559
v 0.009011617861688137 0.12908130884170532 0.49753403663635254
v 0.006111904978752136 0.12721359729766846 0.4957660436630249
v 0.00916413962841034 0.13183042407035828 0.49140802025794983
v 0.006797297857701778 0.1296815425157547 0.49179887771606445
v 0.0022007988300174475 0.12960051000118256 0.4905376732349396
v 0.007715270854532719 0.1342744678258896 0.48778343200683594
v 0.008142881095409393 0.1364542841911316 0.4885990619659424
v 0.0035814850125461817 0.1357899010181427 0.4871579110622406
v 0.006271136924624443 0.1318410038948059 0.4886864423751831
v 0.0028427878860384226 0.1328589916229248 0.48807820677757263
v -0.0044723497703671455 0.11399048566818237 0.5043839812278748
v -0.0025049999821931124 0.10931031405925751 0.5024231672286987
v -0.005357167683541775 0.10324899852275848 0.5071432590484619
v -0.00695501733571291 0.1088535338640213 0.5094804167747498
v 0.003380008740350604 0.1173771470785141 0.5139946937561035
v -0.0007019389886409044 0.1184687688946724 0.511249303817749
v -0.002618584083393216 0.11529532074928284 0.5146729350090027
v 0.0019141554366797209 0.11413736641407013 0.517747163772583
v 0.008365769870579243 0.11505801975727081 0.5132628083229065
v 0.007056356407701969 0.11166737228631973 0.5165079236030579
v 0.005535992793738842 0.11509394645690918 0.5201976895332336
v -0.0007423919159919024 0.11396580934524536 0.5190895199775696
v 0.0076440125703811646 0.10757763683795929 0.5291805863380432
v 0.014046748168766499 0.11041070520877838 0.52769935131073
v -0.003303445177152753 0.11704985797405243 0.5075302124023438
v -0.0055913254618644714 0.11330446600914001 0.5118567943572998
v 0.004321710206568241 0.0977259948849678 0.5095509886741638
v 0.0007057280745357275 0.09829069674015045 0.5117043256759644
v -0.0010094114113599062 0.10081634670495987 0.5051611065864563
v 0.0030929360073059797 0.10079281777143478 0.5050349235534668
v 0.004565882496535778 0.09646930545568466 0.530924379825592
v 0.008345338515937328 0.09261175990104675 0.5279441475868225
v 0.004178605042397976 0.1023370698094368 0.5299487709999084
v 0.008927666582167149 0.10080364346504211 0.5102571845054626
v 0.01283633429557085 0.10699134320020676 0.5132341384887695
v 0.020249158143997192 0.10189580917358398 0.5195491313934326
v 0.01718708872795105 0.09641239047050476 0.5195701122283936
v -0.003948535770177841 0.11071112751960754 0.5183424353599548
v -0.003077527740970254 0.10049501061439514 0.5143342018127441
v -0.005438423715531826 0.10560697317123413 0.5167131423950195
v 0.010766774415969849 0.11270666122436523 0.517217755317688
v 0.008608208037912846 0.10689939558506012 0.5124452710151672
v 0.018567075952887535 0.1176571398973465 0.4988488554954529
v 0.009476766921579838 0.10537715256214142 0.5065072774887085
v 0.006000681780278683 0.10492336004972458 0.5027408003807068
v 0.016737759113311768 0.11627168208360672 0.49522483348846436
v 0.007069041021168232 0.10238548368215561 0.5075458884239197
v 0.010900056920945644 0.10961760580539703 0.5108042359352112
v 0.006466095335781574 0.12430558353662491 0.4932391941547394
v 0.00859845895320177 0.11947266757488251 0.4920608699321747
v 0.006219538860023022 0.12636524438858032 0.4968027174472809
v 0.019662391394376755 0.10853047668933868 0.5237428545951843
v 0.013070381246507168 0.09193918853998184 0.5227149724960327
v 0.010800418443977833 0.1281534731388092 0.501945972442627
v 0.007649174891412258 0.12799222767353058 0.4992784559726715
v 0.00182197499088943 0.10610277205705643 0.502029538154602
v 0.013079171068966389 0.11661035567522049 0.4925456941127777
v 0.018027888610959053 0.12059754878282547 0.5022157430648804
v 0.014940851368010044 0.12496985495090485 0.504213809967041
v 0.020835112780332565 0.12214497476816177 0.49879223108291626
v 0.018064334988594055 0.1268644779920578 0.5002882480621338
v 0.015104309655725956 0.1304541528224945 0.4981866478919983
v 0.012414087541401386 0.13053077459335327 0.4954472780227661
v 0.010709424503147602 0.1290876865386963 0.49285128712654114
v 0.0213412307202816 0.11949378997087479 0.4954526722431183
v 0.0194411464035511 0.11847399175167084 0.49231284856796265
v 0.014949367381632328 0.11839020997285843 0.4910144507884979
v 0.023853637278079987 0.1201605498790741 0.49262329936027527
v 0.025488663464784622 0.1244082897901535 0.495278537273407
v 0.028734728693962097 0.1368604302406311 0.4860413372516632
v 0.0246586911380291 0.13503915071487427 0.48926857113838196
v 0.025682806968688965 0.13448528945446014 0.4898095726966858
v 0.03004467859864235 0.13640591502189636 0.4870455265045166
v 0.02110576629638672 0.1325766146183014 0.4945445954799652
v 0.023476477712392807 0.1325206607580185 0.49372202157974243
v 0.0247255377471447 0.12942178547382355 0.4952980875968933
v 0.029480956494808197 0.1312684714794159 0.49137312173843384
v 0.030147936195135117 0.12555934488773346 0.4902409315109253
v 0.0332903228700161 0.1278400421142578 0.4875219166278839
v 0.03321069851517677 0.13321882486343384 0.4886171817779541
v 0.02680807188153267 0.12564586102962494 0.49436071515083313
v 0.03267422690987587 0.1363365650177002 0.48553597927093506
v 0.03239500895142555 0.13800522685050964 0.48449215292930603
v 0.02254197746515274 0.12890803813934326 0.4966655969619751
v 0.016939081251621246 0.13328395783901215 0.49266737699508667
v 0.022588025778532028 0.13549822568893433 0.4874182343482971
v 0.026577375829219818 0.13758566975593567 0.483649343252182
v 0.03028297796845436 0.13688018918037415 0.48165363073349
v 0.020939044654369354 0.13350901007652283 0.48475128412246704
v 0.025206785649061203 0.1353577822446823 0.4817795157432556
v 0.028569895774126053 0.13492365181446075 0.47993940114974976
v 0.020236872136592865 0.13086476922035217 0.48316439986228943
v 0.024518240243196487 0.13243365287780762 0.4805474877357483
v 0.01225102785974741 0.12727008759975433 0.4893129765987396
v 0.0140268849208951 0.13095338642597198 0.490867018699646
v 0.02751244232058525 0.1329880654811859 0.4794999659061432
v 0.03548892214894295 0.13436570763587952 0.4844093918800354
v 0.03383007273077965 0.13278275728225708 0.48087894916534424
v 0.03449450060725212 0.1339365839958191 0.48574012517929077
v 0.02960124984383583 0.12380671501159668 0.4899897873401642
v 0.033895473927259445 0.126063734292984 0.4860297441482544
v 0.028197873383760452 0.1220746636390686 0.4882226288318634
v 0.032591935247182846 0.12443530559539795 0.4840952157974243
v 0.035797376185655594 0.12921585142612457 0.48467832803726196
v 0.03533957526087761 0.12993647158145905 0.48553258180618286
v 0.009756804443895817 0.12547194957733154 0.49112656712532043
v 0.01147084403783083 0.12114362418651581 0.4901382029056549
v 0.013388277031481266 0.12298943847417831 0.4882846474647522
v 0.02165985107421875 0.12701551616191864 0.4819904863834381
v 0.016330502927303314 0.11976775527000427 0.48913443088531494
v 0.02213216945528984 0.11968670785427094 0.4897181987762451
v 0.02629631757736206 0.12207198888063431 0.48574191331863403
v 0.02421688288450241 0.12375150620937347 0.4833087921142578
v 0.03052714094519615 0.12427230179309845 0.4822225272655487
v 0.027992013841867447 0.12537536025047302 0.481473445892334
v 0.025532323867082596 0.1288689821958542 0.47945061326026917
v 0.03220978006720543 0.12760287523269653 0.4808652400970459
v 0.03463543578982353 0.127944216132164 0.4824332594871521
v 0.03138912096619606 0.13165925443172455 0.4792707562446594
v 0.02988753840327263 0.12757240235805511 0.47999292612075806
v 0.02912624552845955 0.1306234896183014 0.47881877422332764
v 0.011103521101176739 0.09078172594308853 0.5252200961112976
v 0.00491656269878149 0.0869830772280693 0.5010734796524048
v 0.004977378062903881 0.08320987224578857 0.5004730224609375
v 0.009494711644947529 0.08128753304481506 0.5041736960411072
v 0.008988423272967339 0.08476854860782623 0.5057222843170166
v 0.013140574097633362 0.09185409545898438 0.495609849691391
v 0.009252364747226238 0.09185735136270523 0.4983986020088196
v 0.012144967913627625 0.09149840474128723 0.5023037791252136
v 0.015819597989320755 0.09223434329032898 0.49898311495780945
v 0.015436499379575253 0.08918178081512451 0.4922846853733063
v 0.018001070246100426 0.08975500613451004 0.4952404499053955
v 0.016903318464756012 0.09418955445289612 0.501350998878479
v 0.014258718118071556 0.09253721684217453 0.5051639080047607
v 0.02427969127893448 0.09332884848117828 0.5152389407157898
v 0.028009936213493347 0.09569667279720306 0.5124552845954895
v 0.03625284880399704 0.08053974062204361 0.5087893009185791
v 0.034315068274736404 0.0778099074959755 0.5132776498794556
v 0.027613207697868347 0.07973863929510117 0.5099363923072815
v 0.030714428052306175 0.0808764323592186 0.5068241357803345
v 0.0063787344843149185 0.09009074419736862 0.5001987218856812
v 0.009095050394535065 0.08869136869907379 0.504790186882019
v 0.02092130109667778 0.07891284674406052 0.5013649463653564
v 0.017332417890429497 0.07877524942159653 0.5044789910316467
v 0.011716609820723534 0.07810625433921814 0.5028335452079773
v 0.01519803050905466 0.07723373174667358 0.49970680475234985
v 0.0300713162869215 0.07865281403064728 0.5165990591049194
v 0.02724524214863777 0.08028252422809601 0.519554615020752
v 0.02354276180267334 0.08224810659885406 0.517144501209259
v 0.02436838112771511 0.08048944175243378 0.5131847858428955
v 0.021357020363211632 0.08688578009605408 0.5182988047599792
v 0.022680122405290604 0.08150751888751984 0.49826526641845703
v 0.02240292727947235 0.08635669201612473 0.4963473081588745
v 0.034498561173677444 0.08850693702697754 0.5037479996681213
v 0.03391424939036369 0.08422031253576279 0.5052153468132019
v 0.012133407406508923 0.08923926204442978 0.5078445672988892
v 0.013928231783211231 0.08080749213695526 0.5063627362251282
v 0.012810672633349895 0.08461879938840866 0.5081768035888672
v 0.01938924379646778 0.09176421165466309 0.4969693720340729
v 0.019176604226231575 0.08418974280357361 0.49434345960617065
v 0.006145908497273922 0.08042934536933899 0.4865722060203552
v 0.013663745485246181 0.07878190279006958 0.49470576643943787
v 0.009523502551019192 0.07778647541999817 0.49685120582580566
v 0.003580163000151515 0.08065557479858398 0.4869261384010315
v 0.018541360273957253 0.0796680748462677 0.496427446603775
v 0.016198182478547096 0.08337550610303879 0.49246904253959656
v -0.0012925665359944105 0.0899709016084671 0.48985713720321655
v -0.000982202822342515 0.08521366119384766 0.4899011254310608
v 0.0005877672228962183 0.09220252931118011 0.48977383971214294
v 0.031550996005535126 0.09505736827850342 0.5067061185836792
v 0.006830235011875629 0.09208737313747406 0.4872451424598694
v 0.0032458121422678232 0.09355130791664124 0.48848918080329895
v 0.00658611673861742 0.07990825176239014 0.49908989667892456
v 0.0013773443643003702 0.082243412733078 0.4884225130081177
v 0.008658318780362606 0.08259391784667969 0.4859575033187866
v 0.009675078094005585 0.08831416815519333 0.485571026802063
v 0.0075425198301672935 0.08250094950199127 0.4821436405181885
v 0.008534920401871204 0.0884590670466423 0.4826291799545288
v 0.005448999814689159 0.09326019138097763 0.48338988423347473
v 0.00247897463850677 0.09437011182308197 0.48444968461990356
v -0.0004823862109333277 0.09361526370048523 0.48508498072624207
v 0.004635832272469997 0.08066517859697342 0.48221874237060547
v 0.0016509804408997297 0.08111279457807541 0.4827481508255005
v -0.001022100681439042 0.08277393877506256 0.4844937324523926
v 0.005091932602226734 0.08200579881668091 0.47727325558662415
v 0.00927159283310175 0.0848739966750145 0.47635602951049805
v 0.006385778076946735 0.09617626667022705 0.46898800134658813
v 0.005791236646473408 0.0953502207994461 0.47252869606018066
v 0.006860424764454365 0.09475857019424438 0.4727048873901367
v 0.007532455958425999 0.09625408053398132 0.46906810998916626
v 0.0063251229003071785 0.09394998848438263 0.4773879647254944
v 0.0076086753979325294 0.09310615807771683 0.4762493968009949
v 0.009038050659000874 0.09003907442092896 0.4767807126045227
v 0.009873704053461552 0.0916512981057167 0.47238457202911377
v 0.009690088219940662 0.08675140142440796 0.4704834818840027
v 0.010313914157450199 0.08862746506929398 0.46708744764328003
v 0.01066915038973093 0.09280963242053986 0.4691336154937744
v 0.010088258422911167 0.08675730973482132 0.4749007821083069
v 0.008812111802399158 0.0964394137263298 0.46693241596221924
v 0.008121815510094166 0.09706143289804459 0.4659169316291809
v 0.008580445311963558 0.09005457907915115 0.4785647690296173
v 0.002416980220004916 0.09510478377342224 0.4792655110359192
v 0.003688142402097583 0.09614337980747223 0.47199171781539917
v 0.005025574006140232 0.09694471955299377 0.46755513548851013
v 0.006654125638306141 0.09625127911567688 0.4646510183811188
v 0.001390461577102542 0.09510661661624908 0.47279077768325806
v 0.00288778985850513 0.09621937572956085 0.46704453229904175
v 0.004433316178619862 0.09531281143426895 0.4642055332660675
v -0.0009520791936665773 0.09286700189113617 0.4731218218803406
v 0.001336709363386035 0.09401758015155792 0.46756353974342346
v -0.002809222089126706 0.09113986790180206 0.4812779724597931
v -0.000391719164326787 0.09379694610834122 0.4804225265979767
v 0.003415059996768832 0.09403210878372192 0.4651527404785156
v 0.010164898820221424 0.09417097270488739 0.46465933322906494
v 0.0077360207214951515 0.09358252584934235 0.4632154703140259
v 0.010922458954155445 0.0937642753124237 0.4658140242099762
v 0.008912396617233753 0.0854431614279747 0.4704733192920685
v 0.009456918574869633 0.08766607940196991 0.46612513065338135
v 0.0063558304682374 0.08416798710823059 0.47037696838378906
v 0.007368256337940693 0.08719871938228607 0.4654186964035034
v 0.00999551359564066 0.09052436053752899 0.46413302421569824
v 0.010709014721214771 0.09097461402416229 0.4656651020050049
v -0.0027535308618098497 0.09080304205417633 0.4852803349494934
v -0.0025221446994692087 0.08634644001722336 0.4859926700592041
v -0.003082533599808812 0.08698420226573944 0.48172321915626526
v -0.001727531896904111 0.0893239825963974 0.4730304181575775
v -0.0013599221128970385 0.08333821594715118 0.48002973198890686
v 0.0019706382881850004 0.08196567744016647 0.4785420596599579
v 0.00349395046941936 0.08460788428783417 0.4709699749946594
v 0.0005360215436667204 0.08616381138563156 0.4717212915420532
v 0.005129006691277027 0.08774736523628235 0.46533626317977905
v 0.0024480826687067747 0.08893384784460068 0.46622562408447266
v 0.0008337914478033781 0.09118597209453583 0.4672695994377136
v 0.006035019643604755 0.09089195728302002 0.4634621739387512
v 0.007930503226816654 0.09064435958862305 0.46319618821144104
v 0.0057127708569169044 0.09301887452602386 0.4634746313095093
v 0.0041402289643883705 0.09107193350791931 0.4641600251197815
v 0.0035944513510912657 0.09238608926534653 0.4645673632621765
v 0.036048050969839096 0.08365295082330704 0.5065014958381653
v 0.026004815474152565 0.08204364776611328 0.6007155776023865
v 0.02647269144654274 0.08070479333400726 0.5953020453453064
v 0.031155269593000412 0.06482459604740143 0.5953128337860107
v 0.02853289619088173 0.07044252753257751 0.5912367105484009
v 0.03197959065437317 0.06320679187774658 0.6021876931190491
v 0.0308997705578804 0.06939607113599777 0.6110401153564453
v 0.03271210193634033 0.06559240818023682 0.6075156927108765
v 0.027189431712031364 0.07606629282236099 0.5916661024093628
v 0.027008287608623505 0.08082868158817291 0.6061172485351562
v 0.02918127179145813 0.07577168196439743 0.6111210584640503
v 0.016026008874177933 0.076542429625988 0.607358992099762
v 0.019071949645876884 0.07037010788917542 0.6117678880691528
v 0.02171442285180092 0.0632384642958641 0.6107783317565918
v 0.025633838027715683 0.06084524840116501 0.6057637333869934
v 0.027039021253585815 0.05978166311979294 0.6012206077575684
v 0.018530182540416718 0.07898759096860886 0.6001124978065491
v 0.020091362297534943 0.07818695902824402 0.5946593284606934
v 0.023050770163536072 0.07368861138820648 0.5910156965255737
v 0.011499417014420033 0.07507338374853134 0.5969053506851196
v 0.006236192770302296 0.06676241010427475 0.5963773131370544
v 0.007649083621799946 0.048113588243722916 0.5909922122955322
v 0.012074564583599567 0.05111599341034889 0.5948015451431274
v 0.009757974185049534 0.05258970335125923 0.5954329967498779
v 0.005803150124847889 0.049435172230005264 0.5922770500183105
v 0.013075199909508228 0.05447511002421379 0.5991638898849487
v 0.011203390546143055 0.055526357144117355 0.598236620426178
v 0.009097625501453876 0.060667213052511215 0.5987038612365723
v 0.005516224540770054 0.05735735967755318 0.5953781604766846
v 0.006693282164633274 0.06406232714653015 0.5958824157714844
v 0.004436497576534748 0.06265616416931152 0.5924285650253296
v 0.0020956031512469053 0.05446458235383034 0.5920143723487854
v 0.002314069075509906 0.0489581935107708 0.5907087922096252
v -0.00044483994133770466 0.05198117718100548 0.5891062617301941
v 0.0034313693176954985 0.047686267644166946 0.5882784128189087
v 0.007199359126389027 0.061122577637434006 0.6018613576889038
v 0.01951329968869686 0.05500603839755058 0.6004399657249451
v 0.015483886934816837 0.05089190974831581 0.5937045216560364
v 0.010303095914423466 0.04825126752257347 0.5886488556861877
v 0.005163916386663914 0.048123978078365326 0.5857352018356323
v 0.01806490495800972 0.05220952257514 0.5906720161437988
v 0.012805161066353321 0.05064317584037781 0.5861702561378479
v 0.007826884277164936 0.0512656532227993 0.5834826231002808
v 0.018699783831834793 0.05568680912256241 0.5874499082565308
v 0.013236929662525654 0.05401429533958435 0.5843451023101807
v 0.025897061452269554 0.061404354870319366 0.5937131643295288
v 0.024530980736017227 0.05717801675200462 0.5979105234146118
v 0.009284445084631443 0.05351249873638153 0.5831796526908875
v -0.0011184022296220064 0.051196079701185226 0.5868093967437744
v 0.0008194304537028074 0.051922641694545746 0.5840789079666138
v 0.0046029845252633095 0.06563082337379456 0.5911257266998291
v 0.0006935752462595701 0.06003336235880852 0.5897430777549744
v 0.0012865483295172453 0.061757493764162064 0.5876721143722534
v 0.006689892150461674 0.06835153698921204 0.5892776250839233
v 0.0025959431659430265 0.06305834650993347 0.5854841470718384
v -0.001256107585504651 0.057091277092695236 0.5861650705337524
v -0.0009422816801816225 0.056391675025224686 0.5886456966400146
v 0.027911342680454254 0.062263816595077515 0.5952403545379639
v 0.026334695518016815 0.06789541244506836 0.5914812088012695
v 0.02413449063897133 0.06747439503669739 0.5907512903213501
v 0.01731325499713421 0.06171456724405289 0.5854158401489258
v 0.019848380237817764 0.07258623093366623 0.5897195339202881
v 0.014981151558458805 0.07544654607772827 0.5929597616195679
v 0.00941471103578806 0.06883575022220612 0.5866925716400146
v 0.013630461879074574 0.06674477458000183 0.5852144956588745
v 0.005547829903662205 0.06291721761226654 0.5835340619087219
v 0.008250140585005283 0.06172294542193413 0.5829658508300781
v 0.011472885496914387 0.057845260947942734 0.5827498435974121
v 0.0034574612509459257 0.058265138417482376 0.5825026035308838
v 0.0004624358844012022 0.05811159685254097 0.5838298797607422
v 0.0043450528755784035 0.054016344249248505 0.5824338793754578
v 0.006147046573460102 0.05866989493370056 0.5824867486953735
v 0.007306606508791447 0.05578529089689255 0.5824468731880188
v 0.04055356606841087 0.07665162533521652 0.5146932601928711
v 0.03689232096076012 0.07646023482084274 0.5199229717254639
v 0.044004205614328384 0.07577341794967651 0.5199199914932251
v 0.053577274084091187 0.07524486631155014 0.521632730960846
v 0.06382139772176743 0.07700317353010178 0.5184186100959778
v 0.0515708327293396 0.076327845454216 0.5279360413551331
v 0.04178238287568092 0.07692045718431473 0.525588870048523
v 0.03136581555008888 0.0788007378578186 0.5248371362686157
v 0.05789417773485184 0.0782250463962555 0.5359015464782715
f 2 3 1
f 1 3 4
f 5 6 8
f 8 6 7
f 9 4 10
f 10 4 3
f 12 13 11
f 11 13 9
f 14 12 16
f 16 12 15
f 18 19 17
f 17 19 20
f 22 23 21
f 21 23 24
f 26 27 25
f 25 27 28
f 30 31 29
f 29 31 32
f 33 34 36
f 36 34 35
f 37 38 40
f 40 38 39
f 41 42 6
f 6 42 43
f 6 43 7
f 7 43 44
f 45 34 46
f 46 34 33
f 48 49 47
f 47 49 50
f 52 53 51
f 51 53 54
f 56 52 55
f 55 52 51
f 58 59 57
f 57 59 60
f 61 62 4
f 4 62 1
f 64 65 63
f 63 65 66
f 68 69 67
f 67 69 70
f 72 73 71
f 71 73 74
f 76 77 75
f 75 77 78
f 53 79 54
f 54 79 80
f 82 83 81
f 81 83 84
f 85 86 52
f 52 86 53
f 57 60 87
f 87 60 88
f 89 90 43
f 43 90 44
f 43 42 89
f 89 42 91
f 40 39 92
f 92 39 93
f 94 70 64
f 64 70 69
f 13 61 9
f 9 61 4
f 25 28 69
f 69 28 95
f 96 25 68
f 68 25 69
f 98 99 97
f 97 99 100
f 101 102 104
f 104 102 103
f 106 30 105
f 105 30 29
f 51 54 107
f 107 54 108
f 54 80 108
f 108 80 109
f 111 112 110
f 110 112 113
f 115 5 114
f 114 5 116
f 115 41 5
f 5 41 6
f 36 35 111
f 111 35 117
f 35 118 117
f 117 118 119
f 34 120 35
f 35 120 118
f 34 45 120
f 120 45 121
f 125 126 124
f 124 126 127
f 128 129 14
f 14 129 130
f 33 131 46
f 46 131 132
f 133 94 63
f 63 94 64
f 134 135 137
f 137 135 136
f 139 140 138
f 138 140 141
f 77 142 78
f 78 142 143
f 144 145 20
f 20 145 146
f 148 149 147
f 147 149 72
f 151 152 150
f 150 152 153
f 82 101 83
f 83 101 104
f 101 82 155
f 155 82 154
f 156 157 58
f 58 157 59
f 158 68 147
f 147 68 67
f 159 146 15
f 15 146 16
f 68 158 96
f 96 158 160
f 129 66 130
f 130 66 65
f 162 163 161
f 161 163 164
f 166 167 165
f 165 167 168
f 170 171 169
f 169 171 172
f 174 171 173
f 173 171 170
f 176 177 175
f 175 177 178
f 180 181 179
f 179 181 24
f 182 183 21
f 21 183 184
f 81 185 82
f 82 185 154
f 186 187 188
f 188 187 144
f 158 71 160
f 160 71 189
f 190 135 157
f 157 135 59
f 169 172 139
f 139 172 140
f 147 72 158
f 158 72 71
f 192 193 191
f 191 193 194
f 167 166 49
f 49 166 195
f 196 190 50
f 50 190 157
f 197 198 200
f 200 198 199
f 21 24 182
f 182 24 181
f 146 159 20
f 20 159 17
f 182 181 81
f 81 181 185
f 201 185 180
f 180 185 181
f 202 203 83
f 83 203 84
f 205 206 204
f 204 206 85
f 207 22 184
f 184 22 21
f 179 24 208
f 208 24 23
f 208 209 179
f 179 209 205
f 209 210 205
f 205 210 206
f 212 206 211
f 211 206 210
f 179 205 180
f 180 205 204
f 213 176 88
f 88 176 214
f 86 85 212
f 212 85 206
f 193 217 218
f 217 219 218
f 218 219 220
f 219 18 220
f 220 18 17
f 19 221 20
f 20 221 144
f 222 223 225
f 225 223 224
f 175 226 176
f 176 226 214
f 227 87 214
f 214 87 88
f 220 17 228
f 228 17 159
f 134 213 60
f 60 213 88
f 138 229 151
f 151 229 152
f 193 192 210
f 210 192 211
f 230 194 218
f 218 194 193
f 231 232 228
f 228 232 230
f 233 234 91
f 91 234 89
f 235 236 93
f 93 236 92
f 230 232 234
f 234 232 237
f 47 238 48
f 48 238 239
f 240 191 235
f 235 191 236
f 5 8 116
f 116 8 241
f 242 243 189
f 189 243 160
f 244 245 98
f 98 245 99
f 156 246 47
f 47 246 238
f 76 247 77
f 77 247 248
f 250 125 249
f 249 125 124
f 252 253 251
f 251 253 254
f 111 110 36
f 36 110 255
f 256 33 255
f 255 33 36
f 257 258 154
f 154 258 155
f 63 169 133
f 133 169 139
f 66 170 63
f 63 170 169
f 173 170 129
f 129 170 66
f 129 128 173
f 173 128 259
f 128 260 259
f 259 260 261
f 213 134 262
f 262 134 137
f 263 264 186
f 186 264 187
f 112 265 113
f 113 265 266
f 11 267 268
f 234 233 230
f 230 233 194
f 153 269 70
f 70 269 67
f 175 178 165
f 165 178 141
f 150 153 94
f 94 153 70
f 271 221 270
f 270 221 207
f 269 153 272
f 272 153 152
f 121 45 109
f 109 45 108
f 47 50 156
f 156 50 157
f 57 273 58
f 58 273 274
f 145 275 260
f 260 275 261
f 276 149 143
f 143 149 78
f 148 269 75
f 75 269 272
f 207 277 270
f 270 277 278
f 195 196 49
f 49 196 50
f 59 135 60
f 60 135 134
f 83 104 202
f 202 104 279
f 149 148 78
f 78 148 75
f 247 278 248
f 248 278 277
f 183 182 84
f 84 182 81
f 48 239 281
f 281 239 282
f 227 223 283
f 283 223 222
f 223 226 224
f 224 226 168
f 281 282 224
f 224 282 225
f 165 168 175
f 175 168 226
f 264 263 138
f 138 263 229
f 14 16 128
f 128 16 260
f 220 228 218
f 218 228 230
f 87 227 284
f 284 227 283
f 260 16 145
f 145 16 146
f 244 98 258
f 258 98 155
f 58 274 156
f 156 274 246
f 107 285 51
f 51 285 55
f 243 286 160
f 160 286 96
f 234 237 89
f 89 237 90
f 46 132 107
f 107 132 285
f 253 252 249
f 249 252 250
f 286 26 96
f 96 26 25
f 106 105 287
f 287 105 288
f 272 152 289
f 289 152 229
f 138 151 139
f 139 151 133
f 183 290 161
f 161 290 162
f 291 292 277
f 277 292 293
f 151 150 133
f 133 150 94
f 262 275 177
f 177 275 187
f 144 187 145
f 145 187 275
f 273 57 284
f 284 57 87
f 174 136 190
f 190 136 135
f 111 117 112
f 112 117 38
f 117 119 38
f 38 119 123
f 112 38 265
f 265 38 37
f 287 288 254
f 254 288 251
f 228 159 231
f 231 159 15
f 223 227 226
f 226 227 214
f 147 67 148
f 148 67 269
f 224 168 281
f 281 168 167
f 199 163 200
f 200 163 162
f 45 46 108
f 108 46 107
f 281 167 48
f 48 167 49
f 161 164 291
f 291 164 292
f 38 123 39
f 293 294 277
f 277 294 248
f 284 283 296
f 296 283 295
f 284 296 273
f 273 296 297
f 274 273 298
f 298 273 297
f 246 274 299
f 299 274 298
f 283 222 295
f 295 222 300
f 222 225 300
f 300 225 301
f 301 225 302
f 302 225 282
f 303 304 300
f 300 304 295
f 306 307 305
f 305 307 308
f 309 310 308
f 308 310 305
f 308 307 312
f 312 307 311
f 313 314 312
f 312 314 315
f 311 316 312
f 312 316 313
f 317 304 311
f 311 304 316
f 315 309 312
f 312 309 308
f 318 319 321
f 321 319 320
f 319 318 309
f 309 318 310
f 311 307 317
f 317 307 306
f 306 297 317
f 317 297 296
f 306 322 297
f 297 322 298
f 305 323 306
f 306 323 322
f 323 305 324
f 324 305 310
f 304 317 295
f 295 317 296
f 318 325 310
f 310 325 324
f 323 324 326
f 326 324 327
f 324 325 327
f 327 325 328
f 326 327 329
f 329 327 330
f 329 331 326
f 326 331 332
f 333 330 328
f 328 330 327
f 323 326 322
f 322 326 332
f 322 332 298
f 298 332 299
f 325 318 334
f 334 318 321
f 313 316 335
f 335 316 304
f 335 336 313
f 313 336 314
f 304 303 335
f 335 303 337
f 336 335 338
f 338 335 337
f 336 339 314
f 314 339 340
f 246 299 238
f 238 299 341
f 239 342 282
f 282 342 302
f 342 239 341
f 341 239 238
f 341 331 342
f 342 331 343
f 331 329 343
f 343 329 344
f 342 343 302
f 302 343 345
f 341 299 331
f 331 299 332
f 346 301 345
f 345 301 302
f 346 303 301
f 301 303 300
f 347 337 346
f 346 337 303
f 347 346 348
f 348 346 345
f 349 347 350
f 350 347 348
f 343 344 345
f 345 344 348
f 344 351 348
f 348 351 350
f 337 347 338
f 338 347 349
f 353 338 352
f 352 338 349
f 352 355 354
f 354 355 356
f 352 349 355
f 355 349 350
f 352 354 353
f 353 354 334
f 353 334 339
f 339 334 321
f 339 336 353
f 353 336 338
f 329 330 344
f 344 330 351
f 356 351 333
f 333 351 330
f 356 355 351
f 351 355 350
f 354 356 328
f 328 356 333
f 328 325 354
f 354 325 334
f 309 315 319
f 319 315 320
f 320 340 321
f 321 340 339
f 320 315 340
f 340 315 314
f 137 136 261
f 261 136 259
f 140 166 141
f 141 166 165
f 172 171 195
f 195 171 196
f 171 174 196
f 196 174 190
f 178 177 264
f 264 177 187
f 172 195 140
f 140 195 166
f 137 261 262
f 262 261 275
f 178 264 141
f 141 264 138
f 262 177 213
f 213 177 176
f 136 174 259
f 259 174 173
f 358 359 357
f 357 359 360
f 362 363 361
f 361 363 364
f 361 364 365
f 365 364 366
f 367 368 370
f 370 368 369
f 76 371 247
f 247 371 372
f 373 374 362
f 362 374 363
f 376 377 375
f 375 377 378
f 289 229 380
f 380 229 379
f 381 379 263
f 263 379 229
f 383 384 382
f 382 384 385
f 386 368 374
f 374 368 363
f 76 289 371
f 371 289 380
f 377 376 359
f 359 376 387
f 388 386 360
f 360 386 374
f 389 383 366
f 366 383 390
f 392 393 391
f 391 393 394
f 383 382 390
f 390 382 395
f 396 365 390
f 390 365 366
f 389 366 367
f 367 366 364
f 357 397 358
f 358 397 398
f 373 399 357
f 357 399 397
f 389 367 400
f 400 367 370
f 382 385 375
f 375 385 372
f 357 360 373
f 373 360 374
f 361 401 362
f 362 401 402
f 387 388 359
f 359 388 360
f 363 368 364
f 364 368 367
f 358 398 403
f 403 398 404
f 396 392 405
f 405 392 391
f 392 395 393
f 393 395 378
f 393 403 394
f 394 403 404
f 375 378 382
f 382 378 395
f 365 396 406
f 406 396 405
f 362 402 373
f 373 402 399
f 271 270 400
f 400 270 384
f 401 361 406
f 406 361 365
f 381 369 386
f 386 369 368
f 392 396 395
f 395 396 390
f 393 378 403
f 403 378 377
f 403 377 358
f 358 377 359
f 406 405 408
f 408 405 407
f 406 408 401
f 401 408 409
f 401 409 402
f 402 409 410
f 402 410 399
f 399 410 411
f 405 391 407
f 407 391 412
f 391 394 412
f 412 394 413
f 394 404 413
f 413 404 414
f 415 416 412
f 412 416 407
f 418 419 417
f 417 419 420
f 421 422 418
f 418 422 419
f 419 422 424
f 424 422 423
f 425 426 424
f 424 426 427
f 423 428 424
f 424 428 425
f 427 420 424
f 424 420 419
f 420 429 417
f 417 429 430
f 423 422 431
f 431 422 421
f 421 409 431
f 431 409 408
f 421 432 409
f 409 432 410
f 418 433 421
f 421 433 432
f 434 433 417
f 417 433 418
f 431 416 423
f 423 416 428
f 416 431 407
f 407 431 408
f 435 434 430
f 430 434 417
f 433 434 436
f 436 434 437
f 434 435 437
f 437 435 438
f 436 437 439
f 439 437 440
f 439 441 436
f 436 441 442
f 438 443 437
f 437 443 440
f 436 442 433
f 433 442 432
f 432 442 410
f 410 442 411
f 435 430 445
f 445 430 444
f 430 429 444
f 444 429 446
f 425 428 447
f 447 428 416
f 426 425 448
f 448 425 447
f 416 415 447
f 447 415 449
f 447 449 448
f 448 449 450
f 451 452 448
f 448 452 426
f 446 452 444
f 444 452 451
f 399 411 397
f 397 411 453
f 398 454 404
f 404 454 414
f 454 398 453
f 453 398 397
f 453 441 454
f 454 441 455
f 441 439 455
f 455 439 456
f 454 455 414
f 414 455 457
f 441 453 442
f 442 453 411
f 458 413 457
f 457 413 414
f 458 415 413
f 413 415 412
f 458 459 415
f 415 459 449
f 459 458 460
f 460 458 457
f 461 459 462
f 462 459 460
f 455 456 457
f 457 456 460
f 456 463 460
f 460 463 462
f 459 461 449
f 449 461 450
f 465 450 464
f 464 450 461
f 464 467 466
f 466 467 468
f 464 461 467
f 467 461 462
f 464 466 465
f 465 466 445
f 465 445 451
f 451 445 444
f 451 448 465
f 465 448 450
f 439 440 456
f 456 440 463
f 468 463 443
f 443 463 440
f 468 467 463
f 463 467 462
f 466 468 438
f 438 468 443
f 438 435 466
f 466 435 445
f 420 427 429
f 429 427 446
f 446 427 452
f 452 427 426
f 370 369 188
f 188 369 186
f 371 376 372
f 372 376 375
f 380 379 387
f 387 379 388
f 379 381 388
f 388 381 386
f 385 384 278
f 278 384 270
f 380 387 371
f 371 387 376
f 400 370 271
f 271 370 188
f 385 278 372
f 372 278 247
f 400 384 389
f 389 384 383
f 369 381 186
f 186 381 263
f 221 271 144
f 144 271 188
f 221 19 207
f 207 19 22
f 19 18 22
f 22 18 23
f 18 219 23
f 23 219 208
f 469 470 472
f 472 470 471
f 474 475 473
f 473 475 476
f 473 476 477
f 477 476 478
f 480 481 479
f 479 481 482
f 483 484 474
f 474 484 475
f 486 487 485
f 485 487 488
f 489 490 77
f 77 490 142
f 491 489 248
f 248 489 77
f 493 494 492
f 492 494 495
f 496 480 484
f 484 480 475
f 486 497 487
f 487 497 471
f 498 496 472
f 472 496 484
f 499 493 478
f 478 493 500
f 501 502 504
f 504 502 503
f 493 492 500
f 500 492 505
f 506 477 500
f 500 477 478
f 499 478 479
f 479 478 476
f 469 507 470
f 470 507 508
f 483 509 469
f 469 509 507
f 479 482 499
f 499 482 510
f 492 495 485
f 485 495 511
f 483 469 484
f 484 469 472
f 473 512 474
f 474 512 513
f 497 498 471
f 471 498 472
f 475 480 476
f 476 480 479
f 470 508 514
f 514 508 515
f 506 502 516
f 516 502 501
f 503 502 488
f 488 502 505
f 514 515 503
f 503 515 504
f 485 488 492
f 492 488 505
f 477 506 517
f 517 506 516
f 474 513 483
f 483 513 509
f 510 292 494
f 494 292 164
f 512 473 517
f 517 473 477
f 491 481 496
f 496 481 480
f 502 506 505
f 505 506 500
f 503 488 514
f 514 488 487
f 514 487 470
f 470 487 471
f 517 516 519
f 519 516 518
f 517 519 512
f 512 519 520
f 512 520 513
f 513 520 521
f 513 521 509
f 509 521 522
f 516 501 518
f 518 501 523
f 501 504 523
f 523 504 524
f 524 504 525
f 525 504 515
f 526 527 523
f 523 527 518
f 529 530 528
f 528 530 531
f 532 533 529
f 529 533 530
f 530 533 535
f 535 533 534
f 536 537 535
f 535 537 538
f 534 539 535
f 535 539 536
f 538 531 535
f 535 531 530
f 540 541 531
f 531 541 528
f 533 532 534
f 534 532 542
f 532 520 542
f 542 520 519
f 532 543 520
f 520 543 521
f 529 544 532
f 532 544 543
f 544 529 545
f 545 529 528
f 534 542 539
f 539 542 527
f 527 542 518
f 518 542 519
f 541 546 528
f 528 546 545
f 547 544 548
f 548 544 545
f 546 549 545
f 545 549 548
f 550 547 551
f 551 547 548
f 547 550 553
f 553 550 552
f 549 554 548
f 548 554 551
f 544 547 543
f 543 547 553
f 543 553 521
f 521 553 522
f 546 541 556
f 556 541 555
f 541 540 555
f 555 540 557
f 536 539 558
f 558 539 527
f 537 536 559
f 559 536 558
f 527 526 558
f 558 526 560
f 559 558 561
f 561 558 560
f 559 562 537
f 537 562 563
f 557 563 555
f 555 563 562
f 509 522 507
f 507 522 564
f 508 565 515
f 515 565 525
f 565 508 564
f 564 508 507
f 564 552 565
f 565 552 566
f 552 550 566
f 566 550 567
f 565 566 525
f 525 566 568
f 564 522 552
f 552 522 553
f 569 524 568
f 568 524 525
f 569 526 524
f 524 526 523
f 570 560 569
f 569 560 526
f 570 569 571
f 571 569 568
f 572 570 573
f 573 570 571
f 566 567 568
f 568 567 571
f 567 574 571
f 571 574 573
f 570 572 560
f 560 572 561
f 576 561 575
f 575 561 572
f 575 578 577
f 577 578 579
f 575 572 578
f 578 572 573
f 575 577 576
f 576 577 556
f 576 556 562
f 562 556 555
f 562 559 576
f 576 559 561
f 550 551 567
f 567 551 574
f 579 574 554
f 554 574 551
f 579 578 574
f 574 578 573
f 579 554 577
f 577 554 549
f 549 546 577
f 577 546 556
f 531 538 540
f 540 538 557
f 557 538 563
f 563 538 537
f 481 294 482
f 482 294 293
f 580 486 511
f 511 486 485
f 490 489 497
f 497 489 498
f 489 491 498
f 498 491 496
f 163 495 164
f 164 495 494
f 580 490 486
f 486 490 497
f 482 293 510
f 510 293 292
f 495 163 511
f 511 163 199
f 494 493 510
f 510 493 499
f 481 491 294
f 294 491 248
f 582 583 581
f 581 583 584
f 586 587 585
f 585 587 588
f 585 588 589
f 589 588 590
f 592 593 591
f 591 593 594
f 595 596 598
f 598 596 597
f 599 600 586
f 586 600 587
f 601 602 604
f 604 602 603
f 605 606 608
f 608 606 607
f 609 607 200
f 200 607 606
f 610 611 613
f 613 611 612
f 600 614 587
f 587 614 592
f 596 605 597
f 597 605 608
f 602 615 603
f 603 615 583
f 616 614 584
f 584 614 600
f 611 618 617
f 617 618 590
f 620 621 619
f 619 621 622
f 610 623 611
f 611 623 618
f 624 589 618
f 618 589 590
f 617 590 591
f 591 590 588
f 581 625 582
f 582 625 626
f 599 627 581
f 581 627 625
f 591 594 617
f 617 594 628
f 601 610 598
f 598 610 613
f 581 584 599
f 599 584 600
f 585 629 586
f 586 629 630
f 615 616 583
f 583 616 584
f 587 592 588
f 588 592 591
f 582 626 631
f 631 626 632
f 624 620 633
f 633 620 619
f 621 620 604
f 604 620 623
f 631 632 621
f 621 632 622
f 610 601 623
f 623 601 604
f 589 624 634
f 634 624 633
f 586 630 599
f 599 630 627
f 203 202 628
f 628 202 612
f 629 585 634
f 634 585 589
f 609 593 614
f 614 593 592
f 620 624 623
f 623 624 618
f 631 621 603
f 603 621 604
f 582 631 583
f 583 631 603
f 634 633 636
f 636 633 635
f 634 636 629
f 629 636 637
f 629 637 630
f 630 637 638
f 630 638 627
f 627 638 639
f 633 619 635
f 635 619 640
f 619 622 640
f 640 622 641
f 641 622 642
f 642 622 632
f 644 635 643
f 643 635 640
f 645 646 648
f 648 646 647
f 649 650 646
f 646 650 647
f 647 650 652
f 652 650 651
f 652 653 655
f 655 653 654
f 651 656 652
f 652 656 653
f 655 648 652
f 652 648 647
f 648 657 645
f 645 657 658
f 650 649 651
f 651 649 659
f 649 637 659
f 659 637 636
f 649 660 637
f 637 660 638
f 661 660 646
f 646 660 649
f 662 661 645
f 645 661 646
f 651 659 656
f 656 659 644
f 644 659 635
f 635 659 636
f 663 662 658
f 658 662 645
f 664 661 665
f 665 661 662
f 663 666 662
f 662 666 665
f 667 664 668
f 668 664 665
f 664 667 670
f 670 667 669
f 666 671 665
f 665 671 668
f 661 664 660
f 660 664 670
f 660 670 638
f 638 670 639
f 658 672 663
f 663 672 673
f 658 657 672
f 672 657 674
f 653 656 675
f 675 656 644
f 653 675 654
f 654 675 676
f 675 644 677
f 677 644 643
f 676 675 678
f 678 675 677
f 679 680 676
f 676 680 654
f 674 680 672
f 672 680 679
f 627 639 625
f 625 639 681
f 626 682 632
f 632 682 642
f 681 682 625
f 625 682 626
f 669 683 681
f 681 683 682
f 667 684 669
f 669 684 683
f 682 683 642
f 642 683 685
f 681 639 669
f 669 639 670
f 686 641 685
f 685 641 642
f 641 686 640
f 640 686 643
f 686 687 643
f 643 687 677
f 687 686 688
f 688 686 685
f 689 687 690
f 690 687 688
f 683 684 685
f 685 684 688
f 684 691 688
f 688 691 690
f 687 689 677
f 677 689 678
f 693 678 692
f 692 678 689
f 692 695 694
f 694 695 696
f 692 689 695
f 695 689 690
f 692 694 693
f 693 694 673
f 693 673 679
f 679 673 672
f 679 676 693
f 693 676 678
f 684 667 691
f 691 667 668
f 696 691 671
f 671 691 668
f 696 695 691
f 691 695 690
f 694 696 666
f 666 696 671
f 666 663 694
f 694 663 673
f 648 655 657
f 657 655 674
f 674 655 680
f 680 655 654
f 593 162 594
f 594 162 290
f 598 597 601
f 601 597 602
f 615 608 616
f 616 608 607
f 607 609 616
f 616 609 614
f 697 595 613
f 613 595 598
f 597 608 602
f 602 608 615
f 594 290 628
f 628 290 203
f 628 612 617
f 617 612 611
f 593 609 162
f 162 609 200
f 105 29 698
f 698 29 699
f 268 126 701
f 701 126 700
f 126 125 700
f 700 125 702
f 252 703 250
f 250 703 704
f 32 268 705
f 705 268 701
f 288 105 706
f 706 105 698
f 29 32 699
f 699 32 705
f 707 251 706
f 706 251 288
f 250 704 125
f 125 704 702
f 703 252 707
f 707 252 251
f 706 708 707
f 707 708 709
f 707 709 703
f 703 709 710
f 703 710 704
f 704 710 711
f 704 711 702
f 702 711 712
f 706 698 708
f 708 698 713
f 698 699 713
f 713 699 714
f 699 705 714
f 714 705 715
f 717 708 716
f 716 708 713
f 719 720 718
f 718 720 721
f 722 723 719
f 719 723 720
f 724 725 723
f 723 725 720
f 724 726 725
f 725 726 727
f 728 721 725
f 725 721 720
f 721 728 729
f 729 728 730
f 729 731 721
f 721 731 718
f 724 723 732
f 732 723 722
f 722 710 732
f 732 710 709
f 722 733 710
f 710 733 711
f 719 734 722
f 722 734 733
f 734 719 735
f 735 719 718
f 724 732 726
f 726 732 717
f 717 732 708
f 708 732 709
f 731 736 718
f 718 736 735
f 737 734 738
f 738 734 735
f 736 739 735
f 735 739 738
f 740 737 741
f 741 737 738
f 737 740 743
f 743 740 742
f 739 744 738
f 738 744 741
f 734 737 733
f 733 737 743
f 733 743 711
f 711 743 712
f 736 731 746
f 746 731 745
f 731 729 745
f 745 729 730
f 727 726 747
f 747 726 717
f 748 727 749
f 749 727 747
f 747 717 750
f 750 717 716
f 749 747 751
f 751 747 750
f 749 752 748
f 748 752 753
f 730 753 745
f 745 753 752
f 728 725 748
f 748 725 727
f 730 728 753
f 753 728 748
f 700 702 754
f 754 702 712
f 705 701 715
f 715 701 755
f 754 755 700
f 700 755 701
f 742 756 754
f 754 756 755
f 740 757 742
f 742 757 756
f 755 756 715
f 715 756 758
f 754 712 742
f 742 712 743
f 759 714 758
f 758 714 715
f 714 759 713
f 713 759 716
f 759 760 716
f 716 760 750
f 760 759 761
f 761 759 758
f 762 760 763
f 763 760 761
f 756 757 758
f 758 757 761
f 757 764 761
f 761 764 763
f 760 762 750
f 750 762 751
f 766 751 765
f 765 751 762
f 767 765 769
f 769 765 768
f 765 762 768
f 768 762 763
f 765 767 766
f 766 767 746
f 766 746 752
f 752 746 745
f 752 749 766
f 766 749 751
f 757 740 764
f 764 740 741
f 769 764 744
f 744 764 741
f 769 768 764
f 764 768 763
f 767 769 739
f 739 769 744
f 739 736 767
f 767 736 746
f 219 217 208
f 208 217 209
f 209 217 210
f 210 217 193
f 198 580 199
f 199 580 511
f 76 75 289
f 289 75 272
f 277 207 291
f 291 207 184
f 290 183 203
f 203 183 84
f 490 580 142
f 142 580 198
f 142 198 143
f 143 198 197
f 149 276 72
f 72 276 73
f 104 103 279
f 279 103 770
f 770 596 279
f 279 596 595
f 605 596 771
f 771 596 770
f 771 770 772
f 772 770 103
f 772 103 773
f 773 103 102
f 155 774 101
f 101 774 102
f 773 102 97
f 97 102 774
f 775 773 100
f 100 773 97
f 773 775 772
f 772 775 776
f 772 776 771
f 771 776 777
f 200 606 197
f 197 606 777
f 189 71 778
f 778 71 74
f 97 774 98
f 98 774 155
f 183 161 184
f 184 161 291
f 777 276 197
f 197 276 143
f 777 606 771
f 771 606 605
f 613 612 697
f 697 612 202
f 595 697 279
f 279 697 202
f 73 276 776
f 776 276 777
f 776 775 73
f 73 775 74
f 100 778 775
f 775 778 74
f 778 100 189
f 189 100 99
f 245 242 99
f 99 242 189
f 131 33 256
f 28 1 95
f 95 1 62
f 27 2 28
f 28 2 1
f 265 115 266
f 266 115 114
f 95 62 69
f 69 62 64
f 62 61 64
f 64 61 65
f 61 13 65
f 65 13 130
f 13 12 130
f 130 12 14
f 31 11 32
f 32 11 268
f 15 12 31
f 31 12 11
f 31 30 15
f 15 30 231
f 30 106 231
f 231 106 232
f 287 237 106
f 106 237 232
f 254 90 287
f 287 90 237
f 253 44 254
f 254 44 90
f 253 249 44
f 44 249 7
f 267 127 268
f 268 127 126
f 10 3 241
f 241 3 116
f 3 2 116
f 116 2 114
f 2 27 114
f 114 27 266
f 27 26 266
f 266 26 113
f 26 286 113
f 113 286 110
f 286 243 110
f 110 243 255
f 243 242 255
f 255 242 256
f 242 245 256
f 256 245 131
f 245 244 131
f 131 244 132
f 265 37 115
f 115 37 41
f 41 37 42
f 42 37 40
f 92 91 40
f 40 91 42
f 236 233 92
f 92 233 91
f 191 194 236
f 236 194 233
f 258 285 244
f 244 285 132
f 257 55 258
f 258 55 285
f 257 154 201
f 201 154 185
f 56 201 204
f 204 201 180
f 55 257 56
f 56 257 201
f 204 85 56
f 56 85 52
f 86 122 53
f 53 122 79
f 212 215 86
f 86 215 122
f 211 216 212
f 212 216 215
f 192 280 211
f 211 280 216
f 191 240 192
f 192 240 280
f 249 124 7
f 7 124 8
f 124 127 8
f 8 127 241
f 127 267 241
f 241 267 10
f 10 267 9
f 9 267 11
