v 0.052930742502212524 0.10149987787008286 0.6554267406463623
v 0.06464291363954544 0.09814979881048203 0.6545340418815613
v 0.05724208056926727 0.0945959985256195 0.660266101360321
v 0.04738030582666397 0.09831857681274414 0.6615482568740845
v 0.0748501643538475 0.08772733062505722 0.6700708270072937
v 0.08017907291650772 0.09126324951648712 0.6806653141975403
v 0.0636083334684372 0.08980660140514374 0.68325275182724
v 0.06266514956951141 0.08665366470813751 0.6730605363845825
v 0.0422942116856575 0.09908238798379898 0.6659698486328125
v 0.05062764510512352 0.09329896420240402 0.6642714738845825
v 0.04103792458772659 0.10520884394645691 0.6676838397979736
v 0.033327918499708176 0.11246361583471298 0.6716790795326233
v 0.03411708399653435 0.10541871190071106 0.6693288087844849
v 0.026208844035863876 0.1157969981431961 0.6719608306884766
v 0.039494384080171585 0.12173529714345932 0.6727522015571594
v 0.02847243845462799 0.12388280779123306 0.6681594848632812
v 0.047698285430669785 0.13477276265621185 0.6523885130882263
v 0.051058411598205566 0.13560187816619873 0.6399397850036621
v 0.03509523719549179 0.13373219966888428 0.6385762691497803
v 0.03353428468108177 0.1321011483669281 0.6513802409172058
v 0.04482214152812958 0.13113626837730408 0.6210077404975891
v 0.03832213953137398 0.13267123699188232 0.6305801272392273
v 0.05477800592780113 0.13537275791168213 0.6319921612739563
v 0.05987657606601715 0.13332469761371613 0.6234875917434692
v 0.06078696623444557 0.10518356412649155 0.6434224247932434
v 0.07206247001886368 0.10352788865566254 0.6424416899681091
v 0.07011497765779495 0.10240712761878967 0.6468807458877563
v 0.05893537774682045 0.10437481850385666 0.6480126976966858
v 0.0397716648876667 0.10704843699932098 0.6744778156280518
v 0.046990424394607544 0.11444882303476334 0.6786297559738159
v 0.04235553741455078 0.1119902953505516 0.6731182932853699
v 0.03978551924228668 0.1037735790014267 0.6701741814613342
v 0.09775184839963913 0.09690452367067337 0.634282648563385
v 0.1096043512225151 0.10275060683488846 0.6365939974784851
v 0.10896281152963638 0.10317043215036392 0.6424767374992371
v 0.09832680225372314 0.09807133674621582 0.639082133769989
v 0.10077060759067535 0.09799586981534958 0.6667360663414001
v 0.10817675292491913 0.10484535247087479 0.6615406274795532
v 0.11225268244743347 0.11411775648593903 0.6706843972206116
v 0.10331226885318756 0.11112304776906967 0.6754274368286133
v 0.09097597748041153 0.09280657768249512 0.6747106909751892
v 0.09391624480485916 0.10380683839321136 0.6821183562278748
v 0.08036889880895615 0.10073840618133545 0.6879894733428955
v 0.06194406747817993 0.0964396744966507 0.6899696588516235
v 0.11107074469327927 0.10474126040935516 0.6240548491477966
v 0.1027376726269722 0.10020766407251358 0.6205569505691528
v -0.015915825963020325 0.14322935044765472 0.6575668454170227
v -0.015123696066439152 0.14243878424167633 0.6518378257751465
v -0.014033312909305096 0.13529618084430695 0.6553492546081543
v -0.014283868484199047 0.13769401609897614 0.6602061986923218
v 0.10440433770418167 0.11899914592504501 0.6116151213645935
v 0.10296349972486496 0.12890002131462097 0.6125500202178955
v 0.11012619733810425 0.12784281373023987 0.6123353838920593
v 0.11168663203716278 0.11866193264722824 0.613345742225647
v 0.09475000202655792 0.11933714151382446 0.6094285845756531
v 0.0929374247789383 0.12974295020103455 0.6133574843406677
v -0.005669900216162205 0.14823856949806213 0.6616127490997314
v -0.010469621978700161 0.14707377552986145 0.6627098917961121
v -0.0074851252138614655 0.1424696445465088 0.6643389463424683
v -0.0023006247356534004 0.1429063081741333 0.6620006561279297
v 0.037539463490247726 0.1017623022198677 0.6645277738571167
v 0.04258174076676369 0.10201334208250046 0.6569728255271912
v 0.014326327480375767 0.10574766248464584 0.6647995114326477
v 0.027846958488225937 0.10356679558753967 0.6600754261016846
v 0.02732478827238083 0.10431645810604095 0.6673223972320557
v 0.017114875838160515 0.10773339867591858 0.6702881455421448
v 0.03837263956665993 0.10597453266382217 0.6384873986244202
v 0.050065867602825165 0.1062435656785965 0.6397204399108887
v 0.047073137015104294 0.10603835433721542 0.6454405188560486
v 0.03389282524585724 0.10499307513237 0.6458717584609985
v 0.054498180747032166 0.10354067385196686 0.626603901386261
v 0.04268769547343254 0.1040077656507492 0.6264576315879822
v 0.04661554843187332 0.10235130786895752 0.6191184520721436
v 0.05433335900306702 0.10138726979494095 0.6205002069473267
v 0.019598018378019333 0.10457354038953781 0.6296802163124084
v 0.010172104462981224 0.10642296820878983 0.6292688250541687
v 0.01297491043806076 0.10541722178459167 0.6226980090141296
v 0.022346429526805878 0.10514970868825912 0.6256951093673706
v 0.11717831343412399 0.1278645098209381 0.6125874519348145
v 0.11846482753753662 0.11872805655002594 0.6158834099769592
v 0.054373256862163544 0.12369482219219208 0.6031738519668579
v 0.060937296599149704 0.11615364253520966 0.5987170934677124
v 0.048733100295066833 0.11254710704088211 0.5953129529953003
v 0.04519590362906456 0.12210232019424438 0.6007851958274841
v 0.09981996566057205 0.1364642083644867 0.6188459992408752
v 0.10729870200157166 0.1364651769399643 0.6165723204612732
v -0.0013720998540520668 0.14850404858589172 0.6571288704872131
v 0.0008264980278909206 0.14311262965202332 0.6568500399589539
v 0.08076199144124985 0.1129705160856247 0.6873134970664978
v 0.06081581115722656 0.10593902319669724 0.6909331679344177
v 0.09460734575986862 0.11806321889162064 0.6808179616928101
v 0.10323725640773773 0.12278755754232407 0.6750900745391846
v 0.1113627627491951 0.12575626373291016 0.6727830767631531
v 0.023652072995901108 0.10316590219736099 0.6543805599212646
v 0.04891227185726166 0.10425567626953125 0.6506337523460388
v 0.062409400939941406 0.10498189181089401 0.6388807892799377
v 0.06745398789644241 0.09733214229345322 0.6097415685653687
v 0.07780324667692184 0.0969756469130516 0.6113594174385071
v 0.07210913300514221 0.0967271476984024 0.6203458309173584
v 0.06420248001813889 0.09775316715240479 0.6170070171356201
v 0.06191229820251465 0.10628115385770798 0.5978884100914001
v 0.05942763388156891 0.10028861463069916 0.6022788286209106
v 0.05075593665242195 0.09986957907676697 0.6011065244674683
v 0.051510535180568695 0.10456189513206482 0.5962933897972107
v 0.039755042642354965 0.10742747038602829 0.6815532445907593
v 0.05178161337971687 0.11585570871829987 0.6836017370223999
v 0.10515061020851135 0.10889893770217896 0.6143598556518555
v 0.11180619150400162 0.10978637635707855 0.6181833148002625
v 0.11946065723896027 0.11249983310699463 0.6204158663749695
v 0.08527135103940964 0.09914666414260864 0.639866828918457
v 0.0988299623131752 0.09859122335910797 0.6426466107368469
v 0.09792724251747131 0.09757573157548904 0.6476274132728577
v 0.08487366884946823 0.09945019334554672 0.6428390741348267
v 0.07610063254833221 0.09245565533638 0.6564896106719971
v 0.08749395608901978 0.09041111916303635 0.6621356010437012
v 0.06579308956861496 0.08909139037132263 0.6617590188980103
v 0.10983233153820038 0.10386577993631363 0.6508932113647461
v 0.11870331317186356 0.10533298552036285 0.644394040107727
v 0.1182287409901619 0.10693387687206268 0.6532092690467834
v 0.1196354329586029 0.10615120828151703 0.6346926689147949
v 0.11994582414627075 0.10837160050868988 0.6260854005813599
v 0.11511867493391037 0.13933530449867249 0.614984929561615
v 0.11668455600738525 0.10997577011585236 0.6609863638877869
v 0.05433858931064606 0.08696252107620239 0.6737764477729797
v 0.04646827280521393 0.0866592600941658 0.6727946400642395
v 0.045127492398023605 0.0913618877530098 0.666578471660614
v 0.05172809213399887 0.09108257293701172 0.6665499210357666
v 0.018431663513183594 0.12075154483318329 0.6711267828941345
v 0.01668127253651619 0.11361110210418701 0.6727110743522644
v 0.0274847112596035 0.10868993401527405 0.6723917722702026
v 0.08818014711141586 0.09585246443748474 0.6279078722000122
v 0.09292706847190857 0.09840106964111328 0.6165613532066345
v 0.010654687881469727 0.1070091724395752 0.6588965058326721
v 0.002767532831057906 0.14238271117210388 0.660956859588623
v -0.0014922022819519043 0.14053338766098022 0.6648653149604797
v 0.010599559172987938 0.13187038898468018 0.667024552822113
v 0.01336528081446886 0.13500873744487762 0.662189781665802
v 0.0043954430148005486 0.11695172637701035 0.6525077223777771
v 0.0054256729781627655 0.11310413479804993 0.6583558320999146
v 0.0032420610077679157 0.11763067543506622 0.6571253538131714
v 0.0023710690438747406 0.12066777795553207 0.6516241431236267
v 0.020458629354834557 0.10502060502767563 0.6164218783378601
v 0.02779260277748108 0.1041538268327713 0.6191152334213257
v 0.019020020961761475 0.12677854299545288 0.6497762799263
v 0.023107655346393585 0.12802526354789734 0.6607860922813416
v 0.03207959607243538 0.13020578026771545 0.6607397794723511
v 0.04158983752131462 0.10529191046953201 0.6317826509475708
v 0.030895095318555832 0.10473955422639847 0.6299809217453003
v 0.032417960464954376 0.10459250211715698 0.626084566116333
v 0.020115725696086884 0.104217030107975 0.6508604288101196
v 0.009813768789172173 0.10763493925333023 0.6526502370834351
v 0.01449529081583023 0.10675708949565887 0.647403359413147
v 0.024149198085069656 0.10515549033880234 0.645724356174469
v 0.07340098917484283 0.11854822933673859 0.6018320918083191
v 0.0744670107960701 0.10701525956392288 0.6003597974777222
v -0.01419017743319273 0.1450580358505249 0.6614353060722351
v -0.011597816832363605 0.13999292254447937 0.6636418700218201
v 0.05295470356941223 0.10552046447992325 0.6331389546394348
v 0.0450701043009758 0.13130131363868713 0.661317765712738
v 0.06423372775316238 0.10419154167175293 0.6338415145874023
v 0.02904350683093071 0.12227849662303925 0.6107507944107056
v 0.029275652021169662 0.11568217724561691 0.6073789596557617
v 0.024113953113555908 0.11562663316726685 0.6080687642097473
v 0.02205565944314003 0.12112406641244888 0.6098193526268005
v -0.005470740608870983 0.13194480538368225 0.6470769047737122
v -0.009108922444283962 0.1310102939605713 0.6515861749649048
v -0.012232431210577488 0.13449198007583618 0.6494304537773132
v -0.008002109825611115 0.1353244036436081 0.6459324359893799
v 0.006886243354529142 0.11345738917589188 0.6640907526016235
v 0.009676129557192326 0.11494197696447372 0.6696479916572571
v 0.004581816960126162 0.12149415910243988 0.667110800743103
v 0.00319584459066391 0.11919510364532471 0.6620414853096008
v 0.011549984104931355 0.12123960256576538 0.6708702445030212
v 0.007540140300989151 0.12679460644721985 0.6688193082809448
v 0.0002372274175286293 0.135201096534729 0.646340012550354
v 0.005496019963175058 0.13951288163661957 0.6501049995422363
v 0.012107569724321365 0.1320749670267105 0.6499565243721008
v 0.005673394538462162 0.12727870047092438 0.6489779949188232
v 0.0742797777056694 0.13642725348472595 0.6260339617729187
v 0.07801328599452972 0.1326153576374054 0.6164034605026245
v 0.06368827819824219 0.12954765558242798 0.6135048270225525
v 0.04974906146526337 0.1272774636745453 0.610148549079895
v 0.03693138435482979 0.12422724068164825 0.6082371473312378
v 0.03221968561410904 0.1298704445362091 0.6186344623565674
v 0.0677284225821495 0.12642033398151398 0.6072707772254944
v 0.008218647912144661 0.12268334627151489 0.6471364498138428
v 0.015033459290862083 0.12579472362995148 0.6523529291152954
v 0.013273580931127071 0.12541580200195312 0.6483023166656494
v 0.0658479630947113 0.10147783160209656 0.627133846282959
v -0.004887671209871769 0.1378815919160843 0.6655109524726868
v 0.10033232718706131 0.14013448357582092 0.6610371470451355
v 0.10043926537036896 0.14402948319911957 0.6484492421150208
v 0.09204213321208954 0.14203320443630219 0.6500831246376038
v 0.09177045524120331 0.13709673285484314 0.6638385057449341
v -0.010086632333695889 0.1314898431301117 0.6584289073944092
v -0.008805510587990284 0.13418644666671753 0.6633996963500977
v 0.02937941625714302 0.10353897511959076 0.6132214665412903
v 0.02333850786089897 0.10611356049776077 0.6119021773338318
v 0.023791223764419556 0.10931050777435303 0.6083759665489197
v 0.02874302864074707 0.10449665039777756 0.6085204482078552
v 0.08125569671392441 0.13009050488471985 0.6122052669525146
v 0.04071953520178795 0.10706209391355515 0.594636857509613
v 0.03896714746952057 0.11717041581869125 0.5979053974151611
v 0.09041285514831543 0.13539791107177734 0.6193041801452637
v 0.08724219352006912 0.1393284797668457 0.6275655031204224
v 0.09672557562589645 0.14131659269332886 0.6280672550201416
v 0.021889548748731613 0.12705421447753906 0.6298196315765381
v 0.06965024769306183 0.13791656494140625 0.6331361532211304
v 0.08380301296710968 0.140272319316864 0.6342828869819641
v 0.09500306844711304 0.14265306293964386 0.6351881623268127
v 0.10302579402923584 0.1448933333158493 0.6350944638252258
v 0.10414228588342667 0.14299313724040985 0.6273104548454285
v 0.005038726143538952 0.14131765067577362 0.6552457213401794
v 0.0018129157833755016 0.14158020913600922 0.6511446237564087
v 0.11242803186178207 0.1463853418827057 0.6258842349052429
v 0.11093949526548386 0.1477501541376114 0.6348792910575867
v 0.08067730069160461 0.1404915153980255 0.6429198980331421
v 0.07738626003265381 0.13953053951263428 0.6531754732131958
v 0.06714379787445068 0.1380419135093689 0.6413899660110474
v 0.06270777434110641 0.13699114322662354 0.6514903903007507
v 0.02444704994559288 0.13156430423259735 0.6396365761756897
v -0.004310159012675285 0.15786302089691162 0.6452010869979858
v -0.0017900513485074043 0.14615026116371155 0.6464346647262573
v -0.0067278724163770676 0.14372670650482178 0.6442974209785461
v -0.006315048784017563 0.1548323780298233 0.6422732472419739
v -0.002641526982188225 0.1379612237215042 0.6466510891914368
v 0.0005875346250832081 0.1476862132549286 0.651272714138031
v 0.06002168357372284 0.13232210278511047 0.6634035706520081
v 0.004576907493174076 0.11346886307001114 0.646826982498169
v 0.07611076533794403 0.13232561945915222 0.6676267981529236
v 0.051924802362918854 0.1256359964609146 0.6749066114425659
v 0.06356116384267807 0.123772993683815 0.6784194707870483
v 0.09218338131904602 0.13039229810237885 0.6741806864738464
v 0.078727126121521 0.12382485717535019 0.6816658973693848
v 0.10900843143463135 0.13523927330970764 0.668438732624054
v 0.10042371600866318 0.1333671510219574 0.6701948642730713
v 0.06433483958244324 0.11671643704175949 0.6868921518325806
v -0.018749110400676727 0.15079396963119507 0.6492957472801208
v -0.015512787736952305 0.14928500354290009 0.6445757150650024
v 0.10826912522315979 0.1425299048423767 0.6600697636604309
v 0.05728079378604889 0.08930721879005432 0.6649863123893738
v 0.07607902586460114 0.09959381818771362 0.6303843855857849
v 0.07449629157781601 0.10175588726997375 0.6351942420005798
v 0.08387819677591324 0.09729906916618347 0.6131038069725037
v 0.07917291671037674 0.09641505777835846 0.623802125453949
v -0.018673285841941833 0.15340101718902588 0.6539664268493652
v 0.008749363012611866 0.11035707592964172 0.6267856955528259
v 0.010349049232900143 0.10878001898527145 0.6226986646652222
v 0.05425179749727249 0.087504081428051 0.6825170516967773
v 0.04674533009529114 0.08629575371742249 0.6804960370063782
v 0.04080887883901596 0.09595237672328949 0.6872329711914062
v 0.0435054674744606 0.0894007533788681 0.6860007047653198
v 0.05193934589624405 0.09281837940216064 0.6886672377586365
v 0.04962051659822464 0.1001209169626236 0.6897841691970825
v 0.08526400476694107 0.09856840968132019 0.6373512148857117
v 0.08558635413646698 0.0976611003279686 0.6335890293121338
v 0.08484766632318497 0.11878961324691772 0.6055460572242737
v 0.08505789935588837 0.10732217133045197 0.6043360233306885
v 0.014520782977342606 0.12577968835830688 0.6685792803764343
v 0.020998090505599976 0.125538632273674 0.6666710376739502
v 0.017588509246706963 0.12937933206558228 0.6634478569030762
v 0.01518919039517641 0.1342768371105194 0.6558780074119568
v 0.003842279314994812 0.11985351145267487 0.6455174088478088
v 0.008142314851284027 0.12184735387563705 0.6503122448921204
v 0.09321308135986328 0.093979611992836 0.6539057493209839
v 0.08220872282981873 0.09710550308227539 0.6487277150154114
v 0.046907879412174225 0.09570486843585968 0.6656267642974854
v 0.04221814498305321 0.09777439385652542 0.6657309532165527
v 0.02875913307070732 0.10522680729627609 0.6389195919036865
v 0.01667160913348198 0.12308081984519958 0.6315343976020813
v 0.0194254107773304 0.12919418513774872 0.6397188901901245
v 0.0180186927318573 0.10603755712509155 0.6390154957771301
v -0.012998959980905056 0.1592051237821579 0.6559109091758728
v -0.01703207939863205 0.15614069998264313 0.6556962728500366
v 0.018162593245506287 0.12941688299179077 0.6578633189201355
v 0.03612789884209633 0.10245877504348755 0.6189873218536377
v 0.015625756233930588 0.11998093128204346 0.6258957386016846
v 0.013057058677077293 0.11577174812555313 0.6275752782821655
v 0.045446671545505524 0.10174179077148438 0.5965049862861633
v 0.10907010734081268 0.14606323838233948 0.648040235042572
v -0.011965890415012836 0.14273881912231445 0.6461643576622009
v -0.01119187567383051 0.1499270647764206 0.6415870189666748
v -0.0036709876731038094 0.15963228046894073 0.6489651203155518
v -0.006465745158493519 0.16004112362861633 0.6540077924728394
v 0.09440798312425613 0.1072491705417633 0.6097434163093567
v 0.07312789559364319 0.10298268496990204 0.638279139995575
v 0.05117403343319893 0.11040234565734863 0.687747061252594
v 0.039945267140865326 0.10330945253372192 0.6852916479110718
v 0.008338234387338161 0.10844909399747849 0.6388200521469116
v 0.033906277269124985 0.118629090487957 0.6040438413619995
v 0.023161817342042923 0.12635372579097748 0.6174317598342896
v 0.015139655210077763 0.12404492497444153 0.6143114566802979
v 0.009207023307681084 0.11993478983640671 0.6171298027038574
v 0.006899864878505468 0.11325344443321228 0.6176734566688538
v -0.005937808193266392 0.16366329789161682 0.6456817984580994
v -0.009864569641649723 0.16508305072784424 0.6494776010513306
v -0.015570062212646008 0.16409385204315186 0.6493964195251465
v -0.019389819353818893 0.16026341915130615 0.6497289538383484
v -0.02041255310177803 0.15568649768829346 0.6491450071334839
v -0.006114000454545021 0.16124151647090912 0.6423807144165039
v -0.007263966836035252 0.15802262723445892 0.6406720280647278
v -0.011410382576286793 0.15243056416511536 0.6410807371139526
v -0.005252503789961338 0.161838561296463 0.6388691067695618
v -0.006415418349206448 0.16625118255615234 0.6394351720809937
v -0.018059007823467255 0.16967308521270752 0.6362565755844116
v -0.015666775405406952 0.16870570182800293 0.6412602663040161
v -0.014633034355938435 0.16961024701595306 0.6393680572509766
v -0.015737347304821014 0.1712237298488617 0.635063111782074
v -0.015459532849490643 0.17345236241817474 0.6307196617126465
v -0.01844875141978264 0.17179381847381592 0.6313697695732117
v -0.0107045853510499 0.16816309094429016 0.6408926248550415
v -0.011450291611254215 0.17053595185279846 0.6351127028465271
v -0.007857332937419415 0.1688878983259201 0.6338655948638916
v -0.008173312060534954 0.17182491719722748 0.6295433640480042
v -0.011474153958261013 0.17362043261528015 0.6304924488067627
v -0.007682920433580875 0.1675175130367279 0.6379722952842712
v -0.010341663844883442 0.1680726557970047 0.6425811052322388
v -0.016593921929597855 0.1730090081691742 0.6276865005493164
v -0.01477030385285616 0.17453262209892273 0.628297746181488
v -0.011613829992711544 0.17425191402435303 0.6277384757995605
v -0.012494430877268314 0.17325489223003387 0.6251579523086548
v -0.01917329430580139 0.16385284066200256 0.6434744596481323
v -0.019483689218759537 0.1677742898464203 0.6358027458190918
v -0.01871928572654724 0.16902990639209747 0.630280613899231
v -0.016831837594509125 0.17048116028308868 0.6267329454421997
v -0.019184071570634842 0.16464029252529144 0.6335521936416626
v -0.017885230481624603 0.16644158959388733 0.6294170022010803
v -0.01599912717938423 0.16736876964569092 0.6261740326881409
v -0.017248038202524185 0.16169947385787964 0.6314089894294739
v -0.016134265810251236 0.16417138278484344 0.6281881332397461
v -0.018664967268705368 0.15520593523979187 0.6427916288375854
v -0.019810058176517487 0.15846557915210724 0.6444125175476074
v -0.015504670329391956 0.16530266404151917 0.6259994506835938
v -0.012470963411033154 0.17126597464084625 0.6244606971740723
v -0.005869838409125805 0.16590023040771484 0.6338841915130615
v -0.0070980871096253395 0.16894923150539398 0.6282161474227905
v -0.0056114401668310165 0.16393448412418365 0.6330163478851318
v -0.006441994570195675 0.16680043935775757 0.6272935271263123
v -0.008028515614569187 0.17154067754745483 0.6252219080924988
v -0.009022423066198826 0.1728779673576355 0.6271825432777405
v -0.018880270421504974 0.1519206166267395 0.6465940475463867
v -0.014875560067594051 0.15074926614761353 0.6430922746658325
v -0.013803497888147831 0.1532250940799713 0.6403899788856506
v -0.01341292541474104 0.15951813757419586 0.6300214529037476
v -0.009809550829231739 0.15416975319385529 0.638542652130127
v -0.005875306203961372 0.1589413732290268 0.6369802355766296
v -0.006325333379209042 0.16210055351257324 0.6312173008918762
v -0.00858510285615921 0.1601298749446869 0.6300424933433533
v -0.007417452521622181 0.1645323634147644 0.6270788311958313
v -0.009534954093396664 0.1630842536687851 0.6269975900650024
v -0.01313654612749815 0.162602037191391 0.6270498037338257
v -0.009439301677048206 0.16659381985664368 0.6245781183242798
v -0.008299381472170353 0.16934660077095032 0.6246352195739746
v -0.01278198417276144 0.16792987287044525 0.6243327260017395
v -0.010244480334222317 0.1648779660463333 0.6251993775367737
v -0.013034290634095669 0.16555361449718475 0.625442385673523
v -0.00730354618281126 0.1378663182258606 0.6068931818008423
v -0.002131722867488861 0.13525144755840302 0.6057713627815247
v -0.005329404957592487 0.12947224080562592 0.6127607822418213
v -0.008465561084449291 0.13275691866874695 0.6150203943252563
v -0.004368946887552738 0.14487673342227936 0.6174161434173584
v -0.008429405279457569 0.14364153146743774 0.6137373447418213
v -0.006412523798644543 0.14091446995735168 0.620716392993927
v -0.0003157895989716053 0.14177058637142181 0.6214905381202698
v 0.001230010762810707 0.1436823308467865 0.6177653074264526
v 0.004493420012295246 0.13924089074134827 0.620189368724823
v 0.003786262823268771 0.14178848266601562 0.6240055561065674
v -0.002813114784657955 0.13976584374904633 0.6252210736274719
v 0.0057955337688326836 0.12787416577339172 0.6399704217910767
v 0.01123051904141903 0.13129647076129913 0.6376604437828064
v 0.0038843026850372553 0.11202152818441391 0.6300452351570129
v 0.006223618984222412 0.11385476589202881 0.6275495886802673
v -0.009034455753862858 0.14092868566513062 0.6096660494804382
v -0.008915387094020844 0.13733230531215668 0.6179843544960022
v 0.0010023890063166618 0.1248135045170784 0.6123467087745667
v -0.0038174865767359734 0.12517394125461578 0.6146175861358643
v -0.001561271958053112 0.12759098410606384 0.6103099584579468
v 0.0030004708096385 0.1284048855304718 0.6101214289665222
v 0.001210876740515232 0.1196613684296608 0.6394320130348206
v 0.0024416055530309677 0.11442647874355316 0.6356041431427002
v 0.0027633337303996086 0.12396340817213058 0.6397438645362854
v 0.006537966430187225 0.1279451996088028 0.6127258539199829
v 0.010363327339291573 0.13288219273090363 0.6149800419807434
v 0.016597528010606766 0.12454858422279358 0.6265726685523987
v 0.01286841556429863 0.11911846697330475 0.6249235272407532
v -0.007004226557910442 0.13643698394298553 0.6239098310470581
v -0.007267407141625881 0.1279451698064804 0.6181530356407166
v -0.008697433397173882 0.13159961998462677 0.6209853291511536
v 0.00871427170932293 0.13855154812335968 0.6200025677680969
v 0.007822943851351738 0.1358928680419922 0.6153166890144348
v 0.012941467575728893 0.1473231017589569 0.6055808067321777
v 0.008243574760854244 0.13777683675289154 0.6125052571296692
v 0.006597536616027355 0.1356372982263565 0.6082968711853027
v 0.012290709652006626 0.14482592046260834 0.6014935970306396
v 0.0064393701031804085 0.13167330622673035 0.6128599643707275
v 0.006059744395315647 0.1408400684595108 0.6156588196754456
v 0.0005866410210728645 0.14887359738349915 0.5964805483818054
v 0.0058449553325772285 0.14528094232082367 0.5954871773719788
v -0.001611887477338314 0.1522035300731659 0.598842978477478
v 0.01591143012046814 0.13005107641220093 0.6320468783378601
v 0.00038292165845632553 0.15588875114917755 0.6075938940048218
v -0.0023632152006030083 0.15442143380641937 0.6023386120796204
v 0.0031564487144351006 0.13439321517944336 0.6058443784713745
v 0.010107600130140781 0.14421455562114716 0.5976961255073547
v 0.011350353248417377 0.150590181350708 0.6084495782852173
v 0.005265851505100727 0.1540909707546234 0.6108757257461548
v 0.01342907827347517 0.15211942791938782 0.6017689108848572
v 0.010448792017996311 0.1569208800792694 0.6039119362831116
v 0.0064486367627978325 0.1592004895210266 0.6013128161430359
v 0.002507920376956463 0.15813636779785156 0.5978577733039856
v 0.001410168595612049 0.15524618327617645 0.5955878496170044
v 0.01380749512463808 0.14967386424541473 0.5995556712150574
v 0.012615854851901531 0.1474899798631668 0.5963096618652344
v 0.009224367327988148 0.14638260006904602 0.5945971608161926
v 0.014513413421809673 0.15005406737327576 0.5916160345077515
v 0.01568957418203354 0.1535579413175583 0.5929664969444275
v 0.010625324212014675 0.16618631780147552 0.5834065079689026
v 0.009555363096296787 0.16449911892414093 0.5886337161064148
v 0.01204748172312975 0.16405951976776123 0.5887826681137085
v 0.013244121335446835 0.16534078121185303 0.5840153098106384
v 0.010162354446947575 0.16269060969352722 0.5939528346061707
v 0.012137188576161861 0.16242742538452148 0.5925912261009216
v 0.014562257565557957 0.15874378383159637 0.593471884727478
v 0.014979188330471516 0.16039705276489258 0.5882285833358765
v 0.0167287215590477 0.15598586201667786 0.5879411697387695
v 0.01842048019170761 0.15769575536251068 0.5833947062492371
v 0.01717151328921318 0.16236057877540588 0.5836385488510132
v 0.01627080887556076 0.15596431493759155 0.5915287733078003
v 0.014595483429729939 0.16540667414665222 0.5809316039085388
v 0.01324074249714613 0.16549214720726013 0.578762948513031
v 0.013578829355537891 0.15843696892261505 0.5957854390144348
v 0.004641049541532993 0.16097311675548553 0.5951749682426453
v 0.006837992928922176 0.16406384110450745 0.5873866677284241
v 0.00839086901396513 0.16506925225257874 0.5814478993415833
v 0.011965840123593807 0.16341932117938995 0.5769455432891846
v 0.004956121556460857 0.16146138310432434 0.5849904417991638
v 0.007327062077820301 0.16249799728393555 0.5798546075820923
v 0.010714222677052021 0.1610586941242218 0.5766746401786804
v 0.004426226951181889 0.15748034417629242 0.5827752351760864
v 0.007317637093365192 0.15858332812786102 0.5783427953720093
v 0.001520281657576561 0.15369093418121338 0.591976523399353
v 0.0016066478565335274 0.15786254405975342 0.5934562087059021
v 0.009405105374753475 0.1591377556324005 0.5770297646522522
v 0.017158720642328262 0.1628149002790451 0.5778371095657349
v 0.015130740590393543 0.1609407216310501 0.5758973360061646
v 0.017354905605316162 0.16295990347862244 0.5796515345573425
v 0.016730215400457382 0.1539234071969986 0.5872410535812378
v 0.017894931137561798 0.15590637922286987 0.582060694694519
v 0.01577252522110939 0.15174871683120728 0.5858793258666992
v 0.016965951770544052 0.15449288487434387 0.5803627967834473
v 0.018482360988855362 0.15837721526622772 0.5785603523254395
v 0.018758956342935562 0.1596926748752594 0.5795732140541077
v 0.0027412278577685356 0.15149512887001038 0.5944851040840149
v 0.006359620951116085 0.1475529968738556 0.5937520861625671
v 0.003945465199649334 0.14926224946975708 0.5911716818809509
v 0.006588374264538288 0.15310023725032806 0.5820578932762146
v 0.007610823027789593 0.14722976088523865 0.5913362503051758
v 0.011887614615261555 0.14797350764274597 0.590624988079071
v 0.013612718321383 0.15033164620399475 0.5847666263580322
v 0.010303263552486897 0.15060338377952576 0.5828523635864258
v 0.01582680642604828 0.15283003449440002 0.5794702172279358
v 0.012604973278939724 0.15238294005393982 0.5795906186103821
v 0.008815859444439411 0.15490874648094177 0.5782248973846436
v 0.016199950128793716 0.155833438038826 0.5763277411460876
v 0.017733674496412277 0.15733620524406433 0.5773417949676514
v 0.013594151474535465 0.15941184759140015 0.575727641582489
v 0.013587807305157185 0.15459857881069183 0.5768998861312866
v 0.011310595087707043 0.15734943747520447 0.5762658715248108
v 0.0029542064294219017 0.09903766214847565 0.5922636985778809
v 0.008402732200920582 0.10014905035495758 0.5920425057411194
v 0.008739514276385307 0.10023344308137894 0.5957045555114746
v 0.0035521378740668297 0.09949323534965515 0.5968559980392456
v -0.004028048366308212 0.11029159277677536 0.5902248024940491
v -0.004150849767029285 0.10504741221666336 0.5902906060218811
v -0.0041249459609389305 0.10647793859243393 0.5955879092216492
v -0.004245310090482235 0.11237477511167526 0.5963726043701172
v -0.00020922906696796417 0.11436066031455994 0.5878885388374329
v -1.0184943675994873e-05 0.11737445741891861 0.5945885181427002
v -0.0036887479946017265 0.1147068440914154 0.6008262634277344
v -0.003645537421107292 0.10819122195243835 0.6003469228744507
v 0.003810445312410593 0.11180154979228973 0.6129967570304871
v 0.003969699144363403 0.11851008236408234 0.6119624972343445
v -0.001253616064786911 0.10137450695037842 0.5911365151405334
v -0.0008070757612586021 0.10207930952310562 0.596187174320221
v 0.01339928712695837 0.10775303840637207 0.5940650701522827
v 0.01209796592593193 0.10380460321903229 0.5952379107475281
v 0.012296180240809917 0.1034918874502182 0.5936880111694336
v 0.013165496289730072 0.10737210512161255 0.5928913950920105
v 0.011582868173718452 0.10450930893421173 0.6143313646316528
v 0.016794353723526 0.10590198636054993 0.6115527749061584
v 0.006991999223828316 0.10684557259082794 0.6134731769561768
v 0.011278832331299782 0.11413970589637756 0.5936440229415894
v 0.006562703754752874 0.11973884701728821 0.594911515712738
v 0.015269231982529163 0.12133564054965973 0.6043159365653992
v 0.01883174479007721 0.11633537709712982 0.6037895679473877
v -0.0004736832343041897 0.10373587161302567 0.6003220081329346
v 0.008817053399980068 0.10060495883226395 0.5981979966163635
v 0.0038459082134068012 0.10034055262804031 0.5998757481575012
v 0.0006562406197190285 0.11904788017272949 0.5986028909683228
v 0.0061708735302090645 0.11694671213626862 0.5919687151908875
v 0.010720846243202686 0.11198951303958893 0.5733126401901245
v 0.010630312375724316 0.1138266921043396 0.5887120962142944
v 0.013144421391189098 0.10850909352302551 0.5900305509567261
v 0.013765006326138973 0.10900405049324036 0.5746889114379883
v 0.011363078840076923 0.11320699751377106 0.5916295647621155
v 0.00550916139036417 0.11649677902460098 0.5878897905349731
v 0.00738211814314127 0.09643637388944626 0.575931966304779
v 0.011857916601002216 0.09933853149414062 0.5769962668418884
v 0.003306006081402302 0.09767681360244751 0.5755597352981567
v 0.008511917665600777 0.12302441149950027 0.6086503863334656
v 0.020439479500055313 0.11021284013986588 0.6062939167022705
v -0.0005029803141951561 0.10334861278533936 0.5727488994598389
v 0.0008768187835812569 0.09955601394176483 0.5742099285125732
v 0.01202311646193266 0.1041475236415863 0.591035008430481
v 0.014665401540696621 0.1043223962187767 0.576166033744812
v 0.006040113978087902 0.11245927959680557 0.5728121995925903
v 0.000893683172762394 0.1092822477221489 0.573026180267334
v 0.008396291173994541 0.11169957369565964 0.5679379105567932
v 0.003918272443115711 0.10786343365907669 0.5672297477722168
v 0.0029668668285012245 0.10228163748979568 0.5665512681007385
v 0.0046106623485684395 0.09873136132955551 0.5683519244194031
v 0.006866279058158398 0.09694085270166397 0.5702025890350342
v 0.012861213646829128 0.11159209907054901 0.5690798759460449
v 0.015186033211648464 0.1090349480509758 0.5708255171775818
v 0.014975705184042454 0.10481046885251999 0.5741746425628662
v 0.015566536225378513 0.11111067980527878 0.5666252970695496
v 0.01201437134295702 0.11071890592575073 0.5625632405281067
v 0.017271801829338074 0.0983400046825409 0.5529246926307678
v 0.013193205930292606 0.09908657521009445 0.5569047331809998
v 0.013438721187412739 0.1003030464053154 0.5566143989562988
v 0.017133787274360657 0.09996265172958374 0.5523439049720764
v 0.007858213968575 0.10185104608535767 0.5605277419090271
v 0.009685934521257877 0.10251779854297638 0.5591942071914673
v 0.009832830168306828 0.10637710988521576 0.5600942969322205
v 0.014759865589439869 0.10540942847728729 0.5558870434761047
v 0.018095850944519043 0.10904250293970108 0.5593634247779846
v 0.02108468860387802 0.1076681837439537 0.5557750463485718
v 0.018211036920547485 0.10461439192295074 0.5520656108856201
v 0.012937408871948719 0.10957883298397064 0.5612519383430481
v 0.019567325711250305 0.10059821605682373 0.5504503846168518
v 0.019775167107582092 0.09889779984951019 0.5496283769607544
v 0.007693340070545673 0.10693714022636414 0.5615628957748413
v 0.007910476066172123 0.09777436405420303 0.5633302330970764
v 0.013867379166185856 0.09655607491731644 0.558182954788208
v 0.01811107248067856 0.09550406783819199 0.5541510581970215
v 0.021695725619792938 0.09685435146093369 0.552027702331543
v 0.01642000302672386 0.09558367729187012 0.5608562231063843
v 0.019974593073129654 0.0951874703168869 0.5567318201065063
v 0.023129165172576904 0.09631851315498352 0.5546802282333374
v 0.01866649091243744 0.09616832435131073 0.5630529522895813
v 0.021886520087718964 0.09610585868358612 0.5592273473739624
v 0.011643650941550732 0.09696674346923828 0.5703243613243103
v 0.009553593583405018 0.09660635143518448 0.5668950080871582
v 0.0237649604678154 0.09684284031391144 0.5568264722824097
v 0.022472523152828217 0.10285842418670654 0.549774706363678
v 0.025364108383655548 0.10109946131706238 0.5522733926773071
v 0.02110195904970169 0.1033296138048172 0.5506347417831421
v 0.01872624084353447 0.10997564345598221 0.5608182549476624
v 0.023192785680294037 0.10838880389928818 0.5565615296363831
v 0.020482920110225677 0.10954911261796951 0.5629494190216064
v 0.02493342012166977 0.1078859195113182 0.5586394667625427
v 0.024156779050827026 0.10656175017356873 0.5530886650085449
v 0.023006241768598557 0.10633322596549988 0.552893877029419
v 0.009614621289074421 0.09724660217761993 0.5729131698608398
v 0.013165793381631374 0.10026399791240692 0.5745540261268616
v 0.014686805196106434 0.10001964867115021 0.5724672675132751
v 0.021796494722366333 0.09899343550205231 0.5648853778839111
v 0.016263611614704132 0.10446619987487793 0.5725278854370117
v 0.017807994037866592 0.10869193077087402 0.5683256983757019
v 0.022028125822544098 0.1071060299873352 0.5645158290863037
v 0.02286265417933464 0.1034419983625412 0.5650334358215332
v 0.025827795267105103 0.10585971176624298 0.560355544090271
v 0.025219902396202087 0.1033782958984375 0.5616253614425659
v 0.02460756152868271 0.09853909909725189 0.5611035823822021
v 0.02653760462999344 0.10374307632446289 0.5570302605628967
v 0.02601996809244156 0.10566671937704086 0.5549063682556152
v 0.026064075529575348 0.09968847781419754 0.55497807264328
v 0.026421748101711273 0.1020459234714508 0.5588046312332153
v 0.025913290679454803 0.09894873201847076 0.5573370456695557
v 0.01977432519197464 0.10755099356174469 0.6088002324104309
v 0.015025085769593716 0.109627865254879 0.6099732518196106
v 0.01579885184764862 0.10686119645833969 0.6123866438865662
v 0.01990431547164917 0.1042761281132698 0.6098494529724121
v 0.020062431693077087 0.10741624981164932 0.6078702211380005
v 0.010523374192416668 0.10630182921886444 0.6014031767845154
v 0.01182215753942728 0.10937978327274323 0.6039783358573914
v 0.015347377397119999 0.10816343128681183 0.6010250449180603
v 0.014009821228682995 0.10528923571109772 0.5979313850402832
v 0.009493653662502766 0.10156643390655518 0.6014934778213501
v 0.012856888584792614 0.10085606575012207 0.597317099571228
v 0.016193833202123642 0.10936848819255829 0.5959619283676147
v 0.017299147322773933 0.1108551174402237 0.6003525853157043
v 0.026507221162319183 0.11595531553030014 0.6045415997505188
v 0.027792207896709442 0.11657285690307617 0.6002408862113953
v 0.03859845548868179 0.0992942601442337 0.598243236541748
v 0.04037192463874817 0.09766127169132233 0.60173499584198
v 0.031430426985025406 0.09904169291257858 0.6037600636482239
v 0.032021064311265945 0.09921574592590332 0.5996909737586975
v 0.013461225666105747 0.11034274101257324 0.6069602370262146
v 0.017513755708932877 0.10908444225788116 0.6050809621810913
v 0.023788485676050186 0.09641025960445404 0.604218602180481
v 0.023892231285572052 0.09907645732164383 0.6077470183372498
v 0.020863665267825127 0.10058237612247467 0.6106346249580383
v 0.019641458988189697 0.09687235951423645 0.608856201171875
v 0.03739216923713684 0.09843038022518158 0.6056854128837585
v 0.03402291610836983 0.10073421895503998 0.607883632183075
v 0.0302223302423954 0.10285346955060959 0.6085435152053833
v 0.029488954693078995 0.10093961656093597 0.6072389483451843
v 0.027188852429389954 0.10903678834438324 0.6086949110031128
v 0.02216993272304535 0.09590527415275574 0.600107729434967
v 0.019386645406484604 0.09837765246629715 0.5953219532966614
v 0.03188207373023033 0.10503274202346802 0.5927127003669739
v 0.03297926113009453 0.10145631432533264 0.5955228209495544
v 0.018653512001037598 0.11041492223739624 0.6047671437263489
v 0.022414106875658035 0.10287395864725113 0.6090088486671448
v 0.020723652094602585 0.10715387761592865 0.607719898223877
v 0.01700223609805107 0.10460133850574493 0.5933536887168884
v 0.01415479276329279 0.09622360020875931 0.6001031398773193
v 0.005737415514886379 0.09890024363994598 0.6154007315635681
v 0.013217183761298656 0.09648957848548889 0.6091611385345459
v 0.01478011067956686 0.09898041188716888 0.6127150058746338
v 0.006290015764534473 0.10062073916196823 0.617628276348114
v 0.018012598156929016 0.09534792602062225 0.6039021015167236
v 0.010476485826075077 0.09713367372751236 0.604644238948822
v 0.005810278467833996 0.11178211867809296 0.6159662008285522
v 0.007547655142843723 0.10793133080005646 0.6180826425552368
v 0.004765334539115429 0.11245716363191605 0.6132696866989136
v 0.02970896288752556 0.11309867352247238 0.5947139859199524
v 0.0021141981706023216 0.10807467997074127 0.6088552474975586
v 0.0028745485469698906 0.11152002215385437 0.6108063459396362
v 0.015782799571752548 0.10310851782560349 0.6134341955184937
v 0.007111554034054279 0.10373211652040482 0.6183441877365112
v 0.004288981668651104 0.09914133697748184 0.6121994853019714
v 0.002066531218588352 0.10292907804250717 0.6086374521255493
v 0.0007308134809136391 0.0992455780506134 0.6144550442695618
v -0.0019578607752919197 0.10352018475532532 0.611514687538147
v -0.0026166951283812523 0.10930995643138885 0.6118594408035278
v -0.0016030846163630486 0.11179530620574951 0.6132996678352356
v -0.00025180447846651077 0.11293564736843109 0.6157915592193604
v 0.0023364005610346794 0.09917588531970978 0.6177709102630615
v 0.0031155431643128395 0.10116524994373322 0.6200569868087769
v 0.004246457479894161 0.10440605878829956 0.620903491973877
v -0.0026925643905997276 0.09881491959095001 0.6181244254112244
v -0.005362099967896938 0.09915099292993546 0.6138851046562195
v -0.01661093533039093 0.10656797885894775 0.614864706993103
v -0.013114075176417828 0.10747690498828888 0.6147391200065613
v -0.012773341499269009 0.10658756643533707 0.613969087600708
v -0.016674339771270752 0.10616205632686615 0.61382657289505
v -0.008416174910962582 0.10809884965419769 0.6132869124412537
v -0.009119107387959957 0.10635852068662643 0.6128403544425964
v -0.007493297569453716 0.10354506969451904 0.6123942136764526
v -0.01196358259767294 0.10262401401996613 0.6124368906021118
v -0.011309589259326458 0.09808062016963959 0.6149210333824158
v -0.015199071727693081 0.09797170758247375 0.6146335005760193
v -0.015358365140855312 0.10195787250995636 0.612217128276825
v -0.007608526386320591 0.09969662129878998 0.6131253838539124
v -0.01878926157951355 0.10498182475566864 0.6131492257118225
v -0.019908472895622253 0.10540476441383362 0.6138359904289246
v -0.00619345810264349 0.10444385558366776 0.6119388341903687
v -0.006725684739649296 0.11135082691907883 0.6156054735183716
v -0.013737848959863186 0.10883951187133789 0.6164758801460266
v -0.018100392073392868 0.10726277530193329 0.6161975860595703
v -0.020523294806480408 0.10492262244224548 0.6157795190811157
v -0.012246201746165752 0.10922250896692276 0.6185804009437561
v -0.017981689423322678 0.10740740597248077 0.6184941530227661
v -0.020254410803318024 0.10496717691421509 0.6182215213775635
v -0.01059385109692812 0.10851788520812988 0.6212816834449768
v -0.016330331563949585 0.10644762217998505 0.6204712986946106
v -0.0023562153801321983 0.1109580248594284 0.620776355266571
v -0.004651552997529507 0.11180427670478821 0.6179962754249573
v -0.018716245889663696 0.10469581186771393 0.6192907094955444
v -0.019924648106098175 0.10163542628288269 0.6133883595466614
v -0.020686417818069458 0.10171365737915039 0.6161820292472839
v -0.018756993114948273 0.10140083730220795 0.6125258803367615
v -0.010626832954585552 0.09740729629993439 0.6160027384757996
v -0.01552498247474432 0.09720253944396973 0.6159792542457581
v -0.009797674603760242 0.09746960550546646 0.6186737418174744
v -0.015706941485404968 0.0974837988615036 0.6182065010070801
v -0.018671516329050064 0.0985385924577713 0.6150102019309998
v -0.017583630979061127 0.09914614260196686 0.6137939691543579
v 0.0015353569760918617 0.1119198352098465 0.6189342141151428
v 0.004133298061788082 0.10841493308544159 0.6199228763580322
v 7.676985114812851e-05 0.10783742368221283 0.6222176551818848
v -0.008914290927350521 0.10595913976430893 0.6231582760810852
v 1.9853003323078156e-05 0.10348406434059143 0.6226078271865845
v -0.001070587895810604 0.10044589638710022 0.6205551624298096
v -0.00912074651569128 0.09920118749141693 0.6207764148712158
v -0.008826388977468014 0.10197586566209793 0.6225824356079102
v -0.015784382820129395 0.09888012707233429 0.6199902892112732
v -0.015257171355187893 0.10134252905845642 0.6216670870780945
v -0.01522910501807928 0.10424748063087463 0.621989905834198
v -0.01904325559735298 0.10034535825252533 0.6185959577560425
v -0.019367873668670654 0.09920191764831543 0.6170724034309387
v -0.019992593675851822 0.10224629938602448 0.6180968880653381
v -0.01829621195793152 0.10158245265483856 0.6200080513954163
v -0.018503811210393906 0.1030556857585907 0.6198917627334595
v 0.036376819014549255 0.1020195260643959 0.5960025191307068
v 0.025472491979599 0.09762794524431229 0.6761519908905029
v 0.02735087275505066 0.09908784180879593 0.6710649728775024
v 0.03483697772026062 0.08536314219236374 0.6651493310928345
v 0.032034941017627716 0.09217868000268936 0.6635496020317078
v 0.034490302205085754 0.08070684969425201 0.6706089973449707
v 0.0304829441010952 0.08167105168104172 0.6805772185325623
v 0.033726200461387634 0.08026839792728424 0.676399827003479
v 0.02976197749376297 0.0968313217163086 0.6661263704299927
v 0.025683969259262085 0.09383971989154816 0.6804065704345703
v 0.027723196893930435 0.08707394450902939 0.6829177141189575
v 0.014461169950664043 0.08850881457328796 0.6760265231132507
v 0.018071811646223068 0.08126699179410934 0.6777174472808838
v 0.022501029074192047 0.07596320658922195 0.6738187670707703
v 0.027846641838550568 0.07702931016683578 0.6701879501342773
v 0.030385822057724 0.07843116670846939 0.6664929986000061
v 0.018257051706314087 0.09482501447200775 0.6723005175590515
v 0.021243702620267868 0.09705472737550735 0.6679391860961914
v 0.025847986340522766 0.09504134953022003 0.6637565493583679
v 0.013187170960009098 0.09301258623600006 0.6657273769378662
v 0.0112931402400136 0.08683953434228897 0.6587059497833252
v 0.01941414549946785 0.07624173909425735 0.6445765495300293
v 0.021552786231040955 0.07617998123168945 0.6507670879364014
v 0.018914803862571716 0.0767870768904686 0.6512450575828552
v 0.01709212362766266 0.07637899369001389 0.6455817222595215
v 0.020295467227697372 0.07586714625358582 0.6563077569007874
v 0.018588338047266006 0.07722803950309753 0.6555512547492981
v 0.015130122192203999 0.08087781816720963 0.658111572265625
v 0.013755408115684986 0.08036751300096512 0.6523212790489197
v 0.012783666141331196 0.08512181788682938 0.6570819020271301
v 0.01216703001409769 0.08624416589736938 0.6528571844100952
v 0.012513981200754642 0.08030103892087936 0.6468229293823242
v 0.014527062885463238 0.07699065655469894 0.6428307294845581
v 0.01179500762373209 0.08023550361394882 0.6423515677452087
v 0.016465429216623306 0.07756012678146362 0.6408554911613464
v 0.011901711113750935 0.07908333837985992 0.6601147055625916
v 0.025495991110801697 0.07571175694465637 0.6601090431213379
v 0.024963121861219406 0.07678789645433426 0.6511715054512024
v 0.022361911833286285 0.07788502424955368 0.6440138220787048
v 0.018580220639705658 0.07952042669057846 0.6399425864219666
v 0.02773413062095642 0.07967352867126465 0.6507681608200073
v 0.024709396064281464 0.08126197010278702 0.6445714235305786
v 0.02074253559112549 0.08331911265850067 0.6411077976226807
v 0.02827594429254532 0.08431325852870941 0.6506502032279968
v 0.02468569576740265 0.08491043746471405 0.6453526020050049
v 0.03132558986544609 0.08454357832670212 0.6607233881950378
v 0.030046269297599792 0.07896120101213455 0.6613624691963196
v 0.021545685827732086 0.08521902561187744 0.6427174210548401
v 0.011889812536537647 0.08100056648254395 0.6401429772377014
v 0.014093839563429356 0.08327707648277283 0.6393610239028931
v 0.011793759651482105 0.08926643431186676 0.6536279320716858
v 0.010303580202162266 0.08587297052145004 0.6479563117027283
v 0.010894925333559513 0.08837766200304031 0.6476616263389587
v 0.013378451578319073 0.09256936609745026 0.6546141505241394
v 0.012275935150682926 0.09080676734447479 0.647340714931488
v 0.01036135945469141 0.08576737344264984 0.6429781317710876
v 0.010244046337902546 0.08376119285821915 0.6444053649902344
v 0.0320771299302578 0.0834607407450676 0.6630496978759766
v 0.030128031969070435 0.08993597328662872 0.6621319055557251
v 0.028697721660137177 0.09097933769226074 0.661112904548645
v 0.026006393134593964 0.09010570496320724 0.6519837379455566
v 0.02356596291065216 0.09574025869369507 0.6617035865783691
v 0.017415929585695267 0.09590587019920349 0.6642830967903137
v 0.016381647437810898 0.09471623599529266 0.6540094017982483
v 0.021275024861097336 0.09410145878791809 0.6533765196800232
v 0.01546092052012682 0.09204663336277008 0.6470208168029785
v 0.018384478986263275 0.09157126396894455 0.6469616293907166
v 0.022491060197353363 0.08882808685302734 0.6457105278968811
v 0.01512079406529665 0.08909650892019272 0.6428290009498596
v 0.012192127294838428 0.08805517852306366 0.6425610780715942
v 0.017129864543676376 0.08596687018871307 0.6406797766685486
v 0.01746291294693947 0.0894894227385521 0.6440975666046143
v 0.019312873482704163 0.08735966682434082 0.6428268551826477
v 0.045732393860816956 0.09902961552143097 0.6013765335083008
v 0.04285642132163048 0.09871679544448853 0.606850266456604
v 0.049024492502212524 0.09896646440029144 0.6062507033348083
v 0.057748522609472275 0.0981578379869461 0.6076145172119141
v 0.06764599680900574 0.0999281108379364 0.6042618751525879
v 0.05567711219191551 0.09906312823295593 0.6140806674957275
v 0.04659149423241615 0.10000566393136978 0.6120333671569824
v 0.03744659572839737 0.1007969006896019 0.6121957898139954
v 0.06170368939638138 0.10062220692634583 0.6220288872718811
f 2 3 1
f 1 3 4
f 5 6 8
f 8 6 7
f 9 4 10
f 10 4 3
f 12 13 11
f 11 13 9
f 14 12 16
f 16 12 15
f 18 19 17
f 17 19 20
f 22 23 21
f 21 23 24
f 26 27 25
f 25 27 28
f 30 31 29
f 29 31 32
f 33 34 36
f 36 34 35
f 37 38 40
f 40 38 39
f 41 42 6
f 6 42 43
f 6 43 7
f 7 43 44
f 45 34 46
f 46 34 33
f 48 49 47
f 47 49 50
f 52 53 51
f 51 53 54
f 56 52 55
f 55 52 51
f 58 59 57
f 57 59 60
f 61 62 4
f 4 62 1
f 64 65 63
f 63 65 66
f 68 69 67
f 67 69 70
f 72 73 71
f 71 73 74
f 76 77 75
f 75 77 78
f 53 79 54
f 54 79 80
f 82 83 81
f 81 83 84
f 85 86 52
f 52 86 53
f 57 60 87
f 87 60 88
f 89 90 43
f 43 90 44
f 43 42 89
f 89 42 91
f 40 39 92
f 92 39 93
f 94 70 64
f 64 70 69
f 13 61 9
f 9 61 4
f 25 28 69
f 69 28 95
f 96 25 68
f 68 25 69
f 98 99 97
f 97 99 100
f 101 102 104
f 104 102 103
f 106 30 105
f 105 30 29
f 51 54 107
f 107 54 108
f 54 80 108
f 108 80 109
f 111 112 110
f 110 112 113
f 115 5 114
f 114 5 116
f 115 41 5
f 5 41 6
f 36 35 111
f 111 35 117
f 35 118 117
f 117 118 119
f 34 120 35
f 35 120 118
f 34 45 120
f 120 45 121
f 125 126 124
f 124 126 127
f 128 129 14
f 14 129 130
f 33 131 46
f 46 131 132
f 133 94 63
f 63 94 64
f 134 135 137
f 137 135 136
f 139 140 138
f 138 140 141
f 77 142 78
f 78 142 143
f 144 145 20
f 20 145 146
f 148 149 147
f 147 149 72
f 151 152 150
f 150 152 153
f 82 101 83
f 83 101 104
f 101 82 155
f 155 82 154
f 156 157 58
f 58 157 59
f 158 68 147
f 147 68 67
f 159 146 15
f 15 146 16
f 68 158 96
f 96 158 160
f 129 66 130
f 130 66 65
f 162 163 161
f 161 163 164
f 166 167 165
f 165 167 168
f 170 171 169
f 169 171 172
f 174 171 173
f 173 171 170
f 176 177 175
f 175 177 178
f 180 181 179
f 179 181 24
f 182 183 21
f 21 183 184
f 81 185 82
f 82 185 154
f 186 187 188
f 188 187 144
f 158 71 160
f 160 71 189
f 190 135 157
f 157 135 59
f 169 172 139
f 139 172 140
f 147 72 158
f 158 72 71
f 192 193 191
f 191 193 194
f 167 166 49
f 49 166 195
f 196 190 50
f 50 190 157
f 197 198 200
f 200 198 199
f 21 24 182
f 182 24 181
f 146 159 20
f 20 159 17
f 182 181 81
f 81 181 185
f 201 185 180
f 180 185 181
f 202 203 83
f 83 203 84
f 205 206 204
f 204 206 85
f 207 22 184
f 184 22 21
f 179 24 208
f 208 24 23
f 208 209 179
f 179 209 205
f 209 210 205
f 205 210 206
f 212 206 211
f 211 206 210
f 179 205 180
f 180 205 204
f 213 176 88
f 88 176 214
f 86 85 212
f 212 85 206
f 193 217 218
f 217 219 218
f 218 219 220
f 219 18 220
f 220 18 17
f 19 221 20
f 20 221 144
f 222 223 225
f 225 223 224
f 175 226 176
f 176 226 214
f 227 87 214
f 214 87 88
f 220 17 228
f 228 17 159
f 134 213 60
f 60 213 88
f 138 229 151
f 151 229 152
f 193 192 210
f 210 192 211
f 230 194 218
f 218 194 193
f 231 232 228
f 228 232 230
f 233 234 91
f 91 234 89
f 235 236 93
f 93 236 92
f 230 232 234
f 234 232 237
f 47 238 48
f 48 238 239
f 240 191 235
f 235 191 236
f 5 8 116
f 116 8 241
f 242 243 189
f 189 243 160
f 244 245 98
f 98 245 99
f 156 246 47
f 47 246 238
f 76 247 77
f 77 247 248
f 250 125 249
f 249 125 124
f 252 253 251
f 251 253 254
f 111 110 36
f 36 110 255
f 256 33 255
f 255 33 36
f 257 258 154
f 154 258 155
f 63 169 133
f 133 169 139
f 66 170 63
f 63 170 169
f 173 170 129
f 129 170 66
f 129 128 173
f 173 128 259
f 128 260 259
f 259 260 261
f 213 134 262
f 262 134 137
f 263 264 186
f 186 264 187
f 112 265 113
f 113 265 266
f 11 267 268
f 234 233 230
f 230 233 194
f 153 269 70
f 70 269 67
f 175 178 165
f 165 178 141
f 150 153 94
f 94 153 70
f 271 221 270
f 270 221 207
f 269 153 272
f 272 153 152
f 121 45 109
f 109 45 108
f 47 50 156
f 156 50 157
f 57 273 58
f 58 273 274
f 145 275 260
f 260 275 261
f 276 149 143
f 143 149 78
f 148 269 75
f 75 269 272
f 207 277 270
f 270 277 278
f 195 196 49
f 49 196 50
f 59 135 60
f 60 135 134
f 83 104 202
f 202 104 279
f 149 148 78
f 78 148 75
f 247 278 248
f 248 278 277
f 183 182 84
f 84 182 81
f 48 239 281
f 281 239 282
f 227 223 283
f 283 223 222
f 223 226 224
f 224 226 168
f 281 282 224
f 224 282 225
f 165 168 175
f 175 168 226
f 264 263 138
f 138 263 229
f 14 16 128
f 128 16 260
f 220 228 218
f 218 228 230
f 87 227 284
f 284 227 283
f 260 16 145
f 145 16 146
f 244 98 258
f 258 98 155
f 58 274 156
f 156 274 246
f 107 285 51
f 51 285 55
f 243 286 160
f 160 286 96
f 234 237 89
f 89 237 90
f 46 132 107
f 107 132 285
f 253 252 249
f 249 252 250
f 286 26 96
f 96 26 25
f 106 105 287
f 287 105 288
f 272 152 289
f 289 152 229
f 138 151 139
f 139 151 133
f 183 290 161
f 161 290 162
f 291 292 277
f 277 292 293
f 151 150 133
f 133 150 94
f 262 275 177
f 177 275 187
f 144 187 145
f 145 187 275
f 273 57 284
f 284 57 87
f 174 136 190
f 190 136 135
f 111 117 112
f 112 117 38
f 117 119 38
f 38 119 123
f 112 38 265
f 265 38 37
f 287 288 254
f 254 288 251
f 228 159 231
f 231 159 15
f 223 227 226
f 226 227 214
f 147 67 148
f 148 67 269
f 224 168 281
f 281 168 167
f 199 163 200
f 200 163 162
f 45 46 108
f 108 46 107
f 281 167 48
f 48 167 49
f 161 164 291
f 291 164 292
f 38 123 39
f 293 294 277
f 277 294 248
f 284 283 296
f 296 283 295
f 284 296 273
f 273 296 297
f 274 273 298
f 298 273 297
f 246 274 299
f 299 274 298
f 283 222 295
f 295 222 300
f 222 225 300
f 300 225 301
f 301 225 302
f 302 225 282
f 303 304 300
f 300 304 295
f 306 307 305
f 305 307 308
f 309 310 308
f 308 310 305
f 308 307 312
f 312 307 311
f 313 314 312
f 312 314 315
f 311 316 312
f 312 316 313
f 317 304 311
f 311 304 316
f 315 309 312
f 312 309 308
f 318 319 321
f 321 319 320
f 319 318 309
f 309 318 310
f 311 307 317
f 317 307 306
f 306 297 317
f 317 297 296
f 306 322 297
f 297 322 298
f 305 323 306
f 306 323 322
f 323 305 324
f 324 305 310
f 304 317 295
f 295 317 296
f 318 325 310
f 310 325 324
f 323 324 326
f 326 324 327
f 324 325 327
f 327 325 328
f 326 327 329
f 329 327 330
f 329 331 326
f 326 331 332
f 333 330 328
f 328 330 327
f 323 326 322
f 322 326 332
f 322 332 298
f 298 332 299
f 325 318 334
f 334 318 321
f 313 316 335
f 335 316 304
f 335 336 313
f 313 336 314
f 304 303 335
f 335 303 337
f 336 335 338
f 338 335 337
f 336 339 314
f 314 339 340
f 246 299 238
f 238 299 341
f 239 342 282
f 282 342 302
f 342 239 341
f 341 239 238
f 341 331 342
f 342 331 343
f 331 329 343
f 343 329 344
f 342 343 302
f 302 343 345
f 341 299 331
f 331 299 332
f 346 301 345
f 345 301 302
f 346 303 301
f 301 303 300
f 347 337 346
f 346 337 303
f 347 346 348
f 348 346 345
f 349 347 350
f 350 347 348
f 343 344 345
f 345 344 348
f 344 351 348
f 348 351 350
f 337 347 338
f 338 347 349
f 353 338 352
f 352 338 349
f 352 355 354
f 354 355 356
f 352 349 355
f 355 349 350
f 352 354 353
f 353 354 334
f 353 334 339
f 339 334 321
f 339 336 353
f 353 336 338
f 329 330 344
f 344 330 351
f 356 351 333
f 333 351 330
f 356 355 351
f 351 355 350
f 354 356 328
f 328 356 333
f 328 325 354
f 354 325 334
f 309 315 319
f 319 315 320
f 320 340 321
f 321 340 339
f 320 315 340
f 340 315 314
f 137 136 261
f 261 136 259
f 140 166 141
f 141 166 165
f 172 171 195
f 195 171 196
f 171 174 196
f 196 174 190
f 178 177 264
f 264 177 187
f 172 195 140
f 140 195 166
f 137 261 262
f 262 261 275
f 178 264 141
f 141 264 138
f 262 177 213
f 213 177 176
f 136 174 259
f 259 174 173
f 358 359 357
f 357 359 360
f 362 363 361
f 361 363 364
f 361 364 365
f 365 364 366
f 367 368 370
f 370 368 369
f 76 371 247
f 247 371 372
f 373 374 362
f 362 374 363
f 376 377 375
f 375 377 378
f 289 229 380
f 380 229 379
f 381 379 263
f 263 379 229
f 383 384 382
f 382 384 385
f 386 368 374
f 374 368 363
f 76 289 371
f 371 289 380
f 377 376 359
f 359 376 387
f 388 386 360
f 360 386 374
f 389 383 366
f 366 383 390
f 392 393 391
f 391 393 394
f 383 382 390
f 390 382 395
f 396 365 390
f 390 365 366
f 389 366 367
f 367 366 364
f 357 397 358
f 358 397 398
f 373 399 357
f 357 399 397
f 389 367 400
f 400 367 370
f 382 385 375
f 375 385 372
f 357 360 373
f 373 360 374
f 361 401 362
f 362 401 402
f 387 388 359
f 359 388 360
f 363 368 364
f 364 368 367
f 358 398 403
f 403 398 404
f 396 392 405
f 405 392 391
f 392 395 393
f 393 395 378
f 393 403 394
f 394 403 404
f 375 378 382
f 382 378 395
f 365 396 406
f 406 396 405
f 362 402 373
f 373 402 399
f 271 270 400
f 400 270 384
f 401 361 406
f 406 361 365
f 381 369 386
f 386 369 368
f 392 396 395
f 395 396 390
f 393 378 403
f 403 378 377
f 403 377 358
f 358 377 359
f 406 405 408
f 408 405 407
f 406 408 401
f 401 408 409
f 401 409 402
f 402 409 410
f 402 410 399
f 399 410 411
f 405 391 407
f 407 391 412
f 391 394 412
f 412 394 413
f 394 404 413
f 413 404 414
f 415 416 412
f 412 416 407
f 418 419 417
f 417 419 420
f 421 422 418
f 418 422 419
f 419 422 424
f 424 422 423
f 425 426 424
f 424 426 427
f 423 428 424
f 424 428 425
f 427 420 424
f 424 420 419
f 420 429 417
f 417 429 430
f 423 422 431
f 431 422 421
f 421 409 431
f 431 409 408
f 421 432 409
f 409 432 410
f 418 433 421
f 421 433 432
f 434 433 417
f 417 433 418
f 431 416 423
f 423 416 428
f 416 431 407
f 407 431 408
f 435 434 430
f 430 434 417
f 433 434 436
f 436 434 437
f 434 435 437
f 437 435 438
f 436 437 439
f 439 437 440
f 439 441 436
f 436 441 442
f 438 443 437
f 437 443 440
f 436 442 433
f 433 442 432
f 432 442 410
f 410 442 411
f 435 430 445
f 445 430 444
f 430 429 444
f 444 429 446
f 425 428 447
f 447 428 416
f 426 425 448
f 448 425 447
f 416 415 447
f 447 415 449
f 447 449 448
f 448 449 450
f 451 452 448
f 448 452 426
f 446 452 444
f 444 452 451
f 399 411 397
f 397 411 453
f 398 454 404
f 404 454 414
f 454 398 453
f 453 398 397
f 453 441 454
f 454 441 455
f 441 439 455
f 455 439 456
f 454 455 414
f 414 455 457
f 441 453 442
f 442 453 411
f 458 413 457
f 457 413 414
f 458 415 413
f 413 415 412
f 458 459 415
f 415 459 449
f 459 458 460
f 460 458 457
f 461 459 462
f 462 459 460
f 455 456 457
f 457 456 460
f 456 463 460
f 460 463 462
f 459 461 449
f 449 461 450
f 465 450 464
f 464 450 461
f 464 467 466
f 466 467 468
f 464 461 467
f 467 461 462
f 464 466 465
f 465 466 445
f 465 445 451
f 451 445 444
f 451 448 465
f 465 448 450
f 439 440 456
f 456 440 463
f 468 463 443
f 443 463 440
f 468 467 463
f 463 467 462
f 466 468 438
f 438 468 443
f 438 435 466
f 466 435 445
f 420 427 429
f 429 427 446
f 446 427 452
f 452 427 426
f 370 369 188
f 188 369 186
f 371 376 372
f 372 376 375
f 380 379 387
f 387 379 388
f 379 381 388
f 388 381 386
f 385 384 278
f 278 384 270
f 380 387 371
f 371 387 376
f 400 370 271
f 271 370 188
f 385 278 372
f 372 278 247
f 400 384 389
f 389 384 383
f 369 381 186
f 186 381 263
f 221 271 144
f 144 271 188
f 221 19 207
f 207 19 22
f 19 18 22
f 22 18 23
f 18 219 23
f 23 219 208
f 469 470 472
f 472 470 471
f 474 475 473
f 473 475 476
f 473 476 477
f 477 476 478
f 480 481 479
f 479 481 482
f 483 484 474
f 474 484 475
f 486 487 485
f 485 487 488
f 489 490 77
f 77 490 142
f 491 489 248
f 248 489 77
f 493 494 492
f 492 494 495
f 496 480 484
f 484 480 475
f 486 497 487
f 487 497 471
f 498 496 472
f 472 496 484
f 499 493 478
f 478 493 500
f 501 502 504
f 504 502 503
f 493 492 500
f 500 492 505
f 506 477 500
f 500 477 478
f 499 478 479
f 479 478 476
f 469 507 470
f 470 507 508
f 483 509 469
f 469 509 507
f 479 482 499
f 499 482 510
f 492 495 485
f 485 495 511
f 483 469 484
f 484 469 472
f 473 512 474
f 474 512 513
f 497 498 471
f 471 498 472
f 475 480 476
f 476 480 479
f 470 508 514
f 514 508 515
f 506 502 516
f 516 502 501
f 503 502 488
f 488 502 505
f 514 515 503
f 503 515 504
f 485 488 492
f 492 488 505
f 477 506 517
f 517 506 516
f 474 513 483
f 483 513 509
f 510 292 494
f 494 292 164
f 512 473 517
f 517 473 477
f 491 481 496
f 496 481 480
f 502 506 505
f 505 506 500
f 503 488 514
f 514 488 487
f 514 487 470
f 470 487 471
f 517 516 519
f 519 516 518
f 517 519 512
f 512 519 520
f 512 520 513
f 513 520 521
f 513 521 509
f 509 521 522
f 516 501 518
f 518 501 523
f 501 504 523
f 523 504 524
f 524 504 525
f 525 504 515
f 526 527 523
f 523 527 518
f 529 530 528
f 528 530 531
f 532 533 529
f 529 533 530
f 530 533 535
f 535 533 534
f 536 537 535
f 535 537 538
f 534 539 535
f 535 539 536
f 538 531 535
f 535 531 530
f 540 541 531
f 531 541 528
f 533 532 534
f 534 532 542
f 532 520 542
f 542 520 519
f 532 543 520
f 520 543 521
f 529 544 532
f 532 544 543
f 544 529 545
f 545 529 528
f 534 542 539
f 539 542 527
f 527 542 518
f 518 542 519
f 541 546 528
f 528 546 545
f 547 544 548
f 548 544 545
f 546 549 545
f 545 549 548
f 550 547 551
f 551 547 548
f 547 550 553
f 553 550 552
f 549 554 548
f 548 554 551
f 544 547 543
f 543 547 553
f 543 553 521
f 521 553 522
f 546 541 556
f 556 541 555
f 541 540 555
f 555 540 557
f 536 539 558
f 558 539 527
f 537 536 559
f 559 536 558
f 527 526 558
f 558 526 560
f 559 558 561
f 561 558 560
f 559 562 537
f 537 562 563
f 557 563 555
f 555 563 562
f 509 522 507
f 507 522 564
f 508 565 515
f 515 565 525
f 565 508 564
f 564 508 507
f 564 552 565
f 565 552 566
f 552 550 566
f 566 550 567
f 565 566 525
f 525 566 568
f 564 522 552
f 552 522 553
f 569 524 568
f 568 524 525
f 569 526 524
f 524 526 523
f 570 560 569
f 569 560 526
f 570 569 571
f 571 569 568
f 572 570 573
f 573 570 571
f 566 567 568
f 568 567 571
f 567 574 571
f 571 574 573
f 570 572 560
f 560 572 561
f 576 561 575
f 575 561 572
f 575 578 577
f 577 578 579
f 575 572 578
f 578 572 573
f 575 577 576
f 576 577 556
f 576 556 562
f 562 556 555
f 562 559 576
f 576 559 561
f 550 551 567
f 567 551 574
f 579 574 554
f 554 574 551
f 579 578 574
f 574 578 573
f 579 554 577
f 577 554 549
f 549 546 577
f 577 546 556
f 531 538 540
f 540 538 557
f 557 538 563
f 563 538 537
f 481 294 482
f 482 294 293
f 580 486 511
f 511 486 485
f 490 489 497
f 497 489 498
f 489 491 498
f 498 491 496
f 163 495 164
f 164 495 494
f 580 490 486
f 486 490 497
f 482 293 510
f 510 293 292
f 495 163 511
f 511 163 199
f 494 493 510
f 510 493 499
f 481 491 294
f 294 491 248
f 582 583 581
f 581 583 584
f 586 587 585
f 585 587 588
f 585 588 589
f 589 588 590
f 592 593 591
f 591 593 594
f 595 596 598
f 598 596 597
f 599 600 586
f 586 600 587
f 601 602 604
f 604 602 603
f 605 606 608
f 608 606 607
f 609 607 200
f 200 607 606
f 610 611 613
f 613 611 612
f 600 614 587
f 587 614 592
f 596 605 597
f 597 605 608
f 602 615 603
f 603 615 583
f 616 614 584
f 584 614 600
f 611 618 617
f 617 618 590
f 620 621 619
f 619 621 622
f 610 623 611
f 611 623 618
f 624 589 618
f 618 589 590
f 617 590 591
f 591 590 588
f 581 625 582
f 582 625 626
f 599 627 581
f 581 627 625
f 591 594 617
f 617 594 628
f 601 610 598
f 598 610 613
f 581 584 599
f 599 584 600
f 585 629 586
f 586 629 630
f 615 616 583
f 583 616 584
f 587 592 588
f 588 592 591
f 582 626 631
f 631 626 632
f 624 620 633
f 633 620 619
f 621 620 604
f 604 620 623
f 631 632 621
f 621 632 622
f 610 601 623
f 623 601 604
f 589 624 634
f 634 624 633
f 586 630 599
f 599 630 627
f 203 202 628
f 628 202 612
f 629 585 634
f 634 585 589
f 609 593 614
f 614 593 592
f 620 624 623
f 623 624 618
f 631 621 603
f 603 621 604
f 582 631 583
f 583 631 603
f 634 633 636
f 636 633 635
f 634 636 629
f 629 636 637
f 629 637 630
f 630 637 638
f 630 638 627
f 627 638 639
f 633 619 635
f 635 619 640
f 619 622 640
f 640 622 641
f 641 622 642
f 642 622 632
f 644 635 643
f 643 635 640
f 645 646 648
f 648 646 647
f 649 650 646
f 646 650 647
f 647 650 652
f 652 650 651
f 652 653 655
f 655 653 654
f 651 656 652
f 652 656 653
f 655 648 652
f 652 648 647
f 648 657 645
f 645 657 658
f 650 649 651
f 651 649 659
f 649 637 659
f 659 637 636
f 649 660 637
f 637 660 638
f 661 660 646
f 646 660 649
f 662 661 645
f 645 661 646
f 651 659 656
f 656 659 644
f 644 659 635
f 635 659 636
f 663 662 658
f 658 662 645
f 664 661 665
f 665 661 662
f 663 666 662
f 662 666 665
f 667 664 668
f 668 664 665
f 664 667 670
f 670 667 669
f 666 671 665
f 665 671 668
f 661 664 660
f 660 664 670
f 660 670 638
f 638 670 639
f 658 672 663
f 663 672 673
f 658 657 672
f 672 657 674
f 653 656 675
f 675 656 644
f 653 675 654
f 654 675 676
f 675 644 677
f 677 644 643
f 676 675 678
f 678 675 677
f 679 680 676
f 676 680 654
f 674 680 672
f 672 680 679
f 627 639 625
f 625 639 681
f 626 682 632
f 632 682 642
f 681 682 625
f 625 682 626
f 669 683 681
f 681 683 682
f 667 684 669
f 669 684 683
f 682 683 642
f 642 683 685
f 681 639 669
f 669 639 670
f 686 641 685
f 685 641 642
f 641 686 640
f 640 686 643
f 686 687 643
f 643 687 677
f 687 686 688
f 688 686 685
f 689 687 690
f 690 687 688
f 683 684 685
f 685 684 688
f 684 691 688
f 688 691 690
f 687 689 677
f 677 689 678
f 693 678 692
f 692 678 689
f 692 695 694
f 694 695 696
f 692 689 695
f 695 689 690
f 692 694 693
f 693 694 673
f 693 673 679
f 679 673 672
f 679 676 693
f 693 676 678
f 684 667 691
f 691 667 668
f 696 691 671
f 671 691 668
f 696 695 691
f 691 695 690
f 694 696 666
f 666 696 671
f 666 663 694
f 694 663 673
f 648 655 657
f 657 655 674
f 674 655 680
f 680 655 654
f 593 162 594
f 594 162 290
f 598 597 601
f 601 597 602
f 615 608 616
f 616 608 607
f 607 609 616
f 616 609 614
f 697 595 613
f 613 595 598
f 597 608 602
f 602 608 615
f 594 290 628
f 628 290 203
f 628 612 617
f 617 612 611
f 593 609 162
f 162 609 200
f 105 29 698
f 698 29 699
f 268 126 701
f 701 126 700
f 126 125 700
f 700 125 702
f 252 703 250
f 250 703 704
f 32 268 705
f 705 268 701
f 288 105 706
f 706 105 698
f 29 32 699
f 699 32 705
f 707 251 706
f 706 251 288
f 250 704 125
f 125 704 702
f 703 252 707
f 707 252 251
f 706 708 707
f 707 708 709
f 707 709 703
f 703 709 710
f 703 710 704
f 704 710 711
f 704 711 702
f 702 711 712
f 706 698 708
f 708 698 713
f 698 699 713
f 713 699 714
f 699 705 714
f 714 705 715
f 717 708 716
f 716 708 713
f 719 720 718
f 718 720 721
f 722 723 719
f 719 723 720
f 724 725 723
f 723 725 720
f 724 726 725
f 725 726 727
f 728 721 725
f 725 721 720
f 721 728 729
f 729 728 730
f 729 731 721
f 721 731 718
f 724 723 732
f 732 723 722
f 722 710 732
f 732 710 709
f 722 733 710
f 710 733 711
f 719 734 722
f 722 734 733
f 734 719 735
f 735 719 718
f 724 732 726
f 726 732 717
f 717 732 708
f 708 732 709
f 731 736 718
f 718 736 735
f 737 734 738
f 738 734 735
f 736 739 735
f 735 739 738
f 740 737 741
f 741 737 738
f 737 740 743
f 743 740 742
f 739 744 738
f 738 744 741
f 734 737 733
f 733 737 743
f 733 743 711
f 711 743 712
f 736 731 746
f 746 731 745
f 731 729 745
f 745 729 730
f 727 726 747
f 747 726 717
f 748 727 749
f 749 727 747
f 747 717 750
f 750 717 716
f 749 747 751
f 751 747 750
f 749 752 748
f 748 752 753
f 730 753 745
f 745 753 752
f 728 725 748
f 748 725 727
f 730 728 753
f 753 728 748
f 700 702 754
f 754 702 712
f 705 701 715
f 715 701 755
f 754 755 700
f 700 755 701
f 742 756 754
f 754 756 755
f 740 757 742
f 742 757 756
f 755 756 715
f 715 756 758
f 754 712 742
f 742 712 743
f 759 714 758
f 758 714 715
f 714 759 713
f 713 759 716
f 759 760 716
f 716 760 750
f 760 759 761
f 761 759 758
f 762 760 763
f 763 760 761
f 756 757 758
f 758 757 761
f 757 764 761
f 761 764 763
f 760 762 750
f 750 762 751
f 766 751 765
f 765 751 762
f 767 765 769
f 769 765 768
f 765 762 768
f 768 762 763
f 765 767 766
f 766 767 746
f 766 746 752
f 752 746 745
f 752 749 766
f 766 749 751
f 757 740 764
f 764 740 741
f 769 764 744
f 744 764 741
f 769 768 764
f 764 768 763
f 767 769 739
f 739 769 744
f 739 736 767
f 767 736 746
f 219 217 208
f 208 217 209
f 209 217 210
f 210 217 193
f 198 580 199
f 199 580 511
f 76 75 289
f 289 75 272
f 277 207 291
f 291 207 184
f 290 183 203
f 203 183 84
f 490 580 142
f 142 580 198
f 142 198 143
f 143 198 197
f 149 276 72
f 72 276 73
f 104 103 279
f 279 103 770
f 770 596 279
f 279 596 595
f 605 596 771
f 771 596 770
f 771 770 772
f 772 770 103
f 772 103 773
f 773 103 102
f 155 774 101
f 101 774 102
f 773 102 97
f 97 102 774
f 775 773 100
f 100 773 97
f 773 775 772
f 772 775 776
f 772 776 771
f 771 776 777
f 200 606 197
f 197 606 777
f 189 71 778
f 778 71 74
f 97 774 98
f 98 774 155
f 183 161 184
f 184 161 291
f 777 276 197
f 197 276 143
f 777 606 771
f 771 606 605
f 613 612 697
f 697 612 202
f 595 697 279
f 279 697 202
f 73 276 776
f 776 276 777
f 776 775 73
f 73 775 74
f 100 778 775
f 775 778 74
f 778 100 189
f 189 100 99
f 245 242 99
f 99 242 189
f 131 33 256
f 28 1 95
f 95 1 62
f 27 2 28
f 28 2 1
f 265 115 266
f 266 115 114
f 95 62 69
f 69 62 64
f 62 61 64
f 64 61 65
f 61 13 65
f 65 13 130
f 13 12 130
f 130 12 14
f 31 11 32
f 32 11 268
f 15 12 31
f 31 12 11
f 31 30 15
f 15 30 231
f 30 106 231
f 231 106 232
f 287 237 106
f 106 237 232
f 254 90 287
f 287 90 237
f 253 44 254
f 254 44 90
f 253 249 44
f 44 249 7
f 267 127 268
f 268 127 126
f 10 3 241
f 241 3 116
f 3 2 116
f 116 2 114
f 2 27 114
f 114 27 266
f 27 26 266
f 266 26 113
f 26 286 113
f 113 286 110
f 286 243 110
f 110 243 255
f 243 242 255
f 255 242 256
f 242 245 256
f 256 245 131
f 245 244 131
f 131 244 132
f 265 37 115
f 115 37 41
f 41 37 42
f 42 37 40
f 92 91 40
f 40 91 42
f 236 233 92
f 92 233 91
f 191 194 236
f 236 194 233
f 258 285 244
f 244 285 132
f 257 55 258
f 258 55 285
f 257 154 201
f 201 154 185
f 56 201 204
f 204 201 180
f 55 257 56
f 56 257 201
f 204 85 56
f 56 85 52
f 86 122 53
f 53 122 79
f 212 215 86
f 86 215 122
f 211 216 212
f 212 216 215
f 192 280 211
f 211 280 216
f 191 240 192
f 192 240 280
f 249 124 7
f 7 124 8
f 124 127 8
f 8 127 241
f 127 267 241
f 241 267 10
f 10 267 9
f 9 267 11
