v 0.04865625873208046 0.10227125138044357 0.6448306441307068
v 0.061172015964984894 0.0979183167219162 0.6445029377937317
v 0.054221268743276596 0.09329427778720856 0.6504513025283813
v 0.0434173159301281 0.0981559008359909 0.6508515477180481
v 0.07151279598474503 0.09082937240600586 0.6632804274559021
v 0.07520700246095657 0.096670001745224 0.6726670861244202
v 0.058463405817747116 0.0939936488866806 0.6743329167366028
v 0.058674994856119156 0.08862258493900299 0.6656152009963989
v 0.03829924389719963 0.09775322675704956 0.6548855900764465
v 0.047356016933918 0.09136354178190231 0.6542733907699585
v 0.03643430396914482 0.10280384868383408 0.6553776264190674
v 0.02860313095152378 0.11227450519800186 0.6598297953605652
v 0.029589252546429634 0.10574077069759369 0.6582050323486328
v 0.021365676075220108 0.11668680608272552 0.6607927083969116
v 0.03440544754266739 0.1220385730266571 0.6603111028671265
v 0.023480186238884926 0.12503640353679657 0.6569955348968506
v 0.042885422706604004 0.13677363097667694 0.6418297290802002
v 0.046379830688238144 0.13775783777236938 0.6296637654304504
v 0.030779823660850525 0.13589417934417725 0.6283327341079712
v 0.0288041103631258 0.1342986673116684 0.6410084366798401
v 0.04094209894537926 0.13260163366794586 0.6110478639602661
v 0.034398578107357025 0.1345205307006836 0.6204231977462769
v 0.05016932636499405 0.13749665021896362 0.6217624545097351
v 0.055298302322626114 0.13540643453598022 0.6132922172546387
v 0.056043196469545364 0.1072382852435112 0.6331058144569397
v 0.06750255078077316 0.1052868664264679 0.6321412920951843
v 0.06595221906900406 0.10335583984851837 0.6365745067596436
v 0.05434853211045265 0.10599298030138016 0.6375793814659119
v 0.03435748443007469 0.10598447918891907 0.6603003740310669
v 0.04144780710339546 0.11464083939790726 0.6645365953445435
v 0.037202320992946625 0.11074110120534897 0.6595251560211182
v 0.03460787609219551 0.10145744681358337 0.657038688659668
v 0.0929454043507576 0.09918922185897827 0.6240664720535278
v 0.10478607565164566 0.10502669215202332 0.6263555288314819
v 0.10414513200521469 0.10550868511199951 0.6322859525680542
v 0.0935705229640007 0.10040044784545898 0.6289718747138977
v 0.09609781950712204 0.10239751636981964 0.6575772166252136
v 0.10331115871667862 0.10814304649829865 0.6515586972236633
v 0.10717035830020905 0.11725953221321106 0.6604741215705872
v 0.09806712716817856 0.11512356251478195 0.6651499271392822
v 0.08638735860586166 0.09820844233036041 0.6666770577430725
v 0.08827130496501923 0.1093556359410286 0.6721075773239136
v 0.07398214191198349 0.10719476640224457 0.6775842905044556
v 0.0559508241713047 0.10217843949794769 0.6784966588020325
v 0.10624874383211136 0.10699284821748734 0.6137969493865967
v 0.09791798889636993 0.10247409343719482 0.6103095412254333
v -0.021442275494337082 0.14444684982299805 0.6473171710968018
v -0.021567976102232933 0.14309269189834595 0.6416712999343872
v -0.019599054008722305 0.1367231160402298 0.6441512107849121
v -0.019652681425213814 0.13917797803878784 0.6491817235946655
v 0.0995849072933197 0.12123662233352661 0.6013452410697937
v 0.09814462065696716 0.13114500045776367 0.6022546887397766
v 0.1053040400147438 0.13007816672325134 0.6020384430885315
v 0.1068611592054367 0.12089893221855164 0.6030683517456055
v 0.08993224799633026 0.12155213207006454 0.5991851091384888
v 0.08812574297189713 0.13197818398475647 0.6030805110931396
v -0.011125782504677773 0.1504819095134735 0.6495137214660645
v -0.015658214688301086 0.14917556941509247 0.6512410044670105
v -0.012997900135815144 0.14521868526935577 0.6528988480567932
v -0.00845568161457777 0.14655447006225586 0.6504104733467102
v 0.03301827609539032 0.10291304439306259 0.6538601517677307
v 0.03796413540840149 0.10364590585231781 0.6465067267417908
v 0.00963539071381092 0.10764305293560028 0.6539570093154907
v 0.02312072180211544 0.1056876853108406 0.6496904492378235
v 0.022615134716033936 0.10614736378192902 0.6567633152008057
v 0.012137765996158123 0.10951557010412216 0.6595807671546936
v 0.03349634259939194 0.10815182328224182 0.6282181143760681
v 0.04522213712334633 0.10846078395843506 0.6294618844985962
v 0.04227718710899353 0.10816945135593414 0.6351356506347656
v 0.029040738940238953 0.10720796883106232 0.6355918049812317
v 0.049614258110523224 0.10572835057973862 0.6163474917411804
v 0.03772608935832977 0.10608486831188202 0.6161934733390808
v 0.04160720109939575 0.1043897420167923 0.6088618040084839
v 0.04942220076918602 0.10355217009782791 0.610245406627655
v 0.014498905278742313 0.10746794939041138 0.6194206476211548
v 0.005766656715422869 0.11054159700870514 0.6194745898246765
v 0.006124887615442276 0.1138157844543457 0.6137282252311707
v 0.01602400653064251 0.10843611508607864 0.6153154373168945
v 0.11234758049249649 0.13009530305862427 0.6022876501083374
v 0.11362903565168381 0.12096374481916428 0.605604350566864
v 0.049904461950063705 0.12551473081111908 0.5931457877159119
v 0.05625981092453003 0.11804109066724777 0.5885600447654724
v 0.04418336972594261 0.1143161877989769 0.5849897861480713
v 0.04107388108968735 0.12343199551105499 0.5907095670700073
v 0.09500306099653244 0.13872367143630981 0.608543872833252
v 0.10247769206762314 0.13871297240257263 0.6062617301940918
v -0.007327571045607328 0.15069371461868286 0.6445646286010742
v -0.0052606165409088135 0.14733190834522247 0.6450507640838623
v 0.07378366589546204 0.11856262385845184 0.6748373508453369
v 0.05424284189939499 0.11113902926445007 0.677091658115387
v 0.08839479088783264 0.12277738004922867 0.669559895992279
v 0.09763297438621521 0.12647999823093414 0.6643230319023132
v 0.10613321512937546 0.12870511412620544 0.66234290599823
v 0.01902567222714424 0.10545006394386292 0.6439700722694397
v 0.044213417917490005 0.10612638294696808 0.6402490735054016
v 0.05760212242603302 0.10719172656536102 0.6286147832870483
v 0.06258827447891235 0.09950623661279678 0.5995168089866638
v 0.07297611981630325 0.09918470680713654 0.6011420488357544
v 0.06726405769586563 0.09896181523799896 0.6101056933403015
v 0.05932508036494255 0.09995771199464798 0.6067600250244141
v 0.05711778625845909 0.10827232897281647 0.5877060890197754
v 0.05453166365623474 0.10234590619802475 0.5920770168304443
v 0.04572908207774162 0.1018378883600235 0.5908725261688232
v 0.04670235887169838 0.10646401345729828 0.5860388278961182
v 0.03406735509634018 0.1084258034825325 0.6669087409973145
v 0.04580437019467354 0.11736878007650375 0.6691286563873291
v 0.10033100098371506 0.11114511638879776 0.6041060090065002
v 0.1069813072681427 0.1120317205786705 0.6079226732254028
v 0.11462331563234329 0.11474057286977768 0.6101467609405518
v 0.08067969232797623 0.10123923420906067 0.629802942276001
v 0.09412888437509537 0.10101297497749329 0.6326748132705688
v 0.09340157359838486 0.10023261606693268 0.637989342212677
v 0.08054211735725403 0.10132245719432831 0.6329672932624817
v 0.07344474643468857 0.09310802817344666 0.6484947204589844
v 0.0841321349143982 0.09373649954795837 0.6546692252159119
v 0.06345174461603165 0.08887521177530289 0.6542629599571228
v 0.1050010398030281 0.10646820813417435 0.6408217549324036
v 0.11385458707809448 0.10764330625534058 0.6341626644134521
v 0.11337053775787354 0.10934938490390778 0.6430124640464783
v 0.11479564756155014 0.10841803252696991 0.6244430541992188
v 0.1151086688041687 0.110622838139534 0.6158208847045898
v 0.1102929413318634 0.1415734738111496 0.604671835899353
v 0.11179893463850021 0.11249944567680359 0.6508020162582397
v 0.04976527765393257 0.08777318149805069 0.6654964685440063
v 0.04152321442961693 0.08668116480112076 0.6647588610649109
v 0.04020117595791817 0.08897070586681366 0.6573272943496704
v 0.04746608808636665 0.08917044848203659 0.6572697758674622
v 0.012874742969870567 0.12223662436008453 0.6606602072715759
v 0.011371279135346413 0.115061916410923 0.6620233654975891
v 0.022738106548786163 0.10990010201931 0.6615227460861206
v 0.08335563540458679 0.09812406450510025 0.6176695823669434
v 0.08810675889253616 0.10065820813179016 0.6063242554664612
v 0.006285887211561203 0.10899538546800613 0.6479418873786926
v -0.00513744680210948 0.14563129842281342 0.650460958480835
v -0.00883745588362217 0.14291028678417206 0.6539729237556458
v 0.0028819097205996513 0.13309144973754883 0.6574525833129883
v 0.005810800474137068 0.1370312124490738 0.6532906293869019
v 0.00010670570190995932 0.11895008385181427 0.6417299509048462
v 0.0010416916338726878 0.11475009471178055 0.6469806432723999
v -0.0012789840111508965 0.11912375688552856 0.6455809473991394
v -0.0018242025980725884 0.12259543687105179 0.6403070688247681
v 0.01145191490650177 0.1110178604722023 0.6070557236671448
v 0.0202601607888937 0.10667343437671661 0.6084759831428528
v 0.014234507456421852 0.12959709763526917 0.6395900845527649
v 0.018009712919592857 0.13058379292488098 0.6508911848068237
v 0.027178632095456123 0.13178035616874695 0.649813175201416
v 0.03667698800563812 0.10741210728883743 0.6215171813964844
v 0.025836529210209846 0.10686255991458893 0.619665801525116
v 0.027079202234745026 0.10665468871593475 0.6157190203666687
v 0.01550513505935669 0.10651062428951263 0.6404509544372559
v 0.005650043021887541 0.10983932763338089 0.6419184803962708
v 0.009900394827127457 0.10899128764867783 0.6371250152587891
v 0.019312743097543716 0.10739680379629135 0.6354354023933411
v 0.06865495443344116 0.12060650438070297 0.5916575789451599
v 0.06966301053762436 0.10912928730249405 0.5901640057563782
v -0.019274992868304253 0.14679430425167084 0.6506537199020386
v -0.017036501318216324 0.1419987678527832 0.6524973511695862
v 0.0480891652405262 0.10771982371807098 0.622879683971405
v 0.04008372500538826 0.13273239135742188 0.649998664855957
v 0.05940740182995796 0.10643765330314636 0.623585045337677
v 0.0266447514295578 0.12273316830396652 0.6007078886032104
v 0.024856626987457275 0.11679751425981522 0.5969900488853455
v 0.019716037437319756 0.1174284890294075 0.5985536575317383
v 0.021611778065562248 0.12282086163759232 0.5996793508529663
v -0.010868603363633156 0.1345313936471939 0.6355743408203125
v -0.014670033007860184 0.13255485892295837 0.6396373510360718
v -0.01767103001475334 0.13633842766284943 0.6380069255828857
v -0.013598204590380192 0.13777585327625275 0.6343817114830017
v 0.0018230428686365485 0.1147468090057373 0.6527968645095825
v 0.0039519499987363815 0.11619554460048676 0.6587526798248291
v -0.001734592136926949 0.12213467806577682 0.6559218764305115
v -0.002156482543796301 0.1201825812458992 0.6505232453346252
v 0.00502759637311101 0.12246285378932953 0.6605504751205444
v 0.00028150284197181463 0.12749259173870087 0.6584049463272095
v -0.005751440301537514 0.13896383345127106 0.6354877948760986
v -0.0013755651889368892 0.14418816566467285 0.6395151019096375
v 0.006512125488370657 0.1352563351392746 0.6409029364585876
v 0.000909823807887733 0.12983833253383636 0.6386741995811462
v 0.06953475624322891 0.13862913846969604 0.6157769560813904
v 0.07325927168130875 0.1348036676645279 0.6061512231826782
v 0.0590839646756649 0.13159769773483276 0.6033287644386292
v 0.04558633267879486 0.1288856565952301 0.6001396179199219
v 0.033409491181373596 0.12473425269126892 0.5983713865280151
v 0.02989509329199791 0.13039983808994293 0.6087896823883057
v 0.06305044144392014 0.1284945160150528 0.5970913767814636
v 0.003181201871484518 0.12524282932281494 0.6369163990020752
v 0.010017278604209423 0.1289292275905609 0.6427691578865051
v 0.00806216150522232 0.128623828291893 0.6378256678581238
v 0.06100449711084366 0.10372698307037354 0.616885244846344
v -0.012249523773789406 0.13940271735191345 0.6543271541595459
v 0.09533113241195679 0.14254704117774963 0.6505808234214783
v 0.09559157490730286 0.14631594717502594 0.6381403803825378
v 0.08717278391122818 0.1443287581205368 0.6397306323051453
v 0.08654575049877167 0.13964354991912842 0.6530635952949524
v -0.01631961017847061 0.13223232328891754 0.6462929248809814
v -0.015658225864171982 0.13507886230945587 0.6517252326011658
v 0.021830260753631592 0.10563910007476807 0.6025469899177551
v 0.014611182734370232 0.11012134701013565 0.6022552251815796
v 0.015262136235833168 0.11200907826423645 0.5991726517677307
v 0.02100221998989582 0.10616493970155716 0.5979105830192566
v 0.07648448646068573 0.13227860629558563 0.6019642353057861
v 0.03581966459751129 0.10899803042411804 0.5839732885360718
v 0.03467918932437897 0.118646539747715 0.5875532031059265
v 0.08561193943023682 0.13765250146389008 0.6090145111083984
v 0.08244209736585617 0.1415945291519165 0.6172727942466736
v 0.09190789610147476 0.14359219372272491 0.6177641749382019
v 0.01875593513250351 0.13050702214241028 0.6195560693740845
v 0.06490279734134674 0.14013637602329254 0.62287437915802
v 0.07900312542915344 0.14253926277160645 0.6239942312240601
v 0.09018240869045258 0.14493456482887268 0.624889612197876
v 0.09819634258747101 0.1471702754497528 0.6247915625572205
v 0.09931930154561996 0.14525973796844482 0.6170023679733276
v -0.002401977311819792 0.14584393799304962 0.6445683240890503
v -0.003971336875110865 0.14557240903377533 0.6391258835792542
v 0.1076032891869545 0.14864248037338257 0.6155713200569153
v 0.10610900074243546 0.15001873672008514 0.6245704293251038
v 0.07586687058210373 0.14275911450386047 0.6326295733451843
v 0.07241399586200714 0.14176078140735626 0.6425741314888
v 0.06237073615193367 0.14027100801467896 0.6311026811599731
v 0.05785001441836357 0.13913285732269287 0.6410075426101685
v 0.0202571339905262 0.13451415300369263 0.6292749047279358
v -0.012342493049800396 0.15618585050106049 0.63261479139328
v -0.00916004367172718 0.14643140137195587 0.6341509819030762
v -0.014439087361097336 0.1438211053609848 0.6328720450401306
v -0.015609070658683777 0.153973788022995 0.6307275295257568
v -0.008394596166908741 0.1411488801240921 0.6348798274993896
v -0.005874252412468195 0.1488853096961975 0.6384386420249939
v 0.054819244891405106 0.13405415415763855 0.6519103050231934
v 0.00027273071464151144 0.11533402651548386 0.6366674304008484
v 0.0704377293586731 0.13469430804252625 0.6557940244674683
v 0.04637345299124718 0.12662416696548462 0.6618592143058777
v 0.05748705565929413 0.12586641311645508 0.6652177572250366
v 0.08619203418493271 0.13387255370616913 0.6626390814781189
v 0.07192961871623993 0.1278018355369568 0.6686685681343079
v 0.10394810140132904 0.13779257237911224 0.658005952835083
v 0.09503249078989029 0.1362944096326828 0.6594175100326538
v 0.05748860165476799 0.12047891318798065 0.6722596287727356
v -0.025196116417646408 0.15298400819301605 0.6403201222419739
v -0.02390085719525814 0.15093502402305603 0.6354057192802429
v 0.10337474942207336 0.1448509246110916 0.6497372388839722
v 0.054121892899274826 0.0882616713643074 0.656670093536377
v 0.07126963883638382 0.10183270275592804 0.6201447248458862
v 0.06973081082105637 0.10393069684505463 0.6249494552612305
v 0.07906252145767212 0.09953098744153976 0.602881669998169
v 0.07434433698654175 0.09866826236248016 0.6135629415512085
v -0.02361229993402958 0.15544945001602173 0.6445095539093018
v 0.004577283281832933 0.1158725768327713 0.6174641251564026
v 0.00554006639868021 0.11945037543773651 0.6142963171005249
v 0.0491827055811882 0.0911068469285965 0.6735753417015076
v 0.041683629155159 0.08895847946405411 0.6721338629722595
v 0.035219356417655945 0.10001207888126373 0.6752909421920776
v 0.03827119246125221 0.09358435869216919 0.6761770844459534
v 0.046400438994169235 0.09808587282896042 0.6776645183563232
v 0.04371630772948265 0.10522978007793427 0.6765193343162537
v 0.08052559942007065 0.10078029334545135 0.6271769404411316
v 0.08078065514564514 0.09992814064025879 0.6233605742454529
v 0.08005418628454208 0.12093979120254517 0.5953431129455566
v 0.08025646209716797 0.10950189083814621 0.5941311120986938
v 0.007712967228144407 0.12753763794898987 0.6589663624763489
v 0.01521599292755127 0.1278560608625412 0.6569923162460327
v 0.010749612003564835 0.13191385567188263 0.6546037793159485
v 0.008499071933329105 0.13720057904720306 0.6472968459129333
v -0.0008662353502586484 0.12177639454603195 0.6353564858436584
v 0.003579210489988327 0.12440356612205505 0.6401839256286621
v 0.08922068029642105 0.0969410240650177 0.6450231075286865
v 0.07855679839849472 0.0984736755490303 0.6394686698913574
v 0.04287281259894371 0.09291951358318329 0.6549668312072754
v 0.037309225648641586 0.09444239735603333 0.6543784737586975
v 0.023891089484095573 0.10742389410734177 0.6286404132843018
v 0.01302370522171259 0.1282373070716858 0.6210224628448486
v 0.014066869392991066 0.1334608942270279 0.6287126541137695
v 0.013280785642564297 0.10837043821811676 0.6287563443183899
v -0.016503719612956047 0.15969687700271606 0.6446815729141235
v -0.02105998806655407 0.15766753256320953 0.6456323266029358
v 0.012204879894852638 0.13254329562187195 0.6491008400917053
v 0.03046833537518978 0.1042601615190506 0.6085582971572876
v 0.015908485278487206 0.12710046768188477 0.6158930063247681
v 0.009659362956881523 0.1216340884566307 0.6177338361740112
v 0.0404156818985939 0.10375520586967468 0.5860717296600342
v 0.10422873497009277 0.14834146201610565 0.6377364993095398
v -0.019215697422623634 0.14296309649944305 0.6354163885116577
v -0.020891638472676277 0.15055888891220093 0.6316055059432983
v -0.009970341809093952 0.15792837738990784 0.6357504725456238
v -0.010973761789500713 0.15919187664985657 0.641109049320221
v 0.08959456533193588 0.10947687178850174 0.5995064973831177
v 0.06842292845249176 0.10504447668790817 0.6280169486999512
v 0.044980235397815704 0.11391197144985199 0.672380268573761
v 0.034072257578372955 0.10604067146778107 0.6711903810501099
v 0.0042783296667039394 0.11089695245027542 0.6288220286369324
v 0.030007127672433853 0.11954429000616074 0.593725860118866
v 0.02339482307434082 0.12903864681720734 0.6070088148117065
v 0.020036479458212852 0.12972478568553925 0.6041397452354431
v 0.014355750754475594 0.13108623027801514 0.6076457500457764
v 0.007442695088684559 0.12824338674545288 0.609397828578949
v -0.011769387871026993 0.16055989265441895 0.6332396268844604
v -0.013019941747188568 0.1636236608028412 0.6381025314331055
v -0.017864881083369255 0.16541264951229095 0.6400676369667053
v -0.022742904722690582 0.16340208053588867 0.6410517692565918
v -0.025374943390488625 0.15902860462665558 0.6407914757728577
v -0.014277124777436256 0.15854892134666443 0.6302849054336548
v -0.017150837928056717 0.15648123621940613 0.6289778351783752
v -0.02208739146590233 0.15300880372524261 0.6307510733604431
v -0.014063343405723572 0.15976329147815704 0.626995861530304
v -0.011957041919231415 0.1638721227645874 0.6279751658439636
v -0.018554219976067543 0.17425379157066345 0.6289576888084412
v -0.01642202027142048 0.17084380984306335 0.6329371929168701
v -0.01538333110511303 0.1714577078819275 0.6307017803192139
v -0.01597914658486843 0.17448042333126068 0.6270910501480103
v -0.015241513028740883 0.1770489662885666 0.622965931892395
v -0.018516549840569496 0.17719195783138275 0.6244888305664062
v -0.013119064271450043 0.16771453619003296 0.6306940317153931
v -0.013257230632007122 0.1713942587375641 0.6256636381149292
v -0.011951234191656113 0.16820085048675537 0.6232807636260986
v -0.011013321578502655 0.17163687944412231 0.6194612979888916
v -0.012116415426135063 0.17485399544239044 0.6214810013771057
v -0.012010639533400536 0.16608184576034546 0.6269943118095398
v -0.01304155495017767 0.16690167784690857 0.632186770439148
v -0.017092792317271233 0.17790460586547852 0.6203834414482117
v -0.014526544138789177 0.17797377705574036 0.620459258556366
v -0.012347124516963959 0.17603713274002075 0.6189004778862
v -0.01428900845348835 0.1762787252664566 0.6166045069694519
v -0.021742766723036766 0.16840805113315582 0.6361204385757446
v -0.020949719473719597 0.17350757122039795 0.629041850566864
v -0.02073845826089382 0.17526641488075256 0.6235478520393372
v -0.01912187598645687 0.17613548040390015 0.6195410490036011
v -0.023265792056918144 0.17122235894203186 0.6268119812011719
v -0.02191593311727047 0.1728716492652893 0.6224101781845093
v -0.02059287391602993 0.17329178750514984 0.6186594367027283
v -0.024148253723978996 0.16817227005958557 0.6240953803062439
v -0.022331561893224716 0.17035619914531708 0.6205976009368896
v -0.02695823647081852 0.1601308286190033 0.6349270343780518
v -0.02522103488445282 0.16379182040691376 0.6368890404701233
v -0.021543366834521294 0.17145787179470062 0.6182980537414551
v -0.015788918361067772 0.1747170388698578 0.6159091591835022
v -0.01249779388308525 0.16471272706985474 0.6225598454475403
v -0.012376178987324238 0.16902722418308258 0.6176971793174744
v -0.013789723627269268 0.1632232964038849 0.6217038631439209
v -0.01358192041516304 0.1671389639377594 0.6165897846221924
v -0.011983231641352177 0.1722669005393982 0.6152198910713196
v -0.011390467174351215 0.17351922392845154 0.6175103783607483
v -0.026019183918833733 0.15491706132888794 0.6381260752677917
v -0.02461824007332325 0.15265163779258728 0.6337900757789612
v -0.025204973295331 0.1563759446144104 0.6310634613037109
v -0.022949913516640663 0.16469311714172363 0.6214022636413574
v -0.022151799872517586 0.1554747372865677 0.6280235648155212
v -0.0165325365960598 0.15825605392456055 0.6254442930221558
v -0.01580473966896534 0.1625157594680786 0.620219886302948
v -0.018999580293893814 0.1623772382736206 0.6198227405548096
v -0.015832258388400078 0.16591206192970276 0.6166725754737854
v -0.018378792330622673 0.16597937047481537 0.6172448396682739
v -0.02133646048605442 0.16772648692131042 0.6184319853782654
v -0.01648649387061596 0.16925469040870667 0.6149256229400635
v -0.013818592764437199 0.1707530915737152 0.6146515011787415
v -0.01820344477891922 0.17231018841266632 0.6158193349838257
v -0.01809248887002468 0.1682462990283966 0.615813136100769
v -0.019698603078722954 0.1703307330608368 0.6169169545173645
v -0.01854787766933441 0.13775578141212463 0.5985569357872009
v -0.014097592793405056 0.13451965153217316 0.5959140062332153
v -0.015174707397818565 0.12842941284179688 0.6030125021934509
v -0.01824498362839222 0.1318863034248352 0.6058585047721863
v -0.012680009938776493 0.14452733099460602 0.6079975366592407
v -0.017633797600865364 0.14334636926651 0.6054171323776245
v -0.015841307118535042 0.14045578241348267 0.611083984375
v -0.009578044526278973 0.14229798316955566 0.6111389994621277
v -0.006882597226649523 0.14303363859653473 0.6071670055389404
v -0.004198984242975712 0.1402900516986847 0.6091020107269287
v -0.00597921758890152 0.14252209663391113 0.613209068775177
v -0.012113492004573345 0.1394331008195877 0.6148871779441833
v -0.0005647415528073907 0.1296418309211731 0.629710853099823
v 0.004147407598793507 0.13408419489860535 0.6270719766616821
v -5.63677167519927e-05 0.11397812515497208 0.6205298900604248
v 0.0018035855609923601 0.11641523241996765 0.617996871471405
v -0.019280482083559036 0.14072176814079285 0.601674497127533
v -0.018381787464022636 0.1365353763103485 0.6088900566101074
v -0.006538705434650183 0.12477191537618637 0.6023164987564087
v -0.011281577870249748 0.12435492128133774 0.6048981547355652
v -0.011404941789805889 0.12678708136081696 0.600102424621582
v -0.006667332258075476 0.12761607766151428 0.5992361903190613
v -0.003638812340795994 0.12074996531009674 0.6296496391296387
v -0.0016349764773622155 0.11588447540998459 0.6259366273880005
v -0.0029281177558004856 0.12520675361156464 0.6297560334205627
v -0.0016209514578804374 0.1287842094898224 0.6021580696105957
v 0.0015843106666579843 0.13442744314670563 0.6039521098136902
v 0.010494107380509377 0.1286160945892334 0.6160060167312622
v 0.00745436642318964 0.12245703488588333 0.6147105693817139
v -0.015826426446437836 0.13530032336711884 0.613964319229126
v -0.01487511582672596 0.12655021250247955 0.608540415763855
v -0.01681986264884472 0.13014283776283264 0.6113999485969543
v -0.000765956356190145 0.1400783658027649 0.6089892983436584
v -0.001037685782648623 0.1361587941646576 0.6037389636039734
v 0.0013487044489011168 0.14514482021331787 0.5920149683952332
v -0.0019111927831545472 0.13582533597946167 0.5995839834213257
v -0.004902656655758619 0.13391239941120148 0.5960541367530823
v -0.0007792204851284623 0.14319930970668793 0.5881031155586243
v -0.0029872669838368893 0.13098390400409698 0.6009715795516968
v -0.0024681040085852146 0.13932786881923676 0.6035867929458618
v -0.01240169070661068 0.14904677867889404 0.5867589116096497
v -0.00827562715858221 0.14517322182655334 0.5842599272727966
v -0.013286163099110126 0.1522548943758011 0.5898460745811462
v 0.00902763195335865 0.13383321464061737 0.6213300824165344
v -0.008571362122893333 0.15469694137573242 0.5979701280593872
v -0.012715020217001438 0.15402324497699738 0.5936117172241211
v -0.00913211889564991 0.1332118660211563 0.594541072845459
v -0.003998929169028997 0.14345547556877136 0.5850769877433777
v 0.0014350678538903594 0.1482149362564087 0.5955421924591064
v -0.0030579972080886364 0.15213987231254578 0.5997117161750793
v 0.001668632379733026 0.14951428771018982 0.5881268382072449
v 0.0005002192920073867 0.15453976392745972 0.591578483581543
v -0.00354527635499835 0.1574450135231018 0.5903046727180481
v -0.008054953068494797 0.15779170393943787 0.5876041054725647
v -0.010268705897033215 0.1557113081216812 0.5852700471878052
v 0.0009224381064996123 0.14744606614112854 0.5856574177742004
v -0.0014130972558632493 0.1462506502866745 0.5824044346809387
v -0.005369008984416723 0.14623774588108063 0.5816880464553833
v 0.001509866095148027 0.14775244891643524 0.5788549780845642
v 0.003703045193105936 0.1501772701740265 0.5804680585861206
v 0.005016362760215998 0.16451269388198853 0.5734605193138123
v 0.0029422962106764317 0.1627686321735382 0.5782384872436523
v 0.005084129516035318 0.1613641381263733 0.5783052444458008
v 0.00719390669837594 0.1627621054649353 0.5739615559577942
v 0.002101308200508356 0.16017380356788635 0.583169162273407
v 0.004130339715629816 0.1593550741672516 0.5816941261291504
v 0.004878221545368433 0.15502463281154633 0.5819134712219238
v 0.006589288357645273 0.15701472759246826 0.5773190259933472
v 0.00640391418710351 0.15235118567943573 0.5763702988624573
v 0.009172072634100914 0.15375173091888428 0.5723889470100403
v 0.009873712435364723 0.1585174798965454 0.5733096599578857
v 0.005546456668525934 0.15207281708717346 0.5796679258346558
v 0.008736671879887581 0.16263297200202942 0.5710335373878479
v 0.00750501686707139 0.1634272336959839 0.5689043998718262
v 0.003013624344021082 0.15492276847362518 0.5837730765342712
v -0.0041585746221244335 0.1603628396987915 0.5845738053321838
v 0.0002447910374030471 0.1634414792060852 0.5771056413650513
v 0.0026208036579191685 0.16450408101081848 0.5714558959007263
v 0.005606012884527445 0.16221009194850922 0.5668772459030151
v -0.0023800781928002834 0.16200128197669983 0.5745267271995544
v 0.0007658287649974227 0.1627422422170639 0.5695995092391968
v 0.0035417438484728336 0.16055676341056824 0.5662762522697449
v -0.004272674676030874 0.15888488292694092 0.5718180537223816
v -0.0007001288468018174 0.1594032645225525 0.5675825476646423
v -0.009924165904521942 0.1552988439798355 0.5805516242980957
v -0.008210612460970879 0.15868662297725677 0.5826787948608398
v 0.0015748686855658889 0.15927256643772125 0.5663526058197021
v 0.010287849232554436 0.15956167876720428 0.5676925182342529
v 0.0077217393554747105 0.15881767868995667 0.5655629634857178
v 0.010542528703808784 0.15943682193756104 0.5695253610610962
v 0.00567357474938035 0.15059520304203033 0.5753748416900635
v 0.008104050531983376 0.15242493152618408 0.5708082914352417
v 0.0040709213353693485 0.1491478979587555 0.5738712549209595
v 0.006775117013603449 0.15164127945899963 0.5689934492111206
v 0.009830808266997337 0.15482477843761444 0.5678224563598633
v 0.010607270523905754 0.15582633018493652 0.5690152645111084
v -0.010336085222661495 0.15212680399417877 0.5834723711013794
v -0.008000824600458145 0.1478809416294098 0.5817164182662964
v -0.009198177605867386 0.15076418220996857 0.5788353681564331
v -0.004025360103696585 0.15433883666992188 0.5704402923583984
v -0.006329297553747892 0.14782504737377167 0.5784255266189575
v -0.0015736125642433763 0.14697976410388947 0.5777046084403992
v 0.0015596806770190597 0.14889925718307495 0.5726929306983948
v -0.0013842858606949449 0.15062353014945984 0.5709359645843506
v 0.004996622446924448 0.15080231428146362 0.5679258704185486
v 0.0018006175523623824 0.1516641229391098 0.568010151386261
v -0.0006922498578205705 0.15556037425994873 0.5670201182365417
v 0.006696669850498438 0.1537044793367386 0.5653336048126221
v 0.008731042966246605 0.1543068140745163 0.5664971470832825
v 0.005684016738086939 0.15803435444831848 0.5651703476905823
v 0.003745997790247202 0.15354634821414948 0.5657222270965576
v 0.0027087987400591373 0.15699324011802673 0.5654146075248718
v -0.0105626555159688 0.13414715230464935 0.5825665593147278
v -0.007737431209534407 0.13025173544883728 0.5801433324813843
v -0.00809498317539692 0.12423025816679001 0.5850855708122253
v -0.01072605699300766 0.12914155423641205 0.5877166986465454
v -0.002391261514276266 0.14018553495407104 0.5905898809432983
v -0.007070796098560095 0.13977216184139252 0.5887640714645386
v -0.007302551064640284 0.13641254603862762 0.5921240448951721
v -0.002055188175290823 0.1366414725780487 0.5942561626434326
v 0.002812592778354883 0.13954366743564606 0.5888010859489441
v 0.0032876492477953434 0.13540473580360413 0.5923723578453064
v 0.0014035966014489532 0.13762116432189941 0.5965095162391663
v -0.004740285221487284 0.135512113571167 0.595924437046051
v 0.004676138516515493 0.1305467188358307 0.6054869294166565
v 0.010539591312408447 0.13417190313339233 0.6036885380744934
v -0.009762203320860863 0.1374269276857376 0.5855587124824524
v -0.010128753259778023 0.13371971249580383 0.589857816696167
v 0.0022428478114306927 0.12070043385028839 0.5858411192893982
v -0.001601174590177834 0.12051322311162949 0.5882788896560669
v -0.0034174486063420773 0.12286160886287689 0.5826131105422974
v 0.0006197340553626418 0.12391628324985504 0.5818310976028442
v 0.0029541938565671444 0.11928451061248779 0.6072775721549988
v 0.006964936852455139 0.11579594761133194 0.6040690541267395
v 0.001876128721050918 0.12501880526542664 0.6063715815544128
v 0.00656784838065505 0.12459845095872879 0.5861464738845825
v 0.009539064019918442 0.13096314668655396 0.588956892490387
v 0.017341485247015953 0.12634490430355072 0.5952265858650208
v 0.014962999150156975 0.12048669159412384 0.5953161716461182
v -0.007601191755384207 0.13195328414440155 0.5952768325805664
v -0.005381444934755564 0.12208642065525055 0.5912405252456665
v -0.008389624767005444 0.12671561539173126 0.5937582850456238
v 0.006707575637847185 0.13610440492630005 0.5931861996650696
v 0.005699217785149813 0.13126295804977417 0.588175356388092
v 0.008372575044631958 0.14492084085941315 0.5728352665901184
v 0.005447691772133112 0.13047096133232117 0.5817098021507263
v 0.0015198629116639495 0.12883241474628448 0.578618586063385
v 0.006369511131197214 0.14299550652503967 0.5695726275444031
v 0.004545361269265413 0.12671436369419098 0.5834872126579285
v 0.006331507582217455 0.13506263494491577 0.585751473903656
v -0.00593407591804862 0.1474294811487198 0.570063591003418
v -0.002736551221460104 0.14342011511325836 0.5682570338249207
v -0.006079671438783407 0.14937779307365417 0.5736546516418457
v 0.01613406091928482 0.132950559258461 0.5994804501533508
v 0.011514353565871716 0.11553466320037842 0.5985255837440491
v -0.0013110056752339005 0.15261200070381165 0.5778064727783203
v -0.00476576155051589 0.15146321058273315 0.5758596658706665
v -0.0028278431855142117 0.12847527861595154 0.5787646174430847
v 0.002368504647165537 0.14213570952415466 0.5676954388618469
v 0.0075891581363976 0.14761853218078613 0.5763207674026489
v 0.003842294681817293 0.1508646011352539 0.579032301902771
v 0.00923214666545391 0.1496734321117401 0.5723742246627808
v 0.0056795463897287846 0.1534358114004135 0.574517548084259
v 0.0017368107801303267 0.15601037442684174 0.5732488632202148
v -0.0014290377730503678 0.15537333488464355 0.5712006688117981
v -0.003218663390725851 0.15347933769226074 0.5689519047737122
v 0.009700464084744453 0.14724119007587433 0.5689101219177246
v 0.0075349570252001286 0.1456606090068817 0.5662081837654114
v 0.0032250494696199894 0.14445388317108154 0.5658925771713257
v 0.011297566816210747 0.1480819284915924 0.5656358599662781
v 0.012428419664502144 0.15261802077293396 0.5680770874023438
v 0.010654820129275322 0.1652170717716217 0.5591045618057251
v 0.007929781451821327 0.16254374384880066 0.5629684925079346
v 0.009153688326478004 0.16226349771022797 0.5632725358009338
v 0.012209458276629448 0.16511689126491547 0.5597814917564392
v 0.00631679454818368 0.15938860177993774 0.5686566829681396
v 0.008380705490708351 0.1598758101463318 0.5674442052841187
v 0.010620517656207085 0.15716461837291718 0.5685334801673889
v 0.013789037242531776 0.159992516040802 0.5637980103492737
v 0.015487877652049065 0.15462186932563782 0.5623192191123962
v 0.017269162461161613 0.15753605961799622 0.5591273903846741
v 0.016229135915637016 0.16271740198135376 0.5604695081710815
v 0.013238472864031792 0.15397292375564575 0.5670055747032166
v 0.014362575486302376 0.16560369729995728 0.5577722191810608
v 0.013506142422556877 0.1672239899635315 0.5568853616714478
v 0.008909335359930992 0.15628233551979065 0.570173978805542
v 0.0017698764568194747 0.15919463336467743 0.5678091645240784
v 0.005470062140375376 0.16255490481853485 0.5616459250450134
v 0.007896797731518745 0.16550378501415253 0.5572333335876465
v 0.011147862300276756 0.16560828685760498 0.5545039772987366
v 0.003770282957702875 0.16025303304195404 0.5593213438987732
v 0.006708628032356501 0.16300252079963684 0.5555935502052307
v 0.00960095040500164 0.16332508623600006 0.5530748963356018
v 0.0033410252071917057 0.15751372277736664 0.5578047037124634
v 0.006469427142292261 0.15998859703540802 0.5544184446334839
v -0.0020057461224496365 0.1521667093038559 0.5652272701263428
v -0.0008440442616119981 0.15619391202926636 0.5665950179100037
v 0.008944401517510414 0.1612059473991394 0.5527838468551636
v 0.017238421365618706 0.1643463671207428 0.5560152530670166
v 0.015262490138411522 0.16241136193275452 0.5528441071510315
v 0.01660951040685177 0.16365289688110352 0.557477593421936
v 0.01528540812432766 0.15279635787010193 0.562083899974823
v 0.017976650968194008 0.15593448281288147 0.5574901700019836
v 0.013945208862423897 0.15077465772628784 0.560559868812561
v 0.01668415777385235 0.15402263402938843 0.5557886362075806
v 0.01873980648815632 0.1594049632549286 0.5559671521186829
v 0.018286889418959618 0.1600072830915451 0.5569010972976685
v -0.0034960820339620113 0.1496696174144745 0.5673497915267944
v -0.0009295843774452806 0.14603370428085327 0.5658376216888428
v -0.00016241299454122782 0.1483466774225235 0.563789963722229
v 0.005289262626320124 0.1541362702846527 0.5561517477035522
v 0.0035682194866240025 0.1460086852312088 0.5638558268547058
v 0.009099828079342842 0.14721976220607758 0.5631651282310486
v 0.011594271287322044 0.15033628046512604 0.5585455298423767
v 0.008728837594389915 0.1515544056892395 0.5567166209220886
v 0.014358146116137505 0.15336915850639343 0.5543544292449951
v 0.011533906683325768 0.15394407510757446 0.5542423725128174
v 0.007980121299624443 0.15677472949028015 0.5529474020004272
v 0.014889022335410118 0.15703251957893372 0.5529085993766785
v 0.01744394563138485 0.15790221095085144 0.5539438128471375
v 0.012867262586951256 0.160783588886261 0.5517023801803589
v 0.012517979368567467 0.1564861536026001 0.5525299310684204
v 0.010861707851290703 0.15927432477474213 0.5516525506973267
v 0.009728565812110901 0.11421992629766464 0.6011399030685425
v 0.01278668362647295 0.10874351114034653 0.6006472706794739
v 0.01485389843583107 0.10489660501480103 0.6006510853767395
v 0.014817388728260994 0.10349597036838531 0.5992053747177124
v 0.01358121633529663 0.10766758024692535 0.5988376140594482
v 0.0030133905820548534 0.10871855914592743 0.5942545533180237
v 0.005943829659372568 0.11068573594093323 0.5975242853164673
v 0.006487763952463865 0.11141285300254822 0.5937145948410034
v 0.00427514361217618 0.10998566448688507 0.5898550748825073
v 0.0024045719765126705 0.10396268218755722 0.5917456150054932
v 0.004041491542011499 0.1049337387084961 0.5873816013336182
v 0.006853548344224691 0.11177989840507507 0.5886610150337219
v 0.008446496911346912 0.11261996626853943 0.5931124091148376
v 0.02084065042436123 0.11721263080835342 0.5937898755073547
v 0.022362951189279556 0.1176629513502121 0.5895547270774841
v 0.03330402448773384 0.10143277794122696 0.5873332619667053
v 0.03477403521537781 0.09986048191785812 0.5910149812698364
v 0.02581290528178215 0.10015640407800674 0.5925328731536865
v 0.02609463781118393 0.10039494931697845 0.5885862112045288
v 0.00940527580678463 0.11046850681304932 0.5994874835014343
v 0.010248364880681038 0.11078393459320068 0.5970468521118164
v 0.01527983509004116 0.09615880250930786 0.5926737785339355
v 0.016160406172275543 0.09857003390789032 0.5965288281440735
v 0.016005905345082283 0.09938903152942657 0.5981829762458801
v 0.014885690063238144 0.09554734826087952 0.5961297750473022
v 0.03165038675069809 0.1007109060883522 0.5950342416763306
v 0.02767912857234478 0.10266058892011642 0.5972532033920288
v 0.02389359287917614 0.10455834120512009 0.5975064039230347
v 0.023912185803055763 0.10227330029010773 0.595933735370636
v 0.020970221608877182 0.11067141592502594 0.5974515080451965
v 0.013125518336892128 0.09655795246362686 0.5888696908950806
v 0.009812177158892155 0.10010170936584473 0.5850832462310791
v 0.025774700567126274 0.10633596777915955 0.5819580554962158
v 0.0268270093947649 0.10272066295146942 0.5846341252326965
v 0.010118801146745682 0.11072549223899841 0.5966615676879883
v 0.015266616828739643 0.10266221314668655 0.5985677242279053
v 0.012680960819125175 0.10662591457366943 0.5986257791519165
v 0.007746657822281122 0.10716785490512848 0.5845493078231812
v 0.006783023942261934 0.0984378457069397 0.5892444849014282
v 0.008117299526929855 0.09370497614145279 0.6036832928657532
v 0.009917550720274448 0.0946076512336731 0.5961726903915405
v 0.014073035679757595 0.09586317837238312 0.5985690355300903
v 0.011320982128381729 0.09461143612861633 0.604344367980957
v 0.011611872352659702 0.09537418931722641 0.5927407741546631
v 0.005212924908846617 0.09751133620738983 0.5940225124359131
v 0.011976724490523338 0.1075529009103775 0.6065083742141724
v 0.014019743539392948 0.10244664549827576 0.6056675314903259
v 0.009067702107131481 0.10923858731985092 0.6063876152038574
v 0.02406022883951664 0.1144331693649292 0.584232747554779
v 0.00213903421536088 0.10674788057804108 0.6043475270271301
v 0.0055932248942554 0.10898573696613312 0.606156587600708
v 0.015338605269789696 0.10040160268545151 0.6001028418540955
v 0.01377122662961483 0.09778788685798645 0.6049565672874451
v 0.0038776113651692867 0.09567883610725403 0.602903425693512
v 0.000894244178198278 0.10147956758737564 0.60203617811203
v 0.0040728310123085976 0.09533823281526566 0.6081584692001343
v 0.0012945415219292045 0.10086683928966522 0.6076637506484985
v 0.003721976187080145 0.10650160908699036 0.6094330549240112
v 0.007192302029579878 0.10822215676307678 0.6088886857032776
v 0.010331537574529648 0.10826635360717773 0.6083966493606567
v 0.00870831310749054 0.09350118786096573 0.6076154708862305
v 0.011739598587155342 0.09431000053882599 0.607269823551178
v 0.014000650495290756 0.0974942222237587 0.606610119342804
v 0.009470844641327858 0.09334880113601685 0.6118751168251038
v 0.006620160769671202 0.09604404866695404 0.6145824193954468
v 0.014422031119465828 0.10424500703811646 0.6217225193977356
v 0.012050788849592209 0.10522650182247162 0.6184004545211792
v 0.011334777809679508 0.10434447228908539 0.6187903881072998
v 0.013542275875806808 0.10393859446048737 0.6222634315490723
v 0.007783197332173586 0.1055188924074173 0.614834189414978
v 0.008113912306725979 0.10424362123012543 0.6161315441131592
v 0.006092188414186239 0.10132791101932526 0.6151208877563477
v 0.009233378805220127 0.10067044198513031 0.6195295453071594
v 0.010327795520424843 0.09546329081058502 0.6188057661056519
v 0.012608218006789684 0.09558041393756866 0.6222981810569763
v 0.011185890063643456 0.10009047389030457 0.6228073239326477
v 0.007029125466942787 0.09717927128076553 0.6160860657691956
v 0.014258153736591339 0.10283346474170685 0.6247604489326477
v 0.015490326099097729 0.10313726961612701 0.6254107356071472
v 0.00416051410138607 0.10154010355472565 0.6135596632957458
v 0.010499995201826096 0.10753173381090164 0.6125297546386719
v 0.014471514150500298 0.10618381947278976 0.6180514693260193
v 0.01679345592856407 0.10472247749567032 0.6223660707473755
v 0.017672019079327583 0.10228736698627472 0.6252337098121643
v 0.01623275689780712 0.10582204163074493 0.616288959980011
v 0.018814662471413612 0.10430680960416794 0.6213113069534302
v 0.019543355330824852 0.10183273255825043 0.6239401698112488
v 0.018238572403788567 0.10382421314716339 0.6144668459892273
v 0.01991584338247776 0.10263179242610931 0.6196253299713135
v 0.0153435617685318 0.10479812324047089 0.609011173248291
v 0.013263005763292313 0.1070425808429718 0.6107946038246155
v 0.01996568776667118 0.10120221972465515 0.6223269701004028
v 0.014753824099898338 0.09943978488445282 0.6265812516212463
v 0.017574047669768333 0.09898662567138672 0.6257497072219849
v 0.01324829924851656 0.09940516948699951 0.6258308291435242
v 0.010826410725712776 0.09433376789093018 0.6182072758674622
v 0.013745807111263275 0.09440737217664719 0.6223425269126892
v 0.012579265981912613 0.0932106077671051 0.6169428825378418
v 0.01570235937833786 0.09397707134485245 0.6215542554855347
v 0.014975965023040771 0.09603021293878555 0.6252738833427429
v 0.013368023559451103 0.09683707356452942 0.6246965527534485
v 0.013722654432058334 0.10594802349805832 0.607902467250824
v 0.014489012770354748 0.10220840573310852 0.6069416403770447
v 0.01581658236682415 0.10071943700313568 0.6081623435020447
v 0.018793251365423203 0.09987126290798187 0.613392174243927
v 0.014615897089242935 0.0961015522480011 0.6083081960678101
v 0.0120815085247159 0.09358188509941101 0.6099725365638733
v 0.014938732609152794 0.09350703656673431 0.6155952215194702
v 0.01743791438639164 0.09543409198522568 0.6142591238021851
v 0.017623528838157654 0.09459082782268524 0.6207621097564697
v 0.019473213702440262 0.09631742537021637 0.6190968751907349
v 0.020482594147324562 0.09947262704372406 0.6185517907142639
v 0.01863733120262623 0.09683811664581299 0.6236339807510376
v 0.017270667478442192 0.09622585773468018 0.6247873902320862
v 0.019125385209918022 0.0989706814289093 0.6243680119514465
v 0.01972111500799656 0.09754815697669983 0.622200608253479
v 0.020051423460245132 0.09919172525405884 0.6222449541091919
v 0.031182248145341873 0.10393445938825607 0.5851137042045593
v 0.02047945000231266 0.09784722328186035 0.6641507744789124
v 0.02230096608400345 0.0973462387919426 0.6588309407234192
v 0.029404764994978905 0.08253150433301926 0.6581534743309021
v 0.026722360402345657 0.08814619481563568 0.6542164087295532
v 0.029165809974074364 0.08010770380496979 0.6647758483886719
v 0.025414282456040382 0.08467550575733185 0.6737791299819946
v 0.028522668406367302 0.08177164196968079 0.670350193977356
v 0.024479137733578682 0.09342938661575317 0.6548693180084229
v 0.020622773095965385 0.09597939252853394 0.6695340275764465
v 0.022626956924796104 0.0906267762184143 0.674214780330658
v 0.009804999455809593 0.09080780297517776 0.6676839590072632
v 0.012808447703719139 0.08429854363203049 0.6718440055847168
v 0.016507720574736595 0.07777969539165497 0.6705063581466675
v 0.021909033879637718 0.07658813893795013 0.6662124991416931
v 0.0243918988853693 0.07631967216730118 0.6619961261749268
v 0.01352776400744915 0.09442614018917084 0.6614781618118286
v 0.016380010172724724 0.09451719373464584 0.6565026044845581
v 0.020661959424614906 0.09081660211086273 0.6530904173851013
v 0.008215056732296944 0.0908811092376709 0.6562485098838806
v 0.004312711302191019 0.0825023353099823 0.6534014344215393
v 0.008916186168789864 0.06513123959302902 0.645942747592926
v 0.012072904035449028 0.06779208779335022 0.6511077880859375
v 0.009550249204039574 0.06895286589860916 0.6513553261756897
v 0.006727355066686869 0.06609316170215607 0.6469162106513977
v 0.011687425896525383 0.07051846385002136 0.6560594439506531
v 0.010017292574048042 0.0715143084526062 0.6548033952713013
v 0.007318499032407999 0.07632265239953995 0.6554633975028992
v 0.004930099938064814 0.07336641848087311 0.6509653329849243
v 0.00522256875410676 0.07994166016578674 0.6526564955711365
v 0.003971236292272806 0.07896222919225693 0.6486300826072693
v 0.002671631518751383 0.07084277272224426 0.6465194821357727
v 0.0037230351008474827 0.06566641479730606 0.6445469260215759
v 0.001095919287763536 0.06871779263019562 0.6427983045578003
v 0.005444532725960016 0.06488078087568283 0.6422889232635498
v 0.00464268634095788 0.07617160677909851 0.6582392454147339
v 0.017557447776198387 0.07132656127214432 0.6589213013648987
v 0.015595844015479088 0.06800439953804016 0.650876522064209
v 0.011974332854151726 0.06580959260463715 0.6443559527397156
v 0.0076325261034071445 0.06581788510084152 0.6403110027313232
v 0.0185885988175869 0.06993880867958069 0.648797869682312
v 0.014676680788397789 0.06871115416288376 0.6429377794265747
v 0.010379182174801826 0.06940647959709167 0.6392537355422974
v 0.01956528052687645 0.0738501101732254 0.6463258266448975
v 0.01513783447444439 0.07231978327035904 0.6417738795280457
v 0.024518845602869987 0.07896450161933899 0.6547214388847351
v 0.02276240475475788 0.07419693470001221 0.6579018831253052
v 0.011625470593571663 0.07175152748823166 0.6396380066871643
v 0.0010136946802958846 0.06828759610652924 0.6403525471687317
v 0.0033952356316149235 0.06954848766326904 0.6382849216461182
v 0.004076788667589426 0.08209725469350815 0.6478167772293091
v 0.0012241624062880874 0.07658593356609344 0.6448273062705994
v 0.002062248531728983 0.0786232203245163 0.6432037353515625
v 0.006196404341608286 0.08520382642745972 0.6468961834907532
v 0.0036696293391287327 0.08032809942960739 0.6416023969650269
v 0.00041829270776361227 0.07414368540048599 0.6405349969863892
v 0.00025903654750436544 0.07308352738618851 0.6428844928741455
v 0.026173574849963188 0.07963185012340546 0.6568316221237183
v 0.02463034726679325 0.08541600406169891 0.6536020040512085
v 0.022637536749243736 0.08513644337654114 0.6523120403289795
v 0.018018878996372223 0.07994728535413742 0.6448237895965576
v 0.01814655400812626 0.08998259156942368 0.6509842276573181
v 0.01242511160671711 0.09201852977275848 0.6533203721046448
v 0.009315179660916328 0.0862567126750946 0.6451102495193481
v 0.013935735449194908 0.0846959725022316 0.6444048285484314
v 0.006945329252630472 0.08066429197788239 0.6404425501823425
v 0.009805066511034966 0.07975466549396515 0.6403730511665344
v 0.013383423909544945 0.07620739936828613 0.6403581500053406
v 0.0056394473649561405 0.0761452317237854 0.6383263468742371
v 0.0024775699712336063 0.07561463862657547 0.6388418674468994
v 0.006954549346119165 0.07205630093812943 0.6378397941589355
v 0.008206149563193321 0.07669337093830109 0.6390153169631958
v 0.009642234072089195 0.07395608723163605 0.6388245820999146
v 0.04054650291800499 0.10102848708629608 0.5910491347312927
v 0.037472520023584366 0.10067817568778992 0.5965169668197632
v 0.043934181332588196 0.10095855593681335 0.5959823727607727
v 0.05282171815633774 0.10027405619621277 0.5973846912384033
v 0.06279399245977402 0.10205065459012985 0.5940443277359009
v 0.05074341967701912 0.1012011170387268 0.603829026222229
v 0.04147854447364807 0.10197337716817856 0.6017564535140991
v 0.03160686790943146 0.10259929299354553 0.6017003655433655
v 0.05683095380663872 0.10284227877855301 0.6117783784866333
f 2 3 1
f 1 3 4
f 5 6 8
f 8 6 7
f 9 4 10
f 10 4 3
f 12 13 11
f 11 13 9
f 14 12 16
f 16 12 15
f 18 19 17
f 17 19 20
f 22 23 21
f 21 23 24
f 26 27 25
f 25 27 28
f 30 31 29
f 29 31 32
f 33 34 36
f 36 34 35
f 37 38 40
f 40 38 39
f 41 42 6
f 6 42 43
f 6 43 7
f 7 43 44
f 45 34 46
f 46 34 33
f 48 49 47
f 47 49 50
f 52 53 51
f 51 53 54
f 56 52 55
f 55 52 51
f 58 59 57
f 57 59 60
f 61 62 4
f 4 62 1
f 64 65 63
f 63 65 66
f 68 69 67
f 67 69 70
f 72 73 71
f 71 73 74
f 76 77 75
f 75 77 78
f 53 79 54
f 54 79 80
f 82 83 81
f 81 83 84
f 85 86 52
f 52 86 53
f 57 60 87
f 87 60 88
f 89 90 43
f 43 90 44
f 43 42 89
f 89 42 91
f 40 39 92
f 92 39 93
f 94 70 64
f 64 70 69
f 13 61 9
f 9 61 4
f 25 28 69
f 69 28 95
f 96 25 68
f 68 25 69
f 98 99 97
f 97 99 100
f 101 102 104
f 104 102 103
f 106 30 105
f 105 30 29
f 51 54 107
f 107 54 108
f 54 80 108
f 108 80 109
f 111 112 110
f 110 112 113
f 115 5 114
f 114 5 116
f 115 41 5
f 5 41 6
f 36 35 111
f 111 35 117
f 35 118 117
f 117 118 119
f 34 120 35
f 35 120 118
f 34 45 120
f 120 45 121
f 125 126 124
f 124 126 127
f 128 129 14
f 14 129 130
f 33 131 46
f 46 131 132
f 133 94 63
f 63 94 64
f 134 135 137
f 137 135 136
f 139 140 138
f 138 140 141
f 77 142 78
f 78 142 143
f 144 145 20
f 20 145 146
f 148 149 147
f 147 149 72
f 151 152 150
f 150 152 153
f 82 101 83
f 83 101 104
f 101 82 155
f 155 82 154
f 156 157 58
f 58 157 59
f 158 68 147
f 147 68 67
f 159 146 15
f 15 146 16
f 68 158 96
f 96 158 160
f 129 66 130
f 130 66 65
f 162 163 161
f 161 163 164
f 166 167 165
f 165 167 168
f 170 171 169
f 169 171 172
f 174 171 173
f 173 171 170
f 176 177 175
f 175 177 178
f 180 181 179
f 179 181 24
f 182 183 21
f 21 183 184
f 81 185 82
f 82 185 154
f 186 187 188
f 188 187 144
f 158 71 160
f 160 71 189
f 190 135 157
f 157 135 59
f 169 172 139
f 139 172 140
f 147 72 158
f 158 72 71
f 192 193 191
f 191 193 194
f 167 166 49
f 49 166 195
f 196 190 50
f 50 190 157
f 197 198 200
f 200 198 199
f 21 24 182
f 182 24 181
f 146 159 20
f 20 159 17
f 182 181 81
f 81 181 185
f 201 185 180
f 180 185 181
f 202 203 83
f 83 203 84
f 205 206 204
f 204 206 85
f 207 22 184
f 184 22 21
f 179 24 208
f 208 24 23
f 208 209 179
f 179 209 205
f 209 210 205
f 205 210 206
f 212 206 211
f 211 206 210
f 179 205 180
f 180 205 204
f 213 176 88
f 88 176 214
f 86 85 212
f 212 85 206
f 193 217 218
f 217 219 218
f 218 219 220
f 219 18 220
f 220 18 17
f 19 221 20
f 20 221 144
f 222 223 225
f 225 223 224
f 175 226 176
f 176 226 214
f 227 87 214
f 214 87 88
f 220 17 228
f 228 17 159
f 134 213 60
f 60 213 88
f 138 229 151
f 151 229 152
f 193 192 210
f 210 192 211
f 230 194 218
f 218 194 193
f 231 232 228
f 228 232 230
f 233 234 91
f 91 234 89
f 235 236 93
f 93 236 92
f 230 232 234
f 234 232 237
f 47 238 48
f 48 238 239
f 240 191 235
f 235 191 236
f 5 8 116
f 116 8 241
f 242 243 189
f 189 243 160
f 244 245 98
f 98 245 99
f 156 246 47
f 47 246 238
f 76 247 77
f 77 247 248
f 250 125 249
f 249 125 124
f 252 253 251
f 251 253 254
f 111 110 36
f 36 110 255
f 256 33 255
f 255 33 36
f 257 258 154
f 154 258 155
f 63 169 133
f 133 169 139
f 66 170 63
f 63 170 169
f 173 170 129
f 129 170 66
f 129 128 173
f 173 128 259
f 128 260 259
f 259 260 261
f 213 134 262
f 262 134 137
f 263 264 186
f 186 264 187
f 112 265 113
f 113 265 266
f 11 267 268
f 234 233 230
f 230 233 194
f 153 269 70
f 70 269 67
f 175 178 165
f 165 178 141
f 150 153 94
f 94 153 70
f 271 221 270
f 270 221 207
f 269 153 272
f 272 153 152
f 121 45 109
f 109 45 108
f 47 50 156
f 156 50 157
f 57 273 58
f 58 273 274
f 145 275 260
f 260 275 261
f 276 149 143
f 143 149 78
f 148 269 75
f 75 269 272
f 207 277 270
f 270 277 278
f 195 196 49
f 49 196 50
f 59 135 60
f 60 135 134
f 83 104 202
f 202 104 279
f 149 148 78
f 78 148 75
f 247 278 248
f 248 278 277
f 183 182 84
f 84 182 81
f 48 239 281
f 281 239 282
f 227 223 283
f 283 223 222
f 223 226 224
f 224 226 168
f 281 282 224
f 224 282 225
f 165 168 175
f 175 168 226
f 264 263 138
f 138 263 229
f 14 16 128
f 128 16 260
f 220 228 218
f 218 228 230
f 87 227 284
f 284 227 283
f 260 16 145
f 145 16 146
f 244 98 258
f 258 98 155
f 58 274 156
f 156 274 246
f 107 285 51
f 51 285 55
f 243 286 160
f 160 286 96
f 234 237 89
f 89 237 90
f 46 132 107
f 107 132 285
f 253 252 249
f 249 252 250
f 286 26 96
f 96 26 25
f 106 105 287
f 287 105 288
f 272 152 289
f 289 152 229
f 138 151 139
f 139 151 133
f 183 290 161
f 161 290 162
f 291 292 277
f 277 292 293
f 151 150 133
f 133 150 94
f 262 275 177
f 177 275 187
f 144 187 145
f 145 187 275
f 273 57 284
f 284 57 87
f 174 136 190
f 190 136 135
f 111 117 112
f 112 117 38
f 117 119 38
f 38 119 123
f 112 38 265
f 265 38 37
f 287 288 254
f 254 288 251
f 228 159 231
f 231 159 15
f 223 227 226
f 226 227 214
f 147 67 148
f 148 67 269
f 224 168 281
f 281 168 167
f 199 163 200
f 200 163 162
f 45 46 108
f 108 46 107
f 281 167 48
f 48 167 49
f 161 164 291
f 291 164 292
f 38 123 39
f 293 294 277
f 277 294 248
f 284 283 296
f 296 283 295
f 284 296 273
f 273 296 297
f 274 273 298
f 298 273 297
f 246 274 299
f 299 274 298
f 283 222 295
f 295 222 300
f 222 225 300
f 300 225 301
f 301 225 302
f 302 225 282
f 303 304 300
f 300 304 295
f 306 307 305
f 305 307 308
f 309 310 308
f 308 310 305
f 308 307 312
f 312 307 311
f 313 314 312
f 312 314 315
f 311 316 312
f 312 316 313
f 317 304 311
f 311 304 316
f 315 309 312
f 312 309 308
f 318 319 321
f 321 319 320
f 319 318 309
f 309 318 310
f 311 307 317
f 317 307 306
f 306 297 317
f 317 297 296
f 306 322 297
f 297 322 298
f 305 323 306
f 306 323 322
f 323 305 324
f 324 305 310
f 304 317 295
f 295 317 296
f 318 325 310
f 310 325 324
f 323 324 326
f 326 324 327
f 324 325 327
f 327 325 328
f 326 327 329
f 329 327 330
f 329 331 326
f 326 331 332
f 333 330 328
f 328 330 327
f 323 326 322
f 322 326 332
f 322 332 298
f 298 332 299
f 325 318 334
f 334 318 321
f 313 316 335
f 335 316 304
f 335 336 313
f 313 336 314
f 304 303 335
f 335 303 337
f 336 335 338
f 338 335 337
f 336 339 314
f 314 339 340
f 246 299 238
f 238 299 341
f 239 342 282
f 282 342 302
f 342 239 341
f 341 239 238
f 341 331 342
f 342 331 343
f 331 329 343
f 343 329 344
f 342 343 302
f 302 343 345
f 341 299 331
f 331 299 332
f 346 301 345
f 345 301 302
f 346 303 301
f 301 303 300
f 347 337 346
f 346 337 303
f 347 346 348
f 348 346 345
f 349 347 350
f 350 347 348
f 343 344 345
f 345 344 348
f 344 351 348
f 348 351 350
f 337 347 338
f 338 347 349
f 353 338 352
f 352 338 349
f 352 355 354
f 354 355 356
f 352 349 355
f 355 349 350
f 352 354 353
f 353 354 334
f 353 334 339
f 339 334 321
f 339 336 353
f 353 336 338
f 329 330 344
f 344 330 351
f 356 351 333
f 333 351 330
f 356 355 351
f 351 355 350
f 354 356 328
f 328 356 333
f 328 325 354
f 354 325 334
f 309 315 319
f 319 315 320
f 320 340 321
f 321 340 339
f 320 315 340
f 340 315 314
f 137 136 261
f 261 136 259
f 140 166 141
f 141 166 165
f 172 171 195
f 195 171 196
f 171 174 196
f 196 174 190
f 178 177 264
f 264 177 187
f 172 195 140
f 140 195 166
f 137 261 262
f 262 261 275
f 178 264 141
f 141 264 138
f 262 177 213
f 213 177 176
f 136 174 259
f 259 174 173
f 358 359 357
f 357 359 360
f 362 363 361
f 361 363 364
f 361 364 365
f 365 364 366
f 367 368 370
f 370 368 369
f 76 371 247
f 247 371 372
f 373 374 362
f 362 374 363
f 376 377 375
f 375 377 378
f 289 229 380
f 380 229 379
f 381 379 263
f 263 379 229
f 383 384 382
f 382 384 385
f 386 368 374
f 374 368 363
f 76 289 371
f 371 289 380
f 377 376 359
f 359 376 387
f 388 386 360
f 360 386 374
f 389 383 366
f 366 383 390
f 392 393 391
f 391 393 394
f 383 382 390
f 390 382 395
f 396 365 390
f 390 365 366
f 389 366 367
f 367 366 364
f 357 397 358
f 358 397 398
f 373 399 357
f 357 399 397
f 389 367 400
f 400 367 370
f 382 385 375
f 375 385 372
f 357 360 373
f 373 360 374
f 361 401 362
f 362 401 402
f 387 388 359
f 359 388 360
f 363 368 364
f 364 368 367
f 358 398 403
f 403 398 404
f 396 392 405
f 405 392 391
f 392 395 393
f 393 395 378
f 393 403 394
f 394 403 404
f 375 378 382
f 382 378 395
f 365 396 406
f 406 396 405
f 362 402 373
f 373 402 399
f 271 270 400
f 400 270 384
f 401 361 406
f 406 361 365
f 381 369 386
f 386 369 368
f 392 396 395
f 395 396 390
f 393 378 403
f 403 378 377
f 403 377 358
f 358 377 359
f 406 405 408
f 408 405 407
f 406 408 401
f 401 408 409
f 401 409 402
f 402 409 410
f 402 410 399
f 399 410 411
f 405 391 407
f 407 391 412
f 391 394 412
f 412 394 413
f 394 404 413
f 413 404 414
f 415 416 412
f 412 416 407
f 418 419 417
f 417 419 420
f 421 422 418
f 418 422 419
f 419 422 424
f 424 422 423
f 425 426 424
f 424 426 427
f 423 428 424
f 424 428 425
f 427 420 424
f 424 420 419
f 420 429 417
f 417 429 430
f 423 422 431
f 431 422 421
f 421 409 431
f 431 409 408
f 421 432 409
f 409 432 410
f 418 433 421
f 421 433 432
f 434 433 417
f 417 433 418
f 431 416 423
f 423 416 428
f 416 431 407
f 407 431 408
f 435 434 430
f 430 434 417
f 433 434 436
f 436 434 437
f 434 435 437
f 437 435 438
f 436 437 439
f 439 437 440
f 439 441 436
f 436 441 442
f 438 443 437
f 437 443 440
f 436 442 433
f 433 442 432
f 432 442 410
f 410 442 411
f 435 430 445
f 445 430 444
f 430 429 444
f 444 429 446
f 425 428 447
f 447 428 416
f 426 425 448
f 448 425 447
f 416 415 447
f 447 415 449
f 447 449 448
f 448 449 450
f 451 452 448
f 448 452 426
f 446 452 444
f 444 452 451
f 399 411 397
f 397 411 453
f 398 454 404
f 404 454 414
f 454 398 453
f 453 398 397
f 453 441 454
f 454 441 455
f 441 439 455
f 455 439 456
f 454 455 414
f 414 455 457
f 441 453 442
f 442 453 411
f 458 413 457
f 457 413 414
f 458 415 413
f 413 415 412
f 458 459 415
f 415 459 449
f 459 458 460
f 460 458 457
f 461 459 462
f 462 459 460
f 455 456 457
f 457 456 460
f 456 463 460
f 460 463 462
f 459 461 449
f 449 461 450
f 465 450 464
f 464 450 461
f 464 467 466
f 466 467 468
f 464 461 467
f 467 461 462
f 464 466 465
f 465 466 445
f 465 445 451
f 451 445 444
f 451 448 465
f 465 448 450
f 439 440 456
f 456 440 463
f 468 463 443
f 443 463 440
f 468 467 463
f 463 467 462
f 466 468 438
f 438 468 443
f 438 435 466
f 466 435 445
f 420 427 429
f 429 427 446
f 446 427 452
f 452 427 426
f 370 369 188
f 188 369 186
f 371 376 372
f 372 376 375
f 380 379 387
f 387 379 388
f 379 381 388
f 388 381 386
f 385 384 278
f 278 384 270
f 380 387 371
f 371 387 376
f 400 370 271
f 271 370 188
f 385 278 372
f 372 278 247
f 400 384 389
f 389 384 383
f 369 381 186
f 186 381 263
f 221 271 144
f 144 271 188
f 221 19 207
f 207 19 22
f 19 18 22
f 22 18 23
f 18 219 23
f 23 219 208
f 469 470 472
f 472 470 471
f 474 475 473
f 473 475 476
f 473 476 477
f 477 476 478
f 480 481 479
f 479 481 482
f 483 484 474
f 474 484 475
f 486 487 485
f 485 487 488
f 489 490 77
f 77 490 142
f 491 489 248
f 248 489 77
f 493 494 492
f 492 494 495
f 496 480 484
f 484 480 475
f 486 497 487
f 487 497 471
f 498 496 472
f 472 496 484
f 499 493 478
f 478 493 500
f 501 502 504
f 504 502 503
f 493 492 500
f 500 492 505
f 506 477 500
f 500 477 478
f 499 478 479
f 479 478 476
f 469 507 470
f 470 507 508
f 483 509 469
f 469 509 507
f 479 482 499
f 499 482 510
f 492 495 485
f 485 495 511
f 483 469 484
f 484 469 472
f 473 512 474
f 474 512 513
f 497 498 471
f 471 498 472
f 475 480 476
f 476 480 479
f 470 508 514
f 514 508 515
f 506 502 516
f 516 502 501
f 503 502 488
f 488 502 505
f 514 515 503
f 503 515 504
f 485 488 492
f 492 488 505
f 477 506 517
f 517 506 516
f 474 513 483
f 483 513 509
f 510 292 494
f 494 292 164
f 512 473 517
f 517 473 477
f 491 481 496
f 496 481 480
f 502 506 505
f 505 506 500
f 503 488 514
f 514 488 487
f 514 487 470
f 470 487 471
f 517 516 519
f 519 516 518
f 517 519 512
f 512 519 520
f 512 520 513
f 513 520 521
f 513 521 509
f 509 521 522
f 516 501 518
f 518 501 523
f 501 504 523
f 523 504 524
f 524 504 525
f 525 504 515
f 526 527 523
f 523 527 518
f 529 530 528
f 528 530 531
f 532 533 529
f 529 533 530
f 530 533 535
f 535 533 534
f 536 537 535
f 535 537 538
f 534 539 535
f 535 539 536
f 538 531 535
f 535 531 530
f 540 541 531
f 531 541 528
f 533 532 534
f 534 532 542
f 532 520 542
f 542 520 519
f 532 543 520
f 520 543 521
f 529 544 532
f 532 544 543
f 544 529 545
f 545 529 528
f 534 542 539
f 539 542 527
f 527 542 518
f 518 542 519
f 541 546 528
f 528 546 545
f 547 544 548
f 548 544 545
f 546 549 545
f 545 549 548
f 550 547 551
f 551 547 548
f 547 550 553
f 553 550 552
f 549 554 548
f 548 554 551
f 544 547 543
f 543 547 553
f 543 553 521
f 521 553 522
f 546 541 556
f 556 541 555
f 541 540 555
f 555 540 557
f 536 539 558
f 558 539 527
f 537 536 559
f 559 536 558
f 527 526 558
f 558 526 560
f 559 558 561
f 561 558 560
f 559 562 537
f 537 562 563
f 557 563 555
f 555 563 562
f 509 522 507
f 507 522 564
f 508 565 515
f 515 565 525
f 565 508 564
f 564 508 507
f 564 552 565
f 565 552 566
f 552 550 566
f 566 550 567
f 565 566 525
f 525 566 568
f 564 522 552
f 552 522 553
f 569 524 568
f 568 524 525
f 569 526 524
f 524 526 523
f 570 560 569
f 569 560 526
f 570 569 571
f 571 569 568
f 572 570 573
f 573 570 571
f 566 567 568
f 568 567 571
f 567 574 571
f 571 574 573
f 570 572 560
f 560 572 561
f 576 561 575
f 575 561 572
f 575 578 577
f 577 578 579
f 575 572 578
f 578 572 573
f 575 577 576
f 576 577 556
f 576 556 562
f 562 556 555
f 562 559 576
f 576 559 561
f 550 551 567
f 567 551 574
f 579 574 554
f 554 574 551
f 579 578 574
f 574 578 573
f 579 554 577
f 577 554 549
f 549 546 577
f 577 546 556
f 531 538 540
f 540 538 557
f 557 538 563
f 563 538 537
f 481 294 482
f 482 294 293
f 580 486 511
f 511 486 485
f 490 489 497
f 497 489 498
f 489 491 498
f 498 491 496
f 163 495 164
f 164 495 494
f 580 490 486
f 486 490 497
f 482 293 510
f 510 293 292
f 495 163 511
f 511 163 199
f 494 493 510
f 510 493 499
f 481 491 294
f 294 491 248
f 582 583 581
f 581 583 584
f 586 587 585
f 585 587 588
f 585 588 589
f 589 588 590
f 592 593 591
f 591 593 594
f 595 596 598
f 598 596 597
f 599 600 586
f 586 600 587
f 601 602 604
f 604 602 603
f 605 606 608
f 608 606 607
f 609 607 200
f 200 607 606
f 610 611 613
f 613 611 612
f 600 614 587
f 587 614 592
f 596 605 597
f 597 605 608
f 602 615 603
f 603 615 583
f 616 614 584
f 584 614 600
f 611 618 617
f 617 618 590
f 620 621 619
f 619 621 622
f 610 623 611
f 611 623 618
f 624 589 618
f 618 589 590
f 617 590 591
f 591 590 588
f 581 625 582
f 582 625 626
f 599 627 581
f 581 627 625
f 591 594 617
f 617 594 628
f 601 610 598
f 598 610 613
f 581 584 599
f 599 584 600
f 585 629 586
f 586 629 630
f 615 616 583
f 583 616 584
f 587 592 588
f 588 592 591
f 582 626 631
f 631 626 632
f 624 620 633
f 633 620 619
f 621 620 604
f 604 620 623
f 631 632 621
f 621 632 622
f 610 601 623
f 623 601 604
f 589 624 634
f 634 624 633
f 586 630 599
f 599 630 627
f 203 202 628
f 628 202 612
f 629 585 634
f 634 585 589
f 609 593 614
f 614 593 592
f 620 624 623
f 623 624 618
f 631 621 603
f 603 621 604
f 582 631 583
f 583 631 603
f 634 633 636
f 636 633 635
f 634 636 629
f 629 636 637
f 629 637 630
f 630 637 638
f 630 638 627
f 627 638 639
f 633 619 635
f 635 619 640
f 619 622 640
f 640 622 641
f 641 622 642
f 642 622 632
f 644 635 643
f 643 635 640
f 645 646 648
f 648 646 647
f 649 650 646
f 646 650 647
f 647 650 652
f 652 650 651
f 652 653 655
f 655 653 654
f 651 656 652
f 652 656 653
f 655 648 652
f 652 648 647
f 648 657 645
f 645 657 658
f 650 649 651
f 651 649 659
f 649 637 659
f 659 637 636
f 649 660 637
f 637 660 638
f 661 660 646
f 646 660 649
f 662 661 645
f 645 661 646
f 651 659 656
f 656 659 644
f 644 659 635
f 635 659 636
f 663 662 658
f 658 662 645
f 664 661 665
f 665 661 662
f 663 666 662
f 662 666 665
f 667 664 668
f 668 664 665
f 664 667 670
f 670 667 669
f 666 671 665
f 665 671 668
f 661 664 660
f 660 664 670
f 660 670 638
f 638 670 639
f 658 672 663
f 663 672 673
f 658 657 672
f 672 657 674
f 653 656 675
f 675 656 644
f 653 675 654
f 654 675 676
f 675 644 677
f 677 644 643
f 676 675 678
f 678 675 677
f 679 680 676
f 676 680 654
f 674 680 672
f 672 680 679
f 627 639 625
f 625 639 681
f 626 682 632
f 632 682 642
f 681 682 625
f 625 682 626
f 669 683 681
f 681 683 682
f 667 684 669
f 669 684 683
f 682 683 642
f 642 683 685
f 681 639 669
f 669 639 670
f 686 641 685
f 685 641 642
f 641 686 640
f 640 686 643
f 686 687 643
f 643 687 677
f 687 686 688
f 688 686 685
f 689 687 690
f 690 687 688
f 683 684 685
f 685 684 688
f 684 691 688
f 688 691 690
f 687 689 677
f 677 689 678
f 693 678 692
f 692 678 689
f 692 695 694
f 694 695 696
f 692 689 695
f 695 689 690
f 692 694 693
f 693 694 673
f 693 673 679
f 679 673 672
f 679 676 693
f 693 676 678
f 684 667 691
f 691 667 668
f 696 691 671
f 671 691 668
f 696 695 691
f 691 695 690
f 694 696 666
f 666 696 671
f 666 663 694
f 694 663 673
f 648 655 657
f 657 655 674
f 674 655 680
f 680 655 654
f 593 162 594
f 594 162 290
f 598 597 601
f 601 597 602
f 615 608 616
f 616 608 607
f 607 609 616
f 616 609 614
f 697 595 613
f 613 595 598
f 597 608 602
f 602 608 615
f 594 290 628
f 628 290 203
f 628 612 617
f 617 612 611
f 593 609 162
f 162 609 200
f 105 29 698
f 698 29 699
f 268 126 701
f 701 126 700
f 126 125 700
f 700 125 702
f 252 703 250
f 250 703 704
f 32 268 705
f 705 268 701
f 288 105 706
f 706 105 698
f 29 32 699
f 699 32 705
f 707 251 706
f 706 251 288
f 250 704 125
f 125 704 702
f 703 252 707
f 707 252 251
f 706 708 707
f 707 708 709
f 707 709 703
f 703 709 710
f 703 710 704
f 704 710 711
f 704 711 702
f 702 711 712
f 706 698 708
f 708 698 713
f 698 699 713
f 713 699 714
f 699 705 714
f 714 705 715
f 717 708 716
f 716 708 713
f 719 720 718
f 718 720 721
f 722 723 719
f 719 723 720
f 724 725 723
f 723 725 720
f 724 726 725
f 725 726 727
f 728 721 725
f 725 721 720
f 721 728 729
f 729 728 730
f 729 731 721
f 721 731 718
f 724 723 732
f 732 723 722
f 722 710 732
f 732 710 709
f 722 733 710
f 710 733 711
f 719 734 722
f 722 734 733
f 734 719 735
f 735 719 718
f 724 732 726
f 726 732 717
f 717 732 708
f 708 732 709
f 731 736 718
f 718 736 735
f 737 734 738
f 738 734 735
f 736 739 735
f 735 739 738
f 740 737 741
f 741 737 738
f 737 740 743
f 743 740 742
f 739 744 738
f 738 744 741
f 734 737 733
f 733 737 743
f 733 743 711
f 711 743 712
f 736 731 746
f 746 731 745
f 731 729 745
f 745 729 730
f 727 726 747
f 747 726 717
f 748 727 749
f 749 727 747
f 747 717 750
f 750 717 716
f 749 747 751
f 751 747 750
f 749 752 748
f 748 752 753
f 730 753 745
f 745 753 752
f 728 725 748
f 748 725 727
f 730 728 753
f 753 728 748
f 700 702 754
f 754 702 712
f 705 701 715
f 715 701 755
f 754 755 700
f 700 755 701
f 742 756 754
f 754 756 755
f 740 757 742
f 742 757 756
f 755 756 715
f 715 756 758
f 754 712 742
f 742 712 743
f 759 714 758
f 758 714 715
f 714 759 713
f 713 759 716
f 759 760 716
f 716 760 750
f 760 759 761
f 761 759 758
f 762 760 763
f 763 760 761
f 756 757 758
f 758 757 761
f 757 764 761
f 761 764 763
f 760 762 750
f 750 762 751
f 766 751 765
f 765 751 762
f 767 765 769
f 769 765 768
f 765 762 768
f 768 762 763
f 765 767 766
f 766 767 746
f 766 746 752
f 752 746 745
f 752 749 766
f 766 749 751
f 757 740 764
f 764 740 741
f 769 764 744
f 744 764 741
f 769 768 764
f 764 768 763
f 767 769 739
f 739 769 744
f 739 736 767
f 767 736 746
f 219 217 208
f 208 217 209
f 209 217 210
f 210 217 193
f 198 580 199
f 199 580 511
f 76 75 289
f 289 75 272
f 277 207 291
f 291 207 184
f 290 183 203
f 203 183 84
f 490 580 142
f 142 580 198
f 142 198 143
f 143 198 197
f 149 276 72
f 72 276 73
f 104 103 279
f 279 103 770
f 770 596 279
f 279 596 595
f 605 596 771
f 771 596 770
f 771 770 772
f 772 770 103
f 772 103 773
f 773 103 102
f 155 774 101
f 101 774 102
f 773 102 97
f 97 102 774
f 775 773 100
f 100 773 97
f 773 775 772
f 772 775 776
f 772 776 771
f 771 776 777
f 200 606 197
f 197 606 777
f 189 71 778
f 778 71 74
f 97 774 98
f 98 774 155
f 183 161 184
f 184 161 291
f 777 276 197
f 197 276 143
f 777 606 771
f 771 606 605
f 613 612 697
f 697 612 202
f 595 697 279
f 279 697 202
f 73 276 776
f 776 276 777
f 776 775 73
f 73 775 74
f 100 778 775
f 775 778 74
f 778 100 189
f 189 100 99
f 245 242 99
f 99 242 189
f 131 33 256
f 28 1 95
f 95 1 62
f 27 2 28
f 28 2 1
f 265 115 266
f 266 115 114
f 95 62 69
f 69 62 64
f 62 61 64
f 64 61 65
f 61 13 65
f 65 13 130
f 13 12 130
f 130 12 14
f 31 11 32
f 32 11 268
f 15 12 31
f 31 12 11
f 31 30 15
f 15 30 231
f 30 106 231
f 231 106 232
f 287 237 106
f 106 237 232
f 254 90 287
f 287 90 237
f 253 44 254
f 254 44 90
f 253 249 44
f 44 249 7
f 267 127 268
f 268 127 126
f 10 3 241
f 241 3 116
f 3 2 116
f 116 2 114
f 2 27 114
f 114 27 266
f 27 26 266
f 266 26 113
f 26 286 113
f 113 286 110
f 286 243 110
f 110 243 255
f 243 242 255
f 255 242 256
f 242 245 256
f 256 245 131
f 245 244 131
f 131 244 132
f 265 37 115
f 115 37 41
f 41 37 42
f 42 37 40
f 92 91 40
f 40 91 42
f 236 233 92
f 92 233 91
f 191 194 236
f 236 194 233
f 258 285 244
f 244 285 132
f 257 55 258
f 258 55 285
f 257 154 201
f 201 154 185
f 56 201 204
f 204 201 180
f 55 257 56
f 56 257 201
f 204 85 56
f 56 85 52
f 86 122 53
f 53 122 79
f 212 215 86
f 86 215 122
f 211 216 212
f 212 216 215
f 192 280 211
f 211 280 216
f 191 240 192
f 192 240 280
f 249 124 7
f 7 124 8
f 124 127 8
f 8 127 241
f 127 267 241
f 241 267 10
f 10 267 9
f 9 267 11
