v 0.04811275750398636 0.1018362045288086 0.6632899045944214
v 0.06065749377012253 0.09756296128034592 0.6628791093826294
v 0.053723618388175964 0.09291835129261017 0.6686488389968872
v 0.04288622736930847 0.09774582087993622 0.669225811958313
v 0.0709172859787941 0.09012893587350845 0.6814124584197998
v 0.07456814497709274 0.09582112729549408 0.6909743547439575
v 0.05789550766348839 0.09311042726039886 0.6924521923065186
v 0.058206602931022644 0.08791323006153107 0.6835352778434753
v 0.037759095430374146 0.09735565632581711 0.6731557846069336
v 0.04686429351568222 0.09095105528831482 0.6723412871360779
v 0.03579770401120186 0.10237431526184082 0.6736372709274292
v 0.028021611273288727 0.11180686205625534 0.6782402396202087
v 0.029034430161118507 0.10528529435396194 0.6766273975372314
v 0.02083233743906021 0.1162029504776001 0.6792166233062744
v 0.03378715738654137 0.12153809517621994 0.6787889003753662
v 0.02294497936964035 0.12451857328414917 0.6754048466682434
v 0.04229380190372467 0.13625416159629822 0.6603212952613831
v 0.045744236558675766 0.13725769519805908 0.648133397102356
v 0.029900474473834038 0.135443776845932 0.6467404365539551
v 0.028209401294589043 0.13362237811088562 0.6594681739807129
v 0.03988374024629593 0.13267867267131805 0.6293206214904785
v 0.03316967189311981 0.13448700308799744 0.6386866569519043
v 0.049522582441568375 0.137019544839859 0.6402227878570557
v 0.05473718419671059 0.13488419353961945 0.6317924857139587
v 0.055476754903793335 0.10673166811466217 0.6516205072402954
v 0.06695424765348434 0.10483500361442566 0.6506670117378235
v 0.06542132794857025 0.10296634584665298 0.6550759077072144
v 0.0537908561527729 0.10551697760820389 0.6560853719711304
v 0.03360564261674881 0.1051466092467308 0.678719162940979
v 0.04072469100356102 0.11397913843393326 0.6830031871795654
v 0.03649899736046791 0.11018984764814377 0.67792147397995
v 0.033897481858730316 0.10074649751186371 0.6753296256065369
v 0.09236577153205872 0.09866316616535187 0.6426055431365967
v 0.10420084744691849 0.10449071228504181 0.6448781490325928
v 0.10356295108795166 0.10498498380184174 0.6508016586303711
v 0.0929967537522316 0.0998847484588623 0.6475040316581726
v 0.09548217803239822 0.10172087699174881 0.6760356426239014
v 0.10272415727376938 0.10757216066122055 0.6700729131698608
v 0.10656999051570892 0.11666933447122574 0.6789801120758057
v 0.09744284301996231 0.1144445538520813 0.6836656928062439
v 0.08573879301548004 0.09738709032535553 0.6850683093070984
v 0.087610624730587 0.10853090137243271 0.6906164288520813
v 0.07329602539539337 0.10627353191375732 0.6960780620574951
v 0.055277105420827866 0.1011245846748352 0.6968849301338196
v 0.10565266758203506 0.10641820728778839 0.6323192715644836
v 0.09732430428266525 0.10191377997398376 0.6288622617721558
v -0.023690240457654 0.14218120276927948 0.6644789576530457
v -0.022392282262444496 0.1421022266149521 0.6588112711906433
v -0.02096383273601532 0.13457515835762024 0.661788821220398
v -0.02188696712255478 0.13654957711696625 0.6667886972427368
v 0.0989898145198822 0.12061195075511932 0.6198627352714539
v 0.09755764901638031 0.1305503249168396 0.6207288503646851
v 0.10470768809318542 0.12945899367332458 0.6205033659934998
v 0.10625576972961426 0.1202680915594101 0.6215639114379883
v 0.0893302708864212 0.1208987683057785 0.6177728772163391
v 0.08755099028348923 0.13139483332633972 0.6215782761573792
v -0.014239469543099403 0.14732033014297485 0.6699446439743042
v -0.01901424676179886 0.1457330733537674 0.670451819896698
v -0.015912003815174103 0.14133411645889282 0.6718737483024597
v -0.010623273439705372 0.1423349231481552 0.6700392365455627
v 0.032461803406476974 0.10243356227874756 0.6723238825798035
v 0.037397969514131546 0.10314838588237762 0.6649936437606812
v 0.009046888910233974 0.10714589059352875 0.6726524829864502
v 0.022536970674991608 0.10515135526657104 0.6682063341140747
v 0.022058997303247452 0.10563956201076508 0.6752895712852478
v 0.011646776460111141 0.10906326025724411 0.6781984567642212
v 0.03292187303304672 0.10762836784124374 0.6467136740684509
v 0.044642604887485504 0.1079258844256401 0.6479690074920654
v 0.04170071706175804 0.10764732956886292 0.6536397933959961
v 0.02846485562622547 0.10667841136455536 0.6540913581848145
v 0.04897591471672058 0.10514640808105469 0.6348479390144348
v 0.037084486335515976 0.10550066083669662 0.6346633434295654
v 0.040789034217596054 0.10371951758861542 0.627266526222229
v 0.04869404435157776 0.10292984545230865 0.6287256479263306
v 0.01473876740783453 0.10677140951156616 0.637329638004303
v 0.0063368771225214005 0.10972146689891815 0.6364523768424988
v 0.008215393871068954 0.10863413661718369 0.6323654055595398
v 0.016981739550828934 0.10749992728233337 0.6339669823646545
v 0.11174085736274719 0.12946993112564087 0.6207467317581177
v 0.11300798505544662 0.12033750116825104 0.6240887641906738
v 0.049955133348703384 0.12475188821554184 0.6122562885284424
v 0.05605863779783249 0.11689559370279312 0.6075994372367859
v 0.04535309225320816 0.11429955810308456 0.6040748953819275
v 0.04173444211483002 0.1234065517783165 0.6099031567573547
v 0.09442401677370071 0.13817104697227478 0.6270079016685486
v 0.10189158469438553 0.1381341964006424 0.6247113347053528
v -0.009614394046366215 0.14835602045059204 0.6659270524978638
v -0.007078123278915882 0.14326786994934082 0.6652354598045349
v 0.07309401035308838 0.11772452294826508 0.6934862732887268
v 0.05350726097822189 0.1101582944393158 0.6956821084022522
v 0.0877530500292778 0.12205293029546738 0.688185453414917
v 0.09701527655124664 0.12585097551345825 0.6829027533531189
v 0.10552771389484406 0.12812858819961548 0.6808711290359497
v 0.0184027086943388 0.10488047450780869 0.6625159978866577
v 0.04364457353949547 0.10562193393707275 0.6587504744529724
v 0.05702877789735794 0.10666976124048233 0.6471307873725891
v 0.06181646138429642 0.09875300526618958 0.6181504130363464
v 0.07231593877077103 0.0984928235411644 0.619823694229126
v 0.06661675870418549 0.09837234765291214 0.6286787986755371
v 0.058585964143276215 0.09931311756372452 0.6253061294555664
v 0.05663107708096504 0.10713990032672882 0.6065924763679504
v 0.053615983575582504 0.10133279114961624 0.6107991933822632
v 0.044416751712560654 0.10102546215057373 0.6092901825904846
v 0.04668067768216133 0.10578782111406326 0.6047125458717346
v 0.03333297744393349 0.10736921429634094 0.6854146122932434
v 0.04509352147579193 0.11661215126514435 0.6876500248908997
v 0.09973470121622086 0.11053483933210373 0.6226532459259033
v 0.10637692362070084 0.1114266887307167 0.6264466047286987
v 0.11400251090526581 0.11413515359163284 0.628650426864624
v 0.08012165129184723 0.10076981782913208 0.6483373045921326
v 0.09355908632278442 0.10050202906131744 0.6512031555175781
v 0.09283336997032166 0.0997215136885643 0.6564983129501343
v 0.07999735325574875 0.10088787227869034 0.6514919400215149
v 0.07290549576282501 0.09268733114004135 0.6667711138725281
v 0.08353183418512344 0.09310702234506607 0.6730131506919861
v 0.06293686479330063 0.0883910059928894 0.6722919940948486
v 0.10442136973142624 0.10594472289085388 0.6593348383903503
v 0.11326402425765991 0.10712088644504547 0.6526697874069214
v 0.11278537660837173 0.10882817208766937 0.6615152359008789
v 0.11419779062271118 0.10787278413772583 0.6429541707038879
v 0.11449572443962097 0.11004502326250076 0.6343271732330322
v 0.10970353335142136 0.14097775518894196 0.6231159567832947
v 0.11121400445699692 0.11196383088827133 0.6692996621131897
v 0.04934123903512955 0.08702061325311661 0.6833335757255554
v 0.04116632044315338 0.08574964106082916 0.6825840473175049
v 0.03972521424293518 0.08829684555530548 0.6752129793167114
v 0.04700974002480507 0.08864979445934296 0.675094485282898
v 0.012515467591583729 0.12178070098161697 0.6790111660957336
v 0.010970591567456722 0.1146513819694519 0.6805443167686462
v 0.022204257547855377 0.10941947251558304 0.6799975633621216
v 0.08276351541280746 0.097591832280159 0.6362285017967224
v 0.08750303834676743 0.10007333755493164 0.624921441078186
v 0.005570617504417896 0.10841645300388336 0.66666179895401
v -0.0054180808365345 0.14259952306747437 0.6694393157958984
v -0.009816811420023441 0.14008773863315582 0.6727994680404663
v 0.0028288746252655983 0.13264873623847961 0.6756827235221863
v 0.005665495991706848 0.13633579015731812 0.6713178753852844
v -0.0008685211651027203 0.11776391416788101 0.6603437066078186
v 0.0002204126212745905 0.11416395753622055 0.6658077239990234
v -0.00211973930709064 0.1184680238366127 0.6644191145896912
v -0.002803198294714093 0.12172853946685791 0.6590337753295898
v 0.01522095501422882 0.10773449391126633 0.6263194680213928
v 0.02201538160443306 0.10676590353250504 0.6272180676460266
v 0.013442368246614933 0.12804558873176575 0.6580259799957275
v 0.017523586750030518 0.12972959876060486 0.6691750884056091
v 0.02662205882370472 0.1312207728624344 0.6682618856430054
v 0.03608773648738861 0.10688158869743347 0.640005350112915
v 0.025418708100914955 0.1064096987247467 0.6380879878997803
v 0.026774123311042786 0.10629288107156754 0.6341865658760071
v 0.014870425686240196 0.10589250922203064 0.6589636206626892
v 0.004872841760516167 0.10900130867958069 0.6604451537132263
v 0.0093532120808959 0.1080174520611763 0.6552126407623291
v 0.018755879253149033 0.10678907483816147 0.653853714466095
v 0.06819163262844086 0.11965448409318924 0.6104931831359863
v 0.06908678263425827 0.10820094496011734 0.6089526414871216
v -0.02244114689528942 0.14365516602993011 0.6686575412750244
v -0.019712094217538834 0.1386989802122116 0.6706192493438721
v 0.0474921353161335 0.10716945677995682 0.6413798332214355
v 0.03949928656220436 0.13223393261432648 0.6685068607330322
v 0.05882799252867699 0.10591389238834381 0.6421030759811401
v 0.023930782452225685 0.12399359792470932 0.6185194253921509
v 0.023333854973316193 0.1176130473613739 0.6150909066200256
v 0.018256261944770813 0.11656584590673447 0.6158344745635986
v 0.016557984054088593 0.12199776619672775 0.6167886257171631
v -0.011236087419092655 0.13248401880264282 0.6541984677314758
v -0.015188689343631268 0.13090911507606506 0.658277153968811
v -0.018558483570814133 0.1344151496887207 0.6559898853302002
v -0.014091800898313522 0.1358991414308548 0.6529676914215088
v 0.0012356489896774292 0.11433868110179901 0.671622097492218
v 0.0035873346496373415 0.11587634682655334 0.6774469017982483
v -0.0020541499834507704 0.1218242421746254 0.6746704578399658
v -0.002754770452156663 0.11971744149923325 0.6693723797798157
v 0.004843518137931824 0.12218113243579865 0.6790178418159485
v 0.00017688400112092495 0.12719953060150146 0.676899790763855
v -0.005827613174915314 0.1363135129213333 0.6542297005653381
v -0.001390393590554595 0.14080902934074402 0.6587585210800171
v 0.005845401436090469 0.13409081101417542 0.6589479446411133
v 4.777568392455578e-05 0.1287594735622406 0.6570428609848022
v 0.06898929923772812 0.1380673199892044 0.634274423122406
v 0.07274194806814194 0.13420632481575012 0.6246702671051025
v 0.05867839604616165 0.130937397480011 0.6219262480735779
v 0.04525844007730484 0.12852443754673004 0.6188295483589172
v 0.03246782347559929 0.1252632588148117 0.6171000599861145
v 0.027198629453778267 0.13181336224079132 0.6264047622680664
v 0.06268971413373947 0.12774531543254852 0.615795373916626
v 0.001668347860686481 0.122468002140522 0.655699610710144
v 0.009086120873689651 0.12716016173362732 0.6612566709518433
v 0.006621585227549076 0.12579002976417542 0.6569648385047913
v 0.06039566919207573 0.1031862273812294 0.6354216933250427
v -0.01299105491489172 0.1371677815914154 0.672960102558136
v 0.0947413370013237 0.14201101660728455 0.6690942645072937
v 0.09501101076602936 0.14578332006931305 0.6566255688667297
v 0.08659354597330093 0.143795445561409 0.6582250595092773
v 0.08595281094312668 0.13910038769245148 0.6716131567955017
v -0.016848688945174217 0.13082318007946014 0.6650258898735046
v -0.016326218843460083 0.13330376148223877 0.6702542901039124
v 0.022878915071487427 0.10644084215164185 0.6206453442573547
v 0.01752571202814579 0.10821297019720078 0.6210780739784241
v 0.01768893003463745 0.11032368242740631 0.6174147725105286
v 0.02187304198741913 0.10728619992733002 0.6150277853012085
v 0.07597295939922333 0.13165192306041718 0.6205227971076965
v 0.03917611017823219 0.11266492307186127 0.6017066836357117
v 0.03632109612226486 0.12126298993825912 0.6065433025360107
v 0.08505158871412277 0.13710540533065796 0.627490758895874
v 0.0818755254149437 0.14105477929115295 0.6357514262199402
v 0.09133188426494598 0.1430552899837494 0.6362327337265015
v 0.01665314845740795 0.12974274158477783 0.6377354264259338
v 0.06432867050170898 0.13959944248199463 0.6413574814796448
v 0.07843012362718582 0.14200302958488464 0.6424751877784729
v 0.08960569649934769 0.14440138638019562 0.6433662176132202
v 0.09761644899845123 0.14663399755954742 0.6432640552520752
v 0.09873917698860168 0.14471390843391418 0.635465145111084
v -0.0025099574122577906 0.14214305579662323 0.6639252305030823
v -0.005345415323972702 0.14237016439437866 0.6595525741577148
v 0.10702331364154816 0.14808344841003418 0.6340258717536926
v 0.10552893579006195 0.1494750678539276 0.6430345773696899
v 0.07528867572546005 0.14222459495067596 0.6511139273643494
v 0.07183140516281128 0.14123353362083435 0.6610907316207886
v 0.061785146594047546 0.13973772525787354 0.6495851874351501
v 0.05726449191570282 0.13860809803009033 0.6595044136047363
v 0.019098278135061264 0.13319283723831177 0.6478032469749451
v -0.01225008349865675 0.15880879759788513 0.654914140701294
v -0.008961977437138557 0.1472322642803192 0.6550609469413757
v -0.013515038415789604 0.14475971460342407 0.6522341966629028
v -0.013895862735807896 0.15600386261940002 0.6515761017799377
v -0.009061087854206562 0.13888847827911377 0.6543923020362854
v -0.007078131660819054 0.1483195722103119 0.6602404117584229
v 0.05422719568014145 0.1335473209619522 0.6704554557800293
v -0.0003456947160884738 0.11336939036846161 0.6544427275657654
v 0.06983418017625809 0.13415402173995972 0.6744034290313721
v 0.04572970047593117 0.1260884553194046 0.6804056167602539
v 0.05684376135468483 0.12525641918182373 0.6838085055351257
v 0.08557596802711487 0.13325518369674683 0.6812778115272522
v 0.07128177583217621 0.12709929049015045 0.687356173992157
v 0.10335036367177963 0.1372421532869339 0.6765226721763611
v 0.09442824870347977 0.13572019338607788 0.6779794692993164
v 0.056763917207717896 0.11966738849878311 0.6909204125404358
v -0.026372425258159637 0.15050262212753296 0.6571066379547119
v -0.022779997438192368 0.14976157248020172 0.65254145860672
v 0.10278653353452682 0.14431826770305634 0.6682308912277222
v 0.05367016792297363 0.08775736391544342 0.6745516061782837
v 0.07068561017513275 0.10131338238716125 0.6386870741844177
v 0.06916095316410065 0.10343648493289948 0.643478512763977
v 0.0784454271197319 0.09888626635074615 0.6215371489524841
v 0.07374056428670883 0.09811047464609146 0.6321334838867188
v -0.026762451976537704 0.1525111198425293 0.6620177626609802
v 0.004652886651456356 0.11485583335161209 0.6348470449447632
v 0.005697780288755894 0.1126558780670166 0.6325927972793579
v 0.04872725158929825 0.09003353118896484 0.6916072964668274
v 0.04132414236664772 0.08773854374885559 0.6900677680969238
v 0.03466062992811203 0.09856755286455154 0.6936535239219666
v 0.03783464804291725 0.09216976910829544 0.694323718547821
v 0.04584886133670807 0.09679704904556274 0.6959563493728638
v 0.04306156933307648 0.10393595695495605 0.6950318813323975
v 0.0799560621380806 0.10028142482042313 0.6457113027572632
v 0.08020170778036118 0.09941370785236359 0.6419000625610352
v 0.07948897778987885 0.12016335874795914 0.6140451431274414
v 0.07968214154243469 0.10873239487409592 0.6128477454185486
v 0.007565740495920181 0.12713128328323364 0.6771817207336426
v 0.01488561648875475 0.1272638738155365 0.6751711964607239
v 0.010538699105381966 0.131294846534729 0.672580897808075
v 0.008141551166772842 0.13621099293231964 0.6652193069458008
v -0.0020121929701417685 0.11944901198148727 0.653910756111145
v 0.002448773244395852 0.12280650436878204 0.6587608456611633
v 0.08864235877990723 0.09639035165309906 0.6634662747383118
v 0.07801924645900726 0.09807205945253372 0.6579289436340332
v 0.04234427213668823 0.09246496856212616 0.6729316711425781
v 0.036691829562187195 0.09384559094905853 0.6724458932876587
v 0.02337464690208435 0.10686373710632324 0.647023618221283
v 0.010599534027278423 0.12772750854492188 0.6398985981941223
v 0.012147425673902035 0.13174530863761902 0.6481739282608032
v 0.012890311889350414 0.10763771086931229 0.6467896103858948
v -0.02154930867254734 0.15836234390735626 0.6650837063789368
v -0.02538846991956234 0.15509626269340515 0.6641923785209656
v 0.011765704490244389 0.13162676990032196 0.6670639514923096
v 0.030046340078115463 0.10420411825180054 0.6268102526664734
v 0.010822154581546783 0.12419823557138443 0.6336194276809692
v 0.008097270503640175 0.12143760174512863 0.6361161470413208
v 0.04076487198472023 0.10498093068599701 0.6035779118537903
v 0.10364697128534317 0.1478077620267868 0.656213641166687
v -0.018811045214533806 0.14324283599853516 0.6535206437110901
v -0.01835421286523342 0.15096721053123474 0.6499919891357422
v -0.011893649585545063 0.16018222272396088 0.6589094996452332
v -0.014997613616287708 0.15977038443088531 0.6637633442878723
v 0.08900441229343414 0.10883212089538574 0.6181136965751648
v 0.06786193698644638 0.1045621857047081 0.6465432047843933
v 0.044226936995983124 0.1128758043050766 0.6910457015037537
v 0.0333951935172081 0.10475747287273407 0.6896939277648926
v 0.004167934879660606 0.10991991311311722 0.6457726359367371
v 0.029610300436615944 0.12136548012495041 0.612584114074707
v 0.01814841851592064 0.1287013441324234 0.6243323087692261
v 0.009967442601919174 0.12571580708026886 0.6209111213684082
v 0.004109835252165794 0.12265344709157944 0.6250181794166565
v 0.0018173439893871546 0.11641158908605576 0.6277226209640503
v -0.014018428511917591 0.16417281329631805 0.6556999087333679
v -0.018256256356835365 0.16511468589305878 0.6595929861068726
v -0.023983042687177658 0.16394923627376556 0.6591447591781616
v -0.027732498943805695 0.1598719209432602 0.658825695514679
v -0.028449976816773415 0.15525567531585693 0.6576793193817139
v -0.014119710773229599 0.16194209456443787 0.6521376967430115
v -0.015214423649013042 0.15876416862010956 0.6500415802001953
v -0.019055994227528572 0.15313640236854553 0.6497421264648438
v -0.013369894586503506 0.162528857588768 0.6486499309539795
v -0.014447231777012348 0.16692407429218292 0.649573802947998
v -0.02611386589705944 0.17070068418979645 0.6464174389839172
v -0.023795636370778084 0.16930550336837769 0.6514613628387451
v -0.022684436291456223 0.17035147547721863 0.6495641469955444
v -0.023732418194413185 0.1723128706216812 0.6453434824943542
v -0.023375296965241432 0.1748705804347992 0.6411504745483398
v -0.02640729583799839 0.1731749027967453 0.6416346430778503
v -0.01878071390092373 0.16876822710037231 0.6510623693466187
v -0.019419681280851364 0.17159095406532288 0.6454132795333862
v -0.015812618657946587 0.1699744015932083 0.6441142559051514
v -0.0160344447940588 0.173261359333992 0.6399918794631958
v -0.01934852823615074 0.17503511905670166 0.6410040259361267
v -0.01571063883602619 0.16829265654087067 0.6481292843818665
v -0.018472017720341682 0.16856294870376587 0.652904748916626
v -0.02446955069899559 0.17465728521347046 0.6380413770675659
v -0.02262948639690876 0.17613115906715393 0.6387969851493835
v -0.01943253166973591 0.1758931279182434 0.6382671594619751
v -0.02028581313788891 0.17506417632102966 0.6355915069580078
v -0.02741776779294014 0.16425518691539764 0.6531454920768738
v -0.02752642333507538 0.16883312165737152 0.6458015441894531
v -0.02666938118636608 0.1704886257648468 0.6403536200523376
v -0.024698734283447266 0.17218028008937836 0.6369274854660034
v -0.027200713753700256 0.16589173674583435 0.6433023810386658
v -0.02582676149904728 0.16795650124549866 0.6393062472343445
v -0.02386646531522274 0.1691025346517563 0.6361507773399353
v -0.025261998176574707 0.1630690097808838 0.6409428715705872
v -0.024067355319857597 0.1657608300447464 0.6379218697547913
v -0.02691349945962429 0.15553313493728638 0.6515799760818481
v -0.028063785284757614 0.15874843299388885 0.6534877419471741
v -0.023374708369374275 0.16706271469593048 0.6358457803726196
v -0.02026202715933323 0.173102006316185 0.6347696781158447
v -0.013848531991243362 0.16697490215301514 0.6439619064331055
v -0.014935805462300777 0.1704684942960739 0.6384876370429993
v -0.013630586676299572 0.1650615632534027 0.6429551839828491
v -0.014305240474641323 0.16837596893310547 0.6374290585517883
v -0.01581159047782421 0.17329704761505127 0.6356425881385803
v -0.016823409125208855 0.17452625930309296 0.6376767158508301
v -0.026594221591949463 0.15185914933681488 0.654779851436615
v -0.022492825984954834 0.15116740763187408 0.651430070400238
v -0.021984854713082314 0.15376003086566925 0.6491433382034302
v -0.021414827555418015 0.1609726846218109 0.6394693851470947
v -0.017944686114788055 0.1548483967781067 0.6475116610527039
v -0.014027458615601063 0.15977078676223755 0.6464908719062805
v -0.01433181669563055 0.163376122713089 0.6410016417503357
v -0.016575198620557785 0.16150854527950287 0.6396254301071167
v -0.015303083695471287 0.1661372184753418 0.6370216012001038
v -0.017425747588276863 0.1647043079137802 0.6367751955986023
v -0.02105027250945568 0.16426807641983032 0.6367139220237732
v -0.01725281961262226 0.16839599609375 0.6346295475959778
v -0.016084417700767517 0.17113330960273743 0.6348937749862671
v -0.02059648558497429 0.16978031396865845 0.634407103061676
v -0.018096862360835075 0.16665209829807281 0.635109007358551
v -0.02088956907391548 0.16732771694660187 0.635331392288208
v -0.02030503749847412 0.14375117421150208 0.6229427456855774
v -0.015332533977925777 0.14191479980945587 0.6200979351997375
v -0.016454242169857025 0.13352815806865692 0.6246646642684937
v -0.01999051868915558 0.1354149729013443 0.6281734704971313
v -0.016274863854050636 0.14755119383335114 0.6349436044692993
v -0.02077704481780529 0.14686107635498047 0.6313498616218567
v -0.018972013145685196 0.14196477830410004 0.6364867091178894
v -0.012960202991962433 0.14438730478286743 0.6380050182342529
v -0.010250723920762539 0.14671830832958221 0.634484052658081
v -0.0070949820801615715 0.14368800818920135 0.6358413696289062
v -0.009309263899922371 0.1445683091878891 0.640250027179718
v -0.015000785700976849 0.14031913876533508 0.6402965188026428
v -0.002392231486737728 0.12789028882980347 0.6507952809333801
v 0.0018190894043073058 0.13354428112506866 0.6499086618423462
v 0.0001576166250742972 0.11556997895240784 0.6373161673545837
v 0.0018143363995477557 0.11878146231174469 0.6356459259986877
v -0.021639946848154068 0.14543403685092926 0.6266921162605286
v -0.020802153274416924 0.13870519399642944 0.6327393651008606
v -0.007226975634694099 0.13194014132022858 0.623663067817688
v -0.011940266005694866 0.13007941842079163 0.6255806088447571
v -0.01234618853777647 0.133374884724617 0.6218552589416504
v -0.0077531225979328156 0.13478821516036987 0.6218200325965881
v -0.004273765720427036 0.11909246444702148 0.6480023860931396
v -0.0016960175707936287 0.11578517407178879 0.6430915594100952
v -0.004204998724162579 0.12332729995250702 0.649426281452179
v -0.0029063194524496794 0.13628925383090973 0.6253412961959839
v -0.0005379677750170231 0.14130227267742157 0.6292291879653931
v 0.008558854460716248 0.13218295574188232 0.6378768086433411
v 0.006532401777803898 0.12655191123485565 0.6348298192024231
v -0.018047373741865158 0.13634823262691498 0.6376991868019104
v -0.01587674394249916 0.13037173449993134 0.629513144493103
v -0.018313001841306686 0.13239078223705292 0.6333718299865723
v -0.0037074510473757982 0.14449851214885712 0.6357632279396057
v -0.003394120605662465 0.14205874502658844 0.6296107172966003
v -0.00014144671149551868 0.154330313205719 0.62205970287323
v -0.003783413441851735 0.14293727278709412 0.6255176067352295
v -0.006145292893052101 0.1418774574995041 0.6211727261543274
v -0.0014839761424809694 0.15344227850437164 0.6173534989356995
v -0.0047410717234015465 0.1377466320991516 0.6250225305557251
v -0.0052004484459757805 0.1449839323759079 0.6302743554115295
v -0.013966157101094723 0.15819904208183289 0.6158246994018555
v -0.00898157712072134 0.1556478589773178 0.6130965948104858
v -0.015724828466773033 0.1602870523929596 0.6194767355918884
v 0.006567391566932201 0.13550852239131927 0.6442682147026062
v -0.012437086552381516 0.16061760485172272 0.6287708282470703
v -0.01589348167181015 0.1609366238117218 0.6236583590507507
v -0.010116915218532085 0.14139363169670105 0.6190491914749146
v -0.004423513077199459 0.15416914224624634 0.6139413714408875
v -0.0010939810890704393 0.15606610476970673 0.626225471496582
v -0.006704793311655521 0.15798719227313995 0.6304349899291992
v 0.0004662561696022749 0.16032850742340088 0.621711254119873
v -0.0033101525623351336 0.16352885961532593 0.6255447864532471
v -0.008534266613423824 0.16650325059890747 0.6241824626922607
v -0.012519331648945808 0.1662415713071823 0.6201249361038208
v -0.013490855693817139 0.16442322731018066 0.6168025135993958
v 0.0009040876757353544 0.15873725712299347 0.6181391477584839
v -0.0006548494566231966 0.1577758491039276 0.6139551401138306
v -0.004787403158843517 0.15709024667739868 0.6119138598442078
v 0.002115367678925395 0.16254062950611115 0.6123088598251343
v 0.0026744238566607237 0.16542862355709076 0.6152122616767883
v -0.004014034755527973 0.180243581533432 0.6093343496322632
v -0.005241411738097668 0.17668300867080688 0.6136594414710999
v -0.002675754250958562 0.1764795482158661 0.6139070987701416
v -0.001315214904025197 0.17970788478851318 0.6100037097930908
v -0.004790506325662136 0.17317982017993927 0.6184823513031006
v -0.0026437167543917894 0.17359180748462677 0.617168664932251
v 0.0003615699242800474 0.17023196816444397 0.6171565055847168
v 0.00106681021861732 0.17381687462329865 0.6127395033836365
v 0.003464615670964122 0.16999952495098114 0.6110787987709045
v 0.005290537141263485 0.17360208928585052 0.6075475811958313
v 0.00322348321788013 0.17766955494880676 0.6092300415039062
v 0.0026612046640366316 0.16852344572544098 0.614622175693512
v 0.0003230113070458174 0.18114399909973145 0.6073154807090759
v -0.0008939106483012438 0.18171313405036926 0.6050962209701538
v -0.0005355265457183123 0.168815016746521 0.6194303035736084
v -0.010321675799787045 0.17029711604118347 0.6182712316513062
v -0.007706700824201107 0.17622733116149902 0.611974835395813
v -0.005819457583129406 0.1794862002134323 0.6068081855773926
v -0.0016046178061515093 0.180233895778656 0.6025307178497314
v -0.00888166856020689 0.17432332038879395 0.6085522174835205
v -0.0062361592426896095 0.17752623558044434 0.6043089628219604
v -0.0023669518996030092 0.17793898284435272 0.6012657880783081
v -0.008536546491086483 0.17131121456623077 0.6050333976745605
v -0.005417977459728718 0.17447024583816528 0.6015374660491943
v -0.012196934781968594 0.1640862673521042 0.612150251865387
v -0.012731045484542847 0.16747413575649261 0.6151672005653381
v -0.003317133756354451 0.1758115291595459 0.6007509827613831
v 0.0035941365640610456 0.18023204803466797 0.6038832664489746
v 0.0021157849114388227 0.17885872721672058 0.6011515855789185
v 0.0036843668203800917 0.17979712784290314 0.6056981682777405
v 0.003948594443500042 0.16833406686782837 0.6098447442054749
v 0.0052470797672867775 0.17235100269317627 0.6056418418884277
v 0.0035633619409054518 0.1666812300682068 0.6076855063438416
v 0.0048389798030257225 0.17146992683410645 0.6034337878227234
v 0.005762568674981594 0.1760549396276474 0.603227972984314
v 0.005699700675904751 0.17694175243377686 0.6047108769416809
v -0.012182056903839111 0.1614322066307068 0.6140726208686829
v -0.008340121246874332 0.15827888250350952 0.6118501424789429
v -0.009028731845319271 0.1604173183441162 0.6099110245704651
v -0.005516783334314823 0.16777004301548004 0.6031522154808044
v -0.0048108091577887535 0.15885373950004578 0.6096786856651306
v -3.675115294754505e-05 0.16064023971557617 0.6101984977722168
v 0.0018529712688177824 0.16538527607917786 0.6058732271194458
v -0.0013276815880089998 0.1657441258430481 0.6036537885665894
v 0.004000474698841572 0.17011579871177673 0.6018903255462646
v 0.0009043633472174406 0.16909727454185486 0.6013814210891724
v -0.0032061070669442415 0.17133930325508118 0.6004502177238464
v 0.004071376286447048 0.1741255521774292 0.5999982357025146
v 0.005293496884405613 0.17540842294692993 0.6016221642494202
v 0.0008863105904310942 0.1772380918264389 0.6002243757247925
v 0.0017004746478050947 0.17232820391654968 0.5997427105903625
v -0.001035274239256978 0.17473408579826355 0.5997333526611328
v -0.0047460924834012985 0.09526239335536957 0.6086764335632324
v 0.00040529738180339336 0.09609165042638779 0.6069602966308594
v 0.0014716831501573324 0.09784994274377823 0.6103180050849915
v -0.003538399701938033 0.09759993106126785 0.612442135810852
v -0.012504241429269314 0.10512613505125046 0.6041823625564575
v -0.012315311469137669 0.1004192978143692 0.6062940359115601
v -0.011401226744055748 0.10360874980688095 0.610358715057373
v -0.011533228680491447 0.10923558473587036 0.6089310050010681
v -0.009591144509613514 0.10781008750200272 0.5997982025146484
v -0.007963644340634346 0.11303406208753586 0.6050524115562439
v -0.010295514017343521 0.1129365786910057 0.6123831868171692
v -0.010263918898999691 0.10671374946832657 0.6140090227127075
v -0.0015756734646856785 0.11383118480443954 0.6239591836929321
v -0.0015280658844858408 0.11985297501087189 0.6208435297012329
v -0.009093786589801311 0.09718762338161469 0.6077938079833984
v -0.007992708124220371 0.09972827136516571 0.611764669418335
v 0.006066946312785149 0.1039234846830368 0.6060470342636108
v 0.004958950914442539 0.10050404816865921 0.6088705658912659
v 0.0045799510553479195 0.10014116019010544 0.6067234873771667
v 0.005012420937418938 0.10342483967542648 0.604228675365448
v 0.006311806850135326 0.10699236392974854 0.6266014575958252
v 0.01132730022072792 0.10752534866333008 0.6231879591941833
v 0.0016043365467339754 0.10911697149276733 0.625651478767395
v 0.003788609290495515 0.10991209745407104 0.6037290096282959
v -0.0007744107861071825 0.11555635184049606 0.6039214730262756
v 0.009115657769143581 0.11996771395206451 0.6117843389511108
v 0.01263770554214716 0.11506140977144241 0.6124829649925232
v -0.007200351916253567 0.10237351804971695 0.6149542927742004
v 0.002031370298936963 0.09865238517522812 0.6129614114761353
v -0.0028579903300851583 0.09897737950086594 0.6151312589645386
v -0.006283399648964405 0.11613718420267105 0.6083856225013733
v -0.0023221683222800493 0.11201854795217514 0.601529598236084
v -0.002246921183541417 0.09929602593183517 0.5855251550674438
v 0.001290615415200591 0.10722199082374573 0.5985720753669739
v 0.004200574941933155 0.10259987413883209 0.6010760068893433
v 0.0010666332673281431 0.09664099663496017 0.5868406891822815
v 0.0027460658457130194 0.1082857996225357 0.6013138294219971
v -0.003997807390987873 0.1095583364367485 0.5978797674179077
v -0.004641915671527386 0.0862102061510086 0.5936437845230103
v -2.252892591059208e-05 0.08887144923210144 0.5926652550697327
v -0.008617496117949486 0.0876402035355568 0.5939799547195435
v 0.0027365810237824917 0.12297968566417694 0.6159226298332214
v 0.014417411759495735 0.10997854918241501 0.6166138052940369
v -0.012942058965563774 0.09238706529140472 0.5904680490493774
v -0.011327503249049187 0.08918698877096176 0.5927479267120361
v 0.0036236185114830732 0.0991765633225441 0.6038742661476135
v 0.0023503161501139402 0.09281765669584274 0.5894824266433716
v -0.0067800115793943405 0.09996297955513 0.5860938429832458
v -0.01159417349845171 0.09770096093416214 0.588361918926239
v -0.005691299214959145 0.09781293570995331 0.5816910862922668
v -0.010275338776409626 0.09476518630981445 0.5832175016403198
v -0.011666473932564259 0.08977363258600235 0.5842917561531067
v -0.009908734820783138 0.08666063845157623 0.5863328576087952
v -0.007243704982101917 0.08504953980445862 0.587875247001648
v -0.001341643976047635 0.09738470613956451 0.5813168883323669
v 0.0013558461796492338 0.09510423243045807 0.5827265381813049
v 0.0020721449982374907 0.09218951314687729 0.5869650840759277
v 0.0003143015783280134 0.09606119990348816 0.5782604217529297
v -0.0044183554127812386 0.09556348621845245 0.5758635401725769
v -0.005063162185251713 0.08178950846195221 0.5677598714828491
v -0.0068244943395257 0.08370354771614075 0.5726960897445679
v -0.006677231751382351 0.08480455726385117 0.5720469355583191
v -0.005325621925294399 0.08325077593326569 0.5668889284133911
v -0.009726508520543575 0.08775697648525238 0.5773730874061584
v -0.008620002306997776 0.08792732656002045 0.57535320520401
v -0.007727877236902714 0.0916505679488182 0.5752869844436646
v -0.005309592001140118 0.08937667310237885 0.5698184370994568
v -0.000577389495447278 0.09276943653821945 0.5709033012390137
v 0.0003540597390383482 0.09052345156669617 0.5668081045150757
v -0.004044285975396633 0.08754821866750717 0.565254807472229
v -0.004222330637276173 0.09433138370513916 0.5744918584823608
v -0.003868441330268979 0.08323106169700623 0.56418377161026
v -0.00420109648257494 0.08135871589183807 0.5637220144271851
v -0.008900447748601437 0.0925038680434227 0.5772849321365356
v -0.009088568389415741 0.08442382514476776 0.5807762145996094
v -0.005942461080849171 0.08140839636325836 0.5741593837738037
v -0.004017169587314129 0.07901842147111893 0.5691424608230591
v -0.0016066909302026033 0.07949205487966537 0.5655964612960815
v -0.0027146015781909227 0.08044835180044174 0.5758912563323975
v -0.0012848537880927324 0.07881791889667511 0.570842444896698
v 0.0007626737933605909 0.07910293340682983 0.56755530834198
v 0.0001822717022150755 0.0809718668460846 0.5770394802093506
v 0.0015208504628390074 0.07976184040307999 0.5722217559814453
v -0.0030551955569535494 0.08440373092889786 0.5863341093063354
v -0.006402394734323025 0.08367609977722168 0.5838727355003357
v 0.002263840986415744 0.07977913320064545 0.5691171884536743
v -0.0013738155830651522 0.08483024686574936 0.562018871307373
v 0.002120933262631297 0.08301340043544769 0.5635212659835815
v -0.002204546006396413 0.08563971519470215 0.5632704496383667
v 0.0006801213603466749 0.09368743002414703 0.5718578696250916
v 0.0026902786921709776 0.0909719243645668 0.5665819644927979
v 0.0030104282777756453 0.09327562153339386 0.5733261704444885
v 0.005065810866653919 0.0904289186000824 0.5679715871810913
v 0.0018674738239496946 0.08860823512077332 0.5635266304016113
v 0.000705695478245616 0.08852941542863846 0.5638415813446045
v -0.003611986758187413 0.08568276464939117 0.5896241664886475
v 0.0003801255952566862 0.08838284015655518 0.5892210602760315
v 0.0007701616268604994 0.0870807021856308 0.5864841938018799
v 0.0038446474354714155 0.08339322358369827 0.5767950415611267
v 0.0025513607542961836 0.09097188711166382 0.5848313570022583
v 0.0026965502183884382 0.09375819563865662 0.5795299410820007
v 0.004728424362838268 0.09095772355794907 0.5746866464614868
v 0.005249914713203907 0.0874432846903801 0.5756091475486755
v 0.0063652219250798225 0.08858717232942581 0.5696234703063965
v 0.005991184152662754 0.08646871149539948 0.5714943408966064
v 0.00486679095774889 0.08186979591846466 0.5722993612289429
v 0.005386029370129108 0.0859939306974411 0.566765308380127
v 0.004243425093591213 0.08763720095157623 0.5646575689315796
v 0.0037747386377304792 0.0818895548582077 0.565936803817749
v 0.005822380073368549 0.08463045954704285 0.5687777400016785
v 0.00454870518296957 0.0815160945057869 0.5682956576347351
v 0.01402826327830553 0.10825524479150772 0.6198267340660095
v 0.0060354797169566154 0.1062590703368187 0.5991740822792053
v 0.006241702474653721 0.10255242884159088 0.5978166460990906
v 0.010816560126841068 0.10240743309259415 0.5978711247444153
v 0.011067799292504787 0.10584012418985367 0.6000906229019165
v 0.008062128908932209 0.1138436421751976 0.5915980339050293
v 0.006512400694191456 0.11250772327184677 0.5956650972366333
v 0.011308654211461544 0.11333704739809036 0.5961898565292358
v 0.013336806558072567 0.11488410830497742 0.5921726226806641
v 0.009274781681597233 0.11191130429506302 0.5870972275733948
v 0.014751122333109379 0.1130191907286644 0.5875580310821533
v 0.015379550866782665 0.11717890202999115 0.594273030757904
v 0.013191541656851768 0.11481581628322601 0.5981005430221558
v 0.020860472694039345 0.11676301062107086 0.6084272265434265
v 0.02458854578435421 0.11994649469852448 0.6057493090629578
v 0.035372693091630936 0.10507316142320633 0.6021170616149902
v 0.033419493585824966 0.1020057201385498 0.6066218018531799
v 0.026874685660004616 0.1028061956167221 0.6026596426963806
v 0.02980896458029747 0.10456319898366928 0.5995043516159058
v 0.006020461209118366 0.10975342988967896 0.5981661677360535
v 0.010301610454916954 0.10962827503681183 0.5992292761802673
v 0.01872660033404827 0.10054673999547958 0.5927147269248962
v 0.01618526130914688 0.09984572231769562 0.5964403748512268
v 0.011766238138079643 0.0996352881193161 0.5952760577201843
v 0.012686745263636112 0.09921041876077652 0.5907801389694214
v 0.029080774635076523 0.10244105011224747 0.6102441549301147
v 0.026401624083518982 0.10446526110172272 0.613525927066803
v 0.022335536777973175 0.10533738881349564 0.6104533076286316
v 0.023387102410197258 0.10328636318445206 0.6058562397956848
v 0.019138455390930176 0.1099826842546463 0.6113221049308777
v 0.020070720463991165 0.10332757979631424 0.5895759463310242
v 0.02056276798248291 0.10925188660621643 0.5875028371810913
v 0.033017873764038086 0.11313110589981079 0.5967221260070801
v 0.03269185125827789 0.10839694738388062 0.5979180932044983
v 0.011919490993022919 0.11100995540618896 0.6007304191589355
v 0.013685754500329494 0.10194172710180283 0.5991756916046143
v 0.012404256500303745 0.10609763860702515 0.6011961698532104
v 0.01887625642120838 0.11556635051965714 0.590035617351532
v 0.01465498935431242 0.10752564668655396 0.5850194692611694
v -0.0010153886396437883 0.10023705661296844 0.5859692096710205
v 0.008628848008811474 0.1011471077799797 0.5862038135528564
v 0.007471444085240364 0.09890038520097733 0.590193510055542
v -0.0016328648198395967 0.09864872694015503 0.5886275768280029
v 0.014561849646270275 0.10233385860919952 0.5874024629592896
v 0.00885730143636465 0.10639841854572296 0.5845382809638977
v -0.003621760057285428 0.10545443743467331 0.598388135433197
v -0.0025202941615134478 0.10103490948677063 0.5961672067642212
v -0.003633414627984166 0.10854842513799667 0.5976930260658264
v 0.029115712270140648 0.11958736181259155 0.6004077196121216
v -0.002733894856646657 0.11202052235603333 0.5912453532218933
v -0.00392229575663805 0.11099870502948761 0.5953314900398254
v 0.006679202429950237 0.09999040514230728 0.5947016477584839
v -0.0020146213937550783 0.09882497042417526 0.5923998355865479
v -0.000865322770550847 0.10425102710723877 0.58449786901474
v -0.0011516616214066744 0.10990675538778305 0.5863077044487
v -0.00553650688380003 0.10377568006515503 0.5844064354896545
v -0.005913763307034969 0.10925865173339844 0.5866335034370422
v -0.008004085160791874 0.11103496700525284 0.5922206044197083
v -0.007752175442874432 0.10987688601016998 0.5956696271896362
v -0.007375230081379414 0.10753876715898514 0.5978067517280579
v -0.005269649438560009 0.09973521530628204 0.5859434008598328
v -0.005284744314849377 0.09813830256462097 0.5887451767921448
v -0.004825280047953129 0.09824037551879883 0.5924729704856873
v -0.00984459649771452 0.09919430315494537 0.5859276652336121
v -0.012149672023952007 0.10327848047018051 0.5849525928497314
v -0.022473052144050598 0.10519839823246002 0.593501091003418
v -0.0187541414052248 0.10653726756572723 0.5937771201133728
v -0.01869751513004303 0.10659907013177872 0.5925858616828918
v -0.022665098309516907 0.10577685385942459 0.5925748348236084
v -0.014101394452154636 0.10871430486440659 0.5924935936927795
v -0.015075917355716228 0.10800906270742416 0.591320276260376
v -0.013379883952438831 0.10713118314743042 0.5883326530456543
v -0.018307242542505264 0.1057969480752945 0.5883617997169495
v -0.017641596496105194 0.10133285075426102 0.5855408310890198
v -0.021660711616277695 0.10082285106182098 0.5858767032623291
v -0.021924465894699097 0.10500732064247131 0.5880813002586365
v -0.014002292416989803 0.10409627109766006 0.5855574607849121
v -0.025037840008735657 0.10525062680244446 0.5914239287376404
v -0.02605319768190384 0.10477487742900848 0.5922306776046753
v -0.011755288578569889 0.10810311138629913 0.5879137516021729
v -0.012607279233634472 0.1080440878868103 0.5962637066841125
v -0.01919739693403244 0.1055627316236496 0.5959950685501099
v -0.023816339671611786 0.10412529110908508 0.5950152277946472
v -0.026513271033763885 0.10270651429891586 0.592942476272583
v -0.017766142264008522 0.1038157269358635 0.5972902774810791
v -0.023432299494743347 0.1021929681301117 0.5962659120559692
v -0.025912858545780182 0.10073644667863846 0.5941729545593262
v -0.01624603569507599 0.10087265074253082 0.59772789478302
v -0.02187637984752655 0.09997992217540741 0.5962734222412109
v -0.009275279007852077 0.10256944596767426 0.5983214378356934
v -0.011102183721959591 0.10569775104522705 0.5979644656181335
v -0.024416379630565643 0.09970590472221375 0.5944210290908813
v -0.026482779532670975 0.10310254991054535 0.5887488126754761
v -0.026783496141433716 0.10065716505050659 0.5903695225715637
v -0.02536272257566452 0.10390099138021469 0.5880069732666016
v -0.01703532785177231 0.10008588433265686 0.5852994918823242
v -0.021943315863609314 0.09922883659601212 0.5858142375946045
v -0.016163282096385956 0.0978088453412056 0.5861790776252747
v -0.021852977573871613 0.0974123403429985 0.5870413184165955
v -0.025173243135213852 0.10026136040687561 0.5868186950683594
v -0.024171866476535797 0.1017838716506958 0.5865947604179382
v -0.006846052594482899 0.10372979938983917 0.5983844995498657
v -0.005179549567401409 0.10058616101741791 0.5961275100708008
v -0.007796506397426128 0.09941771626472473 0.5960010886192322
v -0.01490545179694891 0.09779860079288483 0.5958443880081177
v -0.007530233822762966 0.09730333834886551 0.5921671390533447
v -0.008464730344712734 0.09758491069078445 0.5884023308753967
v -0.015440463088452816 0.09645847976207733 0.5884718298912048
v -0.015003531239926815 0.09604224562644958 0.5918099284172058
v -0.02172619104385376 0.09639947861433029 0.5890073776245117
v -0.0208883136510849 0.09610975533723831 0.5919345617294312
v -0.020811311900615692 0.0973651111125946 0.5948405861854553
v -0.024990752339363098 0.09797411412000656 0.5901826620101929
v -0.025540951639413834 0.09873174875974655 0.5885135531425476
v -0.02592838928103447 0.09928341209888458 0.5917426347732544
v -0.02403787523508072 0.0974343940615654 0.5918480753898621
v -0.02423454448580742 0.09829527884721756 0.5931639671325684
v 0.034901928156614304 0.1083436980843544 0.5998979210853577
v 0.019847573712468147 0.09639818966388702 0.6825215816497803
v 0.02164972946047783 0.0961475744843483 0.6771888136863708
v 0.029170582070946693 0.08153893798589706 0.6759433150291443
v 0.026280205696821213 0.0872458964586258 0.6722322702407837
v 0.029054217040538788 0.07886859774589539 0.6825010180473328
v 0.025215595960617065 0.08297257125377655 0.6917189955711365
v 0.02840154990553856 0.0803006961941719 0.6881515979766846
v 0.02391018718481064 0.0924440547823906 0.6731041669845581
v 0.020091501995921135 0.09431086480617523 0.6878404021263123
v 0.022276468575000763 0.08883102983236313 0.6923516988754272
v 0.0092823700979352 0.0887458473443985 0.6858465075492859
v 0.012573189102113247 0.08219262957572937 0.6897614598274231
v 0.016540998592972755 0.07583671808242798 0.6881175637245178
v 0.02198159135878086 0.0750809907913208 0.6837919354438782
v 0.02445243112742901 0.07507374882698059 0.6795779466629028
v 0.0129219526425004 0.09281105548143387 0.679794430732727
v 0.015756716951727867 0.09320677816867828 0.6748356819152832
v 0.020142363384366035 0.08978340029716492 0.6712934374809265
v 0.007705383934080601 0.08926315605640411 0.6744495630264282
v 0.0042806873098015785 0.0808839499950409 0.6711124181747437
v 0.009807826019823551 0.06420710682868958 0.6627023816108704
v 0.012770415283739567 0.06671290099620819 0.668053925037384
v 0.010206450708210468 0.0677412748336792 0.6683477163314819
v 0.00758159626275301 0.06501379609107971 0.6637023091316223
v 0.012204964645206928 0.0691177174448967 0.6731669902801514
v 0.01050803903490305 0.0701189935207367 0.6719592809677124
v 0.007585526444017887 0.07476480305194855 0.6728683710098267
v 0.005398870445787907 0.07194989919662476 0.6681463718414307
v 0.0053511979058384895 0.0784221887588501 0.6702407598495483
v 0.00419978890568018 0.07761116325855255 0.6661218404769897
v 0.003328901482746005 0.06957939267158508 0.6635079383850098
v 0.004638970829546452 0.06458410620689392 0.6612610816955566
v 0.0019112981390208006 0.06759814918041229 0.6596447825431824
v 0.006405306048691273 0.06400424242019653 0.6590004563331604
v 0.00482622254639864 0.07433848083019257 0.675640881061554
v 0.017975397408008575 0.07002623379230499 0.6761307716369629
v 0.016268756240606308 0.06708276271820068 0.6678707599639893
v 0.01283190306276083 0.06510205566883087 0.6611949801445007
v 0.008557786233723164 0.06514431536197662 0.6571094393730164
v 0.019174104556441307 0.06924598664045334 0.6659359931945801
v 0.015405156649649143 0.0681823343038559 0.6599709987640381
v 0.011127826757729053 0.06889158487319946 0.6562822461128235
v 0.01998133212327957 0.07332044839859009 0.6636905670166016
v 0.01569879800081253 0.07185649871826172 0.659014105796814
v 0.02456074394285679 0.07810593396425247 0.6723639965057373
v 0.02302366867661476 0.07315436750650406 0.6753113865852356
v 0.01225049514323473 0.07125747203826904 0.6568092107772827
v 0.0018626756500452757 0.06730137765407562 0.6571989059448242
v 0.004185979254543781 0.06877818703651428 0.6552489399909973
v 0.004151583649218082 0.08077371120452881 0.6654910445213318
v 0.0016272671055048704 0.07532566785812378 0.662137508392334
v 0.0023709542583674192 0.07746890187263489 0.6606540679931641
v 0.006113477982580662 0.08401519060134888 0.6647648811340332
v 0.00389816309325397 0.07933171093463898 0.6591699123382568
v 0.000988789601251483 0.07308419048786163 0.6577084064483643
v 0.0008670731913298368 0.07189646363258362 0.6599761247634888
v 0.026083802804350853 0.0786338746547699 0.6745409965515137
v 0.02429410070180893 0.08448029309511185 0.6715474128723145
v 0.022400125861167908 0.0843031108379364 0.6702650189399719
v 0.018162813037633896 0.07940015196800232 0.6625067591667175
v 0.017698710784316063 0.08905080705881119 0.6691673994064331
v 0.011888009496033192 0.09073899686336517 0.6716113686561584
v 0.009182405658066273 0.08530766516923904 0.6630634665489197
v 0.013873388059437275 0.08398929983377457 0.6623207926750183
v 0.007151019759476185 0.0798904150724411 0.6580698490142822
v 0.010043543763458729 0.07911808788776398 0.6579822897911072
v 0.01377916056662798 0.07573480159044266 0.6577965021133423
v 0.0060914428904652596 0.07544314861297607 0.655685544013977
v 0.002975527895614505 0.07473841309547424 0.6561325192451477
v 0.007608287967741489 0.07145927846431732 0.6549860835075378
v 0.008613654412329197 0.07607126235961914 0.6564359068870544
v 0.01017817948013544 0.07341741770505905 0.6561049222946167
v 0.03900826722383499 0.10117736458778381 0.6085584163665771
v 0.035413190722465515 0.10087275505065918 0.6139197945594788
v 0.04233350604772568 0.10015331208705902 0.6140954494476318
v 0.051828525960445404 0.09943307191133499 0.615939736366272
v 0.062026891857385635 0.10113994032144547 0.6127422451972961
v 0.04985550045967102 0.10047286003828049 0.6222990155220032
v 0.04017632082104683 0.10124882310628891 0.619884192943573
v 0.030444340780377388 0.1032814309000969 0.6192256212234497
v 0.05615049600601196 0.10224640369415283 0.6303093433380127
f 2 3 1
f 1 3 4
f 5 6 8
f 8 6 7
f 9 4 10
f 10 4 3
f 12 13 11
f 11 13 9
f 14 12 16
f 16 12 15
f 18 19 17
f 17 19 20
f 22 23 21
f 21 23 24
f 26 27 25
f 25 27 28
f 30 31 29
f 29 31 32
f 33 34 36
f 36 34 35
f 37 38 40
f 40 38 39
f 41 42 6
f 6 42 43
f 6 43 7
f 7 43 44
f 45 34 46
f 46 34 33
f 48 49 47
f 47 49 50
f 52 53 51
f 51 53 54
f 56 52 55
f 55 52 51
f 58 59 57
f 57 59 60
f 61 62 4
f 4 62 1
f 64 65 63
f 63 65 66
f 68 69 67
f 67 69 70
f 72 73 71
f 71 73 74
f 76 77 75
f 75 77 78
f 53 79 54
f 54 79 80
f 82 83 81
f 81 83 84
f 85 86 52
f 52 86 53
f 57 60 87
f 87 60 88
f 89 90 43
f 43 90 44
f 43 42 89
f 89 42 91
f 40 39 92
f 92 39 93
f 94 70 64
f 64 70 69
f 13 61 9
f 9 61 4
f 25 28 69
f 69 28 95
f 96 25 68
f 68 25 69
f 98 99 97
f 97 99 100
f 101 102 104
f 104 102 103
f 106 30 105
f 105 30 29
f 51 54 107
f 107 54 108
f 54 80 108
f 108 80 109
f 111 112 110
f 110 112 113
f 115 5 114
f 114 5 116
f 115 41 5
f 5 41 6
f 36 35 111
f 111 35 117
f 35 118 117
f 117 118 119
f 34 120 35
f 35 120 118
f 34 45 120
f 120 45 121
f 125 126 124
f 124 126 127
f 128 129 14
f 14 129 130
f 33 131 46
f 46 131 132
f 133 94 63
f 63 94 64
f 134 135 137
f 137 135 136
f 139 140 138
f 138 140 141
f 77 142 78
f 78 142 143
f 144 145 20
f 20 145 146
f 148 149 147
f 147 149 72
f 151 152 150
f 150 152 153
f 82 101 83
f 83 101 104
f 101 82 155
f 155 82 154
f 156 157 58
f 58 157 59
f 158 68 147
f 147 68 67
f 159 146 15
f 15 146 16
f 68 158 96
f 96 158 160
f 129 66 130
f 130 66 65
f 162 163 161
f 161 163 164
f 166 167 165
f 165 167 168
f 170 171 169
f 169 171 172
f 174 171 173
f 173 171 170
f 176 177 175
f 175 177 178
f 180 181 179
f 179 181 24
f 182 183 21
f 21 183 184
f 81 185 82
f 82 185 154
f 186 187 188
f 188 187 144
f 158 71 160
f 160 71 189
f 190 135 157
f 157 135 59
f 169 172 139
f 139 172 140
f 147 72 158
f 158 72 71
f 192 193 191
f 191 193 194
f 167 166 49
f 49 166 195
f 196 190 50
f 50 190 157
f 197 198 200
f 200 198 199
f 21 24 182
f 182 24 181
f 146 159 20
f 20 159 17
f 182 181 81
f 81 181 185
f 201 185 180
f 180 185 181
f 202 203 83
f 83 203 84
f 205 206 204
f 204 206 85
f 207 22 184
f 184 22 21
f 179 24 208
f 208 24 23
f 208 209 179
f 179 209 205
f 209 210 205
f 205 210 206
f 212 206 211
f 211 206 210
f 179 205 180
f 180 205 204
f 213 176 88
f 88 176 214
f 86 85 212
f 212 85 206
f 193 217 218
f 217 219 218
f 218 219 220
f 219 18 220
f 220 18 17
f 19 221 20
f 20 221 144
f 222 223 225
f 225 223 224
f 175 226 176
f 176 226 214
f 227 87 214
f 214 87 88
f 220 17 228
f 228 17 159
f 134 213 60
f 60 213 88
f 138 229 151
f 151 229 152
f 193 192 210
f 210 192 211
f 230 194 218
f 218 194 193
f 231 232 228
f 228 232 230
f 233 234 91
f 91 234 89
f 235 236 93
f 93 236 92
f 230 232 234
f 234 232 237
f 47 238 48
f 48 238 239
f 240 191 235
f 235 191 236
f 5 8 116
f 116 8 241
f 242 243 189
f 189 243 160
f 244 245 98
f 98 245 99
f 156 246 47
f 47 246 238
f 76 247 77
f 77 247 248
f 250 125 249
f 249 125 124
f 252 253 251
f 251 253 254
f 111 110 36
f 36 110 255
f 256 33 255
f 255 33 36
f 257 258 154
f 154 258 155
f 63 169 133
f 133 169 139
f 66 170 63
f 63 170 169
f 173 170 129
f 129 170 66
f 129 128 173
f 173 128 259
f 128 260 259
f 259 260 261
f 213 134 262
f 262 134 137
f 263 264 186
f 186 264 187
f 112 265 113
f 113 265 266
f 11 267 268
f 234 233 230
f 230 233 194
f 153 269 70
f 70 269 67
f 175 178 165
f 165 178 141
f 150 153 94
f 94 153 70
f 271 221 270
f 270 221 207
f 269 153 272
f 272 153 152
f 121 45 109
f 109 45 108
f 47 50 156
f 156 50 157
f 57 273 58
f 58 273 274
f 145 275 260
f 260 275 261
f 276 149 143
f 143 149 78
f 148 269 75
f 75 269 272
f 207 277 270
f 270 277 278
f 195 196 49
f 49 196 50
f 59 135 60
f 60 135 134
f 83 104 202
f 202 104 279
f 149 148 78
f 78 148 75
f 247 278 248
f 248 278 277
f 183 182 84
f 84 182 81
f 48 239 281
f 281 239 282
f 227 223 283
f 283 223 222
f 223 226 224
f 224 226 168
f 281 282 224
f 224 282 225
f 165 168 175
f 175 168 226
f 264 263 138
f 138 263 229
f 14 16 128
f 128 16 260
f 220 228 218
f 218 228 230
f 87 227 284
f 284 227 283
f 260 16 145
f 145 16 146
f 244 98 258
f 258 98 155
f 58 274 156
f 156 274 246
f 107 285 51
f 51 285 55
f 243 286 160
f 160 286 96
f 234 237 89
f 89 237 90
f 46 132 107
f 107 132 285
f 253 252 249
f 249 252 250
f 286 26 96
f 96 26 25
f 106 105 287
f 287 105 288
f 272 152 289
f 289 152 229
f 138 151 139
f 139 151 133
f 183 290 161
f 161 290 162
f 291 292 277
f 277 292 293
f 151 150 133
f 133 150 94
f 262 275 177
f 177 275 187
f 144 187 145
f 145 187 275
f 273 57 284
f 284 57 87
f 174 136 190
f 190 136 135
f 111 117 112
f 112 117 38
f 117 119 38
f 38 119 123
f 112 38 265
f 265 38 37
f 287 288 254
f 254 288 251
f 228 159 231
f 231 159 15
f 223 227 226
f 226 227 214
f 147 67 148
f 148 67 269
f 224 168 281
f 281 168 167
f 199 163 200
f 200 163 162
f 45 46 108
f 108 46 107
f 281 167 48
f 48 167 49
f 161 164 291
f 291 164 292
f 38 123 39
f 293 294 277
f 277 294 248
f 284 283 296
f 296 283 295
f 284 296 273
f 273 296 297
f 274 273 298
f 298 273 297
f 246 274 299
f 299 274 298
f 283 222 295
f 295 222 300
f 222 225 300
f 300 225 301
f 301 225 302
f 302 225 282
f 303 304 300
f 300 304 295
f 306 307 305
f 305 307 308
f 309 310 308
f 308 310 305
f 308 307 312
f 312 307 311
f 313 314 312
f 312 314 315
f 311 316 312
f 312 316 313
f 317 304 311
f 311 304 316
f 315 309 312
f 312 309 308
f 318 319 321
f 321 319 320
f 319 318 309
f 309 318 310
f 311 307 317
f 317 307 306
f 306 297 317
f 317 297 296
f 306 322 297
f 297 322 298
f 305 323 306
f 306 323 322
f 323 305 324
f 324 305 310
f 304 317 295
f 295 317 296
f 318 325 310
f 310 325 324
f 323 324 326
f 326 324 327
f 324 325 327
f 327 325 328
f 326 327 329
f 329 327 330
f 329 331 326
f 326 331 332
f 333 330 328
f 328 330 327
f 323 326 322
f 322 326 332
f 322 332 298
f 298 332 299
f 325 318 334
f 334 318 321
f 313 316 335
f 335 316 304
f 335 336 313
f 313 336 314
f 304 303 335
f 335 303 337
f 336 335 338
f 338 335 337
f 336 339 314
f 314 339 340
f 246 299 238
f 238 299 341
f 239 342 282
f 282 342 302
f 342 239 341
f 341 239 238
f 341 331 342
f 342 331 343
f 331 329 343
f 343 329 344
f 342 343 302
f 302 343 345
f 341 299 331
f 331 299 332
f 346 301 345
f 345 301 302
f 346 303 301
f 301 303 300
f 347 337 346
f 346 337 303
f 347 346 348
f 348 346 345
f 349 347 350
f 350 347 348
f 343 344 345
f 345 344 348
f 344 351 348
f 348 351 350
f 337 347 338
f 338 347 349
f 353 338 352
f 352 338 349
f 352 355 354
f 354 355 356
f 352 349 355
f 355 349 350
f 352 354 353
f 353 354 334
f 353 334 339
f 339 334 321
f 339 336 353
f 353 336 338
f 329 330 344
f 344 330 351
f 356 351 333
f 333 351 330
f 356 355 351
f 351 355 350
f 354 356 328
f 328 356 333
f 328 325 354
f 354 325 334
f 309 315 319
f 319 315 320
f 320 340 321
f 321 340 339
f 320 315 340
f 340 315 314
f 137 136 261
f 261 136 259
f 140 166 141
f 141 166 165
f 172 171 195
f 195 171 196
f 171 174 196
f 196 174 190
f 178 177 264
f 264 177 187
f 172 195 140
f 140 195 166
f 137 261 262
f 262 261 275
f 178 264 141
f 141 264 138
f 262 177 213
f 213 177 176
f 136 174 259
f 259 174 173
f 358 359 357
f 357 359 360
f 362 363 361
f 361 363 364
f 361 364 365
f 365 364 366
f 367 368 370
f 370 368 369
f 76 371 247
f 247 371 372
f 373 374 362
f 362 374 363
f 376 377 375
f 375 377 378
f 289 229 380
f 380 229 379
f 381 379 263
f 263 379 229
f 383 384 382
f 382 384 385
f 386 368 374
f 374 368 363
f 76 289 371
f 371 289 380
f 377 376 359
f 359 376 387
f 388 386 360
f 360 386 374
f 389 383 366
f 366 383 390
f 392 393 391
f 391 393 394
f 383 382 390
f 390 382 395
f 396 365 390
f 390 365 366
f 389 366 367
f 367 366 364
f 357 397 358
f 358 397 398
f 373 399 357
f 357 399 397
f 389 367 400
f 400 367 370
f 382 385 375
f 375 385 372
f 357 360 373
f 373 360 374
f 361 401 362
f 362 401 402
f 387 388 359
f 359 388 360
f 363 368 364
f 364 368 367
f 358 398 403
f 403 398 404
f 396 392 405
f 405 392 391
f 392 395 393
f 393 395 378
f 393 403 394
f 394 403 404
f 375 378 382
f 382 378 395
f 365 396 406
f 406 396 405
f 362 402 373
f 373 402 399
f 271 270 400
f 400 270 384
f 401 361 406
f 406 361 365
f 381 369 386
f 386 369 368
f 392 396 395
f 395 396 390
f 393 378 403
f 403 378 377
f 403 377 358
f 358 377 359
f 406 405 408
f 408 405 407
f 406 408 401
f 401 408 409
f 401 409 402
f 402 409 410
f 402 410 399
f 399 410 411
f 405 391 407
f 407 391 412
f 391 394 412
f 412 394 413
f 394 404 413
f 413 404 414
f 415 416 412
f 412 416 407
f 418 419 417
f 417 419 420
f 421 422 418
f 418 422 419
f 419 422 424
f 424 422 423
f 425 426 424
f 424 426 427
f 423 428 424
f 424 428 425
f 427 420 424
f 424 420 419
f 420 429 417
f 417 429 430
f 423 422 431
f 431 422 421
f 421 409 431
f 431 409 408
f 421 432 409
f 409 432 410
f 418 433 421
f 421 433 432
f 434 433 417
f 417 433 418
f 431 416 423
f 423 416 428
f 416 431 407
f 407 431 408
f 435 434 430
f 430 434 417
f 433 434 436
f 436 434 437
f 434 435 437
f 437 435 438
f 436 437 439
f 439 437 440
f 439 441 436
f 436 441 442
f 438 443 437
f 437 443 440
f 436 442 433
f 433 442 432
f 432 442 410
f 410 442 411
f 435 430 445
f 445 430 444
f 430 429 444
f 444 429 446
f 425 428 447
f 447 428 416
f 426 425 448
f 448 425 447
f 416 415 447
f 447 415 449
f 447 449 448
f 448 449 450
f 451 452 448
f 448 452 426
f 446 452 444
f 444 452 451
f 399 411 397
f 397 411 453
f 398 454 404
f 404 454 414
f 454 398 453
f 453 398 397
f 453 441 454
f 454 441 455
f 441 439 455
f 455 439 456
f 454 455 414
f 414 455 457
f 441 453 442
f 442 453 411
f 458 413 457
f 457 413 414
f 458 415 413
f 413 415 412
f 458 459 415
f 415 459 449
f 459 458 460
f 460 458 457
f 461 459 462
f 462 459 460
f 455 456 457
f 457 456 460
f 456 463 460
f 460 463 462
f 459 461 449
f 449 461 450
f 465 450 464
f 464 450 461
f 464 467 466
f 466 467 468
f 464 461 467
f 467 461 462
f 464 466 465
f 465 466 445
f 465 445 451
f 451 445 444
f 451 448 465
f 465 448 450
f 439 440 456
f 456 440 463
f 468 463 443
f 443 463 440
f 468 467 463
f 463 467 462
f 466 468 438
f 438 468 443
f 438 435 466
f 466 435 445
f 420 427 429
f 429 427 446
f 446 427 452
f 452 427 426
f 370 369 188
f 188 369 186
f 371 376 372
f 372 376 375
f 380 379 387
f 387 379 388
f 379 381 388
f 388 381 386
f 385 384 278
f 278 384 270
f 380 387 371
f 371 387 376
f 400 370 271
f 271 370 188
f 385 278 372
f 372 278 247
f 400 384 389
f 389 384 383
f 369 381 186
f 186 381 263
f 221 271 144
f 144 271 188
f 221 19 207
f 207 19 22
f 19 18 22
f 22 18 23
f 18 219 23
f 23 219 208
f 469 470 472
f 472 470 471
f 474 475 473
f 473 475 476
f 473 476 477
f 477 476 478
f 480 481 479
f 479 481 482
f 483 484 474
f 474 484 475
f 486 487 485
f 485 487 488
f 489 490 77
f 77 490 142
f 491 489 248
f 248 489 77
f 493 494 492
f 492 494 495
f 496 480 484
f 484 480 475
f 486 497 487
f 487 497 471
f 498 496 472
f 472 496 484
f 499 493 478
f 478 493 500
f 501 502 504
f 504 502 503
f 493 492 500
f 500 492 505
f 506 477 500
f 500 477 478
f 499 478 479
f 479 478 476
f 469 507 470
f 470 507 508
f 483 509 469
f 469 509 507
f 479 482 499
f 499 482 510
f 492 495 485
f 485 495 511
f 483 469 484
f 484 469 472
f 473 512 474
f 474 512 513
f 497 498 471
f 471 498 472
f 475 480 476
f 476 480 479
f 470 508 514
f 514 508 515
f 506 502 516
f 516 502 501
f 503 502 488
f 488 502 505
f 514 515 503
f 503 515 504
f 485 488 492
f 492 488 505
f 477 506 517
f 517 506 516
f 474 513 483
f 483 513 509
f 510 292 494
f 494 292 164
f 512 473 517
f 517 473 477
f 491 481 496
f 496 481 480
f 502 506 505
f 505 506 500
f 503 488 514
f 514 488 487
f 514 487 470
f 470 487 471
f 517 516 519
f 519 516 518
f 517 519 512
f 512 519 520
f 512 520 513
f 513 520 521
f 513 521 509
f 509 521 522
f 516 501 518
f 518 501 523
f 501 504 523
f 523 504 524
f 524 504 525
f 525 504 515
f 526 527 523
f 523 527 518
f 529 530 528
f 528 530 531
f 532 533 529
f 529 533 530
f 530 533 535
f 535 533 534
f 536 537 535
f 535 537 538
f 534 539 535
f 535 539 536
f 538 531 535
f 535 531 530
f 540 541 531
f 531 541 528
f 533 532 534
f 534 532 542
f 532 520 542
f 542 520 519
f 532 543 520
f 520 543 521
f 529 544 532
f 532 544 543
f 544 529 545
f 545 529 528
f 534 542 539
f 539 542 527
f 527 542 518
f 518 542 519
f 541 546 528
f 528 546 545
f 547 544 548
f 548 544 545
f 546 549 545
f 545 549 548
f 550 547 551
f 551 547 548
f 547 550 553
f 553 550 552
f 549 554 548
f 548 554 551
f 544 547 543
f 543 547 553
f 543 553 521
f 521 553 522
f 546 541 556
f 556 541 555
f 541 540 555
f 555 540 557
f 536 539 558
f 558 539 527
f 537 536 559
f 559 536 558
f 527 526 558
f 558 526 560
f 559 558 561
f 561 558 560
f 559 562 537
f 537 562 563
f 557 563 555
f 555 563 562
f 509 522 507
f 507 522 564
f 508 565 515
f 515 565 525
f 565 508 564
f 564 508 507
f 564 552 565
f 565 552 566
f 552 550 566
f 566 550 567
f 565 566 525
f 525 566 568
f 564 522 552
f 552 522 553
f 569 524 568
f 568 524 525
f 569 526 524
f 524 526 523
f 570 560 569
f 569 560 526
f 570 569 571
f 571 569 568
f 572 570 573
f 573 570 571
f 566 567 568
f 568 567 571
f 567 574 571
f 571 574 573
f 570 572 560
f 560 572 561
f 576 561 575
f 575 561 572
f 575 578 577
f 577 578 579
f 575 572 578
f 578 572 573
f 575 577 576
f 576 577 556
f 576 556 562
f 562 556 555
f 562 559 576
f 576 559 561
f 550 551 567
f 567 551 574
f 579 574 554
f 554 574 551
f 579 578 574
f 574 578 573
f 579 554 577
f 577 554 549
f 549 546 577
f 577 546 556
f 531 538 540
f 540 538 557
f 557 538 563
f 563 538 537
f 481 294 482
f 482 294 293
f 580 486 511
f 511 486 485
f 490 489 497
f 497 489 498
f 489 491 498
f 498 491 496
f 163 495 164
f 164 495 494
f 580 490 486
f 486 490 497
f 482 293 510
f 510 293 292
f 495 163 511
f 511 163 199
f 494 493 510
f 510 493 499
f 481 491 294
f 294 491 248
f 582 583 581
f 581 583 584
f 586 587 585
f 585 587 588
f 585 588 589
f 589 588 590
f 592 593 591
f 591 593 594
f 595 596 598
f 598 596 597
f 599 600 586
f 586 600 587
f 601 602 604
f 604 602 603
f 605 606 608
f 608 606 607
f 609 607 200
f 200 607 606
f 610 611 613
f 613 611 612
f 600 614 587
f 587 614 592
f 596 605 597
f 597 605 608
f 602 615 603
f 603 615 583
f 616 614 584
f 584 614 600
f 611 618 617
f 617 618 590
f 620 621 619
f 619 621 622
f 610 623 611
f 611 623 618
f 624 589 618
f 618 589 590
f 617 590 591
f 591 590 588
f 581 625 582
f 582 625 626
f 599 627 581
f 581 627 625
f 591 594 617
f 617 594 628
f 601 610 598
f 598 610 613
f 581 584 599
f 599 584 600
f 585 629 586
f 586 629 630
f 615 616 583
f 583 616 584
f 587 592 588
f 588 592 591
f 582 626 631
f 631 626 632
f 624 620 633
f 633 620 619
f 621 620 604
f 604 620 623
f 631 632 621
f 621 632 622
f 610 601 623
f 623 601 604
f 589 624 634
f 634 624 633
f 586 630 599
f 599 630 627
f 203 202 628
f 628 202 612
f 629 585 634
f 634 585 589
f 609 593 614
f 614 593 592
f 620 624 623
f 623 624 618
f 631 621 603
f 603 621 604
f 582 631 583
f 583 631 603
f 634 633 636
f 636 633 635
f 634 636 629
f 629 636 637
f 629 637 630
f 630 637 638
f 630 638 627
f 627 638 639
f 633 619 635
f 635 619 640
f 619 622 640
f 640 622 641
f 641 622 642
f 642 622 632
f 644 635 643
f 643 635 640
f 645 646 648
f 648 646 647
f 649 650 646
f 646 650 647
f 647 650 652
f 652 650 651
f 652 653 655
f 655 653 654
f 651 656 652
f 652 656 653
f 655 648 652
f 652 648 647
f 648 657 645
f 645 657 658
f 650 649 651
f 651 649 659
f 649 637 659
f 659 637 636
f 649 660 637
f 637 660 638
f 661 660 646
f 646 660 649
f 662 661 645
f 645 661 646
f 651 659 656
f 656 659 644
f 644 659 635
f 635 659 636
f 663 662 658
f 658 662 645
f 664 661 665
f 665 661 662
f 663 666 662
f 662 666 665
f 667 664 668
f 668 664 665
f 664 667 670
f 670 667 669
f 666 671 665
f 665 671 668
f 661 664 660
f 660 664 670
f 660 670 638
f 638 670 639
f 658 672 663
f 663 672 673
f 658 657 672
f 672 657 674
f 653 656 675
f 675 656 644
f 653 675 654
f 654 675 676
f 675 644 677
f 677 644 643
f 676 675 678
f 678 675 677
f 679 680 676
f 676 680 654
f 674 680 672
f 672 680 679
f 627 639 625
f 625 639 681
f 626 682 632
f 632 682 642
f 681 682 625
f 625 682 626
f 669 683 681
f 681 683 682
f 667 684 669
f 669 684 683
f 682 683 642
f 642 683 685
f 681 639 669
f 669 639 670
f 686 641 685
f 685 641 642
f 641 686 640
f 640 686 643
f 686 687 643
f 643 687 677
f 687 686 688
f 688 686 685
f 689 687 690
f 690 687 688
f 683 684 685
f 685 684 688
f 684 691 688
f 688 691 690
f 687 689 677
f 677 689 678
f 693 678 692
f 692 678 689
f 692 695 694
f 694 695 696
f 692 689 695
f 695 689 690
f 692 694 693
f 693 694 673
f 693 673 679
f 679 673 672
f 679 676 693
f 693 676 678
f 684 667 691
f 691 667 668
f 696 691 671
f 671 691 668
f 696 695 691
f 691 695 690
f 694 696 666
f 666 696 671
f 666 663 694
f 694 663 673
f 648 655 657
f 657 655 674
f 674 655 680
f 680 655 654
f 593 162 594
f 594 162 290
f 598 597 601
f 601 597 602
f 615 608 616
f 616 608 607
f 607 609 616
f 616 609 614
f 697 595 613
f 613 595 598
f 597 608 602
f 602 608 615
f 594 290 628
f 628 290 203
f 628 612 617
f 617 612 611
f 593 609 162
f 162 609 200
f 105 29 698
f 698 29 699
f 268 126 701
f 701 126 700
f 126 125 700
f 700 125 702
f 252 703 250
f 250 703 704
f 32 268 705
f 705 268 701
f 288 105 706
f 706 105 698
f 29 32 699
f 699 32 705
f 707 251 706
f 706 251 288
f 250 704 125
f 125 704 702
f 703 252 707
f 707 252 251
f 706 708 707
f 707 708 709
f 707 709 703
f 703 709 710
f 703 710 704
f 704 710 711
f 704 711 702
f 702 711 712
f 706 698 708
f 708 698 713
f 698 699 713
f 713 699 714
f 699 705 714
f 714 705 715
f 717 708 716
f 716 708 713
f 719 720 718
f 718 720 721
f 722 723 719
f 719 723 720
f 724 725 723
f 723 725 720
f 724 726 725
f 725 726 727
f 728 721 725
f 725 721 720
f 721 728 729
f 729 728 730
f 729 731 721
f 721 731 718
f 724 723 732
f 732 723 722
f 722 710 732
f 732 710 709
f 722 733 710
f 710 733 711
f 719 734 722
f 722 734 733
f 734 719 735
f 735 719 718
f 724 732 726
f 726 732 717
f 717 732 708
f 708 732 709
f 731 736 718
f 718 736 735
f 737 734 738
f 738 734 735
f 736 739 735
f 735 739 738
f 740 737 741
f 741 737 738
f 737 740 743
f 743 740 742
f 739 744 738
f 738 744 741
f 734 737 733
f 733 737 743
f 733 743 711
f 711 743 712
f 736 731 746
f 746 731 745
f 731 729 745
f 745 729 730
f 727 726 747
f 747 726 717
f 748 727 749
f 749 727 747
f 747 717 750
f 750 717 716
f 749 747 751
f 751 747 750
f 749 752 748
f 748 752 753
f 730 753 745
f 745 753 752
f 728 725 748
f 748 725 727
f 730 728 753
f 753 728 748
f 700 702 754
f 754 702 712
f 705 701 715
f 715 701 755
f 754 755 700
f 700 755 701
f 742 756 754
f 754 756 755
f 740 757 742
f 742 757 756
f 755 756 715
f 715 756 758
f 754 712 742
f 742 712 743
f 759 714 758
f 758 714 715
f 714 759 713
f 713 759 716
f 759 760 716
f 716 760 750
f 760 759 761
f 761 759 758
f 762 760 763
f 763 760 761
f 756 757 758
f 758 757 761
f 757 764 761
f 761 764 763
f 760 762 750
f 750 762 751
f 766 751 765
f 765 751 762
f 767 765 769
f 769 765 768
f 765 762 768
f 768 762 763
f 765 767 766
f 766 767 746
f 766 746 752
f 752 746 745
f 752 749 766
f 766 749 751
f 757 740 764
f 764 740 741
f 769 764 744
f 744 764 741
f 769 768 764
f 764 768 763
f 767 769 739
f 739 769 744
f 739 736 767
f 767 736 746
f 219 217 208
f 208 217 209
f 209 217 210
f 210 217 193
f 198 580 199
f 199 580 511
f 76 75 289
f 289 75 272
f 277 207 291
f 291 207 184
f 290 183 203
f 203 183 84
f 490 580 142
f 142 580 198
f 142 198 143
f 143 198 197
f 149 276 72
f 72 276 73
f 104 103 279
f 279 103 770
f 770 596 279
f 279 596 595
f 605 596 771
f 771 596 770
f 771 770 772
f 772 770 103
f 772 103 773
f 773 103 102
f 155 774 101
f 101 774 102
f 773 102 97
f 97 102 774
f 775 773 100
f 100 773 97
f 773 775 772
f 772 775 776
f 772 776 771
f 771 776 777
f 200 606 197
f 197 606 777
f 189 71 778
f 778 71 74
f 97 774 98
f 98 774 155
f 183 161 184
f 184 161 291
f 777 276 197
f 197 276 143
f 777 606 771
f 771 606 605
f 613 612 697
f 697 612 202
f 595 697 279
f 279 697 202
f 73 276 776
f 776 276 777
f 776 775 73
f 73 775 74
f 100 778 775
f 775 778 74
f 778 100 189
f 189 100 99
f 245 242 99
f 99 242 189
f 131 33 256
f 28 1 95
f 95 1 62
f 27 2 28
f 28 2 1
f 265 115 266
f 266 115 114
f 95 62 69
f 69 62 64
f 62 61 64
f 64 61 65
f 61 13 65
f 65 13 130
f 13 12 130
f 130 12 14
f 31 11 32
f 32 11 268
f 15 12 31
f 31 12 11
f 31 30 15
f 15 30 231
f 30 106 231
f 231 106 232
f 287 237 106
f 106 237 232
f 254 90 287
f 287 90 237
f 253 44 254
f 254 44 90
f 253 249 44
f 44 249 7
f 267 127 268
f 268 127 126
f 10 3 241
f 241 3 116
f 3 2 116
f 116 2 114
f 2 27 114
f 114 27 266
f 27 26 266
f 266 26 113
f 26 286 113
f 113 286 110
f 286 243 110
f 110 243 255
f 243 242 255
f 255 242 256
f 242 245 256
f 256 245 131
f 245 244 131
f 131 244 132
f 265 37 115
f 115 37 41
f 41 37 42
f 42 37 40
f 92 91 40
f 40 91 42
f 236 233 92
f 92 233 91
f 191 194 236
f 236 194 233
f 258 285 244
f 244 285 132
f 257 55 258
f 258 55 285
f 257 154 201
f 201 154 185
f 56 201 204
f 204 201 180
f 55 257 56
f 56 257 201
f 204 85 56
f 56 85 52
f 86 122 53
f 53 122 79
f 212 215 86
f 86 215 122
f 211 216 212
f 212 216 215
f 192 280 211
f 211 280 216
f 191 240 192
f 192 240 280
f 249 124 7
f 7 124 8
f 124 127 8
f 8 127 241
f 127 267 241
f 241 267 10
f 10 267 9
f 9 267 11
