v 0.04422701150178909 0.0702161192893982 0.548154890537262
v 0.05542035400867462 0.06608481705188751 0.5482434034347534
v 0.0484510213136673 0.06239505857229233 0.5567376017570496
v 0.03863461688160896 0.06664826720952988 0.5556589365005493
v 0.06893935799598694 0.058970533311367035 0.566056489944458
v 0.07545404136180878 0.06435906887054443 0.5742592215538025
v 0.05950107425451279 0.06314998865127563 0.580859899520874
v 0.05634264275431633 0.057914286851882935 0.5732281804084778
v 0.033524785190820694 0.06700112670660019 0.5618565678596497
v 0.042051199823617935 0.061184242367744446 0.5628756284713745
v 0.03252963349223137 0.07299016416072845 0.5646500587463379
v 0.024975627660751343 0.08121947944164276 0.565495491027832
v 0.025681260973215103 0.07422742247581482 0.5628575682640076
v 0.017900578677654266 0.08496569097042084 0.5646875500679016
v 0.03141915425658226 0.09082061797380447 0.5654817223548889
v 0.020155131816864014 0.09303095936775208 0.5603998899459839
v 0.03964732214808464 0.10431618243455887 0.543968141078949
v 0.04326798394322395 0.10519370436668396 0.5316216945648193
v 0.027678783982992172 0.10318959504365921 0.5303191542625427
v 0.02557891234755516 0.10171130299568176 0.5430616736412048
v 0.03827512264251709 0.09967715293169022 0.5133248567581177
v 0.03142016753554344 0.10175331681966782 0.5224573612213135
v 0.04714134708046913 0.10490719228982925 0.5237512588500977
v 0.05240573734045029 0.10273657739162445 0.515365481376648
v 0.052630119025707245 0.07477385550737381 0.5352049469947815
v 0.06355124711990356 0.07280714064836502 0.5341299176216125
v 0.06102077290415764 0.07092494517564774 0.538852870464325
v 0.05050605162978172 0.07359621673822403 0.5399491786956787
v 0.03443705663084984 0.07896864414215088 0.5724785327911377
v 0.040963005274534225 0.08499111235141754 0.5726926922798157
v 0.035127248615026474 0.0811726301908493 0.5684118866920471
v 0.03304007276892662 0.074181467294693 0.5698049664497375
v 0.0896638035774231 0.06672849506139755 0.5260659456253052
v 0.10151033103466034 0.07251239567995071 0.5283727049827576
v 0.10083098709583282 0.07294786721467972 0.5342035889625549
v 0.09012629091739655 0.0678633451461792 0.5307282209396362
v 0.09378129243850708 0.06976142525672913 0.5583953261375427
v 0.10035573691129684 0.07539265602827072 0.5528480410575867
v 0.10458102822303772 0.08476109802722931 0.5621022582054138
v 0.09624715894460678 0.08284375816583633 0.5665530562400818
v 0.08541233837604523 0.06603050231933594 0.5668919086456299
v 0.0882277637720108 0.07709959894418716 0.5730155110359192
v 0.0764794796705246 0.07487387955188751 0.5792468786239624
v 0.05989523604512215 0.07195942103862762 0.584549069404602
v 0.10299744457006454 0.07442144304513931 0.5158088207244873
v 0.09468809515237808 0.069969043135643 0.5123714208602905
v -0.022031139582395554 0.11470244079828262 0.5476743578910828
v -0.02139602228999138 0.11315663158893585 0.54206383228302
v -0.02056240290403366 0.1064823791384697 0.5459505915641785
v -0.020636361092329025 0.10928484797477722 0.5506507158279419
v 0.09638036787509918 0.08862052857875824 0.503353476524353
v 0.09495197981595993 0.09857258200645447 0.504184365272522
v 0.1020989716053009 0.09745527803897858 0.5039512515068054
v 0.10363361239433289 0.08826087415218353 0.505039632320404
v 0.08672431111335754 0.08888810873031616 0.5013027787208557
v 0.08495313674211502 0.09941845387220383 0.5050561428070068
v -0.011493409983813763 0.11974036693572998 0.55096036195755
v -0.016321681439876556 0.11893729865550995 0.5522480607032776
v -0.013565434142947197 0.11435066163539886 0.5544084310531616
v -0.008378191851079464 0.1145239770412445 0.5520673394203186
v 0.029185786843299866 0.070883609354496 0.5572195053100586
v 0.03429770469665527 0.07133462280035019 0.5491224527359009
v 0.006114332005381584 0.07565202564001083 0.5565450191497803
v 0.01973365992307663 0.07321622967720032 0.5518967509269714
v 0.01911906898021698 0.0738699808716774 0.5594031810760498
v 0.008904012851417065 0.07754021137952805 0.562147855758667
v 0.03026149794459343 0.07557439059019089 0.5301908254623413
v 0.04200867563486099 0.0759117528796196 0.5314589142799377
v 0.03897916525602341 0.07566723227500916 0.537201464176178
v 0.025823146104812622 0.07466626167297363 0.5375694632530212
v 0.04629337787628174 0.07307656109333038 0.5183440446853638
v 0.03433280810713768 0.07332240045070648 0.5181483030319214
v 0.03798482194542885 0.07145452499389648 0.510787308216095
v 0.04598294571042061 0.07082067430019379 0.5122324824333191
v 0.010743709281086922 0.07505770027637482 0.5213086605072021
v 0.001603192649781704 0.07826003432273865 0.5214054584503174
v 0.0028269533067941666 0.08222728222608566 0.515754759311676
v 0.012438016943633556 0.07627458870410919 0.517089307308197
v 0.10912182182073593 0.09744797646999359 0.504187285900116
v 0.11036597192287445 0.08831556886434555 0.5075579285621643
v 0.04776798561215401 0.09215734899044037 0.49624407291412354
v 0.05364534258842468 0.08444028347730637 0.49139919877052307
v 0.04303441569209099 0.0812973827123642 0.4882477819919586
v 0.0400238111615181 0.08989392966032028 0.49423521757125854
v 0.09182445704936981 0.10621832311153412 0.5104446411132812
v 0.0992940366268158 0.10615325719118118 0.5081352591514587
v -0.007204656023532152 0.11931045353412628 0.5464400053024292
v -0.005163742695003748 0.11427845060825348 0.5468757152557373
v 0.07576143741607666 0.08641026169061661 0.5768759250640869
v 0.05865435674786568 0.08089163154363632 0.5831645131111145
v 0.08789652585983276 0.09024706482887268 0.5705043077468872
v 0.09581129997968674 0.09385471791028976 0.5654640197753906
v 0.10368887335062027 0.09620309621095657 0.5638670325279236
v 0.015527413226664066 0.07289229333400726 0.5461148023605347
v 0.04069356620311737 0.07369866967201233 0.5425482392311096
v 0.05435214191675186 0.07470839470624924 0.5306400060653687
v 0.05916498601436615 0.06664049625396729 0.5017138719558716
v 0.06969936937093735 0.06644981354475021 0.5033819079399109
v 0.06397706270217896 0.06637337803840637 0.5121929049491882
v 0.055912960320711136 0.06725155562162399 0.5088232755661011
v 0.054097797721624374 0.07474786788225174 0.4903630018234253
v 0.05096393823623657 0.06900610029697418 0.49448415637016296
v 0.04161978140473366 0.06844296306371689 0.49316245317459106
v 0.04407278820872307 0.07300052791833878 0.48878079652786255
v 0.03644140437245369 0.08199000358581543 0.5787866711616516
v 0.046684518456459045 0.08754488825798035 0.5766409039497375
v 0.09711756557226181 0.07855261862277985 0.5061598420143127
v 0.10374122858047485 0.07942847907543182 0.5099402666091919
v 0.11134746670722961 0.08210957795381546 0.5121229887008667
v 0.07685990631580353 0.06866544485092163 0.5314397811889648
v 0.09054765105247498 0.06836950778961182 0.5341642498970032
v 0.08963450789451599 0.06742631644010544 0.5390948057174683
v 0.07612700760364532 0.06861964613199234 0.5343221426010132
v 0.06760028004646301 0.06108152121305466 0.5506273508071899
v 0.08037883788347244 0.061516132205724716 0.5548847317695618
v 0.05808228626847267 0.05777607858181 0.559855043888092
v 0.10174297541379929 0.07375939935445786 0.5424703359603882
v 0.11057452112436295 0.07502288371324539 0.5361275672912598
v 0.11016350239515305 0.07669677585363388 0.5449097752571106
v 0.11151133477687836 0.07581694424152374 0.5264207124710083
v 0.11183011531829834 0.0780065506696701 0.5177899599075317
v 0.10710553824901581 0.10897141695022583 0.5065323114395142
v 0.10868940502405167 0.0799429714679718 0.5526646971702576
v 0.047715552151203156 0.05864019691944122 0.5761725306510925
v 0.03983467444777489 0.05965597555041313 0.57804936170578
v 0.03693189099431038 0.061417583376169205 0.5710654854774475
v 0.04332369938492775 0.06000632047653198 0.5691200494766235
v 0.010270221158862114 0.09020482748746872 0.5631867051124573
v 0.008479977026581764 0.08327824622392654 0.5647621154785156
v 0.019224420189857483 0.07800418138504028 0.5650298595428467
v 0.08012490719556808 0.06566931307315826 0.5197417736053467
v 0.08487959951162338 0.06811664253473282 0.5084501504898071
v 0.002487512771040201 0.07691223919391632 0.5506031513214111
v -0.00371700432151556 0.11328233033418655 0.5512903928756714
v -0.00801877398043871 0.11180820316076279 0.5552419424057007
v 0.0033387416042387486 0.10200437903404236 0.5580341815948486
v 0.006363666616380215 0.10484873503446579 0.5531671643257141
v -0.003356225322932005 0.08685272186994553 0.5440048575401306
v -0.002561408095061779 0.08317509293556213 0.5498753786087036
v -0.004531442187726498 0.08781744539737701 0.5484561324119568
v -0.0051231589168310165 0.09071852266788483 0.5428495407104492
v 0.008267225697636604 0.07980331033468246 0.5090110898017883
v 0.016407981514930725 0.07500213384628296 0.5099438428878784
v 0.011165207251906395 0.09661564230918884 0.5414544939994812
v 0.015112857334315777 0.09747898578643799 0.5525096654891968
v 0.023832164704799652 0.0994652509689331 0.5525128841400146
v 0.03338968753814697 0.07476089149713516 0.5234819650650024
v 0.022440146654844284 0.07424283772706985 0.5215732455253601
v 0.023553162813186646 0.07403279840946198 0.5175462365150452
v 0.011994515545666218 0.07394632697105408 0.5425772070884705
v 0.001722689950838685 0.07747118920087814 0.5443609952926636
v 0.006398365832865238 0.07660030573606491 0.5391080975532532
v 0.0160447396337986 0.07487098127603531 0.537398636341095
v 0.06567461043596268 0.08745202422142029 0.494152307510376
v 0.06651784479618073 0.0760398656129837 0.4925762116909027
v -0.0201391763985157 0.11692743003368378 0.5512605905532837
v -0.01782933622598648 0.11184248328208923 0.5539168119430542
v 0.044834550470113754 0.0751299113035202 0.5248647928237915
v 0.036772213876247406 0.10056138038635254 0.5528917908668518
v 0.05618526414036751 0.07395489513874054 0.5255953073501587
v 0.024218369275331497 0.08988887816667557 0.5034536719322205
v 0.022430885583162308 0.08469042181968689 0.4996851086616516
v 0.017034802585840225 0.08519294112920761 0.5008395910263062
v 0.019294291734695435 0.09000793099403381 0.5019053220748901
v -0.012282809242606163 0.10241664201021194 0.5377986431121826
v -0.016017351299524307 0.10178880393505096 0.5422735810279846
v -0.01875998079776764 0.10518985986709595 0.5400987267494202
v -0.014510485343635082 0.10558803379535675 0.5365805625915527
v -0.0011785469250753522 0.08362574875354767 0.5556116104125977
v 0.001616806024685502 0.08504631370306015 0.5612002015113831
v -0.003184116678312421 0.09192150831222534 0.5583356618881226
v -0.0045977430418133736 0.08954067528247833 0.5533114075660706
v 0.0036725252866744995 0.09122113138437271 0.5623552203178406
v -1.4396151527762413e-05 0.09713625907897949 0.559930145740509
v -0.0064221713691949844 0.10545796900987625 0.5370063781738281
v -0.0009973568376153708 0.10982783883810043 0.5405758619308472
v 0.0052296994253993034 0.10156389325857162 0.5410293340682983
v -0.00142241723369807 0.09708087891340256 0.5400558710098267
v 0.06647145003080368 0.10605696588754654 0.5177680253982544
v 0.07021371275186539 0.102176234126091 0.5081831812858582
v 0.05632276460528374 0.09875480085611343 0.5055478811264038
v 0.04340501129627228 0.09576310962438583 0.5027580261230469
v 0.03139519318938255 0.09109661728143692 0.5015432238578796
v 0.027145016938447952 0.09729155898094177 0.5110973715782166
v 0.06025031954050064 0.09554837644100189 0.4994468092918396
v 0.00043597701005637646 0.09250570088624954 0.5387754440307617
v 0.007395099848508835 0.09529982507228851 0.5439241528511047
v 0.005516016855835915 0.09524233639240265 0.5399425029754639
v 0.05775228887796402 0.0712086483836174 0.5189206004142761
v -0.011603426188230515 0.10918837785720825 0.5559647679328918
v 0.09242143481969833 0.1100275069475174 0.5523126125335693
v 0.0924706757068634 0.1138344556093216 0.5400177240371704
v 0.08404906839132309 0.11183803528547287 0.541598916053772
v 0.0838218629360199 0.1070890799164772 0.5546944737434387
v -0.017078492790460587 0.1025785505771637 0.549051821231842
v -0.015693029388785362 0.10549342632293701 0.5539647340774536
v 0.017659250646829605 0.07467345893383026 0.5036001205444336
v 0.011466688476502895 0.07900717109441757 0.5041460394859314
v 0.01214654091745615 0.08046040683984756 0.5012373924255371
v 0.01740497723221779 0.0754815861582756 0.49865391850471497
v 0.07342486083507538 0.099619559943676 0.5040546655654907
v 0.03655315190553665 0.07947608083486557 0.48630771040916443
v 0.034822724759578705 0.08758114278316498 0.4910178780555725
v 0.08246836811304092 0.10515386611223221 0.5109459757804871
v 0.07929615676403046 0.10911329090595245 0.5191978216171265
v 0.08873789012432098 0.11112216114997864 0.5196598768234253
v 0.015768349170684814 0.09757445752620697 0.5216136574745178
v 0.061806511133909225 0.1076059490442276 0.5248384475708008
v 0.07585459202528 0.11005616188049316 0.5259222388267517
v 0.08701715618371964 0.11246909946203232 0.5267949104309082
v 0.09503339231014252 0.11469412595033646 0.5266839861869812
v 0.0961519107222557 0.11276153475046158 0.5188837647438049
v -0.0014219924341887236 0.1119861826300621 0.5455988645553589
v -0.004312646109610796 0.11210212856531143 0.5413225293159485
v 0.10444337129592896 0.11610933393239975 0.5174344778060913
v 0.10295652598142624 0.11751968413591385 0.5264424681663513
v 0.07271087169647217 0.11027362942695618 0.5345563888549805
v 0.06930416077375412 0.10926371812820435 0.5444759726524353
v 0.05923429876565933 0.10775268822908401 0.5330473184585571
v 0.054665401577949524 0.10664205998182297 0.5430101752281189
v 0.017214879393577576 0.10147084295749664 0.5313303470611572
v -0.009982213377952576 0.1267501264810562 0.5334085822105408
v -0.007989630103111267 0.11545440554618835 0.536064863204956
v -0.013125301338732243 0.1130581721663475 0.5342823266983032
v -0.012322447262704372 0.12375355511903763 0.5308303236961365
v -0.009001313708722591 0.10811902582645416 0.5371305346488953
v -0.005381865426898003 0.11758389323949814 0.5406557321548462
v 0.051788292825222015 0.10181539505720139 0.5545443892478943
v -0.003363373689353466 0.08345507830381393 0.5385964512825012
v 0.06807707250118256 0.10228888690471649 0.557891309261322
v 0.04430866986513138 0.09529249370098114 0.5666080117225647
v 0.05646060034632683 0.09436842799186707 0.5693789720535278
v 0.08458366990089417 0.10131699591875076 0.5638819932937622
v 0.07206203043460846 0.09572061151266098 0.5711156129837036
v 0.10120463371276855 0.10533973574638367 0.5596635937690735
v 0.09266827255487442 0.1037684977054596 0.5608528852462769
v 0.05995612218976021 0.08963313698768616 0.5774197578430176
v -0.024643179029226303 0.12179143726825714 0.5386310815811157
v -0.021739501506090164 0.11949111521244049 0.534035861492157
v 0.10037092119455338 0.11236494779586792 0.5515449047088623
v 0.04927841201424599 0.05816012993454933 0.5659047365188599
v 0.06799774616956711 0.0693703219294548 0.5221670866012573
v 0.06634978950023651 0.07149045914411545 0.526918888092041
v 0.07583705335855484 0.06688614934682846 0.5050835609436035
v 0.07111268490552902 0.06615252047777176 0.5156461596488953
v -0.024249941110610962 0.12486041337251663 0.5429702997207642
v 0.0007414612919092178 0.08341725915670395 0.5194695591926575
v 0.0025695241056382656 0.08771255612373352 0.5164182186126709
v 0.050188880413770676 0.06273114681243896 0.5831738710403442
v 0.0425877720117569 0.06266872584819794 0.5845670700073242
v 0.039506468921899796 0.07508382201194763 0.5876972675323486
v 0.04142973572015762 0.06818218529224396 0.5885404348373413
v 0.050197478383779526 0.07063745707273483 0.586868166923523
v 0.04855691269040108 0.0781049132347107 0.5858072638511658
v 0.07707785069942474 0.06831822544336319 0.5290468335151672
v 0.07751800864934921 0.06749998778104782 0.5253748297691345
v 0.07691370695829391 0.08807821571826935 0.49763524532318115
v 0.07710450142621994 0.07666557282209396 0.49642929434776306
v 0.006819999776780605 0.09550544619560242 0.5600113868713379
v 0.013020006939768791 0.09492535889148712 0.558441162109375
v 0.01015753298997879 0.09886699914932251 0.5547834634780884
v 0.008278013207018375 0.10380703955888748 0.5469376444816589
v -0.0039719450287520885 0.08974355459213257 0.5371811389923096
v 0.0006128188688308001 0.0915219634771347 0.5417630672454834
v 0.08519013226032257 0.06433979421854019 0.5458676815032959
v 0.0731884315609932 0.06590550392866135 0.5407170057296753
v 0.03837430477142334 0.06376799196004868 0.5664219260215759
v 0.03410180285573006 0.06681513786315918 0.5679525136947632
v 0.020574193447828293 0.07485616207122803 0.5305924415588379
v 0.010258669033646584 0.09403152763843536 0.5234496593475342
v 0.012005983851850033 0.09909160435199738 0.531408965587616
v 0.009775442071259022 0.07590281963348389 0.5306844711303711
v -0.01804356276988983 0.1301846206188202 0.5441257357597351
v -0.022335685789585114 0.127587229013443 0.5443397164344788
v 0.010744950734078884 0.09873373806476593 0.5493096709251404
v 0.026495225727558136 0.07168684154748917 0.5101268887519836
v 0.013438166119158268 0.09405551105737686 0.5180572867393494
v 0.006374770775437355 0.08803034573793411 0.5198888778686523
v 0.03774058446288109 0.07212620228528976 0.48791536688804626
v 0.10111123323440552 0.11585795879364014 0.5396060943603516
v -0.018320508301258087 0.112591952085495 0.5363078117370605
v -0.017577990889549255 0.11938510090112686 0.5308533906936646
v -0.00903382245451212 0.1288454681634903 0.5369358658790588
v -0.011558390222489834 0.13020621240139008 0.5419368743896484
v 0.08640468120574951 0.0768313929438591 0.5016460418701172
v 0.0648837760090828 0.07258908450603485 0.5299757719039917
v 0.04901641234755516 0.08547422289848328 0.580717146396637
v 0.03822702541947365 0.0807354673743248 0.583427369594574
v 0.00024368800222873688 0.07877665758132935 0.5306912064552307
v 0.029004480689764023 0.08754947781562805 0.4972318410873413
v 0.02089216187596321 0.0959978848695755 0.5092469453811646
v 0.018492024391889572 0.0967269316315651 0.5063421130180359
v 0.013212821446359158 0.09871893376111984 0.5098692178726196
v 0.005949604324996471 0.09673494100570679 0.5116388201713562
v -0.011258256621658802 0.13265646994113922 0.5335216522216797
v -0.01470913179218769 0.13482575118541718 0.537322461605072
v -0.020429041236639023 0.13460682332515717 0.5376662015914917
v -0.02447189763188362 0.13150204718112946 0.538119912147522
v -0.025890812277793884 0.12705262005329132 0.5377911329269409
v -0.011619188822805882 0.13028833270072937 0.530271053314209
v -0.013053515926003456 0.127366840839386 0.5285682678222656
v -0.017536748200654984 0.12220069766044617 0.529472827911377
v -0.010991910472512245 0.1315551996231079 0.5266703367233276
v -0.0117438780143857 0.1360875517129898 0.527498722076416
v -0.022926796227693558 0.14109006524085999 0.5253467559814453
v -0.020452428609132767 0.13951390981674194 0.5300370454788208
v -0.01942000538110733 0.14049914479255676 0.5282294750213623
v -0.02052028477191925 0.1424979716539383 0.5241180062294006
v -0.02019628882408142 0.14492583274841309 0.5199102163314819
v -0.023300696164369583 0.143550843000412 0.520664393901825
v -0.01561931986361742 0.13854368031024933 0.5293592214584351
v -0.016369417309761047 0.14134371280670166 0.5238367319107056
v -0.01306114625185728 0.13940243422985077 0.522276759147644
v -0.013248293660581112 0.14257362484931946 0.5181720852851868
v -0.016253884881734848 0.1446530967950821 0.5194365978240967
v -0.01285961177200079 0.137767031788826 0.5262610912322998
v -0.015244309790432453 0.1380728781223297 0.5307766795158386
v -0.021525327116250992 0.14477574825286865 0.5169569253921509
v -0.019511424005031586 0.1460525095462799 0.5175381898880005
v -0.016459539532661438 0.1454382985830307 0.5167682766914368
v -0.017587989568710327 0.14472511410713196 0.5141835808753967
v -0.024317245930433273 0.13498219847679138 0.5322986245155334
v -0.024604137986898422 0.13936346769332886 0.5249258875846863
v -0.023966826498508453 0.14087197184562683 0.5194637775421143
v -0.022123783826828003 0.14234745502471924 0.5158761739730835
v -0.024789582937955856 0.13628670573234558 0.5225592851638794
v -0.02348652482032776 0.13826116919517517 0.5184369683265686
v -0.021695345640182495 0.1391962319612503 0.5151274800300598
v -0.023283544927835464 0.13330931961536407 0.520200788974762
v -0.02207692712545395 0.13589969277381897 0.5170106887817383
v -0.024584494531154633 0.12632831931114197 0.5313272476196289
v -0.025425676256418228 0.12969782948493958 0.5331364870071411
v -0.0214662104845047 0.13709481060504913 0.514812171459198
v -0.017845213413238525 0.14278647303581238 0.5133518576622009
v -0.011443176306784153 0.13619333505630493 0.5219994187355042
v -0.012610827572643757 0.13969004154205322 0.5166102647781372
v -0.011426202021539211 0.13425622880458832 0.5210355520248413
v -0.01224317867308855 0.1375291347503662 0.515534520149231
v -0.013372545130550861 0.142530620098114 0.5138447880744934
v -0.01409995835274458 0.14383068680763245 0.5159552693367004
v -0.024739865213632584 0.12290386110544205 0.5355092287063599
v -0.021016426384449005 0.12105653434991837 0.5317617654800415
v -0.02016027271747589 0.12384387105703354 0.5285804867744446
v -0.01982772722840309 0.13083034753799438 0.5184231400489807
v -0.016243044286966324 0.12440089881420135 0.5264471173286438
v -0.011970145627856255 0.12892714142799377 0.5247770547866821
v -0.01242916937917471 0.1325971782207489 0.5192163586616516
v -0.014973912388086319 0.1309306025505066 0.5181367993354797
v -0.013487971387803555 0.13537248969078064 0.5152851343154907
v -0.015764269977808 0.13417594134807587 0.515308141708374
v -0.019371390342712402 0.13408249616622925 0.5155859589576721
v -0.01539477240294218 0.13780567049980164 0.5130234360694885
v -0.01393974106758833 0.1404167264699936 0.5131528973579407
v -0.018556535243988037 0.13951195776462555 0.5130864381790161
v -0.016355156898498535 0.13613775372505188 0.5136291980743408
v -0.019021250307559967 0.13710598647594452 0.5141065120697021
v -0.01566002331674099 0.10598813742399216 0.49858468770980835
v -0.010441661812365055 0.10366042703390121 0.49721845984458923
v -0.01304660178720951 0.09902587532997131 0.5044877529144287
v -0.01615196466445923 0.10223503410816193 0.506691575050354
v -0.012243899516761303 0.11421746760606766 0.5082409381866455
v -0.01651858352124691 0.11233808100223541 0.5049808025360107
v -0.013992485590279102 0.1104503646492958 0.511994481086731
v -0.007928818464279175 0.1113022044301033 0.5125538110733032
v -0.006552420556545258 0.11331749707460403 0.5082226395606995
v -0.0032467886339873075 0.1086922287940979 0.511256217956543
v -0.0038124057464301586 0.11136297881603241 0.5150743722915649
v -0.01041178498417139 0.1094784289598465 0.516488254070282
v -0.0019273306243121624 0.09771759808063507 0.5314724445343018
v 0.0035727620124816895 0.10096237063407898 0.5290377140045166
v -0.004269387107342482 0.0822509229183197 0.522180438041687
v -0.001937075867317617 0.08434323966503143 0.5196914672851562
v -0.017305368557572365 0.10917166620492935 0.5011745095252991
v -0.016550708562135696 0.10677354037761688 0.5094082355499268
v -0.007202266715466976 0.09421173483133316 0.5039819478988647
v -0.01195169985294342 0.09470098465681076 0.50636225938797
v -0.009415742009878159 0.09708599746227264 0.5018935799598694
v -0.0047966670244932175 0.09802553802728653 0.5014761686325073
v -0.00670225964859128 0.0896589457988739 0.5312021970748901
v -0.005576546303927898 0.08441666513681412 0.5275505781173706
v -0.005057648755609989 0.09390195459127426 0.5313692092895508
v -0.0015518777072429657 0.09721965342760086 0.5041123628616333
v 0.002406938001513481 0.10212792456150055 0.506159245967865
v 0.008933654986321926 0.094279445707798 0.5180944800376892
v 0.004936608020216227 0.08898182958364487 0.516623318195343
v -0.014680534601211548 0.10618892312049866 0.5153523087501526
v -0.01525129284709692 0.09764308482408524 0.5098698735237122
v -0.016552720218896866 0.1013454869389534 0.5126453638076782
v 0.0009773189667612314 0.10792820155620575 0.5110613703727722
v 4.228344187140465e-05 0.10546140372753143 0.5063014030456543
v 0.003267519176006317 0.11707241833209991 0.49466124176979065
v 0.000330108217895031 0.10753662884235382 0.5026285648345947
v -0.0014936113730072975 0.10488756000995636 0.49880871176719666
v 0.0028107650578022003 0.1142418310046196 0.49076563119888306
v -0.001155623234808445 0.10147170722484589 0.5039510726928711
v -0.0017558904364705086 0.11067543178796768 0.5058065056800842
v -0.009879101999104023 0.11588187515735626 0.4864029884338379
v -0.004236883483827114 0.11304567754268646 0.4852761924266815
v -0.012438436970114708 0.1189822107553482 0.48862773180007935
v 0.008259794674813747 0.09962762147188187 0.5234361886978149
v -0.010434835217893124 0.12362898886203766 0.49706390500068665
v -0.013296788558363914 0.1213538870215416 0.4920101761817932
v -0.005105168558657169 0.10312478244304657 0.4968513250350952
v 0.0005061402916908264 0.11289579421281815 0.4871215224266052
v 0.0012057796120643616 0.12001848220825195 0.4973657727241516
v -0.004921182990074158 0.12272503972053528 0.49991822242736816
v 0.002003701403737068 0.12367793172597885 0.49216488003730774
v -0.002922849729657173 0.1263779252767563 0.4941910207271576
v -0.008291631005704403 0.12729105353355408 0.49182748794555664
v -0.011200159788131714 0.1243271678686142 0.4882792830467224
v -0.010961383581161499 0.121125727891922 0.4859171509742737
v 0.003779354505240917 0.12122400104999542 0.4896857738494873
v 0.003631078638136387 0.11806733906269073 0.4864366054534912
v 0.0005017835646867752 0.11517732590436935 0.48451870679855347
v 0.003789865877479315 0.12311235070228577 0.4817238748073578
v 0.002382448874413967 0.127264142036438 0.4831250309944153
v -0.011022749356925488 0.1323394775390625 0.47244396805763245
v -0.010434424504637718 0.1310897320508957 0.4781808853149414
v -0.008168257772922516 0.13233785331249237 0.4780409038066864
v -0.008428419008851051 0.13338011503219604 0.472744345664978
v -0.00840567983686924 0.13111364841461182 0.48386380076408386
v -0.006792705971747637 0.13179440796375275 0.48223087191581726
v -0.002379379700869322 0.13069148361682892 0.48314017057418823
v -0.0035718120634555817 0.13124774396419525 0.4772707223892212
v 0.000580288004130125 0.12887471914291382 0.4768986403942108
v 0.00033581024035811424 0.13063599169254303 0.47157278656959534
v -0.003574978094547987 0.13339418172836304 0.47185018658638
v 0.0005514933727681637 0.12927627563476562 0.4811147451400757
v -0.007702436298131943 0.13392823934555054 0.4692937731742859
v -0.008950136601924896 0.13296209275722504 0.46728459000587463
v -0.002209427999332547 0.13054947555065155 0.48603755235671997
v -0.011470072902739048 0.1266271471977234 0.48554641008377075
v -0.012285846285521984 0.12882521748542786 0.47718414664268494
v -0.012125021778047085 0.12976881861686707 0.4707449674606323
v -0.008751176297664642 0.13041028380393982 0.4656182527542114
v -0.012213223613798618 0.12529852986335754 0.4749825894832611
v -0.01145085971802473 0.12694545090198517 0.4692898690700531
v -0.008212728425860405 0.12776130437850952 0.46555039286613464
v -0.010151540860533714 0.12158624827861786 0.47296634316444397
v -0.009050440974533558 0.12379606068134308 0.46784088015556335
v -0.00940876454114914 0.1182231456041336 0.4828311800956726
v -0.012003707699477673 0.12208735942840576 0.484150767326355
v -0.007929543033242226 0.12545394897460938 0.46613746881484985
v -0.00440851179882884 0.13329997658729553 0.46584025025367737
v -0.004911546129733324 0.13045352697372437 0.4641161561012268
v -0.004193077329546213 0.13367164134979248 0.46762174367904663
v 0.0019114748574793339 0.12723605334758759 0.4763813018798828
v 0.00091169448569417 0.12879802286624908 0.47038036584854126
v 0.0025416668504476547 0.12474648654460907 0.47510990500450134
v 0.0009966283105313778 0.12697678804397583 0.46876034140586853
v -0.0005140448920428753 0.1308015137910843 0.46643251180648804
v -0.0010719881393015385 0.13203051686286926 0.46744194626808167
v -0.008179288357496262 0.11786430329084396 0.4847615957260132
v -0.003316963091492653 0.1151747852563858 0.48385804891586304
v -0.004591427743434906 0.11550843715667725 0.4820055067539215
v -0.005439139436930418 0.11945085227489471 0.47219318151474
v -2.1183397620916367e-05 0.1158842146396637 0.481919527053833
v 0.0029627331532537937 0.11950802803039551 0.48095107078552246
v 0.001953773433342576 0.12208707630634308 0.47420579195022583
v -0.0008735015289857984 0.1198834478855133 0.4725761413574219
v 0.0012521431781351566 0.12492629885673523 0.4680021107196808
v -0.0008017916698008776 0.12248146533966064 0.4685271084308624
v -0.0054675922729074955 0.12188994884490967 0.4676041305065155
v -0.0007662554271519184 0.12723156809806824 0.46449434757232666
v -0.0005167755298316479 0.12944988906383514 0.46528831124305725
v -0.0050894892774522305 0.12825381755828857 0.46417486667633057
v -0.0018284269608557224 0.12462322413921356 0.46546655893325806
v -0.005405866075307131 0.12522980570793152 0.46512192487716675
v -0.009094887413084507 0.10762966424226761 0.483886182308197
v -0.007277836091816425 0.10302716493606567 0.4815216660499573
v -0.010555916465818882 0.09652146697044373 0.4859250485897064
v -0.011850460432469845 0.10218460112810135 0.48862698674201965
v -0.0012732399627566338 0.10969667136669159 0.49373260140419006
v -0.005266883410513401 0.1112096905708313 0.4910965859889984
v -0.007334570400416851 0.1078745499253273 0.4941667914390564
v -0.002871445380151272 0.10626514256000519 0.49704936146736145
v 0.0035669123753905296 0.10718949139118195 0.4928031265735626
v 0.00217475276440382 0.1038200706243515 0.49554651975631714
v 0.0010452931746840477 0.10728119313716888 0.4991145431995392
v -0.005300024524331093 0.10635992884635925 0.4983094036579132
v 0.0035677803680300713 0.0997495949268341 0.5077439546585083
v 0.009948200546205044 0.10247785598039627 0.5059863328933716
v -0.007882463745772839 0.11031019687652588 0.4872705340385437
v -0.010348469018936157 0.10636560618877411 0.4912734627723694
v -0.0009832028299570084 0.09022138267755508 0.4879768192768097
v -0.00442460784688592 0.09087252616882324 0.49050843715667725
v -0.006307060830295086 0.09403985738754272 0.4836398661136627
v -0.0020777052268385887 0.09393586218357086 0.4833620488643646
v 0.00033605704084038734 0.08867137879133224 0.5094633102416992
v 0.003938194364309311 0.08479157090187073 0.5062556862831116
v 2.893153578042984e-05 0.09456419199705124 0.508599579334259
v 0.0036596059799194336 0.09307284653186798 0.488538533449173
v 0.00782486516982317 0.09914354979991913 0.4915463626384735
v 0.015582109801471233 0.09397511929273605 0.4974173605442047
v 0.012446618638932705 0.08855222165584564 0.4975129961967468
v -0.008550706319510937 0.1033468097448349 0.4976955056190491
v -0.008042942732572556 0.0931525006890297 0.49331486225128174
v -0.010197380557656288 0.09832244366407394 0.49599382281303406
v 0.006089366041123867 0.10488569736480713 0.4957847595214844
v 0.0034838272258639336 0.0991893783211708 0.49118536710739136
v 0.014150233007967472 0.11081976443529129 0.47862720489501953
v 0.004431108944118023 0.09807329624891281 0.4851814806461334
v 0.0010600807145237923 0.09816767275333405 0.4814298748970032
v 0.012187094427645206 0.10979577153921127 0.4749225378036499
v 0.0018196320161223412 0.09510600566864014 0.4859794080257416
v 0.005898789502680302 0.10185092687606812 0.489831805229187
v 0.0020837290212512016 0.11837554723024368 0.473904550075531
v 0.0040903231129050255 0.11357703804969788 0.47223150730133057
v 0.0019537480548024178 0.12015493214130402 0.47763800621032715
v 0.015320218168199062 0.10055801272392273 0.5017257928848267
v 0.008416603319346905 0.08412665873765945 0.5008043050765991
v 0.006718405522406101 0.12134566158056259 0.4828944802284241
v 0.003479757346212864 0.12154772877693176 0.4802537262439728
v -0.0030765747651457787 0.09962033480405807 0.48085418343544006
v 0.008482969366014004 0.11049355566501617 0.472370982170105
v 0.013732773251831532 0.11346454918384552 0.48226553201675415
v 0.01073028426617384 0.11773216724395752 0.4847390949726105
v 0.016730036586523056 0.11549260467290878 0.47852516174316406
v 0.014068803749978542 0.12015747278928757 0.48053067922592163
v 0.011129925958812237 0.12408445030450821 0.4788544774055481
v 0.008182856254279613 0.12441352009773254 0.4763341248035431
v 0.006257227621972561 0.12317141145467758 0.4737550616264343
v 0.01685495302081108 0.11302170902490616 0.47489383816719055
v 0.014606391079723835 0.11223403364419937 0.4718111753463745
v 0.010154328308999538 0.11244633793830872 0.47095945477485657
v 0.018994394689798355 0.11371653527021408 0.47151169180870056
v 0.02107606828212738 0.11783598363399506 0.4742130637168884
v 0.023256473243236542 0.13061796128749847 0.4652022421360016
v 0.019665099680423737 0.1287859082221985 0.46891915798187256
v 0.020718760788440704 0.1281692087650299 0.46930766105651855
v 0.024659503251314163 0.13007691502571106 0.46598395705223083
v 0.016867469996213913 0.12624698877334595 0.4744318127632141
v 0.019066844135522842 0.12613311409950256 0.47343549132347107
v 0.020433597266674042 0.12289147824048996 0.4746128022670746
v 0.024525776505470276 0.12472964078187943 0.4700963795185089
v 0.024854376912117004 0.11906948685646057 0.46863991022109985
v 0.02756083756685257 0.1214178204536438 0.46551141142845154
v 0.02784283459186554 0.12669643759727478 0.46687227487564087
v 0.022222444415092468 0.11906740069389343 0.4732102155685425
v 0.02701832354068756 0.13001349568367004 0.46408575773239136
v 0.02668667584657669 0.131793811917305 0.46318113803863525
v 0.018453221768140793 0.1224178746342659 0.47616928815841675
v 0.012498105876147747 0.1273077130317688 0.47315549850463867
v 0.017410211265087128 0.12950316071510315 0.4673911929130554
v 0.020825456827878952 0.13164551556110382 0.4631805419921875
v 0.02416687086224556 0.13091722130775452 0.4606044888496399
v 0.015367875806987286 0.1277635097503662 0.46485552191734314
v 0.019142143428325653 0.1295822560787201 0.4614025354385376
v 0.022186271846294403 0.1291285753250122 0.45904630422592163
v 0.014407503418624401 0.12522798776626587 0.46316927671432495
v 0.018231835216283798 0.12674009799957275 0.4601305425167084
v 0.007359842769801617 0.12158939242362976 0.4699765145778656
v 0.009370370768010616 0.12513330578804016 0.4715651273727417
v 0.02101663500070572 0.1272377073764801 0.45868292450904846
v 0.029590457677841187 0.12805265188217163 0.4624669551849365
v 0.027418173849582672 0.1267319768667221 0.4591149091720581
v 0.028721190989017487 0.1275360882282257 0.46387937664985657
v 0.024234570562839508 0.1173427477478981 0.4683355391025543
v 0.02794363722205162 0.11970426142215729 0.46389418840408325
v 0.022572427988052368 0.11572904884815216 0.46661779284477234
v 0.02636004239320755 0.11819688230752945 0.4620795249938965
v 0.029741942882537842 0.12288625538349152 0.4624139666557312
v 0.029391832649707794 0.12355789542198181 0.4633444547653198
v 0.005201498977839947 0.11968476325273514 0.4718896746635437
v 0.006739822216331959 0.1153850108385086 0.47047725319862366
v 0.00823854561895132 0.11732009053230286 0.46862414479255676
v 0.015465657226741314 0.12134574353694916 0.46156761050224304
v 0.011092050932347775 0.11386738717556 0.4689491391181946
v 0.016826573759317398 0.11350291967391968 0.4687544107437134
v 0.02034647762775421 0.1159287765622139 0.4643838107585907
v 0.018040642142295837 0.11786473542451859 0.4623072147369385
v 0.024057231843471527 0.11817749589681625 0.46046751737594604
v 0.021492794156074524 0.11944518238306046 0.46014708280563354
v 0.01891946792602539 0.12317617982625961 0.4586842656135559
v 0.025629296898841858 0.12160031497478485 0.4590868651866913
v 0.028257086873054504 0.1217796802520752 0.46029552817344666
v 0.0247446671128273 0.12578356266021729 0.45782041549682617
v 0.023231498897075653 0.12168598175048828 0.4585428833961487
v 0.022431008517742157 0.12484247237443924 0.45762842893600464
v 0.006552432663738728 0.08295684307813644 0.5033851265907288
v 0.001126251183450222 0.08029177784919739 0.47660332918167114
v 0.0013567963615059853 0.07645642012357712 0.47613829374313354
v 0.00468648225069046 0.07445186376571655 0.4801851809024811
v 0.003923618700355291 0.07797884941101074 0.48153382539749146
v 0.010393704287707806 0.08520793914794922 0.4727751910686493
v 0.005958113819360733 0.08524259924888611 0.4747958779335022
v 0.007853004150092602 0.0849807858467102 0.4788688123226166
v 0.012009515427052975 0.08571051061153412 0.4761978089809418
v 0.013269339688122272 0.08245730400085449 0.47005605697631836
v 0.014526388607919216 0.08311325311660767 0.4729488790035248
v 0.012397419661283493 0.08732817322015762 0.47870323061943054
v 0.00953911617398262 0.0856204628944397 0.4822607636451721
v 0.01999988779425621 0.08568594604730606 0.49297240376472473
v 0.02386772260069847 0.0879906564950943 0.4903329610824585
v 0.031742729246616364 0.07273226231336594 0.48667097091674805
v 0.029591739177703857 0.07002688944339752 0.4910604655742645
v 0.02300678938627243 0.07222285866737366 0.48757874965667725
v 0.02625616267323494 0.07326816767454147 0.48460689187049866
v 0.0027503827586770058 0.08345520496368408 0.47602835297584534
v 0.004412197507917881 0.08214429020881653 0.4807991087436676
v 0.016615554690361023 0.07185999304056168 0.47858795523643494
v 0.012756754644215107 0.07172685116529465 0.48141658306121826
v 0.007021657191216946 0.0711117759346962 0.4793430268764496
v 0.010825668461620808 0.07014622539281845 0.4769190549850464
v 0.02534407004714012 0.07094108313322067 0.4943047761917114
v 0.022637370973825455 0.07252521067857742 0.4973077178001404
v 0.018912486732006073 0.07470357418060303 0.4947474002838135
v 0.019701175391674042 0.07302942872047424 0.4907153844833374
v 0.016805529594421387 0.0793205201625824 0.4959217309951782
v 0.01862737536430359 0.07459300011396408 0.4756728708744049
v 0.01823260635137558 0.07949742674827576 0.47400614619255066
v 0.030383873730897903 0.08076003938913345 0.4817937910556793
v 0.029625918716192245 0.07649786025285721 0.48319292068481445
v 0.0071279751136898994 0.08219413459300995 0.48459768295288086
v 0.009188518859446049 0.07378467172384262 0.4830356240272522
v 0.00784740038216114 0.07744841277599335 0.4848273992538452
v 0.014939428307116032 0.08489226549863815 0.4743073582649231
v 0.015649937093257904 0.0774322897195816 0.47236451506614685
v 0.005914369598031044 0.07359828054904938 0.46331292390823364
v 0.010896055027842522 0.07194297015666962 0.47229593992233276
v 0.006414192728698254 0.07086719572544098 0.47360461950302124
v 0.0033338638022542 0.07360747456550598 0.46316176652908325
v 0.01439980510622263 0.07258889079093933 0.47403353452682495
v 0.013881775550544262 0.0766189694404602 0.47058558464050293
v -0.002393278293311596 0.08278031647205353 0.4650763273239136
v -0.001940273679792881 0.07802338153123856 0.46510860323905945
v -0.0006192130967974663 0.08517175912857056 0.46539008617401123
v 0.027523603290319443 0.08731923252344131 0.48466137051582336
v 0.005978882312774658 0.08541369438171387 0.4641200602054596
v 0.002183087170124054 0.08667537569999695 0.46466609835624695
v 0.003149651922285557 0.07305287569761276 0.4751551151275635
v 0.0007825437933206558 0.07505254447460175 0.4641510546207428
v 0.008416062220931053 0.07599581778049469 0.46320563554763794
v 0.009334183298051357 0.08176098018884659 0.4629893898963928
v 0.00793005432933569 0.076245978474617 0.4594295620918274
v 0.008320528082549572 0.0821312740445137 0.4599774181842804
v 0.0049298470839858055 0.08667805790901184 0.4601776599884033
v 0.001872737891972065 0.08744636178016663 0.460700660943985
v -0.0010502608492970467 0.08643941581249237 0.4607710838317871
v 0.00528003741055727 0.0740208551287651 0.4589780569076538
v 0.0022930288687348366 0.07416573911905289 0.45891356468200684
v -0.0007461244240403175 0.07558149844408035 0.4601238965988159
v 0.0064710406586527824 0.07565678656101227 0.4544292986392975
v 0.010288233868777752 0.07899025082588196 0.45432934165000916
v 0.007816768251359463 0.08983294665813446 0.44645625352859497
v 0.006603348068892956 0.08893143385648727 0.4497923254966736
v 0.007654878310859203 0.08842408657073975 0.45018020272254944
v 0.008898465894162655 0.09001174569129944 0.4467681348323822
v 0.006380057893693447 0.08766043931245804 0.45460522174835205
v 0.007859042845666409 0.08691367506980896 0.4537855386734009
v 0.009453206323087215 0.0840752050280571 0.45460402965545654
v 0.010971385054290295 0.08562356233596802 0.45048460364341736
v 0.0115933483466506 0.0807626023888588 0.4486222267150879
v 0.012756920419633389 0.08269437402486801 0.44538891315460205
v 0.012318960390985012 0.08685672283172607 0.44746842980384827
v 0.01114079263061285 0.08089142292737961 0.453044056892395
v 0.010598770342767239 0.09037281572818756 0.4449418783187866
v 0.010063397698104382 0.09093449264764786 0.4438151717185974
v 0.00882465299218893 0.08414819836616516 0.4561663866043091
v 0.0021793683990836143 0.08834279328584671 0.4556880593299866
v 0.004582005552947521 0.08950018882751465 0.44884252548217773
v 0.00670675840228796 0.09047660231590271 0.44478267431259155
v 0.008970691822469234 0.09000825136899948 0.44227099418640137
v 0.002309306524693966 0.0881728082895279 0.4491884112358093
v 0.0047974130138754845 0.08953361958265305 0.443853497505188
v 0.006987391971051693 0.08885746449232101 0.44137081503868103
v 0.00020573195070028305 0.08565573394298553 0.44908010959625244
v 0.003413545899093151 0.08714909106492996 0.44404083490371704
v -0.0027817869558930397 0.08371911942958832 0.4567019045352936
v -0.0005659768357872963 0.08666662871837616 0.45631131529808044
v 0.005937117151916027 0.08744535595178604 0.4420882761478424
v 0.012624490074813366 0.08825996518135071 0.4429914951324463
v 0.010590299032628536 0.0874747708439827 0.44107377529144287
v 0.013183034025132656 0.0879087746143341 0.4442765414714813
v 0.010958238504827023 0.07940742373466492 0.4484739899635315
v 0.012219800613820553 0.08165799081325531 0.44427090883255005
v 0.008656038902699947 0.0778636485338211 0.4478966295719147
v 0.010372920893132687 0.08098713308572769 0.4431561529636383
v 0.012902951799333096 0.08460674434900284 0.442424476146698
v 0.013254213146865368 0.08509356528520584 0.4440706670284271
v -0.003148437477648258 0.08341879397630692 0.46053725481033325
v -0.00261763297021389 0.07907050848007202 0.46127182245254517
v -0.002667509950697422 0.07955978065729141 0.45705676078796387
v -0.00013671908527612686 0.0820435956120491 0.4488529562950134
v -0.0003608027473092079 0.07612179219722748 0.455808162689209
v 0.003278418444097042 0.07516460120677948 0.4550418257713318
v 0.005778743885457516 0.07794807851314545 0.4479294419288635
v 0.0026259562000632286 0.07916802912950516 0.4480828046798706
v 0.008160381577908993 0.0812973901629448 0.4426332116127014
v 0.005254006944596767 0.08219446986913681 0.4429755210876465
v 0.0032551726326346397 0.08426311612129211 0.44363775849342346
v 0.009133669547736645 0.08459611237049103 0.44094541668891907
v 0.01106733363121748 0.08454456925392151 0.44106876850128174
v 0.008617046289145947 0.08670809119939804 0.44089606404304504
v 0.007122947834432125 0.0845656469464302 0.4412500858306885
v 0.006386171095073223 0.08583159744739532 0.441531777381897
v 0.031706105917692184 0.07584189623594284 0.4844239056110382
v 0.02262263372540474 0.07504947483539581 0.5807881951332092
v 0.022598274052143097 0.07365741580724716 0.5753765106201172
v 0.026640061289072037 0.05762745067477226 0.5752753019332886
v 0.023945052176713943 0.06329208612442017 0.5713236927986145
v 0.027918118983507156 0.05603133887052536 0.5820737481117249
v 0.027782604098320007 0.062375955283641815 0.5908947587013245
v 0.029141418635845184 0.0584469698369503 0.5873088836669922
v 0.022833261638879776 0.06896267086267471 0.5717761516571045
v 0.0239761583507061 0.07388196885585785 0.5861294269561768
v 0.026318956166505814 0.06881333887577057 0.5910399556159973
v 0.013241675682365894 0.06996732205152512 0.5882557034492493
v 0.016350243240594864 0.06379476189613342 0.5924735069274902
v 0.018618877977132797 0.05659664422273636 0.5914287567138672
v 0.02190622314810753 0.05391814559698105 0.5861884951591492
v 0.022867128252983093 0.0527336448431015 0.5815590620040894
v 0.015089497901499271 0.07218629866838455 0.5808342695236206
v 0.01610763743519783 0.07125881314277649 0.5752852559089661
v 0.018576104193925858 0.06664623320102692 0.5714616775512695
v 0.0076189199462533 0.06844162940979004 0.578382134437561
v 0.0019075749441981316 0.060346901416778564 0.5786893963813782
v 0.001956227235496044 0.041520051658153534 0.5739114880561829
v 0.006889666430652142 0.04442845284938812 0.577096700668335
v 0.004694786854088306 0.046024225652217865 0.5779216289520264
v 0.0002943864092230797 0.04295872896909714 0.5753536224365234
v 0.008487707935273647 0.04786421358585358 0.5811639428138733
v 0.00655245129019022 0.04896488040685654 0.5804232358932495
v 0.004704310558736324 0.05419917404651642 0.580925703048706
v 0.0006535826250910759 0.05097263306379318 0.578169047832489
v 0.002149115316569805 0.05762430280447006 0.5782637596130371
v -0.0005289735272526741 0.05623364448547363 0.5751579403877258
v -0.003233441151678562 0.048144660890102386 0.5753346681594849
v -0.0033649513497948647 0.04258912801742554 0.5742021203041077
v -0.006178383715450764 0.04568885266780853 0.5728157758712769
v -0.002556075341999531 0.04119867831468582 0.5716897249221802
v 0.0032222336158156395 0.054786160588264465 0.5841359496116638
v 0.01507593784481287 0.04816995561122894 0.5817160606384277
v 0.010176564566791058 0.04404449090361595 0.5756334662437439
v 0.00435978639870882 0.04149415343999863 0.5712780952453613
v -0.0010892534628510475 0.04149506241083145 0.5689518451690674
v 0.012490327470004559 0.045187972486019135 0.5722842812538147
v 0.006683423183858395 0.04372463375329971 0.5684517621994019
v 0.001454322598874569 0.044477131217718124 0.5663048028945923
v 0.01292415615171194 0.04856577515602112 0.5689009428024292
v 0.007062229327857494 0.04703251272439957 0.5664696097373962
v 0.021066196262836456 0.054229702800512314 0.5742235779762268
v 0.01991569623351097 0.05009368062019348 0.5786312222480774
v 0.0029693907126784325 0.0466582253575325 0.5657627582550049
v -0.007125102914869785 0.04485692083835602 0.5706100463867188
v -0.005457771010696888 0.045423347502946854 0.5676382184028625
v -0.00036817509680986404 0.059168435633182526 0.5737274885177612
v -0.004660730250179768 0.05370454490184784 0.573013186454773
v -0.004215591587126255 0.05535632371902466 0.5708081126213074
v 0.0016402481123805046 0.06174897029995918 0.5715739130973816
v -0.0030846567824482918 0.056537825614213943 0.5684381127357483
v -0.007105228491127491 0.05075159668922424 0.5697653889656067
v -0.006556120701134205 0.0501093864440918 0.5722423791885376
v 0.023332588374614716 0.05512983351945877 0.5754868388175964
v 0.02168169617652893 0.06077972799539566 0.5717644691467285
v 0.01928997039794922 0.060304686427116394 0.5712589621543884
v 0.011584940366446972 0.054611578583717346 0.5668320655822754
v 0.015112592838704586 0.06552011519670486 0.5705089569091797
v 0.01067554671317339 0.06859982013702393 0.5741119980812073
v 0.004119575954973698 0.0620504692196846 0.5687056183815002
v 0.00808806624263525 0.059762801975011826 0.5668553113937378
v -0.00034955982118844986 0.05621106177568436 0.5661753416061401
v 0.002238496206700802 0.054889243096113205 0.5653579831123352
v 0.005284461192786694 0.05088694021105766 0.5649420022964478
v -0.0027361223474144936 0.051621075719594955 0.5655434131622314
v -0.005595800466835499 0.05163218453526497 0.5672075152397156
v -0.002031833864748478 0.047332536429166794 0.5655375123023987
v -3.699306398630142e-05 0.051914215087890625 0.5652161836624146
v 0.0010000495240092278 0.04898454248905182 0.5651602745056152
v 0.035972341895103455 0.06863971054553986 0.49256494641304016
v 0.032286230474710464 0.06847741454839706 0.49775612354278564
v 0.03947972133755684 0.0676983892917633 0.497805655002594
v 0.049129385501146317 0.06719745695590973 0.4995479881763458
v 0.05939984694123268 0.06895649433135986 0.49634355306625366
v 0.047132305800914764 0.068292535841465 0.505843460559845
v 0.037290096282958984 0.06886405497789383 0.5034688711166382
v 0.026819951832294464 0.07085128128528595 0.502651572227478
v 0.05347796902060509 0.07021138817071915 0.5138152241706848
f 2 3 1
f 1 3 4
f 5 6 8
f 8 6 7
f 9 4 10
f 10 4 3
f 12 13 11
f 11 13 9
f 14 12 16
f 16 12 15
f 18 19 17
f 17 19 20
f 22 23 21
f 21 23 24
f 26 27 25
f 25 27 28
f 30 31 29
f 29 31 32
f 33 34 36
f 36 34 35
f 37 38 40
f 40 38 39
f 41 42 6
f 6 42 43
f 6 43 7
f 7 43 44
f 45 34 46
f 46 34 33
f 48 49 47
f 47 49 50
f 52 53 51
f 51 53 54
f 56 52 55
f 55 52 51
f 58 59 57
f 57 59 60
f 61 62 4
f 4 62 1
f 64 65 63
f 63 65 66
f 68 69 67
f 67 69 70
f 72 73 71
f 71 73 74
f 76 77 75
f 75 77 78
f 53 79 54
f 54 79 80
f 82 83 81
f 81 83 84
f 85 86 52
f 52 86 53
f 57 60 87
f 87 60 88
f 89 90 43
f 43 90 44
f 43 42 89
f 89 42 91
f 40 39 92
f 92 39 93
f 94 70 64
f 64 70 69
f 13 61 9
f 9 61 4
f 25 28 69
f 69 28 95
f 96 25 68
f 68 25 69
f 98 99 97
f 97 99 100
f 101 102 104
f 104 102 103
f 106 30 105
f 105 30 29
f 51 54 107
f 107 54 108
f 54 80 108
f 108 80 109
f 111 112 110
f 110 112 113
f 115 5 114
f 114 5 116
f 115 41 5
f 5 41 6
f 36 35 111
f 111 35 117
f 35 118 117
f 117 118 119
f 34 120 35
f 35 120 118
f 34 45 120
f 120 45 121
f 125 126 124
f 124 126 127
f 128 129 14
f 14 129 130
f 33 131 46
f 46 131 132
f 133 94 63
f 63 94 64
f 134 135 137
f 137 135 136
f 139 140 138
f 138 140 141
f 77 142 78
f 78 142 143
f 144 145 20
f 20 145 146
f 148 149 147
f 147 149 72
f 151 152 150
f 150 152 153
f 82 101 83
f 83 101 104
f 101 82 155
f 155 82 154
f 156 157 58
f 58 157 59
f 158 68 147
f 147 68 67
f 159 146 15
f 15 146 16
f 68 158 96
f 96 158 160
f 129 66 130
f 130 66 65
f 162 163 161
f 161 163 164
f 166 167 165
f 165 167 168
f 170 171 169
f 169 171 172
f 174 171 173
f 173 171 170
f 176 177 175
f 175 177 178
f 180 181 179
f 179 181 24
f 182 183 21
f 21 183 184
f 81 185 82
f 82 185 154
f 186 187 188
f 188 187 144
f 158 71 160
f 160 71 189
f 190 135 157
f 157 135 59
f 169 172 139
f 139 172 140
f 147 72 158
f 158 72 71
f 192 193 191
f 191 193 194
f 167 166 49
f 49 166 195
f 196 190 50
f 50 190 157
f 197 198 200
f 200 198 199
f 21 24 182
f 182 24 181
f 146 159 20
f 20 159 17
f 182 181 81
f 81 181 185
f 201 185 180
f 180 185 181
f 202 203 83
f 83 203 84
f 205 206 204
f 204 206 85
f 207 22 184
f 184 22 21
f 179 24 208
f 208 24 23
f 208 209 179
f 179 209 205
f 209 210 205
f 205 210 206
f 212 206 211
f 211 206 210
f 179 205 180
f 180 205 204
f 213 176 88
f 88 176 214
f 86 85 212
f 212 85 206
f 193 217 218
f 217 219 218
f 218 219 220
f 219 18 220
f 220 18 17
f 19 221 20
f 20 221 144
f 222 223 225
f 225 223 224
f 175 226 176
f 176 226 214
f 227 87 214
f 214 87 88
f 220 17 228
f 228 17 159
f 134 213 60
f 60 213 88
f 138 229 151
f 151 229 152
f 193 192 210
f 210 192 211
f 230 194 218
f 218 194 193
f 231 232 228
f 228 232 230
f 233 234 91
f 91 234 89
f 235 236 93
f 93 236 92
f 230 232 234
f 234 232 237
f 47 238 48
f 48 238 239
f 240 191 235
f 235 191 236
f 5 8 116
f 116 8 241
f 242 243 189
f 189 243 160
f 244 245 98
f 98 245 99
f 156 246 47
f 47 246 238
f 76 247 77
f 77 247 248
f 250 125 249
f 249 125 124
f 252 253 251
f 251 253 254
f 111 110 36
f 36 110 255
f 256 33 255
f 255 33 36
f 257 258 154
f 154 258 155
f 63 169 133
f 133 169 139
f 66 170 63
f 63 170 169
f 173 170 129
f 129 170 66
f 129 128 173
f 173 128 259
f 128 260 259
f 259 260 261
f 213 134 262
f 262 134 137
f 263 264 186
f 186 264 187
f 112 265 113
f 113 265 266
f 11 267 268
f 234 233 230
f 230 233 194
f 153 269 70
f 70 269 67
f 175 178 165
f 165 178 141
f 150 153 94
f 94 153 70
f 271 221 270
f 270 221 207
f 269 153 272
f 272 153 152
f 121 45 109
f 109 45 108
f 47 50 156
f 156 50 157
f 57 273 58
f 58 273 274
f 145 275 260
f 260 275 261
f 276 149 143
f 143 149 78
f 148 269 75
f 75 269 272
f 207 277 270
f 270 277 278
f 195 196 49
f 49 196 50
f 59 135 60
f 60 135 134
f 83 104 202
f 202 104 279
f 149 148 78
f 78 148 75
f 247 278 248
f 248 278 277
f 183 182 84
f 84 182 81
f 48 239 281
f 281 239 282
f 227 223 283
f 283 223 222
f 223 226 224
f 224 226 168
f 281 282 224
f 224 282 225
f 165 168 175
f 175 168 226
f 264 263 138
f 138 263 229
f 14 16 128
f 128 16 260
f 220 228 218
f 218 228 230
f 87 227 284
f 284 227 283
f 260 16 145
f 145 16 146
f 244 98 258
f 258 98 155
f 58 274 156
f 156 274 246
f 107 285 51
f 51 285 55
f 243 286 160
f 160 286 96
f 234 237 89
f 89 237 90
f 46 132 107
f 107 132 285
f 253 252 249
f 249 252 250
f 286 26 96
f 96 26 25
f 106 105 287
f 287 105 288
f 272 152 289
f 289 152 229
f 138 151 139
f 139 151 133
f 183 290 161
f 161 290 162
f 291 292 277
f 277 292 293
f 151 150 133
f 133 150 94
f 262 275 177
f 177 275 187
f 144 187 145
f 145 187 275
f 273 57 284
f 284 57 87
f 174 136 190
f 190 136 135
f 111 117 112
f 112 117 38
f 117 119 38
f 38 119 123
f 112 38 265
f 265 38 37
f 287 288 254
f 254 288 251
f 228 159 231
f 231 159 15
f 223 227 226
f 226 227 214
f 147 67 148
f 148 67 269
f 224 168 281
f 281 168 167
f 199 163 200
f 200 163 162
f 45 46 108
f 108 46 107
f 281 167 48
f 48 167 49
f 161 164 291
f 291 164 292
f 38 123 39
f 293 294 277
f 277 294 248
f 284 283 296
f 296 283 295
f 284 296 273
f 273 296 297
f 274 273 298
f 298 273 297
f 246 274 299
f 299 274 298
f 283 222 295
f 295 222 300
f 222 225 300
f 300 225 301
f 301 225 302
f 302 225 282
f 303 304 300
f 300 304 295
f 306 307 305
f 305 307 308
f 309 310 308
f 308 310 305
f 308 307 312
f 312 307 311
f 313 314 312
f 312 314 315
f 311 316 312
f 312 316 313
f 317 304 311
f 311 304 316
f 315 309 312
f 312 309 308
f 318 319 321
f 321 319 320
f 319 318 309
f 309 318 310
f 311 307 317
f 317 307 306
f 306 297 317
f 317 297 296
f 306 322 297
f 297 322 298
f 305 323 306
f 306 323 322
f 323 305 324
f 324 305 310
f 304 317 295
f 295 317 296
f 318 325 310
f 310 325 324
f 323 324 326
f 326 324 327
f 324 325 327
f 327 325 328
f 326 327 329
f 329 327 330
f 329 331 326
f 326 331 332
f 333 330 328
f 328 330 327
f 323 326 322
f 322 326 332
f 322 332 298
f 298 332 299
f 325 318 334
f 334 318 321
f 313 316 335
f 335 316 304
f 335 336 313
f 313 336 314
f 304 303 335
f 335 303 337
f 336 335 338
f 338 335 337
f 336 339 314
f 314 339 340
f 246 299 238
f 238 299 341
f 239 342 282
f 282 342 302
f 342 239 341
f 341 239 238
f 341 331 342
f 342 331 343
f 331 329 343
f 343 329 344
f 342 343 302
f 302 343 345
f 341 299 331
f 331 299 332
f 346 301 345
f 345 301 302
f 346 303 301
f 301 303 300
f 347 337 346
f 346 337 303
f 347 346 348
f 348 346 345
f 349 347 350
f 350 347 348
f 343 344 345
f 345 344 348
f 344 351 348
f 348 351 350
f 337 347 338
f 338 347 349
f 353 338 352
f 352 338 349
f 352 355 354
f 354 355 356
f 352 349 355
f 355 349 350
f 352 354 353
f 353 354 334
f 353 334 339
f 339 334 321
f 339 336 353
f 353 336 338
f 329 330 344
f 344 330 351
f 356 351 333
f 333 351 330
f 356 355 351
f 351 355 350
f 354 356 328
f 328 356 333
f 328 325 354
f 354 325 334
f 309 315 319
f 319 315 320
f 320 340 321
f 321 340 339
f 320 315 340
f 340 315 314
f 137 136 261
f 261 136 259
f 140 166 141
f 141 166 165
f 172 171 195
f 195 171 196
f 171 174 196
f 196 174 190
f 178 177 264
f 264 177 187
f 172 195 140
f 140 195 166
f 137 261 262
f 262 261 275
f 178 264 141
f 141 264 138
f 262 177 213
f 213 177 176
f 136 174 259
f 259 174 173
f 358 359 357
f 357 359 360
f 362 363 361
f 361 363 364
f 361 364 365
f 365 364 366
f 367 368 370
f 370 368 369
f 76 371 247
f 247 371 372
f 373 374 362
f 362 374 363
f 376 377 375
f 375 377 378
f 289 229 380
f 380 229 379
f 381 379 263
f 263 379 229
f 383 384 382
f 382 384 385
f 386 368 374
f 374 368 363
f 76 289 371
f 371 289 380
f 377 376 359
f 359 376 387
f 388 386 360
f 360 386 374
f 389 383 366
f 366 383 390
f 392 393 391
f 391 393 394
f 383 382 390
f 390 382 395
f 396 365 390
f 390 365 366
f 389 366 367
f 367 366 364
f 357 397 358
f 358 397 398
f 373 399 357
f 357 399 397
f 389 367 400
f 400 367 370
f 382 385 375
f 375 385 372
f 357 360 373
f 373 360 374
f 361 401 362
f 362 401 402
f 387 388 359
f 359 388 360
f 363 368 364
f 364 368 367
f 358 398 403
f 403 398 404
f 396 392 405
f 405 392 391
f 392 395 393
f 393 395 378
f 393 403 394
f 394 403 404
f 375 378 382
f 382 378 395
f 365 396 406
f 406 396 405
f 362 402 373
f 373 402 399
f 271 270 400
f 400 270 384
f 401 361 406
f 406 361 365
f 381 369 386
f 386 369 368
f 392 396 395
f 395 396 390
f 393 378 403
f 403 378 377
f 403 377 358
f 358 377 359
f 406 405 408
f 408 405 407
f 406 408 401
f 401 408 409
f 401 409 402
f 402 409 410
f 402 410 399
f 399 410 411
f 405 391 407
f 407 391 412
f 391 394 412
f 412 394 413
f 394 404 413
f 413 404 414
f 415 416 412
f 412 416 407
f 418 419 417
f 417 419 420
f 421 422 418
f 418 422 419
f 419 422 424
f 424 422 423
f 425 426 424
f 424 426 427
f 423 428 424
f 424 428 425
f 427 420 424
f 424 420 419
f 420 429 417
f 417 429 430
f 423 422 431
f 431 422 421
f 421 409 431
f 431 409 408
f 421 432 409
f 409 432 410
f 418 433 421
f 421 433 432
f 434 433 417
f 417 433 418
f 431 416 423
f 423 416 428
f 416 431 407
f 407 431 408
f 435 434 430
f 430 434 417
f 433 434 436
f 436 434 437
f 434 435 437
f 437 435 438
f 436 437 439
f 439 437 440
f 439 441 436
f 436 441 442
f 438 443 437
f 437 443 440
f 436 442 433
f 433 442 432
f 432 442 410
f 410 442 411
f 435 430 445
f 445 430 444
f 430 429 444
f 444 429 446
f 425 428 447
f 447 428 416
f 426 425 448
f 448 425 447
f 416 415 447
f 447 415 449
f 447 449 448
f 448 449 450
f 451 452 448
f 448 452 426
f 446 452 444
f 444 452 451
f 399 411 397
f 397 411 453
f 398 454 404
f 404 454 414
f 454 398 453
f 453 398 397
f 453 441 454
f 454 441 455
f 441 439 455
f 455 439 456
f 454 455 414
f 414 455 457
f 441 453 442
f 442 453 411
f 458 413 457
f 457 413 414
f 458 415 413
f 413 415 412
f 458 459 415
f 415 459 449
f 459 458 460
f 460 458 457
f 461 459 462
f 462 459 460
f 455 456 457
f 457 456 460
f 456 463 460
f 460 463 462
f 459 461 449
f 449 461 450
f 465 450 464
f 464 450 461
f 464 467 466
f 466 467 468
f 464 461 467
f 467 461 462
f 464 466 465
f 465 466 445
f 465 445 451
f 451 445 444
f 451 448 465
f 465 448 450
f 439 440 456
f 456 440 463
f 468 463 443
f 443 463 440
f 468 467 463
f 463 467 462
f 466 468 438
f 438 468 443
f 438 435 466
f 466 435 445
f 420 427 429
f 429 427 446
f 446 427 452
f 452 427 426
f 370 369 188
f 188 369 186
f 371 376 372
f 372 376 375
f 380 379 387
f 387 379 388
f 379 381 388
f 388 381 386
f 385 384 278
f 278 384 270
f 380 387 371
f 371 387 376
f 400 370 271
f 271 370 188
f 385 278 372
f 372 278 247
f 400 384 389
f 389 384 383
f 369 381 186
f 186 381 263
f 221 271 144
f 144 271 188
f 221 19 207
f 207 19 22
f 19 18 22
f 22 18 23
f 18 219 23
f 23 219 208
f 469 470 472
f 472 470 471
f 474 475 473
f 473 475 476
f 473 476 477
f 477 476 478
f 480 481 479
f 479 481 482
f 483 484 474
f 474 484 475
f 486 487 485
f 485 487 488
f 489 490 77
f 77 490 142
f 491 489 248
f 248 489 77
f 493 494 492
f 492 494 495
f 496 480 484
f 484 480 475
f 486 497 487
f 487 497 471
f 498 496 472
f 472 496 484
f 499 493 478
f 478 493 500
f 501 502 504
f 504 502 503
f 493 492 500
f 500 492 505
f 506 477 500
f 500 477 478
f 499 478 479
f 479 478 476
f 469 507 470
f 470 507 508
f 483 509 469
f 469 509 507
f 479 482 499
f 499 482 510
f 492 495 485
f 485 495 511
f 483 469 484
f 484 469 472
f 473 512 474
f 474 512 513
f 497 498 471
f 471 498 472
f 475 480 476
f 476 480 479
f 470 508 514
f 514 508 515
f 506 502 516
f 516 502 501
f 503 502 488
f 488 502 505
f 514 515 503
f 503 515 504
f 485 488 492
f 492 488 505
f 477 506 517
f 517 506 516
f 474 513 483
f 483 513 509
f 510 292 494
f 494 292 164
f 512 473 517
f 517 473 477
f 491 481 496
f 496 481 480
f 502 506 505
f 505 506 500
f 503 488 514
f 514 488 487
f 514 487 470
f 470 487 471
f 517 516 519
f 519 516 518
f 517 519 512
f 512 519 520
f 512 520 513
f 513 520 521
f 513 521 509
f 509 521 522
f 516 501 518
f 518 501 523
f 501 504 523
f 523 504 524
f 524 504 525
f 525 504 515
f 526 527 523
f 523 527 518
f 529 530 528
f 528 530 531
f 532 533 529
f 529 533 530
f 530 533 535
f 535 533 534
f 536 537 535
f 535 537 538
f 534 539 535
f 535 539 536
f 538 531 535
f 535 531 530
f 540 541 531
f 531 541 528
f 533 532 534
f 534 532 542
f 532 520 542
f 542 520 519
f 532 543 520
f 520 543 521
f 529 544 532
f 532 544 543
f 544 529 545
f 545 529 528
f 534 542 539
f 539 542 527
f 527 542 518
f 518 542 519
f 541 546 528
f 528 546 545
f 547 544 548
f 548 544 545
f 546 549 545
f 545 549 548
f 550 547 551
f 551 547 548
f 547 550 553
f 553 550 552
f 549 554 548
f 548 554 551
f 544 547 543
f 543 547 553
f 543 553 521
f 521 553 522
f 546 541 556
f 556 541 555
f 541 540 555
f 555 540 557
f 536 539 558
f 558 539 527
f 537 536 559
f 559 536 558
f 527 526 558
f 558 526 560
f 559 558 561
f 561 558 560
f 559 562 537
f 537 562 563
f 557 563 555
f 555 563 562
f 509 522 507
f 507 522 564
f 508 565 515
f 515 565 525
f 565 508 564
f 564 508 507
f 564 552 565
f 565 552 566
f 552 550 566
f 566 550 567
f 565 566 525
f 525 566 568
f 564 522 552
f 552 522 553
f 569 524 568
f 568 524 525
f 569 526 524
f 524 526 523
f 570 560 569
f 569 560 526
f 570 569 571
f 571 569 568
f 572 570 573
f 573 570 571
f 566 567 568
f 568 567 571
f 567 574 571
f 571 574 573
f 570 572 560
f 560 572 561
f 576 561 575
f 575 561 572
f 575 578 577
f 577 578 579
f 575 572 578
f 578 572 573
f 575 577 576
f 576 577 556
f 576 556 562
f 562 556 555
f 562 559 576
f 576 559 561
f 550 551 567
f 567 551 574
f 579 574 554
f 554 574 551
f 579 578 574
f 574 578 573
f 579 554 577
f 577 554 549
f 549 546 577
f 577 546 556
f 531 538 540
f 540 538 557
f 557 538 563
f 563 538 537
f 481 294 482
f 482 294 293
f 580 486 511
f 511 486 485
f 490 489 497
f 497 489 498
f 489 491 498
f 498 491 496
f 163 495 164
f 164 495 494
f 580 490 486
f 486 490 497
f 482 293 510
f 510 293 292
f 495 163 511
f 511 163 199
f 494 493 510
f 510 493 499
f 481 491 294
f 294 491 248
f 582 583 581
f 581 583 584
f 586 587 585
f 585 587 588
f 585 588 589
f 589 588 590
f 592 593 591
f 591 593 594
f 595 596 598
f 598 596 597
f 599 600 586
f 586 600 587
f 601 602 604
f 604 602 603
f 605 606 608
f 608 606 607
f 609 607 200
f 200 607 606
f 610 611 613
f 613 611 612
f 600 614 587
f 587 614 592
f 596 605 597
f 597 605 608
f 602 615 603
f 603 615 583
f 616 614 584
f 584 614 600
f 611 618 617
f 617 618 590
f 620 621 619
f 619 621 622
f 610 623 611
f 611 623 618
f 624 589 618
f 618 589 590
f 617 590 591
f 591 590 588
f 581 625 582
f 582 625 626
f 599 627 581
f 581 627 625
f 591 594 617
f 617 594 628
f 601 610 598
f 598 610 613
f 581 584 599
f 599 584 600
f 585 629 586
f 586 629 630
f 615 616 583
f 583 616 584
f 587 592 588
f 588 592 591
f 582 626 631
f 631 626 632
f 624 620 633
f 633 620 619
f 621 620 604
f 604 620 623
f 631 632 621
f 621 632 622
f 610 601 623
f 623 601 604
f 589 624 634
f 634 624 633
f 586 630 599
f 599 630 627
f 203 202 628
f 628 202 612
f 629 585 634
f 634 585 589
f 609 593 614
f 614 593 592
f 620 624 623
f 623 624 618
f 631 621 603
f 603 621 604
f 582 631 583
f 583 631 603
f 634 633 636
f 636 633 635
f 634 636 629
f 629 636 637
f 629 637 630
f 630 637 638
f 630 638 627
f 627 638 639
f 633 619 635
f 635 619 640
f 619 622 640
f 640 622 641
f 641 622 642
f 642 622 632
f 644 635 643
f 643 635 640
f 645 646 648
f 648 646 647
f 649 650 646
f 646 650 647
f 647 650 652
f 652 650 651
f 652 653 655
f 655 653 654
f 651 656 652
f 652 656 653
f 655 648 652
f 652 648 647
f 648 657 645
f 645 657 658
f 650 649 651
f 651 649 659
f 649 637 659
f 659 637 636
f 649 660 637
f 637 660 638
f 661 660 646
f 646 660 649
f 662 661 645
f 645 661 646
f 651 659 656
f 656 659 644
f 644 659 635
f 635 659 636
f 663 662 658
f 658 662 645
f 664 661 665
f 665 661 662
f 663 666 662
f 662 666 665
f 667 664 668
f 668 664 665
f 664 667 670
f 670 667 669
f 666 671 665
f 665 671 668
f 661 664 660
f 660 664 670
f 660 670 638
f 638 670 639
f 658 672 663
f 663 672 673
f 658 657 672
f 672 657 674
f 653 656 675
f 675 656 644
f 653 675 654
f 654 675 676
f 675 644 677
f 677 644 643
f 676 675 678
f 678 675 677
f 679 680 676
f 676 680 654
f 674 680 672
f 672 680 679
f 627 639 625
f 625 639 681
f 626 682 632
f 632 682 642
f 681 682 625
f 625 682 626
f 669 683 681
f 681 683 682
f 667 684 669
f 669 684 683
f 682 683 642
f 642 683 685
f 681 639 669
f 669 639 670
f 686 641 685
f 685 641 642
f 641 686 640
f 640 686 643
f 686 687 643
f 643 687 677
f 687 686 688
f 688 686 685
f 689 687 690
f 690 687 688
f 683 684 685
f 685 684 688
f 684 691 688
f 688 691 690
f 687 689 677
f 677 689 678
f 693 678 692
f 692 678 689
f 692 695 694
f 694 695 696
f 692 689 695
f 695 689 690
f 692 694 693
f 693 694 673
f 693 673 679
f 679 673 672
f 679 676 693
f 693 676 678
f 684 667 691
f 691 667 668
f 696 691 671
f 671 691 668
f 696 695 691
f 691 695 690
f 694 696 666
f 666 696 671
f 666 663 694
f 694 663 673
f 648 655 657
f 657 655 674
f 674 655 680
f 680 655 654
f 593 162 594
f 594 162 290
f 598 597 601
f 601 597 602
f 615 608 616
f 616 608 607
f 607 609 616
f 616 609 614
f 697 595 613
f 613 595 598
f 597 608 602
f 602 608 615
f 594 290 628
f 628 290 203
f 628 612 617
f 617 612 611
f 593 609 162
f 162 609 200
f 105 29 698
f 698 29 699
f 268 126 701
f 701 126 700
f 126 125 700
f 700 125 702
f 252 703 250
f 250 703 704
f 32 268 705
f 705 268 701
f 288 105 706
f 706 105 698
f 29 32 699
f 699 32 705
f 707 251 706
f 706 251 288
f 250 704 125
f 125 704 702
f 703 252 707
f 707 252 251
f 706 708 707
f 707 708 709
f 707 709 703
f 703 709 710
f 703 710 704
f 704 710 711
f 704 711 702
f 702 711 712
f 706 698 708
f 708 698 713
f 698 699 713
f 713 699 714
f 699 705 714
f 714 705 715
f 717 708 716
f 716 708 713
f 719 720 718
f 718 720 721
f 722 723 719
f 719 723 720
f 724 725 723
f 723 725 720
f 724 726 725
f 725 726 727
f 728 721 725
f 725 721 720
f 721 728 729
f 729 728 730
f 729 731 721
f 721 731 718
f 724 723 732
f 732 723 722
f 722 710 732
f 732 710 709
f 722 733 710
f 710 733 711
f 719 734 722
f 722 734 733
f 734 719 735
f 735 719 718
f 724 732 726
f 726 732 717
f 717 732 708
f 708 732 709
f 731 736 718
f 718 736 735
f 737 734 738
f 738 734 735
f 736 739 735
f 735 739 738
f 740 737 741
f 741 737 738
f 737 740 743
f 743 740 742
f 739 744 738
f 738 744 741
f 734 737 733
f 733 737 743
f 733 743 711
f 711 743 712
f 736 731 746
f 746 731 745
f 731 729 745
f 745 729 730
f 727 726 747
f 747 726 717
f 748 727 749
f 749 727 747
f 747 717 750
f 750 717 716
f 749 747 751
f 751 747 750
f 749 752 748
f 748 752 753
f 730 753 745
f 745 753 752
f 728 725 748
f 748 725 727
f 730 728 753
f 753 728 748
f 700 702 754
f 754 702 712
f 705 701 715
f 715 701 755
f 754 755 700
f 700 755 701
f 742 756 754
f 754 756 755
f 740 757 742
f 742 757 756
f 755 756 715
f 715 756 758
f 754 712 742
f 742 712 743
f 759 714 758
f 758 714 715
f 714 759 713
f 713 759 716
f 759 760 716
f 716 760 750
f 760 759 761
f 761 759 758
f 762 760 763
f 763 760 761
f 756 757 758
f 758 757 761
f 757 764 761
f 761 764 763
f 760 762 750
f 750 762 751
f 766 751 765
f 765 751 762
f 767 765 769
f 769 765 768
f 765 762 768
f 768 762 763
f 765 767 766
f 766 767 746
f 766 746 752
f 752 746 745
f 752 749 766
f 766 749 751
f 757 740 764
f 764 740 741
f 769 764 744
f 744 764 741
f 769 768 764
f 764 768 763
f 767 769 739
f 739 769 744
f 739 736 767
f 767 736 746
f 219 217 208
f 208 217 209
f 209 217 210
f 210 217 193
f 198 580 199
f 199 580 511
f 76 75 289
f 289 75 272
f 277 207 291
f 291 207 184
f 290 183 203
f 203 183 84
f 490 580 142
f 142 580 198
f 142 198 143
f 143 198 197
f 149 276 72
f 72 276 73
f 104 103 279
f 279 103 770
f 770 596 279
f 279 596 595
f 605 596 771
f 771 596 770
f 771 770 772
f 772 770 103
f 772 103 773
f 773 103 102
f 155 774 101
f 101 774 102
f 773 102 97
f 97 102 774
f 775 773 100
f 100 773 97
f 773 775 772
f 772 775 776
f 772 776 771
f 771 776 777
f 200 606 197
f 197 606 777
f 189 71 778
f 778 71 74
f 97 774 98
f 98 774 155
f 183 161 184
f 184 161 291
f 777 276 197
f 197 276 143
f 777 606 771
f 771 606 605
f 613 612 697
f 697 612 202
f 595 697 279
f 279 697 202
f 73 276 776
f 776 276 777
f 776 775 73
f 73 775 74
f 100 778 775
f 775 778 74
f 778 100 189
f 189 100 99
f 245 242 99
f 99 242 189
f 131 33 256
f 28 1 95
f 95 1 62
f 27 2 28
f 28 2 1
f 265 115 266
f 266 115 114
f 95 62 69
f 69 62 64
f 62 61 64
f 64 61 65
f 61 13 65
f 65 13 130
f 13 12 130
f 130 12 14
f 31 11 32
f 32 11 268
f 15 12 31
f 31 12 11
f 31 30 15
f 15 30 231
f 30 106 231
f 231 106 232
f 287 237 106
f 106 237 232
f 254 90 287
f 287 90 237
f 253 44 254
f 254 44 90
f 253 249 44
f 44 249 7
f 267 127 268
f 268 127 126
f 10 3 241
f 241 3 116
f 3 2 116
f 116 2 114
f 2 27 114
f 114 27 266
f 27 26 266
f 266 26 113
f 26 286 113
f 113 286 110
f 286 243 110
f 110 243 255
f 243 242 255
f 255 242 256
f 242 245 256
f 256 245 131
f 245 244 131
f 131 244 132
f 265 37 115
f 115 37 41
f 41 37 42
f 42 37 40
f 92 91 40
f 40 91 42
f 236 233 92
f 92 233 91
f 191 194 236
f 236 194 233
f 258 285 244
f 244 285 132
f 257 55 258
f 258 55 285
f 257 154 201
f 201 154 185
f 56 201 204
f 204 201 180
f 55 257 56
f 56 257 201
f 204 85 56
f 56 85 52
f 86 122 53
f 53 122 79
f 212 215 86
f 86 215 122
f 211 216 212
f 212 216 215
f 192 280 211
f 211 280 216
f 191 240 192
f 192 240 280
f 249 124 7
f 7 124 8
f 124 127 8
f 8 127 241
f 127 267 241
f 241 267 10
f 10 267 9
f 9 267 11
