v 0.04336688295006752 0.0702410489320755 0.548231303691864
v 0.05459822341799736 0.06616203486919403 0.5482370853424072
v 0.047479622066020966 0.06255990266799927 0.5564588308334351
v 0.03774256631731987 0.06674332916736603 0.5555775165557861
v 0.06758016347885132 0.05884713679552078 0.5660628080368042
v 0.07401642948389053 0.06412088871002197 0.5744619965553284
v 0.057851213961839676 0.06307658553123474 0.5805509686470032
v 0.05482906103134155 0.05796387791633606 0.572713315486908
v 0.032597754150629044 0.06721904128789902 0.5615438222885132
v 0.04096625745296478 0.061439357697963715 0.562358558177948
v 0.03163357079029083 0.07339587807655334 0.5641151666641235
v 0.024092823266983032 0.08135894685983658 0.5653665065765381
v 0.024775920435786247 0.07430393248796463 0.5628079175949097
v 0.016977986320853233 0.08497809618711472 0.5647314786911011
v 0.030563002452254295 0.09093477576971054 0.5654483437538147
v 0.01927485689520836 0.09303105622529984 0.5605030655860901
v 0.038751427084207535 0.10425187647342682 0.5441630482673645
v 0.04235329478979111 0.10510308295488358 0.5318297743797302
v 0.02677246555685997 0.1029912531375885 0.5305660963058472
v 0.024663696065545082 0.10161171853542328 0.5432813763618469
v 0.037394676357507706 0.09949234127998352 0.5135424137115479
v 0.0305247213691473 0.10151449590921402 0.5226897597312927
v 0.046229179948568344 0.10481324791908264 0.5239604711532593
v 0.05150033161044121 0.1026412844657898 0.5155813097953796
v 0.05171830207109451 0.0747160017490387 0.5354138016700745
v 0.0626935139298439 0.0727679431438446 0.5343438386917114
v 0.06023222580552101 0.07092917710542679 0.5390230417251587
v 0.04962899163365364 0.07356549054384232 0.5401281714439392
v 0.03328395262360573 0.079389788210392 0.5717230439186096
v 0.03993228077888489 0.08522448688745499 0.572476863861084
v 0.03419665992259979 0.08151490986347198 0.5680381655693054
v 0.03194723650813103 0.0746946632862091 0.5688740611076355
v 0.08873478323221207 0.0666600912809372 0.5262861251831055
v 0.1005796417593956 0.07244282960891724 0.5285879969596863
v 0.09990464150905609 0.07287677377462387 0.5344251990318298
v 0.0892137736082077 0.06778915971517563 0.5309644937515259
v 0.09275165945291519 0.06952275335788727 0.558753490447998
v 0.09941354393959045 0.07525434345006943 0.5531392693519592
v 0.10362076014280319 0.08463407307863235 0.5623638033866882
v 0.09524200111627579 0.08265058696269989 0.5668731927871704
v 0.0841776505112648 0.0657082349061966 0.567267894744873
v 0.0870664119720459 0.0768224447965622 0.573413610458374
v 0.07505572587251663 0.07460468262434006 0.5795831680297852
v 0.05818352475762367 0.07179348915815353 0.5844452381134033
v 0.10206564515829086 0.07434747368097305 0.5160247683525085
v 0.09375528991222382 0.06989783048629761 0.5125889182090759
v -0.021589310839772224 0.11545705795288086 0.5484843254089355
v -0.021691888570785522 0.11325028538703918 0.5430334210395813
v -0.020412983372807503 0.10767994076013565 0.5465160012245178
v -0.019960599020123482 0.11059534549713135 0.5511815547943115
v 0.09544799476861954 0.0885395035147667 0.5035680532455444
v 0.09402046352624893 0.09849347919225693 0.5043925046920776
v 0.10116691142320633 0.09737478196620941 0.504159152507782
v 0.10270091146230698 0.0881802961230278 0.5052525997161865
v 0.0857916846871376 0.08880281448364258 0.5015218257904053
v 0.08402253687381744 0.0993381068110466 0.5052667260169983
v -0.01085403747856617 0.12147145718336105 0.5497278571128845
v -0.01546834222972393 0.12059463560581207 0.5517096519470215
v -0.012577211484313011 0.11640295386314392 0.5540086030960083
v -0.00781879760324955 0.11695443093776703 0.5512745380401611
v 0.02827504277229309 0.07088655233383179 0.5572983622550964
v 0.03339066356420517 0.07130186259746552 0.5492759943008423
v 0.0050902413204312325 0.07556944340467453 0.5566421747207642
v 0.018788540735840797 0.07314459979534149 0.5520848631858826
v 0.018154166638851166 0.073805071413517 0.5595486164093018
v 0.00785057432949543 0.07743824273347855 0.5622814297676086
v 0.02932075969874859 0.07548968493938446 0.5304051637649536
v 0.04107172414660454 0.07583457976579666 0.5316755771636963
v 0.03805183619260788 0.07559890300035477 0.5374112129211426
v 0.024882564321160316 0.07458464801311493 0.5377843379974365
v 0.045347802340984344 0.07299662381410599 0.5185532569885254
v 0.03337853029370308 0.07322724163532257 0.5183507800102234
v 0.03701284900307655 0.07136295735836029 0.5109739899635315
v 0.04502946510910988 0.07074201852083206 0.5124340057373047
v 0.010090610012412071 0.07485862076282501 0.5213625431060791
v 0.0014285929501056671 0.0780167207121849 0.5214681625366211
v 0.0021982663311064243 0.08121343702077866 0.5160136222839355
v 0.01161699928343296 0.07592283189296722 0.516994833946228
v 0.10818859189748764 0.09736712276935577 0.5043950080871582
v 0.10943172127008438 0.08823589980602264 0.5077705979347229
v 0.04686678946018219 0.09207789599895477 0.4964715838432312
v 0.05272477865219116 0.08434345573186874 0.49158284068107605
v 0.04211810603737831 0.08124034106731415 0.48841601610183716
v 0.03914017975330353 0.0898730605840683 0.4944193959236145
v 0.09089308232069016 0.10614429414272308 0.5106504559516907
v 0.09836237132549286 0.10607696324586868 0.5083400011062622
v -0.007063811179250479 0.12079251557588577 0.5447635054588318
v -0.004915786907076836 0.11664961278438568 0.5458104610443115
v 0.07457294315099716 0.08619212359189987 0.5772517919540405
v 0.05712641403079033 0.08079306781291962 0.5831611752510071
v 0.0868789479136467 0.090037040412426 0.5709096193313599
v 0.09485439211130142 0.093704454600811 0.5657984018325806
v 0.10273751616477966 0.09609194099903107 0.564135730266571
v 0.014576217159628868 0.07281937450170517 0.5462953448295593
v 0.039785027503967285 0.07364987581968307 0.5427361130714417
v 0.05342300608754158 0.074640654027462 0.5308554172515869
v 0.05821370333433151 0.06656183302402496 0.5019205808639526
v 0.06876005232334137 0.06637396663427353 0.5035975575447083
v 0.0630359947681427 0.06630339473485947 0.5124081373214722
v 0.0549621619284153 0.0671776756644249 0.5090299844741821
v 0.053150858730077744 0.07465970516204834 0.4905444383621216
v 0.04998749867081642 0.06891930103302002 0.4946719706058502
v 0.04056764394044876 0.06837375462055206 0.4932956099510193
v 0.04307645559310913 0.07292792201042175 0.4889223575592041
v 0.03506486117839813 0.08222972601652145 0.5781424045562744
v 0.04555335268378258 0.08769624680280685 0.5765295028686523
v 0.09618573635816574 0.0784740000963211 0.5063775777816772
v 0.10280877351760864 0.07935114204883575 0.5101568698883057
v 0.11041299998760223 0.08203316479921341 0.5123381614685059
v 0.07598520815372467 0.06860273331403732 0.5316834449768066
v 0.08965002745389938 0.06828513741493225 0.5344220399856567
v 0.08874868601560593 0.06731639802455902 0.5393880009651184
v 0.07530324906110764 0.06855994462966919 0.5345844626426697
v 0.06666796654462814 0.06106158345937729 0.5507116317749023
v 0.07931897789239883 0.06129901856184006 0.5551946759223938
v 0.05688973143696785 0.05786914378404617 0.5595672130584717
v 0.10081988573074341 0.0736718401312828 0.5427175164222717
v 0.1096414178609848 0.07495929300785065 0.5363415479660034
v 0.10922882705926895 0.07662764191627502 0.5451288819313049
v 0.11057830601930618 0.07574962079524994 0.5266353487968445
v 0.11089621484279633 0.07793419063091278 0.5180051326751709
v 0.10617311298847198 0.10889380425214767 0.5067365169525146
v 0.10774978250265121 0.0798613578081131 0.5528855919837952
v 0.046196747571229935 0.05878898501396179 0.5752918124198914
v 0.038247186690568924 0.05985528603196144 0.5767630338668823
v 0.035642314702272415 0.06186074763536453 0.5697265267372131
v 0.04206285998225212 0.060378316789865494 0.5681388974189758
v 0.009243631735444069 0.09013236314058304 0.5634003281593323
v 0.00741426320746541 0.08318383246660233 0.5649082064628601
v 0.018270470201969147 0.07798363268375397 0.5651000142097473
v 0.07918970286846161 0.06560197472572327 0.519960343837738
v 0.08394557237625122 0.06804566085338593 0.5086694359779358
v 0.0015382152050733566 0.07689274102449417 0.5506718158721924
v -0.004328970797359943 0.1150112971663475 0.551157534122467
v -0.008238050155341625 0.11338897794485092 0.5551514625549316
v 0.0023340280167758465 0.10203102231025696 0.5584861636161804
v 0.005499351304024458 0.10500416159629822 0.553737223148346
v -0.0042406897991895676 0.08679406344890594 0.5440793633460999
v -0.00342702423222363 0.08323142677545547 0.5498756766319275
v -0.00531772430986166 0.08799035102128983 0.5484533905982971
v -0.005768238566815853 0.091031514108181 0.542901337146759
v 0.007695699576288462 0.07943381369113922 0.5085304975509644
v 0.015594767406582832 0.07487864792346954 0.509457528591156
v 0.010042248293757439 0.09648804366588593 0.5417509078979492
v 0.014163827523589134 0.09738953411579132 0.5528246760368347
v 0.022972919046878815 0.09942616522312164 0.5526627898216248
v 0.03244423866271973 0.0746709555387497 0.5236920714378357
v 0.02152004837989807 0.07412410527467728 0.5217428207397461
v 0.022614331915974617 0.07388374209403992 0.5176483392715454
v 0.011051084846258163 0.07387293875217438 0.5427536964416504
v 0.0008215766865760088 0.07741070538759232 0.5444383025169373
v 0.005492820870131254 0.07639237493276596 0.5392382740974426
v 0.015110297128558159 0.07477232068777084 0.5376011729240417
v 0.06475116312503815 0.08735134452581406 0.4943653345108032
v 0.06558314710855484 0.07594498991966248 0.4927866756916046
v -0.019282907247543335 0.11823993921279907 0.5514713525772095
v -0.016928909346461296 0.11354362964630127 0.5540869832038879
v 0.04389378800988197 0.075050488114357 0.5250776410102844
v 0.035922590643167496 0.1005479171872139 0.5530376434326172
v 0.055251218378543854 0.07388605177402496 0.5258104205131531
v 0.023188332095742226 0.09020683914422989 0.5034459233283997
v 0.021564004942774773 0.08535736054182053 0.4993740916252136
v 0.016046004369854927 0.08651116490364075 0.5008460283279419
v 0.018022870644927025 0.09128323197364807 0.5028650760650635
v -0.012979205697774887 0.1035991907119751 0.537964940071106
v -0.0166519396007061 0.10273389518260956 0.5423972010612488
v -0.018877418711781502 0.10635045170783997 0.5405258536338806
v -0.014880901202559471 0.10683446377515793 0.53670334815979
v -0.0021726679988205433 0.0835840180516243 0.5556415915489197
v 0.0005168754141777754 0.08492700755596161 0.5613276362419128
v -0.004220372531563044 0.09189092367887497 0.5584424138069153
v -0.005502939689904451 0.0896100103855133 0.5533303022384644
v 0.0025484832003712654 0.09108013659715652 0.5626221299171448
v -0.0010843544732779264 0.09709088504314423 0.5602100491523743
v -0.00724026607349515 0.10696880519390106 0.5370712280273438
v -0.0017974567599594593 0.11170998215675354 0.5402953624725342
v 0.004614220932126045 0.10193861275911331 0.5415462255477905
v -0.001983683556318283 0.09750383347272873 0.540336012840271
v 0.06555000692605972 0.10597535967826843 0.5179795026779175
v 0.06929238140583038 0.10209010541439056 0.5083957314491272
v 0.05541864410042763 0.09865985065698624 0.5057671666145325
v 0.04252399876713753 0.09567960351705551 0.5029581189155579
v 0.030477462336421013 0.09110645204782486 0.501641571521759
v 0.026209112256765366 0.09697476029396057 0.5113939642906189
v 0.05933903902769089 0.09545285254716873 0.4996640086174011
v -0.0012374743819236755 0.09222474694252014 0.5389752388000488
v 0.006258306559175253 0.09526662528514862 0.5443455576896667
v 0.003727319650352001 0.09527862071990967 0.5402218103408813
v 0.056813567876815796 0.07113854587078094 0.5191354751586914
v -0.012027256190776825 0.11042538285255432 0.5560401678085327
v 0.09149464219808578 0.1099536120891571 0.5525470972061157
v 0.09153774380683899 0.11376780271530151 0.5402278304100037
v 0.08312336355447769 0.11177085340023041 0.541814923286438
v 0.08291513472795486 0.10701042413711548 0.5549560189247131
v -0.017735790461301804 0.10337607562541962 0.5491297245025635
v -0.016205433756113052 0.10647724568843842 0.5541236400604248
v 0.01680591329932213 0.07501483708620071 0.5030555129051208
v 0.010841798037290573 0.0795750617980957 0.5035272836685181
v 0.011484630405902863 0.08174990862607956 0.500730037689209
v 0.016618281602859497 0.07648475468158722 0.49789026379585266
v 0.07250164449214935 0.09953227639198303 0.5042692422866821
v 0.03566152974963188 0.07956262677907944 0.48644253611564636
v 0.034000519663095474 0.08771808445453644 0.4911344051361084
v 0.08153963834047318 0.10507873445749283 0.5111532807350159
v 0.07836714386940002 0.10904151946306229 0.5194044709205627
v 0.08780620992183685 0.11105255782604218 0.5198649764060974
v 0.014759596437215805 0.09711375087499619 0.5221531987190247
v 0.06088339164853096 0.10752985626459122 0.5250476002693176
v 0.0749252662062645 0.10998640954494476 0.526128888130188
v 0.08608509600162506 0.11240182816982269 0.5270007848739624
v 0.09410040080547333 0.11462640762329102 0.5268895626068115
v 0.09521982073783875 0.11269088834524155 0.5190883874893188
v -0.0021244001109153032 0.11407211422920227 0.545217752456665
v -0.004375430755317211 0.11408686637878418 0.5402158498764038
v 0.10351110249757767 0.11603719741106033 0.5176386833190918
v 0.10202352702617645 0.11745080351829529 0.5266475081443787
v 0.07178152352571487 0.11020539700984955 0.5347641706466675
v 0.06840228289365768 0.1091998815536499 0.5447000861167908
v 0.058310866355895996 0.10767951607704163 0.5332553386688232
v 0.05375754088163376 0.10657663643360138 0.543217658996582
v 0.0161745585501194 0.10128697752952576 0.5317333936691284
v -0.011912964284420013 0.12551328539848328 0.5316519141197205
v -0.009014775976538658 0.11519898474216461 0.5350580811500549
v -0.014388231560587883 0.11251109093427658 0.5342363715171814
v -0.014778077602386475 0.1224946528673172 0.5297293066978455
v -0.00934240035712719 0.1095975935459137 0.5366761088371277
v -0.005810755304992199 0.11820638179779053 0.5389651656150818
v 0.050934888422489166 0.10179045796394348 0.554729700088501
v -0.004375419579446316 0.08284924179315567 0.5385670065879822
v 0.06722042709589005 0.10223135352134705 0.5581558346748352
v 0.04343758523464203 0.09536825865507126 0.5666740536689758
v 0.05552709847688675 0.09437214583158493 0.5695261359214783
v 0.08367304503917694 0.10118553042411804 0.5642337799072266
v 0.07107973098754883 0.0955909788608551 0.5714359879493713
v 0.10026498138904572 0.10525497794151306 0.5599073767662048
v 0.09174276143312454 0.10366281867027283 0.561141848564148
v 0.05876578018069267 0.08958650380373001 0.5775637626647949
v -0.025732621550559998 0.12207295000553131 0.5395007729530334
v -0.02371208369731903 0.11914175748825073 0.5348029136657715
v 0.099434494972229 0.11229623854160309 0.5517625212669373
v 0.04798201471567154 0.05838427320122719 0.5652555227279663
v 0.06706748157739639 0.06930378824472427 0.5223850011825562
v 0.06543351709842682 0.07142949104309082 0.527137279510498
v 0.07490287721157074 0.06681263446807861 0.5053039193153381
v 0.070175901055336 0.066083624958992 0.5158646106719971
v -0.024588366970419884 0.12562446296215057 0.5433586835861206
v 0.0005510719493031502 0.0832773745059967 0.5199456810951233
v 0.0018155225552618504 0.08622279763221741 0.5175015330314636
v 0.04844208434224129 0.0626739040017128 0.582477331161499
v 0.040737640112638474 0.06262978911399841 0.5834859013557434
v 0.03762708604335785 0.07497254759073257 0.5868709683418274
v 0.03944380208849907 0.06802639365196228 0.5875898599624634
v 0.04833865538239479 0.07046039402484894 0.5863631963729858
v 0.04680908843874931 0.07797178626060486 0.5854169130325317
v 0.07616660743951797 0.06825311481952667 0.5292732119560242
v 0.076587975025177 0.06743333488702774 0.5255934596061707
v 0.07598458975553513 0.0879829153418541 0.4978577494621277
v 0.07617432624101639 0.07657409459352493 0.49665018916130066
v 0.005744578782469034 0.09539980441331863 0.5604272484779358
v 0.012016555294394493 0.09484369307756424 0.5588167309761047
v 0.009193865582346916 0.09883932024240494 0.5553569197654724
v 0.007539397571235895 0.10407941788434982 0.5475503206253052
v -0.005343229044228792 0.08916996419429779 0.5372357964515686
v -0.0003586628008633852 0.09149723500013351 0.5420206785202026
v 0.0842708945274353 0.06417903304100037 0.5461764931678772
v 0.07239242643117905 0.06584984809160233 0.54095858335495
v 0.03725409507751465 0.06418667733669281 0.5655927062034607
v 0.03299127146601677 0.06738593429327011 0.5667791366577148
v 0.019658027216792107 0.07475726306438446 0.5307924747467041
v 0.009168172255158424 0.09465495496988297 0.5241826176643372
v 0.010221146047115326 0.09976240247488022 0.5317414402961731
v 0.008949927985668182 0.07574526965618134 0.5308330059051514
v -0.01804475672543049 0.1307002305984497 0.5429777503013611
v -0.02237365022301674 0.12842567265033722 0.5441182851791382
v 0.009884132072329521 0.09877509623765945 0.549882173538208
v 0.02552754618227482 0.07159058004617691 0.510109007358551
v 0.012363921850919724 0.09293021261692047 0.5194695591926575
v 0.005862206686288118 0.08852940052747726 0.5207871198654175
v 0.03668222576379776 0.07214993238449097 0.4879911541938782
v 0.10017625987529755 0.11579148471355438 0.539813756942749
v -0.019298121333122253 0.1120942085981369 0.5368918776512146
v -0.020146336406469345 0.1184772402048111 0.5310268998146057
v -0.010325146839022636 0.127946138381958 0.5347297191619873
v -0.011957686394453049 0.1301659196615219 0.5398121476173401
v 0.08547362685203552 0.07674829661846161 0.5018655061721802
v 0.06398572027683258 0.07253395020961761 0.5301945209503174
v 0.047585126012563705 0.08552230894565582 0.5805405378341675
v 0.03658391162753105 0.0807860866189003 0.5827410817146301
v -0.0002615065313875675 0.07838087528944016 0.5306753516197205
v 0.02821218967437744 0.08788206428289413 0.4971780776977539
v 0.019724709913134575 0.0958365947008133 0.5101505517959595
v 0.016910500824451447 0.0970539003610611 0.5090052485466003
v 0.011550752446055412 0.09767411649227142 0.5134053230285645
v 0.004468571860343218 0.09485536068677902 0.5147110223770142
v -0.013019368052482605 0.13154223561286926 0.5316858887672424
v -0.015566915273666382 0.13414576649665833 0.5356756448745728
v -0.021078212186694145 0.1344308704137802 0.5370097756385803
v -0.025047054514288902 0.1318652629852295 0.5381150841712952
v -0.026751713827252388 0.12758947908878326 0.5382332801818848
v -0.013804987072944641 0.12921229004859924 0.5285952091217041
v -0.015524227172136307 0.12650446593761444 0.5271704792976379
v -0.020045772194862366 0.12161977589130402 0.5290443301200867
v -0.013616399839520454 0.1309904158115387 0.5248916149139404
v -0.01415453664958477 0.13556495308876038 0.5258766412734985
v -0.025128822773694992 0.1411551833152771 0.5255740284919739
v -0.022129978984594345 0.1393536925315857 0.5297113060951233
v -0.021322298794984818 0.1403874009847641 0.5279039144515991
v -0.022877294570207596 0.14251750707626343 0.5240611433982849
v -0.02303966134786606 0.14500875771045685 0.5199161767959595
v -0.026039384305477142 0.1437550187110901 0.5211039185523987
v -0.017517464235424995 0.13824039697647095 0.5283631086349487
v -0.018910985440015793 0.14118967950344086 0.5231207609176636
v -0.01597439870238304 0.13917258381843567 0.5210410356521606
v -0.01660711131989956 0.14240139722824097 0.517085611820221
v -0.01926630362868309 0.1445595622062683 0.518840491771698
v -0.01528620719909668 0.13744153082370758 0.5249038934707642
v -0.017024578526616096 0.1375635862350464 0.5294864177703857
v -0.024783991277217865 0.1449858397245407 0.5172244906425476
v -0.022657528519630432 0.1461491882801056 0.5175188779830933
v -0.0198232252150774 0.1453942507505417 0.5162860155105591
v -0.021351061761379242 0.1448296457529068 0.513893723487854
v -0.025742165744304657 0.13500286638736725 0.5325307250022888
v -0.026955852285027504 0.13951939344406128 0.5254037380218506
v -0.027031760662794113 0.14113324880599976 0.5199683904647827
v -0.025679804384708405 0.14263519644737244 0.5161802768707275
v -0.027646971866488457 0.1364613175392151 0.5230819582939148
v -0.026846665889024734 0.13853520154953003 0.5188495516777039
v -0.025533922016620636 0.1394934058189392 0.5153335332870483
v -0.02661130018532276 0.13350898027420044 0.5205069780349731
v -0.025777071714401245 0.13616298139095306 0.5172079205513
v -0.02637556381523609 0.12647537887096405 0.5316581130027771
v -0.0268914382904768 0.12984409928321838 0.5335949659347534
v -0.025475945323705673 0.13738387823104858 0.5149398446083069
v -0.02183859795331955 0.14294713735580444 0.5130444765090942
v -0.014581488445401192 0.1358923763036728 0.5204505324363708
v -0.016383929178118706 0.139550119638443 0.5153838396072388
v -0.014753129333257675 0.13397681713104248 0.5194571614265442
v -0.01626225933432579 0.13740278780460358 0.5142121315002441
v -0.017382649704813957 0.1424727886915207 0.5128401517868042
v -0.01772489957511425 0.1437186896800995 0.5150741934776306
v -0.026166096329689026 0.12317812442779541 0.5361659526824951
v -0.02316996082663536 0.12085860222578049 0.5319181084632874
v -0.0225889440625906 0.12374841421842575 0.5282745361328125
v -0.023602893576025963 0.13093385100364685 0.518153727054596
v -0.019067827612161636 0.12412142753601074 0.5255137085914612
v -0.014915309846401215 0.12849487364292145 0.5231747031211853
v -0.016086682677268982 0.13239102065563202 0.5177938938140869
v -0.018851259723305702 0.13085609674453735 0.5171214938163757
v -0.017628418281674385 0.1352972835302353 0.514125406742096
v -0.019927315413951874 0.13421493768692017 0.5145106315612793
v -0.023431241512298584 0.13426199555397034 0.5153475999832153
v -0.019741415977478027 0.137881338596344 0.51223224401474
v -0.01815849356353283 0.1404198557138443 0.5121988654136658
v -0.022748131304979324 0.1397203505039215 0.5128301382064819
v -0.020668551325798035 0.13622938096523285 0.5129553079605103
v -0.02316848561167717 0.1373102068901062 0.5138764977455139
v -0.018672438338398933 0.10475628077983856 0.4995734989643097
v -0.013488424941897392 0.10257530957460403 0.4976072311401367
v -0.014959985390305519 0.0981239527463913 0.5043471455574036
v -0.018431657925248146 0.1010223925113678 0.5067182183265686
v -0.014830179512500763 0.11370617896318436 0.5087100863456726
v -0.01927666924893856 0.1112782284617424 0.5058690905570984
v -0.017018141224980354 0.10939745604991913 0.5122438669204712
v -0.010945264250040054 0.11108055710792542 0.5129460692405701
v -0.008830821141600609 0.11312410980463028 0.5083248615264893
v -0.005669852718710899 0.10897506773471832 0.5115565061569214
v -0.007299266289919615 0.11123483628034592 0.5156518220901489
v -0.013648321852087975 0.1083870679140091 0.5167050361633301
v -0.004193704575300217 0.09730114787817001 0.5318773984909058
v 0.0009860610589385033 0.10140430182218552 0.5298096537590027
v -0.004167104139924049 0.08196038007736206 0.5221682786941528
v -0.0019059859914705157 0.0844096839427948 0.5199030041694641
v -0.02017396129667759 0.10786178708076477 0.5022359490394592
v -0.019150475040078163 0.10542217642068863 0.5095796585083008
v -0.007866768166422844 0.0941040888428688 0.50398188829422
v -0.012770071625709534 0.09382913261651993 0.5061570405960083
v -0.011059889569878578 0.09664279967546463 0.5016831755638123
v -0.006349513307213783 0.09794588387012482 0.501273512840271
v -0.007894936949014664 0.08868485689163208 0.5312125086784363
v -0.005975249223411083 0.08377623558044434 0.5274933576583862
v -0.006845337804406881 0.09308367222547531 0.5315544009208679
v -0.002660413272678852 0.0978371873497963 0.5043986439704895
v 0.0005631260573863983 0.10320009291172028 0.5067558288574219
v 0.00769799342378974 0.09588393568992615 0.519097626209259
v 0.004464759025722742 0.09011317044496536 0.5172957181930542
v -0.017384350299835205 0.10450444370508194 0.5152918696403503
v -0.01656077802181244 0.0961516946554184 0.5095683932304382
v -0.01849602349102497 0.09955962747335434 0.5124537348747253
v -0.0018741018138825893 0.10864625871181488 0.5117840766906738
v -0.0019214833155274391 0.10596532374620438 0.5063619613647461
v -0.0008238065056502819 0.11625538766384125 0.49302881956100464
v -0.0021813581697642803 0.10720319300889969 0.5016542077064514
v -0.004345630761235952 0.10426202416419983 0.49819839000701904
v -0.0017289803363382816 0.11326272040605545 0.4893666207790375
v -0.00285380519926548 0.10164967179298401 0.5035462379455566
v -0.0038595511578023434 0.11058776825666428 0.505191445350647
v -0.014767587184906006 0.11451959609985352 0.4864836633205414
v -0.009262491017580032 0.11174511909484863 0.4847649335861206
v -0.01709901914000511 0.11766160279512405 0.4888914227485657
v 0.006142385769635439 0.10093094408512115 0.5244308114051819
v -0.014159588143229485 0.12271887063980103 0.4968302249908447
v -0.017565546557307243 0.12013205885887146 0.4922587275505066
v -0.008203653618693352 0.10225702822208405 0.4966750741004944
v -0.004416846204549074 0.11176060885190964 0.48606765270233154
v -0.002548718359321356 0.11935389041900635 0.49583935737609863
v -0.008339343592524529 0.12210939824581146 0.4990772306919098
v -0.002454468049108982 0.12238255888223648 0.4900240898132324
v -0.006830952130258083 0.12542514503002167 0.4925428330898285
v -0.01220540888607502 0.12635794281959534 0.4908500611782074
v -0.015640873461961746 0.12338808178901672 0.48794394731521606
v -0.015821613371372223 0.12007571011781693 0.48575785756111145
v -0.0011296342127025127 0.11986985802650452 0.4875854551792145
v -0.001714195590466261 0.11671984195709229 0.48454704880714417
v -0.004957151133567095 0.11388999223709106 0.4832533597946167
v -0.0020560361444950104 0.12143895030021667 0.47951745986938477
v -0.0030570251401513815 0.12560153007507324 0.48083141446113586
v -0.016791796311736107 0.13177403807640076 0.4722064733505249
v -0.015638796612620354 0.1304337978363037 0.4777282476425171
v -0.013349270448088646 0.13152611255645752 0.4773143231868744
v -0.014110254123806953 0.13261640071868896 0.47217491269111633
v -0.012978091835975647 0.13022124767303467 0.48295941948890686
v -0.011564897373318672 0.1308194100856781 0.48117324709892273
v -0.007254074327647686 0.1293358951807022 0.48148638010025024
v -0.009029872715473175 0.13002800941467285 0.475972980260849
v -0.005174519028514624 0.12734971940517426 0.4751465320587158
v -0.005807157140225172 0.1291501820087433 0.46999818086624146
v -0.00940680131316185 0.13224437832832336 0.4707176089286804
v -0.004732649307698011 0.12771931290626526 0.4791569411754608
v -0.013734446838498116 0.13309155404567719 0.4687114357948303
v -0.015293322503566742 0.1322118043899536 0.46689510345458984
v -0.006906433962285519 0.12911170721054077 0.48413482308387756
v -0.016066329553723335 0.12594056129455566 0.48520201444625854
v -0.017749223858118057 0.128328338265419 0.47704100608825684
v -0.01829138956964016 0.12930649518966675 0.47071248292922974
v -0.015510868281126022 0.12964095175266266 0.4652642607688904
v -0.018209444358944893 0.12481740117073059 0.47495996952056885
v -0.01802668161690235 0.12643375992774963 0.46924781799316406
v -0.015211423859000206 0.1269613355398178 0.46517103910446167
v -0.016729984432458878 0.12097810208797455 0.47277945280075073
v -0.01610516384243965 0.12308845669031143 0.4675782024860382
v -0.014951145276427269 0.11740010231733322 0.4825478792190552
v -0.017081575468182564 0.12141422182321548 0.4840536117553711
v -0.015065016224980354 0.1246500313282013 0.46574509143829346
v -0.010928476229310036 0.13216817378997803 0.46492522954940796
v -0.011878559365868568 0.12935040891170502 0.46333080530166626
v -0.010474950075149536 0.13253527879714966 0.46665316820144653
v -0.004099332261830568 0.12560299038887024 0.4744530916213989
v -0.005537253338843584 0.12725353240966797 0.4687599837779999
v -0.00382071896456182 0.12307766079902649 0.47321704030036926
v -0.005819110665470362 0.1254151463508606 0.4672006666660309
v -0.007220468018203974 0.12934353947639465 0.46507319808006287
v -0.0075469291768968105 0.13063928484916687 0.4661089777946472
v -0.01327967643737793 0.11673528701066971 0.4844515919685364
v -0.008660620078444481 0.1139373630285263 0.48304423689842224
v -0.010522708296775818 0.11444861441850662 0.4811892807483673
v -0.012432528659701347 0.11848115921020508 0.4714750647544861
v -0.006096718832850456 0.11458656191825867 0.48050355911254883
v -0.0031539383344352245 0.11791026592254639 0.4789985418319702
v -0.004746828228235245 0.12048976123332977 0.4724676012992859
v -0.007887903600931168 0.11854113638401031 0.4712733030319214
v -0.005844879429787397 0.12333748489618301 0.4664607048034668
v -0.008035777136683464 0.12109903991222382 0.4672737717628479
v -0.012787913903594017 0.12089640647172928 0.46693646907806396
v -0.008021030575037003 0.12578731775283813 0.4632411599159241
v -0.007479250896722078 0.1279808133840561 0.46396976709365845
v -0.012238714843988419 0.12717987596988678 0.4634386897087097
v -0.009199149906635284 0.12329268455505371 0.46436607837677
v -0.012712223455309868 0.12420541048049927 0.4644438624382019
v -0.0122032780200243 0.10932557284832001 0.49033594131469727
v -0.009220007807016373 0.10611332952976227 0.487354576587677
v -0.011040519922971725 0.09829840064048767 0.49007999897003174
v -0.013444576412439346 0.10265668481588364 0.49381303787231445
v -0.005752173718065023 0.11131612211465836 0.5011383295059204
v -0.009967908263206482 0.11214768886566162 0.4985402822494507
v -0.010725410655140877 0.10775704681873322 0.5006093978881836
v -0.005970710422843695 0.10665363073348999 0.5032961368560791
v -0.0004278956912457943 0.1106199324131012 0.5001634955406189
v -0.00047944067046046257 0.10569202899932861 0.5016330480575562
v -0.0017551626078784466 0.1072569191455841 0.5055705308914185
v -0.007946865633130074 0.10570833832025528 0.5042310357093811
v 0.001767246052622795 0.09802381694316864 0.5118798613548279
v 0.007857836782932281 0.10173830389976501 0.5109727382659912
v -0.011995041742920876 0.11139526218175888 0.49425891041755676
v -0.013078400865197182 0.10632218420505524 0.49731680750846863
v -0.0014867628924548626 0.09368898719549179 0.49063968658447266
v -0.005201250314712524 0.09316445142030716 0.49293142557144165
v -0.006361029576510191 0.09735677391290665 0.4878237843513489
v -0.0021514049731194973 0.09840557724237442 0.4880458414554596
v -0.0005920333787798882 0.08704438805580139 0.5106980800628662
v 0.003248430322855711 0.08425264805555344 0.5065351724624634
v -0.0013353526592254639 0.0927378386259079 0.5113154649734497
v 0.0028663300909101963 0.09703239798545837 0.49222642183303833
v 0.006070236209779978 0.10250212997198105 0.4965691566467285
v 0.013949355110526085 0.09646628797054291 0.5003353357315063
v 0.011269303038716316 0.09093565493822098 0.4990001320838928
v -0.010588379576802254 0.10257840156555176 0.5027563571929932
v -0.008881807327270508 0.09402728080749512 0.4960605204105377
v -0.011596441268920898 0.0979880839586258 0.49980396032333374
v 0.003602470736950636 0.10653839260339737 0.5019869208335876
v 0.0018140287138521671 0.10280105471611023 0.49682992696762085
v 0.009126832708716393 0.12033417075872421 0.48819583654403687
v 0.003204586450010538 0.1040128767490387 0.4912548363208771
v 0.00015021534636616707 0.10401679575443268 0.4871774911880493
v 0.007714864332228899 0.11962836235761642 0.48415762186050415
v 0.0012778607197105885 0.10003554821014404 0.49112802743911743
v 0.003328567836433649 0.10695666819810867 0.4965166449546814
v -0.00399824371561408 0.12527376413345337 0.48393768072128296
v -0.00074405362829566 0.12140880525112152 0.48157209157943726
v -0.004726774524897337 0.1262829452753067 0.48779383301734924
v 0.01325981691479683 0.1015952080488205 0.5063197612762451
v 0.0076724146492779255 0.08545408397912979 0.5011016726493835
v -0.0005212998948991299 0.12765923142433167 0.49349695444107056
v -0.0037834602408111095 0.127666637301445 0.4908028841018677
v -0.004230767022818327 0.10421101748943329 0.48640480637550354
v 0.00423692399635911 0.11973587423563004 0.48151925206184387
v 0.007702790666371584 0.12206269800662994 0.4918971359729767
v 0.003834089729934931 0.12477519363164902 0.49467021226882935
v 0.010554464533925056 0.12523534893989563 0.4880192279815674
v 0.007319352123886347 0.12875068187713623 0.49055394530296326
v 0.004552932921797037 0.13225078582763672 0.48988643288612366
v 0.001396129373461008 0.13277114927768707 0.4878312349319458
v -0.0004818900488317013 0.13174372911453247 0.4850466847419739
v 0.010798374190926552 0.12369664758443832 0.48404547572135925
v 0.008499329909682274 0.1230255588889122 0.4809151887893677
v 0.004967304412275553 0.12288963794708252 0.48065322637557983
v 0.012188265100121498 0.12424203753471375 0.47973769903182983
v 0.014442259445786476 0.12786103785037994 0.4830535650253296
v 0.015152068808674812 0.1415562927722931 0.4771253168582916
v 0.012326152995228767 0.13891467452049255 0.4805751144886017
v 0.013475822284817696 0.1383337676525116 0.4807901382446289
v 0.016641685739159584 0.14110061526298523 0.4775773286819458
v 0.010415477678179741 0.13534590601921082 0.48546892404556274
v 0.012567346915602684 0.13547086715698242 0.48449575901031494
v 0.01405804418027401 0.13216494023799896 0.48457419872283936
v 0.017183272168040276 0.13497325778007507 0.48003000020980835
v 0.017492635175585747 0.12990427017211914 0.47747114300727844
v 0.01933545432984829 0.13305963575839996 0.4746394753456116
v 0.019746052101254463 0.13771668076515198 0.4770815372467041
v 0.01564938761293888 0.12884792685508728 0.48210862278938293
v 0.018537098541855812 0.1414387822151184 0.47544172406196594
v 0.018133627250790596 0.14364385604858398 0.47505220770835876
v 0.011875657364726067 0.13176269829273224 0.4860343337059021
v 0.005917704198509455 0.13683971762657166 0.485371857881546
v 0.009973281994462013 0.14006377756595612 0.4796861410140991
v 0.012394355610013008 0.14332182705402374 0.4757099747657776
v 0.015314506366848946 0.1431349366903305 0.4726606011390686
v 0.007617192808538675 0.13901051878929138 0.4772084951400757
v 0.01055786944925785 0.14159876108169556 0.4737359285354614
v 0.013219589367508888 0.14173561334609985 0.4709327220916748
v 0.00638807425275445 0.1368960738182068 0.4751136898994446
v 0.00962805189192295 0.13902035355567932 0.47204524278640747
v 0.0006555155850946903 0.13142232596874237 0.4815042018890381
v 0.002724843565374613 0.13476260006427765 0.4837532639503479
v 0.012072006240487099 0.13993623852729797 0.4703475832939148
v 0.020923348143696785 0.14011725783348083 0.47321727871894836
v 0.01836295612156391 0.13946792483329773 0.46994268894195557
v 0.019931403920054436 0.13908156752586365 0.474459171295166
v 0.016714567318558693 0.12833744287490845 0.47674456238746643
v 0.019737521186470985 0.13167840242385864 0.4727279841899872
v 0.014757903292775154 0.12706857919692993 0.47484979033470154
v 0.0179037693887949 0.1304663121700287 0.4707821309566498
v 0.021148966625332832 0.135132297873497 0.47192850708961487
v 0.020722994580864906 0.13559937477111816 0.47293877601623535
v -0.0008339486084878445 0.12829601764678955 0.4827200174331665
v 0.0013285228051245213 0.12492410838603973 0.4805435240268707
v 0.001540804747492075 0.12784366309642792 0.4792567491531372
v 0.0071611166931688786 0.1336594820022583 0.47250014543533325
v 0.0044668191112577915 0.12474605441093445 0.47860008478164673
v 0.009533056989312172 0.12463079392910004 0.47733229398727417
v 0.01222597248852253 0.1276974081993103 0.4730500876903534
v 0.00972616858780384 0.13018158078193665 0.47194749116897583
v 0.015379564836621284 0.13064301013946533 0.46937716007232666
v 0.012828467413783073 0.13215678930282593 0.46991264820098877
v 0.010060952976346016 0.13601577281951904 0.4696868062019348
v 0.016686836257576942 0.1345234513282776 0.46896064281463623
v 0.019415685907006264 0.1344987154006958 0.46976757049560547
v 0.015621544793248177 0.13882231712341309 0.46873950958251953
v 0.01430162601172924 0.13466638326644897 0.4687451720237732
v 0.013355100527405739 0.13791808485984802 0.46852803230285645
v 0.005924252327531576 0.08345083892345428 0.5032902359962463
v 0.0003643203526735306 0.081915482878685 0.47847408056259155
v -3.1855423003435135e-05 0.07821644842624664 0.4776109755039215
v 0.004166462924331427 0.07558342814445496 0.4814070761203766
v 0.004042196553200483 0.07900127023458481 0.4831508696079254
v 0.009275063872337341 0.08611882477998734 0.47350627183914185
v 0.005308919120579958 0.08639214932918549 0.47621485590934753
v 0.007992664352059364 0.08543926477432251 0.48010456562042236
v 0.011860216036438942 0.08592284470796585 0.476895809173584
v 0.011371975764632225 0.08340782672166824 0.47004279494285583
v 0.01387939602136612 0.08345042169094086 0.473019540309906
v 0.012928532436490059 0.08778959512710571 0.4792211651802063
v 0.010021325200796127 0.08624681085348129 0.4829251170158386
v 0.01949053630232811 0.08636387437582016 0.49304407835006714
v 0.023380286991596222 0.08854001760482788 0.4904169738292694
v 0.030750306323170662 0.0728926807641983 0.4867321252822876
v 0.028516966849565506 0.07021721452474594 0.49104881286621094
v 0.022154293954372406 0.07260201126337051 0.48771995306015015
v 0.025357432663440704 0.07349235564470291 0.4847447872161865
v 0.002199774142354727 0.08487191051244736 0.47783952951431274
v 0.004567159339785576 0.08288167417049408 0.4823678731918335
v 0.015443544834852219 0.07223423570394516 0.47892826795578003
v 0.01177775114774704 0.07232289016246796 0.4819260835647583
v 0.006050340365618467 0.07227538526058197 0.47992563247680664
v 0.009526684880256653 0.07119505852460861 0.4768156111240387
v 0.024273497983813286 0.07122772186994553 0.49427321553230286
v 0.02163558453321457 0.07295434176921844 0.49704521894454956
v 0.01809929497539997 0.075450599193573 0.494620680809021
v 0.018938228487968445 0.073541559278965 0.49087268114089966
v 0.016131414100527763 0.08017795532941818 0.4958525002002716
v 0.017532523721456528 0.07474164664745331 0.475948691368103
v 0.017807643860578537 0.07962475717067719 0.4741188883781433
v 0.029735146090388298 0.08084101974964142 0.48191678524017334
v 0.028803659602999687 0.07655268907546997 0.48331281542778015
v 0.007547817658632994 0.08310919255018234 0.4854995012283325
v 0.00852474756538868 0.0745953917503357 0.4837633967399597
v 0.007830934599041939 0.07845577597618103 0.4857240617275238
v 0.015338845551013947 0.08529718965291977 0.4748038649559021
v 0.014413533732295036 0.07786742597818375 0.47183915972709656
v 0.001329625491052866 0.07629349827766418 0.46353429555892944
v 0.008292250335216522 0.07317893952131271 0.4717046022415161
v 0.004004661459475756 0.07255013287067413 0.47370320558547974
v -0.001228197244927287 0.07676038891077042 0.46387872099876404
v 0.013270942494273186 0.07341156899929047 0.4737684726715088
v 0.011419028043746948 0.07755621522665024 0.469831645488739
v -0.005095889326184988 0.08636624366044998 0.46744030714035034
v -0.00535473832860589 0.08161250501871109 0.46710896492004395
v -0.002963429316878319 0.08838546276092529 0.46755078434944153
v 0.027049662545323372 0.0876607671380043 0.4848119914531708
v 0.003322883043438196 0.08776823431253433 0.46512171626091003
v -0.00012661004438996315 0.0895189493894577 0.4664123058319092
v 0.0012406734749674797 0.07485933601856232 0.47603362798690796
v -0.003314293920993805 0.07847853749990463 0.4654482305049896
v 0.004121074918657541 0.07823017239570618 0.4631190598011017
v 0.005800270941108465 0.08380676805973053 0.46320319175720215
v 0.003046287689357996 0.0786663144826889 0.45928043127059937
v 0.00464635482057929 0.08438028395175934 0.4602537155151367
v 0.002014756668359041 0.08942468464374542 0.4612925052642822
v -0.0008467934094369411 0.09071085602045059 0.4624355137348175
v -0.0038788332603871822 0.0901985913515091 0.4630025625228882
v -5.467003211379051e-05 0.07707992941141129 0.4592174291610718
v -0.0030045663006603718 0.0777636244893074 0.4597788155078888
v -0.005526859778910875 0.07954332232475281 0.4616152048110962
v 0.00040569016709923744 0.07873383164405823 0.45442014932632446
v 0.004752664361149073 0.08130377531051636 0.4536365270614624
v 0.0026832525618374348 0.09322375059127808 0.44710394740104675
v 0.002110001165419817 0.09224189817905426 0.45061400532722473
v 0.0031153452582657337 0.09154121577739716 0.45071306824684143
v 0.0038295541889965534 0.09318584948778152 0.44715651869773865
v 0.0026805424131453037 0.09050087630748749 0.45533499121665955
v 0.0038064387626945972 0.08962658047676086 0.4541294276714325
v 0.004977651406079531 0.0864253044128418 0.4544352889060974
v 0.005822714883834124 0.08820372074842453 0.4501085877418518
v 0.005144708324223757 0.08347350358963013 0.44790977239608765
v 0.005848065484315157 0.0854836031794548 0.4446064233779907
v 0.006640967447310686 0.08947445452213287 0.44690489768981934
v 0.005664078984409571 0.08318346738815308 0.4523118734359741
v 0.005074747372418642 0.09338557720184326 0.44498974084854126
v 0.004423093516379595 0.09412992000579834 0.444037526845932
v 0.004653504583984613 0.08635617792606354 0.4561768174171448
v -0.0010397969745099545 0.09185623377561569 0.45734626054763794
v 6.848620250821114e-05 0.09324982762336731 0.45018109679222107
v 0.0013613482005894184 0.09419865161180496 0.4457571506500244
v 0.0028556478209793568 0.09353907406330109 0.44275879859924316
v -0.0022969464771449566 0.09235133230686188 0.4509608745574951
v -0.0008455994538962841 0.09369271993637085 0.4452596604824066
v 0.0005500842817127705 0.09283456206321716 0.44231683015823364
v -0.004823030438274145 0.09028840065002441 0.451190710067749
v -0.0025804745964705944 0.09160026162862778 0.44566255807876587
v -0.006566732656210661 0.08821529895067215 0.4591561555862427
v -0.0039316932670772076 0.09071113914251328 0.45844656229019165
v -0.0005646939389407635 0.09158925712108612 0.44319891929626465
v 0.006168973166495562 0.09115127474069595 0.44252827763557434
v 0.0036586937494575977 0.09087983518838882 0.4411218464374542
v 0.00691241817548871 0.09060452878475189 0.44363734126091003
v 0.004261907655745745 0.0822489857673645 0.44783297181129456
v 0.004895054269582033 0.08466382324695587 0.4436038136482239
v 0.001628559548407793 0.08119425177574158 0.4477115273475647
v 0.0027643037028610706 0.08442255854606628 0.4429234564304352
v 0.005649123806506395 0.08757784962654114 0.4417755603790283
v 0.006435856688767672 0.08786161243915558 0.4433150589466095
v -0.006460359785705805 0.08761671185493469 0.46298763155937195
v -0.006665676366537809 0.08314130455255508 0.4633409380912781
v -0.00720162084326148 0.08409218490123749 0.45926544070243835
v -0.005890875589102507 0.08683210611343384 0.45086729526519775
v -0.0058481949381530285 0.08042411506175995 0.4573604464530945
v -0.002681612502783537 0.07886192202568054 0.45573318004608154
v -0.001158540602773428 0.08181585371494293 0.44838717579841614
v -0.003949364181607962 0.08356566727161407 0.44930413365364075
v 0.000585638452321291 0.08515664935112 0.44292962551116943
v -0.0019605751149356365 0.08651189506053925 0.44396746158599854
v -0.003348346333950758 0.08883543312549591 0.4451894760131836
v 0.0017215465195477009 0.08833549916744232 0.4412343204021454
v 0.0035814200527966022 0.08794161677360535 0.440903902053833
v 0.0015950617380440235 0.09048423171043396 0.44139277935028076
v -0.00013357726857066154 0.08863513171672821 0.4419947862625122
v -0.0005490551702678204 0.08997012674808502 0.4424988329410553
v 0.030781498178839684 0.07603645324707031 0.48453572392463684
v 0.02095256745815277 0.07530102878808975 0.5793137550354004
v 0.021179068833589554 0.07412306219339371 0.5738549828529358
v 0.02509373240172863 0.05805278941988945 0.5732640027999878
v 0.02262950874865055 0.06390631943941116 0.5694261789321899
v 0.026038512587547302 0.056188054382801056 0.5800530314445496
v 0.0255294069647789 0.06217063218355179 0.5890970826148987
v 0.027033783495426178 0.05838271975517273 0.585428774356842
v 0.021554475650191307 0.06956751644611359 0.5700688362121582
v 0.022041289135813713 0.07389073073863983 0.5846416354179382
v 0.024109743535518646 0.06859713792800903 0.5894328355789185
v 0.011078918352723122 0.06997857242822647 0.5860974192619324
v 0.01393960788846016 0.06359151005744934 0.5901819467544556
v 0.016199510544538498 0.0564107708632946 0.5889091491699219
v 0.019739795476198196 0.053958408534526825 0.5837364196777344
v 0.02092745713889599 0.052966583520174026 0.5791216492652893
v 0.013344451785087585 0.07252472639083862 0.5788814425468445
v 0.014641869813203812 0.07183307409286499 0.5733463168144226
v 0.01726716011762619 0.06735645234584808 0.5694548487663269
v 0.005973557475954294 0.0689791664481163 0.5758799314498901
v 0.0002340809442102909 0.0609324686229229 0.5754414796829224
v 0.0004496634937822819 0.04238496720790863 0.569680392742157
v 0.005208405200392008 0.04507545009255409 0.5732898116111755
v 0.0029863626696169376 0.04664604365825653 0.5740755796432495
v -0.001275958027690649 0.04376192390918732 0.571099579334259
v 0.006592935416847467 0.04827646166086197 0.5776249170303345
v 0.004713783506304026 0.04943462461233139 0.5768340826034546
v 0.0028761685825884342 0.054657965898513794 0.5775055289268494
v -0.001028881873935461 0.05161207914352417 0.5743523240089417
v 0.0004968778230249882 0.05823452025651932 0.5748882293701172
v -0.002004703041166067 0.05703030526638031 0.5715603232383728
v -0.00475851958617568 0.048970311880111694 0.5711487531661987
v -0.004861784633249044 0.043488599359989166 0.5697216987609863
v -0.007563961204141378 0.04667764902114868 0.5683398246765137
v -0.00392522057518363 0.04222497344017029 0.5671957731246948
v 0.0011969045735895634 0.05510195717215538 0.5806789398193359
v 0.01312914676964283 0.048496682196855545 0.5785696506500244
v 0.008563637733459473 0.044736091047525406 0.5719972848892212
v 0.0029912726022303104 0.04247245937585831 0.5671918988227844
v -0.0023085041902959347 0.04264752194285393 0.5645661950111389
v 0.011062998324632645 0.04602471739053726 0.5688536167144775
v 0.005482808221131563 0.04481799528002739 0.5646241307258606
v 0.0003925398923456669 0.04573120176792145 0.5622287392616272
v 0.011704843491315842 0.04956239089369774 0.5656828880310059
v 0.00599153945222497 0.048214707523584366 0.5628453493118286
v 0.01953921653330326 0.05483344942331314 0.571739673614502
v 0.018131135031580925 0.05052116513252258 0.5758695602416992
v 0.0019468837417662144 0.0479191392660141 0.5618886351585388
v -0.008393825963139534 0.04597342014312744 0.5660547018051147
v -0.006564737763255835 0.04667650908231735 0.563220739364624
v -0.0017513087950646877 0.060027871280908585 0.5702987313270569
v -0.006017328705638647 0.0546540766954422 0.569052517414093
v -0.0054423934780061245 0.05640660226345062 0.5669713616371155
v 0.0003833831287920475 0.06269557774066925 0.5683992505073547
v -0.004177117254585028 0.057699695229530334 0.564734935760498
v -0.008289122954010963 0.05189426243305206 0.5655255913734436
v -0.007881341502070427 0.05112011730670929 0.5679844617843628
v 0.021722188219428062 0.05561261624097824 0.5731897950172424
v 0.020303668454289436 0.06143370270729065 0.5696438550949097
v 0.017959950491786003 0.061061784625053406 0.5689849257469177
v 0.010523004457354546 0.055709242820739746 0.5638576149940491
v 0.013863736763596535 0.06636609137058258 0.5682700872421265
v 0.009264511987566948 0.06932123005390167 0.5717918872833252
v 0.003014566842466593 0.06312187016010284 0.565690279006958
v 0.007065900135785341 0.06089141592383385 0.5639513731002808
v -0.001327404286712408 0.057467296719551086 0.5626164674758911
v 0.0012904875911772251 0.0561651811003685 0.5618782043457031
v 0.00432794401422143 0.05215861648321152 0.5614221096038818
v -0.0036997771821916103 0.05294119566679001 0.5616123080253601
v -0.006638800259679556 0.05289263650774956 0.563109815120697
v -0.0030215433798730373 0.04865561053156853 0.5614200830459595
v -0.0009873672388494015 0.0532253235578537 0.5614538192749023
v 3.158906474709511e-05 0.05029365047812462 0.5613018870353699
v 0.034878671169281006 0.0686570256948471 0.4926356077194214
v 0.031191768124699593 0.06851349771022797 0.4977826476097107
v 0.03843604028224945 0.06762359291315079 0.497935950756073
v 0.04815448448061943 0.06711623072624207 0.49973610043525696
v 0.05844686180353165 0.06886863708496094 0.4965449273586273
v 0.04616625979542732 0.06821233779191971 0.5060350298881531
v 0.036272212862968445 0.06878603994846344 0.5036060810089111
v 0.02580263279378414 0.0709245577454567 0.5025472640991211
v 0.05253147706389427 0.07013677805662155 0.514025092124939
f 2 3 1
f 1 3 4
f 5 6 8
f 8 6 7
f 9 4 10
f 10 4 3
f 12 13 11
f 11 13 9
f 14 12 16
f 16 12 15
f 18 19 17
f 17 19 20
f 22 23 21
f 21 23 24
f 26 27 25
f 25 27 28
f 30 31 29
f 29 31 32
f 33 34 36
f 36 34 35
f 37 38 40
f 40 38 39
f 41 42 6
f 6 42 43
f 6 43 7
f 7 43 44
f 45 34 46
f 46 34 33
f 48 49 47
f 47 49 50
f 52 53 51
f 51 53 54
f 56 52 55
f 55 52 51
f 58 59 57
f 57 59 60
f 61 62 4
f 4 62 1
f 64 65 63
f 63 65 66
f 68 69 67
f 67 69 70
f 72 73 71
f 71 73 74
f 76 77 75
f 75 77 78
f 53 79 54
f 54 79 80
f 82 83 81
f 81 83 84
f 85 86 52
f 52 86 53
f 57 60 87
f 87 60 88
f 89 90 43
f 43 90 44
f 43 42 89
f 89 42 91
f 40 39 92
f 92 39 93
f 94 70 64
f 64 70 69
f 13 61 9
f 9 61 4
f 25 28 69
f 69 28 95
f 96 25 68
f 68 25 69
f 98 99 97
f 97 99 100
f 101 102 104
f 104 102 103
f 106 30 105
f 105 30 29
f 51 54 107
f 107 54 108
f 54 80 108
f 108 80 109
f 111 112 110
f 110 112 113
f 115 5 114
f 114 5 116
f 115 41 5
f 5 41 6
f 36 35 111
f 111 35 117
f 35 118 117
f 117 118 119
f 34 120 35
f 35 120 118
f 34 45 120
f 120 45 121
f 125 126 124
f 124 126 127
f 128 129 14
f 14 129 130
f 33 131 46
f 46 131 132
f 133 94 63
f 63 94 64
f 134 135 137
f 137 135 136
f 139 140 138
f 138 140 141
f 77 142 78
f 78 142 143
f 144 145 20
f 20 145 146
f 148 149 147
f 147 149 72
f 151 152 150
f 150 152 153
f 82 101 83
f 83 101 104
f 101 82 155
f 155 82 154
f 156 157 58
f 58 157 59
f 158 68 147
f 147 68 67
f 159 146 15
f 15 146 16
f 68 158 96
f 96 158 160
f 129 66 130
f 130 66 65
f 162 163 161
f 161 163 164
f 166 167 165
f 165 167 168
f 170 171 169
f 169 171 172
f 174 171 173
f 173 171 170
f 176 177 175
f 175 177 178
f 180 181 179
f 179 181 24
f 182 183 21
f 21 183 184
f 81 185 82
f 82 185 154
f 186 187 188
f 188 187 144
f 158 71 160
f 160 71 189
f 190 135 157
f 157 135 59
f 169 172 139
f 139 172 140
f 147 72 158
f 158 72 71
f 192 193 191
f 191 193 194
f 167 166 49
f 49 166 195
f 196 190 50
f 50 190 157
f 197 198 200
f 200 198 199
f 21 24 182
f 182 24 181
f 146 159 20
f 20 159 17
f 182 181 81
f 81 181 185
f 201 185 180
f 180 185 181
f 202 203 83
f 83 203 84
f 205 206 204
f 204 206 85
f 207 22 184
f 184 22 21
f 179 24 208
f 208 24 23
f 208 209 179
f 179 209 205
f 209 210 205
f 205 210 206
f 212 206 211
f 211 206 210
f 179 205 180
f 180 205 204
f 213 176 88
f 88 176 214
f 86 85 212
f 212 85 206
f 193 217 218
f 217 219 218
f 218 219 220
f 219 18 220
f 220 18 17
f 19 221 20
f 20 221 144
f 222 223 225
f 225 223 224
f 175 226 176
f 176 226 214
f 227 87 214
f 214 87 88
f 220 17 228
f 228 17 159
f 134 213 60
f 60 213 88
f 138 229 151
f 151 229 152
f 193 192 210
f 210 192 211
f 230 194 218
f 218 194 193
f 231 232 228
f 228 232 230
f 233 234 91
f 91 234 89
f 235 236 93
f 93 236 92
f 230 232 234
f 234 232 237
f 47 238 48
f 48 238 239
f 240 191 235
f 235 191 236
f 5 8 116
f 116 8 241
f 242 243 189
f 189 243 160
f 244 245 98
f 98 245 99
f 156 246 47
f 47 246 238
f 76 247 77
f 77 247 248
f 250 125 249
f 249 125 124
f 252 253 251
f 251 253 254
f 111 110 36
f 36 110 255
f 256 33 255
f 255 33 36
f 257 258 154
f 154 258 155
f 63 169 133
f 133 169 139
f 66 170 63
f 63 170 169
f 173 170 129
f 129 170 66
f 129 128 173
f 173 128 259
f 128 260 259
f 259 260 261
f 213 134 262
f 262 134 137
f 263 264 186
f 186 264 187
f 112 265 113
f 113 265 266
f 11 267 268
f 234 233 230
f 230 233 194
f 153 269 70
f 70 269 67
f 175 178 165
f 165 178 141
f 150 153 94
f 94 153 70
f 271 221 270
f 270 221 207
f 269 153 272
f 272 153 152
f 121 45 109
f 109 45 108
f 47 50 156
f 156 50 157
f 57 273 58
f 58 273 274
f 145 275 260
f 260 275 261
f 276 149 143
f 143 149 78
f 148 269 75
f 75 269 272
f 207 277 270
f 270 277 278
f 195 196 49
f 49 196 50
f 59 135 60
f 60 135 134
f 83 104 202
f 202 104 279
f 149 148 78
f 78 148 75
f 247 278 248
f 248 278 277
f 183 182 84
f 84 182 81
f 48 239 281
f 281 239 282
f 227 223 283
f 283 223 222
f 223 226 224
f 224 226 168
f 281 282 224
f 224 282 225
f 165 168 175
f 175 168 226
f 264 263 138
f 138 263 229
f 14 16 128
f 128 16 260
f 220 228 218
f 218 228 230
f 87 227 284
f 284 227 283
f 260 16 145
f 145 16 146
f 244 98 258
f 258 98 155
f 58 274 156
f 156 274 246
f 107 285 51
f 51 285 55
f 243 286 160
f 160 286 96
f 234 237 89
f 89 237 90
f 46 132 107
f 107 132 285
f 253 252 249
f 249 252 250
f 286 26 96
f 96 26 25
f 106 105 287
f 287 105 288
f 272 152 289
f 289 152 229
f 138 151 139
f 139 151 133
f 183 290 161
f 161 290 162
f 291 292 277
f 277 292 293
f 151 150 133
f 133 150 94
f 262 275 177
f 177 275 187
f 144 187 145
f 145 187 275
f 273 57 284
f 284 57 87
f 174 136 190
f 190 136 135
f 111 117 112
f 112 117 38
f 117 119 38
f 38 119 123
f 112 38 265
f 265 38 37
f 287 288 254
f 254 288 251
f 228 159 231
f 231 159 15
f 223 227 226
f 226 227 214
f 147 67 148
f 148 67 269
f 224 168 281
f 281 168 167
f 199 163 200
f 200 163 162
f 45 46 108
f 108 46 107
f 281 167 48
f 48 167 49
f 161 164 291
f 291 164 292
f 38 123 39
f 293 294 277
f 277 294 248
f 284 283 296
f 296 283 295
f 284 296 273
f 273 296 297
f 274 273 298
f 298 273 297
f 246 274 299
f 299 274 298
f 283 222 295
f 295 222 300
f 222 225 300
f 300 225 301
f 301 225 302
f 302 225 282
f 303 304 300
f 300 304 295
f 306 307 305
f 305 307 308
f 309 310 308
f 308 310 305
f 308 307 312
f 312 307 311
f 313 314 312
f 312 314 315
f 311 316 312
f 312 316 313
f 317 304 311
f 311 304 316
f 315 309 312
f 312 309 308
f 318 319 321
f 321 319 320
f 319 318 309
f 309 318 310
f 311 307 317
f 317 307 306
f 306 297 317
f 317 297 296
f 306 322 297
f 297 322 298
f 305 323 306
f 306 323 322
f 323 305 324
f 324 305 310
f 304 317 295
f 295 317 296
f 318 325 310
f 310 325 324
f 323 324 326
f 326 324 327
f 324 325 327
f 327 325 328
f 326 327 329
f 329 327 330
f 329 331 326
f 326 331 332
f 333 330 328
f 328 330 327
f 323 326 322
f 322 326 332
f 322 332 298
f 298 332 299
f 325 318 334
f 334 318 321
f 313 316 335
f 335 316 304
f 335 336 313
f 313 336 314
f 304 303 335
f 335 303 337
f 336 335 338
f 338 335 337
f 336 339 314
f 314 339 340
f 246 299 238
f 238 299 341
f 239 342 282
f 282 342 302
f 342 239 341
f 341 239 238
f 341 331 342
f 342 331 343
f 331 329 343
f 343 329 344
f 342 343 302
f 302 343 345
f 341 299 331
f 331 299 332
f 346 301 345
f 345 301 302
f 346 303 301
f 301 303 300
f 347 337 346
f 346 337 303
f 347 346 348
f 348 346 345
f 349 347 350
f 350 347 348
f 343 344 345
f 345 344 348
f 344 351 348
f 348 351 350
f 337 347 338
f 338 347 349
f 353 338 352
f 352 338 349
f 352 355 354
f 354 355 356
f 352 349 355
f 355 349 350
f 352 354 353
f 353 354 334
f 353 334 339
f 339 334 321
f 339 336 353
f 353 336 338
f 329 330 344
f 344 330 351
f 356 351 333
f 333 351 330
f 356 355 351
f 351 355 350
f 354 356 328
f 328 356 333
f 328 325 354
f 354 325 334
f 309 315 319
f 319 315 320
f 320 340 321
f 321 340 339
f 320 315 340
f 340 315 314
f 137 136 261
f 261 136 259
f 140 166 141
f 141 166 165
f 172 171 195
f 195 171 196
f 171 174 196
f 196 174 190
f 178 177 264
f 264 177 187
f 172 195 140
f 140 195 166
f 137 261 262
f 262 261 275
f 178 264 141
f 141 264 138
f 262 177 213
f 213 177 176
f 136 174 259
f 259 174 173
f 358 359 357
f 357 359 360
f 362 363 361
f 361 363 364
f 361 364 365
f 365 364 366
f 367 368 370
f 370 368 369
f 76 371 247
f 247 371 372
f 373 374 362
f 362 374 363
f 376 377 375
f 375 377 378
f 289 229 380
f 380 229 379
f 381 379 263
f 263 379 229
f 383 384 382
f 382 384 385
f 386 368 374
f 374 368 363
f 76 289 371
f 371 289 380
f 377 376 359
f 359 376 387
f 388 386 360
f 360 386 374
f 389 383 366
f 366 383 390
f 392 393 391
f 391 393 394
f 383 382 390
f 390 382 395
f 396 365 390
f 390 365 366
f 389 366 367
f 367 366 364
f 357 397 358
f 358 397 398
f 373 399 357
f 357 399 397
f 389 367 400
f 400 367 370
f 382 385 375
f 375 385 372
f 357 360 373
f 373 360 374
f 361 401 362
f 362 401 402
f 387 388 359
f 359 388 360
f 363 368 364
f 364 368 367
f 358 398 403
f 403 398 404
f 396 392 405
f 405 392 391
f 392 395 393
f 393 395 378
f 393 403 394
f 394 403 404
f 375 378 382
f 382 378 395
f 365 396 406
f 406 396 405
f 362 402 373
f 373 402 399
f 271 270 400
f 400 270 384
f 401 361 406
f 406 361 365
f 381 369 386
f 386 369 368
f 392 396 395
f 395 396 390
f 393 378 403
f 403 378 377
f 403 377 358
f 358 377 359
f 406 405 408
f 408 405 407
f 406 408 401
f 401 408 409
f 401 409 402
f 402 409 410
f 402 410 399
f 399 410 411
f 405 391 407
f 407 391 412
f 391 394 412
f 412 394 413
f 394 404 413
f 413 404 414
f 415 416 412
f 412 416 407
f 418 419 417
f 417 419 420
f 421 422 418
f 418 422 419
f 419 422 424
f 424 422 423
f 425 426 424
f 424 426 427
f 423 428 424
f 424 428 425
f 427 420 424
f 424 420 419
f 420 429 417
f 417 429 430
f 423 422 431
f 431 422 421
f 421 409 431
f 431 409 408
f 421 432 409
f 409 432 410
f 418 433 421
f 421 433 432
f 434 433 417
f 417 433 418
f 431 416 423
f 423 416 428
f 416 431 407
f 407 431 408
f 435 434 430
f 430 434 417
f 433 434 436
f 436 434 437
f 434 435 437
f 437 435 438
f 436 437 439
f 439 437 440
f 439 441 436
f 436 441 442
f 438 443 437
f 437 443 440
f 436 442 433
f 433 442 432
f 432 442 410
f 410 442 411
f 435 430 445
f 445 430 444
f 430 429 444
f 444 429 446
f 425 428 447
f 447 428 416
f 426 425 448
f 448 425 447
f 416 415 447
f 447 415 449
f 447 449 448
f 448 449 450
f 451 452 448
f 448 452 426
f 446 452 444
f 444 452 451
f 399 411 397
f 397 411 453
f 398 454 404
f 404 454 414
f 454 398 453
f 453 398 397
f 453 441 454
f 454 441 455
f 441 439 455
f 455 439 456
f 454 455 414
f 414 455 457
f 441 453 442
f 442 453 411
f 458 413 457
f 457 413 414
f 458 415 413
f 413 415 412
f 458 459 415
f 415 459 449
f 459 458 460
f 460 458 457
f 461 459 462
f 462 459 460
f 455 456 457
f 457 456 460
f 456 463 460
f 460 463 462
f 459 461 449
f 449 461 450
f 465 450 464
f 464 450 461
f 464 467 466
f 466 467 468
f 464 461 467
f 467 461 462
f 464 466 465
f 465 466 445
f 465 445 451
f 451 445 444
f 451 448 465
f 465 448 450
f 439 440 456
f 456 440 463
f 468 463 443
f 443 463 440
f 468 467 463
f 463 467 462
f 466 468 438
f 438 468 443
f 438 435 466
f 466 435 445
f 420 427 429
f 429 427 446
f 446 427 452
f 452 427 426
f 370 369 188
f 188 369 186
f 371 376 372
f 372 376 375
f 380 379 387
f 387 379 388
f 379 381 388
f 388 381 386
f 385 384 278
f 278 384 270
f 380 387 371
f 371 387 376
f 400 370 271
f 271 370 188
f 385 278 372
f 372 278 247
f 400 384 389
f 389 384 383
f 369 381 186
f 186 381 263
f 221 271 144
f 144 271 188
f 221 19 207
f 207 19 22
f 19 18 22
f 22 18 23
f 18 219 23
f 23 219 208
f 469 470 472
f 472 470 471
f 474 475 473
f 473 475 476
f 473 476 477
f 477 476 478
f 480 481 479
f 479 481 482
f 483 484 474
f 474 484 475
f 486 487 485
f 485 487 488
f 489 490 77
f 77 490 142
f 491 489 248
f 248 489 77
f 493 494 492
f 492 494 495
f 496 480 484
f 484 480 475
f 486 497 487
f 487 497 471
f 498 496 472
f 472 496 484
f 499 493 478
f 478 493 500
f 501 502 504
f 504 502 503
f 493 492 500
f 500 492 505
f 506 477 500
f 500 477 478
f 499 478 479
f 479 478 476
f 469 507 470
f 470 507 508
f 483 509 469
f 469 509 507
f 479 482 499
f 499 482 510
f 492 495 485
f 485 495 511
f 483 469 484
f 484 469 472
f 473 512 474
f 474 512 513
f 497 498 471
f 471 498 472
f 475 480 476
f 476 480 479
f 470 508 514
f 514 508 515
f 506 502 516
f 516 502 501
f 503 502 488
f 488 502 505
f 514 515 503
f 503 515 504
f 485 488 492
f 492 488 505
f 477 506 517
f 517 506 516
f 474 513 483
f 483 513 509
f 510 292 494
f 494 292 164
f 512 473 517
f 517 473 477
f 491 481 496
f 496 481 480
f 502 506 505
f 505 506 500
f 503 488 514
f 514 488 487
f 514 487 470
f 470 487 471
f 517 516 519
f 519 516 518
f 517 519 512
f 512 519 520
f 512 520 513
f 513 520 521
f 513 521 509
f 509 521 522
f 516 501 518
f 518 501 523
f 501 504 523
f 523 504 524
f 524 504 525
f 525 504 515
f 526 527 523
f 523 527 518
f 529 530 528
f 528 530 531
f 532 533 529
f 529 533 530
f 530 533 535
f 535 533 534
f 536 537 535
f 535 537 538
f 534 539 535
f 535 539 536
f 538 531 535
f 535 531 530
f 540 541 531
f 531 541 528
f 533 532 534
f 534 532 542
f 532 520 542
f 542 520 519
f 532 543 520
f 520 543 521
f 529 544 532
f 532 544 543
f 544 529 545
f 545 529 528
f 534 542 539
f 539 542 527
f 527 542 518
f 518 542 519
f 541 546 528
f 528 546 545
f 547 544 548
f 548 544 545
f 546 549 545
f 545 549 548
f 550 547 551
f 551 547 548
f 547 550 553
f 553 550 552
f 549 554 548
f 548 554 551
f 544 547 543
f 543 547 553
f 543 553 521
f 521 553 522
f 546 541 556
f 556 541 555
f 541 540 555
f 555 540 557
f 536 539 558
f 558 539 527
f 537 536 559
f 559 536 558
f 527 526 558
f 558 526 560
f 559 558 561
f 561 558 560
f 559 562 537
f 537 562 563
f 557 563 555
f 555 563 562
f 509 522 507
f 507 522 564
f 508 565 515
f 515 565 525
f 565 508 564
f 564 508 507
f 564 552 565
f 565 552 566
f 552 550 566
f 566 550 567
f 565 566 525
f 525 566 568
f 564 522 552
f 552 522 553
f 569 524 568
f 568 524 525
f 569 526 524
f 524 526 523
f 570 560 569
f 569 560 526
f 570 569 571
f 571 569 568
f 572 570 573
f 573 570 571
f 566 567 568
f 568 567 571
f 567 574 571
f 571 574 573
f 570 572 560
f 560 572 561
f 576 561 575
f 575 561 572
f 575 578 577
f 577 578 579
f 575 572 578
f 578 572 573
f 575 577 576
f 576 577 556
f 576 556 562
f 562 556 555
f 562 559 576
f 576 559 561
f 550 551 567
f 567 551 574
f 579 574 554
f 554 574 551
f 579 578 574
f 574 578 573
f 579 554 577
f 577 554 549
f 549 546 577
f 577 546 556
f 531 538 540
f 540 538 557
f 557 538 563
f 563 538 537
f 481 294 482
f 482 294 293
f 580 486 511
f 511 486 485
f 490 489 497
f 497 489 498
f 489 491 498
f 498 491 496
f 163 495 164
f 164 495 494
f 580 490 486
f 486 490 497
f 482 293 510
f 510 293 292
f 495 163 511
f 511 163 199
f 494 493 510
f 510 493 499
f 481 491 294
f 294 491 248
f 582 583 581
f 581 583 584
f 586 587 585
f 585 587 588
f 585 588 589
f 589 588 590
f 592 593 591
f 591 593 594
f 595 596 598
f 598 596 597
f 599 600 586
f 586 600 587
f 601 602 604
f 604 602 603
f 605 606 608
f 608 606 607
f 609 607 200
f 200 607 606
f 610 611 613
f 613 611 612
f 600 614 587
f 587 614 592
f 596 605 597
f 597 605 608
f 602 615 603
f 603 615 583
f 616 614 584
f 584 614 600
f 611 618 617
f 617 618 590
f 620 621 619
f 619 621 622
f 610 623 611
f 611 623 618
f 624 589 618
f 618 589 590
f 617 590 591
f 591 590 588
f 581 625 582
f 582 625 626
f 599 627 581
f 581 627 625
f 591 594 617
f 617 594 628
f 601 610 598
f 598 610 613
f 581 584 599
f 599 584 600
f 585 629 586
f 586 629 630
f 615 616 583
f 583 616 584
f 587 592 588
f 588 592 591
f 582 626 631
f 631 626 632
f 624 620 633
f 633 620 619
f 621 620 604
f 604 620 623
f 631 632 621
f 621 632 622
f 610 601 623
f 623 601 604
f 589 624 634
f 634 624 633
f 586 630 599
f 599 630 627
f 203 202 628
f 628 202 612
f 629 585 634
f 634 585 589
f 609 593 614
f 614 593 592
f 620 624 623
f 623 624 618
f 631 621 603
f 603 621 604
f 582 631 583
f 583 631 603
f 634 633 636
f 636 633 635
f 634 636 629
f 629 636 637
f 629 637 630
f 630 637 638
f 630 638 627
f 627 638 639
f 633 619 635
f 635 619 640
f 619 622 640
f 640 622 641
f 641 622 642
f 642 622 632
f 644 635 643
f 643 635 640
f 645 646 648
f 648 646 647
f 649 650 646
f 646 650 647
f 647 650 652
f 652 650 651
f 652 653 655
f 655 653 654
f 651 656 652
f 652 656 653
f 655 648 652
f 652 648 647
f 648 657 645
f 645 657 658
f 650 649 651
f 651 649 659
f 649 637 659
f 659 637 636
f 649 660 637
f 637 660 638
f 661 660 646
f 646 660 649
f 662 661 645
f 645 661 646
f 651 659 656
f 656 659 644
f 644 659 635
f 635 659 636
f 663 662 658
f 658 662 645
f 664 661 665
f 665 661 662
f 663 666 662
f 662 666 665
f 667 664 668
f 668 664 665
f 664 667 670
f 670 667 669
f 666 671 665
f 665 671 668
f 661 664 660
f 660 664 670
f 660 670 638
f 638 670 639
f 658 672 663
f 663 672 673
f 658 657 672
f 672 657 674
f 653 656 675
f 675 656 644
f 653 675 654
f 654 675 676
f 675 644 677
f 677 644 643
f 676 675 678
f 678 675 677
f 679 680 676
f 676 680 654
f 674 680 672
f 672 680 679
f 627 639 625
f 625 639 681
f 626 682 632
f 632 682 642
f 681 682 625
f 625 682 626
f 669 683 681
f 681 683 682
f 667 684 669
f 669 684 683
f 682 683 642
f 642 683 685
f 681 639 669
f 669 639 670
f 686 641 685
f 685 641 642
f 641 686 640
f 640 686 643
f 686 687 643
f 643 687 677
f 687 686 688
f 688 686 685
f 689 687 690
f 690 687 688
f 683 684 685
f 685 684 688
f 684 691 688
f 688 691 690
f 687 689 677
f 677 689 678
f 693 678 692
f 692 678 689
f 692 695 694
f 694 695 696
f 692 689 695
f 695 689 690
f 692 694 693
f 693 694 673
f 693 673 679
f 679 673 672
f 679 676 693
f 693 676 678
f 684 667 691
f 691 667 668
f 696 691 671
f 671 691 668
f 696 695 691
f 691 695 690
f 694 696 666
f 666 696 671
f 666 663 694
f 694 663 673
f 648 655 657
f 657 655 674
f 674 655 680
f 680 655 654
f 593 162 594
f 594 162 290
f 598 597 601
f 601 597 602
f 615 608 616
f 616 608 607
f 607 609 616
f 616 609 614
f 697 595 613
f 613 595 598
f 597 608 602
f 602 608 615
f 594 290 628
f 628 290 203
f 628 612 617
f 617 612 611
f 593 609 162
f 162 609 200
f 105 29 698
f 698 29 699
f 268 126 701
f 701 126 700
f 126 125 700
f 700 125 702
f 252 703 250
f 250 703 704
f 32 268 705
f 705 268 701
f 288 105 706
f 706 105 698
f 29 32 699
f 699 32 705
f 707 251 706
f 706 251 288
f 250 704 125
f 125 704 702
f 703 252 707
f 707 252 251
f 706 708 707
f 707 708 709
f 707 709 703
f 703 709 710
f 703 710 704
f 704 710 711
f 704 711 702
f 702 711 712
f 706 698 708
f 708 698 713
f 698 699 713
f 713 699 714
f 699 705 714
f 714 705 715
f 717 708 716
f 716 708 713
f 719 720 718
f 718 720 721
f 722 723 719
f 719 723 720
f 724 725 723
f 723 725 720
f 724 726 725
f 725 726 727
f 728 721 725
f 725 721 720
f 721 728 729
f 729 728 730
f 729 731 721
f 721 731 718
f 724 723 732
f 732 723 722
f 722 710 732
f 732 710 709
f 722 733 710
f 710 733 711
f 719 734 722
f 722 734 733
f 734 719 735
f 735 719 718
f 724 732 726
f 726 732 717
f 717 732 708
f 708 732 709
f 731 736 718
f 718 736 735
f 737 734 738
f 738 734 735
f 736 739 735
f 735 739 738
f 740 737 741
f 741 737 738
f 737 740 743
f 743 740 742
f 739 744 738
f 738 744 741
f 734 737 733
f 733 737 743
f 733 743 711
f 711 743 712
f 736 731 746
f 746 731 745
f 731 729 745
f 745 729 730
f 727 726 747
f 747 726 717
f 748 727 749
f 749 727 747
f 747 717 750
f 750 717 716
f 749 747 751
f 751 747 750
f 749 752 748
f 748 752 753
f 730 753 745
f 745 753 752
f 728 725 748
f 748 725 727
f 730 728 753
f 753 728 748
f 700 702 754
f 754 702 712
f 705 701 715
f 715 701 755
f 754 755 700
f 700 755 701
f 742 756 754
f 754 756 755
f 740 757 742
f 742 757 756
f 755 756 715
f 715 756 758
f 754 712 742
f 742 712 743
f 759 714 758
f 758 714 715
f 714 759 713
f 713 759 716
f 759 760 716
f 716 760 750
f 760 759 761
f 761 759 758
f 762 760 763
f 763 760 761
f 756 757 758
f 758 757 761
f 757 764 761
f 761 764 763
f 760 762 750
f 750 762 751
f 766 751 765
f 765 751 762
f 767 765 769
f 769 765 768
f 765 762 768
f 768 762 763
f 765 767 766
f 766 767 746
f 766 746 752
f 752 746 745
f 752 749 766
f 766 749 751
f 757 740 764
f 764 740 741
f 769 764 744
f 744 764 741
f 769 768 764
f 764 768 763
f 767 769 739
f 739 769 744
f 739 736 767
f 767 736 746
f 219 217 208
f 208 217 209
f 209 217 210
f 210 217 193
f 198 580 199
f 199 580 511
f 76 75 289
f 289 75 272
f 277 207 291
f 291 207 184
f 290 183 203
f 203 183 84
f 490 580 142
f 142 580 198
f 142 198 143
f 143 198 197
f 149 276 72
f 72 276 73
f 104 103 279
f 279 103 770
f 770 596 279
f 279 596 595
f 605 596 771
f 771 596 770
f 771 770 772
f 772 770 103
f 772 103 773
f 773 103 102
f 155 774 101
f 101 774 102
f 773 102 97
f 97 102 774
f 775 773 100
f 100 773 97
f 773 775 772
f 772 775 776
f 772 776 771
f 771 776 777
f 200 606 197
f 197 606 777
f 189 71 778
f 778 71 74
f 97 774 98
f 98 774 155
f 183 161 184
f 184 161 291
f 777 276 197
f 197 276 143
f 777 606 771
f 771 606 605
f 613 612 697
f 697 612 202
f 595 697 279
f 279 697 202
f 73 276 776
f 776 276 777
f 776 775 73
f 73 775 74
f 100 778 775
f 775 778 74
f 778 100 189
f 189 100 99
f 245 242 99
f 99 242 189
f 131 33 256
f 28 1 95
f 95 1 62
f 27 2 28
f 28 2 1
f 265 115 266
f 266 115 114
f 95 62 69
f 69 62 64
f 62 61 64
f 64 61 65
f 61 13 65
f 65 13 130
f 13 12 130
f 130 12 14
f 31 11 32
f 32 11 268
f 15 12 31
f 31 12 11
f 31 30 15
f 15 30 231
f 30 106 231
f 231 106 232
f 287 237 106
f 106 237 232
f 254 90 287
f 287 90 237
f 253 44 254
f 254 44 90
f 253 249 44
f 44 249 7
f 267 127 268
f 268 127 126
f 10 3 241
f 241 3 116
f 3 2 116
f 116 2 114
f 2 27 114
f 114 27 266
f 27 26 266
f 266 26 113
f 26 286 113
f 113 286 110
f 286 243 110
f 110 243 255
f 243 242 255
f 255 242 256
f 242 245 256
f 256 245 131
f 245 244 131
f 131 244 132
f 265 37 115
f 115 37 41
f 41 37 42
f 42 37 40
f 92 91 40
f 40 91 42
f 236 233 92
f 92 233 91
f 191 194 236
f 236 194 233
f 258 285 244
f 244 285 132
f 257 55 258
f 258 55 285
f 257 154 201
f 201 154 185
f 56 201 204
f 204 201 180
f 55 257 56
f 56 257 201
f 204 85 56
f 56 85 52
f 86 122 53
f 53 122 79
f 212 215 86
f 86 215 122
f 211 216 212
f 212 216 215
f 192 280 211
f 211 280 216
f 191 240 192
f 192 240 280
f 249 124 7
f 7 124 8
f 124 127 8
f 8 127 241
f 127 267 241
f 241 267 10
f 10 267 9
f 9 267 11
