v 0.0365169495344162 0.07811781764030457 0.5795543193817139
v 0.048070065677165985 0.07333219796419144 0.5805052518844604
v 0.04041440784931183 0.07102003693580627 0.588665246963501
v 0.030793899670243263 0.0749000534415245 0.5867627859115601
v 0.05915533006191254 0.07122457027435303 0.6010146737098694
v 0.06492210924625397 0.07818379253149033 0.6075466275215149
v 0.04761028289794922 0.07946629077196121 0.611699104309082
v 0.04484423249959946 0.07271037995815277 0.6059930920600891
v 0.02533923275768757 0.07612935453653336 0.5919671654701233
v 0.0332193598151207 0.0713954046368599 0.593917965888977
v 0.02430681698024273 0.08338717371225357 0.5925953388214111
v 0.017133450135588646 0.09021109342575073 0.5947216153144836
v 0.017714114859700203 0.0829821303486824 0.5932469367980957
v 0.009984580799937248 0.09363571554422379 0.5949395298957825
v 0.0237653236836195 0.09973055869340897 0.5941247344017029
v 0.012316660955548286 0.1015387624502182 0.5906100273132324
v 0.031528539955616 0.11290296167135239 0.5753027200698853
v 0.03492261469364166 0.11400927603244781 0.5632551908493042
v 0.018810072913765907 0.11221493780612946 0.5618703365325928
v 0.01731259748339653 0.11040818691253662 0.5745569467544556
v 0.02893560193479061 0.10936741530895233 0.5446339845657349
v 0.02203947864472866 0.11115271598100662 0.5538855791091919
v 0.03872555494308472 0.11377142369747162 0.5553615689277649
v 0.04401102662086487 0.11159473657608032 0.5469650030136108
v 0.04459097981452942 0.08325383067131042 0.5668919682502747
v 0.05581115931272507 0.08071114867925644 0.5660222768783569
v 0.05368945002555847 0.07802826911211014 0.5709430575370789
v 0.042657144367694855 0.08170455694198608 0.5715664029121399
v 0.026107417419552803 0.09377577155828476 0.5962746739387512
v 0.032860688865184784 0.09682054817676544 0.5987107157707214
v 0.027152517810463905 0.09216412156820297 0.5949599146842957
v 0.024199089035391808 0.0884007140994072 0.5946462154388428
v 0.08151084184646606 0.07542025297880173 0.5578041076660156
v 0.09335687011480331 0.08118610829114914 0.5600759387016296
v 0.09268402308225632 0.08158068358898163 0.565991997718811
v 0.08205389231443405 0.07639674097299576 0.5626761317253113
v 0.08547449856996536 0.07978449761867523 0.5918569564819336
v 0.09219418466091156 0.08438455313444138 0.5850740075111389
v 0.09628713876008987 0.09393329918384552 0.5939334034919739
v 0.08787282556295395 0.0928787887096405 0.5983447432518005
v 0.07624776661396027 0.07802882045507431 0.600895345211029
v 0.07920672744512558 0.08916899561882019 0.604710042476654
v 0.06599870324134827 0.08921021223068237 0.6096372008323669
v 0.048500314354896545 0.08878454566001892 0.6122908592224121
v 0.09485509246587753 0.08308739960193634 0.5474991798400879
v 0.08653388917446136 0.07866720110177994 0.5440359711647034
v -0.030497441068291664 0.12304937839508057 0.5794461965560913
v -0.02985372021794319 0.12160159647464752 0.5738129615783691
v -0.028967062011361122 0.11491961032152176 0.5777093172073364
v -0.02903955616056919 0.11768028885126114 0.5824123620986938
v 0.08823078125715256 0.09726959466934204 0.5350276231765747
v 0.08680475503206253 0.1072293221950531 0.5358476042747498
v 0.09395391494035721 0.10611949115991592 0.5356186628341675
v 0.09549150615930557 0.09691298753023148 0.5367166996002197
v 0.07857175171375275 0.09753505885601044 0.5329532623291016
v 0.07679957151412964 0.10807681083679199 0.5367085933685303
v -0.02000267058610916 0.12816959619522095 0.5827736854553223
v -0.024819809943437576 0.1272849291563034 0.5840655565261841
v -0.02199552208185196 0.12271326780319214 0.5861466526985168
v -0.01682833395898342 0.12290267646312714 0.5837640762329102
v 0.02119426056742668 0.07938652485609055 0.5884158611297607
v 0.026302048936486244 0.07975821942090988 0.5806089043617249
v -0.001989453099668026 0.08438781648874283 0.5882704854011536
v 0.011614235118031502 0.0819118544459343 0.5835257768630981
v 0.011043498292565346 0.0825406089425087 0.5908669233322144
v 0.0008272640407085419 0.08626997470855713 0.5937519073486328
v 0.022155890241265297 0.08436066657304764 0.5618783831596375
v 0.03386484086513519 0.08464546501636505 0.5631468296051025
v 0.030870897695422173 0.08430793881416321 0.5688592791557312
v 0.01770079880952835 0.08343009650707245 0.5692629814147949
v 0.03814546763896942 0.08182219415903091 0.5499848127365112
v 0.026252200827002525 0.08212853968143463 0.5497844219207764
v 0.029820775613188744 0.08029309660196304 0.5422748923301697
v 0.037808217108249664 0.07960754632949829 0.5437976121902466
v 0.0033774450421333313 0.08308956772089005 0.5532587170600891
v -0.006116272881627083 0.08459543436765671 0.553090512752533
v -0.002284931018948555 0.08341952413320541 0.5467851161956787
v 0.006217282265424728 0.08391144871711731 0.5492386221885681
v 0.10098156332969666 0.10610954463481903 0.5358593463897705
v 0.1022256463766098 0.09696878492832184 0.539238452911377
v 0.03922232985496521 0.10151568055152893 0.5276350378990173
v 0.045273780822753906 0.09365947544574738 0.5223005414009094
v 0.03415888547897339 0.09201974421739578 0.5188467502593994
v 0.030813852325081825 0.10058080404996872 0.5255287289619446
v 0.08367002755403519 0.11489555239677429 0.5421110391616821
v 0.09114530682563782 0.11483555287122726 0.5398054718971252
v -0.01574420928955078 0.12784259021282196 0.578227162361145
v -0.013682996854186058 0.12265883386135101 0.578560471534729
v 0.06635340303182602 0.09892358630895615 0.6050505638122559
v 0.04870282858610153 0.09651293605566025 0.6082361340522766
v 0.07917910069227219 0.10072120279073715 0.6007439494132996
v 0.08746512234210968 0.10328593850135803 0.5964761972427368
v 0.09543758630752563 0.10519638657569885 0.5953462719917297
v 0.0074032973498106 0.08164038509130478 0.5778219699859619
v 0.03267160803079605 0.08214907348155975 0.5741363763809204
v 0.046225808560848236 0.08335884660482407 0.5623343586921692
v 0.05090886354446411 0.07549874484539032 0.5331894159317017
v 0.06150771677494049 0.07525771856307983 0.5349385738372803
v 0.05579623579978943 0.07516825944185257 0.5438327789306641
v 0.04769612103700638 0.07606223970651627 0.540382444858551
v 0.0456242561340332 0.08406657725572586 0.5212088823318481
v 0.0423840656876564 0.07817696779966354 0.5255320072174072
v 0.03227539360523224 0.07843197882175446 0.5231760144233704
v 0.03481125831604004 0.08362940698862076 0.5186702609062195
v 0.02779342792928219 0.0984506756067276 0.6014447212219238
v 0.03836175799369812 0.10025893896818161 0.6020365953445435
v 0.08897950500249863 0.08720328658819199 0.5378299355506897
v 0.09560170024633408 0.08808646351099014 0.5416272878646851
v 0.10319804400205612 0.09077023714780807 0.543820858001709
v 0.06903789937496185 0.07674422115087509 0.5636206269264221
v 0.082560695707798 0.07673919945955276 0.5663995146751404
v 0.08179549872875214 0.07562720030546188 0.5720100998878479
v 0.06862103939056396 0.07611189037561417 0.5670198202133179
v 0.060087256133556366 0.06887615472078323 0.5853521823883057
v 0.0723000317811966 0.07108493149280548 0.5900876522064209
v 0.04911696910858154 0.06800930947065353 0.5942660570144653
v 0.09362121671438217 0.08235637843608856 0.5745056867599487
v 0.10238464921712875 0.08368416875600815 0.5678355097770691
v 0.10197695344686508 0.08536691963672638 0.5766763687133789
v 0.10333887487649918 0.08447770774364471 0.5581181049346924
v 0.10367081314325333 0.08667703717947006 0.5494890213012695
v 0.09896332770586014 0.11765282601118088 0.5382002592086792
v 0.10048206150531769 0.08869955688714981 0.5844452381134033
v 0.0351753756403923 0.07473255693912506 0.6066439151763916
v 0.026160093024373055 0.07758819311857224 0.6063737273216248
v 0.02458225004374981 0.0773424506187439 0.5991042256355286
v 0.03203701972961426 0.07385489344596863 0.5991705656051636
v 0.002290160395205021 0.0988679975271225 0.5940960645675659
v 0.00045408960431814194 0.0919886976480484 0.5960333347320557
v 0.011206541210412979 0.08673462271690369 0.5958902835845947
v 0.07194801419973373 0.07441890984773636 0.5514262318611145
v 0.07672131806612015 0.07685700058937073 0.5400964617729187
v -0.005639029201120138 0.08561036735773087 0.5823448896408081
v -0.012068506330251694 0.12177732586860657 0.5829048752784729
v -0.016348982229828835 0.12029966711997986 0.5868966579437256
v -0.0048384214751422405 0.1107296496629715 0.5896269083023071
v -0.0018765144050121307 0.11355267465114594 0.5847036838531494
v -0.011583460494875908 0.09553269296884537 0.5756952166557312
v -0.010727888904511929 0.09182635694742203 0.5816441178321838
v -0.012731721624732018 0.09642990678548813 0.580232560634613
v -0.013399943709373474 0.09928050637245178 0.5746015906333923
v 0.005246284417808056 0.08410374820232391 0.5408679246902466
v 0.01131625846028328 0.08378259092569351 0.5424413084983826
v 0.002888062968850136 0.10528803616762161 0.5731218457221985
v 0.006975937634706497 0.10620415210723877 0.5839512944221497
v 0.01590828225016594 0.107924684882164 0.5832683444023132
v 0.025303905829787254 0.08357661962509155 0.5551536679267883
v 0.014591367915272713 0.08310797065496445 0.5533316731452942
v 0.01594911888241768 0.08295854926109314 0.5493457913398743
v 0.003885788843035698 0.08268607407808304 0.5742911696434021
v -0.006433034315705299 0.08615945279598236 0.5760935544967651
v -0.0017045577988028526 0.08530569076538086 0.5708470344543457
v 0.00795922800898552 0.08362407237291336 0.56911700963974
v 0.05746164172887802 0.0962049812078476 0.5255900025367737
v 0.05828800052404404 0.08481522649526596 0.5240097045898438
v -0.02862386219203472 0.125242680311203 0.5830603837966919
v -0.026234183460474014 0.12021584808826447 0.585667610168457
v 0.03669612854719162 0.08387092500925064 0.5565369725227356
v 0.02898131124675274 0.10886390507221222 0.5832494497299194
v 0.04803982377052307 0.08265596628189087 0.5572805404663086
v 0.012562176212668419 0.1010206788778305 0.5346187949180603
v 0.012951472774147987 0.09536805748939514 0.5315061807632446
v 0.00784473679959774 0.09435049444437027 0.5315862894058228
v 0.005537837743759155 0.09895037859678268 0.5327171087265015
v -0.020697293803095818 0.11084596812725067 0.569545567035675
v -0.024383435025811195 0.11024169623851776 0.5740600824356079
v -0.027210336178541183 0.11365470290184021 0.5718480944633484
v -0.022987864911556244 0.11409273743629456 0.5682973265647888
v -0.00929863378405571 0.09231844544410706 0.5873681306838989
v -0.006469355896115303 0.09377971291542053 0.592897355556488
v -0.011312520131468773 0.10061571002006531 0.5900697708129883
v -0.01275990903377533 0.09818904846906662 0.5850796699523926
v -0.004403473809361458 0.09996368736028671 0.5939179062843323
v -0.008145070634782314 0.10585906356573105 0.591585099697113
v -0.01486707292497158 0.1138865053653717 0.568681001663208
v -0.009440147317945957 0.11826261132955551 0.5721943974494934
v -0.0031302948482334614 0.11017116904258728 0.5725813508033752
v -0.009761815890669823 0.10563932359218597 0.5717214345932007
v 0.05825173109769821 0.11477825045585632 0.5494191646575928
v 0.062023185193538666 0.11087238788604736 0.5398268699645996
v 0.04802160710096359 0.10757418721914291 0.537140965461731
v 0.03457608073949814 0.10525615513324738 0.5341880917549133
v 0.021334556862711906 0.10223913192749023 0.5326672792434692
v 0.015621824190020561 0.10843101143836975 0.5419834852218628
v 0.05202546715736389 0.10432421416044235 0.5309935212135315
v -0.007716343738138676 0.10134702920913696 0.5703551769256592
v -0.0008166404440999031 0.10406578332185745 0.5755066275596619
v -0.0026740115135908127 0.10401131957769394 0.571534276008606
v 0.04959402233362198 0.079946368932724 0.5505855679512024
v -0.019898399710655212 0.11770346760749817 0.5876630544662476
v 0.08432797342538834 0.11867932975292206 0.5837762355804443
v 0.08433283120393753 0.12251289188861847 0.5716617703437805
v 0.07592079788446426 0.12048512697219849 0.5731791853904724
v 0.07578283548355103 0.11568552255630493 0.5857638120651245
v -0.025381028652191162 0.11107537895441055 0.5808475017547607
v -0.023978009819984436 0.11400078237056732 0.585719108581543
v 0.012061923742294312 0.08427268266677856 0.5357366800308228
v 0.007498163729906082 0.08571182191371918 0.5361637473106384
v 0.007847731932997704 0.0885276272892952 0.5326519012451172
v 0.010852552950382233 0.08649956434965134 0.5306775569915771
v 0.06525623053312302 0.10829303413629532 0.5356811881065369
v 0.02781849540770054 0.09081292152404785 0.5171372890472412
v 0.026571223512291908 0.0990392193198204 0.5232785940170288
v 0.07430410385131836 0.11382850259542465 0.5426076650619507
v 0.07112236320972443 0.11779338121414185 0.5508697032928467
v 0.08057825267314911 0.11980342119932175 0.5513346791267395
v 0.005379753187298775 0.10539643466472626 0.5529168844223022
v 0.05356866866350174 0.11634761840105057 0.5564855933189392
v 0.06767210364341736 0.11875420063734055 0.5575894713401794
v 0.07885412871837616 0.12115772813558578 0.5584685206413269
v 0.08687948435544968 0.1233866959810257 0.5583592057228088
v 0.08799809962511063 0.12145528942346573 0.5505582690238953
v -0.009828388690948486 0.12042339146137238 0.5772168040275574
v -0.012850459665060043 0.12056589126586914 0.5729823708534241
v 0.09629719704389572 0.12480318546295166 0.5491059422492981
v 0.09481094032526016 0.12621313333511353 0.5581153035163879
v 0.06453500688076019 0.11897075921297073 0.5662145018577576
v 0.06127425283193588 0.11776960641145706 0.5757630467414856
v 0.051017433404922485 0.1164751946926117 0.5646886825561523
v 0.04656008630990982 0.11524119973182678 0.5744398236274719
v 0.008112819865345955 0.11011229455471039 0.5628883838653564
v -0.018634721636772156 0.1356004923582077 0.5653282403945923
v -0.016494181007146835 0.12422139942646027 0.5678231716156006
v -0.021581705659627914 0.12175960838794708 0.566028356552124
v -0.02090328000485897 0.13248120248317719 0.5627634525299072
v -0.017507819458842278 0.11663433909416199 0.5688056349754333
v -0.013930941000580788 0.12627321481704712 0.5724229216575623
v 0.04401373118162155 0.11011956632137299 0.5847159624099731
v -0.011628256179392338 0.09220755845308304 0.570240318775177
v 0.06026808172464371 0.11072531342506409 0.5876511335372925
v 0.03663995862007141 0.10440751165151596 0.594704270362854
v 0.04840337485074997 0.1042044386267662 0.5971503257751465
v 0.07638588547706604 0.11048264056444168 0.5939165353775024
v 0.06351129710674286 0.10616441071033478 0.5989948511123657
v 0.09306167811155319 0.11413373053073883 0.591137707233429
v 0.08452222496271133 0.11265207082033157 0.5918974280357361
v 0.051144324243068695 0.10232140123844147 0.6026979088783264
v -0.033234432339668274 0.1300315409898758 0.5704929232597351
v -0.030254950746893883 0.12785106897354126 0.565883457660675
v 0.09225422143936157 0.12105070054531097 0.5831470489501953
v 0.0390264093875885 0.0704275369644165 0.5982914566993713
v 0.05986405164003372 0.07804645597934723 0.5538720488548279
v 0.0582931712269783 0.08002323657274246 0.5586696863174438
v 0.06767536699771881 0.07566763460636139 0.5367072224617004
v 0.06293842941522598 0.074921153485775 0.5473203659057617
v -0.03289377689361572 0.1330896019935608 0.5748583674430847
v -0.007433198392391205 0.0880194753408432 0.5504255294799805
v -0.004994519986212254 0.08609090000391006 0.5462895035743713
v 0.03754511475563049 0.08070018142461777 0.6120074391365051
v 0.02881733514368534 0.0818660706281662 0.6118895411491394
v 0.028127627447247505 0.09464837610721588 0.6106886267662048
v 0.028400259092450142 0.08828827738761902 0.6136029958724976
v 0.03838711977005005 0.08911056816577911 0.6128365397453308
v 0.03827131539583206 0.09593772143125534 0.6092001795768738
v 0.0690380185842514 0.07681631296873093 0.5609091520309448
v 0.06937339901924133 0.07619667053222656 0.5570936799049377
v 0.06874515861272812 0.09673868119716644 0.5292369723320007
v 0.06894343346357346 0.08532734960317612 0.5280120372772217
v -0.0012808535248041153 0.10424473136663437 0.591488778591156
v 0.0049639008939266205 0.1036195307970047 0.5896669030189514
v 0.001983853057026863 0.10761288553476334 0.5863062143325806
v -2.111680805683136e-05 0.11247532069683075 0.5784561038017273
v -0.012179732322692871 0.09855782240629196 0.5687440633773804
v -0.0076304045505821705 0.10022961348295212 0.5733752250671387
v 0.07747571915388107 0.07285479456186295 0.5798864960670471
v 0.06605114042758942 0.07289354503154755 0.5743776559829712
v 0.028768694028258324 0.07575511932373047 0.5956016778945923
v 0.023788651451468468 0.0811036080121994 0.5944031476974487
v 0.012538747861981392 0.08365226536989212 0.5623119473457336
v 0.0003684787079691887 0.10081411898136139 0.554732084274292
v 0.0034242458641529083 0.10741335153579712 0.5629969835281372
v 0.0018007000908255577 0.0845278799533844 0.5624690055847168
v -0.026828449219465256 0.13864964246749878 0.5760552883148193
v -0.031048037111759186 0.13587521016597748 0.5762540102005005
v 0.0025264956057071686 0.10746314376592636 0.5808253288269043
v 0.019015133380889893 0.08096075803041458 0.5417668223381042
v -0.001223633997142315 0.0975896492600441 0.5485929846763611
v -0.0032761716283857822 0.09314092993736267 0.5508849024772644
v 0.02822881005704403 0.08403012901544571 0.5172577500343323
v 0.09297410398721695 0.12455005943775177 0.5712655782699585
v -0.026786724105477333 0.12117236107587814 0.5680587291717529
v -0.026050852611660957 0.127895787358284 0.5627229809761047
v -0.017746511846780777 0.13770826160907745 0.5688673853874207
v -0.020336046814918518 0.1388731598854065 0.5738895535469055
v 0.07826270908117294 0.08547831326723099 0.5332836508750916
v 0.05692661553621292 0.08093137294054031 0.5617719888687134
v 0.04037642478942871 0.10086649656295776 0.6035973429679871
v 0.028233664110302925 0.0985260158777237 0.6055362224578857
v -0.008021442219614983 0.08699086308479309 0.5624433755874634
v 0.0200477447360754 0.09891650080680847 0.5296827554702759
v 0.006133813410997391 0.1043766662478447 0.5402761101722717
v -0.0018577929586172104 0.10064831376075745 0.5360888242721558
v -0.007424361538141966 0.09585334360599518 0.538780689239502
v -0.008593818172812462 0.08909174799919128 0.5401367545127869
v -0.019941240549087524 0.1414380669593811 0.5653333067893982
v -0.023553505539894104 0.14353546500205994 0.5691243410110474
v -0.029288465157151222 0.1430579572916031 0.569376528263092
v -0.033318325877189636 0.1396772861480713 0.5699987411499023
v -0.03462837636470795 0.1351383626461029 0.5697914958000183
v -0.020351195707917213 0.1388656049966812 0.5621876120567322
v -0.021760495379567146 0.13572512567043304 0.5606549382209778
v -0.026165245100855827 0.13047759234905243 0.56165611743927
v -0.01967500150203705 0.13955692946910858 0.5585761070251465
v -0.020470093935728073 0.14409416913986206 0.5590709447860718
v -0.031839463859796524 0.14854979515075684 0.5564104318618774
v -0.02933194302022457 0.1474359631538391 0.5612829327583313
v -0.028308197855949402 0.14825370907783508 0.5593546628952026
v -0.029451865702867508 0.14989323914051056 0.5550785660743713
v -0.029172813519835472 0.152004674077034 0.5506845712661743
v -0.03225623443722725 0.15061511099338531 0.5515170097351074
v -0.024458670988678932 0.14649468660354614 0.5606958866119385
v -0.025252433493733406 0.1488324999809265 0.554932713508606
v -0.021878523752093315 0.14685408771038055 0.5535562634468079
v -0.022124579176306725 0.14971664547920227 0.5492023229598999
v -0.0252055861055851 0.15181311964988708 0.550268292427063
v -0.021650658920407295 0.14553962647914886 0.5576688051223755
v -0.02406422793865204 0.14628168940544128 0.5622678399085999
v -0.030478188768029213 0.15159569680690765 0.5477272868156433
v -0.028501126915216446 0.152969092130661 0.5482203960418701
v -0.0254127848893404 0.15239515900611877 0.5475240349769592
v -0.026499329134821892 0.15143541991710663 0.545000433921814
v -0.03313072398304939 0.14296121895313263 0.5638109445571899
v -0.03345196694135666 0.14675968885421753 0.5560941100120544
v -0.03282586857676506 0.14784814417362213 0.5505198240280151
v -0.030988294631242752 0.14907418191432953 0.5468454360961914
v -0.03353350609540939 0.1435392200946808 0.5539395213127136
v -0.03226213902235031 0.14517903327941895 0.5496924519538879
v -0.030460957437753677 0.14588743448257446 0.5463355779647827
v -0.03194870799779892 0.1404089629650116 0.5518028736114502
v -0.030777163803577423 0.14274460077285767 0.5484491586685181
v -0.033282890915870667 0.13422565162181854 0.5633959770202637
v -0.03414122015237808 0.13767747581005096 0.5649623870849609
v -0.030163373798131943 0.14378097653388977 0.5461894869804382
v -0.026689281687140465 0.14943070709705353 0.5443401336669922
v -0.020169025287032127 0.14368918538093567 0.5535479187965393
v -0.021378101781010628 0.14673277735710144 0.5478842258453369
v -0.020115885883569717 0.1416875272989273 0.5527290105819702
v -0.020955035462975502 0.14450861513614655 0.5469849109649658
v -0.022207316011190414 0.14933569729328156 0.5448870658874512
v -0.022987252101302147 0.15078961849212646 0.5468714833259583
v -0.03339361771941185 0.13102304935455322 0.5675461292266846
v -0.02962678112089634 0.1292479783296585 0.563937246799469
v -0.02874750643968582 0.13172881305217743 0.5608494877815247
v -0.028400475159287453 0.13788476586341858 0.5502695441246033
v -0.024804851040244102 0.13226231932640076 0.5587528944015503
v -0.020601261407136917 0.13672614097595215 0.5568387508392334
v -0.02106362208724022 0.1398783177137375 0.5510241389274597
v -0.023545384407043457 0.1380758285522461 0.5500297546386719
v -0.022139567881822586 0.14231808483600616 0.5468835830688477
v -0.024380609393119812 0.1410597562789917 0.5469560623168945
v -0.02799692563712597 0.1408967673778534 0.5471993684768677
v -0.02408646233379841 0.14450885355472565 0.5444265604019165
v -0.022703947499394417 0.14715734124183655 0.5443618893623352
v -0.02730298787355423 0.14612893760204315 0.5443168878555298
v -0.025010833516716957 0.1428758203983307 0.5451405644416809
v -0.0277115385979414 0.14380083978176117 0.5455053448677063
v -0.022980982437729836 0.1139131635427475 0.5292835235595703
v -0.01766180619597435 0.11170100420713425 0.5282139778137207
v -0.020468881353735924 0.10711341351270676 0.5356622338294983
v -0.02360599860548973 0.11037135124206543 0.5376889705657959
v -0.020081615075469017 0.12220924347639084 0.5389258861541748
v -0.024225132539868355 0.12032203376293182 0.5355316400527954
v -0.021586282178759575 0.11865676194429398 0.5427185893058777
v -0.01556442491710186 0.11939594149589539 0.543292760848999
v -0.014439309015870094 0.12144263088703156 0.5390881299972534
v -0.011011275462806225 0.11679443717002869 0.542165994644165
v -0.011426199227571487 0.11948823183774948 0.5458993911743164
v -0.01805967465043068 0.11780646443367004 0.5473036170005798
v -0.010003943927586079 0.10643033683300018 0.5627943277359009
v -0.004460117779672146 0.10940932482481003 0.5603076219558716
v -0.012687316164374352 0.09017078578472137 0.5536413788795471
v -0.010233388282358646 0.09166700392961502 0.5510372519493103
v -0.02483551949262619 0.1171378642320633 0.5317515730857849
v -0.02412782609462738 0.1149834617972374 0.5402066111564636
v -0.015027900226414204 0.10204155743122101 0.5353209972381592
v -0.019779570400714874 0.10273338109254837 0.5376134514808655
v -0.016849178820848465 0.10508053004741669 0.533190131187439
v -0.012305626645684242 0.10605573654174805 0.532823383808136
v -0.014995366334915161 0.09845554083585739 0.5626392960548401
v -0.014035726897418499 0.09296880662441254 0.5590632557868958
v -0.013203651644289494 0.10269170254468918 0.5627546310424805
v -0.00932607613503933 0.10495305806398392 0.5354562997817993
v -0.005323140881955624 0.10983704030513763 0.5374127626419067
v 0.0005425484851002693 0.10173603892326355 0.5495297908782959
v -0.0034244265407323837 0.09641110152006149 0.5481406450271606
v -0.0223727785050869 0.11460196226835251 0.5462301969528198
v -0.02308066561818123 0.105884850025177 0.5409983396530151
v -0.024311065673828125 0.10969842970371246 0.5436301231384277
v -0.006689208559691906 0.11579367518424988 0.5420824289321899
v -0.0076634231954813 0.11348263174295425 0.5374560356140137
v -0.004153842106461525 0.1252058893442154 0.5259748697280884
v -0.007327456027269363 0.11582907289266586 0.5340956449508667
v -0.00891844928264618 0.11315334588289261 0.5302041172981262
v -0.004530205391347408 0.12226813286542892 0.5220951437950134
v -0.008775310590863228 0.10956131666898727 0.5353517532348633
v -0.00962922815233469 0.11886786669492722 0.5370582342147827
v -0.017018891870975494 0.12389010936021805 0.5172263979911804
v -0.011342874728143215 0.12107428163290024 0.5163927674293518
v -0.019619543105363846 0.1270485520362854 0.5193246603012085
v 0.00010717473924160004 0.10760622471570969 0.5547878742218018
v -0.017883408814668655 0.13184630870819092 0.5277295112609863
v -0.02057291939854622 0.1294804811477661 0.5226494073867798
v -0.012317610904574394 0.11129286885261536 0.5280929803848267
v -0.006753851659595966 0.1209038645029068 0.5184192061424255
v -0.006186334416270256 0.12829887866973877 0.5286215543746948
v -0.012498768977820873 0.1310097575187683 0.5308926701545715
v -0.004606644622981548 0.13092419505119324 0.5229024887084961
v -0.009323393926024437 0.13442818820476532 0.5245702266693115
v -0.014448491856455803 0.1355862021446228 0.5217485427856445
v -0.017658818513154984 0.13282296061515808 0.5181434154510498
v -0.017742017284035683 0.12953457236289978 0.5159939527511597
v -0.003209419548511505 0.1281854808330536 0.520593523979187
v -0.003739277832210064 0.12512549757957458 0.5173768401145935
v -0.0071141691878438 0.12270253896713257 0.5155341625213623
v -0.0023036710917949677 0.12926778197288513 0.5130102038383484
v -0.0028613507747650146 0.13338884711265564 0.5141760110855103
v -0.013031167909502983 0.1410880982875824 0.5022237300872803
v -0.013522912748157978 0.13984307646751404 0.5078479051589966
v -0.011045517399907112 0.14052775502204895 0.5080159902572632
v -0.010337747633457184 0.14159205555915833 0.5028969049453735
v -0.012403080239892006 0.1394115388393402 0.5136688351631165
v -0.010427646338939667 0.13972195982933044 0.512260377407074
v -0.006595084443688393 0.13770140707492828 0.513701319694519
v -0.006705918349325657 0.13858258724212646 0.5079441070556641
v -0.003194510005414486 0.13532885909080505 0.5081568360328674
v -0.002255571074783802 0.13704460859298706 0.5030953288078308
v -0.00546345766633749 0.1406349539756775 0.5027966499328613
v -0.0037603015080094337 0.13567955791950226 0.5121090412139893
v -0.009008585475385189 0.14191488921642303 0.49968788027763367
v -0.010155891068279743 0.14112117886543274 0.4975300133228302
v -0.007076164707541466 0.13748319447040558 0.5164668560028076
v -0.01674315705895424 0.13559174537658691 0.515014111995697
v -0.015668924897909164 0.138038769364357 0.5066526532173157
v -0.014414094388484955 0.1387970745563507 0.5004197359085083
v -0.010273202322423458 0.13850873708724976 0.4959631860256195
v -0.016056863591074944 0.13453567028045654 0.5045402646064758
v -0.014139424078166485 0.1358538568019867 0.4991241693496704
v -0.010310999117791653 0.13580010831356049 0.4959791302680969
v -0.014628211036324501 0.1304350197315216 0.5028330087661743
v -0.012312191538512707 0.13220851123332977 0.49805936217308044
v -0.016264937818050385 0.1270175725221634 0.5126242637634277
v -0.018061179667711258 0.1312045454978943 0.5136409401893616
v -0.010621091350913048 0.1335163414478302 0.49659156799316406
v -0.005429504439234734 0.1404474377632141 0.4968215227127075
v -0.006291604600846767 0.13767166435718536 0.4951052963733673
v -0.0053817518055438995 0.14087443053722382 0.49861618876457214
v -0.0021965857595205307 0.1334475874900818 0.5078144073486328
v -0.0018781451508402824 0.13508790731430054 0.5020021796226501
v -0.0019703982397913933 0.13089624047279358 0.5066730380058289
v -0.0019304780289530754 0.13322515785694122 0.5004567503929138
v -0.0022535594180226326 0.13719835877418518 0.49802663922309875
v -0.002661573700606823 0.1385822296142578 0.49892115592956543
v -0.015369146130979061 0.12603890895843506 0.5150952935218811
v -0.010736687108874321 0.12301230430603027 0.5146642327308655
v -0.012039754539728165 0.12359055131673813 0.5123463869094849
v -0.010540439747273922 0.12736137211322784 0.5026885271072388
v -0.007568960078060627 0.12316419184207916 0.5127809643745422
v -0.003730771131813526 0.12601900100708008 0.5121622085571289
v -0.0030843792483210564 0.12845945358276367 0.5057401657104492
v -0.006066031754016876 0.126893550157547 0.5037690997123718
v -0.0021339645609259605 0.13114139437675476 0.49976879358291626
v -0.004768017679452896 0.12922871112823486 0.4999907910823822
v -0.009258173406124115 0.1296054869890213 0.4983830749988556
v -0.0030489126220345497 0.13366472721099854 0.49613481760025024
v -0.0023975512012839317 0.13581204414367676 0.4969246983528137
v -0.006961504928767681 0.13556677103042603 0.49513673782348633
v -0.004808719269931316 0.131401926279068 0.496918648481369
v -0.008078725077211857 0.13272640109062195 0.4960044026374817
v -0.005550384521484375 0.07146646082401276 0.5173560976982117
v -0.0005880799144506454 0.07386863976716995 0.5180286765098572
v -0.0011046351864933968 0.0740768238902092 0.5212913155555725
v -0.006049914285540581 0.07238397747278214 0.521744430065155
v -0.01426253654062748 0.08048132061958313 0.5123690962791443
v -0.013206623494625092 0.0753411203622818 0.5131253600120544
v -0.014695967547595501 0.07730627059936523 0.5180819630622864
v -0.016345560550689697 0.08309356123209 0.5179166793823242
v -0.010981456376612186 0.0851217657327652 0.5102775692939758
v -0.013040243647992611 0.08885031938552856 0.5159767866134644
v -0.017002183943986893 0.08600209653377533 0.5218575596809387
v -0.015426360070705414 0.0796561986207962 0.5225515961647034
v -0.010896249674260616 0.08640360832214355 0.535193681716919
v -0.011835144832730293 0.09275083243846893 0.5331347584724426
v -0.00982467457652092 0.0725669115781784 0.5150337815284729
v -0.010619626380503178 0.07386849075555801 0.5199846029281616
v 0.0017788577824831009 0.08233656734228134 0.5186604857444763
v 0.0012967968359589577 0.07834737002849579 0.5201577544212341
v 0.0019217543303966522 0.0778416097164154 0.5193875432014465
v 0.002026999369263649 0.08188801258802414 0.5183125734329224
v -0.00220993859693408 0.08124440908432007 0.5384687185287476
v 0.0027773678302764893 0.08336970955133438 0.5359771847724915
v -0.006895851343870163 0.08241163939237595 0.5368446707725525
v -0.0015699733048677444 0.08804338425397873 0.5169851779937744
v -0.007437368854880333 0.09251397848129272 0.5165145397186279
v -0.00046252552419900894 0.09700818359851837 0.5262522101402283
v 0.0038674231618642807 0.09298918396234512 0.5268425345420837
v -0.011399359442293644 0.07612928003072739 0.5237424969673157
v -0.0015999330207705498 0.0747872069478035 0.5232442617416382
v -0.006513500586152077 0.07369185984134674 0.5243752002716064
v -0.013446461409330368 0.09095341712236404 0.5195002555847168
v -0.006574268452823162 0.08943880349397659 0.5146146416664124
v 0.003535240888595581 0.08396291732788086 0.4988992214202881
v -0.0008335625752806664 0.08735626935958862 0.5133327841758728
v 0.002473163418471813 0.08304350823163986 0.5158666968345642
v 0.006848892197012901 0.08194182068109512 0.5012218952178955
v -0.0007817056030035019 0.08704877644777298 0.5159554481506348
v -0.006095311604440212 0.08856014907360077 0.5111028552055359
v 0.0032476000487804413 0.06866095215082169 0.5024923086166382
v 0.006548278033733368 0.07269678264856339 0.5043405890464783
v -0.00073971226811409 0.06880670040845871 0.50101238489151
v -0.007800544612109661 0.09765216708183289 0.5296194553375244
v 0.005974296480417252 0.08774015307426453 0.5304664969444275
v -0.00479869544506073 0.07332329452037811 0.4966714680194855
v -0.0031822659075260162 0.06989137828350067 0.4988171458244324
v 0.0021623848006129265 0.0785975530743599 0.5171971917152405
v 0.008321627974510193 0.07797716557979584 0.5034394264221191
v -0.0006605666130781174 0.08309590071439743 0.4974142014980316
v -0.004677886143326759 0.07911066710948944 0.49676960706710815
v 0.0035726483911275864 0.08281177282333374 0.4935775399208069
v 0.00035409070551395416 0.07846760749816895 0.4919602870941162
v 0.0004415251314640045 0.07347110658884048 0.4910130500793457
v 0.0018435828387737274 0.07017534971237183 0.4930972456932068
v 0.003842117264866829 0.06870648264884949 0.49563929438591003
v 0.00742335245013237 0.08331192284822464 0.4957484006881714
v 0.009614640846848488 0.08119751513004303 0.49823299050331116
v 0.009077133610844612 0.077693872153759 0.5010364055633545
v 0.011398060247302055 0.08322815597057343 0.49497008323669434
v 0.009195476770401001 0.08287612348794937 0.4900188446044922
v 0.01757807843387127 0.07271550595760345 0.48151373863220215
v 0.012888750061392784 0.07275702059268951 0.4842432737350464
v 0.012990014627575874 0.07403048872947693 0.48400214314460754
v 0.017469463869929314 0.07426037639379501 0.48090308904647827
v 0.0068026352673769 0.07454323023557663 0.4864651560783386
v 0.008672656491398811 0.07568696141242981 0.4856080114841461
v 0.008319849148392677 0.07923322170972824 0.48687195777893066
v 0.014111241325736046 0.0790669173002243 0.48422276973724365
v 0.01597650907933712 0.08248975872993469 0.4885658025741577
v 0.019744878634810448 0.08154059946537018 0.48587796092033386
v 0.01821870170533657 0.07884667813777924 0.4814450740814209
v 0.010690592229366302 0.08242329955101013 0.4890456795692444
v 0.020139580592513084 0.07522260397672653 0.47994816303253174
v 0.02072482742369175 0.07350056618452072 0.47886911034584045
v 0.005873898044228554 0.07880541682243347 0.4877508878707886
v 0.006215857341885567 0.07019484043121338 0.4885253310203552
v 0.01335868239402771 0.07015366852283478 0.48527324199676514
v 0.01839214749634266 0.06956221908330917 0.4824971556663513
v 0.022151736542582512 0.07146018743515015 0.48162227869033813
v 0.015084121376276016 0.0689721331000328 0.48833122849464417
v 0.019542565569281578 0.06914768368005753 0.48546454310417175
v 0.022969787940382957 0.07071603834629059 0.48447102308273315
v 0.01652604714035988 0.06937350332736969 0.49116250872612
v 0.02058565802872181 0.06999968737363815 0.4884236752986908
v 0.007906047627329826 0.06928649544715881 0.4965435266494751
v 0.006828064098954201 0.06891284883022308 0.49241188168525696
v 0.02296307124197483 0.07104680687189102 0.4866997003555298
v 0.02279898338019848 0.07767626643180847 0.48013222217559814
v 0.02512354962527752 0.07588917016983032 0.483157217502594
v 0.021191535517573357 0.07785426080226898 0.48092472553253174
v 0.01617306098341942 0.08308709412813187 0.49029338359832764
v 0.02149069868028164 0.08246233314275742 0.48721379041671753
v 0.01729022152721882 0.08244524151086807 0.4928663969039917
v 0.022664623335003853 0.08181490004062653 0.48972487449645996
v 0.023296860978007317 0.0810922235250473 0.48401668667793274
v 0.022266468033194542 0.08067193627357483 0.4835868179798126
v 0.005708539858460426 0.06978945434093475 0.4991421103477478
v 0.008167074993252754 0.07320775091648102 0.5013661980628967
v 0.00989384576678276 0.07224514335393906 0.4994277358055115
v 0.01875666156411171 0.07205239683389664 0.49385660886764526
v 0.010865289717912674 0.07661890983581543 0.5000630617141724
v 0.013202333822846413 0.08073846250772476 0.49704110622406006
v 0.01851370744407177 0.07998200505971909 0.49455589056015015
v 0.019376710057258606 0.07636227458715439 0.4947656989097595
v 0.023320017382502556 0.07969887554645538 0.49153149127960205
v 0.022483592852950096 0.07696820795536041 0.49209219217300415
v 0.022498318925499916 0.07224404811859131 0.49107038974761963
v 0.02482476271688938 0.07799302041530609 0.4881538152694702
v 0.02475021593272686 0.08008190244436264 0.48618829250335693
v 0.025334952399134636 0.07422343641519547 0.4857560098171234
v 0.02441156469285488 0.07613052427768707 0.48964428901672363
v 0.024730129167437553 0.07319226115942001 0.48790672421455383
v 0.0055166687816381454 0.08532889187335968 0.5333006381988525
v 0.0008949181064963341 0.1077398806810379 0.5216327905654907
v -0.0013590790331363678 0.10745697468519211 0.5184914469718933
v 0.00018385425209999084 0.1014985740184784 0.5176444053649902
v 0.0018359413370490074 0.10144483298063278 0.521241307258606
v 0.011221935972571373 0.1098228394985199 0.5192320346832275
v 0.007656896486878395 0.10936657339334488 0.5221842527389526
v 0.008774716407060623 0.10498547554016113 0.5222373008728027
v 0.012623358517885208 0.1057196855545044 0.5193001627922058
v 0.012148668989539146 0.11056409776210785 0.5144637823104858
v 0.013674257323145866 0.10657551884651184 0.5143274068832397
v 0.01423608511686325 0.10580621659755707 0.5206714272499084
v 0.010403407737612724 0.10395300388336182 0.5234096646308899
v 0.014715760946273804 0.09766577929258347 0.5280569195747375
v 0.018918126821517944 0.10013118386268616 0.5259721279144287
v 0.021634181961417198 0.08512269705533981 0.5151165723800659
v 0.020142395049333572 0.08192835003137589 0.519790768623352
v 0.013078752905130386 0.08799473941326141 0.516478955745697
v 0.016743948683142662 0.08965034782886505 0.5138508677482605
v 0.004063596948981285 0.10861963033676147 0.5229202508926392
v 0.004254233092069626 0.10372836887836456 0.523011326789856
v 0.007395787164568901 0.09652078151702881 0.5105988383293152
v 0.004054289311170578 0.09621218591928482 0.5138051509857178
v 0.00016131717711687088 0.10076680779457092 0.513736367225647
v 0.002900554798543453 0.1013173907995224 0.5096853375434875
v 0.01651412807404995 0.08240842819213867 0.5237982273101807
v 0.014881616458296776 0.0839497521519661 0.5279633402824402
v 0.010323118418455124 0.08678261935710907 0.525457501411438
v 0.010140914469957352 0.08818947523832321 0.520159125328064
v 0.008995775133371353 0.09139339625835419 0.5281365513801575
v 0.010772423818707466 0.09887709468603134 0.5093594193458557
v 0.014510324224829674 0.10240789502859116 0.5105003714561462
v 0.024352727457880974 0.09531494975090027 0.5146100521087646
v 0.02149578370153904 0.0916227400302887 0.5136851072311401
v 0.006377527490258217 0.10136526077985764 0.5241372585296631
v 0.002474319189786911 0.0977325439453125 0.5175920724868774
v 0.004007725045084953 0.09842175990343094 0.5215491056442261
v 0.016053641214966774 0.10580232739448547 0.515353262424469
v 0.011255338788032532 0.10540907084941864 0.5093092918395996
v 0.001700722612440586 0.11791451275348663 0.5089322328567505
v 0.004226545803248882 0.10774019360542297 0.5080730319023132
v 7.871352136135101e-05 0.10740981996059418 0.5103084444999695
v -0.0007977895438671112 0.11825229227542877 0.5103768706321716
v 0.007701711729168892 0.10228997468948364 0.5081360340118408
v 0.00930584967136383 0.10944460332393646 0.5094736814498901
v -0.0004257410764694214 0.11935621500015259 0.5217522978782654
v -0.0028703641146421432 0.11833612620830536 0.5176909565925598
v 0.0024560773745179176 0.11945866048336029 0.5228344798088074
v 0.023518437519669533 0.10028763860464096 0.5203094482421875
v 0.008486978709697723 0.11974883079528809 0.5192408561706543
v 0.005670666694641113 0.12017382681369781 0.5223257541656494
v -0.0015696045011281967 0.10725356638431549 0.5145822167396545
v -0.0024064965546131134 0.11817477643489838 0.5134566426277161
v 0.005563701502978802 0.11824624985456467 0.5096012949943542
v 0.009348908439278603 0.11918807774782181 0.5139223337173462
v 0.005602891556918621 0.12235577404499054 0.5094846487045288
v 0.008704429492354393 0.12303094565868378 0.5140259861946106
v 0.007336689159274101 0.12489466369152069 0.5198573470115662
v 0.004688844084739685 0.12452969700098038 0.522021472454071
v 0.0015647374093532562 0.12406326830387115 0.5224520564079285
v 0.0015221908688545227 0.12202726304531097 0.5086236000061035
v -0.0012984564527869225 0.1219688355922699 0.5101140737533569
v -0.0033180690370500088 0.12144091725349426 0.5131824612617493
v 0.0019611241295933723 0.12652543187141418 0.5081740617752075
v 0.006078923121094704 0.12871043384075165 0.5095840692520142
v 0.003320537507534027 0.13951744139194489 0.5168843269348145
v 0.003689408302307129 0.135946124792099 0.5180046558380127
v 0.004471197724342346 0.13573333621025085 0.5171623826026917
v 0.004381831735372543 0.13958314061164856 0.5165448188781738
v 0.005644366145133972 0.13125379383563995 0.5186476707458496
v 0.005892995744943619 0.13207347691059113 0.5171854496002197
v 0.006939617916941643 0.13028603792190552 0.5143895149230957
v 0.006517557427287102 0.13496261835098267 0.5134443044662476
v 0.0047674402594566345 0.13426892459392548 0.5085026025772095
v 0.004646081477403641 0.13810718059539795 0.5083356499671936
v 0.006501313298940659 0.13835157454013824 0.5126513242721558
v 0.006507653743028641 0.13062164187431335 0.5103663206100464
v 0.005020178854465485 0.14171729981899261 0.5152912139892578
v 0.0042878612875938416 0.14283150434494019 0.5155767202377319
v 0.0077821798622608185 0.12872926890850067 0.5149381160736084
v 0.002781362272799015 0.12986314296722412 0.5212574601173401
v 0.0016302922740578651 0.13658852875232697 0.5190660357475281
v 0.0017700344324111938 0.14101703464984894 0.5173180103302002
v 0.002342425286769867 0.1434534788131714 0.5148155689239502
v -0.0005860086530447006 0.1352149099111557 0.5190223455429077
v -0.0005123838782310486 0.1408786028623581 0.5170851349830627
v -1.9886530935764313e-05 0.1431543081998825 0.5145590901374817
v -0.0031941356137394905 0.13373586535453796 0.5176891088485718
v -0.002371257171034813 0.1393517553806305 0.5158264636993408
v -0.0028339549899101257 0.12637054920196533 0.5197418332099915
v -4.698894917964935e-05 0.1282520741224289 0.5211766362190247
v -0.0010966984555125237 0.1417020857334137 0.5141680836677551
v 0.005187362432479858 0.14287053048610687 0.511860191822052
v 0.002372920513153076 0.14354358613491058 0.5115578770637512
v 0.006114276126027107 0.14170624315738678 0.5118124485015869
v 0.0038672275841236115 0.13367530703544617 0.5076029896736145
v 0.0034424159675836563 0.13845740258693695 0.5073260068893433
v 0.001392928883433342 0.13296553492546082 0.5070242285728455
v 0.0012547001242637634 0.1386110484600067 0.5071907043457031
v 0.00401701033115387 0.14157399535179138 0.5086468458175659
v 0.005198577418923378 0.14050450921058655 0.5094538927078247
v -0.0018952768296003342 0.12342076003551483 0.520910382270813
v -0.003301854245364666 0.12161668390035629 0.5174978375434875
v -0.004115511663258076 0.12469875812530518 0.5163535475730896
v -0.004560442641377449 0.13229027390480042 0.5146148800849915
v -0.0035675526596605778 0.12443570792675018 0.5120032429695129
v -0.0009079873561859131 0.1252405047416687 0.5092471837997437
v -0.0010817470028996468 0.1324085295200348 0.508123517036438
v -0.003434618003666401 0.13219046592712402 0.5104999542236328
v -0.0007373793050646782 0.1387249082326889 0.5081505179405212
v -0.002810499630868435 0.13819342851638794 0.5102962851524353
v -0.003589130938053131 0.13824370503425598 0.5132623910903931
v 0.0002008918672800064 0.14193272590637207 0.5098668932914734
v 0.0018627997487783432 0.14223630726337433 0.5089935064315796
v 0.0003821495920419693 0.1429169774055481 0.5118159055709839
v -0.0013431040570139885 0.14120611548423767 0.5108734965324402
v -0.0014588581398129463 0.14146102964878082 0.5123840570449829
v 0.02239282615482807 0.08908703923225403 0.5142971873283386
v 0.012279262766242027 0.0981140285730362 0.6018229126930237
v 0.012534024193882942 0.09445260465145111 0.5969474911689758
v 0.009176606312394142 0.08029372990131378 0.6016660332679749
v 0.009739475324749947 0.08397068083286285 0.5961638689041138
v 0.008591467514634132 0.08081390708684921 0.6080347895622253
v 0.010302245616912842 0.08902430534362793 0.6139383316040039
v 0.010299082845449448 0.0839778259396553 0.6122316718101501
v 0.01124505139887333 0.08902011811733246 0.5941379070281982
v 0.012331681326031685 0.09904319792985916 0.6072868704795837
v 0.011704916134476662 0.09539318084716797 0.6126886010169983
v 0.007911717519164085 0.10452206432819366 0.6055681109428406
v 0.004247481003403664 0.10034018754959106 0.6112498641014099
v 0.0008136201649904251 0.0947946086525917 0.611749529838562
v 0.0016329940408468246 0.08751058578491211 0.6089577078819275
v 0.0017391908913850784 0.08380848914384842 0.6052786707878113
v 0.010629681870341301 0.10039180517196655 0.5992959141731262
v 0.010936770588159561 0.09626226872205734 0.5948827862739563
v 0.008794212713837624 0.08957864344120026 0.5931494832038879
v 0.010526282712817192 0.10122333467006683 0.5925307273864746
v 0.0023771803826093674 0.1036803349852562 0.5906524062156677
v -0.015386531129479408 0.09678050130605698 0.5885860919952393
v -0.011209221556782722 0.09474776685237885 0.5937665700912476
v -0.0105400700122118 0.09741342067718506 0.5929895639419556
v -0.014596367254853249 0.09927062690258026 0.5887289047241211
v -0.007233450189232826 0.09637315571308136 0.5977655649185181
v -0.007153401151299477 0.0977260023355484 0.5955785512924194
v -0.0029921401292085648 0.1009473204612732 0.5943135619163513
v -0.006809482350945473 0.10235078632831573 0.5905410051345825
v -0.0001265052706003189 0.10271036624908447 0.5904194116592407
v -0.0019060615450143814 0.10315003991127014 0.5868455171585083
v -0.010359780862927437 0.10375067591667175 0.5866310000419617
v -0.015781106427311897 0.102000892162323 0.5860856175422668
v -0.01330498792231083 0.10471036285161972 0.5832642912864685
v -0.01682973839342594 0.09967248886823654 0.5842117071151733
v -0.0029670018702745438 0.1031692698597908 0.5970630049705505
v -0.005000317469239235 0.091130331158638 0.6018269062042236
v -0.010232659056782722 0.09129925817251205 0.5944406986236572
v -0.0145151037722826 0.09330759942531586 0.5876559615135193
v -0.01598128117620945 0.09701082110404968 0.5825745463371277
v -0.008185090497136116 0.08809807151556015 0.5928093791007996
v -0.011409344151616096 0.09060613811016083 0.5864306688308716
v -0.012165801599621773 0.09408305585384369 0.581692636013031
v -0.004837559536099434 0.08664213865995407 0.5899088382720947
v -0.008038440719246864 0.09011746197938919 0.5846777558326721
v 0.00234253890812397 0.08349446952342987 0.5975911021232605
v -0.001842716708779335 0.08574775606393814 0.6012498736381531
v -0.009545529261231422 0.0930115282535553 0.5819230079650879
v -0.014165783300995827 0.10402700304985046 0.5807421803474426
v -0.013076381757855415 0.10113423317670822 0.57889324426651
v 0.0011280160397291183 0.1029447466135025 0.5853312611579895
v -0.005111517384648323 0.10513882339000702 0.5833293795585632
v -0.0032573211938142776 0.1038929671049118 0.5813169479370117
v 0.00424683652818203 0.1007656678557396 0.5843498706817627
v -0.0017766598612070084 0.10190508514642715 0.5798740983009338
v -0.008310722187161446 0.1049821525812149 0.579465389251709
v -0.008963758125901222 0.10576851665973663 0.5821446180343628
v 0.004193810746073723 0.08210501074790955 0.6004033088684082
v 0.006774256005883217 0.08452171087265015 0.5960747599601746
v 0.006717292591929436 0.08567845821380615 0.5939174294471741
v 0.000576583668589592 0.0880395770072937 0.5865222811698914
v 0.00989936850965023 0.09001536667346954 0.5905490517616272
v 0.011178547516465187 0.09624607861042023 0.5906126499176025
v 0.005316322669386864 0.09732428938150406 0.5832325220108032
v 0.004495954141020775 0.09259563684463501 0.5838662981987
v -0.0014212299138307571 0.09822964668273926 0.5797475576400757
v -0.0019250009208917618 0.09524896740913391 0.5806069374084473
v -0.00480538047850132 0.09168799966573715 0.5821135640144348
v -0.006307350471615791 0.09883362054824829 0.5784164071083069
v -0.0070432741194963455 0.10243882238864899 0.5779803991317749
v -0.010290460661053658 0.09736157953739166 0.5789484977722168
v -0.005400428548455238 0.09630174189805984 0.5796939134597778
v -0.00789160467684269 0.09476536512374878 0.5803479552268982
v 0.026609452441334724 0.07973143458366394 0.5220611095428467
v 0.023220742121338844 0.07903522253036499 0.5274183750152588
v 0.030515624210238457 0.07701458781957626 0.5283189415931702
v 0.040696002542972565 0.07617613673210144 0.5307741761207581
v 0.05107107013463974 0.07784731686115265 0.5276961326599121
v 0.03885301202535629 0.07713721692562103 0.5372534990310669
v 0.028767315670847893 0.07794748991727829 0.5344412922859192
v 0.019015971571207047 0.08092494308948517 0.5335673093795776
v 0.04530080407857895 0.07896452397108078 0.5454332232475281
f 2 3 1
f 1 3 4
f 5 6 8
f 8 6 7
f 9 4 10
f 10 4 3
f 12 13 11
f 11 13 9
f 14 12 16
f 16 12 15
f 18 19 17
f 17 19 20
f 22 23 21
f 21 23 24
f 26 27 25
f 25 27 28
f 30 31 29
f 29 31 32
f 33 34 36
f 36 34 35
f 37 38 40
f 40 38 39
f 41 42 6
f 6 42 43
f 6 43 7
f 7 43 44
f 45 34 46
f 46 34 33
f 48 49 47
f 47 49 50
f 52 53 51
f 51 53 54
f 56 52 55
f 55 52 51
f 58 59 57
f 57 59 60
f 61 62 4
f 4 62 1
f 64 65 63
f 63 65 66
f 68 69 67
f 67 69 70
f 72 73 71
f 71 73 74
f 76 77 75
f 75 77 78
f 53 79 54
f 54 79 80
f 82 83 81
f 81 83 84
f 85 86 52
f 52 86 53
f 57 60 87
f 87 60 88
f 89 90 43
f 43 90 44
f 43 42 89
f 89 42 91
f 40 39 92
f 92 39 93
f 94 70 64
f 64 70 69
f 13 61 9
f 9 61 4
f 25 28 69
f 69 28 95
f 96 25 68
f 68 25 69
f 98 99 97
f 97 99 100
f 101 102 104
f 104 102 103
f 106 30 105
f 105 30 29
f 51 54 107
f 107 54 108
f 54 80 108
f 108 80 109
f 111 112 110
f 110 112 113
f 115 5 114
f 114 5 116
f 115 41 5
f 5 41 6
f 36 35 111
f 111 35 117
f 35 118 117
f 117 118 119
f 34 120 35
f 35 120 118
f 34 45 120
f 120 45 121
f 125 126 124
f 124 126 127
f 128 129 14
f 14 129 130
f 33 131 46
f 46 131 132
f 133 94 63
f 63 94 64
f 134 135 137
f 137 135 136
f 139 140 138
f 138 140 141
f 77 142 78
f 78 142 143
f 144 145 20
f 20 145 146
f 148 149 147
f 147 149 72
f 151 152 150
f 150 152 153
f 82 101 83
f 83 101 104
f 101 82 155
f 155 82 154
f 156 157 58
f 58 157 59
f 158 68 147
f 147 68 67
f 159 146 15
f 15 146 16
f 68 158 96
f 96 158 160
f 129 66 130
f 130 66 65
f 162 163 161
f 161 163 164
f 166 167 165
f 165 167 168
f 170 171 169
f 169 171 172
f 174 171 173
f 173 171 170
f 176 177 175
f 175 177 178
f 180 181 179
f 179 181 24
f 182 183 21
f 21 183 184
f 81 185 82
f 82 185 154
f 186 187 188
f 188 187 144
f 158 71 160
f 160 71 189
f 190 135 157
f 157 135 59
f 169 172 139
f 139 172 140
f 147 72 158
f 158 72 71
f 192 193 191
f 191 193 194
f 167 166 49
f 49 166 195
f 196 190 50
f 50 190 157
f 197 198 200
f 200 198 199
f 21 24 182
f 182 24 181
f 146 159 20
f 20 159 17
f 182 181 81
f 81 181 185
f 201 185 180
f 180 185 181
f 202 203 83
f 83 203 84
f 205 206 204
f 204 206 85
f 207 22 184
f 184 22 21
f 179 24 208
f 208 24 23
f 208 209 179
f 179 209 205
f 209 210 205
f 205 210 206
f 212 206 211
f 211 206 210
f 179 205 180
f 180 205 204
f 213 176 88
f 88 176 214
f 86 85 212
f 212 85 206
f 193 217 218
f 217 219 218
f 218 219 220
f 219 18 220
f 220 18 17
f 19 221 20
f 20 221 144
f 222 223 225
f 225 223 224
f 175 226 176
f 176 226 214
f 227 87 214
f 214 87 88
f 220 17 228
f 228 17 159
f 134 213 60
f 60 213 88
f 138 229 151
f 151 229 152
f 193 192 210
f 210 192 211
f 230 194 218
f 218 194 193
f 231 232 228
f 228 232 230
f 233 234 91
f 91 234 89
f 235 236 93
f 93 236 92
f 230 232 234
f 234 232 237
f 47 238 48
f 48 238 239
f 240 191 235
f 235 191 236
f 5 8 116
f 116 8 241
f 242 243 189
f 189 243 160
f 244 245 98
f 98 245 99
f 156 246 47
f 47 246 238
f 76 247 77
f 77 247 248
f 250 125 249
f 249 125 124
f 252 253 251
f 251 253 254
f 111 110 36
f 36 110 255
f 256 33 255
f 255 33 36
f 257 258 154
f 154 258 155
f 63 169 133
f 133 169 139
f 66 170 63
f 63 170 169
f 173 170 129
f 129 170 66
f 129 128 173
f 173 128 259
f 128 260 259
f 259 260 261
f 213 134 262
f 262 134 137
f 263 264 186
f 186 264 187
f 112 265 113
f 113 265 266
f 11 267 268
f 234 233 230
f 230 233 194
f 153 269 70
f 70 269 67
f 175 178 165
f 165 178 141
f 150 153 94
f 94 153 70
f 271 221 270
f 270 221 207
f 269 153 272
f 272 153 152
f 121 45 109
f 109 45 108
f 47 50 156
f 156 50 157
f 57 273 58
f 58 273 274
f 145 275 260
f 260 275 261
f 276 149 143
f 143 149 78
f 148 269 75
f 75 269 272
f 207 277 270
f 270 277 278
f 195 196 49
f 49 196 50
f 59 135 60
f 60 135 134
f 83 104 202
f 202 104 279
f 149 148 78
f 78 148 75
f 247 278 248
f 248 278 277
f 183 182 84
f 84 182 81
f 48 239 281
f 281 239 282
f 227 223 283
f 283 223 222
f 223 226 224
f 224 226 168
f 281 282 224
f 224 282 225
f 165 168 175
f 175 168 226
f 264 263 138
f 138 263 229
f 14 16 128
f 128 16 260
f 220 228 218
f 218 228 230
f 87 227 284
f 284 227 283
f 260 16 145
f 145 16 146
f 244 98 258
f 258 98 155
f 58 274 156
f 156 274 246
f 107 285 51
f 51 285 55
f 243 286 160
f 160 286 96
f 234 237 89
f 89 237 90
f 46 132 107
f 107 132 285
f 253 252 249
f 249 252 250
f 286 26 96
f 96 26 25
f 106 105 287
f 287 105 288
f 272 152 289
f 289 152 229
f 138 151 139
f 139 151 133
f 183 290 161
f 161 290 162
f 291 292 277
f 277 292 293
f 151 150 133
f 133 150 94
f 262 275 177
f 177 275 187
f 144 187 145
f 145 187 275
f 273 57 284
f 284 57 87
f 174 136 190
f 190 136 135
f 111 117 112
f 112 117 38
f 117 119 38
f 38 119 123
f 112 38 265
f 265 38 37
f 287 288 254
f 254 288 251
f 228 159 231
f 231 159 15
f 223 227 226
f 226 227 214
f 147 67 148
f 148 67 269
f 224 168 281
f 281 168 167
f 199 163 200
f 200 163 162
f 45 46 108
f 108 46 107
f 281 167 48
f 48 167 49
f 161 164 291
f 291 164 292
f 38 123 39
f 293 294 277
f 277 294 248
f 284 283 296
f 296 283 295
f 284 296 273
f 273 296 297
f 274 273 298
f 298 273 297
f 246 274 299
f 299 274 298
f 283 222 295
f 295 222 300
f 222 225 300
f 300 225 301
f 301 225 302
f 302 225 282
f 303 304 300
f 300 304 295
f 306 307 305
f 305 307 308
f 309 310 308
f 308 310 305
f 308 307 312
f 312 307 311
f 313 314 312
f 312 314 315
f 311 316 312
f 312 316 313
f 317 304 311
f 311 304 316
f 315 309 312
f 312 309 308
f 318 319 321
f 321 319 320
f 319 318 309
f 309 318 310
f 311 307 317
f 317 307 306
f 306 297 317
f 317 297 296
f 306 322 297
f 297 322 298
f 305 323 306
f 306 323 322
f 323 305 324
f 324 305 310
f 304 317 295
f 295 317 296
f 318 325 310
f 310 325 324
f 323 324 326
f 326 324 327
f 324 325 327
f 327 325 328
f 326 327 329
f 329 327 330
f 329 331 326
f 326 331 332
f 333 330 328
f 328 330 327
f 323 326 322
f 322 326 332
f 322 332 298
f 298 332 299
f 325 318 334
f 334 318 321
f 313 316 335
f 335 316 304
f 335 336 313
f 313 336 314
f 304 303 335
f 335 303 337
f 336 335 338
f 338 335 337
f 336 339 314
f 314 339 340
f 246 299 238
f 238 299 341
f 239 342 282
f 282 342 302
f 342 239 341
f 341 239 238
f 341 331 342
f 342 331 343
f 331 329 343
f 343 329 344
f 342 343 302
f 302 343 345
f 341 299 331
f 331 299 332
f 346 301 345
f 345 301 302
f 346 303 301
f 301 303 300
f 347 337 346
f 346 337 303
f 347 346 348
f 348 346 345
f 349 347 350
f 350 347 348
f 343 344 345
f 345 344 348
f 344 351 348
f 348 351 350
f 337 347 338
f 338 347 349
f 353 338 352
f 352 338 349
f 352 355 354
f 354 355 356
f 352 349 355
f 355 349 350
f 352 354 353
f 353 354 334
f 353 334 339
f 339 334 321
f 339 336 353
f 353 336 338
f 329 330 344
f 344 330 351
f 356 351 333
f 333 351 330
f 356 355 351
f 351 355 350
f 354 356 328
f 328 356 333
f 328 325 354
f 354 325 334
f 309 315 319
f 319 315 320
f 320 340 321
f 321 340 339
f 320 315 340
f 340 315 314
f 137 136 261
f 261 136 259
f 140 166 141
f 141 166 165
f 172 171 195
f 195 171 196
f 171 174 196
f 196 174 190
f 178 177 264
f 264 177 187
f 172 195 140
f 140 195 166
f 137 261 262
f 262 261 275
f 178 264 141
f 141 264 138
f 262 177 213
f 213 177 176
f 136 174 259
f 259 174 173
f 358 359 357
f 357 359 360
f 362 363 361
f 361 363 364
f 361 364 365
f 365 364 366
f 367 368 370
f 370 368 369
f 76 371 247
f 247 371 372
f 373 374 362
f 362 374 363
f 376 377 375
f 375 377 378
f 289 229 380
f 380 229 379
f 381 379 263
f 263 379 229
f 383 384 382
f 382 384 385
f 386 368 374
f 374 368 363
f 76 289 371
f 371 289 380
f 377 376 359
f 359 376 387
f 388 386 360
f 360 386 374
f 389 383 366
f 366 383 390
f 392 393 391
f 391 393 394
f 383 382 390
f 390 382 395
f 396 365 390
f 390 365 366
f 389 366 367
f 367 366 364
f 357 397 358
f 358 397 398
f 373 399 357
f 357 399 397
f 389 367 400
f 400 367 370
f 382 385 375
f 375 385 372
f 357 360 373
f 373 360 374
f 361 401 362
f 362 401 402
f 387 388 359
f 359 388 360
f 363 368 364
f 364 368 367
f 358 398 403
f 403 398 404
f 396 392 405
f 405 392 391
f 392 395 393
f 393 395 378
f 393 403 394
f 394 403 404
f 375 378 382
f 382 378 395
f 365 396 406
f 406 396 405
f 362 402 373
f 373 402 399
f 271 270 400
f 400 270 384
f 401 361 406
f 406 361 365
f 381 369 386
f 386 369 368
f 392 396 395
f 395 396 390
f 393 378 403
f 403 378 377
f 403 377 358
f 358 377 359
f 406 405 408
f 408 405 407
f 406 408 401
f 401 408 409
f 401 409 402
f 402 409 410
f 402 410 399
f 399 410 411
f 405 391 407
f 407 391 412
f 391 394 412
f 412 394 413
f 394 404 413
f 413 404 414
f 415 416 412
f 412 416 407
f 418 419 417
f 417 419 420
f 421 422 418
f 418 422 419
f 419 422 424
f 424 422 423
f 425 426 424
f 424 426 427
f 423 428 424
f 424 428 425
f 427 420 424
f 424 420 419
f 420 429 417
f 417 429 430
f 423 422 431
f 431 422 421
f 421 409 431
f 431 409 408
f 421 432 409
f 409 432 410
f 418 433 421
f 421 433 432
f 434 433 417
f 417 433 418
f 431 416 423
f 423 416 428
f 416 431 407
f 407 431 408
f 435 434 430
f 430 434 417
f 433 434 436
f 436 434 437
f 434 435 437
f 437 435 438
f 436 437 439
f 439 437 440
f 439 441 436
f 436 441 442
f 438 443 437
f 437 443 440
f 436 442 433
f 433 442 432
f 432 442 410
f 410 442 411
f 435 430 445
f 445 430 444
f 430 429 444
f 444 429 446
f 425 428 447
f 447 428 416
f 426 425 448
f 448 425 447
f 416 415 447
f 447 415 449
f 447 449 448
f 448 449 450
f 451 452 448
f 448 452 426
f 446 452 444
f 444 452 451
f 399 411 397
f 397 411 453
f 398 454 404
f 404 454 414
f 454 398 453
f 453 398 397
f 453 441 454
f 454 441 455
f 441 439 455
f 455 439 456
f 454 455 414
f 414 455 457
f 441 453 442
f 442 453 411
f 458 413 457
f 457 413 414
f 458 415 413
f 413 415 412
f 458 459 415
f 415 459 449
f 459 458 460
f 460 458 457
f 461 459 462
f 462 459 460
f 455 456 457
f 457 456 460
f 456 463 460
f 460 463 462
f 459 461 449
f 449 461 450
f 465 450 464
f 464 450 461
f 464 467 466
f 466 467 468
f 464 461 467
f 467 461 462
f 464 466 465
f 465 466 445
f 465 445 451
f 451 445 444
f 451 448 465
f 465 448 450
f 439 440 456
f 456 440 463
f 468 463 443
f 443 463 440
f 468 467 463
f 463 467 462
f 466 468 438
f 438 468 443
f 438 435 466
f 466 435 445
f 420 427 429
f 429 427 446
f 446 427 452
f 452 427 426
f 370 369 188
f 188 369 186
f 371 376 372
f 372 376 375
f 380 379 387
f 387 379 388
f 379 381 388
f 388 381 386
f 385 384 278
f 278 384 270
f 380 387 371
f 371 387 376
f 400 370 271
f 271 370 188
f 385 278 372
f 372 278 247
f 400 384 389
f 389 384 383
f 369 381 186
f 186 381 263
f 221 271 144
f 144 271 188
f 221 19 207
f 207 19 22
f 19 18 22
f 22 18 23
f 18 219 23
f 23 219 208
f 469 470 472
f 472 470 471
f 474 475 473
f 473 475 476
f 473 476 477
f 477 476 478
f 480 481 479
f 479 481 482
f 483 484 474
f 474 484 475
f 486 487 485
f 485 487 488
f 489 490 77
f 77 490 142
f 491 489 248
f 248 489 77
f 493 494 492
f 492 494 495
f 496 480 484
f 484 480 475
f 486 497 487
f 487 497 471
f 498 496 472
f 472 496 484
f 499 493 478
f 478 493 500
f 501 502 504
f 504 502 503
f 493 492 500
f 500 492 505
f 506 477 500
f 500 477 478
f 499 478 479
f 479 478 476
f 469 507 470
f 470 507 508
f 483 509 469
f 469 509 507
f 479 482 499
f 499 482 510
f 492 495 485
f 485 495 511
f 483 469 484
f 484 469 472
f 473 512 474
f 474 512 513
f 497 498 471
f 471 498 472
f 475 480 476
f 476 480 479
f 470 508 514
f 514 508 515
f 506 502 516
f 516 502 501
f 503 502 488
f 488 502 505
f 514 515 503
f 503 515 504
f 485 488 492
f 492 488 505
f 477 506 517
f 517 506 516
f 474 513 483
f 483 513 509
f 510 292 494
f 494 292 164
f 512 473 517
f 517 473 477
f 491 481 496
f 496 481 480
f 502 506 505
f 505 506 500
f 503 488 514
f 514 488 487
f 514 487 470
f 470 487 471
f 517 516 519
f 519 516 518
f 517 519 512
f 512 519 520
f 512 520 513
f 513 520 521
f 513 521 509
f 509 521 522
f 516 501 518
f 518 501 523
f 501 504 523
f 523 504 524
f 524 504 525
f 525 504 515
f 526 527 523
f 523 527 518
f 529 530 528
f 528 530 531
f 532 533 529
f 529 533 530
f 530 533 535
f 535 533 534
f 536 537 535
f 535 537 538
f 534 539 535
f 535 539 536
f 538 531 535
f 535 531 530
f 540 541 531
f 531 541 528
f 533 532 534
f 534 532 542
f 532 520 542
f 542 520 519
f 532 543 520
f 520 543 521
f 529 544 532
f 532 544 543
f 544 529 545
f 545 529 528
f 534 542 539
f 539 542 527
f 527 542 518
f 518 542 519
f 541 546 528
f 528 546 545
f 547 544 548
f 548 544 545
f 546 549 545
f 545 549 548
f 550 547 551
f 551 547 548
f 547 550 553
f 553 550 552
f 549 554 548
f 548 554 551
f 544 547 543
f 543 547 553
f 543 553 521
f 521 553 522
f 546 541 556
f 556 541 555
f 541 540 555
f 555 540 557
f 536 539 558
f 558 539 527
f 537 536 559
f 559 536 558
f 527 526 558
f 558 526 560
f 559 558 561
f 561 558 560
f 559 562 537
f 537 562 563
f 557 563 555
f 555 563 562
f 509 522 507
f 507 522 564
f 508 565 515
f 515 565 525
f 565 508 564
f 564 508 507
f 564 552 565
f 565 552 566
f 552 550 566
f 566 550 567
f 565 566 525
f 525 566 568
f 564 522 552
f 552 522 553
f 569 524 568
f 568 524 525
f 569 526 524
f 524 526 523
f 570 560 569
f 569 560 526
f 570 569 571
f 571 569 568
f 572 570 573
f 573 570 571
f 566 567 568
f 568 567 571
f 567 574 571
f 571 574 573
f 570 572 560
f 560 572 561
f 576 561 575
f 575 561 572
f 575 578 577
f 577 578 579
f 575 572 578
f 578 572 573
f 575 577 576
f 576 577 556
f 576 556 562
f 562 556 555
f 562 559 576
f 576 559 561
f 550 551 567
f 567 551 574
f 579 574 554
f 554 574 551
f 579 578 574
f 574 578 573
f 579 554 577
f 577 554 549
f 549 546 577
f 577 546 556
f 531 538 540
f 540 538 557
f 557 538 563
f 563 538 537
f 481 294 482
f 482 294 293
f 580 486 511
f 511 486 485
f 490 489 497
f 497 489 498
f 489 491 498
f 498 491 496
f 163 495 164
f 164 495 494
f 580 490 486
f 486 490 497
f 482 293 510
f 510 293 292
f 495 163 511
f 511 163 199
f 494 493 510
f 510 493 499
f 481 491 294
f 294 491 248
f 582 583 581
f 581 583 584
f 586 587 585
f 585 587 588
f 585 588 589
f 589 588 590
f 592 593 591
f 591 593 594
f 595 596 598
f 598 596 597
f 599 600 586
f 586 600 587
f 601 602 604
f 604 602 603
f 605 606 608
f 608 606 607
f 609 607 200
f 200 607 606
f 610 611 613
f 613 611 612
f 600 614 587
f 587 614 592
f 596 605 597
f 597 605 608
f 602 615 603
f 603 615 583
f 616 614 584
f 584 614 600
f 611 618 617
f 617 618 590
f 620 621 619
f 619 621 622
f 610 623 611
f 611 623 618
f 624 589 618
f 618 589 590
f 617 590 591
f 591 590 588
f 581 625 582
f 582 625 626
f 599 627 581
f 581 627 625
f 591 594 617
f 617 594 628
f 601 610 598
f 598 610 613
f 581 584 599
f 599 584 600
f 585 629 586
f 586 629 630
f 615 616 583
f 583 616 584
f 587 592 588
f 588 592 591
f 582 626 631
f 631 626 632
f 624 620 633
f 633 620 619
f 621 620 604
f 604 620 623
f 631 632 621
f 621 632 622
f 610 601 623
f 623 601 604
f 589 624 634
f 634 624 633
f 586 630 599
f 599 630 627
f 203 202 628
f 628 202 612
f 629 585 634
f 634 585 589
f 609 593 614
f 614 593 592
f 620 624 623
f 623 624 618
f 631 621 603
f 603 621 604
f 582 631 583
f 583 631 603
f 634 633 636
f 636 633 635
f 634 636 629
f 629 636 637
f 629 637 630
f 630 637 638
f 630 638 627
f 627 638 639
f 633 619 635
f 635 619 640
f 619 622 640
f 640 622 641
f 641 622 642
f 642 622 632
f 644 635 643
f 643 635 640
f 645 646 648
f 648 646 647
f 649 650 646
f 646 650 647
f 647 650 652
f 652 650 651
f 652 653 655
f 655 653 654
f 651 656 652
f 652 656 653
f 655 648 652
f 652 648 647
f 648 657 645
f 645 657 658
f 650 649 651
f 651 649 659
f 649 637 659
f 659 637 636
f 649 660 637
f 637 660 638
f 661 660 646
f 646 660 649
f 662 661 645
f 645 661 646
f 651 659 656
f 656 659 644
f 644 659 635
f 635 659 636
f 663 662 658
f 658 662 645
f 664 661 665
f 665 661 662
f 663 666 662
f 662 666 665
f 667 664 668
f 668 664 665
f 664 667 670
f 670 667 669
f 666 671 665
f 665 671 668
f 661 664 660
f 660 664 670
f 660 670 638
f 638 670 639
f 658 672 663
f 663 672 673
f 658 657 672
f 672 657 674
f 653 656 675
f 675 656 644
f 653 675 654
f 654 675 676
f 675 644 677
f 677 644 643
f 676 675 678
f 678 675 677
f 679 680 676
f 676 680 654
f 674 680 672
f 672 680 679
f 627 639 625
f 625 639 681
f 626 682 632
f 632 682 642
f 681 682 625
f 625 682 626
f 669 683 681
f 681 683 682
f 667 684 669
f 669 684 683
f 682 683 642
f 642 683 685
f 681 639 669
f 669 639 670
f 686 641 685
f 685 641 642
f 641 686 640
f 640 686 643
f 686 687 643
f 643 687 677
f 687 686 688
f 688 686 685
f 689 687 690
f 690 687 688
f 683 684 685
f 685 684 688
f 684 691 688
f 688 691 690
f 687 689 677
f 677 689 678
f 693 678 692
f 692 678 689
f 692 695 694
f 694 695 696
f 692 689 695
f 695 689 690
f 692 694 693
f 693 694 673
f 693 673 679
f 679 673 672
f 679 676 693
f 693 676 678
f 684 667 691
f 691 667 668
f 696 691 671
f 671 691 668
f 696 695 691
f 691 695 690
f 694 696 666
f 666 696 671
f 666 663 694
f 694 663 673
f 648 655 657
f 657 655 674
f 674 655 680
f 680 655 654
f 593 162 594
f 594 162 290
f 598 597 601
f 601 597 602
f 615 608 616
f 616 608 607
f 607 609 616
f 616 609 614
f 697 595 613
f 613 595 598
f 597 608 602
f 602 608 615
f 594 290 628
f 628 290 203
f 628 612 617
f 617 612 611
f 593 609 162
f 162 609 200
f 105 29 698
f 698 29 699
f 268 126 701
f 701 126 700
f 126 125 700
f 700 125 702
f 252 703 250
f 250 703 704
f 32 268 705
f 705 268 701
f 288 105 706
f 706 105 698
f 29 32 699
f 699 32 705
f 707 251 706
f 706 251 288
f 250 704 125
f 125 704 702
f 703 252 707
f 707 252 251
f 706 708 707
f 707 708 709
f 707 709 703
f 703 709 710
f 703 710 704
f 704 710 711
f 704 711 702
f 702 711 712
f 706 698 708
f 708 698 713
f 698 699 713
f 713 699 714
f 699 705 714
f 714 705 715
f 717 708 716
f 716 708 713
f 719 720 718
f 718 720 721
f 722 723 719
f 719 723 720
f 724 725 723
f 723 725 720
f 724 726 725
f 725 726 727
f 728 721 725
f 725 721 720
f 721 728 729
f 729 728 730
f 729 731 721
f 721 731 718
f 724 723 732
f 732 723 722
f 722 710 732
f 732 710 709
f 722 733 710
f 710 733 711
f 719 734 722
f 722 734 733
f 734 719 735
f 735 719 718
f 724 732 726
f 726 732 717
f 717 732 708
f 708 732 709
f 731 736 718
f 718 736 735
f 737 734 738
f 738 734 735
f 736 739 735
f 735 739 738
f 740 737 741
f 741 737 738
f 737 740 743
f 743 740 742
f 739 744 738
f 738 744 741
f 734 737 733
f 733 737 743
f 733 743 711
f 711 743 712
f 736 731 746
f 746 731 745
f 731 729 745
f 745 729 730
f 727 726 747
f 747 726 717
f 748 727 749
f 749 727 747
f 747 717 750
f 750 717 716
f 749 747 751
f 751 747 750
f 749 752 748
f 748 752 753
f 730 753 745
f 745 753 752
f 728 725 748
f 748 725 727
f 730 728 753
f 753 728 748
f 700 702 754
f 754 702 712
f 705 701 715
f 715 701 755
f 754 755 700
f 700 755 701
f 742 756 754
f 754 756 755
f 740 757 742
f 742 757 756
f 755 756 715
f 715 756 758
f 754 712 742
f 742 712 743
f 759 714 758
f 758 714 715
f 714 759 713
f 713 759 716
f 759 760 716
f 716 760 750
f 760 759 761
f 761 759 758
f 762 760 763
f 763 760 761
f 756 757 758
f 758 757 761
f 757 764 761
f 761 764 763
f 760 762 750
f 750 762 751
f 766 751 765
f 765 751 762
f 767 765 769
f 769 765 768
f 765 762 768
f 768 762 763
f 765 767 766
f 766 767 746
f 766 746 752
f 752 746 745
f 752 749 766
f 766 749 751
f 757 740 764
f 764 740 741
f 769 764 744
f 744 764 741
f 769 768 764
f 764 768 763
f 767 769 739
f 739 769 744
f 739 736 767
f 767 736 746
f 219 217 208
f 208 217 209
f 209 217 210
f 210 217 193
f 198 580 199
f 199 580 511
f 76 75 289
f 289 75 272
f 277 207 291
f 291 207 184
f 290 183 203
f 203 183 84
f 490 580 142
f 142 580 198
f 142 198 143
f 143 198 197
f 149 276 72
f 72 276 73
f 104 103 279
f 279 103 770
f 770 596 279
f 279 596 595
f 605 596 771
f 771 596 770
f 771 770 772
f 772 770 103
f 772 103 773
f 773 103 102
f 155 774 101
f 101 774 102
f 773 102 97
f 97 102 774
f 775 773 100
f 100 773 97
f 773 775 772
f 772 775 776
f 772 776 771
f 771 776 777
f 200 606 197
f 197 606 777
f 189 71 778
f 778 71 74
f 97 774 98
f 98 774 155
f 183 161 184
f 184 161 291
f 777 276 197
f 197 276 143
f 777 606 771
f 771 606 605
f 613 612 697
f 697 612 202
f 595 697 279
f 279 697 202
f 73 276 776
f 776 276 777
f 776 775 73
f 73 775 74
f 100 778 775
f 775 778 74
f 778 100 189
f 189 100 99
f 245 242 99
f 99 242 189
f 131 33 256
f 28 1 95
f 95 1 62
f 27 2 28
f 28 2 1
f 265 115 266
f 266 115 114
f 95 62 69
f 69 62 64
f 62 61 64
f 64 61 65
f 61 13 65
f 65 13 130
f 13 12 130
f 130 12 14
f 31 11 32
f 32 11 268
f 15 12 31
f 31 12 11
f 31 30 15
f 15 30 231
f 30 106 231
f 231 106 232
f 287 237 106
f 106 237 232
f 254 90 287
f 287 90 237
f 253 44 254
f 254 44 90
f 253 249 44
f 44 249 7
f 267 127 268
f 268 127 126
f 10 3 241
f 241 3 116
f 3 2 116
f 116 2 114
f 2 27 114
f 114 27 266
f 27 26 266
f 266 26 113
f 26 286 113
f 113 286 110
f 286 243 110
f 110 243 255
f 243 242 255
f 255 242 256
f 242 245 256
f 256 245 131
f 245 244 131
f 131 244 132
f 265 37 115
f 115 37 41
f 41 37 42
f 42 37 40
f 92 91 40
f 40 91 42
f 236 233 92
f 92 233 91
f 191 194 236
f 236 194 233
f 258 285 244
f 244 285 132
f 257 55 258
f 258 55 285
f 257 154 201
f 201 154 185
f 56 201 204
f 204 201 180
f 55 257 56
f 56 257 201
f 204 85 56
f 56 85 52
f 86 122 53
f 53 122 79
f 212 215 86
f 86 215 122
f 211 216 212
f 212 216 215
f 192 280 211
f 211 280 216
f 191 240 192
f 192 240 280
f 249 124 7
f 7 124 8
f 124 127 8
f 8 127 241
f 127 267 241
f 241 267 10
f 10 267 9
f 9 267 11
