v 0.04457938298583031 0.03637022525072098 0.3310784697532654
v 0.056070875376462936 0.031493816524744034 0.3317584991455078
v 0.048996347934007645 0.027562977746129036 0.34088900685310364
v 0.03889714553952217 0.0324057936668396 0.3387048542499542
v 0.06955064088106155 0.026832733303308487 0.3512394428253174
v 0.07557813823223114 0.03293181210756302 0.3577043414115906
v 0.059434257447719574 0.032160189002752304 0.36416763067245483
v 0.05569285526871681 0.026276158168911934 0.35866084694862366
v 0.03334052115678787 0.032593727111816406 0.34512102603912354
v 0.04187479242682457 0.026631638407707214 0.3474138677120209
v 0.0322677418589592 0.03923296928405762 0.34757179021835327
v 0.0248634684830904 0.047669392079114914 0.3480713367462158
v 0.02567325159907341 0.04058562591671944 0.3453957438468933
v 0.017561174929142 0.051401007920503616 0.3477453291416168
v 0.03133690729737282 0.0575840100646019 0.3476950526237488
v 0.018351849168539047 0.06038622185587883 0.3442826271057129
v 0.03950302302837372 0.07141300290822983 0.32676106691360474
v 0.043307505548000336 0.07237043976783752 0.314520001411438
v 0.027538500726222992 0.07088346034288406 0.3126383423805237
v 0.024950997903943062 0.06953708082437515 0.3257857859134674
v 0.038343239575624466 0.06707927584648132 0.2957749366760254
v 0.031481292098760605 0.06937926262617111 0.30470722913742065
v 0.04725895822048187 0.07204168289899826 0.3066266179084778
v 0.052588626742362976 0.06980293989181519 0.2982737421989441
v 0.0528869591653347 0.041667357087135315 0.31812092661857605
v 0.06386416405439377 0.039379365742206573 0.31709927320480347
v 0.06145968288183212 0.0369030125439167 0.3219199776649475
v 0.05079875513911247 0.040195830166339874 0.32284316420555115
v 0.03587716817855835 0.0483674593269825 0.3532170355319977
v 0.04174554720520973 0.05229433625936508 0.3538796901702881
v 0.03553813695907593 0.04811675101518631 0.35014498233795166
v 0.033452413976192474 0.04314986243844032 0.35159337520599365
v 0.0899190604686737 0.03377503901720047 0.3090560734272003
v 0.10176961123943329 0.039563655853271484 0.31135639548301697
v 0.10108377784490585 0.04002534970641136 0.3172014355659485
v 0.09040713310241699 0.03489149734377861 0.3137606382369995
v 0.09425416588783264 0.03813134878873825 0.3414043188095093
v 0.10064586997032166 0.04302027076482773 0.3357613682746887
v 0.10469603538513184 0.052341029047966 0.3449338674545288
v 0.09637028723955154 0.050930339843034744 0.3490244746208191
v 0.08586539328098297 0.03499935567378998 0.35010892152786255
v 0.08823147416114807 0.04603191465139389 0.3549377918243408
v 0.07648680359125137 0.043759699910879135 0.3606832027435303
v 0.0606432780623436 0.04149157926440239 0.36481308937072754
v 0.1032601073384285 0.04144924879074097 0.2987842559814453
v 0.09494238346815109 0.037002887576818466 0.2953408658504486
v -0.03101431205868721 0.05022435635328293 0.3147364854812622
v -0.026998942717909813 0.05325113981962204 0.3115852177143097
v -0.021540289744734764 0.047898661345243454 0.31425467133522034
v -0.026098353788256645 0.046084921807050705 0.3173825144767761
v 0.09662611037492752 0.05561959743499756 0.2863190770149231
v 0.09519317001104355 0.06557552516460419 0.28713488578796387
v 0.10233629494905472 0.06446389108896255 0.28689971566200256
v 0.10388226807117462 0.05526813492178917 0.28800010681152344
v 0.08696606010198593 0.05586887151002884 0.2842782735824585
v 0.08519382029771805 0.06641518324613571 0.28801068663597107
v -0.032986365258693695 0.05618599057197571 0.3250487148761749
v -0.03456782177090645 0.05244544520974159 0.3220691382884979
v -0.03046158142387867 0.04993356019258499 0.32585087418556213
v -0.02855248749256134 0.05435917153954506 0.3288781940937042
v 0.029466014355421066 0.037550896406173706 0.33980241417884827
v 0.034603364765644073 0.03818591684103012 0.3319137692451477
v 0.011080078780651093 0.04080728441476822 0.3358849585056305
v 0.02081397734582424 0.040716707706451416 0.3344699740409851
v 0.02049984782934189 0.04099258780479431 0.3412885069847107
v 0.012018638662993908 0.041780438274145126 0.34192901849746704
v 0.030574796721339226 0.04273713380098343 0.3130922317504883
v 0.042271774262189865 0.04300707206130028 0.3143810033798218
v 0.03925793990492821 0.04273071140050888 0.32009097933769226
v 0.026210999116301537 0.04189885035157204 0.3204452693462372
v 0.04651277884840965 0.040117401629686356 0.3012668788433075
v 0.03456578776240349 0.04038379341363907 0.30103880167007446
v 0.038117457181215286 0.038509637117385864 0.29358434677124023
v 0.04616367071866989 0.037874773144721985 0.29510819911956787
v 0.012492827139794827 0.04289000853896141 0.3023843765258789
v 0.002962124766781926 0.04646647721529007 0.30181366205215454
v 0.0061827003955841064 0.04623497277498245 0.29984864592552185
v 0.014359559863805771 0.04296134412288666 0.2993367910385132
v 0.10935642570257187 0.06446318328380585 0.28713685274124146
v 0.11060981452465057 0.055332936346530914 0.290519654750824
v 0.047960732132196426 0.0594337098300457 0.2791028916835785
v 0.053828753530979156 0.05162777006626129 0.27400222420692444
v 0.04298291727900505 0.04950404167175293 0.2704368233680725
v 0.039946362376213074 0.05795764550566673 0.2767546772956848
v 0.0920514315366745 0.07323949038982391 0.2933943271636963
v 0.09951843321323395 0.07317516207695007 0.2910783886909485
v -0.029272234067320824 0.061213716864585876 0.32593828439712524
v -0.026174627244472504 0.06005709618330002 0.3286522626876831
v 0.07549438625574112 0.05499032884836197 0.3570278286933899
v 0.05985403060913086 0.04996556043624878 0.3617039620876312
v 0.08755046874284744 0.05858742445707321 0.3520691990852356
v 0.09566561132669449 0.061689700931310654 0.34771284461021423
v 0.10366354137659073 0.06362216174602509 0.3465588390827179
v 0.01773003302514553 0.041039127856492996 0.3285979628562927
v 0.04097580537199974 0.04058849439024925 0.32540589570999146
v 0.05459700897336006 0.04171614721417427 0.3135823607444763
v 0.059312112629413605 0.0337032712996006 0.2845807671546936
v 0.0699121356010437 0.033498503267765045 0.28630852699279785
v 0.06419119238853455 0.033436574041843414 0.2951408624649048
v 0.05608028173446655 0.03431060537695885 0.29171866178512573
v 0.054157864302396774 0.04199855774641037 0.2729205787181854
v 0.050895437598228455 0.036197565495967865 0.2771155834197998
v 0.04105500876903534 0.03610577434301376 0.27513018250465393
v 0.043718788772821426 0.041019294410943985 0.2706540822982788
v 0.03860355168581009 0.05230310931801796 0.3584965169429779
v 0.0474826954305172 0.055213142186403275 0.3570788502693176
v 0.09737677127122879 0.04555709660053253 0.2891308665275574
v 0.1040005013346672 0.046445224434137344 0.2929133176803589
v 0.11159107089042664 0.049140747636556625 0.2951016128063202
v 0.07719999551773071 0.035458970814943314 0.3145136833190918
v 0.09086009114980698 0.0354006364941597 0.3172449767589569
v 0.09005511552095413 0.03453466296195984 0.32230421900749207
v 0.07657530158758163 0.03515883535146713 0.3174994885921478
v 0.06872271001338959 0.027115244418382645 0.33522123098373413
v 0.08133925497531891 0.029178936034440994 0.339019775390625
v 0.058935508131980896 0.02403692528605461 0.3455706834793091
v 0.10199812799692154 0.04095664247870445 0.32548558712005615
v 0.11079645156860352 0.042115919291973114 0.3191187381744385
v 0.11038116365671158 0.04383893683552742 0.3279050290584564
v 0.11174780130386353 0.04287685826420784 0.3094068169593811
v 0.1120700016617775 0.04505271837115288 0.3007722496986389
v 0.10732539743185043 0.07599692791700363 0.28947147727012634
v 0.1088888943195343 0.047150351107120514 0.335655152797699
v 0.04634096473455429 0.027942325919866562 0.3607211410999298
v 0.038134925067424774 0.030830329284071922 0.3622779846191406
v 0.03492339700460434 0.031139209866523743 0.3554677963256836
v 0.04165688902139664 0.027766533195972443 0.3541763722896576
v 0.007381027564406395 0.052417729049921036 0.3465394675731659
v 0.009197957813739777 0.04526916891336441 0.34527352452278137
v 0.01970795914530754 0.04453457146883011 0.34707674384117126
v 0.0803636983036995 0.032725900411605835 0.3027177155017853
v 0.08512601256370544 0.035161226987838745 0.2914174497127533
v 0.008515596389770508 0.0430617593228817 0.33006441593170166
v -0.024354849010705948 0.05539083853363991 0.3318452835083008
v -0.025036705657839775 0.04967218264937401 0.3307783305644989
v -0.008619855158030987 0.04892969876527786 0.3394891321659088
v -0.00989726185798645 0.05538569390773773 0.3396565914154053
v 0.0014603657182306051 0.051322273910045624 0.3246900141239166
v 0.0041727470234036446 0.04682445153594017 0.3265807628631592
v 0.0017349414993077517 0.049378398805856705 0.32451680302619934
v -0.0004329585935920477 0.05456867814064026 0.32152259349823
v 0.01141288224607706 0.04472923278808594 0.29217618703842163
v 0.018266696482896805 0.042015235871076584 0.2916940450668335
v 0.010740185156464577 0.06484747678041458 0.323822557926178
v 0.01046593114733696 0.06688722968101501 0.3381907343864441
v 0.022336075082421303 0.0674138218164444 0.33606287837028503
v 0.033661775290966034 0.04186844080686569 0.3063947260379791
v 0.02301383949816227 0.04151817411184311 0.30417150259017944
v 0.02416149340569973 0.041163090616464615 0.30017727613449097
v 0.014339866116642952 0.04196775332093239 0.3250468671321869
v 0.007210228592157364 0.04503631591796875 0.3253326117992401
v 0.009339876472949982 0.043180111795663834 0.32084476947784424
v 0.016897153109312057 0.04207254946231842 0.3200029134750366
v 0.0659186914563179 0.054419223219156265 0.27705228328704834
v 0.06672579050064087 0.04302796721458435 0.2754570543766022
v -0.03375852480530739 0.05015509948134422 0.3185044527053833
v -0.028974751010537148 0.046667344868183136 0.321946382522583
v 0.04507845640182495 0.0421874076128006 0.30779868364334106
v 0.03640051931142807 0.06745507568120956 0.33557620644569397
v 0.05642550438642502 0.04098571464419365 0.30854809284210205
v 0.022254491224884987 0.059141673147678375 0.2844061255455017
v 0.021056894212961197 0.05416915938258171 0.2812751829624176
v 0.013573665171861649 0.054516274482011795 0.2829132676124573
v 0.013718994334340096 0.05981264263391495 0.28445690870285034
v -0.013709967024624348 0.05782194063067436 0.315353125333786
v -0.01464319508522749 0.05181901529431343 0.3149246275424957
v -0.018053704872727394 0.052600543946027756 0.31223663687705994
v -0.016229216009378433 0.057560719549655914 0.31351932883262634
v 0.00437875185161829 0.043411388993263245 0.3308910131454468
v 0.003997109830379486 0.042145177721977234 0.3373526930809021
v -0.0021455574315041304 0.042894396930933 0.33191367983818054
v -0.0001596480142325163 0.045795176178216934 0.3273605704307556
v 0.0006044798064976931 0.0450117327272892 0.34072625637054443
v -0.005508008413016796 0.04432002454996109 0.33664000034332275
v -0.015204564668238163 0.06268736720085144 0.31994789838790894
v -0.01890028640627861 0.06434356421232224 0.3269275724887848
v -0.006240525282919407 0.06415805220603943 0.33068063855171204
v -0.004471260122954845 0.06065082550048828 0.32384195923805237
v 0.06668488681316376 0.07308392226696014 0.3007182478904724
v 0.07045448571443558 0.06916582584381104 0.2911395728588104
v 0.05656711012125015 0.06576492637395859 0.2884954810142517
v 0.04354814812541008 0.06311729550361633 0.285442590713501
v 0.030922526493668556 0.05937167629599571 0.2835051417350769
v 0.026694513857364655 0.06560975313186646 0.2925734519958496
v 0.06052026525139809 0.06253907084465027 0.28238141536712646
v 0.0030361844692379236 0.054721225053071976 0.322099894285202
v 0.0037961078342050314 0.06271573156118393 0.3306499421596527
v 0.006594168953597546 0.06047835201025009 0.3222755193710327
v 0.05798140540719032 0.038252800703048706 0.30187317728996277
v -0.023152677342295647 0.045939236879348755 0.32793018221855164
v 0.0924777239561081 0.07711966335773468 0.3351286053657532
v 0.09262629598379135 0.08088746666908264 0.32296863198280334
v 0.08418958634138107 0.07887911051511765 0.32451337575912476
v 0.08375675231218338 0.07420171797275543 0.3372669219970703
v -0.016609778627753258 0.04611947014927864 0.3181467354297638
v -0.020105386152863503 0.04385754466056824 0.32279062271118164
v 0.018262052908539772 0.04248901829123497 0.2851063013076782
v 0.012137996032834053 0.04570738971233368 0.28665226697921753
v 0.010879658162593842 0.048239730298519135 0.28409940004348755
v 0.016497096046805382 0.04474879801273346 0.27987271547317505
v 0.0736786425113678 0.06659984588623047 0.28701311349868774
v 0.036495622247457504 0.04929210618138313 0.2683170437812805
v 0.034612201154232025 0.056939780712127686 0.27361977100372314
v 0.08270043134689331 0.07216787338256836 0.2938961088657379
v 0.07951128482818604 0.07614212483167648 0.3021497130393982
v 0.0889488235116005 0.07815389335155487 0.30261150002479553
v 0.0153203085064888 0.06587822735309601 0.3030761480331421
v 0.06198727339506149 0.07467399537563324 0.30777809023857117
v 0.07605234533548355 0.07710471749305725 0.3088730275630951
v 0.08721265941858292 0.07951488345861435 0.30975058674812317
v 0.09521960467100143 0.08173991739749908 0.30963844060897827
v 0.09635552018880844 0.07980023324489594 0.30183130502700806
v -0.02203681506216526 0.06090288236737251 0.3299994170665741
v -0.02183503471314907 0.06319132447242737 0.3255845010280609
v 0.10464344173669815 0.08314865827560425 0.30038100481033325
v 0.10313669592142105 0.08456684648990631 0.3093956708908081
v 0.0728842094540596 0.07733330875635147 0.3175114095211029
v 0.06935731321573257 0.07623622566461563 0.3272255063056946
v 0.0593707375228405 0.07484466582536697 0.3159942328929901
v 0.054711390286684036 0.07367820292711258 0.32585495710372925
v 0.016232164576649666 0.06956333667039871 0.31228283047676086
v -0.02892015501856804 0.07156363129615784 0.3142324984073639
v -0.02150036208331585 0.0655415952205658 0.3181406855583191
v -0.0204803217202425 0.06252757459878922 0.31287652254104614
v -0.027514459565281868 0.07057268172502518 0.3104734718799591
v -0.01754293031990528 0.06138679012656212 0.3185964822769165
v -0.024539491161704063 0.0652090460062027 0.32331621646881104
v 0.051607418805360794 0.06857901066541672 0.3369086980819702
v 0.0030171622056514025 0.04624222218990326 0.3201494514942169
v 0.06777748465538025 0.06923503428697586 0.33982741832733154
v 0.04429941624403 0.06186971813440323 0.3483036160469055
v 0.05623945593833923 0.06148703396320343 0.3506038784980774
v 0.08423440158367157 0.06887257844209671 0.34571337699890137
v 0.0715029314160347 0.06363853067159653 0.3517938256263733
v 0.10124606639146805 0.07251866161823273 0.3424639105796814
v 0.09256065636873245 0.07110720872879028 0.34331685304641724
v 0.060422033071517944 0.05752860754728317 0.35663723945617676
v -0.03559054806828499 0.058873727917671204 0.3084457814693451
v -0.031070388853549957 0.061844345182180405 0.3066958487033844
v 0.1004868745803833 0.07943621277809143 0.3344765901565552
v 0.04866916313767433 0.02488185092806816 0.3517923355102539
v 0.06824187934398651 0.03638774901628494 0.3051391541957855
v 0.06660998612642288 0.03843415156006813 0.30989760160446167
v 0.07607786357402802 0.03393278270959854 0.2880460321903229
v 0.07134486734867096 0.03321157023310661 0.298615425825119
v -0.039120592176914215 0.057979848235845566 0.31218090653419495
v -0.0012290095910429955 0.05174672231078148 0.3023195266723633
v 0.005207139067351818 0.05116596072912216 0.3019591271877289
v 0.05000930279493332 0.03350271284580231 0.36560165882110596
v 0.04215666651725769 0.034854330122470856 0.3673616647720337
v 0.041539810597896576 0.04782378673553467 0.36742985248565674
v 0.04232633486390114 0.04110763967037201 0.36950406432151794
v 0.051440153270959854 0.04197103530168533 0.3667420744895935
v 0.05076511204242706 0.049261484295129776 0.36404478549957275
v 0.0773564800620079 0.035272665321826935 0.31206217408180237
v 0.07776656001806259 0.03453473001718521 0.30835607647895813
v 0.07715832442045212 0.05503004789352417 0.2806117534637451
v 0.07735534012317657 0.04362404718995094 0.2793898284435272
v -0.001377368113026023 0.050634145736694336 0.342820405960083
v 0.00607232004404068 0.05945265293121338 0.3447240889072418
v -0.0023227257188409567 0.057088226079940796 0.3423175513744354
v -0.007557251490652561 0.06142906844615936 0.33732709288597107
v 0.0008075737860053778 0.05098174139857292 0.32143154740333557
v 0.0013981082011014223 0.05726741626858711 0.32606372237205505
v 0.0859110876917839 0.03169780969619751 0.32939577102661133
v 0.0739370584487915 0.03210242837667465 0.32429152727127075
v 0.03749234229326248 0.03041740506887436 0.3510173559188843
v 0.033034443855285645 0.03549866005778313 0.3512623608112335
v 0.021254712715744972 0.04218342527747154 0.31313738226890564
v 0.004015595652163029 0.06447619199752808 0.3058622181415558
v 0.005899663083255291 0.06719367951154709 0.3134438991546631
v 0.01150144450366497 0.04313385486602783 0.3123675286769867
v -0.039421938359737396 0.06302566081285477 0.31862062215805054
v -0.04038257896900177 0.05949439853429794 0.3152509033679962
v -7.260101847350597e-05 0.0628494843840599 0.33917734026908875
v 0.0269462987780571 0.03893064707517624 0.29245516657829285
v 0.012761618942022324 0.06229938939213753 0.30012550950050354
v 0.00015911704394966364 0.059482641518116 0.30300024151802063
v 0.037187520414590836 0.04117286950349808 0.26918649673461914
v 0.10127069801092148 0.08291476219892502 0.3225667476654053
v -0.02286934293806553 0.05835267901420593 0.31037214398384094
v -0.027679504826664925 0.0655817985534668 0.3067624270915985
v -0.031050726771354675 0.070803202688694 0.3178575932979584
v -0.035210080444812775 0.06734900176525116 0.3204919695854187
v 0.08666303753852844 0.04381566122174263 0.2846143841743469
v 0.06516000628471375 0.03942740708589554 0.31294938921928406
v 0.05120496451854706 0.054642029106616974 0.3587689995765686
v 0.04047881066799164 0.05216416344046593 0.36265984177589417
v 0.004381310194730759 0.04494183883070946 0.3106648325920105
v 0.02832820639014244 0.05710835009813309 0.27938851714134216
v 0.01852339506149292 0.06487368047237396 0.29061150550842285
v 0.012177437543869019 0.06519977748394012 0.2910108268260956
v 0.009735232219099998 0.0634571760892868 0.2978767156600952
v 0.0063727907836437225 0.057603783905506134 0.3016703426837921
v -0.034260258078575134 0.0731915682554245 0.3148999512195587
v -0.03797408938407898 0.06976691633462906 0.3174917697906494
v -0.04219258576631546 0.06538565456867218 0.3158227503299713
v -0.04300049692392349 0.062417883425951004 0.3128846287727356
v -0.04081692546606064 0.06053512170910835 0.3098302483558655
v -0.03243641555309296 0.07474134862422943 0.3113209009170532
v -0.03159920871257782 0.07384154200553894 0.30780401825904846
v -0.030376436188817024 0.0684962123632431 0.3049870431423187
v -0.03588007390499115 0.07709629088640213 0.30801498889923096
v -0.04060915857553482 0.07736397534608841 0.3105388879776001
v -0.051355648785829544 0.0699077919125557 0.30640125274658203
v -0.047909557819366455 0.06929540634155273 0.3109836280345917
v -0.0487409345805645 0.07167263329029083 0.3101179897785187
v -0.05164555087685585 0.07315406203269958 0.3064218759536743
v -0.054300423711538315 0.07603712379932404 0.3031194806098938
v -0.05452528968453407 0.07253927737474442 0.3026474118232727
v -0.0450708381831646 0.07396241277456284 0.31168437004089355
v -0.048750344663858414 0.07663238048553467 0.3068256378173828
v -0.04570424184203148 0.07926955819129944 0.30564215779304504
v -0.04930029436945915 0.081641286611557 0.3022124767303467
v -0.05219307914376259 0.07953100651502609 0.30334919691085815
v -0.043535634875297546 0.07744558155536652 0.3092975616455078
v -0.043515488505363464 0.07323381304740906 0.3132690489292145
v -0.05564229562878609 0.07600577175617218 0.29986193776130676
v -0.05547807738184929 0.07800979912281036 0.30137360095977783
v -0.05366506054997444 0.080740787088871 0.3009811341762543
v -0.05436984822154045 0.08047852665185928 0.2980361580848694
v -0.045660704374313354 0.06395796686410904 0.3098721504211426
v -0.050902679562568665 0.06787579506635666 0.30477452278137207
v -0.052935730665922165 0.07121067494153976 0.30021870136260986
v -0.05420096591114998 0.0748634785413742 0.29770562052726746
v -0.04886651784181595 0.0676514059305191 0.3011949360370636
v -0.050752174109220505 0.0710420310497284 0.2982743978500366
v -0.05142921581864357 0.07432232797145844 0.295986145734787
v -0.0460391566157341 0.06894955039024353 0.29828834533691406
v -0.048336226493120193 0.07206258922815323 0.2964949607849121
v -0.03914554789662361 0.06264659017324448 0.30510807037353516
v -0.04214657098054886 0.06142688915133476 0.3078802227973938
v -0.04957519844174385 0.07388060539960861 0.2950037717819214
v -0.05319076403975487 0.0799015462398529 0.296232134103775
v -0.042082637548446655 0.07976354658603668 0.3049355447292328
v -0.04686206951737404 0.08173253387212753 0.300133615732193
v -0.04041484743356705 0.07947145402431488 0.30319052934646606
v -0.045052800327539444 0.08177737891674042 0.29853418469429016
v -0.05042150244116783 0.08322105556726456 0.29800665378570557
v -0.0512918196618557 0.08229979872703552 0.3002416789531708
v -0.036654677242040634 0.061016082763671875 0.307113379240036
v -0.03231189027428627 0.06454238295555115 0.30507227778434753
v -0.03454139828681946 0.0662631094455719 0.30305343866348267
v -0.04250093549489975 0.07176508009433746 0.2967042326927185
v -0.03297387436032295 0.07043933123350143 0.30280134081840515
v -0.03485720604658127 0.07588672637939453 0.30454790592193604
v -0.03991805016994476 0.07857178151607513 0.3003493845462799
v -0.04000411182641983 0.076092928647995 0.29793164134025574
v -0.04393218830227852 0.08000544458627701 0.2969801127910614
v -0.04401279613375664 0.0776483491063118 0.29597651958465576
v -0.04585104063153267 0.07437514513731003 0.29516980051994324
v -0.04757801815867424 0.08010908216238022 0.2950744032859802
v -0.04906574264168739 0.08227527141571045 0.2964801788330078
v -0.05069318786263466 0.07804268598556519 0.294887900352478
v -0.04651018604636192 0.0784626305103302 0.2947615683078766
v -0.04862452670931816 0.0763336718082428 0.2948884069919586
v -0.03575300797820091 0.04912376403808594 0.32586023211479187
v -0.03713221848011017 0.049238916486501694 0.3198540508747101
v -0.030525248497724533 0.04710395634174347 0.3184817433357239
v -0.029543831944465637 0.04694000631570816 0.3238057494163513
v -0.03065415658056736 0.060969028621912 0.3295418620109558
v -0.032283566892147064 0.0552603118121624 0.3308015465736389
v -0.027089405804872513 0.054253481328487396 0.33026012778282166
v -0.0261844489723444 0.06108841300010681 0.328609824180603
v -0.030323730781674385 0.06467948853969574 0.32402095198631287
v -0.026232149451971054 0.06491703540086746 0.32291877269744873
v -0.022427275776863098 0.062381938099861145 0.32785823941230774
v -0.022042136639356613 0.05525613948702812 0.328959584236145
v -0.0028534438461065292 0.05527964606881142 0.3221108019351959
v -0.0035627412144094706 0.0626351460814476 0.32182684540748596
v -0.00535239465534687 0.04855744168162346 0.3060137927532196
v -0.0072382111102342606 0.052066102623939514 0.3056297302246094
v -0.03430300951004028 0.05125885456800461 0.3288220465183258
v -0.02819993533194065 0.04984072223305702 0.3278469145298004
v -0.027639662846922874 0.05293768644332886 0.3101739287376404
v -0.02671024017035961 0.048418693244457245 0.31309813261032104
v -0.031877584755420685 0.049044281244277954 0.31419190764427185
v -0.031863268464803696 0.05350204557180405 0.3113273084163666
v -0.0018834699876606464 0.048037298023700714 0.3171648681163788
v -0.002780175069347024 0.047721803188323975 0.3109896779060364
v -0.0026566137094050646 0.05054659768939018 0.32010412216186523
v -0.027467506006360054 0.05936657264828682 0.3105667233467102
v -0.026260124519467354 0.06518086045980453 0.3139852285385132
v -0.007919873110949993 0.06587962806224823 0.30905213952064514
v -0.00939104612916708 0.060588981956243515 0.3058156371116638
v -0.022824518382549286 0.04987018182873726 0.32712578773498535
v -0.025254566222429276 0.0463683120906353 0.31787022948265076
v -0.023978805169463158 0.04646209627389908 0.322796493768692
v -0.023801187053322792 0.06591501086950302 0.32166415452957153
v -0.02937069535255432 0.06436516344547272 0.3154076337814331
v -0.04587927833199501 0.06495106965303421 0.31611719727516174
v -0.0354464165866375 0.06031368300318718 0.3130856156349182
v -0.03724223002791405 0.05558566004037857 0.3130342662334442
v -0.04886501654982567 0.06121906265616417 0.31531086564064026
v -0.031327031552791595 0.05877862125635147 0.31153634190559387
v -0.03279990702867508 0.06429920345544815 0.3168390095233917
v -0.05151733383536339 0.055149372667074203 0.32651230692863464
v -0.05270197615027428 0.05547216162085533 0.32073524594306946
v -0.049751702696084976 0.057070136070251465 0.3300212323665619
v -0.005528582260012627 0.06697375327348709 0.3160044848918915
v -0.042962729930877686 0.06442329287528992 0.33057913184165955
v -0.04679076746106148 0.059543438255786896 0.3316614627838135
v -0.03803831711411476 0.05133970454335213 0.31528493762016296
v -0.05179475247859955 0.058047134429216385 0.3169296383857727
v -0.043513331562280655 0.06762965768575668 0.31887733936309814
v -0.04084335267543793 0.06795677542686462 0.3251732885837555
v -0.04855461046099663 0.06845887005329132 0.3199518322944641
v -0.04655049741268158 0.06899465620517731 0.3256968855857849
v -0.04866355285048485 0.0659332424402237 0.33133214712142944
v -0.05197558179497719 0.061741046607494354 0.3321600556373596
v -0.05420837923884392 0.0590372309088707 0.33033624291419983
v -0.05088523402810097 0.06668590754270554 0.3173275887966156
v -0.054083190858364105 0.06366019695997238 0.3161279559135437
v -0.055286914110183716 0.05932271108031273 0.3178085386753082
v -0.057230882346630096 0.0695318728685379 0.31763559579849243
v -0.056000642478466034 0.07217760384082794 0.3206532895565033
v -0.0674244835972786 0.07551739364862442 0.3328731656074524
v -0.06230791658163071 0.07275912165641785 0.33271488547325134
v -0.06168811768293381 0.07479647547006607 0.3311617076396942
v -0.06630003452301025 0.0775938481092453 0.3312649428844452
v -0.05640125647187233 0.07151329517364502 0.3317830562591553
v -0.057665713131427765 0.07336100935935974 0.33029115200042725
v -0.056233961135149 0.07375279068946838 0.3261212110519409
v -0.06141382455825806 0.07606516778469086 0.32657814025878906
v -0.06140296533703804 0.07537993043661118 0.3218231499195099
v -0.06570016592741013 0.07897430658340454 0.32191091775894165
v -0.06573301553726196 0.07999561727046967 0.3267226219177246
v -0.05762062966823578 0.07412820309400558 0.3226471543312073
v -0.06910469383001328 0.0795111134648323 0.33027881383895874
v -0.07149317860603333 0.07847139239311218 0.33054956793785095
v -0.05392948538064957 0.07224539667367935 0.3262910842895508
v -0.055601567029953 0.06516633182764053 0.33292508125305176
v -0.063803531229496 0.07011337578296661 0.3330533802509308
v -0.06960674375295639 0.0732136145234108 0.3323027193546295
v -0.07343310117721558 0.07669611275196075 0.32898327708244324
v -0.06622790545225143 0.06751815974712372 0.3310410976409912
v -0.07123500853776932 0.0713987797498703 0.33027324080467224
v -0.07390480488538742 0.07453498244285583 0.3273201584815979
v -0.06824934482574463 0.06557442247867584 0.3274085521697998
v -0.07265585660934448 0.06985727697610855 0.3266807794570923
v -0.05849337577819824 0.058609187602996826 0.327162504196167
v -0.05724932625889778 0.06092429161071777 0.33111706376075745
v -0.07374770939350128 0.07242068648338318 0.3261663615703583
v -0.07158315181732178 0.08119727671146393 0.32644814252853394
v -0.07383479923009872 0.07880999892950058 0.3253464996814728
v -0.06972156465053558 0.08133675158023834 0.32674145698547363
v -0.061931222677230835 0.07460546493530273 0.31996220350265503
v -0.06706976890563965 0.07792729884386063 0.3203413784503937
v -0.0631365031003952 0.0730186253786087 0.31814950704574585
v -0.06882162392139435 0.0767393410205841 0.31914448738098145
v -0.07054576277732849 0.08041785657405853 0.32182174921035767
v -0.06942874193191528 0.08113354444503784 0.32305634021759033
v -0.055080801248550415 0.05713446065783501 0.3265615701675415
v -0.05563800036907196 0.05718861520290375 0.32119691371917725
v -0.05888063833117485 0.05844268202781677 0.3217293620109558
v -0.06837328523397446 0.06551382690668106 0.32247984409332275
v -0.05839516967535019 0.06096695736050606 0.31790444254875183
v -0.05845334380865097 0.06637932360172272 0.31663778424263
v -0.06441731750965118 0.07063315808773041 0.31748881936073303
v -0.06682520359754562 0.06785812973976135 0.3187659978866577
v -0.06987106800079346 0.07498739659786224 0.3181725740432739
v -0.07029382139444351 0.07179298251867294 0.31908586621284485
v -0.07232160866260529 0.06965354084968567 0.32279154658317566
v -0.07307974994182587 0.07735514640808105 0.3203619718551636
v -0.07188118994235992 0.0793934166431427 0.32108697295188904
v -0.07429034262895584 0.07668337970972061 0.3245447874069214
v -0.07292759418487549 0.07427509129047394 0.32035452127456665
v -0.07405781000852585 0.07350138574838638 0.32369744777679443
v -0.022626733407378197 0.052912384271621704 0.29996681213378906
v -0.022171618416905403 0.050624847412109375 0.29485106468200684
v -0.01712573692202568 0.048427630215883255 0.2951323688030243
v -0.017745239660143852 0.050785742700099945 0.3003786504268646
v -0.01797383837401867 0.06520181149244308 0.29938817024230957
v -0.020248616114258766 0.06158846616744995 0.3020572364330292
v -0.01628502644598484 0.0600467287003994 0.30283594131469727
v -0.01307956874370575 0.06385312229394913 0.30020222067832947
v -0.018110405653715134 0.06703302264213562 0.2940846383571625
v -0.011872341856360435 0.0652984008193016 0.29458382725715637
v -0.008528018370270729 0.0645916610956192 0.3004973232746124
v -0.01178823970258236 0.059805892407894135 0.30306893587112427
v 0.0029550346080213785 0.05780358612537384 0.3021104037761688
v 0.004237119108438492 0.06405317038297653 0.29919278621673584
v -0.021735450252890587 0.05708039551973343 0.3018684387207031
v -0.017751149833202362 0.055319108068943024 0.3026009202003479
v -0.011517813429236412 0.05106469988822937 0.28650328516960144
v -0.011923778802156448 0.04826200753450394 0.2903101146221161
v -0.016765009611845016 0.049370475113391876 0.28976908326148987
v -0.01610289141535759 0.05195240676403046 0.2865830957889557
v 0.004719936288893223 0.04759521782398224 0.29918497800827026
v 0.006851384416222572 0.046776238828897476 0.2933787703514099
v 0.002476931782439351 0.05175238847732544 0.3017386794090271
v -0.010449894703924656 0.057017236948013306 0.28486451506614685
v -0.008228087797760963 0.06353513896465302 0.2874385714530945
v 0.004525866359472275 0.06190863251686096 0.285788357257843
v 0.004836627282202244 0.05582989752292633 0.2846152186393738
v -0.01319090649485588 0.054725129157304764 0.3031124174594879
v -0.011963770724833012 0.04756099358201027 0.2954670786857605
v -0.01314474269747734 0.049792129546403885 0.3007485270500183
v -0.007648001424968243 0.06587570905685425 0.2945312559604645
v -0.012873397208750248 0.06284304708242416 0.2880405783653259
v -0.03340284898877144 0.0666092187166214 0.2850181460380554
v -0.018626948818564415 0.059287089854478836 0.285084992647171
v -0.020779963582754135 0.05412716418504715 0.28647908568382263
v -0.03536723181605339 0.06282219290733337 0.2846326529979706
v -0.015035619027912617 0.05727292597293854 0.28486743569374084
v -0.017422305420041084 0.06471803784370422 0.28793856501579285
v -0.038214631378650665 0.05883970856666565 0.29699623584747314
v -0.03771830350160599 0.05731261149048805 0.29197171330451965
v -0.035837322473526 0.06155109405517578 0.29936349391937256
v 0.004971794784069061 0.06634396314620972 0.2924775779247284
v 0.006302976980805397 0.04952796548604965 0.28690609335899353
v -0.03310973569750786 0.06815726310014725 0.29850849509239197
v -0.03461071848869324 0.06451019644737244 0.2998412251472473
v -0.021477896720170975 0.051449332386255264 0.28969690203666687
v -0.036922939121723175 0.05909164249897003 0.2869163751602173
v -0.031338613480329514 0.0697425976395607 0.2879083454608917
v -0.030654987320303917 0.07097072899341583 0.2937869131565094
v -0.03554607182741165 0.07064133882522583 0.28756654262542725
v -0.034823331981897354 0.07139897346496582 0.2934386134147644
v -0.03741167485713959 0.06905244290828705 0.29826825857162476
v -0.039167068898677826 0.0654723271727562 0.2992597222328186
v -0.0404910109937191 0.0625336617231369 0.29850611090660095
v -0.0378543846309185 0.0683765858411789 0.28454989194869995
v -0.039948225021362305 0.06524330377578735 0.2841392755508423
v -0.039372969418764114 0.06021840125322342 0.2866598963737488
v -0.04209562763571739 0.07016043365001678 0.28434517979621887
v -0.04177073389291763 0.07400412857532501 0.2877841889858246
v -0.05577148124575615 0.07584655284881592 0.2970418930053711
v -0.050503723323345184 0.07333120703697205 0.29753556847572327
v -0.050227511674165726 0.07418190687894821 0.29666683077812195
v -0.05516638606786728 0.07727260142564774 0.2961522042751312
v -0.04372476041316986 0.07222846150398254 0.297468364238739
v -0.04522930085659027 0.07347367703914642 0.2964375615119934
v -0.04335245117545128 0.07458263635635376 0.29330915212631226
v -0.0491357296705246 0.07748903334140778 0.2925938367843628
v -0.04861130565404892 0.07579001784324646 0.28684213757514954
v -0.0531623400747776 0.07823441177606583 0.2870611846446991
v -0.05396570637822151 0.08011941611766815 0.2923394441604614
v -0.04362200200557709 0.07479061186313629 0.28894951939582825
v -0.05767950415611267 0.07895054668188095 0.29490435123443604
v -0.05889645591378212 0.07849275320768356 0.2961735129356384
v -0.04094228520989418 0.07378862053155899 0.29327964782714844
v -0.044209498912096024 0.06774850934743881 0.29903846979141235
v -0.05153128504753113 0.07067050039768219 0.2982717454433441
v -0.05706126242876053 0.07304884493350983 0.2977902293205261
v -0.060236863791942596 0.07510649412870407 0.29557016491889954
v -0.05264442041516304 0.06740537285804749 0.2965579926967621
v -0.05747932940721512 0.07038718461990356 0.2960363030433655
v -0.060314565896987915 0.07231082767248154 0.2941056191921234
v -0.053048618137836456 0.06542117893695831 0.2940548360347748
v -0.05743281543254852 0.06837109476327896 0.29345712065696716
v -0.04361741989850998 0.06073800474405289 0.29530131816864014
v -0.04415866360068321 0.06378903985023499 0.29797595739364624
v -0.05966123566031456 0.07065549492835999 0.29263386130332947
v -0.05921042338013649 0.08022245019674301 0.29178184270858765
v -0.06115788593888283 0.07673514634370804 0.2903740108013153
v -0.057548295706510544 0.08026956021785736 0.2920204699039459
v -0.04802694171667099 0.07488282024860382 0.28532567620277405
v -0.05422879755496979 0.07736709713935852 0.2850760817527771
v -0.04850266873836517 0.07254921644926071 0.2839464545249939
v -0.05488651245832443 0.07499730587005615 0.28383177518844604
v -0.057465143501758575 0.07933070510625839 0.28698861598968506
v -0.05665988847613335 0.07969983667135239 0.2878805100917816
v -0.040635302662849426 0.059604112058877945 0.2959272563457489
v -0.04014205187559128 0.05851910263299942 0.29111403226852417
v -0.04321502149105072 0.05981382355093956 0.290625661611557
v -0.05322158336639404 0.0650053471326828 0.28960922360420227
v -0.04239664971828461 0.06160154938697815 0.28638389706611633
v -0.04399845749139786 0.06729716062545776 0.2838659882545471
v -0.04996970668435097 0.06974387913942337 0.28417879343032837
v -0.05192109942436218 0.06705033779144287 0.2858227491378784
v -0.05555962026119232 0.07236781716346741 0.28422924876213074
v -0.05559724196791649 0.06993383169174194 0.2856992483139038
v -0.057515304535627365 0.0678044855594635 0.28951069712638855
v -0.05874113366007805 0.07395756989717484 0.28614458441734314
v -0.058479201048612595 0.07694737613201141 0.28587982058525085
v -0.061055514961481094 0.07353412359952927 0.2899501621723175
v -0.058490920811891556 0.07147641479969025 0.2868129014968872
v -0.060060158371925354 0.07110630720853806 0.2897540330886841
v 0.007235722616314888 0.04716290161013603 0.2892113924026489
v -0.0010346171911805868 0.05520929396152496 0.2600688934326172
v -4.5434338971972466e-05 0.052031248807907104 0.25787901878356934
v 0.003356063039973378 0.049515027552843094 0.26017287373542786
v 0.0020140584092587233 0.05188579484820366 0.26311567425727844
v 0.006610236130654812 0.06331400573253632 0.25932711362838745
v 0.0026483547408133745 0.061692871153354645 0.2608807384967804
v 0.00510508194565773 0.06000342220067978 0.2647170126438141
v 0.008701946586370468 0.062184400856494904 0.26307860016822815
v 0.009557398967444897 0.062358543276786804 0.2557995915412903
v 0.011624219827353954 0.06099928170442581 0.2592436969280243
v 0.010834834538400173 0.06143277883529663 0.26510825753211975
v 0.007876298390328884 0.05840586870908737 0.2675435543060303
v 0.019967293366789818 0.05492190644145012 0.2768772840499878
v 0.023900100961327553 0.057985447347164154 0.27454066276550293
v 0.03176853433251381 0.042750708758831024 0.2678089439868927
v 0.029099833220243454 0.03943120688199997 0.27185189723968506
v 0.02277696505188942 0.04247264564037323 0.2681024968624115
v 0.025819968432188034 0.04417620226740837 0.2651705741882324
v 3.873300738632679e-05 0.05871354416012764 0.26101991534233093
v 0.002318056533113122 0.055970385670661926 0.2648667097091675
v 0.01394734252244234 0.047676242887973785 0.2567436397075653
v 0.010315760970115662 0.046280212700366974 0.25940361618995667
v 0.0058820974081754684 0.04739072918891907 0.2576497793197632
v 0.009400423616170883 0.0478488951921463 0.2549271285533905
v 0.02490253746509552 0.04015720263123512 0.2753702998161316
v 0.02217431180179119 0.04153962433338165 0.27848947048187256
v 0.018534677103161812 0.0440237894654274 0.27622151374816895
v 0.019634120166301727 0.04284438118338585 0.27161797881126404
v 0.01625663973391056 0.04833298176527023 0.27829015254974365
v 0.01593179814517498 0.05117858201265335 0.2556198537349701
v 0.01659632846713066 0.056452326476573944 0.25684261322021484
v 0.030475301668047905 0.05214570835232735 0.2644106447696686
v 0.02933552861213684 0.047518111765384674 0.2645525336265564
v 0.005122702568769455 0.05423547700047493 0.26777273416519165
v 0.007227958180010319 0.04744232818484306 0.26236653327941895
v 0.005364933982491493 0.049535054713487625 0.26556503772735596
v 0.013882012106478214 0.06108199059963226 0.26011255383491516
v 0.013632560148835182 0.05651926249265671 0.2554396688938141
v 0.0029451141599565744 0.05571287125349045 0.24432723224163055
v 0.009514839388430119 0.051821719855070114 0.25168126821517944
v 0.005359873175621033 0.04936382919549942 0.25259262323379517
v 0.00034119398333132267 0.05493539199233055 0.24478104710578918
v 0.012504784390330315 0.05115128681063652 0.2539380192756653
v 0.011320757679641247 0.057406388223171234 0.2525947093963623
v -0.006729119457304478 0.06078842654824257 0.2515637278556824
v -0.005239272490143776 0.056541334837675095 0.2493232935667038
v -0.005384558811783791 0.06333988904953003 0.2525213658809662
v 0.027987293899059296 0.058107178658246994 0.268884539604187
v 0.0009509243536740541 0.06615875661373138 0.250811368227005
v -0.003112948266789317 0.06580044329166412 0.2521476447582245
v 0.0020200249273329973 0.04991687089204788 0.25523489713668823
v -0.002420991426333785 0.05501535162329674 0.2468048483133316
v 0.0050951093435287476 0.05881015211343765 0.24501407146453857
v 0.004798632115125656 0.06404339522123337 0.24787631630897522
v 0.003579616779461503 0.06054513156414032 0.24112163484096527
v 0.003414337756112218 0.0653838962316513 0.24493277072906494
v -0.0010521688964217901 0.06829982250928879 0.24741551280021667
v -0.004327448084950447 0.06760594248771667 0.24899068474769592
v -0.006887427531182766 0.06570292264223099 0.24928975105285645
v 0.0010687655303627253 0.057604193687438965 0.24029818177223206
v -0.001767266308888793 0.05665380880236626 0.24115124344825745
v -0.004741603508591652 0.056467872112989426 0.24362491071224213
v -0.00044893822632730007 0.060205571353435516 0.23648285865783691
v 0.001842921832576394 0.0645805299282074 0.2363869547843933
v -0.007560828700661659 0.07439054548740387 0.23556531965732574
v -0.006132157519459724 0.0727127343416214 0.23871979117393494
v -0.004991460591554642 0.07264400273561478 0.23823578655719757
v -0.006555536761879921 0.07494738698005676 0.23531609773635864
v -0.0028655303176492453 0.07065936177968979 0.2421874701976776
v -0.0021944993641227484 0.07075149565935135 0.2405983954668045
v 0.00036649242974817753 0.06855824589729309 0.2395055741071701
v -0.0016896368470042944 0.07137551158666611 0.23583082854747772
v -0.0009146498050540686 0.0676051527261734 0.2321772575378418
v -0.0026996673550456762 0.07015876471996307 0.22970017790794373
v -0.002947102999314666 0.07340213656425476 0.23306845128536224
v 0.0013302157167345285 0.06672139465808868 0.2359800934791565
v -0.006572527810931206 0.07603217661380768 0.2329993098974228
v -0.007768126204609871 0.07653523236513138 0.2325400561094284
v 0.0010183157864958048 0.06798761337995529 0.24090196192264557
v -0.006020231172442436 0.0695837140083313 0.24497917294502258
v -0.0084909088909626 0.07259483635425568 0.23911328613758087
v -0.009660877287387848 0.0747644230723381 0.2349596619606018
v -0.009347386658191681 0.07545308023691177 0.23150032758712769
v -0.009958980605006218 0.07053547352552414 0.23988592624664307
v -0.011480579152703285 0.07331489026546478 0.23482097685337067
v -0.011097759008407593 0.07379769533872604 0.2314159870147705
v -0.01121002621948719 0.06751632690429688 0.23962858319282532
v -0.011954056099057198 0.0706508606672287 0.23471511900424957
v -0.00915974285453558 0.06357311457395554 0.24569258093833923
v -0.008032186888158321 0.0670439824461937 0.24579891562461853
v -0.011235419660806656 0.07203231006860733 0.23199254274368286
v -0.005724688991904259 0.07528211176395416 0.2296541929244995
v -0.008175903931260109 0.07399353384971619 0.22888128459453583
v -0.004511632025241852 0.07497464120388031 0.2303471565246582
v -0.0011525803711265326 0.06621086597442627 0.23175349831581116
v -0.003464305540546775 0.0692225992679596 0.22867190837860107
v -0.002822428708896041 0.06404267251491547 0.23160511255264282
v -0.005306709557771683 0.06805698573589325 0.2283894121646881
v -0.004873301833868027 0.07226873934268951 0.22781196236610413
v -0.0037852691020816565 0.07261370122432709 0.2291937619447708
v -0.00840466096997261 0.0624200701713562 0.24823445081710815
v -0.007156882435083389 0.05844954028725624 0.24668069183826447
v -0.008148446679115295 0.0599670372903347 0.24388153851032257
v -0.010678280144929886 0.06421835720539093 0.2379627376794815
v -0.005781257525086403 0.057962141931056976 0.24074098467826843
v -0.0028391291853040457 0.0584857314825058 0.2381276786327362
v -0.005266172811388969 0.0629105344414711 0.23278045654296875
v -0.008149482309818268 0.06270067393779755 0.23475530743598938
v -0.007416233420372009 0.067474365234375 0.2289973944425583
v -0.009754711762070656 0.06700986623764038 0.23096023499965668
v -0.011545766144990921 0.06802389770746231 0.2333023101091385
v -0.008610285818576813 0.07088752835988998 0.22845233976840973
v -0.007051756605505943 0.07162094116210938 0.22763976454734802
v -0.009622637182474136 0.07254163920879364 0.22941315174102783
v -0.009976213797926903 0.07003359496593475 0.2296474128961563
v -0.010733317583799362 0.07082823663949966 0.23071196675300598
v 0.03174886852502823 0.046315230429172516 0.2661084830760956
v 0.02485065720975399 0.05072376877069473 0.3613729476928711
v 0.023719001561403275 0.04781664162874222 0.356466144323349
v 0.021841328591108322 0.032829903066158295 0.3609379827976227
v 0.020855871960520744 0.0370735302567482 0.3556309640407562
v 0.023135846480727196 0.03274325281381607 0.3674607276916504
v 0.02646641805768013 0.04072599112987518 0.3734741806983948
v 0.025820132344961166 0.03578944504261017 0.3715018630027771
v 0.02168867364525795 0.04252306744456291 0.35397785902023315
v 0.026345528662204742 0.051202066242694855 0.3668477535247803
v 0.02725057117640972 0.0471646822988987 0.37226802110671997
v 0.018232176080346107 0.054166264832019806 0.3672828674316406
v 0.01813737116754055 0.049297574907541275 0.3734518587589264
v 0.016418609768152237 0.04295641928911209 0.37515512108802795
v 0.01650751195847988 0.03676511347293854 0.3721250891685486
v 0.015834322199225426 0.033619679510593414 0.3682933747768402
v 0.01847689226269722 0.05226572975516319 0.36039361357688904
v 0.017965544015169144 0.04898224025964737 0.35566022992134094
v 0.01713000237941742 0.04253913834691048 0.3538687825202942
v 0.011425124481320381 0.0523865781724453 0.3575313687324524
v 0.0025494268629699945 0.052273448556661606 0.3618323504924774
v -0.010666625574231148 0.04036680608987808 0.36885860562324524
v -0.0040330346673727036 0.03948109596967697 0.36992931365966797
v -0.004549240693449974 0.042354047298431396 0.36961138248443604
v -0.010540982708334923 0.04306383430957794 0.3692397177219391
v 0.000899231294170022 0.04189566522836685 0.37104639410972595
v -0.0005363465752452612 0.04350002110004425 0.3698080778121948
v 0.0011748506221920252 0.047934986650943756 0.36730003356933594
v -0.004307286813855171 0.04834064841270447 0.3669581711292267
v 0.000583054730668664 0.05077805370092392 0.3630245625972748
v -0.0030684673693031073 0.050959985703229904 0.3614075779914856
v -0.009690040722489357 0.04886092245578766 0.36638888716697693
v -0.013719553127884865 0.04535772651433945 0.36858493089675903
v -0.014261381700634956 0.0489831306040287 0.3657025098800659
v -0.015092095360159874 0.04282711446285248 0.3670644164085388
v 0.0020756481681019068 0.049589768052101135 0.369111031293869
v 0.006418308243155479 0.0372617170214653 0.3714374601840973
v -0.0021435038652271032 0.036343906074762344 0.36889487504959106
v -0.009806180372834206 0.0374298021197319 0.36661475896835327
v -0.014840947464108467 0.040732674300670624 0.3645460903644562
v -0.000721717020496726 0.0339716337621212 0.36539551615715027
v -0.0076217856258153915 0.03598238527774811 0.3629915714263916
v -0.011869871988892555 0.0393986701965332 0.36068618297576904
v 0.00056627974845469 0.034064728766679764 0.36069631576538086
v -0.005945274606347084 0.03673224523663521 0.35944950580596924
v 0.012974938377737999 0.033563971519470215 0.3618817627429962
v 0.010454613715410233 0.03356742486357689 0.367843896150589
v -0.009500930085778236 0.03925854340195656 0.3590160012245178
v -0.016386250033974648 0.048107825219631195 0.36399513483047485
v -0.016002027317881584 0.04580775275826454 0.36105474829673767
v -0.0015722604002803564 0.05180920660495758 0.3583765923976898
v -0.0081771370023489 0.05206511914730072 0.36107829213142395
v -0.007630864158272743 0.05164999142289162 0.35800081491470337
v 0.0007773360703140497 0.050806041806936264 0.3551986515522003
v -0.006933270022273064 0.05036932975053787 0.3554072678089142
v -0.01294771395623684 0.05109880864620209 0.35979026556015015
v -0.011973856016993523 0.05149516463279724 0.3625276982784271
v 0.016608471050858498 0.03324822708964348 0.3621440529823303
v 0.017405511811375618 0.036798425018787384 0.35678717494010925
v 0.014199672266840935 0.03745446726679802 0.356410950422287
v 0.0025522804353386164 0.037628255784511566 0.355399489402771
v 0.013505930081009865 0.042813606560230255 0.35301515460014343
v 0.012445038184523582 0.048886917531490326 0.3540516793727875
v 0.0018463341984897852 0.0480201356112957 0.3527752757072449
v 0.0027991815004497766 0.04320700839161873 0.3524729907512665
v -0.005977978929877281 0.04711915925145149 0.3539136052131653
v -0.00516764260828495 0.04411526024341583 0.3540429472923279
v -0.005443332716822624 0.039556410163640976 0.35602131485939026
v -0.010716436430811882 0.046152420341968536 0.3558853268623352
v -0.012291720137000084 0.04921426624059677 0.3571288287639618
v -0.013000885024666786 0.04331313073635101 0.35831886529922485
v -0.008703002706170082 0.04409613460302353 0.3555785119533539
v -0.009775729849934578 0.041698209941387177 0.35719695687294006
v 0.03526509180665016 0.03696674853563309 0.27405452728271484
v 0.031633347272872925 0.03651975467801094 0.2792629599571228
v 0.03906239569187164 0.035025984048843384 0.28001201152801514
v 0.049125786870718 0.03431972861289978 0.2822516858577728
v 0.05951179936528206 0.03601093217730522 0.27914977073669434
v 0.047224488109350204 0.035361044108867645 0.2886316180229187
v 0.0371273010969162 0.03604770824313164 0.28591388463974
v 0.026771120727062225 0.03869066387414932 0.2844385802745819
v 0.05367705225944519 0.037252187728881836 0.2967391312122345
f 2 3 1
f 1 3 4
f 5 6 8
f 8 6 7
f 9 4 10
f 10 4 3
f 12 13 11
f 11 13 9
f 14 12 16
f 16 12 15
f 18 19 17
f 17 19 20
f 22 23 21
f 21 23 24
f 26 27 25
f 25 27 28
f 30 31 29
f 29 31 32
f 33 34 36
f 36 34 35
f 37 38 40
f 40 38 39
f 41 42 6
f 6 42 43
f 6 43 7
f 7 43 44
f 45 34 46
f 46 34 33
f 48 49 47
f 47 49 50
f 52 53 51
f 51 53 54
f 56 52 55
f 55 52 51
f 58 59 57
f 57 59 60
f 61 62 4
f 4 62 1
f 64 65 63
f 63 65 66
f 68 69 67
f 67 69 70
f 72 73 71
f 71 73 74
f 76 77 75
f 75 77 78
f 53 79 54
f 54 79 80
f 82 83 81
f 81 83 84
f 85 86 52
f 52 86 53
f 57 60 87
f 87 60 88
f 89 90 43
f 43 90 44
f 43 42 89
f 89 42 91
f 40 39 92
f 92 39 93
f 94 70 64
f 64 70 69
f 13 61 9
f 9 61 4
f 25 28 69
f 69 28 95
f 96 25 68
f 68 25 69
f 98 99 97
f 97 99 100
f 101 102 104
f 104 102 103
f 106 30 105
f 105 30 29
f 51 54 107
f 107 54 108
f 54 80 108
f 108 80 109
f 111 112 110
f 110 112 113
f 115 5 114
f 114 5 116
f 115 41 5
f 5 41 6
f 36 35 111
f 111 35 117
f 35 118 117
f 117 118 119
f 34 120 35
f 35 120 118
f 34 45 120
f 120 45 121
f 125 126 124
f 124 126 127
f 128 129 14
f 14 129 130
f 33 131 46
f 46 131 132
f 133 94 63
f 63 94 64
f 134 135 137
f 137 135 136
f 139 140 138
f 138 140 141
f 77 142 78
f 78 142 143
f 144 145 20
f 20 145 146
f 148 149 147
f 147 149 72
f 151 152 150
f 150 152 153
f 82 101 83
f 83 101 104
f 101 82 155
f 155 82 154
f 156 157 58
f 58 157 59
f 158 68 147
f 147 68 67
f 159 146 15
f 15 146 16
f 68 158 96
f 96 158 160
f 129 66 130
f 130 66 65
f 162 163 161
f 161 163 164
f 166 167 165
f 165 167 168
f 170 171 169
f 169 171 172
f 174 171 173
f 173 171 170
f 176 177 175
f 175 177 178
f 180 181 179
f 179 181 24
f 182 183 21
f 21 183 184
f 81 185 82
f 82 185 154
f 186 187 188
f 188 187 144
f 158 71 160
f 160 71 189
f 190 135 157
f 157 135 59
f 169 172 139
f 139 172 140
f 147 72 158
f 158 72 71
f 192 193 191
f 191 193 194
f 167 166 49
f 49 166 195
f 196 190 50
f 50 190 157
f 197 198 200
f 200 198 199
f 21 24 182
f 182 24 181
f 146 159 20
f 20 159 17
f 182 181 81
f 81 181 185
f 201 185 180
f 180 185 181
f 202 203 83
f 83 203 84
f 205 206 204
f 204 206 85
f 207 22 184
f 184 22 21
f 179 24 208
f 208 24 23
f 208 209 179
f 179 209 205
f 209 210 205
f 205 210 206
f 212 206 211
f 211 206 210
f 179 205 180
f 180 205 204
f 213 176 88
f 88 176 214
f 86 85 212
f 212 85 206
f 193 217 218
f 217 219 218
f 218 219 220
f 219 18 220
f 220 18 17
f 19 221 20
f 20 221 144
f 222 223 225
f 225 223 224
f 175 226 176
f 176 226 214
f 227 87 214
f 214 87 88
f 220 17 228
f 228 17 159
f 134 213 60
f 60 213 88
f 138 229 151
f 151 229 152
f 193 192 210
f 210 192 211
f 230 194 218
f 218 194 193
f 231 232 228
f 228 232 230
f 233 234 91
f 91 234 89
f 235 236 93
f 93 236 92
f 230 232 234
f 234 232 237
f 47 238 48
f 48 238 239
f 240 191 235
f 235 191 236
f 5 8 116
f 116 8 241
f 242 243 189
f 189 243 160
f 244 245 98
f 98 245 99
f 156 246 47
f 47 246 238
f 76 247 77
f 77 247 248
f 250 125 249
f 249 125 124
f 252 253 251
f 251 253 254
f 111 110 36
f 36 110 255
f 256 33 255
f 255 33 36
f 257 258 154
f 154 258 155
f 63 169 133
f 133 169 139
f 66 170 63
f 63 170 169
f 173 170 129
f 129 170 66
f 129 128 173
f 173 128 259
f 128 260 259
f 259 260 261
f 213 134 262
f 262 134 137
f 263 264 186
f 186 264 187
f 112 265 113
f 113 265 266
f 11 267 268
f 234 233 230
f 230 233 194
f 153 269 70
f 70 269 67
f 175 178 165
f 165 178 141
f 150 153 94
f 94 153 70
f 271 221 270
f 270 221 207
f 269 153 272
f 272 153 152
f 121 45 109
f 109 45 108
f 47 50 156
f 156 50 157
f 57 273 58
f 58 273 274
f 145 275 260
f 260 275 261
f 276 149 143
f 143 149 78
f 148 269 75
f 75 269 272
f 207 277 270
f 270 277 278
f 195 196 49
f 49 196 50
f 59 135 60
f 60 135 134
f 83 104 202
f 202 104 279
f 149 148 78
f 78 148 75
f 247 278 248
f 248 278 277
f 183 182 84
f 84 182 81
f 48 239 281
f 281 239 282
f 227 223 283
f 283 223 222
f 223 226 224
f 224 226 168
f 281 282 224
f 224 282 225
f 165 168 175
f 175 168 226
f 264 263 138
f 138 263 229
f 14 16 128
f 128 16 260
f 220 228 218
f 218 228 230
f 87 227 284
f 284 227 283
f 260 16 145
f 145 16 146
f 244 98 258
f 258 98 155
f 58 274 156
f 156 274 246
f 107 285 51
f 51 285 55
f 243 286 160
f 160 286 96
f 234 237 89
f 89 237 90
f 46 132 107
f 107 132 285
f 253 252 249
f 249 252 250
f 286 26 96
f 96 26 25
f 106 105 287
f 287 105 288
f 272 152 289
f 289 152 229
f 138 151 139
f 139 151 133
f 183 290 161
f 161 290 162
f 291 292 277
f 277 292 293
f 151 150 133
f 133 150 94
f 262 275 177
f 177 275 187
f 144 187 145
f 145 187 275
f 273 57 284
f 284 57 87
f 174 136 190
f 190 136 135
f 111 117 112
f 112 117 38
f 117 119 38
f 38 119 123
f 112 38 265
f 265 38 37
f 287 288 254
f 254 288 251
f 228 159 231
f 231 159 15
f 223 227 226
f 226 227 214
f 147 67 148
f 148 67 269
f 224 168 281
f 281 168 167
f 199 163 200
f 200 163 162
f 45 46 108
f 108 46 107
f 281 167 48
f 48 167 49
f 161 164 291
f 291 164 292
f 38 123 39
f 293 294 277
f 277 294 248
f 284 283 296
f 296 283 295
f 284 296 273
f 273 296 297
f 274 273 298
f 298 273 297
f 246 274 299
f 299 274 298
f 283 222 295
f 295 222 300
f 222 225 300
f 300 225 301
f 301 225 302
f 302 225 282
f 303 304 300
f 300 304 295
f 306 307 305
f 305 307 308
f 309 310 308
f 308 310 305
f 308 307 312
f 312 307 311
f 313 314 312
f 312 314 315
f 311 316 312
f 312 316 313
f 317 304 311
f 311 304 316
f 315 309 312
f 312 309 308
f 318 319 321
f 321 319 320
f 319 318 309
f 309 318 310
f 311 307 317
f 317 307 306
f 306 297 317
f 317 297 296
f 306 322 297
f 297 322 298
f 305 323 306
f 306 323 322
f 323 305 324
f 324 305 310
f 304 317 295
f 295 317 296
f 318 325 310
f 310 325 324
f 323 324 326
f 326 324 327
f 324 325 327
f 327 325 328
f 326 327 329
f 329 327 330
f 329 331 326
f 326 331 332
f 333 330 328
f 328 330 327
f 323 326 322
f 322 326 332
f 322 332 298
f 298 332 299
f 325 318 334
f 334 318 321
f 313 316 335
f 335 316 304
f 335 336 313
f 313 336 314
f 304 303 335
f 335 303 337
f 336 335 338
f 338 335 337
f 336 339 314
f 314 339 340
f 246 299 238
f 238 299 341
f 239 342 282
f 282 342 302
f 342 239 341
f 341 239 238
f 341 331 342
f 342 331 343
f 331 329 343
f 343 329 344
f 342 343 302
f 302 343 345
f 341 299 331
f 331 299 332
f 346 301 345
f 345 301 302
f 346 303 301
f 301 303 300
f 347 337 346
f 346 337 303
f 347 346 348
f 348 346 345
f 349 347 350
f 350 347 348
f 343 344 345
f 345 344 348
f 344 351 348
f 348 351 350
f 337 347 338
f 338 347 349
f 353 338 352
f 352 338 349
f 352 355 354
f 354 355 356
f 352 349 355
f 355 349 350
f 352 354 353
f 353 354 334
f 353 334 339
f 339 334 321
f 339 336 353
f 353 336 338
f 329 330 344
f 344 330 351
f 356 351 333
f 333 351 330
f 356 355 351
f 351 355 350
f 354 356 328
f 328 356 333
f 328 325 354
f 354 325 334
f 309 315 319
f 319 315 320
f 320 340 321
f 321 340 339
f 320 315 340
f 340 315 314
f 137 136 261
f 261 136 259
f 140 166 141
f 141 166 165
f 172 171 195
f 195 171 196
f 171 174 196
f 196 174 190
f 178 177 264
f 264 177 187
f 172 195 140
f 140 195 166
f 137 261 262
f 262 261 275
f 178 264 141
f 141 264 138
f 262 177 213
f 213 177 176
f 136 174 259
f 259 174 173
f 358 359 357
f 357 359 360
f 362 363 361
f 361 363 364
f 361 364 365
f 365 364 366
f 367 368 370
f 370 368 369
f 76 371 247
f 247 371 372
f 373 374 362
f 362 374 363
f 376 377 375
f 375 377 378
f 289 229 380
f 380 229 379
f 381 379 263
f 263 379 229
f 383 384 382
f 382 384 385
f 386 368 374
f 374 368 363
f 76 289 371
f 371 289 380
f 377 376 359
f 359 376 387
f 388 386 360
f 360 386 374
f 389 383 366
f 366 383 390
f 392 393 391
f 391 393 394
f 383 382 390
f 390 382 395
f 396 365 390
f 390 365 366
f 389 366 367
f 367 366 364
f 357 397 358
f 358 397 398
f 373 399 357
f 357 399 397
f 389 367 400
f 400 367 370
f 382 385 375
f 375 385 372
f 357 360 373
f 373 360 374
f 361 401 362
f 362 401 402
f 387 388 359
f 359 388 360
f 363 368 364
f 364 368 367
f 358 398 403
f 403 398 404
f 396 392 405
f 405 392 391
f 392 395 393
f 393 395 378
f 393 403 394
f 394 403 404
f 375 378 382
f 382 378 395
f 365 396 406
f 406 396 405
f 362 402 373
f 373 402 399
f 271 270 400
f 400 270 384
f 401 361 406
f 406 361 365
f 381 369 386
f 386 369 368
f 392 396 395
f 395 396 390
f 393 378 403
f 403 378 377
f 403 377 358
f 358 377 359
f 406 405 408
f 408 405 407
f 406 408 401
f 401 408 409
f 401 409 402
f 402 409 410
f 402 410 399
f 399 410 411
f 405 391 407
f 407 391 412
f 391 394 412
f 412 394 413
f 394 404 413
f 413 404 414
f 415 416 412
f 412 416 407
f 418 419 417
f 417 419 420
f 421 422 418
f 418 422 419
f 419 422 424
f 424 422 423
f 425 426 424
f 424 426 427
f 423 428 424
f 424 428 425
f 427 420 424
f 424 420 419
f 420 429 417
f 417 429 430
f 423 422 431
f 431 422 421
f 421 409 431
f 431 409 408
f 421 432 409
f 409 432 410
f 418 433 421
f 421 433 432
f 434 433 417
f 417 433 418
f 431 416 423
f 423 416 428
f 416 431 407
f 407 431 408
f 435 434 430
f 430 434 417
f 433 434 436
f 436 434 437
f 434 435 437
f 437 435 438
f 436 437 439
f 439 437 440
f 439 441 436
f 436 441 442
f 438 443 437
f 437 443 440
f 436 442 433
f 433 442 432
f 432 442 410
f 410 442 411
f 435 430 445
f 445 430 444
f 430 429 444
f 444 429 446
f 425 428 447
f 447 428 416
f 426 425 448
f 448 425 447
f 416 415 447
f 447 415 449
f 447 449 448
f 448 449 450
f 451 452 448
f 448 452 426
f 446 452 444
f 444 452 451
f 399 411 397
f 397 411 453
f 398 454 404
f 404 454 414
f 454 398 453
f 453 398 397
f 453 441 454
f 454 441 455
f 441 439 455
f 455 439 456
f 454 455 414
f 414 455 457
f 441 453 442
f 442 453 411
f 458 413 457
f 457 413 414
f 458 415 413
f 413 415 412
f 458 459 415
f 415 459 449
f 459 458 460
f 460 458 457
f 461 459 462
f 462 459 460
f 455 456 457
f 457 456 460
f 456 463 460
f 460 463 462
f 459 461 449
f 449 461 450
f 465 450 464
f 464 450 461
f 464 467 466
f 466 467 468
f 464 461 467
f 467 461 462
f 464 466 465
f 465 466 445
f 465 445 451
f 451 445 444
f 451 448 465
f 465 448 450
f 439 440 456
f 456 440 463
f 468 463 443
f 443 463 440
f 468 467 463
f 463 467 462
f 466 468 438
f 438 468 443
f 438 435 466
f 466 435 445
f 420 427 429
f 429 427 446
f 446 427 452
f 452 427 426
f 370 369 188
f 188 369 186
f 371 376 372
f 372 376 375
f 380 379 387
f 387 379 388
f 379 381 388
f 388 381 386
f 385 384 278
f 278 384 270
f 380 387 371
f 371 387 376
f 400 370 271
f 271 370 188
f 385 278 372
f 372 278 247
f 400 384 389
f 389 384 383
f 369 381 186
f 186 381 263
f 221 271 144
f 144 271 188
f 221 19 207
f 207 19 22
f 19 18 22
f 22 18 23
f 18 219 23
f 23 219 208
f 469 470 472
f 472 470 471
f 474 475 473
f 473 475 476
f 473 476 477
f 477 476 478
f 480 481 479
f 479 481 482
f 483 484 474
f 474 484 475
f 486 487 485
f 485 487 488
f 489 490 77
f 77 490 142
f 491 489 248
f 248 489 77
f 493 494 492
f 492 494 495
f 496 480 484
f 484 480 475
f 486 497 487
f 487 497 471
f 498 496 472
f 472 496 484
f 499 493 478
f 478 493 500
f 501 502 504
f 504 502 503
f 493 492 500
f 500 492 505
f 506 477 500
f 500 477 478
f 499 478 479
f 479 478 476
f 469 507 470
f 470 507 508
f 483 509 469
f 469 509 507
f 479 482 499
f 499 482 510
f 492 495 485
f 485 495 511
f 483 469 484
f 484 469 472
f 473 512 474
f 474 512 513
f 497 498 471
f 471 498 472
f 475 480 476
f 476 480 479
f 470 508 514
f 514 508 515
f 506 502 516
f 516 502 501
f 503 502 488
f 488 502 505
f 514 515 503
f 503 515 504
f 485 488 492
f 492 488 505
f 477 506 517
f 517 506 516
f 474 513 483
f 483 513 509
f 510 292 494
f 494 292 164
f 512 473 517
f 517 473 477
f 491 481 496
f 496 481 480
f 502 506 505
f 505 506 500
f 503 488 514
f 514 488 487
f 514 487 470
f 470 487 471
f 517 516 519
f 519 516 518
f 517 519 512
f 512 519 520
f 512 520 513
f 513 520 521
f 513 521 509
f 509 521 522
f 516 501 518
f 518 501 523
f 501 504 523
f 523 504 524
f 524 504 525
f 525 504 515
f 526 527 523
f 523 527 518
f 529 530 528
f 528 530 531
f 532 533 529
f 529 533 530
f 530 533 535
f 535 533 534
f 536 537 535
f 535 537 538
f 534 539 535
f 535 539 536
f 538 531 535
f 535 531 530
f 540 541 531
f 531 541 528
f 533 532 534
f 534 532 542
f 532 520 542
f 542 520 519
f 532 543 520
f 520 543 521
f 529 544 532
f 532 544 543
f 544 529 545
f 545 529 528
f 534 542 539
f 539 542 527
f 527 542 518
f 518 542 519
f 541 546 528
f 528 546 545
f 547 544 548
f 548 544 545
f 546 549 545
f 545 549 548
f 550 547 551
f 551 547 548
f 547 550 553
f 553 550 552
f 549 554 548
f 548 554 551
f 544 547 543
f 543 547 553
f 543 553 521
f 521 553 522
f 546 541 556
f 556 541 555
f 541 540 555
f 555 540 557
f 536 539 558
f 558 539 527
f 537 536 559
f 559 536 558
f 527 526 558
f 558 526 560
f 559 558 561
f 561 558 560
f 559 562 537
f 537 562 563
f 557 563 555
f 555 563 562
f 509 522 507
f 507 522 564
f 508 565 515
f 515 565 525
f 565 508 564
f 564 508 507
f 564 552 565
f 565 552 566
f 552 550 566
f 566 550 567
f 565 566 525
f 525 566 568
f 564 522 552
f 552 522 553
f 569 524 568
f 568 524 525
f 569 526 524
f 524 526 523
f 570 560 569
f 569 560 526
f 570 569 571
f 571 569 568
f 572 570 573
f 573 570 571
f 566 567 568
f 568 567 571
f 567 574 571
f 571 574 573
f 570 572 560
f 560 572 561
f 576 561 575
f 575 561 572
f 575 578 577
f 577 578 579
f 575 572 578
f 578 572 573
f 575 577 576
f 576 577 556
f 576 556 562
f 562 556 555
f 562 559 576
f 576 559 561
f 550 551 567
f 567 551 574
f 579 574 554
f 554 574 551
f 579 578 574
f 574 578 573
f 579 554 577
f 577 554 549
f 549 546 577
f 577 546 556
f 531 538 540
f 540 538 557
f 557 538 563
f 563 538 537
f 481 294 482
f 482 294 293
f 580 486 511
f 511 486 485
f 490 489 497
f 497 489 498
f 489 491 498
f 498 491 496
f 163 495 164
f 164 495 494
f 580 490 486
f 486 490 497
f 482 293 510
f 510 293 292
f 495 163 511
f 511 163 199
f 494 493 510
f 510 493 499
f 481 491 294
f 294 491 248
f 582 583 581
f 581 583 584
f 586 587 585
f 585 587 588
f 585 588 589
f 589 588 590
f 592 593 591
f 591 593 594
f 595 596 598
f 598 596 597
f 599 600 586
f 586 600 587
f 601 602 604
f 604 602 603
f 605 606 608
f 608 606 607
f 609 607 200
f 200 607 606
f 610 611 613
f 613 611 612
f 600 614 587
f 587 614 592
f 596 605 597
f 597 605 608
f 602 615 603
f 603 615 583
f 616 614 584
f 584 614 600
f 611 618 617
f 617 618 590
f 620 621 619
f 619 621 622
f 610 623 611
f 611 623 618
f 624 589 618
f 618 589 590
f 617 590 591
f 591 590 588
f 581 625 582
f 582 625 626
f 599 627 581
f 581 627 625
f 591 594 617
f 617 594 628
f 601 610 598
f 598 610 613
f 581 584 599
f 599 584 600
f 585 629 586
f 586 629 630
f 615 616 583
f 583 616 584
f 587 592 588
f 588 592 591
f 582 626 631
f 631 626 632
f 624 620 633
f 633 620 619
f 621 620 604
f 604 620 623
f 631 632 621
f 621 632 622
f 610 601 623
f 623 601 604
f 589 624 634
f 634 624 633
f 586 630 599
f 599 630 627
f 203 202 628
f 628 202 612
f 629 585 634
f 634 585 589
f 609 593 614
f 614 593 592
f 620 624 623
f 623 624 618
f 631 621 603
f 603 621 604
f 582 631 583
f 583 631 603
f 634 633 636
f 636 633 635
f 634 636 629
f 629 636 637
f 629 637 630
f 630 637 638
f 630 638 627
f 627 638 639
f 633 619 635
f 635 619 640
f 619 622 640
f 640 622 641
f 641 622 642
f 642 622 632
f 644 635 643
f 643 635 640
f 645 646 648
f 648 646 647
f 649 650 646
f 646 650 647
f 647 650 652
f 652 650 651
f 652 653 655
f 655 653 654
f 651 656 652
f 652 656 653
f 655 648 652
f 652 648 647
f 648 657 645
f 645 657 658
f 650 649 651
f 651 649 659
f 649 637 659
f 659 637 636
f 649 660 637
f 637 660 638
f 661 660 646
f 646 660 649
f 662 661 645
f 645 661 646
f 651 659 656
f 656 659 644
f 644 659 635
f 635 659 636
f 663 662 658
f 658 662 645
f 664 661 665
f 665 661 662
f 663 666 662
f 662 666 665
f 667 664 668
f 668 664 665
f 664 667 670
f 670 667 669
f 666 671 665
f 665 671 668
f 661 664 660
f 660 664 670
f 660 670 638
f 638 670 639
f 658 672 663
f 663 672 673
f 658 657 672
f 672 657 674
f 653 656 675
f 675 656 644
f 653 675 654
f 654 675 676
f 675 644 677
f 677 644 643
f 676 675 678
f 678 675 677
f 679 680 676
f 676 680 654
f 674 680 672
f 672 680 679
f 627 639 625
f 625 639 681
f 626 682 632
f 632 682 642
f 681 682 625
f 625 682 626
f 669 683 681
f 681 683 682
f 667 684 669
f 669 684 683
f 682 683 642
f 642 683 685
f 681 639 669
f 669 639 670
f 686 641 685
f 685 641 642
f 641 686 640
f 640 686 643
f 686 687 643
f 643 687 677
f 687 686 688
f 688 686 685
f 689 687 690
f 690 687 688
f 683 684 685
f 685 684 688
f 684 691 688
f 688 691 690
f 687 689 677
f 677 689 678
f 693 678 692
f 692 678 689
f 692 695 694
f 694 695 696
f 692 689 695
f 695 689 690
f 692 694 693
f 693 694 673
f 693 673 679
f 679 673 672
f 679 676 693
f 693 676 678
f 684 667 691
f 691 667 668
f 696 691 671
f 671 691 668
f 696 695 691
f 691 695 690
f 694 696 666
f 666 696 671
f 666 663 694
f 694 663 673
f 648 655 657
f 657 655 674
f 674 655 680
f 680 655 654
f 593 162 594
f 594 162 290
f 598 597 601
f 601 597 602
f 615 608 616
f 616 608 607
f 607 609 616
f 616 609 614
f 697 595 613
f 613 595 598
f 597 608 602
f 602 608 615
f 594 290 628
f 628 290 203
f 628 612 617
f 617 612 611
f 593 609 162
f 162 609 200
f 105 29 698
f 698 29 699
f 268 126 701
f 701 126 700
f 126 125 700
f 700 125 702
f 252 703 250
f 250 703 704
f 32 268 705
f 705 268 701
f 288 105 706
f 706 105 698
f 29 32 699
f 699 32 705
f 707 251 706
f 706 251 288
f 250 704 125
f 125 704 702
f 703 252 707
f 707 252 251
f 706 708 707
f 707 708 709
f 707 709 703
f 703 709 710
f 703 710 704
f 704 710 711
f 704 711 702
f 702 711 712
f 706 698 708
f 708 698 713
f 698 699 713
f 713 699 714
f 699 705 714
f 714 705 715
f 717 708 716
f 716 708 713
f 719 720 718
f 718 720 721
f 722 723 719
f 719 723 720
f 724 725 723
f 723 725 720
f 724 726 725
f 725 726 727
f 728 721 725
f 725 721 720
f 721 728 729
f 729 728 730
f 729 731 721
f 721 731 718
f 724 723 732
f 732 723 722
f 722 710 732
f 732 710 709
f 722 733 710
f 710 733 711
f 719 734 722
f 722 734 733
f 734 719 735
f 735 719 718
f 724 732 726
f 726 732 717
f 717 732 708
f 708 732 709
f 731 736 718
f 718 736 735
f 737 734 738
f 738 734 735
f 736 739 735
f 735 739 738
f 740 737 741
f 741 737 738
f 737 740 743
f 743 740 742
f 739 744 738
f 738 744 741
f 734 737 733
f 733 737 743
f 733 743 711
f 711 743 712
f 736 731 746
f 746 731 745
f 731 729 745
f 745 729 730
f 727 726 747
f 747 726 717
f 748 727 749
f 749 727 747
f 747 717 750
f 750 717 716
f 749 747 751
f 751 747 750
f 749 752 748
f 748 752 753
f 730 753 745
f 745 753 752
f 728 725 748
f 748 725 727
f 730 728 753
f 753 728 748
f 700 702 754
f 754 702 712
f 705 701 715
f 715 701 755
f 754 755 700
f 700 755 701
f 742 756 754
f 754 756 755
f 740 757 742
f 742 757 756
f 755 756 715
f 715 756 758
f 754 712 742
f 742 712 743
f 759 714 758
f 758 714 715
f 714 759 713
f 713 759 716
f 759 760 716
f 716 760 750
f 760 759 761
f 761 759 758
f 762 760 763
f 763 760 761
f 756 757 758
f 758 757 761
f 757 764 761
f 761 764 763
f 760 762 750
f 750 762 751
f 766 751 765
f 765 751 762
f 767 765 769
f 769 765 768
f 765 762 768
f 768 762 763
f 765 767 766
f 766 767 746
f 766 746 752
f 752 746 745
f 752 749 766
f 766 749 751
f 757 740 764
f 764 740 741
f 769 764 744
f 744 764 741
f 769 768 764
f 764 768 763
f 767 769 739
f 739 769 744
f 739 736 767
f 767 736 746
f 219 217 208
f 208 217 209
f 209 217 210
f 210 217 193
f 198 580 199
f 199 580 511
f 76 75 289
f 289 75 272
f 277 207 291
f 291 207 184
f 290 183 203
f 203 183 84
f 490 580 142
f 142 580 198
f 142 198 143
f 143 198 197
f 149 276 72
f 72 276 73
f 104 103 279
f 279 103 770
f 770 596 279
f 279 596 595
f 605 596 771
f 771 596 770
f 771 770 772
f 772 770 103
f 772 103 773
f 773 103 102
f 155 774 101
f 101 774 102
f 773 102 97
f 97 102 774
f 775 773 100
f 100 773 97
f 773 775 772
f 772 775 776
f 772 776 771
f 771 776 777
f 200 606 197
f 197 606 777
f 189 71 778
f 778 71 74
f 97 774 98
f 98 774 155
f 183 161 184
f 184 161 291
f 777 276 197
f 197 276 143
f 777 606 771
f 771 606 605
f 613 612 697
f 697 612 202
f 595 697 279
f 279 697 202
f 73 276 776
f 776 276 777
f 776 775 73
f 73 775 74
f 100 778 775
f 775 778 74
f 778 100 189
f 189 100 99
f 245 242 99
f 99 242 189
f 131 33 256
f 28 1 95
f 95 1 62
f 27 2 28
f 28 2 1
f 265 115 266
f 266 115 114
f 95 62 69
f 69 62 64
f 62 61 64
f 64 61 65
f 61 13 65
f 65 13 130
f 13 12 130
f 130 12 14
f 31 11 32
f 32 11 268
f 15 12 31
f 31 12 11
f 31 30 15
f 15 30 231
f 30 106 231
f 231 106 232
f 287 237 106
f 106 237 232
f 254 90 287
f 287 90 237
f 253 44 254
f 254 44 90
f 253 249 44
f 44 249 7
f 267 127 268
f 268 127 126
f 10 3 241
f 241 3 116
f 3 2 116
f 116 2 114
f 2 27 114
f 114 27 266
f 27 26 266
f 266 26 113
f 26 286 113
f 113 286 110
f 286 243 110
f 110 243 255
f 243 242 255
f 255 242 256
f 242 245 256
f 256 245 131
f 245 244 131
f 131 244 132
f 265 37 115
f 115 37 41
f 41 37 42
f 42 37 40
f 92 91 40
f 40 91 42
f 236 233 92
f 92 233 91
f 191 194 236
f 236 194 233
f 258 285 244
f 244 285 132
f 257 55 258
f 258 55 285
f 257 154 201
f 201 154 185
f 56 201 204
f 204 201 180
f 55 257 56
f 56 257 201
f 204 85 56
f 56 85 52
f 86 122 53
f 53 122 79
f 212 215 86
f 86 215 122
f 211 216 212
f 212 216 215
f 192 280 211
f 211 280 216
f 191 240 192
f 192 240 280
f 249 124 7
f 7 124 8
f 124 127 8
f 8 127 241
f 127 267 241
f 241 267 10
f 10 267 9
f 9 267 11
