v 0.039835866540670395 0.08184551447629929 0.5951344966888428
v 0.05119078978896141 0.0772320106625557 0.595685601234436
v 0.04330070689320564 0.07503874599933624 0.6034500598907471
v 0.03403830900788307 0.0788796991109848 0.6020922064781189
v 0.061748649924993515 0.07326877117156982 0.6154727339744568
v 0.06817765533924103 0.07951822876930237 0.622712254524231
v 0.051663462072610855 0.08121079206466675 0.6260929107666016
v 0.048249501734972 0.07534532248973846 0.6192421317100525
v 0.028527457267045975 0.08078544586896896 0.6070718765258789
v 0.035912808030843735 0.07577982544898987 0.6083163619041443
v 0.02762863039970398 0.0895882397890091 0.608217716217041
v 0.020595502108335495 0.09470154345035553 0.6107962727546692
v 0.02107768878340721 0.08702640980482101 0.6089533567428589
v 0.013433387503027916 0.09741096198558807 0.610914409160614
v 0.02732841670513153 0.1041618064045906 0.6107015609741211
v 0.015800204128026962 0.10531223565340042 0.6066924333572388
v 0.03494987264275551 0.11623542010784149 0.5912752151489258
v 0.038314372301101685 0.11725495755672455 0.5791743993759155
v 0.022542541846632957 0.11546801030635834 0.577804446220398
v 0.020777055993676186 0.11369067430496216 0.5904768705368042
v 0.03254624828696251 0.11250130087137222 0.5604200959205627
v 0.02602294832468033 0.11429322510957718 0.5698701739311218
v 0.04206184297800064 0.11703114211559296 0.5712666511535645
v 0.04715130478143692 0.11497347056865692 0.562768816947937
v 0.0479227676987648 0.08655983209609985 0.5826563239097595
v 0.059109266847372055 0.08410036563873291 0.5816976428031921
v 0.056961748749017715 0.08171666413545609 0.5864655375480652
v 0.04599379375576973 0.08518047630786896 0.5872828960418701
v 0.02994239702820778 0.09977366030216217 0.6144149899482727
v 0.03664151206612587 0.10157129913568497 0.6162823438644409
v 0.03076794371008873 0.09798773378133774 0.6119034886360168
v 0.027829572558403015 0.09532953053712845 0.6115052700042725
v 0.08486255258321762 0.07860525697469711 0.5735552906990051
v 0.09671144187450409 0.0844341516494751 0.5758647918701172
v 0.09604856371879578 0.08478610217571259 0.5817857384681702
v 0.08539299666881561 0.07956936210393906 0.5784171223640442
v 0.08866872638463974 0.08206391334533691 0.6075341105461121
v 0.09552145004272461 0.08724413067102432 0.6009324789047241
v 0.09964393079280853 0.09687194228172302 0.6098700761795044
v 0.09125445038080215 0.0954500064253807 0.6143786311149597
v 0.07930892705917358 0.07949529588222504 0.6164053678512573
v 0.08270833641290665 0.09099502116441727 0.6208192110061646
v 0.06988497823476791 0.09048929810523987 0.6258719563484192
v 0.05300108715891838 0.09013272821903229 0.6285186409950256
v 0.0982043668627739 0.08642569184303284 0.563295304775238
v 0.08987965434789658 0.08193496614694595 0.5597918033599854
v -0.02757008746266365 0.12567847967147827 0.5958046317100525
v -0.026911547407507896 0.12441833317279816 0.590131938457489
v -0.025800378993153572 0.11778267472982407 0.593952476978302
v -0.025902269408106804 0.12040228396654129 0.5986977815628052
v 0.09156720340251923 0.10071288049221039 0.5508429408073425
v 0.09012948721647263 0.11061704903841019 0.5517733693122864
v 0.09729322791099548 0.10954523086547852 0.5515573024749756
v 0.09884368628263474 0.1003589928150177 0.5525736808776855
v 0.08191737532615662 0.10106035321950912 0.548654317855835
v 0.08010514080524445 0.11146474629640579 0.5525874495506287
v -0.01721894182264805 0.13107766211032867 0.5991989970207214
v -0.021993137896060944 0.12999221682548523 0.6005060076713562
v -0.01895163021981716 0.12546029686927795 0.6024652719497681
v -0.013797641731798649 0.12576361000537872 0.6000524163246155
v 0.024548619985580444 0.08300293982028961 0.6040926575660706
v 0.029657632112503052 0.08321890980005264 0.5963594317436218
v 0.0013817385770380497 0.08759304881095886 0.604134738445282
v 0.014976484701037407 0.085184745490551 0.5993598103523254
v 0.014418259263038635 0.08588992059230804 0.6066725254058838
v 0.004212161060422659 0.08951359242200851 0.6096038222312927
v 0.025515802204608917 0.08764816075563431 0.5777307152748108
v 0.037224605679512024 0.0879320576786995 0.5789676904678345
v 0.03422362729907036 0.08760150521993637 0.5846776962280273
v 0.021045632660388947 0.08667850494384766 0.5851114392280579
v 0.04165400564670563 0.08522893488407135 0.5658570528030396
v 0.029816340655088425 0.08565523475408554 0.565720796585083
v 0.03377852216362953 0.08399496227502823 0.5584157705307007
v 0.04150267317891121 0.08307497203350067 0.5597643852233887
v 0.0061704074032604694 0.0867588147521019 0.5689646005630493
v -0.0033345918636769056 0.08948151767253876 0.5687324404716492
v -0.0025268951430916786 0.09157279133796692 0.5625151991844177
v 0.00818401388823986 0.0876380130648613 0.5650373697280884
v 0.10434146225452423 0.10954948514699936 0.551807165145874
v 0.10561355948448181 0.10040456801652908 0.5551095604896545
v 0.04156889766454697 0.10530681163072586 0.542402982711792
v 0.04809945821762085 0.09791474044322968 0.5379141569137573
v 0.035738542675971985 0.09421182423830032 0.5344876050949097
v 0.03241369128227234 0.10344886779785156 0.540011465549469
v 0.08699135482311249 0.11818381398916245 0.5580659508705139
v 0.09447316825389862 0.11817216128110886 0.5557863712310791
v -0.013025617226958275 0.13099859654903412 0.5946040153503418
v -0.01074414886534214 0.1255681812763214 0.5948523879051208
v 0.0704684779047966 0.10099056363105774 0.6220165491104126
v 0.05356369540095329 0.09883773326873779 0.62559974193573
v 0.08284568786621094 0.10315008461475372 0.6173416376113892
v 0.090945765376091 0.10611473768949509 0.612754225730896
v 0.09879804402589798 0.10822305083274841 0.6113941073417664
v 0.01075020618736744 0.08486790955066681 0.593670129776001
v 0.03602248430252075 0.08553484827280045 0.5899079442024231
v 0.04956752434372902 0.08660849183797836 0.5781255960464478
v 0.0546511635184288 0.0790625736117363 0.5489822626113892
v 0.06497752666473389 0.0787072405219078 0.550588071346283
v 0.05927606299519539 0.07844918966293335 0.5595835447311401
v 0.051385313272476196 0.07946732640266418 0.556254506111145
v 0.04910389333963394 0.08808227628469467 0.5370935201644897
v 0.04668702557682991 0.08207288384437561 0.5415103435516357
v 0.038168590515851974 0.08165721595287323 0.5403791666030884
v 0.03871496021747589 0.08640003204345703 0.5354892611503601
v 0.03194281831383705 0.10251320898532867 0.620553195476532
v 0.04244092479348183 0.1041097491979599 0.6196631789207458
v 0.09230578690767288 0.09061241149902344 0.5535891652107239
v 0.09895265102386475 0.09148096293210983 0.5574171543121338
v 0.10659581422805786 0.0941622331738472 0.5596469640731812
v 0.0723251923918724 0.07998602092266083 0.579280436038971
v 0.08587952703237534 0.07988843321800232 0.5821084976196289
v 0.0850425660610199 0.07867825776338577 0.5876186490058899
v 0.07185333967208862 0.07944179326295853 0.5825591087341309
v 0.0627983883023262 0.0721830278635025 0.6001019477844238
v 0.07509966194629669 0.07334954291582108 0.6051483154296875
v 0.05153250694274902 0.07137419283390045 0.6083984375
v 0.09696874767541885 0.08546894788742065 0.5902997255325317
v 0.10577570647001266 0.08691497147083282 0.5836620926856995
v 0.10534895956516266 0.08855646103620529 0.5925115942955017
v 0.10672801733016968 0.08775986731052399 0.5739389061927795
v 0.10706593841314316 0.09001621603965759 0.5653163194656372
v 0.10229810327291489 0.12102389335632324 0.5541964769363403
v 0.10384407639503479 0.09184270352125168 0.6003026366233826
v 0.039558008313179016 0.07801657170057297 0.619208574295044
v 0.03122178465127945 0.08058494329452515 0.6190015077590942
v 0.029127728193998337 0.08303341269493103 0.6117672324180603
v 0.035856664180755615 0.07928160578012466 0.6117185354232788
v 0.005722156260162592 0.10232652723789215 0.6100348234176636
v 0.0038591627962887287 0.09533967822790146 0.6119111776351929
v 0.014602292329072952 0.09033177047967911 0.6117261052131653
v 0.07532259821891785 0.07759907096624374 0.5671519637107849
v 0.08008075505495071 0.08013422042131424 0.5557931065559387
v -0.0022885273210704327 0.08883345872163773 0.5982241034507751
v -0.008903181180357933 0.12476115673780441 0.5991425514221191
v -0.01317581720650196 0.12322475016117096 0.6031302809715271
v -0.00147639075294137 0.11390180885791779 0.605647087097168
v 0.0014362321235239506 0.11676247417926788 0.6007174849510193
v -0.008275958709418774 0.09873360395431519 0.5916745066642761
v -0.0073972297832369804 0.09505269676446915 0.5975817441940308
v -0.00942535325884819 0.09964984655380249 0.5962207317352295
v -0.01014516782015562 0.1025305762887001 0.5906155109405518
v 0.003853152971714735 0.08888649940490723 0.5568016171455383
v 0.012993646785616875 0.08582840859889984 0.5587364435195923
v 0.006273659411817789 0.10857244580984116 0.5889750719070435
v 0.010378371924161911 0.10946757346391678 0.5998370051383972
v 0.01938212476670742 0.11149252951145172 0.5993094444274902
v 0.028722412884235382 0.08694480359554291 0.5710330009460449
v 0.01788673922419548 0.08640394359827042 0.5692253708839417
v 0.019262822344899178 0.08624129742383957 0.5653610825538635
v 0.007218404207378626 0.08592011034488678 0.5901404619216919
v -0.003092779079452157 0.08938976377248764 0.5919685959815979
v 0.0016293604858219624 0.08853904157876968 0.5866743922233582
v 0.011285927146673203 0.0868675708770752 0.5849604606628418
v 0.06057371571660042 0.10028766095638275 0.5410536527633667
v 0.06164248660206795 0.0887741670012474 0.5395770072937012
v -0.025751233100891113 0.12784288823604584 0.599467933177948
v -0.023131705820560455 0.12291847169399261 0.6019701361656189
v 0.04010783135890961 0.08720795810222626 0.5723865628242493
v 0.032480355352163315 0.11255111545324326 0.5994309186935425
v 0.05139466002583504 0.08588457107543945 0.5730857253074646
v 0.018166717141866684 0.1026710644364357 0.550313413143158
v 0.017199672758579254 0.09588560461997986 0.5470733046531677
v 0.012113932520151138 0.09599156677722931 0.5485092997550964
v 0.012945925816893578 0.1020844504237175 0.5491754412651062
v -0.01754603162407875 0.11395072937011719 0.5857478976249695
v -0.021193871274590492 0.1133025661110878 0.5902550220489502
v -0.024087049067020416 0.11664989590644836 0.5880813002586365
v -0.01989136077463627 0.11722812056541443 0.5845245718955994
v -0.005930254235863686 0.09551765769720078 0.6033011674880981
v -0.0030758888460695744 0.0969696119427681 0.6088158488273621
v -0.007928775623440742 0.10377474129199982 0.6060684323310852
v -0.009415875189006329 0.10137752443552017 0.6010764837265015
v -0.0010024840012192726 0.10318366438150406 0.6098552942276001
v -0.004755041096359491 0.10901574790477753 0.6075989007949829
v -0.011752240359783173 0.1169898509979248 0.5848571062088013
v -0.006356439553201199 0.12131793051958084 0.588397204875946
v 7.041823118925095e-05 0.11343550682067871 0.5885770320892334
v -0.0065536401234567165 0.10889793932437897 0.5877369046211243
v 0.061475854367017746 0.11812914162874222 0.5652827620506287
v 0.06519585102796555 0.11432462930679321 0.5556488037109375
v 0.050911951810121536 0.1112133115530014 0.5527743697166443
v 0.03718368709087372 0.10867920517921448 0.5494986176490784
v 0.024875454604625702 0.10486751794815063 0.5477248430252075
v 0.0211261585354805 0.11080857366323471 0.5580483078956604
v 0.05490812659263611 0.10811765491962433 0.5465193390846252
v -0.00437734741717577 0.10442768037319183 0.5863618850708008
v 0.0024844189174473286 0.10723431408405304 0.5914359092712402
v 0.0006899884901940823 0.10717131197452545 0.587488055229187
v 0.05300958827137947 0.08319439738988876 0.5663763284683228
v -0.01668487675487995 0.12061768025159836 0.6038947105407715
v 0.08767161518335342 0.12188117206096649 0.5997855067253113
v 0.08765050768852234 0.1257355809211731 0.5876013040542603
v 0.07925911247730255 0.12371482700109482 0.5891360640525818
v 0.07921100407838821 0.11889824271202087 0.6019235253334045
v -0.022140825167298317 0.11408713459968567 0.5970492959022522
v -0.02073412761092186 0.11692699790000916 0.6019389033317566
v 0.014939490705728531 0.08445952832698822 0.5530588030815125
v 0.007541507948189974 0.08795671164989471 0.5524806976318359
v 0.008589150384068489 0.08971921354532242 0.5493696331977844
v 0.014502469450235367 0.08443914353847504 0.54874587059021
v 0.06842727214097977 0.11180777847766876 0.5514446496963501
v 0.027686990797519684 0.0881505236029625 0.5341116189956665
v 0.025993995368480682 0.09809044003486633 0.5372511744499207
v 0.0775856077671051 0.11712104827165604 0.5585337281227112
v 0.07441969960927963 0.12105125933885574 0.5667949318885803
v 0.08390133827924728 0.12304029613733292 0.5672863125801086
v 0.00994132086634636 0.10995564609766006 0.5687814950942993
v 0.056854505091905594 0.11961564421653748 0.5723875761032104
v 0.07098491489887238 0.12199011445045471 0.5735146403312683
v 0.0821806862950325 0.12437617778778076 0.5744070410728455
v 0.09020587056875229 0.12661060690879822 0.5743052363395691
v 0.09132271260023117 0.12470696866512299 0.5665227174758911
v -0.006713903974741697 0.12341932952404022 0.5934589505195618
v -0.009958792477846146 0.12367065250873566 0.5892008543014526
v 0.09961745142936707 0.12808409333229065 0.5650890469551086
v 0.09812947362661362 0.12945406138896942 0.5740808248519897
v 0.06786150485277176 0.12220209091901779 0.5821389555931091
v 0.0646684318780899 0.12106665968894958 0.5917991399765015
v 0.054346151649951935 0.11972686648368835 0.580611526966095
v 0.04994045943021774 0.1185394898056984 0.5904132723808289
v 0.011965740472078323 0.1136864423751831 0.5787379145622253
v -0.016360195353627205 0.13921745121479034 0.5819084644317627
v -0.01374034397304058 0.1277194768190384 0.5841241478919983
v -0.018712274730205536 0.12511183321475983 0.5823416113853455
v -0.01841900125145912 0.13602323830127716 0.5792500972747803
v -0.014489205554127693 0.11981457471847534 0.5850024223327637
v -0.01125546358525753 0.12969239056110382 0.5887572169303894
v 0.04754631221294403 0.11372733861207962 0.6010100245475769
v -0.008177665062248707 0.09534178674221039 0.58617103099823
v 0.06389722973108292 0.11416370421648026 0.6041814684867859
v 0.040326185524463654 0.108558289706707 0.6116432547569275
v 0.05226113647222519 0.10775599628686905 0.6140932440757751
v 0.08004297316074371 0.11342960596084595 0.6105175018310547
v 0.0675048828125 0.10899841040372849 0.6161280274391174
v 0.0963992178440094 0.11726370453834534 0.6071515679359436
v 0.08796375244855881 0.11571156978607178 0.6080983281135559
v 0.0555880181491375 0.10519161820411682 0.6203403472900391
v -0.030638303607702255 0.13263143599033356 0.5869595408439636
v -0.02752918377518654 0.1307402402162552 0.5822762250900269
v 0.09555943310260773 0.12425769120454788 0.5991034507751465
v 0.04173491522669792 0.07452254742383957 0.6116705536842346
v 0.0632251724600792 0.08124704658985138 0.5696296691894531
v 0.06162576004862785 0.08322355151176453 0.5744346976280212
v 0.07104168832302094 0.0790310800075531 0.5523312091827393
v 0.06633023172616959 0.07814664393663406 0.5630393028259277
v -0.030461939051747322 0.1356106847524643 0.5914021134376526
v -0.0046404628083109856 0.09426173567771912 0.5663111805915833
v -0.004085115622729063 0.09691378474235535 0.5621811151504517
v 0.042286794632673264 0.08206218481063843 0.6262353658676147
v 0.033763397485017776 0.08286696672439575 0.6259561777114868
v 0.03269335627555847 0.09561830013990402 0.6292165517807007
v 0.03313128277659416 0.08851781487464905 0.6300151944160461
v 0.0431438572704792 0.08981756865978241 0.6292791366577148
v 0.043160613626241684 0.09732505679130554 0.627527117729187
v 0.07236555218696594 0.08000019937753677 0.5766470432281494
v 0.072722427546978 0.07936203479766846 0.5728487372398376
v 0.07201926410198212 0.10052049160003662 0.5447695255279541
v 0.07222510129213333 0.08906333148479462 0.5435550808906555
v 0.002105590421706438 0.10749220103025436 0.6074295043945312
v 0.008370481431484222 0.10695700347423553 0.6055763959884644
v 0.005327306222170591 0.11084926128387451 0.6022328734397888
v 0.0032346914522349834 0.11571887135505676 0.5944424271583557
v -0.008805970661342144 0.10164565593004227 0.5847936868667603
v -0.004369858652353287 0.10341918468475342 0.5893703699111938
v 0.08055508881807327 0.07563617825508118 0.5952742099761963
v 0.06912820786237717 0.07629164308309555 0.5896438956260681
v 0.03175707906484604 0.08168458193540573 0.6095566749572754
v 0.027583088725805283 0.08836059272289276 0.609084963798523
v 0.01586371660232544 0.08691500127315521 0.5781594514846802
v 0.004551159683614969 0.10595808923244476 0.5704798698425293
v 0.006952694151550531 0.11111242324113846 0.578819990158081
v 0.005064690951257944 0.08785443007946014 0.5782618522644043
v -0.024764614179730415 0.14150461554527283 0.5927207469940186
v -0.028786811977624893 0.1384795755147934 0.5928557515144348
v 0.005837847013026476 0.11070717126131058 0.5967274308204651
v 0.022913111373782158 0.08387857675552368 0.5583896636962891
v 0.005326431710273027 0.10615531355142593 0.5642611980438232
v 0.0005860854871571064 0.09937581419944763 0.5666975378990173
v 0.032809335738420486 0.08328760415315628 0.5358421206474304
v 0.09628313034772873 0.12777242064476013 0.5872129201889038
v -0.02389456145465374 0.12426014989614487 0.5843810439109802
v -0.023311026394367218 0.13112561404705048 0.579115629196167
v -0.015653803944587708 0.14126339554786682 0.585513174533844
v -0.01830858178436756 0.1421588957309723 0.5905658006668091
v 0.08156942576169968 0.08897706866264343 0.5489680171012878
v 0.0602400042116642 0.08418600261211395 0.5775138735771179
v 0.04518809914588928 0.10399188846349716 0.6224766969680786
v 0.032802123576402664 0.10133865475654602 0.6249175667762756
v -0.004584184382110834 0.09056071937084198 0.578190267086029
v 0.021603552624583244 0.09896282106637955 0.5434432029724121
v 0.013852886855602264 0.10901905596256256 0.5560581684112549
v 0.009128699079155922 0.10886940360069275 0.5522263646125793
v 0.0023675053380429745 0.1092233881354332 0.5544262528419495
v -0.00381865119561553 0.10507194697856903 0.5557602047920227
v -0.01819351688027382 0.14508816599845886 0.5820426940917969
v -0.021937066689133644 0.14673550426959991 0.5858640670776367
v -0.027630213648080826 0.14577685296535492 0.5861225724220276
v -0.031336355954408646 0.14212889969348907 0.5866841077804565
v -0.03232070803642273 0.13758879899978638 0.5863409042358398
v -0.018316352739930153 0.14264193177223206 0.5788009762763977
v -0.01944483444094658 0.13946224749088287 0.5771722793579102
v -0.023448381572961807 0.13383004069328308 0.5780454874038696
v -0.01780482567846775 0.14353711903095245 0.5751546621322632
v -0.019123360514640808 0.14794735610485077 0.5757687091827393
v -0.030977383255958557 0.15115293860435486 0.5732764005661011
v -0.028316009789705276 0.15023374557495117 0.5780938863754272
v -0.027412638068199158 0.15120336413383484 0.5761996507644653
v -0.028767507523298264 0.15276673436164856 0.5719605088233948
v -0.028764598071575165 0.1549677848815918 0.5676029324531555
v -0.03167102113366127 0.1532576084136963 0.5684314370155334
v -0.023375660181045532 0.1498531848192215 0.5774807929992676
v -0.02447948232293129 0.15217265486717224 0.5717577338218689
v -0.020929785445332527 0.1506073772907257 0.5703112483024597
v -0.021549124270677567 0.15347985923290253 0.5660017728805542
v -0.024814927950501442 0.15520226955413818 0.567141056060791
v -0.020504003390669823 0.1492735892534256 0.5744073987007141
v -0.02290165424346924 0.14965853095054626 0.5790361762046814
v -0.03005761280655861 0.15449216961860657 0.5646472573280334
v -0.028233602643013 0.1560458540916443 0.5651528239250183
v -0.025120936334133148 0.1558077186346054 0.564411461353302
v -0.026129914447665215 0.15480589866638184 0.5618811249732971
v -0.03155732899904251 0.1453595757484436 0.5805457234382629
v -0.03240441903471947 0.14921672642230988 0.5729205012321472
v -0.0319623164832592 0.15047195553779602 0.5673657059669495
v -0.030313733965158463 0.15195852518081665 0.5637025833129883
v -0.03216073662042618 0.14605334401130676 0.5706850290298462
v -0.031131628900766373 0.14789840579032898 0.5664680600166321
v -0.029456350952386856 0.14886072278022766 0.563118577003479
v -0.030268065631389618 0.14317262172698975 0.5684623122215271
v -0.02940395101904869 0.14566777646541595 0.5651624202728271
v -0.030782995745539665 0.13682587444782257 0.5799079537391663
v -0.03200831264257431 0.14004188776016235 0.5815942287445068
v -0.028936538845300674 0.146796315908432 0.562920093536377
v -0.026114415377378464 0.15282121300697327 0.561163604259491
v -0.01887517422437668 0.1476573795080185 0.570225179195404
v -0.02050573006272316 0.15062959492206573 0.564620852470398
v -0.01859916001558304 0.1456897109746933 0.5693523287773132
v -0.019841793924570084 0.1484953612089157 0.5636659264564514
v -0.02164834924042225 0.15317894518375397 0.5616794228553772
v -0.02255459874868393 0.15448696911334991 0.5637000203132629
v -0.03079419955611229 0.1336509883403778 0.5839838981628418
v -0.026845958083868027 0.13227154314517975 0.5802959203720093
v -0.02602238580584526 0.1348499059677124 0.5772733688354492
v -0.02647944539785385 0.14106643199920654 0.566849946975708
v -0.02216077409684658 0.1358138471841812 0.5751681923866272
v -0.01845909282565117 0.1406562328338623 0.5733480453491211
v -0.01937488280236721 0.14381995797157288 0.5676062703132629
v -0.021669436246156693 0.1417900025844574 0.5665860176086426
v -0.02078293077647686 0.146197110414505 0.5635187029838562
v -0.02287542261183262 0.14471231400966644 0.5635850429534912
v -0.026452600955963135 0.14415161311626434 0.5638538002967834
v -0.022996114566922188 0.14820854365825653 0.5611268281936646
v -0.02191150188446045 0.15098518133163452 0.5611114501953125
v -0.0263684019446373 0.14947667717933655 0.5610780715942383
v -0.02372412383556366 0.14647361636161804 0.5618062615394592
v -0.026507869362831116 0.1470990777015686 0.5622202157974243
v -0.020515888929367065 0.11784465610980988 0.5461740493774414
v -0.015188919380307198 0.1157793253660202 0.5449425578117371
v -0.017805730924010277 0.11103629320859909 0.5522369146347046
v -0.02098221518099308 0.11411735415458679 0.5544186234474182
v -0.017583146691322327 0.12613482773303986 0.5559278726577759
v -0.02175469882786274 0.12416376918554306 0.5525620579719543
v -0.019064655527472496 0.12233427911996841 0.5597509741783142
v -0.013030752539634705 0.12324143946170807 0.56032395362854
v -0.011880505830049515 0.1254480630159378 0.5559920072555542
v -0.008368855342268944 0.12073713541030884 0.5590409636497498
v -0.008826887235045433 0.12337547540664673 0.5628599524497986
v -0.015395116060972214 0.12142518162727356 0.5642943382263184
v -0.00674316706135869 0.1096571683883667 0.5791207551956177
v -0.0012828786857426167 0.11294988542795181 0.5766618847846985
v -0.00914332177489996 0.09404315799474716 0.5695791840553284
v -0.006891973316669464 0.09601821005344391 0.5670135617256165
v -0.022354748100042343 0.1209806501865387 0.548727810382843
v -0.021539432927966118 0.11863423883914948 0.557129979133606
v -0.012118134647607803 0.10627802461385727 0.5516414642333984
v -0.016851067543029785 0.10672355443239212 0.5540375113487244
v -0.014165850356221199 0.10919230431318283 0.5496538877487183
v -0.009637458249926567 0.11027559638023376 0.5492636561393738
v -0.011489629745483398 0.1015557199716568 0.5788031220436096
v -0.010393894277513027 0.09631136804819107 0.5750640630722046
v -0.009851425886154175 0.10581477731466293 0.5790092945098877
v -0.006493511144071817 0.10934294015169144 0.5517937541007996
v -0.0025834417901933193 0.1142696812748909 0.553866446018219
v 0.003883965779095888 0.10624918341636658 0.5655081868171692
v -5.3678639233112335e-05 0.10088100284337997 0.5640472173690796
v -0.019626300781965256 0.11811767518520355 0.5631504058837891
v -0.020172681659460068 0.1096266657114029 0.5575844049453735
v -0.021479155868291855 0.11327727884054184 0.5603964924812317
v -0.004028825089335442 0.12000136822462082 0.5588021874427795
v -0.0050330632366240025 0.11770519614219666 0.5541033744812012
v -0.0018747658468782902 0.12955999374389648 0.5425111055374146
v -0.004750099498778582 0.12008713185787201 0.550584614276886
v -0.006386859808117151 0.11737710237503052 0.5467210412025452
v -0.002252266276627779 0.1266053020954132 0.5386266112327576
v -0.006133214570581913 0.11380895227193832 0.5518242716789246
v -0.0070277429185807705 0.12307915836572647 0.553673267364502
v -0.014958832412958145 0.12790662050247192 0.5340391397476196
v -0.009225346148014069 0.1252240091562271 0.5330913066864014
v -0.017594650387763977 0.13100485503673553 0.5361888408660889
v 0.003313381690531969 0.1116514652967453 0.5709620714187622
v -0.015794599428772926 0.13584484159946442 0.5446068048477173
v -0.018530068919062614 0.13341887295246124 0.5395441055297852
v -0.009829787537455559 0.11545991152524948 0.5446898937225342
v -0.004544054623693228 0.12515366077423096 0.534993052482605
v -0.003949108999222517 0.1325637698173523 0.5452084541320801
v -0.010282197967171669 0.13509607315063477 0.5476352572441101
v -0.0026628649793565273 0.13551867008209229 0.5396717190742493
v -0.0076051210053265095 0.13867835700511932 0.5414183139801025
v -0.012950494885444641 0.13962267339229584 0.5387017726898193
v -0.016041859984397888 0.1366404891014099 0.5351310968399048
v -0.015959542244672775 0.13334757089614868 0.532966136932373
v -0.0011004232801496983 0.1328156590461731 0.5372852087020874
v -0.0015261457301676273 0.12964819371700287 0.5340819358825684
v -0.004859513137489557 0.12699520587921143 0.5322508811950684
v -0.0005081235431134701 0.13402611017227173 0.5296506881713867
v -0.00138540705665946 0.13818944990634918 0.5308353900909424
v -0.012832043692469597 0.14457455277442932 0.5188813805580139
v -0.012986637651920319 0.14347213506698608 0.5246106386184692
v -0.01056428998708725 0.14437136054039001 0.5246615409851074
v -0.010169684886932373 0.14532431960105896 0.5194332599639893
v -0.011594467796385288 0.14336197078227997 0.5304628610610962
v -0.009703636169433594 0.14377859234809875 0.5289629697799683
v -0.005619232077151537 0.14216504991054535 0.5303332805633545
v -0.0060597616247832775 0.14282143115997314 0.5244651436805725
v -0.002251825761049986 0.13989785313606262 0.5245998501777649
v -0.001710813958197832 0.14152881503105164 0.519375741481781
v -0.005246155429631472 0.14478984475135803 0.5191325545310974
v -0.002674033399671316 0.14034417271614075 0.5286651849746704
v -0.00901363417506218 0.1456780731678009 0.5161272883415222
v -0.010164008475840092 0.1447407454252243 0.5140298008918762
v -0.005885943304747343 0.14204011857509613 0.5332321524620056
v -0.015519237145781517 0.13924339413642883 0.5319805145263672
v -0.015006529167294502 0.14144611358642578 0.5235129594802856
v -0.014069357886910439 0.14211338758468628 0.5171698927879333
v -0.010101508349180222 0.14209508895874023 0.5125133395195007
v -0.015157017856836319 0.13785871863365173 0.5214572548866272
v -0.01358032412827015 0.1391734480857849 0.5159108638763428
v -0.009886723011732101 0.1393943876028061 0.5125863552093506
v -0.013416055589914322 0.1338435262441635 0.5197747349739075
v -0.01145894080400467 0.13568554818630219 0.5148400068283081
v -0.014351537451148033 0.13066154718399048 0.5296851992607117
v -0.016491200774908066 0.1347377747297287 0.5306981205940247
v -0.009955409914255142 0.13710260391235352 0.5132640600204468
v -0.005442737136036158 0.14447784423828125 0.51312255859375
v -0.006107527296990156 0.14160606265068054 0.5114889144897461
v -0.005362588446587324 0.1449424773454666 0.5149075388908386
v -0.0010855314321815968 0.13810700178146362 0.5242797136306763
v -0.001206317450851202 0.13959282636642456 0.5183135271072388
v -0.0006660646758973598 0.135545551776886 0.5231529474258423
v -0.0011392929591238499 0.13770043849945068 0.5167937874794006
v -0.0019378061406314373 0.14156638085842133 0.5142567753791809
v -0.002439540345221758 0.14291656017303467 0.5151481032371521
v -0.013403359800577164 0.12995727360248566 0.5320025086402893
v -0.00860796868801117 0.1271337866783142 0.5314671993255615
v -0.00983194075524807 0.12752020359039307 0.5293331146240234
v -0.009015403687953949 0.13113686442375183 0.5195429921150208
v -0.005276165436953306 0.1274249255657196 0.5296400189399719
v -0.0016953847371041775 0.13062092661857605 0.5288802981376648
v -0.0015592104755342007 0.13297945261001587 0.5222979784011841
v -0.004462986718863249 0.13108764588832855 0.5204554200172424
v -0.001153282355517149 0.13559582829475403 0.5161505937576294
v -0.003571982029825449 0.1334437131881714 0.5165202617645264
v -0.008147303014993668 0.13337332010269165 0.5150911808013916
v -0.002462614793330431 0.1379399448633194 0.5124646425247192
v -0.0019923881627619267 0.14015436172485352 0.5131826400756836
v -0.006573158781975508 0.13944807648658752 0.5115936398506165
v -0.003957150038331747 0.13553819060325623 0.5133758187294006
v -0.007376513909548521 0.1365353763103485 0.512578547000885
v -0.016933226957917213 0.10045333951711655 0.5247632265090942
v -0.013347813859581947 0.09627694636583328 0.5244505405426025
v -0.014056859537959099 0.09199314564466476 0.5304082036018372
v -0.017861098051071167 0.0967392548918724 0.5310508012771606
v -0.011271867901086807 0.10990186780691147 0.5315976142883301
v -0.015368549153208733 0.10847207903862 0.528947651386261
v -0.016452578827738762 0.10612192749977112 0.5336445569992065
v -0.012097978964447975 0.10789104551076889 0.5368437170982361
v -0.005707913544028997 0.10928227007389069 0.531324565410614
v -0.006219813134521246 0.10702230036258698 0.5364077687263489
v -0.009959304705262184 0.11037224531173706 0.539709210395813
v -0.015125462785363197 0.1067081168293953 0.5386513471603394
v -0.006686285603791475 0.1058085635304451 0.5508173704147339
v -0.0017123506404459476 0.11047978699207306 0.5490879416465759
v -0.017054103314876556 0.10488948971033096 0.5263728499412537
v -0.018312085419893265 0.10202712565660477 0.5318052768707275
v -0.003489192109555006 0.09205351024866104 0.5336470007896423
v -0.007232553791254759 0.09139259904623032 0.5352203249931335
v -0.009023137390613556 0.09090002626180649 0.5291763544082642
v -0.005413092207163572 0.09214271605014801 0.5291184782981873
v -0.005754478741437197 0.09495839476585388 0.5546178221702576
v -0.0006473050452768803 0.09224473685026169 0.5525745153427124
v -0.007979534566402435 0.09994480013847351 0.55253005027771
v -0.00046610040590167046 0.09693028032779694 0.5337057709693909
v 0.0005953577347099781 0.10455110669136047 0.5352792739868164
v 0.00837683491408825 0.10353237390518188 0.5434383153915405
v 0.007503820117563009 0.09730778634548187 0.544283390045166
v -0.01682373508810997 0.10201863944530487 0.5385881066322327
v -0.011899489909410477 0.09240400791168213 0.5372578501701355
v -0.01613818295300007 0.09646035730838776 0.5382375717163086
v -0.00387880252674222 0.10952665656805038 0.5377402305603027
v -0.0026990394107997417 0.10223883390426636 0.5337496399879456
v 0.004163843113929033 0.10898405313491821 0.5162005424499512
v -0.0009626238606870174 0.0989474505186081 0.5287809371948242
v -0.0039621139876544476 0.09572017937898636 0.52587890625
v 0.002997220028191805 0.10555244237184525 0.5137800574302673
v -0.0022263391874730587 0.09599489718675613 0.5307225584983826
v -0.0013126167468726635 0.10471729934215546 0.5309662222862244
v -0.009145209565758705 0.10838903486728668 0.5095422863960266
v -0.005482045467942953 0.10434966534376144 0.5104748606681824
v -0.010167049244046211 0.11175671219825745 0.5116671919822693
v 0.00475887069478631 0.11012934148311615 0.54606693983078
v 0.004811559338122606 0.0921439677476883 0.5477327108383179
v -0.006467096041887999 0.11705130338668823 0.5148998498916626
v -0.009473200887441635 0.11485648155212402 0.5129075646400452
v -0.008209757506847382 0.09496530890464783 0.5249486565589905
v -0.00037278933450579643 0.10352551937103271 0.5116935968399048
v 0.002429355401545763 0.11273891478776932 0.5177572965621948
v -0.0019154991023242474 0.11628333479166031 0.5178545117378235
v 0.005259585101157427 0.11274679005146027 0.5130398273468018
v 0.0014980067498981953 0.11668126285076141 0.5123506784439087
v -0.0016284245066344738 0.11828191578388214 0.5093312859535217
v -0.0045526097528636456 0.11675774306058884 0.5073862075805664
v -0.006072695832699537 0.11388398706912994 0.5060745477676392
v 0.006062984932214022 0.10888662934303284 0.5112924575805664
v 0.0041355048306286335 0.10598196089267731 0.5094590783119202
v 0.0004045260138809681 0.10508352518081665 0.5091812610626221
v 0.007894042879343033 0.10673385113477707 0.5080825090408325
v 0.009365633130073547 0.11190953105688095 0.5079337358474731
v 0.00963326171040535 0.11735638976097107 0.49386346340179443
v 0.006559879053384066 0.11753113567829132 0.49813663959503174
v 0.007720467168837786 0.11740697920322418 0.4987223148345947
v 0.011094212532043457 0.11754421144723892 0.49459224939346313
v 0.004305523354560137 0.11820650100708008 0.5041617155075073
v 0.0065563698299229145 0.11786610633134842 0.5033665895462036
v 0.008313722908496857 0.11589615046977997 0.5058777332305908
v 0.011818360537290573 0.11514998227357864 0.5007551908493042
v 0.01288539543747902 0.10981239378452301 0.5025948286056519
v 0.014867637306451797 0.11029016971588135 0.4984363615512848
v 0.014548685401678085 0.11535283923149109 0.4967917799949646
v 0.010523207485675812 0.11209264397621155 0.5065712332725525
v 0.01325272023677826 0.11658834666013718 0.49289998412132263
v 0.01272224634885788 0.11772160232067108 0.4910912811756134
v 0.0060927909798920155 0.11637133359909058 0.5072404146194458
v -0.00024365587159991264 0.11834979802370071 0.5028967261314392
v 0.004234012681990862 0.11728839576244354 0.4966326355934143
v 0.006971676368266344 0.11710915714502335 0.4916103780269623
v 0.010272778570652008 0.11529414355754852 0.4896722137928009
v 0.0023375977762043476 0.11439751088619232 0.49559804797172546
v 0.005547229666262865 0.11424997448921204 0.49139708280563354
v 0.008533008396625519 0.11279042065143585 0.4894195795059204
v 0.0015991968102753162 0.11127178370952606 0.4956128001213074
v 0.00504210265353322 0.1111179068684578 0.49200600385665894
v -0.0045177447609603405 0.11114013940095901 0.5037988424301147
v -0.003024871926754713 0.11529369652271271 0.5031086206436157
v 0.007623602170497179 0.11094363033771515 0.49025648832321167
v 0.016009945422410965 0.11440803110599518 0.4923743009567261
v 0.013944242149591446 0.11127723753452301 0.49047452211380005
v 0.01502842828631401 0.11448535323143005 0.493929922580719
v 0.012393184006214142 0.10812129825353622 0.5032249093055725
v 0.01558525487780571 0.10803990066051483 0.4980742335319519
v 0.01084594801068306 0.1056337058544159 0.5027575492858887
v 0.014139603823423386 0.10557432472705841 0.49751776456832886
v 0.01679990068078041 0.11007051914930344 0.4950692355632782
v 0.016261771321296692 0.1110609769821167 0.49543896317481995
v -0.006047650706022978 0.10980236530303955 0.5067065358161926
v -0.0034379023127257824 0.10610173642635345 0.5075870752334595
v -0.0030388901941478252 0.10714850574731827 0.5047963857650757
v 0.0030132164247334003 0.10727671533823013 0.4961431920528412
v 0.0002568070776760578 0.10496967285871506 0.5066061615943909
v 0.0055900332517921925 0.10487023741006851 0.5060480237007141
v 0.00852356106042862 0.10440483689308167 0.5009620189666748
v 0.005968202371150255 0.10491127520799637 0.4983341693878174
v 0.011812787503004074 0.10436451435089111 0.49633073806762695
v 0.009103890508413315 0.10530371963977814 0.4955563545227051
v 0.006060850340873003 0.10742337256669998 0.49255096912384033
v 0.012834586203098297 0.10687464475631714 0.4932894706726074
v 0.015425179153680801 0.10785587131977081 0.4939747154712677
v 0.011434126645326614 0.10956740379333496 0.4900350570678711
v 0.01048661395907402 0.10645382106304169 0.49295803904533386
v 0.009294290095567703 0.10845668613910675 0.4904816150665283
v 0.0028551663272082806 0.09096453338861465 0.5503042936325073
v 0.0024817143566906452 0.09003940224647522 0.5532740354537964
v 0.004787896294146776 0.08732526004314423 0.5547252893447876
v 0.007652269210666418 0.08577154576778412 0.551846444606781
v 0.006387706380337477 0.08903002738952637 0.5504769682884216
v -0.0029295897111296654 0.08642630279064178 0.544981837272644
v -0.0020662411116063595 0.08951812982559204 0.5478348135948181
v 0.0006971042603254318 0.08970601856708527 0.5440952181816101
v -0.000300379004329443 0.086931511759758 0.5409030914306641
v -0.002260119654238224 0.08155397325754166 0.5445103645324707
v 0.0002192975953221321 0.08204321563243866 0.5400197505950928
v 0.0015656636096537113 0.09012578427791595 0.5384246110916138
v 0.0029639326967298985 0.09190593659877777 0.5426360368728638
v 0.014153407886624336 0.09689943492412567 0.5444614291191101
v 0.015045247972011566 0.09716315567493439 0.5402051210403442
v 0.026254799216985703 0.08064357936382294 0.5379327535629272
v 0.02825717255473137 0.07913821935653687 0.5411145687103271
v 0.019569892436265945 0.08067083358764648 0.544087290763855
v 0.01972424052655697 0.0806506872177124 0.5401694774627686
v -1.7140526324510574e-05 0.09058047831058502 0.5507285594940186
v 0.0032986816950142384 0.09075020253658295 0.54793781042099
v 0.011678889393806458 0.07786401361227036 0.5450534820556641
v 0.011825386434793472 0.0807855874300003 0.5485720634460449
v 0.009776614606380463 0.08228462934494019 0.5518733859062195
v 0.00954463705420494 0.07838095724582672 0.5500232577323914
v 0.025322411209344864 0.07988236099481583 0.545087456703186
v 0.021105436608195305 0.08157643675804138 0.5475669503211975
v 0.017888247966766357 0.08389552682638168 0.5482922792434692
v 0.01777128502726555 0.08260916918516159 0.5475196242332458
v 0.014822728931903839 0.08992820978164673 0.5484200119972229
v 0.009663347154855728 0.07709108293056488 0.5412976741790771
v 0.005976757500320673 0.07933615148067474 0.5371836423873901
v 0.018533693626523018 0.08598002791404724 0.5331565141677856
v 0.020101580768823624 0.08270677179098129 0.5359493494033813
v 0.004657350946217775 0.09133658558130264 0.5469258427619934
v 0.0100284144282341 0.08449612557888031 0.5501288771629333
v 0.00745819928124547 0.08819156885147095 0.5494384169578552
v 0.002435485366731882 0.08509829640388489 0.5358760952949524
v 0.0033231847919523716 0.07728800177574158 0.542090654373169
v -0.000816145446151495 0.07618020474910736 0.5581204891204834
v 0.004989200737327337 0.07705797255039215 0.5504002571105957
v 0.006615831051021814 0.0796179324388504 0.5540520548820496
v -0.0003009294159710407 0.07767333090305328 0.5604046583175659
v 0.007406184915453196 0.07627227902412415 0.5457324385643005
v 0.0009948667138814926 0.07725133746862411 0.5465768575668335
v -0.004778990987688303 0.08806943893432617 0.5612432360649109
v -0.001311774831265211 0.08478152006864548 0.5619767308235168
v -0.00665743974968791 0.08863663673400879 0.5590198636054993
v 0.016373902559280396 0.09379784762859344 0.5349644422531128
v -0.008830219507217407 0.08413806557655334 0.554474949836731
v -0.008752338588237762 0.08739161491394043 0.5568456649780273
v 0.006333622615784407 0.08367753773927689 0.5552111864089966
v -0.0002972581423819065 0.08072615414857864 0.561457097530365
v -0.0030055723618716 0.07624585926532745 0.5554583072662354
v -0.00728770112618804 0.07936200499534607 0.5532522797584534
v -0.005368681624531746 0.07464411854743958 0.5586491823196411
v -0.010104390792548656 0.07807817310094833 0.5568773746490479
v -0.012515287846326828 0.0829719603061676 0.5582478046417236
v -0.01222227606922388 0.0855565071105957 0.559873640537262
v -0.010911006480455399 0.08689949661493301 0.5622590780258179
v -0.0032477949280291796 0.07485438138246536 0.5614001154899597
v -0.00277003669179976 0.07675422728061676 0.5637907981872559
v -0.0026574567891657352 0.08010070025920868 0.5648950338363647
v -0.007653950247913599 0.07234121859073639 0.5627344250679016
v -0.01086130179464817 0.07186531275510788 0.5588115453720093
v -0.023981720209121704 0.07463773339986801 0.5618076920509338
v -0.021029409021139145 0.0767500251531601 0.5614421367645264
v -0.020511671900749207 0.07612805813550949 0.5604833960533142
v -0.02407659962773323 0.07434564083814621 0.560722827911377
v -0.01698646880686283 0.07916037738323212 0.5596905946731567
v -0.0171087346971035 0.07730632275342941 0.5589601993560791
v -0.014635788276791573 0.07528689503669739 0.5580623149871826
v -0.0185801163315773 0.07285340130329132 0.5583845973014832
v -0.01602562889456749 0.06864538788795471 0.5601515173912048
v -0.019728926941752434 0.06719453632831573 0.5602482557296753
v -0.021623359993100166 0.07104808837175369 0.5584414005279541
v -0.013326036743819714 0.0716128796339035 0.5582515597343445
v -0.02574571967124939 0.07254699617624283 0.5601503252983093
v -0.026831436902284622 0.07248799502849579 0.5610111355781555
v -0.013776445761322975 0.07674959301948547 0.5578309893608093
v -0.01627516932785511 0.08270865678787231 0.5622920393943787
v -0.021845221519470215 0.07766570895910263 0.5633697509765625
v -0.02541835606098175 0.07465071231126785 0.5633650422096252
v -0.026924971491098404 0.07165435701608658 0.5629191398620605
v -0.02033087983727455 0.07844416797161102 0.5653530359268188
v -0.02502540871500969 0.07465657591819763 0.5656501054763794
v -0.02631976827979088 0.07158391177654266 0.5653135180473328
v -0.018183661624789238 0.07821982353925705 0.5677854418754578
v -0.022853363305330276 0.07421530783176422 0.5672849416732788
v -0.011370450258255005 0.08366337418556213 0.566848635673523
v -0.014208981767296791 0.08378387242555618 0.5644914507865906
v -0.02461976557970047 0.07181074470281601 0.5661423206329346
v -0.025604810565710068 0.06903938204050064 0.5600644946098328
v -0.025909796357154846 0.06858769804239273 0.5629001259803772
v -0.024569865316152573 0.06930375844240189 0.5590700507164001
v -0.014976730570197105 0.06818264722824097 0.561095654964447
v -0.01954849436879158 0.06626476347446442 0.5615079998970032
v -0.013829033821821213 0.06835754215717316 0.5637184977531433
v -0.019487088546156883 0.0662904679775238 0.5637747645378113
v -0.023117080330848694 0.06646092981100082 0.5610759854316711
v -0.02250467985868454 0.06752897053956985 0.5598557591438293
v -0.008250259794294834 0.08628415316343307 0.5647644996643066
v -0.004309482406824827 0.08386627584695816 0.5646380186080933
v -0.007675928995013237 0.0815693587064743 0.5674927830696106
v -0.015414437279105186 0.07632015645503998 0.5691697597503662
v -0.006148879416286945 0.07743695378303528 0.5673586130142212
v -0.006393758580088615 0.07434491068124771 0.5651189088821411
v -0.013543478213250637 0.07011257857084274 0.5659728646278381
v -0.01401222962886095 0.07269817590713501 0.5680867433547974
v -0.01978679560124874 0.06743299961090088 0.5657382607460022
v -0.019918028265237808 0.0697856992483139 0.5676674246788025
v -0.020845631137490273 0.07246188819408417 0.568367063999176
v -0.023528557270765305 0.0677117332816124 0.5648968815803528
v -0.02367085963487625 0.066654734313488 0.563277542591095
v -0.025143008679151535 0.06917201727628708 0.5647724270820618
v -0.02305344119668007 0.06901901960372925 0.566380500793457
v -0.02376536652445793 0.07031891494989395 0.566483736038208
v 0.023701533675193787 0.08314627408981323 0.5359274744987488
v 0.015208445489406586 0.09917929023504257 0.6216185688972473
v 0.015927355736494064 0.09843730926513672 0.6160442233085632
v 0.01594841107726097 0.08227727562189102 0.6137554049491882
v 0.015417588874697685 0.08886586129665375 0.6104112863540649
v 0.015729401260614395 0.07969490438699722 0.6202932000160217
v 0.015554038807749748 0.08459912240505219 0.629711389541626
v 0.016671353951096535 0.08100106567144394 0.6258859634399414
v 0.015785250812768936 0.09440512210130692 0.6116103529930115
v 0.01528463326394558 0.09699439257383347 0.6267396807670593
v 0.01545373909175396 0.09091589599847794 0.6307495832443237
v 0.002388030756264925 0.09725237637758255 0.6263988018035889
v 0.002760805655270815 0.0896836668252945 0.6294196248054504
v 0.003044352401047945 0.08251901715993881 0.6267971992492676
v 0.006844778079539537 0.07978358864784241 0.6219572424888611
v 0.008503135293722153 0.07896699011325836 0.6175430417060852
v 0.006702688056975603 0.0997941642999649 0.6201459765434265
v 0.008840518072247505 0.09936217218637466 0.6147743463516235
v 0.010734159499406815 0.09462487697601318 0.6105250716209412
v -7.612211629748344e-05 0.09991936385631561 0.6156793832778931
v -0.007206927519291639 0.09466484189033508 0.6121920347213745
v -0.011122111231088638 0.07887628674507141 0.6018494963645935
v -0.006818320136517286 0.07881934195756912 0.6067754626274109
v -0.00853714719414711 0.08085229992866516 0.6076000928878784
v -0.012573111802339554 0.08044177293777466 0.6032975316047668
v -0.005665685515850782 0.08038822561502457 0.6120529174804688
v -0.006810549180954695 0.08222553879022598 0.6112330555915833
v -0.007026958744972944 0.08755914866924286 0.6129522323608398
v -0.010756861418485641 0.08681926131248474 0.6085626482963562
v -0.007523174863308668 0.09216628968715668 0.6110529899597168
v -0.0092841275036335 0.09263134002685547 0.6072075963020325
v -0.014098253101110458 0.08641734719276428 0.6041956543922424
v -0.015541266649961472 0.08183500170707703 0.6013885140419006
v -0.01660696044564247 0.08593598008155823 0.6005098819732666
v -0.014525193721055984 0.0808953195810318 0.5988433361053467
v -0.009460028260946274 0.08807794749736786 0.6160022020339966
v 0.00013647647574543953 0.07818739116191864 0.6142517328262329
v -0.0035647558979690075 0.07762373983860016 0.6060853004455566
v -0.008223216980695724 0.078568235039711 0.5999709963798523
v -0.012350503355264664 0.08120739459991455 0.5967168211936951
v -0.0002012769691646099 0.07848502695560455 0.6039687991142273
v -0.004622149746865034 0.0802372545003891 0.5986183881759644
v -0.008430171757936478 0.0834016501903534 0.5957908034324646
v 0.002205167431384325 0.08198286592960358 0.6020088195800781
v -0.0027068438939750195 0.08340393006801605 0.59795743227005
v 0.009236939251422882 0.08259572088718414 0.6103339195251465
v 0.005865928251296282 0.07871347665786743 0.6130757331848145
v -0.006258312147110701 0.08483995497226715 0.5963063836097717
v -0.01710110530257225 0.08609668910503387 0.598170280456543
v -0.014643128961324692 0.08664073050022125 0.5959662795066833
v -0.007917765527963638 0.09549228847026825 0.606798529624939
v -0.013017747551202774 0.09244030714035034 0.603627622127533
v -0.011531319469213486 0.09416515380144119 0.6021885871887207
v -0.004757273476570845 0.0975298136472702 0.6060246825218201
v -0.009464744478464127 0.09533719718456268 0.6006224751472473
v -0.015085984021425247 0.0914309099316597 0.5992531776428223
v -0.015480775386095047 0.09009340405464172 0.6013715863227844
v 0.011087672784924507 0.08174847066402435 0.6124986410140991
v 0.011950330808758736 0.08791512250900269 0.609968900680542
v 0.010035887360572815 0.08930963277816772 0.608931303024292
v 0.003432628232985735 0.08823302388191223 0.6016045212745667
v 0.008025668561458588 0.0959005057811737 0.6088687181472778
v 0.003970712888985872 0.09974662959575653 0.6123664975166321
v -0.00163724971935153 0.09752804040908813 0.6039595603942871
v 0.001823690254241228 0.09429694712162018 0.6024254560470581
v -0.006499323528259993 0.09450876712799072 0.5990472435951233
v -0.004358004312962294 0.09251818060874939 0.5984238386154175
v -0.0026653516106307507 0.08785715699195862 0.597356915473938
v -0.009800706058740616 0.09150323271751404 0.5965745449066162
v -0.012760769575834274 0.09223039448261261 0.5974999666213989
v -0.010438557714223862 0.08744892477989197 0.5953294038772583
v -0.007202241104096174 0.09076519310474396 0.5969382524490356
v -0.007137987297028303 0.08779346197843552 0.5961551070213318
v 0.03326090797781944 0.08064167946577072 0.5407761335372925
v 0.030348077416419983 0.08021274954080582 0.5463289618492126
v 0.0364169105887413 0.08066965639591217 0.5456221699714661
v 0.04499903693795204 0.07989183068275452 0.5468800663948059
v 0.05485401302576065 0.0816863477230072 0.543495774269104
v 0.04288601502776146 0.08076314628124237 0.5533583760261536
v 0.03386516124010086 0.08164189755916595 0.5514147281646729
v 0.024428842589259148 0.081991046667099 0.5517698526382446
v 0.048872675746679306 0.08233309537172318 0.5612758994102478
f 2 3 1
f 1 3 4
f 5 6 8
f 8 6 7
f 9 4 10
f 10 4 3
f 12 13 11
f 11 13 9
f 14 12 16
f 16 12 15
f 18 19 17
f 17 19 20
f 22 23 21
f 21 23 24
f 26 27 25
f 25 27 28
f 30 31 29
f 29 31 32
f 33 34 36
f 36 34 35
f 37 38 40
f 40 38 39
f 41 42 6
f 6 42 43
f 6 43 7
f 7 43 44
f 45 34 46
f 46 34 33
f 48 49 47
f 47 49 50
f 52 53 51
f 51 53 54
f 56 52 55
f 55 52 51
f 58 59 57
f 57 59 60
f 61 62 4
f 4 62 1
f 64 65 63
f 63 65 66
f 68 69 67
f 67 69 70
f 72 73 71
f 71 73 74
f 76 77 75
f 75 77 78
f 53 79 54
f 54 79 80
f 82 83 81
f 81 83 84
f 85 86 52
f 52 86 53
f 57 60 87
f 87 60 88
f 89 90 43
f 43 90 44
f 43 42 89
f 89 42 91
f 40 39 92
f 92 39 93
f 94 70 64
f 64 70 69
f 13 61 9
f 9 61 4
f 25 28 69
f 69 28 95
f 96 25 68
f 68 25 69
f 98 99 97
f 97 99 100
f 101 102 104
f 104 102 103
f 106 30 105
f 105 30 29
f 51 54 107
f 107 54 108
f 54 80 108
f 108 80 109
f 111 112 110
f 110 112 113
f 115 5 114
f 114 5 116
f 115 41 5
f 5 41 6
f 36 35 111
f 111 35 117
f 35 118 117
f 117 118 119
f 34 120 35
f 35 120 118
f 34 45 120
f 120 45 121
f 125 126 124
f 124 126 127
f 128 129 14
f 14 129 130
f 33 131 46
f 46 131 132
f 133 94 63
f 63 94 64
f 134 135 137
f 137 135 136
f 139 140 138
f 138 140 141
f 77 142 78
f 78 142 143
f 144 145 20
f 20 145 146
f 148 149 147
f 147 149 72
f 151 152 150
f 150 152 153
f 82 101 83
f 83 101 104
f 101 82 155
f 155 82 154
f 156 157 58
f 58 157 59
f 158 68 147
f 147 68 67
f 159 146 15
f 15 146 16
f 68 158 96
f 96 158 160
f 129 66 130
f 130 66 65
f 162 163 161
f 161 163 164
f 166 167 165
f 165 167 168
f 170 171 169
f 169 171 172
f 174 171 173
f 173 171 170
f 176 177 175
f 175 177 178
f 180 181 179
f 179 181 24
f 182 183 21
f 21 183 184
f 81 185 82
f 82 185 154
f 186 187 188
f 188 187 144
f 158 71 160
f 160 71 189
f 190 135 157
f 157 135 59
f 169 172 139
f 139 172 140
f 147 72 158
f 158 72 71
f 192 193 191
f 191 193 194
f 167 166 49
f 49 166 195
f 196 190 50
f 50 190 157
f 197 198 200
f 200 198 199
f 21 24 182
f 182 24 181
f 146 159 20
f 20 159 17
f 182 181 81
f 81 181 185
f 201 185 180
f 180 185 181
f 202 203 83
f 83 203 84
f 205 206 204
f 204 206 85
f 207 22 184
f 184 22 21
f 179 24 208
f 208 24 23
f 208 209 179
f 179 209 205
f 209 210 205
f 205 210 206
f 212 206 211
f 211 206 210
f 179 205 180
f 180 205 204
f 213 176 88
f 88 176 214
f 86 85 212
f 212 85 206
f 193 217 218
f 217 219 218
f 218 219 220
f 219 18 220
f 220 18 17
f 19 221 20
f 20 221 144
f 222 223 225
f 225 223 224
f 175 226 176
f 176 226 214
f 227 87 214
f 214 87 88
f 220 17 228
f 228 17 159
f 134 213 60
f 60 213 88
f 138 229 151
f 151 229 152
f 193 192 210
f 210 192 211
f 230 194 218
f 218 194 193
f 231 232 228
f 228 232 230
f 233 234 91
f 91 234 89
f 235 236 93
f 93 236 92
f 230 232 234
f 234 232 237
f 47 238 48
f 48 238 239
f 240 191 235
f 235 191 236
f 5 8 116
f 116 8 241
f 242 243 189
f 189 243 160
f 244 245 98
f 98 245 99
f 156 246 47
f 47 246 238
f 76 247 77
f 77 247 248
f 250 125 249
f 249 125 124
f 252 253 251
f 251 253 254
f 111 110 36
f 36 110 255
f 256 33 255
f 255 33 36
f 257 258 154
f 154 258 155
f 63 169 133
f 133 169 139
f 66 170 63
f 63 170 169
f 173 170 129
f 129 170 66
f 129 128 173
f 173 128 259
f 128 260 259
f 259 260 261
f 213 134 262
f 262 134 137
f 263 264 186
f 186 264 187
f 112 265 113
f 113 265 266
f 11 267 268
f 234 233 230
f 230 233 194
f 153 269 70
f 70 269 67
f 175 178 165
f 165 178 141
f 150 153 94
f 94 153 70
f 271 221 270
f 270 221 207
f 269 153 272
f 272 153 152
f 121 45 109
f 109 45 108
f 47 50 156
f 156 50 157
f 57 273 58
f 58 273 274
f 145 275 260
f 260 275 261
f 276 149 143
f 143 149 78
f 148 269 75
f 75 269 272
f 207 277 270
f 270 277 278
f 195 196 49
f 49 196 50
f 59 135 60
f 60 135 134
f 83 104 202
f 202 104 279
f 149 148 78
f 78 148 75
f 247 278 248
f 248 278 277
f 183 182 84
f 84 182 81
f 48 239 281
f 281 239 282
f 227 223 283
f 283 223 222
f 223 226 224
f 224 226 168
f 281 282 224
f 224 282 225
f 165 168 175
f 175 168 226
f 264 263 138
f 138 263 229
f 14 16 128
f 128 16 260
f 220 228 218
f 218 228 230
f 87 227 284
f 284 227 283
f 260 16 145
f 145 16 146
f 244 98 258
f 258 98 155
f 58 274 156
f 156 274 246
f 107 285 51
f 51 285 55
f 243 286 160
f 160 286 96
f 234 237 89
f 89 237 90
f 46 132 107
f 107 132 285
f 253 252 249
f 249 252 250
f 286 26 96
f 96 26 25
f 106 105 287
f 287 105 288
f 272 152 289
f 289 152 229
f 138 151 139
f 139 151 133
f 183 290 161
f 161 290 162
f 291 292 277
f 277 292 293
f 151 150 133
f 133 150 94
f 262 275 177
f 177 275 187
f 144 187 145
f 145 187 275
f 273 57 284
f 284 57 87
f 174 136 190
f 190 136 135
f 111 117 112
f 112 117 38
f 117 119 38
f 38 119 123
f 112 38 265
f 265 38 37
f 287 288 254
f 254 288 251
f 228 159 231
f 231 159 15
f 223 227 226
f 226 227 214
f 147 67 148
f 148 67 269
f 224 168 281
f 281 168 167
f 199 163 200
f 200 163 162
f 45 46 108
f 108 46 107
f 281 167 48
f 48 167 49
f 161 164 291
f 291 164 292
f 38 123 39
f 293 294 277
f 277 294 248
f 284 283 296
f 296 283 295
f 284 296 273
f 273 296 297
f 274 273 298
f 298 273 297
f 246 274 299
f 299 274 298
f 283 222 295
f 295 222 300
f 222 225 300
f 300 225 301
f 301 225 302
f 302 225 282
f 303 304 300
f 300 304 295
f 306 307 305
f 305 307 308
f 309 310 308
f 308 310 305
f 308 307 312
f 312 307 311
f 313 314 312
f 312 314 315
f 311 316 312
f 312 316 313
f 317 304 311
f 311 304 316
f 315 309 312
f 312 309 308
f 318 319 321
f 321 319 320
f 319 318 309
f 309 318 310
f 311 307 317
f 317 307 306
f 306 297 317
f 317 297 296
f 306 322 297
f 297 322 298
f 305 323 306
f 306 323 322
f 323 305 324
f 324 305 310
f 304 317 295
f 295 317 296
f 318 325 310
f 310 325 324
f 323 324 326
f 326 324 327
f 324 325 327
f 327 325 328
f 326 327 329
f 329 327 330
f 329 331 326
f 326 331 332
f 333 330 328
f 328 330 327
f 323 326 322
f 322 326 332
f 322 332 298
f 298 332 299
f 325 318 334
f 334 318 321
f 313 316 335
f 335 316 304
f 335 336 313
f 313 336 314
f 304 303 335
f 335 303 337
f 336 335 338
f 338 335 337
f 336 339 314
f 314 339 340
f 246 299 238
f 238 299 341
f 239 342 282
f 282 342 302
f 342 239 341
f 341 239 238
f 341 331 342
f 342 331 343
f 331 329 343
f 343 329 344
f 342 343 302
f 302 343 345
f 341 299 331
f 331 299 332
f 346 301 345
f 345 301 302
f 346 303 301
f 301 303 300
f 347 337 346
f 346 337 303
f 347 346 348
f 348 346 345
f 349 347 350
f 350 347 348
f 343 344 345
f 345 344 348
f 344 351 348
f 348 351 350
f 337 347 338
f 338 347 349
f 353 338 352
f 352 338 349
f 352 355 354
f 354 355 356
f 352 349 355
f 355 349 350
f 352 354 353
f 353 354 334
f 353 334 339
f 339 334 321
f 339 336 353
f 353 336 338
f 329 330 344
f 344 330 351
f 356 351 333
f 333 351 330
f 356 355 351
f 351 355 350
f 354 356 328
f 328 356 333
f 328 325 354
f 354 325 334
f 309 315 319
f 319 315 320
f 320 340 321
f 321 340 339
f 320 315 340
f 340 315 314
f 137 136 261
f 261 136 259
f 140 166 141
f 141 166 165
f 172 171 195
f 195 171 196
f 171 174 196
f 196 174 190
f 178 177 264
f 264 177 187
f 172 195 140
f 140 195 166
f 137 261 262
f 262 261 275
f 178 264 141
f 141 264 138
f 262 177 213
f 213 177 176
f 136 174 259
f 259 174 173
f 358 359 357
f 357 359 360
f 362 363 361
f 361 363 364
f 361 364 365
f 365 364 366
f 367 368 370
f 370 368 369
f 76 371 247
f 247 371 372
f 373 374 362
f 362 374 363
f 376 377 375
f 375 377 378
f 289 229 380
f 380 229 379
f 381 379 263
f 263 379 229
f 383 384 382
f 382 384 385
f 386 368 374
f 374 368 363
f 76 289 371
f 371 289 380
f 377 376 359
f 359 376 387
f 388 386 360
f 360 386 374
f 389 383 366
f 366 383 390
f 392 393 391
f 391 393 394
f 383 382 390
f 390 382 395
f 396 365 390
f 390 365 366
f 389 366 367
f 367 366 364
f 357 397 358
f 358 397 398
f 373 399 357
f 357 399 397
f 389 367 400
f 400 367 370
f 382 385 375
f 375 385 372
f 357 360 373
f 373 360 374
f 361 401 362
f 362 401 402
f 387 388 359
f 359 388 360
f 363 368 364
f 364 368 367
f 358 398 403
f 403 398 404
f 396 392 405
f 405 392 391
f 392 395 393
f 393 395 378
f 393 403 394
f 394 403 404
f 375 378 382
f 382 378 395
f 365 396 406
f 406 396 405
f 362 402 373
f 373 402 399
f 271 270 400
f 400 270 384
f 401 361 406
f 406 361 365
f 381 369 386
f 386 369 368
f 392 396 395
f 395 396 390
f 393 378 403
f 403 378 377
f 403 377 358
f 358 377 359
f 406 405 408
f 408 405 407
f 406 408 401
f 401 408 409
f 401 409 402
f 402 409 410
f 402 410 399
f 399 410 411
f 405 391 407
f 407 391 412
f 391 394 412
f 412 394 413
f 394 404 413
f 413 404 414
f 415 416 412
f 412 416 407
f 418 419 417
f 417 419 420
f 421 422 418
f 418 422 419
f 419 422 424
f 424 422 423
f 425 426 424
f 424 426 427
f 423 428 424
f 424 428 425
f 427 420 424
f 424 420 419
f 420 429 417
f 417 429 430
f 423 422 431
f 431 422 421
f 421 409 431
f 431 409 408
f 421 432 409
f 409 432 410
f 418 433 421
f 421 433 432
f 434 433 417
f 417 433 418
f 431 416 423
f 423 416 428
f 416 431 407
f 407 431 408
f 435 434 430
f 430 434 417
f 433 434 436
f 436 434 437
f 434 435 437
f 437 435 438
f 436 437 439
f 439 437 440
f 439 441 436
f 436 441 442
f 438 443 437
f 437 443 440
f 436 442 433
f 433 442 432
f 432 442 410
f 410 442 411
f 435 430 445
f 445 430 444
f 430 429 444
f 444 429 446
f 425 428 447
f 447 428 416
f 426 425 448
f 448 425 447
f 416 415 447
f 447 415 449
f 447 449 448
f 448 449 450
f 451 452 448
f 448 452 426
f 446 452 444
f 444 452 451
f 399 411 397
f 397 411 453
f 398 454 404
f 404 454 414
f 454 398 453
f 453 398 397
f 453 441 454
f 454 441 455
f 441 439 455
f 455 439 456
f 454 455 414
f 414 455 457
f 441 453 442
f 442 453 411
f 458 413 457
f 457 413 414
f 458 415 413
f 413 415 412
f 458 459 415
f 415 459 449
f 459 458 460
f 460 458 457
f 461 459 462
f 462 459 460
f 455 456 457
f 457 456 460
f 456 463 460
f 460 463 462
f 459 461 449
f 449 461 450
f 465 450 464
f 464 450 461
f 464 467 466
f 466 467 468
f 464 461 467
f 467 461 462
f 464 466 465
f 465 466 445
f 465 445 451
f 451 445 444
f 451 448 465
f 465 448 450
f 439 440 456
f 456 440 463
f 468 463 443
f 443 463 440
f 468 467 463
f 463 467 462
f 466 468 438
f 438 468 443
f 438 435 466
f 466 435 445
f 420 427 429
f 429 427 446
f 446 427 452
f 452 427 426
f 370 369 188
f 188 369 186
f 371 376 372
f 372 376 375
f 380 379 387
f 387 379 388
f 379 381 388
f 388 381 386
f 385 384 278
f 278 384 270
f 380 387 371
f 371 387 376
f 400 370 271
f 271 370 188
f 385 278 372
f 372 278 247
f 400 384 389
f 389 384 383
f 369 381 186
f 186 381 263
f 221 271 144
f 144 271 188
f 221 19 207
f 207 19 22
f 19 18 22
f 22 18 23
f 18 219 23
f 23 219 208
f 469 470 472
f 472 470 471
f 474 475 473
f 473 475 476
f 473 476 477
f 477 476 478
f 480 481 479
f 479 481 482
f 483 484 474
f 474 484 475
f 486 487 485
f 485 487 488
f 489 490 77
f 77 490 142
f 491 489 248
f 248 489 77
f 493 494 492
f 492 494 495
f 496 480 484
f 484 480 475
f 486 497 487
f 487 497 471
f 498 496 472
f 472 496 484
f 499 493 478
f 478 493 500
f 501 502 504
f 504 502 503
f 493 492 500
f 500 492 505
f 506 477 500
f 500 477 478
f 499 478 479
f 479 478 476
f 469 507 470
f 470 507 508
f 483 509 469
f 469 509 507
f 479 482 499
f 499 482 510
f 492 495 485
f 485 495 511
f 483 469 484
f 484 469 472
f 473 512 474
f 474 512 513
f 497 498 471
f 471 498 472
f 475 480 476
f 476 480 479
f 470 508 514
f 514 508 515
f 506 502 516
f 516 502 501
f 503 502 488
f 488 502 505
f 514 515 503
f 503 515 504
f 485 488 492
f 492 488 505
f 477 506 517
f 517 506 516
f 474 513 483
f 483 513 509
f 510 292 494
f 494 292 164
f 512 473 517
f 517 473 477
f 491 481 496
f 496 481 480
f 502 506 505
f 505 506 500
f 503 488 514
f 514 488 487
f 514 487 470
f 470 487 471
f 517 516 519
f 519 516 518
f 517 519 512
f 512 519 520
f 512 520 513
f 513 520 521
f 513 521 509
f 509 521 522
f 516 501 518
f 518 501 523
f 501 504 523
f 523 504 524
f 524 504 525
f 525 504 515
f 526 527 523
f 523 527 518
f 529 530 528
f 528 530 531
f 532 533 529
f 529 533 530
f 530 533 535
f 535 533 534
f 536 537 535
f 535 537 538
f 534 539 535
f 535 539 536
f 538 531 535
f 535 531 530
f 540 541 531
f 531 541 528
f 533 532 534
f 534 532 542
f 532 520 542
f 542 520 519
f 532 543 520
f 520 543 521
f 529 544 532
f 532 544 543
f 544 529 545
f 545 529 528
f 534 542 539
f 539 542 527
f 527 542 518
f 518 542 519
f 541 546 528
f 528 546 545
f 547 544 548
f 548 544 545
f 546 549 545
f 545 549 548
f 550 547 551
f 551 547 548
f 547 550 553
f 553 550 552
f 549 554 548
f 548 554 551
f 544 547 543
f 543 547 553
f 543 553 521
f 521 553 522
f 546 541 556
f 556 541 555
f 541 540 555
f 555 540 557
f 536 539 558
f 558 539 527
f 537 536 559
f 559 536 558
f 527 526 558
f 558 526 560
f 559 558 561
f 561 558 560
f 559 562 537
f 537 562 563
f 557 563 555
f 555 563 562
f 509 522 507
f 507 522 564
f 508 565 515
f 515 565 525
f 565 508 564
f 564 508 507
f 564 552 565
f 565 552 566
f 552 550 566
f 566 550 567
f 565 566 525
f 525 566 568
f 564 522 552
f 552 522 553
f 569 524 568
f 568 524 525
f 569 526 524
f 524 526 523
f 570 560 569
f 569 560 526
f 570 569 571
f 571 569 568
f 572 570 573
f 573 570 571
f 566 567 568
f 568 567 571
f 567 574 571
f 571 574 573
f 570 572 560
f 560 572 561
f 576 561 575
f 575 561 572
f 575 578 577
f 577 578 579
f 575 572 578
f 578 572 573
f 575 577 576
f 576 577 556
f 576 556 562
f 562 556 555
f 562 559 576
f 576 559 561
f 550 551 567
f 567 551 574
f 579 574 554
f 554 574 551
f 579 578 574
f 574 578 573
f 579 554 577
f 577 554 549
f 549 546 577
f 577 546 556
f 531 538 540
f 540 538 557
f 557 538 563
f 563 538 537
f 481 294 482
f 482 294 293
f 580 486 511
f 511 486 485
f 490 489 497
f 497 489 498
f 489 491 498
f 498 491 496
f 163 495 164
f 164 495 494
f 580 490 486
f 486 490 497
f 482 293 510
f 510 293 292
f 495 163 511
f 511 163 199
f 494 493 510
f 510 493 499
f 481 491 294
f 294 491 248
f 582 583 581
f 581 583 584
f 586 587 585
f 585 587 588
f 585 588 589
f 589 588 590
f 592 593 591
f 591 593 594
f 595 596 598
f 598 596 597
f 599 600 586
f 586 600 587
f 601 602 604
f 604 602 603
f 605 606 608
f 608 606 607
f 609 607 200
f 200 607 606
f 610 611 613
f 613 611 612
f 600 614 587
f 587 614 592
f 596 605 597
f 597 605 608
f 602 615 603
f 603 615 583
f 616 614 584
f 584 614 600
f 611 618 617
f 617 618 590
f 620 621 619
f 619 621 622
f 610 623 611
f 611 623 618
f 624 589 618
f 618 589 590
f 617 590 591
f 591 590 588
f 581 625 582
f 582 625 626
f 599 627 581
f 581 627 625
f 591 594 617
f 617 594 628
f 601 610 598
f 598 610 613
f 581 584 599
f 599 584 600
f 585 629 586
f 586 629 630
f 615 616 583
f 583 616 584
f 587 592 588
f 588 592 591
f 582 626 631
f 631 626 632
f 624 620 633
f 633 620 619
f 621 620 604
f 604 620 623
f 631 632 621
f 621 632 622
f 610 601 623
f 623 601 604
f 589 624 634
f 634 624 633
f 586 630 599
f 599 630 627
f 203 202 628
f 628 202 612
f 629 585 634
f 634 585 589
f 609 593 614
f 614 593 592
f 620 624 623
f 623 624 618
f 631 621 603
f 603 621 604
f 582 631 583
f 583 631 603
f 634 633 636
f 636 633 635
f 634 636 629
f 629 636 637
f 629 637 630
f 630 637 638
f 630 638 627
f 627 638 639
f 633 619 635
f 635 619 640
f 619 622 640
f 640 622 641
f 641 622 642
f 642 622 632
f 644 635 643
f 643 635 640
f 645 646 648
f 648 646 647
f 649 650 646
f 646 650 647
f 647 650 652
f 652 650 651
f 652 653 655
f 655 653 654
f 651 656 652
f 652 656 653
f 655 648 652
f 652 648 647
f 648 657 645
f 645 657 658
f 650 649 651
f 651 649 659
f 649 637 659
f 659 637 636
f 649 660 637
f 637 660 638
f 661 660 646
f 646 660 649
f 662 661 645
f 645 661 646
f 651 659 656
f 656 659 644
f 644 659 635
f 635 659 636
f 663 662 658
f 658 662 645
f 664 661 665
f 665 661 662
f 663 666 662
f 662 666 665
f 667 664 668
f 668 664 665
f 664 667 670
f 670 667 669
f 666 671 665
f 665 671 668
f 661 664 660
f 660 664 670
f 660 670 638
f 638 670 639
f 658 672 663
f 663 672 673
f 658 657 672
f 672 657 674
f 653 656 675
f 675 656 644
f 653 675 654
f 654 675 676
f 675 644 677
f 677 644 643
f 676 675 678
f 678 675 677
f 679 680 676
f 676 680 654
f 674 680 672
f 672 680 679
f 627 639 625
f 625 639 681
f 626 682 632
f 632 682 642
f 681 682 625
f 625 682 626
f 669 683 681
f 681 683 682
f 667 684 669
f 669 684 683
f 682 683 642
f 642 683 685
f 681 639 669
f 669 639 670
f 686 641 685
f 685 641 642
f 641 686 640
f 640 686 643
f 686 687 643
f 643 687 677
f 687 686 688
f 688 686 685
f 689 687 690
f 690 687 688
f 683 684 685
f 685 684 688
f 684 691 688
f 688 691 690
f 687 689 677
f 677 689 678
f 693 678 692
f 692 678 689
f 692 695 694
f 694 695 696
f 692 689 695
f 695 689 690
f 692 694 693
f 693 694 673
f 693 673 679
f 679 673 672
f 679 676 693
f 693 676 678
f 684 667 691
f 691 667 668
f 696 691 671
f 671 691 668
f 696 695 691
f 691 695 690
f 694 696 666
f 666 696 671
f 666 663 694
f 694 663 673
f 648 655 657
f 657 655 674
f 674 655 680
f 680 655 654
f 593 162 594
f 594 162 290
f 598 597 601
f 601 597 602
f 615 608 616
f 616 608 607
f 607 609 616
f 616 609 614
f 697 595 613
f 613 595 598
f 597 608 602
f 602 608 615
f 594 290 628
f 628 290 203
f 628 612 617
f 617 612 611
f 593 609 162
f 162 609 200
f 105 29 698
f 698 29 699
f 268 126 701
f 701 126 700
f 126 125 700
f 700 125 702
f 252 703 250
f 250 703 704
f 32 268 705
f 705 268 701
f 288 105 706
f 706 105 698
f 29 32 699
f 699 32 705
f 707 251 706
f 706 251 288
f 250 704 125
f 125 704 702
f 703 252 707
f 707 252 251
f 706 708 707
f 707 708 709
f 707 709 703
f 703 709 710
f 703 710 704
f 704 710 711
f 704 711 702
f 702 711 712
f 706 698 708
f 708 698 713
f 698 699 713
f 713 699 714
f 699 705 714
f 714 705 715
f 717 708 716
f 716 708 713
f 719 720 718
f 718 720 721
f 722 723 719
f 719 723 720
f 724 725 723
f 723 725 720
f 724 726 725
f 725 726 727
f 728 721 725
f 725 721 720
f 721 728 729
f 729 728 730
f 729 731 721
f 721 731 718
f 724 723 732
f 732 723 722
f 722 710 732
f 732 710 709
f 722 733 710
f 710 733 711
f 719 734 722
f 722 734 733
f 734 719 735
f 735 719 718
f 724 732 726
f 726 732 717
f 717 732 708
f 708 732 709
f 731 736 718
f 718 736 735
f 737 734 738
f 738 734 735
f 736 739 735
f 735 739 738
f 740 737 741
f 741 737 738
f 737 740 743
f 743 740 742
f 739 744 738
f 738 744 741
f 734 737 733
f 733 737 743
f 733 743 711
f 711 743 712
f 736 731 746
f 746 731 745
f 731 729 745
f 745 729 730
f 727 726 747
f 747 726 717
f 748 727 749
f 749 727 747
f 747 717 750
f 750 717 716
f 749 747 751
f 751 747 750
f 749 752 748
f 748 752 753
f 730 753 745
f 745 753 752
f 728 725 748
f 748 725 727
f 730 728 753
f 753 728 748
f 700 702 754
f 754 702 712
f 705 701 715
f 715 701 755
f 754 755 700
f 700 755 701
f 742 756 754
f 754 756 755
f 740 757 742
f 742 757 756
f 755 756 715
f 715 756 758
f 754 712 742
f 742 712 743
f 759 714 758
f 758 714 715
f 714 759 713
f 713 759 716
f 759 760 716
f 716 760 750
f 760 759 761
f 761 759 758
f 762 760 763
f 763 760 761
f 756 757 758
f 758 757 761
f 757 764 761
f 761 764 763
f 760 762 750
f 750 762 751
f 766 751 765
f 765 751 762
f 767 765 769
f 769 765 768
f 765 762 768
f 768 762 763
f 765 767 766
f 766 767 746
f 766 746 752
f 752 746 745
f 752 749 766
f 766 749 751
f 757 740 764
f 764 740 741
f 769 764 744
f 744 764 741
f 769 768 764
f 764 768 763
f 767 769 739
f 739 769 744
f 739 736 767
f 767 736 746
f 219 217 208
f 208 217 209
f 209 217 210
f 210 217 193
f 198 580 199
f 199 580 511
f 76 75 289
f 289 75 272
f 277 207 291
f 291 207 184
f 290 183 203
f 203 183 84
f 490 580 142
f 142 580 198
f 142 198 143
f 143 198 197
f 149 276 72
f 72 276 73
f 104 103 279
f 279 103 770
f 770 596 279
f 279 596 595
f 605 596 771
f 771 596 770
f 771 770 772
f 772 770 103
f 772 103 773
f 773 103 102
f 155 774 101
f 101 774 102
f 773 102 97
f 97 102 774
f 775 773 100
f 100 773 97
f 773 775 772
f 772 775 776
f 772 776 771
f 771 776 777
f 200 606 197
f 197 606 777
f 189 71 778
f 778 71 74
f 97 774 98
f 98 774 155
f 183 161 184
f 184 161 291
f 777 276 197
f 197 276 143
f 777 606 771
f 771 606 605
f 613 612 697
f 697 612 202
f 595 697 279
f 279 697 202
f 73 276 776
f 776 276 777
f 776 775 73
f 73 775 74
f 100 778 775
f 775 778 74
f 778 100 189
f 189 100 99
f 245 242 99
f 99 242 189
f 131 33 256
f 28 1 95
f 95 1 62
f 27 2 28
f 28 2 1
f 265 115 266
f 266 115 114
f 95 62 69
f 69 62 64
f 62 61 64
f 64 61 65
f 61 13 65
f 65 13 130
f 13 12 130
f 130 12 14
f 31 11 32
f 32 11 268
f 15 12 31
f 31 12 11
f 31 30 15
f 15 30 231
f 30 106 231
f 231 106 232
f 287 237 106
f 106 237 232
f 254 90 287
f 287 90 237
f 253 44 254
f 254 44 90
f 253 249 44
f 44 249 7
f 267 127 268
f 268 127 126
f 10 3 241
f 241 3 116
f 3 2 116
f 116 2 114
f 2 27 114
f 114 27 266
f 27 26 266
f 266 26 113
f 26 286 113
f 113 286 110
f 286 243 110
f 110 243 255
f 243 242 255
f 255 242 256
f 242 245 256
f 256 245 131
f 245 244 131
f 131 244 132
f 265 37 115
f 115 37 41
f 41 37 42
f 42 37 40
f 92 91 40
f 40 91 42
f 236 233 92
f 92 233 91
f 191 194 236
f 236 194 233
f 258 285 244
f 244 285 132
f 257 55 258
f 258 55 285
f 257 154 201
f 201 154 185
f 56 201 204
f 204 201 180
f 55 257 56
f 56 257 201
f 204 85 56
f 56 85 52
f 86 122 53
f 53 122 79
f 212 215 86
f 86 215 122
f 211 216 212
f 212 216 215
f 192 280 211
f 211 280 216
f 191 240 192
f 192 240 280
f 249 124 7
f 7 124 8
f 124 127 8
f 8 127 241
f 127 267 241
f 241 267 10
f 10 267 9
f 9 267 11
