v 0.0499056838452816 0.041718728840351105 0.36469560861587524
v 0.061669789254665375 0.03738383948802948 0.36446914076805115
v 0.05399912968277931 0.033514879643917084 0.37128037214279175
v 0.04417503625154495 0.038068246096372604 0.3711153268814087
v 0.07215245813131332 0.029828015714883804 0.3827158510684967
v 0.07768119126558304 0.03490505740046501 0.3912893533706665
v 0.06111038103699684 0.034122250974178314 0.39425256848335266
v 0.05853893607854843 0.029353497549891472 0.38625970482826233
v 0.03850957378745079 0.03866162151098251 0.3759477436542511
v 0.046504583209753036 0.03253375366330147 0.37591469287872314
v 0.037108588963747025 0.04576994106173515 0.377718448638916
v 0.030054111033678055 0.05319608002901077 0.3808111846446991
v 0.030818792060017586 0.04593111202120781 0.37844470143318176
v 0.02297232858836651 0.056582361459732056 0.3812839686870575
v 0.03648057207465172 0.06290577352046967 0.38133352994918823
v 0.02445463091135025 0.06537878513336182 0.3778698742389679
v 0.044529303908348083 0.07605161517858505 0.36144721508026123
v 0.048105284571647644 0.07692129909992218 0.3491801619529724
v 0.032276153564453125 0.07564029097557068 0.34715479612350464
v 0.030124494805932045 0.07409852743148804 0.36029571294784546
v 0.04288500174880028 0.07188701629638672 0.33021146059036255
v 0.036064863204956055 0.07420222461223602 0.3391675055027008
v 0.05199846625328064 0.07660339027643204 0.3412720561027527
v 0.05729387328028679 0.07438793778419495 0.3328981101512909
v 0.05782504007220268 0.04632648825645447 0.35267820954322815
v 0.06910329312086105 0.04432547464966774 0.3516654074192047
v 0.06713201850652695 0.042413245886564255 0.35612502694129944
v 0.05595548823475838 0.045149706304073334 0.3571998178958893
v 0.038493551313877106 0.05271109193563461 0.384483277797699
v 0.04529102146625519 0.057262565940618515 0.38696950674057007
v 0.039735548198223114 0.053980544209480286 0.3821074664592743
v 0.03676547855138779 0.048265472054481506 0.3810715079307556
v 0.09477322548627853 0.0382641926407814 0.34368568658828735
v 0.10661253333091736 0.04407883062958717 0.3459711968898773
v 0.10595940053462982 0.044531382620334625 0.3518562316894531
v 0.09534866362810135 0.03940017893910408 0.3484852612018585
v 0.0983017086982727 0.04104502871632576 0.3766382336616516
v 0.10533766448497772 0.04694538563489914 0.37087535858154297
v 0.1092844232916832 0.05623921751976013 0.37992143630981445
v 0.10058365762233734 0.054092179983854294 0.3844362199306488
v 0.08875720202922821 0.03672872111201286 0.38520845770835876
v 0.09151353687047958 0.04807114973664284 0.39087849855422974
v 0.07849055528640747 0.04539725184440613 0.39618635177612305
v 0.06155986711382866 0.0426500029861927 0.3979617953300476
v 0.10807866603136063 0.04599127545952797 0.33341073989868164
v 0.09975709766149521 0.04150983691215515 0.32996681332588196
v -0.030544890090823174 0.05796665698289871 0.36595478653907776
v -0.028804374858736992 0.059847183525562286 0.36068451404571533
v -0.023133503273129463 0.05511154979467392 0.3623960316181183
v -0.025547048076987267 0.05459858849644661 0.36747366189956665
v 0.10142289102077484 0.06017208844423294 0.3209572732448578
v 0.09998638927936554 0.07011791318655014 0.32180070877075195
v 0.10713042318820953 0.0690172091126442 0.3215678334236145
v 0.1086815595626831 0.05982719361782074 0.3226446807384491
v 0.09176453948020935 0.06043384224176407 0.31890034675598145
v 0.08998686820268631 0.0709604024887085 0.32266485691070557
v -0.027633532881736755 0.06664109230041504 0.3740130662918091
v -0.03022615797817707 0.06235064938664436 0.3732578754425049
v -0.025043407455086708 0.060701288282871246 0.3751186430454254
v -0.02177421934902668 0.06532708555459976 0.3751942217350006
v 0.03450147062540054 0.042529135942459106 0.37358707189559937
v 0.039604302495718 0.04299408942461014 0.36613720655441284
v 0.01411476731300354 0.045406512916088104 0.3714805245399475
v 0.02543674036860466 0.045120324939489365 0.3689667582511902
v 0.025147253647446632 0.04557570815086365 0.37574535608291626
v 0.015871111303567886 0.047036413103342056 0.37750858068466187
v 0.035381656140089035 0.04725963994860649 0.3477431833744049
v 0.04708192124962807 0.04752630740404129 0.3490152657032013
v 0.04411214217543602 0.04729842767119408 0.3546789586544037
v 0.030979903414845467 0.04638444632291794 0.3550965487957001
v 0.05136246979236603 0.04465825855731964 0.33592936396598816
v 0.039442259818315506 0.04497476667165756 0.33572086691856384
v 0.04305841028690338 0.043099116533994675 0.3283240497112274
v 0.05104073882102966 0.04240822419524193 0.32980331778526306
v 0.01754935272037983 0.04697970673441887 0.33777618408203125
v 0.008190857246518135 0.049596913158893585 0.3379453122615814
v 0.011288357898592949 0.0513417050242424 0.3357345759868622
v 0.019565170630812645 0.04766050726175308 0.33473169803619385
v 0.11415524780750275 0.06902704387903214 0.32180649042129517
v 0.11541971564292908 0.059898074716329575 0.32516467571258545
v 0.05271618440747261 0.06396592408418655 0.3136989176273346
v 0.058652084320783615 0.05614709109067917 0.30885636806488037
v 0.04812658205628395 0.05378066748380661 0.3054623007774353
v 0.044748906046152115 0.06238000467419624 0.31137368083000183
v 0.09684604406356812 0.07775968313217163 0.3280705213546753
v 0.10431020706892014 0.07770749926567078 0.325762003660202
v -0.024351319298148155 0.07129505276679993 0.37140122056007385
v -0.019322963431477547 0.06978004425764084 0.37183046340942383
v 0.07866411656141281 0.05740521103143692 0.3937486410140991
v 0.06130792200565338 0.05206574872136116 0.3967658579349518
v 0.09170990437269211 0.06156695634126663 0.38859686255455017
v 0.10021456331014633 0.06537387520074844 0.38353875279426575
v 0.10829159617424011 0.06768783926963806 0.3817399740219116
v 0.02196652814745903 0.04513310641050339 0.36299604177474976
v 0.045943666249513626 0.045317597687244415 0.35983794927597046
v 0.05944085121154785 0.04625711590051651 0.3481972813606262
v 0.06418254971504211 0.038213394582271576 0.31928184628486633
v 0.07473641633987427 0.03800392150878906 0.3209708333015442
v 0.06902644038200378 0.03792688250541687 0.329786479473114
v 0.060949914157390594 0.038816653192043304 0.3264043629169464
v 0.059081073850393295 0.04645533114671707 0.30779027938842773
v 0.05589950457215309 0.04067881777882576 0.311939537525177
v 0.04642452672123909 0.04042729362845421 0.31026771664619446
v 0.0490463562309742 0.04525376856327057 0.30582159757614136
v 0.04011431336402893 0.0548965260386467 0.3909766674041748
v 0.05065905302762985 0.05942832678556442 0.39097100496292114
v 0.10217372328042984 0.05010262876749039 0.32375824451446533
v 0.1088067814707756 0.050994761288166046 0.32754093408584595
v 0.11641094088554382 0.0537022165954113 0.32973694801330566
v 0.08232883363962173 0.04019056260585785 0.3492435812950134
v 0.0958688035607338 0.039907485246658325 0.3520774841308594
v 0.09507272392511368 0.038943007588386536 0.3572375476360321
v 0.08197096735239029 0.04012778028845787 0.35226136445999146
v 0.07355064153671265 0.032178085297346115 0.36789384484291077
v 0.08525470644235611 0.03236401826143265 0.3733425438404083
v 0.06270338594913483 0.02892814762890339 0.37491878867149353
v 0.10686194896697998 0.0453665591776371 0.36029067635536194
v 0.11565357446670532 0.04667041078209877 0.3537462651729584
v 0.11520834267139435 0.0483408086001873 0.36256638169288635
v 0.11659441888332367 0.047436632215976715 0.344037801027298
v 0.11689931899309158 0.04961271956562996 0.33541029691696167
v 0.11211733520030975 0.08054298907518387 0.32416102290153503
v 0.11367277801036835 0.051511380821466446 0.3703394830226898
v 0.04940814897418022 0.030627943575382233 0.38679468631744385
v 0.04084276780486107 0.032400403171777725 0.3873007297515869
v 0.03875387832522392 0.035165656358003616 0.3803789019584656
v 0.04590720310807228 0.03257325291633606 0.379486620426178
v 0.013492999598383904 0.059397920966148376 0.38144171237945557
v 0.013871287927031517 0.0516507513821125 0.38089966773986816
v 0.024700352922081947 0.04951852560043335 0.3810770809650421
v 0.08518978953361511 0.03720621019601822 0.3373347520828247
v 0.08993712812662125 0.039658643305301666 0.3260442316532135
v 0.010816626250743866 0.047044217586517334 0.36556944251060486
v -0.017056971788406372 0.0669889748096466 0.37591034173965454
v -0.018992425873875618 0.061549678444862366 0.37712159752845764
v -0.002415720373392105 0.06025804951786995 0.380088210105896
v -0.0023676427081227303 0.06650075316429138 0.3782771825790405
v 0.003210767637938261 0.055462222546339035 0.3612329065799713
v 0.004868621006608009 0.05054847523570061 0.36423927545547485
v 0.0016016988083720207 0.05312429741024971 0.3633486032485962
v -0.0007275841198861599 0.057556577026844025 0.35955148935317993
v 0.01697516441345215 0.049108169972896576 0.3286079466342926
v 0.023825811222195625 0.046392761170864105 0.32750651240348816
v 0.015956824645400047 0.0698358416557312 0.3578827977180481
v 0.017475059255957603 0.0716375857591629 0.37176913022994995
v 0.02814377471804619 0.07202404737472534 0.37019145488739014
v 0.0384998694062233 0.046430423855781555 0.34105563163757324
v 0.02791023999452591 0.0460711307823658 0.33895283937454224
v 0.029145529493689537 0.04581461474299431 0.33503368496894836
v 0.018500784412026405 0.04610104113817215 0.359502911567688
v 0.009993246756494045 0.0487665981054306 0.36028632521629333
v 0.013819262385368347 0.0478193424642086 0.3559608459472656
v 0.021608471870422363 0.04658021032810211 0.35474893450737
v 0.0706966370344162 0.05901287496089935 0.311727911233902
v 0.07154369354248047 0.04759436473250389 0.310150146484375
v -0.031143246218562126 0.05905755236744881 0.370439738035202
v -0.025856178253889084 0.05658381059765816 0.37226709723472595
v 0.04990771412849426 0.046722620725631714 0.34244734048843384
v 0.04176953434944153 0.07241436094045639 0.37006983160972595
v 0.06125039607286453 0.045494597405195236 0.3431815207004547
v 0.026945045217871666 0.06266194581985474 0.3185560405254364
v 0.0256646815687418 0.056777678430080414 0.3158491849899292
v 0.018626153469085693 0.05602683499455452 0.31714749336242676
v 0.018053511157631874 0.06152033433318138 0.31724387407302856
v -0.01448318175971508 0.06240358203649521 0.35713762044906616
v -0.016483398154377937 0.057212118059396744 0.3591167628765106
v -0.020786751061677933 0.05841119959950447 0.3576410114765167
v -0.018260734155774117 0.0631553903222084 0.35640570521354675
v 0.005682912655174732 0.04859054088592529 0.3695666193962097
v 0.006785682402551174 0.04900091886520386 0.37605565786361694
v -0.0003743264824151993 0.050619855523109436 0.3735916316509247
v 0.00031032273545861244 0.051306527107954025 0.3678814172744751
v 0.005001607351005077 0.05379810184240341 0.3798176646232605
v -0.001443102490156889 0.0543517991900444 0.3783395290374756
v -0.012953262776136398 0.06830315291881561 0.35984674096107483
v -0.012767290696501732 0.07236307859420776 0.36654043197631836
v -0.0009584384970366955 0.0707123652100563 0.3661656677722931
v -0.0025705010630190372 0.06487296521663666 0.36094793677330017
v 0.07145066559314728 0.077627032995224 0.33536896109580994
v 0.0752175897359848 0.07373052090406418 0.32578423619270325
v 0.06127193570137024 0.07036083191633224 0.32311156392097473
v 0.04816721752285957 0.06769352406263351 0.32001328468322754
v 0.03556912764906883 0.06378796696662903 0.31804364919662476
v 0.031019503250718117 0.07064962387084961 0.32650548219680786
v 0.06525657325983047 0.06713688373565674 0.3170151114463806
v 0.008074438199400902 0.06190187484025955 0.3570646345615387
v 0.009439904242753983 0.06854552030563354 0.3642043471336365
v 0.011629974469542503 0.06733335554599762 0.35616204142570496
v 0.06280993670225143 0.042754221707582474 0.33651453256607056
v -0.019298499450087547 0.057104796171188354 0.37532752752304077
v 0.0972796157002449 0.08157515525817871 0.37007665634155273
v 0.09741514921188354 0.08538356423377991 0.35767993330955505
v 0.08902105689048767 0.08338727056980133 0.3592779338359833
v 0.08867001533508301 0.07865367829799652 0.37253978848457336
v -0.017792390659451485 0.05336236208677292 0.36462002992630005
v -0.01916320063173771 0.05326283723115921 0.3705735504627228
v 0.023908581584692 0.045961394906044006 0.32090529799461365
v 0.017789049074053764 0.04850844293832779 0.3228108882904053
v 0.016543060541152954 0.04991985112428665 0.31979596614837646
v 0.022221995517611504 0.046716995537281036 0.3154810070991516
v 0.07844731211662292 0.07116994261741638 0.3216521739959717
v 0.04205862805247307 0.053000789135694504 0.30343738198280334
v 0.03935999050736427 0.06094597280025482 0.3084093928337097
v 0.08748798817396164 0.07669180631637573 0.32856371998786926
v 0.08430157601833344 0.08065309375524521 0.33682116866111755
v 0.0937454029917717 0.08265681564807892 0.33729296922683716
v 0.01991286873817444 0.0708736851811409 0.33691906929016113
v 0.06676437705755234 0.07919327169656754 0.34243908524513245
v 0.08084619790315628 0.08160777390003204 0.3435460329055786
v 0.09201076626777649 0.08401089161634445 0.34443116188049316
v 0.10001415014266968 0.08623743057250977 0.3443230390548706
v 0.10114766657352448 0.08430766314268112 0.33651816844940186
v -0.014727087691426277 0.070746511220932 0.37150245904922485
v -0.017017100006341934 0.07159982621669769 0.36643558740615845
v 0.1094316765666008 0.087667316198349 0.33507415652275085
v 0.10792635381221771 0.08907053619623184 0.34408682584762573
v 0.07768774777650833 0.08183302730321884 0.3521900177001953
v 0.07432302832603455 0.08083266019821167 0.3621363043785095
v 0.06417764723300934 0.0793582946062088 0.350669264793396
v 0.05964556336402893 0.07826785743236542 0.3606000244617462
v 0.021026521921157837 0.07476621866226196 0.3462735712528229
v -0.031052803620696068 0.07891486585140228 0.3596586585044861
v -0.021740278229117393 0.07284846901893616 0.36042818427085876
v -0.02313183806836605 0.06863822042942047 0.35648664832115173
v -0.030992111191153526 0.07674568146467209 0.35596224665641785
v -0.016723250970244408 0.06808338314294815 0.35973721742630005
v -0.021774960681796074 0.07394708693027496 0.366119384765625
v 0.05686013773083687 0.07348529994487762 0.37180086970329285
v 0.00729737663641572 0.05191890150308609 0.35636967420578003
v 0.07295645028352737 0.07389797270298004 0.37546858191490173
v 0.049199555069208145 0.0670258030295372 0.3827519714832306
v 0.0608590804040432 0.065963014960289 0.38569074869155884
v 0.08906839042901993 0.07279602438211441 0.38197043538093567
v 0.07588731497526169 0.06713277846574783 0.3883063793182373
v 0.1059589833021164 0.07683036476373672 0.3774680197238922
v 0.09733498841524124 0.07526793330907822 0.3788010776042938
v 0.06341316550970078 0.06082785129547119 0.3924678564071655
v -0.03782208636403084 0.064817875623703 0.359887033700943
v -0.03464192897081375 0.06711618602275848 0.3557605445384979
v 0.10523775964975357 0.08390688896179199 0.3692554235458374
v 0.05257114768028259 0.029744446277618408 0.37843066453933716
v 0.0730934664607048 0.04090307652950287 0.33977067470550537
v 0.07152682542800903 0.04301086813211441 0.3445355296134949
v 0.08088365942239761 0.038432929664850235 0.3226788640022278
v 0.07616850733757019 0.037698086351156235 0.33324185013771057
v -0.03941937908530235 0.06510784476995468 0.3648388385772705
v 0.003974902909249067 0.054749615490436554 0.33754539489746094
v 0.009721819311380386 0.056936923414468765 0.33675265312194824
v 0.05158708244562149 0.034065939486026764 0.3942343592643738
v 0.043313540518283844 0.03430961072444916 0.39431124925613403
v 0.04134577140212059 0.04658835008740425 0.39861905574798584
v 0.042370833456516266 0.03953695297241211 0.3986448347568512
v 0.051830120384693146 0.04149710386991501 0.39830639958381653
v 0.05111238360404968 0.049263566732406616 0.39769184589385986
v 0.0822993665933609 0.039834246039390564 0.3467308282852173
v 0.08261318504810333 0.03902361914515495 0.3429828882217407
v 0.08194524794816971 0.05962524563074112 0.3152293860912323
v 0.08214444667100906 0.04820326343178749 0.31402164697647095
v 0.004920165985822678 0.060150448232889175 0.38067907094955444
v 0.013666026294231415 0.06641381978988647 0.37895938754081726
v 0.005223293788731098 0.06647469103336334 0.37842708826065063
v -0.00021169893443584442 0.07062438875436783 0.37332800030708313
v 0.005130923353135586 0.057551175355911255 0.3571566939353943
v 0.004396137315779924 0.0618840754032135 0.36144471168518066
v 0.09065811336040497 0.035622164607048035 0.364126592874527
v 0.07946883887052536 0.03724733740091324 0.3586497902870178
v 0.041892170906066895 0.03623964264988899 0.37782442569732666
v 0.03699144721031189 0.040983907878398895 0.37798115611076355
v 0.026067817583680153 0.04666615277528763 0.3478872776031494
v 0.009285183623433113 0.06892164051532745 0.3385305404663086
v 0.011170335114002228 0.07353320717811584 0.34634140133857727
v 0.016323963180184364 0.04754003882408142 0.34747621417045593
v -0.038154784590005875 0.07185522466897964 0.36932042241096497
v -0.03967062383890152 0.06745751947164536 0.3675805628299713
v 0.007198264356702566 0.0703926682472229 0.3731352686882019
v 0.03211769461631775 0.04351448640227318 0.3275103271007538
v 0.016581594944000244 0.06770692765712738 0.332709401845932
v 0.005327568389475346 0.06238293647766113 0.3362007737159729
v 0.042999230325222015 0.04495687037706375 0.30457791686058044
v 0.10604651272296906 0.08740993589162827 0.3572651743888855
v -0.02619950659573078 0.06406263262033463 0.35645008087158203
v -0.03188895806670189 0.07079972326755524 0.35371482372283936
v -0.0315302275121212 0.07931410521268845 0.3638773262500763
v -0.03391020745038986 0.07664981484413147 0.36849910020828247
v 0.09145454317331314 0.04837358742952347 0.31924113631248474
v 0.07016970962285995 0.044110581278800964 0.3475751578807831
v 0.05270414426922798 0.05713392049074173 0.39388883113861084
v 0.04086736589670181 0.05262885242700577 0.3951040506362915
v 0.009315712377429008 0.049181584268808365 0.34700900316238403
v 0.0326266773045063 0.06048722192645073 0.3138573169708252
v 0.022516697645187378 0.06891238689422607 0.3234170377254486
v 0.01502307504415512 0.06814893335103989 0.3216104507446289
v 0.011937027797102928 0.0685155838727951 0.328141450881958
v 0.009225485846400261 0.06409069895744324 0.33379024267196655
v -0.03585443273186684 0.08121754974126816 0.3613823354244232
v -0.038701798766851425 0.07875069975852966 0.36576390266418457
v -0.043035753071308136 0.07437904924154282 0.366210013628006
v -0.044186532497406006 0.07026198506355286 0.36460408568382263
v -0.04254332184791565 0.06719987839460373 0.3619055151939392
v -0.035289570689201355 0.08122238516807556 0.35719043016433716
v -0.03530943766236305 0.07924062758684158 0.3540266156196594
v -0.03476191684603691 0.07310497760772705 0.35247543454170227
v -0.038683392107486725 0.08302617073059082 0.354508638381958
v -0.042175013571977615 0.08474566042423248 0.35778507590293884
v -0.05408647656440735 0.07911178469657898 0.358737587928772
v -0.04951237142086029 0.07877544313669205 0.36214521527290344
v -0.050299257040023804 0.08091840147972107 0.3609338402748108
v -0.05398126691579819 0.08225023746490479 0.35808584094047546
v -0.05708915740251541 0.08496521413326263 0.3552149832248688
v -0.05785355716943741 0.0815163254737854 0.3555525541305542
v -0.04612372815608978 0.08260573446750641 0.36085227131843567
v -0.05067826062440872 0.0850316733121872 0.35694700479507446
v -0.047838591039180756 0.08678929507732391 0.35443204641342163
v -0.05181911587715149 0.0893489271402359 0.35191720724105835
v -0.054562054574489594 0.08801520615816116 0.35422375798225403
v -0.04500439018011093 0.08514349162578583 0.3574727773666382
v -0.044504884630441666 0.08204332739114761 0.3620235025882721
v -0.05918285250663757 0.08458198606967926 0.35252752900123596
v -0.058411724865436554 0.0867806077003479 0.35348406434059143
v -0.05640859156847 0.0890333503484726 0.35214895009994507
v -0.05784592032432556 0.08836046606302261 0.34958383440971375
v -0.048167094588279724 0.07274004817008972 0.3619438409805298
v -0.054231300950050354 0.07680648565292358 0.3576054871082306
v -0.05705989897251129 0.07957785576581955 0.35322171449661255
v -0.058440662920475006 0.08285219967365265 0.3504369556903839
v -0.05328488349914551 0.07551965117454529 0.35391026735305786
v -0.0554874911904335 0.07866668701171875 0.350951224565506
v -0.056355275213718414 0.0815039649605751 0.3482562303543091
v -0.0512930303812027 0.0756230503320694 0.3502254784107208
v -0.053593628108501434 0.07880255579948425 0.34844890236854553
v -0.04314463213086128 0.06870861351490021 0.3563479483127594
v -0.045339927077293396 0.06900373101234436 0.3598955571651459
v -0.05493255704641342 0.0805472731590271 0.34698957204818726
v -0.057161830365657806 0.08720880001783371 0.3478134274482727
v -0.0446675606071949 0.08633768558502197 0.3526792526245117
v -0.05009812116622925 0.08856707811355591 0.34923863410949707
v -0.04368468374013901 0.08539890497922897 0.35081154108047485
v -0.04885067045688629 0.08788776397705078 0.3472732603549957
v -0.05376254767179489 0.09032365679740906 0.3479570150375366
v -0.05415228009223938 0.09002816677093506 0.350504606962204
v -0.03938692808151245 0.06659078598022461 0.3580925762653351
v -0.03621261939406395 0.06930366158485413 0.3540562391281128
v -0.03931388258934021 0.07121050357818604 0.3524097502231598
v -0.04813142120838165 0.07734903693199158 0.34722793102264404
v -0.03769966587424278 0.07501377165317535 0.3506862223148346
v -0.03864837810397148 0.0810723602771759 0.3514838218688965
v -0.044036466628313065 0.08400452136993408 0.3483448028564453
v -0.04503123089671135 0.08124488592147827 0.34670376777648926
v -0.04838243126869202 0.08568093180656433 0.34602048993110657
v -0.04902581870555878 0.08321353793144226 0.3456295132637024
v -0.05130555480718613 0.08027516305446625 0.346084862947464
v -0.05224767327308655 0.08617640286684036 0.3451836109161377
v -0.053001873195171356 0.08882874995470047 0.34637874364852905
v -0.055461183190345764 0.08472013473510742 0.34625694155693054
v -0.05152728408575058 0.08429887890815735 0.3450188636779785
v -0.05372624099254608 0.08267249166965485 0.3461047410964966
v -0.02903943695127964 0.05972074717283249 0.3608252704143524
v -0.03174484521150589 0.0576203316450119 0.3554915487766266
v -0.02588149905204773 0.056944724172353745 0.3541935086250305
v -0.024571672081947327 0.058841951191425323 0.35915738344192505
v -0.02623995952308178 0.07278324663639069 0.3595779836177826
v -0.026303965598344803 0.06770681589841843 0.3627508282661438
v -0.023126278072595596 0.06754478067159653 0.36192750930786133
v -0.023602372035384178 0.07253989577293396 0.35781753063201904
v -0.027991870418190956 0.07455653697252274 0.35383933782577515
v -0.024577273055911064 0.07380543649196625 0.35205143690109253
v -0.018982473760843277 0.07254931330680847 0.356950044631958
v -0.01839844137430191 0.06649946421384811 0.36062896251678467
v 0.0020678199362009764 0.06374070793390274 0.35589468479156494
v 0.0013807144714519382 0.07053476572036743 0.35303717851638794
v -2.2506341338157654e-05 0.051519814878702164 0.34263622760772705
v -0.0018732156604528427 0.054502323269844055 0.34109050035476685
v -0.027582189068198204 0.06300081312656403 0.3628120422363281
v -0.023805251345038414 0.06260141730308533 0.3617130517959595
v -0.02319420874118805 0.056795455515384674 0.3445552587509155
v -0.022138487547636032 0.053740713745355606 0.3488940894603729
v -0.027986625209450722 0.05664920434355736 0.349841445684433
v -0.029131794348359108 0.06025508791208267 0.34580373764038086
v 0.0030126781202852726 0.054961200803518295 0.3536930978298187
v 0.0022938379552215338 0.05234286189079285 0.3478272557258606
v 0.0022549245040863752 0.05860507860779762 0.3555487394332886
v -0.02340571954846382 0.0628470927476883 0.34222352504730225
v -0.022343434393405914 0.06948158890008926 0.343129962682724
v -0.0024545807391405106 0.06909061968326569 0.3394365608692169
v -0.003936640452593565 0.062499530613422394 0.33818507194519043
v -0.018957095220685005 0.060782838612794876 0.3611603379249573
v -0.02074448950588703 0.05382838100194931 0.3540719449520111
v -0.019736967980861664 0.055909182876348495 0.3585224151611328
v -0.020155586302280426 0.0731944814324379 0.3499442934989929
v -0.027542442083358765 0.07082515209913254 0.34551775455474854
v -0.04352971911430359 0.07065431028604507 0.35199451446533203
v -0.03348011150956154 0.06647434085607529 0.3459528386592865
v -0.03449230641126633 0.0619039461016655 0.34784001111984253
v -0.046143706887960434 0.06663643568754196 0.3532946705818176
v -0.029216160997748375 0.06556233763694763 0.3437926769256592
v -0.03056841902434826 0.07154464721679688 0.34765827655792236
v -0.043852299451828 0.06365419179201126 0.3657623529434204
v -0.046900760382413864 0.062433116137981415 0.3610062897205353
v -0.0413471981883049 0.06654786318540573 0.36777985095977783
v -0.0001653255894780159 0.0728316456079483 0.3460061550140381
v -0.035975031554698944 0.07415244728326797 0.3639804422855377
v -0.038469139486551285 0.06953350454568863 0.3675319254398346
v -0.03404766693711281 0.05824928730726242 0.35113438963890076
v -0.04778173565864563 0.06384700536727905 0.35668179392814636
v -0.04066087678074837 0.07412326335906982 0.35283026099205017
v -0.03622576594352722 0.07624927908182144 0.35741180181503296
v -0.044332679361104965 0.07513248920440674 0.35528695583343506
v -0.04068123921751976 0.07698483020067215 0.36012136936187744
v -0.04062710329890251 0.07484491169452667 0.3674672842025757
v -0.04333636164665222 0.0707336813211441 0.3701167702674866
v -0.045688021928071976 0.06770778447389603 0.36966365575790405
v -0.047413721680641174 0.07242777943611145 0.3540705740451813
v -0.05057221278548241 0.06890909373760223 0.35493966937065125
v -0.050728656351566315 0.06493561714887619 0.35828667879104614
v -0.05270592123270035 0.07530993223190308 0.3554539680480957
v -0.050718411803245544 0.07853253185749054 0.3572233319282532
v -0.0602613165974617 0.08422280102968216 0.3711700141429901
v -0.05497774854302406 0.08157892525196075 0.3705601096153259
v -0.054861173033714294 0.08319421857595444 0.36840498447418213
v -0.059572733938694 0.08597851544618607 0.3690027594566345
v -0.04896263778209686 0.08021034300327301 0.36873799562454224
v -0.05076676607131958 0.08162742853164673 0.36701926589012146
v -0.050106000155210495 0.08121587336063385 0.3625863492488861
v -0.055339567363262177 0.08374450355768204 0.3636604845523834
v -0.05630865693092346 0.08197546005249023 0.3592017590999603
v -0.060773804783821106 0.08551464974880219 0.3595699369907379
v -0.059948407113552094 0.08751224726438522 0.3640211224555969
v -0.05219636112451553 0.08083971589803696 0.3593858480453491
v -0.06263338029384613 0.0876903235912323 0.3682653307914734
v -0.06489024311304092 0.086632139980793 0.36917728185653687
v -0.04734367877244949 0.07983332872390747 0.3624425530433655
v -0.047706328332424164 0.07414718717336655 0.37115874886512756
v -0.056248120963573456 0.07904435694217682 0.37172627449035645
v -0.062384746968746185 0.08181318640708923 0.37148517370224
v -0.06696508079767227 0.08453353494405746 0.36836445331573486
v -0.05894191935658455 0.07604441791772842 0.37078192830085754
v -0.06426730006933212 0.07961992174386978 0.3701809048652649
v -0.0676376223564148 0.08206389099359512 0.36724627017974854
v -0.061559297144412994 0.0733201876282692 0.36807486414909363
v -0.06627596169710159 0.0773695856332779 0.3672846853733063
v -0.05150721222162247 0.06643699109554291 0.36771243810653687
v -0.04949561879038811 0.06959700584411621 0.37059906125068665
v -0.06758426874876022 0.07975625991821289 0.36648228764533997
v -0.0658913180232048 0.08853543549776077 0.36470502614974976
v -0.06814710050821304 0.08591683208942413 0.36450719833374023
v -0.06398129463195801 0.0888233631849289 0.36459121108055115
v -0.057038791477680206 0.08086538314819336 0.35760876536369324
v -0.06232670694589615 0.0841967910528183 0.3584868311882019
v -0.05856967717409134 0.07898075133562088 0.3564468324184418
v -0.0642181858420372 0.08281312882900238 0.3578096330165863
v -0.06565023958683014 0.08691491186618805 0.3601314127445221
v -0.06434012204408646 0.08787402510643005 0.36096665263175964
v -0.04755765572190285 0.06479120999574661 0.36704927682876587
v -0.049589548259973526 0.06364300101995468 0.36221444606781006
v -0.053108587861061096 0.06505296379327774 0.36261022090911865
v -0.062644362449646 0.0722595676779747 0.36330899596214294
v -0.05364979803562164 0.0666901171207428 0.35817816853523254
v -0.05408097803592682 0.07209882885217667 0.35554301738739014
v -0.059823475778102875 0.07649124413728714 0.35657092928886414
v -0.06184320151805878 0.07394818216562271 0.3588630259037018
v -0.06532838195562363 0.0808483362197876 0.35751548409461975
v -0.06541343778371811 0.07784250378608704 0.3590681254863739
v -0.06660805642604828 0.07642870396375656 0.36346930265426636
v -0.06819335371255875 0.0835217833518982 0.35982343554496765
v -0.06704073399305344 0.08572801202535629 0.3598766326904297
v -0.06863485276699066 0.08364389091730118 0.3642237186431885
v -0.06788035482168198 0.08049680292606354 0.36034470796585083
v -0.06837370991706848 0.080339215695858 0.3639490604400635
v -0.016568860039114952 0.05190242454409599 0.3338352143764496
v -0.015295302495360374 0.04822517931461334 0.32972052693367004
v -0.010544361546635628 0.04860597848892212 0.33012211322784424
v -0.01204308494925499 0.0523655079305172 0.3341703712940216
v -0.01746051199734211 0.06389003247022629 0.32861530780792236
v -0.018055129796266556 0.060906410217285156 0.33258894085884094
v -0.014007428660988808 0.06165183708071709 0.3331395983695984
v -0.012454444542527199 0.06507234275341034 0.3290359377861023
v -0.01830090396106243 0.06340934336185455 0.3230687081813812
v -0.01154186949133873 0.06472527235746384 0.3231504261493683
v -0.0076576718129217625 0.06679198145866394 0.3288189768791199
v -0.009704286232590675 0.06271234154701233 0.3331305682659149
v 0.0054305302910506725 0.06392742693424225 0.33344435691833496
v 0.0057578980922698975 0.06852208077907562 0.3283308148384094
v -0.017454689368605614 0.05642528459429741 0.3341135084629059
v -0.013647409155964851 0.05696830898523331 0.33467400074005127
v -0.005929700564593077 0.04863133653998375 0.32126715779304504
v -0.005863862577825785 0.04737244173884392 0.32595109939575195
v -0.010240146890282631 0.047527723014354706 0.3248171806335449
v -0.010432301089167595 0.04897136986255646 0.32077139616012573
v 0.009498890489339828 0.05374356731772423 0.3348025381565094
v 0.012194925919175148 0.05135719105601311 0.329680860042572
v 0.00631464459002018 0.05816882103681564 0.33556264638900757
v -0.00643590884283185 0.053765032440423965 0.31733760237693787
v -0.006072171498090029 0.060968317091464996 0.3171420991420746
v 0.008064254187047482 0.06148191913962364 0.31683361530303955
v 0.00961967185139656 0.05564998462796211 0.31797826290130615
v -0.00972917303442955 0.0577981099486351 0.3351256847381592
v -0.006145707797259092 0.04876413196325302 0.3309800326824188
v -0.008209029212594032 0.052510153502225876 0.3349003791809082
v -0.00650532403960824 0.06580176204442978 0.32280462980270386
v -0.011413542553782463 0.05997907370328903 0.3179030418395996
v -0.03194424510002136 0.05316442623734474 0.3174465596675873
v -0.015608808025717735 0.0534709095954895 0.31722867488861084
v -0.01535872183740139 0.048647016286849976 0.32060331106185913
v -0.032046012580394745 0.04905632883310318 0.3186813294887543
v -0.011390138417482376 0.05338933318853378 0.3171713948249817
v -0.016677020117640495 0.059468429535627365 0.31795936822891235
v -0.032545581459999084 0.04914315789937973 0.3320821225643158
v -0.031637776643037796 0.046216994524002075 0.32781100273132324
v -0.03151633217930794 0.05329476669430733 0.33295726776123047
v 0.006870045326650143 0.06806709617376328 0.32131800055503845
v 0.011846942827105522 0.051054541021585464 0.3224172592163086
v -0.03187936916947365 0.059642620384693146 0.32949745655059814
v -0.03162982314825058 0.05643657594919205 0.332174152135849
v -0.014928285032510757 0.047228723764419556 0.3245648741722107
v -0.0317687951028347 0.04612337797880173 0.32233285903930664
v -0.03130073472857475 0.05777490884065628 0.31868109107017517
v -0.031004605814814568 0.06130683422088623 0.323689341545105
v -0.035428259521722794 0.05678263306617737 0.3190949261188507
v -0.03474976122379303 0.05984393134713173 0.324235737323761
v -0.03577805310487747 0.05837544798851013 0.3300664722919464
v -0.03573055565357208 0.05490321293473244 0.33241575956344604
v -0.035713136196136475 0.051648303866386414 0.33282917737960815
v -0.036708660423755646 0.05284220725297928 0.317399263381958
v -0.03725854679942131 0.049198247492313385 0.3182978928089142
v -0.03428013250231743 0.04594707861542702 0.32217249274253845
v -0.04141054302453995 0.052698951214551926 0.3176264464855194
v -0.04261695593595505 0.057209230959415436 0.31978029012680054
v -0.055374596267938614 0.0557517483830452 0.3311983048915863
v -0.049418408423662186 0.05604339763522148 0.3311960995197296
v -0.04962176829576492 0.05656122788786888 0.3300880789756775
v -0.0555453859269619 0.05691453441977501 0.32982778549194336
v -0.0428893007338047 0.05800338834524155 0.32992979884147644
v -0.04483760520815849 0.05801141634583473 0.3290209174156189
v -0.04392125457525253 0.058788035064935684 0.32533589005470276
v -0.05048663169145584 0.05859224870800972 0.32515251636505127
v -0.04964260011911392 0.05547468364238739 0.3200114965438843
v -0.054896194487810135 0.0557154081761837 0.3205096423625946
v -0.05611296370625496 0.05867382884025574 0.3252412676811218
v -0.04454243928194046 0.057438645511865616 0.32121843099594116
v -0.05870632454752922 0.05689787119626999 0.32877394556999207
v -0.05944079905748367 0.056371960788965225 0.3303028643131256
v -0.04140951856970787 0.05922381207346916 0.32480961084365845
v -0.041165854781866074 0.05436529964208603 0.3326106071472168
v -0.0490393340587616 0.053529102355241776 0.3327625095844269
v -0.05512085184454918 0.05306827649474144 0.332803875207901
v -0.05910051241517067 0.05275089293718338 0.3308969736099243
v -0.048653751611709595 0.04970329999923706 0.33218103647232056
v -0.054385025054216385 0.0500679612159729 0.3319205343723297
v -0.057951342314481735 0.04988750070333481 0.3302171230316162
v -0.04832841828465462 0.04704079031944275 0.330374538898468
v -0.053609054535627365 0.047534942626953125 0.3299887776374817
v -0.03783246874809265 0.04751073569059372 0.3308870196342468
v -0.039460279047489166 0.0506710521876812 0.33266597986221313
v -0.05670255795121193 0.04827997460961342 0.3290920853614807
v -0.06090245395898819 0.05630575492978096 0.3258103132247925
v -0.06109984964132309 0.05207037925720215 0.3257679343223572
v -0.05948566645383835 0.05719111114740372 0.3256603479385376
v -0.048826996237039566 0.05450759083032608 0.31864166259765625
v -0.05557494983077049 0.053867071866989136 0.3191143274307251
v -0.04830528050661087 0.05191107839345932 0.31799235939979553
v -0.055159058421850204 0.0512109249830246 0.3186626732349396
v -0.059295929968357086 0.054762568324804306 0.3211188018321991
v -0.05869188532233238 0.05573113635182381 0.3216668665409088
v -0.034768689423799515 0.04826657474040985 0.3313904106616974
v -0.034032192081213 0.04583660513162613 0.3270707428455353
v -0.03730601817369461 0.045352596789598465 0.3265828788280487
v -0.04857984185218811 0.04515727609395981 0.3262428045272827
v -0.037648994475603104 0.0458126962184906 0.3218945264816284
v -0.04187818616628647 0.04927891865372658 0.31824037432670593
v -0.04830054193735123 0.04895492270588875 0.31921660900115967
v -0.04865776002407074 0.0462755411863327 0.32183361053466797
v -0.05449162796139717 0.048840299248695374 0.3198484480381012
v -0.053272467106580734 0.04714610427618027 0.32179275155067444
v -0.05369015410542488 0.04575249180197716 0.3263649344444275
v -0.05794844403862953 0.04938561096787453 0.3219117522239685
v -0.05914560332894325 0.051971226930618286 0.32086917757987976
v -0.0594969317317009 0.04926561936736107 0.3261316120624542
v -0.056500714272260666 0.04758576303720474 0.3231048285961151
v -0.05747208371758461 0.04757550731301308 0.32632747292518616
v 0.01288815587759018 0.050136346369981766 0.32555335760116577
v 0.005444814916700125 0.052551403641700745 0.2882726490497589
v 0.007573537062853575 0.04962937533855438 0.28655892610549927
v 0.01066179946064949 0.048185259103775024 0.2896155118942261
v 0.00823884829878807 0.050285182893276215 0.2920999526977539
v 0.01102522574365139 0.06214937940239906 0.2884049117565155
v 0.007312891539186239 0.059748176485300064 0.28924474120140076
v 0.009233491495251656 0.05890297889709473 0.2936705946922302
v 0.012545451521873474 0.06165196746587753 0.292664110660553
v 0.014808040112257004 0.06171039119362831 0.2856638729572296
v 0.016469094902276993 0.06091810390353203 0.28963932394981384
v 0.014557501301169395 0.06121465936303139 0.29532039165496826
v 0.011746011674404144 0.0578448548913002 0.29727277159690857
v 0.023449992761015892 0.0567263588309288 0.30971917510032654
v 0.027541648596525192 0.06019360572099686 0.307841420173645
v 0.037821248173713684 0.04594453424215317 0.30280986428260803
v 0.03510962799191475 0.04252530634403229 0.3070997893810272
v 0.028850849717855453 0.04463435709476471 0.3017237186431885
v 0.032132890075445175 0.04687315225601196 0.2991221845149994
v 0.005492146592587233 0.05624888092279434 0.2891145646572113
v 0.007374861743301153 0.05440358445048332 0.29355859756469727
v 0.021723976358771324 0.04836217314004898 0.28829091787338257
v 0.01791897788643837 0.04632808268070221 0.29033544659614563
v 0.014055445790290833 0.046625226736068726 0.2877509891986847
v 0.0178910531103611 0.047704342752695084 0.2856777012348175
v 0.03060910850763321 0.04310230910778046 0.3104254901409149
v 0.027768388390541077 0.0445689857006073 0.3138032853603363
v 0.02380351722240448 0.04567601531744003 0.31020891666412354
v 0.025224199518561363 0.04464249312877655 0.3049125373363495
v 0.020693251863121986 0.049840882420539856 0.3116441071033478
v 0.023266704753041267 0.05212952196598053 0.2873899042606354
v 0.0227335337549448 0.05747246742248535 0.28850817680358887
v 0.035905621945858 0.05548922345042229 0.2987377643585205
v 0.03527452051639557 0.05085868015885353 0.2988834083080292
v 0.0097963847219944 0.05331655219197273 0.2973185181617737
v 0.014156034216284752 0.046920374035835266 0.292676717042923
v 0.011147022247314453 0.048670586198568344 0.2955004572868347
v 0.018729615956544876 0.061338722705841064 0.29114481806755066
v 0.02008816786110401 0.05696479231119156 0.2865167260169983
v 0.012479502707719803 0.05329517275094986 0.27352428436279297
v 0.0180323775857687 0.05152057856321335 0.2821809649467468
v 0.014457467943429947 0.04818095266819 0.28253257274627686
v 0.010105548426508904 0.051806360483169556 0.2736341953277588
v 0.02041393332183361 0.05149450898170471 0.2851574718952179
v 0.018219375982880592 0.057327281683683395 0.2830384373664856
v 0.0005293744616210461 0.055828265845775604 0.27863848209381104
v 0.003471625503152609 0.05204937607049942 0.2770436406135559
v 0.0009636855684220791 0.05871184170246124 0.2795698940753937
v 0.03224094584584236 0.060899704694747925 0.3027421534061432
v 0.006592653226107359 0.06312976777553558 0.27873387932777405
v 0.0025536748580634594 0.06168477237224579 0.27935290336608887
v 0.010572006925940514 0.04801790043711662 0.28449317812919617
v 0.007013400550931692 0.05121113359928131 0.27516794204711914
v 0.013583336025476456 0.05694984272122383 0.27432066202163696
v 0.011397428810596466 0.06197474151849747 0.27673184871673584
v 0.01240575686097145 0.05809793248772621 0.2700933814048767
v 0.010203354060649872 0.06281766295433044 0.2733997106552124
v 0.004679385107010603 0.06440436094999313 0.27483469247817993
v 0.001474668737500906 0.06281217932701111 0.27593499422073364
v -0.0004524928517639637 0.060246627777814865 0.27601101994514465
v 0.010988645255565643 0.05441419035196304 0.2691483795642853
v 0.008441898971796036 0.05269099771976471 0.26964184641838074
v 0.005182809662073851 0.05177515745162964 0.2716416120529175
v 0.009551813825964928 0.05617222562432289 0.2649911344051361
v 0.010361140593886375 0.061005495488643646 0.2647945284843445
v -0.0013310504145920277 0.06706657260656357 0.26152700185775757
v -8.572358638048172e-06 0.0662011057138443 0.2650591731071472
v 0.0011591515503823757 0.06646830588579178 0.2647314965724945
v -0.0005123899318277836 0.06790141761302948 0.2613513469696045
v 0.0031148619018495083 0.06560960412025452 0.2691854238510132
v 0.003957392182201147 0.06577911227941513 0.2676891088485718
v 0.007236903067678213 0.06446851789951324 0.26725536584854126
v 0.005036191549152136 0.0661630928516388 0.26297613978385925
v 0.007575967814773321 0.06261496245861053 0.25993651151657104
v 0.005516575183719397 0.06423299759626389 0.25693729519844055
v 0.003692993428558111 0.06744274497032166 0.2598264217376709
v 0.009295949712395668 0.06279321014881134 0.26410111784935
v -0.0004763924516737461 0.0687260627746582 0.25892436504364014
v -0.0016685170121490955 0.06879253685474396 0.2582387626171112
v 0.007832130417227745 0.06427599489688873 0.2687808871269226
v -7.937196642160416e-06 0.06378787755966187 0.27157580852508545
v -0.00226100767031312 0.06535373628139496 0.2651216685771942
v -0.003319928888231516 0.06669449806213379 0.2605838179588318
v -0.0026460872031748295 0.06718286126852036 0.2571205794811249
v -0.00316086458042264 0.06299842149019241 0.2659022808074951
v -0.004561709705740213 0.06473886966705322 0.26036566495895386
v -0.00376479746773839 0.06506135314702988 0.2569984793663025
v -0.0033667651005089283 0.059734150767326355 0.26579588651657104
v -0.004181519616395235 0.06207176297903061 0.2605007290840149
v -0.0013179206289350986 0.05716390535235405 0.2724062502384186
v -0.0013121631927788258 0.06080241873860359 0.2723354697227478
v -0.003464548382908106 0.06339117884635925 0.2577537000179291
v 0.0011124270968139172 0.06806060671806335 0.2558356523513794
v -0.000651391688734293 0.06599949300289154 0.254888653755188
v 0.00221032602712512 0.06820496916770935 0.2567334771156311
v 0.007854847237467766 0.061206571757793427 0.2596402168273926
v 0.005268325563520193 0.06303984671831131 0.25592756271362305
v 0.006998920347541571 0.05862591043114662 0.25949227809906006
v 0.0039582750760018826 0.061330895870923996 0.25552666187286377
v 0.0031521967612206936 0.06537438929080963 0.2545066773891449
v 0.003822683822363615 0.06614738702774048 0.25598591566085815
v -0.000783043447881937 0.056586459279060364 0.2750391960144043
v 0.0017369645647704601 0.0531214214861393 0.27407774329185486
v 0.0010116449557244778 0.05398920550942421 0.2711040675640106
v -0.0015507512725889683 0.05668611079454422 0.2645750939846039
v 0.004444062244147062 0.052633438259363174 0.2686098515987396
v 0.007534019183367491 0.053882896900177 0.2664183974266052
v 0.004854013677686453 0.05683336406946182 0.26039794087409973
v 0.0018628197722136974 0.055828776210546494 0.2619388699531555
v 0.0020610797218978405 0.06013524532318115 0.25587528944015503
v -0.0003247377462685108 0.05906885489821434 0.2575221061706543
v -0.002733797300606966 0.059622570872306824 0.25946009159088135
v -2.9096845537424088e-05 0.06290444731712341 0.2547735571861267
v 0.0013414784334599972 0.0640450119972229 0.25411227345466614
v -0.0016562552191317081 0.0642007514834404 0.2553764581680298
v -0.0012496230192482471 0.06174539402127266 0.25585365295410156
v -0.002393553499132395 0.0623273104429245 0.2567010521888733
v 0.03767676278948784 0.04945077374577522 0.300898015499115
v 0.025522086769342422 0.050577886402606964 0.3906347453594208
v 0.025727897882461548 0.049483172595500946 0.38502073287963867
v 0.02542831189930439 0.0334526002407074 0.38358214497566223
v 0.024570709094405174 0.039380550384521484 0.38000261783599854
v 0.02572174184024334 0.03112882561981678 0.38994771242141724
v 0.026508131995797157 0.036590978503227234 0.39912930130958557
v 0.027146391570568085 0.03267717361450195 0.39536672830581665
v 0.024892577901482582 0.04522155225276947 0.3806324005126953
v 0.02596830017864704 0.04894690215587616 0.3961556553840637
v 0.02656286023557186 0.043189577758312225 0.400199830532074
v 0.01654297299683094 0.05081876367330551 0.3958573043346405
v 0.01619659923017025 0.04384994134306908 0.4001305103302002
v 0.01538345031440258 0.0369580015540123 0.39937037229537964
v 0.017799753695726395 0.03224031999707222 0.39423656463623047
v 0.018555333837866783 0.030655022710561752 0.38944268226623535
v 0.01894342713057995 0.05131997540593147 0.3887508809566498
v 0.020033573731780052 0.049823347479104996 0.3833996057510376
v 0.020639924332499504 0.04438203573226929 0.3794920742511749
v 0.01250220276415348 0.05130014568567276 0.38418832421302795
v 0.0032680383883416653 0.04819180443882942 0.38544759154319763
v -0.00785018689930439 0.03228045627474785 0.38402634859085083
v -0.001622630748897791 0.03236491233110428 0.38689249753952026
v -0.0027147033251821995 0.03499564155936241 0.38720691204071045
v -0.008479105308651924 0.034636691212654114 0.3850737512111664
v 0.002118197735399008 0.03509809076786041 0.3902691900730133
v 0.0007824576459825039 0.03674190491437912 0.38910147547721863
v 0.0019019967876374722 0.04194706305861473 0.3886879086494446
v -0.0033775963820517063 0.041368383914232254 0.38646385073661804
v 0.0016187592409551144 0.045885637402534485 0.38536229729652405
v -0.0015940987505018711 0.04586739093065262 0.38260820508003235
v -0.00851927138864994 0.04104193300008774 0.3842472434043884
v -0.011974314227700233 0.03635834902524948 0.38403967022895813
v -0.012752221897244453 0.04056214541196823 0.38216614723205566
v -0.012269550934433937 0.03426530957221985 0.38162750005722046
v 0.0018218508921563625 0.04330829158425331 0.3915157616138458
v 0.00810585729777813 0.03152411803603172 0.39096465706825256
v 0.0009864657185971737 0.030052201822400093 0.3857114017009735
v -0.005874963942915201 0.030358824878931046 0.38149967789649963
v -0.010880274698138237 0.033169154077768326 0.37887847423553467
v 0.0035869418643414974 0.02921903319656849 0.38225898146629333
v -0.0027015269733965397 0.03059673309326172 0.37847572565078735
v -0.006929738912731409 0.033748310059309006 0.37593281269073486
v 0.005792753305286169 0.031140096485614777 0.37835076451301575
v -0.0005458877421915531 0.03282314911484718 0.3759472668170929
v 0.01697436161339283 0.032415494322776794 0.3827541768550873
v 0.013502342626452446 0.02990826964378357 0.38758406043052673
v -0.004332935903221369 0.03463420271873474 0.3751284182071686
v -0.014097573235630989 0.039910055696964264 0.3797135353088379
v -0.012388801202178001 0.03880354017019272 0.3766402304172516
v 0.00030759116634726524 0.04797156900167465 0.38065218925476074
v -0.006631205324083567 0.04598882794380188 0.3808090090751648
v -0.005286904517561197 0.046759676188230515 0.37818366289138794
v 0.003457100596278906 0.04855316877365112 0.3782142996788025
v -0.003737764898687601 0.04658793658018112 0.375744104385376
v -0.010593334212899208 0.04467317834496498 0.377843976020813
v -0.010441796854138374 0.04432077333331108 0.3806949257850647
v 0.020344126969575882 0.03258885070681572 0.38373610377311707
v 0.021316222846508026 0.03800375014543533 0.38021522760391235
v 0.018460040912032127 0.038088202476501465 0.3794115483760834
v 0.007909173145890236 0.036655377596616745 0.375182181596756
v 0.017437128350138664 0.04408251494169235 0.3778458833694458
v 0.015016643330454826 0.049218740314245224 0.3803045153617859
v 0.005615541245788336 0.0469726026058197 0.37556812167167664
v 0.007593376096338034 0.04278457909822464 0.3742234706878662
v -0.0017008096911013126 0.04428365081548691 0.37381917238235474
v -0.00025493139401078224 0.04160758852958679 0.37337106466293335
v 5.288189277052879e-05 0.036702901124954224 0.3738023042678833
v -0.006352371070533991 0.04182060807943344 0.373786598443985
v -0.008873822167515755 0.0439353808760643 0.3751920163631439
v -0.008331911638379097 0.03795044869184494 0.3744743764400482
v -0.0039363824762403965 0.040423158556222916 0.37360525131225586
v -0.004726829472929239 0.03744121640920639 0.37404656410217285
v 0.040862925350666046 0.040927499532699585 0.3093542158603668
v 0.037117622792720795 0.040561750531196594 0.314599871635437
v 0.04430180788040161 0.03947778791189194 0.31504616141319275
v 0.05409223586320877 0.038821861147880554 0.31704097986221313
v 0.06439819186925888 0.04053838551044464 0.31388917565345764
v 0.05214687064290047 0.039888400584459305 0.32337814569473267
v 0.04224391654133797 0.04057175666093826 0.3208463788032532
v 0.03212770074605942 0.04282152280211449 0.3197460174560547
v 0.05853093042969704 0.04176977276802063 0.33140382170677185
f 2 3 1
f 1 3 4
f 5 6 8
f 8 6 7
f 9 4 10
f 10 4 3
f 12 13 11
f 11 13 9
f 14 12 16
f 16 12 15
f 18 19 17
f 17 19 20
f 22 23 21
f 21 23 24
f 26 27 25
f 25 27 28
f 30 31 29
f 29 31 32
f 33 34 36
f 36 34 35
f 37 38 40
f 40 38 39
f 41 42 6
f 6 42 43
f 6 43 7
f 7 43 44
f 45 34 46
f 46 34 33
f 48 49 47
f 47 49 50
f 52 53 51
f 51 53 54
f 56 52 55
f 55 52 51
f 58 59 57
f 57 59 60
f 61 62 4
f 4 62 1
f 64 65 63
f 63 65 66
f 68 69 67
f 67 69 70
f 72 73 71
f 71 73 74
f 76 77 75
f 75 77 78
f 53 79 54
f 54 79 80
f 82 83 81
f 81 83 84
f 85 86 52
f 52 86 53
f 57 60 87
f 87 60 88
f 89 90 43
f 43 90 44
f 43 42 89
f 89 42 91
f 40 39 92
f 92 39 93
f 94 70 64
f 64 70 69
f 13 61 9
f 9 61 4
f 25 28 69
f 69 28 95
f 96 25 68
f 68 25 69
f 98 99 97
f 97 99 100
f 101 102 104
f 104 102 103
f 106 30 105
f 105 30 29
f 51 54 107
f 107 54 108
f 54 80 108
f 108 80 109
f 111 112 110
f 110 112 113
f 115 5 114
f 114 5 116
f 115 41 5
f 5 41 6
f 36 35 111
f 111 35 117
f 35 118 117
f 117 118 119
f 34 120 35
f 35 120 118
f 34 45 120
f 120 45 121
f 125 126 124
f 124 126 127
f 128 129 14
f 14 129 130
f 33 131 46
f 46 131 132
f 133 94 63
f 63 94 64
f 134 135 137
f 137 135 136
f 139 140 138
f 138 140 141
f 77 142 78
f 78 142 143
f 144 145 20
f 20 145 146
f 148 149 147
f 147 149 72
f 151 152 150
f 150 152 153
f 82 101 83
f 83 101 104
f 101 82 155
f 155 82 154
f 156 157 58
f 58 157 59
f 158 68 147
f 147 68 67
f 159 146 15
f 15 146 16
f 68 158 96
f 96 158 160
f 129 66 130
f 130 66 65
f 162 163 161
f 161 163 164
f 166 167 165
f 165 167 168
f 170 171 169
f 169 171 172
f 174 171 173
f 173 171 170
f 176 177 175
f 175 177 178
f 180 181 179
f 179 181 24
f 182 183 21
f 21 183 184
f 81 185 82
f 82 185 154
f 186 187 188
f 188 187 144
f 158 71 160
f 160 71 189
f 190 135 157
f 157 135 59
f 169 172 139
f 139 172 140
f 147 72 158
f 158 72 71
f 192 193 191
f 191 193 194
f 167 166 49
f 49 166 195
f 196 190 50
f 50 190 157
f 197 198 200
f 200 198 199
f 21 24 182
f 182 24 181
f 146 159 20
f 20 159 17
f 182 181 81
f 81 181 185
f 201 185 180
f 180 185 181
f 202 203 83
f 83 203 84
f 205 206 204
f 204 206 85
f 207 22 184
f 184 22 21
f 179 24 208
f 208 24 23
f 208 209 179
f 179 209 205
f 209 210 205
f 205 210 206
f 212 206 211
f 211 206 210
f 179 205 180
f 180 205 204
f 213 176 88
f 88 176 214
f 86 85 212
f 212 85 206
f 193 217 218
f 217 219 218
f 218 219 220
f 219 18 220
f 220 18 17
f 19 221 20
f 20 221 144
f 222 223 225
f 225 223 224
f 175 226 176
f 176 226 214
f 227 87 214
f 214 87 88
f 220 17 228
f 228 17 159
f 134 213 60
f 60 213 88
f 138 229 151
f 151 229 152
f 193 192 210
f 210 192 211
f 230 194 218
f 218 194 193
f 231 232 228
f 228 232 230
f 233 234 91
f 91 234 89
f 235 236 93
f 93 236 92
f 230 232 234
f 234 232 237
f 47 238 48
f 48 238 239
f 240 191 235
f 235 191 236
f 5 8 116
f 116 8 241
f 242 243 189
f 189 243 160
f 244 245 98
f 98 245 99
f 156 246 47
f 47 246 238
f 76 247 77
f 77 247 248
f 250 125 249
f 249 125 124
f 252 253 251
f 251 253 254
f 111 110 36
f 36 110 255
f 256 33 255
f 255 33 36
f 257 258 154
f 154 258 155
f 63 169 133
f 133 169 139
f 66 170 63
f 63 170 169
f 173 170 129
f 129 170 66
f 129 128 173
f 173 128 259
f 128 260 259
f 259 260 261
f 213 134 262
f 262 134 137
f 263 264 186
f 186 264 187
f 112 265 113
f 113 265 266
f 11 267 268
f 234 233 230
f 230 233 194
f 153 269 70
f 70 269 67
f 175 178 165
f 165 178 141
f 150 153 94
f 94 153 70
f 271 221 270
f 270 221 207
f 269 153 272
f 272 153 152
f 121 45 109
f 109 45 108
f 47 50 156
f 156 50 157
f 57 273 58
f 58 273 274
f 145 275 260
f 260 275 261
f 276 149 143
f 143 149 78
f 148 269 75
f 75 269 272
f 207 277 270
f 270 277 278
f 195 196 49
f 49 196 50
f 59 135 60
f 60 135 134
f 83 104 202
f 202 104 279
f 149 148 78
f 78 148 75
f 247 278 248
f 248 278 277
f 183 182 84
f 84 182 81
f 48 239 281
f 281 239 282
f 227 223 283
f 283 223 222
f 223 226 224
f 224 226 168
f 281 282 224
f 224 282 225
f 165 168 175
f 175 168 226
f 264 263 138
f 138 263 229
f 14 16 128
f 128 16 260
f 220 228 218
f 218 228 230
f 87 227 284
f 284 227 283
f 260 16 145
f 145 16 146
f 244 98 258
f 258 98 155
f 58 274 156
f 156 274 246
f 107 285 51
f 51 285 55
f 243 286 160
f 160 286 96
f 234 237 89
f 89 237 90
f 46 132 107
f 107 132 285
f 253 252 249
f 249 252 250
f 286 26 96
f 96 26 25
f 106 105 287
f 287 105 288
f 272 152 289
f 289 152 229
f 138 151 139
f 139 151 133
f 183 290 161
f 161 290 162
f 291 292 277
f 277 292 293
f 151 150 133
f 133 150 94
f 262 275 177
f 177 275 187
f 144 187 145
f 145 187 275
f 273 57 284
f 284 57 87
f 174 136 190
f 190 136 135
f 111 117 112
f 112 117 38
f 117 119 38
f 38 119 123
f 112 38 265
f 265 38 37
f 287 288 254
f 254 288 251
f 228 159 231
f 231 159 15
f 223 227 226
f 226 227 214
f 147 67 148
f 148 67 269
f 224 168 281
f 281 168 167
f 199 163 200
f 200 163 162
f 45 46 108
f 108 46 107
f 281 167 48
f 48 167 49
f 161 164 291
f 291 164 292
f 38 123 39
f 293 294 277
f 277 294 248
f 284 283 296
f 296 283 295
f 284 296 273
f 273 296 297
f 274 273 298
f 298 273 297
f 246 274 299
f 299 274 298
f 283 222 295
f 295 222 300
f 222 225 300
f 300 225 301
f 301 225 302
f 302 225 282
f 303 304 300
f 300 304 295
f 306 307 305
f 305 307 308
f 309 310 308
f 308 310 305
f 308 307 312
f 312 307 311
f 313 314 312
f 312 314 315
f 311 316 312
f 312 316 313
f 317 304 311
f 311 304 316
f 315 309 312
f 312 309 308
f 318 319 321
f 321 319 320
f 319 318 309
f 309 318 310
f 311 307 317
f 317 307 306
f 306 297 317
f 317 297 296
f 306 322 297
f 297 322 298
f 305 323 306
f 306 323 322
f 323 305 324
f 324 305 310
f 304 317 295
f 295 317 296
f 318 325 310
f 310 325 324
f 323 324 326
f 326 324 327
f 324 325 327
f 327 325 328
f 326 327 329
f 329 327 330
f 329 331 326
f 326 331 332
f 333 330 328
f 328 330 327
f 323 326 322
f 322 326 332
f 322 332 298
f 298 332 299
f 325 318 334
f 334 318 321
f 313 316 335
f 335 316 304
f 335 336 313
f 313 336 314
f 304 303 335
f 335 303 337
f 336 335 338
f 338 335 337
f 336 339 314
f 314 339 340
f 246 299 238
f 238 299 341
f 239 342 282
f 282 342 302
f 342 239 341
f 341 239 238
f 341 331 342
f 342 331 343
f 331 329 343
f 343 329 344
f 342 343 302
f 302 343 345
f 341 299 331
f 331 299 332
f 346 301 345
f 345 301 302
f 346 303 301
f 301 303 300
f 347 337 346
f 346 337 303
f 347 346 348
f 348 346 345
f 349 347 350
f 350 347 348
f 343 344 345
f 345 344 348
f 344 351 348
f 348 351 350
f 337 347 338
f 338 347 349
f 353 338 352
f 352 338 349
f 352 355 354
f 354 355 356
f 352 349 355
f 355 349 350
f 352 354 353
f 353 354 334
f 353 334 339
f 339 334 321
f 339 336 353
f 353 336 338
f 329 330 344
f 344 330 351
f 356 351 333
f 333 351 330
f 356 355 351
f 351 355 350
f 354 356 328
f 328 356 333
f 328 325 354
f 354 325 334
f 309 315 319
f 319 315 320
f 320 340 321
f 321 340 339
f 320 315 340
f 340 315 314
f 137 136 261
f 261 136 259
f 140 166 141
f 141 166 165
f 172 171 195
f 195 171 196
f 171 174 196
f 196 174 190
f 178 177 264
f 264 177 187
f 172 195 140
f 140 195 166
f 137 261 262
f 262 261 275
f 178 264 141
f 141 264 138
f 262 177 213
f 213 177 176
f 136 174 259
f 259 174 173
f 358 359 357
f 357 359 360
f 362 363 361
f 361 363 364
f 361 364 365
f 365 364 366
f 367 368 370
f 370 368 369
f 76 371 247
f 247 371 372
f 373 374 362
f 362 374 363
f 376 377 375
f 375 377 378
f 289 229 380
f 380 229 379
f 381 379 263
f 263 379 229
f 383 384 382
f 382 384 385
f 386 368 374
f 374 368 363
f 76 289 371
f 371 289 380
f 377 376 359
f 359 376 387
f 388 386 360
f 360 386 374
f 389 383 366
f 366 383 390
f 392 393 391
f 391 393 394
f 383 382 390
f 390 382 395
f 396 365 390
f 390 365 366
f 389 366 367
f 367 366 364
f 357 397 358
f 358 397 398
f 373 399 357
f 357 399 397
f 389 367 400
f 400 367 370
f 382 385 375
f 375 385 372
f 357 360 373
f 373 360 374
f 361 401 362
f 362 401 402
f 387 388 359
f 359 388 360
f 363 368 364
f 364 368 367
f 358 398 403
f 403 398 404
f 396 392 405
f 405 392 391
f 392 395 393
f 393 395 378
f 393 403 394
f 394 403 404
f 375 378 382
f 382 378 395
f 365 396 406
f 406 396 405
f 362 402 373
f 373 402 399
f 271 270 400
f 400 270 384
f 401 361 406
f 406 361 365
f 381 369 386
f 386 369 368
f 392 396 395
f 395 396 390
f 393 378 403
f 403 378 377
f 403 377 358
f 358 377 359
f 406 405 408
f 408 405 407
f 406 408 401
f 401 408 409
f 401 409 402
f 402 409 410
f 402 410 399
f 399 410 411
f 405 391 407
f 407 391 412
f 391 394 412
f 412 394 413
f 394 404 413
f 413 404 414
f 415 416 412
f 412 416 407
f 418 419 417
f 417 419 420
f 421 422 418
f 418 422 419
f 419 422 424
f 424 422 423
f 425 426 424
f 424 426 427
f 423 428 424
f 424 428 425
f 427 420 424
f 424 420 419
f 420 429 417
f 417 429 430
f 423 422 431
f 431 422 421
f 421 409 431
f 431 409 408
f 421 432 409
f 409 432 410
f 418 433 421
f 421 433 432
f 434 433 417
f 417 433 418
f 431 416 423
f 423 416 428
f 416 431 407
f 407 431 408
f 435 434 430
f 430 434 417
f 433 434 436
f 436 434 437
f 434 435 437
f 437 435 438
f 436 437 439
f 439 437 440
f 439 441 436
f 436 441 442
f 438 443 437
f 437 443 440
f 436 442 433
f 433 442 432
f 432 442 410
f 410 442 411
f 435 430 445
f 445 430 444
f 430 429 444
f 444 429 446
f 425 428 447
f 447 428 416
f 426 425 448
f 448 425 447
f 416 415 447
f 447 415 449
f 447 449 448
f 448 449 450
f 451 452 448
f 448 452 426
f 446 452 444
f 444 452 451
f 399 411 397
f 397 411 453
f 398 454 404
f 404 454 414
f 454 398 453
f 453 398 397
f 453 441 454
f 454 441 455
f 441 439 455
f 455 439 456
f 454 455 414
f 414 455 457
f 441 453 442
f 442 453 411
f 458 413 457
f 457 413 414
f 458 415 413
f 413 415 412
f 458 459 415
f 415 459 449
f 459 458 460
f 460 458 457
f 461 459 462
f 462 459 460
f 455 456 457
f 457 456 460
f 456 463 460
f 460 463 462
f 459 461 449
f 449 461 450
f 465 450 464
f 464 450 461
f 464 467 466
f 466 467 468
f 464 461 467
f 467 461 462
f 464 466 465
f 465 466 445
f 465 445 451
f 451 445 444
f 451 448 465
f 465 448 450
f 439 440 456
f 456 440 463
f 468 463 443
f 443 463 440
f 468 467 463
f 463 467 462
f 466 468 438
f 438 468 443
f 438 435 466
f 466 435 445
f 420 427 429
f 429 427 446
f 446 427 452
f 452 427 426
f 370 369 188
f 188 369 186
f 371 376 372
f 372 376 375
f 380 379 387
f 387 379 388
f 379 381 388
f 388 381 386
f 385 384 278
f 278 384 270
f 380 387 371
f 371 387 376
f 400 370 271
f 271 370 188
f 385 278 372
f 372 278 247
f 400 384 389
f 389 384 383
f 369 381 186
f 186 381 263
f 221 271 144
f 144 271 188
f 221 19 207
f 207 19 22
f 19 18 22
f 22 18 23
f 18 219 23
f 23 219 208
f 469 470 472
f 472 470 471
f 474 475 473
f 473 475 476
f 473 476 477
f 477 476 478
f 480 481 479
f 479 481 482
f 483 484 474
f 474 484 475
f 486 487 485
f 485 487 488
f 489 490 77
f 77 490 142
f 491 489 248
f 248 489 77
f 493 494 492
f 492 494 495
f 496 480 484
f 484 480 475
f 486 497 487
f 487 497 471
f 498 496 472
f 472 496 484
f 499 493 478
f 478 493 500
f 501 502 504
f 504 502 503
f 493 492 500
f 500 492 505
f 506 477 500
f 500 477 478
f 499 478 479
f 479 478 476
f 469 507 470
f 470 507 508
f 483 509 469
f 469 509 507
f 479 482 499
f 499 482 510
f 492 495 485
f 485 495 511
f 483 469 484
f 484 469 472
f 473 512 474
f 474 512 513
f 497 498 471
f 471 498 472
f 475 480 476
f 476 480 479
f 470 508 514
f 514 508 515
f 506 502 516
f 516 502 501
f 503 502 488
f 488 502 505
f 514 515 503
f 503 515 504
f 485 488 492
f 492 488 505
f 477 506 517
f 517 506 516
f 474 513 483
f 483 513 509
f 510 292 494
f 494 292 164
f 512 473 517
f 517 473 477
f 491 481 496
f 496 481 480
f 502 506 505
f 505 506 500
f 503 488 514
f 514 488 487
f 514 487 470
f 470 487 471
f 517 516 519
f 519 516 518
f 517 519 512
f 512 519 520
f 512 520 513
f 513 520 521
f 513 521 509
f 509 521 522
f 516 501 518
f 518 501 523
f 501 504 523
f 523 504 524
f 524 504 525
f 525 504 515
f 526 527 523
f 523 527 518
f 529 530 528
f 528 530 531
f 532 533 529
f 529 533 530
f 530 533 535
f 535 533 534
f 536 537 535
f 535 537 538
f 534 539 535
f 535 539 536
f 538 531 535
f 535 531 530
f 540 541 531
f 531 541 528
f 533 532 534
f 534 532 542
f 532 520 542
f 542 520 519
f 532 543 520
f 520 543 521
f 529 544 532
f 532 544 543
f 544 529 545
f 545 529 528
f 534 542 539
f 539 542 527
f 527 542 518
f 518 542 519
f 541 546 528
f 528 546 545
f 547 544 548
f 548 544 545
f 546 549 545
f 545 549 548
f 550 547 551
f 551 547 548
f 547 550 553
f 553 550 552
f 549 554 548
f 548 554 551
f 544 547 543
f 543 547 553
f 543 553 521
f 521 553 522
f 546 541 556
f 556 541 555
f 541 540 555
f 555 540 557
f 536 539 558
f 558 539 527
f 537 536 559
f 559 536 558
f 527 526 558
f 558 526 560
f 559 558 561
f 561 558 560
f 559 562 537
f 537 562 563
f 557 563 555
f 555 563 562
f 509 522 507
f 507 522 564
f 508 565 515
f 515 565 525
f 565 508 564
f 564 508 507
f 564 552 565
f 565 552 566
f 552 550 566
f 566 550 567
f 565 566 525
f 525 566 568
f 564 522 552
f 552 522 553
f 569 524 568
f 568 524 525
f 569 526 524
f 524 526 523
f 570 560 569
f 569 560 526
f 570 569 571
f 571 569 568
f 572 570 573
f 573 570 571
f 566 567 568
f 568 567 571
f 567 574 571
f 571 574 573
f 570 572 560
f 560 572 561
f 576 561 575
f 575 561 572
f 575 578 577
f 577 578 579
f 575 572 578
f 578 572 573
f 575 577 576
f 576 577 556
f 576 556 562
f 562 556 555
f 562 559 576
f 576 559 561
f 550 551 567
f 567 551 574
f 579 574 554
f 554 574 551
f 579 578 574
f 574 578 573
f 579 554 577
f 577 554 549
f 549 546 577
f 577 546 556
f 531 538 540
f 540 538 557
f 557 538 563
f 563 538 537
f 481 294 482
f 482 294 293
f 580 486 511
f 511 486 485
f 490 489 497
f 497 489 498
f 489 491 498
f 498 491 496
f 163 495 164
f 164 495 494
f 580 490 486
f 486 490 497
f 482 293 510
f 510 293 292
f 495 163 511
f 511 163 199
f 494 493 510
f 510 493 499
f 481 491 294
f 294 491 248
f 582 583 581
f 581 583 584
f 586 587 585
f 585 587 588
f 585 588 589
f 589 588 590
f 592 593 591
f 591 593 594
f 595 596 598
f 598 596 597
f 599 600 586
f 586 600 587
f 601 602 604
f 604 602 603
f 605 606 608
f 608 606 607
f 609 607 200
f 200 607 606
f 610 611 613
f 613 611 612
f 600 614 587
f 587 614 592
f 596 605 597
f 597 605 608
f 602 615 603
f 603 615 583
f 616 614 584
f 584 614 600
f 611 618 617
f 617 618 590
f 620 621 619
f 619 621 622
f 610 623 611
f 611 623 618
f 624 589 618
f 618 589 590
f 617 590 591
f 591 590 588
f 581 625 582
f 582 625 626
f 599 627 581
f 581 627 625
f 591 594 617
f 617 594 628
f 601 610 598
f 598 610 613
f 581 584 599
f 599 584 600
f 585 629 586
f 586 629 630
f 615 616 583
f 583 616 584
f 587 592 588
f 588 592 591
f 582 626 631
f 631 626 632
f 624 620 633
f 633 620 619
f 621 620 604
f 604 620 623
f 631 632 621
f 621 632 622
f 610 601 623
f 623 601 604
f 589 624 634
f 634 624 633
f 586 630 599
f 599 630 627
f 203 202 628
f 628 202 612
f 629 585 634
f 634 585 589
f 609 593 614
f 614 593 592
f 620 624 623
f 623 624 618
f 631 621 603
f 603 621 604
f 582 631 583
f 583 631 603
f 634 633 636
f 636 633 635
f 634 636 629
f 629 636 637
f 629 637 630
f 630 637 638
f 630 638 627
f 627 638 639
f 633 619 635
f 635 619 640
f 619 622 640
f 640 622 641
f 641 622 642
f 642 622 632
f 644 635 643
f 643 635 640
f 645 646 648
f 648 646 647
f 649 650 646
f 646 650 647
f 647 650 652
f 652 650 651
f 652 653 655
f 655 653 654
f 651 656 652
f 652 656 653
f 655 648 652
f 652 648 647
f 648 657 645
f 645 657 658
f 650 649 651
f 651 649 659
f 649 637 659
f 659 637 636
f 649 660 637
f 637 660 638
f 661 660 646
f 646 660 649
f 662 661 645
f 645 661 646
f 651 659 656
f 656 659 644
f 644 659 635
f 635 659 636
f 663 662 658
f 658 662 645
f 664 661 665
f 665 661 662
f 663 666 662
f 662 666 665
f 667 664 668
f 668 664 665
f 664 667 670
f 670 667 669
f 666 671 665
f 665 671 668
f 661 664 660
f 660 664 670
f 660 670 638
f 638 670 639
f 658 672 663
f 663 672 673
f 658 657 672
f 672 657 674
f 653 656 675
f 675 656 644
f 653 675 654
f 654 675 676
f 675 644 677
f 677 644 643
f 676 675 678
f 678 675 677
f 679 680 676
f 676 680 654
f 674 680 672
f 672 680 679
f 627 639 625
f 625 639 681
f 626 682 632
f 632 682 642
f 681 682 625
f 625 682 626
f 669 683 681
f 681 683 682
f 667 684 669
f 669 684 683
f 682 683 642
f 642 683 685
f 681 639 669
f 669 639 670
f 686 641 685
f 685 641 642
f 641 686 640
f 640 686 643
f 686 687 643
f 643 687 677
f 687 686 688
f 688 686 685
f 689 687 690
f 690 687 688
f 683 684 685
f 685 684 688
f 684 691 688
f 688 691 690
f 687 689 677
f 677 689 678
f 693 678 692
f 692 678 689
f 692 695 694
f 694 695 696
f 692 689 695
f 695 689 690
f 692 694 693
f 693 694 673
f 693 673 679
f 679 673 672
f 679 676 693
f 693 676 678
f 684 667 691
f 691 667 668
f 696 691 671
f 671 691 668
f 696 695 691
f 691 695 690
f 694 696 666
f 666 696 671
f 666 663 694
f 694 663 673
f 648 655 657
f 657 655 674
f 674 655 680
f 680 655 654
f 593 162 594
f 594 162 290
f 598 597 601
f 601 597 602
f 615 608 616
f 616 608 607
f 607 609 616
f 616 609 614
f 697 595 613
f 613 595 598
f 597 608 602
f 602 608 615
f 594 290 628
f 628 290 203
f 628 612 617
f 617 612 611
f 593 609 162
f 162 609 200
f 105 29 698
f 698 29 699
f 268 126 701
f 701 126 700
f 126 125 700
f 700 125 702
f 252 703 250
f 250 703 704
f 32 268 705
f 705 268 701
f 288 105 706
f 706 105 698
f 29 32 699
f 699 32 705
f 707 251 706
f 706 251 288
f 250 704 125
f 125 704 702
f 703 252 707
f 707 252 251
f 706 708 707
f 707 708 709
f 707 709 703
f 703 709 710
f 703 710 704
f 704 710 711
f 704 711 702
f 702 711 712
f 706 698 708
f 708 698 713
f 698 699 713
f 713 699 714
f 699 705 714
f 714 705 715
f 717 708 716
f 716 708 713
f 719 720 718
f 718 720 721
f 722 723 719
f 719 723 720
f 724 725 723
f 723 725 720
f 724 726 725
f 725 726 727
f 728 721 725
f 725 721 720
f 721 728 729
f 729 728 730
f 729 731 721
f 721 731 718
f 724 723 732
f 732 723 722
f 722 710 732
f 732 710 709
f 722 733 710
f 710 733 711
f 719 734 722
f 722 734 733
f 734 719 735
f 735 719 718
f 724 732 726
f 726 732 717
f 717 732 708
f 708 732 709
f 731 736 718
f 718 736 735
f 737 734 738
f 738 734 735
f 736 739 735
f 735 739 738
f 740 737 741
f 741 737 738
f 737 740 743
f 743 740 742
f 739 744 738
f 738 744 741
f 734 737 733
f 733 737 743
f 733 743 711
f 711 743 712
f 736 731 746
f 746 731 745
f 731 729 745
f 745 729 730
f 727 726 747
f 747 726 717
f 748 727 749
f 749 727 747
f 747 717 750
f 750 717 716
f 749 747 751
f 751 747 750
f 749 752 748
f 748 752 753
f 730 753 745
f 745 753 752
f 728 725 748
f 748 725 727
f 730 728 753
f 753 728 748
f 700 702 754
f 754 702 712
f 705 701 715
f 715 701 755
f 754 755 700
f 700 755 701
f 742 756 754
f 754 756 755
f 740 757 742
f 742 757 756
f 755 756 715
f 715 756 758
f 754 712 742
f 742 712 743
f 759 714 758
f 758 714 715
f 714 759 713
f 713 759 716
f 759 760 716
f 716 760 750
f 760 759 761
f 761 759 758
f 762 760 763
f 763 760 761
f 756 757 758
f 758 757 761
f 757 764 761
f 761 764 763
f 760 762 750
f 750 762 751
f 766 751 765
f 765 751 762
f 767 765 769
f 769 765 768
f 765 762 768
f 768 762 763
f 765 767 766
f 766 767 746
f 766 746 752
f 752 746 745
f 752 749 766
f 766 749 751
f 757 740 764
f 764 740 741
f 769 764 744
f 744 764 741
f 769 768 764
f 764 768 763
f 767 769 739
f 739 769 744
f 739 736 767
f 767 736 746
f 219 217 208
f 208 217 209
f 209 217 210
f 210 217 193
f 198 580 199
f 199 580 511
f 76 75 289
f 289 75 272
f 277 207 291
f 291 207 184
f 290 183 203
f 203 183 84
f 490 580 142
f 142 580 198
f 142 198 143
f 143 198 197
f 149 276 72
f 72 276 73
f 104 103 279
f 279 103 770
f 770 596 279
f 279 596 595
f 605 596 771
f 771 596 770
f 771 770 772
f 772 770 103
f 772 103 773
f 773 103 102
f 155 774 101
f 101 774 102
f 773 102 97
f 97 102 774
f 775 773 100
f 100 773 97
f 773 775 772
f 772 775 776
f 772 776 771
f 771 776 777
f 200 606 197
f 197 606 777
f 189 71 778
f 778 71 74
f 97 774 98
f 98 774 155
f 183 161 184
f 184 161 291
f 777 276 197
f 197 276 143
f 777 606 771
f 771 606 605
f 613 612 697
f 697 612 202
f 595 697 279
f 279 697 202
f 73 276 776
f 776 276 777
f 776 775 73
f 73 775 74
f 100 778 775
f 775 778 74
f 778 100 189
f 189 100 99
f 245 242 99
f 99 242 189
f 131 33 256
f 28 1 95
f 95 1 62
f 27 2 28
f 28 2 1
f 265 115 266
f 266 115 114
f 95 62 69
f 69 62 64
f 62 61 64
f 64 61 65
f 61 13 65
f 65 13 130
f 13 12 130
f 130 12 14
f 31 11 32
f 32 11 268
f 15 12 31
f 31 12 11
f 31 30 15
f 15 30 231
f 30 106 231
f 231 106 232
f 287 237 106
f 106 237 232
f 254 90 287
f 287 90 237
f 253 44 254
f 254 44 90
f 253 249 44
f 44 249 7
f 267 127 268
f 268 127 126
f 10 3 241
f 241 3 116
f 3 2 116
f 116 2 114
f 2 27 114
f 114 27 266
f 27 26 266
f 266 26 113
f 26 286 113
f 113 286 110
f 286 243 110
f 110 243 255
f 243 242 255
f 255 242 256
f 242 245 256
f 256 245 131
f 245 244 131
f 131 244 132
f 265 37 115
f 115 37 41
f 41 37 42
f 42 37 40
f 92 91 40
f 40 91 42
f 236 233 92
f 92 233 91
f 191 194 236
f 236 194 233
f 258 285 244
f 244 285 132
f 257 55 258
f 258 55 285
f 257 154 201
f 201 154 185
f 56 201 204
f 204 201 180
f 55 257 56
f 56 257 201
f 204 85 56
f 56 85 52
f 86 122 53
f 53 122 79
f 212 215 86
f 86 215 122
f 211 216 212
f 212 216 215
f 192 280 211
f 211 280 216
f 191 240 192
f 192 240 280
f 249 124 7
f 7 124 8
f 124 127 8
f 8 127 241
f 127 267 241
f 241 267 10
f 10 267 9
f 9 267 11
