v 0.06928330659866333 0.07092377543449402 0.8582965135574341
v 0.08136170357465744 0.06654274463653564 0.8579939603805542
v 0.07324559986591339 0.06379915028810501 0.8632029294967651
v 0.06361821293830872 0.06789854913949966 0.8638755083084106
v 0.08852647244930267 0.05986601114273071 0.8764075040817261
v 0.09349699318408966 0.06521831452846527 0.8855751752853394
v 0.07724716514348984 0.06644303351640701 0.8853536248207092
v 0.07575216144323349 0.06155869737267494 0.8765276670455933
v 0.0579216368496418 0.06974725425243378 0.8673093914985657
v 0.06539852917194366 0.06417331844568253 0.8661521077156067
v 0.05618630349636078 0.0785113051533699 0.8679594397544861
v 0.04943437501788139 0.08376677334308624 0.8729344606399536
v 0.05016554892063141 0.07607170939445496 0.8712704181671143
v 0.042581960558891296 0.08682519197463989 0.8738158345222473
v 0.05571070313453674 0.09325511753559113 0.873726487159729
v 0.04372082278132439 0.09536363929510117 0.8700584769248962
v 0.06322097033262253 0.10513318330049515 0.8554879426956177
v 0.06663607805967331 0.10592016577720642 0.8433405160903931
v 0.05046457797288895 0.10479956865310669 0.8409289717674255
v 0.04832557588815689 0.10335105657577515 0.8538857102394104
v 0.06154194474220276 0.10063505172729492 0.8243189454078674
v 0.05463869869709015 0.10299741476774216 0.8330736756324768
v 0.07057911157608032 0.10555507242679596 0.8354412317276001
v 0.07591353356838226 0.1033238098025322 0.827081024646759
v 0.07662412524223328 0.07525506615638733 0.8468762636184692
v 0.08821772038936615 0.07309502363204956 0.8460139036178589
v 0.08675174415111542 0.0711139664053917 0.8504337072372437
v 0.0750311017036438 0.07409629225730896 0.8512882590293884
v 0.05577321723103523 0.0857246071100235 0.8741819858551025
v 0.0633586123585701 0.08900187909603119 0.8781410455703735
v 0.058296456933021545 0.08626727759838104 0.8729158043861389
v 0.0545242540538311 0.08210796862840652 0.87007075548172
v 0.11342070996761322 0.0671871080994606 0.8379170894622803
v 0.12525518238544464 0.07301516085863113 0.8401740193367004
v 0.12461292743682861 0.07342205941677094 0.8461261987686157
v 0.11405277252197266 0.06821203231811523 0.8428833484649658
v 0.11604122817516327 0.06938145309686661 0.8720757961273193
v 0.12373033165931702 0.07552960515022278 0.8656275868415833
v 0.12763558328151703 0.08500134199857712 0.8744000792503357
v 0.11859826743602753 0.08282804489135742 0.8791396617889404
v 0.10528115928173065 0.06542794406414032 0.8807286620140076
v 0.10862591862678528 0.07721473276615143 0.8858204483985901
v 0.09442232549190521 0.07597707211971283 0.8903195858001709
v 0.077071413397789 0.074491485953331 0.8899363875389099
v 0.12670882046222687 0.07493552565574646 0.8276109099388123
v 0.11838065087795258 0.07045739889144897 0.8241602182388306
v -0.0012653209269046783 0.09179513901472092 0.8826983571052551
v -0.004618145525455475 0.08758816123008728 0.8825286626815796
v -0.001364266499876976 0.08537446707487106 0.8788150548934937
v 0.0007194019854068756 0.08992060273885727 0.8802218437194824
v 0.12004821002483368 0.08911272138357162 0.8151471614837646
v 0.11862049996852875 0.09905991703271866 0.8159934878349304
v 0.12576569616794586 0.09795587509870529 0.815765380859375
v 0.12730762362480164 0.08876477181911469 0.8168402910232544
v 0.11039228737354279 0.0893864780664444 0.8130725026130676
v 0.10862480103969574 0.09990840405225754 0.816847026348114
v -0.005316004157066345 0.10158266127109528 0.8751789331436157
v -0.0025139860808849335 0.09979801625013351 0.8790427446365356
v -0.0010584350675344467 0.09919242560863495 0.8764076232910156
v -0.004213536158204079 0.10062884539365768 0.8731856346130371
v 0.05362556129693985 0.07197218388319016 0.8671661019325256
v 0.05856391042470932 0.07211120426654816 0.8600641489028931
v 0.0342022143304348 0.07501855492591858 0.868257999420166
v 0.04431278631091118 0.074208103120327 0.8632159233093262
v 0.0444711409509182 0.07520081847906113 0.8699073791503906
v 0.036547787487506866 0.0777638629078865 0.8729236125946045
v 0.05406199395656586 0.0762418657541275 0.8419525027275085
v 0.06573273986577988 0.07648614048957825 0.8432286381721497
v 0.06283833086490631 0.07627737522125244 0.8488633036613464
v 0.04969774931669235 0.07539049535989761 0.8493154644966125
v 0.07000604271888733 0.07362759113311768 0.8301247358322144
v 0.05809115245938301 0.07393822073936462 0.8299114108085632
v 0.06170674413442612 0.07211846858263016 0.8224760890007019
v 0.06968703120946884 0.0714079737663269 0.8239802718162537
v 0.03665464371442795 0.07540344446897507 0.832557201385498
v 0.02795194461941719 0.07636367529630661 0.8348914980888367
v 0.03082876093685627 0.07972317188978195 0.8310733437538147
v 0.038329292088747025 0.07623108476400375 0.8289151787757874
v 0.13279353082180023 0.09796316176652908 0.8160064816474915
v 0.13405267894268036 0.08883385360240936 0.8193639516830444
v 0.07129327207803726 0.09331822395324707 0.8076085448265076
v 0.07726861536502838 0.0855182334780693 0.802742600440979
v 0.06673547625541687 0.08442682772874832 0.799213171005249
v 0.06282833963632584 0.09262572228908539 0.8049877285957336
v 0.1154877096414566 0.10670031607151031 0.8222676515579224
v 0.12295225262641907 0.1066473200917244 0.8199660181999207
v -0.009781766682863235 0.1002422645688057 0.8718973398208618
v -0.008193688467144966 0.0990125983953476 0.8695999383926392
v 0.09590183198451996 0.0874197706580162 0.8875991702079773
v 0.07777483016252518 0.08407434821128845 0.8888862133026123
v 0.10961148142814636 0.09047645330429077 0.8832009434700012
v 0.11851483583450317 0.09412485361099243 0.878107488155365
v 0.12672053277492523 0.09648957848548889 0.8761612772941589
v 0.04070059955120087 0.07375433295965195 0.8576191663742065
v 0.06481446325778961 0.07432542741298676 0.8539249897003174
v 0.0781194195151329 0.07519559562206268 0.8424092531204224
v 0.08280850201845169 0.06727957725524902 0.813421905040741
v 0.09334395825862885 0.06701844185590744 0.815140962600708
v 0.08765499293804169 0.06691211462020874 0.8239750862121582
v 0.07958564162254333 0.06783022731542587 0.8205745816230774
v 0.0776936262845993 0.07591463625431061 0.8016557097434998
v 0.07455722987651825 0.07005545496940613 0.8058941960334778
v 0.06536225229501724 0.0703471302986145 0.8038610219955444
v 0.06790761649608612 0.07578055560588837 0.7993283271789551
v 0.056697551161050797 0.08681531250476837 0.8808545470237732
v 0.06862885504961014 0.090918630361557 0.8821731805801392
v 0.12079159915447235 0.07904556393623352 0.817948579788208
v 0.1274295598268509 0.07993484288454056 0.8217366337776184
v 0.13504454493522644 0.0826413705945015 0.8239360451698303
v 0.10125990211963654 0.0688716322183609 0.8437968492507935
v 0.1146077811717987 0.06858110427856445 0.8466886878013611
v 0.11378911137580872 0.06736022979021072 0.8522604703903198
v 0.10116586089134216 0.0685693696141243 0.8471342921257019
v 0.09227295219898224 0.06089344620704651 0.8624342679977417
v 0.1028648316860199 0.060610804706811905 0.8690304756164551
v 0.0804605633020401 0.05929894745349884 0.8671534657478333
v 0.12547121942043304 0.07412216067314148 0.8547707796096802
v 0.13429540395736694 0.07561350613832474 0.8479570746421814
v 0.1338241845369339 0.07724526524543762 0.8568265438079834
v 0.13523727655410767 0.0763847827911377 0.8382416367530823
v 0.1355360448360443 0.07855845987796783 0.829613447189331
v 0.13075970113277435 0.10948502272367477 0.8183671832084656
v 0.13224640488624573 0.0803782269358635 0.8646219968795776
v 0.0672169178724289 0.06396154314279556 0.8747270107269287
v 0.05891145393252373 0.06532838195562363 0.8732185959815979
v 0.057400546967983246 0.06974906474351883 0.8666426539421082
v 0.06470321118831635 0.06689664721488953 0.8669493198394775
v 0.03474145755171776 0.09111293405294418 0.8731063008308411
v 0.03526051715016365 0.08342870324850082 0.8750975728034973
v 0.044282980263233185 0.07969994843006134 0.8744857907295227
v 0.10381634533405304 0.06616193056106567 0.831529974937439
v 0.108553946018219 0.06861845403909683 0.8202335238456726
v 0.02990824542939663 0.07459790259599686 0.8634739518165588
v -0.00026771798729896545 0.10006150603294373 0.8721337914466858
v 0.002332763746380806 0.09792758524417877 0.8762921094894409
v 0.02090669609606266 0.0956936702132225 0.8738657832145691
v 0.01838368922472 0.09844225645065308 0.8682824373245239
v 0.020618904381990433 0.07993290573358536 0.8603249788284302
v 0.0235770121216774 0.07664225995540619 0.8661718964576721
v 0.019870243966579437 0.07807394117116928 0.867150604724884
v 0.015106679871678352 0.07847055047750473 0.8629164695739746
v 0.0349154993891716 0.07818886637687683 0.8227880597114563
v 0.04191022738814354 0.07504183799028397 0.8212927579879761
v 0.03386596217751503 0.09869478642940521 0.8501138687133789
v 0.035820621997117996 0.10081753134727478 0.8623050451278687
v 0.04683225601911545 0.1015714481472969 0.8634837865829468
v 0.05716213583946228 0.07540015876293182 0.8352585434913635
v 0.04663412645459175 0.07499488443136215 0.8331653475761414
v 0.04778454452753067 0.0746680349111557 0.8291576504707336
v 0.03723384439945221 0.07446040958166122 0.8542082905769348
v 0.028299205005168915 0.07524845749139786 0.8572564125061035
v 0.03319000080227852 0.07676652073860168 0.8504648208618164
v 0.04050905257463455 0.07561208307743073 0.8489924073219299
v 0.08932754397392273 0.08805746585130692 0.8058186173439026
v 0.09014463424682617 0.07668070495128632 0.8042523860931396
v -0.0007151514291763306 0.09630301594734192 0.881589412689209
v 0.0007783658802509308 0.0949213057756424 0.8792985677719116
v 0.06855373084545135 0.07568138092756271 0.8366531729698181
v 0.06087740138173103 0.10179190337657928 0.8636597394943237
v 0.07990013062953949 0.07444216310977936 0.8373900055885315
v 0.04496956616640091 0.09093118458986282 0.8122179508209229
v 0.04245349392294884 0.08429373055696487 0.8083800077438354
v 0.03572807461023331 0.08518583327531815 0.8109170198440552
v 0.03635736182332039 0.09093855321407318 0.8114748597145081
v -0.002020919695496559 0.08152100443840027 0.8671262264251709
v 1.549161970615387e-05 0.07989929616451263 0.8722031712532043
v -0.005248751491308212 0.08304990828037262 0.8748067021369934
v -0.008773714303970337 0.08463510870933533 0.8700973987579346
v 0.026511767879128456 0.07833944261074066 0.8708832859992981
v 0.02923976257443428 0.08162276446819305 0.8746984601020813
v 0.02265099808573723 0.08392702043056488 0.8758993148803711
v 0.020953088998794556 0.08020240068435669 0.8717441558837891
v 0.028571706265211105 0.08852723985910416 0.8756591081619263
v 0.022674959152936935 0.0903327539563179 0.8765780925750732
v -0.004003867506980896 0.08697210252285004 0.8635205030441284
v -0.004789456725120544 0.09472739696502686 0.8631200790405273
v 0.013788099400699139 0.09235825389623642 0.8578330278396606
v 0.011775951832532883 0.08448132127523422 0.8596656918525696
v 0.09007935225963593 0.1065731793642044 0.8295600414276123
v 0.09385527670383453 0.10269046574831009 0.819959282875061
v 0.07990677654743195 0.09935379773378372 0.8172585368156433
v 0.06673896312713623 0.09671496599912643 0.8140818476676941
v 0.05340727046132088 0.09259288012981415 0.81195467710495
v 0.049878574907779694 0.0988997146487236 0.8204366564750671
v 0.08389334380626678 0.0961734876036644 0.8111215829849243
v 0.02760348655283451 0.09132843464612961 0.8494243025779724
v 0.026388240978121758 0.09463334828615189 0.8542923927307129
v 0.03016957826912403 0.09664057195186615 0.8469836115837097
v 0.08144764602184296 0.0717206671833992 0.830714225769043
v 0.004025662317872047 0.09353950619697571 0.8797050714492798
v 0.11592882871627808 0.1104634627699852 0.8643590211868286
v 0.11603929102420807 0.1143142580986023 0.8519029021263123
v 0.1076778918504715 0.11230354756116867 0.8535058498382568
v 0.10744084417819977 0.10750503093004227 0.8668425679206848
v 0.0029050633311271667 0.08197641372680664 0.87763911485672
v 0.004373662173748016 0.08721016347408295 0.8807604312896729
v 0.04177897423505783 0.07491008192300797 0.8142991065979004
v 0.034917011857032776 0.07790245860815048 0.8166747093200684
v 0.03295411914587021 0.07966741919517517 0.8137798309326172
v 0.03945991396903992 0.07540255784988403 0.8078291416168213
v 0.09708499908447266 0.10013547539710999 0.8158124089241028
v 0.06068743020296097 0.08432120829820633 0.7992355227470398
v 0.056146614253520966 0.09161949902772903 0.8033667206764221
v 0.10612767934799194 0.10563699156045914 0.8227546215057373
v 0.10293728113174438 0.10959241539239883 0.8310206532478333
v 0.11238373816013336 0.11159347742795944 0.831498384475708
v 0.03897259384393692 0.09889926761388779 0.830354630947113
v 0.08537712693214417 0.10814410448074341 0.836632490158081
v 0.0994734913110733 0.11054615676403046 0.8377491235733032
v 0.11064200103282928 0.11294268071651459 0.8386415243148804
v 0.11864590644836426 0.11517206579446793 0.8385372757911682
v 0.11978709697723389 0.11324702203273773 0.8307279944419861
v -0.0037882141768932343 0.09852087497711182 0.8667833805084229
v -0.011468756943941116 0.0956326499581337 0.8653771877288818
v 0.12807026505470276 0.11660991609096527 0.8292859196662903
v 0.12655791640281677 0.11801038682460785 0.838302493095398
v 0.09631048142910004 0.11077194660902023 0.8463947176933289
v 0.09313911199569702 0.10974499583244324 0.8563315868377686
v 0.08278495073318481 0.1083153709769249 0.8448629975318909
v 0.07837454229593277 0.1072455495595932 0.854745090007782
v 0.038556069135665894 0.1042000949382782 0.839016318321228
v -0.019376378506422043 0.09338012337684631 0.8786681294441223
v -0.014391366392374039 0.08931180834770203 0.8715132474899292
v -0.01261068880558014 0.08555575460195541 0.8754629492759705
v -0.019095513969659805 0.09130951017141342 0.8821946978569031
v -0.011281151324510574 0.08919282257556915 0.8663807511329651
v -0.012926451861858368 0.09508883208036423 0.8693200349807739
v 0.07606908679008484 0.10268454998731613 0.8655345439910889
v 0.027277100831270218 0.08102328330278397 0.8517191410064697
v 0.0921524316072464 0.10292374342679977 0.8694303631782532
v 0.0683370977640152 0.09719966351985931 0.8754124641418457
v 0.07982073724269867 0.09592118859291077 0.8784074187278748
v 0.10773225128650665 0.10162223130464554 0.8763605952262878
v 0.09437032043933868 0.0965958759188652 0.8818846940994263
v 0.12452346086502075 0.1056993380188942 0.8717807531356812
v 0.11593848466873169 0.10407368093729019 0.8731949925422668
v 0.08115901798009872 0.09180246293544769 0.8847241997718811
v -0.009499754756689072 0.09669420123100281 0.8885293006896973
v -0.012335892766714096 0.09261101484298706 0.8886877298355103
v 0.12384320795536041 0.11282980442047119 0.8634979128837585
v 0.07074560225009918 0.06208328157663345 0.867886483669281
v 0.09175817668437958 0.06984184682369232 0.8339890837669373
v 0.09027129411697388 0.07190661132335663 0.8387925624847412
v 0.09949325025081635 0.06741689145565033 0.8168618083000183
v 0.0947931706905365 0.06666512787342072 0.8274365067481995
v -0.007932335138320923 0.1008484736084938 0.8863417506217957
v 0.02345423214137554 0.08019989728927612 0.8353269696235657
v 0.03029477596282959 0.08500055223703384 0.8324969410896301
v 0.06815501302480698 0.06579890102148056 0.8832890391349792
v 0.06001358479261398 0.06546350568532944 0.8809335231781006
v 0.0566568523645401 0.07661499828100204 0.8874144554138184
v 0.057999756187200546 0.06968453526496887 0.8863612413406372
v 0.06741034984588623 0.07210517674684525 0.8883064389228821
v 0.06680623441934586 0.07975417375564575 0.8885278701782227
v 0.10104620456695557 0.06868204474449158 0.8410604596138
v 0.1012667715549469 0.06795376539230347 0.8372044563293457
v 0.10057339072227478 0.08860275149345398 0.8093757629394531
v 0.10075172781944275 0.0771990567445755 0.8081752061843872
v 0.028067240491509438 0.09405030310153961 0.8725975155830383
v 0.034318163990974426 0.09729266166687012 0.8680993914604187
v 0.02680693380534649 0.09771458059549332 0.8668782711029053
v 0.01724466308951378 0.09729032218456268 0.8616490960121155
v 0.024650420993566513 0.08631581813097 0.852070689201355
v 0.020659996196627617 0.08538086712360382 0.8567694425582886
v 0.10912485420703888 0.06378446519374847 0.8595941662788391
v 0.09884646534919739 0.06545956432819366 0.8537971377372742
v 0.06066218763589859 0.06990975886583328 0.8660339117050171
v 0.05535512790083885 0.07579676806926727 0.86558598279953
v 0.04486195370554924 0.0756906047463417 0.8421133160591125
v 0.0278488639742136 0.09358102083206177 0.8321014046669006
v 0.029081914573907852 0.10103759169578552 0.8378780484199524
v 0.03554672747850418 0.07651980966329575 0.841930091381073
v -0.011220443993806839 0.10405106097459793 0.8790895938873291
v -0.00866316631436348 0.10326534509658813 0.8833754062652588
v 0.025939270853996277 0.09779582917690277 0.860717236995697
v 0.05060800164937973 0.07239498198032379 0.821487545967102
v 0.03733712062239647 0.09455054998397827 0.8262920379638672
v 0.023709872737526894 0.08613011986017227 0.832037627696991
v 0.06271450221538544 0.07592100650072098 0.7986282110214233
v 0.12466365098953247 0.11634913086891174 0.8514846563339233
v -0.009534735232591629 0.0845349133014679 0.8799617290496826
v -0.015436980873346329 0.0900946632027626 0.8867469429969788
v -0.018090639263391495 0.09649762511253357 0.8758295774459839
v -0.014622386544942856 0.10119251906871796 0.8753400444984436
v 0.1100667417049408 0.07733289152383804 0.813420832157135
v 0.08902497589588165 0.07296185940504074 0.8418687582015991
v 0.06951509416103363 0.08871852606534958 0.8855234384536743
v 0.05665772780776024 0.08367155492305756 0.8846243023872375
v 0.02955249324440956 0.07780351489782333 0.8428184986114502
v 0.048924535512924194 0.08864235132932663 0.8073059320449829
v 0.042058371007442474 0.09716548025608063 0.8171172738075256
v 0.03616422414779663 0.09776505082845688 0.8159868717193604
v 0.03526616096496582 0.098407082259655 0.8228820562362671
v 0.03254871815443039 0.09445488452911377 0.8291943073272705
v -0.02117900922894478 0.09697367995977402 0.8778637051582336
v -0.017740990966558456 0.10197233408689499 0.8762897849082947
v -0.015046041458845139 0.10627083480358124 0.879166305065155
v -0.01249157264828682 0.10652408003807068 0.8834725618362427
v -0.010746121406555176 0.10346794128417969 0.886834979057312
v -0.022613007575273514 0.09447655081748962 0.8813384771347046
v -0.02213713899254799 0.09328114986419678 0.8850720524787903
v -0.017570573836565018 0.09241202473640442 0.8888805508613586
v -0.025864485651254654 0.09616897255182266 0.8842960596084595
v -0.027240369468927383 0.10042618215084076 0.8816320896148682
v -0.025252770632505417 0.1127571165561676 0.8864586353302002
v -0.02238021418452263 0.10986244678497314 0.882256805896759
v -0.025120023638010025 0.10970503836870193 0.8826696872711182
v -0.028453733772039413 0.11194354295730591 0.8855710029602051
v -0.03292101249098778 0.1133684515953064 0.8878676295280457
v -0.029746253043413162 0.11463978886604309 0.8893865942955017
v -0.02550007775425911 0.10552835464477539 0.8809418082237244
v -0.03048010542988777 0.10792599618434906 0.8846389055252075
v -0.03199543058872223 0.10401716828346252 0.8854359984397888
v -0.03651847317814827 0.10642252117395401 0.8876282572746277
v -0.03539226949214935 0.11006657779216766 0.8868282437324524
v -0.028582267463207245 0.10278967022895813 0.8826590180397034
v -0.02384374290704727 0.1047416627407074 0.879515528678894
v -0.03418852761387825 0.11437813937664032 0.8911440968513489
v -0.03567611053586006 0.1136593371629715 0.8890293836593628
v -0.03778475150465965 0.11096377670764923 0.888709306716919
v -0.03853417932987213 0.11151465773582458 0.8917707204818726
v -0.016702808439731598 0.10930217802524567 0.8848764896392822
v -0.02353597804903984 0.11270870268344879 0.888574481010437
v -0.028480272740125656 0.11325988173484802 0.8921586871147156
v -0.033026572316884995 0.11308853328227997 0.8936110734939575
v -0.023455921560525894 0.1105615422129631 0.8922567367553711
v -0.028057832270860672 0.11104550957679749 0.8942199349403381
v -0.03200076147913933 0.11050330102443695 0.895623505115509
v -0.024345986545085907 0.10724199563264847 0.895012617111206
v -0.028606392443180084 0.10835441201925278 0.8959305882453918
v -0.013850033283233643 0.1024545431137085 0.8905389904975891
v -0.013527188450098038 0.1060447096824646 0.8877507448196411
v -0.031216207891702652 0.10888102650642395 0.8967497944831848
v -0.03784671053290367 0.11033004522323608 0.8938031196594238
v -0.03125814348459244 0.10052138566970825 0.8862901926040649
v -0.03623246029019356 0.10393811762332916 0.8898897171020508
v -0.030714500695466995 0.09904281049966812 0.8881167769432068
v -0.03586385026574135 0.10218673944473267 0.8916217088699341
v -0.039581362158060074 0.1067214161157608 0.8912745118141174
v -0.03851794824004173 0.10804229974746704 0.88916015625
v -0.011138606816530228 0.09888912737369537 0.8890918493270874
v -0.01407637819647789 0.0944695994257927 0.8898469805717468
v -0.016399983316659927 0.09705153107643127 0.8918609023094177
v -0.026159796863794327 0.10299608111381531 0.8960596323013306
v -0.019864991307258606 0.09453864395618439 0.8910970687866211
v -0.025181490927934647 0.09525148570537567 0.8879302144050598
v -0.030470166355371475 0.09862810373306274 0.8910385966300964
v -0.028891149908304214 0.09924142062664032 0.8940075635910034
v -0.034236907958984375 0.10158173739910126 0.8936386108398438
v -0.03237112984061241 0.10235285758972168 0.8952799439430237
v -0.030294932425022125 0.10523752868175507 0.8967850804328918
v -0.03627384826540947 0.10483777523040771 0.895226776599884
v -0.038532231003046036 0.10558560490608215 0.8932315111160278
v -0.03553904965519905 0.10852643847465515 0.8957694172859192
v -0.03437488526105881 0.10443052649497986 0.8959960341453552
v -0.03318691626191139 0.1071503758430481 0.8963658213615417
v -0.0014718510210514069 0.09277280420064926 0.8623501658439636
v -0.0035302825272083282 0.08665657788515091 0.8631031513214111
v -0.0016996785998344421 0.08604612201452255 0.858934223651886
v -0.0002682432532310486 0.09109985083341599 0.8602273464202881
v -0.01044490560889244 0.10101741552352905 0.8553941249847412
v -0.005431525409221649 0.09956343472003937 0.8587263822555542
v -0.0041398778557777405 0.0991971343755722 0.8575916886329651
v -0.009127592667937279 0.10064485669136047 0.8535438179969788
v -0.015126954764127731 0.09810536354780197 0.8528260588645935
v -0.013214599341154099 0.09811278432607651 0.8495231866836548
v -0.002218427136540413 0.10012643039226532 0.8512423038482666
v 0.0015934202820062637 0.09728430211544037 0.8564572334289551
v 0.021886516362428665 0.09470073878765106 0.8488022685050964
v 0.01940562203526497 0.09883780777454376 0.843671977519989
v 0.020166154950857162 0.07768560945987701 0.8428896069526672
v 0.017503103241324425 0.07910381257534027 0.8411521911621094
v -0.0023287739604711533 0.09641693532466888 0.8610772490501404
v -0.001308053731918335 0.09522803127765656 0.8598048686981201
v -0.002362571656703949 0.07976934313774109 0.8502781987190247
v 0.0008119195699691772 0.07973400503396988 0.8546822667121887
v -0.0040544625371694565 0.08261093497276306 0.8577086925506592
v -0.00868239440023899 0.08260122686624527 0.8542463183403015
v 0.0238201767206192 0.08605125546455383 0.8505024909973145
v 0.022609258070588112 0.08099119365215302 0.8463698625564575
v 0.023033972829580307 0.09024123102426529 0.8506892919540405
v -0.005909278988838196 0.08299850672483444 0.8456743955612183
v -0.007358476519584656 0.08914418518543243 0.8429551720619202
v 0.013868503272533417 0.09062880277633667 0.8338077068328857
v 0.01319190301001072 0.08400461077690125 0.8358514308929443
v 0.003645841032266617 0.09292420744895935 0.8596051335334778
v 0.0030031464993953705 0.08299729228019714 0.8582252264022827
v 0.004342811182141304 0.08746783435344696 0.8602163195610046
v -0.004905061796307564 0.09652317315340042 0.8456888198852539
v -0.014835868030786514 0.09023672342300415 0.8483008146286011
v -0.01961858570575714 0.09097540378570557 0.8672339916229248
v -0.015197806060314178 0.08499667048454285 0.8572776317596436
v -0.011300422251224518 0.08340548723936081 0.8603510856628418
v -0.017454233020544052 0.08921851217746735 0.8715747594833374
v -0.013169627636671066 0.08496443182229996 0.8510586619377136
v -0.016508430242538452 0.09026160091161728 0.8532718420028687
v -0.0073813870549201965 0.09707140922546387 0.8751646876335144
v -0.010610833764076233 0.09259942173957825 0.8763310313224792
v -0.007176842540502548 0.10059565305709839 0.8727746605873108
v 0.01677587628364563 0.09741642326116562 0.8373916745185852
v -0.011872276663780212 0.10277488827705383 0.8638573884963989
v -0.0081291813403368 0.10235454142093658 0.8691220283508301
v -0.0067847780883312225 0.08347643911838531 0.8627729415893555
v -0.01427232101559639 0.0899810940027237 0.8752857446670532
v -0.020157262682914734 0.09376297146081924 0.8635249137878418
v -0.016976922750473022 0.09885375946760178 0.8605732321739197
v -0.02040959522128105 0.09684514999389648 0.8656562566757202
v -0.016529139131307602 0.10173273086547852 0.8643366694450378
v -0.009964991360902786 0.10579773783683777 0.8692610859870911
v -0.007963847368955612 0.10438364744186401 0.8744137287139893
v -0.0080009326338768 0.101927749812603 0.8770301938056946
v -0.021322738379240036 0.09378805756568909 0.8691228628158569
v -0.020374231040477753 0.09175726026296616 0.8736910820007324
v -0.015862897038459778 0.09150556474924088 0.8772454857826233
v -0.024808965623378754 0.09724058955907822 0.8720468878746033
v -0.02401592582464218 0.1009691059589386 0.8698719143867493
v -0.02565072476863861 0.11315791308879852 0.8848872780799866
v -0.020898163318634033 0.11130602657794952 0.8812574744224548
v -0.02296574041247368 0.11119606345891953 0.879341185092926
v -0.02725953981280327 0.11346220225095749 0.8825026154518127
v -0.01685982197523117 0.10989633947610855 0.8756996989250183
v -0.0199139267206192 0.10957492887973785 0.8756436109542847
v -0.021743860095739365 0.10675045847892761 0.8723974227905273
v -0.026221632957458496 0.10908903181552887 0.8763412833213806
v -0.028582613915205002 0.10480637848377228 0.8750964999198914
v -0.03322949260473251 0.107609823346138 0.8777783513069153
v -0.031114447861909866 0.11188418418169022 0.8792169690132141
v -0.02483825385570526 0.10425106436014175 0.8721530437469482
v -0.030657734721899033 0.11421901732683182 0.8838409185409546
v -0.031170286238193512 0.11355502158403397 0.8864052295684814
v -0.019228991121053696 0.10580082982778549 0.8699208498001099
v -0.01178399845957756 0.10674081742763519 0.8785138130187988
v -0.01991436630487442 0.10978014022111893 0.8837929964065552
v -0.025780946016311646 0.11108538508415222 0.887410581111908
v -0.03203238919377327 0.11113105714321136 0.8880727291107178
v -0.020897291600704193 0.1064734011888504 0.8863000273704529
v -0.026772867888212204 0.10835820436477661 0.8887145519256592
v -0.03196699917316437 0.10836513340473175 0.8886784315109253
v -0.02288443222641945 0.10233910381793976 0.8875256180763245
v -0.02873632311820984 0.10465282946825027 0.8891651630401611
v -0.01239040121436119 0.09826159477233887 0.8820387125015259
v -0.01113833487033844 0.10265964269638062 0.8810279369354248
v -0.03127430006861687 0.10600404441356659 0.8888826966285706
v -0.035336174070835114 0.11255178600549698 0.8838409185409546
v -0.035730473697185516 0.11002210527658463 0.8861633539199829
v -0.03425843268632889 0.11298654973506927 0.8822136521339417
v -0.02939455583691597 0.10290416330099106 0.8748504519462585
v -0.034271907061338425 0.10577724874019623 0.8786153197288513
v -0.030292537063360214 0.10057441145181656 0.8759838938713074
v -0.0354088619351387 0.10404397547245026 0.8799619078636169
v -0.037036728113889694 0.10868307948112488 0.8813109397888184
v -0.036094583570957184 0.1100601777434349 0.8805257678031921
v -0.008618054911494255 0.09798970073461533 0.8787176609039307
v -0.01180705800652504 0.09373072534799576 0.8784054517745972
v -0.015530101954936981 0.09374917298555374 0.8807692527770996
v -0.025879062712192535 0.09852510690689087 0.8856792449951172
v -0.01931573450565338 0.09199882298707962 0.8780405521392822
v -0.024151474237442017 0.09478053450584412 0.8744576573371887
v -0.029899995774030685 0.09847590327262878 0.8778030276298523
v -0.028730884194374084 0.09746687859296799 0.8816311359405518
v -0.03532024100422859 0.10218000411987305 0.8812862634658813
v -0.03308554366230965 0.1004810705780983 0.8832477927207947
v -0.030693266540765762 0.1016770452260971 0.8872823119163513
v -0.03723541647195816 0.10541362315416336 0.8840433359146118
v -0.037557393312454224 0.1074112057685852 0.8825560808181763
v -0.03513669967651367 0.10790058225393295 0.8870714902877808
v -0.03531712293624878 0.10319288820028305 0.8850409388542175
v -0.03352119401097298 0.10499797761440277 0.8877077102661133
v 0.008944739587605 0.09284874051809311 0.8370463252067566
v 0.005442589521408081 0.09147054702043533 0.8327556252479553
v 0.009606542065739632 0.08869221806526184 0.8303916454315186
v 0.011864292435348034 0.09180188924074173 0.8344827890396118
v 0.014554803259670734 0.10418544709682465 0.8343604803085327
v 0.013922744430601597 0.10027508437633514 0.8372511863708496
v 0.01578543707728386 0.09942438453435898 0.8348000645637512
v 0.01659395918250084 0.10314136743545532 0.8307880759239197
v 0.011322420090436935 0.1067085862159729 0.8305867314338684
v 0.014953644946217537 0.10485246777534485 0.8260607123374939
v 0.018638819456100464 0.1031283512711525 0.8281422257423401
v 0.01700517162680626 0.0993441566824913 0.8327054381370544
v 0.02979040890932083 0.09628090262413025 0.8296472430229187
v 0.030341625213623047 0.10071240365505219 0.8244302272796631
v 0.011800185777246952 0.09597597271203995 0.8380209803581238
v 0.013693410903215408 0.09557431191205978 0.8359240889549255
v 0.01058606430888176 0.08706840872764587 0.8215281367301941
v 0.012275651097297668 0.08517913520336151 0.8261754512786865
v 0.007448866963386536 0.08952535688877106 0.8255580067634583
v 0.005978100001811981 0.09335459768772125 0.821970522403717
v 0.030260376632213593 0.08481445908546448 0.8306635618209839
v 0.03092443384230137 0.08218663185834885 0.825040876865387
v 0.029001105576753616 0.09023697674274445 0.831926703453064
v 0.010893696919083595 0.0925740897655487 0.8177606463432312
v 0.01400007214397192 0.09875911474227905 0.817335844039917
v 0.027195394039154053 0.0938313901424408 0.8132094740867615
v 0.02708255685865879 0.08775407820940018 0.8141064047813416
v 0.015480916015803814 0.09538160264492035 0.8352981209754944
v 0.013828500173985958 0.08621425181627274 0.83055180311203
v 0.014667043462395668 0.09006888419389725 0.8348237872123718
v 0.017140524461865425 0.10265807807445526 0.8226590156555176
v 0.011151419021189213 0.1029556468129158 0.8209018707275391
v -0.00594860315322876 0.10882970690727234 0.8364008069038391
v 0.003081750124692917 0.10079516470432281 0.8236498832702637
v 0.0012832768261432648 0.09603659808635712 0.8260535001754761
v -0.008105691522359848 0.10526096075773239 0.8372576832771301
v 0.006790481507778168 0.09840728342533112 0.8201809525489807
v 0.007093396969139576 0.10501358658075333 0.8254467248916626
v -0.0011781752109527588 0.09903724491596222 0.8472082614898682
v -0.005011741071939468 0.09859751909971237 0.8434910178184509
v 0.002596937119960785 0.10107453167438507 0.8472230434417725
v 0.029381774365901947 0.10023900866508484 0.8174896240234375
v 0.028844231739640236 0.08251430094242096 0.8179578185081482
v 0.004966214299201965 0.10760323703289032 0.8452189564704895
v 0.004262175410985947 0.10381406545639038 0.8468754291534424
v 0.002544023096561432 0.09272730350494385 0.8284069895744324
v -0.008045986294746399 0.101200170814991 0.8396856188774109
v -0.001721397042274475 0.11125008016824722 0.8369417190551758
v 0.003569088876247406 0.1111031249165535 0.8403815627098083
v -0.004757186397910118 0.11273310333490372 0.8403473496437073
v 0.0002506803721189499 0.11207813769578934 0.843847930431366
v 0.0015964843332767487 0.1085711270570755 0.848720371723175
v 0.0005796924233436584 0.1046009287238121 0.85008305311203
v -0.0012120231986045837 0.10186388343572617 0.8500866889953613
v -0.008975669741630554 0.11090314388275146 0.8396058082580566
v -0.011022631078958511 0.10771900415420532 0.8402754068374634
v -0.009448081254959106 0.1021440178155899 0.8410370349884033
v -0.011621706187725067 0.11257767677307129 0.8427746891975403
v -0.00846870057284832 0.1155228465795517 0.8457844257354736
v -0.012120697647333145 0.11299796402454376 0.8625664114952087
v -0.007921073585748672 0.11117615550756454 0.8587138056755066
v -0.008306186646223068 0.11217240989208221 0.8581002354621887
v -0.0122038833796978 0.11461745202541351 0.8617828488349915
v -0.003191716969013214 0.11116611212491989 0.8536565899848938
v -0.004741698503494263 0.11227870732545853 0.8544145822525024
v -0.00547775998711586 0.11444171518087387 0.8510692715644836
v -0.01006346195936203 0.11647852510213852 0.855279803276062
v -0.013785600662231445 0.11627315729856491 0.8504208326339722
v -0.01689554750919342 0.11783149838447571 0.8542263507843018
v -0.013737846165895462 0.11836381256580353 0.858980655670166
v -0.008697433397173882 0.11564553529024124 0.8482286334037781
v -0.014807488769292831 0.11623701453208923 0.8630590438842773
v -0.014883864670991898 0.11541179567575455 0.8646053671836853
v -0.004043065011501312 0.11420248448848724 0.8488850593566895
v -0.002975102514028549 0.10625249147415161 0.8541052341461182
v -0.008400294929742813 0.10829009115695953 0.8593422770500183
v -0.012705855071544647 0.110033318400383 0.8632606267929077
v -0.016477171331644058 0.1121060699224472 0.864376425743103
v -0.010765884071588516 0.10546059906482697 0.8580992817878723
v -0.014419078826904297 0.10783085227012634 0.8617000579833984
v -0.017720341682434082 0.1097642034292221 0.862736701965332
v -0.013097543269395828 0.10419692099094391 0.8561808466911316
v -0.01636045053601265 0.10651923716068268 0.859397292137146
v -0.0060996003448963165 0.10049905627965927 0.8497936129570007
v -0.004208682104945183 0.10274825245141983 0.8524975180625916
v -0.018376559019088745 0.1085963249206543 0.8608229160308838
v -0.018043246120214462 0.11800046265125275 0.8621876835823059
v -0.02065998688340187 0.11472392082214355 0.8616920113563538
v -0.016683880239725113 0.11821571737527847 0.8612777590751648
v -0.01450192928314209 0.11596571654081345 0.8486922979354858
v -0.01906060054898262 0.11737678945064545 0.8533698916435242
v -0.016137409955263138 0.11407940089702606 0.8474830985069275
v -0.02061881497502327 0.11543124914169312 0.852343738079071
v -0.02006644755601883 0.11838807165622711 0.8573824763298035
v -0.018871594220399857 0.11864300072193146 0.8575437068939209
v -0.0034521371126174927 0.09962483495473862 0.8482214212417603
v -0.006872883066534996 0.09958116710186005 0.8444624543190002
v -0.009222188964486122 0.10073161870241165 0.8460139036178589
v -0.016453411430120468 0.1047363132238388 0.8529682159423828
v -0.01144077256321907 0.10347191244363785 0.842746913433075
v -0.013672906905412674 0.10963550209999084 0.8431645631790161
v -0.017359528690576553 0.11110594123601913 0.8480084538459778
v -0.01799093186855316 0.10782884061336517 0.8498743176460266
v -0.021088387817144394 0.11274412274360657 0.8524714112281799
v -0.02036576345562935 0.11001018434762955 0.8529027700424194
v -0.01924864575266838 0.10685111582279205 0.8564484715461731
v -0.02198806032538414 0.11333143711090088 0.8563497066497803
v -0.02173139527440071 0.11629976332187653 0.8566980361938477
v -0.021062903106212616 0.11175557971000671 0.8605311512947083
v -0.02157476916909218 0.1108318567276001 0.856070876121521
v -0.020663361996412277 0.10962414741516113 0.8591462969779968
v 0.030322592705488205 0.08106358349323273 0.8208080530166626
v 0.03959089517593384 0.09134423732757568 0.7691550254821777
v 0.0435156486928463 0.09027891606092453 0.76943039894104
v 0.0435226671397686 0.08682778477668762 0.7719311714172363
v 0.03918251395225525 0.08664102107286453 0.7715566158294678
v 0.03698449209332466 0.09815996140241623 0.7775157690048218
v 0.03581764176487923 0.09589285403490067 0.7739872336387634
v 0.03368240222334862 0.09249062836170197 0.7766128182411194
v 0.03443359211087227 0.09534972906112671 0.7793137431144714
v 0.0408075787127018 0.09951026737689972 0.7790394425392151
v 0.03855184465646744 0.09640223532915115 0.7802982330322266
v 0.034547340124845505 0.0921802669763565 0.7822812795639038
v 0.03386111557483673 0.08785290271043777 0.7809392213821411
v 0.04082821309566498 0.08349008113145828 0.8005942106246948
v 0.04389079660177231 0.08802051842212677 0.8013020753860474
v 0.058812640607357025 0.07737356424331665 0.7971134185791016
v 0.05592799931764603 0.07229159772396088 0.8003305196762085
v 0.05210123583674431 0.07699444144964218 0.7920151948928833
v 0.05512448400259018 0.08168777823448181 0.7918716669082642
v 0.03694083169102669 0.09345042705535889 0.7710433006286621
v 0.03538825735449791 0.0889788269996643 0.7736440896987915
v 0.05042600631713867 0.08882682770490646 0.7789422869682312
v 0.04805716872215271 0.08502934873104095 0.7771450281143188
v 0.04751086235046387 0.08639806509017944 0.7734307050704956
v 0.050249844789505005 0.08821297436952591 0.7759137153625488
v 0.05114302784204483 0.07221484184265137 0.8029525279998779
v 0.04687359929084778 0.07372920960187912 0.8063139319419861
v 0.04400188475847244 0.07345446944236755 0.7999913096427917
v 0.04784195125102997 0.07506653666496277 0.7933350801467896
v 0.03942988067865372 0.07684430480003357 0.8004583120346069
v 0.04952191188931465 0.09268945455551147 0.780724048614502
v 0.04510888457298279 0.09535570442676544 0.7825770974159241
v 0.05508776754140854 0.09060714393854141 0.796367347240448
v 0.056398943066596985 0.08664117753505707 0.794643759727478
v 0.034690070897340775 0.08415371179580688 0.7783210873603821
v 0.04420993849635124 0.08321711421012878 0.7764184474945068
v 0.0389372855424881 0.08175850659608841 0.7764094471931458
v 0.03898346424102783 0.09582637250423431 0.7817821502685547
v 0.0448664054274559 0.09511534124612808 0.7809526920318604
v 0.05229819566011429 0.10150831937789917 0.7702215313911438
v 0.05082119628787041 0.09404261410236359 0.7769269347190857
v 0.05076679587364197 0.09144832193851471 0.7727859616279602
v 0.051705360412597656 0.10058128833770752 0.7676852941513062
v 0.04923224449157715 0.09150737524032593 0.7786924839019775
v 0.046814072877168655 0.09777157008647919 0.7794638872146606
v 0.04138503223657608 0.09982576221227646 0.7631250619888306
v 0.04616197571158409 0.09827271848917007 0.7635114789009094
v 0.03943081945180893 0.1011519730091095 0.7650653123855591
v 0.04905663803219795 0.09183581918478012 0.799203634262085
v 0.04046422243118286 0.10466456413269043 0.7713192105293274
v 0.03875310719013214 0.10328280925750732 0.7675362825393677
v 0.04745745286345482 0.09026379883289337 0.7703933119773865
v 0.04957140237092972 0.09900489449501038 0.7654294371604919
v 0.05032973736524582 0.10339081287384033 0.7728690505027771
v 0.04486209899187088 0.10511796921491623 0.7740107774734497
v 0.05158497765660286 0.10755694657564163 0.771411657333374
v 0.04564087837934494 0.10782521218061447 0.7731173038482666
v 0.040730543434619904 0.10784226655960083 0.7702258229255676
v 0.03911826014518738 0.10622577369213104 0.7669844031333923
v 0.039377279579639435 0.1046239584684372 0.76413893699646
v 0.05322345718741417 0.10632403194904327 0.7681307792663574
v 0.052323952317237854 0.1051720380783081 0.7655457854270935
v 0.04992301017045975 0.10285697877407074 0.7630739212036133
v 0.05297765135765076 0.11145012080669403 0.7671610116958618
v 0.05080416798591614 0.11425226926803589 0.7707793712615967
v 0.04053474962711334 0.12165655195713043 0.7654595971107483
v 0.04049383103847504 0.11801718175411224 0.7666580080986023
v 0.04122156649827957 0.11831402033567429 0.7677003145217896
v 0.040642984211444855 0.12217307090759277 0.7665928602218628
v 0.041338857263326645 0.11356114596128464 0.7693582773208618
v 0.042348504066467285 0.11502262949943542 0.7699409127235413
v 0.04553518444299698 0.11431571841239929 0.7713285088539124
v 0.044719405472278595 0.11925821006298065 0.7699681520462036
v 0.04990382492542267 0.11988426744937897 0.7689050436019897
v 0.04879475384950638 0.12351877242326736 0.7677270770072937
v 0.044347234070301056 0.1228063553571701 0.7690907716751099
v 0.0492340512573719 0.11604722589254379 0.7711046934127808
v 0.04117067903280258 0.12462005764245987 0.7665377259254456
v 0.04062585532665253 0.1253577470779419 0.7654749155044556
v 0.04557476565241814 0.11244943737983704 0.7717015147209167
v 0.039334118366241455 0.11081913858652115 0.7663419246673584
v 0.039488546550273895 0.11778237670660019 0.7644839286804199
v 0.03985238075256348 0.12247613817453384 0.7635059356689453
v 0.041434794664382935 0.12559452652931213 0.7634625434875488
v 0.03985229879617691 0.11601300537586212 0.7625174522399902
v 0.04025845229625702 0.12181613594293594 0.7613050937652588
v 0.04204124957323074 0.12471795827150345 0.761266827583313
v 0.04162277281284332 0.11445897817611694 0.7603221535682678
v 0.0419989675283432 0.1202760860323906 0.7599697709083557
v 0.041887976229190826 0.10657917708158493 0.7615277767181396
v 0.03981076925992966 0.10865091532468796 0.7636504173278809
v 0.0428994745016098 0.12319139391183853 0.7606424689292908
v 0.043930619955062866 0.12673021852970123 0.7664890885353088
v 0.044434040784835815 0.12669458985328674 0.7636322379112244
v 0.044179558753967285 0.1259482502937317 0.7676535844802856
v 0.051114074885845184 0.119354248046875 0.7680695652961731
v 0.049783460795879364 0.12377826124429703 0.7664656639099121
v 0.05204460769891739 0.11821486055850983 0.7657130360603333
v 0.05009419471025467 0.12338816374540329 0.7642934918403625
v 0.04752390831708908 0.1263471245765686 0.7659799456596375
v 0.04684937000274658 0.1254165768623352 0.7674008011817932
v 0.04171761870384216 0.10334507375955582 0.7619742155075073
v 0.04595230519771576 0.10159799456596375 0.7616090774536133
v 0.04600311815738678 0.10547225177288055 0.7610601782798767
v 0.045159853994846344 0.11365234851837158 0.7594029307365417
v 0.050021857023239136 0.10690664499998093 0.7622445821762085
v 0.05229215323925018 0.10923944413661957 0.7647058963775635
v 0.051159944385290146 0.1166989728808403 0.763215184211731
v 0.04907362535595894 0.11517315357923508 0.7607531547546387
v 0.049311213195323944 0.12264646589756012 0.762217104434967
v 0.04763057827949524 0.12094944715499878 0.7602068185806274
v 0.0448344349861145 0.11977635324001312 0.7592907547950745
v 0.04676058888435364 0.12517118453979492 0.7621533870697021
v 0.04729032516479492 0.12617900967597961 0.763706386089325
v 0.04464074969291687 0.12543970346450806 0.7619048953056335
v 0.04616067558526993 0.12378650158643723 0.7607970237731934
v 0.04468773305416107 0.12343187630176544 0.760535717010498
v 0.058125901967287064 0.08172296732664108 0.7960047125816345
v 0.04102981463074684 0.08072428405284882 0.8778457045555115
v 0.04239680618047714 0.0812719315290451 0.8725128173828125
v 0.04490894079208374 0.0660027414560318 0.8667593002319336
v 0.04353844374418259 0.07296278327703476 0.864915132522583
v 0.044632744044065475 0.06191820651292801 0.8725073337554932
v 0.04260464757680893 0.0643235445022583 0.8830351829528809
v 0.04475519433617592 0.06187815219163895 0.8784767985343933
v 0.04295101761817932 0.07828778028488159 0.8673779964447021
v 0.04077335447072983 0.07735301554203033 0.8825466632843018
v 0.04146638512611389 0.07042866200208664 0.8854287266731262
v 0.028819922357797623 0.07661484181880951 0.8805563449859619
v 0.02943195402622223 0.06831422448158264 0.8826415538787842
v 0.030775509774684906 0.06147487834095955 0.8795261383056641
v 0.0360005684196949 0.05981387197971344 0.8741605281829834
v 0.038267843425273895 0.060196325182914734 0.8696268200874329
v 0.03357839211821556 0.08023335784673691 0.8749169111251831
v 0.036190059036016464 0.08081670105457306 0.870047926902771
v 0.038832370191812515 0.07718947529792786 0.8652351498603821
v 0.027604449540376663 0.08009032160043716 0.8692324757575989
v 0.02059774473309517 0.0744619071483612 0.865372359752655
v 0.018221411854028702 0.058480244129896164 0.8539751172065735
v 0.02232987806200981 0.05882774293422699 0.8593415021896362
v 0.020410891622304916 0.06072370335459709 0.8599658012390137
v 0.016552727669477463 0.059945348650217056 0.8552371263504028
v 0.023142728954553604 0.060470134019851685 0.8648303747177124
v 0.021945815533399582 0.0622265450656414 0.8638942241668701
v 0.021150168031454086 0.06727643311023712 0.865759551525116
v 0.01773543283343315 0.06639404594898224 0.8608174324035645
v 0.020486652851104736 0.07196241617202759 0.8638841509819031
v 0.018772806972265244 0.07231543958187103 0.859744131565094
v 0.014437008649110794 0.06580522656440735 0.8561491370201111
v 0.01340702548623085 0.06103360280394554 0.8530627489089966
v 0.011905651539564133 0.06520426273345947 0.852173388004303
v 0.014693345874547958 0.06011480465531349 0.8504877090454102
v 0.018875472247600555 0.06742380559444427 0.8689308762550354
v 0.029053669422864914 0.05831887945532799 0.8669473528862
v 0.025617510080337524 0.05772694945335388 0.858746349811554
v 0.021309182047843933 0.058213017880916595 0.8521984815597534
v 0.01712854579091072 0.06058362498879433 0.8485392332077026
v 0.029078982770442963 0.058898404240608215 0.8566341996192932
v 0.02481347694993019 0.060278501361608505 0.8510662913322449
v 0.021028269082307816 0.06316529959440231 0.8479365706443787
v 0.03136715665459633 0.06273645162582397 0.8547897338867188
v 0.02651653066277504 0.06377281248569489 0.8505133986473083
v 0.03841625526547432 0.06426450610160828 0.863314688205719
v 0.035154178738594055 0.059420760720968246 0.8656564950942993
v 0.023037295788526535 0.06485329568386078 0.8486616015434265
v 0.011751923710107803 0.06531308591365814 0.8495081067085266
v 0.01453636959195137 0.06600692868232727 0.8475557565689087
v 0.02005898579955101 0.07535870373249054 0.8596398234367371
v 0.015234772115945816 0.07190695405006409 0.8556677103042603
v 0.016783010214567184 0.07388626784086227 0.8544427156448364
v 0.023170635104179382 0.0776500254869461 0.8591312766075134
v 0.018863782286643982 0.07516151666641235 0.8530669808387756
v 0.013433683663606644 0.07093779742717743 0.8509624004364014
v 0.01285257562994957 0.06954257190227509 0.8531572818756104
v 0.04062112420797348 0.06429775059223175 0.8652194738388062
v 0.04078968986868858 0.07098951190710068 0.8638576865196228
v 0.038792625069618225 0.07103931158781052 0.8627174496650696
v 0.03200529143214226 0.06932216882705688 0.8546937704086304
v 0.03632594272494316 0.07704108953475952 0.862989068031311
v 0.03186352178454399 0.08022592216730118 0.8661395311355591
v 0.026374321430921555 0.07786312699317932 0.8572825193405151
v 0.029945943504571915 0.07506288588047028 0.8556979298591614
v 0.02203092724084854 0.07451637089252472 0.8516990542411804
v 0.024361472576856613 0.07268917560577393 0.8511780500411987
v 0.026269815862178802 0.0682414174079895 0.8501266241073608
v 0.01914415881037712 0.07124596834182739 0.848777711391449
v 0.01592053472995758 0.07183937728404999 0.8494059443473816
v 0.018830355256795883 0.06711956858634949 0.8473435640335083
v 0.02169957011938095 0.07070277631282806 0.8493329286575317
v 0.02203887701034546 0.06771227717399597 0.8484441041946411
v 0.060302238911390305 0.07104763388633728 0.8027947545051575
v 0.05619901418685913 0.07016927003860474 0.8080261945724487
v 0.06307484954595566 0.06888899207115173 0.8088996410369873
v 0.07274942845106125 0.06800965964794159 0.8110920190811157
v 0.0830165445804596 0.06968286633491516 0.8079882860183716
v 0.07079683989286423 0.06895076483488083 0.817509651184082
v 0.06090690940618515 0.06972946971654892 0.8148660063743591
v 0.05071932077407837 0.07199409604072571 0.8134039640426636
v 0.07716985791921616 0.07075658440589905 0.8255906105041504
f 2 3 1
f 1 3 4
f 5 6 8
f 8 6 7
f 9 4 10
f 10 4 3
f 12 13 11
f 11 13 9
f 14 12 16
f 16 12 15
f 18 19 17
f 17 19 20
f 22 23 21
f 21 23 24
f 26 27 25
f 25 27 28
f 30 31 29
f 29 31 32
f 33 34 36
f 36 34 35
f 37 38 40
f 40 38 39
f 41 42 6
f 6 42 43
f 6 43 7
f 7 43 44
f 45 34 46
f 46 34 33
f 48 49 47
f 47 49 50
f 52 53 51
f 51 53 54
f 56 52 55
f 55 52 51
f 58 59 57
f 57 59 60
f 61 62 4
f 4 62 1
f 64 65 63
f 63 65 66
f 68 69 67
f 67 69 70
f 72 73 71
f 71 73 74
f 76 77 75
f 75 77 78
f 53 79 54
f 54 79 80
f 82 83 81
f 81 83 84
f 85 86 52
f 52 86 53
f 57 60 87
f 87 60 88
f 89 90 43
f 43 90 44
f 43 42 89
f 89 42 91
f 40 39 92
f 92 39 93
f 94 70 64
f 64 70 69
f 13 61 9
f 9 61 4
f 25 28 69
f 69 28 95
f 96 25 68
f 68 25 69
f 98 99 97
f 97 99 100
f 101 102 104
f 104 102 103
f 106 30 105
f 105 30 29
f 51 54 107
f 107 54 108
f 54 80 108
f 108 80 109
f 111 112 110
f 110 112 113
f 115 5 114
f 114 5 116
f 115 41 5
f 5 41 6
f 36 35 111
f 111 35 117
f 35 118 117
f 117 118 119
f 34 120 35
f 35 120 118
f 34 45 120
f 120 45 121
f 125 126 124
f 124 126 127
f 128 129 14
f 14 129 130
f 33 131 46
f 46 131 132
f 133 94 63
f 63 94 64
f 134 135 137
f 137 135 136
f 139 140 138
f 138 140 141
f 77 142 78
f 78 142 143
f 144 145 20
f 20 145 146
f 148 149 147
f 147 149 72
f 151 152 150
f 150 152 153
f 82 101 83
f 83 101 104
f 101 82 155
f 155 82 154
f 156 157 58
f 58 157 59
f 158 68 147
f 147 68 67
f 159 146 15
f 15 146 16
f 68 158 96
f 96 158 160
f 129 66 130
f 130 66 65
f 162 163 161
f 161 163 164
f 166 167 165
f 165 167 168
f 170 171 169
f 169 171 172
f 174 171 173
f 173 171 170
f 176 177 175
f 175 177 178
f 180 181 179
f 179 181 24
f 182 183 21
f 21 183 184
f 81 185 82
f 82 185 154
f 186 187 188
f 188 187 144
f 158 71 160
f 160 71 189
f 190 135 157
f 157 135 59
f 169 172 139
f 139 172 140
f 147 72 158
f 158 72 71
f 192 193 191
f 191 193 194
f 167 166 49
f 49 166 195
f 196 190 50
f 50 190 157
f 197 198 200
f 200 198 199
f 21 24 182
f 182 24 181
f 146 159 20
f 20 159 17
f 182 181 81
f 81 181 185
f 201 185 180
f 180 185 181
f 202 203 83
f 83 203 84
f 205 206 204
f 204 206 85
f 207 22 184
f 184 22 21
f 179 24 208
f 208 24 23
f 208 209 179
f 179 209 205
f 209 210 205
f 205 210 206
f 212 206 211
f 211 206 210
f 179 205 180
f 180 205 204
f 213 176 88
f 88 176 214
f 86 85 212
f 212 85 206
f 193 217 218
f 217 219 218
f 218 219 220
f 219 18 220
f 220 18 17
f 19 221 20
f 20 221 144
f 222 223 225
f 225 223 224
f 175 226 176
f 176 226 214
f 227 87 214
f 214 87 88
f 220 17 228
f 228 17 159
f 134 213 60
f 60 213 88
f 138 229 151
f 151 229 152
f 193 192 210
f 210 192 211
f 230 194 218
f 218 194 193
f 231 232 228
f 228 232 230
f 233 234 91
f 91 234 89
f 235 236 93
f 93 236 92
f 230 232 234
f 234 232 237
f 47 238 48
f 48 238 239
f 240 191 235
f 235 191 236
f 5 8 116
f 116 8 241
f 242 243 189
f 189 243 160
f 244 245 98
f 98 245 99
f 156 246 47
f 47 246 238
f 76 247 77
f 77 247 248
f 250 125 249
f 249 125 124
f 252 253 251
f 251 253 254
f 111 110 36
f 36 110 255
f 256 33 255
f 255 33 36
f 257 258 154
f 154 258 155
f 63 169 133
f 133 169 139
f 66 170 63
f 63 170 169
f 173 170 129
f 129 170 66
f 129 128 173
f 173 128 259
f 128 260 259
f 259 260 261
f 213 134 262
f 262 134 137
f 263 264 186
f 186 264 187
f 112 265 113
f 113 265 266
f 11 267 268
f 234 233 230
f 230 233 194
f 153 269 70
f 70 269 67
f 175 178 165
f 165 178 141
f 150 153 94
f 94 153 70
f 271 221 270
f 270 221 207
f 269 153 272
f 272 153 152
f 121 45 109
f 109 45 108
f 47 50 156
f 156 50 157
f 57 273 58
f 58 273 274
f 145 275 260
f 260 275 261
f 276 149 143
f 143 149 78
f 148 269 75
f 75 269 272
f 207 277 270
f 270 277 278
f 195 196 49
f 49 196 50
f 59 135 60
f 60 135 134
f 83 104 202
f 202 104 279
f 149 148 78
f 78 148 75
f 247 278 248
f 248 278 277
f 183 182 84
f 84 182 81
f 48 239 281
f 281 239 282
f 227 223 283
f 283 223 222
f 223 226 224
f 224 226 168
f 281 282 224
f 224 282 225
f 165 168 175
f 175 168 226
f 264 263 138
f 138 263 229
f 14 16 128
f 128 16 260
f 220 228 218
f 218 228 230
f 87 227 284
f 284 227 283
f 260 16 145
f 145 16 146
f 244 98 258
f 258 98 155
f 58 274 156
f 156 274 246
f 107 285 51
f 51 285 55
f 243 286 160
f 160 286 96
f 234 237 89
f 89 237 90
f 46 132 107
f 107 132 285
f 253 252 249
f 249 252 250
f 286 26 96
f 96 26 25
f 106 105 287
f 287 105 288
f 272 152 289
f 289 152 229
f 138 151 139
f 139 151 133
f 183 290 161
f 161 290 162
f 291 292 277
f 277 292 293
f 151 150 133
f 133 150 94
f 262 275 177
f 177 275 187
f 144 187 145
f 145 187 275
f 273 57 284
f 284 57 87
f 174 136 190
f 190 136 135
f 111 117 112
f 112 117 38
f 117 119 38
f 38 119 123
f 112 38 265
f 265 38 37
f 287 288 254
f 254 288 251
f 228 159 231
f 231 159 15
f 223 227 226
f 226 227 214
f 147 67 148
f 148 67 269
f 224 168 281
f 281 168 167
f 199 163 200
f 200 163 162
f 45 46 108
f 108 46 107
f 281 167 48
f 48 167 49
f 161 164 291
f 291 164 292
f 38 123 39
f 293 294 277
f 277 294 248
f 284 283 296
f 296 283 295
f 284 296 273
f 273 296 297
f 274 273 298
f 298 273 297
f 246 274 299
f 299 274 298
f 283 222 295
f 295 222 300
f 222 225 300
f 300 225 301
f 301 225 302
f 302 225 282
f 303 304 300
f 300 304 295
f 306 307 305
f 305 307 308
f 309 310 308
f 308 310 305
f 308 307 312
f 312 307 311
f 313 314 312
f 312 314 315
f 311 316 312
f 312 316 313
f 317 304 311
f 311 304 316
f 315 309 312
f 312 309 308
f 318 319 321
f 321 319 320
f 319 318 309
f 309 318 310
f 311 307 317
f 317 307 306
f 306 297 317
f 317 297 296
f 306 322 297
f 297 322 298
f 305 323 306
f 306 323 322
f 323 305 324
f 324 305 310
f 304 317 295
f 295 317 296
f 318 325 310
f 310 325 324
f 323 324 326
f 326 324 327
f 324 325 327
f 327 325 328
f 326 327 329
f 329 327 330
f 329 331 326
f 326 331 332
f 333 330 328
f 328 330 327
f 323 326 322
f 322 326 332
f 322 332 298
f 298 332 299
f 325 318 334
f 334 318 321
f 313 316 335
f 335 316 304
f 335 336 313
f 313 336 314
f 304 303 335
f 335 303 337
f 336 335 338
f 338 335 337
f 336 339 314
f 314 339 340
f 246 299 238
f 238 299 341
f 239 342 282
f 282 342 302
f 342 239 341
f 341 239 238
f 341 331 342
f 342 331 343
f 331 329 343
f 343 329 344
f 342 343 302
f 302 343 345
f 341 299 331
f 331 299 332
f 346 301 345
f 345 301 302
f 346 303 301
f 301 303 300
f 347 337 346
f 346 337 303
f 347 346 348
f 348 346 345
f 349 347 350
f 350 347 348
f 343 344 345
f 345 344 348
f 344 351 348
f 348 351 350
f 337 347 338
f 338 347 349
f 353 338 352
f 352 338 349
f 352 355 354
f 354 355 356
f 352 349 355
f 355 349 350
f 352 354 353
f 353 354 334
f 353 334 339
f 339 334 321
f 339 336 353
f 353 336 338
f 329 330 344
f 344 330 351
f 356 351 333
f 333 351 330
f 356 355 351
f 351 355 350
f 354 356 328
f 328 356 333
f 328 325 354
f 354 325 334
f 309 315 319
f 319 315 320
f 320 340 321
f 321 340 339
f 320 315 340
f 340 315 314
f 137 136 261
f 261 136 259
f 140 166 141
f 141 166 165
f 172 171 195
f 195 171 196
f 171 174 196
f 196 174 190
f 178 177 264
f 264 177 187
f 172 195 140
f 140 195 166
f 137 261 262
f 262 261 275
f 178 264 141
f 141 264 138
f 262 177 213
f 213 177 176
f 136 174 259
f 259 174 173
f 358 359 357
f 357 359 360
f 362 363 361
f 361 363 364
f 361 364 365
f 365 364 366
f 367 368 370
f 370 368 369
f 76 371 247
f 247 371 372
f 373 374 362
f 362 374 363
f 376 377 375
f 375 377 378
f 289 229 380
f 380 229 379
f 381 379 263
f 263 379 229
f 383 384 382
f 382 384 385
f 386 368 374
f 374 368 363
f 76 289 371
f 371 289 380
f 377 376 359
f 359 376 387
f 388 386 360
f 360 386 374
f 389 383 366
f 366 383 390
f 392 393 391
f 391 393 394
f 383 382 390
f 390 382 395
f 396 365 390
f 390 365 366
f 389 366 367
f 367 366 364
f 357 397 358
f 358 397 398
f 373 399 357
f 357 399 397
f 389 367 400
f 400 367 370
f 382 385 375
f 375 385 372
f 357 360 373
f 373 360 374
f 361 401 362
f 362 401 402
f 387 388 359
f 359 388 360
f 363 368 364
f 364 368 367
f 358 398 403
f 403 398 404
f 396 392 405
f 405 392 391
f 392 395 393
f 393 395 378
f 393 403 394
f 394 403 404
f 375 378 382
f 382 378 395
f 365 396 406
f 406 396 405
f 362 402 373
f 373 402 399
f 271 270 400
f 400 270 384
f 401 361 406
f 406 361 365
f 381 369 386
f 386 369 368
f 392 396 395
f 395 396 390
f 393 378 403
f 403 378 377
f 403 377 358
f 358 377 359
f 406 405 408
f 408 405 407
f 406 408 401
f 401 408 409
f 401 409 402
f 402 409 410
f 402 410 399
f 399 410 411
f 405 391 407
f 407 391 412
f 391 394 412
f 412 394 413
f 394 404 413
f 413 404 414
f 415 416 412
f 412 416 407
f 418 419 417
f 417 419 420
f 421 422 418
f 418 422 419
f 419 422 424
f 424 422 423
f 425 426 424
f 424 426 427
f 423 428 424
f 424 428 425
f 427 420 424
f 424 420 419
f 420 429 417
f 417 429 430
f 423 422 431
f 431 422 421
f 421 409 431
f 431 409 408
f 421 432 409
f 409 432 410
f 418 433 421
f 421 433 432
f 434 433 417
f 417 433 418
f 431 416 423
f 423 416 428
f 416 431 407
f 407 431 408
f 435 434 430
f 430 434 417
f 433 434 436
f 436 434 437
f 434 435 437
f 437 435 438
f 436 437 439
f 439 437 440
f 439 441 436
f 436 441 442
f 438 443 437
f 437 443 440
f 436 442 433
f 433 442 432
f 432 442 410
f 410 442 411
f 435 430 445
f 445 430 444
f 430 429 444
f 444 429 446
f 425 428 447
f 447 428 416
f 426 425 448
f 448 425 447
f 416 415 447
f 447 415 449
f 447 449 448
f 448 449 450
f 451 452 448
f 448 452 426
f 446 452 444
f 444 452 451
f 399 411 397
f 397 411 453
f 398 454 404
f 404 454 414
f 454 398 453
f 453 398 397
f 453 441 454
f 454 441 455
f 441 439 455
f 455 439 456
f 454 455 414
f 414 455 457
f 441 453 442
f 442 453 411
f 458 413 457
f 457 413 414
f 458 415 413
f 413 415 412
f 458 459 415
f 415 459 449
f 459 458 460
f 460 458 457
f 461 459 462
f 462 459 460
f 455 456 457
f 457 456 460
f 456 463 460
f 460 463 462
f 459 461 449
f 449 461 450
f 465 450 464
f 464 450 461
f 464 467 466
f 466 467 468
f 464 461 467
f 467 461 462
f 464 466 465
f 465 466 445
f 465 445 451
f 451 445 444
f 451 448 465
f 465 448 450
f 439 440 456
f 456 440 463
f 468 463 443
f 443 463 440
f 468 467 463
f 463 467 462
f 466 468 438
f 438 468 443
f 438 435 466
f 466 435 445
f 420 427 429
f 429 427 446
f 446 427 452
f 452 427 426
f 370 369 188
f 188 369 186
f 371 376 372
f 372 376 375
f 380 379 387
f 387 379 388
f 379 381 388
f 388 381 386
f 385 384 278
f 278 384 270
f 380 387 371
f 371 387 376
f 400 370 271
f 271 370 188
f 385 278 372
f 372 278 247
f 400 384 389
f 389 384 383
f 369 381 186
f 186 381 263
f 221 271 144
f 144 271 188
f 221 19 207
f 207 19 22
f 19 18 22
f 22 18 23
f 18 219 23
f 23 219 208
f 469 470 472
f 472 470 471
f 474 475 473
f 473 475 476
f 473 476 477
f 477 476 478
f 480 481 479
f 479 481 482
f 483 484 474
f 474 484 475
f 486 487 485
f 485 487 488
f 489 490 77
f 77 490 142
f 491 489 248
f 248 489 77
f 493 494 492
f 492 494 495
f 496 480 484
f 484 480 475
f 486 497 487
f 487 497 471
f 498 496 472
f 472 496 484
f 499 493 478
f 478 493 500
f 501 502 504
f 504 502 503
f 493 492 500
f 500 492 505
f 506 477 500
f 500 477 478
f 499 478 479
f 479 478 476
f 469 507 470
f 470 507 508
f 483 509 469
f 469 509 507
f 479 482 499
f 499 482 510
f 492 495 485
f 485 495 511
f 483 469 484
f 484 469 472
f 473 512 474
f 474 512 513
f 497 498 471
f 471 498 472
f 475 480 476
f 476 480 479
f 470 508 514
f 514 508 515
f 506 502 516
f 516 502 501
f 503 502 488
f 488 502 505
f 514 515 503
f 503 515 504
f 485 488 492
f 492 488 505
f 477 506 517
f 517 506 516
f 474 513 483
f 483 513 509
f 510 292 494
f 494 292 164
f 512 473 517
f 517 473 477
f 491 481 496
f 496 481 480
f 502 506 505
f 505 506 500
f 503 488 514
f 514 488 487
f 514 487 470
f 470 487 471
f 517 516 519
f 519 516 518
f 517 519 512
f 512 519 520
f 512 520 513
f 513 520 521
f 513 521 509
f 509 521 522
f 516 501 518
f 518 501 523
f 501 504 523
f 523 504 524
f 524 504 525
f 525 504 515
f 526 527 523
f 523 527 518
f 529 530 528
f 528 530 531
f 532 533 529
f 529 533 530
f 530 533 535
f 535 533 534
f 536 537 535
f 535 537 538
f 534 539 535
f 535 539 536
f 538 531 535
f 535 531 530
f 540 541 531
f 531 541 528
f 533 532 534
f 534 532 542
f 532 520 542
f 542 520 519
f 532 543 520
f 520 543 521
f 529 544 532
f 532 544 543
f 544 529 545
f 545 529 528
f 534 542 539
f 539 542 527
f 527 542 518
f 518 542 519
f 541 546 528
f 528 546 545
f 547 544 548
f 548 544 545
f 546 549 545
f 545 549 548
f 550 547 551
f 551 547 548
f 547 550 553
f 553 550 552
f 549 554 548
f 548 554 551
f 544 547 543
f 543 547 553
f 543 553 521
f 521 553 522
f 546 541 556
f 556 541 555
f 541 540 555
f 555 540 557
f 536 539 558
f 558 539 527
f 537 536 559
f 559 536 558
f 527 526 558
f 558 526 560
f 559 558 561
f 561 558 560
f 559 562 537
f 537 562 563
f 557 563 555
f 555 563 562
f 509 522 507
f 507 522 564
f 508 565 515
f 515 565 525
f 565 508 564
f 564 508 507
f 564 552 565
f 565 552 566
f 552 550 566
f 566 550 567
f 565 566 525
f 525 566 568
f 564 522 552
f 552 522 553
f 569 524 568
f 568 524 525
f 569 526 524
f 524 526 523
f 570 560 569
f 569 560 526
f 570 569 571
f 571 569 568
f 572 570 573
f 573 570 571
f 566 567 568
f 568 567 571
f 567 574 571
f 571 574 573
f 570 572 560
f 560 572 561
f 576 561 575
f 575 561 572
f 575 578 577
f 577 578 579
f 575 572 578
f 578 572 573
f 575 577 576
f 576 577 556
f 576 556 562
f 562 556 555
f 562 559 576
f 576 559 561
f 550 551 567
f 567 551 574
f 579 574 554
f 554 574 551
f 579 578 574
f 574 578 573
f 579 554 577
f 577 554 549
f 549 546 577
f 577 546 556
f 531 538 540
f 540 538 557
f 557 538 563
f 563 538 537
f 481 294 482
f 482 294 293
f 580 486 511
f 511 486 485
f 490 489 497
f 497 489 498
f 489 491 498
f 498 491 496
f 163 495 164
f 164 495 494
f 580 490 486
f 486 490 497
f 482 293 510
f 510 293 292
f 495 163 511
f 511 163 199
f 494 493 510
f 510 493 499
f 481 491 294
f 294 491 248
f 582 583 581
f 581 583 584
f 586 587 585
f 585 587 588
f 585 588 589
f 589 588 590
f 592 593 591
f 591 593 594
f 595 596 598
f 598 596 597
f 599 600 586
f 586 600 587
f 601 602 604
f 604 602 603
f 605 606 608
f 608 606 607
f 609 607 200
f 200 607 606
f 610 611 613
f 613 611 612
f 600 614 587
f 587 614 592
f 596 605 597
f 597 605 608
f 602 615 603
f 603 615 583
f 616 614 584
f 584 614 600
f 611 618 617
f 617 618 590
f 620 621 619
f 619 621 622
f 610 623 611
f 611 623 618
f 624 589 618
f 618 589 590
f 617 590 591
f 591 590 588
f 581 625 582
f 582 625 626
f 599 627 581
f 581 627 625
f 591 594 617
f 617 594 628
f 601 610 598
f 598 610 613
f 581 584 599
f 599 584 600
f 585 629 586
f 586 629 630
f 615 616 583
f 583 616 584
f 587 592 588
f 588 592 591
f 582 626 631
f 631 626 632
f 624 620 633
f 633 620 619
f 621 620 604
f 604 620 623
f 631 632 621
f 621 632 622
f 610 601 623
f 623 601 604
f 589 624 634
f 634 624 633
f 586 630 599
f 599 630 627
f 203 202 628
f 628 202 612
f 629 585 634
f 634 585 589
f 609 593 614
f 614 593 592
f 620 624 623
f 623 624 618
f 631 621 603
f 603 621 604
f 582 631 583
f 583 631 603
f 634 633 636
f 636 633 635
f 634 636 629
f 629 636 637
f 629 637 630
f 630 637 638
f 630 638 627
f 627 638 639
f 633 619 635
f 635 619 640
f 619 622 640
f 640 622 641
f 641 622 642
f 642 622 632
f 644 635 643
f 643 635 640
f 645 646 648
f 648 646 647
f 649 650 646
f 646 650 647
f 647 650 652
f 652 650 651
f 652 653 655
f 655 653 654
f 651 656 652
f 652 656 653
f 655 648 652
f 652 648 647
f 648 657 645
f 645 657 658
f 650 649 651
f 651 649 659
f 649 637 659
f 659 637 636
f 649 660 637
f 637 660 638
f 661 660 646
f 646 660 649
f 662 661 645
f 645 661 646
f 651 659 656
f 656 659 644
f 644 659 635
f 635 659 636
f 663 662 658
f 658 662 645
f 664 661 665
f 665 661 662
f 663 666 662
f 662 666 665
f 667 664 668
f 668 664 665
f 664 667 670
f 670 667 669
f 666 671 665
f 665 671 668
f 661 664 660
f 660 664 670
f 660 670 638
f 638 670 639
f 658 672 663
f 663 672 673
f 658 657 672
f 672 657 674
f 653 656 675
f 675 656 644
f 653 675 654
f 654 675 676
f 675 644 677
f 677 644 643
f 676 675 678
f 678 675 677
f 679 680 676
f 676 680 654
f 674 680 672
f 672 680 679
f 627 639 625
f 625 639 681
f 626 682 632
f 632 682 642
f 681 682 625
f 625 682 626
f 669 683 681
f 681 683 682
f 667 684 669
f 669 684 683
f 682 683 642
f 642 683 685
f 681 639 669
f 669 639 670
f 686 641 685
f 685 641 642
f 641 686 640
f 640 686 643
f 686 687 643
f 643 687 677
f 687 686 688
f 688 686 685
f 689 687 690
f 690 687 688
f 683 684 685
f 685 684 688
f 684 691 688
f 688 691 690
f 687 689 677
f 677 689 678
f 693 678 692
f 692 678 689
f 692 695 694
f 694 695 696
f 692 689 695
f 695 689 690
f 692 694 693
f 693 694 673
f 693 673 679
f 679 673 672
f 679 676 693
f 693 676 678
f 684 667 691
f 691 667 668
f 696 691 671
f 671 691 668
f 696 695 691
f 691 695 690
f 694 696 666
f 666 696 671
f 666 663 694
f 694 663 673
f 648 655 657
f 657 655 674
f 674 655 680
f 680 655 654
f 593 162 594
f 594 162 290
f 598 597 601
f 601 597 602
f 615 608 616
f 616 608 607
f 607 609 616
f 616 609 614
f 697 595 613
f 613 595 598
f 597 608 602
f 602 608 615
f 594 290 628
f 628 290 203
f 628 612 617
f 617 612 611
f 593 609 162
f 162 609 200
f 105 29 698
f 698 29 699
f 268 126 701
f 701 126 700
f 126 125 700
f 700 125 702
f 252 703 250
f 250 703 704
f 32 268 705
f 705 268 701
f 288 105 706
f 706 105 698
f 29 32 699
f 699 32 705
f 707 251 706
f 706 251 288
f 250 704 125
f 125 704 702
f 703 252 707
f 707 252 251
f 706 708 707
f 707 708 709
f 707 709 703
f 703 709 710
f 703 710 704
f 704 710 711
f 704 711 702
f 702 711 712
f 706 698 708
f 708 698 713
f 698 699 713
f 713 699 714
f 699 705 714
f 714 705 715
f 717 708 716
f 716 708 713
f 719 720 718
f 718 720 721
f 722 723 719
f 719 723 720
f 724 725 723
f 723 725 720
f 724 726 725
f 725 726 727
f 728 721 725
f 725 721 720
f 721 728 729
f 729 728 730
f 729 731 721
f 721 731 718
f 724 723 732
f 732 723 722
f 722 710 732
f 732 710 709
f 722 733 710
f 710 733 711
f 719 734 722
f 722 734 733
f 734 719 735
f 735 719 718
f 724 732 726
f 726 732 717
f 717 732 708
f 708 732 709
f 731 736 718
f 718 736 735
f 737 734 738
f 738 734 735
f 736 739 735
f 735 739 738
f 740 737 741
f 741 737 738
f 737 740 743
f 743 740 742
f 739 744 738
f 738 744 741
f 734 737 733
f 733 737 743
f 733 743 711
f 711 743 712
f 736 731 746
f 746 731 745
f 731 729 745
f 745 729 730
f 727 726 747
f 747 726 717
f 748 727 749
f 749 727 747
f 747 717 750
f 750 717 716
f 749 747 751
f 751 747 750
f 749 752 748
f 748 752 753
f 730 753 745
f 745 753 752
f 728 725 748
f 748 725 727
f 730 728 753
f 753 728 748
f 700 702 754
f 754 702 712
f 705 701 715
f 715 701 755
f 754 755 700
f 700 755 701
f 742 756 754
f 754 756 755
f 740 757 742
f 742 757 756
f 755 756 715
f 715 756 758
f 754 712 742
f 742 712 743
f 759 714 758
f 758 714 715
f 714 759 713
f 713 759 716
f 759 760 716
f 716 760 750
f 760 759 761
f 761 759 758
f 762 760 763
f 763 760 761
f 756 757 758
f 758 757 761
f 757 764 761
f 761 764 763
f 760 762 750
f 750 762 751
f 766 751 765
f 765 751 762
f 767 765 769
f 769 765 768
f 765 762 768
f 768 762 763
f 765 767 766
f 766 767 746
f 766 746 752
f 752 746 745
f 752 749 766
f 766 749 751
f 757 740 764
f 764 740 741
f 769 764 744
f 744 764 741
f 769 768 764
f 764 768 763
f 767 769 739
f 739 769 744
f 739 736 767
f 767 736 746
f 219 217 208
f 208 217 209
f 209 217 210
f 210 217 193
f 198 580 199
f 199 580 511
f 76 75 289
f 289 75 272
f 277 207 291
f 291 207 184
f 290 183 203
f 203 183 84
f 490 580 142
f 142 580 198
f 142 198 143
f 143 198 197
f 149 276 72
f 72 276 73
f 104 103 279
f 279 103 770
f 770 596 279
f 279 596 595
f 605 596 771
f 771 596 770
f 771 770 772
f 772 770 103
f 772 103 773
f 773 103 102
f 155 774 101
f 101 774 102
f 773 102 97
f 97 102 774
f 775 773 100
f 100 773 97
f 773 775 772
f 772 775 776
f 772 776 771
f 771 776 777
f 200 606 197
f 197 606 777
f 189 71 778
f 778 71 74
f 97 774 98
f 98 774 155
f 183 161 184
f 184 161 291
f 777 276 197
f 197 276 143
f 777 606 771
f 771 606 605
f 613 612 697
f 697 612 202
f 595 697 279
f 279 697 202
f 73 276 776
f 776 276 777
f 776 775 73
f 73 775 74
f 100 778 775
f 775 778 74
f 778 100 189
f 189 100 99
f 245 242 99
f 99 242 189
f 131 33 256
f 28 1 95
f 95 1 62
f 27 2 28
f 28 2 1
f 265 115 266
f 266 115 114
f 95 62 69
f 69 62 64
f 62 61 64
f 64 61 65
f 61 13 65
f 65 13 130
f 13 12 130
f 130 12 14
f 31 11 32
f 32 11 268
f 15 12 31
f 31 12 11
f 31 30 15
f 15 30 231
f 30 106 231
f 231 106 232
f 287 237 106
f 106 237 232
f 254 90 287
f 287 90 237
f 253 44 254
f 254 44 90
f 253 249 44
f 44 249 7
f 267 127 268
f 268 127 126
f 10 3 241
f 241 3 116
f 3 2 116
f 116 2 114
f 2 27 114
f 114 27 266
f 27 26 266
f 266 26 113
f 26 286 113
f 113 286 110
f 286 243 110
f 110 243 255
f 243 242 255
f 255 242 256
f 242 245 256
f 256 245 131
f 245 244 131
f 131 244 132
f 265 37 115
f 115 37 41
f 41 37 42
f 42 37 40
f 92 91 40
f 40 91 42
f 236 233 92
f 92 233 91
f 191 194 236
f 236 194 233
f 258 285 244
f 244 285 132
f 257 55 258
f 258 55 285
f 257 154 201
f 201 154 185
f 56 201 204
f 204 201 180
f 55 257 56
f 56 257 201
f 204 85 56
f 56 85 52
f 86 122 53
f 53 122 79
f 212 215 86
f 86 215 122
f 211 216 212
f 212 216 215
f 192 280 211
f 211 280 216
f 191 240 192
f 192 240 280
f 249 124 7
f 7 124 8
f 124 127 8
f 8 127 241
f 127 267 241
f 241 267 10
f 10 267 9
f 9 267 11
