v 0.0014199316501617432 0.004409754648804665 1.1783109903335571
v 0.012650012969970703 -0.0005459003150463104 1.1797564029693604
v 0.007285255938768387 -0.004177547991275787 1.1909644603729248
v -0.003774348646402359 0.00042476318776607513 1.1873465776443481
v 0.030688606202602386 -0.0029611513018608093 1.1979036331176758
v 0.036996833980083466 0.004217058420181274 1.2032378911972046
v 0.023607395589351654 0.003371940925717354 1.214338779449463
v 0.020187392830848694 -0.003717603161931038 1.2100259065628052
v -0.008376095443964005 0.00021306611597537994 1.196045994758606
v 0.002109777182340622 -0.005171597003936768 1.199509859085083
v -0.009315956383943558 0.0050888024270534515 1.2014610767364502
v -0.017935803160071373 0.015112021006643772 1.1974222660064697
v -0.016955541446805 0.0084603950381279 1.1937850713729858
v -0.02538467012345791 0.019368717446923256 1.1952883005142212
v -0.011985212564468384 0.025038326159119606 1.196207046508789
v -0.025200270116329193 0.028390340507030487 1.1916617155075073
v -0.0035271309316158295 0.0397544801235199 1.1727049350738525
v 0.00036878883838653564 0.040794942528009415 1.1603080034255981
v -0.016262462362647057 0.03923717886209488 1.158860683441162
v -0.0185361597687006 0.03778563439846039 1.1719937324523926
v -0.005460377782583237 0.03588269650936127 1.1418061256408691
v -0.012523531913757324 0.037795551121234894 1.1510074138641357
v 0.004304800182580948 0.0404835045337677 1.152384638786316
v 0.009643316268920898 0.03828542307019234 1.1439893245697021
v 0.010004740208387375 0.009929473511874676 1.1640613079071045
v 0.020535625517368317 0.0074753537774086 1.1631040573120117
v 0.017600249499082565 0.004798561334609985 1.1684556007385254
v 0.007663987576961517 0.008334515616297722 1.169124722480774
v -0.005464192479848862 0.013043364509940147 1.2100826501846313
v -0.0009781084954738617 0.01877240277826786 1.2045196294784546
v -0.007137726992368698 0.013775963336229324 1.2026050090789795
v -0.006782233715057373 0.007396386936306953 1.2101277112960815
v 0.047138504683971405 0.002096405252814293 1.154773473739624
v 0.059018656611442566 0.00786191038787365 1.1570991277694702
v 0.05827859789133072 0.008301793597638607 1.1628904342651367
v 0.04746083915233612 0.003183005377650261 1.1593562364578247
v 0.05185014009475708 0.007189782336354256 1.1860451698303223
v 0.05776891112327576 0.011450786143541336 1.180904507637024
v 0.062123946845531464 0.020822905004024506 1.1902942657470703
v 0.053958214819431305 0.019844716414809227 1.1940120458602905
v 0.04510536789894104 0.005370385944843292 1.1943095922470093
v 0.04691207408905029 0.015867501497268677 1.1994014978408813
v 0.03713802248239517 0.015041576698422432 1.2055623531341553
v 0.023672766983509064 0.012856995686888695 1.2143962383270264
v 0.06053098291158676 0.009761868976056576 1.1445282697677612
v 0.052213966846466064 0.005336030386388302 1.1410616636276245
v -0.05742914602160454 0.018254831433296204 1.148829460144043
v -0.05454336106777191 0.023393239825963974 1.150188684463501
v -0.05056989938020706 0.016681771725416183 1.1543381214141846
v -0.05420263111591339 0.013469696044921875 1.1539119482040405
v 0.053915150463581085 0.023949401453137398 1.1320551633834839
v 0.052493155002593994 0.033904414623975754 1.1328853368759155
v 0.05964290350675583 0.03279798477888107 1.1326566934585571
v 0.061177678406238556 0.023592740297317505 1.1337474584579468
v 0.04425790160894394 0.024224840104579926 1.1299635171890259
v 0.04248882830142975 0.03475363552570343 1.1337355375289917
v -0.06723976135253906 0.01864418387413025 1.1564366817474365
v -0.06506352871656418 0.01612827554345131 1.1523174047470093
v -0.06249203532934189 0.013455002568662167 1.1588749885559082
v -0.06368197500705719 0.016702977940440178 1.1640141010284424
v -0.013299912214279175 0.005740298889577389 1.1868979930877686
v -0.00827203318476677 0.006420017220079899 1.178336262702942
v -0.03061414696276188 0.009332805871963501 1.1814604997634888
v -0.021850034594535828 0.009114543907344341 1.1804754734039307
v -0.022143898531794548 0.0092863654717803 1.1874942779541016
v -0.030047528445720673 0.009814638644456863 1.1873825788497925
v -0.012070022523403168 0.011163823306560516 1.1588882207870483
v -0.0004140809178352356 0.011383073404431343 1.1601696014404297
v -0.003503035753965378 0.011070537380874157 1.1659770011901855
v -0.01644137129187584 0.01031210832297802 1.166252613067627
v 0.003856062889099121 0.008521820418536663 1.1470094919204712
v -0.008026070892810822 0.00885937549173832 1.1467996835708618
v -0.004454366862773895 0.007026704028248787 1.139279842376709
v 0.0035259872674942017 0.0063177309930324554 1.1408149003982544
v -0.02867661416530609 0.011069794185459614 1.1494777202606201
v -0.03514984995126724 0.014704667963087559 1.1479312181472778
v -0.03486006706953049 0.01124116312712431 1.1407562494277954
v -0.02742946892976761 0.010734593495726585 1.1454509496688843
v 0.06667587161064148 0.03278926759958267 1.1328961849212646
v 0.06791970878839493 0.02364843711256981 1.1362712383270264
v 0.004785917699337006 0.02840840443968773 1.1245074272155762
v 0.010911595076322556 0.020592356100678444 1.1191200017929077
v -0.00013757869601249695 0.019331131130456924 1.1157171726226807
v -0.003823906183242798 0.027814147993922234 1.1224133968353271
v 0.04936091601848602 0.04156173765659332 1.1391534805297852
v 0.05683652311563492 0.041508764028549194 1.1368522644042969
v -0.06707166880369186 0.023501889780163765 1.1607632637023926
v -0.0627237930893898 0.021959718316793442 1.1667077541351318
v 0.0340966060757637 0.0248571690171957 1.2021509408950806
v 0.02038019895553589 0.02016540616750717 1.2112305164337158
v 0.04520949721336365 0.027560552582144737 1.1964019536972046
v 0.05302324891090393 0.03016132116317749 1.1925286054611206
v 0.061141230165958405 0.03203585371375084 1.1918641328811646
v -0.024760402739048004 0.009598641656339169 1.1746710538864136
v -0.001911614090204239 0.008849519304931164 1.1715316772460938
v 0.011845458298921585 0.010037842206656933 1.1593892574310303
v 0.01661522313952446 0.002247476950287819 1.1301730871200562
v 0.027193091809749603 0.001978987827897072 1.1319313049316406
v 0.021493226289749146 0.0018621869385242462 1.1408476829528809
v 0.0134052075445652 0.002774171531200409 1.1373908519744873
v 0.011302374303340912 0.011029690504074097 1.1180322170257568
v 0.008116569370031357 0.005083066411316395 1.1224191188812256
v -0.0018424838781356812 0.005572047084569931 1.119917392730713
v 0.0006278082728385925 0.011017346754670143 1.1153594255447388
v -0.0019064508378505707 0.01854597218334675 1.213720440864563
v 0.005303610116243362 0.022482113912701607 1.2067382335662842
v 0.054660312831401825 0.013881918042898178 1.134853482246399
v 0.06128392368555069 0.014763173647224903 1.1386525630950928
v 0.06889420747756958 0.017446616664528847 1.1408450603485107
v 0.033950500190258026 0.00364073459059 1.1601673364639282
v 0.04774846136569977 0.0036714691668748856 1.1626904010772705
v 0.04674398899078369 0.0028325477614998817 1.1675162315368652
v 0.03286212682723999 0.003236379474401474 1.1631286144256592
v 0.02590841054916382 -0.004352163523435593 1.1819719076156616
v 0.03917917609214783 -0.0013372506946325302 1.183732032775879
v 0.01913231611251831 -0.007124153897166252 1.1949453353881836
v 0.05911492556333542 0.009226657450199127 1.1709717512130737
v 0.06807994097471237 0.0103449122980237 1.1648552417755127
v 0.06766674667596817 0.012074491009116173 1.1735955476760864
v 0.06903145462274551 0.011142367497086525 1.1551440954208374
v 0.06936611980199814 0.013345274142920971 1.1465121507644653
v 0.0646514818072319 0.04433555155992508 1.1352434158325195
v 0.06621395796537399 0.015467436984181404 1.1813238859176636
v 0.011983666568994522 -0.0026187431067228317 1.2165827751159668
v 0.004978712648153305 -0.0005468279123306274 1.2218343019485474
v -0.0002523474395275116 -0.0022057387977838516 1.2167057991027832
v 0.005798421800136566 -0.004617830738425255 1.21128511428833
v -0.03566324710845947 0.01940910331904888 1.1923551559448242
v -0.03310251981019974 0.01270652562379837 1.1907379627227783
v -0.02298988215625286 0.012618420645594597 1.1940498352050781
v 0.03763558715581894 0.0010806936770677567 1.1484506130218506
v 0.04240352660417557 0.0035351263359189034 1.1371146440505981
v -0.032814741134643555 0.012107767164707184 1.175977110862732
v -0.06225582957267761 0.018620291724801064 1.170288324356079
v -0.06084433197975159 0.013053985312581062 1.167435884475708
v -0.04986681789159775 0.014227354899048805 1.1809650659561157
v -0.05244378000497818 0.02031632699072361 1.1821116209030151
v -0.0402771532535553 0.02073441818356514 1.1696655750274658
v -0.035749878734350204 0.016837535426020622 1.1717056035995483
v -0.037212759256362915 0.019760943949222565 1.169318675994873
v -0.03950856998562813 0.02542281709611416 1.1670255661010742
v -0.028702549636363983 0.01148195844143629 1.1352417469024658
v -0.022837165743112564 0.010405558161437511 1.1386300325393677
v -0.03412526100873947 0.032022975385189056 1.17111337184906
v -0.034056585282087326 0.034713324159383774 1.1846165657043457
v -0.0212356299161911 0.03577425703406334 1.1827737092971802
v -0.008959341794252396 0.01033303514122963 1.1521714925765991
v -0.019412696361541748 0.009999558329582214 1.1502549648284912
v -0.018241167068481445 0.00964744109660387 1.146247386932373
v -0.028105152770876884 0.010510481894016266 1.1711833477020264
v -0.034764692187309265 0.013990736566483974 1.1715730428695679
v -0.03348912298679352 0.011157291010022163 1.1671254634857178
v -0.02571028843522072 0.01039256900548935 1.1659811735153198
v 0.023126117885112762 0.02297084592282772 1.1225287914276123
v 0.023961186408996582 0.011595005169510841 1.1209596395492554
v -0.06137129291892052 0.01592814177274704 1.1496882438659668
v -0.05847412347793579 0.012050757184624672 1.1559741497039795
v 0.0024110451340675354 0.010582057759165764 1.1535638570785522
v -0.006954379379749298 0.03557739406824112 1.1821508407592773
v 0.013710979372262955 0.00932703074067831 1.154314637184143
v -0.022382108494639397 0.027614213526248932 1.132659673690796
v -0.02212694101035595 0.021988792344927788 1.128875494003296
v -0.027590150013566017 0.02289908565580845 1.1289222240447998
v -0.03002775087952614 0.026965809985995293 1.1314743757247925
v -0.04874936863780022 0.027410244569182396 1.1594738960266113
v -0.048418495804071426 0.021614165976643562 1.157497525215149
v -0.04855435714125633 0.021887008100748062 1.1553627252578735
v -0.04919004440307617 0.026437725871801376 1.1583868265151978
v -0.03550316020846367 0.012660328298807144 1.1750868558883667
v -0.036615461111068726 0.010151765309274197 1.1810946464538574
v -0.04102528840303421 0.011176664382219315 1.1740580797195435
v -0.03883852809667587 0.01535121351480484 1.1707741022109985
v -0.04050670191645622 0.011897766962647438 1.1838092803955078
v -0.045408379286527634 0.010959552600979805 1.1780731678009033
v -0.05206114798784256 0.03069968894124031 1.164029836654663
v -0.05764927342534065 0.029289457947015762 1.1691535711288452
v -0.04858510568737984 0.031754396855831146 1.1757529973983765
v -0.044664591550827026 0.030586430802941322 1.1693686246871948
v 0.023911938071250916 0.04146406054496765 1.1464470624923706
v 0.027696266770362854 0.03756110370159149 1.1368464231491089
v 0.013665448874235153 0.03430040180683136 1.1341371536254883
v 0.00014990940690040588 0.03198178857564926 1.1312233209609985
v -0.013448957353830338 0.028920713812112808 1.1299679279327393
v -0.01888812705874443 0.034679993987083435 1.1397496461868286
v 0.017677024006843567 0.031063484027981758 1.1279627084732056
v -0.044524047523736954 0.02067382074892521 1.1658498048782349
v -0.04157498478889465 0.029512476176023483 1.177024483680725
v -0.04186210781335831 0.025326557457447052 1.1683735847473145
v 0.015288598835468292 0.006621985696256161 1.1476114988327026
v -0.05761577934026718 0.01071837730705738 1.1651071310043335
v 0.04978550970554352 0.04541608691215515 1.1806938648223877
v 0.049977369606494904 0.049176160246133804 1.1687068939208984
v 0.041458241641521454 0.04715950787067413 1.1702028512954712
v 0.04089152067899704 0.04244494438171387 1.1826512813568115
v -0.05011816322803497 0.015033809468150139 1.158475637435913
v -0.05318614840507507 0.010784003883600235 1.1612881422042847
v -0.022299950942397118 0.01136453915387392 1.1321364641189575
v -0.02707548812031746 0.013832299038767815 1.1314018964767456
v -0.02722937986254692 0.01772189885377884 1.128281593322754
v -0.023857664316892624 0.014223217964172363 1.126862645149231
v 0.03093404322862625 0.03498643636703491 1.1326868534088135
v -0.006216477602720261 0.017230786383152008 1.114383578300476
v -0.007768694311380386 0.02559375949203968 1.1211884021759033
v 0.0399894118309021 0.04049661010503769 1.1396433115005493
v 0.03680015355348587 0.04445841163396835 1.1479097604751587
v 0.046262048184871674 0.04646214842796326 1.1483805179595947
v -0.029867365956306458 0.0325537845492363 1.1502563953399658
v 0.01920582354068756 0.043044283986091614 1.1535159349441528
v 0.03333558887243271 0.045421041548252106 1.1546326875686646
v 0.04452894628047943 0.047808144241571426 1.1555180549621582
v 0.05255972594022751 0.050044067203998566 1.1554112434387207
v 0.05368480831384659 0.04812249541282654 1.1476062536239624
v -0.060480859130620956 0.024292100220918655 1.1705281734466553
v -0.05951204150915146 0.026802269741892815 1.1658482551574707
v 0.06197819858789444 0.051482394337654114 1.1461544036865234
v 0.06048491597175598 0.052887581288814545 1.1551709175109863
v 0.030168607831001282 0.04564366489648819 1.1632617712020874
v 0.026441611349582672 0.044479839503765106 1.1729093790054321
v 0.016587458550930023 0.04319484531879425 1.1617413759231567
v 0.011819805949926376 0.04198702797293663 1.1716585159301758
v -0.028764385730028152 0.037310220301151276 1.1601933240890503
v -0.0676010474562645 0.03883446753025055 1.1517934799194336
v -0.060685813426971436 0.033247776329517365 1.1597238779067993
v -0.055642642080783844 0.03259463608264923 1.1568689346313477
v -0.06333808600902557 0.039862290024757385 1.1522873640060425
v -0.05307243764400482 0.02840486168861389 1.1622790098190308
v -0.06467349827289581 0.029949843883514404 1.1613636016845703
v 0.008341871201992035 0.03665655106306076 1.1830981969833374
v -0.04154081642627716 0.013399834744632244 1.1642714738845825
v 0.02452457696199417 0.03733019530773163 1.1853594779968262
v 0.0008696690201759338 0.029460445046424866 1.1958101987838745
v 0.01334412768483162 0.02948841080069542 1.197324514389038
v 0.041243329644203186 0.03732950612902641 1.190435767173767
v 0.028934575617313385 0.032292574644088745 1.1970891952514648
v 0.05866354703903198 0.04087958484888077 1.1879467964172363
v 0.04980882257223129 0.03948502242565155 1.1884760856628418
v 0.01846309006214142 0.026527663692831993 1.204246163368225
v -0.05704078823328018 0.028556276112794876 1.1440536975860596
v -0.05576763302087784 0.03327907621860504 1.1480021476745605
v 0.05788826197385788 0.0477459579706192 1.1801540851593018
v 0.011650163680315018 -0.006536141037940979 1.2043907642364502
v 0.02548372745513916 0.004723868332803249 1.150881290435791
v 0.023747868835926056 0.006718272343277931 1.1556673049926758
v 0.033356159925460815 0.0023680124431848526 1.1337125301361084
v 0.028626926243305206 0.0016000289469957352 1.14434015750885
v -0.06101180613040924 0.025275051593780518 1.1424174308776855
v -0.038328077644109726 0.020228546112775803 1.1456198692321777
v -0.03780738636851311 0.014391578733921051 1.1403210163116455
v 0.015703674405813217 0.00408671610057354 1.2200419902801514
v 0.009462185204029083 0.004988206550478935 1.2241363525390625
v 0.006034795194864273 0.017121223732829094 1.222306489944458
v 0.009340886026620865 0.011419257149100304 1.2246415615081787
v 0.01599213108420372 0.012727869674563408 1.2198361158370972
v 0.012946587055921555 0.018929338082671165 1.216866374015808
v 0.034429728984832764 0.0035568689927458763 1.1577616930007935
v 0.03500254452228546 0.0028658099472522736 1.1540905237197876
v 0.03442421555519104 0.023458262905478477 1.1262187957763672
v 0.034617967903614044 0.01204821839928627 1.1249940395355225
v -0.043669722974300385 0.016673987731337547 1.1861950159072876
v -0.03792744502425194 0.026154395192861557 1.1903693675994873
v -0.04568442702293396 0.022798283025622368 1.1865460872650146
v -0.05069243907928467 0.027129538357257843 1.1815965175628662
v -0.04533538967370987 0.018071373924613 1.1633903980255127
v -0.04186926782131195 0.026167720556259155 1.1713155508041382
v 0.042692966759204865 0.00033977068960666656 1.1744649410247803
v 0.029920488595962524 0.00023653171956539154 1.1701308488845825
v -0.000682339072227478 -0.002882888540625572 1.2065304517745972
v -0.004944246262311935 0.0002545975148677826 1.2117985486984253
v -0.02129819057881832 0.010580488480627537 1.1592179536819458
v -0.03917001187801361 0.031411923468112946 1.1525436639785767
v -0.03934650868177414 0.03315536305308342 1.1598635911941528
v -0.030751148238778114 0.011309625580906868 1.1589537858963013
v -0.06832265853881836 0.027131706476211548 1.1435692310333252
v -0.06430403888225555 0.025212040171027184 1.1421425342559814
v -0.0441252775490284 0.029238566756248474 1.1848959922790527
v -0.015259765088558197 0.007619061507284641 1.1386396884918213
v -0.0360015332698822 0.024953603744506836 1.1458686590194702
v -0.039046112447977066 0.02748578041791916 1.1484363079071045
v -0.005453042685985565 0.011206090450286865 1.1140615940093994
v 0.05864784121513367 0.051214367151260376 1.1683261394500732
v -0.05356188118457794 0.029176943004131317 1.152772307395935
v -0.05710095912218094 0.03735148161649704 1.1513164043426514
v -0.07045570015907288 0.03607296943664551 1.151009202003479
v -0.0711054652929306 0.03075414150953293 1.1483560800552368
v 0.04394137114286423 0.012167809531092644 1.130296230316162
v 0.02215442806482315 0.007649931125342846 1.158782720565796
v 0.010183930397033691 0.022983336821198463 1.210171103477478
v 0.002157393842935562 0.019961291924118996 1.2175465822219849
v -0.03697606176137924 0.012731648981571198 1.1570106744766235
v -0.014810347929596901 0.02477267198264599 1.1275752782821655
v -0.028767738491296768 0.030874934047460556 1.138972282409668
v -0.03729468584060669 0.027674073353409767 1.1355866193771362
v -0.04227102920413017 0.021976370364427567 1.1368845701217651
v -0.04276755079627037 0.015550743788480759 1.135506510734558
v -0.0707182064652443 0.04017448425292969 1.1461931467056274
v -0.07062939554452896 0.03617071360349655 1.14214026927948
v -0.06652151793241501 0.034234363585710526 1.1383771896362305
v -0.062137093394994736 0.0319191999733448 1.1380555629730225
v -0.058548204600811005 0.030758602544665337 1.1402565240859985
v -0.06796769797801971 0.042678073048591614 1.1479521989822388
v -0.06459291279315948 0.043136101216077805 1.149289846420288
v -0.058555878698825836 0.03979076072573662 1.1500829458236694
v -0.06762206554412842 0.04654615372419357 1.1472628116607666
v -0.06985175609588623 0.046772975474596024 1.143062949180603
v -0.0629749670624733 0.04696259647607803 1.1323165893554688
v -0.06594455987215042 0.04281942546367645 1.1347479820251465
v -0.06655201315879822 0.04514404386281967 1.1347103118896484
v -0.06501579284667969 0.049220651388168335 1.1327639818191528
v -0.064722940325737 0.05392803996801376 1.1313337087631226
v -0.06202036142349243 0.051931992173194885 1.1304532289505005
v -0.06890157610177994 0.044597312808036804 1.13849675655365
v -0.06743437051773071 0.05035614222288132 1.136220932006836
v -0.06824015080928802 0.05218745023012161 1.139883041381836
v -0.06790770590305328 0.0568549782037735 1.1375303268432617
v -0.06728178262710571 0.05543116480112076 1.1340035200119019
v -0.06930559128522873 0.048080846667289734 1.1410300731658936
v -0.06958196312189102 0.043139681220054626 1.1391050815582275
v -0.062400005757808685 0.056253090500831604 1.1307952404022217
v -0.0648120567202568 0.05666009336709976 1.1310062408447266
v -0.06640472263097763 0.05808690935373306 1.1334116458892822
v -0.06413411349058151 0.059964001178741455 1.1334096193313599
v -0.06154661625623703 0.0384155735373497 1.135823369026184
v -0.06059572100639343 0.04638521745800972 1.1326632499694824
v -0.05956730246543884 0.05206465721130371 1.132228970527649
v -0.060195162892341614 0.056357093155384064 1.1324191093444824
v -0.05784241855144501 0.047696590423583984 1.1351312398910522
v -0.05808677896857262 0.05241691321134567 1.134661316871643
v -0.05854221060872078 0.05622990429401398 1.135254979133606
v -0.05642510578036308 0.04947824031114578 1.138569951057434
v -0.05730830505490303 0.05344539135694504 1.1375131607055664
v -0.0563918799161911 0.03716292977333069 1.142365574836731
v -0.05821487307548523 0.035976581275463104 1.1391714811325073
v -0.05747065320611 0.05596088618040085 1.1371119022369385
v -0.06255139410495758 0.06013382226228714 1.1348377466201782
v -0.06771896779537201 0.05197382718324661 1.1434537172317505
v -0.0662745013833046 0.0576028898358345 1.1403117179870605
v -0.06628833711147308 0.05231597274541855 1.1451011896133423
v -0.06500238180160522 0.058069758117198944 1.1423161029815674
v -0.06597846746444702 0.060802675783634186 1.1377558708190918
v -0.06698115915060043 0.05902745574712753 1.1361669301986694
v -0.056056223809719086 0.032238781452178955 1.1440715789794922
v -0.05619219318032265 0.03641721233725548 1.148328185081482
v -0.05727230757474899 0.04026315361261368 1.1473428010940552
v -0.056975506246089935 0.05133567750453949 1.14283287525177
v -0.05966043099761009 0.04342588409781456 1.14955472946167
v -0.06461536139249802 0.04727737605571747 1.1488019227981567
v -0.06384972482919693 0.053226128220558167 1.1459152698516846
v -0.06057736277580261 0.05301407724618912 1.145746111869812
v -0.06280533969402313 0.05732952803373337 1.1432913541793823
v -0.060481179505586624 0.0563085675239563 1.1428747177124023
v -0.05780339986085892 0.054982706904411316 1.1407318115234375
v -0.061678219586610794 0.05956275016069412 1.1403539180755615
v -0.06418414413928986 0.06065214425325394 1.1391427516937256
v -0.060209520161151886 0.05911847949028015 1.1370586156845093
v -0.06032615900039673 0.05825895071029663 1.1410627365112305
v -0.05902343615889549 0.057329073548316956 1.138629674911499
v -0.05644213780760765 0.02566409483551979 1.1292916536331177
v -0.055044982582330704 0.031562015414237976 1.1296861171722412
v -0.05559123307466507 0.025750793516635895 1.134291410446167
v -0.05802186205983162 0.021846836432814598 1.1354334354400635
v -0.06908456981182098 0.026324748992919922 1.1354659795761108
v -0.06501826643943787 0.02300896868109703 1.13189697265625
v -0.06661666929721832 0.022587334737181664 1.140610694885254
v -0.06800812482833862 0.028437485918402672 1.1432892084121704
v -0.06918652355670929 0.03256886452436447 1.1374913454055786
v -0.06518629193305969 0.03361651673913002 1.1438459157943726
v -0.06749866902828217 0.03091772273182869 1.1477489471435547
v -0.06628641486167908 0.02389160916209221 1.1459800004959106
v -0.05183032155036926 0.021925577893853188 1.159193515777588
v -0.052763793617486954 0.028776172548532486 1.1602939367294312
v -0.040494196116924286 0.02015431970357895 1.1471171379089355
v -0.040859151631593704 0.024639779701828957 1.1461580991744995
v -0.060067612677812576 0.023393478244543076 1.1297874450683594
v -0.06241895258426666 0.020612291991710663 1.1374781131744385
v -0.051595065742731094 0.031134072691202164 1.1341722011566162
v -0.052900005131959915 0.02586182951927185 1.1340454816818237
v -0.05334407091140747 0.029930483549833298 1.133435845375061
v -0.05437689647078514 0.034632373601198196 1.1343647241592407
v -0.04688643664121628 0.015950538218021393 1.155271053314209
v -0.04267704486846924 0.01729917898774147 1.1518410444259644
v -0.04982127249240875 0.017981544137001038 1.156943917274475
v -0.053707875311374664 0.03674536943435669 1.137189269065857
v -0.0580935925245285 0.039951469749212265 1.141335129737854
v -0.04627148061990738 0.036851122975349426 1.1518237590789795
v -0.04300302267074585 0.03349161893129349 1.1479933261871338
v -0.06366527825593948 0.0204438678920269 1.1428228616714478
v -0.05648641288280487 0.021616380661725998 1.135787844657898
v -0.0597417876124382 0.01925831101834774 1.13875412940979
v -0.06342340260744095 0.03697311878204346 1.1461185216903687
v -0.06206277757883072 0.03845735639333725 1.1396540403366089
v -0.06361830234527588 0.04567956551909447 1.1234694719314575
v -0.0624353289604187 0.041435591876506805 1.1339279413223267
v -0.057860247790813446 0.04038542881608009 1.131864309310913
v -0.05891014635562897 0.04552851617336273 1.1225110292434692
v -0.05841623246669769 0.0376514308154583 1.1373707056045532
v -0.06649565696716309 0.03860794007778168 1.1352306604385376
v -0.05634016916155815 0.033812351524829865 1.1158212423324585
v -0.05383514612913132 0.03942407667636871 1.1181280612945557
v -0.060064446181058884 0.03124381974339485 1.1148844957351685
v -0.05019834265112877 0.03514135256409645 1.1570065021514893
v -0.06948673725128174 0.03227945789694786 1.1186810731887817
v -0.06417839229106903 0.030186999589204788 1.1157252788543701
v -0.054608069360256195 0.037091758102178574 1.130839467048645
v -0.05519324913620949 0.04371083527803421 1.1204071044921875
v -0.06757883727550507 0.04361753165721893 1.1231639385223389
v -0.07101695984601974 0.037138257175683975 1.1225850582122803
v -0.06455036252737045 0.04598313570022583 1.1172375679016113
v -0.06855295598506927 0.0421416237950325 1.1152162551879883
v -0.06785322725772858 0.03812713921070099 1.1116807460784912
v -0.06387858092784882 0.03480038046836853 1.1103733777999878
v -0.06000518053770065 0.0342421680688858 1.1111217737197876
v -0.06126778572797775 0.047109682112932205 1.117671251296997
v -0.057055503129959106 0.04654454439878464 1.1173813343048096
v -0.054424162954092026 0.04333258047699928 1.1171889305114746
v -0.05634862929582596 0.048920758068561554 1.1117327213287354
v -0.05993129685521126 0.0491703599691391 1.109659194946289
v -0.05974266678094864 0.043117694556713104 1.0942816734313965
v -0.06237143278121948 0.0417385995388031 1.0990478992462158
v -0.06272619962692261 0.044240616261959076 1.0993152856826782
v -0.06018564850091934 0.045781902968883514 1.0951391458511353
v -0.06535857915878296 0.04206724464893341 1.1037871837615967
v -0.06457846611738205 0.04416445642709732 1.1029880046844482
v -0.06338958442211151 0.04707136005163193 1.1061640977859497
v -0.06049570441246033 0.04779715836048126 1.1015217304229736
v -0.057832490652799606 0.050307564437389374 1.1045290231704712
v -0.05580610781908035 0.05229126662015915 1.1001158952713013
v -0.058743711560964584 0.050218284130096436 1.096876859664917
v -0.06053314357995987 0.04941677302122116 1.1068966388702393
v -0.05816705524921417 0.047457531094551086 1.0929628610610962
v -0.056335244327783585 0.04634226858615875 1.0915863513946533
v -0.06465964019298553 0.04600990563631058 1.1079156398773193
v -0.06414087861776352 0.03684034198522568 1.1063615083694458
v -0.0605962797999382 0.039300840348005295 1.098780632019043
v -0.057081516832113266 0.041351255029439926 1.0940358638763428
v -0.05339279770851135 0.04567127674818039 1.0920231342315674
v -0.05676226317882538 0.03820531815290451 1.099326729774475
v -0.0540333166718483 0.040947068482637405 1.0949808359146118
v -0.05142132192850113 0.04490186274051666 1.0936788320541382
v -0.05246306210756302 0.03867160528898239 1.100932002067566
v -0.050392959266901016 0.04180600494146347 1.0968936681747437
v -0.056343745440244675 0.03537669777870178 1.1102300882339478
v -0.060250505805015564 0.03455917537212372 1.1078709363937378
v -0.05018026754260063 0.043920472264289856 1.0954301357269287
v -0.05470680072903633 0.050777286291122437 1.0926626920700073
v -0.05165298283100128 0.04933392256498337 1.092911720275879
v -0.056182023137807846 0.05075571686029434 1.0937315225601196
v -0.05601535364985466 0.05074525624513626 1.1055940389633179
v -0.053552817553281784 0.052209869027137756 1.100601315498352
v -0.05343586578965187 0.05039471387863159 1.1064763069152832
v -0.05119839683175087 0.05174138396978378 1.100614070892334
v -0.05262456834316254 0.05279652029275894 1.096355676651001
v -0.054293639957904816 0.052714817225933075 1.0960285663604736
v -0.056921519339084625 0.03611038625240326 1.1132503747940063
v -0.05419763922691345 0.04018084704875946 1.1157889366149902
v -0.053215283900499344 0.03862031549215317 1.1130385398864746
v -0.04953334480524063 0.04168710857629776 1.1036739349365234
v -0.05269986391067505 0.042668990790843964 1.1144565343856812
v -0.053672194480895996 0.0468774177134037 1.112979769706726
v -0.05121677368879318 0.04873737692832947 1.107015609741211
v -0.049233242869377136 0.04566450044512749 1.1058098077774048
v -0.049230437725782394 0.051045261323451996 1.101351261138916
v -0.04837238788604736 0.04796545207500458 1.10199773311615
v -0.04823392629623413 0.04394758120179176 1.0994634628295898
v -0.04888707399368286 0.051236607134342194 1.0969338417053223
v -0.050905101001262665 0.05236775428056717 1.0963767766952515
v -0.05022592842578888 0.048121608793735504 1.094051480293274
v -0.04798725247383118 0.048840925097465515 1.098435640335083
v -0.048844754695892334 0.046189479529857635 1.0961227416992188
v -0.04026419669389725 0.008828548714518547 1.1076428890228271
v -0.035695865750312805 0.01166566088795662 1.1087919473648071
v -0.035688336938619614 0.010131634771823883 1.1123446226119995
v -0.040295522660017014 0.00774659588932991 1.1123713254928589
v -0.05074676498770714 0.016999738290905952 1.1073834896087646
v -0.04896314814686775 0.01225702278316021 1.1060062646865845
v -0.04979144036769867 0.01195690967142582 1.1117790937423706
v -0.05200221389532089 0.016918504610657692 1.1141005754470825
v -0.048523593693971634 0.022604720667004585 1.1070600748062134
v -0.049712277948856354 0.02316940948367119 1.1144273281097412
v -0.05236046016216278 0.017917541787028313 1.1187573671340942
v -0.05013810843229294 0.012207373976707458 1.1166338920593262
v -0.045113950967788696 0.013637380674481392 1.1303211450576782
v -0.04675627127289772 0.02019217051565647 1.1311451196670532
v -0.044935233891010284 0.009759875014424324 1.1063038110733032
v -0.04515742138028145 0.008914699777960777 1.1117041110992432
v -0.033954739570617676 0.018330037593841553 1.1130119562149048
v -0.03389671444892883 0.013957051560282707 1.1127169132232666
v -0.03349991887807846 0.01480552926659584 1.1119308471679688
v -0.03418446704745293 0.01904333382844925 1.1124259233474731
v -0.03589823469519615 0.009173640981316566 1.1306750774383545
v -0.031426802277565 0.01207848358899355 1.1290439367294312
v -0.040795035660266876 0.010151530615985394 1.1298174858093262
v -0.03800547495484352 0.023740706965327263 1.1141228675842285
v -0.04413988068699837 0.027174286544322968 1.1159392595291138
v -0.036597780883312225 0.027892010286450386 1.1257256269454956
v -0.03201708942651749 0.024363134056329727 1.1243772506713867
v -0.04578011855483055 0.009128979407250881 1.1159063577651978
v -0.03608238697052002 0.009260950610041618 1.1142454147338867
v -0.04069224372506142 0.007262120954692364 1.1151199340820312
v -0.049586221575737 0.023799603804945946 1.1184172630310059
v -0.04391099512577057 0.025446400046348572 1.1128877401351929
v -0.03627832978963852 0.029566003009676933 1.0949128866195679
v -0.038708146661520004 0.02557429112493992 1.10982346534729
v -0.03446187078952789 0.02144738845527172 1.1100897789001465
v -0.032718464732170105 0.02745467610657215 1.0963588953018188
v -0.03797132894396782 0.02397586591541767 1.1125339269638062
v -0.04420562461018562 0.026339249685406685 1.108702540397644
v -0.033470384776592255 0.01388598419725895 1.0922406911849976
v -0.030894387513399124 0.017677759751677513 1.0955212116241455
v -0.03727681562304497 0.013755006715655327 1.0907260179519653
v -0.043542735278606415 0.026474658399820328 1.129612922668457
v -0.02927803248167038 0.018369359895586967 1.1255778074264526
v -0.042156778275966644 0.018660321831703186 1.088344931602478
v -0.03992651402950287 0.015017317607998848 1.0889525413513184
v -0.033829547464847565 0.016810255125164986 1.10969078540802
v -0.030253633856773376 0.023246964439749718 1.0968266725540161
v -0.0401187539100647 0.02823653258383274 1.0930781364440918
v -0.04308410733938217 0.0236944742500782 1.0909346342086792
v -0.0358925424516201 0.030058521777391434 1.0902022123336792
v -0.03736405819654465 0.02617376483976841 1.086685299873352
v -0.035873785614967346 0.02241414412856102 1.0839238166809082
v -0.03418359532952309 0.018557671457529068 1.0845189094543457
v -0.032340891659259796 0.016534166410565376 1.0864125490188599
v -0.032747458666563034 0.030032876878976822 1.093058705329895
v -0.030871491879224777 0.027086172252893448 1.0949323177337646
v -0.0305311419069767 0.02342570386826992 1.095108985900879
v -0.029192013666033745 0.030053267255425453 1.0955036878585815
v -0.029740095138549805 0.032137274742126465 1.0905479192733765
v -0.01592078059911728 0.02735656313598156 1.0836734771728516
v -0.02132638916373253 0.026157191023230553 1.0835248231887817
v -0.021406453102827072 0.02735271118581295 1.0840224027633667
v -0.016147058457136154 0.028930677101016045 1.0838799476623535
v -0.028362926095724106 0.026490651071071625 1.0832828283309937
v -0.02646414376795292 0.028068577870726585 1.083905816078186
v -0.028245728462934494 0.030528845265507698 1.0864595174789429
v -0.02162819914519787 0.03145439550280571 1.0871548652648926
v -0.022433660924434662 0.03237500786781311 1.0929293632507324
v -0.017698679119348526 0.032476603984832764 1.0921576023101807
v -0.016728945076465607 0.032389573752880096 1.0868571996688843
v -0.027623048052191734 0.03224974870681763 1.090743064880371
v -0.01361003890633583 0.030139150097966194 1.0848177671432495
v -0.012184634804725647 0.02933756820857525 1.0833271741867065
v -0.031076906248927116 0.02947133779525757 1.0856021642684937
v -0.028363458812236786 0.02151067741215229 1.0823782682418823
v -0.020551122725009918 0.02343202754855156 1.0831464529037476
v -0.014721047133207321 0.024155626073479652 1.0830739736557007
v -0.011465594172477722 0.026168478652834892 1.0851116180419922
v -0.01971190795302391 0.02097497135400772 1.0856802463531494
v -0.014670968055725098 0.022355029359459877 1.0856828689575195
v -0.011549592018127441 0.024151621386408806 1.0872838497161865
v -0.019439078867435455 0.01990419253706932 1.088693618774414
v -0.015002608299255371 0.021719317883253098 1.0888468027114868
v -0.02884063869714737 0.016948852688074112 1.08861243724823
v -0.02855493128299713 0.01871383748948574 1.0851223468780518
v -0.012527909129858017 0.02337382733821869 1.089158058166504
v -0.011821180582046509 0.03223469853401184 1.0872485637664795
v -0.010530740022659302 0.029185963794589043 1.0897806882858276
v -0.013651058077812195 0.031759485602378845 1.0873560905456543
v -0.023046594113111496 0.03209133446216583 1.0946203470230103
v -0.016898263245821 0.03287699073553085 1.0943377017974854
v -0.02268899977207184 0.030312232673168182 1.0969011783599854
v -0.016596656292676926 0.03119027055799961 1.0966179370880127
v -0.013754911720752716 0.03316469490528107 1.0920733213424683
v -0.014359015971422195 0.03284236788749695 1.091139554977417
v -0.03140179440379143 0.016682278364896774 1.0899488925933838
v -0.03011382184922695 0.019272826611995697 1.0934489965438843
v -0.02864944003522396 0.01824933849275112 1.0928298234939575
v -0.019025089219212532 0.02061503566801548 1.093193531036377
v -0.02921873889863491 0.021733662113547325 1.0956271886825562
v -0.027427710592746735 0.026736360043287277 1.0966992378234863
v -0.021488355472683907 0.027239637449383736 1.0976089239120483
v -0.019829068332910538 0.023908916860818863 1.0962756872177124
v -0.016061417758464813 0.028415782377123833 1.0974318981170654
v -0.016324929893016815 0.025775736197829247 1.0960689783096313
v -0.014784589409828186 0.022213861346244812 1.0929278135299683
v -0.013154558837413788 0.028562700375914574 1.0944807529449463
v -0.013013023883104324 0.03130749613046646 1.0939234495162964
v -0.010869786143302917 0.02649124152958393 1.091064453125
v -0.013532109558582306 0.02625088207423687 1.094603419303894
v -0.011835135519504547 0.024565087631344795 1.091987133026123
v -0.029218299314379692 0.015011070296168327 1.1272753477096558
v -0.029073305428028107 0.038769736886024475 1.1223866939544678
v -0.030233711004257202 0.040541358292102814 1.1192795038223267
v -0.03150363266468048 0.03447584807872772 1.1158363819122314
v -0.031123168766498566 0.03259842097759247 1.1193512678146362
v -0.018690478056669235 0.03639491647481918 1.1220942735671997
v -0.022648587822914124 0.03685149550437927 1.1239861249923706
v -0.02385030873119831 0.03234643489122391 1.122512936592102
v -0.01945742405951023 0.03198616951704025 1.1207389831542969
v -0.016322221606969833 0.03804406523704529 1.1185051202774048
v -0.01692463643848896 0.03377608209848404 1.116726040840149
v -0.01855897344648838 0.032429177314043045 1.1219793558120728
v -0.02318238653242588 0.031075462698936462 1.1233474016189575
v -0.020123828202486038 0.023721762001514435 1.1260185241699219
v -0.015640459954738617 0.02572214975953102 1.1248712539672852
v -0.012690167874097824 0.012299558147788048 1.1107069253921509
v -0.013642609119415283 0.008483320474624634 1.115934133529663
v -0.021143527701497078 0.017482440918684006 1.1116777658462524
v -0.016501134261488914 0.01965527981519699 1.1102488040924072
v -0.02627572789788246 0.03767126053571701 1.124097466468811
v -0.028494641184806824 0.03304645046591759 1.1222474575042725
v -0.02314063161611557 0.028507407754659653 1.1086288690567017
v -0.027440287172794342 0.02839967980980873 1.110852599143982
v -0.030591931194067 0.03471982479095459 1.1117604970932007
v -0.0266861729323864 0.035032421350479126 1.108554482460022
v -0.017422640696167946 0.008856707252562046 1.1200326681137085
v -0.01917438395321369 0.010888931341469288 1.1245794296264648
v -0.02471858635544777 0.013590512797236443 1.1208022832870483
v -0.02472904697060585 0.017167147248983383 1.1150634288787842
v -0.026387065649032593 0.018463294953107834 1.1240334510803223
v -0.019128696992993355 0.030060820281505585 1.109050989151001
v -0.01580807752907276 0.03192587196826935 1.1117875576019287
v -0.008207060396671295 0.023691590875387192 1.1140520572662354
v -0.011233620345592499 0.020998191088438034 1.1117217540740967
v -0.02767493575811386 0.02961781620979309 1.122624397277832
v -0.029956603422760963 0.0293550007045269 1.1146262884140015
v -0.029631327837705612 0.028218436986207962 1.1188452243804932
v -0.015286924317479134 0.03340344876050949 1.1174025535583496
v -0.017885927110910416 0.03537460416555405 1.111188530921936
v -0.02110070362687111 0.052647098898887634 1.1171925067901611
v -0.02244458720088005 0.04167075455188751 1.1106534004211426
v -0.026841627433896065 0.04262319952249527 1.1121830940246582
v -0.023427382111549377 0.05332653224468231 1.1184624433517456
v -0.021567517891526222 0.03405804932117462 1.1081467866897583
v -0.017839841544628143 0.04020513594150543 1.113213300704956
v -0.02570272423326969 0.04846275597810745 1.127976417541504
v -0.026958633214235306 0.0509105920791626 1.1237915754318237
v -0.023294441401958466 0.04677402600646019 1.1290405988693237
v -0.009987343102693558 0.02655092254281044 1.120086669921875
v -0.01680861972272396 0.045593805611133575 1.126240849494934
v -0.020080184563994408 0.0459139347076416 1.1290228366851807
v -0.029486652463674545 0.04179556667804718 1.1156787872314453
v -0.025709494948387146 0.05249795317649841 1.1203749179840088
v -0.017778713256120682 0.05073694884777069 1.1180356740951538
v -0.015163328498601913 0.0470525361597538 1.1218175888061523
v -0.016857603564858437 0.054719582200050354 1.1221553087234497
v -0.014780137687921524 0.04975780099630356 1.124731421470642
v -0.01629483327269554 0.04706968367099762 1.1289823055267334
v -0.019879039376974106 0.046372152864933014 1.1305224895477295
v -0.023031827062368393 0.04706800729036331 1.130832552909851
v -0.020146150141954422 0.05665869265794754 1.1216280460357666
v -0.02271910570561886 0.056578539311885834 1.1226855516433716
v -0.02560517191886902 0.05488387495279312 1.1235272884368896
v -0.019658943638205528 0.05865245312452316 1.1265980005264282
v -0.015511579811573029 0.05692508816719055 1.1282085180282593
v -0.01611838862299919 0.05222232639789581 1.1412104368209839
v -0.016433464363217354 0.050040505826473236 1.137587070465088
v -0.015450065955519676 0.05075188726186752 1.1370298862457275
v -0.014926215633749962 0.05238467454910278 1.1410865783691406
v -0.015369584783911705 0.0484747588634491 1.132387638092041
v -0.01467212475836277 0.049777038395404816 1.132807970046997
v -0.014178168028593063 0.0519523099064827 1.1301499605178833
v -0.013563351705670357 0.054106004536151886 1.1351629495620728
v -0.014923229813575745 0.05898802727460861 1.1338212490081787
v -0.01413194090127945 0.0602172389626503 1.1381088495254517
v -0.012681182473897934 0.05582578480243683 1.1388670206069946
v -0.014332840219140053 0.05612955242395401 1.1300647258758545
v -0.013937370851635933 0.054192349314689636 1.1430389881134033
v -0.014590300619602203 0.054161302745342255 1.1442660093307495
v -0.014192678034305573 0.05174475908279419 1.1285125017166138
v -0.019069064408540726 0.04634743928909302 1.1327965259552002
v -0.018389035016298294 0.04936990141868591 1.1388435363769531
v -0.01754860393702984 0.05229391157627106 1.1430381536483765
v -0.016409890726208687 0.05531413108110428 1.1450237035751343
v -0.021061642095446587 0.049285221844911575 1.1383213996887207
v -0.019926385954022408 0.05267535150051117 1.1432735919952393
v -0.018832270056009293 0.05582709610462189 1.144966721534729
v -0.023965034633874893 0.05075587332248688 1.137402057647705
v -0.02195644937455654 0.053953565657138824 1.1420048475265503
v -0.02566489577293396 0.04840298742055893 1.1310664415359497
v -0.0226005706936121 0.04672864079475403 1.1324561834335327
v -0.020188933238387108 0.056077636778354645 1.1437119245529175
v -0.013241231441497803 0.05771705508232117 1.1435682773590088
v -0.015961669385433197 0.05853212624788284 1.1445499658584595
v -0.012496426701545715 0.05740974098443985 1.1422895193099976
v -0.016053779050707817 0.06001260131597519 1.1332731246948242
v -0.015209758654236794 0.061528533697128296 1.138375997543335
v -0.018587151542305946 0.06100334972143173 1.132943034172058
v -0.01736357994377613 0.06204991787672043 1.1388425827026367
v -0.014186026528477669 0.060851581394672394 1.141891360282898
v -0.01322319358587265 0.059591978788375854 1.140791654586792
v -0.025929495692253113 0.04908222705125809 1.1294893026351929
v -0.02670409344136715 0.05251774936914444 1.126081943511963
v -0.02668037824332714 0.05234892666339874 1.1285614967346191
v -0.025387175381183624 0.054174527525901794 1.1355983018875122
v -0.025441007688641548 0.05551556497812271 1.1269152164459229
v -0.0225592739880085 0.057877570390701294 1.1263903379440308
v -0.021328266710042953 0.06019924581050873 1.1332902908325195
v -0.023953160271048546 0.0580546110868454 1.1342377662658691
v -0.01951937936246395 0.0614471361041069 1.1394892930984497
v -0.02196965552866459 0.05950383096933365 1.1397948265075684
v -0.023141000419855118 0.05663541704416275 1.1407800912857056
v -0.018219174817204475 0.06030096113681793 1.1429246664047241
v -0.016369013115763664 0.06095364689826965 1.1428582668304443
v -0.018134089186787605 0.05850671976804733 1.144283652305603
v -0.02005576901137829 0.059385575354099274 1.1426559686660767
v -0.020298408344388008 0.05791189521551132 1.1432243585586548
v -0.01166531816124916 0.016485512256622314 1.1107741594314575
v -0.011130228638648987 0.014875629916787148 1.2237969636917114
v -0.01461145281791687 0.011044604703783989 1.220956802368164
v -0.00912054255604744 -0.0020999256521463394 1.2271242141723633
v -0.013933859765529633 0.0004945825785398483 1.2228870391845703
v -0.0048319995403289795 -0.0006362069398164749 1.2317570447921753
v -0.0007053092122077942 0.008746122941374779 1.2326422929763794
v -0.0013463832437992096 0.00364823080599308 1.232710361480713
v -0.015953779220581055 0.005083674564957619 1.2207424640655518
v -0.006925564259290695 0.016969023272395134 1.2269010543823242
v -0.0022388286888599396 0.01457957737147808 1.230827808380127
v -0.01142885535955429 0.015717562288045883 1.2337945699691772
v -0.007058344781398773 0.01234101876616478 1.2370834350585938
v -0.006488576531410217 0.005524790845811367 1.2389743328094482
v -0.00780833512544632 0.0009083356708288193 1.238460659980774
v -0.010130155831575394 -0.002203766256570816 1.2369205951690674
v -0.01596955768764019 0.014821557328104973 1.2297484874725342
v -0.019755909219384193 0.011332092806696892 1.226728916168213
v -0.020076602697372437 0.005224896594882011 1.2255455255508423
v -0.020841602236032486 0.016050636768341064 1.2361774444580078
v -0.021610958501696587 0.01596054434776306 1.2465740442276
v -0.02269580587744713 0.004475298337638378 1.2601033449172974
v -0.01923295110464096 0.002717871218919754 1.2552884817123413
v -0.018950462341308594 0.0058348048478364944 1.2558714151382446
v -0.021425671875476837 0.0071722110733389854 1.2605316638946533
v -0.016221530735492706 0.004265060648322105 1.2519856691360474
v -0.0172281414270401 0.006483821198344231 1.2529562711715698
v -0.01807117462158203 0.011439329944550991 1.2503925561904907
v -0.019690141081809998 0.012544741854071617 1.2547872066497803
v -0.021273300051689148 0.015105677768588066 1.2489843368530273
v -0.023631855845451355 0.01613231748342514 1.250952124595642
v -0.022094015032052994 0.013492881320416927 1.2587919235229492
v -0.022813614457845688 0.00976125430315733 1.2626945972442627
v -0.024587314575910568 0.013776800595223904 1.2619589567184448
v -0.02543264627456665 0.007756426930427551 1.2626862525939941
v -0.017494328320026398 0.01159599144011736 1.2503801584243774
v -0.01408068835735321 -0.0003856401890516281 1.2463880777359009
v -0.01998906582593918 -0.00011291541159152985 1.2522050142288208
v -0.024924492463469505 0.0024514682590961456 1.2575387954711914
v -0.028012936934828758 0.006489049643278122 1.261159896850586
v -0.022502372041344643 -0.001697435975074768 1.2487337589263916
v -0.02724001184105873 0.0015560407191514969 1.2535195350646973
v -0.030238807201385498 0.005794866010546684 1.2564327716827393
v -0.025668451562523842 -0.0009293295443058014 1.2451388835906982
v -0.02913464605808258 0.002687441185116768 1.2502639293670654
v -0.017475217580795288 -0.0029063336551189423 1.2350661754608154
v -0.014713820070028305 -0.0032613035291433334 1.240934133529663
v -0.030640825629234314 0.005666540935635567 1.253473162651062
v -0.02699674665927887 0.01364167034626007 1.2629317045211792
v -0.03018002025783062 0.012241422198712826 1.26115083694458
v -0.025669127702713013 0.01731649413704872 1.2482465505599976
v -0.025358200073242188 0.0179074015468359 1.25520658493042
v -0.028118722140789032 0.01798376813530922 1.2531719207763672
v -0.02742174081504345 0.01669302023947239 1.2444133758544922
v -0.030450498685240746 0.017161775380373 1.2509666681289673
v -0.028633568435907364 0.017320144921541214 1.2584296464920044
v -0.025746524333953857 0.016935110092163086 1.2589515447616577
v -0.013010282069444656 -0.0027779731899499893 1.2317970991134644
v -0.016421830281615257 0.0001955237239599228 1.2268388271331787
v -0.021003015339374542 0.0013703592121601105 1.2307723760604858
v -0.028533022850751877 0.002888367511332035 1.2406672239303589
v -0.02438926510512829 0.007380271330475807 1.2300623655319214
v -0.02366749569773674 0.01334751769900322 1.2325905561447144
v -0.029500339180231094 0.014178009703755379 1.2416423559188843
v -0.030078135430812836 0.009226318448781967 1.2397358417510986
v -0.03208237886428833 0.014065451920032501 1.2489463090896606
v -0.032221294939517975 0.010978532955050468 1.2479486465454102
v -0.03146527707576752 0.005972602404654026 1.248439073562622
v -0.032533910125494 0.013274110853672028 1.253987431526184
v -0.031232377514243126 0.016108108684420586 1.256300449371338
v -0.03192693740129471 0.010233934037387371 1.2569016218185425
v -0.03237701952457428 0.010970036499202251 1.2516756057739258
v -0.03182421252131462 0.008523228578269482 1.2531787157058716
v -0.007206156849861145 0.006934276781976223 1.1188188791275024
v -0.010774191468954086 0.00609161052852869 1.1241766214370728
v -0.003656052052974701 0.0038987770676612854 1.1252241134643555
v 0.006436280906200409 0.002974395640194416 1.127726674079895
v 0.016771826893091202 0.004648018628358841 1.1246554851531982
v 0.0045803748071193695 0.0038711577653884888 1.1342494487762451
v -0.005475811660289764 0.004741325043141842 1.1314071416854858
v -0.015163568779826164 0.007784984074532986 1.1304327249526978
v 0.011007852852344513 0.00565700139850378 1.1424529552459717
f 2 3 1
f 1 3 4
f 5 6 8
f 8 6 7
f 9 4 10
f 10 4 3
f 12 13 11
f 11 13 9
f 14 12 16
f 16 12 15
f 18 19 17
f 17 19 20
f 22 23 21
f 21 23 24
f 26 27 25
f 25 27 28
f 30 31 29
f 29 31 32
f 33 34 36
f 36 34 35
f 37 38 40
f 40 38 39
f 41 42 6
f 6 42 43
f 6 43 7
f 7 43 44
f 45 34 46
f 46 34 33
f 48 49 47
f 47 49 50
f 52 53 51
f 51 53 54
f 56 52 55
f 55 52 51
f 58 59 57
f 57 59 60
f 61 62 4
f 4 62 1
f 64 65 63
f 63 65 66
f 68 69 67
f 67 69 70
f 72 73 71
f 71 73 74
f 76 77 75
f 75 77 78
f 53 79 54
f 54 79 80
f 82 83 81
f 81 83 84
f 85 86 52
f 52 86 53
f 57 60 87
f 87 60 88
f 89 90 43
f 43 90 44
f 43 42 89
f 89 42 91
f 40 39 92
f 92 39 93
f 94 70 64
f 64 70 69
f 13 61 9
f 9 61 4
f 25 28 69
f 69 28 95
f 96 25 68
f 68 25 69
f 98 99 97
f 97 99 100
f 101 102 104
f 104 102 103
f 106 30 105
f 105 30 29
f 51 54 107
f 107 54 108
f 54 80 108
f 108 80 109
f 111 112 110
f 110 112 113
f 115 5 114
f 114 5 116
f 115 41 5
f 5 41 6
f 36 35 111
f 111 35 117
f 35 118 117
f 117 118 119
f 34 120 35
f 35 120 118
f 34 45 120
f 120 45 121
f 125 126 124
f 124 126 127
f 128 129 14
f 14 129 130
f 33 131 46
f 46 131 132
f 133 94 63
f 63 94 64
f 134 135 137
f 137 135 136
f 139 140 138
f 138 140 141
f 77 142 78
f 78 142 143
f 144 145 20
f 20 145 146
f 148 149 147
f 147 149 72
f 151 152 150
f 150 152 153
f 82 101 83
f 83 101 104
f 101 82 155
f 155 82 154
f 156 157 58
f 58 157 59
f 158 68 147
f 147 68 67
f 159 146 15
f 15 146 16
f 68 158 96
f 96 158 160
f 129 66 130
f 130 66 65
f 162 163 161
f 161 163 164
f 166 167 165
f 165 167 168
f 170 171 169
f 169 171 172
f 174 171 173
f 173 171 170
f 176 177 175
f 175 177 178
f 180 181 179
f 179 181 24
f 182 183 21
f 21 183 184
f 81 185 82
f 82 185 154
f 186 187 188
f 188 187 144
f 158 71 160
f 160 71 189
f 190 135 157
f 157 135 59
f 169 172 139
f 139 172 140
f 147 72 158
f 158 72 71
f 192 193 191
f 191 193 194
f 167 166 49
f 49 166 195
f 196 190 50
f 50 190 157
f 197 198 200
f 200 198 199
f 21 24 182
f 182 24 181
f 146 159 20
f 20 159 17
f 182 181 81
f 81 181 185
f 201 185 180
f 180 185 181
f 202 203 83
f 83 203 84
f 205 206 204
f 204 206 85
f 207 22 184
f 184 22 21
f 179 24 208
f 208 24 23
f 208 209 179
f 179 209 205
f 209 210 205
f 205 210 206
f 212 206 211
f 211 206 210
f 179 205 180
f 180 205 204
f 213 176 88
f 88 176 214
f 86 85 212
f 212 85 206
f 193 217 218
f 217 219 218
f 218 219 220
f 219 18 220
f 220 18 17
f 19 221 20
f 20 221 144
f 222 223 225
f 225 223 224
f 175 226 176
f 176 226 214
f 227 87 214
f 214 87 88
f 220 17 228
f 228 17 159
f 134 213 60
f 60 213 88
f 138 229 151
f 151 229 152
f 193 192 210
f 210 192 211
f 230 194 218
f 218 194 193
f 231 232 228
f 228 232 230
f 233 234 91
f 91 234 89
f 235 236 93
f 93 236 92
f 230 232 234
f 234 232 237
f 47 238 48
f 48 238 239
f 240 191 235
f 235 191 236
f 5 8 116
f 116 8 241
f 242 243 189
f 189 243 160
f 244 245 98
f 98 245 99
f 156 246 47
f 47 246 238
f 76 247 77
f 77 247 248
f 250 125 249
f 249 125 124
f 252 253 251
f 251 253 254
f 111 110 36
f 36 110 255
f 256 33 255
f 255 33 36
f 257 258 154
f 154 258 155
f 63 169 133
f 133 169 139
f 66 170 63
f 63 170 169
f 173 170 129
f 129 170 66
f 129 128 173
f 173 128 259
f 128 260 259
f 259 260 261
f 213 134 262
f 262 134 137
f 263 264 186
f 186 264 187
f 112 265 113
f 113 265 266
f 11 267 268
f 234 233 230
f 230 233 194
f 153 269 70
f 70 269 67
f 175 178 165
f 165 178 141
f 150 153 94
f 94 153 70
f 271 221 270
f 270 221 207
f 269 153 272
f 272 153 152
f 121 45 109
f 109 45 108
f 47 50 156
f 156 50 157
f 57 273 58
f 58 273 274
f 145 275 260
f 260 275 261
f 276 149 143
f 143 149 78
f 148 269 75
f 75 269 272
f 207 277 270
f 270 277 278
f 195 196 49
f 49 196 50
f 59 135 60
f 60 135 134
f 83 104 202
f 202 104 279
f 149 148 78
f 78 148 75
f 247 278 248
f 248 278 277
f 183 182 84
f 84 182 81
f 48 239 281
f 281 239 282
f 227 223 283
f 283 223 222
f 223 226 224
f 224 226 168
f 281 282 224
f 224 282 225
f 165 168 175
f 175 168 226
f 264 263 138
f 138 263 229
f 14 16 128
f 128 16 260
f 220 228 218
f 218 228 230
f 87 227 284
f 284 227 283
f 260 16 145
f 145 16 146
f 244 98 258
f 258 98 155
f 58 274 156
f 156 274 246
f 107 285 51
f 51 285 55
f 243 286 160
f 160 286 96
f 234 237 89
f 89 237 90
f 46 132 107
f 107 132 285
f 253 252 249
f 249 252 250
f 286 26 96
f 96 26 25
f 106 105 287
f 287 105 288
f 272 152 289
f 289 152 229
f 138 151 139
f 139 151 133
f 183 290 161
f 161 290 162
f 291 292 277
f 277 292 293
f 151 150 133
f 133 150 94
f 262 275 177
f 177 275 187
f 144 187 145
f 145 187 275
f 273 57 284
f 284 57 87
f 174 136 190
f 190 136 135
f 111 117 112
f 112 117 38
f 117 119 38
f 38 119 123
f 112 38 265
f 265 38 37
f 287 288 254
f 254 288 251
f 228 159 231
f 231 159 15
f 223 227 226
f 226 227 214
f 147 67 148
f 148 67 269
f 224 168 281
f 281 168 167
f 199 163 200
f 200 163 162
f 45 46 108
f 108 46 107
f 281 167 48
f 48 167 49
f 161 164 291
f 291 164 292
f 38 123 39
f 293 294 277
f 277 294 248
f 284 283 296
f 296 283 295
f 284 296 273
f 273 296 297
f 274 273 298
f 298 273 297
f 246 274 299
f 299 274 298
f 283 222 295
f 295 222 300
f 222 225 300
f 300 225 301
f 301 225 302
f 302 225 282
f 303 304 300
f 300 304 295
f 306 307 305
f 305 307 308
f 309 310 308
f 308 310 305
f 308 307 312
f 312 307 311
f 313 314 312
f 312 314 315
f 311 316 312
f 312 316 313
f 317 304 311
f 311 304 316
f 315 309 312
f 312 309 308
f 318 319 321
f 321 319 320
f 319 318 309
f 309 318 310
f 311 307 317
f 317 307 306
f 306 297 317
f 317 297 296
f 306 322 297
f 297 322 298
f 305 323 306
f 306 323 322
f 323 305 324
f 324 305 310
f 304 317 295
f 295 317 296
f 318 325 310
f 310 325 324
f 323 324 326
f 326 324 327
f 324 325 327
f 327 325 328
f 326 327 329
f 329 327 330
f 329 331 326
f 326 331 332
f 333 330 328
f 328 330 327
f 323 326 322
f 322 326 332
f 322 332 298
f 298 332 299
f 325 318 334
f 334 318 321
f 313 316 335
f 335 316 304
f 335 336 313
f 313 336 314
f 304 303 335
f 335 303 337
f 336 335 338
f 338 335 337
f 336 339 314
f 314 339 340
f 246 299 238
f 238 299 341
f 239 342 282
f 282 342 302
f 342 239 341
f 341 239 238
f 341 331 342
f 342 331 343
f 331 329 343
f 343 329 344
f 342 343 302
f 302 343 345
f 341 299 331
f 331 299 332
f 346 301 345
f 345 301 302
f 346 303 301
f 301 303 300
f 347 337 346
f 346 337 303
f 347 346 348
f 348 346 345
f 349 347 350
f 350 347 348
f 343 344 345
f 345 344 348
f 344 351 348
f 348 351 350
f 337 347 338
f 338 347 349
f 353 338 352
f 352 338 349
f 352 355 354
f 354 355 356
f 352 349 355
f 355 349 350
f 352 354 353
f 353 354 334
f 353 334 339
f 339 334 321
f 339 336 353
f 353 336 338
f 329 330 344
f 344 330 351
f 356 351 333
f 333 351 330
f 356 355 351
f 351 355 350
f 354 356 328
f 328 356 333
f 328 325 354
f 354 325 334
f 309 315 319
f 319 315 320
f 320 340 321
f 321 340 339
f 320 315 340
f 340 315 314
f 137 136 261
f 261 136 259
f 140 166 141
f 141 166 165
f 172 171 195
f 195 171 196
f 171 174 196
f 196 174 190
f 178 177 264
f 264 177 187
f 172 195 140
f 140 195 166
f 137 261 262
f 262 261 275
f 178 264 141
f 141 264 138
f 262 177 213
f 213 177 176
f 136 174 259
f 259 174 173
f 358 359 357
f 357 359 360
f 362 363 361
f 361 363 364
f 361 364 365
f 365 364 366
f 367 368 370
f 370 368 369
f 76 371 247
f 247 371 372
f 373 374 362
f 362 374 363
f 376 377 375
f 375 377 378
f 289 229 380
f 380 229 379
f 381 379 263
f 263 379 229
f 383 384 382
f 382 384 385
f 386 368 374
f 374 368 363
f 76 289 371
f 371 289 380
f 377 376 359
f 359 376 387
f 388 386 360
f 360 386 374
f 389 383 366
f 366 383 390
f 392 393 391
f 391 393 394
f 383 382 390
f 390 382 395
f 396 365 390
f 390 365 366
f 389 366 367
f 367 366 364
f 357 397 358
f 358 397 398
f 373 399 357
f 357 399 397
f 389 367 400
f 400 367 370
f 382 385 375
f 375 385 372
f 357 360 373
f 373 360 374
f 361 401 362
f 362 401 402
f 387 388 359
f 359 388 360
f 363 368 364
f 364 368 367
f 358 398 403
f 403 398 404
f 396 392 405
f 405 392 391
f 392 395 393
f 393 395 378
f 393 403 394
f 394 403 404
f 375 378 382
f 382 378 395
f 365 396 406
f 406 396 405
f 362 402 373
f 373 402 399
f 271 270 400
f 400 270 384
f 401 361 406
f 406 361 365
f 381 369 386
f 386 369 368
f 392 396 395
f 395 396 390
f 393 378 403
f 403 378 377
f 403 377 358
f 358 377 359
f 406 405 408
f 408 405 407
f 406 408 401
f 401 408 409
f 401 409 402
f 402 409 410
f 402 410 399
f 399 410 411
f 405 391 407
f 407 391 412
f 391 394 412
f 412 394 413
f 394 404 413
f 413 404 414
f 415 416 412
f 412 416 407
f 418 419 417
f 417 419 420
f 421 422 418
f 418 422 419
f 419 422 424
f 424 422 423
f 425 426 424
f 424 426 427
f 423 428 424
f 424 428 425
f 427 420 424
f 424 420 419
f 420 429 417
f 417 429 430
f 423 422 431
f 431 422 421
f 421 409 431
f 431 409 408
f 421 432 409
f 409 432 410
f 418 433 421
f 421 433 432
f 434 433 417
f 417 433 418
f 431 416 423
f 423 416 428
f 416 431 407
f 407 431 408
f 435 434 430
f 430 434 417
f 433 434 436
f 436 434 437
f 434 435 437
f 437 435 438
f 436 437 439
f 439 437 440
f 439 441 436
f 436 441 442
f 438 443 437
f 437 443 440
f 436 442 433
f 433 442 432
f 432 442 410
f 410 442 411
f 435 430 445
f 445 430 444
f 430 429 444
f 444 429 446
f 425 428 447
f 447 428 416
f 426 425 448
f 448 425 447
f 416 415 447
f 447 415 449
f 447 449 448
f 448 449 450
f 451 452 448
f 448 452 426
f 446 452 444
f 444 452 451
f 399 411 397
f 397 411 453
f 398 454 404
f 404 454 414
f 454 398 453
f 453 398 397
f 453 441 454
f 454 441 455
f 441 439 455
f 455 439 456
f 454 455 414
f 414 455 457
f 441 453 442
f 442 453 411
f 458 413 457
f 457 413 414
f 458 415 413
f 413 415 412
f 458 459 415
f 415 459 449
f 459 458 460
f 460 458 457
f 461 459 462
f 462 459 460
f 455 456 457
f 457 456 460
f 456 463 460
f 460 463 462
f 459 461 449
f 449 461 450
f 465 450 464
f 464 450 461
f 464 467 466
f 466 467 468
f 464 461 467
f 467 461 462
f 464 466 465
f 465 466 445
f 465 445 451
f 451 445 444
f 451 448 465
f 465 448 450
f 439 440 456
f 456 440 463
f 468 463 443
f 443 463 440
f 468 467 463
f 463 467 462
f 466 468 438
f 438 468 443
f 438 435 466
f 466 435 445
f 420 427 429
f 429 427 446
f 446 427 452
f 452 427 426
f 370 369 188
f 188 369 186
f 371 376 372
f 372 376 375
f 380 379 387
f 387 379 388
f 379 381 388
f 388 381 386
f 385 384 278
f 278 384 270
f 380 387 371
f 371 387 376
f 400 370 271
f 271 370 188
f 385 278 372
f 372 278 247
f 400 384 389
f 389 384 383
f 369 381 186
f 186 381 263
f 221 271 144
f 144 271 188
f 221 19 207
f 207 19 22
f 19 18 22
f 22 18 23
f 18 219 23
f 23 219 208
f 469 470 472
f 472 470 471
f 474 475 473
f 473 475 476
f 473 476 477
f 477 476 478
f 480 481 479
f 479 481 482
f 483 484 474
f 474 484 475
f 486 487 485
f 485 487 488
f 489 490 77
f 77 490 142
f 491 489 248
f 248 489 77
f 493 494 492
f 492 494 495
f 496 480 484
f 484 480 475
f 486 497 487
f 487 497 471
f 498 496 472
f 472 496 484
f 499 493 478
f 478 493 500
f 501 502 504
f 504 502 503
f 493 492 500
f 500 492 505
f 506 477 500
f 500 477 478
f 499 478 479
f 479 478 476
f 469 507 470
f 470 507 508
f 483 509 469
f 469 509 507
f 479 482 499
f 499 482 510
f 492 495 485
f 485 495 511
f 483 469 484
f 484 469 472
f 473 512 474
f 474 512 513
f 497 498 471
f 471 498 472
f 475 480 476
f 476 480 479
f 470 508 514
f 514 508 515
f 506 502 516
f 516 502 501
f 503 502 488
f 488 502 505
f 514 515 503
f 503 515 504
f 485 488 492
f 492 488 505
f 477 506 517
f 517 506 516
f 474 513 483
f 483 513 509
f 510 292 494
f 494 292 164
f 512 473 517
f 517 473 477
f 491 481 496
f 496 481 480
f 502 506 505
f 505 506 500
f 503 488 514
f 514 488 487
f 514 487 470
f 470 487 471
f 517 516 519
f 519 516 518
f 517 519 512
f 512 519 520
f 512 520 513
f 513 520 521
f 513 521 509
f 509 521 522
f 516 501 518
f 518 501 523
f 501 504 523
f 523 504 524
f 524 504 525
f 525 504 515
f 526 527 523
f 523 527 518
f 529 530 528
f 528 530 531
f 532 533 529
f 529 533 530
f 530 533 535
f 535 533 534
f 536 537 535
f 535 537 538
f 534 539 535
f 535 539 536
f 538 531 535
f 535 531 530
f 540 541 531
f 531 541 528
f 533 532 534
f 534 532 542
f 532 520 542
f 542 520 519
f 532 543 520
f 520 543 521
f 529 544 532
f 532 544 543
f 544 529 545
f 545 529 528
f 534 542 539
f 539 542 527
f 527 542 518
f 518 542 519
f 541 546 528
f 528 546 545
f 547 544 548
f 548 544 545
f 546 549 545
f 545 549 548
f 550 547 551
f 551 547 548
f 547 550 553
f 553 550 552
f 549 554 548
f 548 554 551
f 544 547 543
f 543 547 553
f 543 553 521
f 521 553 522
f 546 541 556
f 556 541 555
f 541 540 555
f 555 540 557
f 536 539 558
f 558 539 527
f 537 536 559
f 559 536 558
f 527 526 558
f 558 526 560
f 559 558 561
f 561 558 560
f 559 562 537
f 537 562 563
f 557 563 555
f 555 563 562
f 509 522 507
f 507 522 564
f 508 565 515
f 515 565 525
f 565 508 564
f 564 508 507
f 564 552 565
f 565 552 566
f 552 550 566
f 566 550 567
f 565 566 525
f 525 566 568
f 564 522 552
f 552 522 553
f 569 524 568
f 568 524 525
f 569 526 524
f 524 526 523
f 570 560 569
f 569 560 526
f 570 569 571
f 571 569 568
f 572 570 573
f 573 570 571
f 566 567 568
f 568 567 571
f 567 574 571
f 571 574 573
f 570 572 560
f 560 572 561
f 576 561 575
f 575 561 572
f 575 578 577
f 577 578 579
f 575 572 578
f 578 572 573
f 575 577 576
f 576 577 556
f 576 556 562
f 562 556 555
f 562 559 576
f 576 559 561
f 550 551 567
f 567 551 574
f 579 574 554
f 554 574 551
f 579 578 574
f 574 578 573
f 579 554 577
f 577 554 549
f 549 546 577
f 577 546 556
f 531 538 540
f 540 538 557
f 557 538 563
f 563 538 537
f 481 294 482
f 482 294 293
f 580 486 511
f 511 486 485
f 490 489 497
f 497 489 498
f 489 491 498
f 498 491 496
f 163 495 164
f 164 495 494
f 580 490 486
f 486 490 497
f 482 293 510
f 510 293 292
f 495 163 511
f 511 163 199
f 494 493 510
f 510 493 499
f 481 491 294
f 294 491 248
f 582 583 581
f 581 583 584
f 586 587 585
f 585 587 588
f 585 588 589
f 589 588 590
f 592 593 591
f 591 593 594
f 595 596 598
f 598 596 597
f 599 600 586
f 586 600 587
f 601 602 604
f 604 602 603
f 605 606 608
f 608 606 607
f 609 607 200
f 200 607 606
f 610 611 613
f 613 611 612
f 600 614 587
f 587 614 592
f 596 605 597
f 597 605 608
f 602 615 603
f 603 615 583
f 616 614 584
f 584 614 600
f 611 618 617
f 617 618 590
f 620 621 619
f 619 621 622
f 610 623 611
f 611 623 618
f 624 589 618
f 618 589 590
f 617 590 591
f 591 590 588
f 581 625 582
f 582 625 626
f 599 627 581
f 581 627 625
f 591 594 617
f 617 594 628
f 601 610 598
f 598 610 613
f 581 584 599
f 599 584 600
f 585 629 586
f 586 629 630
f 615 616 583
f 583 616 584
f 587 592 588
f 588 592 591
f 582 626 631
f 631 626 632
f 624 620 633
f 633 620 619
f 621 620 604
f 604 620 623
f 631 632 621
f 621 632 622
f 610 601 623
f 623 601 604
f 589 624 634
f 634 624 633
f 586 630 599
f 599 630 627
f 203 202 628
f 628 202 612
f 629 585 634
f 634 585 589
f 609 593 614
f 614 593 592
f 620 624 623
f 623 624 618
f 631 621 603
f 603 621 604
f 582 631 583
f 583 631 603
f 634 633 636
f 636 633 635
f 634 636 629
f 629 636 637
f 629 637 630
f 630 637 638
f 630 638 627
f 627 638 639
f 633 619 635
f 635 619 640
f 619 622 640
f 640 622 641
f 641 622 642
f 642 622 632
f 644 635 643
f 643 635 640
f 645 646 648
f 648 646 647
f 649 650 646
f 646 650 647
f 647 650 652
f 652 650 651
f 652 653 655
f 655 653 654
f 651 656 652
f 652 656 653
f 655 648 652
f 652 648 647
f 648 657 645
f 645 657 658
f 650 649 651
f 651 649 659
f 649 637 659
f 659 637 636
f 649 660 637
f 637 660 638
f 661 660 646
f 646 660 649
f 662 661 645
f 645 661 646
f 651 659 656
f 656 659 644
f 644 659 635
f 635 659 636
f 663 662 658
f 658 662 645
f 664 661 665
f 665 661 662
f 663 666 662
f 662 666 665
f 667 664 668
f 668 664 665
f 664 667 670
f 670 667 669
f 666 671 665
f 665 671 668
f 661 664 660
f 660 664 670
f 660 670 638
f 638 670 639
f 658 672 663
f 663 672 673
f 658 657 672
f 672 657 674
f 653 656 675
f 675 656 644
f 653 675 654
f 654 675 676
f 675 644 677
f 677 644 643
f 676 675 678
f 678 675 677
f 679 680 676
f 676 680 654
f 674 680 672
f 672 680 679
f 627 639 625
f 625 639 681
f 626 682 632
f 632 682 642
f 681 682 625
f 625 682 626
f 669 683 681
f 681 683 682
f 667 684 669
f 669 684 683
f 682 683 642
f 642 683 685
f 681 639 669
f 669 639 670
f 686 641 685
f 685 641 642
f 641 686 640
f 640 686 643
f 686 687 643
f 643 687 677
f 687 686 688
f 688 686 685
f 689 687 690
f 690 687 688
f 683 684 685
f 685 684 688
f 684 691 688
f 688 691 690
f 687 689 677
f 677 689 678
f 693 678 692
f 692 678 689
f 692 695 694
f 694 695 696
f 692 689 695
f 695 689 690
f 692 694 693
f 693 694 673
f 693 673 679
f 679 673 672
f 679 676 693
f 693 676 678
f 684 667 691
f 691 667 668
f 696 691 671
f 671 691 668
f 696 695 691
f 691 695 690
f 694 696 666
f 666 696 671
f 666 663 694
f 694 663 673
f 648 655 657
f 657 655 674
f 674 655 680
f 680 655 654
f 593 162 594
f 594 162 290
f 598 597 601
f 601 597 602
f 615 608 616
f 616 608 607
f 607 609 616
f 616 609 614
f 697 595 613
f 613 595 598
f 597 608 602
f 602 608 615
f 594 290 628
f 628 290 203
f 628 612 617
f 617 612 611
f 593 609 162
f 162 609 200
f 105 29 698
f 698 29 699
f 268 126 701
f 701 126 700
f 126 125 700
f 700 125 702
f 252 703 250
f 250 703 704
f 32 268 705
f 705 268 701
f 288 105 706
f 706 105 698
f 29 32 699
f 699 32 705
f 707 251 706
f 706 251 288
f 250 704 125
f 125 704 702
f 703 252 707
f 707 252 251
f 706 708 707
f 707 708 709
f 707 709 703
f 703 709 710
f 703 710 704
f 704 710 711
f 704 711 702
f 702 711 712
f 706 698 708
f 708 698 713
f 698 699 713
f 713 699 714
f 699 705 714
f 714 705 715
f 717 708 716
f 716 708 713
f 719 720 718
f 718 720 721
f 722 723 719
f 719 723 720
f 724 725 723
f 723 725 720
f 724 726 725
f 725 726 727
f 728 721 725
f 725 721 720
f 721 728 729
f 729 728 730
f 729 731 721
f 721 731 718
f 724 723 732
f 732 723 722
f 722 710 732
f 732 710 709
f 722 733 710
f 710 733 711
f 719 734 722
f 722 734 733
f 734 719 735
f 735 719 718
f 724 732 726
f 726 732 717
f 717 732 708
f 708 732 709
f 731 736 718
f 718 736 735
f 737 734 738
f 738 734 735
f 736 739 735
f 735 739 738
f 740 737 741
f 741 737 738
f 737 740 743
f 743 740 742
f 739 744 738
f 738 744 741
f 734 737 733
f 733 737 743
f 733 743 711
f 711 743 712
f 736 731 746
f 746 731 745
f 731 729 745
f 745 729 730
f 727 726 747
f 747 726 717
f 748 727 749
f 749 727 747
f 747 717 750
f 750 717 716
f 749 747 751
f 751 747 750
f 749 752 748
f 748 752 753
f 730 753 745
f 745 753 752
f 728 725 748
f 748 725 727
f 730 728 753
f 753 728 748
f 700 702 754
f 754 702 712
f 705 701 715
f 715 701 755
f 754 755 700
f 700 755 701
f 742 756 754
f 754 756 755
f 740 757 742
f 742 757 756
f 755 756 715
f 715 756 758
f 754 712 742
f 742 712 743
f 759 714 758
f 758 714 715
f 714 759 713
f 713 759 716
f 759 760 716
f 716 760 750
f 760 759 761
f 761 759 758
f 762 760 763
f 763 760 761
f 756 757 758
f 758 757 761
f 757 764 761
f 761 764 763
f 760 762 750
f 750 762 751
f 766 751 765
f 765 751 762
f 767 765 769
f 769 765 768
f 765 762 768
f 768 762 763
f 765 767 766
f 766 767 746
f 766 746 752
f 752 746 745
f 752 749 766
f 766 749 751
f 757 740 764
f 764 740 741
f 769 764 744
f 744 764 741
f 769 768 764
f 764 768 763
f 767 769 739
f 739 769 744
f 739 736 767
f 767 736 746
f 219 217 208
f 208 217 209
f 209 217 210
f 210 217 193
f 198 580 199
f 199 580 511
f 76 75 289
f 289 75 272
f 277 207 291
f 291 207 184
f 290 183 203
f 203 183 84
f 490 580 142
f 142 580 198
f 142 198 143
f 143 198 197
f 149 276 72
f 72 276 73
f 104 103 279
f 279 103 770
f 770 596 279
f 279 596 595
f 605 596 771
f 771 596 770
f 771 770 772
f 772 770 103
f 772 103 773
f 773 103 102
f 155 774 101
f 101 774 102
f 773 102 97
f 97 102 774
f 775 773 100
f 100 773 97
f 773 775 772
f 772 775 776
f 772 776 771
f 771 776 777
f 200 606 197
f 197 606 777
f 189 71 778
f 778 71 74
f 97 774 98
f 98 774 155
f 183 161 184
f 184 161 291
f 777 276 197
f 197 276 143
f 777 606 771
f 771 606 605
f 613 612 697
f 697 612 202
f 595 697 279
f 279 697 202
f 73 276 776
f 776 276 777
f 776 775 73
f 73 775 74
f 100 778 775
f 775 778 74
f 778 100 189
f 189 100 99
f 245 242 99
f 99 242 189
f 131 33 256
f 28 1 95
f 95 1 62
f 27 2 28
f 28 2 1
f 265 115 266
f 266 115 114
f 95 62 69
f 69 62 64
f 62 61 64
f 64 61 65
f 61 13 65
f 65 13 130
f 13 12 130
f 130 12 14
f 31 11 32
f 32 11 268
f 15 12 31
f 31 12 11
f 31 30 15
f 15 30 231
f 30 106 231
f 231 106 232
f 287 237 106
f 106 237 232
f 254 90 287
f 287 90 237
f 253 44 254
f 254 44 90
f 253 249 44
f 44 249 7
f 267 127 268
f 268 127 126
f 10 3 241
f 241 3 116
f 3 2 116
f 116 2 114
f 2 27 114
f 114 27 266
f 27 26 266
f 266 26 113
f 26 286 113
f 113 286 110
f 286 243 110
f 110 243 255
f 243 242 255
f 255 242 256
f 242 245 256
f 256 245 131
f 245 244 131
f 131 244 132
f 265 37 115
f 115 37 41
f 41 37 42
f 42 37 40
f 92 91 40
f 40 91 42
f 236 233 92
f 92 233 91
f 191 194 236
f 236 194 233
f 258 285 244
f 244 285 132
f 257 55 258
f 258 55 285
f 257 154 201
f 201 154 185
f 56 201 204
f 204 201 180
f 55 257 56
f 56 257 201
f 204 85 56
f 56 85 52
f 86 122 53
f 53 122 79
f 212 215 86
f 86 215 122
f 211 216 212
f 212 216 215
f 192 280 211
f 211 280 216
f 191 240 192
f 192 240 280
f 249 124 7
f 7 124 8
f 124 127 8
f 8 127 241
f 127 267 241
f 241 267 10
f 10 267 9
f 9 267 11
