v -0.0071932412683963776 0.07362160831689835 0.790639340877533
v 0.005647666752338409 0.06972939521074295 0.7897757291793823
v -0.001151900738477707 0.06469080597162247 0.7942741513252258
v -0.012287508696317673 0.06953409314155579 0.7959052920341492
v 0.015481840819120407 0.060223810374736786 0.8064285516738892
v 0.018797289580106735 0.06482040882110596 0.8167168498039246
v 0.0029670707881450653 0.061929747462272644 0.8165134787559509
v 0.003674093633890152 0.05814039707183838 0.8068217039108276
v -0.017317503690719604 0.06928437948226929 0.7991673946380615
v -0.008093476295471191 0.06255786865949631 0.7970566153526306
v -0.019202370196580887 0.07486648857593536 0.7996518015861511
v -0.027370905503630638 0.08355393260717392 0.805422306060791
v -0.026339469477534294 0.07695486396551132 0.8035988211631775
v -0.03470749408006668 0.08766087889671326 0.8068401217460632
v -0.021831247955560684 0.09315460175275803 0.8066238760948181
v -0.033103302121162415 0.09638648480176926 0.8035731911659241
v -0.013335425406694412 0.10764795541763306 0.7881703972816467
v -0.009748425334692001 0.10850946605205536 0.7759382724761963
v -0.025444546714425087 0.10670555382966995 0.774551272392273
v -0.027578748762607574 0.10527946054935455 0.7872771620750427
v -0.014763087034225464 0.10315088927745819 0.7576402425765991
v -0.021710682660341263 0.10533423721790314 0.7666977047920227
v -0.00585753470659256 0.10820099711418152 0.7680596709251404
v -0.0005530230700969696 0.10599718987941742 0.7596836090087891
v -8.22804868221283e-05 0.07816421985626221 0.7794052958488464
v 0.011475447565317154 0.07654618471860886 0.7785201072692871
v 0.010130826383829117 0.07507042586803436 0.7828033566474915
v -0.0016771294176578522 0.07713966071605682 0.7838046550750732
v -0.02156839519739151 0.07644181698560715 0.8041998147964478
v -0.015047386288642883 0.08475993573665619 0.8105310201644897
v -0.01890936866402626 0.08200863748788834 0.8049219250679016
v -0.02090280130505562 0.07294143736362457 0.7999426126480103
v 0.036791618913412094 0.07002042233943939 0.770438015460968
v 0.048625390976667404 0.07585016638040543 0.7726882100105286
v 0.04798978939652443 0.0763903260231018 0.7786181569099426
v 0.03744220361113548 0.07130461186170578 0.7753750085830688
v 0.03965418413281441 0.07236386090517044 0.8032881617546082
v 0.04703487828373909 0.0787862166762352 0.7979013919830322
v 0.05077318474650383 0.08773736655712128 0.8067899942398071
v 0.04151922091841698 0.08493827283382416 0.811387836933136
v 0.029819536954164505 0.06692301481962204 0.8116441369056702
v 0.03148059919476509 0.07804373651742935 0.8179580569267273
v 0.01716514304280281 0.0746704638004303 0.8230236172676086
v -0.00030706822872161865 0.06871581077575684 0.8221258521080017
v 0.050051990896463394 0.07773732393980026 0.7601301074028015
v 0.04172432795166969 0.073241226375103 0.7567020654678345
v -0.0871480405330658 0.09695842862129211 0.7930534482002258
v -0.08514213562011719 0.09779765456914902 0.7875736951828003
v -0.08086872100830078 0.0926617756485939 0.7900145649909973
v -0.08302368968725204 0.09321468323469162 0.7951381206512451
v 0.04337615892291069 0.09188279509544373 0.747668445110321
v 0.04194910451769829 0.10183835029602051 0.748490571975708
v 0.04908930882811546 0.10072857141494751 0.7482590079307556
v 0.05063096806406975 0.09154170751571655 0.7493509650230408
v 0.03372032567858696 0.09213249385356903 0.7456214427947998
v 0.03196091577410698 0.10267992317676544 0.7493587732315063
v -0.08299905806779861 0.10640335083007812 0.7997952103614807
v -0.08617885410785675 0.10240611433982849 0.7996528148651123
v -0.08123619854450226 0.10016648471355438 0.8017676472663879
v -0.07727082073688507 0.10415153205394745 0.8010801076889038
v -0.02294279634952545 0.07402309775352478 0.7995487451553345
v -0.01807675138115883 0.07469669729471207 0.7925447821617126
v -0.0449257455766201 0.07735433429479599 0.7990064024925232
v -0.03271406888961792 0.07666026800870895 0.7957227826118469
v -0.032978348433971405 0.07708276063203812 0.8024373054504395
v -0.042893409729003906 0.07917391508817673 0.8048043251037598
v -0.022726766765117645 0.07888355851173401 0.7744944095611572
v -0.010979030281305313 0.0792132019996643 0.7757636308670044
v -0.013882298022508621 0.07901611924171448 0.7814043760299683
v -0.02713872492313385 0.07800765335559845 0.7818498611450195
v -0.006719406694173813 0.0763515904545784 0.7626532316207886
v -0.018704045563936234 0.07657936215400696 0.7624412775039673
v -0.01511390507221222 0.07474294304847717 0.7549976110458374
v -0.007061608135700226 0.07411421090364456 0.7565050721168518
v -0.04096458852291107 0.07881828397512436 0.7647590041160583
v -0.04890686273574829 0.08303117752075195 0.7638403177261353
v -0.04947396740317345 0.08435437083244324 0.7592647671699524
v -0.04001118242740631 0.07945121824741364 0.761154055595398
v 0.056109052151441574 0.10074125230312347 0.7484952807426453
v 0.05736817046999931 0.09162262082099915 0.7518688440322876
v -0.00514109805226326 0.0958411768078804 0.7403847575187683
v 0.0006753243505954742 0.08804258704185486 0.7353423237800598
v -0.009816780686378479 0.08684532344341278 0.7316778302192688
v -0.013241078704595566 0.09493875503540039 0.7380316257476807
v 0.038822513073682785 0.10949371755123138 0.7547563314437866
v 0.0462791807949543 0.10943137109279633 0.7524486184120178
v -0.07909316569566727 0.11009350419044495 0.7965460419654846
v -0.074210524559021 0.10748356580734253 0.7970001101493835
v 0.016830693930387497 0.08682402968406677 0.8215562105178833
v -0.0025109611451625824 0.0781276673078537 0.8223059177398682
v 0.03159128502011299 0.09222313016653061 0.8165674209594727
v 0.0410303957760334 0.09672753512859344 0.8111547827720642
v 0.04962533339858055 0.0992605984210968 0.8088646531105042
v -0.03646685183048248 0.07653459161520004 0.7898995280265808
v -0.0118771493434906 0.07710068672895432 0.7864505648612976
v 0.0014316439628601074 0.07801499217748642 0.7749361991882324
v 0.0060868896543979645 0.0699843093752861 0.7459668517112732
v 0.016663845628499985 0.0697481632232666 0.7477017641067505
v 0.010962944477796555 0.0696612298488617 0.7565164566040039
v 0.002860669046640396 0.07055988907814026 0.7531057596206665
v 0.0009972117841243744 0.07848556339740753 0.7342217564582825
v -0.002236098051071167 0.07266102731227875 0.738442063331604
v -0.011669144034385681 0.07289432734251022 0.7362932562828064
v -0.008937854319810867 0.07823476195335388 0.7317367792129517
v -0.022243309766054153 0.07698981463909149 0.8109598159790039
v -0.010957863181829453 0.08666809648275375 0.8152833580970764
v 0.044122058898210526 0.08182357996702194 0.7504858374595642
v 0.05075937882065773 0.08272243291139603 0.754259467124939
v 0.05836941674351692 0.085445336997509 0.756445050239563
v 0.024597760289907455 0.07240711897611618 0.7762342691421509
v 0.038006048649549484 0.07198629528284073 0.779093861579895
v 0.03726190701127052 0.07127805054187775 0.784291684627533
v 0.02454710379242897 0.0727870985865593 0.7793766856193542
v 0.01782982423901558 0.06459523737430573 0.793173611164093
v 0.028006788343191147 0.06388399749994278 0.7996466755867004
v 0.008028533309698105 0.05977848172187805 0.7969374656677246
v 0.048804353922605515 0.07738255709409714 0.7871624827384949
v 0.0576695092022419 0.07856202125549316 0.780476987361908
v 0.05716508999466896 0.08027157187461853 0.7893208861351013
v 0.05859998241066933 0.07926131784915924 0.7707619071006775
v 0.058875467628240585 0.08138405531644821 0.762127161026001
v 0.05407724156975746 0.11226746439933777 0.7508483529090881
v 0.05556304380297661 0.08331412076950073 0.797096848487854
v -0.004449065774679184 0.05760873109102249 0.8055758476257324
v -0.012024592608213425 0.05675375461578369 0.8033897280693054
v -0.013468008488416672 0.0608244389295578 0.7967542409896851
v -0.006857510656118393 0.06078225374221802 0.7979255318641663
v -0.04417219012975693 0.09187548607587814 0.8074078559875488
v -0.04446731507778168 0.08420060575008392 0.807684600353241
v -0.033087171614170074 0.08081311732530594 0.8071293830871582
v 0.027160700410604477 0.06893086433410645 0.7640684247016907
v 0.031888578087091446 0.07138345390558243 0.752787172794342
v -0.04826340824365616 0.0788605660200119 0.7930499911308289
v -0.07245585322380066 0.1050356775522232 0.801426112651825
v -0.07523319870233536 0.10026635229587555 0.8035115599632263
v -0.059333644807338715 0.09660026431083679 0.8063268661499023
v -0.05827125161886215 0.10235156863927841 0.8035632967948914
v -0.05631862208247185 0.08753299713134766 0.7878441214561462
v -0.05420778691768646 0.08300457894802094 0.7919765114784241
v -0.05733700841665268 0.08611444383859634 0.7909714579582214
v -0.05910968407988548 0.09030061960220337 0.7865515947341919
v -0.04333655536174774 0.08202219754457474 0.7532657980918884
v -0.03585508465766907 0.07829955965280533 0.7541054487228394
v -0.04259626194834709 0.10024525970220566 0.7858321666717529
v -0.03964470326900482 0.10254944860935211 0.7979769110679626
v -0.029407924041152 0.10313411056995392 0.7964036464691162
v -0.019618812948465347 0.07804542779922485 0.7677919864654541
v -0.030407432466745377 0.0775974839925766 0.7657718658447266
v -0.029374705627560616 0.07733669877052307 0.7617942094802856
v -0.04002957418560982 0.07751858234405518 0.7863958477973938
v -0.04921042174100876 0.0802249163389206 0.7873638272285461
v -0.04548020288348198 0.07927647978067398 0.7828389406204224
v -0.036732569336891174 0.07814453542232513 0.7815760374069214
v 0.012709710747003555 0.09068569540977478 0.7384198307991028
v 0.013480257242918015 0.07933312654495239 0.7368307709693909
v -0.08756772428750992 0.09882142394781113 0.797336995601654
v -0.08284077048301697 0.09585648775100708 0.7995905876159668
v -0.008162841200828552 0.07841139286756516 0.7691816091537476
v -0.016226280480623245 0.10380449146032333 0.7965705394744873
v 0.0032161325216293335 0.0772349089384079 0.769916296005249
v -0.030027776956558228 0.09431346505880356 0.7471482753753662
v -0.03195977956056595 0.08812223374843597 0.7427240014076233
v -0.036418598145246506 0.08933673053979874 0.7440553903579712
v -0.03540957719087601 0.09514763206243515 0.745482861995697
v -0.07160927355289459 0.09724129736423492 0.7836027145385742
v -0.07440900057554245 0.09292939305305481 0.786381721496582
v -0.07821889221668243 0.09479477256536484 0.7847967147827148
v -0.07500946521759033 0.09881101548671722 0.782822847366333
v -0.0535036139190197 0.08178333938121796 0.7976018786430359
v -0.05211387574672699 0.08279263228178024 0.8039323091506958
v -0.059183958917856216 0.08574333786964417 0.8015531897544861
v -0.05866818502545357 0.08533965051174164 0.7958060503005981
v -0.05310778692364693 0.08843187242746353 0.8070220351219177
v -0.059429481625556946 0.09041432291269302 0.8055611252784729
v -0.0688951313495636 0.10306085646152496 0.7853028774261475
v -0.06765031069517136 0.10798569023609161 0.7912492156028748
v -0.05673440545797348 0.10427608340978622 0.7909970283508301
v -0.059527404606342316 0.09803363680839539 0.7868295907974243
v 0.013493429869413376 0.10932225733995438 0.7620802521705627
v 0.017247673124074936 0.10543142259120941 0.7524862885475159
v 0.0034053176641464233 0.10200218111276627 0.749848484992981
v -0.009514909237623215 0.09925238788127899 0.7470461130142212
v -0.02237258478999138 0.09507293999195099 0.7457069158554077
v -0.02639387920498848 0.10148812085390091 0.7551853060722351
v 0.007332295179367065 0.09882690012454987 0.7437213063240051
v -0.05431777611374855 0.0929047241806984 0.7836982011795044
v -0.048854466527700424 0.09950098395347595 0.790661096572876
v -0.049790460616350174 0.09740521758794785 0.7846608757972717
v 0.004756420850753784 0.0744895488023758 0.7632462978363037
v -0.07641851902008057 0.09574882686138153 0.8024162650108337
v 0.03896879032254219 0.11334090679883957 0.7970591187477112
v 0.03934324160218239 0.11714664101600647 0.7844370007514954
v 0.030941400676965714 0.11515870690345764 0.7860887050628662
v 0.030120890587568283 0.1103968620300293 0.7997931241989136
v -0.07615138590335846 0.09026989340782166 0.7924563884735107
v -0.07718644291162491 0.09132212400436401 0.7983320951461792
v -0.034756287932395935 0.07836679369211197 0.7470832467079163
v -0.04025372117757797 0.08189652860164642 0.7480475902557373
v -0.03946191444993019 0.08362379670143127 0.7449144124984741
v -0.03494727984070778 0.07940115034580231 0.740647554397583
v 0.02045801654458046 0.10287021100521088 0.7483557462692261
v -0.015557706356048584 0.08723755925893784 0.7308779358863831
v -0.01926169916987419 0.09428172558546066 0.7358759641647339
v 0.02947954460978508 0.10842820256948471 0.755251407623291
v 0.02629973366856575 0.11239702999591827 0.763512134552002
v 0.035726893693208694 0.11440640687942505 0.7639828324317932
v -0.038207538425922394 0.10195688903331757 0.7654910087585449
v 0.008814316242933273 0.1108885407447815 0.7691544890403748
v 0.022849034518003464 0.11334668099880219 0.7702465653419495
v 0.03399307653307915 0.11576133966445923 0.7711315751075745
v 0.04198482260107994 0.11798596382141113 0.7710262537002563
v 0.043121371418237686 0.11604739725589752 0.7632123827934265
v -0.06964337080717087 0.10755057632923126 0.7964329123497009
v -0.07191802561283112 0.10814771801233292 0.7913728356361389
v 0.05139569565653801 0.11940570175647736 0.761769711971283
v 0.049888018518686295 0.1208169087767601 0.7707910537719727
v 0.01968742534518242 0.11357226222753525 0.778904378414154
v 0.016152795404195786 0.11261042207479477 0.7890831232070923
v 0.00622602179646492 0.11105535179376602 0.7773844599723816
v 0.0016423985362052917 0.10997102409601212 0.7873794436454773
v -0.03655993938446045 0.10523457080125809 0.7753296494483948
v -0.08490344882011414 0.11719721555709839 0.7838539481163025
v -0.07634463161230087 0.1097954511642456 0.7856552600860596
v -0.07828429341316223 0.10521481931209564 0.7823372483253479
v -0.08456379175186157 0.11416235566139221 0.7804938554763794
v -0.07250629365444183 0.1037754938006401 0.7853212952613831
v -0.0762719139456749 0.11166882514953613 0.7910165190696716
v -0.0015239082276821136 0.10497432947158813 0.7986533045768738
v -0.05451028048992157 0.08349698036909103 0.7821599841117859
v 0.01388644054532051 0.1053856909275055 0.8029494285583496
v -0.010113831609487534 0.09722243994474411 0.8087118864059448
v 0.0008238032460212708 0.09591998904943466 0.8121762275695801
v 0.02954358235001564 0.10404480993747711 0.809942901134491
v 0.015049707144498825 0.09719038754701614 0.816041111946106
v 0.047517891973257065 0.1084783673286438 0.8045058846473694
v 0.03851623460650444 0.10682553052902222 0.8062092065811157
v 0.0005331747233867645 0.08876489102840424 0.8189790844917297
v -0.09298352897167206 0.10306578874588013 0.785292387008667
v -0.08908888697624207 0.10441190004348755 0.7811107039451599
v 0.047045398503541946 0.11566603928804398 0.7960970401763916
v -0.001008879393339157 0.059130437672138214 0.7980979681015015
v 0.015084709972143173 0.0726725235581398 0.7665213942527771
v 0.013584580272436142 0.07486623525619507 0.7713221311569214
v 0.022827263921499252 0.07016082108020782 0.74942547082901
v 0.01812155172228813 0.06942480802536011 0.7599776387214661
v -0.09493781626224518 0.10448738187551498 0.7900670766830444
v -0.051337409764528275 0.08933266997337341 0.7623354196548462
v -0.05097624659538269 0.08998452126979828 0.759671688079834
v -0.005520384758710861 0.0587007962167263 0.8140747547149658
v -0.012438006699085236 0.05690372362732887 0.8111003637313843
v -0.020257145166397095 0.06602334976196289 0.8167601227760315
v -0.016465015709400177 0.059965115040540695 0.8159557580947876
v -0.009206719696521759 0.0638798251748085 0.8193453550338745
v -0.012583840638399124 0.07075738906860352 0.819843053817749
v 0.02439437434077263 0.0717260092496872 0.7735711932182312
v 0.024614538997411728 0.07077297568321228 0.7697314023971558
v 0.02392253652215004 0.09129176288843155 0.7419606447219849
v 0.02409663423895836 0.07990115880966187 0.7407587766647339
v -0.05225329473614693 0.09466727823019028 0.8069144487380981
v -0.04329608008265495 0.09869082272052765 0.8046876192092896
v -0.05105149745941162 0.10055287182331085 0.8038499355316162
v -0.055703189224004745 0.10515730082988739 0.7980349659919739
v -0.05733048543334007 0.08919458091259003 0.7820268869400024
v -0.054730720818042755 0.09362438321113586 0.7875076532363892
v 0.03310699388384819 0.06775103509426117 0.7908124327659607
v 0.022739212960004807 0.07020342350006104 0.7854738831520081
v -0.01234373077750206 0.06473086774349213 0.7971281409263611
v -0.017372477799654007 0.06677061319351196 0.7955852150917053
v -0.032198235392570496 0.07818911224603653 0.7747587561607361
v -0.04618501290678978 0.1019451692700386 0.767158031463623
v -0.04597216844558716 0.10460583865642548 0.7750873565673828
v -0.04233857989311218 0.07911112904548645 0.7744537591934204
v -0.0936424732208252 0.11204084008932114 0.7935013771057129
v -0.09527228772640228 0.1073884665966034 0.7923495173454285
v -0.049023356288671494 0.10318545997142792 0.7983291149139404
v -0.026491422206163406 0.07508017122745514 0.7542098760604858
v -0.042079661041498184 0.09931260347366333 0.7614080309867859
v -0.04832759499549866 0.09666325151920319 0.7634855508804321
v -0.014406923204660416 0.07864497601985931 0.7305001020431519
v 0.0479736365377903 0.1191662847995758 0.7840030193328857
v -0.08196239918470383 0.10099469125270844 0.7828269600868225
v -0.08568979799747467 0.1076696440577507 0.7788558602333069
v -0.08575773239135742 0.11836598068475723 0.7878825664520264
v -0.08874116092920303 0.1164536103606224 0.7925372123718262
v 0.03340233489871025 0.08008325099945068 0.745976984500885
v 0.012313324958086014 0.07607438415288925 0.7743963599205017
v -0.012005925178527832 0.08115410804748535 0.8180629014968872
v -0.022183053195476532 0.07297833263874054 0.8143269419670105
v -0.05001237988471985 0.08135773986577988 0.7734219431877136
v -0.025829970836639404 0.09206512570381165 0.7412357926368713
v -0.034020647406578064 0.10101765394210815 0.7529184818267822
v -0.03875594958662987 0.1016659364104271 0.7498258352279663
v -0.045086055994033813 0.10164089500904083 0.7533052563667297
v -0.05120516195893288 0.09733768552541733 0.7550608515739441
v -0.08973084390163422 0.12039746344089508 0.7841717600822449
v -0.09366865456104279 0.11880344152450562 0.7882916927337646
v -0.09814268350601196 0.11463563144207001 0.7882818579673767
v -0.09921737760305405 0.10984905064105988 0.7875682711601257
v -0.09740599989891052 0.10601843893527985 0.7860280275344849
v -0.08847054839134216 0.1191684901714325 0.7802971005439758
v -0.08788405358791351 0.11625146865844727 0.7777524590492249
v -0.08773553371429443 0.10966333001852036 0.7774801254272461
v -0.090054951608181 0.12008879333734512 0.7765167355537415
v -0.0938122346997261 0.12278544157743454 0.7781647443771362
v -0.1059952974319458 0.11805013567209244 0.776809811592102
v -0.1025649756193161 0.11843763291835785 0.7814167141914368
v -0.10270127654075623 0.12010850012302399 0.7795241475105286
v -0.1053181141614914 0.12081961333751678 0.7755253314971924
v -0.10723812878131866 0.12288608402013779 0.7714032530784607
v -0.10849951207637787 0.11971472203731537 0.7722253799438477
v -0.09847517311573029 0.1214812770485878 0.7803747653961182
v -0.10152813792228699 0.12305326759815216 0.7748944759368896
v -0.09794783592224121 0.12401758879423141 0.7730002403259277
v -0.10080796480178833 0.1261204481124878 0.7690065503120422
v -0.10423406958580017 0.12549364566802979 0.7706170082092285
v -0.09622247517108917 0.12303370237350464 0.7769780158996582
v -0.09748778492212296 0.12141185998916626 0.7821717858314514
v -0.10854692757129669 0.12197525054216385 0.7684091925621033
v -0.1078399270772934 0.12427344918251038 0.7690216302871704
v -0.1053074449300766 0.12603367865085602 0.7679376602172852
v -0.10598937422037125 0.12481117248535156 0.7653303146362305
v -0.10199832916259766 0.11241652071475983 0.7829336524009705
v -0.1061021015048027 0.11563277244567871 0.7761967778205872
v -0.10732236504554749 0.11733558773994446 0.770725429058075
v -0.10744309425354004 0.11982069164514542 0.7670924067497253
v -0.10441900789737701 0.11349936574697495 0.7733301520347595
v -0.10531051456928253 0.11583921313285828 0.7692990303039551
v -0.10502402484416962 0.11790710687637329 0.7659652829170227
v -0.10155562311410904 0.11254441738128662 0.7704479694366455
v -0.10280737280845642 0.11523899435997009 0.7674988508224487
v -0.09652981162071228 0.10668173432350159 0.7800818681716919
v -0.09925337135791779 0.10802307724952698 0.7826698422431946
v -0.10342293977737427 0.11660988628864288 0.7654221653938293
v -0.10496155917644501 0.12327942252159119 0.7642327547073364
v -0.0945286750793457 0.12299789488315582 0.7723968029022217
v -0.09849429130554199 0.12462852895259857 0.7672012448310852
v -0.09325722604990005 0.12159951031208038 0.7711557745933533
v -0.0968666598200798 0.12343371659517288 0.765894889831543
v -0.1014261543750763 0.12616120278835297 0.7646102905273438
v -0.1025727391242981 0.12652833759784698 0.7668732404708862
v -0.09380383044481277 0.1043955534696579 0.7829829454421997
v -0.0897407978773117 0.10617469996213913 0.7793099880218506
v -0.09166565537452698 0.10814427584409714 0.7769259810447693
v -0.09748493134975433 0.11329314112663269 0.7682652473449707
v -0.08922407031059265 0.1113782674074173 0.7749615907669067
v -0.08940590918064117 0.11741665005683899 0.7741396427154541
v -0.0931062176823616 0.11971046030521393 0.7690906524658203
v -0.09395954012870789 0.11675780266523361 0.7678455710411072
v -0.09634807705879211 0.12101946771144867 0.7653776407241821
v -0.0971539169549942 0.11857806891202927 0.7653265595436096
v -0.09975777566432953 0.11595351994037628 0.7657181024551392
v -0.09970057010650635 0.1214553564786911 0.7634112238883972
v -0.10043981671333313 0.12432219088077545 0.7637242078781128
v -0.10321173071861267 0.12045180052518845 0.7637583613395691
v -0.09919565171003342 0.1195901557803154 0.7638500332832336
v -0.10176850855350494 0.11838065087795258 0.764541745185852
v -0.08413974940776825 0.09994976222515106 0.7533113956451416
v -0.07950562238693237 0.10159267485141754 0.7499193549156189
v -0.07668568938970566 0.09691748768091202 0.7548691034317017
v -0.08031049370765686 0.09651044011116028 0.7583976984024048
v -0.08389465510845184 0.10893677175045013 0.7636505961418152
v -0.0867403894662857 0.10432960093021393 0.7609177827835083
v -0.08232416212558746 0.10296634584665298 0.7662257552146912
v -0.07815161347389221 0.10811088979244232 0.7670230865478516
v -0.07850711047649384 0.11237195879220963 0.7622357606887817
v -0.07283109426498413 0.1101270467042923 0.7643471956253052
v -0.07449749112129211 0.10946835577487946 0.7694399952888489
v -0.07769500464200974 0.10308675467967987 0.7698798775672913
v -0.060256920754909515 0.09639716148376465 0.7791497707366943
v -0.05829336866736412 0.10340042412281036 0.7782222032546997
v -0.054934848099946976 0.08670387417078018 0.7652117609977722
v -0.05459253489971161 0.09058598428964615 0.763483464717865
v -0.08627922832965851 0.1012975424528122 0.7567410469055176
v -0.08239738643169403 0.09899203479290009 0.7625934481620789
v -0.06880348175764084 0.09865537285804749 0.752613365650177
v -0.07201027870178223 0.09495188295841217 0.7548748850822449
v -0.07350192964076996 0.09863682836294174 0.7515182495117188
v -0.07047389447689056 0.10258038341999054 0.7510272860527039
v -0.059191882610321045 0.08767201751470566 0.7762251496315002
v -0.05616569519042969 0.085873082280159 0.7710551619529724
v -0.06053723394870758 0.0914284810423851 0.7777959704399109
v -0.06651804596185684 0.10461515933275223 0.7538337707519531
v -0.06619482487440109 0.11022023111581802 0.7576402425765991
v -0.05245283618569374 0.1053677424788475 0.7656410336494446
v -0.052823349833488464 0.09944272041320801 0.762479841709137
v -0.07886222749948502 0.09814173728227615 0.7674747705459595
v -0.07540556788444519 0.09367583692073822 0.7591054439544678
v -0.0779280811548233 0.09434352815151215 0.7632538080215454
v -0.06971155107021332 0.11178290098905563 0.7645101547241211
v -0.06973791122436523 0.11097168922424316 0.7577986717224121
v -0.07844012975692749 0.12026102840900421 0.7451945543289185
v -0.07228220999240875 0.1122904121875763 0.7524298429489136
v -0.07312069833278656 0.10856007039546967 0.7490251064300537
v -0.07828166335821152 0.11697317659854889 0.7412968873977661
v -0.0691298171877861 0.10733924806118011 0.7536859512329102
v -0.07433953136205673 0.11393385380506516 0.7570632696151733
v -0.0901084840297699 0.10961133241653442 0.7417256236076355
v -0.08465740084648132 0.11085464060306549 0.7387088537216187
v -0.09312991797924042 0.1109054833650589 0.7449617981910706
v -0.05480532720685005 0.10733383893966675 0.7723299264907837
v -0.09169147908687592 0.11705604940652847 0.7529738545417786
v -0.09396594762802124 0.11282069236040115 0.7487109899520874
v -0.07539477944374084 0.10454807430505753 0.7479583621025085
v -0.08048743009567261 0.11367911100387573 0.7386469841003418
v -0.08059190213680267 0.12191879749298096 0.7489274740219116
v -0.08583676069974899 0.12021376192569733 0.7538883686065674
v -0.08271913230419159 0.12419211119413376 0.7437841296195984
v -0.08817799389362335 0.12393296509981155 0.7472143173217773
v -0.0940023809671402 0.12081319093704224 0.7462822794914246
v -0.09570686519145966 0.11590419709682465 0.7434331774711609
v -0.0944097638130188 0.11300185322761536 0.7411816120147705
v -0.08068256080150604 0.12226592749357224 0.7405564785003662
v -0.08045587688684464 0.1186872348189354 0.7373934984207153
v -0.08242540806531906 0.11417274177074432 0.7366090416908264
v -0.08245572447776794 0.12247492372989655 0.7339757680892944
v -0.08495575189590454 0.12567923963069916 0.7356986999511719
v -0.10042713582515717 0.12282606214284897 0.7261542677879333
v -0.09890085458755493 0.12259815633296967 0.7318688035011292
v -0.097330242395401 0.12463343888521194 0.731350302696228
v -0.09864541888237 0.12503275275230408 0.7261312007904053
v -0.09664149582386017 0.1239854097366333 0.7375580072402954
v -0.09549987316131592 0.12520179152488708 0.735562801361084
v -0.09103281795978546 0.12639622390270233 0.7360777258872986
v -0.0929223895072937 0.12617120146751404 0.7302876114845276
v -0.08812478184700012 0.12580730020999908 0.7295500040054321
v -0.08969603478908539 0.12681253254413605 0.7243126630783081
v -0.09446665644645691 0.1274682581424713 0.7248232364654541
v -0.08786866068840027 0.126370370388031 0.733762264251709
v -0.09856805205345154 0.12563295662403107 0.7226338982582092
v -0.09927412867546082 0.12390168011188507 0.7208226323127747
v -0.09055496752262115 0.1265501081943512 0.7393156290054321
v -0.09735200554132462 0.1182660311460495 0.7397505044937134
v -0.09957726299762726 0.11966904252767563 0.7311866879463196
v -0.10029194504022598 0.11991573870182037 0.7247301936149597
v -0.09791514277458191 0.12160080671310425 0.719354510307312
v -0.09799863398075104 0.11636494845151901 0.7291207909584045
v -0.09839296340942383 0.11766842007637024 0.7233777642250061
v -0.09612968564033508 0.119529590010643 0.7193586230278015
v -0.09459000825881958 0.11379087716341019 0.7270505428314209
v -0.09484511613845825 0.11589951813220978 0.7218488454818726
v -0.09220046550035477 0.11155248433351517 0.7369146347045898
v -0.09583212435245514 0.11385007947683334 0.7385707497596741
v -0.09470610320568085 0.11771246790885925 0.7200255393981934
v -0.09550704807043076 0.12631642818450928 0.7189326286315918
v -0.0946008712053299 0.12339973449707031 0.7175160050392151
v -0.09541836380958557 0.1270325779914856 0.7206725478172302
v -0.08617708086967468 0.12504488229751587 0.7290478944778442
v -0.08832687139511108 0.1254570484161377 0.7231687903404236
v -0.0846170112490654 0.12305602431297302 0.7277381420135498
v -0.08735530078411102 0.12383924424648285 0.7216331362724304
v -0.09077665209770203 0.1261610984802246 0.7193292379379272
v -0.09180893748998642 0.1270832121372223 0.7203260660171509
v -0.09096923470497131 0.11142288148403168 0.739187479019165
v -0.08576996624469757 0.11194232106208801 0.7371819019317627
v -0.08688044548034668 0.1114809662103653 0.7353891730308533
v -0.08950519561767578 0.11406673491001129 0.7258347272872925
v -0.08298242092132568 0.11401788145303726 0.734631359577179
v -0.08179940283298492 0.11893980205059052 0.7332764267921448
v -0.08404998481273651 0.12034320831298828 0.7270800471305847
v -0.08562281727790833 0.11688739061355591 0.7258447408676147
v -0.08634696900844574 0.12198086082935333 0.7210317254066467
v -0.08692412078380585 0.11885669827461243 0.7218946218490601
v -0.09078945219516754 0.11599762737751007 0.7214417457580566
v -0.08938995003700256 0.122658371925354 0.7177609205245972
v -0.09017162024974823 0.12483929842710495 0.7183005213737488
v -0.09368649125099182 0.1213788390159607 0.7177078127861023
v -0.088997483253479 0.11997125297784805 0.7189469337463379
v -0.09243704378604889 0.11867207288742065 0.7188467383384705
v -0.06875447183847427 0.09112678468227386 0.7305502891540527
v -0.06456854939460754 0.0884484201669693 0.728656530380249
v -0.062177859246730804 0.08697759360074997 0.7336421608924866
v -0.0662924200296402 0.09006494283676147 0.7357315421104431
v -0.06566236913204193 0.10400629043579102 0.7316683530807495
v -0.06928671151399612 0.1004304513335228 0.7320410013198853
v -0.06703336536884308 0.09982448816299438 0.7364792227745056
v -0.06273631751537323 0.10357499867677689 0.7368199825286865
v -0.06134669482707977 0.10515014827251434 0.7281919121742249
v -0.05740109458565712 0.10413764417171478 0.7342655658721924
v -0.05961953476071358 0.10477934777736664 0.740424394607544
v -0.06437604129314423 0.10033712536096573 0.7404431700706482
v -0.05437541753053665 0.09833097457885742 0.7510634660720825
v -0.049819573760032654 0.10337544977664948 0.7490500807762146
v -0.06991785764694214 0.09564334899187088 0.731423020362854
v -0.06785552948713303 0.09486378729343414 0.7361215353012085
v -0.053381867706775665 0.08814315497875214 0.7320879697799683
v -0.056972701102495193 0.0861692950129509 0.7342435717582703
v -0.05779927596449852 0.08715155720710754 0.7308062314987183
v -0.054978303611278534 0.08956858515739441 0.7291904091835022
v -0.053120605647563934 0.08731072396039963 0.7531962990760803
v -0.048103462904691696 0.08489823341369629 0.7503504753112793
v -0.05560227483510971 0.09235113859176636 0.7521035671234131
v -0.050599124282598495 0.094114288687706 0.7312926650047302
v -0.04991406202316284 0.10103079676628113 0.7329418063163757
v -0.040822435170412064 0.09770093113183975 0.7406922578811646
v -0.04141908511519432 0.09150918573141098 0.7410264015197754
v -0.06563059985637665 0.09524105489253998 0.7402259707450867
v -0.06079639494419098 0.08652383834123611 0.7375556230545044
v -0.0647718757390976 0.08987059444189072 0.7395385503768921
v -0.054149191826581955 0.10478637367486954 0.7371600866317749
v -0.0536147877573967 0.1006815955042839 0.7304763197898865
v -0.06150630861520767 0.10159088671207428 0.7105058431625366
v -0.05452679097652435 0.09688758105039597 0.7248770594596863
v -0.056703731417655945 0.09147384762763977 0.7246509194374084
v -0.06187988817691803 0.09727909415960312 0.7096067070960999
v -0.052831973880529404 0.09489805996417999 0.7281923294067383
v -0.05615215748548508 0.10249081254005432 0.7260555624961853
v -0.07414156943559647 0.09393486380577087 0.7133755087852478
v -0.06920003890991211 0.0919879674911499 0.7122399210929871
v -0.07538248598575592 0.09737007319927216 0.7154474258422852
v -0.044014669954776764 0.10368246585130692 0.7448322772979736
v -0.043476421386003494 0.08584260940551758 0.7446907162666321
v -0.07362876832485199 0.1044715940952301 0.7153615951538086
v -0.07563476264476776 0.10073971003293991 0.7157638072967529
v -0.05982937663793564 0.08888190239667892 0.7263057827949524
v -0.06441210955381393 0.09346989542245865 0.7101989984512329
v -0.06364854425191879 0.10501238703727722 0.7125184535980225
v -0.06844733655452728 0.10672487318515778 0.7149953246116638
v -0.06412467360496521 0.10480521619319916 0.7072088718414307
v -0.06924940645694733 0.10653574019670486 0.7090368866920471
v -0.07424674183130264 0.10530678182840347 0.7087198495864868
v -0.07628729939460754 0.10181746631860733 0.7089945673942566
v -0.07639948278665543 0.09831283986568451 0.7089318633079529
v -0.06231077015399933 0.10125325620174408 0.7053484320640564
v -0.06301674246788025 0.09747888147830963 0.7049186825752258
v -0.06540483236312866 0.09434492141008377 0.7074883580207825
v -0.062350332736968994 0.10018805414438248 0.7013074159622192
v -0.06464223563671112 0.10497907549142838 0.7005431652069092
v -0.07595793902873993 0.10449641197919846 0.6897326707839966
v -0.07559332251548767 0.10443657636642456 0.6951544880867004
v -0.0745115578174591 0.10507936030626297 0.694890558719635
v -0.07475199550390244 0.10564716160297394 0.6894358992576599
v -0.07398010790348053 0.10606559365987778 0.7012820839881897
v -0.07301007211208344 0.1063302606344223 0.6993362903594971
v -0.06937547773122787 0.10675950348377228 0.6999766826629639
v -0.06963782012462616 0.10638825595378876 0.6937537789344788
v -0.06473138183355331 0.1032654196023941 0.6940912008285522
v -0.0658995732665062 0.10347685217857361 0.6894690990447998
v -0.07019995898008347 0.10672173649072647 0.6887705326080322
v -0.06539313495159149 0.10515385121107101 0.6989004611968994
v -0.07381731271743774 0.10555768758058548 0.6865613460540771
v -0.07567968964576721 0.10541559755802155 0.685681164264679
v -0.0696125477552414 0.10688774287700653 0.7023022174835205
v -0.07716969400644302 0.1030910536646843 0.7031384110450745
v -0.07747597992420197 0.10235608369112015 0.6954593658447266
v -0.07827749848365784 0.10205672681331635 0.6897319555282593
v -0.0763658881187439 0.10177069902420044 0.6859055757522583
v -0.07724776864051819 0.0986495092511177 0.6956375241279602
v -0.07746322453022003 0.09898629784584045 0.6902446746826172
v -0.07591027021408081 0.09880833327770233 0.6866881251335144
v -0.07567589730024338 0.09587207436561584 0.6958324313163757
v -0.07553540915250778 0.09642427414655685 0.690788984298706
v -0.07492733746767044 0.09560840576887131 0.7061232328414917
v -0.07696627825498581 0.09925314038991928 0.7048419117927551
v -0.07484486699104309 0.09713809192180634 0.6877621412277222
v -0.07111864537000656 0.1050625592470169 0.6842324137687683
v -0.07136724144220352 0.10086928308010101 0.6837899684906006
v -0.07088830322027206 0.10537248849868774 0.6859525442123413
v -0.06355571001768112 0.10199865698814392 0.6947564482688904
v -0.06439968943595886 0.10182853043079376 0.6885746717453003
v -0.06312881410121918 0.09918972849845886 0.6951678991317749
v -0.06403874605894089 0.09901055693626404 0.6888611316680908
v -0.06652748584747314 0.10305695980787277 0.6854668259620667
v -0.06717212498188019 0.1037992388010025 0.6861739754676819
v -0.07396140694618225 0.09493374824523926 0.7094502449035645
v -0.06961773335933685 0.09311863780021667 0.7087127566337585
v -0.07092225551605225 0.09342394024133682 0.7058297991752625
v -0.07197155058383942 0.09378489851951599 0.6950873732566833
v -0.06651715934276581 0.09397179633378983 0.704975962638855
v -0.06355521082878113 0.09683796763420105 0.7009973526000977
v -0.06460635364055634 0.09638404846191406 0.6951392889022827
v -0.06762924790382385 0.09439689666032791 0.6947523355484009
v -0.0652797594666481 0.09652166068553925 0.6893659234046936
v -0.06764494627714157 0.09537152945995331 0.6905590891838074
v -0.07228127121925354 0.09434384852647781 0.6903163194656372
v -0.06772284209728241 0.09780151396989822 0.6864064931869507
v -0.06650902330875397 0.10022531449794769 0.6853542923927307
v -0.0719384178519249 0.09804084897041321 0.68500816822052
v -0.068976990878582 0.0960925817489624 0.6876709461212158
v -0.07221430540084839 0.09621724486351013 0.6867297291755676
v -0.044937580823898315 0.08413509279489517 0.7474638223648071
v -0.04539908468723297 0.09163539856672287 0.7066518068313599
v -0.041812311857938766 0.08984144032001495 0.7056012749671936
v -0.04050064831972122 0.0872107744216919 0.7085229158401489
v -0.044465549290180206 0.08773674815893173 0.7097849249839783
v -0.04371464252471924 0.10046077519655228 0.7132267951965332
v -0.04653016850352287 0.0977822095155716 0.7110998034477234
v -0.04701380804181099 0.0949973464012146 0.7150276899337769
v -0.04483629763126373 0.09816014766693115 0.7167224287986755
v -0.039259541779756546 0.10141579061746597 0.7128474712371826
v -0.0402890145778656 0.09886900335550308 0.7159222960472107
v -0.04374384507536888 0.09588225185871124 0.7196526527404785
v -0.04558947682380676 0.09157218039035797 0.7191339731216431
v -0.03451460227370262 0.08768028765916824 0.7354411482810974
v -0.031018247827887535 0.09202894568443298 0.7353547811508179
v -0.01861787587404251 0.08042445778846741 0.7289546728134155
v -0.021763436496257782 0.07575014233589172 0.7322462797164917
v -0.026612430810928345 0.0795951709151268 0.7256026864051819
v -0.023325171321630478 0.08340585231781006 0.7246034145355225
v -0.0469038225710392 0.09460829198360443 0.7087076902389526
v -0.04706580936908722 0.09081202745437622 0.7123973369598389
v -0.030673999339342117 0.0892084389925003 0.7123399972915649
v -0.03403705731034279 0.08578549325466156 0.7118574976921082
v -0.03632166236639023 0.08665503561496735 0.7083827257156372
v -0.03260084614157677 0.08857206255197525 0.7091521620750427
v -0.02651217207312584 0.07586164027452469 0.7351939082145691
v -0.029913123697042465 0.07719190418720245 0.7389828562736511
v -0.03274054080247879 0.0778464823961258 0.7338269352912903
v -0.03066445142030716 0.07830911874771118 0.7277311682701111
v -0.036390066146850586 0.08126327395439148 0.7351634502410889
v -0.030352525413036346 0.09324678778648376 0.7136392593383789
v -0.03329154849052429 0.09708476066589355 0.7162386178970337
v -0.021339450031518936 0.09244990348815918 0.7279828190803528
v -0.02106121927499771 0.08804530650377274 0.7265117764472961
v -0.04591188579797745 0.08738437294960022 0.7167251110076904
v -0.03822404891252518 0.08461982011795044 0.7125473022460938
v -0.04277866333723068 0.0842227190732956 0.7141048908233643
v -0.03912482038140297 0.09865829348564148 0.7175434827804565
v -0.03452254459261894 0.09682755917310715 0.7142208814620972
v -0.03220660984516144 0.09904638677835464 0.6999190449714661
v -0.03151554614305496 0.09383021295070648 0.7084718942642212
v -0.03364219516515732 0.09038516134023666 0.7055597305297852
v -0.0338292196393013 0.09738227725028992 0.698360025882721
v -0.031783849000930786 0.0924568772315979 0.7112390398979187
v -0.03371695429086685 0.09877758473157883 0.7112565040588379
v -0.04565511643886566 0.09835214167833328 0.6982858180999756
v -0.041214801371097565 0.09580059349536896 0.6975363492965698
v -0.0466151162981987 0.1006513386964798 0.7001219987869263
v -0.02642003819346428 0.09506447613239288 0.731802761554718
v -0.042781196534633636 0.10550440102815628 0.7039573192596436
v -0.04609262943267822 0.10360880941152573 0.7017666101455688
v -0.03781402111053467 0.08931102603673935 0.7050133943557739
v -0.037078239023685455 0.09599322825670242 0.6977977156639099
v -0.032728299498558044 0.10219408571720123 0.7023137211799622
v -0.03736218065023422 0.10559704899787903 0.7046042680740356
v -0.031913064420223236 0.10475797951221466 0.6985740661621094
v -0.03678780794143677 0.10768631100654602 0.7012481689453125
v -0.04243917018175125 0.10808689147233963 0.6997483372688293
v -0.04522256553173065 0.10584773123264313 0.6985727548599243
v -0.046161264181137085 0.10327643156051636 0.6969137191772461
v -0.03146229684352875 0.10129991173744202 0.6960572004318237
v -0.033262692391872406 0.09916555881500244 0.6946330070495605
v -0.03682629019021988 0.09734216332435608 0.6942006349563599
v -0.030838366597890854 0.10378558933734894 0.6924081444740295
v -0.031521521508693695 0.1083555519580841 0.6936006546020508
v -0.04115449637174606 0.1125016137957573 0.6853857040405273
v -0.04164128005504608 0.11107516288757324 0.6889433860778809
v -0.04058155044913292 0.11162786185741425 0.6893380284309387
v -0.04066839814186096 0.11351550370454788 0.685828685760498
v -0.041045866906642914 0.11016859114170074 0.6940625905990601
v -0.03962542489171028 0.11077789217233658 0.6932576894760132
v -0.03634357824921608 0.11026222258806229 0.6945448517799377
v -0.03649359568953514 0.11244300752878189 0.6899027228355408
v -0.031769752502441406 0.1104782223701477 0.6883543133735657
v -0.03250531479716301 0.11228594183921814 0.6849240064620972
v -0.03643401712179184 0.11411511898040771 0.6866947412490845
v -0.032520219683647156 0.1099475622177124 0.6927703619003296
v -0.039654266089200974 0.11483808606863022 0.6839088201522827
v -0.04029962047934532 0.11495854705572128 0.6827094554901123
v -0.036657631397247314 0.1099659875035286 0.6961853504180908
v -0.04429467022418976 0.10738258808851242 0.6940096020698547
v -0.04326938837766647 0.10991011559963226 0.687598466873169
v -0.04222102090716362 0.11210939288139343 0.6834332346916199
v -0.04006001725792885 0.11357562243938446 0.6810075044631958
v -0.043729789555072784 0.1073746383190155 0.6873282790184021
v -0.04259668290615082 0.11016081273555756 0.6822618246078491
v -0.04033208265900612 0.11148545891046524 0.6799572110176086
v -0.04286183416843414 0.10435207188129425 0.6865670680999756
v -0.04154942184686661 0.10770080983638763 0.6821711659431458
v -0.0438414141535759 0.10086964070796967 0.6925638914108276
v -0.04487266764044762 0.1042267382144928 0.6933010816574097
v -0.03996763378381729 0.10974697768688202 0.6805140972137451
v -0.03666941449046135 0.11534319818019867 0.6821433901786804
v -0.036994729191064835 0.1134098619222641 0.68011474609375
v -0.036323413252830505 0.11533346772193909 0.6834401488304138
v -0.031006116420030594 0.10934115201234818 0.6880208253860474
v -0.031847093254327774 0.11145685613155365 0.6838210225105286
v -0.030804935842752457 0.10684948414564133 0.68700110912323
v -0.03219185024499893 0.10978469252586365 0.6825181245803833
v -0.033535029739141464 0.11360695958137512 0.68179851770401
v -0.03402239456772804 0.11397984623908997 0.6834722757339478
v -0.04489089548587799 0.09995726495981216 0.6949076056480408
v -0.04146839678287506 0.09747431427240372 0.6946926712989807
v -0.040394533425569534 0.0987754687666893 0.6920934319496155
v -0.03978919982910156 0.10219956934452057 0.6860605478286743
v -0.03578700125217438 0.09863795340061188 0.6917608976364136
v -0.03249473497271538 0.10089989006519318 0.6919621825218201
v -0.03240005299448967 0.10455688089132309 0.686189591884613
v -0.03533715754747391 0.10266272723674774 0.6856163144111633
v -0.033490005880594254 0.10825157165527344 0.6815237402915955
v -0.03592207655310631 0.10637073218822479 0.6813825368881226
v -0.039061039686203 0.1059533953666687 0.6817585229873657
v -0.03549467399716377 0.11067787557840347 0.6799009442329407
v -0.03441201522946358 0.11215932667255402 0.6802880764007568
v -0.03750806674361229 0.111437126994133 0.6796810626983643
v -0.03667718917131424 0.10910631716251373 0.6799259781837463
v -0.038220759481191635 0.10923124849796295 0.6800887584686279
v -0.018967587500810623 0.08452057838439941 0.7278268933296204
v -0.032160595059394836 0.06655524671077728 0.8036977052688599
v -0.030554573982954025 0.0670723021030426 0.7985680103302002
v -0.02156776934862137 0.05319846794009209 0.7952158451080322
v -0.025043809786438942 0.05881714075803757 0.7922204732894897
v -0.021362319588661194 0.04976236820220947 0.8013715147972107
v -0.025843404233455658 0.052552223205566406 0.8112994432449341
v -0.022414248436689377 0.050358012318611145 0.8073267936706543
v -0.028292031958699226 0.06379174441099167 0.7938668727874756
v -0.03209852799773216 0.06390216946601868 0.8089033365249634
v -0.029471639543771744 0.05809463933110237 0.8128204345703125
v -0.039443857967853546 0.05812913179397583 0.8056301474571228
v -0.036475472152233124 0.05184554308652878 0.8095185160636902
v -0.03224850073456764 0.045889947563409805 0.8085572719573975
v -0.026477985084056854 0.0448947474360466 0.804105281829834
v -0.0240190252661705 0.04542198032140732 0.7996319532394409
v -0.03668910637497902 0.06178848445415497 0.7998748421669006
v -0.034249819815158844 0.06244536489248276 0.7950714826583862
v -0.029798591509461403 0.05991668254137039 0.7911534309387207
v -0.041557859629392624 0.05693262070417404 0.7940760254859924
v -0.0466720275580883 0.04778621345758438 0.793212890625
v -0.04307141900062561 0.028805069625377655 0.7890575528144836
v -0.03934915363788605 0.032765794545412064 0.7931168675422668
v -0.04205721616744995 0.033875107765197754 0.7932395935058594
v -0.045403555035591125 0.02985813468694687 0.7899764776229858
v -0.03911009430885315 0.036607448011636734 0.7971415519714355
v -0.04111482948064804 0.03723381459712982 0.7959250211715698
v -0.043910812586545944 0.041801586747169495 0.7959312200546265
v -0.04684809222817421 0.03798914700746536 0.7924652099609375
v -0.04633420705795288 0.044972263276576996 0.7926276326179504
v -0.048263054341077805 0.04306314140558243 0.7891032099723816
v -0.04994984343647957 0.03440967947244644 0.7891509532928467
v -0.048858392983675 0.028613649308681488 0.788144052028656
v -0.052228376269340515 0.03126685321331024 0.7860908508300781
v -0.04706355184316635 0.027294397354125977 0.7857202887535095
v -0.04517052322626114 0.042250726372003555 0.7984722256660461
v -0.032359588891267776 0.03791286051273346 0.7987807393074036
v -0.0355939120054245 0.032973513007164 0.792332649230957
v -0.03987991809844971 0.029216907918453217 0.7869291305541992
v -0.044867608696222305 0.02801249921321869 0.7833207249641418
v -0.03257795423269272 0.03474953770637512 0.7892496585845947
v -0.03741002827882767 0.03211403638124466 0.7844670414924622
v -0.04215986654162407 0.031807396560907364 0.7811436057090759
v -0.031906235963106155 0.03848676383495331 0.7858284711837769
v -0.03715098649263382 0.03568427264690399 0.7823399305343628
v -0.025446148589253426 0.046806450933218 0.7927395105361938
v -0.026810821145772934 0.0411723330616951 0.796601414680481
v -0.04092533513903618 0.03442633897066116 0.7808522582054138
v -0.052168361842632294 0.03014908730983734 0.7832608819007874
v -0.04961305484175682 0.031168833374977112 0.7806339859962463
v -0.04807986691594124 0.04630953073501587 0.7876958847045898
v -0.051602501422166824 0.039749160408973694 0.7860978245735168
v -0.050809096544981 0.04180879145860672 0.7838467359542847
v -0.045882970094680786 0.04937257245182991 0.7860365509986877
v -0.049232810735702515 0.04319446533918381 0.7817812561988831
v -0.0529358871281147 0.03643213212490082 0.7821880578994751
v -0.05309475585818291 0.035832010209560394 0.7850679159164429
v -0.023110035806894302 0.049463823437690735 0.7944256663322449
v -0.0254364050924778 0.055316198617219925 0.7914931178092957
v -0.027404285967350006 0.0528893768787384 0.7901477217674255
v -0.03395123407244682 0.04463251680135727 0.783416211605072
v -0.03214741498231888 0.05672459304332733 0.7887724041938782
v -0.03778515011072159 0.05800580605864525 0.7908111214637756
v -0.04276847094297409 0.05023184418678284 0.7839313745498657
v -0.03825376182794571 0.04886604845523834 0.7827931642532349
v -0.04583146423101425 0.04340500012040138 0.7802413105964661
v -0.042832426726818085 0.04262610524892807 0.7800657153129578
v -0.03921988978981972 0.039259523153305054 0.7804751992225647
v -0.04725823551416397 0.03826240450143814 0.7790959477424622
v -0.05075497552752495 0.03762250393629074 0.7799690961837769
v -0.045911259949207306 0.03396383300423622 0.7793686389923096
v -0.04461042582988739 0.03909754008054733 0.7794054746627808
v -0.04306378960609436 0.036323755979537964 0.7796609997749329
v -0.016965780407190323 0.0737573504447937 0.7350389957427979
v -0.02101544663310051 0.07292762398719788 0.7403402328491211
v -0.013919591903686523 0.07148672640323639 0.7413246035575867
v -0.004045836627483368 0.07067200541496277 0.7436164617538452
v 0.006297122687101364 0.07234057039022446 0.7405349612236023
v -0.005981575697660446 0.07163533568382263 0.7500250935554504
v -0.016018163412809372 0.07232418656349182 0.7473325133323669
v -0.02629864402115345 0.07484180480241776 0.7459923028945923
v 0.00045229867100715637 0.07350055873394012 0.7581207156181335
f 2 3 1
f 1 3 4
f 5 6 8
f 8 6 7
f 9 4 10
f 10 4 3
f 12 13 11
f 11 13 9
f 14 12 16
f 16 12 15
f 18 19 17
f 17 19 20
f 22 23 21
f 21 23 24
f 26 27 25
f 25 27 28
f 30 31 29
f 29 31 32
f 33 34 36
f 36 34 35
f 37 38 40
f 40 38 39
f 41 42 6
f 6 42 43
f 6 43 7
f 7 43 44
f 45 34 46
f 46 34 33
f 48 49 47
f 47 49 50
f 52 53 51
f 51 53 54
f 56 52 55
f 55 52 51
f 58 59 57
f 57 59 60
f 61 62 4
f 4 62 1
f 64 65 63
f 63 65 66
f 68 69 67
f 67 69 70
f 72 73 71
f 71 73 74
f 76 77 75
f 75 77 78
f 53 79 54
f 54 79 80
f 82 83 81
f 81 83 84
f 85 86 52
f 52 86 53
f 57 60 87
f 87 60 88
f 89 90 43
f 43 90 44
f 43 42 89
f 89 42 91
f 40 39 92
f 92 39 93
f 94 70 64
f 64 70 69
f 13 61 9
f 9 61 4
f 25 28 69
f 69 28 95
f 96 25 68
f 68 25 69
f 98 99 97
f 97 99 100
f 101 102 104
f 104 102 103
f 106 30 105
f 105 30 29
f 51 54 107
f 107 54 108
f 54 80 108
f 108 80 109
f 111 112 110
f 110 112 113
f 115 5 114
f 114 5 116
f 115 41 5
f 5 41 6
f 36 35 111
f 111 35 117
f 35 118 117
f 117 118 119
f 34 120 35
f 35 120 118
f 34 45 120
f 120 45 121
f 125 126 124
f 124 126 127
f 128 129 14
f 14 129 130
f 33 131 46
f 46 131 132
f 133 94 63
f 63 94 64
f 134 135 137
f 137 135 136
f 139 140 138
f 138 140 141
f 77 142 78
f 78 142 143
f 144 145 20
f 20 145 146
f 148 149 147
f 147 149 72
f 151 152 150
f 150 152 153
f 82 101 83
f 83 101 104
f 101 82 155
f 155 82 154
f 156 157 58
f 58 157 59
f 158 68 147
f 147 68 67
f 159 146 15
f 15 146 16
f 68 158 96
f 96 158 160
f 129 66 130
f 130 66 65
f 162 163 161
f 161 163 164
f 166 167 165
f 165 167 168
f 170 171 169
f 169 171 172
f 174 171 173
f 173 171 170
f 176 177 175
f 175 177 178
f 180 181 179
f 179 181 24
f 182 183 21
f 21 183 184
f 81 185 82
f 82 185 154
f 186 187 188
f 188 187 144
f 158 71 160
f 160 71 189
f 190 135 157
f 157 135 59
f 169 172 139
f 139 172 140
f 147 72 158
f 158 72 71
f 192 193 191
f 191 193 194
f 167 166 49
f 49 166 195
f 196 190 50
f 50 190 157
f 197 198 200
f 200 198 199
f 21 24 182
f 182 24 181
f 146 159 20
f 20 159 17
f 182 181 81
f 81 181 185
f 201 185 180
f 180 185 181
f 202 203 83
f 83 203 84
f 205 206 204
f 204 206 85
f 207 22 184
f 184 22 21
f 179 24 208
f 208 24 23
f 208 209 179
f 179 209 205
f 209 210 205
f 205 210 206
f 212 206 211
f 211 206 210
f 179 205 180
f 180 205 204
f 213 176 88
f 88 176 214
f 86 85 212
f 212 85 206
f 193 217 218
f 217 219 218
f 218 219 220
f 219 18 220
f 220 18 17
f 19 221 20
f 20 221 144
f 222 223 225
f 225 223 224
f 175 226 176
f 176 226 214
f 227 87 214
f 214 87 88
f 220 17 228
f 228 17 159
f 134 213 60
f 60 213 88
f 138 229 151
f 151 229 152
f 193 192 210
f 210 192 211
f 230 194 218
f 218 194 193
f 231 232 228
f 228 232 230
f 233 234 91
f 91 234 89
f 235 236 93
f 93 236 92
f 230 232 234
f 234 232 237
f 47 238 48
f 48 238 239
f 240 191 235
f 235 191 236
f 5 8 116
f 116 8 241
f 242 243 189
f 189 243 160
f 244 245 98
f 98 245 99
f 156 246 47
f 47 246 238
f 76 247 77
f 77 247 248
f 250 125 249
f 249 125 124
f 252 253 251
f 251 253 254
f 111 110 36
f 36 110 255
f 256 33 255
f 255 33 36
f 257 258 154
f 154 258 155
f 63 169 133
f 133 169 139
f 66 170 63
f 63 170 169
f 173 170 129
f 129 170 66
f 129 128 173
f 173 128 259
f 128 260 259
f 259 260 261
f 213 134 262
f 262 134 137
f 263 264 186
f 186 264 187
f 112 265 113
f 113 265 266
f 11 267 268
f 234 233 230
f 230 233 194
f 153 269 70
f 70 269 67
f 175 178 165
f 165 178 141
f 150 153 94
f 94 153 70
f 271 221 270
f 270 221 207
f 269 153 272
f 272 153 152
f 121 45 109
f 109 45 108
f 47 50 156
f 156 50 157
f 57 273 58
f 58 273 274
f 145 275 260
f 260 275 261
f 276 149 143
f 143 149 78
f 148 269 75
f 75 269 272
f 207 277 270
f 270 277 278
f 195 196 49
f 49 196 50
f 59 135 60
f 60 135 134
f 83 104 202
f 202 104 279
f 149 148 78
f 78 148 75
f 247 278 248
f 248 278 277
f 183 182 84
f 84 182 81
f 48 239 281
f 281 239 282
f 227 223 283
f 283 223 222
f 223 226 224
f 224 226 168
f 281 282 224
f 224 282 225
f 165 168 175
f 175 168 226
f 264 263 138
f 138 263 229
f 14 16 128
f 128 16 260
f 220 228 218
f 218 228 230
f 87 227 284
f 284 227 283
f 260 16 145
f 145 16 146
f 244 98 258
f 258 98 155
f 58 274 156
f 156 274 246
f 107 285 51
f 51 285 55
f 243 286 160
f 160 286 96
f 234 237 89
f 89 237 90
f 46 132 107
f 107 132 285
f 253 252 249
f 249 252 250
f 286 26 96
f 96 26 25
f 106 105 287
f 287 105 288
f 272 152 289
f 289 152 229
f 138 151 139
f 139 151 133
f 183 290 161
f 161 290 162
f 291 292 277
f 277 292 293
f 151 150 133
f 133 150 94
f 262 275 177
f 177 275 187
f 144 187 145
f 145 187 275
f 273 57 284
f 284 57 87
f 174 136 190
f 190 136 135
f 111 117 112
f 112 117 38
f 117 119 38
f 38 119 123
f 112 38 265
f 265 38 37
f 287 288 254
f 254 288 251
f 228 159 231
f 231 159 15
f 223 227 226
f 226 227 214
f 147 67 148
f 148 67 269
f 224 168 281
f 281 168 167
f 199 163 200
f 200 163 162
f 45 46 108
f 108 46 107
f 281 167 48
f 48 167 49
f 161 164 291
f 291 164 292
f 38 123 39
f 293 294 277
f 277 294 248
f 284 283 296
f 296 283 295
f 284 296 273
f 273 296 297
f 274 273 298
f 298 273 297
f 246 274 299
f 299 274 298
f 283 222 295
f 295 222 300
f 222 225 300
f 300 225 301
f 301 225 302
f 302 225 282
f 303 304 300
f 300 304 295
f 306 307 305
f 305 307 308
f 309 310 308
f 308 310 305
f 308 307 312
f 312 307 311
f 313 314 312
f 312 314 315
f 311 316 312
f 312 316 313
f 317 304 311
f 311 304 316
f 315 309 312
f 312 309 308
f 318 319 321
f 321 319 320
f 319 318 309
f 309 318 310
f 311 307 317
f 317 307 306
f 306 297 317
f 317 297 296
f 306 322 297
f 297 322 298
f 305 323 306
f 306 323 322
f 323 305 324
f 324 305 310
f 304 317 295
f 295 317 296
f 318 325 310
f 310 325 324
f 323 324 326
f 326 324 327
f 324 325 327
f 327 325 328
f 326 327 329
f 329 327 330
f 329 331 326
f 326 331 332
f 333 330 328
f 328 330 327
f 323 326 322
f 322 326 332
f 322 332 298
f 298 332 299
f 325 318 334
f 334 318 321
f 313 316 335
f 335 316 304
f 335 336 313
f 313 336 314
f 304 303 335
f 335 303 337
f 336 335 338
f 338 335 337
f 336 339 314
f 314 339 340
f 246 299 238
f 238 299 341
f 239 342 282
f 282 342 302
f 342 239 341
f 341 239 238
f 341 331 342
f 342 331 343
f 331 329 343
f 343 329 344
f 342 343 302
f 302 343 345
f 341 299 331
f 331 299 332
f 346 301 345
f 345 301 302
f 346 303 301
f 301 303 300
f 347 337 346
f 346 337 303
f 347 346 348
f 348 346 345
f 349 347 350
f 350 347 348
f 343 344 345
f 345 344 348
f 344 351 348
f 348 351 350
f 337 347 338
f 338 347 349
f 353 338 352
f 352 338 349
f 352 355 354
f 354 355 356
f 352 349 355
f 355 349 350
f 352 354 353
f 353 354 334
f 353 334 339
f 339 334 321
f 339 336 353
f 353 336 338
f 329 330 344
f 344 330 351
f 356 351 333
f 333 351 330
f 356 355 351
f 351 355 350
f 354 356 328
f 328 356 333
f 328 325 354
f 354 325 334
f 309 315 319
f 319 315 320
f 320 340 321
f 321 340 339
f 320 315 340
f 340 315 314
f 137 136 261
f 261 136 259
f 140 166 141
f 141 166 165
f 172 171 195
f 195 171 196
f 171 174 196
f 196 174 190
f 178 177 264
f 264 177 187
f 172 195 140
f 140 195 166
f 137 261 262
f 262 261 275
f 178 264 141
f 141 264 138
f 262 177 213
f 213 177 176
f 136 174 259
f 259 174 173
f 358 359 357
f 357 359 360
f 362 363 361
f 361 363 364
f 361 364 365
f 365 364 366
f 367 368 370
f 370 368 369
f 76 371 247
f 247 371 372
f 373 374 362
f 362 374 363
f 376 377 375
f 375 377 378
f 289 229 380
f 380 229 379
f 381 379 263
f 263 379 229
f 383 384 382
f 382 384 385
f 386 368 374
f 374 368 363
f 76 289 371
f 371 289 380
f 377 376 359
f 359 376 387
f 388 386 360
f 360 386 374
f 389 383 366
f 366 383 390
f 392 393 391
f 391 393 394
f 383 382 390
f 390 382 395
f 396 365 390
f 390 365 366
f 389 366 367
f 367 366 364
f 357 397 358
f 358 397 398
f 373 399 357
f 357 399 397
f 389 367 400
f 400 367 370
f 382 385 375
f 375 385 372
f 357 360 373
f 373 360 374
f 361 401 362
f 362 401 402
f 387 388 359
f 359 388 360
f 363 368 364
f 364 368 367
f 358 398 403
f 403 398 404
f 396 392 405
f 405 392 391
f 392 395 393
f 393 395 378
f 393 403 394
f 394 403 404
f 375 378 382
f 382 378 395
f 365 396 406
f 406 396 405
f 362 402 373
f 373 402 399
f 271 270 400
f 400 270 384
f 401 361 406
f 406 361 365
f 381 369 386
f 386 369 368
f 392 396 395
f 395 396 390
f 393 378 403
f 403 378 377
f 403 377 358
f 358 377 359
f 406 405 408
f 408 405 407
f 406 408 401
f 401 408 409
f 401 409 402
f 402 409 410
f 402 410 399
f 399 410 411
f 405 391 407
f 407 391 412
f 391 394 412
f 412 394 413
f 394 404 413
f 413 404 414
f 415 416 412
f 412 416 407
f 418 419 417
f 417 419 420
f 421 422 418
f 418 422 419
f 419 422 424
f 424 422 423
f 425 426 424
f 424 426 427
f 423 428 424
f 424 428 425
f 427 420 424
f 424 420 419
f 420 429 417
f 417 429 430
f 423 422 431
f 431 422 421
f 421 409 431
f 431 409 408
f 421 432 409
f 409 432 410
f 418 433 421
f 421 433 432
f 434 433 417
f 417 433 418
f 431 416 423
f 423 416 428
f 416 431 407
f 407 431 408
f 435 434 430
f 430 434 417
f 433 434 436
f 436 434 437
f 434 435 437
f 437 435 438
f 436 437 439
f 439 437 440
f 439 441 436
f 436 441 442
f 438 443 437
f 437 443 440
f 436 442 433
f 433 442 432
f 432 442 410
f 410 442 411
f 435 430 445
f 445 430 444
f 430 429 444
f 444 429 446
f 425 428 447
f 447 428 416
f 426 425 448
f 448 425 447
f 416 415 447
f 447 415 449
f 447 449 448
f 448 449 450
f 451 452 448
f 448 452 426
f 446 452 444
f 444 452 451
f 399 411 397
f 397 411 453
f 398 454 404
f 404 454 414
f 454 398 453
f 453 398 397
f 453 441 454
f 454 441 455
f 441 439 455
f 455 439 456
f 454 455 414
f 414 455 457
f 441 453 442
f 442 453 411
f 458 413 457
f 457 413 414
f 458 415 413
f 413 415 412
f 458 459 415
f 415 459 449
f 459 458 460
f 460 458 457
f 461 459 462
f 462 459 460
f 455 456 457
f 457 456 460
f 456 463 460
f 460 463 462
f 459 461 449
f 449 461 450
f 465 450 464
f 464 450 461
f 464 467 466
f 466 467 468
f 464 461 467
f 467 461 462
f 464 466 465
f 465 466 445
f 465 445 451
f 451 445 444
f 451 448 465
f 465 448 450
f 439 440 456
f 456 440 463
f 468 463 443
f 443 463 440
f 468 467 463
f 463 467 462
f 466 468 438
f 438 468 443
f 438 435 466
f 466 435 445
f 420 427 429
f 429 427 446
f 446 427 452
f 452 427 426
f 370 369 188
f 188 369 186
f 371 376 372
f 372 376 375
f 380 379 387
f 387 379 388
f 379 381 388
f 388 381 386
f 385 384 278
f 278 384 270
f 380 387 371
f 371 387 376
f 400 370 271
f 271 370 188
f 385 278 372
f 372 278 247
f 400 384 389
f 389 384 383
f 369 381 186
f 186 381 263
f 221 271 144
f 144 271 188
f 221 19 207
f 207 19 22
f 19 18 22
f 22 18 23
f 18 219 23
f 23 219 208
f 469 470 472
f 472 470 471
f 474 475 473
f 473 475 476
f 473 476 477
f 477 476 478
f 480 481 479
f 479 481 482
f 483 484 474
f 474 484 475
f 486 487 485
f 485 487 488
f 489 490 77
f 77 490 142
f 491 489 248
f 248 489 77
f 493 494 492
f 492 494 495
f 496 480 484
f 484 480 475
f 486 497 487
f 487 497 471
f 498 496 472
f 472 496 484
f 499 493 478
f 478 493 500
f 501 502 504
f 504 502 503
f 493 492 500
f 500 492 505
f 506 477 500
f 500 477 478
f 499 478 479
f 479 478 476
f 469 507 470
f 470 507 508
f 483 509 469
f 469 509 507
f 479 482 499
f 499 482 510
f 492 495 485
f 485 495 511
f 483 469 484
f 484 469 472
f 473 512 474
f 474 512 513
f 497 498 471
f 471 498 472
f 475 480 476
f 476 480 479
f 470 508 514
f 514 508 515
f 506 502 516
f 516 502 501
f 503 502 488
f 488 502 505
f 514 515 503
f 503 515 504
f 485 488 492
f 492 488 505
f 477 506 517
f 517 506 516
f 474 513 483
f 483 513 509
f 510 292 494
f 494 292 164
f 512 473 517
f 517 473 477
f 491 481 496
f 496 481 480
f 502 506 505
f 505 506 500
f 503 488 514
f 514 488 487
f 514 487 470
f 470 487 471
f 517 516 519
f 519 516 518
f 517 519 512
f 512 519 520
f 512 520 513
f 513 520 521
f 513 521 509
f 509 521 522
f 516 501 518
f 518 501 523
f 501 504 523
f 523 504 524
f 524 504 525
f 525 504 515
f 526 527 523
f 523 527 518
f 529 530 528
f 528 530 531
f 532 533 529
f 529 533 530
f 530 533 535
f 535 533 534
f 536 537 535
f 535 537 538
f 534 539 535
f 535 539 536
f 538 531 535
f 535 531 530
f 540 541 531
f 531 541 528
f 533 532 534
f 534 532 542
f 532 520 542
f 542 520 519
f 532 543 520
f 520 543 521
f 529 544 532
f 532 544 543
f 544 529 545
f 545 529 528
f 534 542 539
f 539 542 527
f 527 542 518
f 518 542 519
f 541 546 528
f 528 546 545
f 547 544 548
f 548 544 545
f 546 549 545
f 545 549 548
f 550 547 551
f 551 547 548
f 547 550 553
f 553 550 552
f 549 554 548
f 548 554 551
f 544 547 543
f 543 547 553
f 543 553 521
f 521 553 522
f 546 541 556
f 556 541 555
f 541 540 555
f 555 540 557
f 536 539 558
f 558 539 527
f 537 536 559
f 559 536 558
f 527 526 558
f 558 526 560
f 559 558 561
f 561 558 560
f 559 562 537
f 537 562 563
f 557 563 555
f 555 563 562
f 509 522 507
f 507 522 564
f 508 565 515
f 515 565 525
f 565 508 564
f 564 508 507
f 564 552 565
f 565 552 566
f 552 550 566
f 566 550 567
f 565 566 525
f 525 566 568
f 564 522 552
f 552 522 553
f 569 524 568
f 568 524 525
f 569 526 524
f 524 526 523
f 570 560 569
f 569 560 526
f 570 569 571
f 571 569 568
f 572 570 573
f 573 570 571
f 566 567 568
f 568 567 571
f 567 574 571
f 571 574 573
f 570 572 560
f 560 572 561
f 576 561 575
f 575 561 572
f 575 578 577
f 577 578 579
f 575 572 578
f 578 572 573
f 575 577 576
f 576 577 556
f 576 556 562
f 562 556 555
f 562 559 576
f 576 559 561
f 550 551 567
f 567 551 574
f 579 574 554
f 554 574 551
f 579 578 574
f 574 578 573
f 579 554 577
f 577 554 549
f 549 546 577
f 577 546 556
f 531 538 540
f 540 538 557
f 557 538 563
f 563 538 537
f 481 294 482
f 482 294 293
f 580 486 511
f 511 486 485
f 490 489 497
f 497 489 498
f 489 491 498
f 498 491 496
f 163 495 164
f 164 495 494
f 580 490 486
f 486 490 497
f 482 293 510
f 510 293 292
f 495 163 511
f 511 163 199
f 494 493 510
f 510 493 499
f 481 491 294
f 294 491 248
f 582 583 581
f 581 583 584
f 586 587 585
f 585 587 588
f 585 588 589
f 589 588 590
f 592 593 591
f 591 593 594
f 595 596 598
f 598 596 597
f 599 600 586
f 586 600 587
f 601 602 604
f 604 602 603
f 605 606 608
f 608 606 607
f 609 607 200
f 200 607 606
f 610 611 613
f 613 611 612
f 600 614 587
f 587 614 592
f 596 605 597
f 597 605 608
f 602 615 603
f 603 615 583
f 616 614 584
f 584 614 600
f 611 618 617
f 617 618 590
f 620 621 619
f 619 621 622
f 610 623 611
f 611 623 618
f 624 589 618
f 618 589 590
f 617 590 591
f 591 590 588
f 581 625 582
f 582 625 626
f 599 627 581
f 581 627 625
f 591 594 617
f 617 594 628
f 601 610 598
f 598 610 613
f 581 584 599
f 599 584 600
f 585 629 586
f 586 629 630
f 615 616 583
f 583 616 584
f 587 592 588
f 588 592 591
f 582 626 631
f 631 626 632
f 624 620 633
f 633 620 619
f 621 620 604
f 604 620 623
f 631 632 621
f 621 632 622
f 610 601 623
f 623 601 604
f 589 624 634
f 634 624 633
f 586 630 599
f 599 630 627
f 203 202 628
f 628 202 612
f 629 585 634
f 634 585 589
f 609 593 614
f 614 593 592
f 620 624 623
f 623 624 618
f 631 621 603
f 603 621 604
f 582 631 583
f 583 631 603
f 634 633 636
f 636 633 635
f 634 636 629
f 629 636 637
f 629 637 630
f 630 637 638
f 630 638 627
f 627 638 639
f 633 619 635
f 635 619 640
f 619 622 640
f 640 622 641
f 641 622 642
f 642 622 632
f 644 635 643
f 643 635 640
f 645 646 648
f 648 646 647
f 649 650 646
f 646 650 647
f 647 650 652
f 652 650 651
f 652 653 655
f 655 653 654
f 651 656 652
f 652 656 653
f 655 648 652
f 652 648 647
f 648 657 645
f 645 657 658
f 650 649 651
f 651 649 659
f 649 637 659
f 659 637 636
f 649 660 637
f 637 660 638
f 661 660 646
f 646 660 649
f 662 661 645
f 645 661 646
f 651 659 656
f 656 659 644
f 644 659 635
f 635 659 636
f 663 662 658
f 658 662 645
f 664 661 665
f 665 661 662
f 663 666 662
f 662 666 665
f 667 664 668
f 668 664 665
f 664 667 670
f 670 667 669
f 666 671 665
f 665 671 668
f 661 664 660
f 660 664 670
f 660 670 638
f 638 670 639
f 658 672 663
f 663 672 673
f 658 657 672
f 672 657 674
f 653 656 675
f 675 656 644
f 653 675 654
f 654 675 676
f 675 644 677
f 677 644 643
f 676 675 678
f 678 675 677
f 679 680 676
f 676 680 654
f 674 680 672
f 672 680 679
f 627 639 625
f 625 639 681
f 626 682 632
f 632 682 642
f 681 682 625
f 625 682 626
f 669 683 681
f 681 683 682
f 667 684 669
f 669 684 683
f 682 683 642
f 642 683 685
f 681 639 669
f 669 639 670
f 686 641 685
f 685 641 642
f 641 686 640
f 640 686 643
f 686 687 643
f 643 687 677
f 687 686 688
f 688 686 685
f 689 687 690
f 690 687 688
f 683 684 685
f 685 684 688
f 684 691 688
f 688 691 690
f 687 689 677
f 677 689 678
f 693 678 692
f 692 678 689
f 692 695 694
f 694 695 696
f 692 689 695
f 695 689 690
f 692 694 693
f 693 694 673
f 693 673 679
f 679 673 672
f 679 676 693
f 693 676 678
f 684 667 691
f 691 667 668
f 696 691 671
f 671 691 668
f 696 695 691
f 691 695 690
f 694 696 666
f 666 696 671
f 666 663 694
f 694 663 673
f 648 655 657
f 657 655 674
f 674 655 680
f 680 655 654
f 593 162 594
f 594 162 290
f 598 597 601
f 601 597 602
f 615 608 616
f 616 608 607
f 607 609 616
f 616 609 614
f 697 595 613
f 613 595 598
f 597 608 602
f 602 608 615
f 594 290 628
f 628 290 203
f 628 612 617
f 617 612 611
f 593 609 162
f 162 609 200
f 105 29 698
f 698 29 699
f 268 126 701
f 701 126 700
f 126 125 700
f 700 125 702
f 252 703 250
f 250 703 704
f 32 268 705
f 705 268 701
f 288 105 706
f 706 105 698
f 29 32 699
f 699 32 705
f 707 251 706
f 706 251 288
f 250 704 125
f 125 704 702
f 703 252 707
f 707 252 251
f 706 708 707
f 707 708 709
f 707 709 703
f 703 709 710
f 703 710 704
f 704 710 711
f 704 711 702
f 702 711 712
f 706 698 708
f 708 698 713
f 698 699 713
f 713 699 714
f 699 705 714
f 714 705 715
f 717 708 716
f 716 708 713
f 719 720 718
f 718 720 721
f 722 723 719
f 719 723 720
f 724 725 723
f 723 725 720
f 724 726 725
f 725 726 727
f 728 721 725
f 725 721 720
f 721 728 729
f 729 728 730
f 729 731 721
f 721 731 718
f 724 723 732
f 732 723 722
f 722 710 732
f 732 710 709
f 722 733 710
f 710 733 711
f 719 734 722
f 722 734 733
f 734 719 735
f 735 719 718
f 724 732 726
f 726 732 717
f 717 732 708
f 708 732 709
f 731 736 718
f 718 736 735
f 737 734 738
f 738 734 735
f 736 739 735
f 735 739 738
f 740 737 741
f 741 737 738
f 737 740 743
f 743 740 742
f 739 744 738
f 738 744 741
f 734 737 733
f 733 737 743
f 733 743 711
f 711 743 712
f 736 731 746
f 746 731 745
f 731 729 745
f 745 729 730
f 727 726 747
f 747 726 717
f 748 727 749
f 749 727 747
f 747 717 750
f 750 717 716
f 749 747 751
f 751 747 750
f 749 752 748
f 748 752 753
f 730 753 745
f 745 753 752
f 728 725 748
f 748 725 727
f 730 728 753
f 753 728 748
f 700 702 754
f 754 702 712
f 705 701 715
f 715 701 755
f 754 755 700
f 700 755 701
f 742 756 754
f 754 756 755
f 740 757 742
f 742 757 756
f 755 756 715
f 715 756 758
f 754 712 742
f 742 712 743
f 759 714 758
f 758 714 715
f 714 759 713
f 713 759 716
f 759 760 716
f 716 760 750
f 760 759 761
f 761 759 758
f 762 760 763
f 763 760 761
f 756 757 758
f 758 757 761
f 757 764 761
f 761 764 763
f 760 762 750
f 750 762 751
f 766 751 765
f 765 751 762
f 767 765 769
f 769 765 768
f 765 762 768
f 768 762 763
f 765 767 766
f 766 767 746
f 766 746 752
f 752 746 745
f 752 749 766
f 766 749 751
f 757 740 764
f 764 740 741
f 769 764 744
f 744 764 741
f 769 768 764
f 764 768 763
f 767 769 739
f 739 769 744
f 739 736 767
f 767 736 746
f 219 217 208
f 208 217 209
f 209 217 210
f 210 217 193
f 198 580 199
f 199 580 511
f 76 75 289
f 289 75 272
f 277 207 291
f 291 207 184
f 290 183 203
f 203 183 84
f 490 580 142
f 142 580 198
f 142 198 143
f 143 198 197
f 149 276 72
f 72 276 73
f 104 103 279
f 279 103 770
f 770 596 279
f 279 596 595
f 605 596 771
f 771 596 770
f 771 770 772
f 772 770 103
f 772 103 773
f 773 103 102
f 155 774 101
f 101 774 102
f 773 102 97
f 97 102 774
f 775 773 100
f 100 773 97
f 773 775 772
f 772 775 776
f 772 776 771
f 771 776 777
f 200 606 197
f 197 606 777
f 189 71 778
f 778 71 74
f 97 774 98
f 98 774 155
f 183 161 184
f 184 161 291
f 777 276 197
f 197 276 143
f 777 606 771
f 771 606 605
f 613 612 697
f 697 612 202
f 595 697 279
f 279 697 202
f 73 276 776
f 776 276 777
f 776 775 73
f 73 775 74
f 100 778 775
f 775 778 74
f 778 100 189
f 189 100 99
f 245 242 99
f 99 242 189
f 131 33 256
f 28 1 95
f 95 1 62
f 27 2 28
f 28 2 1
f 265 115 266
f 266 115 114
f 95 62 69
f 69 62 64
f 62 61 64
f 64 61 65
f 61 13 65
f 65 13 130
f 13 12 130
f 130 12 14
f 31 11 32
f 32 11 268
f 15 12 31
f 31 12 11
f 31 30 15
f 15 30 231
f 30 106 231
f 231 106 232
f 287 237 106
f 106 237 232
f 254 90 287
f 287 90 237
f 253 44 254
f 254 44 90
f 253 249 44
f 44 249 7
f 267 127 268
f 268 127 126
f 10 3 241
f 241 3 116
f 3 2 116
f 116 2 114
f 2 27 114
f 114 27 266
f 27 26 266
f 266 26 113
f 26 286 113
f 113 286 110
f 286 243 110
f 110 243 255
f 243 242 255
f 255 242 256
f 242 245 256
f 256 245 131
f 245 244 131
f 131 244 132
f 265 37 115
f 115 37 41
f 41 37 42
f 42 37 40
f 92 91 40
f 40 91 42
f 236 233 92
f 92 233 91
f 191 194 236
f 236 194 233
f 258 285 244
f 244 285 132
f 257 55 258
f 258 55 285
f 257 154 201
f 201 154 185
f 56 201 204
f 204 201 180
f 55 257 56
f 56 257 201
f 204 85 56
f 56 85 52
f 86 122 53
f 53 122 79
f 212 215 86
f 86 215 122
f 211 216 212
f 212 216 215
f 192 280 211
f 211 280 216
f 191 240 192
f 192 240 280
f 249 124 7
f 7 124 8
f 124 127 8
f 8 127 241
f 127 267 241
f 241 267 10
f 10 267 9
f 9 267 11
