v 0.016188250854611397 -0.005293067544698715 0.7390974760055542
v 0.02790244109928608 -0.009698093868792057 0.7390837073326111
v 0.020116792991757393 -0.012955627404153347 0.7459441423416138
v 0.01039666123688221 -0.008722477592527866 0.7455308437347412
v 0.037929609417915344 -0.016027912497520447 0.7581601142883301
v 0.04326523095369339 -0.01034500915557146 0.7668222784996033
v 0.026058869436383247 -0.010490390472114086 0.7698928117752075
v 0.024169621989130974 -0.016023769974708557 0.7619397044181824
v 0.0048230234533548355 -0.007973049767315388 0.750257670879364
v 0.012815127149224281 -0.01354148704558611 0.7505472898483276
v 0.0036014188081026077 -0.0012469971552491188 0.7513864040374756
v -0.003773381933569908 0.00644398620352149 0.7546942830085754
v -0.0029647033661603928 -0.0008804649114608765 0.7525477409362793
v -0.011253438889980316 0.009595791809260845 0.7554682493209839
v 0.0026942547410726547 0.016297638416290283 0.7549770474433899
v -0.010390445590019226 0.01851925626397133 0.7523865103721619
v 0.010718921199440956 0.02907026931643486 0.7357022166252136
v 0.014366811141371727 0.029842253774404526 0.7235326170921326
v -0.0015312954783439636 0.028111480176448822 0.7219914793968201
v -0.004172304645180702 0.026977259665727615 0.7350031137466431
v 0.009599147364497185 0.024187009781599045 0.7050066590309143
v 0.0026497486978769302 0.026442360132932663 0.7139965295791626
v 0.018344728276133537 0.02948249876499176 0.7156444787979126
v 0.02370833419263363 0.027232006192207336 0.7073110342025757
v 0.024087144061923027 -0.0007262807339429855 0.7270888090133667
v 0.03540988266468048 -0.0028444789350032806 0.7261226773262024
v 0.03347146511077881 -0.004892895929515362 0.7306391000747681
v 0.02224518544971943 -0.0019439496099948883 0.7316067814826965
v 0.004028605297207832 0.0058659035712480545 0.7567296028137207
v 0.011203335598111153 0.010945117101073265 0.7598512768745422
v 0.005921566858887672 0.007161810528486967 0.7551180720329285
v 0.002842659130692482 0.0010132389143109322 0.7538645267486572
v 0.06099254637956619 -0.00873523112386465 0.7180885672569275
v 0.07283607870340347 -0.002953232266008854 0.7203605771064758
v 0.07217511534690857 -0.0025179581716656685 0.726257860660553
v 0.06157071888446808 -0.007661211304366589 0.7229196429252625
v 0.06437519192695618 -0.005884136073291302 0.7517024278640747
v 0.07151629030704498 -0.00015789968892931938 0.7454220056533813
v 0.07552803307771683 0.009256068617105484 0.7543701529502869
v 0.06677650660276413 0.007318880409002304 0.759063720703125
v 0.05463602393865585 -0.0094584496691823 0.7605952620506287
v 0.05751933157444 0.0018880092538893223 0.7659015655517578
v 0.04389627277851105 0.00040424009785056114 0.7712857127189636
v 0.02592369355261326 -0.0016201632097363472 0.7732509970664978
v 0.07431519031524658 -0.0010695969685912132 0.7077974081039429
v 0.065990149974823 -0.005506629124283791 0.7043518424034119
v -0.04288583621382713 0.0056056370958685875 0.71764075756073
v -0.04129908233880997 0.010643335990607738 0.7145476937294006
v -0.037750259041786194 0.007845650427043438 0.7194855213165283
v -0.04030127450823784 0.00414630863815546 0.721622884273529
v 0.06766999512910843 0.013080799952149391 0.6953276991844177
v 0.06624232977628708 0.02304058149456978 0.6961278915405273
v 0.07338526099920273 0.021927393972873688 0.6958954930305481
v 0.0749281644821167 0.012731600552797318 0.6970071196556091
v 0.05801130831241608 0.013322283513844013 0.6932804584503174
v 0.05624769628047943 0.02388060837984085 0.6969988942146301
v -0.05120440572500229 0.008776958100497723 0.7276675701141357
v -0.04915683716535568 0.004848170094192028 0.7245681285858154
v -0.04613710939884186 0.005141003988683224 0.7292793393135071
v -0.04634898528456688 0.009261447004973888 0.7328353524208069
v 0.0007597152143716812 -0.004319814965128899 0.7478520274162292
v 0.005870001390576363 -0.003955512307584286 0.7404858469963074
v -0.01785019226372242 -0.0017119357362389565 0.7445589303970337
v -0.008107397705316544 -0.0017502959817647934 0.7433968782424927
v -0.008455915376543999 -0.0014039874076843262 0.749889075756073
v -0.017114678397774696 -0.0008333390578627586 0.7503576278686523
v 0.0016219895333051682 0.00020928122103214264 0.7221181988716125
v 0.013317575678229332 0.0004846099764108658 0.7234044075012207
v 0.010369407013058662 0.0002869972959160805 0.7290658950805664
v -0.002728823572397232 -0.0006055040284991264 0.7294706702232361
v 0.017530346289277077 -0.0024359645321965218 0.7102732062339783
v 0.005564933642745018 -0.002213851548731327 0.7100399136543274
v 0.009072443470358849 -0.0041120098903775215 0.7025507092475891
v 0.01716340146958828 -0.004676474258303642 0.7040908932685852
v -0.015564966015517712 0.0006563751958310604 0.712344229221344
v -0.022550608962774277 0.0052702054381370544 0.7117990851402283
v -0.02293550968170166 0.004458529409021139 0.7087204456329346
v -0.014960085041821003 0.00047173164784908295 0.708284854888916
v 0.0804053321480751 0.02192673273384571 0.6961320042610168
v 0.08165580779314041 0.012799862772226334 0.6995267271995544
v 0.019069118425250053 0.016909897327423096 0.6882026195526123
v 0.02492997981607914 0.009136040695011616 0.6827695369720459
v 0.014331882819533348 0.007252806797623634 0.6796174049377441
v 0.01104799471795559 0.01560557447373867 0.6860491037368774
v 0.06310490518808365 0.030718989670276642 0.7023828625679016
v 0.07057125866413116 0.030649930238723755 0.7000710964202881
v -0.0512450635433197 0.015114960260689259 0.7283660173416138
v -0.04499642923474312 0.014523048885166645 0.7334092259407043
v 0.04445783048868179 0.011666681617498398 0.7682486176490784
v 0.02573244459927082 0.0072953891940414906 0.7713425755500793
v 0.057942286133766174 0.014932911843061447 0.7629278898239136
v 0.06652624160051346 0.018402379006147385 0.7578409910202026
v 0.07462761551141739 0.020696256309747696 0.7560728788375854
v -0.01116967760026455 -0.0015191193670034409 0.7377315163612366
v 0.012214155867695808 -0.0016953935846686363 0.7342225313186646
v 0.02568064071238041 -0.0007739756256341934 0.7225936651229858
v 0.030315695330500603 -0.008789618499577045 0.6935375332832336
v 0.040938034653663635 -0.008990691043436527 0.6952903270721436
v 0.035218432545661926 -0.009055702947080135 0.7041448950767517
v 0.027085794135928154 -0.008195324800908566 0.7006957530975342
v 0.02519473247230053 -0.0003856103867292404 0.6816530227661133
v 0.021852513775229454 -0.006220342591404915 0.6859448552131653
v 0.011859172955155373 -0.00609170738607645 0.683704137802124
v 0.014735741540789604 -0.00100724957883358 0.6793035268783569
v 0.004961984232068062 0.009070083498954773 0.7630361914634705
v 0.016312191262841225 0.013556069694459438 0.76410973072052
v 0.06842387467622757 0.0030254540033638477 0.6981445550918579
v 0.07504891604185104 0.003917953930795193 0.7019286155700684
v 0.08263929933309555 0.006619095802307129 0.7041153311729431
v 0.04860080033540726 -0.006974396295845509 0.7237386107444763
v 0.062094733119010925 -0.007227526977658272 0.7265723347663879
v 0.06129416823387146 -0.008300312794744968 0.7319132089614868
v 0.04827374219894409 -0.007201134227216244 0.7268819212913513
v 0.03961651772260666 -0.014890932478010654 0.7429634928703308
v 0.05124671757221222 -0.014448405243456364 0.7486717104911804
v 0.028595635667443275 -0.017338257282972336 0.7500346302986145
v 0.07308126986026764 -0.0017409883439540863 0.7347487807273865
v 0.08186526596546173 -0.00037837307900190353 0.7281202077865601
v 0.08142950385808945 0.0012822519056499004 0.7369505763053894
v 0.08281213045120239 0.0003827330656349659 0.7184131741523743
v 0.08312448114156723 0.002545848023146391 0.7097865343093872
v 0.07837648689746857 0.033472366631031036 0.6984628438949585
v 0.07990062236785889 0.004481238313019276 0.7447234988212585
v 0.014949651435017586 -0.01487546507269144 0.7626293897628784
v 0.006417645141482353 -0.013406024314463139 0.7627120018005371
v 0.005111241713166237 -0.011696440167725086 0.7553138732910156
v 0.012217873707413673 -0.013708475045859814 0.754747211933136
v -0.02193649671971798 0.009938555769622326 0.7544384598731995
v -0.020044658333063126 0.0027526961639523506 0.7532180547714233
v -0.009194744750857353 0.002486683428287506 0.7550354599952698
v 0.05140563100576401 -0.009769606404006481 0.7117317914962769
v 0.05616798996925354 -0.007336949929594994 0.7004284262657166
v -0.020055707544088364 0.000893046148121357 0.7389859557151794
v -0.04678856581449509 0.01088696252554655 0.7371697425842285
v -0.04599965363740921 0.005446829833090305 0.7350640296936035
v -0.03731081262230873 0.0063561322167515755 0.7461299300193787
v -0.038657329976558685 0.012792273424565792 0.747141420841217
v -0.027092117816209793 0.009825038723647594 0.7331790328025818
v -0.023669138550758362 0.00567620899528265 0.7350590229034424
v -0.02515709400177002 0.008831736631691456 0.7328088879585266
v -0.026641350239515305 0.014643515460193157 0.730430543422699
v -0.01887604594230652 0.003268387634307146 0.7003657817840576
v -0.01162320002913475 -0.00024043768644332886 0.7001820802688599
v -0.019516315311193466 0.0213700532913208 0.7342870235443115
v -0.019059788435697556 0.024082161486148834 0.7475288510322571
v -0.006370950490236282 0.02541191875934601 0.7446778416633606
v 0.004690235480666161 -0.0006910478696227074 0.7154081463813782
v -0.0059227533638477325 -0.001054932363331318 0.7133196592330933
v -0.004964027553796768 -0.001479892060160637 0.7091356515884399
v -0.01451796479523182 -0.0005672639235854149 0.7342436909675598
v -0.02145969495177269 0.0027813580818474293 0.7345458269119263
v -0.01977362297475338 0.0004047802649438381 0.7302638292312622
v -0.012038059532642365 -0.00048407260328531265 0.7291669845581055
v 0.03698165714740753 0.011843180283904076 0.6859898567199707
v 0.03776109963655472 0.0004993458278477192 0.684384286403656
v -0.0458889938890934 0.0035859672352671623 0.7210402488708496
v -0.04343158379197121 0.003078780137002468 0.7254845499992371
v 0.01611258275806904 -0.0003516022115945816 0.7168129086494446
v 0.00794762559235096 0.02555036172270775 0.7441960573196411
v 0.027478931471705437 -0.0015254365280270576 0.7175630331039429
v -0.0056397076696157455 0.016159377992153168 0.6941941976547241
v -0.007065519690513611 0.011311770416796207 0.6908718943595886
v -0.014222364872694016 0.013368766754865646 0.6925496459007263
v -0.012785712257027626 0.01796826161444187 0.6948230266571045
v -0.03502735495567322 0.017746252939105034 0.7230885028839111
v -0.03572870045900345 0.012111782096326351 0.721488893032074
v -0.03599947318434715 0.013424844481050968 0.7181662917137146
v -0.03670617938041687 0.018808361142873764 0.7202062010765076
v -0.02393477037549019 0.001827663742005825 0.7387555241584778
v -0.024910135194659233 -2.2683292627334595e-05 0.7449221611022949
v -0.029937364161014557 0.0014624940231442451 0.7385641932487488
v -0.02741193026304245 0.004897628910839558 0.7347796559333801
v -0.028595836833119392 0.0026535307988524437 0.7478954195976257
v -0.03382572531700134 0.002267797477543354 0.7430099248886108
v -0.037031158804893494 0.021658968180418015 0.7275541424751282
v -0.041449081152677536 0.02080812305212021 0.7336246371269226
v -0.03365306183695793 0.022896956652402878 0.7395707368850708
v -0.030492201447486877 0.020775189623236656 0.7329736948013306
v 0.037758439779281616 0.030551884323358536 0.7097212672233582
v 0.041530340909957886 0.02662355825304985 0.7001395225524902
v 0.027693523094058037 0.02319612354040146 0.697528600692749
v 0.014774778857827187 0.020420223474502563 0.6946163177490234
v 0.002034829929471016 0.01637059636414051 0.6929914951324463
v -0.0016680005937814713 0.022120151668787003 0.7023091912269592
v 0.03162013739347458 0.019960664212703705 0.6913858652114868
v -0.030070224776864052 0.010181707330048084 0.7298568487167358
v -0.026682911440730095 0.01941143348813057 0.740491509437561
v -0.027049824595451355 0.01508700754493475 0.7320809960365295
v 0.029016094282269478 -0.004259755834937096 0.7108857035636902
v -0.04416543245315552 0.0025561125949025154 0.7320199012756348
v 0.06359438598155975 0.0345543771982193 0.7443516254425049
v 0.06368295103311539 0.038370370864868164 0.731991171836853
v 0.055287621915340424 0.03636489436030388 0.7335764169692993
v 0.055033572018146515 0.03160695731639862 0.7467350959777832
v -0.03815854713320732 0.005768614821135998 0.7234237790107727
v -0.04082041233778 0.0021287137642502785 0.727288544178009
v -0.011252256110310555 0.000913009513169527 0.6935600638389587
v -0.017572345212101936 0.0049771275371313095 0.6950384378433228
v -0.01833781599998474 0.008233889937400818 0.6928445100784302
v -0.012442268431186676 0.00381330749951303 0.6883133053779602
v 0.04474828392267227 0.024050459265708923 0.6960022449493408
v 0.008410817012190819 0.0052084121853113174 0.6786292195320129
v 0.006871180608868599 0.013819046318531036 0.684539794921875
v 0.05375874787569046 0.029647808521986008 0.7028844952583313
v 0.050568968057632446 0.033627741038799286 0.7111414670944214
v 0.06000186502933502 0.035641226917505264 0.7116028666496277
v -0.013183001428842545 0.022445855662226677 0.7135195136070251
v 0.033050961792469025 0.032156530767679214 0.7167781591415405
v 0.04710662364959717 0.03459279611706734 0.7178667783737183
v 0.05826404690742493 0.03700092434883118 0.7187456488609314
v 0.06627234816551208 0.03922681510448456 0.7186362147331238
v 0.06740919500589371 0.03728703781962395 0.7108256816864014
v -0.04416605830192566 0.01614564284682274 0.7363840937614441
v -0.043341729789972305 0.02075033262372017 0.7301532626152039
v 0.07569502294063568 0.040635764598846436 0.7093755602836609
v 0.07418890297412872 0.042057547718286514 0.7183937430381775
v 0.04393967241048813 0.03482231870293617 0.7265092134475708
v 0.04063612222671509 0.033791229128837585 0.736382782459259
v 0.03043541871011257 0.03233702853322029 0.7249931693077087
v 0.02590549923479557 0.03125310689210892 0.7348752617835999
v -0.013379249721765518 0.026498321443796158 0.7232863903045654
v -0.05655134469270706 0.021424192935228348 0.7123665809631348
v -0.04699958115816116 0.02395511418581009 0.7199085354804993
v -0.042976263910532 0.021712981164455414 0.715817391872406
v -0.05353807657957077 0.021740004420280457 0.7092985510826111
v -0.03936681151390076 0.021965336054563522 0.724411129951477
v -0.04966294765472412 0.02151874452829361 0.7250798940658569
v 0.023240303620696068 0.02653229609131813 0.7458317875862122
v -0.027583759278059006 0.002782232128083706 0.7279847860336304
v 0.03945399820804596 0.026899460703134537 0.7494068145751953
v 0.015538671985268593 0.020427770912647247 0.7562092542648315
v 0.02721388451755047 0.019491292536258698 0.7593004107475281
v 0.05546620488166809 0.02589496225118637 0.7560049295425415
v 0.042210787534713745 0.020694563165307045 0.7621558308601379
v 0.0722908303141594 0.02984827756881714 0.7517502307891846
v 0.06370165199041367 0.028278332203626633 0.7530133128166199
v 0.028915943577885628 0.015361839905381203 0.7662717700004578
v -0.04886461794376373 0.007639086805284023 0.7088793516159058
v -0.047526828944683075 0.013112767599523067 0.7071189880371094
v 0.07153581082820892 0.03690473362803459 0.7435513734817505
v 0.01881425641477108 -0.01614120975136757 0.7535203695297241
v 0.03931836783885956 -0.0061004310846328735 0.7141606211662292
v 0.037773579359054565 -0.004016425460577011 0.7189327478408813
v 0.04711812734603882 -0.008557791821658611 0.697051465511322
v 0.042380355298519135 -0.009281373582780361 0.707630455493927
v -0.05195213854312897 0.0043748123571276665 0.7122097611427307
v -0.02561859041452408 0.01135953888297081 0.7115237712860107
v -0.023102322593331337 0.009111094288527966 0.7113365530967712
v 0.016158686950802803 -0.010668979026377201 0.7699583172798157
v 0.008045429363846779 -0.010502946563065052 0.7695661187171936
v 0.005312090739607811 0.0021758070215582848 0.771760880947113
v 0.006497060880064964 -0.0047603631392121315 0.7730536460876465
v 0.01575891487300396 -0.0027976064011454582 0.7733352780342102
v 0.014841007068753242 0.004721442703157663 0.7717180252075195
v 0.048540063202381134 -0.007207146845757961 0.7211499810218811
v 0.04883814603090286 -0.00796541478484869 0.7173791527748108
v 0.048208072781562805 0.01246633380651474 0.6896035075187683
v 0.04840191453695297 0.0010725120082497597 0.6883715391159058
v -0.030873902142047882 0.007971961051225662 0.7502989172935486
v -0.023484619334340096 0.016575511544942856 0.7532864809036255
v -0.031851090490818024 0.014306395314633846 0.7506446838378906
v -0.03592102229595184 0.019088640809059143 0.7459331154823303
v -0.031232845038175583 0.00731957983225584 0.7276076674461365
v -0.027755698189139366 0.015547803603112698 0.7348995804786682
v 0.056799329817295074 -0.011573213152587414 0.7391350269317627
v 0.04574170708656311 -0.010177736170589924 0.7334948778152466
v 0.008445048704743385 -0.010201302357017994 0.7521488666534424
v 0.0035317260771989822 -0.00638060737401247 0.7518369555473328
v -0.007647678256034851 -0.00035736337304115295 0.7223817110061646
v -0.02386157400906086 0.02193262055516243 0.7167015075683594
v -0.024866556748747826 0.02287968248128891 0.7232112288475037
v -0.017149213701486588 0.0005857115611433983 0.7220032215118408
v -0.058554936200380325 0.007364562712609768 0.7168734669685364
v -0.055152952671051025 0.004437870346009731 0.7145026922225952
v -0.029410384595394135 0.02017606422305107 0.7485076189041138
v -0.0023646708577871323 -0.0036752717569470406 0.7012478709220886
v -0.014472419396042824 0.018100302666425705 0.7113767266273499
v -0.02474115788936615 0.01855393499135971 0.7137312889099121
v 0.008550437167286873 -0.000917281024158001 0.6780954003334045
v 0.07231688499450684 0.04040325805544853 0.7315753102302551
v -0.041038237512111664 0.016700714826583862 0.7130745649337769
v -0.048364512622356415 0.018046054989099503 0.7070381045341492
v -0.05833815038204193 0.019149303436279297 0.7157086133956909
v -0.05947808921337128 0.01339628454297781 0.7184186577796936
v 0.05771101266145706 0.0012742993421852589 0.6936169266700745
v 0.03644024580717087 -0.0029624570161104202 0.721993088722229
v 0.017052097246050835 0.011996776796877384 0.7671413421630859
v 0.005226412788033485 0.007656084839254618 0.7673547267913818
v -0.023396579548716545 0.002467856276780367 0.7202404737472534
v 0.0005143284797668457 0.01318332925438881 0.6900095343589783
v -0.008525056764483452 0.021404825150966644 0.7010472416877747
v -0.012673169374465942 0.02218274027109146 0.7023351192474365
v -0.01548842154443264 0.019882913678884506 0.7089119553565979
v -0.020843327045440674 0.014854424633085728 0.7115868926048279
v -0.06130407378077507 0.017981283366680145 0.7108027935028076
v -0.06192506104707718 0.012929375283420086 0.7136577367782593
v -0.060452334582805634 0.007046735845506191 0.713099479675293
v -0.05747906118631363 0.004397808574140072 0.7111393809318542
v -0.05351787060499191 0.004870756529271603 0.7090363502502441
v -0.06012585759162903 0.020251628011465073 0.7072423696517944
v -0.05745571851730347 0.0202634334564209 0.7045646905899048
v -0.05147289112210274 0.017872396856546402 0.7040226459503174
v -0.062054187059402466 0.0185365229845047 0.7023993134498596
v -0.06570993363857269 0.014647911302745342 0.7036885023117065
v -0.06364157795906067 0.0010246699675917625 0.7012966275215149
v -0.0636628121137619 0.003965008072555065 0.7063606977462769
v -0.06552395224571228 0.004544331692159176 0.7044123411178589
v -0.06631291657686234 0.002519744448363781 0.6998289823532104
v -0.06809848546981812 0.0014758845791220665 0.694941520690918
v -0.06534237414598465 -0.0005795294418931007 0.6960737109184265
v -0.06609597057104111 0.009075763635337353 0.7054102420806885
v -0.06751669198274612 0.006913355551660061 0.6990503072738647
v -0.06725835055112839 0.010852496139705181 0.6973605155944824
v -0.06904545426368713 0.008650432340800762 0.6924126744270325
v -0.0695580467581749 0.0051918355748057365 0.6938439607620239
v -0.06667650490999222 0.012102398090064526 0.701951265335083
v -0.06541421264410019 0.010086665861308575 0.7074064016342163
v -0.06713328510522842 -2.3865140974521637e-05 0.69169020652771
v -0.06926317512989044 0.0013731447979807854 0.6921947002410889
v -0.07010876387357712 0.004308345727622509 0.6908280253410339
v -0.06896115839481354 0.0031948713585734367 0.6880980730056763
v -0.05816245824098587 0.003023839555680752 0.7080206274986267
v -0.06104905903339386 0.00015478115528821945 0.7008442282676697
v -0.06226273626089096 -0.00019478518515825272 0.6947799921035767
v -0.06443654000759125 0.00035836081951856613 0.6905258893966675
v -0.05803939700126648 0.0015166057273745537 0.6980099081993103
v -0.06006120890378952 0.0014051226899027824 0.6934350728988647
v -0.06175827980041504 0.0023191673681139946 0.6897206902503967
v -0.05620916187763214 0.004453915171325207 0.6952869892120361
v -0.05873413383960724 0.003884672187268734 0.6917812824249268
v -0.051833491772413254 0.007639436982572079 0.705262303352356
v -0.0536709688603878 0.004598851315677166 0.7078611850738525
v -0.060002464801073074 0.003575406037271023 0.6893401145935059
v -0.06699568033218384 0.0036758435890078545 0.6868405938148499
v -0.06549135595560074 0.014213635586202145 0.6971647143363953
v -0.06688196212053299 0.010578575544059277 0.6909790635108948
v -0.06356891244649887 0.015417634509503841 0.6960057020187378
v -0.0652356743812561 0.012034195475280285 0.6898571252822876
v -0.06883039325475693 0.008052903227508068 0.6875855922698975
v -0.06961774826049805 0.00707662757486105 0.6899147033691406
v -0.0502789244055748 0.008321813307702541 0.7070097923278809
v -0.049551092088222504 0.013927451334893703 0.7049522399902344
v -0.051087331026792526 0.013432434760034084 0.7028295993804932
v -0.055716194212436676 0.00888602714985609 0.6932066679000854
v -0.0532260499894619 0.016984127461910248 0.7011750936508179
v -0.0589245930314064 0.01850341260433197 0.699971616268158
v -0.06124340370297432 0.015104922465980053 0.6939157843589783
v -0.05825749784708023 0.013517576269805431 0.69286048412323
v -0.06259838491678238 0.011950216256082058 0.68939208984375
v -0.06043365225195885 0.010584439150989056 0.6895530223846436
v -0.058579377830028534 0.007106996141374111 0.6899358034133911
v -0.0636320561170578 0.008616569451987743 0.686876118183136
v -0.0666668638586998 0.00859649758785963 0.686859667301178
v -0.06363945454359055 0.004768527112901211 0.6870684623718262
v -0.061709627509117126 0.008635933510959148 0.6875473856925964
v -0.06129030883312225 0.0056701479479670525 0.6882603764533997
v -0.05409828573465347 0.010628294199705124 0.6948784589767456
v -0.05061397701501846 0.015223594382405281 0.6936551332473755
v -0.047927048057317734 0.011203400790691376 0.6984695792198181
v -0.05103236064314842 0.008023208938539028 0.7005273103713989
v -0.061343297362327576 0.015380773693323135 0.7060543298721313
v -0.06023102253675461 0.010832748375833035 0.7014960646629333
v -0.057513438165187836 0.010264284908771515 0.7084566950798035
v -0.057375289499759674 0.016694512218236923 0.7119637131690979
v -0.05837482959032059 0.02148943394422531 0.7074877619743347
v -0.053312718868255615 0.022170091047883034 0.711520254611969
v -0.05544435232877731 0.018977034837007523 0.7156080603599548
v -0.05495935678482056 0.011928398162126541 0.7138110399246216
v -0.03775975853204727 0.0109091866761446 0.7244028449058533
v -0.03867277503013611 0.017885442823171616 0.7254220843315125
v -0.02835880219936371 0.009025346487760544 0.7111182808876038
v -0.029122481122612953 0.013426017947494984 0.7104588747024536
v -0.05713827908039093 0.009806065820157528 0.6973661184310913
v -0.054659485816955566 0.007950499653816223 0.7043032646179199
v -0.04300176724791527 0.017953723669052124 0.698857843875885
v -0.044294752180576324 0.01266243401914835 0.6993092894554138
v -0.045499175786972046 0.015144246630370617 0.696833610534668
v -0.04477439075708389 0.019939467310905457 0.6980192065238953
v -0.03329981118440628 0.004896351136267185 0.7201095819473267
v -0.029689237475395203 0.006270295009016991 0.7159518599510193
v -0.036020677536726 0.0068604410625994205 0.7220309376716614
v -0.044233404099941254 0.02364826202392578 0.7019490003585815
v -0.047383345663547516 0.027316037565469742 0.7068192362785339
v -0.03339484706521034 0.02573869377374649 0.7158026695251465
v -0.031096408143639565 0.022087395191192627 0.7116742134094238
v -0.053129956126213074 0.008106933906674385 0.7102436423301697
v -0.04724797233939171 0.008683042600750923 0.7020421624183655
v -0.050066594034433365 0.006647729780524969 0.7056108117103577
v -0.05183263123035431 0.024778857827186584 0.7128028869628906
v -0.050122108310461044 0.0260164774954319 0.7060667276382446
v -0.0580885112285614 0.03169172257184982 0.6922638416290283
v -0.051062896847724915 0.02671165019273758 0.6997741460800171
v -0.048756152391433716 0.02411818876862526 0.6959526538848877
v -0.05562242865562439 0.03072524070739746 0.6879798173904419
v -0.04677277430891991 0.02374652400612831 0.7015869617462158
v -0.05477108061313629 0.02614239603281021 0.7037267684936523
v -0.060819126665592194 0.019380204379558563 0.6825531721115112
v -0.05700790137052536 0.023977693170309067 0.68210369348526
v -0.06431243568658829 0.017845042049884796 0.6847394108772278
v -0.03659285977482796 0.02417413517832756 0.7214885950088501
v -0.06796856224536896 0.020263073965907097 0.6943141222000122
v -0.06657145917415619 0.01753673143684864 0.6885164976119995
v -0.04815266281366348 0.020081255584955215 0.6936202645301819
v -0.05537622421979904 0.028228435665369034 0.6839480400085449
v -0.06114698201417923 0.030952341854572296 0.6955440640449524
v -0.06528420001268387 0.025890763849020004 0.6980432271957397
v -0.06350505352020264 0.03161754086613655 0.6922800540924072
v -0.06773722171783447 0.02702665701508522 0.6932458281517029
v -0.0702357217669487 0.020849693566560745 0.6883679032325745
v -0.06850174069404602 0.019225474447011948 0.6833674311637878
v -0.06580167263746262 0.01986989751458168 0.6807248592376709
v -0.060760170221328735 0.03323519974946976 0.689454972743988
v -0.05838842689990997 0.03327136114239693 0.6852807402610779
v -0.05710732191801071 0.029502928256988525 0.68180912733078
v -0.06432397663593292 0.036738283932209015 0.6857484579086304
v -0.06795790791511536 0.035416826605796814 0.6875280141830444
v -0.0805777907371521 0.03463033586740494 0.6741403937339783
v -0.07774445414543152 0.030472885817289352 0.6775867938995361
v -0.07802994549274445 0.032454703003168106 0.6794618964195251
v -0.08102709800004959 0.03623048588633537 0.6764971613883972
v -0.07541587203741074 0.027077581733465195 0.6828200817108154
v -0.07577745616436005 0.030001040548086166 0.6828727126121521
v -0.07315356284379959 0.03237887844443321 0.6857632994651794
v -0.07617667317390442 0.03613321855664253 0.6820141077041626
v -0.0724252387881279 0.03915978595614433 0.683099627494812
v -0.07599662989377975 0.04321315512061119 0.6806966066360474
v -0.07990101724863052 0.0403720997273922 0.6795443296432495
v -0.07125642895698547 0.03576990216970444 0.6858319640159607
v -0.0823189839720726 0.03939324989914894 0.6751766204833984
v -0.08192817121744156 0.03991788253188133 0.6725957989692688
v -0.07169923186302185 0.030174974352121353 0.687676191329956
v -0.07154865562915802 0.022458765655755997 0.6802216172218323
v -0.0761609673500061 0.029631007462739944 0.6750463843345642
v -0.07869225740432739 0.03500749543309212 0.6715224981307983
v -0.07979584485292435 0.04111485555768013 0.670748770236969
v -0.07318966090679169 0.031000882387161255 0.6724504828453064
v -0.07623516023159027 0.03636202961206436 0.6700438261032104
v -0.07711555063724518 0.041456546634435654 0.6699824333190918
v -0.06956151872873306 0.03359024599194527 0.6710422039031982
v -0.07294324785470963 0.038850460201501846 0.6693390607833862
v -0.0633033886551857 0.02438724786043167 0.6765885353088379
v -0.06749080866575241 0.022349081933498383 0.6775895357131958
v -0.07471361011266708 0.04113379493355751 0.6696323156356812
v -0.0814749076962471 0.044243182986974716 0.6749967336654663
v -0.07920072227716446 0.04497474804520607 0.6724839806556702
v -0.08159396797418594 0.043160390108823776 0.6766176819801331
v -0.070685975253582 0.04030323401093483 0.6830728054046631
v -0.07438677549362183 0.044510383158922195 0.6796733736991882
v -0.06851826608181 0.04145805165171623 0.681909441947937
v -0.07292819023132324 0.04576697573065758 0.678145706653595
v -0.07779967039823532 0.04661385342478752 0.6771690845489502
v -0.07897663116455078 0.04550332948565483 0.6780441403388977
v -0.06196676939725876 0.021485216915607452 0.6795492172241211
v -0.05831848084926605 0.025475800037384033 0.6801742315292358
v -0.059428393840789795 0.028289828449487686 0.677780032157898
v -0.06624206155538559 0.037134237587451935 0.6725473403930664
v -0.0584222786128521 0.032269444316625595 0.6803879737854004
v -0.06170814856886864 0.0364108607172966 0.68348228931427
v -0.06645149737596512 0.041346773505210876 0.6800114512443542
v -0.06545349210500717 0.04021685570478439 0.676260232925415
v -0.07112301141023636 0.04600438103079796 0.6767643094062805
v -0.0692480280995369 0.04398198053240776 0.6747605204582214
v -0.07024255394935608 0.04130975902080536 0.6708983778953552
v -0.07479199767112732 0.047306615859270096 0.6742188930511475
v -0.07670456916093826 0.04729190841317177 0.6758385300636292
v -0.07707919180393219 0.0447004996240139 0.6714684367179871
v -0.07236329466104507 0.04570880904793739 0.6731055378913879
v -0.07401823252439499 0.04355758801102638 0.6706598401069641
v -0.04818145930767059 0.021640315651893616 0.7099534869194031
v -0.048422425985336304 0.022026807069778442 0.7044464945793152
v -0.04429904744029045 0.017615322023630142 0.7032700777053833
v -0.04420781880617142 0.01815802976489067 0.7090460658073425
v -0.0386812724173069 0.029678326100111008 0.7140955328941345
v -0.04222102090716362 0.02631216123700142 0.7150493860244751
v -0.039457958191633224 0.02383793145418167 0.7142638564109802
v -0.035142235457897186 0.02709358185529709 0.7128134965896606
v -0.03785290569067001 0.03363785892724991 0.7103740572929382
v -0.033247604966163635 0.029972758144140244 0.7085356712341309
v -0.03119305521249771 0.026587292551994324 0.7121894359588623
v -0.036062125116586685 0.02270258218050003 0.7135617733001709
v -0.023693613708019257 0.016322869807481766 0.7120457887649536
v -0.019949842244386673 0.022133719176054 0.710501492023468
v -0.045658186078071594 0.02344178408384323 0.7131593823432922
v -0.04263422638177872 0.020844366401433945 0.7126680016517639
v -0.03824305906891823 0.01949843019247055 0.6956658959388733
v -0.039837393909692764 0.01594041846692562 0.6988317966461182
v -0.04310387000441551 0.02031508833169937 0.6986194252967834
v -0.041285041719675064 0.024076096713542938 0.696603536605835
v -0.02547200582921505 0.006829674355685711 0.7074474096298218
v -0.023450272157788277 0.006476324982941151 0.7014830708503723
v -0.02637287974357605 0.011051090434193611 0.7106004953384399
v -0.03482227027416229 0.024855386465787888 0.6955679655075073
v -0.03059832938015461 0.02897421270608902 0.699509859085083
v -0.019794385880231857 0.02284776046872139 0.6970872282981873
v -0.02162069082260132 0.01743302308022976 0.6947706341743469
v -0.039336103945970535 0.019045870751142502 0.7127367258071899
v -0.040393464267253876 0.014252065680921078 0.7034395337104797
v -0.04101639986038208 0.015348345972597599 0.7092267870903015
v -0.02970048412680626 0.029040902853012085 0.7068947553634644
v -0.03419075906276703 0.030765525996685028 0.7017920613288879
v -0.05182255059480667 0.0433337576687336 0.7058043479919434
v -0.04143102467060089 0.031842056661844254 0.6989460587501526
v -0.04574503377079964 0.028269652277231216 0.6984071135520935
v -0.05534101277589798 0.04162658005952835 0.7043901681900024
v -0.038267601281404495 0.028584904968738556 0.6972237825393677
v -0.038191430270671844 0.03423897176980972 0.7037093043327332
v -0.059685349464416504 0.034059371799230576 0.7141029238700867
v -0.05991460010409355 0.03495451435446739 0.7088878750801086
v -0.05641422048211098 0.03392810747027397 0.7166808247566223
v -0.018089234828948975 0.025355298072099686 0.7044748663902283
v -0.022524382919073105 0.01068030670285225 0.6958238482475281
v -0.05106097087264061 0.038202811032533646 0.7179798483848572
v -0.05399882420897484 0.03543853759765625 0.7180595397949219
v -0.04738343507051468 0.024758383631706238 0.6999951004981995
v -0.058461744338274 0.038421880453825 0.7051669955253601
v -0.04871901869773865 0.04339781403541565 0.7091938853263855
v -0.047638580203056335 0.04148868843913078 0.7146082520484924
v -0.05139302462339401 0.045782431960105896 0.709545373916626
v -0.05057671666145325 0.043734125792980194 0.7148354053497314
v -0.053789831697940826 0.04132867231965065 0.7187109589576721
v -0.05710741877555847 0.0392267182469368 0.7188897132873535
v -0.05980303883552551 0.0380018949508667 0.717510461807251
v -0.05426061898469925 0.046633441001176834 0.7066764831542969
v -0.057661958038806915 0.04566298797726631 0.7057508826255798
v -0.06006782129406929 0.04081092029809952 0.7059829831123352
v -0.05613728612661362 0.050107430666685104 0.7081255912780762
v -0.053460702300071716 0.05118882283568382 0.7122842669487
v -0.06225985288619995 0.05725274607539177 0.72520512342453
v -0.060245975852012634 0.052172381430864334 0.7233587503433228
v -0.059457600116729736 0.052982818335294724 0.7228116393089294
v -0.06084751337766647 0.05822404846549034 0.724739134311676
v -0.055999547243118286 0.047234077006578445 0.7208106517791748
v -0.056348323822021484 0.049544557929039 0.7208604216575623
v -0.054199233651161194 0.050370801240205765 0.7178240418434143
v -0.056382425129413605 0.056218039244413376 0.7198778986930847
v -0.057107411324977875 0.05715217813849449 0.7140375971794128
v -0.05861518532037735 0.06138027831912041 0.71625155210495
v -0.05797876417636871 0.06093434616923332 0.7218352556228638
v -0.0542309507727623 0.052522096782922745 0.7141225337982178
v -0.06147626042366028 0.06135055795311928 0.7247520089149475
v -0.06270046532154083 0.06127569451928139 0.7261268496513367
v -0.0530557818710804 0.048340555280447006 0.7167596220970154
v -0.05916976183652878 0.04383682832121849 0.7209641933441162
v -0.06272897869348526 0.05067696049809456 0.723395049571991
v -0.06514742970466614 0.05586264654994011 0.7253418564796448
v -0.06594151258468628 0.06007833406329155 0.7247908711433411
v -0.06565315276384354 0.04981435835361481 0.7210900187492371
v -0.06720675528049469 0.055060338228940964 0.7229753136634827
v -0.06790605187416077 0.05885966494679451 0.7226060628890991
v -0.0671602264046669 0.04959459230303764 0.7183191180229187
v -0.06849066913127899 0.05468946322798729 0.719990074634552
v -0.06307469308376312 0.03992761671543121 0.7150572538375854
v -0.0615975484251976 0.04138593748211861 0.7187296152114868
v -0.06855427473783493 0.05796826258301735 0.7206094264984131
v -0.06165893375873566 0.06439266353845596 0.7227157950401306
v -0.0654059424996376 0.06380753219127655 0.7208486199378967
v -0.06044519692659378 0.06325197219848633 0.7225016355514526
v -0.05727718397974968 0.05672086030244827 0.7122299671173096
v -0.059963054955005646 0.06227881833910942 0.7144414782524109
v -0.059127144515514374 0.05588516220450401 0.7104032635688782
v -0.06207845360040665 0.061562616378068924 0.712752640247345
v -0.060919344425201416 0.06467416137456894 0.7176097631454468
v -0.060124848037958145 0.06406489759683609 0.7183638215065002
v -0.061476923525333405 0.03682069107890129 0.7140787243843079
v -0.061658743768930435 0.03791771084070206 0.7093605399131775
v -0.06342953443527222 0.04102592542767525 0.7105449438095093
v -0.0674702450633049 0.05131617188453674 0.7143996357917786
v -0.06164337694644928 0.04365414008498192 0.7072389125823975
v -0.05925416946411133 0.049460459500551224 0.707373857498169
v -0.06200464069843292 0.05477070435881615 0.7101730108261108
v -0.06511615961790085 0.0534326545894146 0.7113552093505859
v -0.06434272229671478 0.06004722788929939 0.712490975856781
v -0.06596405804157257 0.05782296136021614 0.7131645083427429
v -0.06886807084083557 0.0560099296271801 0.71637362241745
v -0.06552676856517792 0.062249425798654556 0.7155550718307495
v -0.06330259889364243 0.0641578957438469 0.7161386609077454
v -0.06753966212272644 0.061844486743211746 0.7194665670394897
v -0.06703418493270874 0.060166943818330765 0.7153549790382385
v -0.06849600374698639 0.05969247594475746 0.7182902693748474
v -0.022639529779553413 0.00756060378625989 0.6975036859512329
v -0.015607643872499466 0.027757275849580765 0.6730865240097046
v -0.015450259670615196 0.026739072054624557 0.6692836880683899
v -0.01593179814517498 0.0216052383184433 0.6699159741401672
v -0.01667969487607479 0.02244921401143074 0.6737993955612183
v -0.005806760862469673 0.027406565845012665 0.6782240271568298
v -0.010340685024857521 0.02842440828680992 0.6780065298080444
v -0.010827487334609032 0.024939101189374924 0.6792582869529724
v -0.006271170452237129 0.024380259215831757 0.6792477965354919
v -0.0022830963134765625 0.026366356760263443 0.6751309633255005
v -0.0029561668634414673 0.02346988022327423 0.6755057573318481
v -0.005541352555155754 0.023960772901773453 0.6797680258750916
v -0.010171432048082352 0.022751998156309128 0.6804690957069397
v -0.005934463813900948 0.013376673683524132 0.6870415210723877
v -0.0012629032135009766 0.015007978305220604 0.6860688924789429
v 0.002341127023100853 -0.00015090079978108406 0.6753638386726379
v 0.00019459612667560577 -0.002770043909549713 0.6799506545066833
v -0.005575466901063919 0.0040874183177948 0.6747453212738037
v -0.0011772401630878448 0.005452469922602177 0.6732151508331299
v -0.01370805874466896 0.028405051678419113 0.6761554479598999
v -0.015005736611783504 0.0244496688246727 0.6771285533905029
v -0.007026435807347298 0.014350121840834618 0.6673111319541931
v -0.011513261124491692 0.014690233394503593 0.6686650514602661
v -0.014116574078798294 0.019748728722333908 0.6666006445884705
v -0.00998433493077755 0.018804490566253662 0.664675772190094
v -0.003933832049369812 -0.0015970245003700256 0.6834856867790222
v -0.006486454978585243 0.0002785101532936096 0.6869790554046631
v -0.01053844764828682 0.0031728348694741726 0.6834502816200256
v -0.009192440658807755 0.004554197192192078 0.6778159141540527
v -0.012221390381455421 0.008041693828999996 0.6860937476158142
v -0.003289816901087761 0.01636246219277382 0.6678484082221985
v -0.0006327331066131592 0.019433416426181793 0.6708296537399292
v 0.0064100902527570724 0.010292993858456612 0.676432192325592
v 0.0036612171679735184 0.006999601610004902 0.6746918559074402
v -0.014475466683506966 0.02071739360690117 0.6791486144065857
v -0.014522373676300049 0.016744153574109077 0.6713575720787048
v -0.015621374361217022 0.017578108236193657 0.6755099296569824
v -0.0015009976923465729 0.023524057120084763 0.6754147410392761
v -0.0023609474301338196 0.021289102733135223 0.6697726249694824
v -0.00356469489634037 0.032591719180345535 0.6636282205581665
v -0.005117196589708328 0.02348005771636963 0.6649019122123718
v -0.009627997875213623 0.02432713657617569 0.6638195514678955
v -0.006286436691880226 0.03333311900496483 0.662521481513977
v -0.005463702604174614 0.01886032521724701 0.6659014225006104
v -0.001765890046954155 0.024565834552049637 0.6694173812866211
v -0.013919640332460403 0.03631167486310005 0.6707943081855774
v -0.012948792427778244 0.03504842147231102 0.6660846471786499
v -0.012607768177986145 0.03636907786130905 0.6738250851631165
v 0.004318607971072197 0.015035372227430344 0.6816561222076416
v -0.005772147327661514 0.03534287214279175 0.6760805249214172
v -0.009898951277136803 0.03661375120282173 0.6758103966712952
v -0.013392481952905655 0.025594957172870636 0.6660592555999756
v -0.009814461693167686 0.03404295817017555 0.6632238626480103
v -0.0012069270014762878 0.032696306705474854 0.6673582792282104
v -0.001470385119318962 0.033526014536619186 0.6731433868408203
v -0.0010638236999511719 0.036908913403749466 0.6675496697425842
v -0.0024920348078012466 0.037086013704538345 0.6730599999427795
v -0.007402520626783371 0.039251457899808884 0.6757656931877136
v -0.010923180729150772 0.039283040910959244 0.6748835444450378
v -0.013282513245940208 0.039044346660375595 0.6726920008659363
v -0.0029441360384225845 0.03689171001315117 0.6636312007904053
v -0.005598833784461021 0.037087615579366684 0.662379801273346
v -0.009375492110848427 0.03672033175826073 0.6628667116165161
v -0.00277632474899292 0.04132470861077309 0.6638444066047668
v -0.00166231207549572 0.04326186701655388 0.6680119037628174
v -0.009410817176103592 0.05361488088965416 0.6713869571685791
v -0.009795023128390312 0.04978300258517265 0.6723195314407349
v -0.008598078042268753 0.04968109354376793 0.6722923517227173
v -0.008418403565883636 0.05371418967843056 0.6719076037406921
v -0.008516674861311913 0.04498440399765968 0.6740380525588989
v -0.007430247962474823 0.045970719307661057 0.6733019948005676
v -0.004652688279747963 0.04428287595510483 0.6721189022064209
v -0.0043973661959171295 0.04923907294869423 0.6712186932563782
v -0.001977302134037018 0.04894985631108284 0.6665258407592773
v -0.002001553773880005 0.05309952422976494 0.6664535999298096
v -0.003861367702484131 0.05293106660246849 0.6708303093910217
v -0.002082662656903267 0.045050960034132004 0.6689774990081787
v -0.007133543491363525 0.056114066392183304 0.6716693043708801
v -0.007959142327308655 0.05715673789381981 0.6713131070137024
v -0.004138300195336342 0.042600709944963455 0.6729832887649536
v -0.012261729687452316 0.04368119686841965 0.6733583211898804
v -0.012031614780426025 0.05036446079611778 0.6714431047439575
v -0.01091039925813675 0.05507747456431389 0.670496940612793
v -0.008790351450443268 0.05789418891072273 0.6693449020385742
v -0.013442859053611755 0.04912622272968292 0.6695666909217834
v -0.012267839163541794 0.05493655428290367 0.6685726046562195
v -0.010145500302314758 0.0575585775077343 0.6673442125320435
v -0.014022843912243843 0.04788759723305702 0.6664871573448181
v -0.012462355196475983 0.05367008224129677 0.6661657691001892
v -0.0145183764398098 0.04078083485364914 0.6676618456840515
v -0.01406036876142025 0.04241510480642319 0.6709098219871521
v -0.010516569018363953 0.05623197183012962 0.6661214232444763
v -0.004483398050069809 0.057687725871801376 0.6695078611373901
v -0.006303109228610992 0.05834424868226051 0.6671754121780396
v -0.003662094473838806 0.05649730935692787 0.6701924204826355
v -0.0018771104514598846 0.04845372214913368 0.6651409864425659
v -0.0020458586513996124 0.05357027426362038 0.6648004651069641
v -0.002862781286239624 0.047829899936914444 0.6628530025482178
v -0.0033789053559303284 0.05371728911995888 0.6630101203918457
v -0.002834569662809372 0.056702952831983566 0.6663281321525574
v -0.0024703070521354675 0.05553503707051277 0.6677729487419128
v -0.014211982488632202 0.03869664669036865 0.6690094470977783
v -0.012602105736732483 0.037273187190294266 0.6657310724258423
v -0.012489844113588333 0.03957221657037735 0.6642994284629822
v -0.012339286506175995 0.0468166321516037 0.6631734371185303
v -0.008810441941022873 0.039331648498773575 0.6619850397109985
v -0.005089970305562019 0.040162548422813416 0.6621862649917603
v -0.005132745951414108 0.047262564301490784 0.6615526676177979
v -0.008441034704446793 0.046950701624155045 0.6612797975540161
v -0.005428105592727661 0.05371810868382454 0.6621143221855164
v -0.008392859250307083 0.052978936582803726 0.6619035601615906
v -0.011244677007198334 0.05289677903056145 0.6633061170578003
v -0.006374180316925049 0.05691464617848396 0.6642052531242371
v -0.004618849605321884 0.057330574840307236 0.6649269461631775
v -0.007818371057510376 0.05773787572979927 0.665754497051239
v -0.00811333954334259 0.05606115236878395 0.6636314988136292
v -0.00937456265091896 0.05620744451880455 0.664609968662262
v 0.0034381914883852005 0.0037305625155568123 0.674824595451355
v -0.009480897337198257 0.004370317328721285 0.7615847587585449
v -0.008528616279363632 0.0021840743720531464 0.756402850151062
v -0.007707981392741203 -0.013848320581018925 0.7581815719604492
v -0.008537007495760918 -0.00871064979583025 0.7534754872322083
v -0.008036062121391296 -0.014939225278794765 0.7649310231208801
v -0.0087802205234766 -0.007830052636563778 0.7730355262756348
v -0.007368681952357292 -0.012327075935900211 0.7700841426849365
v -0.00861768051981926 -0.0028446847572922707 0.7529717087745667
v -0.009552955627441406 0.0038108285516500473 0.7673727869987488
v -0.009115071967244148 -0.001022527925670147 0.7726513743400574
v -0.01938319019973278 0.005023848731070757 0.7657188177108765
v -0.019759004935622215 -0.0010932302102446556 0.7715741395950317
v -0.019959932193160057 -0.008164101280272007 0.7723008394241333
v -0.016112038865685463 -0.013619416393339634 0.7683526277542114
v -0.014585563912987709 -0.016040083020925522 0.7640590667724609
v -0.015681812539696693 0.004105876665562391 0.7588725090026855
v -0.013744926080107689 0.0016225986182689667 0.7542348504066467
v -0.012362739071249962 -0.004457566887140274 0.7517268061637878
v -0.02130798064172268 0.0023688324727118015 0.7535672783851624
v -0.030150031670928 -0.001684092916548252 0.7541380524635315
v -0.03909862041473389 -0.019233666360378265 0.7545257210731506
v -0.033566221594810486 -0.017514005303382874 0.7583092451095581
v -0.034914955496788025 -0.015099016018211842 0.7578017115592957
v -0.04010637849569321 -0.016857679933309555 0.7548164129257202
v -0.030848732218146324 -0.013540578074753284 0.7616138458251953
v -0.03201120346784592 -0.012410284020006657 0.7598663568496704
v -0.03134303539991379 -0.007307545281946659 0.7584837675094604
v -0.03604196012020111 -0.009278635494410992 0.7554290294647217
v -0.031397074460983276 -0.004309430718421936 0.7542901039123535
v -0.03405090421438217 -0.005516569130122662 0.751008927822113
v -0.040628574788570404 -0.010930205695331097 0.752423882484436
v -0.04351908713579178 -0.016000699251890182 0.7527856826782227
v -0.044331297278404236 -0.012517099268734455 0.7498089075088501
v -0.043163180351257324 -0.018583372235298157 0.7510015368461609
v -0.032206207513809204 -0.005140935070812702 0.7611308097839355
v -0.024961156770586967 -0.01606786623597145 0.764046311378479
v -0.030707737430930138 -0.019680805504322052 0.7581939697265625
v -0.03657811880111694 -0.021422237157821655 0.7529484033584595
v -0.04117294400930405 -0.020068425685167313 0.7489068508148193
v -0.027553310617804527 -0.020932331681251526 0.7555012106895447
v -0.03300357609987259 -0.02142699807882309 0.7505291104316711
v -0.036889590322971344 -0.019601896405220032 0.7466121912002563
v -0.02491886354982853 -0.019651878625154495 0.751610279083252
v -0.03069525770843029 -0.019503451883792877 0.7479026913642883
v -0.015215737745165825 -0.015976086258888245 0.756990909576416
v -0.01901804842054844 -0.017755452543497086 0.7618308663368225
v -0.034338176250457764 -0.018523402512073517 0.7460615038871765
v -0.04509512335062027 -0.013890582136809826 0.7474290728569031
v -0.04272399842739105 -0.015376058407127857 0.7451286911964417
v -0.03206758201122284 -0.0035969214513897896 0.7490018606185913
v -0.03861545771360397 -0.006659437902271748 0.748312771320343
v -0.03691641986370087 -0.0062684565782547 0.7459154725074768
v -0.02864517830312252 -0.003101188689470291 0.7470313906669617
v -0.034968726336956024 -0.00673229806125164 0.7439076900482178
v -0.04179558902978897 -0.009200423024594784 0.7451285123825073
v -0.042150937020778656 -0.008885419927537441 0.7479119896888733
v -0.012334303930401802 -0.015206989832222462 0.7582404613494873
v -0.01141110248863697 -0.0104987109079957 0.7537904977798462
v -0.01375187374651432 -0.010977528057992458 0.7527937293052673
v -0.022888271138072014 -0.014690306968986988 0.7475842833518982
v -0.014925764873623848 -0.005614583380520344 0.749858021736145
v -0.017997177317738533 -0.00034221820533275604 0.750717282295227
v -0.025970926508307457 -0.0049210200086236 0.7452095746994019
v -0.02351168356835842 -0.009007777087390423 0.7452104687690735
v -0.032416753470897675 -0.00906223151832819 0.7429773807525635
v -0.030686473473906517 -0.011532754637300968 0.743432879447937
v -0.03007250837981701 -0.016129113733768463 0.7450347542762756
v -0.0366668701171875 -0.012189514003694057 0.7427369356155396
v -0.039567798376083374 -0.010231724940240383 0.7431092262268066
v -0.0383232906460762 -0.016078658401966095 0.7439766526222229
v -0.03418751806020737 -0.013198918662965298 0.7433110475540161
v -0.034748710691928864 -0.01611870899796486 0.7442963123321533
v 0.006299817934632301 -0.004786239005625248 0.6825339198112488
v 0.0024610664695501328 -0.005323308520019054 0.687692403793335
v 0.009853018447756767 -0.007470419630408287 0.6887323260307312
v 0.02008686773478985 -0.008180894888937473 0.6911417245864868
v 0.0305063184350729 -0.006478442810475826 0.6880677342414856
v 0.01819816417992115 -0.007193439640104771 0.697572648525238
v 0.00795883871614933 -0.006516173481941223 0.6947344541549683
v -0.002493126317858696 -0.0033874856308102608 0.6930381655693054
v 0.02469259686768055 -0.0052742306143045425 0.7057368159294128
f 2 3 1
f 1 3 4
f 5 6 8
f 8 6 7
f 9 4 10
f 10 4 3
f 12 13 11
f 11 13 9
f 14 12 16
f 16 12 15
f 18 19 17
f 17 19 20
f 22 23 21
f 21 23 24
f 26 27 25
f 25 27 28
f 30 31 29
f 29 31 32
f 33 34 36
f 36 34 35
f 37 38 40
f 40 38 39
f 41 42 6
f 6 42 43
f 6 43 7
f 7 43 44
f 45 34 46
f 46 34 33
f 48 49 47
f 47 49 50
f 52 53 51
f 51 53 54
f 56 52 55
f 55 52 51
f 58 59 57
f 57 59 60
f 61 62 4
f 4 62 1
f 64 65 63
f 63 65 66
f 68 69 67
f 67 69 70
f 72 73 71
f 71 73 74
f 76 77 75
f 75 77 78
f 53 79 54
f 54 79 80
f 82 83 81
f 81 83 84
f 85 86 52
f 52 86 53
f 57 60 87
f 87 60 88
f 89 90 43
f 43 90 44
f 43 42 89
f 89 42 91
f 40 39 92
f 92 39 93
f 94 70 64
f 64 70 69
f 13 61 9
f 9 61 4
f 25 28 69
f 69 28 95
f 96 25 68
f 68 25 69
f 98 99 97
f 97 99 100
f 101 102 104
f 104 102 103
f 106 30 105
f 105 30 29
f 51 54 107
f 107 54 108
f 54 80 108
f 108 80 109
f 111 112 110
f 110 112 113
f 115 5 114
f 114 5 116
f 115 41 5
f 5 41 6
f 36 35 111
f 111 35 117
f 35 118 117
f 117 118 119
f 34 120 35
f 35 120 118
f 34 45 120
f 120 45 121
f 125 126 124
f 124 126 127
f 128 129 14
f 14 129 130
f 33 131 46
f 46 131 132
f 133 94 63
f 63 94 64
f 134 135 137
f 137 135 136
f 139 140 138
f 138 140 141
f 77 142 78
f 78 142 143
f 144 145 20
f 20 145 146
f 148 149 147
f 147 149 72
f 151 152 150
f 150 152 153
f 82 101 83
f 83 101 104
f 101 82 155
f 155 82 154
f 156 157 58
f 58 157 59
f 158 68 147
f 147 68 67
f 159 146 15
f 15 146 16
f 68 158 96
f 96 158 160
f 129 66 130
f 130 66 65
f 162 163 161
f 161 163 164
f 166 167 165
f 165 167 168
f 170 171 169
f 169 171 172
f 174 171 173
f 173 171 170
f 176 177 175
f 175 177 178
f 180 181 179
f 179 181 24
f 182 183 21
f 21 183 184
f 81 185 82
f 82 185 154
f 186 187 188
f 188 187 144
f 158 71 160
f 160 71 189
f 190 135 157
f 157 135 59
f 169 172 139
f 139 172 140
f 147 72 158
f 158 72 71
f 192 193 191
f 191 193 194
f 167 166 49
f 49 166 195
f 196 190 50
f 50 190 157
f 197 198 200
f 200 198 199
f 21 24 182
f 182 24 181
f 146 159 20
f 20 159 17
f 182 181 81
f 81 181 185
f 201 185 180
f 180 185 181
f 202 203 83
f 83 203 84
f 205 206 204
f 204 206 85
f 207 22 184
f 184 22 21
f 179 24 208
f 208 24 23
f 208 209 179
f 179 209 205
f 209 210 205
f 205 210 206
f 212 206 211
f 211 206 210
f 179 205 180
f 180 205 204
f 213 176 88
f 88 176 214
f 86 85 212
f 212 85 206
f 193 217 218
f 217 219 218
f 218 219 220
f 219 18 220
f 220 18 17
f 19 221 20
f 20 221 144
f 222 223 225
f 225 223 224
f 175 226 176
f 176 226 214
f 227 87 214
f 214 87 88
f 220 17 228
f 228 17 159
f 134 213 60
f 60 213 88
f 138 229 151
f 151 229 152
f 193 192 210
f 210 192 211
f 230 194 218
f 218 194 193
f 231 232 228
f 228 232 230
f 233 234 91
f 91 234 89
f 235 236 93
f 93 236 92
f 230 232 234
f 234 232 237
f 47 238 48
f 48 238 239
f 240 191 235
f 235 191 236
f 5 8 116
f 116 8 241
f 242 243 189
f 189 243 160
f 244 245 98
f 98 245 99
f 156 246 47
f 47 246 238
f 76 247 77
f 77 247 248
f 250 125 249
f 249 125 124
f 252 253 251
f 251 253 254
f 111 110 36
f 36 110 255
f 256 33 255
f 255 33 36
f 257 258 154
f 154 258 155
f 63 169 133
f 133 169 139
f 66 170 63
f 63 170 169
f 173 170 129
f 129 170 66
f 129 128 173
f 173 128 259
f 128 260 259
f 259 260 261
f 213 134 262
f 262 134 137
f 263 264 186
f 186 264 187
f 112 265 113
f 113 265 266
f 11 267 268
f 234 233 230
f 230 233 194
f 153 269 70
f 70 269 67
f 175 178 165
f 165 178 141
f 150 153 94
f 94 153 70
f 271 221 270
f 270 221 207
f 269 153 272
f 272 153 152
f 121 45 109
f 109 45 108
f 47 50 156
f 156 50 157
f 57 273 58
f 58 273 274
f 145 275 260
f 260 275 261
f 276 149 143
f 143 149 78
f 148 269 75
f 75 269 272
f 207 277 270
f 270 277 278
f 195 196 49
f 49 196 50
f 59 135 60
f 60 135 134
f 83 104 202
f 202 104 279
f 149 148 78
f 78 148 75
f 247 278 248
f 248 278 277
f 183 182 84
f 84 182 81
f 48 239 281
f 281 239 282
f 227 223 283
f 283 223 222
f 223 226 224
f 224 226 168
f 281 282 224
f 224 282 225
f 165 168 175
f 175 168 226
f 264 263 138
f 138 263 229
f 14 16 128
f 128 16 260
f 220 228 218
f 218 228 230
f 87 227 284
f 284 227 283
f 260 16 145
f 145 16 146
f 244 98 258
f 258 98 155
f 58 274 156
f 156 274 246
f 107 285 51
f 51 285 55
f 243 286 160
f 160 286 96
f 234 237 89
f 89 237 90
f 46 132 107
f 107 132 285
f 253 252 249
f 249 252 250
f 286 26 96
f 96 26 25
f 106 105 287
f 287 105 288
f 272 152 289
f 289 152 229
f 138 151 139
f 139 151 133
f 183 290 161
f 161 290 162
f 291 292 277
f 277 292 293
f 151 150 133
f 133 150 94
f 262 275 177
f 177 275 187
f 144 187 145
f 145 187 275
f 273 57 284
f 284 57 87
f 174 136 190
f 190 136 135
f 111 117 112
f 112 117 38
f 117 119 38
f 38 119 123
f 112 38 265
f 265 38 37
f 287 288 254
f 254 288 251
f 228 159 231
f 231 159 15
f 223 227 226
f 226 227 214
f 147 67 148
f 148 67 269
f 224 168 281
f 281 168 167
f 199 163 200
f 200 163 162
f 45 46 108
f 108 46 107
f 281 167 48
f 48 167 49
f 161 164 291
f 291 164 292
f 38 123 39
f 293 294 277
f 277 294 248
f 284 283 296
f 296 283 295
f 284 296 273
f 273 296 297
f 274 273 298
f 298 273 297
f 246 274 299
f 299 274 298
f 283 222 295
f 295 222 300
f 222 225 300
f 300 225 301
f 301 225 302
f 302 225 282
f 303 304 300
f 300 304 295
f 306 307 305
f 305 307 308
f 309 310 308
f 308 310 305
f 308 307 312
f 312 307 311
f 313 314 312
f 312 314 315
f 311 316 312
f 312 316 313
f 317 304 311
f 311 304 316
f 315 309 312
f 312 309 308
f 318 319 321
f 321 319 320
f 319 318 309
f 309 318 310
f 311 307 317
f 317 307 306
f 306 297 317
f 317 297 296
f 306 322 297
f 297 322 298
f 305 323 306
f 306 323 322
f 323 305 324
f 324 305 310
f 304 317 295
f 295 317 296
f 318 325 310
f 310 325 324
f 323 324 326
f 326 324 327
f 324 325 327
f 327 325 328
f 326 327 329
f 329 327 330
f 329 331 326
f 326 331 332
f 333 330 328
f 328 330 327
f 323 326 322
f 322 326 332
f 322 332 298
f 298 332 299
f 325 318 334
f 334 318 321
f 313 316 335
f 335 316 304
f 335 336 313
f 313 336 314
f 304 303 335
f 335 303 337
f 336 335 338
f 338 335 337
f 336 339 314
f 314 339 340
f 246 299 238
f 238 299 341
f 239 342 282
f 282 342 302
f 342 239 341
f 341 239 238
f 341 331 342
f 342 331 343
f 331 329 343
f 343 329 344
f 342 343 302
f 302 343 345
f 341 299 331
f 331 299 332
f 346 301 345
f 345 301 302
f 346 303 301
f 301 303 300
f 347 337 346
f 346 337 303
f 347 346 348
f 348 346 345
f 349 347 350
f 350 347 348
f 343 344 345
f 345 344 348
f 344 351 348
f 348 351 350
f 337 347 338
f 338 347 349
f 353 338 352
f 352 338 349
f 352 355 354
f 354 355 356
f 352 349 355
f 355 349 350
f 352 354 353
f 353 354 334
f 353 334 339
f 339 334 321
f 339 336 353
f 353 336 338
f 329 330 344
f 344 330 351
f 356 351 333
f 333 351 330
f 356 355 351
f 351 355 350
f 354 356 328
f 328 356 333
f 328 325 354
f 354 325 334
f 309 315 319
f 319 315 320
f 320 340 321
f 321 340 339
f 320 315 340
f 340 315 314
f 137 136 261
f 261 136 259
f 140 166 141
f 141 166 165
f 172 171 195
f 195 171 196
f 171 174 196
f 196 174 190
f 178 177 264
f 264 177 187
f 172 195 140
f 140 195 166
f 137 261 262
f 262 261 275
f 178 264 141
f 141 264 138
f 262 177 213
f 213 177 176
f 136 174 259
f 259 174 173
f 358 359 357
f 357 359 360
f 362 363 361
f 361 363 364
f 361 364 365
f 365 364 366
f 367 368 370
f 370 368 369
f 76 371 247
f 247 371 372
f 373 374 362
f 362 374 363
f 376 377 375
f 375 377 378
f 289 229 380
f 380 229 379
f 381 379 263
f 263 379 229
f 383 384 382
f 382 384 385
f 386 368 374
f 374 368 363
f 76 289 371
f 371 289 380
f 377 376 359
f 359 376 387
f 388 386 360
f 360 386 374
f 389 383 366
f 366 383 390
f 392 393 391
f 391 393 394
f 383 382 390
f 390 382 395
f 396 365 390
f 390 365 366
f 389 366 367
f 367 366 364
f 357 397 358
f 358 397 398
f 373 399 357
f 357 399 397
f 389 367 400
f 400 367 370
f 382 385 375
f 375 385 372
f 357 360 373
f 373 360 374
f 361 401 362
f 362 401 402
f 387 388 359
f 359 388 360
f 363 368 364
f 364 368 367
f 358 398 403
f 403 398 404
f 396 392 405
f 405 392 391
f 392 395 393
f 393 395 378
f 393 403 394
f 394 403 404
f 375 378 382
f 382 378 395
f 365 396 406
f 406 396 405
f 362 402 373
f 373 402 399
f 271 270 400
f 400 270 384
f 401 361 406
f 406 361 365
f 381 369 386
f 386 369 368
f 392 396 395
f 395 396 390
f 393 378 403
f 403 378 377
f 403 377 358
f 358 377 359
f 406 405 408
f 408 405 407
f 406 408 401
f 401 408 409
f 401 409 402
f 402 409 410
f 402 410 399
f 399 410 411
f 405 391 407
f 407 391 412
f 391 394 412
f 412 394 413
f 394 404 413
f 413 404 414
f 415 416 412
f 412 416 407
f 418 419 417
f 417 419 420
f 421 422 418
f 418 422 419
f 419 422 424
f 424 422 423
f 425 426 424
f 424 426 427
f 423 428 424
f 424 428 425
f 427 420 424
f 424 420 419
f 420 429 417
f 417 429 430
f 423 422 431
f 431 422 421
f 421 409 431
f 431 409 408
f 421 432 409
f 409 432 410
f 418 433 421
f 421 433 432
f 434 433 417
f 417 433 418
f 431 416 423
f 423 416 428
f 416 431 407
f 407 431 408
f 435 434 430
f 430 434 417
f 433 434 436
f 436 434 437
f 434 435 437
f 437 435 438
f 436 437 439
f 439 437 440
f 439 441 436
f 436 441 442
f 438 443 437
f 437 443 440
f 436 442 433
f 433 442 432
f 432 442 410
f 410 442 411
f 435 430 445
f 445 430 444
f 430 429 444
f 444 429 446
f 425 428 447
f 447 428 416
f 426 425 448
f 448 425 447
f 416 415 447
f 447 415 449
f 447 449 448
f 448 449 450
f 451 452 448
f 448 452 426
f 446 452 444
f 444 452 451
f 399 411 397
f 397 411 453
f 398 454 404
f 404 454 414
f 454 398 453
f 453 398 397
f 453 441 454
f 454 441 455
f 441 439 455
f 455 439 456
f 454 455 414
f 414 455 457
f 441 453 442
f 442 453 411
f 458 413 457
f 457 413 414
f 458 415 413
f 413 415 412
f 458 459 415
f 415 459 449
f 459 458 460
f 460 458 457
f 461 459 462
f 462 459 460
f 455 456 457
f 457 456 460
f 456 463 460
f 460 463 462
f 459 461 449
f 449 461 450
f 465 450 464
f 464 450 461
f 464 467 466
f 466 467 468
f 464 461 467
f 467 461 462
f 464 466 465
f 465 466 445
f 465 445 451
f 451 445 444
f 451 448 465
f 465 448 450
f 439 440 456
f 456 440 463
f 468 463 443
f 443 463 440
f 468 467 463
f 463 467 462
f 466 468 438
f 438 468 443
f 438 435 466
f 466 435 445
f 420 427 429
f 429 427 446
f 446 427 452
f 452 427 426
f 370 369 188
f 188 369 186
f 371 376 372
f 372 376 375
f 380 379 387
f 387 379 388
f 379 381 388
f 388 381 386
f 385 384 278
f 278 384 270
f 380 387 371
f 371 387 376
f 400 370 271
f 271 370 188
f 385 278 372
f 372 278 247
f 400 384 389
f 389 384 383
f 369 381 186
f 186 381 263
f 221 271 144
f 144 271 188
f 221 19 207
f 207 19 22
f 19 18 22
f 22 18 23
f 18 219 23
f 23 219 208
f 469 470 472
f 472 470 471
f 474 475 473
f 473 475 476
f 473 476 477
f 477 476 478
f 480 481 479
f 479 481 482
f 483 484 474
f 474 484 475
f 486 487 485
f 485 487 488
f 489 490 77
f 77 490 142
f 491 489 248
f 248 489 77
f 493 494 492
f 492 494 495
f 496 480 484
f 484 480 475
f 486 497 487
f 487 497 471
f 498 496 472
f 472 496 484
f 499 493 478
f 478 493 500
f 501 502 504
f 504 502 503
f 493 492 500
f 500 492 505
f 506 477 500
f 500 477 478
f 499 478 479
f 479 478 476
f 469 507 470
f 470 507 508
f 483 509 469
f 469 509 507
f 479 482 499
f 499 482 510
f 492 495 485
f 485 495 511
f 483 469 484
f 484 469 472
f 473 512 474
f 474 512 513
f 497 498 471
f 471 498 472
f 475 480 476
f 476 480 479
f 470 508 514
f 514 508 515
f 506 502 516
f 516 502 501
f 503 502 488
f 488 502 505
f 514 515 503
f 503 515 504
f 485 488 492
f 492 488 505
f 477 506 517
f 517 506 516
f 474 513 483
f 483 513 509
f 510 292 494
f 494 292 164
f 512 473 517
f 517 473 477
f 491 481 496
f 496 481 480
f 502 506 505
f 505 506 500
f 503 488 514
f 514 488 487
f 514 487 470
f 470 487 471
f 517 516 519
f 519 516 518
f 517 519 512
f 512 519 520
f 512 520 513
f 513 520 521
f 513 521 509
f 509 521 522
f 516 501 518
f 518 501 523
f 501 504 523
f 523 504 524
f 524 504 525
f 525 504 515
f 526 527 523
f 523 527 518
f 529 530 528
f 528 530 531
f 532 533 529
f 529 533 530
f 530 533 535
f 535 533 534
f 536 537 535
f 535 537 538
f 534 539 535
f 535 539 536
f 538 531 535
f 535 531 530
f 540 541 531
f 531 541 528
f 533 532 534
f 534 532 542
f 532 520 542
f 542 520 519
f 532 543 520
f 520 543 521
f 529 544 532
f 532 544 543
f 544 529 545
f 545 529 528
f 534 542 539
f 539 542 527
f 527 542 518
f 518 542 519
f 541 546 528
f 528 546 545
f 547 544 548
f 548 544 545
f 546 549 545
f 545 549 548
f 550 547 551
f 551 547 548
f 547 550 553
f 553 550 552
f 549 554 548
f 548 554 551
f 544 547 543
f 543 547 553
f 543 553 521
f 521 553 522
f 546 541 556
f 556 541 555
f 541 540 555
f 555 540 557
f 536 539 558
f 558 539 527
f 537 536 559
f 559 536 558
f 527 526 558
f 558 526 560
f 559 558 561
f 561 558 560
f 559 562 537
f 537 562 563
f 557 563 555
f 555 563 562
f 509 522 507
f 507 522 564
f 508 565 515
f 515 565 525
f 565 508 564
f 564 508 507
f 564 552 565
f 565 552 566
f 552 550 566
f 566 550 567
f 565 566 525
f 525 566 568
f 564 522 552
f 552 522 553
f 569 524 568
f 568 524 525
f 569 526 524
f 524 526 523
f 570 560 569
f 569 560 526
f 570 569 571
f 571 569 568
f 572 570 573
f 573 570 571
f 566 567 568
f 568 567 571
f 567 574 571
f 571 574 573
f 570 572 560
f 560 572 561
f 576 561 575
f 575 561 572
f 575 578 577
f 577 578 579
f 575 572 578
f 578 572 573
f 575 577 576
f 576 577 556
f 576 556 562
f 562 556 555
f 562 559 576
f 576 559 561
f 550 551 567
f 567 551 574
f 579 574 554
f 554 574 551
f 579 578 574
f 574 578 573
f 579 554 577
f 577 554 549
f 549 546 577
f 577 546 556
f 531 538 540
f 540 538 557
f 557 538 563
f 563 538 537
f 481 294 482
f 482 294 293
f 580 486 511
f 511 486 485
f 490 489 497
f 497 489 498
f 489 491 498
f 498 491 496
f 163 495 164
f 164 495 494
f 580 490 486
f 486 490 497
f 482 293 510
f 510 293 292
f 495 163 511
f 511 163 199
f 494 493 510
f 510 493 499
f 481 491 294
f 294 491 248
f 582 583 581
f 581 583 584
f 586 587 585
f 585 587 588
f 585 588 589
f 589 588 590
f 592 593 591
f 591 593 594
f 595 596 598
f 598 596 597
f 599 600 586
f 586 600 587
f 601 602 604
f 604 602 603
f 605 606 608
f 608 606 607
f 609 607 200
f 200 607 606
f 610 611 613
f 613 611 612
f 600 614 587
f 587 614 592
f 596 605 597
f 597 605 608
f 602 615 603
f 603 615 583
f 616 614 584
f 584 614 600
f 611 618 617
f 617 618 590
f 620 621 619
f 619 621 622
f 610 623 611
f 611 623 618
f 624 589 618
f 618 589 590
f 617 590 591
f 591 590 588
f 581 625 582
f 582 625 626
f 599 627 581
f 581 627 625
f 591 594 617
f 617 594 628
f 601 610 598
f 598 610 613
f 581 584 599
f 599 584 600
f 585 629 586
f 586 629 630
f 615 616 583
f 583 616 584
f 587 592 588
f 588 592 591
f 582 626 631
f 631 626 632
f 624 620 633
f 633 620 619
f 621 620 604
f 604 620 623
f 631 632 621
f 621 632 622
f 610 601 623
f 623 601 604
f 589 624 634
f 634 624 633
f 586 630 599
f 599 630 627
f 203 202 628
f 628 202 612
f 629 585 634
f 634 585 589
f 609 593 614
f 614 593 592
f 620 624 623
f 623 624 618
f 631 621 603
f 603 621 604
f 582 631 583
f 583 631 603
f 634 633 636
f 636 633 635
f 634 636 629
f 629 636 637
f 629 637 630
f 630 637 638
f 630 638 627
f 627 638 639
f 633 619 635
f 635 619 640
f 619 622 640
f 640 622 641
f 641 622 642
f 642 622 632
f 644 635 643
f 643 635 640
f 645 646 648
f 648 646 647
f 649 650 646
f 646 650 647
f 647 650 652
f 652 650 651
f 652 653 655
f 655 653 654
f 651 656 652
f 652 656 653
f 655 648 652
f 652 648 647
f 648 657 645
f 645 657 658
f 650 649 651
f 651 649 659
f 649 637 659
f 659 637 636
f 649 660 637
f 637 660 638
f 661 660 646
f 646 660 649
f 662 661 645
f 645 661 646
f 651 659 656
f 656 659 644
f 644 659 635
f 635 659 636
f 663 662 658
f 658 662 645
f 664 661 665
f 665 661 662
f 663 666 662
f 662 666 665
f 667 664 668
f 668 664 665
f 664 667 670
f 670 667 669
f 666 671 665
f 665 671 668
f 661 664 660
f 660 664 670
f 660 670 638
f 638 670 639
f 658 672 663
f 663 672 673
f 658 657 672
f 672 657 674
f 653 656 675
f 675 656 644
f 653 675 654
f 654 675 676
f 675 644 677
f 677 644 643
f 676 675 678
f 678 675 677
f 679 680 676
f 676 680 654
f 674 680 672
f 672 680 679
f 627 639 625
f 625 639 681
f 626 682 632
f 632 682 642
f 681 682 625
f 625 682 626
f 669 683 681
f 681 683 682
f 667 684 669
f 669 684 683
f 682 683 642
f 642 683 685
f 681 639 669
f 669 639 670
f 686 641 685
f 685 641 642
f 641 686 640
f 640 686 643
f 686 687 643
f 643 687 677
f 687 686 688
f 688 686 685
f 689 687 690
f 690 687 688
f 683 684 685
f 685 684 688
f 684 691 688
f 688 691 690
f 687 689 677
f 677 689 678
f 693 678 692
f 692 678 689
f 692 695 694
f 694 695 696
f 692 689 695
f 695 689 690
f 692 694 693
f 693 694 673
f 693 673 679
f 679 673 672
f 679 676 693
f 693 676 678
f 684 667 691
f 691 667 668
f 696 691 671
f 671 691 668
f 696 695 691
f 691 695 690
f 694 696 666
f 666 696 671
f 666 663 694
f 694 663 673
f 648 655 657
f 657 655 674
f 674 655 680
f 680 655 654
f 593 162 594
f 594 162 290
f 598 597 601
f 601 597 602
f 615 608 616
f 616 608 607
f 607 609 616
f 616 609 614
f 697 595 613
f 613 595 598
f 597 608 602
f 602 608 615
f 594 290 628
f 628 290 203
f 628 612 617
f 617 612 611
f 593 609 162
f 162 609 200
f 105 29 698
f 698 29 699
f 268 126 701
f 701 126 700
f 126 125 700
f 700 125 702
f 252 703 250
f 250 703 704
f 32 268 705
f 705 268 701
f 288 105 706
f 706 105 698
f 29 32 699
f 699 32 705
f 707 251 706
f 706 251 288
f 250 704 125
f 125 704 702
f 703 252 707
f 707 252 251
f 706 708 707
f 707 708 709
f 707 709 703
f 703 709 710
f 703 710 704
f 704 710 711
f 704 711 702
f 702 711 712
f 706 698 708
f 708 698 713
f 698 699 713
f 713 699 714
f 699 705 714
f 714 705 715
f 717 708 716
f 716 708 713
f 719 720 718
f 718 720 721
f 722 723 719
f 719 723 720
f 724 725 723
f 723 725 720
f 724 726 725
f 725 726 727
f 728 721 725
f 725 721 720
f 721 728 729
f 729 728 730
f 729 731 721
f 721 731 718
f 724 723 732
f 732 723 722
f 722 710 732
f 732 710 709
f 722 733 710
f 710 733 711
f 719 734 722
f 722 734 733
f 734 719 735
f 735 719 718
f 724 732 726
f 726 732 717
f 717 732 708
f 708 732 709
f 731 736 718
f 718 736 735
f 737 734 738
f 738 734 735
f 736 739 735
f 735 739 738
f 740 737 741
f 741 737 738
f 737 740 743
f 743 740 742
f 739 744 738
f 738 744 741
f 734 737 733
f 733 737 743
f 733 743 711
f 711 743 712
f 736 731 746
f 746 731 745
f 731 729 745
f 745 729 730
f 727 726 747
f 747 726 717
f 748 727 749
f 749 727 747
f 747 717 750
f 750 717 716
f 749 747 751
f 751 747 750
f 749 752 748
f 748 752 753
f 730 753 745
f 745 753 752
f 728 725 748
f 748 725 727
f 730 728 753
f 753 728 748
f 700 702 754
f 754 702 712
f 705 701 715
f 715 701 755
f 754 755 700
f 700 755 701
f 742 756 754
f 754 756 755
f 740 757 742
f 742 757 756
f 755 756 715
f 715 756 758
f 754 712 742
f 742 712 743
f 759 714 758
f 758 714 715
f 714 759 713
f 713 759 716
f 759 760 716
f 716 760 750
f 760 759 761
f 761 759 758
f 762 760 763
f 763 760 761
f 756 757 758
f 758 757 761
f 757 764 761
f 761 764 763
f 760 762 750
f 750 762 751
f 766 751 765
f 765 751 762
f 767 765 769
f 769 765 768
f 765 762 768
f 768 762 763
f 765 767 766
f 766 767 746
f 766 746 752
f 752 746 745
f 752 749 766
f 766 749 751
f 757 740 764
f 764 740 741
f 769 764 744
f 744 764 741
f 769 768 764
f 764 768 763
f 767 769 739
f 739 769 744
f 739 736 767
f 767 736 746
f 219 217 208
f 208 217 209
f 209 217 210
f 210 217 193
f 198 580 199
f 199 580 511
f 76 75 289
f 289 75 272
f 277 207 291
f 291 207 184
f 290 183 203
f 203 183 84
f 490 580 142
f 142 580 198
f 142 198 143
f 143 198 197
f 149 276 72
f 72 276 73
f 104 103 279
f 279 103 770
f 770 596 279
f 279 596 595
f 605 596 771
f 771 596 770
f 771 770 772
f 772 770 103
f 772 103 773
f 773 103 102
f 155 774 101
f 101 774 102
f 773 102 97
f 97 102 774
f 775 773 100
f 100 773 97
f 773 775 772
f 772 775 776
f 772 776 771
f 771 776 777
f 200 606 197
f 197 606 777
f 189 71 778
f 778 71 74
f 97 774 98
f 98 774 155
f 183 161 184
f 184 161 291
f 777 276 197
f 197 276 143
f 777 606 771
f 771 606 605
f 613 612 697
f 697 612 202
f 595 697 279
f 279 697 202
f 73 276 776
f 776 276 777
f 776 775 73
f 73 775 74
f 100 778 775
f 775 778 74
f 778 100 189
f 189 100 99
f 245 242 99
f 99 242 189
f 131 33 256
f 28 1 95
f 95 1 62
f 27 2 28
f 28 2 1
f 265 115 266
f 266 115 114
f 95 62 69
f 69 62 64
f 62 61 64
f 64 61 65
f 61 13 65
f 65 13 130
f 13 12 130
f 130 12 14
f 31 11 32
f 32 11 268
f 15 12 31
f 31 12 11
f 31 30 15
f 15 30 231
f 30 106 231
f 231 106 232
f 287 237 106
f 106 237 232
f 254 90 287
f 287 90 237
f 253 44 254
f 254 44 90
f 253 249 44
f 44 249 7
f 267 127 268
f 268 127 126
f 10 3 241
f 241 3 116
f 3 2 116
f 116 2 114
f 2 27 114
f 114 27 266
f 27 26 266
f 266 26 113
f 26 286 113
f 113 286 110
f 286 243 110
f 110 243 255
f 243 242 255
f 255 242 256
f 242 245 256
f 256 245 131
f 245 244 131
f 131 244 132
f 265 37 115
f 115 37 41
f 41 37 42
f 42 37 40
f 92 91 40
f 40 91 42
f 236 233 92
f 92 233 91
f 191 194 236
f 236 194 233
f 258 285 244
f 244 285 132
f 257 55 258
f 258 55 285
f 257 154 201
f 201 154 185
f 56 201 204
f 204 201 180
f 55 257 56
f 56 257 201
f 204 85 56
f 56 85 52
f 86 122 53
f 53 122 79
f 212 215 86
f 86 215 122
f 211 216 212
f 212 216 215
f 192 280 211
f 211 280 216
f 191 240 192
f 192 240 280
f 249 124 7
f 7 124 8
f 124 127 8
f 8 127 241
f 127 267 241
f 241 267 10
f 10 267 9
f 9 267 11
