v 0.051430605351924896 0.10171147435903549 0.7070402503013611
v 0.06391806155443192 0.09749805927276611 0.7066034078598022
v 0.057133302092552185 0.0927281379699707 0.7125796675682068
v 0.04623577743768692 0.09756194800138474 0.713106095790863
v 0.0748712420463562 0.09002138674259186 0.724993109703064
v 0.07858337461948395 0.0957028716802597 0.7346488833427429
v 0.062014758586883545 0.09256108850240707 0.7366138696670532
v 0.06240811198949814 0.08743543922901154 0.727593719959259
v 0.0412580668926239 0.09705936163663864 0.7172318696975708
v 0.05051412433385849 0.09061630070209503 0.7164961099624634
v 0.03951667994260788 0.1018548235297203 0.717891275882721
v 0.03144552558660507 0.1114804670214653 0.7222261428833008
v 0.03244861215353012 0.10504459589719772 0.7205172181129456
v 0.024245938286185265 0.11594221740961075 0.723053514957428
v 0.037159696221351624 0.12120557576417923 0.722786009311676
v 0.026391884312033653 0.12424583733081818 0.719210684299469
v 0.04574231803417206 0.13610202074050903 0.7040082216262817
v 0.04927796870470047 0.13706499338150024 0.6918083429336548
v 0.033750470727682114 0.13506990671157837 0.6904903650283813
v 0.03172871097922325 0.1335218846797943 0.7031402587890625
v 0.04395422339439392 0.13175839185714722 0.6733141541481018
v 0.03735405206680298 0.1337023228406906 0.6826084852218628
v 0.05308475345373154 0.1368006020784378 0.6839168071746826
v 0.058249764144420624 0.13468952476978302 0.6754686832427979
v 0.05887711048126221 0.10661733150482178 0.6952707767486572
v 0.0702936127781868 0.1047607809305191 0.6942904591560364
v 0.06867597997188568 0.10293130576610565 0.6987038850784302
v 0.05714857578277588 0.10541428625583649 0.6997575759887695
v 0.03737524896860123 0.10398006439208984 0.7230771780014038
v 0.044188015162944794 0.11334188282489777 0.7273238301277161
v 0.040077731013298035 0.10955750942230225 0.7222129702568054
v 0.037914760410785675 0.09966175258159637 0.7196704745292664
v 0.09578727185726166 0.0985516682267189 0.6862397193908691
v 0.10762514919042587 0.10437770932912827 0.6885274052619934
v 0.10698256641626358 0.10487780719995499 0.6944431066513062
v 0.0964045524597168 0.09979207813739777 0.691116988658905
v 0.09903839975595474 0.101690873503685 0.7194975018501282
v 0.10617805272340775 0.10750564932823181 0.7136464715003967
v 0.1100454330444336 0.11658037453889847 0.7226085066795349
v 0.10098042339086533 0.11436082422733307 0.7272928357124329
v 0.08953044563531876 0.09735994786024094 0.7285211682319641
v 0.09131472557783127 0.10842112451791763 0.7342773675918579
v 0.07714875042438507 0.10605445504188538 0.7399849891662598
v 0.05910984426736832 0.10040074586868286 0.7412425875663757
v 0.1090850904583931 0.10631591081619263 0.6759689450263977
v 0.10075610131025314 0.10181073099374771 0.67249596118927
v -0.018332963809370995 0.14460211992263794 0.7100818157196045
v -0.017639316618442535 0.1436813324689865 0.7043624520301819
v -0.01631518267095089 0.13671846687793732 0.7074397206306458
v -0.016653340309858322 0.1390480399131775 0.7124298214912415
v 0.1024269163608551 0.12053316086530685 0.6635135412216187
v 0.10099101811647415 0.13045652210712433 0.6643953919410706
v 0.10814450681209564 0.12937426567077637 0.6641746759414673
v 0.10969646275043488 0.12019031494855881 0.6652253866195679
v 0.09277279675006866 0.1208336353302002 0.6613850593566895
v 0.09097900241613388 0.13129472732543945 0.6652328968048096
v -0.008140426129102707 0.14988639950752258 0.7139918208122253
v -0.012913983315229416 0.14866802096366882 0.7151104211807251
v -0.010025273077189922 0.14423051476478577 0.7168110609054565
v -0.004898258484899998 0.14506468176841736 0.7145992517471313
v 0.03584325313568115 0.10226357728242874 0.7160959839820862
v 0.04078345745801926 0.10301098972558975 0.7086978554725647
v 0.012334578670561314 0.10717154294252396 0.7163533568382263
v 0.02591591887176037 0.10500992834568024 0.7118610739707947
v 0.02542394958436489 0.10547374933958054 0.7189765572547913
v 0.015033690258860588 0.10897547006607056 0.7219028472900391
v 0.03632914274930954 0.10746326297521591 0.6903672814369202
v 0.04806477576494217 0.10778685659170151 0.6916184425354004
v 0.045116350054740906 0.10751382261514664 0.697297215461731
v 0.03187653422355652 0.10652873665094376 0.6977424621582031
v 0.0524195060133934 0.10502658784389496 0.6784946918487549
v 0.04051104187965393 0.10534699261188507 0.6783226728439331
v 0.04431867599487305 0.10364353656768799 0.6709396839141846
v 0.05218935012817383 0.10285036265850067 0.6723671555519104
v 0.01722121611237526 0.10692545026540756 0.6812392473220825
v 0.008483764715492725 0.1104782223701477 0.6809728145599365
v 0.008959861472249031 0.11409354954957962 0.6754820346832275
v 0.018651951104402542 0.10800478607416153 0.6772534847259521
v 0.1151793971657753 0.1293860226869583 0.6644206047058105
v 0.11645098030567169 0.1202557235956192 0.6677558422088623
v 0.052966631948947906 0.12487860023975372 0.655445396900177
v 0.05918532609939575 0.1173819825053215 0.6506652235984802
v 0.04712300002574921 0.1146489828824997 0.646709680557251
v 0.044181957840919495 0.1232684999704361 0.6529496908187866
v 0.09785271435976028 0.1380622833967209 0.6706731915473938
v 0.10532408207654953 0.13803257048130035 0.6683828830718994
v -0.0038062874227762222 0.15018871426582336 0.7095077037811279
v -0.001558657269924879 0.1456582248210907 0.7094486355781555
v 0.07669444382190704 0.11746353656053543 0.7375069856643677
v 0.05700244754552841 0.10934622585773468 0.7401490807533264
v 0.09130945801734924 0.12193258851766586 0.7319071888923645
v 0.1005091518163681 0.1257569044828415 0.726561963558197
v 0.10899771004915237 0.12803928554058075 0.7245161533355713
v 0.021709423512220383 0.10476280748844147 0.7061454057693481
v 0.0470389723777771 0.1054949015378952 0.7024268507957458
v 0.06044681370258331 0.10654701292514801 0.6907766461372375
v 0.06534635275602341 0.09878983348608017 0.6616714596748352
v 0.0757833942770958 0.09847678989171982 0.6633422374725342
v 0.07007467746734619 0.09828642010688782 0.6722812652587891
v 0.06209276616573334 0.09926111251115799 0.6689056754112244
v 0.059908196330070496 0.10764424502849579 0.6497438549995422
v 0.05718645453453064 0.10168655961751938 0.654117226600647
v 0.04811827838420868 0.10155215114355087 0.652489185333252
v 0.04933871328830719 0.10649845749139786 0.6475452780723572
v 0.03689008951187134 0.10609368979930878 0.729794979095459
v 0.048454150557518005 0.11599058657884598 0.7320429086685181
v 0.10317175090312958 0.11045079678297043 0.6662895679473877
v 0.10981599986553192 0.1113382875919342 0.6700959801673889
v 0.11744367331266403 0.11404509842395782 0.6723087430000305
v 0.08348535001277924 0.10070523619651794 0.6919203996658325
v 0.09695673733949661 0.10043446719646454 0.6947827935218811
v 0.09622564166784286 0.09970050305128098 0.7000057697296143
v 0.08330883830785751 0.10087703168392181 0.6950212121009827
v 0.07631364464759827 0.0927228182554245 0.7102606296539307
v 0.08711318671703339 0.093171626329422 0.7163557410240173
v 0.06665532290935516 0.0882187932729721 0.7160419225692749
v 0.10784348100423813 0.10585826635360718 0.7029436826705933
v 0.11668771505355835 0.10700304806232452 0.6963234543800354
v 0.11621131747961044 0.10871648788452148 0.7051627039909363
v 0.11762562394142151 0.10775984078645706 0.6866074204444885
v 0.11793211102485657 0.10994189977645874 0.6779828071594238
v 0.11313531547784805 0.14087985455989838 0.6667895913124084
v 0.11464754492044449 0.1118604838848114 0.7129456996917725
v 0.05369425565004349 0.08629271388053894 0.7277100086212158
v 0.04568052291870117 0.08476535975933075 0.7268480062484741
v 0.04429277777671814 0.08732730895280838 0.7195320725440979
v 0.05130329728126526 0.08799140155315399 0.7195493578910828
v 0.01615249365568161 0.12152615934610367 0.7227848172187805
v 0.014491787180304527 0.11450038105249405 0.7243079543113708
v 0.025604328140616417 0.10919708758592606 0.7237796783447266
v 0.0861935019493103 0.09747596085071564 0.6798533797264099
v 0.09093987941741943 0.09998466074466705 0.6685259938240051
v 0.008784743025898933 0.10856838524341583 0.7104088664054871
v -0.0003398451954126358 0.1443375200033188 0.7138630151748657
v -0.0045194197446107864 0.14209744334220886 0.71751469373703
v 0.007522578816860914 0.13300055265426636 0.7197852730751038
v 0.01038307137787342 0.13658195734024048 0.7153266072273254
v 0.0026249997317790985 0.11850087344646454 0.7043901085853577
v 0.003557204268872738 0.11461936682462692 0.7097911238670349
v 0.0013159806840121746 0.1191597729921341 0.7086115479469299
v 0.0005842738319188356 0.12253071367740631 0.7033135294914246
v 0.01401149295270443 0.11118186265230179 0.6689935326576233
v 0.02270946465432644 0.10635146498680115 0.6703670024871826
v 0.017176497727632523 0.12854121625423431 0.7016053795814514
v 0.021088823676109314 0.12952692806720734 0.7127594947814941
v 0.030055919662117958 0.13101598620414734 0.7120030522346497
v 0.03949408233165741 0.10670135915279388 0.6836605072021484
v 0.0286174938082695 0.10615673661231995 0.6817513704299927
v 0.02979358844459057 0.10595884174108505 0.6777887344360352
v 0.01817009598016739 0.10582296550273895 0.7026233673095703
v 0.008083444088697433 0.10926299542188644 0.7042774558067322
v 0.012686760164797306 0.10824958980083466 0.6992007493972778
v 0.022136151790618896 0.10670033097267151 0.6975570917129517
v 0.07154987007379532 0.11981420964002609 0.6538854837417603
v 0.07250268757343292 0.10835311561822891 0.6523599624633789
v -0.01657865382730961 0.14655154943466187 0.7138787508010864
v -0.014088314026594162 0.14147579669952393 0.7159897089004517
v 0.05091659724712372 0.10703068971633911 0.6850309371948242
v 0.04286850243806839 0.13205304741859436 0.7122896909713745
v 0.06225069612264633 0.10578744113445282 0.6857463717460632
v 0.029824145138263702 0.1218005120754242 0.6633362174034119
v 0.02823750674724579 0.11622492969036102 0.6597136855125427
v 0.022864723578095436 0.11661984771490097 0.6611913442611694
v 0.025063471868634224 0.12165607511997223 0.6623189449310303
v -0.007547653280198574 0.13412347435951233 0.6990925073623657
v -0.011322502046823502 0.1326809674501419 0.7033577561378479
v -0.014316098764538765 0.13618479669094086 0.701487123966217
v -0.010053614154458046 0.1372944712638855 0.6981042623519897
v 0.004755192901939154 0.11470270156860352 0.7155765891075134
v 0.00728901382535696 0.11604630202054977 0.7213371992111206
v 0.0019839585293084383 0.12241147458553314 0.7188779711723328
v 0.0009566782973706722 0.12039247155189514 0.7135939002037048
v 0.008872311562299728 0.12224891781806946 0.7229238748550415
v 0.004603477194905281 0.12766696512699127 0.7210758328437805
v -0.0019842623732984066 0.13779856264591217 0.6987971663475037
v 0.00295167020522058 0.14230555295944214 0.702921986579895
v 0.009886033833026886 0.13442136347293854 0.702925980091095
v 0.0037122503854334354 0.12945659458637238 0.7012986540794373
v 0.07242849469184875 0.13794806599617004 0.6779298782348633
v 0.07615630328655243 0.13410186767578125 0.6683153510093689
v 0.062064580619335175 0.1308535784482956 0.6655331254005432
v 0.04868455231189728 0.12816369533538818 0.6624027490615845
v 0.036477573215961456 0.12403377145528793 0.6608139276504517
v 0.03290552273392677 0.12940393388271332 0.671147346496582
v 0.0660104900598526 0.12773853540420532 0.6593121290206909
v 0.006228280253708363 0.12407231330871582 0.6993609070777893
v 0.012988639995455742 0.12768976390361786 0.7047258615493774
v 0.011242128908634186 0.1273394376039505 0.7001699209213257
v 0.06383167952299118 0.10306648910045624 0.6790518164634705
v -0.007908702827990055 0.13909722864627838 0.7178738117218018
v 0.09817195683717728 0.14190658926963806 0.7127454876899719
v 0.09844186156988144 0.14567595720291138 0.7002771496772766
v 0.09002053737640381 0.14369022846221924 0.7018793225288391
v 0.08936581760644913 0.1389971524477005 0.7152798771858215
v -0.012623630464076996 0.13265559077262878 0.7101383805274963
v -0.011618802323937416 0.13523954153060913 0.7153899669647217
v 0.024337483569979668 0.10548649728298187 0.6642966270446777
v 0.017257101833820343 0.11007270961999893 0.6643526554107666
v 0.017998095601797104 0.11176915466785431 0.6614580750465393
v 0.023862501606345177 0.10598553717136383 0.6597363948822021
v 0.07937539368867874 0.1315673589706421 0.6641441583633423
v 0.03893865644931793 0.11104951053857803 0.6450693607330322
v 0.037707358598709106 0.11978437751531601 0.6496397256851196
v 0.08847524970769882 0.13699325919151306 0.6711505651473999
v 0.08530472964048386 0.14094531536102295 0.6794062852859497
v 0.09475982189178467 0.1429470032453537 0.6798901557922363
v 0.021735291928052902 0.1297217309474945 0.6816486120223999
v 0.06778769940137863 0.13947035372257233 0.6850190758705139
v 0.08186588436365128 0.14189109206199646 0.6861288547515869
v 0.09303584694862366 0.1442936509847641 0.687019407749176
v 0.10104628652334213 0.14652490615844727 0.6869187355041504
v 0.10216915607452393 0.14460381865501404 0.6791255474090576
v 0.0022145789116621017 0.1438973993062973 0.7081131935119629
v -0.00038183899596333504 0.1440960168838501 0.7036899924278259
v 0.1104520931839943 0.1479741483926773 0.6776905655860901
v 0.10895812511444092 0.14936451613903046 0.6866921186447144
v 0.07872667908668518 0.14211273193359375 0.6947669982910156
v 0.07523796707391739 0.14112475514411926 0.7047627568244934
v 0.06524419039487839 0.13960987329483032 0.6932438015937805
v 0.06069517880678177 0.1384783536195755 0.7031749486923218
v 0.023306522518396378 0.13341349363327026 0.691349983215332
v -0.006934438832104206 0.15839070081710815 0.6973562836647034
v -0.004388229921460152 0.14736442267894745 0.6987906694412231
v -0.009370774962008 0.14486978948116302 0.6966965198516846
v -0.00937131978571415 0.15558165311813354 0.6946943998336792
v -0.004737903364002705 0.14020515978336334 0.6990187764167786
v -0.0018480168655514717 0.14915113151073456 0.7035676836967468
v 0.05757392942905426 0.1333879977464676 0.7142348885536194
v 0.0032134666107594967 0.11450211703777313 0.6989511847496033
v 0.07317690551280975 0.13401047885417938 0.7181790471076965
v 0.04905414581298828 0.12577402591705322 0.7244420051574707
v 0.06019113212823868 0.12494689971208572 0.7278658151626587
v 0.08900482207536697 0.13313937187194824 0.7249928712844849
v 0.07471879571676254 0.12685580551624298 0.7313050627708435
v 0.10679621994495392 0.13714340329170227 0.7201716899871826
v 0.09786971658468246 0.13562272489070892 0.7216432690620422
v 0.06011234223842621 0.11914446949958801 0.7352868318557739
v -0.02118329331278801 0.1525920331478119 0.7021454572677612
v -0.01844392903149128 0.150905042886734 0.6974076628684998
v 0.10622349381446838 0.14421024918556213 0.7118789553642273
v 0.057665884494781494 0.08732861280441284 0.7186926603317261
v 0.07410603016614914 0.10119589418172836 0.6823158264160156
v 0.07256381213665009 0.10332386940717697 0.6871107816696167
v 0.08189113438129425 0.09883429855108261 0.6650940179824829
v 0.07717575877904892 0.09800638258457184 0.675746738910675
v -0.020709149539470673 0.15511293709278107 0.7067325115203857
v 0.007337415590882301 0.11619281768798828 0.6790447235107422
v 0.008698299527168274 0.11983641237020493 0.6760488152503967
v 0.052901819348335266 0.08917005360126495 0.7359389066696167
v 0.04562152922153473 0.08668361604213715 0.7343100905418396
v 0.0384630411863327 0.097146175801754 0.7378751039505005
v 0.04189049452543259 0.09088499844074249 0.7385402321815491
v 0.04969632625579834 0.09573642909526825 0.7403379678726196
v 0.046592265367507935 0.10274109244346619 0.7394592761993408
v 0.08335642516613007 0.10018139332532883 0.6893302798271179
v 0.08362168818712234 0.09929628670215607 0.6855324506759644
v 0.08291446417570114 0.1201707050204277 0.6575784683227539
v 0.08311066031455994 0.10874072462320328 0.6563591361045837
v 0.011764416471123695 0.12703993916511536 0.7210147976875305
v 0.018648315221071243 0.12688718736171722 0.718790590763092
v 0.014855372719466686 0.13111333549022675 0.7163124680519104
v 0.012555679306387901 0.1363687664270401 0.7091032862663269
v 0.0020690257661044598 0.12086332589387894 0.6979421973228455
v 0.006225758232176304 0.12359677255153656 0.702617883682251
v 0.09206351637840271 0.09641710668802261 0.706877589225769
v 0.08129093796014786 0.09812664240598679 0.7013902068138123
v 0.046337999403476715 0.09187295287847519 0.7173345685005188
v 0.041035935282707214 0.0928800031542778 0.716812789440155
v 0.026714669540524483 0.1067146435379982 0.690742552280426
v 0.01596742682158947 0.12781882286071777 0.6829800009727478
v 0.017094533890485764 0.13247007131576538 0.6909327507019043
v 0.016089003533124924 0.1076689288020134 0.6907451748847961
v -0.014474201947450638 0.16042928397655487 0.7083978056907654
v -0.0187742430716753 0.15766173601150513 0.7083831429481506
v 0.01576942205429077 0.13144469261169434 0.7106733322143555
v 0.033034853637218475 0.10361460596323013 0.6704979538917542
v 0.01929314061999321 0.1264890432357788 0.6779386401176453
v 0.012527558021247387 0.12180697172880173 0.6794435381889343
v 0.04289182275533676 0.10465847700834274 0.646961510181427
v 0.10707873851060867 0.1476970762014389 0.6998651623725891
v -0.014523409307003021 0.14391349256038666 0.6986070871353149
v -0.014437612146139145 0.15116506814956665 0.6942710280418396
v -0.005716003477573395 0.16019240021705627 0.7010046243667603
v -0.008123260922729969 0.16077376902103424 0.7061215043067932
v 0.09244180470705032 0.10876373201608658 0.6617094278335571
v 0.07124572992324829 0.10446284711360931 0.6901735663414001
v 0.04746033251285553 0.11185237765312195 0.7355386018753052
v 0.03699041157960892 0.10334549844264984 0.7340391278266907
v 0.007156998850405216 0.11032846570014954 0.690586268901825
v 0.033198870718479156 0.11973408609628677 0.656271755695343
v 0.026720786467194557 0.1279480755329132 0.6694957613945007
v 0.02420538291335106 0.12857936322689056 0.6667410731315613
v 0.01884843409061432 0.1305854469537735 0.6700502038002014
v 0.011616239324212074 0.12854211032390594 0.6714843511581421
v -0.007425178773701191 0.16349464654922485 0.6978027820587158
v -0.01073978841304779 0.16590052843093872 0.7020232081413269
v -0.016404645517468452 0.16606809198856354 0.70236736536026
v -0.0209506768733263 0.16273429989814758 0.7027437090873718
v -0.022556565701961517 0.15798568725585938 0.7022631168365479
v -0.008687438443303108 0.16089466214179993 0.6945830583572388
v -0.010693796910345554 0.15787428617477417 0.6929645538330078
v -0.015341395512223244 0.15319958329200745 0.6937109231948853
v -0.007997402921319008 0.16111814975738525 0.6911520957946777
v -0.0074926214292645454 0.16566437482833862 0.6918347477912903
v -0.017428914085030556 0.1728997826576233 0.6896456480026245
v -0.01517435535788536 0.17094102501869202 0.6945334672927856
v -0.013975691050291061 0.17154952883720398 0.6924296021461487
v -0.01476372592151165 0.17371951043605804 0.6882561445236206
v -0.014041522517800331 0.1759623885154724 0.6839379668235779
v -0.017407862469553947 0.17520737648010254 0.684788703918457
v -0.010646606795489788 0.16886313259601593 0.6935961842536926
v -0.010909268632531166 0.1716877520084381 0.6879652142524719
v -0.008118212223052979 0.16896991431713104 0.6864435076713562
v -0.007626425474882126 0.17211508750915527 0.6822603940963745
v -0.010149206966161728 0.17488902807235718 0.6834529638290405
v -0.008222835138440132 0.16737616062164307 0.6904560327529907
v -0.010433562099933624 0.16856956481933594 0.6953611373901367
v -0.01544366218149662 0.17593637108802795 0.6809625625610352
v -0.01315736398100853 0.17685312032699585 0.6814705729484558
v -0.010204787366092205 0.1756535917520523 0.6806983947753906
v -0.011537374928593636 0.17499235272407532 0.6781327128410339
v -0.020035937428474426 0.16719765961170197 0.6969294548034668
v -0.01937851868569851 0.17146597802639008 0.6893432140350342
v -0.018580522388219833 0.17263388633728027 0.6837584972381592
v -0.016514239832758904 0.1735583394765854 0.6800675988197327
v -0.020229918882250786 0.1684395670890808 0.6870790719985962
v -0.01863415725529194 0.16991180181503296 0.6828312277793884
v -0.01673193834722042 0.1703319251537323 0.6794206500053406
v -0.019490350037813187 0.1650482565164566 0.6847683191299438
v -0.017786087468266487 0.16723552346229553 0.6814309358596802
v -0.022320015355944633 0.15806354582309723 0.6960233449935913
v -0.022169368341565132 0.16189873218536377 0.6977109909057617
v -0.016914455220103264 0.16824474930763245 0.6792114973068237
v -0.012210259214043617 0.17302173376083374 0.677472710609436
v -0.007256350480020046 0.16548430919647217 0.6862701773643494
v -0.007593696936964989 0.16904421150684357 0.680797278881073
v -0.007770175114274025 0.1635790318250656 0.6854134798049927
v -0.00779540091753006 0.1667935997247696 0.6798263192176819
v -0.007801050320267677 0.17193818092346191 0.677909255027771
v -0.008183198049664497 0.17352232336997986 0.6799681782722473
v -0.021727152168750763 0.15394152700901031 0.6996548771858215
v -0.01860712841153145 0.15213923156261444 0.6959931254386902
v -0.018510693684220314 0.15489402413368225 0.6932593584060669
v -0.016644924879074097 0.16188494861125946 0.6830520629882812
v -0.014612862840294838 0.1547747254371643 0.6911318302154541
v -0.00954901147633791 0.1586354821920395 0.6893324851989746
v -0.00909508764743805 0.16211657226085663 0.6836881041526794
v -0.011906513944268227 0.16092538833618164 0.6826846599578857
v -0.00947148073464632 0.16492673754692078 0.6796850562095642
v -0.011951860040426254 0.164177805185318 0.6797277927398682
v -0.015511320903897285 0.1648755967617035 0.6800286769866943
v -0.01081461738795042 0.16760963201522827 0.6773355007171631
v -0.008823338896036148 0.16988584399223328 0.6773113012313843
v -0.013589110225439072 0.1699390858411789 0.6773393154144287
v -0.012127574533224106 0.16621628403663635 0.6780296564102173
v -0.014538446441292763 0.16770578920841217 0.6784434914588928
v -0.017352813854813576 0.1404714286327362 0.6653861403465271
v -0.012997610494494438 0.1382015496492386 0.6616606712341309
v -0.012882014736533165 0.13164953887462616 0.6676291823387146
v -0.015827128663659096 0.1344974786043167 0.6711878776550293
v -0.010763807222247124 0.1463444083929062 0.6747329235076904
v -0.01592160202562809 0.1450817883014679 0.672771155834198
v -0.013243632391095161 0.14204107224941254 0.6770729422569275
v -0.007185112684965134 0.14385674893856049 0.6765413880348206
v -0.005122760310769081 0.14569327235221863 0.6728631854057312
v -0.0023051397874951363 0.14239555597305298 0.6738786697387695
v -0.0036061517894268036 0.1437358558177948 0.678459644317627
v -0.009593484923243523 0.1404382884502411 0.6801733374595642
v 0.0025823016185313463 0.1290041208267212 0.6930065155029297
v 0.007211941294372082 0.13373416662216187 0.690527617931366
v 0.0025301147252321243 0.11428525298833847 0.6823323965072632
v 0.0042238193564116955 0.11705726385116577 0.6798917651176453
v -0.017946669831871986 0.14290745556354523 0.66900634765625
v -0.01594042219221592 0.1385374516248703 0.6746445894241333
v -0.005109850317239761 0.12753380835056305 0.6656790375709534
v -0.009615288116037846 0.12673917412757874 0.6685231328010559
v -0.009482130408287048 0.1305810660123825 0.664047122001648
v -0.004820066504180431 0.13191887736320496 0.6628223061561584
v -0.0004957513883709908 0.12012192606925964 0.6923329830169678
v 0.001259881304576993 0.11562078446149826 0.6880485415458679
v 0.00021221628412604332 0.12454560399055481 0.6927828192710876
v -0.00015385542064905167 0.13150852918624878 0.6655762195587158
v 0.0031987011898308992 0.13681665062904358 0.6678389310836792
v 0.012885110452771187 0.1293175369501114 0.6785217523574829
v 0.009701669216156006 0.12339432537555695 0.6768673062324524
v -0.01343526691198349 0.1364714503288269 0.6790427565574646
v -0.01289459504187107 0.12845782935619354 0.6726545095443726
v -0.014605984091758728 0.1316676139831543 0.676001250743866
v 0.0012121661566197872 0.14180169999599457 0.6736313104629517
v 0.0006661387160420418 0.13940218091011047 0.667880117893219
v 0.00026451610028743744 0.15158426761627197 0.6579841375350952
v -0.0005189403891563416 0.1403760015964508 0.6640052199363708
v -0.0037965504452586174 0.13881999254226685 0.6605980396270752
v -0.002212884835898876 0.15002155303955078 0.6540006995201111
v -0.0008812397718429565 0.13510966300964355 0.6646883487701416
v -0.000892997719347477 0.142950177192688 0.6685483455657959
v -0.014767445623874664 0.15395653247833252 0.6554203033447266
v -0.01056668534874916 0.15130670368671417 0.6516550779342651
v -0.015617085620760918 0.15642069280147552 0.6591715216636658
v 0.01173347420990467 0.13400451838970184 0.6843840479850769
v -0.009950052946805954 0.1581917256116867 0.6669223308563232
v -0.01469232514500618 0.15762656927108765 0.6630662083625793
v -0.008150072768330574 0.1378002017736435 0.6595066785812378
v -0.0059501854702830315 0.15018001198768616 0.651504397392273
v 0.0003890395164489746 0.15391433238983154 0.6620482206344604
v -0.003954814746975899 0.15622219443321228 0.6674235463142395
v -0.00027473270893096924 0.15670043230056763 0.655752956867218
v -0.002167746424674988 0.16075016558170319 0.6601567268371582
v -0.007179603911936283 0.16320747137069702 0.6599233150482178
v -0.012239079922437668 0.16285504400730133 0.6576992273330688
v -0.014307137578725815 0.160711407661438 0.6552826762199402
v -0.001073099672794342 0.15486416220664978 0.6527877449989319
v -0.0038146842271089554 0.15367530286312103 0.6496188640594482
v -0.008014264516532421 0.15295350551605225 0.6492385864257812
v -0.002047056332230568 0.15671704709529877 0.646210253238678
v -0.00021406076848506927 0.15948939323425293 0.6480754017829895
v -0.005545070394873619 0.17446140944957733 0.6430689692497253
v -0.005798816680908203 0.17160622775554657 0.6478732228279114
v -0.0033833272755146027 0.17094732820987701 0.647316575050354
v -0.0029007792472839355 0.17345863580703735 0.6428959965705872
v -0.004490773193538189 0.16841484606266022 0.6525346636772156
v -0.0027860011905431747 0.16837520897388458 0.6505913734436035
v -0.0006320159882307053 0.16450875997543335 0.6500229239463806
v -0.000791473314166069 0.16749867796897888 0.6454011797904968
v 0.0002652723342180252 0.16315728425979614 0.6436842679977417
v 0.0013794507831335068 0.16591191291809082 0.6394738554954529
v 0.0007242821156978607 0.17048117518424988 0.6410664319992065
v 0.0003920178860425949 0.16219016909599304 0.6471778750419617
v -0.0020849164575338364 0.17423254251480103 0.63972407579422
v -0.0039032604545354843 0.17482087016105652 0.6379774808883667
v -0.0014010705053806305 0.16357998549938202 0.652428925037384
v -0.010119621641933918 0.16657084226608276 0.6546950936317444
v -0.00873925257474184 0.17152363061904907 0.6472477912902832
v -0.008200543001294136 0.17389561235904694 0.6414680480957031
v -0.005703894421458244 0.17327198386192322 0.6360867023468018
v -0.011305069550871849 0.16961383819580078 0.6448200345039368
v -0.009767619892954826 0.17182867228984833 0.6396230459213257
v -0.007219141349196434 0.17108534276485443 0.6355410814285278
v -0.012697335332632065 0.16633710265159607 0.6419210433959961
v -0.0104878731071949 0.16841907799243927 0.6372935175895691
v -0.014840885996818542 0.16049520671367645 0.6506536602973938
v -0.013818049803376198 0.1639985740184784 0.6530832052230835
v -0.008616693317890167 0.16918858885765076 0.6357115507125854
v -0.0004123970866203308 0.17229025065898895 0.6356584429740906
v -0.0029783975332975388 0.17097602784633636 0.6338585615158081
v 0.00023791007697582245 0.1720370650291443 0.6373836994171143
v -2.9535964131355286e-05 0.1613437384366989 0.6425800323486328
v 0.0004791226238012314 0.16450220346450806 0.6378986239433289
v -0.0014103557914495468 0.1596432626247406 0.6410220861434937
v -0.0008484050631523132 0.16352415084838867 0.6361669301986694
v 0.0006760992109775543 0.167705699801445 0.6350431442260742
v 0.0013051163405179977 0.1687474548816681 0.6362645626068115
v -0.013949429616332054 0.15747937560081482 0.6527904868125916
v -0.011056906543672085 0.15409180521965027 0.6499626636505127
v -0.013157917186617851 0.15646705031394958 0.6481141448020935
v -0.011240417137742043 0.1622280329465866 0.6397437453269958
v -0.009638245217502117 0.1544145941734314 0.6468045115470886
v -0.004996728152036667 0.15516549348831177 0.64533931016922
v -0.0038880296051502228 0.15866702795028687 0.6401767134666443
v -0.007522620260715485 0.1595035195350647 0.6391723155975342
v -0.002421591430902481 0.16224944591522217 0.6352483034133911
v -0.005624779500067234 0.16191719472408295 0.6359702348709106
v -0.009366367012262344 0.16484826803207397 0.6360751390457153
v -0.0023494474589824677 0.16586759686470032 0.632919192314148
v -0.0004360787570476532 0.16700491309165955 0.6338272094726562
v -0.004693401046097279 0.16958940029144287 0.6336666941642761
v -0.004927031695842743 0.16464471817016602 0.6337391138076782
v -0.007048534229397774 0.16755276918411255 0.6342118978500366
v -0.003719750791788101 0.13867245614528656 0.6441037058830261
v -0.001767326146364212 0.13424086570739746 0.6415338516235352
v -0.003929050639271736 0.1280091404914856 0.6460204124450684
v -0.005595952272415161 0.13336214423179626 0.6488298177719116
v 0.0051162224262952805 0.1418040245771408 0.6529062390327454
v 0.0006449408829212189 0.1427808701992035 0.6508165001869202
v -0.000859629362821579 0.13939863443374634 0.6539152264595032
v 0.004078198224306107 0.13824434578418732 0.6563592553138733
v 0.010042767971754074 0.13986822962760925 0.6513546109199524
v 0.009121984243392944 0.13603022694587708 0.6546403765678406
v 0.0074453530833125114 0.1389283835887909 0.6586870551109314
v 0.0010879850015044212 0.13789565861225128 0.6578340530395508
v 0.009339695796370506 0.1313563734292984 0.6675188541412354
v 0.015722747892141342 0.13419422507286072 0.6660488843917847
v -0.0023254714906215668 0.141480952501297 0.6473592519760132
v -0.004116440191864967 0.1375858187675476 0.6513190865516663
v 0.005960368551313877 0.12227946519851685 0.6474324464797974
v 0.0021963194012641907 0.12274163216352463 0.6498015522956848
v 0.0004747975617647171 0.125761941075325 0.643572211265564
v 0.004668889567255974 0.12584200501441956 0.6429980993270874
v 0.006171779707074165 0.1203124076128006 0.669041633605957
v 0.00980321504175663 0.11643902957439423 0.6659454107284546
v 0.005813247989863157 0.12618575990200043 0.6681885123252869
v 0.010718248784542084 0.12524618208408356 0.6479887962341309
v 0.014630383811891079 0.13110914826393127 0.6511844992637634
v 0.021710718050599098 0.12570101022720337 0.657710075378418
v 0.01858799159526825 0.12022249400615692 0.6576288342475891
v -0.0023191748186945915 0.13491450250148773 0.6570079326629639
v -0.0014810385182499886 0.12490123510360718 0.6526445746421814
v -0.003851635381579399 0.1299302577972412 0.6552586555480957
v 0.012541697360575199 0.13666364550590515 0.6554806232452393
v 0.010755028575658798 0.1315128058195114 0.6502174139022827
v 0.017909808084368706 0.14452145993709564 0.6359053254127502
v 0.010811103507876396 0.13076886534690857 0.643710196018219
v 0.006882172077894211 0.13044777512550354 0.6403961181640625
v 0.015628160908818245 0.14339914917945862 0.6324286460876465
v 0.008916901424527168 0.12742170691490173 0.6451006531715393
v 0.012510504573583603 0.13476645946502686 0.6481476426124573
v 0.00503024086356163 0.15092381834983826 0.6330268979072571
v 0.0071474406868219376 0.14624744653701782 0.6310157179832458
v 0.005224229767918587 0.1526651531457901 0.6367323398590088
v 0.02125697024166584 0.13231812417507172 0.6620362997055054
v 0.014456022530794144 0.11574570089578629 0.6606581211090088
v 0.010585473850369453 0.15421368181705475 0.6412386298179626
v 0.006951715797185898 0.1542477309703827 0.6391592621803284
v 0.0026142671704292297 0.13129854202270508 0.640306293964386
v 0.011706871911883354 0.14371052384376526 0.6304765939712524
v 0.01765526458621025 0.14708608388900757 0.6394879221916199
v 0.01485620066523552 0.15099358558654785 0.6423363089561462
v 0.020011210814118385 0.14894327521324158 0.6351041793823242
v 0.01766141504049301 0.15332159399986267 0.6375916600227356
v 0.014891676604747772 0.1570296436548233 0.6367089152336121
v 0.01159864291548729 0.15760117769241333 0.6348797082901001
v 0.009279575198888779 0.1564476639032364 0.6325514912605286
v 0.019602110609412193 0.14678746461868286 0.6314265131950378
v 0.016959091648459435 0.14605553448200226 0.628706157207489
v 0.012894781306385994 0.14624159038066864 0.6287635564804077
v 0.020943420007824898 0.1471516489982605 0.6274917125701904
v 0.023686552420258522 0.15089568495750427 0.6301053762435913
v 0.0252497810870409 0.16407054662704468 0.6225007772445679
v 0.022281913086771965 0.16205370426177979 0.6263909935951233
v 0.023384129628539085 0.16140100359916687 0.6265993118286133
v 0.026738891378045082 0.1634911596775055 0.622965395450592
v 0.02029222436249256 0.15910014510154724 0.6318051815032959
v 0.022341260686516762 0.15902236104011536 0.6306348443031311
v 0.023608248680830002 0.15562614798545837 0.6311247944831848
v 0.026911666616797447 0.1577153503894806 0.626263439655304
v 0.026648787781596184 0.15232476592063904 0.6242934465408325
v 0.02882223390042782 0.15489493310451508 0.6210746765136719
v 0.029685569927096367 0.1598614752292633 0.6228890419006348
v 0.024841250851750374 0.15194883942604065 0.6290794014930725
v 0.028643758967518806 0.16344404220581055 0.6207372546195984
v 0.028324218466877937 0.16547153890132904 0.6200793385505676
v 0.021673554554581642 0.1552867293357849 0.6327275037765503
v 0.015908941626548767 0.1606895476579666 0.6316162347793579
v 0.01991269551217556 0.1631205976009369 0.6254211068153381
v 0.022564304992556572 0.16562756896018982 0.6209846138954163
v 0.025359002873301506 0.16491669416427612 0.6178879737854004
v 0.017334552481770515 0.16186293959617615 0.62319415807724
v 0.02048339508473873 0.1638268083333969 0.6193284392356873
v 0.02304556779563427 0.1634415090084076 0.6164716482162476
v 0.015856565907597542 0.15958048403263092 0.6214909553527832
v 0.01920943520963192 0.16116619110107422 0.6180046796798706
v 0.009912854060530663 0.15534569323062897 0.6289049983024597
v 0.012389829382300377 0.1587621569633484 0.6304970979690552
v 0.021718347445130348 0.16168725490570068 0.6161396503448486
v 0.030785901471972466 0.1616058200597763 0.6185868978500366
v 0.028013644739985466 0.16075502336025238 0.6155321002006531
v 0.029952941462397575 0.16090792417526245 0.6200321316719055
v 0.02576427347958088 0.15071842074394226 0.623863697052002
v 0.028900304809212685 0.15329723060131073 0.6192877292633057
v 0.02364594303071499 0.14939084649085999 0.622307538986206
v 0.02687234990298748 0.15205836296081543 0.6176100969314575
v 0.030586181208491325 0.1564997285604477 0.617965042591095
v 0.03035147301852703 0.1571134775876999 0.6189653277397156
v 0.008054899051785469 0.15288127958774567 0.6307439804077148
v 0.009448383003473282 0.14884862303733826 0.6289030313491821
v 0.010321468114852905 0.15135909616947174 0.6270831823348999
v 0.01634916476905346 0.15597328543663025 0.6193521022796631
v 0.013023056089878082 0.14793230593204498 0.6266126036643982
v 0.01828068681061268 0.1473732590675354 0.625226616859436
v 0.021092822775244713 0.14996209740638733 0.620569109916687
v 0.01869102381169796 0.15231424570083618 0.61922287940979
v 0.024314196780323982 0.1522952765226364 0.6163743734359741
v 0.021872764453291893 0.15389536321163177 0.616731584072113
v 0.019370881840586662 0.15785133838653564 0.6160995364189148
v 0.025905033573508263 0.15584519505500793 0.6152637004852295
v 0.028684651479125023 0.15572881698608398 0.6159921884536743
v 0.025142086669802666 0.1601405143737793 0.6145563125610352
v 0.023485517129302025 0.15613168478012085 0.615142285823822
v 0.022771304473280907 0.1593761444091797 0.6146076917648315
v 0.012457688339054585 0.11458956450223923 0.663145899772644
v 0.01179957203567028 0.10597861558198929 0.6605947613716125
v 0.01106986217200756 0.10212668776512146 0.6606824994087219
v 0.014616893604397774 0.10153491795063019 0.6578290462493896
v 0.016110859811306 0.10537806153297424 0.6581255197525024
v 0.007877444848418236 0.11106935888528824 0.65179044008255
v 0.009597012773156166 0.11096861958503723 0.6560450196266174
v 0.013126147910952568 0.11130238324403763 0.6530507206916809
v 0.01185387559235096 0.11138403415679932 0.6484405994415283
v 0.005790224298834801 0.10798889398574829 0.6483896374702454
v 0.009947987273335457 0.10829605162143707 0.6448993682861328
v 0.014428062364459038 0.11432968080043793 0.648279070854187
v 0.01527218148112297 0.11332590878009796 0.6530342698097229
v 0.02571064792573452 0.11661514639854431 0.6564151048660278
v 0.02715337835252285 0.11857381463050842 0.6522979736328125
v 0.03629286587238312 0.10309432446956635 0.6472488641738892
v 0.0370575413107872 0.10070101916790009 0.6515270471572876
v 0.029076535254716873 0.10082777589559555 0.6513701677322388
v 0.02962258830666542 0.10201387107372284 0.6472342014312744
v 0.011040771380066872 0.10903629660606384 0.6588847041130066
v 0.014646798372268677 0.10873012244701385 0.6569676995277405
v 0.01735389605164528 0.09757743030786514 0.6496448516845703
v 0.017790548503398895 0.09811561554670334 0.6541091799736023
v 0.013686375692486763 0.09811688959598541 0.6561914682388306
v 0.011382373049855232 0.09648729860782623 0.6524525880813599
v 0.033842213451862335 0.10116122663021088 0.6556418538093567
v 0.03015952743589878 0.10288313776254654 0.6584172248840332
v 0.02716168202459812 0.10422007739543915 0.6582667231559753
v 0.027526328340172768 0.10199349373579025 0.6554476618766785
v 0.024989137426018715 0.10962852090597153 0.6594021320343018
v 0.01617056503891945 0.09934508800506592 0.6458648443222046
v 0.014770062640309334 0.1044575646519661 0.6424922943115234
v 0.03005516342818737 0.10977531969547272 0.6421442031860352
v 0.030737992376089096 0.10542137920856476 0.6438364386558533
v 0.016298094764351845 0.110541433095932 0.6565317511558533
v 0.017396219074726105 0.10110880434513092 0.6572355031967163
v 0.017342405393719673 0.10583317279815674 0.6578178405761719
v 0.014721227809786797 0.111429862678051 0.6435679197311401
v 0.0085268784314394 0.10257026553153992 0.6448184847831726
v -0.002132626250386238 0.09880983084440231 0.6574494242668152
v 0.0049066487699747086 0.09782402217388153 0.6513548493385315
v 0.00676628015935421 0.09677230566740036 0.6554622054100037
v -0.0008755046874284744 0.09783359616994858 0.6602123379707336
v 0.010461894795298576 0.09845860302448273 0.6479310989379883
v 0.003884570673108101 0.10233752429485321 0.6485303640365601
v 0.004545310512185097 0.10636989027261734 0.666490912437439
v 0.003716176375746727 0.10162541270256042 0.665565013885498
v 0.004194451496005058 0.10924367606639862 0.6651341915130615
v 0.028542885556817055 0.1170213520526886 0.6461215019226074
v 0.0004960130900144577 0.11122514307498932 0.6592150330543518
v 0.002457575872540474 0.11118168383836746 0.6630650758743286
v 0.009266337379813194 0.09895436465740204 0.6589060425758362
v 0.001379581168293953 0.09871664643287659 0.6631755232810974
v -0.002921188250184059 0.10242027044296265 0.6552936434745789
v -0.0018809568136930466 0.10811968892812729 0.6552701592445374
v -0.0060479287058115005 0.10333173722028732 0.6580927968025208
v -0.004740698263049126 0.10863672941923141 0.6589879989624023
v -0.002301005646586418 0.11166837811470032 0.6638144850730896
v -2.2193416953086853e-05 0.11097627133131027 0.6663302183151245
v 0.0015283096581697464 0.10890080779790878 0.6681872010231018
v -0.005193227902054787 0.09962468594312668 0.6599971055984497
v -0.003580855205655098 0.09849590063095093 0.6624268889427185
v -0.0007354225963354111 0.09893517196178436 0.664903461933136
v -0.008668666705489159 0.10089699178934097 0.6626875996589661
v -0.010395793244242668 0.10533875972032547 0.6624967455863953
v -0.013229290023446083 0.11068060994148254 0.6744077801704407
v -0.0099575724452734 0.11070212721824646 0.6724132895469666
v -0.010560223832726479 0.11067115515470505 0.6713985204696655
v -0.013800086453557014 0.11121740937232971 0.6736224293708801
v -0.006680527701973915 0.11133813858032227 0.6685355305671692
v -0.008238749578595161 0.11084594577550888 0.6682366132736206
v -0.008863663300871849 0.10942456126213074 0.6652052402496338
v -0.012905726209282875 0.10961247980594635 0.6679127216339111
v -0.01487300731241703 0.10498116910457611 0.6663597822189331
v -0.017985964193940163 0.10580174624919891 0.6687636375427246
v -0.01604280062019825 0.11002984642982483 0.6696594953536987
v -0.011448042467236519 0.10659268498420715 0.6638598442077637
v -0.016408169642090797 0.11153207719326019 0.6740212440490723
v -0.016804838553071022 0.1114099994301796 0.6753367781639099
v -0.007800599560141563 0.10998907685279846 0.663799524307251
v -0.0033483747392892838 0.11049391329288483 0.6706472039222717
v -0.009186001494526863 0.11001543700695038 0.674609899520874
v -0.013603100553154945 0.1101612076163292 0.6765450835227966
v -0.017181435599923134 0.1096540093421936 0.6766268014907837
v -0.007609168067574501 0.10797446966171265 0.675105631351471
v -0.012974435463547707 0.10826615989208221 0.67774897813797
v -0.01641329564154148 0.10763287544250488 0.6777443885803223
v -0.006654826924204826 0.104787178337574 0.6751454472541809
v -0.012173118069767952 0.10568108409643173 0.6773714423179626
v -0.0002629440277814865 0.10449539124965668 0.6711210012435913
v -0.001479530707001686 0.10795210301876068 0.6713629364967346
v -0.01532215066254139 0.10619564354419708 0.677345335483551
v -0.01954837329685688 0.10975421965122223 0.6730896830558777
v -0.019354725256562233 0.10762587189674377 0.6751754879951477
v -0.018985779955983162 0.11015541106462479 0.671666145324707
v -0.014728950336575508 0.10359831899404526 0.6661159992218018
v -0.018558310344815254 0.10433179140090942 0.6692675948143005
v -0.013885466381907463 0.1012674868106842 0.6668444275856018
v -0.01812002994120121 0.10264039784669876 0.6706439256668091
v -0.02025526948273182 0.10645747184753418 0.6715354323387146
v -0.01933121122419834 0.10759612917900085 0.6704198718070984
v 0.0019612666219472885 0.10526099801063538 0.6691474318504333
v 0.0015698205679655075 0.1017676591873169 0.6671775579452515
v -0.0008778627961874008 0.10101376473903656 0.669084370136261
v -0.007195824757218361 0.10143199563026428 0.6735812425613403
v -0.003444613888859749 0.09870050847530365 0.6664530038833618
v -0.006410492584109306 0.09908977150917053 0.6640274524688721
v -0.012172365561127663 0.09997829049825668 0.6684407591819763
v -0.009938707575201988 0.09967996925115585 0.6708482503890991
v -0.017005810514092445 0.10180598497390747 0.6723749041557312
v -0.01467590220272541 0.10149197280406952 0.674299418926239
v -0.012676501646637917 0.1028156727552414 0.6762614250183105
v -0.018617304041981697 0.10447017103433609 0.6747121214866638
v -0.019889550283551216 0.10524015873670578 0.6734768748283386
v -0.018152469769120216 0.1061389222741127 0.676145613193512
v -0.01698634959757328 0.1037619560956955 0.6756497025489807
v -0.016191551461815834 0.10472817718982697 0.6766043901443481
v 0.034531086683273315 0.10608787089586258 0.6452416777610779
v 0.02395186387002468 0.09442602843046188 0.7264949679374695
v 0.02582848072052002 0.0943499356508255 0.7211685180664062
v 0.03417371213436127 0.08017025887966156 0.7198545336723328
v 0.031062409281730652 0.08578163385391235 0.7161688804626465
v 0.03403681516647339 0.07740801572799683 0.7263665199279785
v 0.0298673864454031 0.08122231066226959 0.735506534576416
v 0.033206745982170105 0.07875163853168488 0.7319930791854858
v 0.028390906751155853 0.0908195823431015 0.7170718908309937
v 0.024239344522356987 0.09228631108999252 0.7317530512809753
v 0.02664133533835411 0.08687996864318848 0.736185610294342
v 0.013933541253209114 0.0859508067369461 0.7295635938644409
v 0.017586981877684593 0.07966042309999466 0.7333674430847168
v 0.021947452798485756 0.07361336052417755 0.7316296100616455
v 0.027298329398036003 0.07324212789535522 0.7274208068847656
v 0.029791932553052902 0.07341921329498291 0.7232701182365417
v 0.017239965498447418 0.09036404639482498 0.7236520051956177
v 0.020071057602763176 0.09102373570203781 0.718680739402771
v 0.024726497009396553 0.08796653896570206 0.7151497602462769
v 0.012204686179757118 0.08645196259021759 0.7182453870773315
v 0.009398670867085457 0.07791551202535629 0.7146997451782227
v 0.01608588732779026 0.06190319359302521 0.7060304880142212
v 0.018876096233725548 0.06447555869817734 0.7113958597183228
v 0.016235370188951492 0.06530781090259552 0.7117294073104858
v 0.013801954686641693 0.06251725554466248 0.707068681716919
v 0.018154235556721687 0.06670711934566498 0.7165223956108093
v 0.016370821744203568 0.06760270148515701 0.7153550982475281
v 0.013115866109728813 0.07202719151973724 0.7163476347923279
v 0.011118767783045769 0.06916190683841705 0.7116341590881348
v 0.01061452366411686 0.0755591168999672 0.7138102054595947
v 0.009514065459370613 0.07477260380983353 0.7097163200378418
v 0.009229468181729317 0.06676121056079865 0.7069812417030334
v 0.01090211607515812 0.061945587396621704 0.7046408653259277
v 0.007973482832312584 0.06477972865104675 0.7031015157699585
v 0.012696309015154839 0.06155969947576523 0.7023661732673645
v 0.010403214022517204 0.07134419679641724 0.7190309166908264
v 0.023822641000151634 0.06801974773406982 0.7195379137992859
v 0.022347228601574898 0.06514108180999756 0.7112195491790771
v 0.019017614424228668 0.06308335810899734 0.7045389413833618
v 0.014736175537109375 0.06289821863174438 0.7004883289337158
v 0.02508360520005226 0.06756711006164551 0.7093534469604492
v 0.021367471665143967 0.06637485325336456 0.7033805251121521
v 0.017021048814058304 0.06684279441833496 0.6997295618057251
v 0.025588391348719597 0.07173468172550201 0.7072178721427917
v 0.021405452862381935 0.07007062435150146 0.7025138139724731
v 0.029812077060341835 0.07659526914358139 0.7160710096359253
v 0.028589317575097084 0.07151420414447784 0.718870997428894
v 0.01798112504184246 0.06926877796649933 0.700299859046936
v 0.007914410904049873 0.06453043222427368 0.7006709575653076
v 0.010096391662955284 0.06621712446212769 0.6987270712852478
v 0.00923904962837696 0.07792738080024719 0.7091319561004639
v 0.007091766223311424 0.07239320874214172 0.705731213092804
v 0.0076764244586229324 0.07460977882146835 0.7042785882949829
v 0.010962294414639473 0.08131980895996094 0.7084741592407227
v 0.00906008668243885 0.07662388682365417 0.7028236389160156
v 0.006616143509745598 0.0702049508690834 0.7012812495231628
v 0.006603335961699486 0.0689636766910553 0.7035184502601624
v 0.031301695853471756 0.07715946435928345 0.7183222770690918
v 0.029219238087534904 0.08294177055358887 0.7153816819190979
v 0.027247760444879532 0.08268449455499649 0.7140321731567383
v 0.023365948349237442 0.07768069207668304 0.7061699032783508
v 0.02219592221081257 0.08712641894817352 0.7129855155944824
v 0.0162473414093256 0.0883246585726738 0.7154555320739746
v 0.013936636969447136 0.08288666605949402 0.7068020105361938
v 0.018742123618721962 0.08194656670093536 0.7060604691505432
v 0.012259619310498238 0.0774540975689888 0.7017184495925903
v 0.015202483162283897 0.07690317928791046 0.7016094923019409
v 0.019203854724764824 0.07381860911846161 0.7013639807701111
v 0.011503776535391808 0.07299633324146271 0.699263870716095
v 0.008461447432637215 0.07204554975032806 0.6997259855270386
v 0.013306152075529099 0.06915584951639175 0.6984940767288208
v 0.013987312093377113 0.07380116730928421 0.7000159025192261
v 0.015736769884824753 0.07128113508224487 0.6996396780014038
v 0.04280287027359009 0.10119953751564026 0.6522701382637024
v 0.0397060364484787 0.10059192031621933 0.6578294038772583
v 0.046320997178554535 0.10043066740036011 0.6577100157737732
v 0.055480994284152985 0.09958382695913315 0.6594406366348267
v 0.06554332375526428 0.10130900144577026 0.6561790108680725
v 0.05345175415277481 0.10049135982990265 0.6659138798713684
v 0.04399470239877701 0.1013023853302002 0.6636285781860352
v 0.03398818522691727 0.10234799981117249 0.6632615923881531
v 0.05962254852056503 0.10215456038713455 0.6739321947097778
f 2 3 1
f 1 3 4
f 5 6 8
f 8 6 7
f 9 4 10
f 10 4 3
f 12 13 11
f 11 13 9
f 14 12 16
f 16 12 15
f 18 19 17
f 17 19 20
f 22 23 21
f 21 23 24
f 26 27 25
f 25 27 28
f 30 31 29
f 29 31 32
f 33 34 36
f 36 34 35
f 37 38 40
f 40 38 39
f 41 42 6
f 6 42 43
f 6 43 7
f 7 43 44
f 45 34 46
f 46 34 33
f 48 49 47
f 47 49 50
f 52 53 51
f 51 53 54
f 56 52 55
f 55 52 51
f 58 59 57
f 57 59 60
f 61 62 4
f 4 62 1
f 64 65 63
f 63 65 66
f 68 69 67
f 67 69 70
f 72 73 71
f 71 73 74
f 76 77 75
f 75 77 78
f 53 79 54
f 54 79 80
f 82 83 81
f 81 83 84
f 85 86 52
f 52 86 53
f 57 60 87
f 87 60 88
f 89 90 43
f 43 90 44
f 43 42 89
f 89 42 91
f 40 39 92
f 92 39 93
f 94 70 64
f 64 70 69
f 13 61 9
f 9 61 4
f 25 28 69
f 69 28 95
f 96 25 68
f 68 25 69
f 98 99 97
f 97 99 100
f 101 102 104
f 104 102 103
f 106 30 105
f 105 30 29
f 51 54 107
f 107 54 108
f 54 80 108
f 108 80 109
f 111 112 110
f 110 112 113
f 115 5 114
f 114 5 116
f 115 41 5
f 5 41 6
f 36 35 111
f 111 35 117
f 35 118 117
f 117 118 119
f 34 120 35
f 35 120 118
f 34 45 120
f 120 45 121
f 125 126 124
f 124 126 127
f 128 129 14
f 14 129 130
f 33 131 46
f 46 131 132
f 133 94 63
f 63 94 64
f 134 135 137
f 137 135 136
f 139 140 138
f 138 140 141
f 77 142 78
f 78 142 143
f 144 145 20
f 20 145 146
f 148 149 147
f 147 149 72
f 151 152 150
f 150 152 153
f 82 101 83
f 83 101 104
f 101 82 155
f 155 82 154
f 156 157 58
f 58 157 59
f 158 68 147
f 147 68 67
f 159 146 15
f 15 146 16
f 68 158 96
f 96 158 160
f 129 66 130
f 130 66 65
f 162 163 161
f 161 163 164
f 166 167 165
f 165 167 168
f 170 171 169
f 169 171 172
f 174 171 173
f 173 171 170
f 176 177 175
f 175 177 178
f 180 181 179
f 179 181 24
f 182 183 21
f 21 183 184
f 81 185 82
f 82 185 154
f 186 187 188
f 188 187 144
f 158 71 160
f 160 71 189
f 190 135 157
f 157 135 59
f 169 172 139
f 139 172 140
f 147 72 158
f 158 72 71
f 192 193 191
f 191 193 194
f 167 166 49
f 49 166 195
f 196 190 50
f 50 190 157
f 197 198 200
f 200 198 199
f 21 24 182
f 182 24 181
f 146 159 20
f 20 159 17
f 182 181 81
f 81 181 185
f 201 185 180
f 180 185 181
f 202 203 83
f 83 203 84
f 205 206 204
f 204 206 85
f 207 22 184
f 184 22 21
f 179 24 208
f 208 24 23
f 208 209 179
f 179 209 205
f 209 210 205
f 205 210 206
f 212 206 211
f 211 206 210
f 179 205 180
f 180 205 204
f 213 176 88
f 88 176 214
f 86 85 212
f 212 85 206
f 193 217 218
f 217 219 218
f 218 219 220
f 219 18 220
f 220 18 17
f 19 221 20
f 20 221 144
f 222 223 225
f 225 223 224
f 175 226 176
f 176 226 214
f 227 87 214
f 214 87 88
f 220 17 228
f 228 17 159
f 134 213 60
f 60 213 88
f 138 229 151
f 151 229 152
f 193 192 210
f 210 192 211
f 230 194 218
f 218 194 193
f 231 232 228
f 228 232 230
f 233 234 91
f 91 234 89
f 235 236 93
f 93 236 92
f 230 232 234
f 234 232 237
f 47 238 48
f 48 238 239
f 240 191 235
f 235 191 236
f 5 8 116
f 116 8 241
f 242 243 189
f 189 243 160
f 244 245 98
f 98 245 99
f 156 246 47
f 47 246 238
f 76 247 77
f 77 247 248
f 250 125 249
f 249 125 124
f 252 253 251
f 251 253 254
f 111 110 36
f 36 110 255
f 256 33 255
f 255 33 36
f 257 258 154
f 154 258 155
f 63 169 133
f 133 169 139
f 66 170 63
f 63 170 169
f 173 170 129
f 129 170 66
f 129 128 173
f 173 128 259
f 128 260 259
f 259 260 261
f 213 134 262
f 262 134 137
f 263 264 186
f 186 264 187
f 112 265 113
f 113 265 266
f 11 267 268
f 234 233 230
f 230 233 194
f 153 269 70
f 70 269 67
f 175 178 165
f 165 178 141
f 150 153 94
f 94 153 70
f 271 221 270
f 270 221 207
f 269 153 272
f 272 153 152
f 121 45 109
f 109 45 108
f 47 50 156
f 156 50 157
f 57 273 58
f 58 273 274
f 145 275 260
f 260 275 261
f 276 149 143
f 143 149 78
f 148 269 75
f 75 269 272
f 207 277 270
f 270 277 278
f 195 196 49
f 49 196 50
f 59 135 60
f 60 135 134
f 83 104 202
f 202 104 279
f 149 148 78
f 78 148 75
f 247 278 248
f 248 278 277
f 183 182 84
f 84 182 81
f 48 239 281
f 281 239 282
f 227 223 283
f 283 223 222
f 223 226 224
f 224 226 168
f 281 282 224
f 224 282 225
f 165 168 175
f 175 168 226
f 264 263 138
f 138 263 229
f 14 16 128
f 128 16 260
f 220 228 218
f 218 228 230
f 87 227 284
f 284 227 283
f 260 16 145
f 145 16 146
f 244 98 258
f 258 98 155
f 58 274 156
f 156 274 246
f 107 285 51
f 51 285 55
f 243 286 160
f 160 286 96
f 234 237 89
f 89 237 90
f 46 132 107
f 107 132 285
f 253 252 249
f 249 252 250
f 286 26 96
f 96 26 25
f 106 105 287
f 287 105 288
f 272 152 289
f 289 152 229
f 138 151 139
f 139 151 133
f 183 290 161
f 161 290 162
f 291 292 277
f 277 292 293
f 151 150 133
f 133 150 94
f 262 275 177
f 177 275 187
f 144 187 145
f 145 187 275
f 273 57 284
f 284 57 87
f 174 136 190
f 190 136 135
f 111 117 112
f 112 117 38
f 117 119 38
f 38 119 123
f 112 38 265
f 265 38 37
f 287 288 254
f 254 288 251
f 228 159 231
f 231 159 15
f 223 227 226
f 226 227 214
f 147 67 148
f 148 67 269
f 224 168 281
f 281 168 167
f 199 163 200
f 200 163 162
f 45 46 108
f 108 46 107
f 281 167 48
f 48 167 49
f 161 164 291
f 291 164 292
f 38 123 39
f 293 294 277
f 277 294 248
f 284 283 296
f 296 283 295
f 284 296 273
f 273 296 297
f 274 273 298
f 298 273 297
f 246 274 299
f 299 274 298
f 283 222 295
f 295 222 300
f 222 225 300
f 300 225 301
f 301 225 302
f 302 225 282
f 303 304 300
f 300 304 295
f 306 307 305
f 305 307 308
f 309 310 308
f 308 310 305
f 308 307 312
f 312 307 311
f 313 314 312
f 312 314 315
f 311 316 312
f 312 316 313
f 317 304 311
f 311 304 316
f 315 309 312
f 312 309 308
f 318 319 321
f 321 319 320
f 319 318 309
f 309 318 310
f 311 307 317
f 317 307 306
f 306 297 317
f 317 297 296
f 306 322 297
f 297 322 298
f 305 323 306
f 306 323 322
f 323 305 324
f 324 305 310
f 304 317 295
f 295 317 296
f 318 325 310
f 310 325 324
f 323 324 326
f 326 324 327
f 324 325 327
f 327 325 328
f 326 327 329
f 329 327 330
f 329 331 326
f 326 331 332
f 333 330 328
f 328 330 327
f 323 326 322
f 322 326 332
f 322 332 298
f 298 332 299
f 325 318 334
f 334 318 321
f 313 316 335
f 335 316 304
f 335 336 313
f 313 336 314
f 304 303 335
f 335 303 337
f 336 335 338
f 338 335 337
f 336 339 314
f 314 339 340
f 246 299 238
f 238 299 341
f 239 342 282
f 282 342 302
f 342 239 341
f 341 239 238
f 341 331 342
f 342 331 343
f 331 329 343
f 343 329 344
f 342 343 302
f 302 343 345
f 341 299 331
f 331 299 332
f 346 301 345
f 345 301 302
f 346 303 301
f 301 303 300
f 347 337 346
f 346 337 303
f 347 346 348
f 348 346 345
f 349 347 350
f 350 347 348
f 343 344 345
f 345 344 348
f 344 351 348
f 348 351 350
f 337 347 338
f 338 347 349
f 353 338 352
f 352 338 349
f 352 355 354
f 354 355 356
f 352 349 355
f 355 349 350
f 352 354 353
f 353 354 334
f 353 334 339
f 339 334 321
f 339 336 353
f 353 336 338
f 329 330 344
f 344 330 351
f 356 351 333
f 333 351 330
f 356 355 351
f 351 355 350
f 354 356 328
f 328 356 333
f 328 325 354
f 354 325 334
f 309 315 319
f 319 315 320
f 320 340 321
f 321 340 339
f 320 315 340
f 340 315 314
f 137 136 261
f 261 136 259
f 140 166 141
f 141 166 165
f 172 171 195
f 195 171 196
f 171 174 196
f 196 174 190
f 178 177 264
f 264 177 187
f 172 195 140
f 140 195 166
f 137 261 262
f 262 261 275
f 178 264 141
f 141 264 138
f 262 177 213
f 213 177 176
f 136 174 259
f 259 174 173
f 358 359 357
f 357 359 360
f 362 363 361
f 361 363 364
f 361 364 365
f 365 364 366
f 367 368 370
f 370 368 369
f 76 371 247
f 247 371 372
f 373 374 362
f 362 374 363
f 376 377 375
f 375 377 378
f 289 229 380
f 380 229 379
f 381 379 263
f 263 379 229
f 383 384 382
f 382 384 385
f 386 368 374
f 374 368 363
f 76 289 371
f 371 289 380
f 377 376 359
f 359 376 387
f 388 386 360
f 360 386 374
f 389 383 366
f 366 383 390
f 392 393 391
f 391 393 394
f 383 382 390
f 390 382 395
f 396 365 390
f 390 365 366
f 389 366 367
f 367 366 364
f 357 397 358
f 358 397 398
f 373 399 357
f 357 399 397
f 389 367 400
f 400 367 370
f 382 385 375
f 375 385 372
f 357 360 373
f 373 360 374
f 361 401 362
f 362 401 402
f 387 388 359
f 359 388 360
f 363 368 364
f 364 368 367
f 358 398 403
f 403 398 404
f 396 392 405
f 405 392 391
f 392 395 393
f 393 395 378
f 393 403 394
f 394 403 404
f 375 378 382
f 382 378 395
f 365 396 406
f 406 396 405
f 362 402 373
f 373 402 399
f 271 270 400
f 400 270 384
f 401 361 406
f 406 361 365
f 381 369 386
f 386 369 368
f 392 396 395
f 395 396 390
f 393 378 403
f 403 378 377
f 403 377 358
f 358 377 359
f 406 405 408
f 408 405 407
f 406 408 401
f 401 408 409
f 401 409 402
f 402 409 410
f 402 410 399
f 399 410 411
f 405 391 407
f 407 391 412
f 391 394 412
f 412 394 413
f 394 404 413
f 413 404 414
f 415 416 412
f 412 416 407
f 418 419 417
f 417 419 420
f 421 422 418
f 418 422 419
f 419 422 424
f 424 422 423
f 425 426 424
f 424 426 427
f 423 428 424
f 424 428 425
f 427 420 424
f 424 420 419
f 420 429 417
f 417 429 430
f 423 422 431
f 431 422 421
f 421 409 431
f 431 409 408
f 421 432 409
f 409 432 410
f 418 433 421
f 421 433 432
f 434 433 417
f 417 433 418
f 431 416 423
f 423 416 428
f 416 431 407
f 407 431 408
f 435 434 430
f 430 434 417
f 433 434 436
f 436 434 437
f 434 435 437
f 437 435 438
f 436 437 439
f 439 437 440
f 439 441 436
f 436 441 442
f 438 443 437
f 437 443 440
f 436 442 433
f 433 442 432
f 432 442 410
f 410 442 411
f 435 430 445
f 445 430 444
f 430 429 444
f 444 429 446
f 425 428 447
f 447 428 416
f 426 425 448
f 448 425 447
f 416 415 447
f 447 415 449
f 447 449 448
f 448 449 450
f 451 452 448
f 448 452 426
f 446 452 444
f 444 452 451
f 399 411 397
f 397 411 453
f 398 454 404
f 404 454 414
f 454 398 453
f 453 398 397
f 453 441 454
f 454 441 455
f 441 439 455
f 455 439 456
f 454 455 414
f 414 455 457
f 441 453 442
f 442 453 411
f 458 413 457
f 457 413 414
f 458 415 413
f 413 415 412
f 458 459 415
f 415 459 449
f 459 458 460
f 460 458 457
f 461 459 462
f 462 459 460
f 455 456 457
f 457 456 460
f 456 463 460
f 460 463 462
f 459 461 449
f 449 461 450
f 465 450 464
f 464 450 461
f 464 467 466
f 466 467 468
f 464 461 467
f 467 461 462
f 464 466 465
f 465 466 445
f 465 445 451
f 451 445 444
f 451 448 465
f 465 448 450
f 439 440 456
f 456 440 463
f 468 463 443
f 443 463 440
f 468 467 463
f 463 467 462
f 466 468 438
f 438 468 443
f 438 435 466
f 466 435 445
f 420 427 429
f 429 427 446
f 446 427 452
f 452 427 426
f 370 369 188
f 188 369 186
f 371 376 372
f 372 376 375
f 380 379 387
f 387 379 388
f 379 381 388
f 388 381 386
f 385 384 278
f 278 384 270
f 380 387 371
f 371 387 376
f 400 370 271
f 271 370 188
f 385 278 372
f 372 278 247
f 400 384 389
f 389 384 383
f 369 381 186
f 186 381 263
f 221 271 144
f 144 271 188
f 221 19 207
f 207 19 22
f 19 18 22
f 22 18 23
f 18 219 23
f 23 219 208
f 469 470 472
f 472 470 471
f 474 475 473
f 473 475 476
f 473 476 477
f 477 476 478
f 480 481 479
f 479 481 482
f 483 484 474
f 474 484 475
f 486 487 485
f 485 487 488
f 489 490 77
f 77 490 142
f 491 489 248
f 248 489 77
f 493 494 492
f 492 494 495
f 496 480 484
f 484 480 475
f 486 497 487
f 487 497 471
f 498 496 472
f 472 496 484
f 499 493 478
f 478 493 500
f 501 502 504
f 504 502 503
f 493 492 500
f 500 492 505
f 506 477 500
f 500 477 478
f 499 478 479
f 479 478 476
f 469 507 470
f 470 507 508
f 483 509 469
f 469 509 507
f 479 482 499
f 499 482 510
f 492 495 485
f 485 495 511
f 483 469 484
f 484 469 472
f 473 512 474
f 474 512 513
f 497 498 471
f 471 498 472
f 475 480 476
f 476 480 479
f 470 508 514
f 514 508 515
f 506 502 516
f 516 502 501
f 503 502 488
f 488 502 505
f 514 515 503
f 503 515 504
f 485 488 492
f 492 488 505
f 477 506 517
f 517 506 516
f 474 513 483
f 483 513 509
f 510 292 494
f 494 292 164
f 512 473 517
f 517 473 477
f 491 481 496
f 496 481 480
f 502 506 505
f 505 506 500
f 503 488 514
f 514 488 487
f 514 487 470
f 470 487 471
f 517 516 519
f 519 516 518
f 517 519 512
f 512 519 520
f 512 520 513
f 513 520 521
f 513 521 509
f 509 521 522
f 516 501 518
f 518 501 523
f 501 504 523
f 523 504 524
f 524 504 525
f 525 504 515
f 526 527 523
f 523 527 518
f 529 530 528
f 528 530 531
f 532 533 529
f 529 533 530
f 530 533 535
f 535 533 534
f 536 537 535
f 535 537 538
f 534 539 535
f 535 539 536
f 538 531 535
f 535 531 530
f 540 541 531
f 531 541 528
f 533 532 534
f 534 532 542
f 532 520 542
f 542 520 519
f 532 543 520
f 520 543 521
f 529 544 532
f 532 544 543
f 544 529 545
f 545 529 528
f 534 542 539
f 539 542 527
f 527 542 518
f 518 542 519
f 541 546 528
f 528 546 545
f 547 544 548
f 548 544 545
f 546 549 545
f 545 549 548
f 550 547 551
f 551 547 548
f 547 550 553
f 553 550 552
f 549 554 548
f 548 554 551
f 544 547 543
f 543 547 553
f 543 553 521
f 521 553 522
f 546 541 556
f 556 541 555
f 541 540 555
f 555 540 557
f 536 539 558
f 558 539 527
f 537 536 559
f 559 536 558
f 527 526 558
f 558 526 560
f 559 558 561
f 561 558 560
f 559 562 537
f 537 562 563
f 557 563 555
f 555 563 562
f 509 522 507
f 507 522 564
f 508 565 515
f 515 565 525
f 565 508 564
f 564 508 507
f 564 552 565
f 565 552 566
f 552 550 566
f 566 550 567
f 565 566 525
f 525 566 568
f 564 522 552
f 552 522 553
f 569 524 568
f 568 524 525
f 569 526 524
f 524 526 523
f 570 560 569
f 569 560 526
f 570 569 571
f 571 569 568
f 572 570 573
f 573 570 571
f 566 567 568
f 568 567 571
f 567 574 571
f 571 574 573
f 570 572 560
f 560 572 561
f 576 561 575
f 575 561 572
f 575 578 577
f 577 578 579
f 575 572 578
f 578 572 573
f 575 577 576
f 576 577 556
f 576 556 562
f 562 556 555
f 562 559 576
f 576 559 561
f 550 551 567
f 567 551 574
f 579 574 554
f 554 574 551
f 579 578 574
f 574 578 573
f 579 554 577
f 577 554 549
f 549 546 577
f 577 546 556
f 531 538 540
f 540 538 557
f 557 538 563
f 563 538 537
f 481 294 482
f 482 294 293
f 580 486 511
f 511 486 485
f 490 489 497
f 497 489 498
f 489 491 498
f 498 491 496
f 163 495 164
f 164 495 494
f 580 490 486
f 486 490 497
f 482 293 510
f 510 293 292
f 495 163 511
f 511 163 199
f 494 493 510
f 510 493 499
f 481 491 294
f 294 491 248
f 582 583 581
f 581 583 584
f 586 587 585
f 585 587 588
f 585 588 589
f 589 588 590
f 592 593 591
f 591 593 594
f 595 596 598
f 598 596 597
f 599 600 586
f 586 600 587
f 601 602 604
f 604 602 603
f 605 606 608
f 608 606 607
f 609 607 200
f 200 607 606
f 610 611 613
f 613 611 612
f 600 614 587
f 587 614 592
f 596 605 597
f 597 605 608
f 602 615 603
f 603 615 583
f 616 614 584
f 584 614 600
f 611 618 617
f 617 618 590
f 620 621 619
f 619 621 622
f 610 623 611
f 611 623 618
f 624 589 618
f 618 589 590
f 617 590 591
f 591 590 588
f 581 625 582
f 582 625 626
f 599 627 581
f 581 627 625
f 591 594 617
f 617 594 628
f 601 610 598
f 598 610 613
f 581 584 599
f 599 584 600
f 585 629 586
f 586 629 630
f 615 616 583
f 583 616 584
f 587 592 588
f 588 592 591
f 582 626 631
f 631 626 632
f 624 620 633
f 633 620 619
f 621 620 604
f 604 620 623
f 631 632 621
f 621 632 622
f 610 601 623
f 623 601 604
f 589 624 634
f 634 624 633
f 586 630 599
f 599 630 627
f 203 202 628
f 628 202 612
f 629 585 634
f 634 585 589
f 609 593 614
f 614 593 592
f 620 624 623
f 623 624 618
f 631 621 603
f 603 621 604
f 582 631 583
f 583 631 603
f 634 633 636
f 636 633 635
f 634 636 629
f 629 636 637
f 629 637 630
f 630 637 638
f 630 638 627
f 627 638 639
f 633 619 635
f 635 619 640
f 619 622 640
f 640 622 641
f 641 622 642
f 642 622 632
f 644 635 643
f 643 635 640
f 645 646 648
f 648 646 647
f 649 650 646
f 646 650 647
f 647 650 652
f 652 650 651
f 652 653 655
f 655 653 654
f 651 656 652
f 652 656 653
f 655 648 652
f 652 648 647
f 648 657 645
f 645 657 658
f 650 649 651
f 651 649 659
f 649 637 659
f 659 637 636
f 649 660 637
f 637 660 638
f 661 660 646
f 646 660 649
f 662 661 645
f 645 661 646
f 651 659 656
f 656 659 644
f 644 659 635
f 635 659 636
f 663 662 658
f 658 662 645
f 664 661 665
f 665 661 662
f 663 666 662
f 662 666 665
f 667 664 668
f 668 664 665
f 664 667 670
f 670 667 669
f 666 671 665
f 665 671 668
f 661 664 660
f 660 664 670
f 660 670 638
f 638 670 639
f 658 672 663
f 663 672 673
f 658 657 672
f 672 657 674
f 653 656 675
f 675 656 644
f 653 675 654
f 654 675 676
f 675 644 677
f 677 644 643
f 676 675 678
f 678 675 677
f 679 680 676
f 676 680 654
f 674 680 672
f 672 680 679
f 627 639 625
f 625 639 681
f 626 682 632
f 632 682 642
f 681 682 625
f 625 682 626
f 669 683 681
f 681 683 682
f 667 684 669
f 669 684 683
f 682 683 642
f 642 683 685
f 681 639 669
f 669 639 670
f 686 641 685
f 685 641 642
f 641 686 640
f 640 686 643
f 686 687 643
f 643 687 677
f 687 686 688
f 688 686 685
f 689 687 690
f 690 687 688
f 683 684 685
f 685 684 688
f 684 691 688
f 688 691 690
f 687 689 677
f 677 689 678
f 693 678 692
f 692 678 689
f 692 695 694
f 694 695 696
f 692 689 695
f 695 689 690
f 692 694 693
f 693 694 673
f 693 673 679
f 679 673 672
f 679 676 693
f 693 676 678
f 684 667 691
f 691 667 668
f 696 691 671
f 671 691 668
f 696 695 691
f 691 695 690
f 694 696 666
f 666 696 671
f 666 663 694
f 694 663 673
f 648 655 657
f 657 655 674
f 674 655 680
f 680 655 654
f 593 162 594
f 594 162 290
f 598 597 601
f 601 597 602
f 615 608 616
f 616 608 607
f 607 609 616
f 616 609 614
f 697 595 613
f 613 595 598
f 597 608 602
f 602 608 615
f 594 290 628
f 628 290 203
f 628 612 617
f 617 612 611
f 593 609 162
f 162 609 200
f 105 29 698
f 698 29 699
f 268 126 701
f 701 126 700
f 126 125 700
f 700 125 702
f 252 703 250
f 250 703 704
f 32 268 705
f 705 268 701
f 288 105 706
f 706 105 698
f 29 32 699
f 699 32 705
f 707 251 706
f 706 251 288
f 250 704 125
f 125 704 702
f 703 252 707
f 707 252 251
f 706 708 707
f 707 708 709
f 707 709 703
f 703 709 710
f 703 710 704
f 704 710 711
f 704 711 702
f 702 711 712
f 706 698 708
f 708 698 713
f 698 699 713
f 713 699 714
f 699 705 714
f 714 705 715
f 717 708 716
f 716 708 713
f 719 720 718
f 718 720 721
f 722 723 719
f 719 723 720
f 724 725 723
f 723 725 720
f 724 726 725
f 725 726 727
f 728 721 725
f 725 721 720
f 721 728 729
f 729 728 730
f 729 731 721
f 721 731 718
f 724 723 732
f 732 723 722
f 722 710 732
f 732 710 709
f 722 733 710
f 710 733 711
f 719 734 722
f 722 734 733
f 734 719 735
f 735 719 718
f 724 732 726
f 726 732 717
f 717 732 708
f 708 732 709
f 731 736 718
f 718 736 735
f 737 734 738
f 738 734 735
f 736 739 735
f 735 739 738
f 740 737 741
f 741 737 738
f 737 740 743
f 743 740 742
f 739 744 738
f 738 744 741
f 734 737 733
f 733 737 743
f 733 743 711
f 711 743 712
f 736 731 746
f 746 731 745
f 731 729 745
f 745 729 730
f 727 726 747
f 747 726 717
f 748 727 749
f 749 727 747
f 747 717 750
f 750 717 716
f 749 747 751
f 751 747 750
f 749 752 748
f 748 752 753
f 730 753 745
f 745 753 752
f 728 725 748
f 748 725 727
f 730 728 753
f 753 728 748
f 700 702 754
f 754 702 712
f 705 701 715
f 715 701 755
f 754 755 700
f 700 755 701
f 742 756 754
f 754 756 755
f 740 757 742
f 742 757 756
f 755 756 715
f 715 756 758
f 754 712 742
f 742 712 743
f 759 714 758
f 758 714 715
f 714 759 713
f 713 759 716
f 759 760 716
f 716 760 750
f 760 759 761
f 761 759 758
f 762 760 763
f 763 760 761
f 756 757 758
f 758 757 761
f 757 764 761
f 761 764 763
f 760 762 750
f 750 762 751
f 766 751 765
f 765 751 762
f 767 765 769
f 769 765 768
f 765 762 768
f 768 762 763
f 765 767 766
f 766 767 746
f 766 746 752
f 752 746 745
f 752 749 766
f 766 749 751
f 757 740 764
f 764 740 741
f 769 764 744
f 744 764 741
f 769 768 764
f 764 768 763
f 767 769 739
f 739 769 744
f 739 736 767
f 767 736 746
f 219 217 208
f 208 217 209
f 209 217 210
f 210 217 193
f 198 580 199
f 199 580 511
f 76 75 289
f 289 75 272
f 277 207 291
f 291 207 184
f 290 183 203
f 203 183 84
f 490 580 142
f 142 580 198
f 142 198 143
f 143 198 197
f 149 276 72
f 72 276 73
f 104 103 279
f 279 103 770
f 770 596 279
f 279 596 595
f 605 596 771
f 771 596 770
f 771 770 772
f 772 770 103
f 772 103 773
f 773 103 102
f 155 774 101
f 101 774 102
f 773 102 97
f 97 102 774
f 775 773 100
f 100 773 97
f 773 775 772
f 772 775 776
f 772 776 771
f 771 776 777
f 200 606 197
f 197 606 777
f 189 71 778
f 778 71 74
f 97 774 98
f 98 774 155
f 183 161 184
f 184 161 291
f 777 276 197
f 197 276 143
f 777 606 771
f 771 606 605
f 613 612 697
f 697 612 202
f 595 697 279
f 279 697 202
f 73 276 776
f 776 276 777
f 776 775 73
f 73 775 74
f 100 778 775
f 775 778 74
f 778 100 189
f 189 100 99
f 245 242 99
f 99 242 189
f 131 33 256
f 28 1 95
f 95 1 62
f 27 2 28
f 28 2 1
f 265 115 266
f 266 115 114
f 95 62 69
f 69 62 64
f 62 61 64
f 64 61 65
f 61 13 65
f 65 13 130
f 13 12 130
f 130 12 14
f 31 11 32
f 32 11 268
f 15 12 31
f 31 12 11
f 31 30 15
f 15 30 231
f 30 106 231
f 231 106 232
f 287 237 106
f 106 237 232
f 254 90 287
f 287 90 237
f 253 44 254
f 254 44 90
f 253 249 44
f 44 249 7
f 267 127 268
f 268 127 126
f 10 3 241
f 241 3 116
f 3 2 116
f 116 2 114
f 2 27 114
f 114 27 266
f 27 26 266
f 266 26 113
f 26 286 113
f 113 286 110
f 286 243 110
f 110 243 255
f 243 242 255
f 255 242 256
f 242 245 256
f 256 245 131
f 245 244 131
f 131 244 132
f 265 37 115
f 115 37 41
f 41 37 42
f 42 37 40
f 92 91 40
f 40 91 42
f 236 233 92
f 92 233 91
f 191 194 236
f 236 194 233
f 258 285 244
f 244 285 132
f 257 55 258
f 258 55 285
f 257 154 201
f 201 154 185
f 56 201 204
f 204 201 180
f 55 257 56
f 56 257 201
f 204 85 56
f 56 85 52
f 86 122 53
f 53 122 79
f 212 215 86
f 86 215 122
f 211 216 212
f 212 216 215
f 192 280 211
f 211 280 216
f 191 240 192
f 192 240 280
f 249 124 7
f 7 124 8
f 124 127 8
f 8 127 241
f 127 267 241
f 241 267 10
f 10 267 9
f 9 267 11
