v -0.003813263028860092 0.014220209792256355 1.6594194173812866
v 0.008682217448949814 0.0101106446236372 1.6588689088821411
v 0.0016273148357868195 0.005592400208115578 1.6643345355987549
v -0.00911514088511467 0.010263608768582344 1.665179967880249
v 0.018641214817762375 0.0019788965582847595 1.6768733263015747
v 0.022363249212503433 0.007295079529285431 1.68679678440094
v 0.005670536309480667 0.0047843847423791885 1.6879802942276
v 0.0060645900666713715 -1.3638287782669067e-05 1.6787089109420776
v -0.014267493039369583 0.010080838575959206 1.6689729690551758
v -0.005235329270362854 0.003743542358279228 1.6678465604782104
v -0.016077201813459396 0.01536861527711153 1.6694610118865967
v -0.024008560925722122 0.024436362087726593 1.6743677854537964
v -0.02298644185066223 0.017752790823578835 1.6725691556930542
v -0.03141214698553085 0.028492668643593788 1.6756230592727661
v -0.018208462744951248 0.034195687621831894 1.675140380859375
v -0.029864957556128502 0.03724416345357895 1.6723700761795044
v -0.009635534137487411 0.0483996644616127 1.65656578540802
v -0.006047196686267853 0.04924387112259865 1.6443719863891602
v -0.021618464961647987 0.047117602080106735 1.6430779695510864
v -0.02389362081885338 0.0459551066160202 1.6558088064193726
v -0.010992106050252914 0.04366341605782509 1.6261193752288818
v -0.017883356660604477 0.045718610286712646 1.6352252960205078
v -0.0021589919924736023 0.04893805831670761 1.636501431465149
v 0.00312916561961174 0.046747855842113495 1.6281238794326782
v 0.0035568177700042725 0.018876485526561737 1.6478639841079712
v 0.015053268522024155 0.0170748271048069 1.6469295024871826
v 0.01352636143565178 0.01535012200474739 1.6512961387634277
v 0.0018840320408344269 0.017752330750226974 1.6523118019104004
v -0.018396545201539993 0.01766091026365757 1.6745365858078003
v -0.011251036077737808 0.026433009654283524 1.6792776584625244
v -0.01540440320968628 0.02298624813556671 1.6739985942840576
v -0.01796213909983635 0.013559762388467789 1.6708921194076538
v 0.04042961820960045 0.010785231366753578 1.638871669769287
v 0.05226090922951698 0.016599077731370926 1.6411316394805908
v 0.0516214482486248 0.017099134624004364 1.647049069404602
v 0.04106368497014046 0.012003892101347446 1.6437658071517944
v 0.04345465078949928 0.01341568399220705 1.6721948385238647
v 0.05077062174677849 0.019524913281202316 1.6663262844085693
v 0.05462082102894783 0.028639519587159157 1.67523193359375
v 0.04547272250056267 0.026225611567497253 1.6799631118774414
v 0.033588092774152756 0.008827883750200272 1.6810451745986938
v 0.03557620570063591 0.02000052109360695 1.6869149208068848
v 0.02115640416741371 0.01759761944413185 1.6923640966415405
v 0.0029235072433948517 0.012479467317461967 1.6929124593734741
v 0.053713683038949966 0.01849355362355709 1.628572702407837
v 0.04538914933800697 0.01401380356401205 1.625136375427246
v -0.0818590447306633 0.03757970407605171 1.6517643928527832
v -0.07765603065490723 0.0386434942483902 1.6476919651031494
v -0.07435290515422821 0.032853566110134125 1.6510355472564697
v -0.0783107578754425 0.033010341227054596 1.654980182647705
v 0.0470602847635746 0.03265316039323807 1.6161115169525146
v 0.04563111439347267 0.04260630160570145 1.6169320344924927
v 0.05277496948838234 0.041497375816106796 1.616701602935791
v 0.054317694157361984 0.032307468354701996 1.617796540260315
v 0.03740135207772255 0.03290537744760513 1.6140658855438232
v 0.03563511744141579 0.0434439443051815 1.617804765701294
v -0.08047248423099518 0.0460275337100029 1.6605420112609863
v -0.08349637687206268 0.042346563190221786 1.658713698387146
v -0.07948122918605804 0.03949802741408348 1.6626694202423096
v -0.0755859985947609 0.04361038655042648 1.6643025875091553
v -0.019474640488624573 0.014793886803090572 1.6683166027069092
v -0.014520984143018723 0.015414165332913399 1.6611344814300537
v -0.040902987122535706 0.017950518056750298 1.6666556596755981
v -0.02901151403784752 0.017456669360399246 1.6641974449157715
v -0.029396407306194305 0.017825033515691757 1.6708961725234985
v -0.03934482857584953 0.019531134516000748 1.6726030111312866
v -0.01905682310461998 0.019644558429718018 1.6429321765899658
v -0.007309280335903168 0.019979363307356834 1.6442065238952637
v -0.010226469486951828 0.019766058772802353 1.649862289428711
v -0.023461952805519104 0.018775803968310356 1.6502912044525146
v -0.0030518025159835815 0.017125291749835014 1.6310840845108032
v -0.015034373849630356 0.017344988882541656 1.6308717727661133
v -0.011434473097324371 0.015505589544773102 1.62344491481781
v -0.0033866986632347107 0.014885492622852325 1.624941110610962
v -0.037776023149490356 0.019300291314721107 1.6331076622009277
v -0.04592186212539673 0.023556914180517197 1.6323659420013428
v -0.04589053988456726 0.025374257937073708 1.627739667892456
v -0.03659838065505028 0.020106028765439987 1.6292670965194702
v 0.05979566648602486 0.04150262102484703 1.6169397830963135
v 0.06105203554034233 0.03237893804907799 1.6203166246414185
v -0.0015242993831634521 0.03639039769768715 1.6088812351226807
v 0.004303049296140671 0.02862701378762722 1.6038650274276733
v -0.006393663585186005 0.02629494108259678 1.6002265214920044
v -0.009398885071277618 0.03472664952278137 1.606622576713562
v 0.04249916598200798 0.05026107281446457 1.623193383216858
v 0.04996248707175255 0.050200410187244415 1.6208847761154175
v -0.075385183095932 0.049689311534166336 1.6597505807876587
v -0.07139874994754791 0.04767005890607834 1.6622662544250488
v 0.021123144775629044 0.02923726662993431 1.6901322603225708
v 0.001220840960741043 0.021648643538355827 1.6921429634094238
v 0.03584757819771767 0.03373028337955475 1.684705376625061
v 0.04509946331381798 0.037728775292634964 1.6793022155761719
v 0.0535876639187336 0.04013985022902489 1.6771624088287354
v -0.03256131708621979 0.017435628920793533 1.6583646535873413
v -0.008269302546977997 0.01780794933438301 1.6549596786499023
v 0.005092807114124298 0.018773522228002548 1.64337956905365
v 0.00978253036737442 0.010724049061536789 1.6144094467163086
v 0.020354721695184708 0.010511055588722229 1.6161214113235474
v 0.014636602252721786 0.010433737188577652 1.6249473094940186
v 0.006542615592479706 0.01132318377494812 1.6215431690216064
v 0.004671026021242142 0.018996628001332283 1.602799892425537
v 0.0014691650867462158 0.013216829858720303 1.6069985628128052
v -0.008098941296339035 0.013004064559936523 1.6052017211914062
v -0.005516815930604935 0.017843224108219147 1.6006395816802979
v -0.018871881067752838 0.019369840621948242 1.6813451051712036
v -0.006956916302442551 0.02880246378481388 1.6840778589248657
v 0.04780576005578041 0.02259165793657303 1.6189252138137817
v 0.05443814769387245 0.023485135287046432 1.6227043867111206
v 0.06204467639327049 0.026192720979452133 1.6248912811279297
v 0.0282009057700634 0.012952356599271297 1.6446020603179932
v 0.04162764176726341 0.012608722783625126 1.6474608182907104
v 0.04089033976197243 0.011787365190684795 1.6527254581451416
v 0.028084944933652878 0.013114829547703266 1.6477431058883667
v 0.020778831094503403 0.00503385066986084 1.6625221967697144
v 0.03137389197945595 0.004931574687361717 1.668870449066162
v 0.010692160576581955 0.0008444264531135559 1.6676082611083984
v 0.05248093232512474 0.018028229475021362 1.655578374862671
v 0.06131213530898094 0.019242962822318077 1.6489067077636719
v 0.06083692982792854 0.020942259579896927 1.6577465534210205
v 0.06224564090371132 0.01997503452003002 1.6391956806182861
v 0.0625406801700592 0.022120274603366852 1.6305665969848633
v 0.05776643380522728 0.05302919074892998 1.619283676147461
v 0.059265632182359695 0.024055205285549164 1.6655242443084717
v -0.002612423151731491 -0.0007122252136468887 1.6783232688903809
v -0.010654747486114502 -0.0019948650151491165 1.6770944595336914
v -0.011939924210309982 0.0011345446109771729 1.669908881187439
v -0.004827830940485001 0.001505257561802864 1.6701644659042358
v -0.041596751660108566 0.0318589024245739 1.6758586168289185
v -0.041422486305236816 0.024242427200078964 1.675564169883728
v -0.02970101498067379 0.021569378674030304 1.6757539510726929
v 0.030820157378911972 0.009707564488053322 1.6325054168701172
v 0.03556489571928978 0.012161202728748322 1.621215581893921
v -0.04369516298174858 0.019858384504914284 1.6606812477111816
v -0.0706111416220665 0.04392977058887482 1.6663575172424316
v -0.07358512282371521 0.03878829628229141 1.666795253753662
v -0.05776955932378769 0.03482459485530853 1.6726924180984497
v -0.05663355812430382 0.04106619209051132 1.6712989807128906
v -0.051197540014982224 0.02950582280755043 1.6553364992141724
v -0.04897739738225937 0.02428479678928852 1.658471941947937
v -0.051639556884765625 0.02752505987882614 1.656833291053772
v -0.0526592992246151 0.0324566550552845 1.6529333591461182
v -0.04017959162592888 0.02328491397202015 1.6208888292312622
v -0.03254634886980057 0.019062846899032593 1.62190580368042
v -0.038828685879707336 0.040935248136520386 1.6547293663024902
v -0.036683645099401474 0.04335663840174675 1.6672673225402832
v -0.025909695774316788 0.043984152376651764 1.6649675369262695
v -0.015951313078403473 0.018801966682076454 1.6362245082855225
v -0.026814764365553856 0.018273811787366867 1.6341742277145386
v -0.025769082829356194 0.018017765134572983 1.630133867263794
v -0.036102186888456345 0.01845201477408409 1.654852271080017
v -0.04467898979783058 0.021611176431179047 1.6554608345031738
v -0.04210508614778519 0.02017933502793312 1.6512526273727417
v -0.03312264755368233 0.018894938752055168 1.6500078439712524
v 0.016364257782697678 0.03146515414118767 1.6068464517593384
v 0.017169836908578873 0.02007834054529667 1.6052619218826294
v -0.08390532433986664 0.039134442806243896 1.6556631326675415
v -0.0799112319946289 0.03526098653674126 1.65951669216156
v -0.004496760666370392 0.019179033115506172 1.637615442276001
v -0.012523811310529709 0.04460436478257179 1.664917230606079
v 0.006880719214677811 0.018007252365350723 1.6383521556854248
v -0.025586983188986778 0.03489987552165985 1.616005539894104
v -0.02708967588841915 0.029940804466605186 1.6118667125701904
v -0.03233723342418671 0.031110165640711784 1.6134583950042725
v -0.03087511658668518 0.03623006492853165 1.6155650615692139
v -0.06421998888254166 0.03912224620580673 1.6484318971633911
v -0.06730534881353378 0.034222282469272614 1.649644374847412
v -0.07018671929836273 0.03554396331310272 1.6475337743759155
v -0.06668194383382797 0.03964981436729431 1.6473270654678345
v -0.04915916919708252 0.02218054048717022 1.663671612739563
v -0.04877441003918648 0.022411128506064415 1.670217514038086
v -0.055658478289842606 0.02509184367954731 1.6663864850997925
v -0.053911350667476654 0.025796402245759964 1.6609472036361694
v -0.050728630274534225 0.027355626225471497 1.673532247543335
v -0.057157523930072784 0.02888181433081627 1.6708749532699585
v -0.06255590170621872 0.04472748935222626 1.6517159938812256
v -0.06351809203624725 0.04876457899808884 1.658486008644104
v -0.0524621307849884 0.045465536415576935 1.6599260568618774
v -0.05363805219531059 0.040053628385066986 1.6542387008666992
v 0.01716591790318489 0.05008714646100998 1.630518913269043
v 0.02091361954808235 0.04619239643216133 1.6209306716918945
v 0.007059060037136078 0.04276086762547493 1.6182959079742432
v -0.005843020975589752 0.03990151733160019 1.6154714822769165
v -0.018122024834156036 0.035600945353507996 1.614140510559082
v -0.022343529388308525 0.041421517729759216 1.623955249786377
v 0.010974176228046417 0.039573993533849716 1.6121677160263062
v -0.050324488431215286 0.03474066033959389 1.6523314714431763
v -0.04501098394393921 0.040799159556627274 1.660167932510376
v -0.045497409999370575 0.03830796480178833 1.653515100479126
v 0.008424051105976105 0.015261976048350334 1.6316790580749512
v -0.07381309568881989 0.03430161625146866 1.6647359132766724
v 0.04279950633645058 0.05411694198846817 1.6653509140014648
v 0.04306534305214882 0.05790762975811958 1.652828335762024
v 0.034660305827856064 0.05591760575771332 1.6544525623321533
v 0.034038808196783066 0.0511893667280674 1.6679502725601196
v -0.07035765796899796 0.0305123683065176 1.654475450515747
v -0.07300148159265518 0.03049556165933609 1.6599619388580322
v -0.03137122467160225 0.01934788003563881 1.6153564453125
v -0.03700852394104004 0.023612327873706818 1.616012454032898
v -0.036279238760471344 0.025825247168540955 1.613277554512024
v -0.03143264725804329 0.021056141704320908 1.6100050210952759
v 0.02412327751517296 0.04363204538822174 1.6168023347854614
v -0.012692004442214966 0.0256474819034338 1.5978984832763672
v -0.014777909964323044 0.03335908055305481 1.6031978130340576
v 0.03315143659710884 0.04919107258319855 1.6236920356750488
v 0.029973503202199936 0.053161293268203735 1.6319458484649658
v 0.039404768496751785 0.055173587054014206 1.632412075996399
v -0.03402465581893921 0.04171004146337509 1.634447455406189
v 0.012490909546613693 0.05165375769138336 1.637588381767273
v 0.02652522549033165 0.05411284789443016 1.6386735439300537
v 0.03767482563853264 0.05652806907892227 1.6395528316497803
v 0.04567721113562584 0.05875397101044655 1.6394457817077637
v 0.04680771753191948 0.05681685358285904 1.631639003753662
v -0.06686176359653473 0.04745367541909218 1.6628562211990356
v -0.06738875806331635 0.04853411018848419 1.6577521562576294
v 0.05508873984217644 0.06017129123210907 1.6301941871643066
v 0.05358779802918434 0.06158486381173134 1.6392090320587158
v 0.023369628936052322 0.05433885008096695 1.6473201513290405
v 0.019920390099287033 0.05336304008960724 1.6573748588562012
v 0.009907517582178116 0.05181901156902313 1.645806074142456
v 0.005352262407541275 0.050725169479846954 1.6557505130767822
v -0.03237030655145645 0.04508628323674202 1.6440991163253784
v -0.07465346157550812 0.05775691941380501 1.6460964679718018
v -0.06857611984014511 0.0501311719417572 1.6505742073059082
v -0.06902985274791718 0.0458507165312767 1.6463508605957031
v -0.07335779070854187 0.05495411530137062 1.6429574489593506
v -0.06550082564353943 0.04441802203655243 1.6511943340301514
v -0.07060686498880386 0.05164649337530136 1.6556555032730103
v 0.0023210756480693817 0.045800961554050446 1.6668519973754883
v -0.05144290253520012 0.025392752140760422 1.650527834892273
v 0.017975788563489914 0.04628722742199898 1.6709028482437134
v -0.006181985139846802 0.0384911485016346 1.6768651008605957
v 0.004962030798196793 0.03742574155330658 1.6803545951843262
v 0.03371328487992287 0.045178577303886414 1.677808165550232
v 0.01944056525826454 0.03892945498228073 1.6840509176254272
v 0.05140349641442299 0.04932190477848053 1.6727863550186157
v 0.042513158172369 0.0477374792098999 1.6743391752243042
v 0.004729021340608597 0.031492941081523895 1.6876404285430908
v -0.08358275145292282 0.044869355857372284 1.6430261135101318
v -0.07835707068443298 0.04610970616340637 1.6408839225769043
v 0.05083341524004936 0.056438148021698 1.6644468307495117
v 0.001562114804983139 0.00038844533264636993 1.6697185039520264
v 0.018740657716989517 0.01343033742159605 1.6349519491195679
v 0.01722804084420204 0.015587132424116135 1.6397382020950317
v 0.026511553674936295 0.010936545208096504 1.6178468465805054
v 0.021789539605379105 0.010200899094343185 1.6284115314483643
v -0.08710857480764389 0.04605316370725632 1.64678156375885
v -0.04748734086751938 0.029777323827147484 1.631278395652771
v -0.046752288937568665 0.030603846535086632 1.62908136844635
v -0.003449704498052597 0.0016697477549314499 1.6867833137512207
v -0.010781809687614441 -0.0006389021873474121 1.6847190856933594
v -0.017729852348566055 0.009745949879288673 1.688948392868042
v -0.014489378780126572 0.003355555236339569 1.6892396211624146
v -0.006546054035425186 0.00802832841873169 1.6915161609649658
v -0.009376034140586853 0.015190578065812588 1.690995454788208
v 0.02802469953894615 0.012429401278495789 1.6419733762741089
v 0.028263632208108902 0.011541808024048805 1.6381648778915405
v 0.02759603038430214 0.032074201852083206 1.6103941202163696
v 0.027781251817941666 0.020675016567111015 1.609182596206665
v -0.05043091997504234 0.033560290932655334 1.6744425296783447
v -0.04113829508423805 0.03870494291186333 1.6738595962524414
v -0.0492497980594635 0.03978632017970085 1.6725739240646362
v -0.053089991211891174 0.04498176649212837 1.6671065092086792
v -0.05348408967256546 0.03170879930257797 1.6504625082015991
v -0.04972834512591362 0.035810887813568115 1.6559146642684937
v 0.03662728890776634 0.008356412872672081 1.6595683097839355
v 0.026058394461870193 0.010362289845943451 1.6540534496307373
v -0.009575631469488144 0.005472904071211815 1.668274998664856
v -0.015019435435533524 0.006913769990205765 1.6675941944122314
v -0.028619661927223206 0.018892332911491394 1.643195629119873
v -0.040635958313941956 0.04124857485294342 1.6364734172821045
v -0.040085192769765854 0.044433705508708954 1.6443536281585693
v -0.03904949128627777 0.019785797223448753 1.6428778171539307
v -0.08660177886486053 0.052988938987255096 1.651258945465088
v -0.08803807199001312 0.048683322966098785 1.6490800380706787
v -0.04637186974287033 0.043395206332206726 1.6680864095687866
v -0.0228910930454731 0.01576414704322815 1.6225342750549316
v -0.03698262199759483 0.03832346200942993 1.6314787864685059
v -0.043227069079875946 0.03619196265935898 1.6328216791152954
v -0.011765602976083755 0.01762157678604126 1.5992029905319214
v 0.05169828608632088 0.05993025004863739 1.6524027585983276
v -0.07270336896181107 0.041950974613428116 1.6450048685073853
v -0.07417015731334686 0.048964086920022964 1.6404229402542114
v -0.07682034373283386 0.05882573500275612 1.649623155593872
v -0.08141849935054779 0.05676139146089554 1.652551293373108
v 0.03708731010556221 0.02085363119840622 1.6144107580184937
v 0.015942443162202835 0.016739070415496826 1.6428050994873047
v -0.008101020008325577 0.024594604969024658 1.6875126361846924
v -0.01894497498869896 0.016301274299621582 1.6854596138000488
v -0.04742914065718651 0.022296259179711342 1.6418646574020386
v -0.020662005990743637 0.03294668719172478 1.6095244884490967
v -0.029358860105276108 0.040799591690301895 1.622662901878357
v -0.03303776681423187 0.042084548622369766 1.621519923210144
v -0.0388970673084259 0.04212629050016403 1.6255687475204468
v -0.04556317999958992 0.03845199942588806 1.626486897468567
v -0.07812060415744781 0.06146108731627464 1.6452096700668335
v -0.08377939462661743 0.060392558574676514 1.6474318504333496
v -0.08852668106555939 0.05728267878293991 1.6451789140701294
v -0.08980096876621246 0.05253896117210388 1.6433897018432617
v -0.08783523738384247 0.048346199095249176 1.6423711776733398
v -0.0757717564702034 0.05980296805500984 1.6418569087982178
v -0.07479362189769745 0.05683549493551254 1.6393547058105469
v -0.07544109225273132 0.05054212734103203 1.6384479999542236
v -0.07550927996635437 0.061034850776195526 1.6380304098129272
v -0.07870198041200638 0.06469938158988953 1.6386431455612183
v -0.09019741415977478 0.0638674646615982 1.6323115825653076
v -0.08883743733167648 0.06295054405927658 1.6379480361938477
v -0.087718665599823 0.06472177803516388 1.6362848281860352
v -0.08837197721004486 0.06645479798316956 1.6317758560180664
v -0.08797511458396912 0.06925302743911743 1.6276085376739502
v -0.09017465263605118 0.06643003970384598 1.627405047416687
v -0.083961121737957 0.06476092338562012 1.6387920379638672
v -0.08417525887489319 0.06753873825073242 1.6329187154769897
v -0.07998044788837433 0.06747635453939438 1.6326284408569336
v -0.08043346554040909 0.0706557035446167 1.6283152103424072
v -0.08431270718574524 0.07098550349473953 1.628431797027588
v -0.08024823665618896 0.06573537737131119 1.6367101669311523
v -0.08394762128591537 0.06423391401767731 1.6409107446670532
v -0.08813993632793427 0.06887553632259369 1.6241986751556396
v -0.08720343559980392 0.0709095150232315 1.6254037618637085
v -0.08406312763690948 0.07201772183179855 1.6256353855133057
v -0.0839003399014473 0.07111905515193939 1.6227443218231201
v -0.09039781987667084 0.05675562098622322 1.6385515928268433
v -0.09057584404945374 0.06155776232481003 1.6313912868499756
v -0.08907619118690491 0.06384753435850143 1.6261447668075562
v -0.08711811900138855 0.06649560481309891 1.6231212615966797
v -0.08846147358417511 0.059181150048971176 1.6290479898452759
v -0.08705241978168488 0.061907585710287094 1.625349521636963
v -0.08496066927909851 0.06401579827070236 1.6226727962493896
v -0.08499829471111298 0.05752798169851303 1.627272605895996
v -0.08425864577293396 0.060695964843034744 1.624480128288269
v -0.08545274287462234 0.04935069382190704 1.6369600296020508
v -0.08863990008831024 0.05160795524716377 1.638530969619751
v -0.08364801853895187 0.062369927763938904 1.6225829124450684
v -0.08289289474487305 0.06932038813829422 1.6219162940979004
v -0.07698880136013031 0.06551018357276917 1.6331393718719482
v -0.0779847577214241 0.06863945722579956 1.627254605293274
v -0.07578817009925842 0.06381746381521225 1.6322566270828247
v -0.0763646811246872 0.06701990216970444 1.6264594793319702
v -0.07919986546039581 0.0711389034986496 1.6240310668945312
v -0.08105342835187912 0.0717562809586525 1.6257718801498413
v -0.08353769779205322 0.04635211080312729 1.6407430171966553
v -0.07837314903736115 0.04748094826936722 1.639083743095398
v -0.07959826290607452 0.04964642971754074 1.63602614402771
v -0.08036914467811584 0.05723436549305916 1.6268486976623535
v -0.07598868012428284 0.052254870533943176 1.6356052160263062
v -0.07464290410280228 0.05840436369180679 1.635691523551941
v -0.07527951896190643 0.06208430603146553 1.6301499605178833
v -0.07620865106582642 0.05953165516257286 1.628249168395996
v -0.07629207521677017 0.06455228477716446 1.6258039474487305
v -0.0775502398610115 0.06240944191813469 1.6250568628311157
v -0.08067915588617325 0.06063966825604439 1.624039888381958
v -0.07833173871040344 0.06608057767152786 1.6228342056274414
v -0.07839410752058029 0.06906779110431671 1.6232779026031494
v -0.08184615522623062 0.06609896570444107 1.6216940879821777
v -0.07855451107025146 0.06409911066293716 1.6231433153152466
v -0.08138459920883179 0.06362926214933395 1.6226123571395874
v -0.07577334344387054 0.05360281094908714 1.6210575103759766
v -0.07072646915912628 0.05264356732368469 1.6179560422897339
v -0.07038205862045288 0.04449924826622009 1.62236487865448
v -0.07401185482740402 0.04578017443418503 1.626002311706543
v -0.07165656983852386 0.05780525505542755 1.632985234260559
v -0.07625173777341843 0.05648393929004669 1.6295515298843384
v -0.07350121438503265 0.05205341428518295 1.634394645690918
v -0.06767664849758148 0.05507800355553627 1.6357828378677368
v -0.06557412445545197 0.057936299592256546 1.6322264671325684
v -0.06187804043292999 0.05512811243534088 1.6334251165390015
v -0.06396232545375824 0.055602796375751495 1.6379258632659912
v -0.06917070597410202 0.05073792114853859 1.6380071640014648
v -0.05492040887475014 0.03935195878148079 1.647524118423462
v -0.051223766058683395 0.04548316448926926 1.6467102766036987
v -0.051778484135866165 0.028147302567958832 1.6337814331054688
v -0.05053351819515228 0.03183974698185921 1.6322072744369507
v -0.07716600596904755 0.055022336542606354 1.624887466430664
v -0.07507628947496414 0.04877432435750961 1.6306031942367554
v -0.06135529279708862 0.04387830197811127 1.6208595037460327
v -0.06573320180177689 0.04142330586910248 1.622884750366211
v -0.06645631790161133 0.044956035912036896 1.6193506717681885
v -0.06209944561123848 0.046994805335998535 1.6192097663879395
v -0.05605759471654892 0.030514121055603027 1.6445484161376953
v -0.05334927886724472 0.027740592136979103 1.639522671699524
v -0.056393519043922424 0.034630805253982544 1.6460691690444946
v -0.05742049962282181 0.048615697771310806 1.622483491897583
v -0.055395856499671936 0.053709469735622406 1.6264574527740479
v -0.04463749751448631 0.04552894085645676 1.6344929933547974
v -0.04642166197299957 0.03988766297698021 1.6313378810882568
v -0.07191327959299088 0.046545129269361496 1.6353882551193237
v -0.06947994232177734 0.041160136461257935 1.6269584894180298
v -0.0719461590051651 0.04274621233344078 1.6309595108032227
v -0.058597177267074585 0.05631230026483536 1.6332285404205322
v -0.058273427188396454 0.0543094202876091 1.6270442008972168
v -0.05827172100543976 0.06709536164999008 1.6193971633911133
v -0.059331148862838745 0.055366527289152145 1.6228704452514648
v -0.06173141300678253 0.054077692329883575 1.6186413764953613
v -0.059709660708904266 0.0663435310125351 1.6147867441177368
v -0.05929551273584366 0.05020308122038841 1.6223716735839844
v -0.06063315272331238 0.05705719441175461 1.6278194189071655
v -0.07248881459236145 0.06931410729885101 1.6140053272247314
v -0.06744550913572311 0.0677662342786789 1.6110035181045532
v -0.07428168505430222 0.07083411514759064 1.6178277730941772
v -0.04674747213721275 0.04820740222930908 1.6409733295440674
v -0.07062657922506332 0.07106299698352814 1.6269793510437012
v -0.07431375235319138 0.07112667709589005 1.6220728158950806
v -0.06560831516981125 0.05300997197628021 1.6166125535964966
v -0.06282583624124527 0.0669867992401123 1.611619472503662
v -0.059039488434791565 0.06846466660499573 1.6237391233444214
v -0.06439501792192459 0.06938561797142029 1.6282991170883179
v -0.058468014001846313 0.0727318674325943 1.6188212633132935
v -0.06214313581585884 0.07522659003734589 1.6232755184173584
v -0.0676637515425682 0.07750795781612396 1.622430443763733
v -0.0715525820851326 0.0774623304605484 1.6186107397079468
v -0.07248478382825851 0.07601453363895416 1.615079402923584
v -0.05807232856750488 0.07155552506446838 1.6152703762054443
v -0.05957450717687607 0.07105061411857605 1.6110574007034302
v -0.06371627748012543 0.07020720839500427 1.6092970371246338
v -0.056226011365652084 0.07567787170410156 1.610774278640747
v -0.055794890969991684 0.07795552909374237 1.6138875484466553
v -0.06001100689172745 0.09374427795410156 1.6116865873336792
v -0.062076449394226074 0.08955322206020355 1.6147994995117188
v -0.059555113315582275 0.08908072113990784 1.6152265071868896
v -0.057406071573495865 0.09292571246623993 1.6125086545944214
v -0.06264977157115936 0.08503127098083496 1.6184890270233154
v -0.060207925736904144 0.08561432361602783 1.6175041198730469
v -0.057551514357328415 0.08217301964759827 1.6168522834777832
v -0.055914778262376785 0.08641411364078522 1.6138334274291992
v -0.05374985188245773 0.08281520009040833 1.6115233898162842
v -0.05103534460067749 0.08676082640886307 1.6093379259109497
v -0.05288859084248543 0.09061042964458466 1.6117790937423706
v -0.05515928938984871 0.08081265538930893 1.6142767667770386
v -0.05532317981123924 0.09463870525360107 1.6104358434677124
v -0.05632336437702179 0.09568352997303009 1.6082631349563599
v -0.05925943702459335 0.08047378808259964 1.6180641651153564
v -0.06858961284160614 0.08231747150421143 1.6175217628479004
v -0.0644424557685852 0.0895022451877594 1.6129517555236816
v -0.061603792011737823 0.0935974270105362 1.6089664697647095
v -0.056916363537311554 0.09480686485767365 1.6054086685180664
v -0.06543801724910736 0.08833269774913788 1.609244704246521
v -0.06193633750081062 0.09222273528575897 1.6061384677886963
v -0.05775652453303337 0.09291461110115051 1.6036089658737183
v -0.06500257551670074 0.086111880838871 1.6052658557891846
v -0.06117068976163864 0.08976854383945465 1.6028565168380737
v -0.07054684311151505 0.07732169330120087 1.6102575063705444
v -0.07097771763801575 0.08008338510990143 1.6138724088668823
v -0.058840829879045486 0.09107187390327454 1.6025642156600952
v -0.051786210387945175 0.09405076503753662 1.6071956157684326
v -0.05315287038683891 0.093369260430336 1.6041138172149658
v -0.051860511302948 0.09329774975776672 1.6089184284210205
v -0.05331134423613548 0.08147553354501724 1.6099634170532227
v -0.0509674958884716 0.08592350780963898 1.6071746349334717
v -0.05362536013126373 0.08026698976755142 1.6076346635818481
v -0.05127403140068054 0.08550387620925903 1.604832649230957
v -0.0498710572719574 0.0898754894733429 1.6058024168014526
v -0.04995974153280258 0.090481698513031 1.6074726581573486
v -0.07116266340017319 0.07345724105834961 1.6120041608810425
v -0.06727685779333115 0.07095292210578918 1.6094379425048828
v -0.0674537792801857 0.07418616116046906 1.6074670553207397
v -0.0622999407351017 0.08289019018411636 1.6028746366500854
v -0.0632825642824173 0.07277540862560272 1.6071475744247437
v -0.058238230645656586 0.07433322817087173 1.6083171367645264
v -0.05532798543572426 0.07953765243291855 1.6055630445480347
v -0.058302298188209534 0.08054666966199875 1.6033095121383667
v -0.052209123969078064 0.08461275696754456 1.6029824018478394
v -0.05537298694252968 0.0840630978345871 1.6020591259002686
v -0.059178635478019714 0.08679123222827911 1.6013323068618774
v -0.051547572016716 0.08881499618291855 1.6021015644073486
v -0.05029398202896118 0.08959662914276123 1.6040544509887695
v -0.05444725602865219 0.09210807085037231 1.6027414798736572
v -0.05407813563942909 0.08738268911838531 1.6012722253799438
v -0.05657026916742325 0.08999121189117432 1.601550579071045
v -0.06477562338113785 0.049068596214056015 1.6028563976287842
v -0.061963822692632675 0.04609082639217377 1.5992454290390015
v -0.061473894864320755 0.039356887340545654 1.6024283170700073
v -0.0643002837896347 0.04312530905008316 1.6063839197158813
v -0.05610985308885574 0.05378842353820801 1.6113276481628418
v -0.060925304889678955 0.05338336527347565 1.6098828315734863
v -0.06083635240793228 0.049421537667512894 1.612242579460144
v -0.05545870587229729 0.04960834980010986 1.6140249967575073
v -0.05114958807826042 0.054082125425338745 1.608982801437378
v -0.050240010023117065 0.049266599118709564 1.6116678714752197
v -0.05231873318552971 0.04991356283426285 1.6165615320205688
v -0.058300700038671494 0.04761309176683426 1.615505337715149
v -0.04857476055622101 0.0408148393034935 1.6234277486801147
v -0.043058574199676514 0.045355018228292465 1.6227681636810303
v -0.06380007416009903 0.05159679800271988 1.6065064668655396
v -0.06374382972717285 0.047070540487766266 1.6095539331436157
v -0.05064290761947632 0.036616068333387375 1.6019457578659058
v -0.054440196603536606 0.03539714589715004 1.6041499376296997
v -0.05686107650399208 0.03899938240647316 1.5994393825531006
v -0.05296814441680908 0.04040183126926422 1.5987130403518677
v -0.049315400421619415 0.02980363741517067 1.6224112510681152
v -0.0448947548866272 0.027350544929504395 1.618626356124878
v -0.050943534821271896 0.03526254743337631 1.6228257417678833
v -0.04651978611946106 0.04065635800361633 1.6030488014221191
v -0.043932050466537476 0.04617898911237717 1.6074166297912598
v -0.035612840205430984 0.040801722556352615 1.612649917602539
v -0.037433382123708725 0.0349421463906765 1.6113132238388062
v -0.06113774701952934 0.04415178298950195 1.6139262914657593
v -0.05825318768620491 0.035844914615154266 1.6074790954589844
v -0.061615388840436935 0.039439305663108826 1.6111124753952026
v -0.04711063951253891 0.04974529892206192 1.6129543781280518
v -0.047676682472229004 0.0464869886636734 1.606328010559082
v -0.048384636640548706 0.06364786624908447 1.5941376686096191
v -0.04874834418296814 0.047188691794872284 1.5995663404464722
v -0.0529717355966568 0.04593942314386368 1.596583366394043
v -0.05072100833058357 0.06252049654722214 1.590700387954712
v -0.048977140337228775 0.04308947175741196 1.6006594896316528
v -0.04768584668636322 0.050760943442583084 1.6045843362808228
v -0.06285347789525986 0.06526122242212296 1.5941462516784668
v -0.05973164737224579 0.06222475320100784 1.5908390283584595
v -0.0626010000705719 0.06609871983528137 1.598189115524292
v -0.03739837184548378 0.04587644338607788 1.6184499263763428
v -0.04037344828248024 0.029004590585827827 1.6134005784988403
v -0.057339005172252655 0.0685136467218399 1.6024558544158936
v -0.06107388064265251 0.0676150843501091 1.6007720232009888
v -0.05718561261892319 0.04513421654701233 1.5969946384429932
v -0.054777681827545166 0.061721447855234146 1.5892781019210815
v -0.04872983321547508 0.0651097297668457 1.5982927083969116
v -0.05205019563436508 0.06705178320407867 1.6023489236831665
v -0.04806184396147728 0.06860503554344177 1.5944732427597046
v -0.051294419914484024 0.07096166163682938 1.5984517335891724
v -0.05551882088184357 0.07339998334646225 1.5990089178085327
v -0.059108566492795944 0.07303805649280548 1.5976080894470215
v -0.061198197305202484 0.07169438898563385 1.5951776504516602
v -0.048337921500205994 0.06748175621032715 1.5903303623199463
v -0.050939932465553284 0.06660972535610199 1.5876699686050415
v -0.05488143861293793 0.0649363100528717 1.5881011486053467
v -0.04800014570355415 0.06995801627635956 1.5868111848831177
v -0.0464538037776947 0.07357880473136902 1.5903663635253906
v -0.05153990164399147 0.0880361795425415 1.5878738164901733
v -0.05279441922903061 0.08382947742938995 1.5909039974212646
v -0.05151589959859848 0.0836697444319725 1.5908589363098145
v -0.0498717725276947 0.08803045749664307 1.588067889213562
v -0.05248506739735603 0.07882312685251236 1.5949805974960327
v -0.05088352411985397 0.07994312047958374 1.5938200950622559
v -0.048311859369277954 0.07745445519685745 1.5930465459823608
v -0.046910252422094345 0.08214858174324036 1.5892146825790405
v -0.045435830950737 0.07801738381385803 1.5854904651641846
v -0.04487353935837746 0.08218242228031158 1.583289623260498
v -0.04573550075292587 0.08625911176204681 1.5866906642913818
v -0.04615464434027672 0.07543990761041641 1.5898640155792236
v -0.04848982393741608 0.08952680230140686 1.5858970880508423
v -0.04972231760621071 0.09125962853431702 1.5859720706939697
v -0.04944060742855072 0.07577404379844666 1.5944132804870605
v -0.057090241461992264 0.07831327617168427 1.5954172611236572
v -0.05553126335144043 0.08396792411804199 1.5903964042663574
v -0.05482077598571777 0.08858279883861542 1.5870258808135986
v -0.05255458131432533 0.09017226099967957 1.5838063955307007
v -0.057796113193035126 0.0824388712644577 1.5879558324813843
v -0.056303925812244415 0.08665233850479126 1.5849186182022095
v -0.05431624874472618 0.0883084386587143 1.5820451974868774
v -0.05853603035211563 0.08035485446453094 1.5856083631515503
v -0.05667725205421448 0.08423258364200592 1.5827962160110474
v -0.06094425171613693 0.07192231714725494 1.5913513898849487
v -0.059804968535900116 0.0755087286233902 1.5938694477081299
v -0.05490047112107277 0.08634094893932343 1.581161618232727
v -0.04622035101056099 0.08953090757131577 1.583174228668213
v -0.0489196740090847 0.08853661268949509 1.5800800323486328
v -0.046376388520002365 0.08817973732948303 1.5843425989151
v -0.04568210616707802 0.07638829946517944 1.5845519304275513
v -0.04456251114606857 0.08139176666736603 1.5810335874557495
v -0.04735125973820686 0.07481108605861664 1.5827281475067139
v -0.04623405262827873 0.07998119294643402 1.5791188478469849
v -0.0444779172539711 0.08531352877616882 1.580825924873352
v -0.04470985755324364 0.08541969954967499 1.582010269165039
v -0.06136853247880936 0.06851309537887573 1.5923800468444824
v -0.0589713454246521 0.06587725877761841 1.5893385410308838
v -0.05936434119939804 0.06910175085067749 1.5882970094680786
v -0.057013414800167084 0.07810048013925552 1.582387924194336
v -0.05566210299730301 0.06738448143005371 1.5865342617034912
v -0.05086683854460716 0.06968384236097336 1.584845781326294
v -0.05017264932394028 0.07470619678497314 1.5813796520233154
v -0.053481463342905045 0.07601327449083328 1.5809516906738281
v -0.048851847648620605 0.07943911105394363 1.5781643390655518
v -0.05162590369582176 0.07957813143730164 1.579069972038269
v -0.055539749562740326 0.0820387676358223 1.5798943042755127
v -0.04895681515336037 0.08349420130252838 1.5782068967819214
v -0.04625612124800682 0.08441269397735596 1.5787698030471802
v -0.05145283788442612 0.08702297508716583 1.5790467262268066
v -0.051295991986989975 0.0826902762055397 1.5782816410064697
v -0.05329642444849014 0.08528637140989304 1.5789309740066528
v -0.04197346046566963 0.026834404096007347 1.6155668497085571
v -0.04792232811450958 0.02427021786570549 1.5946857929229736
v -0.04846397042274475 0.02135274186730385 1.5919806957244873
v -0.044008009135723114 0.019755791872739792 1.5928237438201904
v -0.043322451412677765 0.022121213376522064 1.5961148738861084
v -0.04334687441587448 0.033259741961956024 1.5909383296966553
v -0.04567290097475052 0.030994541943073273 1.5941035747528076
v -0.04127073660492897 0.03001382201910019 1.5950944423675537
v -0.03858766704797745 0.03224906325340271 1.591826319694519
v -0.04192013293504715 0.03277750313282013 1.5860549211502075
v -0.037145957350730896 0.031526800245046616 1.5867689847946167
v -0.036458805203437805 0.03324267268180847 1.5935399532318115
v -0.03898824751377106 0.030376702547073364 1.5967566967010498
v -0.029180625453591347 0.030371952801942825 1.6058903932571411
v -0.02548855170607567 0.03337503597140312 1.6033912897109985
v -0.017012570053339005 0.01879343017935753 1.5976823568344116
v -0.01950385794043541 0.015455830842256546 1.6018990278244019
v -0.025509804487228394 0.017327681183815002 1.5981608629226685
v -0.022771725431084633 0.019003549590706825 1.5950618982315063
v -0.04704395681619644 0.027750223875045776 1.5952560901641846
v -0.0434081070125103 0.02588639408349991 1.596624732017517
v -0.035607367753982544 0.01819745823740959 1.5873972177505493
v -0.03831423819065094 0.01686321198940277 1.5908907651901245
v -0.04341652989387512 0.01810494065284729 1.5892491340637207
v -0.04204195365309715 0.019023055210709572 1.5847413539886475
v -0.023863358423113823 0.016127344220876694 1.6054099798202515
v -0.026742810383439064 0.017685243859887123 1.6086673736572266
v -0.02968723513185978 0.019659601151943207 1.6061460971832275
v -0.028520742431282997 0.017788879573345184 1.6017223596572876
v -0.031903620809316635 0.024082854390144348 1.6079058647155762
v -0.0340111181139946 0.021377380937337875 1.5851151943206787
v -0.03266412019729614 0.027223002165555954 1.5847930908203125
v -0.018938440829515457 0.02730989083647728 1.593333125114441
v -0.019720401614904404 0.022628579288721085 1.5938806533813477
v -0.04062855243682861 0.02631942369043827 1.5984532833099365
v -0.04061993211507797 0.018237872049212456 1.5942684412002563
v -0.04075491428375244 0.021552778780460358 1.5975561141967773
v -0.03346064314246178 0.0324016809463501 1.5887846946716309
v -0.038022480905056 0.027545640245079994 1.5824339389801025
v -0.053274981677532196 0.026359140872955322 1.5793145895004272
v -0.04490980505943298 0.02384699322283268 1.5806719064712524
v -0.04694320261478424 0.020786676555871964 1.583433985710144
v -0.05438173562288284 0.02379392646253109 1.5809588432312012
v -0.039260465651750565 0.022368673235177994 1.5825694799423218
v -0.043294426053762436 0.02902209386229515 1.5813837051391602
v -0.05606229603290558 0.026060711592435837 1.5928623676300049
v -0.055891748517751694 0.022860094904899597 1.5888906717300415
v -0.05540022253990173 0.029071198776364326 1.593768835067749
v -0.021787118166685104 0.033482469618320465 1.5977038145065308
v -0.05317530781030655 0.03476077318191528 1.5898445844650269
v -0.0549883097410202 0.03224249184131622 1.5928356647491455
v -0.04813398793339729 0.0202874094247818 1.5881000757217407
v -0.05534491688013077 0.02232835814356804 1.5844316482543945
v -0.05218793824315071 0.030736835673451424 1.5799875259399414
v -0.05132516101002693 0.03466524928808212 1.584359049797058
v -0.05667959898710251 0.03224404156208038 1.5800113677978516
v -0.056287214159965515 0.03510303795337677 1.584299921989441
v -0.05911073088645935 0.0339871346950531 1.5903788805007935
v -0.05911233648657799 0.03090681880712509 1.5925097465515137
v -0.05902264267206192 0.02774832770228386 1.5929605960845947
v -0.05677780508995056 0.027332613244652748 1.5790157318115234
v -0.057004623115062714 0.024534162133932114 1.580419659614563
v -0.05704187601804733 0.022535061463713646 1.5838772058486938
v -0.06089300662279129 0.02823854610323906 1.5786067247390747
v -0.063479945063591 0.03161020204424858 1.5806459188461304
v -0.0736486166715622 0.0259286817163229 1.58683180809021
v -0.07024586200714111 0.027190720662474632 1.5884267091751099
v -0.07021757960319519 0.027914810925722122 1.5875473022460938
v -0.07383927702903748 0.026917077600955963 1.5864393711090088
v -0.06601971387863159 0.030451621860265732 1.5895442962646484
v -0.06701776385307312 0.030203260481357574 1.5880883932113647
v -0.06509961932897568 0.03192286193370819 1.585540771484375
v -0.0695977658033371 0.03021549992263317 1.5839674472808838
v -0.06813140958547592 0.028872838243842125 1.5790271759033203
v -0.07181456685066223 0.027766671031713486 1.5783840417861938
v -0.07282574474811554 0.029357288032770157 1.5827360153198242
v -0.06520228087902069 0.031354378908872604 1.5813496112823486
v -0.07602769136428833 0.02707923948764801 1.5849319696426392
v -0.07702639698982239 0.026113679632544518 1.5850343704223633
v -0.0633072555065155 0.03380078449845314 1.5858922004699707
v -0.06457842141389847 0.027605857700109482 1.5918207168579102
v -0.07066571712493896 0.024829760193824768 1.5892958641052246
v -0.07494068145751953 0.02393963187932968 1.587031364440918
v -0.07727983593940735 0.024017421528697014 1.5841503143310547
v -0.06915932148694992 0.022851163521409035 1.5891475677490234
v -0.07440677285194397 0.021755635738372803 1.5866954326629639
v -0.07653527706861496 0.021839717403054237 1.5838693380355835
v -0.06735771894454956 0.020618349313735962 1.5875561237335205
v -0.07266825437545776 0.020253058522939682 1.5854119062423706
v -0.06110941618680954 0.022382251918315887 1.5899242162704468
v -0.06303992122411728 0.02477307990193367 1.5915908813476562
v -0.07499325275421143 0.020995663478970528 1.5835530757904053
v -0.07701520621776581 0.027132514864206314 1.5812652111053467
v -0.07702433317899704 0.02419964224100113 1.5808550119400024
v -0.07597550749778748 0.02834380976855755 1.5814262628555298
v -0.06742095947265625 0.028239581733942032 1.5780723094940186
v -0.07190842926502228 0.026608800515532494 1.5772277116775513
v -0.06638193130493164 0.02619345486164093 1.5772618055343628
v -0.07161494344472885 0.024496469646692276 1.5769097805023193
v -0.07518275082111359 0.026388298720121384 1.5782079696655273
v -0.07440562546253204 0.027779551222920418 1.57914400100708
v -0.05898744612932205 0.024182666093111038 1.5914772748947144
v -0.057650305330753326 0.022757507860660553 1.5883599519729614
v -0.059506483376026154 0.02150961570441723 1.586544156074524
v -0.06562215089797974 0.019819248467683792 1.5841889381408691
v -0.058788251131772995 0.02254856750369072 1.5819939374923706
v -0.05949820950627327 0.025347158312797546 1.5792343616485596
v -0.06562858819961548 0.023743154481053352 1.5778321027755737
v -0.06529591977596283 0.021198391914367676 1.5798927545547485
v -0.0714968740940094 0.02247852273285389 1.577632188796997
v -0.07078583538532257 0.02035817690193653 1.5796014070510864
v -0.07111997902393341 0.019384309649467468 1.5826609134674072
v -0.07493636012077332 0.022477315738797188 1.5791939496994019
v -0.07546450197696686 0.024096563458442688 1.5783997774124146
v -0.07617133855819702 0.022321317344903946 1.5810742378234863
v -0.07405070960521698 0.02106393501162529 1.58013916015625
v -0.07450611889362335 0.020803198218345642 1.581677794456482
v -0.0172402486205101 0.022146418690681458 1.5958338975906372
v -0.03249731659889221 0.007896974682807922 1.6772884130477905
v -0.030515754595398903 0.008327953517436981 1.6720244884490967
v -0.022332800552248955 -0.005805373191833496 1.6694542169570923
v -0.025333909317851067 0.0002701170742511749 1.6662921905517578
v -0.022619958966970444 -0.00918208435177803 1.675713062286377
v -0.0269099622964859 -0.006257638335227966 1.6851001977920532
v -0.023515477776527405 -0.008385095745325089 1.6814308166503906
v -0.027891933917999268 0.005220105871558189 1.667681336402893
v -0.03229275345802307 0.0052009038627147675 1.6822923421859741
v -0.030044376850128174 -0.0006794482469558716 1.6862095594406128
v -0.04310190677642822 -0.0010372959077358246 1.6791399717330933
v -0.039393872022628784 -0.007640700787305832 1.6822593212127686
v -0.03489833325147629 -0.013436410576105118 1.6796988248825073
v -0.02952159196138382 -0.013193462044000626 1.6758196353912354
v -0.026947515085339546 -0.012578628957271576 1.6718759536743164
v -0.039563145488500595 0.004216667264699936 1.6740210056304932
v -0.03658115863800049 0.00548001192510128 1.6692557334899902
v -0.03183059021830559 0.0027850959450006485 1.665576457977295
v -0.044511884450912476 0.0010886713862419128 1.66812264919281
v -0.0466780811548233 -0.006617464125156403 1.6629419326782227
v -0.039064452052116394 -0.020473502576351166 1.651781678199768
v -0.03662414476275444 -0.018960699439048767 1.6576588153839111
v -0.03927351534366608 -0.018260933458805084 1.6580520868301392
v -0.04137431085109711 -0.02010415494441986 1.6528211832046509
v -0.037659455090761185 -0.01781303808093071 1.663094401359558
v -0.03940468654036522 -0.016727477312088013 1.662054419517517
v -0.04281787946820259 -0.0125732421875 1.6637119054794312
v -0.044475920498371124 -0.014535859227180481 1.658424973487854
v -0.04528716951608658 -0.008714191615581512 1.6617531776428223
v -0.0461248941719532 -0.00870213657617569 1.657514214515686
v -0.04599320515990257 -0.0159994438290596 1.6532752513885498
v -0.0440964475274086 -0.020209558308124542 1.6501799821853638
v -0.04693629965186119 -0.01719547063112259 1.6490470170974731
v -0.042234715074300766 -0.020132005214691162 1.6480095386505127
v -0.04584177955985069 -0.01381603628396988 1.6661186218261719
v -0.03228246420621872 -0.016958951950073242 1.6666404008865356
v -0.03319757059216499 -0.018214505165815353 1.657792329788208
v -0.036153312772512436 -0.01898522675037384 1.650702953338623
v -0.040185779333114624 -0.01845177263021469 1.6465213298797607
v -0.03047773614525795 -0.015485342592000961 1.6565881967544556
v -0.033830128610134125 -0.015544597059488297 1.6503069400787354
v -0.038004010915756226 -0.014457415789365768 1.6466124057769775
v -0.029989153146743774 -0.011028200387954712 1.655298113822937
v -0.03384983167052269 -0.011807635426521301 1.6501559019088745
v -0.02646644599735737 -0.008117921650409698 1.6649916172027588
v -0.027689097449183464 -0.013426769524812698 1.6669011116027832
v -0.03713827580213547 -0.012200314551591873 1.6476619243621826
v -0.046939972788095474 -0.017003722488880157 1.6466975212097168
v -0.04478722810745239 -0.014976419508457184 1.6452242136001587
v -0.04648950323462486 -0.005554132163524628 1.6574887037277222
v -0.04824325814843178 -0.0103105828166008 1.653039574623108
v -0.04767739400267601 -0.007923722267150879 1.652059555053711
v -0.04487587511539459 -0.0020928755402565002 1.6575446128845215
v -0.04631544277071953 -0.0056462474167346954 1.6510734558105469
v -0.048414651304483414 -0.011653177440166473 1.6482754945755005
v -0.04845292493700981 -0.013254955410957336 1.650191068649292
v -0.025287140160799026 -0.008360989391803741 1.6675058603286743
v -0.027324508875608444 -0.0023288950324058533 1.6652265787124634
v -0.029146956279873848 -0.0018367879092693329 1.6638637781143188
v -0.03227382153272629 -0.00508759543299675 1.6552256345748901
v -0.03430907428264618 0.002781495451927185 1.6633726358413696
v -0.04039987176656723 0.003507554531097412 1.6658906936645508
v -0.041905175894498825 -0.00017507746815681458 1.6563185453414917
v -0.03701584041118622 -0.0009040199220180511 1.6556872129440308
v -0.043139196932315826 -0.0045531392097473145 1.650309681892395
v -0.04019983112812042 -0.005023647099733353 1.6502478122711182
v -0.0360863134264946 -0.007945697754621506 1.6495981216430664
v -0.043649252504110336 -0.008461382240056992 1.6470518112182617
v -0.046608343720436096 -0.009531322866678238 1.647192120552063
v -0.04170042276382446 -0.012026306241750717 1.645677924156189
v -0.041234228760004044 -0.007768347859382629 1.6480686664581299
v -0.039409421384334564 -0.010133098810911179 1.6473113298416138
v -0.013742547482252121 0.013552719727158546 1.6042141914367676
v -0.017462529242038727 0.013135182671248913 1.6094950437545776
v -0.01019805297255516 0.012007730081677437 1.610044002532959
v -0.0003351941704750061 0.011345259845256805 1.6121281385421753
v 0.009998168796300888 0.013046029023826122 1.6089895963668823
v -0.0022850073873996735 0.012389014475047588 1.6184895038604736
v -0.012286107987165451 0.013020030222833157 1.6158946752548218
v -0.022703353315591812 0.015334420837461948 1.614657998085022
v 0.00412590429186821 0.014269860461354256 1.6265537738800049
f 2 3 1
f 1 3 4
f 5 6 8
f 8 6 7
f 9 4 10
f 10 4 3
f 12 13 11
f 11 13 9
f 14 12 16
f 16 12 15
f 18 19 17
f 17 19 20
f 22 23 21
f 21 23 24
f 26 27 25
f 25 27 28
f 30 31 29
f 29 31 32
f 33 34 36
f 36 34 35
f 37 38 40
f 40 38 39
f 41 42 6
f 6 42 43
f 6 43 7
f 7 43 44
f 45 34 46
f 46 34 33
f 48 49 47
f 47 49 50
f 52 53 51
f 51 53 54
f 56 52 55
f 55 52 51
f 58 59 57
f 57 59 60
f 61 62 4
f 4 62 1
f 64 65 63
f 63 65 66
f 68 69 67
f 67 69 70
f 72 73 71
f 71 73 74
f 76 77 75
f 75 77 78
f 53 79 54
f 54 79 80
f 82 83 81
f 81 83 84
f 85 86 52
f 52 86 53
f 57 60 87
f 87 60 88
f 89 90 43
f 43 90 44
f 43 42 89
f 89 42 91
f 40 39 92
f 92 39 93
f 94 70 64
f 64 70 69
f 13 61 9
f 9 61 4
f 25 28 69
f 69 28 95
f 96 25 68
f 68 25 69
f 98 99 97
f 97 99 100
f 101 102 104
f 104 102 103
f 106 30 105
f 105 30 29
f 51 54 107
f 107 54 108
f 54 80 108
f 108 80 109
f 111 112 110
f 110 112 113
f 115 5 114
f 114 5 116
f 115 41 5
f 5 41 6
f 36 35 111
f 111 35 117
f 35 118 117
f 117 118 119
f 34 120 35
f 35 120 118
f 34 45 120
f 120 45 121
f 125 126 124
f 124 126 127
f 128 129 14
f 14 129 130
f 33 131 46
f 46 131 132
f 133 94 63
f 63 94 64
f 134 135 137
f 137 135 136
f 139 140 138
f 138 140 141
f 77 142 78
f 78 142 143
f 144 145 20
f 20 145 146
f 148 149 147
f 147 149 72
f 151 152 150
f 150 152 153
f 82 101 83
f 83 101 104
f 101 82 155
f 155 82 154
f 156 157 58
f 58 157 59
f 158 68 147
f 147 68 67
f 159 146 15
f 15 146 16
f 68 158 96
f 96 158 160
f 129 66 130
f 130 66 65
f 162 163 161
f 161 163 164
f 166 167 165
f 165 167 168
f 170 171 169
f 169 171 172
f 174 171 173
f 173 171 170
f 176 177 175
f 175 177 178
f 180 181 179
f 179 181 24
f 182 183 21
f 21 183 184
f 81 185 82
f 82 185 154
f 186 187 188
f 188 187 144
f 158 71 160
f 160 71 189
f 190 135 157
f 157 135 59
f 169 172 139
f 139 172 140
f 147 72 158
f 158 72 71
f 192 193 191
f 191 193 194
f 167 166 49
f 49 166 195
f 196 190 50
f 50 190 157
f 197 198 200
f 200 198 199
f 21 24 182
f 182 24 181
f 146 159 20
f 20 159 17
f 182 181 81
f 81 181 185
f 201 185 180
f 180 185 181
f 202 203 83
f 83 203 84
f 205 206 204
f 204 206 85
f 207 22 184
f 184 22 21
f 179 24 208
f 208 24 23
f 208 209 179
f 179 209 205
f 209 210 205
f 205 210 206
f 212 206 211
f 211 206 210
f 179 205 180
f 180 205 204
f 213 176 88
f 88 176 214
f 86 85 212
f 212 85 206
f 193 217 218
f 217 219 218
f 218 219 220
f 219 18 220
f 220 18 17
f 19 221 20
f 20 221 144
f 222 223 225
f 225 223 224
f 175 226 176
f 176 226 214
f 227 87 214
f 214 87 88
f 220 17 228
f 228 17 159
f 134 213 60
f 60 213 88
f 138 229 151
f 151 229 152
f 193 192 210
f 210 192 211
f 230 194 218
f 218 194 193
f 231 232 228
f 228 232 230
f 233 234 91
f 91 234 89
f 235 236 93
f 93 236 92
f 230 232 234
f 234 232 237
f 47 238 48
f 48 238 239
f 240 191 235
f 235 191 236
f 5 8 116
f 116 8 241
f 242 243 189
f 189 243 160
f 244 245 98
f 98 245 99
f 156 246 47
f 47 246 238
f 76 247 77
f 77 247 248
f 250 125 249
f 249 125 124
f 252 253 251
f 251 253 254
f 111 110 36
f 36 110 255
f 256 33 255
f 255 33 36
f 257 258 154
f 154 258 155
f 63 169 133
f 133 169 139
f 66 170 63
f 63 170 169
f 173 170 129
f 129 170 66
f 129 128 173
f 173 128 259
f 128 260 259
f 259 260 261
f 213 134 262
f 262 134 137
f 263 264 186
f 186 264 187
f 112 265 113
f 113 265 266
f 11 267 268
f 234 233 230
f 230 233 194
f 153 269 70
f 70 269 67
f 175 178 165
f 165 178 141
f 150 153 94
f 94 153 70
f 271 221 270
f 270 221 207
f 269 153 272
f 272 153 152
f 121 45 109
f 109 45 108
f 47 50 156
f 156 50 157
f 57 273 58
f 58 273 274
f 145 275 260
f 260 275 261
f 276 149 143
f 143 149 78
f 148 269 75
f 75 269 272
f 207 277 270
f 270 277 278
f 195 196 49
f 49 196 50
f 59 135 60
f 60 135 134
f 83 104 202
f 202 104 279
f 149 148 78
f 78 148 75
f 247 278 248
f 248 278 277
f 183 182 84
f 84 182 81
f 48 239 281
f 281 239 282
f 227 223 283
f 283 223 222
f 223 226 224
f 224 226 168
f 281 282 224
f 224 282 225
f 165 168 175
f 175 168 226
f 264 263 138
f 138 263 229
f 14 16 128
f 128 16 260
f 220 228 218
f 218 228 230
f 87 227 284
f 284 227 283
f 260 16 145
f 145 16 146
f 244 98 258
f 258 98 155
f 58 274 156
f 156 274 246
f 107 285 51
f 51 285 55
f 243 286 160
f 160 286 96
f 234 237 89
f 89 237 90
f 46 132 107
f 107 132 285
f 253 252 249
f 249 252 250
f 286 26 96
f 96 26 25
f 106 105 287
f 287 105 288
f 272 152 289
f 289 152 229
f 138 151 139
f 139 151 133
f 183 290 161
f 161 290 162
f 291 292 277
f 277 292 293
f 151 150 133
f 133 150 94
f 262 275 177
f 177 275 187
f 144 187 145
f 145 187 275
f 273 57 284
f 284 57 87
f 174 136 190
f 190 136 135
f 111 117 112
f 112 117 38
f 117 119 38
f 38 119 123
f 112 38 265
f 265 38 37
f 287 288 254
f 254 288 251
f 228 159 231
f 231 159 15
f 223 227 226
f 226 227 214
f 147 67 148
f 148 67 269
f 224 168 281
f 281 168 167
f 199 163 200
f 200 163 162
f 45 46 108
f 108 46 107
f 281 167 48
f 48 167 49
f 161 164 291
f 291 164 292
f 38 123 39
f 293 294 277
f 277 294 248
f 284 283 296
f 296 283 295
f 284 296 273
f 273 296 297
f 274 273 298
f 298 273 297
f 246 274 299
f 299 274 298
f 283 222 295
f 295 222 300
f 222 225 300
f 300 225 301
f 301 225 302
f 302 225 282
f 303 304 300
f 300 304 295
f 306 307 305
f 305 307 308
f 309 310 308
f 308 310 305
f 308 307 312
f 312 307 311
f 313 314 312
f 312 314 315
f 311 316 312
f 312 316 313
f 317 304 311
f 311 304 316
f 315 309 312
f 312 309 308
f 318 319 321
f 321 319 320
f 319 318 309
f 309 318 310
f 311 307 317
f 317 307 306
f 306 297 317
f 317 297 296
f 306 322 297
f 297 322 298
f 305 323 306
f 306 323 322
f 323 305 324
f 324 305 310
f 304 317 295
f 295 317 296
f 318 325 310
f 310 325 324
f 323 324 326
f 326 324 327
f 324 325 327
f 327 325 328
f 326 327 329
f 329 327 330
f 329 331 326
f 326 331 332
f 333 330 328
f 328 330 327
f 323 326 322
f 322 326 332
f 322 332 298
f 298 332 299
f 325 318 334
f 334 318 321
f 313 316 335
f 335 316 304
f 335 336 313
f 313 336 314
f 304 303 335
f 335 303 337
f 336 335 338
f 338 335 337
f 336 339 314
f 314 339 340
f 246 299 238
f 238 299 341
f 239 342 282
f 282 342 302
f 342 239 341
f 341 239 238
f 341 331 342
f 342 331 343
f 331 329 343
f 343 329 344
f 342 343 302
f 302 343 345
f 341 299 331
f 331 299 332
f 346 301 345
f 345 301 302
f 346 303 301
f 301 303 300
f 347 337 346
f 346 337 303
f 347 346 348
f 348 346 345
f 349 347 350
f 350 347 348
f 343 344 345
f 345 344 348
f 344 351 348
f 348 351 350
f 337 347 338
f 338 347 349
f 353 338 352
f 352 338 349
f 352 355 354
f 354 355 356
f 352 349 355
f 355 349 350
f 352 354 353
f 353 354 334
f 353 334 339
f 339 334 321
f 339 336 353
f 353 336 338
f 329 330 344
f 344 330 351
f 356 351 333
f 333 351 330
f 356 355 351
f 351 355 350
f 354 356 328
f 328 356 333
f 328 325 354
f 354 325 334
f 309 315 319
f 319 315 320
f 320 340 321
f 321 340 339
f 320 315 340
f 340 315 314
f 137 136 261
f 261 136 259
f 140 166 141
f 141 166 165
f 172 171 195
f 195 171 196
f 171 174 196
f 196 174 190
f 178 177 264
f 264 177 187
f 172 195 140
f 140 195 166
f 137 261 262
f 262 261 275
f 178 264 141
f 141 264 138
f 262 177 213
f 213 177 176
f 136 174 259
f 259 174 173
f 358 359 357
f 357 359 360
f 362 363 361
f 361 363 364
f 361 364 365
f 365 364 366
f 367 368 370
f 370 368 369
f 76 371 247
f 247 371 372
f 373 374 362
f 362 374 363
f 376 377 375
f 375 377 378
f 289 229 380
f 380 229 379
f 381 379 263
f 263 379 229
f 383 384 382
f 382 384 385
f 386 368 374
f 374 368 363
f 76 289 371
f 371 289 380
f 377 376 359
f 359 376 387
f 388 386 360
f 360 386 374
f 389 383 366
f 366 383 390
f 392 393 391
f 391 393 394
f 383 382 390
f 390 382 395
f 396 365 390
f 390 365 366
f 389 366 367
f 367 366 364
f 357 397 358
f 358 397 398
f 373 399 357
f 357 399 397
f 389 367 400
f 400 367 370
f 382 385 375
f 375 385 372
f 357 360 373
f 373 360 374
f 361 401 362
f 362 401 402
f 387 388 359
f 359 388 360
f 363 368 364
f 364 368 367
f 358 398 403
f 403 398 404
f 396 392 405
f 405 392 391
f 392 395 393
f 393 395 378
f 393 403 394
f 394 403 404
f 375 378 382
f 382 378 395
f 365 396 406
f 406 396 405
f 362 402 373
f 373 402 399
f 271 270 400
f 400 270 384
f 401 361 406
f 406 361 365
f 381 369 386
f 386 369 368
f 392 396 395
f 395 396 390
f 393 378 403
f 403 378 377
f 403 377 358
f 358 377 359
f 406 405 408
f 408 405 407
f 406 408 401
f 401 408 409
f 401 409 402
f 402 409 410
f 402 410 399
f 399 410 411
f 405 391 407
f 407 391 412
f 391 394 412
f 412 394 413
f 394 404 413
f 413 404 414
f 415 416 412
f 412 416 407
f 418 419 417
f 417 419 420
f 421 422 418
f 418 422 419
f 419 422 424
f 424 422 423
f 425 426 424
f 424 426 427
f 423 428 424
f 424 428 425
f 427 420 424
f 424 420 419
f 420 429 417
f 417 429 430
f 423 422 431
f 431 422 421
f 421 409 431
f 431 409 408
f 421 432 409
f 409 432 410
f 418 433 421
f 421 433 432
f 434 433 417
f 417 433 418
f 431 416 423
f 423 416 428
f 416 431 407
f 407 431 408
f 435 434 430
f 430 434 417
f 433 434 436
f 436 434 437
f 434 435 437
f 437 435 438
f 436 437 439
f 439 437 440
f 439 441 436
f 436 441 442
f 438 443 437
f 437 443 440
f 436 442 433
f 433 442 432
f 432 442 410
f 410 442 411
f 435 430 445
f 445 430 444
f 430 429 444
f 444 429 446
f 425 428 447
f 447 428 416
f 426 425 448
f 448 425 447
f 416 415 447
f 447 415 449
f 447 449 448
f 448 449 450
f 451 452 448
f 448 452 426
f 446 452 444
f 444 452 451
f 399 411 397
f 397 411 453
f 398 454 404
f 404 454 414
f 454 398 453
f 453 398 397
f 453 441 454
f 454 441 455
f 441 439 455
f 455 439 456
f 454 455 414
f 414 455 457
f 441 453 442
f 442 453 411
f 458 413 457
f 457 413 414
f 458 415 413
f 413 415 412
f 458 459 415
f 415 459 449
f 459 458 460
f 460 458 457
f 461 459 462
f 462 459 460
f 455 456 457
f 457 456 460
f 456 463 460
f 460 463 462
f 459 461 449
f 449 461 450
f 465 450 464
f 464 450 461
f 464 467 466
f 466 467 468
f 464 461 467
f 467 461 462
f 464 466 465
f 465 466 445
f 465 445 451
f 451 445 444
f 451 448 465
f 465 448 450
f 439 440 456
f 456 440 463
f 468 463 443
f 443 463 440
f 468 467 463
f 463 467 462
f 466 468 438
f 438 468 443
f 438 435 466
f 466 435 445
f 420 427 429
f 429 427 446
f 446 427 452
f 452 427 426
f 370 369 188
f 188 369 186
f 371 376 372
f 372 376 375
f 380 379 387
f 387 379 388
f 379 381 388
f 388 381 386
f 385 384 278
f 278 384 270
f 380 387 371
f 371 387 376
f 400 370 271
f 271 370 188
f 385 278 372
f 372 278 247
f 400 384 389
f 389 384 383
f 369 381 186
f 186 381 263
f 221 271 144
f 144 271 188
f 221 19 207
f 207 19 22
f 19 18 22
f 22 18 23
f 18 219 23
f 23 219 208
f 469 470 472
f 472 470 471
f 474 475 473
f 473 475 476
f 473 476 477
f 477 476 478
f 480 481 479
f 479 481 482
f 483 484 474
f 474 484 475
f 486 487 485
f 485 487 488
f 489 490 77
f 77 490 142
f 491 489 248
f 248 489 77
f 493 494 492
f 492 494 495
f 496 480 484
f 484 480 475
f 486 497 487
f 487 497 471
f 498 496 472
f 472 496 484
f 499 493 478
f 478 493 500
f 501 502 504
f 504 502 503
f 493 492 500
f 500 492 505
f 506 477 500
f 500 477 478
f 499 478 479
f 479 478 476
f 469 507 470
f 470 507 508
f 483 509 469
f 469 509 507
f 479 482 499
f 499 482 510
f 492 495 485
f 485 495 511
f 483 469 484
f 484 469 472
f 473 512 474
f 474 512 513
f 497 498 471
f 471 498 472
f 475 480 476
f 476 480 479
f 470 508 514
f 514 508 515
f 506 502 516
f 516 502 501
f 503 502 488
f 488 502 505
f 514 515 503
f 503 515 504
f 485 488 492
f 492 488 505
f 477 506 517
f 517 506 516
f 474 513 483
f 483 513 509
f 510 292 494
f 494 292 164
f 512 473 517
f 517 473 477
f 491 481 496
f 496 481 480
f 502 506 505
f 505 506 500
f 503 488 514
f 514 488 487
f 514 487 470
f 470 487 471
f 517 516 519
f 519 516 518
f 517 519 512
f 512 519 520
f 512 520 513
f 513 520 521
f 513 521 509
f 509 521 522
f 516 501 518
f 518 501 523
f 501 504 523
f 523 504 524
f 524 504 525
f 525 504 515
f 526 527 523
f 523 527 518
f 529 530 528
f 528 530 531
f 532 533 529
f 529 533 530
f 530 533 535
f 535 533 534
f 536 537 535
f 535 537 538
f 534 539 535
f 535 539 536
f 538 531 535
f 535 531 530
f 540 541 531
f 531 541 528
f 533 532 534
f 534 532 542
f 532 520 542
f 542 520 519
f 532 543 520
f 520 543 521
f 529 544 532
f 532 544 543
f 544 529 545
f 545 529 528
f 534 542 539
f 539 542 527
f 527 542 518
f 518 542 519
f 541 546 528
f 528 546 545
f 547 544 548
f 548 544 545
f 546 549 545
f 545 549 548
f 550 547 551
f 551 547 548
f 547 550 553
f 553 550 552
f 549 554 548
f 548 554 551
f 544 547 543
f 543 547 553
f 543 553 521
f 521 553 522
f 546 541 556
f 556 541 555
f 541 540 555
f 555 540 557
f 536 539 558
f 558 539 527
f 537 536 559
f 559 536 558
f 527 526 558
f 558 526 560
f 559 558 561
f 561 558 560
f 559 562 537
f 537 562 563
f 557 563 555
f 555 563 562
f 509 522 507
f 507 522 564
f 508 565 515
f 515 565 525
f 565 508 564
f 564 508 507
f 564 552 565
f 565 552 566
f 552 550 566
f 566 550 567
f 565 566 525
f 525 566 568
f 564 522 552
f 552 522 553
f 569 524 568
f 568 524 525
f 569 526 524
f 524 526 523
f 570 560 569
f 569 560 526
f 570 569 571
f 571 569 568
f 572 570 573
f 573 570 571
f 566 567 568
f 568 567 571
f 567 574 571
f 571 574 573
f 570 572 560
f 560 572 561
f 576 561 575
f 575 561 572
f 575 578 577
f 577 578 579
f 575 572 578
f 578 572 573
f 575 577 576
f 576 577 556
f 576 556 562
f 562 556 555
f 562 559 576
f 576 559 561
f 550 551 567
f 567 551 574
f 579 574 554
f 554 574 551
f 579 578 574
f 574 578 573
f 579 554 577
f 577 554 549
f 549 546 577
f 577 546 556
f 531 538 540
f 540 538 557
f 557 538 563
f 563 538 537
f 481 294 482
f 482 294 293
f 580 486 511
f 511 486 485
f 490 489 497
f 497 489 498
f 489 491 498
f 498 491 496
f 163 495 164
f 164 495 494
f 580 490 486
f 486 490 497
f 482 293 510
f 510 293 292
f 495 163 511
f 511 163 199
f 494 493 510
f 510 493 499
f 481 491 294
f 294 491 248
f 582 583 581
f 581 583 584
f 586 587 585
f 585 587 588
f 585 588 589
f 589 588 590
f 592 593 591
f 591 593 594
f 595 596 598
f 598 596 597
f 599 600 586
f 586 600 587
f 601 602 604
f 604 602 603
f 605 606 608
f 608 606 607
f 609 607 200
f 200 607 606
f 610 611 613
f 613 611 612
f 600 614 587
f 587 614 592
f 596 605 597
f 597 605 608
f 602 615 603
f 603 615 583
f 616 614 584
f 584 614 600
f 611 618 617
f 617 618 590
f 620 621 619
f 619 621 622
f 610 623 611
f 611 623 618
f 624 589 618
f 618 589 590
f 617 590 591
f 591 590 588
f 581 625 582
f 582 625 626
f 599 627 581
f 581 627 625
f 591 594 617
f 617 594 628
f 601 610 598
f 598 610 613
f 581 584 599
f 599 584 600
f 585 629 586
f 586 629 630
f 615 616 583
f 583 616 584
f 587 592 588
f 588 592 591
f 582 626 631
f 631 626 632
f 624 620 633
f 633 620 619
f 621 620 604
f 604 620 623
f 631 632 621
f 621 632 622
f 610 601 623
f 623 601 604
f 589 624 634
f 634 624 633
f 586 630 599
f 599 630 627
f 203 202 628
f 628 202 612
f 629 585 634
f 634 585 589
f 609 593 614
f 614 593 592
f 620 624 623
f 623 624 618
f 631 621 603
f 603 621 604
f 582 631 583
f 583 631 603
f 634 633 636
f 636 633 635
f 634 636 629
f 629 636 637
f 629 637 630
f 630 637 638
f 630 638 627
f 627 638 639
f 633 619 635
f 635 619 640
f 619 622 640
f 640 622 641
f 641 622 642
f 642 622 632
f 644 635 643
f 643 635 640
f 645 646 648
f 648 646 647
f 649 650 646
f 646 650 647
f 647 650 652
f 652 650 651
f 652 653 655
f 655 653 654
f 651 656 652
f 652 656 653
f 655 648 652
f 652 648 647
f 648 657 645
f 645 657 658
f 650 649 651
f 651 649 659
f 649 637 659
f 659 637 636
f 649 660 637
f 637 660 638
f 661 660 646
f 646 660 649
f 662 661 645
f 645 661 646
f 651 659 656
f 656 659 644
f 644 659 635
f 635 659 636
f 663 662 658
f 658 662 645
f 664 661 665
f 665 661 662
f 663 666 662
f 662 666 665
f 667 664 668
f 668 664 665
f 664 667 670
f 670 667 669
f 666 671 665
f 665 671 668
f 661 664 660
f 660 664 670
f 660 670 638
f 638 670 639
f 658 672 663
f 663 672 673
f 658 657 672
f 672 657 674
f 653 656 675
f 675 656 644
f 653 675 654
f 654 675 676
f 675 644 677
f 677 644 643
f 676 675 678
f 678 675 677
f 679 680 676
f 676 680 654
f 674 680 672
f 672 680 679
f 627 639 625
f 625 639 681
f 626 682 632
f 632 682 642
f 681 682 625
f 625 682 626
f 669 683 681
f 681 683 682
f 667 684 669
f 669 684 683
f 682 683 642
f 642 683 685
f 681 639 669
f 669 639 670
f 686 641 685
f 685 641 642
f 641 686 640
f 640 686 643
f 686 687 643
f 643 687 677
f 687 686 688
f 688 686 685
f 689 687 690
f 690 687 688
f 683 684 685
f 685 684 688
f 684 691 688
f 688 691 690
f 687 689 677
f 677 689 678
f 693 678 692
f 692 678 689
f 692 695 694
f 694 695 696
f 692 689 695
f 695 689 690
f 692 694 693
f 693 694 673
f 693 673 679
f 679 673 672
f 679 676 693
f 693 676 678
f 684 667 691
f 691 667 668
f 696 691 671
f 671 691 668
f 696 695 691
f 691 695 690
f 694 696 666
f 666 696 671
f 666 663 694
f 694 663 673
f 648 655 657
f 657 655 674
f 674 655 680
f 680 655 654
f 593 162 594
f 594 162 290
f 598 597 601
f 601 597 602
f 615 608 616
f 616 608 607
f 607 609 616
f 616 609 614
f 697 595 613
f 613 595 598
f 597 608 602
f 602 608 615
f 594 290 628
f 628 290 203
f 628 612 617
f 617 612 611
f 593 609 162
f 162 609 200
f 105 29 698
f 698 29 699
f 268 126 701
f 701 126 700
f 126 125 700
f 700 125 702
f 252 703 250
f 250 703 704
f 32 268 705
f 705 268 701
f 288 105 706
f 706 105 698
f 29 32 699
f 699 32 705
f 707 251 706
f 706 251 288
f 250 704 125
f 125 704 702
f 703 252 707
f 707 252 251
f 706 708 707
f 707 708 709
f 707 709 703
f 703 709 710
f 703 710 704
f 704 710 711
f 704 711 702
f 702 711 712
f 706 698 708
f 708 698 713
f 698 699 713
f 713 699 714
f 699 705 714
f 714 705 715
f 717 708 716
f 716 708 713
f 719 720 718
f 718 720 721
f 722 723 719
f 719 723 720
f 724 725 723
f 723 725 720
f 724 726 725
f 725 726 727
f 728 721 725
f 725 721 720
f 721 728 729
f 729 728 730
f 729 731 721
f 721 731 718
f 724 723 732
f 732 723 722
f 722 710 732
f 732 710 709
f 722 733 710
f 710 733 711
f 719 734 722
f 722 734 733
f 734 719 735
f 735 719 718
f 724 732 726
f 726 732 717
f 717 732 708
f 708 732 709
f 731 736 718
f 718 736 735
f 737 734 738
f 738 734 735
f 736 739 735
f 735 739 738
f 740 737 741
f 741 737 738
f 737 740 743
f 743 740 742
f 739 744 738
f 738 744 741
f 734 737 733
f 733 737 743
f 733 743 711
f 711 743 712
f 736 731 746
f 746 731 745
f 731 729 745
f 745 729 730
f 727 726 747
f 747 726 717
f 748 727 749
f 749 727 747
f 747 717 750
f 750 717 716
f 749 747 751
f 751 747 750
f 749 752 748
f 748 752 753
f 730 753 745
f 745 753 752
f 728 725 748
f 748 725 727
f 730 728 753
f 753 728 748
f 700 702 754
f 754 702 712
f 705 701 715
f 715 701 755
f 754 755 700
f 700 755 701
f 742 756 754
f 754 756 755
f 740 757 742
f 742 757 756
f 755 756 715
f 715 756 758
f 754 712 742
f 742 712 743
f 759 714 758
f 758 714 715
f 714 759 713
f 713 759 716
f 759 760 716
f 716 760 750
f 760 759 761
f 761 759 758
f 762 760 763
f 763 760 761
f 756 757 758
f 758 757 761
f 757 764 761
f 761 764 763
f 760 762 750
f 750 762 751
f 766 751 765
f 765 751 762
f 767 765 769
f 769 765 768
f 765 762 768
f 768 762 763
f 765 767 766
f 766 767 746
f 766 746 752
f 752 746 745
f 752 749 766
f 766 749 751
f 757 740 764
f 764 740 741
f 769 764 744
f 744 764 741
f 769 768 764
f 764 768 763
f 767 769 739
f 739 769 744
f 739 736 767
f 767 736 746
f 219 217 208
f 208 217 209
f 209 217 210
f 210 217 193
f 198 580 199
f 199 580 511
f 76 75 289
f 289 75 272
f 277 207 291
f 291 207 184
f 290 183 203
f 203 183 84
f 490 580 142
f 142 580 198
f 142 198 143
f 143 198 197
f 149 276 72
f 72 276 73
f 104 103 279
f 279 103 770
f 770 596 279
f 279 596 595
f 605 596 771
f 771 596 770
f 771 770 772
f 772 770 103
f 772 103 773
f 773 103 102
f 155 774 101
f 101 774 102
f 773 102 97
f 97 102 774
f 775 773 100
f 100 773 97
f 773 775 772
f 772 775 776
f 772 776 771
f 771 776 777
f 200 606 197
f 197 606 777
f 189 71 778
f 778 71 74
f 97 774 98
f 98 774 155
f 183 161 184
f 184 161 291
f 777 276 197
f 197 276 143
f 777 606 771
f 771 606 605
f 613 612 697
f 697 612 202
f 595 697 279
f 279 697 202
f 73 276 776
f 776 276 777
f 776 775 73
f 73 775 74
f 100 778 775
f 775 778 74
f 778 100 189
f 189 100 99
f 245 242 99
f 99 242 189
f 131 33 256
f 28 1 95
f 95 1 62
f 27 2 28
f 28 2 1
f 265 115 266
f 266 115 114
f 95 62 69
f 69 62 64
f 62 61 64
f 64 61 65
f 61 13 65
f 65 13 130
f 13 12 130
f 130 12 14
f 31 11 32
f 32 11 268
f 15 12 31
f 31 12 11
f 31 30 15
f 15 30 231
f 30 106 231
f 231 106 232
f 287 237 106
f 106 237 232
f 254 90 287
f 287 90 237
f 253 44 254
f 254 44 90
f 253 249 44
f 44 249 7
f 267 127 268
f 268 127 126
f 10 3 241
f 241 3 116
f 3 2 116
f 116 2 114
f 2 27 114
f 114 27 266
f 27 26 266
f 266 26 113
f 26 286 113
f 113 286 110
f 286 243 110
f 110 243 255
f 243 242 255
f 255 242 256
f 242 245 256
f 256 245 131
f 245 244 131
f 131 244 132
f 265 37 115
f 115 37 41
f 41 37 42
f 42 37 40
f 92 91 40
f 40 91 42
f 236 233 92
f 92 233 91
f 191 194 236
f 236 194 233
f 258 285 244
f 244 285 132
f 257 55 258
f 258 55 285
f 257 154 201
f 201 154 185
f 56 201 204
f 204 201 180
f 55 257 56
f 56 257 201
f 204 85 56
f 56 85 52
f 86 122 53
f 53 122 79
f 212 215 86
f 86 215 122
f 211 216 212
f 212 216 215
f 192 280 211
f 211 280 216
f 191 240 192
f 192 240 280
f 249 124 7
f 7 124 8
f 124 127 8
f 8 127 241
f 127 267 241
f 241 267 10
f 10 267 9
f 9 267 11
