v 0.02041023224592209 -0.006917783059179783 0.6546341180801392
v 0.03217834606766701 -0.011347506195306778 0.6546304821968079
v 0.02442966029047966 -0.014669446274638176 0.66145920753479
v 0.01464579626917839 -0.01039748266339302 0.6610493063926697
v 0.042251426726579666 -0.017512379214167595 0.673774242401123
v 0.04746964946389198 -0.011703794822096825 0.6824437379837036
v 0.03028057888150215 -0.011996623128652573 0.6854401230812073
v 0.028578035533428192 -0.017640849575400352 0.6774665713310242
v 0.009087633341550827 -0.009729621931910515 0.6657407283782959
v 0.017146937549114227 -0.015310510993003845 0.6660213470458984
v 0.0078027620911598206 -0.0031314613297581673 0.6668075323104858
v 0.00042335689067840576 0.004707626067101955 0.6701619625091553
v 0.001251671463251114 -0.0025620069354772568 0.6680678725242615
v -0.0070412252098321915 0.007973392494022846 0.6709701418876648
v 0.00684848427772522 0.01456922385841608 0.6704296469688416
v -0.006098240613937378 0.01687614992260933 0.6678465008735657
v 0.014957401901483536 0.0274636410176754 0.6512578725814819
v 0.018603406846523285 0.028244545683264732 0.6390935182571411
v 0.0029137954115867615 0.026365747675299644 0.6374626755714417
v 0.00024262815713882446 0.025337394326925278 0.6505088806152344
v 0.013834193348884583 0.02246500737965107 0.620505690574646
v 0.0069800131022930145 0.024659831076860428 0.6294487118721008
v 0.02256612479686737 0.027888799086213112 0.6312081217765808
v 0.02791571617126465 0.025657393038272858 0.6228669881820679
v 0.028271719813346863 -0.0022893454879522324 0.6426455974578857
v 0.03960954770445824 -0.004410874098539352 0.6416791081428528
v 0.03770315274596214 -0.006486179307103157 0.6461947560310364
v 0.02644389495253563 -0.0035258056595921516 0.6471580266952515
v 0.008051041513681412 0.0038357917219400406 0.6719807386398315
v 0.015208382159471512 0.009172879159450531 0.6752123832702637
v 0.010001000016927719 0.0053025358356535435 0.67049640417099
v 0.0069721899926662445 -0.001070958562195301 0.6691615581512451
v 0.06516577303409576 -0.01029382273554802 0.6336393356323242
v 0.07700228691101074 -0.004505992867052555 0.6359089612960815
v 0.0763481855392456 -0.004070667549967766 0.6418102383613586
v 0.06575103104114532 -0.00921409111469984 0.6384777426719666
v 0.06855949759483337 -0.007344845682382584 0.6672878265380859
v 0.07569195330142975 -0.0016673109494149685 0.6609871983528137
v 0.07969297468662262 0.007729163859039545 0.6699294447898865
v 0.07093022763729095 0.0058300551027059555 0.6746232509613037
v 0.05882355198264122 -0.010866273194551468 0.6762234568595886
v 0.06164197996258736 0.0004815077409148216 0.6814789772033691
v 0.047951702028512955 -0.0009178789332509041 0.6868640184402466
v 0.029927533119916916 -0.0031232843175530434 0.6888021230697632
v 0.07847294211387634 -0.00261711236089468 0.6233430504798889
v 0.07015164196491241 -0.00705883651971817 0.6199055314064026
v -0.04159178584814072 0.002556225284934044 0.6349210143089294
v -0.039335593581199646 0.006889866665005684 0.6312967538833618
v -0.035667091608047485 0.004863793030381203 0.6359367966651917
v -0.03869367763400078 0.0014449842274188995 0.6386494636535645
v 0.07183639705181122 0.01154202688485384 0.6108734011650085
v 0.0704137533903122 0.021503837779164314 0.611679196357727
v 0.07755647599697113 0.020382989197969437 0.6114466190338135
v 0.07908987998962402 0.011187167838215828 0.6125535368919373
v 0.06217912957072258 0.011792192235589027 0.6088334321975708
v 0.060422640293836594 0.022348446771502495 0.6125528812408447
v -0.04918276146054268 0.007843835279345512 0.6442786455154419
v -0.04776164889335632 0.0033974293619394302 0.6417325139045715
v -0.044595371931791306 0.0037731919437646866 0.6461554169654846
v -0.04449765384197235 0.008435307070612907 0.64897221326828
v 0.0049654580652713776 -0.0059490930289030075 0.6633970141410828
v 0.01006631925702095 -0.00555620901286602 0.6560367941856384
v -0.013911501504480839 -0.003351811319589615 0.660275399684906
v -0.003952339291572571 -0.0033518709242343903 0.6589590311050415
v -0.004310090094804764 -0.0030001141130924225 0.6654889583587646
v -0.013118608854711056 -0.0023439768701791763 0.666104257106781
v 0.005781430751085281 -0.0013676914386451244 0.6376791000366211
v 0.01748993992805481 -0.00107681006193161 0.6389668583869934
v 0.01454688236117363 -0.0012861154973506927 0.6446248888969421
v 0.0014271680265665054 -0.0021898020058870316 0.6450275778770447
v 0.021713264286518097 -0.003970631398260593 0.6258404850959778
v 0.009734805673360825 -0.003756570629775524 0.6256102323532104
v 0.013270195573568344 -0.0056116823107004166 0.6181361079216003
v 0.021353043615818024 -0.006204226985573769 0.6196725964546204
v -0.011849616654217243 -0.0008789487183094025 0.6274773478507996
v -0.01950850710272789 0.003942195326089859 0.626766562461853
v -0.018891267478466034 0.004029798321425915 0.624595046043396
v -0.01118563674390316 -0.0009207865223288536 0.6238497495651245
v 0.08457599580287933 0.020378276705741882 0.6116829514503479
v 0.08581957221031189 0.011249817907810211 0.6150722503662109
v 0.023356154561042786 0.015462690033018589 0.6036521196365356
v 0.029162149876356125 0.007650322746485472 0.5984845757484436
v 0.01873668283224106 0.00635023508220911 0.5949713587760925
v 0.015274129807949066 0.01448847446590662 0.6012312769889832
v 0.06728500127792358 0.029173901304602623 0.6179371476173401
v 0.07474997639656067 0.029101217165589333 0.6156252026557922
v -0.04839883744716644 0.014140963554382324 0.6441410779953003
v -0.042787469923496246 0.013874867931008339 0.6486828923225403
v 0.048453908413648605 0.010257880203425884 0.6837669014930725
v 0.02960285171866417 0.005760747939348221 0.6868334412574768
v 0.06203318014740944 0.013478273525834084 0.6784716844558716
v 0.07066260278224945 0.01690514385700226 0.6733956933021545
v 0.07878710329532623 0.019165031611919403 0.6716299653053284
v -0.0070586614310741425 -0.0031551504507660866 0.6532694697380066
v 0.016402825713157654 -0.0032788151875138283 0.6497774124145508
v 0.02985985577106476 -0.002327783964574337 0.6381523609161377
v 0.03450355678796768 -0.01033155620098114 0.6091436147689819
v 0.04510410502552986 -0.010550577193498611 0.6108910441398621
v 0.039395760744810104 -0.010618560016155243 0.619714081287384
v 0.031275779008865356 -0.009741177782416344 0.6162823438644409
v 0.029432501643896103 -0.0018853526562452316 0.5973666906356812
v 0.02612699568271637 -0.007704596035182476 0.6015986204147339
v 0.016519460827112198 -0.007491523399949074 0.5993854999542236
v 0.01941576600074768 -0.0022174622863531113 0.5949038863182068
v 0.008900593966245651 0.0071322983130812645 0.6782549023628235
v 0.02027447149157524 0.011868618428707123 0.6794772744178772
v 0.07257841527462006 0.0014858618378639221 0.6136930584907532
v 0.07920412719249725 0.0023710476234555244 0.6174720525741577
v 0.08680303394794464 0.005063499324023724 0.6196542978286743
v 0.05279548093676567 -0.0085291163995862 0.6393014788627625
v 0.06628189980983734 -0.008771385997533798 0.6421380639076233
v 0.0654948353767395 -0.009826172143220901 0.6474897265434265
v 0.052489470690488815 -0.008755520917475224 0.6424540877342224
v 0.043937284499406815 -0.01648443192243576 0.6585807800292969
v 0.05551327392458916 -0.015932844951748848 0.6643163561820984
v 0.0329773910343647 -0.018994033336639404 0.6655997633934021
v 0.07725697755813599 -0.0032802997156977654 0.6503080725669861
v 0.08603973686695099 -0.0019397865980863571 0.6436700820922852
v 0.0856042355298996 -0.0002734800800681114 0.6525040864944458
v 0.08698217570781708 -0.001176462508738041 0.6339589357376099
v 0.08729054033756256 0.0009871311485767365 0.625327467918396
v 0.08255520462989807 0.031920939683914185 0.614019513130188
v 0.08407475054264069 0.002928079105913639 0.660279393196106
v 0.01934114471077919 -0.016659559682011604 0.6781489849090576
v 0.010855872184038162 -0.015370829030871391 0.678209662437439
v 0.009550932794809341 -0.013770190998911858 0.67078697681427
v 0.01666191965341568 -0.01558740995824337 0.6702119708061218
v -0.017736192792654037 0.008666874840855598 0.6700837016105652
v -0.01600094884634018 0.0013859854079782963 0.6689828634262085
v -0.005016976967453957 0.0008802590891718864 0.6706117391586304
v 0.05557858571410179 -0.01133226789534092 0.6272839307785034
v 0.060329269617795944 -0.008899458684027195 0.6159906983375549
v -0.016147008165717125 -0.0008752336725592613 0.6546133756637573
v -0.04384196549654007 0.010477611795067787 0.6531051993370056
v -0.04345199465751648 0.004770334810018539 0.6514739990234375
v -0.033411409705877304 0.00564921647310257 0.6622648239135742
v -0.0344557985663414 0.012183481827378273 0.6629269123077393
v -0.023045405745506287 0.00801930483430624 0.6489568948745728
v -0.019933387637138367 0.003692976199090481 0.6507844924926758
v -0.021530425176024437 0.006762983277440071 0.6484972834587097
v -0.02288965694606304 0.01245600450783968 0.6458364725112915
v -0.015331820584833622 0.0024132104590535164 0.6165116429328918
v -0.00806446373462677 -0.0017520640976727009 0.6158761382102966
v -0.014711225405335426 0.019984494894742966 0.6495546102523804
v -0.014450158923864365 0.022580664604902267 0.6629303097724915
v -0.002044590190052986 0.023714201524853706 0.6601596474647522
v 0.008853256702423096 -0.0022561121731996536 0.6309744119644165
v -0.001833723857998848 -0.0026413314044475555 0.6288199424743652
v -0.0009120889008045197 -0.0030517494305968285 0.6246918439865112
v -0.010424662381410599 -0.0021970318630337715 0.649755597114563
v -0.01744065433740616 0.001051691360771656 0.6500778794288635
v -0.01567862555384636 -0.0010760179720818996 0.6457018852233887
v -0.007910732179880142 -0.0020530615001916885 0.6446753144264221
v 0.04117920622229576 0.010321753099560738 0.6016062498092651
v 0.04193515703082085 -0.0010199500247836113 0.6000111699104309
v -0.04478379338979721 0.0013662967830896378 0.638460099697113
v -0.041978929191827774 0.00106784887611866 0.6426237225532532
v 0.02028820291161537 -0.0019010547548532486 0.6323768496513367
v 0.012167707085609436 0.023908214643597603 0.6597082614898682
v 0.031657181680202484 -0.0030739279463887215 0.6331220865249634
v -0.0015892144292593002 0.013711987994611263 0.6091197729110718
v -0.004374222829937935 0.00892050564289093 0.6051098704338074
v -0.010299744084477425 0.01096069160848856 0.6073427796363831
v -0.007693415507674217 0.015389680862426758 0.6093481183052063
v -0.03187348693609238 0.015463448129594326 0.6383967995643616
v -0.03276190161705017 0.009812716394662857 0.6372249722480774
v -0.033513955771923065 0.01025163009762764 0.6340241432189941
v -0.03376586735248566 0.015862343832850456 0.6355047225952148
v -0.02027721330523491 4.8576854169368744e-05 0.6547165513038635
v -0.021170910447835922 -0.0014778999611735344 0.660984218120575
v -0.026452766731381416 -2.8757378458976746e-05 0.65482497215271
v -0.023894891142845154 0.0030651800334453583 0.6507691740989685
v -0.02475389838218689 0.001513221301138401 0.664012610912323
v -0.030188607051968575 0.0012217890471220016 0.6593131422996521
v -0.03366994857788086 0.019833693280816078 0.6425379514694214
v -0.03803743049502373 0.01986870914697647 0.6486338973045349
v -0.029257621616125107 0.02154647558927536 0.6547331213951111
v -0.0264530498534441 0.01883811503648758 0.6481229662895203
v 0.04194888100028038 0.02900109253823757 0.6252776384353638
v 0.0457153357565403 0.02509291097521782 0.6156883835792542
v 0.031895317137241364 0.021659139543771744 0.6130657196044922
v 0.01899164542555809 0.01885194703936577 0.6100954413414001
v 0.006024032831192017 0.014614585787057877 0.6083270311355591
v 0.002666110172867775 0.02004963532090187 0.6175324320793152
v 0.03582035377621651 0.018461689352989197 0.606932520866394
v -0.02500525303184986 0.009496049024164677 0.6463769674301147
v -0.021762676537036896 0.018221592530608177 0.6559438109397888
v -0.021465390920639038 0.014628799632191658 0.6479939222335815
v 0.03319515287876129 -0.005805253051221371 0.6264475584030151
v -0.04162852093577385 0.0015256237238645554 0.6486100554466248
v 0.06777159869670868 0.03300205618143082 0.6599072217941284
v 0.0678676962852478 0.03681473433971405 0.647549569606781
v 0.05947281792759895 0.034811101853847504 0.6491366028785706
v 0.05919795110821724 0.030062563717365265 0.6622846722602844
v -0.03538861870765686 0.0038023777306079865 0.6396675109863281
v -0.03828082233667374 0.0005126036703586578 0.6438496112823486
v -0.007607394829392433 -0.0008195387199521065 0.6089670062065125
v -0.014073025435209274 0.0035689310170710087 0.6108102798461914
v -0.014842542819678783 0.006577575579285622 0.6083446741104126
v -0.009052332490682602 0.0015208795666694641 0.6028683185577393
v 0.04892891272902489 0.022527793422341347 0.6115567088127136
v 0.013111397624015808 0.006529197096824646 0.5944043397903442
v 0.009637776762247086 0.013970893807709217 0.5993995070457458
v 0.05794013664126396 0.02810785174369812 0.6184389591217041
v 0.054753731936216354 0.032080911099910736 0.626697838306427
v 0.06418588757514954 0.03409242630004883 0.6271594762802124
v -0.008519988507032394 0.02070477418601513 0.6285220384597778
v 0.03724782541394234 0.03059210628271103 0.6323416233062744
v 0.05129426345229149 0.0330377072095871 0.6334275007247925
v 0.06244949623942375 0.03544745594263077 0.6343043446540833
v 0.07045739889144897 0.03767170011997223 0.6341939568519592
v 0.07159338891506195 0.03573305532336235 0.6263828873634338
v -0.0411001518368721 0.015649735927581787 0.6517255902290344
v -0.0403335765004158 0.019388455897569656 0.6449459195137024
v 0.07987932860851288 0.03908030688762665 0.6249330639839172
v 0.07837472856044769 0.04049970209598541 0.6339513659477234
v 0.048128772526979446 0.03326532617211342 0.642071008682251
v 0.04481791332364082 0.03223199397325516 0.6519384384155273
v 0.03463657200336456 0.030769262462854385 0.640557050704956
v 0.03010571375489235 0.029676228761672974 0.6504327058792114
v -0.00841132365167141 0.024700982496142387 0.6383233070373535
v -0.0524265393614769 0.019621219485998154 0.6283758282661438
v -0.042943909764289856 0.021134309470653534 0.6351256966590881
v -0.03941526263952255 0.01803147792816162 0.6313520669937134
v -0.049651648849248886 0.01894916407763958 0.6251665353775024
v -0.036176182329654694 0.019608844071626663 0.6393314599990845
v -0.045887142419815063 0.019755704328417778 0.6403436660766602
v 0.02741401270031929 0.024931151419878006 0.6613495945930481
v -0.02332894504070282 0.001674590166658163 0.6441475749015808
v 0.04358651861548424 0.02533799596130848 0.6649245023727417
v 0.019635573029518127 0.018761053681373596 0.6716527938842773
v 0.03128021955490112 0.017883453518152237 0.6747484803199768
v 0.059578586369752884 0.024383483454585075 0.6715381145477295
v 0.04624544456601143 0.019183695316314697 0.6776329874992371
v 0.07646235823631287 0.02829941362142563 0.6673064827919006
v 0.06785333156585693 0.026746507734060287 0.6685658693313599
v 0.03282537683844566 0.013814374804496765 0.6817008852958679
v -0.04783225059509277 0.004558084532618523 0.6260735392570496
v -0.04561196267604828 0.009323375299572945 0.6236359477043152
v 0.07571867108345032 0.03534642606973648 0.65910804271698
v 0.02325255796313286 -0.017888613045215607 0.668999969959259
v 0.043496664613485336 -0.0076549239456653595 0.6297172904014587
v 0.041955236345529556 -0.005572316236793995 0.6344888806343079
v 0.05127621069550514 -0.010125081986188889 0.6126279234886169
v 0.04655454680323601 -0.010846298187971115 0.6231877207756042
v -0.0512302964925766 0.002337248995900154 0.6298556923866272
v -0.02248922735452652 0.010118801146745682 0.626819908618927
v -0.01825461909174919 0.00878488551825285 0.6270223259925842
v 0.02038833498954773 -0.01241118274629116 0.685499370098114
v 0.01238967478275299 -0.012364743277430534 0.6850359439849854
v 0.009380824863910675 0.00029268115758895874 0.687053918838501
v 0.010723482817411423 -0.006597504951059818 0.6884325742721558
v 0.019791390746831894 -0.004557767882943153 0.6888349652290344
v 0.018707167357206345 0.0029118310194462538 0.687152624130249
v 0.05272264406085014 -0.00876398291438818 0.6367066502571106
v 0.05301458016037941 -0.009523175656795502 0.6329327821731567
v 0.052384424954652786 0.010939501225948334 0.6051731109619141
v 0.052560385316610336 -0.00044507207348942757 0.6039601564407349
v -0.026770826429128647 0.0070440880954265594 0.6662288308143616
v -0.019071191549301147 0.015397140756249428 0.6688272356987
v -0.027471546083688736 0.013447269797325134 0.666256844997406
v -0.03150840103626251 0.018256835639476776 0.661297082901001
v -0.026642855256795883 0.006335539277642965 0.6445050835609436
v -0.023335985839366913 0.01386845763772726 0.6505718231201172
v 0.06103025749325752 -0.0130851361900568 0.6547312140464783
v 0.05000167712569237 -0.0117453932762146 0.6490874886512756
v 0.012791384011507034 -0.01208256371319294 0.6675797700881958
v 0.00782759115099907 -0.008491269312798977 0.6672186255455017
v -0.0035194605588912964 -0.0019447244703769684 0.6378611922264099
v -0.01914413645863533 0.02083646133542061 0.6316850781440735
v -0.019857825711369514 0.022147366777062416 0.6387217044830322
v -0.013154649175703526 -0.0009514852426946163 0.6373165845870972
v -0.05684541165828705 0.006955461576581001 0.6344942450523376
v -0.0542152114212513 0.0032196808606386185 0.6323065161705017
v -0.024832339957356453 0.019108399748802185 0.6638239622116089
v 0.0016696751117706299 -0.005241150967776775 0.6168302893638611
v -0.008875958621501923 0.016333192586898804 0.6257911920547485
v -0.02081763930618763 0.017215685918927193 0.6286120414733887
v 0.013858471065759659 -0.0017463769763708115 0.5936726927757263
v 0.07650208473205566 0.03884458541870117 0.6471325159072876
v -0.03828078508377075 0.01266280747950077 0.629192590713501
v -0.045494191348552704 0.01418982446193695 0.6230766177177429
v -0.05447891354560852 0.01818118803203106 0.6320071220397949
v -0.05653577670454979 0.013158243149518967 0.6353541016578674
v 0.06186399236321449 -0.0002521793358027935 0.60918128490448
v 0.04062643274664879 -0.004522244445979595 0.6375499367713928
v 0.020851213485002518 0.010257164016366005 0.6825326681137085
v 0.00916767492890358 0.005729080177843571 0.6825613975524902
v -0.019809015095233917 0.0011407569982111454 0.6355012059211731
v 0.002692403271794319 0.012105414643883705 0.6042020320892334
v -0.0034378524869680405 0.018887151032686234 0.6156197786331177
v -0.005716770887374878 0.019672036170959473 0.6163874864578247
v -0.007725119590759277 0.018335852771997452 0.6232951283454895
v -0.013711392879486084 0.014619220048189163 0.626937985420227
v -0.05766981840133667 0.017512032762169838 0.6276305317878723
v -0.05930712819099426 0.01297326572239399 0.6311202049255371
v -0.05933571606874466 0.006920898333191872 0.6310366988182068
v -0.0570886991918087 0.0034282151609659195 0.6291796565055847
v -0.053195033222436905 0.002788351848721504 0.6268796920776367
v -0.05617213994264603 0.01898367330431938 0.6237969398498535
v -0.05379326269030571 0.018064791336655617 0.6209682822227478
v -0.048682309687137604 0.01424730010330677 0.6203300952911377
v -0.058739908039569855 0.017567103728652 0.6193896532058716
v -0.0631941631436348 0.015118805691599846 0.6212896704673767
v -0.06557239592075348 0.0015229824930429459 0.6201377511024475
v -0.0641702264547348 0.00467267818748951 0.6248656511306763
v -0.0659458190202713 0.005645392462611198 0.6229929327964783
v -0.06785259395837784 0.0036581624299287796 0.6187522411346436
v -0.07043886184692383 0.002897096797823906 0.6141788959503174
v -0.06823737174272537 0.0001751091331243515 0.6152500510215759
v -0.06501088291406631 0.010155746713280678 0.6235753893852234
v -0.0677463561296463 0.008139053359627724 0.6176420450210571
v -0.06647953391075134 0.01167718879878521 0.6155611872673035
v -0.0694747120141983 0.009888237342238426 0.6110585927963257
v -0.07086727023124695 0.006834825500845909 0.6128610372543335
v -0.06500577926635742 0.012939034029841423 0.6199105978012085
v -0.06390327215194702 0.010993843898177147 0.6254182457923889
v -0.07029223442077637 0.0009838547557592392 0.6109936833381653
v -0.07189282029867172 0.002992657944560051 0.6115522980690002
v -0.0720195546746254 0.005982657894492149 0.6099932789802551
v -0.07151500880718231 0.0044022854417562485 0.6072720289230347
v -0.05893763527274132 0.0022213105112314224 0.6261934041976929
v -0.06337203085422516 -6.781332194805145e-05 0.6195623874664307
v -0.0653022900223732 -0.0004260856658220291 0.6136802434921265
v -0.06769414991140366 0.0004965569823980331 0.6095890402793884
v -0.06039402633905411 0.00015114061534404755 0.61638343334198
v -0.06287067383527756 0.0003679152578115463 0.6120098829269409
v -0.06464480608701706 0.0015014205127954483 0.6083651781082153
v -0.058054596185684204 0.0021968353539705276 0.6132487654685974
v -0.061048511415719986 0.002192934975028038 0.6100084185600281
v -0.05158493295311928 0.004564860835671425 0.6225752830505371
v -0.05407800152897835 0.002442779019474983 0.6255351901054382
v -0.06265902519226074 0.0021420251578092575 0.6077297329902649
v -0.06957796216011047 0.004208078607916832 0.6058369874954224
v -0.06380878388881683 0.014267051592469215 0.6149036884307861
v -0.06697170436382294 0.010961415246129036 0.6092456579208374
v -0.061751026660203934 0.014729572460055351 0.6135147213935852
v -0.06506015360355377 0.011736227199435234 0.6078711152076721
v -0.06999600678682327 0.008966131135821342 0.6062958240509033
v -0.0708160549402237 0.008426634594798088 0.6087798476219177
v -0.049407556653022766 0.0051619913429021835 0.6242958903312683
v -0.04764002561569214 0.01012132503092289 0.6216003894805908
v -0.049540925770998 0.0096625667065382 0.6194842457771301
v -0.056533511728048325 0.006092941388487816 0.6107147932052612
v -0.05079490691423416 0.013519564643502235 0.6176504492759705
v -0.05601847544312477 0.016479628160595894 0.6167721152305603
v -0.05986828729510307 0.013639410957694054 0.6112886071205139
v -0.05760131776332855 0.011209497228264809 0.6101269721984863
v -0.0626184344291687 0.010845674201846123 0.6072034239768982
v -0.060929615050554276 0.008905472233891487 0.6072954535484314
v -0.060173045843839645 0.005072066560387611 0.6078489422798157
v -0.06489404290914536 0.007870009168982506 0.6050994396209717
v -0.06780944764614105 0.008774401620030403 0.6053263545036316
v -0.06602396070957184 0.004228623583912849 0.6056594848632812
v -0.06297758966684341 0.007334275171160698 0.6056221127510071
v -0.06337593495845795 0.004440343007445335 0.6065540909767151
v -0.059421930462121964 0.008947218768298626 0.6202116012573242
v -0.055887166410684586 0.012390201911330223 0.6169875264167786
v -0.050897177308797836 0.008153700269758701 0.6204932332038879
v -0.0536341518163681 0.005805519409477711 0.6240169405937195
v -0.06022380292415619 0.015463316813111305 0.6325235366821289
v -0.06187136843800545 0.010660788975656033 0.6286585927009583
v -0.056670282036066055 0.0095379538834095 0.6334233283996582
v -0.0546533465385437 0.016099972650408745 0.6359881162643433
v -0.05601334944367409 0.02075427584350109 0.6318698525428772
v -0.05047493427991867 0.021067999303340912 0.6336222290992737
v -0.05163983255624771 0.018345322459936142 0.6383880376815796
v -0.05210857838392258 0.011190630495548248 0.6372354626655579
v -0.03258351981639862 0.010297178290784359 0.6428460478782654
v -0.03308158367872238 0.017488699406385422 0.6436135768890381
v -0.02646215260028839 0.007000161800533533 0.6274784803390503
v -0.027410753071308136 0.01118676271289587 0.6268529891967773
v -0.06114111840724945 0.008904821239411831 0.6238424181938171
v -0.05569443479180336 0.006640112027525902 0.6289193034172058
v -0.04487484693527222 0.014876468107104301 0.6189477443695068
v -0.046143561601638794 0.009742802008986473 0.6203052997589111
v -0.04884842410683632 0.011672990396618843 0.6177390217781067
v -0.04709533601999283 0.016351811587810516 0.6179959177970886
v -0.02925840951502323 0.00379768805578351 0.6380255222320557
v -0.02670537494122982 0.004680391866713762 0.6327565312385559
v -0.031471796333789825 0.005979287903755903 0.6403985619544983
v -0.04486774653196335 0.02080679126083851 0.6216379404067993
v -0.04615651071071625 0.02516314946115017 0.6267728209495544
v -0.02988874912261963 0.024107201024889946 0.6320613622665405
v -0.028968116268515587 0.01987054944038391 0.6277632117271423
v -0.05163789540529251 0.006851313170045614 0.6336795091629028
v -0.0481528639793396 0.006275540217757225 0.6241579651832581
v -0.050049468874931335 0.004846696276217699 0.6285394430160522
v -0.04886811971664429 0.02354532852768898 0.6340460181236267
v -0.04861791431903839 0.02387026883661747 0.6269047856330872
v -0.060088858008384705 0.03043101541697979 0.6174598932266235
v -0.05136305093765259 0.023734504356980324 0.6212655901908875
v -0.05154463276267052 0.020608898252248764 0.617215633392334
v -0.060271140187978745 0.028957678005099297 0.6127230525016785
v -0.047203179448843 0.020569520071148872 0.6214224100112915
v -0.05313572660088539 0.02425062097609043 0.6265581250190735
v -0.06964924931526184 0.019440293312072754 0.6115754842758179
v -0.06567467749118805 0.022939885035157204 0.6088651418685913
v -0.07189683616161346 0.018725553527474403 0.6152669787406921
v -0.03176198527216911 0.023338787257671356 0.6386922001838684
v -0.06997711211442947 0.02183123305439949 0.6249439120292664
v -0.07208706438541412 0.018868545070290565 0.6196056008338928
v -0.05296866595745087 0.016554594039916992 0.6153696179389954
v -0.06253892183303833 0.0266189556568861 0.6093677878379822
v -0.06137652322649956 0.030405906960368156 0.6217740178108215
v -0.06488783657550812 0.026584265753626823 0.6263379454612732
v -0.0649065226316452 0.03186163306236267 0.6198449730873108
v -0.06882400810718536 0.028443265706300735 0.6232948899269104
v -0.07437989860773087 0.023320073261857033 0.6212049126625061
v -0.07577016949653625 0.021267779171466827 0.6162611842155457
v -0.07475234568119049 0.02124061807990074 0.6125143766403198
v -0.06366391479969025 0.0327918604016304 0.6159648895263672
v -0.06371605396270752 0.032322801649570465 0.6112430095672607
v -0.06498484313488007 0.028451500460505486 0.6080878973007202
v -0.06797447800636292 0.03713629022240639 0.6136791110038757
v -0.07044650614261627 0.03679659217596054 0.6171410083770752
v -0.0878434032201767 0.03823069483041763 0.6123072504997253
v -0.08439666777849197 0.03377094864845276 0.6144845485687256
v -0.08336252719163895 0.03582374379038811 0.6159189939498901
v -0.08669373393058777 0.04001292586326599 0.6142450571060181
v -0.08034436404705048 0.030324406921863556 0.6182772517204285
v -0.080168217420578 0.03317027539014816 0.6180605292320251
v -0.07608473300933838 0.035013288259506226 0.6187715530395508
v -0.07984329760074615 0.03908324986696243 0.6164069175720215
v -0.07564955949783325 0.04118691384792328 0.6149978637695312
v -0.07911869883537292 0.04581410437822342 0.6140486001968384
v -0.08344714343547821 0.043916791677474976 0.6155065894126892
v -0.07391030341386795 0.03783475607633591 0.6173125505447388
v -0.0878940224647522 0.04329489916563034 0.6132190227508545
v -0.08885973691940308 0.04357229173183441 0.6107677221298218
v -0.0743410587310791 0.032699909061193466 0.6199871897697449
v -0.07919482886791229 0.02486138418316841 0.6149376034736633
v -0.08454007655382156 0.03245624899864197 0.6116812825202942
v -0.08760067820549011 0.03800574690103531 0.6090756058692932
v -0.08787588775157928 0.04413064569234848 0.6079199314117432
v -0.08318869024515152 0.03293289244174957 0.6077775955200195
v -0.08610766381025314 0.03864894062280655 0.6063500642776489
v -0.08600085973739624 0.043778955936431885 0.6058720946311951
v -0.08047547936439514 0.034511007368564606 0.6043463945388794
v -0.08331594616174698 0.040235720574855804 0.6036784648895264
v -0.07385832071304321 0.02464795857667923 0.607435941696167
v -0.07721283286809921 0.023665616288781166 0.6106739640235901
v -0.08425331115722656 0.04287315160036087 0.6044251322746277
v -0.08646421879529953 0.04777347296476364 0.611812174320221
v -0.08580069243907928 0.047813400626182556 0.6084111332893372
v -0.08588682115077972 0.04683465510606766 0.6134000420570374
v -0.07404178380966187 0.04188772290945053 0.613874614238739
v -0.07810884714126587 0.04661921411752701 0.612129271030426
v -0.07262817025184631 0.04240989685058594 0.611609160900116
v -0.07751081883907318 0.047375164926052094 0.6098726391792297
v -0.0818791538476944 0.04930936545133591 0.6113660931587219
v -0.08258786052465439 0.048564933240413666 0.6128824949264526
v -0.07173879444599152 0.02194513939321041 0.6094825863838196
v -0.06758735328912735 0.024944055825471878 0.6076766848564148
v -0.06934797763824463 0.027570081874728203 0.6059232950210571
v -0.076339952647686 0.037233442068099976 0.6033696532249451
v -0.066491037607193 0.03126561641693115 0.6070459485054016
v -0.06694662570953369 0.03607075661420822 0.6105074286460876
v -0.07190576940774918 0.04172905534505844 0.6089860200881958
v -0.07322487235069275 0.040213584899902344 0.6055279970169067
v -0.07667113095521927 0.04714052379131317 0.6077708005905151
v -0.07652673125267029 0.044630780816078186 0.6054974794387817
v -0.07984261214733124 0.04206794500350952 0.6031968593597412
v -0.08083394169807434 0.04914291948080063 0.607239842414856
v -0.0815618485212326 0.04964068531990051 0.6095758676528931
v -0.08462842553853989 0.04699241369962692 0.606537938117981
v -0.07968943566083908 0.046950988471508026 0.605352520942688
v -0.08272144198417664 0.04511887580156326 0.6045120358467102
v -0.038914263248443604 0.030233537778258324 0.6269579529762268
v -0.03953997418284416 0.02936880849301815 0.621645450592041
v -0.03767881169915199 0.022631563246250153 0.6211013793945312
v -0.0368170440196991 0.024145087227225304 0.62673419713974
v -0.02635488100349903 0.033575527369976044 0.6288504600524902
v -0.030931148678064346 0.032643482089042664 0.6307520270347595
v -0.029641123488545418 0.028508272022008896 0.6306949853897095
v -0.024433422833681107 0.029101265594363213 0.6285094022750854
v -0.024209093302488327 0.03574433550238609 0.6242722868919373
v -0.022073660045862198 0.030287645757198334 0.6234774589538574
v -0.020520053803920746 0.02809266559779644 0.6281519532203674
v -0.026245949789881706 0.02594941109418869 0.6303735375404358
v -0.01565372757613659 0.016993748024106026 0.6278741955757141
v -0.010864365845918655 0.02165757305920124 0.6253247261047363
v -0.03548033535480499 0.03146057575941086 0.6296520233154297
v -0.033882852643728256 0.026746267452836037 0.6298189163208008
v -0.03093522973358631 0.0215583648532629 0.61284339427948
v -0.03296231850981712 0.01926647499203682 0.6165657043457031
v -0.03612606227397919 0.02394375577569008 0.615985095500946
v -0.03343132883310318 0.026056241244077682 0.6133362054824829
v -0.02024723030626774 0.0077120414935052395 0.6241456866264343
v -0.01911023072898388 0.006674943491816521 0.6181331872940063
v -0.019713062793016434 0.012301858514547348 0.6270965337753296
v -0.02619999833405018 0.025305137038230896 0.6119626760482788
v -0.020578153431415558 0.02878233976662159 0.6151555180549622
v -0.012500464916229248 0.021488144993782043 0.6119884848594666
v -0.015875965356826782 0.016465770080685616 0.6104039549827576
v -0.030235832557082176 0.023203928023576736 0.6300293803215027
v -0.033577896654605865 0.018162671476602554 0.6214176416397095
v -0.033230528235435486 0.01988200843334198 0.6270799040794373
v -0.018874356523156166 0.029611146077513695 0.6223444938659668
v -0.023768477141857147 0.03004874661564827 0.6169499754905701
v -0.031806930899620056 0.04983196407556534 0.6169164180755615
v -0.029435675591230392 0.03320220112800598 0.6138370037078857
v -0.034816548228263855 0.03209523856639862 0.6141194105148315
v -0.03586975485086441 0.04969225078821182 0.6157892346382141
v -0.02882840856909752 0.02874743565917015 0.6129058003425598
v -0.024900520220398903 0.03493849188089371 0.6177879571914673
v -0.04247117042541504 0.04782523214817047 0.6268548369407654
v -0.04268403351306915 0.047341518104076385 0.621601939201355
v -0.0394182913005352 0.04681170731782913 0.6295523047447205
v -0.009196475148200989 0.023989766836166382 0.6188172698020935
v -0.01814625784754753 0.01014826912432909 0.612079381942749
v -0.032508693635463715 0.04819769412279129 0.6299915313720703
v -0.03643851727247238 0.04728267341852188 0.630662739276886
v -0.03769967705011368 0.030279306694865227 0.6167128682136536
v -0.040047865360975266 0.048625648021698 0.6171913743019104
v -0.028793752193450928 0.04928837716579437 0.6202836632728577
v -0.028289854526519775 0.04849712550640106 0.6260013580322266
v -0.030209893360733986 0.053054340183734894 0.6199519634246826
v -0.029968630522489548 0.05211644619703293 0.6256532073020935
v -0.033566784113645554 0.05247068405151367 0.6299668550491333
v -0.03744646534323692 0.052169330418109894 0.6305380463600159
v -0.040526725351810455 0.051991961896419525 0.6293708086013794
v -0.032748132944107056 0.05436607450246811 0.6168463230133057
v -0.0363566093146801 0.05476707965135574 0.6160757541656494
v -0.04041044041514397 0.05170711874961853 0.6174652576446533
v -0.03316671401262283 0.05877527594566345 0.6171343326568604
v -0.029906103387475014 0.05965863913297653 0.6209668517112732
v -0.03437304124236107 0.0716690644621849 0.6315845251083374
v -0.034647852182388306 0.06596744060516357 0.6311453580856323
v -0.03363490849733353 0.06620439887046814 0.6304407715797424
v -0.03274667263031006 0.07185954600572586 0.6309346556663513
v -0.0330045223236084 0.05932861566543579 0.6301840543746948
v -0.032287709414958954 0.06147466599941254 0.6295415759086609
v -0.03034801222383976 0.060621485114097595 0.6264573335647583
v -0.02989850379526615 0.06712676584720612 0.6268061995506287
v -0.030700214207172394 0.06680947542190552 0.620937168598175
v -0.030297240242362022 0.07173197716474533 0.621991753578186
v -0.02937597781419754 0.0724235400557518 0.6274664998054504
v -0.029878875240683556 0.06161414086818695 0.6222996115684509
v -0.0321417897939682 0.07488224655389786 0.6301397085189819
v -0.033166877925395966 0.07565554231405258 0.6315160393714905
v -0.03033865988254547 0.05805480480194092 0.6261534094810486
v -0.03719767928123474 0.05766454339027405 0.6312528252601624
v -0.03748214989900589 0.06568410247564316 0.6315938234329224
v -0.037559378892183304 0.0716632828116417 0.6321093440055847
v -0.036722976714372635 0.07558102160692215 0.6304807066917419
v -0.04072123393416405 0.0655602365732193 0.6296167969703674
v -0.039977893233299255 0.07121407240629196 0.6300181746482849
v -0.039191730320453644 0.07477592676877975 0.6286607384681702
v -0.04248105362057686 0.06533043831586838 0.6269733905792236
v -0.041547954082489014 0.07068731635808945 0.6272056102752686
v -0.04287656396627426 0.05443368852138519 0.6264424920082092
v -0.04059937223792076 0.055978722870349884 0.6296609044075012
v -0.04030440375208855 0.07375519722700119 0.6269524097442627
v -0.03130370005965233 0.07717172056436539 0.6274341940879822
v -0.03513481840491295 0.07773283869028091 0.6257272362709045
v -0.030692728236317635 0.07559259980916977 0.627500057220459
v -0.03124779276549816 0.0660838708281517 0.6193042397499084
v -0.031318262219429016 0.07263440638780594 0.6199803948402405
v -0.033487096428871155 0.06566260010004044 0.6177265048027039
v -0.033702924847602844 0.07243333011865616 0.6185010671615601
v -0.030977163463830948 0.07593422383069992 0.6224420070648193
v -0.030443813651800156 0.07523145526647568 0.6233302354812622
v -0.0427699014544487 0.05096609890460968 0.626194417476654
v -0.042836207896471024 0.050815142691135406 0.6213639378547668
v -0.04313313215970993 0.054419517517089844 0.621799647808075
v -0.04249250888824463 0.0659915879368782 0.6227267384529114
v -0.04079001769423485 0.05510982871055603 0.6179361939430237
v -0.03640638291835785 0.059285975992679596 0.616546094417572
v -0.03659236058592796 0.06578348577022552 0.617748498916626
v -0.039853572845458984 0.06615733355283737 0.6192305684089661
v -0.0364120751619339 0.07193303853273392 0.6185838580131531
v -0.03869021683931351 0.07078061252832413 0.6198252439498901
v -0.04174578934907913 0.07112529128789902 0.623367190361023
v -0.03633081912994385 0.07510992139577866 0.6210219860076904
v -0.03350360691547394 0.07608000189065933 0.6211251616477966
v -0.037979207932949066 0.07651308923959732 0.6248690485954285
v -0.038533635437488556 0.07381255179643631 0.6213339567184448
v -0.03979871794581413 0.07470672577619553 0.6242625713348389
v -0.018635006621479988 0.0072822305373847485 0.6139978170394897
v -0.017143402248620987 0.016431057825684547 0.5729750394821167
v -0.013911711052060127 0.014796188101172447 0.5711479783058167
v -0.012917539104819298 0.011375904083251953 0.5733178853988647
v -0.016604715958237648 0.012076802551746368 0.5751714110374451
v -0.014295080676674843 0.02337641455233097 0.5811232924461365
v -0.01739397458732128 0.021378399804234505 0.578667402267456
v -0.01772582158446312 0.01847940869629383 0.5816472768783569
v -0.014971617609262466 0.020903032273054123 0.5836561322212219
v -0.009766275063157082 0.024023642763495445 0.5806484818458557
v -0.010317593812942505 0.02120734564960003 0.5825386643409729
v -0.01389449741691351 0.018807537853717804 0.5856119394302368
v -0.01639711484313011 0.014964216388761997 0.584795355796814
v -0.006183706223964691 0.009283107705414295 0.5994276404380798
v -0.0021511800587177277 0.012945471331477165 0.599357008934021
v 0.0095096156001091 -6.890622898936272e-05 0.5921162962913513
v 0.006228923797607422 -0.004223219119012356 0.5953496694564819
v 0.00122041255235672 0.00026442576199769974 0.5890281200408936
v 0.004867006093263626 0.003653997555375099 0.5881208777427673
v -0.01819668337702751 0.01884325221180916 0.5757626891136169
v -0.018517181277275085 0.014967875555157661 0.5783931612968445
v -0.002432689070701599 0.011130064725875854 0.5767343044281006
v -0.006279356777667999 0.008341602981090546 0.5761298537254333
v -0.008858026936650276 0.010430432856082916 0.5725582838058472
v -0.004820605739951134 0.011737208813428879 0.5731956958770752
v 0.0014444924890995026 -0.0037162303924560547 0.5983129143714905
v -0.002320077270269394 -0.0019548190757632256 0.601632833480835
v -0.005651460960507393 -0.0007295906543731689 0.5970547795295715
v -0.0029590781778097153 -0.0005881329998373985 0.5912891626358032
v -0.009269874542951584 0.0032436875626444817 0.5987263917922974
v -0.0014155544340610504 0.01494256965816021 0.5783294439315796
v -0.003440067172050476 0.01875796541571617 0.5815094709396362
v 0.007977444678544998 0.012123879045248032 0.5919824838638306
v 0.007726404815912247 0.007790869101881981 0.5902590155601501
v -0.017543312162160873 0.011179283261299133 0.5822232961654663
v -0.010594246909022331 0.007774341851472855 0.57697993516922
v -0.014994374476373196 0.007794083096086979 0.5790988802909851
v -0.008858520537614822 0.021017080172896385 0.583459734916687
v -0.005024082958698273 0.018976369872689247 0.5798082947731018
v -0.004221497103571892 0.024722786620259285 0.5681137442588806
v -0.0032514426857233047 0.017648864537477493 0.5738235116004944
v -0.005811953917145729 0.01514856331050396 0.5705671310424805
v -0.005755137652158737 0.02334641106426716 0.5660959482192993
v -0.0031996536999940872 0.014841334894299507 0.5758920907974243
v -0.004749935120344162 0.021730663254857063 0.5778816342353821
v -0.017437923699617386 0.023451481014490128 0.5669176578521729
v -0.01310661993920803 0.021567175164818764 0.5650981068611145
v -0.018410101532936096 0.025142446160316467 0.5693978071212769
v 0.0031567495316267014 0.015298405662178993 0.5960346460342407
v -0.014765925705432892 0.0291934534907341 0.5741648077964783
v -0.017920881509780884 0.0275884997099638 0.5716671347618103
v -0.010082967579364777 0.014360714703798294 0.5701066255569458
v -0.0089497659355402 0.021948905661702156 0.5650809407234192
v -0.00490977056324482 0.02722894586622715 0.5713787078857422
v -0.009336782619357109 0.029519304633140564 0.5747109651565552
v -0.0051340144127607346 0.030551746487617493 0.5690231919288635
v -0.009997183457016945 0.031965240836143494 0.5724049806594849
v -0.015797344967722893 0.03194606676697731 0.5710870027542114
v -0.018157241865992546 0.029736991971731186 0.5692810416221619
v -0.01870979741215706 0.027553604915738106 0.5670276880264282
v -0.00431431457400322 0.028060246258974075 0.5656718015670776
v -0.005819883197546005 0.026195969432592392 0.5637584924697876
v -0.009053897112607956 0.024057883769273758 0.5628838539123535
v -0.004602126777172089 0.03152235597372055 0.5630638599395752
v -0.006021261215209961 0.03544282540678978 0.5654541254043579
v -0.016558796167373657 0.04067990928888321 0.5588812828063965
v -0.016626857221126556 0.0381026566028595 0.5618414878845215
v -0.015640921890735626 0.03863012045621872 0.5623301863670349
v -0.016140136867761612 0.04152286797761917 0.5595569014549255
v -0.01555914431810379 0.03573235869407654 0.5664113759994507
v -0.014373779296875 0.036759015172719955 0.5657779574394226
v -0.010994978249073029 0.03635380417108536 0.566871166229248
v -0.011624820530414581 0.03983175754547119 0.5631833076477051
v -0.006867993623018265 0.03896384686231613 0.5609819293022156
v -0.00791078433394432 0.041758134961128235 0.5583102107048035
v -0.011885911226272583 0.04250781983137131 0.5606814026832581
v -0.007319655269384384 0.03700912743806839 0.5650501847267151
v -0.015418916940689087 0.043627820909023285 0.5581925511360168
v -0.016117945313453674 0.04394466429948807 0.5570632219314575
v -0.010980404913425446 0.035532496869564056 0.5683900713920593
v -0.018241796642541885 0.0325697585940361 0.5655285120010376
v -0.018131621181964874 0.03711327910423279 0.5602043867111206
v -0.017624087631702423 0.04070083796977997 0.5568962097167969
v -0.015801623463630676 0.04319453239440918 0.5550116896629333
v -0.01816564053297043 0.03467719256877899 0.5592113733291626
v -0.017722588032484055 0.03911564499139786 0.555199384689331
v -0.015795733779668808 0.0414438471198082 0.5533897876739502
v -0.016868188977241516 0.03211277723312378 0.5575932264328003
v -0.01635795831680298 0.03695709630846977 0.5543363094329834
v -0.01677590236067772 0.026766592636704445 0.5623711347579956
v -0.018317289650440216 0.02964056469500065 0.5639591217041016
v -0.015183057636022568 0.039701350033283234 0.5533509850502014
v -0.012532193213701248 0.045059531927108765 0.5566352605819702
v -0.012753486633300781 0.04374115169048309 0.5540784597396851
v -0.012075241655111313 0.04478207230567932 0.5579702854156494
v -0.005946464836597443 0.038075849413871765 0.5603652000427246
v -0.007188141345977783 0.04137685149908066 0.5569528937339783
v -0.005457613617181778 0.03606367111206055 0.5587137341499329
v -0.007366307079792023 0.0400935634970665 0.555204451084137
v -0.009251430630683899 0.043861620128154755 0.555713415145874
v -0.00962137058377266 0.04370782524347305 0.5574709177017212
v -0.017173707485198975 0.025279926136136055 0.5643088221549988
v -0.013501457870006561 0.023520387709140778 0.5633291602134705
v -0.013033637776970863 0.0253854151815176 0.5613200664520264
v -0.013550862669944763 0.03065217100083828 0.5564553737640381
v -0.008610744029283524 0.02608233131468296 0.5610070824623108
v -0.005725137889385223 0.02868056483566761 0.5618429780006409
v -0.00671352818608284 0.033894315361976624 0.557330310344696
v -0.009306143969297409 0.031865186989307404 0.5562301874160767
v -0.008524477481842041 0.038736261427402496 0.5538482069969177
v -0.010684840381145477 0.03665977343916893 0.5531721711158752
v -0.013695836067199707 0.03575073555111885 0.553347647190094
v -0.010933801531791687 0.041384898126125336 0.5530093908309937
v -0.010017946362495422 0.04283078759908676 0.5538219213485718
v -0.01304764673113823 0.04192335158586502 0.5530493855476379
v -0.01188638061285019 0.03969697654247284 0.5525753498077393
v -0.013423293828964233 0.0395737886428833 0.5527502298355103
v 0.009425286203622818 0.0040614306926727295 0.5912149548530579
v -0.004933187738060951 0.0020319968461990356 0.6765256524085999
v -0.004064060747623444 -0.0003618495538830757 0.6714642643928528
v -0.0028642211109399796 -0.016319414600729942 0.6739475131034851
v -0.00391225703060627 -0.011471102014183998 0.6690546274185181
v -0.003044143319129944 -0.01711263880133629 0.6807272434234619
v -0.0037986263632774353 -0.00958279985934496 0.6885510683059692
v -0.0023674778640270233 -0.01423771120607853 0.685768187046051
v -0.004176216199994087 -0.005566075444221497 0.6682668924331665
v -0.004926025867462158 0.0018183160573244095 0.6823985576629639
v -0.004267890006303787 -0.002745245583355427 0.6878841519355774
v -0.014192912727594376 0.0025260625407099724 0.6806249022483826
v -0.014320693910121918 -0.003021104261279106 0.6869009733200073
v -0.01440073549747467 -0.009922550991177559 0.6882433295249939
v -0.010628478601574898 -0.015682244673371315 0.684681236743927
v -0.009217998012900352 -0.01836611144244671 0.6804829239845276
v -0.010881084948778152 0.0011363080702722073 0.673843502998352
v -0.00907042995095253 -0.001587485894560814 0.6693803071975708
v -0.007654426619410515 -0.007753479294478893 0.6672382354736328
v -0.0167100727558136 -0.0013919421471655369 0.6687601804733276
v -0.025716472417116165 -0.0051170215010643005 0.6702578067779541
v -0.0350540466606617 -0.02225448377430439 0.6731506586074829
v -0.02920377627015114 -0.02022574469447136 0.6763476133346558
v -0.03058556839823723 -0.017863066866993904 0.675629198551178
v -0.03604714199900627 -0.01983676292002201 0.6732165217399597
v -0.02616671845316887 -0.015981150791049004 0.6789602041244507
v -0.027467776089906693 -0.015036970376968384 0.6771767735481262
v -0.02686070278286934 -0.010179340839385986 0.6752183437347412
v -0.03179087117314339 -0.01233944483101368 0.672699511051178
v -0.027098577469587326 -0.00764879584312439 0.6707125902175903
v -0.03002576157450676 -0.009128510020673275 0.6677641868591309
v -0.036674004048109055 -0.014158567413687706 0.6702240109443665
v -0.03965147212147713 -0.019139355048537254 0.6713389158248901
v -0.04065984860062599 -0.01592268981039524 0.668029248714447
v -0.03942712023854256 -0.02197215147316456 0.6698134541511536
v -0.027328625321388245 -0.007853463292121887 0.6775914430618286
v -0.020085293799638748 -0.018440593034029007 0.6812465190887451
v -0.026346344500780106 -0.022476570680737495 0.6762833595275879
v -0.03261476382613182 -0.024698233231902122 0.6716659665107727
v -0.03752506896853447 -0.0237320214509964 0.6677719354629517
v -0.02329259365797043 -0.02409699372947216 0.6735031604766846
v -0.029152754694223404 -0.02500937692821026 0.6689996123313904
v -0.03329597786068916 -0.023581380024552345 0.6651440262794495
v -0.02081669121980667 -0.023276817053556442 0.6693111658096313
v -0.026947077363729477 -0.023423438891768456 0.6659951210021973
v -0.010451897978782654 -0.01904989592730999 0.673623263835907
v -0.014147303998470306 -0.020433828234672546 0.6788607239723206
v -0.03073197975754738 -0.022598939016461372 0.6643027663230896
v -0.04156562313437462 -0.01764383353292942 0.6657874584197998
v -0.03927614167332649 -0.01946301944553852 0.6635170578956604
v -0.028062205761671066 -0.007475965656340122 0.665435254573822
v -0.034831706434488297 -0.01045353151857853 0.6654785871505737
v -0.033204663544893265 -0.010354550555348396 0.6629101634025574
v -0.024698372930288315 -0.007274512201547623 0.6632354855537415
v -0.03136326000094414 -0.011097213253378868 0.660862386226654
v -0.03828031197190285 -0.013257069513201714 0.6627331972122192
v -0.038497988134622574 -0.012572221457958221 0.6655417084693909
v -0.00722946971654892 -0.017870880663394928 0.674529492855072
v -0.00653599388897419 -0.013503743335604668 0.6697169542312622
v -0.009113367646932602 -0.014472460374236107 0.6689379215240479
v -0.018943771719932556 -0.018757076933979988 0.6646186113357544
v -0.01046735793352127 -0.009520161896944046 0.6656022071838379
v -0.01356372982263565 -0.004313294775784016 0.6660406589508057
v -0.02211509272456169 -0.009313294664025307 0.6614924669265747
v -0.01968412846326828 -0.013380339369177818 0.6617371439933777
v -0.028861116617918015 -0.013576213270425797 0.6600489020347595
v -0.02710862085223198 -0.016007890924811363 0.6606708765029907
v -0.026457522064447403 -0.020382186397910118 0.6627495884895325
v -0.03320683166384697 -0.01665670797228813 0.6604019403457642
v -0.03613811358809471 -0.014592628926038742 0.6607117652893066
v -0.034873273223638535 -0.02036338858306408 0.6621854901313782
v -0.030691571533679962 -0.01762869767844677 0.6609300374984741
v -0.031232450157403946 -0.020420076325535774 0.6622800827026367
v 0.011150188744068146 -0.006431568413972855 0.598077654838562
v 0.007061958312988281 -0.007135610096156597 0.6032440662384033
v 0.014290791004896164 -0.008882406167685986 0.6043857932090759
v 0.024321183562278748 -0.009673342108726501 0.6067661046981812
v 0.03470922261476517 -0.008001768961548805 0.6037015914916992
v 0.022405754774808884 -0.008697242476046085 0.6131755113601685
v 0.012248896062374115 -0.008009790442883968 0.6103752851486206
v 0.0016366038471460342 -0.00511001143604517 0.6085315942764282
v 0.028877608478069305 -0.006808497942984104 0.6213086247444153
f 2 3 1
f 1 3 4
f 5 6 8
f 8 6 7
f 9 4 10
f 10 4 3
f 12 13 11
f 11 13 9
f 14 12 16
f 16 12 15
f 18 19 17
f 17 19 20
f 22 23 21
f 21 23 24
f 26 27 25
f 25 27 28
f 30 31 29
f 29 31 32
f 33 34 36
f 36 34 35
f 37 38 40
f 40 38 39
f 41 42 6
f 6 42 43
f 6 43 7
f 7 43 44
f 45 34 46
f 46 34 33
f 48 49 47
f 47 49 50
f 52 53 51
f 51 53 54
f 56 52 55
f 55 52 51
f 58 59 57
f 57 59 60
f 61 62 4
f 4 62 1
f 64 65 63
f 63 65 66
f 68 69 67
f 67 69 70
f 72 73 71
f 71 73 74
f 76 77 75
f 75 77 78
f 53 79 54
f 54 79 80
f 82 83 81
f 81 83 84
f 85 86 52
f 52 86 53
f 57 60 87
f 87 60 88
f 89 90 43
f 43 90 44
f 43 42 89
f 89 42 91
f 40 39 92
f 92 39 93
f 94 70 64
f 64 70 69
f 13 61 9
f 9 61 4
f 25 28 69
f 69 28 95
f 96 25 68
f 68 25 69
f 98 99 97
f 97 99 100
f 101 102 104
f 104 102 103
f 106 30 105
f 105 30 29
f 51 54 107
f 107 54 108
f 54 80 108
f 108 80 109
f 111 112 110
f 110 112 113
f 115 5 114
f 114 5 116
f 115 41 5
f 5 41 6
f 36 35 111
f 111 35 117
f 35 118 117
f 117 118 119
f 34 120 35
f 35 120 118
f 34 45 120
f 120 45 121
f 125 126 124
f 124 126 127
f 128 129 14
f 14 129 130
f 33 131 46
f 46 131 132
f 133 94 63
f 63 94 64
f 134 135 137
f 137 135 136
f 139 140 138
f 138 140 141
f 77 142 78
f 78 142 143
f 144 145 20
f 20 145 146
f 148 149 147
f 147 149 72
f 151 152 150
f 150 152 153
f 82 101 83
f 83 101 104
f 101 82 155
f 155 82 154
f 156 157 58
f 58 157 59
f 158 68 147
f 147 68 67
f 159 146 15
f 15 146 16
f 68 158 96
f 96 158 160
f 129 66 130
f 130 66 65
f 162 163 161
f 161 163 164
f 166 167 165
f 165 167 168
f 170 171 169
f 169 171 172
f 174 171 173
f 173 171 170
f 176 177 175
f 175 177 178
f 180 181 179
f 179 181 24
f 182 183 21
f 21 183 184
f 81 185 82
f 82 185 154
f 186 187 188
f 188 187 144
f 158 71 160
f 160 71 189
f 190 135 157
f 157 135 59
f 169 172 139
f 139 172 140
f 147 72 158
f 158 72 71
f 192 193 191
f 191 193 194
f 167 166 49
f 49 166 195
f 196 190 50
f 50 190 157
f 197 198 200
f 200 198 199
f 21 24 182
f 182 24 181
f 146 159 20
f 20 159 17
f 182 181 81
f 81 181 185
f 201 185 180
f 180 185 181
f 202 203 83
f 83 203 84
f 205 206 204
f 204 206 85
f 207 22 184
f 184 22 21
f 179 24 208
f 208 24 23
f 208 209 179
f 179 209 205
f 209 210 205
f 205 210 206
f 212 206 211
f 211 206 210
f 179 205 180
f 180 205 204
f 213 176 88
f 88 176 214
f 86 85 212
f 212 85 206
f 193 217 218
f 217 219 218
f 218 219 220
f 219 18 220
f 220 18 17
f 19 221 20
f 20 221 144
f 222 223 225
f 225 223 224
f 175 226 176
f 176 226 214
f 227 87 214
f 214 87 88
f 220 17 228
f 228 17 159
f 134 213 60
f 60 213 88
f 138 229 151
f 151 229 152
f 193 192 210
f 210 192 211
f 230 194 218
f 218 194 193
f 231 232 228
f 228 232 230
f 233 234 91
f 91 234 89
f 235 236 93
f 93 236 92
f 230 232 234
f 234 232 237
f 47 238 48
f 48 238 239
f 240 191 235
f 235 191 236
f 5 8 116
f 116 8 241
f 242 243 189
f 189 243 160
f 244 245 98
f 98 245 99
f 156 246 47
f 47 246 238
f 76 247 77
f 77 247 248
f 250 125 249
f 249 125 124
f 252 253 251
f 251 253 254
f 111 110 36
f 36 110 255
f 256 33 255
f 255 33 36
f 257 258 154
f 154 258 155
f 63 169 133
f 133 169 139
f 66 170 63
f 63 170 169
f 173 170 129
f 129 170 66
f 129 128 173
f 173 128 259
f 128 260 259
f 259 260 261
f 213 134 262
f 262 134 137
f 263 264 186
f 186 264 187
f 112 265 113
f 113 265 266
f 11 267 268
f 234 233 230
f 230 233 194
f 153 269 70
f 70 269 67
f 175 178 165
f 165 178 141
f 150 153 94
f 94 153 70
f 271 221 270
f 270 221 207
f 269 153 272
f 272 153 152
f 121 45 109
f 109 45 108
f 47 50 156
f 156 50 157
f 57 273 58
f 58 273 274
f 145 275 260
f 260 275 261
f 276 149 143
f 143 149 78
f 148 269 75
f 75 269 272
f 207 277 270
f 270 277 278
f 195 196 49
f 49 196 50
f 59 135 60
f 60 135 134
f 83 104 202
f 202 104 279
f 149 148 78
f 78 148 75
f 247 278 248
f 248 278 277
f 183 182 84
f 84 182 81
f 48 239 281
f 281 239 282
f 227 223 283
f 283 223 222
f 223 226 224
f 224 226 168
f 281 282 224
f 224 282 225
f 165 168 175
f 175 168 226
f 264 263 138
f 138 263 229
f 14 16 128
f 128 16 260
f 220 228 218
f 218 228 230
f 87 227 284
f 284 227 283
f 260 16 145
f 145 16 146
f 244 98 258
f 258 98 155
f 58 274 156
f 156 274 246
f 107 285 51
f 51 285 55
f 243 286 160
f 160 286 96
f 234 237 89
f 89 237 90
f 46 132 107
f 107 132 285
f 253 252 249
f 249 252 250
f 286 26 96
f 96 26 25
f 106 105 287
f 287 105 288
f 272 152 289
f 289 152 229
f 138 151 139
f 139 151 133
f 183 290 161
f 161 290 162
f 291 292 277
f 277 292 293
f 151 150 133
f 133 150 94
f 262 275 177
f 177 275 187
f 144 187 145
f 145 187 275
f 273 57 284
f 284 57 87
f 174 136 190
f 190 136 135
f 111 117 112
f 112 117 38
f 117 119 38
f 38 119 123
f 112 38 265
f 265 38 37
f 287 288 254
f 254 288 251
f 228 159 231
f 231 159 15
f 223 227 226
f 226 227 214
f 147 67 148
f 148 67 269
f 224 168 281
f 281 168 167
f 199 163 200
f 200 163 162
f 45 46 108
f 108 46 107
f 281 167 48
f 48 167 49
f 161 164 291
f 291 164 292
f 38 123 39
f 293 294 277
f 277 294 248
f 284 283 296
f 296 283 295
f 284 296 273
f 273 296 297
f 274 273 298
f 298 273 297
f 246 274 299
f 299 274 298
f 283 222 295
f 295 222 300
f 222 225 300
f 300 225 301
f 301 225 302
f 302 225 282
f 303 304 300
f 300 304 295
f 306 307 305
f 305 307 308
f 309 310 308
f 308 310 305
f 308 307 312
f 312 307 311
f 313 314 312
f 312 314 315
f 311 316 312
f 312 316 313
f 317 304 311
f 311 304 316
f 315 309 312
f 312 309 308
f 318 319 321
f 321 319 320
f 319 318 309
f 309 318 310
f 311 307 317
f 317 307 306
f 306 297 317
f 317 297 296
f 306 322 297
f 297 322 298
f 305 323 306
f 306 323 322
f 323 305 324
f 324 305 310
f 304 317 295
f 295 317 296
f 318 325 310
f 310 325 324
f 323 324 326
f 326 324 327
f 324 325 327
f 327 325 328
f 326 327 329
f 329 327 330
f 329 331 326
f 326 331 332
f 333 330 328
f 328 330 327
f 323 326 322
f 322 326 332
f 322 332 298
f 298 332 299
f 325 318 334
f 334 318 321
f 313 316 335
f 335 316 304
f 335 336 313
f 313 336 314
f 304 303 335
f 335 303 337
f 336 335 338
f 338 335 337
f 336 339 314
f 314 339 340
f 246 299 238
f 238 299 341
f 239 342 282
f 282 342 302
f 342 239 341
f 341 239 238
f 341 331 342
f 342 331 343
f 331 329 343
f 343 329 344
f 342 343 302
f 302 343 345
f 341 299 331
f 331 299 332
f 346 301 345
f 345 301 302
f 346 303 301
f 301 303 300
f 347 337 346
f 346 337 303
f 347 346 348
f 348 346 345
f 349 347 350
f 350 347 348
f 343 344 345
f 345 344 348
f 344 351 348
f 348 351 350
f 337 347 338
f 338 347 349
f 353 338 352
f 352 338 349
f 352 355 354
f 354 355 356
f 352 349 355
f 355 349 350
f 352 354 353
f 353 354 334
f 353 334 339
f 339 334 321
f 339 336 353
f 353 336 338
f 329 330 344
f 344 330 351
f 356 351 333
f 333 351 330
f 356 355 351
f 351 355 350
f 354 356 328
f 328 356 333
f 328 325 354
f 354 325 334
f 309 315 319
f 319 315 320
f 320 340 321
f 321 340 339
f 320 315 340
f 340 315 314
f 137 136 261
f 261 136 259
f 140 166 141
f 141 166 165
f 172 171 195
f 195 171 196
f 171 174 196
f 196 174 190
f 178 177 264
f 264 177 187
f 172 195 140
f 140 195 166
f 137 261 262
f 262 261 275
f 178 264 141
f 141 264 138
f 262 177 213
f 213 177 176
f 136 174 259
f 259 174 173
f 358 359 357
f 357 359 360
f 362 363 361
f 361 363 364
f 361 364 365
f 365 364 366
f 367 368 370
f 370 368 369
f 76 371 247
f 247 371 372
f 373 374 362
f 362 374 363
f 376 377 375
f 375 377 378
f 289 229 380
f 380 229 379
f 381 379 263
f 263 379 229
f 383 384 382
f 382 384 385
f 386 368 374
f 374 368 363
f 76 289 371
f 371 289 380
f 377 376 359
f 359 376 387
f 388 386 360
f 360 386 374
f 389 383 366
f 366 383 390
f 392 393 391
f 391 393 394
f 383 382 390
f 390 382 395
f 396 365 390
f 390 365 366
f 389 366 367
f 367 366 364
f 357 397 358
f 358 397 398
f 373 399 357
f 357 399 397
f 389 367 400
f 400 367 370
f 382 385 375
f 375 385 372
f 357 360 373
f 373 360 374
f 361 401 362
f 362 401 402
f 387 388 359
f 359 388 360
f 363 368 364
f 364 368 367
f 358 398 403
f 403 398 404
f 396 392 405
f 405 392 391
f 392 395 393
f 393 395 378
f 393 403 394
f 394 403 404
f 375 378 382
f 382 378 395
f 365 396 406
f 406 396 405
f 362 402 373
f 373 402 399
f 271 270 400
f 400 270 384
f 401 361 406
f 406 361 365
f 381 369 386
f 386 369 368
f 392 396 395
f 395 396 390
f 393 378 403
f 403 378 377
f 403 377 358
f 358 377 359
f 406 405 408
f 408 405 407
f 406 408 401
f 401 408 409
f 401 409 402
f 402 409 410
f 402 410 399
f 399 410 411
f 405 391 407
f 407 391 412
f 391 394 412
f 412 394 413
f 394 404 413
f 413 404 414
f 415 416 412
f 412 416 407
f 418 419 417
f 417 419 420
f 421 422 418
f 418 422 419
f 419 422 424
f 424 422 423
f 425 426 424
f 424 426 427
f 423 428 424
f 424 428 425
f 427 420 424
f 424 420 419
f 420 429 417
f 417 429 430
f 423 422 431
f 431 422 421
f 421 409 431
f 431 409 408
f 421 432 409
f 409 432 410
f 418 433 421
f 421 433 432
f 434 433 417
f 417 433 418
f 431 416 423
f 423 416 428
f 416 431 407
f 407 431 408
f 435 434 430
f 430 434 417
f 433 434 436
f 436 434 437
f 434 435 437
f 437 435 438
f 436 437 439
f 439 437 440
f 439 441 436
f 436 441 442
f 438 443 437
f 437 443 440
f 436 442 433
f 433 442 432
f 432 442 410
f 410 442 411
f 435 430 445
f 445 430 444
f 430 429 444
f 444 429 446
f 425 428 447
f 447 428 416
f 426 425 448
f 448 425 447
f 416 415 447
f 447 415 449
f 447 449 448
f 448 449 450
f 451 452 448
f 448 452 426
f 446 452 444
f 444 452 451
f 399 411 397
f 397 411 453
f 398 454 404
f 404 454 414
f 454 398 453
f 453 398 397
f 453 441 454
f 454 441 455
f 441 439 455
f 455 439 456
f 454 455 414
f 414 455 457
f 441 453 442
f 442 453 411
f 458 413 457
f 457 413 414
f 458 415 413
f 413 415 412
f 458 459 415
f 415 459 449
f 459 458 460
f 460 458 457
f 461 459 462
f 462 459 460
f 455 456 457
f 457 456 460
f 456 463 460
f 460 463 462
f 459 461 449
f 449 461 450
f 465 450 464
f 464 450 461
f 464 467 466
f 466 467 468
f 464 461 467
f 467 461 462
f 464 466 465
f 465 466 445
f 465 445 451
f 451 445 444
f 451 448 465
f 465 448 450
f 439 440 456
f 456 440 463
f 468 463 443
f 443 463 440
f 468 467 463
f 463 467 462
f 466 468 438
f 438 468 443
f 438 435 466
f 466 435 445
f 420 427 429
f 429 427 446
f 446 427 452
f 452 427 426
f 370 369 188
f 188 369 186
f 371 376 372
f 372 376 375
f 380 379 387
f 387 379 388
f 379 381 388
f 388 381 386
f 385 384 278
f 278 384 270
f 380 387 371
f 371 387 376
f 400 370 271
f 271 370 188
f 385 278 372
f 372 278 247
f 400 384 389
f 389 384 383
f 369 381 186
f 186 381 263
f 221 271 144
f 144 271 188
f 221 19 207
f 207 19 22
f 19 18 22
f 22 18 23
f 18 219 23
f 23 219 208
f 469 470 472
f 472 470 471
f 474 475 473
f 473 475 476
f 473 476 477
f 477 476 478
f 480 481 479
f 479 481 482
f 483 484 474
f 474 484 475
f 486 487 485
f 485 487 488
f 489 490 77
f 77 490 142
f 491 489 248
f 248 489 77
f 493 494 492
f 492 494 495
f 496 480 484
f 484 480 475
f 486 497 487
f 487 497 471
f 498 496 472
f 472 496 484
f 499 493 478
f 478 493 500
f 501 502 504
f 504 502 503
f 493 492 500
f 500 492 505
f 506 477 500
f 500 477 478
f 499 478 479
f 479 478 476
f 469 507 470
f 470 507 508
f 483 509 469
f 469 509 507
f 479 482 499
f 499 482 510
f 492 495 485
f 485 495 511
f 483 469 484
f 484 469 472
f 473 512 474
f 474 512 513
f 497 498 471
f 471 498 472
f 475 480 476
f 476 480 479
f 470 508 514
f 514 508 515
f 506 502 516
f 516 502 501
f 503 502 488
f 488 502 505
f 514 515 503
f 503 515 504
f 485 488 492
f 492 488 505
f 477 506 517
f 517 506 516
f 474 513 483
f 483 513 509
f 510 292 494
f 494 292 164
f 512 473 517
f 517 473 477
f 491 481 496
f 496 481 480
f 502 506 505
f 505 506 500
f 503 488 514
f 514 488 487
f 514 487 470
f 470 487 471
f 517 516 519
f 519 516 518
f 517 519 512
f 512 519 520
f 512 520 513
f 513 520 521
f 513 521 509
f 509 521 522
f 516 501 518
f 518 501 523
f 501 504 523
f 523 504 524
f 524 504 525
f 525 504 515
f 526 527 523
f 523 527 518
f 529 530 528
f 528 530 531
f 532 533 529
f 529 533 530
f 530 533 535
f 535 533 534
f 536 537 535
f 535 537 538
f 534 539 535
f 535 539 536
f 538 531 535
f 535 531 530
f 540 541 531
f 531 541 528
f 533 532 534
f 534 532 542
f 532 520 542
f 542 520 519
f 532 543 520
f 520 543 521
f 529 544 532
f 532 544 543
f 544 529 545
f 545 529 528
f 534 542 539
f 539 542 527
f 527 542 518
f 518 542 519
f 541 546 528
f 528 546 545
f 547 544 548
f 548 544 545
f 546 549 545
f 545 549 548
f 550 547 551
f 551 547 548
f 547 550 553
f 553 550 552
f 549 554 548
f 548 554 551
f 544 547 543
f 543 547 553
f 543 553 521
f 521 553 522
f 546 541 556
f 556 541 555
f 541 540 555
f 555 540 557
f 536 539 558
f 558 539 527
f 537 536 559
f 559 536 558
f 527 526 558
f 558 526 560
f 559 558 561
f 561 558 560
f 559 562 537
f 537 562 563
f 557 563 555
f 555 563 562
f 509 522 507
f 507 522 564
f 508 565 515
f 515 565 525
f 565 508 564
f 564 508 507
f 564 552 565
f 565 552 566
f 552 550 566
f 566 550 567
f 565 566 525
f 525 566 568
f 564 522 552
f 552 522 553
f 569 524 568
f 568 524 525
f 569 526 524
f 524 526 523
f 570 560 569
f 569 560 526
f 570 569 571
f 571 569 568
f 572 570 573
f 573 570 571
f 566 567 568
f 568 567 571
f 567 574 571
f 571 574 573
f 570 572 560
f 560 572 561
f 576 561 575
f 575 561 572
f 575 578 577
f 577 578 579
f 575 572 578
f 578 572 573
f 575 577 576
f 576 577 556
f 576 556 562
f 562 556 555
f 562 559 576
f 576 559 561
f 550 551 567
f 567 551 574
f 579 574 554
f 554 574 551
f 579 578 574
f 574 578 573
f 579 554 577
f 577 554 549
f 549 546 577
f 577 546 556
f 531 538 540
f 540 538 557
f 557 538 563
f 563 538 537
f 481 294 482
f 482 294 293
f 580 486 511
f 511 486 485
f 490 489 497
f 497 489 498
f 489 491 498
f 498 491 496
f 163 495 164
f 164 495 494
f 580 490 486
f 486 490 497
f 482 293 510
f 510 293 292
f 495 163 511
f 511 163 199
f 494 493 510
f 510 493 499
f 481 491 294
f 294 491 248
f 582 583 581
f 581 583 584
f 586 587 585
f 585 587 588
f 585 588 589
f 589 588 590
f 592 593 591
f 591 593 594
f 595 596 598
f 598 596 597
f 599 600 586
f 586 600 587
f 601 602 604
f 604 602 603
f 605 606 608
f 608 606 607
f 609 607 200
f 200 607 606
f 610 611 613
f 613 611 612
f 600 614 587
f 587 614 592
f 596 605 597
f 597 605 608
f 602 615 603
f 603 615 583
f 616 614 584
f 584 614 600
f 611 618 617
f 617 618 590
f 620 621 619
f 619 621 622
f 610 623 611
f 611 623 618
f 624 589 618
f 618 589 590
f 617 590 591
f 591 590 588
f 581 625 582
f 582 625 626
f 599 627 581
f 581 627 625
f 591 594 617
f 617 594 628
f 601 610 598
f 598 610 613
f 581 584 599
f 599 584 600
f 585 629 586
f 586 629 630
f 615 616 583
f 583 616 584
f 587 592 588
f 588 592 591
f 582 626 631
f 631 626 632
f 624 620 633
f 633 620 619
f 621 620 604
f 604 620 623
f 631 632 621
f 621 632 622
f 610 601 623
f 623 601 604
f 589 624 634
f 634 624 633
f 586 630 599
f 599 630 627
f 203 202 628
f 628 202 612
f 629 585 634
f 634 585 589
f 609 593 614
f 614 593 592
f 620 624 623
f 623 624 618
f 631 621 603
f 603 621 604
f 582 631 583
f 583 631 603
f 634 633 636
f 636 633 635
f 634 636 629
f 629 636 637
f 629 637 630
f 630 637 638
f 630 638 627
f 627 638 639
f 633 619 635
f 635 619 640
f 619 622 640
f 640 622 641
f 641 622 642
f 642 622 632
f 644 635 643
f 643 635 640
f 645 646 648
f 648 646 647
f 649 650 646
f 646 650 647
f 647 650 652
f 652 650 651
f 652 653 655
f 655 653 654
f 651 656 652
f 652 656 653
f 655 648 652
f 652 648 647
f 648 657 645
f 645 657 658
f 650 649 651
f 651 649 659
f 649 637 659
f 659 637 636
f 649 660 637
f 637 660 638
f 661 660 646
f 646 660 649
f 662 661 645
f 645 661 646
f 651 659 656
f 656 659 644
f 644 659 635
f 635 659 636
f 663 662 658
f 658 662 645
f 664 661 665
f 665 661 662
f 663 666 662
f 662 666 665
f 667 664 668
f 668 664 665
f 664 667 670
f 670 667 669
f 666 671 665
f 665 671 668
f 661 664 660
f 660 664 670
f 660 670 638
f 638 670 639
f 658 672 663
f 663 672 673
f 658 657 672
f 672 657 674
f 653 656 675
f 675 656 644
f 653 675 654
f 654 675 676
f 675 644 677
f 677 644 643
f 676 675 678
f 678 675 677
f 679 680 676
f 676 680 654
f 674 680 672
f 672 680 679
f 627 639 625
f 625 639 681
f 626 682 632
f 632 682 642
f 681 682 625
f 625 682 626
f 669 683 681
f 681 683 682
f 667 684 669
f 669 684 683
f 682 683 642
f 642 683 685
f 681 639 669
f 669 639 670
f 686 641 685
f 685 641 642
f 641 686 640
f 640 686 643
f 686 687 643
f 643 687 677
f 687 686 688
f 688 686 685
f 689 687 690
f 690 687 688
f 683 684 685
f 685 684 688
f 684 691 688
f 688 691 690
f 687 689 677
f 677 689 678
f 693 678 692
f 692 678 689
f 692 695 694
f 694 695 696
f 692 689 695
f 695 689 690
f 692 694 693
f 693 694 673
f 693 673 679
f 679 673 672
f 679 676 693
f 693 676 678
f 684 667 691
f 691 667 668
f 696 691 671
f 671 691 668
f 696 695 691
f 691 695 690
f 694 696 666
f 666 696 671
f 666 663 694
f 694 663 673
f 648 655 657
f 657 655 674
f 674 655 680
f 680 655 654
f 593 162 594
f 594 162 290
f 598 597 601
f 601 597 602
f 615 608 616
f 616 608 607
f 607 609 616
f 616 609 614
f 697 595 613
f 613 595 598
f 597 608 602
f 602 608 615
f 594 290 628
f 628 290 203
f 628 612 617
f 617 612 611
f 593 609 162
f 162 609 200
f 105 29 698
f 698 29 699
f 268 126 701
f 701 126 700
f 126 125 700
f 700 125 702
f 252 703 250
f 250 703 704
f 32 268 705
f 705 268 701
f 288 105 706
f 706 105 698
f 29 32 699
f 699 32 705
f 707 251 706
f 706 251 288
f 250 704 125
f 125 704 702
f 703 252 707
f 707 252 251
f 706 708 707
f 707 708 709
f 707 709 703
f 703 709 710
f 703 710 704
f 704 710 711
f 704 711 702
f 702 711 712
f 706 698 708
f 708 698 713
f 698 699 713
f 713 699 714
f 699 705 714
f 714 705 715
f 717 708 716
f 716 708 713
f 719 720 718
f 718 720 721
f 722 723 719
f 719 723 720
f 724 725 723
f 723 725 720
f 724 726 725
f 725 726 727
f 728 721 725
f 725 721 720
f 721 728 729
f 729 728 730
f 729 731 721
f 721 731 718
f 724 723 732
f 732 723 722
f 722 710 732
f 732 710 709
f 722 733 710
f 710 733 711
f 719 734 722
f 722 734 733
f 734 719 735
f 735 719 718
f 724 732 726
f 726 732 717
f 717 732 708
f 708 732 709
f 731 736 718
f 718 736 735
f 737 734 738
f 738 734 735
f 736 739 735
f 735 739 738
f 740 737 741
f 741 737 738
f 737 740 743
f 743 740 742
f 739 744 738
f 738 744 741
f 734 737 733
f 733 737 743
f 733 743 711
f 711 743 712
f 736 731 746
f 746 731 745
f 731 729 745
f 745 729 730
f 727 726 747
f 747 726 717
f 748 727 749
f 749 727 747
f 747 717 750
f 750 717 716
f 749 747 751
f 751 747 750
f 749 752 748
f 748 752 753
f 730 753 745
f 745 753 752
f 728 725 748
f 748 725 727
f 730 728 753
f 753 728 748
f 700 702 754
f 754 702 712
f 705 701 715
f 715 701 755
f 754 755 700
f 700 755 701
f 742 756 754
f 754 756 755
f 740 757 742
f 742 757 756
f 755 756 715
f 715 756 758
f 754 712 742
f 742 712 743
f 759 714 758
f 758 714 715
f 714 759 713
f 713 759 716
f 759 760 716
f 716 760 750
f 760 759 761
f 761 759 758
f 762 760 763
f 763 760 761
f 756 757 758
f 758 757 761
f 757 764 761
f 761 764 763
f 760 762 750
f 750 762 751
f 766 751 765
f 765 751 762
f 767 765 769
f 769 765 768
f 765 762 768
f 768 762 763
f 765 767 766
f 766 767 746
f 766 746 752
f 752 746 745
f 752 749 766
f 766 749 751
f 757 740 764
f 764 740 741
f 769 764 744
f 744 764 741
f 769 768 764
f 764 768 763
f 767 769 739
f 739 769 744
f 739 736 767
f 767 736 746
f 219 217 208
f 208 217 209
f 209 217 210
f 210 217 193
f 198 580 199
f 199 580 511
f 76 75 289
f 289 75 272
f 277 207 291
f 291 207 184
f 290 183 203
f 203 183 84
f 490 580 142
f 142 580 198
f 142 198 143
f 143 198 197
f 149 276 72
f 72 276 73
f 104 103 279
f 279 103 770
f 770 596 279
f 279 596 595
f 605 596 771
f 771 596 770
f 771 770 772
f 772 770 103
f 772 103 773
f 773 103 102
f 155 774 101
f 101 774 102
f 773 102 97
f 97 102 774
f 775 773 100
f 100 773 97
f 773 775 772
f 772 775 776
f 772 776 771
f 771 776 777
f 200 606 197
f 197 606 777
f 189 71 778
f 778 71 74
f 97 774 98
f 98 774 155
f 183 161 184
f 184 161 291
f 777 276 197
f 197 276 143
f 777 606 771
f 771 606 605
f 613 612 697
f 697 612 202
f 595 697 279
f 279 697 202
f 73 276 776
f 776 276 777
f 776 775 73
f 73 775 74
f 100 778 775
f 775 778 74
f 778 100 189
f 189 100 99
f 245 242 99
f 99 242 189
f 131 33 256
f 28 1 95
f 95 1 62
f 27 2 28
f 28 2 1
f 265 115 266
f 266 115 114
f 95 62 69
f 69 62 64
f 62 61 64
f 64 61 65
f 61 13 65
f 65 13 130
f 13 12 130
f 130 12 14
f 31 11 32
f 32 11 268
f 15 12 31
f 31 12 11
f 31 30 15
f 15 30 231
f 30 106 231
f 231 106 232
f 287 237 106
f 106 237 232
f 254 90 287
f 287 90 237
f 253 44 254
f 254 44 90
f 253 249 44
f 44 249 7
f 267 127 268
f 268 127 126
f 10 3 241
f 241 3 116
f 3 2 116
f 116 2 114
f 2 27 114
f 114 27 266
f 27 26 266
f 266 26 113
f 26 286 113
f 113 286 110
f 286 243 110
f 110 243 255
f 243 242 255
f 255 242 256
f 242 245 256
f 256 245 131
f 245 244 131
f 131 244 132
f 265 37 115
f 115 37 41
f 41 37 42
f 42 37 40
f 92 91 40
f 40 91 42
f 236 233 92
f 92 233 91
f 191 194 236
f 236 194 233
f 258 285 244
f 244 285 132
f 257 55 258
f 258 55 285
f 257 154 201
f 201 154 185
f 56 201 204
f 204 201 180
f 55 257 56
f 56 257 201
f 204 85 56
f 56 85 52
f 86 122 53
f 53 122 79
f 212 215 86
f 86 215 122
f 211 216 212
f 212 216 215
f 192 280 211
f 211 280 216
f 191 240 192
f 192 240 280
f 249 124 7
f 7 124 8
f 124 127 8
f 8 127 241
f 127 267 241
f 241 267 10
f 10 267 9
f 9 267 11
