v -0.008175745606422424 0.07391327619552612 0.7745456695556641
v 0.004658713936805725 0.07003749161958694 0.7736623883247375
v -0.0021093562245368958 0.06494537740945816 0.7781649827957153
v -0.013264942914247513 0.06980660557746887 0.7798166871070862
v 0.014638759195804596 0.060437433421611786 0.7902151942253113
v 0.017977572977542877 0.06498141586780548 0.8005237579345703
v 0.0021932870149612427 0.06199507415294647 0.8003674149513245
v 0.0028697848320007324 0.05827531963586807 0.7906528115272522
v -0.01827806606888771 0.06952604651451111 0.7831060886383057
v -0.009025000035762787 0.06276321411132812 0.7809690833091736
v -0.020129743963479996 0.07507886737585068 0.7836509346961975
v -0.028348200023174286 0.08381196856498718 0.7893832921981812
v -0.027305955067276955 0.07723002880811691 0.7875253558158875
v -0.035673655569553375 0.08796566724777222 0.7907770276069641
v -0.022827312350273132 0.09340740740299225 0.7906063795089722
v -0.034154728055000305 0.09673038125038147 0.7875154614448547
v -0.014329802244901657 0.10794536769390106 0.7720807790756226
v -0.010731332004070282 0.10880785435438156 0.7598401308059692
v -0.026480402797460556 0.10706669837236404 0.7584240436553955
v -0.028611548244953156 0.10562555491924286 0.7711603045463562
v -0.015775728970766068 0.10349716991186142 0.7415139079093933
v -0.022739775478839874 0.10569128394126892 0.7505716681480408
v -0.006837282329797745 0.10849737375974655 0.7519587278366089
v -0.0015300661325454712 0.10629182308912277 0.7435821890830994
v -0.0010482743382453918 0.07845181226730347 0.7633054256439209
v 0.010495774447917938 0.0768466666340828 0.7624173164367676
v 0.009134002029895782 0.0753905326128006 0.7666965126991272
v -0.002652827650308609 0.07743392884731293 0.7677066326141357
v -0.02243684232234955 0.07654544711112976 0.7882301211357117
v -0.01598469913005829 0.08488932996988297 0.7945780158042908
v -0.019844621419906616 0.08218570053577423 0.7889559864997864
v -0.021753616631031036 0.07308278977870941 0.7839515805244446
v 0.03583343327045441 0.07030218094587326 0.7543402314186096
v 0.04766818881034851 0.07613380253314972 0.7565917372703552
v 0.047031939029693604 0.0766771137714386 0.7625197172164917
v 0.0364813357591629 0.0715937614440918 0.7592728137969971
v 0.03872137516736984 0.07264775037765503 0.7871173620223999
v 0.04608157277107239 0.07907729595899582 0.7817862033843994
v 0.049817971885204315 0.08801481872797012 0.7906856536865234
v 0.04057498276233673 0.08519244194030762 0.7952715158462524
v 0.028943993151187897 0.0671578198671341 0.7954381108283997
v 0.030574992299079895 0.07824800908565521 0.8018176555633545
v 0.01632433384656906 0.07478088140487671 0.8069044947624207
v -0.0011008046567440033 0.06872335821390152 0.8060322403907776
v 0.04909460246562958 0.07802113145589828 0.7440339922904968
v 0.040766410529613495 0.07352236658334732 0.7406055927276611
v -0.08849439024925232 0.09487461298704147 0.7774683833122253
v -0.08674381673336029 0.09570097923278809 0.7719091773033142
v -0.08212534338235855 0.09103556722402573 0.7743144631385803
v -0.08414805680513382 0.09156672656536102 0.7794967889785767
v 0.04241686314344406 0.09216662496328354 0.7315728068351746
v 0.0409889817237854 0.10212140530347824 0.7323965430259705
v 0.04812922328710556 0.10101286321878433 0.7321648001670837
v 0.049672313034534454 0.09182622283697128 0.7332555651664734
v 0.032760508358478546 0.09241671860218048 0.7295255661010742
v 0.031000129878520966 0.10296294838190079 0.7332642674446106
v -0.08484490215778351 0.10480156540870667 0.7838342785835266
v -0.08772201836109161 0.1005781963467598 0.7838923931121826
v -0.08262498676776886 0.09878220409154892 0.7859026193618774
v -0.07899104058742523 0.10298049449920654 0.7849943041801453
v -0.023906923830509186 0.07431184500455856 0.7834539413452148
v -0.019043590873479843 0.07499012351036072 0.7764467597007751
v -0.0456245094537735 0.07755941152572632 0.7829465866088867
v -0.03362993523478508 0.07697483897209167 0.7796237468719482
v -0.033858634531497955 0.07741221785545349 0.7863370776176453
v -0.04361479729413986 0.07942885905504227 0.7887219190597534
v -0.02367888018488884 0.07917897403240204 0.7583943605422974
v -0.011936154216527939 0.07950199395418167 0.7596635222434998
v -0.014842052012681961 0.07930709421634674 0.7653046250343323
v -0.02808704786002636 0.078304722905159 0.7657496929168701
v -0.0076756589114665985 0.07663874328136444 0.7465553879737854
v -0.019655440002679825 0.0768752321600914 0.746343195438385
v -0.016064919531345367 0.07503651827573776 0.7389012575149536
v -0.00801723450422287 0.07440071552991867 0.7404083013534546
v -0.041790738701820374 0.07916674762964249 0.7486224174499512
v -0.049754224717617035 0.08333374559879303 0.74764084815979
v -0.05037403851747513 0.08431228250265121 0.7431400418281555
v -0.0408574715256691 0.07970147579908371 0.7450719475746155
v 0.05514926463365555 0.10102660208940506 0.7324013113975525
v 0.056409940123558044 0.09190794825553894 0.735773503780365
v -0.006113257259130478 0.09612585604190826 0.7242879271507263
v -0.00028960779309272766 0.08831950277090073 0.7192593216896057
v -0.01077686995267868 0.08706974983215332 0.7155991792678833
v -0.014201998710632324 0.09521044790744781 0.7219399213790894
v 0.037861213088035583 0.10977570712566376 0.7386630177497864
v 0.04531782120466232 0.109714575111866 0.736355185508728
v -0.08134123682975769 0.10866797715425491 0.7803521752357483
v -0.07625558972358704 0.10635365545749664 0.7807368040084839
v 0.015920422971248627 0.08696390688419342 0.8055065870285034
v -0.0033743977546691895 0.07812654972076416 0.8062854409217834
v 0.030647799372673035 0.09245141595602036 0.8004897832870483
v 0.040071919560432434 0.09699364006519318 0.7950695753097534
v 0.048662081360816956 0.09953828155994415 0.792771577835083
v -0.03734303265810013 0.07684925198554993 0.7738053202629089
v -0.012843411415815353 0.07739264518022537 0.7703515291213989
v 0.00047067925333976746 0.0782991498708725 0.7588369846343994
v 0.0051292553544044495 0.07026474177837372 0.729871928691864
v 0.01570551097393036 0.0700288936495781 0.731605052947998
v 0.010004758834838867 0.06994246691465378 0.740419328212738
v 0.0019034259021282196 0.07084199041128159 0.7370098829269409
v 3.833696246147156e-05 0.07875256985425949 0.7181408405303955
v -0.003193054348230362 0.07293075323104858 0.7223566770553589
v -0.012630566954612732 0.07314018160104752 0.720229983329773
v -0.009900238364934921 0.0784524604678154 0.7156761884689331
v -0.023120306432247162 0.07702894508838654 0.7949843406677246
v -0.011905696243047714 0.0867626816034317 0.7993308901786804
v 0.04316367954015732 0.0821068286895752 0.7343895435333252
v 0.049801647663116455 0.08300651609897614 0.7381633520126343
v 0.057411737740039825 0.08573073148727417 0.7403497695922852
v 0.0236252099275589 0.07270918041467667 0.7601260542869568
v 0.03704245388507843 0.07228417694568634 0.7629841566085815
v 0.03629562258720398 0.07159089297056198 0.7681607007980347
v 0.023562557995319366 0.07311060279607773 0.7632542252540588
v 0.01687759906053543 0.06492199003696442 0.7769933938980103
v 0.027089707553386688 0.06418703496456146 0.7834315299987793
v 0.007135652005672455 0.06002579629421234 0.7807633280754089
v 0.04784543812274933 0.07767600566148758 0.7710568308830261
v 0.05671209096908569 0.07884939759969711 0.7643815875053406
v 0.0562068372964859 0.080560103058815 0.773223876953125
v 0.05764274299144745 0.07954724133014679 0.7546666860580444
v 0.05791793018579483 0.08166944980621338 0.7460320591926575
v 0.053115859627723694 0.11255176365375519 0.7347550988197327
v 0.05460479110479355 0.0836000144481659 0.7809992432594299
v -0.005210287868976593 0.05772235244512558 0.7894518971443176
v -0.012751765549182892 0.05688135325908661 0.7872704267501831
v -0.014211304485797882 0.06098960340023041 0.7806665897369385
v -0.007672466337680817 0.0609394796192646 0.7818539142608643
v -0.045106541365385056 0.0921250432729721 0.791313648223877
v -0.045246273279190063 0.08442190289497375 0.7916057109832764
v -0.03400278463959694 0.08112930506467819 0.7910396456718445
v 0.026202760636806488 0.06921066343784332 0.7479711174964905
v 0.030930370092391968 0.07166418433189392 0.7366901636123657
v -0.04901066794991493 0.07895557582378387 0.776992917060852
v -0.07423675805330276 0.10405422747135162 0.7852540612220764
v -0.07669906318187714 0.09919745475053787 0.7874793410301208
v -0.060525890439748764 0.09622438997030258 0.7902208566665649
v -0.059762142598629 0.10198098421096802 0.7873432636260986
v -0.05728445202112198 0.08722323179244995 0.7717607617378235
v -0.055031392723321915 0.08277986943721771 0.7759572863578796
v -0.05824364721775055 0.08566183596849442 0.7749683856964111
v -0.060247503221035004 0.0896870568394661 0.7704914212226868
v -0.044124849140644073 0.08206123113632202 0.7371925711631775
v -0.036650802940130234 0.07855886220932007 0.7380558848381042
v -0.043628428131341934 0.10057589411735535 0.7696462273597717
v -0.0407910980284214 0.10299550741910934 0.7818135619163513
v -0.030476663261651993 0.10348743945360184 0.7803472876548767
v -0.020571477711200714 0.07834111154079437 0.7516929507255554
v -0.03133315593004227 0.07791152596473694 0.7496702075004578
v -0.030296096578240395 0.07764117419719696 0.745702862739563
v -0.04090243577957153 0.07780775427818298 0.770298957824707
v -0.050021056085824966 0.08031722158193588 0.7712825536727905
v -0.04626701772212982 0.07952268421649933 0.7667248249053955
v -0.037645332515239716 0.07844343781471252 0.7654717564582825
v 0.011745981872081757 0.09097268432378769 0.722325325012207
v 0.012520983815193176 0.07961508631706238 0.7207368612289429
v -0.0889156386256218 0.09683118015527725 0.7817145586013794
v -0.08401559293270111 0.09433110803365707 0.7838762998580933
v -0.009119533002376556 0.07869917899370193 0.7530830502510071
v -0.017241481691598892 0.1040981188416481 0.7805160880088806
v 0.0022565796971321106 0.0775173231959343 0.753818154335022
v -0.03110588528215885 0.09476374834775925 0.7309901714324951
v -0.03291693329811096 0.0885598361492157 0.7266398072242737
v -0.037453554570674896 0.0896749421954155 0.7279173135757446
v -0.03669711947441101 0.09553582221269608 0.729311466217041
v -0.07323095202445984 0.09593303501605988 0.7675907015800476
v -0.07574836909770966 0.09153224527835846 0.7704813480377197
v -0.07974444329738617 0.09321827441453934 0.7689754962921143
v -0.0768437534570694 0.09740284830331802 0.7668371200561523
v -0.054218679666519165 0.08162124454975128 0.781593918800354
v -0.05281297490000725 0.08273522555828094 0.7878990769386292
v -0.05996603146195412 0.08532790094614029 0.7855806350708008
v -0.05949309840798378 0.08487975597381592 0.7798247337341309
v -0.0539453849196434 0.0883636325597763 0.7909678816795349
v -0.060357607901096344 0.09003185480833054 0.7895446419715881
v -0.07083116471767426 0.10192769020795822 0.769120991230011
v -0.06977859139442444 0.10703630745410919 0.7749247550964355
v -0.05845294147729874 0.10379882156848907 0.7747127413749695
v -0.061024777591228485 0.09737244993448257 0.7706501483917236
v 0.012526988983154297 0.10960806906223297 0.7459837198257446
v 0.0162828266620636 0.10571648180484772 0.7363904714584351
v 0.0024323388934135437 0.10229325294494629 0.7337493300437927
v -0.010504361242055893 0.09956680983304977 0.7309367060661316
v -0.023352600634098053 0.0954592376947403 0.7295830845832825
v -0.027484774589538574 0.10194037109613419 0.7390184998512268
v 0.006364546716213226 0.09911467134952545 0.7276246547698975
v -0.05523476377129555 0.09275728464126587 0.7675818800926208
v -0.05007801577448845 0.09957053512334824 0.7744371891021729
v -0.05081469938158989 0.09750249981880188 0.7685095071792603
v 0.0037979893386363983 0.07477131485939026 0.7471487522125244
v -0.07767526805400848 0.0945759192109108 0.7864984273910522
v 0.03799843043088913 0.11362282931804657 0.7809702754020691
v 0.03837820142507553 0.11742886900901794 0.7683442831039429
v 0.029974624514579773 0.11544077843427658 0.7699970602989197
v 0.029143542051315308 0.11067556589841843 0.7837134599685669
v -0.07726111263036728 0.08890438079833984 0.776626467704773
v -0.07827058434486389 0.09001822769641876 0.7825113534927368
v -0.0355837382376194 0.07863539457321167 0.7310482263565063
v -0.04106499254703522 0.08203969895839691 0.7319809198379517
v -0.040292367339134216 0.08382701128721237 0.7288215756416321
v -0.03580368310213089 0.07971467077732086 0.7246350049972534
v 0.019494831562042236 0.10315509885549545 0.7322601675987244
v -0.016499586403369904 0.08745231479406357 0.7146862149238586
v -0.020165178924798965 0.09455008059740067 0.7197025418281555
v 0.028517484664916992 0.10870999097824097 0.7391574382781982
v 0.025336816906929016 0.11267860978841782 0.7474179863929749
v 0.03476479649543762 0.11468733847141266 0.7478894591331482
v -0.03934456780552864 0.10234230756759644 0.7493130564689636
v 0.007846459746360779 0.11117465794086456 0.7530577182769775
v 0.02188526839017868 0.11362887173891068 0.7541520595550537
v 0.03303033113479614 0.11604252457618713 0.7550379633903503
v 0.041021786630153656 0.11826740205287933 0.7549327611923218
v 0.04215887933969498 0.11632928997278214 0.7471190094947815
v -0.07166597992181778 0.10661480575799942 0.7801481485366821
v -0.07414659857749939 0.10706401616334915 0.7750204801559448
v 0.050432972609996796 0.11968839168548584 0.7456767559051514
v 0.04892450571060181 0.12109897285699844 0.7546979784965515
v 0.018722563982009888 0.11385507881641388 0.7628101706504822
v 0.015176482498645782 0.11289327591657639 0.7729978561401367
v 0.005256295204162598 0.1113424301147461 0.7612894773483276
v 0.0006650350987911224 0.11025908589363098 0.771290123462677
v -0.03769621253013611 0.1056658998131752 0.7591361403465271
v -0.08806130290031433 0.11496367305517197 0.7677425742149353
v -0.07889413833618164 0.10823234915733337 0.7694013714790344
v -0.08060987293720245 0.103445865213871 0.7662829160690308
v -0.08762083202600479 0.11188437789678574 0.7644326686859131
v -0.07459723204374313 0.10256730020046234 0.7691267132759094
v -0.07878905534744263 0.11026054620742798 0.7747104167938232
v -0.0025248080492019653 0.105250284075737 0.782599151134491
v -0.05514928698539734 0.0834297388792038 0.7660481333732605
v 0.012887634336948395 0.10564962029457092 0.7869022488594055
v -0.01110883429646492 0.09743838012218475 0.7927159667015076
v -0.00016302615404129028 0.09611483663320541 0.7961785197257996
v 0.028568878769874573 0.10429717600345612 0.79388427734375
v 0.01408146321773529 0.09738002717494965 0.8000228404998779
v 0.04655023664236069 0.10875701904296875 0.7884162068367004
v 0.03754529356956482 0.10709811002016068 0.7901278138160706
v -0.0004051774740219116 0.08884401619434357 0.8030070066452026
v -0.09504474699497223 0.1003400981426239 0.7697658538818359
v -0.09140479564666748 0.10184254497289658 0.7654187679290771
v 0.046078264713287354 0.11594855040311813 0.7800058126449585
v -0.001879572868347168 0.059308916330337524 0.7819731831550598
v 0.01412460207939148 0.07295440137386322 0.7504236102104187
v 0.01262076199054718 0.07515115290880203 0.75522381067276
v 0.02186853438615799 0.07044166326522827 0.733328104019165
v 0.01716317981481552 0.069705531001091 0.7438802123069763
v -0.09693944454193115 0.10174498707056046 0.774565577507019
v -0.05247308313846588 0.08955841511487961 0.7461199164390564
v -0.052093230187892914 0.08987464010715485 0.7434907555580139
v -0.006270650774240494 0.05875788629055023 0.7979341149330139
v -0.013179078698158264 0.056980304419994354 0.7949805855751038
v -0.021062973886728287 0.0660153329372406 0.8007020354270935
v -0.01723145693540573 0.05997976288199425 0.7998450398445129
v -0.009991131722927094 0.06387779861688614 0.803239643573761
v -0.013421766459941864 0.07072659581899643 0.8037973642349243
v 0.023430779576301575 0.07201318442821503 0.7574709057807922
v 0.02365511655807495 0.07105375081300735 0.7536336779594421
v 0.02296120673418045 0.09157802164554596 0.7258641123771667
v 0.023136891424655914 0.08018491417169571 0.7246621251106262
v -0.053304824978113174 0.09465467184782028 0.7907955646514893
v -0.04439868405461311 0.09903465211391449 0.7885295152664185
v -0.0523613840341568 0.10054610669612885 0.7876362800598145
v -0.05737381428480148 0.10482553392648697 0.7817349433898926
v -0.05816101282835007 0.08891143649816513 0.7659600377082825
v -0.05590774491429329 0.09331754595041275 0.771337628364563
v 0.032149434089660645 0.06807118654251099 0.7746412754058838
v 0.02174896001815796 0.07055030763149261 0.7693235874176025
v -0.013231799006462097 0.06490454077720642 0.7810989022254944
v -0.018177945166826248 0.0669398158788681 0.7795582413673401
v -0.03311946243047714 0.07850303500890732 0.758651614189148
v -0.04772638902068138 0.1023256927728653 0.7509399652481079
v -0.04749111831188202 0.10486312955617905 0.7588589191436768
v -0.04317457601428032 0.07942677289247513 0.7583303451538086
v -0.09610909968614578 0.10945668816566467 0.777768075466156
v -0.09742136299610138 0.10467468202114105 0.7767812013626099
v -0.05041151121258736 0.10325345396995544 0.7820643782615662
v -0.027398493140935898 0.07538837194442749 0.7381290793418884
v -0.04350387677550316 0.09960879385471344 0.7451803684234619
v -0.04982048273086548 0.09705214202404022 0.74725341796875
v -0.015397470444440842 0.07884121686220169 0.7144110798835754
v 0.0470089465379715 0.11944866180419922 0.7679103016853333
v -0.08395931124687195 0.09898098558187485 0.7669802904129028
v -0.08833128213882446 0.10528213530778885 0.7629804611206055
v -0.0888710767030716 0.11616972833871841 0.7717645168304443
v -0.09157320857048035 0.11419413238763809 0.7765498757362366
v 0.03244340419769287 0.08036644756793976 0.7298805117607117
v 0.011344343423843384 0.0763641744852066 0.758296549320221
v -0.012921895831823349 0.08115338534116745 0.8020950555801392
v -0.023036323487758636 0.07298396527767181 0.7983301877975464
v -0.0506763756275177 0.08159684389829636 0.7572528123855591
v -0.026757091283798218 0.09248549491167068 0.725111722946167
v -0.03532067686319351 0.1014271154999733 0.7367236614227295
v -0.04044385254383087 0.1019078940153122 0.733601450920105
v -0.04686377942562103 0.10156267136335373 0.7370798587799072
v -0.05273235961794853 0.09696155041456223 0.7388626337051392
v -0.09313403069972992 0.11782196164131165 0.768193244934082
v -0.09680511802434921 0.11605329811573029 0.7724287509918213
v -0.1009395495057106 0.11159420013427734 0.7726320028305054
v -0.10168610513210297 0.10674717277288437 0.7720403671264648
v -0.09965528547763824 0.10302319377660751 0.7705174684524536
v -0.09191308915615082 0.11664821207523346 0.7643120884895325
v -0.09118883311748505 0.1137687936425209 0.7617979049682617
v -0.09056271612644196 0.1071816235780716 0.7616191506385803
v -0.09367837756872177 0.11748203635215759 0.7605962753295898
v -0.09756648540496826 0.11990073323249817 0.7623416185379028
v -0.10938359797000885 0.11434046179056168 0.7614438533782959
v -0.10584330558776855 0.11499744653701782 0.7659063935279846
v -0.10616743564605713 0.11663609743118286 0.7640354633331299
v -0.10895773023366928 0.11714320629835129 0.7601373195648193
v -0.11115405708551407 0.1190476045012474 0.7560876607894897
v -0.11215139925479889 0.11579962074756622 0.7569591999053955
v -0.10202819854021072 0.11830306053161621 0.7647244334220886
v -0.10536555200815201 0.11962803453207016 0.7593695521354675
v -0.10193470120429993 0.12083860486745834 0.7573493719100952
v -0.10506163537502289 0.12271680682897568 0.7534641623497009
v -0.10837560892105103 0.12185296416282654 0.7551950216293335
v -0.10001389682292938 0.11999224126338959 0.7612565159797668
v -0.1009848490357399 0.11830556392669678 0.7664353847503662
v -0.11248502880334854 0.11802919954061508 0.7531505227088928
v -0.11192839592695236 0.12037394940853119 0.7537317872047424
v -0.10956618934869766 0.12229754030704498 0.7525615096092224
v -0.11024508625268936 0.12102068215608597 0.7499834299087524
v -0.10478323698043823 0.1090507060289383 0.767460823059082
v -0.10933458805084229 0.11191697418689728 0.7608510255813599
v -0.11085379868745804 0.1135018989443779 0.7554305791854858
v -0.11127548664808273 0.11595289409160614 0.7518028616905212
v -0.10758984088897705 0.10988389700651169 0.7579503059387207
v -0.10878767818212509 0.11214522272348404 0.753948450088501
v -0.10876552015542984 0.11420926451683044 0.750603973865509
v -0.10476284474134445 0.1091255247592926 0.7549874186515808
v -0.10631075501441956 0.11171378195285797 0.7520723938941956
v -0.09899093210697174 0.1036953330039978 0.7645160555839539
v -0.1017255112528801 0.10486253350973129 0.7671711444854736
v -0.10709566622972488 0.11302242428064346 0.7500093579292297
v -0.10914768278598785 0.11955995112657547 0.748856782913208
v -0.09847721457481384 0.12005467712879181 0.7566260695457458
v -0.10271462798118591 0.12137884646654129 0.7515802383422852
v -0.09714841097593307 0.11875101923942566 0.7553516626358032
v -0.1010475903749466 0.12029632180929184 0.7502211928367615
v -0.10582400858402252 0.12268929928541183 0.7490972876548767
v -0.10691685229539871 0.12298136949539185 0.7513988614082336
v -0.09603852778673172 0.10158625990152359 0.7674060463905334
v -0.09224015474319458 0.10358645021915436 0.7635633945465088
v -0.09436739236116409 0.10547041893005371 0.7611887454986572
v -0.10083944350481033 0.11014768481254578 0.7526603937149048
v -0.09224732965230942 0.10885128378868103 0.7591055035591125
v -0.09290073812007904 0.11486691236495972 0.7582288384437561
v -0.09692445397377014 0.11686974763870239 0.7532972693443298
v -0.09760071337223053 0.11385604739189148 0.7521030306816101
v -0.10036944597959518 0.11792224645614624 0.7497013211250305
v -0.10099905729293823 0.11542920768260956 0.749694287776947
v -0.1033833771944046 0.11262878775596619 0.7501873970031738
v -0.10380716621875763 0.11810927838087082 0.7478533983230591
v -0.10474017262458801 0.12091845273971558 0.7481833696365356
v -0.1072176843881607 0.11686068773269653 0.7483283877372742
v -0.10315147787332535 0.1162857711315155 0.7482839822769165
v -0.10560295730829239 0.11490121483802795 0.7490711212158203
v -0.08654629439115524 0.0979766845703125 0.7386626601219177
v -0.08226075768470764 0.0998782068490982 0.7349129319190979
v -0.07878822088241577 0.09563690423965454 0.739615261554718
v -0.08223085850477219 0.0949798971414566 0.7433434724807739
v -0.08639053255319595 0.10714565962553024 0.7488239407539368
v -0.08900189399719238 0.10227805376052856 0.7463401556015015
v -0.08435945212841034 0.1012558862566948 0.7512140870094299
v -0.08058273792266846 0.10671432316303253 0.7517992854118347
v -0.08138606697320938 0.11099410802125931 0.7470374703407288
v -0.07558196038007736 0.10916893184185028 0.7488868236541748
v -0.07693332433700562 0.10812650620937347 0.7541100382804871
v -0.07962460070848465 0.10151617974042892 0.7545900344848633
v -0.06146712601184845 0.09590475261211395 0.7632485628128052
v -0.059963397681713104 0.10304606705904007 0.7623672485351562
v -0.055909741669893265 0.08684300631284714 0.74905925989151
v -0.0558500774204731 0.09074217081069946 0.7473524212837219
v -0.08856552094221115 0.09921837598085403 0.7422007918357849
v -0.08429624140262604 0.09729057550430298 0.7476039528846741
v -0.07102691382169724 0.0978904664516449 0.7370201945304871
v -0.07385733723640442 0.09392767399549484 0.7393473386764526
v -0.07591438293457031 0.09757903963327408 0.7360963225364685
v -0.07320845872163773 0.10177858918905258 0.7354495525360107
v -0.05992576479911804 0.0873655453324318 0.7601959109306335
v -0.056944556534290314 0.08588987588882446 0.7549283504486084
v -0.061478108167648315 0.0909474641084671 0.7618486881256104
v -0.06915467977523804 0.10400482267141342 0.7381876707077026
v -0.06910759210586548 0.10958883166313171 0.7420384287834167
v -0.05462203919887543 0.10555128753185272 0.7496481537818909
v -0.05472005158662796 0.09969360381364822 0.746414303779602
v -0.08050653338432312 0.09650006890296936 0.7521868348121643
v -0.07699166238307953 0.09237097948789597 0.7436718344688416
v -0.07942469418048859 0.09282255917787552 0.7479161620140076
v -0.07249902188777924 0.11082309484481812 0.7490526437759399
v -0.07278131693601608 0.11021587252616882 0.7421812415122986
v -0.08309945464134216 0.11843033879995346 0.7299361824989319
v -0.07573099434375763 0.11116015166044235 0.7367995381355286
v -0.07651405781507492 0.10730963200330734 0.7335189580917358
v -0.08299142122268677 0.11509215086698532 0.7260670065879822
v -0.07207842171192169 0.10665705054998398 0.7379814386367798
v -0.07758376002311707 0.11275796592235565 0.7415844798088074
v -0.09412553161382675 0.10686251521110535 0.7274711728096008
v -0.08905055373907089 0.10847088694572449 0.7240392565727234
v -0.09697755426168442 0.10797902196645737 0.7309138774871826
v -0.05687793716788292 0.10725963115692139 0.7564342021942139
v -0.09541353583335876 0.11435742676258087 0.7387261986732483
v -0.09766161441802979 0.10988835990428925 0.7346908450126648
v -0.0785491093993187 0.10309828072786331 0.7326496839523315
v -0.08514303714036942 0.11159166693687439 0.7236305475234985
v -0.08506845682859421 0.11999931931495667 0.7338168621063232
v -0.08977039158344269 0.11798738688230515 0.7391761541366577
v -0.08769690245389938 0.12198343873023987 0.7288331389427185
v -0.09286950528621674 0.12138908356428146 0.7326663136482239
v -0.0985092893242836 0.11780849099159241 0.7321866154670715
v -0.10006476938724518 0.1127443015575409 0.7294919490814209
v -0.0987410619854927 0.10991264134645462 0.7271752953529358
v -0.08578275144100189 0.1201450526714325 0.7254663109779358
v -0.08556591719388962 0.11653800308704376 0.7223113775253296
v -0.08727534860372543 0.11187280714511871 0.7217228412628174
v -0.0879824087023735 0.12018270790576935 0.7190957069396973
v -0.09053584188222885 0.12322106957435608 0.7209857106208801
v -0.10639214515686035 0.11940474808216095 0.7124974131584167
v -0.10448062419891357 0.11927660554647446 0.7180926203727722
v -0.10307417064905167 0.12140402942895889 0.7174732089042664
v -0.10476483404636383 0.12172539532184601 0.7123619318008423
v -0.10193634033203125 0.12080015242099762 0.7236304879188538
v -0.10100550204515457 0.12208536267280579 0.7215568423271179
v -0.09660279005765915 0.12355678528547287 0.7217732071876526
v -0.0988592803478241 0.12323415279388428 0.7161298990249634
v -0.09410572797060013 0.1231611967086792 0.715073823928833
v -0.09608109295368195 0.12407492101192474 0.7099666595458984
v -0.1008434072136879 0.12443352490663528 0.7107927203178406
v -0.09360259771347046 0.12373005598783493 0.7192538976669312
v -0.10495642572641373 0.12233247607946396 0.7088736295700073
v -0.10566374659538269 0.1205490306019783 0.7071099281311035
v -0.09592311084270477 0.12372897565364838 0.7249742150306702
v -0.10213088244199753 0.11502431333065033 0.7258713245391846
v -0.1050090491771698 0.11631016433238983 0.7174568772315979
v -0.10616333782672882 0.11650795489549637 0.7110641002655029
v -0.10425743460655212 0.11833605170249939 0.7055538892745972
v -0.10336016863584518 0.11310964822769165 0.7152885794639587
v -0.10421635210514069 0.1143866553902626 0.709587037563324
v -0.10234557092189789 0.11638146638870239 0.7054347395896912
v -0.0999428853392601 0.11075063049793243 0.7129926681518555
v -0.10067260265350342 0.11284174025058746 0.7078244090080261
v -0.09677661955356598 0.10862981528043747 0.7226945161819458
v -0.10040773451328278 0.11070389300584793 0.7245951294898987
v -0.10076837986707687 0.11465942114591599 0.706001341342926
v -0.10218803584575653 0.12320449948310852 0.7049840688705444
v -0.10118863731622696 0.12034560739994049 0.7035083174705505
v -0.10203433036804199 0.12393561005592346 0.7067161798477173
v -0.09215278923511505 0.12252591550350189 0.7144432067871094
v -0.09470348805189133 0.12281077355146408 0.7087304592132568
v -0.09056238830089569 0.12064153701066971 0.7130314111709595
v -0.09372813999652863 0.12125834077596664 0.7071323394775391
v -0.09743629395961761 0.12335638701915741 0.7050694227218628
v -0.09845953434705734 0.12421616166830063 0.7061343193054199
v -0.09536876529455185 0.10854092240333557 0.724941074848175
v -0.09039225429296494 0.10941292345523834 0.722564697265625
v -0.09159588813781738 0.10889829695224762 0.7208049297332764
v -0.09498702734708786 0.11134052276611328 0.7114430665969849
v -0.0879385694861412 0.1116865873336792 0.7197792530059814
v -0.08715729415416718 0.11670202016830444 0.7183470129966736
v -0.08987489342689514 0.11796870082616806 0.7123382091522217
v -0.09130190312862396 0.11441614478826523 0.7112064361572266
v -0.09265424311161041 0.1194574162364006 0.7064671516418457
v -0.0929747000336647 0.11630116403102875 0.7073603868484497
v -0.09667021036148071 0.1132000982761383 0.707156240940094
v -0.09593658894300461 0.11993743479251862 0.7034130096435547
v -0.09681591391563416 0.12207039445638657 0.7040023803710938
v -0.10013675689697266 0.11838451027870178 0.7036341428756714
v -0.09529855847358704 0.11728085577487946 0.704563558101654
v -0.09864664077758789 0.11576200276613235 0.7046823501586914
v -0.07000085711479187 0.08937912434339523 0.714503824710846
v -0.06568429619073868 0.08683612942695618 0.7126192450523376
v -0.06322626024484634 0.0856446698307991 0.7175434231758118
v -0.06750829517841339 0.08854103833436966 0.7196248769760132
v -0.06747940182685852 0.10241028666496277 0.7153002023696899
v -0.07094655185937881 0.09868094325065613 0.71575528383255
v -0.06872875988483429 0.0982886478304863 0.7201898694038391
v -0.06462987512350082 0.10226815193891525 0.7204609513282776
v -0.06323584914207458 0.10366992652416229 0.7117787599563599
v -0.059300657361745834 0.1030694991350174 0.7178617119789124
v -0.06160525605082512 0.10368705540895462 0.7240995168685913
v -0.06610684841871262 0.09899887442588806 0.7241806387901306
v -0.05597556382417679 0.09764458984136581 0.7348595261573792
v -0.05174526944756508 0.10292674601078033 0.7327975630760193
v -0.07136073708534241 0.09386738389730453 0.7152776122093201
v -0.06930217891931534 0.0932735800743103 0.7199364304542542
v -0.05442562326788902 0.08733619749546051 0.7159249782562256
v -0.05788017064332962 0.0851864144206047 0.7181091904640198
v -0.058862414211034775 0.08597656339406967 0.7146745324134827
v -0.0561610646545887 0.08846447616815567 0.71302729845047
v -0.0540718175470829 0.08680087327957153 0.7370684146881104
v -0.048925116658210754 0.08464988321065903 0.7342349290847778
v -0.05683889612555504 0.09164237976074219 0.735951840877533
v -0.051991336047649384 0.09343243390321732 0.7150335311889648
v -0.051696084439754486 0.10040544718503952 0.7166265249252319
v -0.0423896424472332 0.09773465245962143 0.7244827747344971
v -0.042612116783857346 0.09152808040380478 0.7248548269271851
v -0.0670781284570694 0.09382210671901703 0.7240344285964966
v -0.06173449382185936 0.08535554260015488 0.7214385867118835
v -0.06590501219034195 0.08849428594112396 0.7234069108963013
v -0.05614415183663368 0.10395904630422592 0.7208307981491089
v -0.05532735586166382 0.09970834106206894 0.7140832543373108
v -0.06346395611763 0.09952232986688614 0.69412761926651
v -0.05603967607021332 0.09564712643623352 0.7085554003715515
v -0.0579678937792778 0.09011868387460709 0.708506166934967
v -0.0636686235666275 0.0951603502035141 0.6933425664901733
v -0.054251886904239655 0.09387809783220291 0.7119078636169434
v -0.05790802091360092 0.10120826959609985 0.7096500396728516
v -0.07565672695636749 0.0913924053311348 0.6976382732391357
v -0.07069653272628784 0.08964263647794724 0.696334183216095
v -0.0769825354218483 0.09484950453042984 0.6997336149215698
v -0.04595787823200226 0.10354192554950714 0.7285777926445007
v -0.04434717819094658 0.08579086512327194 0.7285503149032593
v -0.0755094438791275 0.1020716205239296 0.699508011341095
v -0.07733114063739777 0.0982246994972229 0.7000300884246826
v -0.06098591163754463 0.08743512630462646 0.7102276086807251
v -0.06600930541753769 0.09127295762300491 0.6941267848014832
v -0.06560410559177399 0.10297120362520218 0.6961787343025208
v -0.07040240615606308 0.10458377748727798 0.6988769769668579
v -0.0665852501988411 0.10257157683372498 0.6908438205718994
v -0.07169035822153091 0.10414669662714005 0.6931247711181641
v -0.07681404799222946 0.10256722569465637 0.6932723522186279
v -0.07861673086881638 0.09889280796051025 0.6937800049781799
v -0.07850251346826553 0.09538668394088745 0.6937558650970459
v -0.06473561376333237 0.09897082298994064 0.6889064908027649
v -0.06526897847652435 0.09512665867805481 0.6885729432106018
v -0.06728316843509674 0.09191665798425674 0.6915169358253479
v -0.0653783306479454 0.09778347611427307 0.6846984028816223
v -0.0680699348449707 0.10240039229393005 0.6840388178825378
v -0.0807318240404129 0.10068385303020477 0.6746056079864502
v -0.0797012448310852 0.10091794282197952 0.6799933910369873
v -0.07870592176914215 0.1016157791018486 0.6796032190322876
v -0.07964116334915161 0.10189637541770935 0.6741313934326172
v -0.07751285284757614 0.10292201489210129 0.685802698135376
v -0.07679961621761322 0.10316941142082214 0.6838133931159973
v -0.07313719391822815 0.10385861992835999 0.6839685440063477
v -0.07411093264818192 0.10322060436010361 0.6778368353843689
v -0.06897422671318054 0.10043302178382874 0.6776889562606812
v -0.07069803774356842 0.10037420690059662 0.6731249094009399
v -0.0752960816025734 0.1032799780368805 0.6728426218032837
v -0.06919725239276886 0.10247277468442917 0.6825084090232849
v -0.07909009605646133 0.10174506157636642 0.6711127758026123
v -0.08101832121610641 0.10141189396381378 0.6704980731010437
v -0.07297417521476746 0.10410410165786743 0.6862850189208984
v -0.08022796362638474 0.09975665807723999 0.6880877614021301
v -0.08138605952262878 0.09870206564664841 0.680585503578186
v -0.08281537145376205 0.09808635711669922 0.674993097782135
v -0.08141885697841644 0.097746841609478 0.6709242463111877
v -0.08089759200811386 0.09500965476036072 0.6808508634567261
v -0.0817461758852005 0.09510107338428497 0.6755092740058899
v -0.0806383490562439 0.09486690163612366 0.6717670559883118
v -0.07910171896219254 0.09233060479164124 0.6808950901031494
v -0.07958780229091644 0.09269572049379349 0.6758880615234375
v -0.07714248448610306 0.09256794303655624 0.6909491419792175
v -0.07960092276334763 0.09598809480667114 0.6898277401924133
v -0.07931805402040482 0.09332068264484406 0.6727696657180786
v -0.0766829326748848 0.10132397711277008 0.6684602499008179
v -0.07667501270771027 0.09710143506526947 0.6681838631629944
v -0.07624705135822296 0.10176801681518555 0.6701084971427917
v -0.06762181222438812 0.09927209466695786 0.6782301068305969
v -0.06922531872987747 0.09876982122659683 0.6721101999282837
v -0.06693679094314575 0.09650987386703491 0.6786551475524902
v -0.06863279640674591 0.09601098299026489 0.6724482178688049
v -0.071834497153759 0.0997106209397316 0.6691547632217407
v -0.07241053879261017 0.10045652091503143 0.669927716255188
v -0.07582467794418335 0.0921756699681282 0.6940513849258423
v -0.07139499485492706 0.09056442230939865 0.6930640935897827
v -0.07298338413238525 0.09064095467329025 0.6903420090675354
v -0.0753093808889389 0.0904441624879837 0.6798142194747925
v -0.06865809857845306 0.09137242287397385 0.6890350580215454
v -0.06636212766170502 0.09431040287017822 0.684596598148346
v -0.06818997114896774 0.0935894101858139 0.678895115852356
v -0.07105444371700287 0.09131991118192673 0.6789376735687256
v -0.06961297988891602 0.09347179532051086 0.6732106804847717
v -0.07168006151914597 0.0921628549695015 0.6747349500656128
v -0.07623699307441711 0.09081640839576721 0.6751080751419067
v -0.07248702645301819 0.09441818296909332 0.6704714298248291
v -0.0716140940785408 0.09688716381788254 0.669156014919281
v -0.07685954123735428 0.09429620206356049 0.6696106791496277
v -0.07343018054962158 0.09267409890890121 0.671973466873169
v -0.07676331698894501 0.09254337847232819 0.6714520454406738
v -0.04572485014796257 0.08404293656349182 0.7313461899757385
v -0.04690403491258621 0.09107968956232071 0.6910252571105957
v -0.043395355343818665 0.08920992910861969 0.6898906230926514
v -0.041933029890060425 0.08671753108501434 0.6928833723068237
v -0.04581625014543533 0.08734197914600372 0.6942833662033081
v -0.044856712222099304 0.10014919936656952 0.6971464157104492
v -0.04778483510017395 0.09741070866584778 0.6952419877052307
v -0.048079680651426315 0.09479442238807678 0.6993041634559631
v -0.045779354870319366 0.09800171107053757 0.7008113265037537
v -0.04039674997329712 0.10105471312999725 0.6965618133544922
v -0.04122404754161835 0.09866267442703247 0.6998229622840881
v -0.04461196810007095 0.09591282904148102 0.7037649154663086
v -0.04656479135155678 0.09161735326051712 0.7034198641777039
v -0.03543570637702942 0.08805909752845764 0.7194262742996216
v -0.03189734369516373 0.0923968106508255 0.7192200422286987
v -0.01963873580098152 0.0805913582444191 0.7128576636314392
v -0.022794492542743683 0.07598339021205902 0.7161984443664551
v -0.02770882286131382 0.07964964956045151 0.7096837162971497
v -0.024397771805524826 0.08335062861442566 0.7085623741149902
v -0.04829121753573418 0.0941460132598877 0.6930068731307983
v -0.048291970044374466 0.0905190110206604 0.6968375444412231
v -0.03190626949071884 0.08873140066862106 0.6963100433349609
v -0.03534253314137459 0.08536721020936966 0.6960214972496033
v -0.03777192533016205 0.08614198118448257 0.6925889849662781
v -0.03399684652686119 0.0880746841430664 0.6931332349777222
v -0.027534645050764084 0.07611296325922012 0.719176173210144
v -0.030860155820846558 0.07746420800685883 0.7229645252227783
v -0.033738210797309875 0.07815735787153244 0.7179120779037476
v -0.031747497618198395 0.07844739407300949 0.7118834257125854
v -0.03735245019197464 0.08160720020532608 0.7192713618278503
v -0.03146747872233391 0.09279302507638931 0.6974557042121887
v -0.03422704339027405 0.09679614007472992 0.6999995112419128
v -0.022263899445533752 0.09244026988744736 0.711674153804779
v -0.02205679938197136 0.08797036111354828 0.7103133201599121
v -0.04701503366231918 0.08735135197639465 0.7011591792106628
v -0.03953626751899719 0.08430405706167221 0.6968528628349304
v -0.04399927332997322 0.08406807482242584 0.698559582233429
v -0.03997741639614105 0.09852439165115356 0.7014622688293457
v -0.035568028688430786 0.09651335328817368 0.6979501247406006
v -0.03399059548974037 0.0980772152543068 0.6834200620651245
v -0.03295610845088959 0.0932273119688034 0.6921742558479309
v -0.035242959856987 0.08969481289386749 0.6895041465759277
v -0.035690099000930786 0.09637483209371567 0.6819907426834106
v -0.033011578023433685 0.09202423691749573 0.6950328350067139
v -0.03496609255671501 0.09830102324485779 0.6948426961898804
v -0.04747931286692619 0.09748657047748566 0.6823607087135315
v -0.04311150312423706 0.09485160559415817 0.6815284490585327
v -0.04833730310201645 0.09986376017332077 0.684140145778656
v -0.027282066643238068 0.09527456015348434 0.7155340909957886
v -0.04430131986737251 0.10481100529432297 0.6876132488250732
v -0.04771506041288376 0.1028759777545929 0.6856408715248108
v -0.03943702578544617 0.0886286124587059 0.6891664266586304
v -0.038967132568359375 0.09500714391469955 0.6816098690032959
v -0.03437685966491699 0.10131935030221939 0.6857043504714966
v -0.038864344358444214 0.10486738383769989 0.6880384683609009
v -0.0336957611143589 0.10372422635555267 0.6818468570709229
v -0.03841574490070343 0.10682019591331482 0.684589147567749
v -0.044127851724624634 0.10723467916250229 0.6832870244979858
v -0.04697265848517418 0.10498949140310287 0.6823079586029053
v -0.047999292612075806 0.1023683100938797 0.6807897686958313
v -0.03338993340730667 0.10017219185829163 0.6794520616531372
v -0.03527279198169708 0.0980059951543808 0.678179919719696
v -0.038860708475112915 0.09621690213680267 0.6779571175575256
v -0.03288906440138817 0.10251881927251816 0.675686240196228
v -0.033471349626779556 0.10714492201805115 0.6767303943634033
v -0.04335479065775871 0.1111515536904335 0.6687224507331848
v -0.04372313246130943 0.10985329002141953 0.6723455786705017
v -0.04264489561319351 0.11040162295103073 0.6726791858673096
v -0.04283933341503143 0.1121680811047554 0.669108510017395
v -0.042945753782987595 0.10911141335964203 0.6774702668190002
v -0.04155222326517105 0.10967274010181427 0.676588773727417
v -0.03822910040616989 0.10915665328502655 0.6777722239494324
v -0.03852536529302597 0.11118056625127792 0.6730687022209167
v -0.033895548433065414 0.1090870052576065 0.6714162826538086
v -0.034731365740299225 0.11079059541225433 0.6679551601409912
v -0.038562528789043427 0.11274264752864838 0.6698040962219238
v -0.03448425978422165 0.10872026532888412 0.6758740544319153
v -0.04188065975904465 0.11341577768325806 0.6671082973480225
v -0.04256783053278923 0.11349952220916748 0.6659290194511414
v -0.03847883269190788 0.10892005264759064 0.6794371604919434
v -0.046223193407058716 0.10636654496192932 0.6776443719863892
v -0.04541431739926338 0.10866271704435349 0.6711058616638184
v -0.044496480375528336 0.11070431023836136 0.666826605796814
v -0.042409032583236694 0.11205542832612991 0.6642706990242004
v -0.04590946063399315 0.1061241626739502 0.6709500551223755
v -0.04493461549282074 0.10871846228837967 0.6657423973083496
v -0.042743317782878876 0.10993123054504395 0.66330885887146
v -0.0451069213449955 0.103061243891716 0.6702718734741211
v -0.04392208531498909 0.10624217987060547 0.6657037138938904
v -0.04589822515845299 0.09979423880577087 0.676439642906189
v -0.0468604639172554 0.10319322347640991 0.6770825982093811
v -0.042379796504974365 0.10821007192134857 0.6639142036437988
v -0.038952894508838654 0.11381534487009048 0.6652166843414307
v -0.039379894733428955 0.11181416362524033 0.6632725596427917
v -0.03855476155877113 0.11385037004947662 0.666504442691803
v -0.033157192170619965 0.10792728513479233 0.6711001396179199
v -0.03412522375583649 0.10991252958774567 0.6668579578399658
v -0.03302653878927231 0.10539758950471878 0.6701676845550537
v -0.03453966975212097 0.10819819569587708 0.6656308770179749
v -0.035858962684869766 0.11201824992895126 0.6648228168487549
v -0.036274347454309464 0.11245829612016678 0.6664987802505493
v -0.04685170575976372 0.09896664321422577 0.6788693070411682
v -0.04346426576375961 0.09643031656742096 0.6786221265792847
v -0.042500048875808716 0.09762886166572571 0.6759247183799744
v -0.04208732023835182 0.10084669291973114 0.6697341203689575
v -0.03791870176792145 0.09741625189781189 0.6754196286201477
v -0.034597307443618774 0.09963923692703247 0.6754128336906433
v -0.0346798300743103 0.1031012088060379 0.6695041656494141
v -0.03765570744872093 0.1012309268116951 0.6691105365753174
v -0.035894304513931274 0.10665056854486465 0.6647440791130066
v -0.038353051990270615 0.10480210930109024 0.6647614240646362
v -0.041476644575595856 0.1044434905052185 0.6652642488479614
v -0.03792557865381241 0.10905361920595169 0.6631050109863281
v -0.03680966794490814 0.11053198575973511 0.6633979082107544
v -0.039934802800416946 0.10983504354953766 0.6629303097724915
v -0.0391254723072052 0.10750002413988113 0.6632315516471863
v -0.04065873473882675 0.10765310376882553 0.6634437441825867
v -0.019960664212703705 0.08465538918972015 0.7116765379905701
v -0.03283783048391342 0.06663718819618225 0.7875758409500122
v -0.031227678060531616 0.06717032194137573 0.7824650406837463
v -0.022137869149446487 0.053330712020397186 0.7790752053260803
v -0.025650933384895325 0.05893845111131668 0.7760871648788452
v -0.021922461688518524 0.04987788200378418 0.7852352857589722
v -0.02647540718317032 0.05262032896280289 0.7951840162277222
v -0.02301103249192238 0.050446487963199615 0.7912012934684753
v -0.02895062044262886 0.06390010565519333 0.7777550220489502
v -0.03279133141040802 0.0639716237783432 0.7927892208099365
v -0.030146613717079163 0.05815758556127548 0.7967084050178528
v -0.040018193423748016 0.05817793309688568 0.7894464135169983
v -0.03706197440624237 0.051909513771533966 0.793382465839386
v -0.032789770513772964 0.045979008078575134 0.7924823760986328
v -0.02694064751267433 0.044998347759246826 0.7880483865737915
v -0.024460438638925552 0.04555371776223183 0.7835773229598999
v -0.0372333861887455 0.061824023723602295 0.7837144136428833
v -0.034783218055963516 0.06247881427407265 0.7789391875267029
v -0.03031216375529766 0.05998392403125763 0.7750325798988342
v -0.04203972965478897 0.056907448917627335 0.7778950333595276
v -0.047160662710666656 0.047724224627017975 0.777099072933197
v -0.04348982870578766 0.028671354055404663 0.7731571197509766
v -0.03980401158332825 0.03270892798900604 0.7771947979927063
v -0.04252200573682785 0.03380822390317917 0.7772828936576843
v -0.04583797603845596 0.029724061489105225 0.774044394493103
v -0.039593592286109924 0.03660398721694946 0.7811747193336487
v -0.041600216180086136 0.03721269220113754 0.7799404859542847
v -0.04441229626536369 0.04176383465528488 0.7798860669136047
v -0.04732004180550575 0.037893146276474 0.7764306664466858
v -0.046823449432849884 0.044896818697452545 0.7765268087387085
v -0.04873612895607948 0.04292731732130051 0.7730018496513367
v -0.050408702343702316 0.03424898535013199 0.7731373906135559
v -0.04928550124168396 0.028426572680473328 0.7722017168998718
v -0.052672144025564194 0.031043395400047302 0.7700906991958618
v -0.04745745286345482 0.027079656720161438 0.7698004245758057
v -0.04565494507551193 0.04224211722612381 0.7824167013168335
v -0.03282977268099785 0.037938520312309265 0.7828146815299988
v -0.036032773554325104 0.03291254863142967 0.7764249444007874
v -0.040271319448947906 0.029067285358905792 0.7710413336753845
v -0.04523731768131256 0.027786575257778168 0.7674065232276917
v -0.03299121558666229 0.03466805815696716 0.7733213901519775
v -0.03779676929116249 0.03195442259311676 0.7685502767562866
v -0.04252462089061737 0.03158547729253769 0.7651968002319336
v -0.03231131285429001 0.03838489577174187 0.7698501944541931
v -0.037539079785346985 0.03551120311021805 0.7663707733154297
v -0.025901563465595245 0.04686718434095383 0.7766935229301453
v -0.027257367968559265 0.04121320694684982 0.780610978603363
v -0.0412994846701622 0.034215062856674194 0.7648799419403076
v -0.052569109946489334 0.029882997274398804 0.7672519087791443
v -0.04998172074556351 0.0308920219540596 0.764631450176239
v -0.048548292368650436 0.0461750365793705 0.7715646028518677
v -0.05205259844660759 0.039551183581352234 0.7699980139732361
v -0.05124736204743385 0.04160487651824951 0.7677254676818848
v -0.046343814581632614 0.04923437908291817 0.7698885798454285
v -0.049657151103019714 0.04297269508242607 0.7656568288803101
v -0.05335487052798271 0.03617580235004425 0.7660994529724121
v -0.05354318395256996 0.03560765087604523 0.7689979672431946
v -0.023576825857162476 0.049591340124607086 0.778349757194519
v -0.0259367898106575 0.05541559308767319 0.7753924131393433
v -0.027856046333909035 0.05293618142604828 0.7740685343742371
v -0.03437729552388191 0.044518422335386276 0.7673580050468445
v -0.0326056107878685 0.056717559695243835 0.7726554274559021
v -0.038252413272857666 0.05796480178833008 0.7746429443359375
v -0.043213553726673126 0.050084181129932404 0.7677985429763794
v -0.03869268670678139 0.04872533306479454 0.7666833996772766
v -0.04623730480670929 0.04318341612815857 0.7641392350196838
v -0.04322953149676323 0.04241739213466644 0.7639922499656677
v -0.03961310163140297 0.03906457871198654 0.7644591927528381
v -0.047635506838560104 0.03800620138645172 0.7630331516265869
v -0.05115039646625519 0.03735245391726494 0.7638828754425049
v -0.04627399146556854 0.03370467573404312 0.7633637189865112
v -0.04499419033527374 0.038861535489559174 0.7633532285690308
v -0.04343586415052414 0.03609105572104454 0.7636491060256958
v -0.01794559881091118 0.07398779690265656 0.7189823389053345
v -0.02197687327861786 0.07318565994501114 0.7242863178253174
v -0.014873914420604706 0.07176021486520767 0.7252461910247803
v -0.005002278834581375 0.07095000892877579 0.7275263071060181
v 0.005339365452528 0.0726192370057106 0.7244423627853394
v -0.006937168538570404 0.07191978394985199 0.7339308261871338
v -0.01696671172976494 0.07261259853839874 0.7312443852424622
v -0.02721524052321911 0.07513120025396347 0.72993004322052
v -0.0005049332976341248 0.07378358393907547 0.742023766040802
f 2 3 1
f 1 3 4
f 5 6 8
f 8 6 7
f 9 4 10
f 10 4 3
f 12 13 11
f 11 13 9
f 14 12 16
f 16 12 15
f 18 19 17
f 17 19 20
f 22 23 21
f 21 23 24
f 26 27 25
f 25 27 28
f 30 31 29
f 29 31 32
f 33 34 36
f 36 34 35
f 37 38 40
f 40 38 39
f 41 42 6
f 6 42 43
f 6 43 7
f 7 43 44
f 45 34 46
f 46 34 33
f 48 49 47
f 47 49 50
f 52 53 51
f 51 53 54
f 56 52 55
f 55 52 51
f 58 59 57
f 57 59 60
f 61 62 4
f 4 62 1
f 64 65 63
f 63 65 66
f 68 69 67
f 67 69 70
f 72 73 71
f 71 73 74
f 76 77 75
f 75 77 78
f 53 79 54
f 54 79 80
f 82 83 81
f 81 83 84
f 85 86 52
f 52 86 53
f 57 60 87
f 87 60 88
f 89 90 43
f 43 90 44
f 43 42 89
f 89 42 91
f 40 39 92
f 92 39 93
f 94 70 64
f 64 70 69
f 13 61 9
f 9 61 4
f 25 28 69
f 69 28 95
f 96 25 68
f 68 25 69
f 98 99 97
f 97 99 100
f 101 102 104
f 104 102 103
f 106 30 105
f 105 30 29
f 51 54 107
f 107 54 108
f 54 80 108
f 108 80 109
f 111 112 110
f 110 112 113
f 115 5 114
f 114 5 116
f 115 41 5
f 5 41 6
f 36 35 111
f 111 35 117
f 35 118 117
f 117 118 119
f 34 120 35
f 35 120 118
f 34 45 120
f 120 45 121
f 125 126 124
f 124 126 127
f 128 129 14
f 14 129 130
f 33 131 46
f 46 131 132
f 133 94 63
f 63 94 64
f 134 135 137
f 137 135 136
f 139 140 138
f 138 140 141
f 77 142 78
f 78 142 143
f 144 145 20
f 20 145 146
f 148 149 147
f 147 149 72
f 151 152 150
f 150 152 153
f 82 101 83
f 83 101 104
f 101 82 155
f 155 82 154
f 156 157 58
f 58 157 59
f 158 68 147
f 147 68 67
f 159 146 15
f 15 146 16
f 68 158 96
f 96 158 160
f 129 66 130
f 130 66 65
f 162 163 161
f 161 163 164
f 166 167 165
f 165 167 168
f 170 171 169
f 169 171 172
f 174 171 173
f 173 171 170
f 176 177 175
f 175 177 178
f 180 181 179
f 179 181 24
f 182 183 21
f 21 183 184
f 81 185 82
f 82 185 154
f 186 187 188
f 188 187 144
f 158 71 160
f 160 71 189
f 190 135 157
f 157 135 59
f 169 172 139
f 139 172 140
f 147 72 158
f 158 72 71
f 192 193 191
f 191 193 194
f 167 166 49
f 49 166 195
f 196 190 50
f 50 190 157
f 197 198 200
f 200 198 199
f 21 24 182
f 182 24 181
f 146 159 20
f 20 159 17
f 182 181 81
f 81 181 185
f 201 185 180
f 180 185 181
f 202 203 83
f 83 203 84
f 205 206 204
f 204 206 85
f 207 22 184
f 184 22 21
f 179 24 208
f 208 24 23
f 208 209 179
f 179 209 205
f 209 210 205
f 205 210 206
f 212 206 211
f 211 206 210
f 179 205 180
f 180 205 204
f 213 176 88
f 88 176 214
f 86 85 212
f 212 85 206
f 193 217 218
f 217 219 218
f 218 219 220
f 219 18 220
f 220 18 17
f 19 221 20
f 20 221 144
f 222 223 225
f 225 223 224
f 175 226 176
f 176 226 214
f 227 87 214
f 214 87 88
f 220 17 228
f 228 17 159
f 134 213 60
f 60 213 88
f 138 229 151
f 151 229 152
f 193 192 210
f 210 192 211
f 230 194 218
f 218 194 193
f 231 232 228
f 228 232 230
f 233 234 91
f 91 234 89
f 235 236 93
f 93 236 92
f 230 232 234
f 234 232 237
f 47 238 48
f 48 238 239
f 240 191 235
f 235 191 236
f 5 8 116
f 116 8 241
f 242 243 189
f 189 243 160
f 244 245 98
f 98 245 99
f 156 246 47
f 47 246 238
f 76 247 77
f 77 247 248
f 250 125 249
f 249 125 124
f 252 253 251
f 251 253 254
f 111 110 36
f 36 110 255
f 256 33 255
f 255 33 36
f 257 258 154
f 154 258 155
f 63 169 133
f 133 169 139
f 66 170 63
f 63 170 169
f 173 170 129
f 129 170 66
f 129 128 173
f 173 128 259
f 128 260 259
f 259 260 261
f 213 134 262
f 262 134 137
f 263 264 186
f 186 264 187
f 112 265 113
f 113 265 266
f 11 267 268
f 234 233 230
f 230 233 194
f 153 269 70
f 70 269 67
f 175 178 165
f 165 178 141
f 150 153 94
f 94 153 70
f 271 221 270
f 270 221 207
f 269 153 272
f 272 153 152
f 121 45 109
f 109 45 108
f 47 50 156
f 156 50 157
f 57 273 58
f 58 273 274
f 145 275 260
f 260 275 261
f 276 149 143
f 143 149 78
f 148 269 75
f 75 269 272
f 207 277 270
f 270 277 278
f 195 196 49
f 49 196 50
f 59 135 60
f 60 135 134
f 83 104 202
f 202 104 279
f 149 148 78
f 78 148 75
f 247 278 248
f 248 278 277
f 183 182 84
f 84 182 81
f 48 239 281
f 281 239 282
f 227 223 283
f 283 223 222
f 223 226 224
f 224 226 168
f 281 282 224
f 224 282 225
f 165 168 175
f 175 168 226
f 264 263 138
f 138 263 229
f 14 16 128
f 128 16 260
f 220 228 218
f 218 228 230
f 87 227 284
f 284 227 283
f 260 16 145
f 145 16 146
f 244 98 258
f 258 98 155
f 58 274 156
f 156 274 246
f 107 285 51
f 51 285 55
f 243 286 160
f 160 286 96
f 234 237 89
f 89 237 90
f 46 132 107
f 107 132 285
f 253 252 249
f 249 252 250
f 286 26 96
f 96 26 25
f 106 105 287
f 287 105 288
f 272 152 289
f 289 152 229
f 138 151 139
f 139 151 133
f 183 290 161
f 161 290 162
f 291 292 277
f 277 292 293
f 151 150 133
f 133 150 94
f 262 275 177
f 177 275 187
f 144 187 145
f 145 187 275
f 273 57 284
f 284 57 87
f 174 136 190
f 190 136 135
f 111 117 112
f 112 117 38
f 117 119 38
f 38 119 123
f 112 38 265
f 265 38 37
f 287 288 254
f 254 288 251
f 228 159 231
f 231 159 15
f 223 227 226
f 226 227 214
f 147 67 148
f 148 67 269
f 224 168 281
f 281 168 167
f 199 163 200
f 200 163 162
f 45 46 108
f 108 46 107
f 281 167 48
f 48 167 49
f 161 164 291
f 291 164 292
f 38 123 39
f 293 294 277
f 277 294 248
f 284 283 296
f 296 283 295
f 284 296 273
f 273 296 297
f 274 273 298
f 298 273 297
f 246 274 299
f 299 274 298
f 283 222 295
f 295 222 300
f 222 225 300
f 300 225 301
f 301 225 302
f 302 225 282
f 303 304 300
f 300 304 295
f 306 307 305
f 305 307 308
f 309 310 308
f 308 310 305
f 308 307 312
f 312 307 311
f 313 314 312
f 312 314 315
f 311 316 312
f 312 316 313
f 317 304 311
f 311 304 316
f 315 309 312
f 312 309 308
f 318 319 321
f 321 319 320
f 319 318 309
f 309 318 310
f 311 307 317
f 317 307 306
f 306 297 317
f 317 297 296
f 306 322 297
f 297 322 298
f 305 323 306
f 306 323 322
f 323 305 324
f 324 305 310
f 304 317 295
f 295 317 296
f 318 325 310
f 310 325 324
f 323 324 326
f 326 324 327
f 324 325 327
f 327 325 328
f 326 327 329
f 329 327 330
f 329 331 326
f 326 331 332
f 333 330 328
f 328 330 327
f 323 326 322
f 322 326 332
f 322 332 298
f 298 332 299
f 325 318 334
f 334 318 321
f 313 316 335
f 335 316 304
f 335 336 313
f 313 336 314
f 304 303 335
f 335 303 337
f 336 335 338
f 338 335 337
f 336 339 314
f 314 339 340
f 246 299 238
f 238 299 341
f 239 342 282
f 282 342 302
f 342 239 341
f 341 239 238
f 341 331 342
f 342 331 343
f 331 329 343
f 343 329 344
f 342 343 302
f 302 343 345
f 341 299 331
f 331 299 332
f 346 301 345
f 345 301 302
f 346 303 301
f 301 303 300
f 347 337 346
f 346 337 303
f 347 346 348
f 348 346 345
f 349 347 350
f 350 347 348
f 343 344 345
f 345 344 348
f 344 351 348
f 348 351 350
f 337 347 338
f 338 347 349
f 353 338 352
f 352 338 349
f 352 355 354
f 354 355 356
f 352 349 355
f 355 349 350
f 352 354 353
f 353 354 334
f 353 334 339
f 339 334 321
f 339 336 353
f 353 336 338
f 329 330 344
f 344 330 351
f 356 351 333
f 333 351 330
f 356 355 351
f 351 355 350
f 354 356 328
f 328 356 333
f 328 325 354
f 354 325 334
f 309 315 319
f 319 315 320
f 320 340 321
f 321 340 339
f 320 315 340
f 340 315 314
f 137 136 261
f 261 136 259
f 140 166 141
f 141 166 165
f 172 171 195
f 195 171 196
f 171 174 196
f 196 174 190
f 178 177 264
f 264 177 187
f 172 195 140
f 140 195 166
f 137 261 262
f 262 261 275
f 178 264 141
f 141 264 138
f 262 177 213
f 213 177 176
f 136 174 259
f 259 174 173
f 358 359 357
f 357 359 360
f 362 363 361
f 361 363 364
f 361 364 365
f 365 364 366
f 367 368 370
f 370 368 369
f 76 371 247
f 247 371 372
f 373 374 362
f 362 374 363
f 376 377 375
f 375 377 378
f 289 229 380
f 380 229 379
f 381 379 263
f 263 379 229
f 383 384 382
f 382 384 385
f 386 368 374
f 374 368 363
f 76 289 371
f 371 289 380
f 377 376 359
f 359 376 387
f 388 386 360
f 360 386 374
f 389 383 366
f 366 383 390
f 392 393 391
f 391 393 394
f 383 382 390
f 390 382 395
f 396 365 390
f 390 365 366
f 389 366 367
f 367 366 364
f 357 397 358
f 358 397 398
f 373 399 357
f 357 399 397
f 389 367 400
f 400 367 370
f 382 385 375
f 375 385 372
f 357 360 373
f 373 360 374
f 361 401 362
f 362 401 402
f 387 388 359
f 359 388 360
f 363 368 364
f 364 368 367
f 358 398 403
f 403 398 404
f 396 392 405
f 405 392 391
f 392 395 393
f 393 395 378
f 393 403 394
f 394 403 404
f 375 378 382
f 382 378 395
f 365 396 406
f 406 396 405
f 362 402 373
f 373 402 399
f 271 270 400
f 400 270 384
f 401 361 406
f 406 361 365
f 381 369 386
f 386 369 368
f 392 396 395
f 395 396 390
f 393 378 403
f 403 378 377
f 403 377 358
f 358 377 359
f 406 405 408
f 408 405 407
f 406 408 401
f 401 408 409
f 401 409 402
f 402 409 410
f 402 410 399
f 399 410 411
f 405 391 407
f 407 391 412
f 391 394 412
f 412 394 413
f 394 404 413
f 413 404 414
f 415 416 412
f 412 416 407
f 418 419 417
f 417 419 420
f 421 422 418
f 418 422 419
f 419 422 424
f 424 422 423
f 425 426 424
f 424 426 427
f 423 428 424
f 424 428 425
f 427 420 424
f 424 420 419
f 420 429 417
f 417 429 430
f 423 422 431
f 431 422 421
f 421 409 431
f 431 409 408
f 421 432 409
f 409 432 410
f 418 433 421
f 421 433 432
f 434 433 417
f 417 433 418
f 431 416 423
f 423 416 428
f 416 431 407
f 407 431 408
f 435 434 430
f 430 434 417
f 433 434 436
f 436 434 437
f 434 435 437
f 437 435 438
f 436 437 439
f 439 437 440
f 439 441 436
f 436 441 442
f 438 443 437
f 437 443 440
f 436 442 433
f 433 442 432
f 432 442 410
f 410 442 411
f 435 430 445
f 445 430 444
f 430 429 444
f 444 429 446
f 425 428 447
f 447 428 416
f 426 425 448
f 448 425 447
f 416 415 447
f 447 415 449
f 447 449 448
f 448 449 450
f 451 452 448
f 448 452 426
f 446 452 444
f 444 452 451
f 399 411 397
f 397 411 453
f 398 454 404
f 404 454 414
f 454 398 453
f 453 398 397
f 453 441 454
f 454 441 455
f 441 439 455
f 455 439 456
f 454 455 414
f 414 455 457
f 441 453 442
f 442 453 411
f 458 413 457
f 457 413 414
f 458 415 413
f 413 415 412
f 458 459 415
f 415 459 449
f 459 458 460
f 460 458 457
f 461 459 462
f 462 459 460
f 455 456 457
f 457 456 460
f 456 463 460
f 460 463 462
f 459 461 449
f 449 461 450
f 465 450 464
f 464 450 461
f 464 467 466
f 466 467 468
f 464 461 467
f 467 461 462
f 464 466 465
f 465 466 445
f 465 445 451
f 451 445 444
f 451 448 465
f 465 448 450
f 439 440 456
f 456 440 463
f 468 463 443
f 443 463 440
f 468 467 463
f 463 467 462
f 466 468 438
f 438 468 443
f 438 435 466
f 466 435 445
f 420 427 429
f 429 427 446
f 446 427 452
f 452 427 426
f 370 369 188
f 188 369 186
f 371 376 372
f 372 376 375
f 380 379 387
f 387 379 388
f 379 381 388
f 388 381 386
f 385 384 278
f 278 384 270
f 380 387 371
f 371 387 376
f 400 370 271
f 271 370 188
f 385 278 372
f 372 278 247
f 400 384 389
f 389 384 383
f 369 381 186
f 186 381 263
f 221 271 144
f 144 271 188
f 221 19 207
f 207 19 22
f 19 18 22
f 22 18 23
f 18 219 23
f 23 219 208
f 469 470 472
f 472 470 471
f 474 475 473
f 473 475 476
f 473 476 477
f 477 476 478
f 480 481 479
f 479 481 482
f 483 484 474
f 474 484 475
f 486 487 485
f 485 487 488
f 489 490 77
f 77 490 142
f 491 489 248
f 248 489 77
f 493 494 492
f 492 494 495
f 496 480 484
f 484 480 475
f 486 497 487
f 487 497 471
f 498 496 472
f 472 496 484
f 499 493 478
f 478 493 500
f 501 502 504
f 504 502 503
f 493 492 500
f 500 492 505
f 506 477 500
f 500 477 478
f 499 478 479
f 479 478 476
f 469 507 470
f 470 507 508
f 483 509 469
f 469 509 507
f 479 482 499
f 499 482 510
f 492 495 485
f 485 495 511
f 483 469 484
f 484 469 472
f 473 512 474
f 474 512 513
f 497 498 471
f 471 498 472
f 475 480 476
f 476 480 479
f 470 508 514
f 514 508 515
f 506 502 516
f 516 502 501
f 503 502 488
f 488 502 505
f 514 515 503
f 503 515 504
f 485 488 492
f 492 488 505
f 477 506 517
f 517 506 516
f 474 513 483
f 483 513 509
f 510 292 494
f 494 292 164
f 512 473 517
f 517 473 477
f 491 481 496
f 496 481 480
f 502 506 505
f 505 506 500
f 503 488 514
f 514 488 487
f 514 487 470
f 470 487 471
f 517 516 519
f 519 516 518
f 517 519 512
f 512 519 520
f 512 520 513
f 513 520 521
f 513 521 509
f 509 521 522
f 516 501 518
f 518 501 523
f 501 504 523
f 523 504 524
f 524 504 525
f 525 504 515
f 526 527 523
f 523 527 518
f 529 530 528
f 528 530 531
f 532 533 529
f 529 533 530
f 530 533 535
f 535 533 534
f 536 537 535
f 535 537 538
f 534 539 535
f 535 539 536
f 538 531 535
f 535 531 530
f 540 541 531
f 531 541 528
f 533 532 534
f 534 532 542
f 532 520 542
f 542 520 519
f 532 543 520
f 520 543 521
f 529 544 532
f 532 544 543
f 544 529 545
f 545 529 528
f 534 542 539
f 539 542 527
f 527 542 518
f 518 542 519
f 541 546 528
f 528 546 545
f 547 544 548
f 548 544 545
f 546 549 545
f 545 549 548
f 550 547 551
f 551 547 548
f 547 550 553
f 553 550 552
f 549 554 548
f 548 554 551
f 544 547 543
f 543 547 553
f 543 553 521
f 521 553 522
f 546 541 556
f 556 541 555
f 541 540 555
f 555 540 557
f 536 539 558
f 558 539 527
f 537 536 559
f 559 536 558
f 527 526 558
f 558 526 560
f 559 558 561
f 561 558 560
f 559 562 537
f 537 562 563
f 557 563 555
f 555 563 562
f 509 522 507
f 507 522 564
f 508 565 515
f 515 565 525
f 565 508 564
f 564 508 507
f 564 552 565
f 565 552 566
f 552 550 566
f 566 550 567
f 565 566 525
f 525 566 568
f 564 522 552
f 552 522 553
f 569 524 568
f 568 524 525
f 569 526 524
f 524 526 523
f 570 560 569
f 569 560 526
f 570 569 571
f 571 569 568
f 572 570 573
f 573 570 571
f 566 567 568
f 568 567 571
f 567 574 571
f 571 574 573
f 570 572 560
f 560 572 561
f 576 561 575
f 575 561 572
f 575 578 577
f 577 578 579
f 575 572 578
f 578 572 573
f 575 577 576
f 576 577 556
f 576 556 562
f 562 556 555
f 562 559 576
f 576 559 561
f 550 551 567
f 567 551 574
f 579 574 554
f 554 574 551
f 579 578 574
f 574 578 573
f 579 554 577
f 577 554 549
f 549 546 577
f 577 546 556
f 531 538 540
f 540 538 557
f 557 538 563
f 563 538 537
f 481 294 482
f 482 294 293
f 580 486 511
f 511 486 485
f 490 489 497
f 497 489 498
f 489 491 498
f 498 491 496
f 163 495 164
f 164 495 494
f 580 490 486
f 486 490 497
f 482 293 510
f 510 293 292
f 495 163 511
f 511 163 199
f 494 493 510
f 510 493 499
f 481 491 294
f 294 491 248
f 582 583 581
f 581 583 584
f 586 587 585
f 585 587 588
f 585 588 589
f 589 588 590
f 592 593 591
f 591 593 594
f 595 596 598
f 598 596 597
f 599 600 586
f 586 600 587
f 601 602 604
f 604 602 603
f 605 606 608
f 608 606 607
f 609 607 200
f 200 607 606
f 610 611 613
f 613 611 612
f 600 614 587
f 587 614 592
f 596 605 597
f 597 605 608
f 602 615 603
f 603 615 583
f 616 614 584
f 584 614 600
f 611 618 617
f 617 618 590
f 620 621 619
f 619 621 622
f 610 623 611
f 611 623 618
f 624 589 618
f 618 589 590
f 617 590 591
f 591 590 588
f 581 625 582
f 582 625 626
f 599 627 581
f 581 627 625
f 591 594 617
f 617 594 628
f 601 610 598
f 598 610 613
f 581 584 599
f 599 584 600
f 585 629 586
f 586 629 630
f 615 616 583
f 583 616 584
f 587 592 588
f 588 592 591
f 582 626 631
f 631 626 632
f 624 620 633
f 633 620 619
f 621 620 604
f 604 620 623
f 631 632 621
f 621 632 622
f 610 601 623
f 623 601 604
f 589 624 634
f 634 624 633
f 586 630 599
f 599 630 627
f 203 202 628
f 628 202 612
f 629 585 634
f 634 585 589
f 609 593 614
f 614 593 592
f 620 624 623
f 623 624 618
f 631 621 603
f 603 621 604
f 582 631 583
f 583 631 603
f 634 633 636
f 636 633 635
f 634 636 629
f 629 636 637
f 629 637 630
f 630 637 638
f 630 638 627
f 627 638 639
f 633 619 635
f 635 619 640
f 619 622 640
f 640 622 641
f 641 622 642
f 642 622 632
f 644 635 643
f 643 635 640
f 645 646 648
f 648 646 647
f 649 650 646
f 646 650 647
f 647 650 652
f 652 650 651
f 652 653 655
f 655 653 654
f 651 656 652
f 652 656 653
f 655 648 652
f 652 648 647
f 648 657 645
f 645 657 658
f 650 649 651
f 651 649 659
f 649 637 659
f 659 637 636
f 649 660 637
f 637 660 638
f 661 660 646
f 646 660 649
f 662 661 645
f 645 661 646
f 651 659 656
f 656 659 644
f 644 659 635
f 635 659 636
f 663 662 658
f 658 662 645
f 664 661 665
f 665 661 662
f 663 666 662
f 662 666 665
f 667 664 668
f 668 664 665
f 664 667 670
f 670 667 669
f 666 671 665
f 665 671 668
f 661 664 660
f 660 664 670
f 660 670 638
f 638 670 639
f 658 672 663
f 663 672 673
f 658 657 672
f 672 657 674
f 653 656 675
f 675 656 644
f 653 675 654
f 654 675 676
f 675 644 677
f 677 644 643
f 676 675 678
f 678 675 677
f 679 680 676
f 676 680 654
f 674 680 672
f 672 680 679
f 627 639 625
f 625 639 681
f 626 682 632
f 632 682 642
f 681 682 625
f 625 682 626
f 669 683 681
f 681 683 682
f 667 684 669
f 669 684 683
f 682 683 642
f 642 683 685
f 681 639 669
f 669 639 670
f 686 641 685
f 685 641 642
f 641 686 640
f 640 686 643
f 686 687 643
f 643 687 677
f 687 686 688
f 688 686 685
f 689 687 690
f 690 687 688
f 683 684 685
f 685 684 688
f 684 691 688
f 688 691 690
f 687 689 677
f 677 689 678
f 693 678 692
f 692 678 689
f 692 695 694
f 694 695 696
f 692 689 695
f 695 689 690
f 692 694 693
f 693 694 673
f 693 673 679
f 679 673 672
f 679 676 693
f 693 676 678
f 684 667 691
f 691 667 668
f 696 691 671
f 671 691 668
f 696 695 691
f 691 695 690
f 694 696 666
f 666 696 671
f 666 663 694
f 694 663 673
f 648 655 657
f 657 655 674
f 674 655 680
f 680 655 654
f 593 162 594
f 594 162 290
f 598 597 601
f 601 597 602
f 615 608 616
f 616 608 607
f 607 609 616
f 616 609 614
f 697 595 613
f 613 595 598
f 597 608 602
f 602 608 615
f 594 290 628
f 628 290 203
f 628 612 617
f 617 612 611
f 593 609 162
f 162 609 200
f 105 29 698
f 698 29 699
f 268 126 701
f 701 126 700
f 126 125 700
f 700 125 702
f 252 703 250
f 250 703 704
f 32 268 705
f 705 268 701
f 288 105 706
f 706 105 698
f 29 32 699
f 699 32 705
f 707 251 706
f 706 251 288
f 250 704 125
f 125 704 702
f 703 252 707
f 707 252 251
f 706 708 707
f 707 708 709
f 707 709 703
f 703 709 710
f 703 710 704
f 704 710 711
f 704 711 702
f 702 711 712
f 706 698 708
f 708 698 713
f 698 699 713
f 713 699 714
f 699 705 714
f 714 705 715
f 717 708 716
f 716 708 713
f 719 720 718
f 718 720 721
f 722 723 719
f 719 723 720
f 724 725 723
f 723 725 720
f 724 726 725
f 725 726 727
f 728 721 725
f 725 721 720
f 721 728 729
f 729 728 730
f 729 731 721
f 721 731 718
f 724 723 732
f 732 723 722
f 722 710 732
f 732 710 709
f 722 733 710
f 710 733 711
f 719 734 722
f 722 734 733
f 734 719 735
f 735 719 718
f 724 732 726
f 726 732 717
f 717 732 708
f 708 732 709
f 731 736 718
f 718 736 735
f 737 734 738
f 738 734 735
f 736 739 735
f 735 739 738
f 740 737 741
f 741 737 738
f 737 740 743
f 743 740 742
f 739 744 738
f 738 744 741
f 734 737 733
f 733 737 743
f 733 743 711
f 711 743 712
f 736 731 746
f 746 731 745
f 731 729 745
f 745 729 730
f 727 726 747
f 747 726 717
f 748 727 749
f 749 727 747
f 747 717 750
f 750 717 716
f 749 747 751
f 751 747 750
f 749 752 748
f 748 752 753
f 730 753 745
f 745 753 752
f 728 725 748
f 748 725 727
f 730 728 753
f 753 728 748
f 700 702 754
f 754 702 712
f 705 701 715
f 715 701 755
f 754 755 700
f 700 755 701
f 742 756 754
f 754 756 755
f 740 757 742
f 742 757 756
f 755 756 715
f 715 756 758
f 754 712 742
f 742 712 743
f 759 714 758
f 758 714 715
f 714 759 713
f 713 759 716
f 759 760 716
f 716 760 750
f 760 759 761
f 761 759 758
f 762 760 763
f 763 760 761
f 756 757 758
f 758 757 761
f 757 764 761
f 761 764 763
f 760 762 750
f 750 762 751
f 766 751 765
f 765 751 762
f 767 765 769
f 769 765 768
f 765 762 768
f 768 762 763
f 765 767 766
f 766 767 746
f 766 746 752
f 752 746 745
f 752 749 766
f 766 749 751
f 757 740 764
f 764 740 741
f 769 764 744
f 744 764 741
f 769 768 764
f 764 768 763
f 767 769 739
f 739 769 744
f 739 736 767
f 767 736 746
f 219 217 208
f 208 217 209
f 209 217 210
f 210 217 193
f 198 580 199
f 199 580 511
f 76 75 289
f 289 75 272
f 277 207 291
f 291 207 184
f 290 183 203
f 203 183 84
f 490 580 142
f 142 580 198
f 142 198 143
f 143 198 197
f 149 276 72
f 72 276 73
f 104 103 279
f 279 103 770
f 770 596 279
f 279 596 595
f 605 596 771
f 771 596 770
f 771 770 772
f 772 770 103
f 772 103 773
f 773 103 102
f 155 774 101
f 101 774 102
f 773 102 97
f 97 102 774
f 775 773 100
f 100 773 97
f 773 775 772
f 772 775 776
f 772 776 771
f 771 776 777
f 200 606 197
f 197 606 777
f 189 71 778
f 778 71 74
f 97 774 98
f 98 774 155
f 183 161 184
f 184 161 291
f 777 276 197
f 197 276 143
f 777 606 771
f 771 606 605
f 613 612 697
f 697 612 202
f 595 697 279
f 279 697 202
f 73 276 776
f 776 276 777
f 776 775 73
f 73 775 74
f 100 778 775
f 775 778 74
f 778 100 189
f 189 100 99
f 245 242 99
f 99 242 189
f 131 33 256
f 28 1 95
f 95 1 62
f 27 2 28
f 28 2 1
f 265 115 266
f 266 115 114
f 95 62 69
f 69 62 64
f 62 61 64
f 64 61 65
f 61 13 65
f 65 13 130
f 13 12 130
f 130 12 14
f 31 11 32
f 32 11 268
f 15 12 31
f 31 12 11
f 31 30 15
f 15 30 231
f 30 106 231
f 231 106 232
f 287 237 106
f 106 237 232
f 254 90 287
f 287 90 237
f 253 44 254
f 254 44 90
f 253 249 44
f 44 249 7
f 267 127 268
f 268 127 126
f 10 3 241
f 241 3 116
f 3 2 116
f 116 2 114
f 2 27 114
f 114 27 266
f 27 26 266
f 266 26 113
f 26 286 113
f 113 286 110
f 286 243 110
f 110 243 255
f 243 242 255
f 255 242 256
f 242 245 256
f 256 245 131
f 245 244 131
f 131 244 132
f 265 37 115
f 115 37 41
f 41 37 42
f 42 37 40
f 92 91 40
f 40 91 42
f 236 233 92
f 92 233 91
f 191 194 236
f 236 194 233
f 258 285 244
f 244 285 132
f 257 55 258
f 258 55 285
f 257 154 201
f 201 154 185
f 56 201 204
f 204 201 180
f 55 257 56
f 56 257 201
f 204 85 56
f 56 85 52
f 86 122 53
f 53 122 79
f 212 215 86
f 86 215 122
f 211 216 212
f 212 216 215
f 192 280 211
f 211 280 216
f 191 240 192
f 192 240 280
f 249 124 7
f 7 124 8
f 124 127 8
f 8 127 241
f 127 267 241
f 241 267 10
f 10 267 9
f 9 267 11
