v -0.007280129939317703 0.01000223308801651 1.662064552307129
v 0.0044764019548892975 0.005669193342328072 1.6620427370071411
v -0.002274826169013977 0.0012532304972410202 1.6698960065841675
v -0.0126882903277874 0.0059560369700193405 1.669161319732666
v 0.01772724837064743 -0.0008562486618757248 1.6805368661880493
v 0.022968031466007233 0.005079751834273338 1.6891472339630127
v 0.00661376491189003 0.0024808086454868317 1.6945419311523438
v 0.005014687776565552 -0.003189295530319214 1.6865875720977783
v -0.01767246425151825 0.005572805181145668 1.674790382385254
v -0.008630901575088501 -0.0006011761724948883 1.6754740476608276
v -0.018864307552576065 0.010530094616115093 1.6768027544021606
v -0.026859674602746964 0.020116589963436127 1.678651213645935
v -0.02599852904677391 0.01352780219167471 1.6763335466384888
v -0.033968400210142136 0.024429580196738243 1.6784744262695312
v -0.020773258060216904 0.029884135350584984 1.6787575483322144
v -0.03183691203594208 0.03280084580183029 1.674454689025879
v -0.012261386960744858 0.04448085278272629 1.6582262516021729
v -0.008617386221885681 0.04542798176407814 1.645944595336914
v -0.024163005873560905 0.04332923889160156 1.6446701288223267
v -0.02628127858042717 0.0419151596724987 1.6573619842529297
v -0.013747688382863998 0.039964668452739716 1.62759268283844
v -0.020511586219072342 0.04195854440331459 1.636795997619629
v -0.004765748977661133 0.04515017569065094 1.6380634307861328
v 0.0004656463861465454 0.04299229383468628 1.6296545267105103
v 0.0008028112351894379 0.014981948770582676 1.6495020389556885
v 0.011890165507793427 0.013013006187975407 1.648442029953003
v 0.00967872142791748 0.010998653247952461 1.6530499458312988
v -0.0011980682611465454 0.013702459633350372 1.6541504859924316
v -0.018798865377902985 0.014881342649459839 1.6833560466766357
v -0.01221366599202156 0.022940518334507942 1.6849875450134277
v -0.017237886786460876 0.018749326467514038 1.6804859638214111
v -0.01918846368789673 0.009948545135557652 1.6806772947311401
v 0.037805721163749695 0.006975188851356506 1.6404012441635132
v 0.04965279996395111 0.012764831073582172 1.6427026987075806
v 0.048985108733177185 0.013246110640466213 1.6485614776611328
v 0.03833121061325073 0.008173561654984951 1.6451302766799927
v 0.04177027940750122 0.010570261627435684 1.6730475425720215
v 0.04842734336853027 0.01598738133907318 1.6673698425292969
v 0.05249045789241791 0.0251963771879673 1.6765297651290894
v 0.04389912635087967 0.02334894798696041 1.6810518503189087
v 0.03317937254905701 0.006887305527925491 1.6819345951080322
v 0.035313062369823456 0.01783830299973488 1.6877928972244263
v 0.02266445755958557 0.015653647482395172 1.6940563917160034
v 0.005388826131820679 0.011242322623729706 1.6981946229934692
v 0.05113677680492401 0.014671123586595058 1.6301382780075073
v 0.0428156778216362 0.010208732448518276 1.6266800165176392
v -0.08020149171352386 0.04888667166233063 1.6689530611038208
v -0.07983256876468658 0.04948529228568077 1.6632401943206787
v -0.07731391489505768 0.04156196117401123 1.6644566059112549
v -0.07792229950428009 0.04288366064429283 1.6698251962661743
v 0.04450569301843643 0.02886204607784748 1.6176732778549194
v 0.04307549446821213 0.03880682215094566 1.6185110807418823
v 0.05022522062063217 0.03770539537072182 1.618284821510315
v 0.051767610013484955 0.028512220829725266 1.6193699836730957
v 0.034848518669605255 0.029133878648281097 1.6155897378921509
v 0.03306875377893448 0.039642274379730225 1.6193726062774658
v -0.07018191367387772 0.05337601900100708 1.6736403703689575
v -0.0748092532157898 0.05171290040016174 1.6745696067810059
v -0.07173270732164383 0.047499001026153564 1.6750826835632324
v -0.06672348827123642 0.049171216785907745 1.6730475425720215
v -0.022507810965180397 0.01068185269832611 1.6710846424102783
v -0.01745220273733139 0.011383185163140297 1.6632404327392578
v -0.04521533474326134 0.015127656050026417 1.669907808303833
v -0.03199254348874092 0.0134279141202569 1.6659890413284302
v -0.03251007944345474 0.013836118392646313 1.6732115745544434
v -0.04272141307592392 0.016849424690008163 1.675739049911499
v -0.021624445915222168 0.015825843438506126 1.6445168256759644
v -0.009877283126115799 0.01616455428302288 1.6457871198654175
v -0.012883178889751434 0.01589304581284523 1.651503562927246
v -0.02606757916510105 0.014917916618287563 1.6518903970718384
v -0.005579151213169098 0.013365395367145538 1.632637619972229
v -0.017530281096696854 0.013612858951091766 1.6324406862258911
v -0.013855401426553726 0.01186288706958294 1.6249852180480957
v -0.0058730654418468475 0.01117118913680315 1.626475214958191
v -0.04055922478437424 0.015296039171516895 1.6350679397583008
v -0.048971135169267654 0.019037649035453796 1.6346123218536377
v -0.04875130206346512 0.021595599129796028 1.6294276714324951
v -0.03922197222709656 0.016229121014475822 1.6310451030731201
v 0.05725204944610596 0.037703871726989746 1.618526816368103
v 0.05850660055875778 0.028572287410497665 1.6218957901000977
v -0.004610203206539154 0.03305499628186226 1.6099271774291992
v 0.0013995841145515442 0.025457333773374557 1.6048407554626465
v -0.010569144040346146 0.023424088954925537 1.600669264793396
v -0.013156071305274963 0.03167063370347023 1.6074237823486328
v 0.03993900865316391 0.046449098736047745 1.624776840209961
v 0.04741085320711136 0.04639849066734314 1.6224735975265503
v -0.06612055003643036 0.055005766451358795 1.669235348701477
v -0.06350504606962204 0.05119094252586365 1.6681663990020752
v 0.021688632667064667 0.02691025473177433 1.691381573677063
v 0.00343882292509079 0.019912291318178177 1.6966089010238647
v 0.03489445894956589 0.030929936096072197 1.685167908668518
v 0.04335535317659378 0.03442296385765076 1.6800379753112793
v 0.051509737968444824 0.03660668432712555 1.6783223152160645
v -0.03602997958660126 0.01325389463454485 1.6600494384765625
v -0.01110326498746872 0.013848730362951756 1.6567749977111816
v 0.002478834241628647 0.014946185052394867 1.6449624300003052
v 0.00728190690279007 0.0070913005620241165 1.6158300638198853
v 0.017814375460147858 0.006815189495682716 1.6175543069839478
v 0.012095153331756592 0.00668102502822876 1.6264656782150269
v 0.0040409155189991 0.007612347602844238 1.6230438947677612
v 0.001889113336801529 0.015816757455468178 1.6038384437561035
v -0.001086954027414322 0.009892498143017292 1.6081880331039429
v -0.010749485343694687 0.009974522516131401 1.6061086654663086
v -0.009020842611789703 0.015083291567862034 1.60123610496521
v -0.018074341118335724 0.018146080896258354 1.6897144317626953
v -0.007236417382955551 0.02586986869573593 1.6892638206481934
v 0.04524905979633331 0.01879209838807583 1.6204713582992554
v 0.0518791526556015 0.019677050411701202 1.624267339706421
v 0.05948931723833084 0.02236928604543209 1.6264629364013672
v 0.025189407169818878 0.008986299857497215 1.6458617448806763
v 0.038811445236206055 0.008767059072852135 1.6486364603042603
v 0.038008272647857666 0.00798522774130106 1.6536545753479004
v 0.024669989943504333 0.00901107769459486 1.6487995386123657
v 0.01706690341234207 0.0010723751038312912 1.6649973392486572
v 0.029165118932724 0.0021283328533172607 1.6698497533798218
v 0.007756773382425308 -0.0030464306473731995 1.6733754873275757
v 0.049888692796230316 0.014191349036991596 1.6568996906280518
v 0.05870990455150604 0.015327705070376396 1.6504731178283691
v 0.05827789008617401 0.017043940722942352 1.6592737436294556
v 0.05965086817741394 0.016094479709863663 1.6407616138458252
v 0.05997111648321152 0.01827368699014187 1.6321325302124023
v 0.055221788585186005 0.04922618716955185 1.620873212814331
v 0.056772731244564056 0.02028200961649418 1.6670366525650024
v -0.0038344860076904297 -0.0036336779594421387 1.6888192892074585
v -0.011978045105934143 -0.0038279015570878983 1.6897865533828735
v -0.014057718217372894 -0.0025632381439208984 1.6824843883514404
v -0.007381148636341095 -0.002855667844414711 1.6812559366226196
v -0.042270682752132416 0.0295640230178833 1.6779741048812866
v -0.04360737279057503 0.02224007435142994 1.6787742376327515
v -0.032536640763282776 0.017599668353796005 1.6787105798721313
v 0.028241485357284546 0.005910301581025124 1.634053111076355
v 0.03300199657678604 0.008381973952054977 1.6227296590805054
v -0.0487758070230484 0.016763584688305855 1.6640206575393677
v -0.06195494532585144 0.04965629428625107 1.672298550605774
v -0.0658731758594513 0.046309277415275574 1.6754003763198853
v -0.052729785442352295 0.039214976131916046 1.676470398902893
v -0.05040604621171951 0.04380177706480026 1.672688603401184
v -0.055752117186784744 0.026829393580555916 1.658818244934082
v -0.05435655266046524 0.02244444563984871 1.6637287139892578
v -0.05703437328338623 0.026714026927947998 1.6630666255950928
v -0.05824657902121544 0.030743028968572617 1.6583731174468994
v -0.04316689074039459 0.019363056868314743 1.622560739517212
v -0.03511042892932892 0.014978675171732903 1.6237869262695312
v -0.04101945087313652 0.0369364395737648 1.6558536291122437
v -0.03725612908601761 0.03837424889206886 1.66739821434021
v -0.028119508177042007 0.039497584104537964 1.6666845083236694
v -0.018488667905330658 0.01502316165715456 1.637800931930542
v -0.02936635911464691 0.01447044126689434 1.635819673538208
v -0.028254706412553787 0.014236198738217354 1.631783366203308
v -0.039610713720321655 0.014327961951494217 1.6565585136413574
v -0.049595244228839874 0.017776381224393845 1.6580199003219604
v -0.04519997537136078 0.016551094129681587 1.6531269550323486
v -0.035805102437734604 0.01507672667503357 1.6516627073287964
v 0.013708464801311493 0.027930548414587975 1.6081562042236328
v 0.014569327235221863 0.01652047596871853 1.6065919399261475
v -0.07839496433734894 0.04985024407505989 1.6730090379714966
v -0.07552110403776169 0.04471593350172043 1.6737397909164429
v -0.007047694176435471 0.015389579348266125 1.6391847133636475
v -0.015249885618686676 0.040461719036102295 1.666913390159607
v 0.004303082823753357 0.01420119870454073 1.6399171352386475
v -0.028158776462078094 0.030976660549640656 1.6174527406692505
v -0.029269658029079437 0.026048235595226288 1.613669753074646
v -0.03466728329658508 0.02670929953455925 1.6153090000152588
v -0.03318730741739273 0.031800832599401474 1.61708664894104
v -0.0678606629371643 0.0415739044547081 1.655817985534668
v -0.07145606726408005 0.03894389793276787 1.6597343683242798
v -0.07534096390008926 0.04240650683641434 1.6584792137145996
v -0.07120690494775772 0.04459080472588539 1.655371904373169
v -0.053177401423454285 0.021863114088773727 1.669477105140686
v -0.05089355260133743 0.02293894998729229 1.6754618883132935
v -0.05683070421218872 0.028365682810544968 1.6737329959869385
v -0.05755161866545677 0.027079351246356964 1.6681679487228394
v -0.05001944303512573 0.029021501541137695 1.6779545545578003
v -0.05491854250431061 0.033411476761102676 1.6768443584442139
v -0.06278668344020844 0.045895401388406754 1.656278133392334
v -0.05844742804765701 0.05009978637099266 1.6612452268600464
v -0.05068550258874893 0.04362791031599045 1.6601089239120483
v -0.056121062487363815 0.03822360932826996 1.6575961112976074
v 0.014564484357833862 0.04629669710993767 1.6320797204971313
v 0.018303826451301575 0.04241521656513214 1.6224792003631592
v 0.004337593913078308 0.03907638043165207 1.6197712421417236
v -0.008832816034555435 0.03639121726155281 1.6167502403259277
v -0.021120894700288773 0.032403551042079926 1.6151411533355713
v -0.025007570162415504 0.03765547275543213 1.625481128692627
v 0.00825800746679306 0.035932254046201706 1.6135737895965576
v -0.05248036980628967 0.031962282955646515 1.6536778211593628
v -0.0459488108754158 0.03673043102025986 1.6598138809204102
v -0.04747729375958443 0.0352841317653656 1.6546399593353271
v 0.0058714523911476135 0.011472475714981556 1.633224606513977
v -0.06886037439107895 0.043028492480516434 1.6752229928970337
v 0.04039621353149414 0.05032748728990555 1.6666951179504395
v 0.04055611044168472 0.054089225828647614 1.6543605327606201
v 0.03212224692106247 0.05209869146347046 1.6559423208236694
v 0.03165767341852188 0.04742126911878586 1.6690937280654907
v -0.07272002100944519 0.0375678651034832 1.6663968563079834
v -0.07208399474620819 0.03928770869970322 1.6720521450042725
v -0.0336800143122673 0.01486137043684721 1.617421269416809
v -0.039800893515348434 0.019289134070277214 1.6178592443466187
v -0.03892647475004196 0.02145872637629509 1.6152102947235107
v -0.03385024890303612 0.016381464898586273 1.6126872301101685
v 0.02151741087436676 0.03986363112926483 1.6183300018310547
v -0.018877077847719193 0.022081667557358742 1.5985804796218872
v -0.01955270767211914 0.029754456132650375 1.6038347482681274
v 0.030576616525650024 0.04537676274776459 1.6252696514129639
v 0.027402028441429138 0.0493440255522728 1.6335234642028809
v 0.03684636950492859 0.05135670304298401 1.6339921951293945
v -0.03648462891578674 0.03786580637097359 1.6360187530517578
v 0.009905092418193817 0.047850921750068665 1.6391549110412598
v 0.023959197103977203 0.05029785633087158 1.640246868133545
v 0.03512231260538101 0.0527113638818264 1.6411257982254028
v 0.043136708438396454 0.05493948608636856 1.6410186290740967
v 0.04425925016403198 0.05300523340702057 1.6332194805145264
v -0.05936753749847412 0.050543464720249176 1.6666173934936523
v -0.062159985303878784 0.05097880959510803 1.6621860265731812
v 0.052548110485076904 0.056359801441431046 1.6317745447158813
v 0.05105673521757126 0.057768937200307846 1.6407815217971802
v 0.02081453800201416 0.050522319972515106 1.6488837003707886
v 0.017313741147518158 0.04951077699661255 1.6587982177734375
v 0.007338065654039383 0.04800102114677429 1.6473695039749146
v 0.002737518399953842 0.046862322837114334 1.6573090553283691
v -0.03479556366801262 0.04150654003024101 1.6456621885299683
v -0.07048037648200989 0.06532339751720428 1.6595466136932373
v -0.06731807440519333 0.05490742623806 1.6581218242645264
v -0.07224041223526001 0.05283024162054062 1.6557326316833496
v -0.07330493628978729 0.06378509104251862 1.6567413806915283
v -0.06620073318481445 0.04779679328203201 1.6568405628204346
v -0.06444869935512543 0.05547158047556877 1.6631324291229248
v -0.0003863386809825897 0.04180573672056198 1.6686197519302368
v -0.05477128177881241 0.02244390919804573 1.6527037620544434
v 0.015577718615531921 0.04246797412633896 1.6721134185791016
v -0.00835975632071495 0.034543536603450775 1.6799815893173218
v 0.003331795334815979 0.03391528129577637 1.6830071210861206
v 0.03187573701143265 0.04179520905017853 1.678385615348816
v 0.018509231507778168 0.03593161329627037 1.685286045074463
v 0.04913029819726944 0.045646533370018005 1.6740742921829224
v 0.040382251143455505 0.04416656494140625 1.6753190755844116
v 0.005315352231264114 0.028971325606107712 1.6909044981002808
v -0.0834011435508728 0.059151917695999146 1.664538025856018
v -0.08154303580522537 0.05905917286872864 1.659416675567627
v 0.04841101914644241 0.052633412182331085 1.6659103631973267
v -0.0011697225272655487 -0.0036712773144245148 1.6785551309585571
v 0.016128644347190857 0.009613468311727047 1.6364874839782715
v 0.014518119394779205 0.011727266013622284 1.6412526369094849
v 0.023956425487995148 0.0072020553052425385 1.619320034980774
v 0.01922481507062912 0.0064215026795864105 1.6299452781677246
v -0.08238175511360168 0.059974249452352524 1.6694236993789673
v -0.05026053637266159 0.024884479120373726 1.6331006288528442
v -0.049465227872133255 0.026914820075035095 1.6305513381958008
v -0.002905033528804779 0.000745866447687149 1.6959829330444336
v -0.010569240897893906 -0.0004213787615299225 1.6964664459228516
v -0.015721268951892853 0.011412635445594788 1.6987600326538086
v -0.012994766235351562 0.004893302917480469 1.7000732421875
v -0.0044718049466609955 0.008546269498765469 1.6994901895523071
v -0.006978802382946014 0.015690548345446587 1.698058843612671
v 0.025276154279708862 0.008577766828238964 1.643412470817566
v 0.025649845600128174 0.007735406048595905 1.6397029161453247
v 0.025018863379955292 0.028379881754517555 1.611841082572937
v 0.02520846575498581 0.016975577920675278 1.610614538192749
v -0.047626301646232605 0.034474801272153854 1.6767983436584473
v -0.040067218244075775 0.035477541387081146 1.674015760421753
v -0.04505845531821251 0.03945043683052063 1.6726666688919067
v -0.04825499653816223 0.04492083936929703 1.6665375232696533
v -0.056371595710515976 0.02883737161755562 1.6520943641662598
v -0.05273474007844925 0.03242819011211395 1.6577024459838867
v 0.033787503838539124 0.0049436818808317184 1.660485863685608
v 0.022150836884975433 0.0062391627579927444 1.6552091836929321
v -0.012413505464792252 0.0008872635662555695 1.678289532661438
v -0.017050549387931824 0.002591140568256378 1.6789908409118652
v -0.031231405213475227 0.015068892389535904 1.6448450088500977
v -0.04249633103609085 0.036646392196416855 1.6377078294754028
v -0.04165901988744736 0.04079460725188255 1.6455541849136353
v -0.041798170655965805 0.016001902520656586 1.6447157859802246
v -0.07562467455863953 0.06403176486492157 1.6717944145202637
v -0.08005993813276291 0.061676256358623505 1.671504020690918
v -0.043947793543338776 0.040637265890836716 1.6667732000350952
v -0.025227513164281845 0.011960784904658794 1.6242401599884033
v -0.039396658539772034 0.03435434401035309 1.6328974962234497
v -0.045487161725759506 0.03092712163925171 1.634106993675232
v -0.01606326922774315 0.014465592801570892 1.600055456161499
v 0.04919891804456711 0.0561104342341423 1.6539503335952759
v -0.0771251767873764 0.05128105729818344 1.6576467752456665
v -0.07827133685350418 0.06012681871652603 1.6560540199279785
v -0.06859231740236282 0.06585599482059479 1.6633892059326172
v -0.07000991702079773 0.06500769406557083 1.668786883354187
v 0.03452833741903305 0.01707695610821247 1.6159186363220215
v 0.013100355863571167 0.012820730917155743 1.644309401512146
v -0.006451033055782318 0.023259103298187256 1.6930334568023682
v -0.017111822962760925 0.016816550865769386 1.6942952871322632
v -0.05049895495176315 0.018580105155706406 1.6441904306411743
v -0.024021882563829422 0.029650667682290077 1.6105387210845947
v -0.03176528960466385 0.03674805536866188 1.6241859197616577
v -0.035118117928504944 0.03794354200363159 1.6226146221160889
v -0.04092445597052574 0.03852234035730362 1.6263998746871948
v -0.04779147729277611 0.03527233749628067 1.6273690462112427
v -0.07052771747112274 0.06945816427469254 1.6614724397659302
v -0.07225242257118225 0.0701928660273552 1.6672251224517822
v -0.07751929759979248 0.07076644897460938 1.6696211099624634
v -0.08209805935621262 0.06826698780059814 1.669435977935791
v -0.08418044447898865 0.06429530680179596 1.6673617362976074
v -0.07260043919086456 0.0685575008392334 1.6576629877090454
v -0.07536856830120087 0.06700339913368225 1.655458688735962
v -0.07978555560112 0.06271970272064209 1.6556426286697388
v -0.07354080677032471 0.07131659984588623 1.6551612615585327
v -0.07206811010837555 0.07508600503206253 1.6578338146209717
v -0.08059799671173096 0.08312870562076569 1.6628128290176392
v -0.07762850821018219 0.07881389558315277 1.6652404069900513
v -0.07680486142635345 0.0804758369922638 1.6633427143096924
v -0.07819972932338715 0.08449703454971313 1.6610914468765259
v -0.07823103666305542 0.08854790031909943 1.6581701040267944
v -0.08138223737478256 0.08755092322826385 1.6597093343734741
v -0.07389140129089355 0.07747283577919006 1.6619170904159546
v -0.075064517557621 0.0827142596244812 1.6585160493850708
v -0.07346649467945099 0.08089354634284973 1.6550711393356323
v -0.07351281493902206 0.08566266298294067 1.652740478515625
v -0.07491006702184677 0.08764061331748962 1.6558481454849243
v -0.07278614491224289 0.07756826281547546 1.6577905416488647
v -0.07337135076522827 0.07599030435085297 1.663116693496704
v -0.08043211698532104 0.09008815884590149 1.6560977697372437
v -0.07787284255027771 0.09051486849784851 1.6561554670333862
v -0.07553251087665558 0.08974333107471466 1.6538804769515991
v -0.07770188897848129 0.09056863188743591 1.6518713235855103
v -0.08228839933872223 0.07456381618976593 1.6670652627944946
v -0.08288801461458206 0.08202186226844788 1.662582516670227
v -0.08341248333454132 0.08578680455684662 1.6580989360809326
v -0.08227016031742096 0.08844131231307983 1.6546475887298584
v -0.08496367931365967 0.08046174049377441 1.6595538854599
v -0.08431360125541687 0.08386391401290894 1.656075358390808
v -0.08334845304489136 0.08592765033245087 1.6527270078659058
v -0.08557184785604477 0.0786057785153389 1.6558034420013428
v -0.08445177972316742 0.08220922946929932 1.6533952951431274
v -0.08612417429685593 0.0670742392539978 1.6623916625976562
v -0.08498178422451019 0.06973540782928467 1.665801763534546
v -0.08400721102952957 0.08423018455505371 1.6516914367675781
v -0.0790325477719307 0.08918365836143494 1.6505872011184692
v -0.07341774553060532 0.07787784934043884 1.6530925035476685
v -0.07454071938991547 0.08370994031429291 1.650147795677185
v -0.07456403970718384 0.07659393548965454 1.6516964435577393
v -0.07549986243247986 0.08221477270126343 1.64841628074646
v -0.07492166757583618 0.08775842189788818 1.6490349769592285
v -0.07432544231414795 0.0881074070930481 1.6516234874725342
v -0.08423659205436707 0.06154123693704605 1.6632424592971802
v -0.08238206803798676 0.06111978366971016 1.6583480834960938
v -0.08401302248239517 0.06526251137256622 1.657304286956787
v -0.0840199887752533 0.07664748281240463 1.6519548892974854
v -0.08095453679561615 0.06595388054847717 1.6541993618011475
v -0.07608243823051453 0.07020311057567596 1.6531158685684204
v -0.076634481549263 0.0762004479765892 1.650018334388733
v -0.07984083890914917 0.07571779191493988 1.6495763063430786
v -0.07756645977497101 0.08071717619895935 1.6479933261871338
v -0.08005205541849136 0.08013738691806793 1.6485416889190674
v -0.08319772779941559 0.08084212243556976 1.6503430604934692
v -0.07890987396240234 0.08435787260532379 1.6476433277130127
v -0.07653164118528366 0.08628714084625244 1.6479283571243286
v -0.08103550225496292 0.08656038343906403 1.649659276008606
v -0.0802745521068573 0.0828464925289154 1.6480847597122192
v -0.08212016522884369 0.08407656848430634 1.6499274969100952
v -0.07471929490566254 0.04925117641687393 1.6181327104568481
v -0.0694553405046463 0.04752929136157036 1.6158915758132935
v -0.07062290608882904 0.03958560898900032 1.6216546297073364
v -0.07419087737798691 0.04178674519062042 1.6248012781143188
v -0.07156294584274292 0.05417932942509651 1.629834532737732
v -0.07586739957332611 0.05309372395277023 1.6261744499206543
v -0.0733562558889389 0.049193788319826126 1.6320778131484985
v -0.06737037748098373 0.0515560656785965 1.6330316066741943
v -0.06565077602863312 0.053689926862716675 1.6296106576919556
v -0.061853788793087006 0.05057842284440994 1.6309760808944702
v -0.06335476785898209 0.05216684937477112 1.6352081298828125
v -0.069117471575737 0.04813799262046814 1.6360758543014526
v -0.0563410259783268 0.03681192547082901 1.6478995084762573
v -0.05200764909386635 0.04217299446463585 1.6461467742919922
v -0.054718855768442154 0.023255866020917892 1.6359015703201294
v -0.053113825619220734 0.02641424350440502 1.6338276863098145
v -0.0764583945274353 0.05127263069152832 1.6216459274291992
v -0.0752091258764267 0.04559741169214249 1.6287994384765625
v -0.06232074648141861 0.03741094097495079 1.620500922203064
v -0.06693274527788162 0.03595258295536041 1.6228621006011963
v -0.0666353851556778 0.039084285497665405 1.6187758445739746
v -0.06223989278078079 0.0406997874379158 1.6185500621795654
v -0.05859014019370079 0.027812479063868523 1.646234154701233
v -0.05629176273941994 0.023931609466671944 1.6416497230529785
v -0.05833272635936737 0.03218979015946388 1.6471388339996338
v -0.057834647595882416 0.04183025658130646 1.6213629245758057
v -0.05521906167268753 0.047217752784490585 1.6244193315505981
v -0.04554378241300583 0.03950317203998566 1.6341221332550049
v -0.04805789515376091 0.03358657285571098 1.6317687034606934
v -0.07238081097602844 0.04399598389863968 1.6341984272003174
v -0.07068980485200882 0.036907680332660675 1.6268970966339111
v -0.07290159910917282 0.03949210047721863 1.630443811416626
v -0.05800110474228859 0.05131073296070099 1.6305465698242188
v -0.0582621730864048 0.04851183295249939 1.6251840591430664
v -0.055585622787475586 0.06118428707122803 1.6177620887756348
v -0.058614201843738556 0.049706459045410156 1.622006893157959
v -0.060547515749931335 0.04825831949710846 1.617605209350586
v -0.05650182068347931 0.059877827763557434 1.6129893064498901
v -0.05934324115514755 0.044050149619579315 1.6215415000915527
v -0.06055043637752533 0.05186730995774269 1.6262341737747192
v -0.06915052980184555 0.06352508068084717 1.6102356910705566
v -0.06383199244737625 0.06124090030789375 1.6081576347351074
v -0.07127765566110611 0.0656978040933609 1.6136044263839722
v -0.04728678986430168 0.043434787541627884 1.6402242183685303
v -0.06874199956655502 0.06687336415052414 1.6230982542037964
v -0.07179303467273712 0.06659896671772003 1.6177481412887573
v -0.06415827572345734 0.0473141223192215 1.6152414083480835
v -0.059285543859004974 0.060172490775585175 1.6093703508377075
v -0.05684904009103775 0.06307767331600189 1.6218137741088867
v -0.06291082501411438 0.06478291749954224 1.625393033027649
v -0.055033326148986816 0.06645828485488892 1.6169962882995605
v -0.05926873907446861 0.07003854215145111 1.6202634572982788
v -0.06467883288860321 0.07263747602701187 1.618037223815918
v -0.06830139458179474 0.07206191122531891 1.6135268211364746
v -0.06899675726890564 0.07002194225788116 1.6102792024612427
v -0.05441061407327652 0.06462747603654861 1.613452434539795
v -0.055772989988327026 0.06347730755805969 1.6090874671936035
v -0.05994206294417381 0.06271292269229889 1.6067932844161987
v -0.05232144147157669 0.06717190891504288 1.6082630157470703
v -0.05190287157893181 0.06997157633304596 1.6110624074935913
v -0.05576165392994881 0.08493232727050781 1.6032038927078247
v -0.05813489854335785 0.08189220726490021 1.6074330806732178
v -0.05565974861383438 0.08140680193901062 1.608117699623108
v -0.05327609181404114 0.08426715433597565 1.6044198274612427
v -0.059076014906167984 0.07867114990949631 1.612512230873108
v -0.056571733206510544 0.078759104013443 1.6115201711654663
v -0.05398287996649742 0.07515719532966614 1.6122688055038452
v -0.05198017135262489 0.07841285318136215 1.6080080270767212
v -0.04979747161269188 0.07420451939105988 1.6070109605789185
v -0.04697044938802719 0.0773610770702362 1.6037731170654297
v -0.04884129390120506 0.08178263157606125 1.6047641038894653
v -0.051427002996206284 0.07301674783229828 1.610337257385254
v -0.05101177468895912 0.08532211929559708 1.6020516157150269
v -0.05178369581699371 0.08573240041732788 1.5995839834213257
v -0.055630460381507874 0.07392515987157822 1.6143709421157837
v -0.06503000855445862 0.07620954513549805 1.6114859580993652
v -0.060328397899866104 0.08148825168609619 1.6054067611694336
v -0.05715831741690636 0.08409635722637177 1.6004831790924072
v -0.052189622074365616 0.08405540883541107 1.5970790386199951
v -0.06108834594488144 0.07937820255756378 1.6019904613494873
v -0.0573151558637619 0.08195041865110397 1.598134160041809
v -0.052951544523239136 0.08171619474887848 1.5958585739135742
v -0.06048007681965828 0.07605035603046417 1.5988006591796875
v -0.05636102333664894 0.07858942449092865 1.5957902669906616
v -0.06662319600582123 0.06978154182434082 1.6054664850234985
v -0.06719832867383957 0.07329384982585907 1.6082127094268799
v -0.05400979891419411 0.07964177429676056 1.5953304767608643
v -0.04727862402796745 0.08374983072280884 1.5993953943252563
v -0.04841019585728645 0.08221175521612167 1.5965720415115356
v -0.04751990735530853 0.083523690700531 1.6012624502182007
v -0.04926440492272377 0.07240055501461029 1.6060446500778198
v -0.046757519245147705 0.07593084871768951 1.6020087003707886
v -0.04942966625094414 0.07064449787139893 1.6039894819259644
v -0.04682115465402603 0.07484851032495499 1.599860668182373
v -0.045433156192302704 0.07932025194168091 1.599519968032837
v -0.04564979299902916 0.08036458492279053 1.600907802581787
v -0.06757823377847672 0.06693381071090698 1.6078063249588013
v -0.06353685259819031 0.06375890970230103 1.6063445806503296
v -0.06347502768039703 0.0658566877245903 1.6039668321609497
v -0.057617031037807465 0.07213721424341202 1.5977199077606201
v -0.05936042219400406 0.06404560804367065 1.6045362949371338
v -0.05425875261425972 0.06543432176113129 1.605927586555481
v -0.050990186631679535 0.06940269470214844 1.602026104927063
v -0.05372733250260353 0.06984223425388336 1.5992461442947388
v -0.04762609675526619 0.07347969710826874 1.5982853174209595
v -0.05070794001221657 0.07270153611898422 1.5972787141799927
v -0.05433806777000427 0.07519993185997009 1.5954211950302124
v -0.0468098483979702 0.07722769677639008 1.5962060689926147
v -0.045702509582042694 0.07854777574539185 1.5979104042053223
v -0.049633484333753586 0.08062165975570679 1.5955445766448975
v -0.049282561987638474 0.07564292848110199 1.5956369638442993
v -0.051707830280065536 0.07826553285121918 1.594883918762207
v -0.06505446135997772 0.04584953188896179 1.6018403768539429
v -0.0618208572268486 0.042945899069309235 1.598724603652954
v -0.06213898956775665 0.03567071259021759 1.602103590965271
v -0.06514149904251099 0.03977541998028755 1.6056793928146362
v -0.05782262235879898 0.0496734157204628 1.6118451356887817
v -0.06231945753097534 0.049514949321746826 1.6095998287200928
v -0.062452659010887146 0.045602262020111084 1.6118550300598145
v -0.05734127759933472 0.04551351070404053 1.614271879196167
v -0.05254129320383072 0.04984601214528084 1.610411524772644
v -0.05186524614691734 0.04511069133877754 1.612560510635376
v -0.053808290511369705 0.04626523330807686 1.6166225671768188
v -0.05984405800700188 0.044118259102106094 1.6153110265731812
v -0.05056942626833916 0.03782219439744949 1.6239733695983887
v -0.044752687215805054 0.04194638505578041 1.6232177019119263
v -0.06466857343912125 0.04807588458061218 1.605642557144165
v -0.06495426595211029 0.04360995441675186 1.6088800430297852
v -0.051760993897914886 0.03216635435819626 1.602763295173645
v -0.05573864281177521 0.03130408376455307 1.6049641370773315
v -0.057222336530685425 0.035123176872730255 1.5997124910354614
v -0.05311992019414902 0.03663884103298187 1.5995100736618042
v -0.05195992812514305 0.026699785143136978 1.6236000061035156
v -0.04767599701881409 0.023861318826675415 1.6199957132339478
v -0.053227659314870834 0.03233388066291809 1.6236680746078491
v -0.047585003077983856 0.036013372242450714 1.604095697402954
v -0.0450575016438961 0.04170576483011246 1.6082684993743896
v -0.03739939630031586 0.03630225360393524 1.6136411428451538
v -0.03954622521996498 0.03049517050385475 1.6125915050506592
v -0.06251110136508942 0.040860094130039215 1.613874077796936
v -0.059660110622644424 0.03210359066724777 1.6079341173171997
v -0.06301818042993546 0.03605162352323532 1.6112408638000488
v -0.048325762152671814 0.045765284448862076 1.6133270263671875
v -0.04895009845495224 0.042177118360996246 1.6077871322631836
v -0.046961329877376556 0.060052674263715744 1.597017765045166
v -0.04885357618331909 0.04327079653739929 1.6012147665023804
v -0.05242641270160675 0.04249279201030731 1.597481608390808
v -0.04859590530395508 0.05933750048279762 1.5931593179702759
v -0.04955748841166496 0.03904065489768982 1.6020898818969727
v -0.04855936020612717 0.04654575511813164 1.6064579486846924
v -0.06107025593519211 0.062492068856954575 1.594343900680542
v -0.05752825736999512 0.05954842269420624 1.5915175676345825
v -0.061556376516819 0.06296021491289139 1.5983978509902954
v -0.03897228091955185 0.04183322936296463 1.6190617084503174
v -0.042890556156635284 0.02491515502333641 1.6148535013198853
v -0.05721718445420265 0.06471230089664459 1.6037081480026245
v -0.06048913300037384 0.06413118541240692 1.6012763977050781
v -0.056720152497291565 0.041835349053144455 1.5972435474395752
v -0.05237055569887161 0.058891765773296356 1.5908981561660767
v -0.04801357537508011 0.06122944504022598 1.6011486053466797
v -0.051969558000564575 0.0630963072180748 1.6046221256256104
v -0.04660939797759056 0.06455374509096146 1.5982729196548462
v -0.050552792847156525 0.06678643822669983 1.6016508340835571
v -0.05489257350564003 0.06929562985897064 1.6013542413711548
v -0.057920362800359726 0.06934559345245361 1.5990194082260132
v -0.059353433549404144 0.06844664365053177 1.5960664749145508
v -0.045787811279296875 0.06389985233545303 1.594191551208496
v -0.04759847745299339 0.06358033418655396 1.5909373760223389
v -0.051791511476039886 0.06204809620976448 1.5899351835250854
v -0.044308122247457504 0.06689704954624176 1.5918724536895752
v -0.04382537305355072 0.06982242316007614 1.5961536169052124
v -0.04719693586230278 0.08524035662412643 1.5945062637329102
v -0.04959877207875252 0.08066131174564362 1.5962393283843994
v -0.04837346076965332 0.0804225504398346 1.5965317487716675
v -0.04565904662013054 0.08503422141075134 1.595220685005188
v -0.05089350417256355 0.07487426698207855 1.5994101762771606
v -0.04893549904227257 0.07617678493261337 1.5988460779190063
v -0.04635748639702797 0.07356712222099304 1.5986604690551758
v -0.04345933347940445 0.07879306375980377 1.5964157581329346
v -0.04096971079707146 0.07510264962911606 1.5926916599273682
v -0.039395738393068314 0.07948103547096252 1.5915868282318115
v -0.041284121572971344 0.08316543698310852 1.5951368808746338
v -0.043306585401296616 0.0718868225812912 1.5961060523986816
v -0.04352930560708046 0.08674822747707367 1.593930959701538
v -0.044650908559560776 0.08844154328107834 1.5938153266906738
v -0.047836460173130035 0.07160042971372604 1.599385380744934
v -0.05528214946389198 0.07453182339668274 1.59811532497406
v -0.05198432877659798 0.08095592260360718 1.5948065519332886
v -0.04989340901374817 0.0859900712966919 1.5926660299301147
v -0.0466281920671463 0.08788260072469711 1.5907111167907715
v -0.0533091239631176 0.0798848569393158 1.59152090549469
v -0.05065000802278519 0.08447570353746414 1.589917540550232
v -0.047764357179403305 0.08637316524982452 1.5882062911987305
v -0.05330396816134453 0.07816766202449799 1.5888420343399048
v -0.05042395368218422 0.08241024613380432 1.5874249935150146
v -0.057968731969594955 0.06906262785196304 1.5923259258270264
v -0.057491324841976166 0.07221069186925888 1.5954463481903076
v -0.04808913171291351 0.0846099779009819 1.5868619680404663
v -0.040464479476213455 0.08690585196018219 1.5921006202697754
v -0.04201000928878784 0.08652941137552261 1.5881891250610352
v -0.04096885025501251 0.08551705628633499 1.5930241346359253
v -0.040917426347732544 0.07360229641199112 1.5915595293045044
v -0.03846375271677971 0.0789945051074028 1.589410662651062
v -0.04193428158760071 0.0724070817232132 1.589162826538086
v -0.03945963457226753 0.0780213475227356 1.5868877172470093
v -0.038155823945999146 0.08290141820907593 1.5898528099060059
v -0.0387018620967865 0.08288300037384033 1.590943455696106
v -0.059073977172374725 0.06564303487539291 1.5929616689682007
v -0.056088924407958984 0.0631406232714653 1.5903116464614868
v -0.055587511509656906 0.06653943657875061 1.5894663333892822
v -0.050808146595954895 0.07627762854099274 1.5860580205917358
v -0.051552142947912216 0.0648515447974205 1.5887035131454468
v -0.046246808022260666 0.06708794087171555 1.5891406536102295
v -0.04412369057536125 0.07269224524497986 1.5869942903518677
v -0.04706040769815445 0.07418067008256912 1.585663080215454
v -0.041634295135736465 0.07782816141843796 1.5851305723190308
v -0.044505540281534195 0.07797104120254517 1.5849862098693848
v -0.04839445278048515 0.0805511474609375 1.5848114490509033
v -0.041554778814315796 0.08179332315921783 1.5856328010559082
v -0.039177149534225464 0.08241039514541626 1.5872210264205933
v -0.04409673064947128 0.0853351354598999 1.586157202720642
v -0.043831877410411835 0.08115114271640778 1.5848076343536377
v -0.0458657369017601 0.08374513685703278 1.5851950645446777
v -0.04472336173057556 0.02298843115568161 1.6170448064804077
v -0.048974428325891495 0.01943761110305786 1.6124136447906494
v -0.05129178240895271 0.016361253336071968 1.6113038063049316
v -0.04756230115890503 0.014641527086496353 1.6088346242904663
v -0.044701557606458664 0.01730365678668022 1.610349178314209
v -0.04881300404667854 0.027783596888184547 1.6058293581008911
v -0.04807863011956215 0.02589937299489975 1.609835147857666
v -0.04430083930492401 0.025035127997398376 1.6072601079940796
v -0.04466233402490616 0.02684195153415203 1.6028050184249878
v -0.051268160343170166 0.026910338550806046 1.601441502571106
v -0.047070469707250595 0.02575557865202427 1.5983586311340332
v -0.04183012247085571 0.02835611067712307 1.6032860279083252
v -0.04185796529054642 0.025823891162872314 1.6076014041900635
v -0.03097112476825714 0.026864852756261826 1.6105899810791016
v -0.029182907193899155 0.02974587306380272 1.6068302392959595
v -0.022576356306672096 0.014665358699858189 1.5996943712234497
v -0.02289777621626854 0.011386712081730366 1.6039472818374634
v -0.030347052961587906 0.0124888326972723 1.6028965711593628
v -0.029520181939005852 0.014185481704771519 1.5989563465118408
v -0.04807163029909134 0.022875575348734856 1.6118465662002563
v -0.044657301157712936 0.021114632487297058 1.6102885007858276
v -0.044758718460798264 0.012404849752783775 1.5996795892715454
v -0.04466217756271362 0.011391646228730679 1.6041263341903687
v -0.049662020057439804 0.012608315795660019 1.6061561107635498
v -0.0519072487950325 0.013128982856869698 1.601948857307434
v -0.02612694725394249 0.011684264987707138 1.608042597770691
v -0.028902869671583176 0.013076233677566051 1.6111092567443848
v -0.031590014696121216 0.01500239409506321 1.6107302904129028
v -0.03165186941623688 0.013119625858962536 1.6071447134017944
v -0.03282249718904495 0.019836917519569397 1.6126724481582642
v -0.0449458472430706 0.015404954552650452 1.5966174602508545
v -0.04416201263666153 0.021279392763972282 1.594881534576416
v -0.02742472104728222 0.022529924288392067 1.5954240560531616
v -0.02768830955028534 0.017828166484832764 1.596276044845581
v -0.04198068380355835 0.02193838730454445 1.6100819110870361
v -0.04435891658067703 0.013184643350541592 1.6080739498138428
v -0.042535532265901566 0.016997497528791428 1.6099333763122559
v -0.04200417548418045 0.02704303152859211 1.597923755645752
v -0.05077684670686722 0.02148512937128544 1.5965527296066284
v -0.06400826573371887 0.02052687667310238 1.606072187423706
v -0.05737441033124924 0.01797006092965603 1.6009749174118042
v -0.05666385218501091 0.01523639913648367 1.6044824123382568
v -0.06339409947395325 0.018016768619418144 1.6081035137176514
v -0.051255837082862854 0.01630844734609127 1.5981695652008057
v -0.05576496943831444 0.022991424426436424 1.5998369455337524
v -0.05553359538316727 0.020989244803786278 1.6170480251312256
v -0.05833425745368004 0.01757800579071045 1.614513874053955
v -0.05453907698392868 0.024035319685935974 1.6170254945755005
v -0.027997924014925957 0.029150042682886124 1.600398063659668
v -0.056218042969703674 0.029445474967360497 1.612532138824463
v -0.055110037326812744 0.02708977460861206 1.6159545183181763
v -0.05395388603210449 0.01507419254630804 1.6085420846939087
v -0.0613490492105484 0.016736118122935295 1.611215353012085
v -0.06289097666740417 0.024955563247203827 1.6055265665054321
v -0.05905662849545479 0.029010020196437836 1.6075170040130615
v -0.06588795781135559 0.026658667251467705 1.6089894771575928
v -0.0625271126627922 0.029508110135793686 1.6113359928131104
v -0.059703826904296875 0.028605913743376732 1.6175779104232788
v -0.05795801803469658 0.02557726763188839 1.6189757585525513
v -0.057398032397031784 0.022446364164352417 1.6192247867584229
v -0.06648257374763489 0.021609917283058167 1.608454704284668
v -0.06545676290988922 0.018890496343374252 1.609559416770935
v -0.0627499520778656 0.016990024596452713 1.611925482749939
v -0.06948904693126678 0.022624045610427856 1.611364722251892
v -0.06973785907030106 0.02580323815345764 1.6148205995559692
v -0.07145575433969498 0.01949785277247429 1.6262098550796509
v -0.06808609515428543 0.020984798669815063 1.6247482299804688
v -0.0687703937292099 0.021685197949409485 1.624185562133789
v -0.07192391902208328 0.02046278864145279 1.6261225938796997
v -0.06462635099887848 0.024540770798921585 1.6224534511566162
v -0.06637990474700928 0.02416512556374073 1.6222593784332275
v -0.06710854172706604 0.02601519227027893 1.6192268133163452
v -0.07116485387086868 0.024006010964512825 1.6214826107025146
v -0.07384631037712097 0.022719912230968475 1.6170769929885864
v -0.07668828219175339 0.02137715555727482 1.6193485260009766
v -0.07415802031755447 0.022938992828130722 1.6230427026748657
v -0.07030904293060303 0.02539447695016861 1.6165330410003662
v -0.07449855655431747 0.02048201486468315 1.6267930269241333
v -0.07504314929246902 0.019449397921562195 1.6275644302368164
v -0.06576350331306458 0.028121989220380783 1.6181020736694336
v -0.06187697872519493 0.021802552044391632 1.6227210760116577
v -0.06761319935321808 0.018586162477731705 1.625530481338501
v -0.07207290828227997 0.01741543412208557 1.6272276639938354
v -0.07578320801258087 0.017322484403848648 1.6270956993103027
v -0.0666772872209549 0.0167100727558136 1.624216914176941
v -0.07188714295625687 0.015274105593562126 1.6265150308609009
v -0.0754070058465004 0.015202553011476994 1.6262619495391846
v -0.06662550568580627 0.014598427340388298 1.6217211484909058
v -0.07166025787591934 0.013873688876628876 1.6243133544921875
v -0.06086207926273346 0.016767840832471848 1.6187087297439575
v -0.060943473130464554 0.019050737842917442 1.621324896812439
v -0.07460567355155945 0.014444069005548954 1.6248681545257568
v -0.07792773842811584 0.020438341423869133 1.6251174211502075
v -0.07809360325336456 0.017498387023806572 1.624730110168457
v -0.07716819643974304 0.02173338085412979 1.6244957447052002
v -0.07408331334590912 0.022138573229312897 1.615892767906189
v -0.07757735997438431 0.020203610882163048 1.6186110973358154
v -0.07393746078014374 0.02018580213189125 1.614505410194397
v -0.0775318369269371 0.018116416409611702 1.618085503578186
v -0.07897252589464188 0.019780665636062622 1.6216959953308105
v -0.07782798260450363 0.02123931422829628 1.621782660484314
v -0.05835438519716263 0.01884329319000244 1.6182879209518433
v -0.059771399945020676 0.017379507422447205 1.6153355836868286
v -0.06230849400162697 0.015959396958351135 1.6153273582458496
v -0.068010114133358 0.013902520760893822 1.6181728839874268
v -0.06536225974559784 0.017036115750670433 1.6117819547653198
v -0.0680263340473175 0.01980317011475563 1.6105930805206299
v -0.07295366376638412 0.017795782536268234 1.61417818069458
v -0.07110399752855301 0.015279971063137054 1.6151509284973145
v -0.07683078199625015 0.016120634973049164 1.618387222290039
v -0.07480628788471222 0.014058198779821396 1.6190452575683594
v -0.07268312573432922 0.013089464046061039 1.6212891340255737
v -0.07789909094572067 0.015897251665592194 1.6220028400421143
v -0.07891335338354111 0.017474070191383362 1.6219427585601807
v -0.07729294151067734 0.01567487046122551 1.6241668462753296
v -0.07655379176139832 0.01455187052488327 1.621896743774414
v -0.07568716257810593 0.014271869324147701 1.6232521533966064
v -0.02369021624326706 0.018014751374721527 1.5979965925216675
v -0.031535886228084564 0.00916215218603611 1.6898918151855469
v -0.030580438673496246 0.007648208178579807 1.6845414638519287
v -0.024597739800810814 -0.007634967565536499 1.6855506896972656
v -0.027364782989025116 -0.002518709748983383 1.6810675859451294
v -0.024137869477272034 -0.008941806852817535 1.6924593448638916
v -0.026262272149324417 -0.0025537144392728806 1.7008579969406128
v -0.023937176913022995 -0.006306551396846771 1.6976631879806519
v -0.029220957309007645 0.002950197085738182 1.6810939311981201
v -0.030786212533712387 0.008279887959361076 1.695404052734375
v -0.028529182076454163 0.003644421696662903 1.7006300687789917
v -0.04137811437249184 0.003581516444683075 1.6960020065307617
v -0.038234733045101166 -0.0021934621036052704 1.700813889503479
v -0.035162895917892456 -0.009074792265892029 1.7003129720687866
v -0.030801402404904366 -0.011533223092556 1.6956760883331299
v -0.029040735214948654 -0.012746814638376236 1.6912829875946045
v -0.03871121257543564 0.0057268887758255005 1.6888370513916016
v -0.03673947975039482 0.004739170894026756 1.6835230588912964
v -0.03322466462850571 0.00026128627359867096 1.680259108543396
v -0.045135270804166794 0.0014409758150577545 1.6853280067443848
v -0.050057802349328995 -0.007048305124044418 1.6850898265838623
v -0.04777253046631813 -0.025885850191116333 1.6810970306396484
v -0.04358892887830734 -0.022496283054351807 1.6848700046539307
v -0.046000976115465164 -0.021091721951961517 1.6852949857711792
v -0.049732692539691925 -0.024563506245613098 1.6822240352630615
v -0.04290452599525452 -0.018801815807819366 1.6890078783035278
v -0.04477526620030403 -0.017941124737262726 1.6879124641418457
v -0.047101907432079315 -0.012895174324512482 1.6879349946975708
v -0.05043062940239906 -0.01648937165737152 1.6847686767578125
v -0.04951629415154457 -0.00976254791021347 1.6848093271255493
v -0.05156676098704338 -0.011428527534008026 1.6814311742782593
v -0.053613681346178055 -0.01967809349298477 1.681519865989685
v -0.053148914128541946 -0.02523309737443924 1.6805886030197144
v -0.055956318974494934 -0.022402867674827576 1.6787101030349731
v -0.05188580974936485 -0.026608355343341827 1.678263545036316
v -0.04909120872616768 -0.012330956757068634 1.6909123659133911
v -0.036515939980745316 -0.01788526400923729 1.6905409097671509
v -0.04011516645550728 -0.022601105272769928 1.6839518547058105
v -0.045013945549726486 -0.025768324732780457 1.6788597106933594
v -0.05006222054362297 -0.02626635879278183 1.6757588386535645
v -0.037438273429870605 -0.02134466916322708 1.6809806823730469
v -0.04248322546482086 -0.023419871926307678 1.6763566732406616
v -0.04738926514983177 -0.023165568709373474 1.6734375953674316
v -0.036759816110134125 -0.018070779740810394 1.6775864362716675
v -0.04207067936658859 -0.020156003534793854 1.674351692199707
v -0.029974903911352158 -0.011609222739934921 1.6837915182113647
v -0.031427837908267975 -0.01563933491706848 1.6881166696548462
v -0.04597799479961395 -0.020885378122329712 1.6730563640594482
v -0.05650634691119194 -0.023344114422798157 1.6764345169067383
v -0.05448174849152565 -0.022727012634277344 1.673713207244873
v -0.05144302174448967 -0.008533507585525513 1.679919719696045
v -0.05511780455708504 -0.014310665428638458 1.6788320541381836
v -0.05448690056800842 -0.012699462473392487 1.6766433715820312
v -0.049354881048202515 -0.005854310467839241 1.6779857873916626
v -0.05311194434762001 -0.01149178296327591 1.674430012702942
v -0.056820038706064224 -0.017514832317829132 1.6753876209259033
v -0.056590545922517776 -0.01805170625448227 1.6779389381408691
v -0.02788728103041649 -0.010490082204341888 1.6853307485580444
v -0.029532495886087418 -0.005199126899242401 1.681251049041748
v -0.03187188133597374 -0.005855174735188484 1.680397629737854
v -0.038260988891124725 -0.012260064482688904 1.6750952005386353
v -0.03632287308573723 -0.0010803323239088058 1.678826093673706
v -0.04149799048900604 0.0017146393656730652 1.6815671920776367
v -0.04652579128742218 -0.005427243188023567 1.6755086183547974
v -0.04215265065431595 -0.007425444200634956 1.6743683815002441
v -0.05006573721766472 -0.01166454702615738 1.6726348400115967
v -0.04729161038994789 -0.012789160013198853 1.6722615957260132
v -0.043900176882743835 -0.016518905758857727 1.6724365949630737
v -0.05196410045027733 -0.0164189450442791 1.6718425750732422
v -0.055026665329933167 -0.016586631536483765 1.6730483770370483
v -0.05093908682465553 -0.020622748881578445 1.6720784902572632
v -0.049273110926151276 -0.015932895243167877 1.671913743019104
v -0.048011664301157 -0.018755871802568436 1.6721076965332031
v -0.016455821692943573 0.010306302458047867 1.605409026145935
v -0.01959703117609024 0.009553833864629269 1.6108893156051636
v -0.012488652020692825 0.008714333176612854 1.6113336086273193
v -0.0027795322239398956 0.007844538427889347 1.6134834289550781
v 0.007464256137609482 0.009522433392703533 1.610324740409851
v -0.0047202929854393005 0.008771993219852448 1.6199681758880615
v -0.014554925262928009 0.009531859308481216 1.617380976676941
v -0.024754410609602928 0.01129667554050684 1.616467833518982
v 0.0016081631183624268 0.010516786016523838 1.6280837059020996
f 2 3 1
f 1 3 4
f 5 6 8
f 8 6 7
f 9 4 10
f 10 4 3
f 12 13 11
f 11 13 9
f 14 12 16
f 16 12 15
f 18 19 17
f 17 19 20
f 22 23 21
f 21 23 24
f 26 27 25
f 25 27 28
f 30 31 29
f 29 31 32
f 33 34 36
f 36 34 35
f 37 38 40
f 40 38 39
f 41 42 6
f 6 42 43
f 6 43 7
f 7 43 44
f 45 34 46
f 46 34 33
f 48 49 47
f 47 49 50
f 52 53 51
f 51 53 54
f 56 52 55
f 55 52 51
f 58 59 57
f 57 59 60
f 61 62 4
f 4 62 1
f 64 65 63
f 63 65 66
f 68 69 67
f 67 69 70
f 72 73 71
f 71 73 74
f 76 77 75
f 75 77 78
f 53 79 54
f 54 79 80
f 82 83 81
f 81 83 84
f 85 86 52
f 52 86 53
f 57 60 87
f 87 60 88
f 89 90 43
f 43 90 44
f 43 42 89
f 89 42 91
f 40 39 92
f 92 39 93
f 94 70 64
f 64 70 69
f 13 61 9
f 9 61 4
f 25 28 69
f 69 28 95
f 96 25 68
f 68 25 69
f 98 99 97
f 97 99 100
f 101 102 104
f 104 102 103
f 106 30 105
f 105 30 29
f 51 54 107
f 107 54 108
f 54 80 108
f 108 80 109
f 111 112 110
f 110 112 113
f 115 5 114
f 114 5 116
f 115 41 5
f 5 41 6
f 36 35 111
f 111 35 117
f 35 118 117
f 117 118 119
f 34 120 35
f 35 120 118
f 34 45 120
f 120 45 121
f 125 126 124
f 124 126 127
f 128 129 14
f 14 129 130
f 33 131 46
f 46 131 132
f 133 94 63
f 63 94 64
f 134 135 137
f 137 135 136
f 139 140 138
f 138 140 141
f 77 142 78
f 78 142 143
f 144 145 20
f 20 145 146
f 148 149 147
f 147 149 72
f 151 152 150
f 150 152 153
f 82 101 83
f 83 101 104
f 101 82 155
f 155 82 154
f 156 157 58
f 58 157 59
f 158 68 147
f 147 68 67
f 159 146 15
f 15 146 16
f 68 158 96
f 96 158 160
f 129 66 130
f 130 66 65
f 162 163 161
f 161 163 164
f 166 167 165
f 165 167 168
f 170 171 169
f 169 171 172
f 174 171 173
f 173 171 170
f 176 177 175
f 175 177 178
f 180 181 179
f 179 181 24
f 182 183 21
f 21 183 184
f 81 185 82
f 82 185 154
f 186 187 188
f 188 187 144
f 158 71 160
f 160 71 189
f 190 135 157
f 157 135 59
f 169 172 139
f 139 172 140
f 147 72 158
f 158 72 71
f 192 193 191
f 191 193 194
f 167 166 49
f 49 166 195
f 196 190 50
f 50 190 157
f 197 198 200
f 200 198 199
f 21 24 182
f 182 24 181
f 146 159 20
f 20 159 17
f 182 181 81
f 81 181 185
f 201 185 180
f 180 185 181
f 202 203 83
f 83 203 84
f 205 206 204
f 204 206 85
f 207 22 184
f 184 22 21
f 179 24 208
f 208 24 23
f 208 209 179
f 179 209 205
f 209 210 205
f 205 210 206
f 212 206 211
f 211 206 210
f 179 205 180
f 180 205 204
f 213 176 88
f 88 176 214
f 86 85 212
f 212 85 206
f 193 217 218
f 217 219 218
f 218 219 220
f 219 18 220
f 220 18 17
f 19 221 20
f 20 221 144
f 222 223 225
f 225 223 224
f 175 226 176
f 176 226 214
f 227 87 214
f 214 87 88
f 220 17 228
f 228 17 159
f 134 213 60
f 60 213 88
f 138 229 151
f 151 229 152
f 193 192 210
f 210 192 211
f 230 194 218
f 218 194 193
f 231 232 228
f 228 232 230
f 233 234 91
f 91 234 89
f 235 236 93
f 93 236 92
f 230 232 234
f 234 232 237
f 47 238 48
f 48 238 239
f 240 191 235
f 235 191 236
f 5 8 116
f 116 8 241
f 242 243 189
f 189 243 160
f 244 245 98
f 98 245 99
f 156 246 47
f 47 246 238
f 76 247 77
f 77 247 248
f 250 125 249
f 249 125 124
f 252 253 251
f 251 253 254
f 111 110 36
f 36 110 255
f 256 33 255
f 255 33 36
f 257 258 154
f 154 258 155
f 63 169 133
f 133 169 139
f 66 170 63
f 63 170 169
f 173 170 129
f 129 170 66
f 129 128 173
f 173 128 259
f 128 260 259
f 259 260 261
f 213 134 262
f 262 134 137
f 263 264 186
f 186 264 187
f 112 265 113
f 113 265 266
f 11 267 268
f 234 233 230
f 230 233 194
f 153 269 70
f 70 269 67
f 175 178 165
f 165 178 141
f 150 153 94
f 94 153 70
f 271 221 270
f 270 221 207
f 269 153 272
f 272 153 152
f 121 45 109
f 109 45 108
f 47 50 156
f 156 50 157
f 57 273 58
f 58 273 274
f 145 275 260
f 260 275 261
f 276 149 143
f 143 149 78
f 148 269 75
f 75 269 272
f 207 277 270
f 270 277 278
f 195 196 49
f 49 196 50
f 59 135 60
f 60 135 134
f 83 104 202
f 202 104 279
f 149 148 78
f 78 148 75
f 247 278 248
f 248 278 277
f 183 182 84
f 84 182 81
f 48 239 281
f 281 239 282
f 227 223 283
f 283 223 222
f 223 226 224
f 224 226 168
f 281 282 224
f 224 282 225
f 165 168 175
f 175 168 226
f 264 263 138
f 138 263 229
f 14 16 128
f 128 16 260
f 220 228 218
f 218 228 230
f 87 227 284
f 284 227 283
f 260 16 145
f 145 16 146
f 244 98 258
f 258 98 155
f 58 274 156
f 156 274 246
f 107 285 51
f 51 285 55
f 243 286 160
f 160 286 96
f 234 237 89
f 89 237 90
f 46 132 107
f 107 132 285
f 253 252 249
f 249 252 250
f 286 26 96
f 96 26 25
f 106 105 287
f 287 105 288
f 272 152 289
f 289 152 229
f 138 151 139
f 139 151 133
f 183 290 161
f 161 290 162
f 291 292 277
f 277 292 293
f 151 150 133
f 133 150 94
f 262 275 177
f 177 275 187
f 144 187 145
f 145 187 275
f 273 57 284
f 284 57 87
f 174 136 190
f 190 136 135
f 111 117 112
f 112 117 38
f 117 119 38
f 38 119 123
f 112 38 265
f 265 38 37
f 287 288 254
f 254 288 251
f 228 159 231
f 231 159 15
f 223 227 226
f 226 227 214
f 147 67 148
f 148 67 269
f 224 168 281
f 281 168 167
f 199 163 200
f 200 163 162
f 45 46 108
f 108 46 107
f 281 167 48
f 48 167 49
f 161 164 291
f 291 164 292
f 38 123 39
f 293 294 277
f 277 294 248
f 284 283 296
f 296 283 295
f 284 296 273
f 273 296 297
f 274 273 298
f 298 273 297
f 246 274 299
f 299 274 298
f 283 222 295
f 295 222 300
f 222 225 300
f 300 225 301
f 301 225 302
f 302 225 282
f 303 304 300
f 300 304 295
f 306 307 305
f 305 307 308
f 309 310 308
f 308 310 305
f 308 307 312
f 312 307 311
f 313 314 312
f 312 314 315
f 311 316 312
f 312 316 313
f 317 304 311
f 311 304 316
f 315 309 312
f 312 309 308
f 318 319 321
f 321 319 320
f 319 318 309
f 309 318 310
f 311 307 317
f 317 307 306
f 306 297 317
f 317 297 296
f 306 322 297
f 297 322 298
f 305 323 306
f 306 323 322
f 323 305 324
f 324 305 310
f 304 317 295
f 295 317 296
f 318 325 310
f 310 325 324
f 323 324 326
f 326 324 327
f 324 325 327
f 327 325 328
f 326 327 329
f 329 327 330
f 329 331 326
f 326 331 332
f 333 330 328
f 328 330 327
f 323 326 322
f 322 326 332
f 322 332 298
f 298 332 299
f 325 318 334
f 334 318 321
f 313 316 335
f 335 316 304
f 335 336 313
f 313 336 314
f 304 303 335
f 335 303 337
f 336 335 338
f 338 335 337
f 336 339 314
f 314 339 340
f 246 299 238
f 238 299 341
f 239 342 282
f 282 342 302
f 342 239 341
f 341 239 238
f 341 331 342
f 342 331 343
f 331 329 343
f 343 329 344
f 342 343 302
f 302 343 345
f 341 299 331
f 331 299 332
f 346 301 345
f 345 301 302
f 346 303 301
f 301 303 300
f 347 337 346
f 346 337 303
f 347 346 348
f 348 346 345
f 349 347 350
f 350 347 348
f 343 344 345
f 345 344 348
f 344 351 348
f 348 351 350
f 337 347 338
f 338 347 349
f 353 338 352
f 352 338 349
f 352 355 354
f 354 355 356
f 352 349 355
f 355 349 350
f 352 354 353
f 353 354 334
f 353 334 339
f 339 334 321
f 339 336 353
f 353 336 338
f 329 330 344
f 344 330 351
f 356 351 333
f 333 351 330
f 356 355 351
f 351 355 350
f 354 356 328
f 328 356 333
f 328 325 354
f 354 325 334
f 309 315 319
f 319 315 320
f 320 340 321
f 321 340 339
f 320 315 340
f 340 315 314
f 137 136 261
f 261 136 259
f 140 166 141
f 141 166 165
f 172 171 195
f 195 171 196
f 171 174 196
f 196 174 190
f 178 177 264
f 264 177 187
f 172 195 140
f 140 195 166
f 137 261 262
f 262 261 275
f 178 264 141
f 141 264 138
f 262 177 213
f 213 177 176
f 136 174 259
f 259 174 173
f 358 359 357
f 357 359 360
f 362 363 361
f 361 363 364
f 361 364 365
f 365 364 366
f 367 368 370
f 370 368 369
f 76 371 247
f 247 371 372
f 373 374 362
f 362 374 363
f 376 377 375
f 375 377 378
f 289 229 380
f 380 229 379
f 381 379 263
f 263 379 229
f 383 384 382
f 382 384 385
f 386 368 374
f 374 368 363
f 76 289 371
f 371 289 380
f 377 376 359
f 359 376 387
f 388 386 360
f 360 386 374
f 389 383 366
f 366 383 390
f 392 393 391
f 391 393 394
f 383 382 390
f 390 382 395
f 396 365 390
f 390 365 366
f 389 366 367
f 367 366 364
f 357 397 358
f 358 397 398
f 373 399 357
f 357 399 397
f 389 367 400
f 400 367 370
f 382 385 375
f 375 385 372
f 357 360 373
f 373 360 374
f 361 401 362
f 362 401 402
f 387 388 359
f 359 388 360
f 363 368 364
f 364 368 367
f 358 398 403
f 403 398 404
f 396 392 405
f 405 392 391
f 392 395 393
f 393 395 378
f 393 403 394
f 394 403 404
f 375 378 382
f 382 378 395
f 365 396 406
f 406 396 405
f 362 402 373
f 373 402 399
f 271 270 400
f 400 270 384
f 401 361 406
f 406 361 365
f 381 369 386
f 386 369 368
f 392 396 395
f 395 396 390
f 393 378 403
f 403 378 377
f 403 377 358
f 358 377 359
f 406 405 408
f 408 405 407
f 406 408 401
f 401 408 409
f 401 409 402
f 402 409 410
f 402 410 399
f 399 410 411
f 405 391 407
f 407 391 412
f 391 394 412
f 412 394 413
f 394 404 413
f 413 404 414
f 415 416 412
f 412 416 407
f 418 419 417
f 417 419 420
f 421 422 418
f 418 422 419
f 419 422 424
f 424 422 423
f 425 426 424
f 424 426 427
f 423 428 424
f 424 428 425
f 427 420 424
f 424 420 419
f 420 429 417
f 417 429 430
f 423 422 431
f 431 422 421
f 421 409 431
f 431 409 408
f 421 432 409
f 409 432 410
f 418 433 421
f 421 433 432
f 434 433 417
f 417 433 418
f 431 416 423
f 423 416 428
f 416 431 407
f 407 431 408
f 435 434 430
f 430 434 417
f 433 434 436
f 436 434 437
f 434 435 437
f 437 435 438
f 436 437 439
f 439 437 440
f 439 441 436
f 436 441 442
f 438 443 437
f 437 443 440
f 436 442 433
f 433 442 432
f 432 442 410
f 410 442 411
f 435 430 445
f 445 430 444
f 430 429 444
f 444 429 446
f 425 428 447
f 447 428 416
f 426 425 448
f 448 425 447
f 416 415 447
f 447 415 449
f 447 449 448
f 448 449 450
f 451 452 448
f 448 452 426
f 446 452 444
f 444 452 451
f 399 411 397
f 397 411 453
f 398 454 404
f 404 454 414
f 454 398 453
f 453 398 397
f 453 441 454
f 454 441 455
f 441 439 455
f 455 439 456
f 454 455 414
f 414 455 457
f 441 453 442
f 442 453 411
f 458 413 457
f 457 413 414
f 458 415 413
f 413 415 412
f 458 459 415
f 415 459 449
f 459 458 460
f 460 458 457
f 461 459 462
f 462 459 460
f 455 456 457
f 457 456 460
f 456 463 460
f 460 463 462
f 459 461 449
f 449 461 450
f 465 450 464
f 464 450 461
f 464 467 466
f 466 467 468
f 464 461 467
f 467 461 462
f 464 466 465
f 465 466 445
f 465 445 451
f 451 445 444
f 451 448 465
f 465 448 450
f 439 440 456
f 456 440 463
f 468 463 443
f 443 463 440
f 468 467 463
f 463 467 462
f 466 468 438
f 438 468 443
f 438 435 466
f 466 435 445
f 420 427 429
f 429 427 446
f 446 427 452
f 452 427 426
f 370 369 188
f 188 369 186
f 371 376 372
f 372 376 375
f 380 379 387
f 387 379 388
f 379 381 388
f 388 381 386
f 385 384 278
f 278 384 270
f 380 387 371
f 371 387 376
f 400 370 271
f 271 370 188
f 385 278 372
f 372 278 247
f 400 384 389
f 389 384 383
f 369 381 186
f 186 381 263
f 221 271 144
f 144 271 188
f 221 19 207
f 207 19 22
f 19 18 22
f 22 18 23
f 18 219 23
f 23 219 208
f 469 470 472
f 472 470 471
f 474 475 473
f 473 475 476
f 473 476 477
f 477 476 478
f 480 481 479
f 479 481 482
f 483 484 474
f 474 484 475
f 486 487 485
f 485 487 488
f 489 490 77
f 77 490 142
f 491 489 248
f 248 489 77
f 493 494 492
f 492 494 495
f 496 480 484
f 484 480 475
f 486 497 487
f 487 497 471
f 498 496 472
f 472 496 484
f 499 493 478
f 478 493 500
f 501 502 504
f 504 502 503
f 493 492 500
f 500 492 505
f 506 477 500
f 500 477 478
f 499 478 479
f 479 478 476
f 469 507 470
f 470 507 508
f 483 509 469
f 469 509 507
f 479 482 499
f 499 482 510
f 492 495 485
f 485 495 511
f 483 469 484
f 484 469 472
f 473 512 474
f 474 512 513
f 497 498 471
f 471 498 472
f 475 480 476
f 476 480 479
f 470 508 514
f 514 508 515
f 506 502 516
f 516 502 501
f 503 502 488
f 488 502 505
f 514 515 503
f 503 515 504
f 485 488 492
f 492 488 505
f 477 506 517
f 517 506 516
f 474 513 483
f 483 513 509
f 510 292 494
f 494 292 164
f 512 473 517
f 517 473 477
f 491 481 496
f 496 481 480
f 502 506 505
f 505 506 500
f 503 488 514
f 514 488 487
f 514 487 470
f 470 487 471
f 517 516 519
f 519 516 518
f 517 519 512
f 512 519 520
f 512 520 513
f 513 520 521
f 513 521 509
f 509 521 522
f 516 501 518
f 518 501 523
f 501 504 523
f 523 504 524
f 524 504 525
f 525 504 515
f 526 527 523
f 523 527 518
f 529 530 528
f 528 530 531
f 532 533 529
f 529 533 530
f 530 533 535
f 535 533 534
f 536 537 535
f 535 537 538
f 534 539 535
f 535 539 536
f 538 531 535
f 535 531 530
f 540 541 531
f 531 541 528
f 533 532 534
f 534 532 542
f 532 520 542
f 542 520 519
f 532 543 520
f 520 543 521
f 529 544 532
f 532 544 543
f 544 529 545
f 545 529 528
f 534 542 539
f 539 542 527
f 527 542 518
f 518 542 519
f 541 546 528
f 528 546 545
f 547 544 548
f 548 544 545
f 546 549 545
f 545 549 548
f 550 547 551
f 551 547 548
f 547 550 553
f 553 550 552
f 549 554 548
f 548 554 551
f 544 547 543
f 543 547 553
f 543 553 521
f 521 553 522
f 546 541 556
f 556 541 555
f 541 540 555
f 555 540 557
f 536 539 558
f 558 539 527
f 537 536 559
f 559 536 558
f 527 526 558
f 558 526 560
f 559 558 561
f 561 558 560
f 559 562 537
f 537 562 563
f 557 563 555
f 555 563 562
f 509 522 507
f 507 522 564
f 508 565 515
f 515 565 525
f 565 508 564
f 564 508 507
f 564 552 565
f 565 552 566
f 552 550 566
f 566 550 567
f 565 566 525
f 525 566 568
f 564 522 552
f 552 522 553
f 569 524 568
f 568 524 525
f 569 526 524
f 524 526 523
f 570 560 569
f 569 560 526
f 570 569 571
f 571 569 568
f 572 570 573
f 573 570 571
f 566 567 568
f 568 567 571
f 567 574 571
f 571 574 573
f 570 572 560
f 560 572 561
f 576 561 575
f 575 561 572
f 575 578 577
f 577 578 579
f 575 572 578
f 578 572 573
f 575 577 576
f 576 577 556
f 576 556 562
f 562 556 555
f 562 559 576
f 576 559 561
f 550 551 567
f 567 551 574
f 579 574 554
f 554 574 551
f 579 578 574
f 574 578 573
f 579 554 577
f 577 554 549
f 549 546 577
f 577 546 556
f 531 538 540
f 540 538 557
f 557 538 563
f 563 538 537
f 481 294 482
f 482 294 293
f 580 486 511
f 511 486 485
f 490 489 497
f 497 489 498
f 489 491 498
f 498 491 496
f 163 495 164
f 164 495 494
f 580 490 486
f 486 490 497
f 482 293 510
f 510 293 292
f 495 163 511
f 511 163 199
f 494 493 510
f 510 493 499
f 481 491 294
f 294 491 248
f 582 583 581
f 581 583 584
f 586 587 585
f 585 587 588
f 585 588 589
f 589 588 590
f 592 593 591
f 591 593 594
f 595 596 598
f 598 596 597
f 599 600 586
f 586 600 587
f 601 602 604
f 604 602 603
f 605 606 608
f 608 606 607
f 609 607 200
f 200 607 606
f 610 611 613
f 613 611 612
f 600 614 587
f 587 614 592
f 596 605 597
f 597 605 608
f 602 615 603
f 603 615 583
f 616 614 584
f 584 614 600
f 611 618 617
f 617 618 590
f 620 621 619
f 619 621 622
f 610 623 611
f 611 623 618
f 624 589 618
f 618 589 590
f 617 590 591
f 591 590 588
f 581 625 582
f 582 625 626
f 599 627 581
f 581 627 625
f 591 594 617
f 617 594 628
f 601 610 598
f 598 610 613
f 581 584 599
f 599 584 600
f 585 629 586
f 586 629 630
f 615 616 583
f 583 616 584
f 587 592 588
f 588 592 591
f 582 626 631
f 631 626 632
f 624 620 633
f 633 620 619
f 621 620 604
f 604 620 623
f 631 632 621
f 621 632 622
f 610 601 623
f 623 601 604
f 589 624 634
f 634 624 633
f 586 630 599
f 599 630 627
f 203 202 628
f 628 202 612
f 629 585 634
f 634 585 589
f 609 593 614
f 614 593 592
f 620 624 623
f 623 624 618
f 631 621 603
f 603 621 604
f 582 631 583
f 583 631 603
f 634 633 636
f 636 633 635
f 634 636 629
f 629 636 637
f 629 637 630
f 630 637 638
f 630 638 627
f 627 638 639
f 633 619 635
f 635 619 640
f 619 622 640
f 640 622 641
f 641 622 642
f 642 622 632
f 644 635 643
f 643 635 640
f 645 646 648
f 648 646 647
f 649 650 646
f 646 650 647
f 647 650 652
f 652 650 651
f 652 653 655
f 655 653 654
f 651 656 652
f 652 656 653
f 655 648 652
f 652 648 647
f 648 657 645
f 645 657 658
f 650 649 651
f 651 649 659
f 649 637 659
f 659 637 636
f 649 660 637
f 637 660 638
f 661 660 646
f 646 660 649
f 662 661 645
f 645 661 646
f 651 659 656
f 656 659 644
f 644 659 635
f 635 659 636
f 663 662 658
f 658 662 645
f 664 661 665
f 665 661 662
f 663 666 662
f 662 666 665
f 667 664 668
f 668 664 665
f 664 667 670
f 670 667 669
f 666 671 665
f 665 671 668
f 661 664 660
f 660 664 670
f 660 670 638
f 638 670 639
f 658 672 663
f 663 672 673
f 658 657 672
f 672 657 674
f 653 656 675
f 675 656 644
f 653 675 654
f 654 675 676
f 675 644 677
f 677 644 643
f 676 675 678
f 678 675 677
f 679 680 676
f 676 680 654
f 674 680 672
f 672 680 679
f 627 639 625
f 625 639 681
f 626 682 632
f 632 682 642
f 681 682 625
f 625 682 626
f 669 683 681
f 681 683 682
f 667 684 669
f 669 684 683
f 682 683 642
f 642 683 685
f 681 639 669
f 669 639 670
f 686 641 685
f 685 641 642
f 641 686 640
f 640 686 643
f 686 687 643
f 643 687 677
f 687 686 688
f 688 686 685
f 689 687 690
f 690 687 688
f 683 684 685
f 685 684 688
f 684 691 688
f 688 691 690
f 687 689 677
f 677 689 678
f 693 678 692
f 692 678 689
f 692 695 694
f 694 695 696
f 692 689 695
f 695 689 690
f 692 694 693
f 693 694 673
f 693 673 679
f 679 673 672
f 679 676 693
f 693 676 678
f 684 667 691
f 691 667 668
f 696 691 671
f 671 691 668
f 696 695 691
f 691 695 690
f 694 696 666
f 666 696 671
f 666 663 694
f 694 663 673
f 648 655 657
f 657 655 674
f 674 655 680
f 680 655 654
f 593 162 594
f 594 162 290
f 598 597 601
f 601 597 602
f 615 608 616
f 616 608 607
f 607 609 616
f 616 609 614
f 697 595 613
f 613 595 598
f 597 608 602
f 602 608 615
f 594 290 628
f 628 290 203
f 628 612 617
f 617 612 611
f 593 609 162
f 162 609 200
f 105 29 698
f 698 29 699
f 268 126 701
f 701 126 700
f 126 125 700
f 700 125 702
f 252 703 250
f 250 703 704
f 32 268 705
f 705 268 701
f 288 105 706
f 706 105 698
f 29 32 699
f 699 32 705
f 707 251 706
f 706 251 288
f 250 704 125
f 125 704 702
f 703 252 707
f 707 252 251
f 706 708 707
f 707 708 709
f 707 709 703
f 703 709 710
f 703 710 704
f 704 710 711
f 704 711 702
f 702 711 712
f 706 698 708
f 708 698 713
f 698 699 713
f 713 699 714
f 699 705 714
f 714 705 715
f 717 708 716
f 716 708 713
f 719 720 718
f 718 720 721
f 722 723 719
f 719 723 720
f 724 725 723
f 723 725 720
f 724 726 725
f 725 726 727
f 728 721 725
f 725 721 720
f 721 728 729
f 729 728 730
f 729 731 721
f 721 731 718
f 724 723 732
f 732 723 722
f 722 710 732
f 732 710 709
f 722 733 710
f 710 733 711
f 719 734 722
f 722 734 733
f 734 719 735
f 735 719 718
f 724 732 726
f 726 732 717
f 717 732 708
f 708 732 709
f 731 736 718
f 718 736 735
f 737 734 738
f 738 734 735
f 736 739 735
f 735 739 738
f 740 737 741
f 741 737 738
f 737 740 743
f 743 740 742
f 739 744 738
f 738 744 741
f 734 737 733
f 733 737 743
f 733 743 711
f 711 743 712
f 736 731 746
f 746 731 745
f 731 729 745
f 745 729 730
f 727 726 747
f 747 726 717
f 748 727 749
f 749 727 747
f 747 717 750
f 750 717 716
f 749 747 751
f 751 747 750
f 749 752 748
f 748 752 753
f 730 753 745
f 745 753 752
f 728 725 748
f 748 725 727
f 730 728 753
f 753 728 748
f 700 702 754
f 754 702 712
f 705 701 715
f 715 701 755
f 754 755 700
f 700 755 701
f 742 756 754
f 754 756 755
f 740 757 742
f 742 757 756
f 755 756 715
f 715 756 758
f 754 712 742
f 742 712 743
f 759 714 758
f 758 714 715
f 714 759 713
f 713 759 716
f 759 760 716
f 716 760 750
f 760 759 761
f 761 759 758
f 762 760 763
f 763 760 761
f 756 757 758
f 758 757 761
f 757 764 761
f 761 764 763
f 760 762 750
f 750 762 751
f 766 751 765
f 765 751 762
f 767 765 769
f 769 765 768
f 765 762 768
f 768 762 763
f 765 767 766
f 766 767 746
f 766 746 752
f 752 746 745
f 752 749 766
f 766 749 751
f 757 740 764
f 764 740 741
f 769 764 744
f 744 764 741
f 769 768 764
f 764 768 763
f 767 769 739
f 739 769 744
f 739 736 767
f 767 736 746
f 219 217 208
f 208 217 209
f 209 217 210
f 210 217 193
f 198 580 199
f 199 580 511
f 76 75 289
f 289 75 272
f 277 207 291
f 291 207 184
f 290 183 203
f 203 183 84
f 490 580 142
f 142 580 198
f 142 198 143
f 143 198 197
f 149 276 72
f 72 276 73
f 104 103 279
f 279 103 770
f 770 596 279
f 279 596 595
f 605 596 771
f 771 596 770
f 771 770 772
f 772 770 103
f 772 103 773
f 773 103 102
f 155 774 101
f 101 774 102
f 773 102 97
f 97 102 774
f 775 773 100
f 100 773 97
f 773 775 772
f 772 775 776
f 772 776 771
f 771 776 777
f 200 606 197
f 197 606 777
f 189 71 778
f 778 71 74
f 97 774 98
f 98 774 155
f 183 161 184
f 184 161 291
f 777 276 197
f 197 276 143
f 777 606 771
f 771 606 605
f 613 612 697
f 697 612 202
f 595 697 279
f 279 697 202
f 73 276 776
f 776 276 777
f 776 775 73
f 73 775 74
f 100 778 775
f 775 778 74
f 778 100 189
f 189 100 99
f 245 242 99
f 99 242 189
f 131 33 256
f 28 1 95
f 95 1 62
f 27 2 28
f 28 2 1
f 265 115 266
f 266 115 114
f 95 62 69
f 69 62 64
f 62 61 64
f 64 61 65
f 61 13 65
f 65 13 130
f 13 12 130
f 130 12 14
f 31 11 32
f 32 11 268
f 15 12 31
f 31 12 11
f 31 30 15
f 15 30 231
f 30 106 231
f 231 106 232
f 287 237 106
f 106 237 232
f 254 90 287
f 287 90 237
f 253 44 254
f 254 44 90
f 253 249 44
f 44 249 7
f 267 127 268
f 268 127 126
f 10 3 241
f 241 3 116
f 3 2 116
f 116 2 114
f 2 27 114
f 114 27 266
f 27 26 266
f 266 26 113
f 26 286 113
f 113 286 110
f 286 243 110
f 110 243 255
f 243 242 255
f 255 242 256
f 242 245 256
f 256 245 131
f 245 244 131
f 131 244 132
f 265 37 115
f 115 37 41
f 41 37 42
f 42 37 40
f 92 91 40
f 40 91 42
f 236 233 92
f 92 233 91
f 191 194 236
f 236 194 233
f 258 285 244
f 244 285 132
f 257 55 258
f 258 55 285
f 257 154 201
f 201 154 185
f 56 201 204
f 204 201 180
f 55 257 56
f 56 257 201
f 204 85 56
f 56 85 52
f 86 122 53
f 53 122 79
f 212 215 86
f 86 215 122
f 211 216 212
f 212 216 215
f 192 280 211
f 211 280 216
f 191 240 192
f 192 240 280
f 249 124 7
f 7 124 8
f 124 127 8
f 8 127 241
f 127 267 241
f 241 267 10
f 10 267 9
f 9 267 11
