v -0.0033988654613494873 0.010865883901715279 1.5578926801681519
v 0.009243465960025787 0.006698966026306152 1.5573537349700928
v 0.002238325774669647 0.002120731398463249 1.562577724456787
v -0.008612006902694702 0.006866643205285072 1.563523530960083
v 0.018797382712364197 -0.0013626962900161743 1.5754448175430298
v 0.022243477404117584 0.004007583484053612 1.5853297710418701
v 0.005604434758424759 0.0015024412423372269 1.5859357118606567
v 0.006240680813789368 -0.0033096950501203537 1.5767356157302856
v -0.013704411685466766 0.006673187017440796 1.5670874118804932
v -0.0046644993126392365 0.0002687554806470871 1.56583571434021
v -0.015531767159700394 0.012058398686349392 1.5673041343688965
v -0.023514412343502045 0.021023094654083252 1.572583794593811
v -0.022544797509908676 0.014363465830683708 1.5709326267242432
v -0.030886700376868248 0.02505316771566868 1.5739556550979614
v -0.017775095999240875 0.030768318101763725 1.573387622833252
v -0.029031872749328613 0.0336642861366272 1.5706157684326172
v -0.009368762373924255 0.04512991011142731 1.5551337003707886
v -0.00585305318236351 0.04600561410188675 1.5429224967956543
v -0.021192383021116257 0.04370982572436333 1.540967345237732
v -0.023360440507531166 0.04258182644844055 1.5539741516113281
v -0.011158473789691925 0.040555983781814575 1.5239572525024414
v -0.01756773516535759 0.042319439351558685 1.5330049991607666
v -0.002040773630142212 0.04572544991970062 1.5350167751312256
v 0.0031199902296066284 0.04361613094806671 1.526588797569275
v 0.00383005291223526 0.015576775185763836 1.5464234352111816
v 0.015368588268756866 0.013734246604144573 1.545510172843933
v 0.013954117894172668 0.01199176162481308 1.5498818159103394
v 0.0022067129611968994 0.014437621459364891 1.5508586168289185
v -0.018099233508110046 0.01446420419961214 1.5718941688537598
v -0.010999679565429688 0.023121966049075127 1.5771783590316772
v -0.01499505341053009 0.019679676741361618 1.571864366531372
v -0.01756451278924942 0.010388921946287155 1.5682162046432495
v 0.04069990664720535 0.007481483742594719 1.537418246269226
v 0.052541665732860565 0.013316289521753788 1.5396958589553833
v 0.05190002918243408 0.013810371980071068 1.5456328392028809
v 0.04134145379066467 0.008700334466993809 1.5423558950424194
v 0.043586552143096924 0.01016464363783598 1.5709110498428345
v 0.050978951156139374 0.01626082882285118 1.564985990524292
v 0.054802656173706055 0.02536766603589058 1.5738542079925537
v 0.04557553678750992 0.02295173704624176 1.5785763263702393
v 0.03358698636293411 0.005536604672670364 1.579788327217102
v 0.03550659865140915 0.01675170473754406 1.5855063199996948
v 0.020888254046440125 0.014341196976602077 1.5907655954360962
v 0.002695668488740921 0.009190317243337631 1.590722680091858
v 0.0540018156170845 0.015254798345267773 1.5271406173706055
v 0.0456666573882103 0.010744703002274036 1.5236592292785645
v -0.0812736302614212 0.04329323768615723 1.5584983825683594
v -0.07861299067735672 0.04493703693151474 1.5535725355148315
v -0.0754520446062088 0.03674621880054474 1.5545729398727417
v -0.07830540835857391 0.037064239382743835 1.5594741106033325
v 0.047333747148513794 0.029463518410921097 1.5146827697753906
v 0.045895010232925415 0.0393826961517334 1.5155634880065918
v 0.05305030941963196 0.03830856829881668 1.5153452157974243
v 0.054608605802059174 0.029127201065421104 1.5163978338241577
v 0.037677399814128876 0.029760075733065605 1.5125480890274048
v 0.03587920218706131 0.0402144193649292 1.5163981914520264
v -0.07483578473329544 0.047649361193180084 1.5675584077835083
v -0.07914814352989197 0.04544868692755699 1.5662349462509155
v -0.07553420960903168 0.041284188628196716 1.5675278902053833
v -0.07036861032247543 0.04383534938097 1.5680221319198608
v -0.019118163734674454 0.011429023928940296 1.5668094158172607
v -0.014201462268829346 0.01209060475230217 1.559675931930542
v -0.04161554574966431 0.01507240068167448 1.5655573606491089
v -0.028882920742034912 0.014087320305407047 1.5627517700195312
v -0.029315154999494553 0.01442838553339243 1.569474220275879
v -0.0396750345826149 0.016628796234726906 1.5715147256851196
v -0.01875266060233116 0.01641855575144291 1.5415129661560059
v -0.007032826542854309 0.01673208363354206 1.5427743196487427
v -0.00995272770524025 0.016485227271914482 1.548433780670166
v -0.023185547441244125 0.015503437258303165 1.5488793849945068
v -0.002685859799385071 0.013971111737191677 1.529642939567566
v -0.014586720615625381 0.014291822910308838 1.5294572114944458
v -0.010793749243021011 0.01260476466268301 1.5220532417297363
v -0.0029178038239479065 0.011803742498159409 1.5235041379928589
v -0.03834213316440582 0.015993963927030563 1.5311189889907837
v -0.04900675639510155 0.02042028121650219 1.5315520763397217
v -0.04461425915360451 0.020924272015690804 1.5285751819610596
v -0.03603705018758774 0.01639733463525772 1.5276931524276733
v 0.06008750945329666 0.03832586109638214 1.515594244003296
v 0.061366282403469086 0.02919960208237171 1.5189335346221924
v -0.0021921806037425995 0.03380996361374855 1.5065397024154663
v 0.004075072705745697 0.026254139840602875 1.5018010139465332
v -0.00794636458158493 0.02313399501144886 1.4980220794677734
v -0.011031530797481537 0.032128848135471344 1.5038775205612183
v 0.04274831712245941 0.04698815941810608 1.5218415260314941
v 0.05022120475769043 0.04696536809206009 1.5195536613464355
v -0.0695515051484108 0.050403445959091187 1.5656359195709229
v -0.06610619276762009 0.047369711101055145 1.5652589797973633
v 0.020945563912391663 0.02599557861685753 1.5884627103805542
v 0.0010407641530036926 0.018383683636784554 1.589888095855713
v 0.03582240641117096 0.030498871579766273 1.5832890272140503
v 0.04519987106323242 0.03448653221130371 1.5779281854629517
v 0.05375406891107559 0.03686390444636345 1.5757899284362793
v -0.032646045088768005 0.014006868936121464 1.556862473487854
v -0.007976695895195007 0.014510195702314377 1.5535125732421875
v 0.005355514585971832 0.015485645271837711 1.54193913936615
v 0.010240279138088226 0.0077402181923389435 1.5128107070922852
v 0.02068578451871872 0.007427895441651344 1.5144829750061035
v 0.014972075819969177 0.00723666325211525 1.5234352350234985
v 0.006985105574131012 0.008215316571295261 1.5200483798980713
v 0.004801351577043533 0.01651155762374401 1.5009117126464844
v 0.0020654313266277313 0.01058029942214489 1.5052841901779175
v -0.007037099450826645 0.010287415236234665 1.503774642944336
v -0.005757585167884827 0.0150490403175354 1.4989415407180786
v -0.018767964094877243 0.0160924531519413 1.5786428451538086
v -0.006839588284492493 0.02550164796411991 1.5819525718688965
v 0.04808426648378372 0.019381536170840263 1.5174568891525269
v 0.05473160743713379 0.0202759001404047 1.521268606185913
v 0.062359973788261414 0.022994447499513626 1.523488163948059
v 0.02850126475095749 0.009622368961572647 1.5432147979736328
v 0.04190809279680252 0.009310673922300339 1.54609215259552
v 0.04117051512002945 0.008499485440552235 1.5514239072799683
v 0.028432324528694153 0.009782657027244568 1.5464141368865967
v 0.02130918949842453 0.0016271360218524933 1.5612337589263916
v 0.03165651857852936 0.0015869475901126862 1.5677241086959839
v 0.011190690100193024 -0.00258447602391243 1.5659877061843872
v 0.05273647606372833 0.014747106470167637 1.554199457168579
v 0.06159759312868118 0.01596929132938385 1.5474966764450073
v 0.06110263615846634 0.017666006460785866 1.5563480854034424
v 0.06254023313522339 0.016719937324523926 1.5377824306488037
v 0.06284748762845993 0.018896523863077164 1.5291624069213867
v 0.05803140997886658 0.049819767475128174 1.5179603099822998
v 0.05951542407274246 0.020772255957126617 1.5641343593597412
v -0.002369895577430725 -0.003978755325078964 1.5759104490280151
v -0.01041283831000328 -0.005211571231484413 1.574268102645874
v -0.011508334428071976 -0.002024015411734581 1.5670857429504395
v -0.004376441240310669 -0.0017690099775791168 1.5677293539047241
v -0.04059354215860367 0.029105424880981445 1.5745409727096558
v -0.041228994727134705 0.02159038558602333 1.5745030641555786
v -0.02939656749367714 0.01816369593143463 1.5742655992507935
v 0.031094737350940704 0.006412342190742493 1.531017780303955
v 0.03584761172533035 0.008927382528781891 1.5196818113327026
v -0.04460557550191879 0.017011480405926704 1.5596102476119995
v -0.06533709168434143 0.044883523136377335 1.5689594745635986
v -0.06927753984928131 0.040385112166404724 1.5699363946914673
v -0.054940115660429 0.035024017095565796 1.5733668804168701
v -0.05285731703042984 0.04076644405722618 1.5715066194534302
v -0.05031260848045349 0.02671024575829506 1.5550991296768188
v -0.050079911947250366 0.022214597091078758 1.5582352876663208
v -0.05280626565217972 0.02609275095164776 1.5571271181106567
v -0.053527310490608215 0.030949369072914124 1.5532491207122803
v -0.04077842831611633 0.019612563773989677 1.5203901529312134
v -0.032375745475292206 0.015244758687913418 1.5200568437576294
v -0.03693797439336777 0.037292949855327606 1.5513345003128052
v -0.03508496657013893 0.0395064502954483 1.5652357339859009
v -0.025255519896745682 0.04045451432466507 1.563327670097351
v -0.015596941113471985 0.015644820407032967 1.534807801246643
v -0.0264676995575428 0.015081368386745453 1.5326162576675415
v -0.025219669565558434 0.014808909967541695 1.5286123752593994
v -0.036119453608989716 0.015048863366246223 1.5533382892608643
v -0.044906336814165115 0.018348395824432373 1.5541720390319824
v -0.04129877686500549 0.016760995611548424 1.5495760440826416
v -0.03278609365224838 0.015612286515533924 1.5484919548034668
v 0.016444794833660126 0.02875382825732231 1.5050078630447388
v 0.01739981770515442 0.017290517687797546 1.5034935474395752
v -0.08144904673099518 0.04364437982439995 1.5630663633346558
v -0.07791099697351456 0.03837846964597702 1.5643582344055176
v -0.004185434430837631 0.015969909727573395 1.5361874103546143
v -0.01214415580034256 0.04125367850065231 1.5633764266967773
v 0.00714903324842453 0.014722263440489769 1.5369091033935547
v -0.026142800226807594 0.03145994991064072 1.5123507976531982
v -0.02838756889104843 0.026875482872128487 1.509124994277954
v -0.035226188600063324 0.028364069759845734 1.5117868185043335
v -0.032557547092437744 0.03248981386423111 1.5133116245269775
v -0.06409912556409836 0.0403338186442852 1.5500969886779785
v -0.06799811124801636 0.036220449954271317 1.5520572662353516
v -0.0716969445347786 0.0389995202422142 1.5500413179397583
v -0.06731003522872925 0.0422174409031868 1.549114465713501
v -0.050013430416584015 0.020535720512270927 1.563685417175293
v -0.04897470399737358 0.020922215655446053 1.570165753364563
v -0.05567473545670509 0.024909749627113342 1.5673977136611938
v -0.05468440800905228 0.025036439299583435 1.5617306232452393
v -0.04980222135782242 0.026273449882864952 1.5735548734664917
v -0.05576816573739052 0.029071399942040443 1.571833848953247
v -0.0604843869805336 0.04515240341424942 1.5530869960784912
v -0.058934617787599564 0.04859938472509384 1.5600372552871704
v -0.04973825812339783 0.043885864317417145 1.559672474861145
v -0.05293505638837814 0.03861701488494873 1.55451238155365
v 0.01731223613023758 0.04687336087226868 1.5290887355804443
v 0.021046563982963562 0.04301997646689415 1.5194730758666992
v 0.006935290992259979 0.03979383036494255 1.516671061515808
v -0.006534911692142487 0.037170782685279846 1.513275146484375
v -0.01898100972175598 0.03331659361720085 1.5109912157058716
v -0.02213393524289131 0.03787461668252945 1.5207569599151611
v 0.010892976075410843 0.03667336702346802 1.5104402303695679
v -0.044364962726831436 0.029811467975378036 1.5497816801071167
v -0.04173289239406586 0.03728145360946655 1.557647705078125
v -0.039689771831035614 0.03360813111066818 1.5485278367996216
v 0.008727289736270905 0.012004703283309937 1.5302097797393799
v -0.07109349966049194 0.03675829619169235 1.5681074857711792
v 0.04301898181438446 0.05083145946264267 1.5639762878417969
v 0.04330584406852722 0.054616715759038925 1.5514559745788574
v 0.03489792346954346 0.05262790620326996 1.55306875705719
v 0.034240610897541046 0.0479111522436142 1.566563367843628
v -0.07078446447849274 0.033036086708307266 1.5575523376464844
v -0.07225631177425385 0.03339911252260208 1.5633376836776733
v -0.03151273727416992 0.015321323648095131 1.5140897035598755
v -0.03953910991549492 0.020624570548534393 1.5152556896209717
v -0.04049421101808548 0.024283159524202347 1.5131819248199463
v -0.03350197151303291 0.01742270588874817 1.5096580982208252
v 0.024270907044410706 0.04048755764961243 1.5152982473373413
v -0.016359031200408936 0.019349507987499237 1.496410846710205
v -0.017450444400310516 0.028470030054450035 1.500411868095398
v 0.033369116485118866 0.04591299593448639 1.5223157405853271
v 0.03019247204065323 0.04986972361803055 1.5305705070495605
v 0.03964673727750778 0.051874540746212006 1.5310572385787964
v -0.03279132395982742 0.03749718517065048 1.530982494354248
v 0.012665055692195892 0.04840832203626633 1.5361745357513428
v 0.02674778550863266 0.050825078040361404 1.5372908115386963
v 0.03791607916355133 0.053228408098220825 1.5381860733032227
v 0.045923568308353424 0.05546170845627785 1.5380877256393433
v 0.0470547080039978 0.05353808403015137 1.5302937030792236
v -0.06148666515946388 0.04752571880817413 1.5648118257522583
v -0.0628078356385231 0.04835830256342888 1.560295581817627
v 0.055335499346256256 0.05691392719745636 1.5288615226745605
v 0.053832270205020905 0.05830639228224754 1.5378642082214355
v 0.023603111505508423 0.05105367302894592 1.5459318161010742
v 0.020160414278507233 0.050080910325050354 1.5559698343276978
v 0.010116606950759888 0.04856114089488983 1.5444048643112183
v 0.005597397685050964 0.047459088265895844 1.554342269897461
v -0.03148311376571655 0.041172854602336884 1.539944052696228
v -0.07106657326221466 0.062265876680612564 1.556097149848938
v -0.06605090945959091 0.052444443106651306 1.5550756454467773
v -0.06917722523212433 0.050314925611019135 1.5504519939422607
v -0.07202989608049393 0.060881562530994415 1.5521318912506104
v -0.06395722180604935 0.045664265751838684 1.5530669689178467
v -0.06567935645580292 0.05234040319919586 1.5608696937561035
v 0.0026059821248054504 0.04249316826462746 1.5653506517410278
v -0.04783272743225098 0.02125202864408493 1.5498385429382324
v 0.018169723451137543 0.04300554096698761 1.569427728652954
v -0.00589308887720108 0.035142507404088974 1.575143575668335
v 0.005113817751407623 0.03411487862467766 1.5786285400390625
v 0.03380653262138367 0.04192175716161728 1.5763980150222778
v 0.019415274262428284 0.03567028418183327 1.582419514656067
v 0.05160553753376007 0.046031653881073 1.5714166164398193
v 0.04267542064189911 0.04446297883987427 1.5729601383209229
v 0.004664812237024307 0.028185024857521057 1.5856107473373413
v -0.08384507894515991 0.05369298905134201 1.5541255474090576
v -0.0798141211271286 0.05472235009074211 1.5503746271133423
v 0.05106266587972641 0.053147975355386734 1.5630799531936646
v 0.0020006634294986725 -0.0030196979641914368 1.5676803588867188
v 0.019014261662960052 0.010130161419510841 1.533487319946289
v 0.01750042289495468 0.012259989976882935 1.538299560546875
v 0.026799075305461884 0.007785027846693993 1.5162431001663208
v 0.022074230015277863 0.0069497134536504745 1.5269086360931396
v -0.0852307379245758 0.05380052700638771 1.5590784549713135
v -0.0516190268099308 0.026537064462900162 1.5319736003875732
v -0.04362662881612778 0.025219300761818886 1.5307526588439941
v -0.003448404371738434 -0.001607786864042282 1.5843130350112915
v -0.01077747717499733 -0.003940552473068237 1.5818923711776733
v -0.01788458600640297 0.00636233389377594 1.586034893989563
v -0.014637254178524017 -1.8417835235595703e-05 1.58633291721344
v -0.006724424660205841 0.004699936136603355 1.5889325141906738
v -0.009544260799884796 0.011857423931360245 1.5883673429489136
v 0.028300605714321136 0.009104736149311066 1.5405458211898804
v 0.028529271483421326 0.008224754594266415 1.536706566810608
v 0.02781536430120468 0.02910277247428894 1.5087260007858276
v 0.028015077114105225 0.017674705013632774 1.5075042247772217
v -0.04841063171625137 0.03225651755928993 1.5741102695465088
v -0.03930887207388878 0.03561415150761604 1.572265386581421
v -0.046344880014657974 0.03817411884665489 1.5718425512313843
v -0.049426160752773285 0.043797895312309265 1.5666874647140503
v -0.04809073731303215 0.02702529914677143 1.5505191087722778
v -0.04734181612730026 0.0325491838157177 1.5552504062652588
v 0.03693488985300064 0.005053069442510605 1.5583382844924927
v 0.026512213051319122 0.007002459838986397 1.5527946949005127
v -0.009052541106939316 0.002119198441505432 1.5659353733062744
v -0.014535576105117798 0.0037600696086883545 1.564847469329834
v -0.028318889439105988 0.015660222619771957 1.5415995121002197
v -0.04184942692518234 0.03652545064687729 1.5323513746261597
v -0.03792448714375496 0.040029074996709824 1.539331078529358
v -0.038810305297374725 0.0164986290037632 1.5410642623901367
v -0.08088679611682892 0.058107342571020126 1.5646339654922485
v -0.08434821665287018 0.055373162031173706 1.5621733665466309
v -0.04371795803308487 0.040871333330869675 1.5666848421096802
v -0.022105872631072998 0.012604694813489914 1.5211071968078613
v -0.03323259949684143 0.032145123928785324 1.5275973081588745
v -0.04750669002532959 0.03260396793484688 1.5307198762893677
v -0.01231519877910614 0.013090094551444054 1.4985305070877075
v 0.051938965916633606 0.056641433387994766 1.551043152809143
v -0.07411068677902222 0.04796773940324783 1.5499464273452759
v -0.07555155456066132 0.05675385147333145 1.5488874912261963
v -0.07122622430324554 0.06225483492016792 1.5604095458984375
v -0.07472750544548035 0.06020285561680794 1.5645195245742798
v 0.03735072910785675 0.01769080013036728 1.5128674507141113
v 0.016222871840000153 0.013408642262220383 1.5413761138916016
v -0.008153647184371948 0.021304478868842125 1.585063099861145
v -0.01902327686548233 0.012944485992193222 1.5826127529144287
v -0.047483041882514954 0.018865372985601425 1.5404733419418335
v -0.02244146168231964 0.029323652386665344 1.5061990022659302
v -0.027957679703831673 0.03576965257525444 1.518720030784607
v -0.0298331156373024 0.03628456965088844 1.5200634002685547
v -0.03100128471851349 0.034842271357774734 1.5270874500274658
v -0.03688276559114456 0.03127335384488106 1.5309933423995972
v -0.07308037579059601 0.06627704203128815 1.5580997467041016
v -0.07726579904556274 0.06545282900333405 1.562463402748108
v -0.08322913944721222 0.06455468386411667 1.562204360961914
v -0.0866188257932663 0.06150380149483681 1.5598838329315186
v -0.08674481511116028 0.05787290632724762 1.5567795038223267
v -0.07292911410331726 0.06589684635400772 1.5537365674972534
v -0.07409113645553589 0.0643492043018341 1.5503495931625366
v -0.07709109038114548 0.05933081731200218 1.548134446144104
v -0.07381585240364075 0.06893675029277802 1.5511391162872314
v -0.0749218761920929 0.07235288619995117 1.5544955730438232
v -0.08715865015983582 0.07667334377765656 1.5553982257843018
v -0.08419845253229141 0.07292113453149796 1.558701992034912
v -0.08324305713176727 0.07508192956447601 1.557482123374939
v -0.08484968543052673 0.0788983404636383 1.554963231086731
v -0.08503805845975876 0.0832635909318924 1.5524916648864746
v -0.08803271502256393 0.08125089108943939 1.552477240562439
v -0.07914123684167862 0.07330136001110077 1.557422161102295
v -0.08050623536109924 0.07858052849769592 1.5539969205856323
v -0.07714329659938812 0.07796448469161987 1.5515482425689697
v -0.07791551947593689 0.0828702375292778 1.5495599508285522
v -0.0809829831123352 0.0837446004152298 1.5518097877502441
v -0.07650019228458405 0.07451388239860535 1.554219365119934
v -0.07856261730194092 0.07176918536424637 1.558729887008667
v -0.08662810176610947 0.08459195494651794 1.54977285861969
v -0.08459268510341644 0.08561883866786957 1.5509464740753174
v -0.08144354820251465 0.08594615012407303 1.549870252609253
v -0.08278191089630127 0.08656108379364014 1.5471973419189453
v -0.08757208287715912 0.06748686730861664 1.557932734489441
v -0.08870875835418701 0.07514047622680664 1.5540932416915894
v -0.08859537541866302 0.07941853255033493 1.550025224685669
v -0.08711172640323639 0.08288190513849258 1.5475667715072632
v -0.08875557035207748 0.07380204647779465 1.550350546836853
v -0.08794896304607391 0.07778811454772949 1.5476884841918945
v -0.08644239604473114 0.08060597628355026 1.5452358722686768
v -0.08716243505477905 0.07265149056911469 1.5466086864471436
v -0.08642469346523285 0.07671484351158142 1.5451430082321167
v -0.08669401705265045 0.06080019474029541 1.5516245365142822
v -0.08797203749418259 0.06268481910228729 1.555298924446106
v -0.0860239714384079 0.07902510464191437 1.54391610622406
v -0.08296246826648712 0.0852290689945221 1.5453795194625854
v -0.07523514330387115 0.075519859790802 1.549680471420288
v -0.07708607614040375 0.0812583789229393 1.5467325448989868
v -0.07521651685237885 0.07428006827831268 1.5478030443191528
v -0.0766790360212326 0.07996496558189392 1.544695258140564
v -0.07835353910923004 0.08518583327531815 1.5457350015640259
v -0.07898449897766113 0.08515945822000504 1.5482999086380005
v -0.08436356484889984 0.056031372398138046 1.5528130531311035
v -0.08031158149242401 0.05684811621904373 1.5492417812347412
v -0.08210600167512894 0.06050605699419975 1.547917366027832
v -0.08360299468040466 0.07190349698066711 1.5437507629394531
v -0.0783202201128006 0.06242537125945091 1.5465712547302246
v -0.07494547218084335 0.06765329837799072 1.5480217933654785
v -0.07624996453523636 0.07370825111865997 1.5453109741210938
v -0.07871799170970917 0.07254184037446976 1.5434486865997314
v -0.07781414687633514 0.07812412083148956 1.5432963371276855
v -0.07997697591781616 0.07683491706848145 1.5426511764526367
v -0.08365300297737122 0.07632777839899063 1.5428969860076904
v -0.08006777614355087 0.08125219494104385 1.5425742864608765
v -0.07878878712654114 0.08362428098917007 1.543987512588501
v -0.08342944830656052 0.0823926255106926 1.5435477495193481
v -0.08090196549892426 0.07940927892923355 1.5422642230987549
v -0.0836426168680191 0.07972846180200577 1.5431749820709229
v -0.0765441507101059 0.048941269516944885 1.558971881866455
v -0.07701359689235687 0.05175799876451492 1.5535873174667358
v -0.07288138568401337 0.04467178136110306 1.5517518520355225
v -0.07134845852851868 0.04384209215641022 1.556664228439331
v -0.0643840879201889 0.051284000277519226 1.561871886253357
v -0.06924351304769516 0.04890858381986618 1.5637004375457764
v -0.06423795968294144 0.047433216124773026 1.5610414743423462
v -0.06150123104453087 0.051271744072437286 1.5572983026504517
v -0.06279665231704712 0.05479487031698227 1.557586431503296
v -0.06141756847500801 0.053073324263095856 1.552754521369934
v -0.05778440460562706 0.05133463814854622 1.5553544759750366
v -0.06043606251478195 0.04586883634328842 1.5589094161987305
v -0.047367461025714874 0.03414958715438843 1.5496876239776611
v -0.045078031718730927 0.040569983422756195 1.5469226837158203
v -0.05711771920323372 0.025556011125445366 1.537571907043457
v -0.05758301168680191 0.029491622000932693 1.5366581678390503
v -0.07380007207393646 0.0483604297041893 1.5623810291290283
v -0.0684315413236618 0.04504770785570145 1.5603619813919067
v -0.07259760797023773 0.0433475486934185 1.5438268184661865
v -0.07292494177818298 0.03991658240556717 1.5478423833847046
v -0.07444579899311066 0.046867989003658295 1.5476741790771484
v -0.07246086001396179 0.05072219669818878 1.545115351676941
v -0.05120885744690895 0.026050062850117683 1.547428846359253
v -0.05393632873892784 0.02438109926879406 1.5420013666152954
v -0.04975918307900429 0.029660409316420555 1.5492873191833496
v -0.06912459433078766 0.048329249024391174 1.5418089628219604
v -0.06421186029911041 0.05258098989725113 1.5426613092422485
v -0.05123766511678696 0.04243449494242668 1.5347996950149536
v -0.05573997646570206 0.03778812661767006 1.534131407737732
v -0.06433061510324478 0.04189825803041458 1.5595844984054565
v -0.0709364116191864 0.03841077536344528 1.5527739524841309
v -0.068509042263031 0.03901131451129913 1.5568759441375732
v -0.05956683307886124 0.053370401263237 1.5488104820251465
v -0.06453559547662735 0.05516960471868515 1.547169804573059
v -0.06893830746412277 0.06898515671491623 1.5565327405929565
v -0.06710989773273468 0.05814984813332558 1.548738718032837
v -0.07199861854314804 0.0575416199862957 1.548598051071167
v -0.07402841746807098 0.06956345587968826 1.5554310083389282
v -0.06770948320627213 0.05374005809426308 1.5448362827301025
v -0.06371957063674927 0.056736547499895096 1.551966667175293
v -0.08110889047384262 0.06261173635721207 1.565151572227478
v -0.08113160729408264 0.06610848009586334 1.5602437257766724
v -0.07863236963748932 0.06100672110915184 1.5684489011764526
v -0.04682669788599014 0.04389146715402603 1.5404454469680786
v -0.06864200532436371 0.059952668845653534 1.568951964378357
v -0.07492940872907639 0.059658922255039215 1.5698838233947754
v -0.07570678740739822 0.055242523550987244 1.5498987436294556
v -0.07854906469583511 0.06874024122953415 1.5568630695343018
v -0.06549106538295746 0.0672055333852768 1.558958888053894
v -0.06448941677808762 0.06232813000679016 1.5639245510101318
v -0.06600925326347351 0.07107143104076385 1.5621782541275024
v -0.06633535772562027 0.06688451766967773 1.5674660205841064
v -0.07222002744674683 0.06417843699455261 1.5726962089538574
v -0.07839071750640869 0.06378571689128876 1.5721049308776855
v -0.08131256699562073 0.06429760903120041 1.5699079036712646
v -0.06942066550254822 0.0730842798948288 1.5589711666107178
v -0.07455641776323318 0.0733749121427536 1.5574934482574463
v -0.0796489417552948 0.0705396831035614 1.5583555698394775
v -0.07164113223552704 0.0777265727519989 1.5607320070266724
v -0.06887517869472504 0.07725335657596588 1.564574122428894
v -0.08426374197006226 0.08403970301151276 1.5754852294921875
v -0.0810181200504303 0.07870916277170181 1.575256586074829
v -0.07889226078987122 0.08032283186912537 1.5744774341583252
v -0.08171357214450836 0.08525973558425903 1.575079083442688
v -0.07590797543525696 0.07393061369657516 1.5751522779464722
v -0.07539073377847672 0.07657825946807861 1.574035882949829
v -0.07184045016765594 0.07694559544324875 1.5708378553390503
v -0.07559366524219513 0.08235108852386475 1.5714991092681885
v -0.07404083013534546 0.08314129710197449 1.5667730569839478
v -0.07656694203615189 0.08841873705387115 1.5678496360778809
v -0.07821034640073776 0.08792778849601746 1.572432041168213
v -0.07130633294582367 0.07920663058757782 1.5675103664398193
v -0.08276066184043884 0.088799387216568 1.5747709274291992
v -0.08524711430072784 0.08951252698898315 1.5741257667541504
v -0.06930302828550339 0.07378913462162018 1.570929765701294
v -0.08003279566764832 0.06906662881374359 1.573569655418396
v -0.08385506272315979 0.07789857685565948 1.5742645263671875
v -0.08696764707565308 0.08395625650882721 1.573642373085022
v -0.08689150214195251 0.08983923494815826 1.5715712308883667
v -0.08653270453214645 0.0783599317073822 1.570868730545044
v -0.08827121555805206 0.08429223299026489 1.5707006454467773
v -0.08755498379468918 0.08902743458747864 1.568974256515503
v -0.08775156736373901 0.07922552525997162 1.5662531852722168
v -0.08851867914199829 0.08513193577528 1.5665165185928345
v -0.08437250554561615 0.06868135929107666 1.5656187534332275
v -0.08321308344602585 0.0681077092885971 1.5700093507766724
v -0.0878853127360344 0.08769571781158447 1.56693696975708
v -0.08231715857982635 0.09268979728221893 1.5717822313308716
v -0.08462637662887573 0.09266026318073273 1.5693111419677734
v -0.08087552338838577 0.09152819216251373 1.5724376440048218
v -0.07364143431186676 0.08329930901527405 1.5646711587905884
v -0.07730146497488022 0.08894236385822296 1.5658360719680786
v -0.07500120997428894 0.08379396796226501 1.5621622800827026
v -0.07857505977153778 0.08975522220134735 1.5638747215270996
v -0.07973486185073853 0.09270475804805756 1.5676740407943726
v -0.07909000664949417 0.0921076238155365 1.5691941976547241
v -0.08308675140142441 0.0652901828289032 1.5660991668701172
v -0.08212899416685104 0.0677257627248764 1.561261534690857
v -0.0828581377863884 0.07039904594421387 1.5604465007781982
v -0.08547954261302948 0.08085121214389801 1.5616596937179565
v -0.0793491005897522 0.07279902696609497 1.5576430559158325
v -0.07461795210838318 0.07691855728626251 1.5586403608322144
v -0.07703114300966263 0.08316606283187866 1.5602539777755737
v -0.08109153062105179 0.08251422643661499 1.5596925020217896
v -0.07984687387943268 0.08941009640693665 1.5620888471603394
v -0.08210735023021698 0.08711282908916473 1.561121940612793
v -0.08644306659698486 0.08584435284137726 1.56300950050354
v -0.08238004148006439 0.09244237840175629 1.5645090341567993
v -0.08089052140712738 0.09304426610469818 1.566322922706604
v -0.08562105894088745 0.0916033536195755 1.5675181150436401
v -0.08363614976406097 0.09015695750713348 1.5630062818527222
v -0.0864819586277008 0.08935931324958801 1.5652762651443481
v -0.05821101367473602 0.047337606549263 1.53783118724823
v -0.059420377016067505 0.04964952915906906 1.532975435256958
v -0.06039229780435562 0.04281587526202202 1.5297354459762573
v -0.05822145566344261 0.04229176044464111 1.5352492332458496
v -0.04558427631855011 0.04527823626995087 1.5369091033935547
v -0.04998341575264931 0.044871985912323 1.5391976833343506
v -0.05029763653874397 0.042337946593761444 1.5374369621276855
v -0.04549766331911087 0.04297427460551262 1.5343017578125
v -0.043307315558195114 0.04867810010910034 1.5332472324371338
v -0.04310571402311325 0.04594998434185982 1.5301060676574707
v -0.042453594505786896 0.04427415877580643 1.533238172531128
v -0.04799525439739227 0.04180004447698593 1.535962700843811
v -0.038364991545677185 0.03387659043073654 1.5324355363845825
v -0.033596087247133255 0.03832976147532463 1.5297460556030273
v -0.05467125028371811 0.0457511730492115 1.539350986480713
v -0.054594095796346664 0.04243546724319458 1.5377578735351562
v -0.05514146387577057 0.04167228192090988 1.519651174545288
v -0.05643061548471451 0.038311608135700226 1.5235905647277832
v -0.05888770893216133 0.0457453727722168 1.5248507261276245
v -0.05535992607474327 0.049065787345170975 1.5222713947296143
v -0.04429692029953003 0.025052964687347412 1.5286153554916382
v -0.043900955468416214 0.024537475779652596 1.5224910974502563
v -0.0428757481276989 0.029439879581332207 1.5318245887756348
v -0.050282470881938934 0.0449896901845932 1.518254280090332
v -0.04397278651595116 0.04716823995113373 1.5209386348724365
v -0.03681681677699089 0.03896072506904602 1.516657829284668
v -0.04077639803290367 0.03437911719083786 1.515134572982788
v -0.05179677531123161 0.03995014354586601 1.5369024276733398
v -0.05669494718313217 0.03685208410024643 1.5282461643218994
v -0.055394433438777924 0.03749861195683479 1.5341625213623047
v -0.041398320347070694 0.0468020886182785 1.5279303789138794
v -0.045190438628196716 0.04804634302854538 1.5241323709487915
v -0.04635224863886833 0.06548182666301727 1.5373212099075317
v -0.050174400210380554 0.054158009588718414 1.524661898612976
v -0.05504675582051277 0.05489129573106766 1.526281476020813
v -0.0497024729847908 0.06730915606021881 1.5381735563278198
v -0.05058670789003372 0.05003674328327179 1.5216292142868042
v -0.0451836958527565 0.05179091542959213 1.527503490447998
v -0.05467616021633148 0.0605635792016983 1.5479038953781128
v -0.05568613484501839 0.06364357471466064 1.543837547302246
v -0.052361179143190384 0.057181570678949356 1.5479885339736938
v -0.032538484781980515 0.04085758328437805 1.5232772827148438
v -0.04342353716492653 0.02839442901313305 1.51670241355896
v -0.046109624207019806 0.056079864501953125 1.5458353757858276
v -0.049590855836868286 0.055989425629377365 1.5475666522979736
v -0.057957276701927185 0.0525653213262558 1.5283883810043335
v -0.05345100164413452 0.06670823693275452 1.5402964353561401
v -0.043672338128089905 0.06208944320678711 1.538039207458496
v -0.04261361435055733 0.057716596871614456 1.5415515899658203
v -0.044498294591903687 0.0644395649433136 1.5396357774734497
v -0.04402599483728409 0.05979734659194946 1.5425992012023926
v -0.04662574455142021 0.057801418006420135 1.547308087348938
v -0.049452707171440125 0.05836278572678566 1.5499091148376465
v -0.05166352540254593 0.06022167578339577 1.550760269165039
v -0.04562394320964813 0.06807669997215271 1.5397838354110718
v -0.04772588983178139 0.07012709975242615 1.5416386127471924
v -0.052537791430950165 0.068743035197258 1.5428606271743774
v -0.042625583708286285 0.06962139904499054 1.5430277585983276
v -0.03981548547744751 0.06577655673027039 1.543296217918396
v -0.03243377059698105 0.06235618516802788 1.5593383312225342
v -0.03725332394242287 0.061133820563554764 1.5560075044631958
v -0.03639138489961624 0.06137687712907791 1.5551674365997314
v -0.031204044818878174 0.0622599832713604 1.5580618381500244
v -0.04195214435458183 0.059248559176921844 1.5502873659133911
v -0.03954942151904106 0.06024371460080147 1.5511023998260498
v -0.03909720107913017 0.061733659356832504 1.5475640296936035
v -0.03311232849955559 0.06297312676906586 1.5512754917144775
v -0.033777352422475815 0.06826381385326385 1.5485738515853882
v -0.02922844886779785 0.06859265267848969 1.5514798164367676
v -0.028350651264190674 0.06375622749328613 1.5543140172958374
v -0.037920065224170685 0.06522329151630402 1.545709490776062
v -0.028340600430965424 0.06358960270881653 1.5589625835418701
v -0.02853786200284958 0.06318791210651398 1.560743808746338
v -0.04124530777335167 0.061265431344509125 1.5453379154205322
v -0.04579397663474083 0.05976897105574608 1.5525927543640137
v -0.039378564804792404 0.06205463781952858 1.557758092880249
v -0.03453296422958374 0.06350939720869064 1.561475396156311
v -0.030842505395412445 0.06564360857009888 1.5622915029525757
v -0.041551511734724045 0.06502628326416016 1.5587005615234375
v -0.03638281300663948 0.06616918742656708 1.561623215675354
v -0.03302481770515442 0.06801840662956238 1.562366008758545
v -0.04293530806899071 0.06781481206417084 1.5582292079925537
v -0.037796322256326675 0.06900890916585922 1.5608596801757812
v -0.05189641937613487 0.06441063433885574 1.551785945892334
v -0.04920197278261185 0.06166260316967964 1.553167462348938
v -0.03448116034269333 0.06961280107498169 1.5616223812103271
v -0.025926165282726288 0.06621123850345612 1.558243751525879
v -0.02794083207845688 0.06951017677783966 1.5599671602249146
v -0.02665511518716812 0.06530188769102097 1.5569921731948853
v -0.03473656624555588 0.06957749277353287 1.5475847721099854
v -0.029217399656772614 0.0710538849234581 1.5516349077224731
v -0.0365121029317379 0.07155528664588928 1.5478745698928833
v -0.030913151800632477 0.07322508096694946 1.5523229837417603
v -0.026403777301311493 0.06983709335327148 1.5546064376831055
v -0.026596486568450928 0.06860832870006561 1.5543358325958252
v -0.054022274911403656 0.06265705823898315 1.5493072271347046
v -0.05451323091983795 0.06605759263038635 1.546085000038147
v -0.05220841243863106 0.06818841397762299 1.54930579662323
v -0.042311135679483414 0.07147279381752014 1.556278109550476
v -0.05017844960093498 0.07064332067966461 1.5460537672042847
v -0.04400353878736496 0.07157999277114868 1.5449880361557007
v -0.038393523544073105 0.07283684611320496 1.5499045848846436
v -0.040414780378341675 0.07320950925350189 1.5527839660644531
v -0.03309011831879616 0.07407361268997192 1.5537759065628052
v -0.035543449223041534 0.07377272844314575 1.5551756620407104
v -0.037412129342556 0.0723501443862915 1.5591319799423218
v -0.030527830123901367 0.07316173613071442 1.556739330291748
v -0.027926422655582428 0.07210007309913635 1.5555636882781982
v -0.030698373913764954 0.07112735509872437 1.5605839490890503
v -0.03305261582136154 0.07345399260520935 1.557555079460144
v -0.033314257860183716 0.07185888290405273 1.5603749752044678
v -0.04390621557831764 0.025422649458050728 1.518479585647583
v -0.04273763298988342 0.01845524087548256 1.5113481283187866
v -0.0420369990170002 0.014574047178030014 1.5122960805892944
v -0.039478279650211334 0.013040143996477127 1.5096782445907593
v -0.03911293298006058 0.016933739185333252 1.5090042352676392
v -0.04850015789270401 0.019933383911848068 1.5020849704742432
v -0.04672557860612869 0.021461695432662964 1.5059152841567993
v -0.04366576671600342 0.021311067044734955 1.502665400505066
v -0.045005328953266144 0.020117707550525665 1.498485803604126
v -0.04964537173509598 0.015451788902282715 1.4999333620071411
v -0.046094972640275955 0.01582515984773636 1.4960765838623047
v -0.042454060167074203 0.02310982346534729 1.4977591037750244
v -0.041377775371074677 0.023203685879707336 1.5025290250778198
v -0.030879706144332886 0.02757885679602623 1.506579041481018
v -0.02911890298128128 0.028620650991797447 1.5022310018539429
v -0.019126564264297485 0.011762785725295544 1.499246597290039
v -0.01843363046646118 0.009627529419958591 1.5031815767288208
v -0.026303602382540703 0.010544044896960258 1.5037214756011963
v -0.02549637295305729 0.010998334735631943 1.4996416568756104
v -0.044614166021347046 0.020703688263893127 1.5089595317840576
v -0.041357167065143585 0.02011442556977272 1.5068167448043823
v -0.03659173101186752 0.006793312728404999 1.5024950504302979
v -0.036146294325590134 0.008489783853292465 1.5065596103668213
v -0.039023466408252716 0.009040489792823792 1.5091289281845093
v -0.04063574969768524 0.006011888384819031 1.5065158605575562
v -0.021696144714951515 0.010383127257227898 1.5071690082550049
v -0.025719258934259415 0.012633945792913437 1.5090795755386353
v -0.02945087105035782 0.015080521814525127 1.5095455646514893
v -0.02832557074725628 0.012323400005698204 1.5073738098144531
v -0.03199467062950134 0.02109825611114502 1.5101888179779053
v -0.038123324513435364 0.00757959671318531 1.498426079750061
v -0.04032354801893234 0.011712891981005669 1.4941505193710327
v -0.025155741721391678 0.017739001661539078 1.4934775829315186
v -0.024235453456640244 0.01362600363790989 1.4959040880203247
v -0.04027430713176727 0.021192042157053947 1.506531834602356
v -0.037036459892988205 0.012162797152996063 1.5086944103240967
v -0.038427360355854034 0.01687321998178959 1.5086045265197754
v -0.04174234718084335 0.01886979676783085 1.4937725067138672
v -0.04569272696971893 0.00974949635565281 1.497689962387085
v -0.053112782537937164 0.006321251392364502 1.5123186111450195
v -0.04690839350223541 0.006101828068494797 1.5057069063186646
v -0.04436783492565155 0.006700724363327026 1.5097397565841675
v -0.05101194977760315 0.006676714867353439 1.514743685722351
v -0.04240018129348755 0.006457347422838211 1.5018326044082642
v -0.04965192452073097 0.009377054870128632 1.501904845237732
v -0.04866506904363632 0.01861361786723137 1.517467737197876
v -0.04767198488116264 0.01344548910856247 1.517693042755127
v -0.05042586475610733 0.02073727548122406 1.5157288312911987
v -0.0270710252225399 0.025803623721003532 1.4964874982833862
v -0.05546670779585838 0.01945270225405693 1.5103259086608887
v -0.053177788853645325 0.02126336470246315 1.5136311054229736
v -0.04260881990194321 0.010446332395076752 1.511862874031067
v -0.04881134629249573 0.009174682199954987 1.5166796445846558
v -0.055595941841602325 0.008699838072061539 1.509535551071167
v -0.056717030704021454 0.014491189271211624 1.5077751874923706
v -0.05845354497432709 0.008786391466856003 1.5137555599212646
v -0.0594913549721241 0.014496207237243652 1.5123724937438965
v -0.05769859254360199 0.019547414034605026 1.5155785083770752
v -0.05464392155408859 0.020658444613218307 1.51731276512146
v -0.05196927487850189 0.020121902227401733 1.5189510583877563
v -0.05531247705221176 0.0063790082931518555 1.5160051584243774
v -0.0526847168803215 0.00674104318022728 1.5178792476654053
v -0.04996013268828392 0.009104020893573761 1.518992304801941
v -0.05771729722619057 0.006470911204814911 1.5200600624084473
v -0.061370816081762314 0.009504936635494232 1.519985318183899
v -0.061315469443798065 0.017212536185979843 1.5310308933258057
v -0.059870850294828415 0.018070876598358154 1.5273865461349487
v -0.060730528086423874 0.017385974526405334 1.5269157886505127
v -0.06233445554971695 0.01712977886199951 1.5306406021118164
v -0.05948622524738312 0.018555209040641785 1.5220619440078735
v -0.060486678034067154 0.017405491322278976 1.522829294204712
v -0.06134915351867676 0.014742165803909302 1.520621657371521
v -0.06318031251430511 0.01415994018316269 1.5254384279251099
v -0.06275301426649094 0.008843805640935898 1.525578260421753
v -0.06427870690822601 0.009037796407938004 1.5293784141540527
v -0.0648212879896164 0.013715345412492752 1.5287806987762451
v -0.06223160773515701 0.010705769062042236 1.5214296579360962
v -0.06411981582641602 0.016257721930742264 1.532523512840271
v -0.06383659690618515 0.01646905392408371 1.5338726043701172
v -0.06134048104286194 0.015110932290554047 1.5185192823410034
v -0.055753931403160095 0.020042870193719864 1.522519588470459
v -0.05804263427853584 0.018661897629499435 1.5289982557296753
v -0.06039046123623848 0.017419639974832535 1.5331876277923584
v -0.06257188320159912 0.015302442014217377 1.5353528261184692
v -0.05561313033103943 0.017862487584352493 1.5290186405181885
v -0.05839566886425018 0.01659116894006729 1.5340652465820312
v -0.06046970561146736 0.014421749860048294 1.5360335111618042
v -0.05319872125983238 0.015550106763839722 1.529117226600647
v -0.05660795047879219 0.014631904661655426 1.5336579084396362
v -0.05018279328942299 0.016477420926094055 1.5229575634002686
v -0.052740100771188736 0.019007094204425812 1.5229836702346802
v -0.05905301123857498 0.013572141528129578 1.5352673530578613
v -0.06578980386257172 0.013072676956653595 1.533710241317749
v -0.0635857880115509 0.012140549719333649 1.535452127456665
v -0.06611514836549759 0.013140648603439331 1.5321398973464966
v -0.06206921860575676 0.007638663053512573 1.5254889726638794
v -0.06375986337661743 0.007752817124128342 1.5302144289016724
v -0.060026537626981735 0.006212588399648666 1.525955080986023
v -0.06200369447469711 0.007007710635662079 1.5312676429748535
v -0.0651627704501152 0.009516280144453049 1.5329647064208984
v -0.06552579998970032 0.01047690212726593 1.5314295291900635
v -0.04952623322606087 0.017357803881168365 1.520550012588501
v -0.048835307359695435 0.013355694711208344 1.519713282585144
v -0.04964659735560417 0.012402128428220749 1.5221997499465942
v -0.052501384168863297 0.011735271662473679 1.528535008430481
v -0.05122870206832886 0.008290302008390427 1.5213572978973389
v -0.054507214576005936 0.00638112798333168 1.5205614566802979
v -0.05745341628789902 0.006289571523666382 1.5267722606658936
v -0.0546397790312767 0.007847193628549576 1.5278289318084717
v -0.06008618697524071 0.007327217608690262 1.53226637840271
v -0.057414233684539795 0.008711785078048706 1.5327272415161133
v -0.0558789037168026 0.011500757187604904 1.5332531929016113
v -0.0615692138671875 0.00967225432395935 1.5348880290985107
v -0.06340283155441284 0.009348969906568527 1.5344798564910889
v -0.06153867393732071 0.011772394180297852 1.5357656478881836
v -0.05964553728699684 0.010115835815668106 1.5348793268203735
v -0.05921522527933121 0.011644072830677032 1.535200834274292
v -0.020887920632958412 0.014634025283157825 1.4969851970672607
v -0.03236039727926254 0.004630777984857559 1.5739316940307617
v -0.030215749517083168 0.0051731690764427185 1.568740963935852
v -0.021999094635248184 -0.008924175053834915 1.5660719871520996
v -0.02488572895526886 -0.0027884244918823242 1.562955617904663
v -0.022473424673080444 -0.012418873608112335 1.5722368955612183
v -0.02703280746936798 -0.009685531258583069 1.5815374851226807
v -0.023535653948783875 -0.01174207404255867 1.577938199043274
v -0.02747354283928871 0.0021438784897327423 1.56438410282135
v -0.032323017716407776 0.0018221624195575714 1.5788623094558716
v -0.030203575268387794 -0.004147415980696678 1.582689881324768
v -0.04308570921421051 -0.004221001639962196 1.5752339363098145
v -0.039545364677906036 -0.010954800993204117 1.578279972076416
v -0.035043612122535706 -0.016723301261663437 1.575726866722107
v -0.029521476477384567 -0.016453586518764496 1.5719987154006958
v -0.02681519091129303 -0.015760842710733414 1.568142294883728
v -0.039354465901851654 0.0010932348668575287 1.5703407526016235
v -0.03621717169880867 0.002443268895149231 1.5656952857971191
v -0.0313740149140358 -0.00019875355064868927 1.5620768070220947
v -0.0441410131752491 -0.0018041692674160004 1.5642203092575073
v -0.046307001262903214 -0.009377647191286087 1.5588386058807373
v -0.03862994164228439 -0.023149602115154266 1.5476205348968506
v -0.03631098195910454 -0.02177976816892624 1.5535857677459717
v -0.038961976766586304 -0.02104683220386505 1.5539186000823975
v -0.040963880717754364 -0.02276548743247986 1.5486055612564087
v -0.03746674954891205 -0.02070852369070053 1.559011697769165
v -0.039167627692222595 -0.01958099752664566 1.5579410791397095
v -0.04256102070212364 -0.015413522720336914 1.5595855712890625
v -0.04411991313099861 -0.01725093275308609 1.554230809211731
v -0.044925056397914886 -0.011476114392280579 1.5576393604278564
v -0.04566019028425217 -0.011375568807125092 1.5533888339996338
v -0.045539744198322296 -0.018599823117256165 1.5490264892578125
v -0.04362771660089493 -0.022784523665905 1.5458992719650269
v -0.04640538990497589 -0.019705824553966522 1.5447546243667603
v -0.041706282645463943 -0.022693417966365814 1.543771743774414
v -0.045640792697668076 -0.016654513776302338 1.5618884563446045
v -0.032155584543943405 -0.020004283636808395 1.562707781791687
v -0.03287619352340698 -0.021084599196910858 1.5538216829299927
v -0.03566546365618706 -0.021684106439352036 1.5466426610946655
v -0.039591819047927856 -0.021014437079429626 1.5423665046691895
v -0.03008536994457245 -0.01836736872792244 1.5527369976043701
v -0.033284686505794525 -0.018266111612319946 1.5463711023330688
v -0.03735030069947243 -0.017049990594387054 1.5425918102264404
v -0.029499104246497154 -0.013890910893678665 1.5515449047088623
v -0.03324534744024277 -0.014521192759275436 1.5462907552719116
v -0.02615945041179657 -0.011185303330421448 1.561395287513733
v -0.027506619691848755 -0.01653386279940605 1.5631511211395264
v -0.03647700324654579 -0.014822393655776978 1.5437071323394775
v -0.046340569853782654 -0.01946762204170227 1.5424001216888428
v -0.044113460928201675 -0.01744220033288002 1.5410172939300537
v -0.045974038541316986 -0.008215650916099548 1.5534148216247559
v -0.04769676923751831 -0.012869104743003845 1.548837423324585
v -0.04706719517707825 -0.010464280843734741 1.5479146242141724
v -0.044307172298431396 -0.004778452217578888 1.5535790920257568
v -0.045643601566553116 -0.008189909160137177 1.5470077991485596
v -0.047774381935596466 -0.014115579426288605 1.5440433025360107
v -0.04788951203227043 -0.015757210552692413 1.545932650566101
v -0.024987351149320602 -0.011444173753261566 1.5639275312423706
v -0.026896033436059952 -0.005337616428732872 1.5617436170578003
v -0.028715455904603004 -0.0048468708992004395 1.5603290796279907
v -0.03169859200716019 -0.007911227643489838 1.5515309572219849
v -0.03379584103822708 -0.00016491860151290894 1.5597944259643555
v -0.039939336478710175 0.000591624528169632 1.5621458292007446
v -0.04127686843276024 -0.0028855130076408386 1.5524686574935913
v -0.03638850152492523 -0.003672465682029724 1.551945686340332
v -0.042428866028785706 -0.007135733962059021 1.5463447570800781
v -0.039494119584560394 -0.007649999111890793 1.5463478565216064
v -0.03541111201047897 -0.010617401450872421 1.5457518100738525
v -0.04291678965091705 -0.010975431650876999 1.5430012941360474
v -0.04590306803584099 -0.012000665068626404 1.5430444478988647
v -0.04098878800868988 -0.014545876532793045 1.5416076183319092
v -0.04051613062620163 -0.010340195149183273 1.5440908670425415
v -0.03870733082294464 -0.0127175971865654 1.5433356761932373
v -0.012430120259523392 0.00992993637919426 1.5036015510559082
v -0.015560980886220932 0.00953071191906929 1.5089828968048096
v -0.00883239135146141 0.009312620386481285 1.5088789463043213
v 0.00036103278398513794 0.008519444614648819 1.5105825662612915
v 0.010435782372951508 0.010247517377138138 1.507318377494812
v -0.001663118600845337 0.00944649986922741 1.517042875289917
v -0.011153217405080795 0.010269458405673504 1.5147145986557007
v -0.02134220488369465 0.011548187583684921 1.513877034187317
v 0.0045166015625 0.011100128293037415 1.525080680847168
f 2 3 1
f 1 3 4
f 5 6 8
f 8 6 7
f 9 4 10
f 10 4 3
f 12 13 11
f 11 13 9
f 14 12 16
f 16 12 15
f 18 19 17
f 17 19 20
f 22 23 21
f 21 23 24
f 26 27 25
f 25 27 28
f 30 31 29
f 29 31 32
f 33 34 36
f 36 34 35
f 37 38 40
f 40 38 39
f 41 42 6
f 6 42 43
f 6 43 7
f 7 43 44
f 45 34 46
f 46 34 33
f 48 49 47
f 47 49 50
f 52 53 51
f 51 53 54
f 56 52 55
f 55 52 51
f 58 59 57
f 57 59 60
f 61 62 4
f 4 62 1
f 64 65 63
f 63 65 66
f 68 69 67
f 67 69 70
f 72 73 71
f 71 73 74
f 76 77 75
f 75 77 78
f 53 79 54
f 54 79 80
f 82 83 81
f 81 83 84
f 85 86 52
f 52 86 53
f 57 60 87
f 87 60 88
f 89 90 43
f 43 90 44
f 43 42 89
f 89 42 91
f 40 39 92
f 92 39 93
f 94 70 64
f 64 70 69
f 13 61 9
f 9 61 4
f 25 28 69
f 69 28 95
f 96 25 68
f 68 25 69
f 98 99 97
f 97 99 100
f 101 102 104
f 104 102 103
f 106 30 105
f 105 30 29
f 51 54 107
f 107 54 108
f 54 80 108
f 108 80 109
f 111 112 110
f 110 112 113
f 115 5 114
f 114 5 116
f 115 41 5
f 5 41 6
f 36 35 111
f 111 35 117
f 35 118 117
f 117 118 119
f 34 120 35
f 35 120 118
f 34 45 120
f 120 45 121
f 125 126 124
f 124 126 127
f 128 129 14
f 14 129 130
f 33 131 46
f 46 131 132
f 133 94 63
f 63 94 64
f 134 135 137
f 137 135 136
f 139 140 138
f 138 140 141
f 77 142 78
f 78 142 143
f 144 145 20
f 20 145 146
f 148 149 147
f 147 149 72
f 151 152 150
f 150 152 153
f 82 101 83
f 83 101 104
f 101 82 155
f 155 82 154
f 156 157 58
f 58 157 59
f 158 68 147
f 147 68 67
f 159 146 15
f 15 146 16
f 68 158 96
f 96 158 160
f 129 66 130
f 130 66 65
f 162 163 161
f 161 163 164
f 166 167 165
f 165 167 168
f 170 171 169
f 169 171 172
f 174 171 173
f 173 171 170
f 176 177 175
f 175 177 178
f 180 181 179
f 179 181 24
f 182 183 21
f 21 183 184
f 81 185 82
f 82 185 154
f 186 187 188
f 188 187 144
f 158 71 160
f 160 71 189
f 190 135 157
f 157 135 59
f 169 172 139
f 139 172 140
f 147 72 158
f 158 72 71
f 192 193 191
f 191 193 194
f 167 166 49
f 49 166 195
f 196 190 50
f 50 190 157
f 197 198 200
f 200 198 199
f 21 24 182
f 182 24 181
f 146 159 20
f 20 159 17
f 182 181 81
f 81 181 185
f 201 185 180
f 180 185 181
f 202 203 83
f 83 203 84
f 205 206 204
f 204 206 85
f 207 22 184
f 184 22 21
f 179 24 208
f 208 24 23
f 208 209 179
f 179 209 205
f 209 210 205
f 205 210 206
f 212 206 211
f 211 206 210
f 179 205 180
f 180 205 204
f 213 176 88
f 88 176 214
f 86 85 212
f 212 85 206
f 193 217 218
f 217 219 218
f 218 219 220
f 219 18 220
f 220 18 17
f 19 221 20
f 20 221 144
f 222 223 225
f 225 223 224
f 175 226 176
f 176 226 214
f 227 87 214
f 214 87 88
f 220 17 228
f 228 17 159
f 134 213 60
f 60 213 88
f 138 229 151
f 151 229 152
f 193 192 210
f 210 192 211
f 230 194 218
f 218 194 193
f 231 232 228
f 228 232 230
f 233 234 91
f 91 234 89
f 235 236 93
f 93 236 92
f 230 232 234
f 234 232 237
f 47 238 48
f 48 238 239
f 240 191 235
f 235 191 236
f 5 8 116
f 116 8 241
f 242 243 189
f 189 243 160
f 244 245 98
f 98 245 99
f 156 246 47
f 47 246 238
f 76 247 77
f 77 247 248
f 250 125 249
f 249 125 124
f 252 253 251
f 251 253 254
f 111 110 36
f 36 110 255
f 256 33 255
f 255 33 36
f 257 258 154
f 154 258 155
f 63 169 133
f 133 169 139
f 66 170 63
f 63 170 169
f 173 170 129
f 129 170 66
f 129 128 173
f 173 128 259
f 128 260 259
f 259 260 261
f 213 134 262
f 262 134 137
f 263 264 186
f 186 264 187
f 112 265 113
f 113 265 266
f 11 267 268
f 234 233 230
f 230 233 194
f 153 269 70
f 70 269 67
f 175 178 165
f 165 178 141
f 150 153 94
f 94 153 70
f 271 221 270
f 270 221 207
f 269 153 272
f 272 153 152
f 121 45 109
f 109 45 108
f 47 50 156
f 156 50 157
f 57 273 58
f 58 273 274
f 145 275 260
f 260 275 261
f 276 149 143
f 143 149 78
f 148 269 75
f 75 269 272
f 207 277 270
f 270 277 278
f 195 196 49
f 49 196 50
f 59 135 60
f 60 135 134
f 83 104 202
f 202 104 279
f 149 148 78
f 78 148 75
f 247 278 248
f 248 278 277
f 183 182 84
f 84 182 81
f 48 239 281
f 281 239 282
f 227 223 283
f 283 223 222
f 223 226 224
f 224 226 168
f 281 282 224
f 224 282 225
f 165 168 175
f 175 168 226
f 264 263 138
f 138 263 229
f 14 16 128
f 128 16 260
f 220 228 218
f 218 228 230
f 87 227 284
f 284 227 283
f 260 16 145
f 145 16 146
f 244 98 258
f 258 98 155
f 58 274 156
f 156 274 246
f 107 285 51
f 51 285 55
f 243 286 160
f 160 286 96
f 234 237 89
f 89 237 90
f 46 132 107
f 107 132 285
f 253 252 249
f 249 252 250
f 286 26 96
f 96 26 25
f 106 105 287
f 287 105 288
f 272 152 289
f 289 152 229
f 138 151 139
f 139 151 133
f 183 290 161
f 161 290 162
f 291 292 277
f 277 292 293
f 151 150 133
f 133 150 94
f 262 275 177
f 177 275 187
f 144 187 145
f 145 187 275
f 273 57 284
f 284 57 87
f 174 136 190
f 190 136 135
f 111 117 112
f 112 117 38
f 117 119 38
f 38 119 123
f 112 38 265
f 265 38 37
f 287 288 254
f 254 288 251
f 228 159 231
f 231 159 15
f 223 227 226
f 226 227 214
f 147 67 148
f 148 67 269
f 224 168 281
f 281 168 167
f 199 163 200
f 200 163 162
f 45 46 108
f 108 46 107
f 281 167 48
f 48 167 49
f 161 164 291
f 291 164 292
f 38 123 39
f 293 294 277
f 277 294 248
f 284 283 296
f 296 283 295
f 284 296 273
f 273 296 297
f 274 273 298
f 298 273 297
f 246 274 299
f 299 274 298
f 283 222 295
f 295 222 300
f 222 225 300
f 300 225 301
f 301 225 302
f 302 225 282
f 303 304 300
f 300 304 295
f 306 307 305
f 305 307 308
f 309 310 308
f 308 310 305
f 308 307 312
f 312 307 311
f 313 314 312
f 312 314 315
f 311 316 312
f 312 316 313
f 317 304 311
f 311 304 316
f 315 309 312
f 312 309 308
f 318 319 321
f 321 319 320
f 319 318 309
f 309 318 310
f 311 307 317
f 317 307 306
f 306 297 317
f 317 297 296
f 306 322 297
f 297 322 298
f 305 323 306
f 306 323 322
f 323 305 324
f 324 305 310
f 304 317 295
f 295 317 296
f 318 325 310
f 310 325 324
f 323 324 326
f 326 324 327
f 324 325 327
f 327 325 328
f 326 327 329
f 329 327 330
f 329 331 326
f 326 331 332
f 333 330 328
f 328 330 327
f 323 326 322
f 322 326 332
f 322 332 298
f 298 332 299
f 325 318 334
f 334 318 321
f 313 316 335
f 335 316 304
f 335 336 313
f 313 336 314
f 304 303 335
f 335 303 337
f 336 335 338
f 338 335 337
f 336 339 314
f 314 339 340
f 246 299 238
f 238 299 341
f 239 342 282
f 282 342 302
f 342 239 341
f 341 239 238
f 341 331 342
f 342 331 343
f 331 329 343
f 343 329 344
f 342 343 302
f 302 343 345
f 341 299 331
f 331 299 332
f 346 301 345
f 345 301 302
f 346 303 301
f 301 303 300
f 347 337 346
f 346 337 303
f 347 346 348
f 348 346 345
f 349 347 350
f 350 347 348
f 343 344 345
f 345 344 348
f 344 351 348
f 348 351 350
f 337 347 338
f 338 347 349
f 353 338 352
f 352 338 349
f 352 355 354
f 354 355 356
f 352 349 355
f 355 349 350
f 352 354 353
f 353 354 334
f 353 334 339
f 339 334 321
f 339 336 353
f 353 336 338
f 329 330 344
f 344 330 351
f 356 351 333
f 333 351 330
f 356 355 351
f 351 355 350
f 354 356 328
f 328 356 333
f 328 325 354
f 354 325 334
f 309 315 319
f 319 315 320
f 320 340 321
f 321 340 339
f 320 315 340
f 340 315 314
f 137 136 261
f 261 136 259
f 140 166 141
f 141 166 165
f 172 171 195
f 195 171 196
f 171 174 196
f 196 174 190
f 178 177 264
f 264 177 187
f 172 195 140
f 140 195 166
f 137 261 262
f 262 261 275
f 178 264 141
f 141 264 138
f 262 177 213
f 213 177 176
f 136 174 259
f 259 174 173
f 358 359 357
f 357 359 360
f 362 363 361
f 361 363 364
f 361 364 365
f 365 364 366
f 367 368 370
f 370 368 369
f 76 371 247
f 247 371 372
f 373 374 362
f 362 374 363
f 376 377 375
f 375 377 378
f 289 229 380
f 380 229 379
f 381 379 263
f 263 379 229
f 383 384 382
f 382 384 385
f 386 368 374
f 374 368 363
f 76 289 371
f 371 289 380
f 377 376 359
f 359 376 387
f 388 386 360
f 360 386 374
f 389 383 366
f 366 383 390
f 392 393 391
f 391 393 394
f 383 382 390
f 390 382 395
f 396 365 390
f 390 365 366
f 389 366 367
f 367 366 364
f 357 397 358
f 358 397 398
f 373 399 357
f 357 399 397
f 389 367 400
f 400 367 370
f 382 385 375
f 375 385 372
f 357 360 373
f 373 360 374
f 361 401 362
f 362 401 402
f 387 388 359
f 359 388 360
f 363 368 364
f 364 368 367
f 358 398 403
f 403 398 404
f 396 392 405
f 405 392 391
f 392 395 393
f 393 395 378
f 393 403 394
f 394 403 404
f 375 378 382
f 382 378 395
f 365 396 406
f 406 396 405
f 362 402 373
f 373 402 399
f 271 270 400
f 400 270 384
f 401 361 406
f 406 361 365
f 381 369 386
f 386 369 368
f 392 396 395
f 395 396 390
f 393 378 403
f 403 378 377
f 403 377 358
f 358 377 359
f 406 405 408
f 408 405 407
f 406 408 401
f 401 408 409
f 401 409 402
f 402 409 410
f 402 410 399
f 399 410 411
f 405 391 407
f 407 391 412
f 391 394 412
f 412 394 413
f 394 404 413
f 413 404 414
f 415 416 412
f 412 416 407
f 418 419 417
f 417 419 420
f 421 422 418
f 418 422 419
f 419 422 424
f 424 422 423
f 425 426 424
f 424 426 427
f 423 428 424
f 424 428 425
f 427 420 424
f 424 420 419
f 420 429 417
f 417 429 430
f 423 422 431
f 431 422 421
f 421 409 431
f 431 409 408
f 421 432 409
f 409 432 410
f 418 433 421
f 421 433 432
f 434 433 417
f 417 433 418
f 431 416 423
f 423 416 428
f 416 431 407
f 407 431 408
f 435 434 430
f 430 434 417
f 433 434 436
f 436 434 437
f 434 435 437
f 437 435 438
f 436 437 439
f 439 437 440
f 439 441 436
f 436 441 442
f 438 443 437
f 437 443 440
f 436 442 433
f 433 442 432
f 432 442 410
f 410 442 411
f 435 430 445
f 445 430 444
f 430 429 444
f 444 429 446
f 425 428 447
f 447 428 416
f 426 425 448
f 448 425 447
f 416 415 447
f 447 415 449
f 447 449 448
f 448 449 450
f 451 452 448
f 448 452 426
f 446 452 444
f 444 452 451
f 399 411 397
f 397 411 453
f 398 454 404
f 404 454 414
f 454 398 453
f 453 398 397
f 453 441 454
f 454 441 455
f 441 439 455
f 455 439 456
f 454 455 414
f 414 455 457
f 441 453 442
f 442 453 411
f 458 413 457
f 457 413 414
f 458 415 413
f 413 415 412
f 458 459 415
f 415 459 449
f 459 458 460
f 460 458 457
f 461 459 462
f 462 459 460
f 455 456 457
f 457 456 460
f 456 463 460
f 460 463 462
f 459 461 449
f 449 461 450
f 465 450 464
f 464 450 461
f 464 467 466
f 466 467 468
f 464 461 467
f 467 461 462
f 464 466 465
f 465 466 445
f 465 445 451
f 451 445 444
f 451 448 465
f 465 448 450
f 439 440 456
f 456 440 463
f 468 463 443
f 443 463 440
f 468 467 463
f 463 467 462
f 466 468 438
f 438 468 443
f 438 435 466
f 466 435 445
f 420 427 429
f 429 427 446
f 446 427 452
f 452 427 426
f 370 369 188
f 188 369 186
f 371 376 372
f 372 376 375
f 380 379 387
f 387 379 388
f 379 381 388
f 388 381 386
f 385 384 278
f 278 384 270
f 380 387 371
f 371 387 376
f 400 370 271
f 271 370 188
f 385 278 372
f 372 278 247
f 400 384 389
f 389 384 383
f 369 381 186
f 186 381 263
f 221 271 144
f 144 271 188
f 221 19 207
f 207 19 22
f 19 18 22
f 22 18 23
f 18 219 23
f 23 219 208
f 469 470 472
f 472 470 471
f 474 475 473
f 473 475 476
f 473 476 477
f 477 476 478
f 480 481 479
f 479 481 482
f 483 484 474
f 474 484 475
f 486 487 485
f 485 487 488
f 489 490 77
f 77 490 142
f 491 489 248
f 248 489 77
f 493 494 492
f 492 494 495
f 496 480 484
f 484 480 475
f 486 497 487
f 487 497 471
f 498 496 472
f 472 496 484
f 499 493 478
f 478 493 500
f 501 502 504
f 504 502 503
f 493 492 500
f 500 492 505
f 506 477 500
f 500 477 478
f 499 478 479
f 479 478 476
f 469 507 470
f 470 507 508
f 483 509 469
f 469 509 507
f 479 482 499
f 499 482 510
f 492 495 485
f 485 495 511
f 483 469 484
f 484 469 472
f 473 512 474
f 474 512 513
f 497 498 471
f 471 498 472
f 475 480 476
f 476 480 479
f 470 508 514
f 514 508 515
f 506 502 516
f 516 502 501
f 503 502 488
f 488 502 505
f 514 515 503
f 503 515 504
f 485 488 492
f 492 488 505
f 477 506 517
f 517 506 516
f 474 513 483
f 483 513 509
f 510 292 494
f 494 292 164
f 512 473 517
f 517 473 477
f 491 481 496
f 496 481 480
f 502 506 505
f 505 506 500
f 503 488 514
f 514 488 487
f 514 487 470
f 470 487 471
f 517 516 519
f 519 516 518
f 517 519 512
f 512 519 520
f 512 520 513
f 513 520 521
f 513 521 509
f 509 521 522
f 516 501 518
f 518 501 523
f 501 504 523
f 523 504 524
f 524 504 525
f 525 504 515
f 526 527 523
f 523 527 518
f 529 530 528
f 528 530 531
f 532 533 529
f 529 533 530
f 530 533 535
f 535 533 534
f 536 537 535
f 535 537 538
f 534 539 535
f 535 539 536
f 538 531 535
f 535 531 530
f 540 541 531
f 531 541 528
f 533 532 534
f 534 532 542
f 532 520 542
f 542 520 519
f 532 543 520
f 520 543 521
f 529 544 532
f 532 544 543
f 544 529 545
f 545 529 528
f 534 542 539
f 539 542 527
f 527 542 518
f 518 542 519
f 541 546 528
f 528 546 545
f 547 544 548
f 548 544 545
f 546 549 545
f 545 549 548
f 550 547 551
f 551 547 548
f 547 550 553
f 553 550 552
f 549 554 548
f 548 554 551
f 544 547 543
f 543 547 553
f 543 553 521
f 521 553 522
f 546 541 556
f 556 541 555
f 541 540 555
f 555 540 557
f 536 539 558
f 558 539 527
f 537 536 559
f 559 536 558
f 527 526 558
f 558 526 560
f 559 558 561
f 561 558 560
f 559 562 537
f 537 562 563
f 557 563 555
f 555 563 562
f 509 522 507
f 507 522 564
f 508 565 515
f 515 565 525
f 565 508 564
f 564 508 507
f 564 552 565
f 565 552 566
f 552 550 566
f 566 550 567
f 565 566 525
f 525 566 568
f 564 522 552
f 552 522 553
f 569 524 568
f 568 524 525
f 569 526 524
f 524 526 523
f 570 560 569
f 569 560 526
f 570 569 571
f 571 569 568
f 572 570 573
f 573 570 571
f 566 567 568
f 568 567 571
f 567 574 571
f 571 574 573
f 570 572 560
f 560 572 561
f 576 561 575
f 575 561 572
f 575 578 577
f 577 578 579
f 575 572 578
f 578 572 573
f 575 577 576
f 576 577 556
f 576 556 562
f 562 556 555
f 562 559 576
f 576 559 561
f 550 551 567
f 567 551 574
f 579 574 554
f 554 574 551
f 579 578 574
f 574 578 573
f 579 554 577
f 577 554 549
f 549 546 577
f 577 546 556
f 531 538 540
f 540 538 557
f 557 538 563
f 563 538 537
f 481 294 482
f 482 294 293
f 580 486 511
f 511 486 485
f 490 489 497
f 497 489 498
f 489 491 498
f 498 491 496
f 163 495 164
f 164 495 494
f 580 490 486
f 486 490 497
f 482 293 510
f 510 293 292
f 495 163 511
f 511 163 199
f 494 493 510
f 510 493 499
f 481 491 294
f 294 491 248
f 582 583 581
f 581 583 584
f 586 587 585
f 585 587 588
f 585 588 589
f 589 588 590
f 592 593 591
f 591 593 594
f 595 596 598
f 598 596 597
f 599 600 586
f 586 600 587
f 601 602 604
f 604 602 603
f 605 606 608
f 608 606 607
f 609 607 200
f 200 607 606
f 610 611 613
f 613 611 612
f 600 614 587
f 587 614 592
f 596 605 597
f 597 605 608
f 602 615 603
f 603 615 583
f 616 614 584
f 584 614 600
f 611 618 617
f 617 618 590
f 620 621 619
f 619 621 622
f 610 623 611
f 611 623 618
f 624 589 618
f 618 589 590
f 617 590 591
f 591 590 588
f 581 625 582
f 582 625 626
f 599 627 581
f 581 627 625
f 591 594 617
f 617 594 628
f 601 610 598
f 598 610 613
f 581 584 599
f 599 584 600
f 585 629 586
f 586 629 630
f 615 616 583
f 583 616 584
f 587 592 588
f 588 592 591
f 582 626 631
f 631 626 632
f 624 620 633
f 633 620 619
f 621 620 604
f 604 620 623
f 631 632 621
f 621 632 622
f 610 601 623
f 623 601 604
f 589 624 634
f 634 624 633
f 586 630 599
f 599 630 627
f 203 202 628
f 628 202 612
f 629 585 634
f 634 585 589
f 609 593 614
f 614 593 592
f 620 624 623
f 623 624 618
f 631 621 603
f 603 621 604
f 582 631 583
f 583 631 603
f 634 633 636
f 636 633 635
f 634 636 629
f 629 636 637
f 629 637 630
f 630 637 638
f 630 638 627
f 627 638 639
f 633 619 635
f 635 619 640
f 619 622 640
f 640 622 641
f 641 622 642
f 642 622 632
f 644 635 643
f 643 635 640
f 645 646 648
f 648 646 647
f 649 650 646
f 646 650 647
f 647 650 652
f 652 650 651
f 652 653 655
f 655 653 654
f 651 656 652
f 652 656 653
f 655 648 652
f 652 648 647
f 648 657 645
f 645 657 658
f 650 649 651
f 651 649 659
f 649 637 659
f 659 637 636
f 649 660 637
f 637 660 638
f 661 660 646
f 646 660 649
f 662 661 645
f 645 661 646
f 651 659 656
f 656 659 644
f 644 659 635
f 635 659 636
f 663 662 658
f 658 662 645
f 664 661 665
f 665 661 662
f 663 666 662
f 662 666 665
f 667 664 668
f 668 664 665
f 664 667 670
f 670 667 669
f 666 671 665
f 665 671 668
f 661 664 660
f 660 664 670
f 660 670 638
f 638 670 639
f 658 672 663
f 663 672 673
f 658 657 672
f 672 657 674
f 653 656 675
f 675 656 644
f 653 675 654
f 654 675 676
f 675 644 677
f 677 644 643
f 676 675 678
f 678 675 677
f 679 680 676
f 676 680 654
f 674 680 672
f 672 680 679
f 627 639 625
f 625 639 681
f 626 682 632
f 632 682 642
f 681 682 625
f 625 682 626
f 669 683 681
f 681 683 682
f 667 684 669
f 669 684 683
f 682 683 642
f 642 683 685
f 681 639 669
f 669 639 670
f 686 641 685
f 685 641 642
f 641 686 640
f 640 686 643
f 686 687 643
f 643 687 677
f 687 686 688
f 688 686 685
f 689 687 690
f 690 687 688
f 683 684 685
f 685 684 688
f 684 691 688
f 688 691 690
f 687 689 677
f 677 689 678
f 693 678 692
f 692 678 689
f 692 695 694
f 694 695 696
f 692 689 695
f 695 689 690
f 692 694 693
f 693 694 673
f 693 673 679
f 679 673 672
f 679 676 693
f 693 676 678
f 684 667 691
f 691 667 668
f 696 691 671
f 671 691 668
f 696 695 691
f 691 695 690
f 694 696 666
f 666 696 671
f 666 663 694
f 694 663 673
f 648 655 657
f 657 655 674
f 674 655 680
f 680 655 654
f 593 162 594
f 594 162 290
f 598 597 601
f 601 597 602
f 615 608 616
f 616 608 607
f 607 609 616
f 616 609 614
f 697 595 613
f 613 595 598
f 597 608 602
f 602 608 615
f 594 290 628
f 628 290 203
f 628 612 617
f 617 612 611
f 593 609 162
f 162 609 200
f 105 29 698
f 698 29 699
f 268 126 701
f 701 126 700
f 126 125 700
f 700 125 702
f 252 703 250
f 250 703 704
f 32 268 705
f 705 268 701
f 288 105 706
f 706 105 698
f 29 32 699
f 699 32 705
f 707 251 706
f 706 251 288
f 250 704 125
f 125 704 702
f 703 252 707
f 707 252 251
f 706 708 707
f 707 708 709
f 707 709 703
f 703 709 710
f 703 710 704
f 704 710 711
f 704 711 702
f 702 711 712
f 706 698 708
f 708 698 713
f 698 699 713
f 713 699 714
f 699 705 714
f 714 705 715
f 717 708 716
f 716 708 713
f 719 720 718
f 718 720 721
f 722 723 719
f 719 723 720
f 724 725 723
f 723 725 720
f 724 726 725
f 725 726 727
f 728 721 725
f 725 721 720
f 721 728 729
f 729 728 730
f 729 731 721
f 721 731 718
f 724 723 732
f 732 723 722
f 722 710 732
f 732 710 709
f 722 733 710
f 710 733 711
f 719 734 722
f 722 734 733
f 734 719 735
f 735 719 718
f 724 732 726
f 726 732 717
f 717 732 708
f 708 732 709
f 731 736 718
f 718 736 735
f 737 734 738
f 738 734 735
f 736 739 735
f 735 739 738
f 740 737 741
f 741 737 738
f 737 740 743
f 743 740 742
f 739 744 738
f 738 744 741
f 734 737 733
f 733 737 743
f 733 743 711
f 711 743 712
f 736 731 746
f 746 731 745
f 731 729 745
f 745 729 730
f 727 726 747
f 747 726 717
f 748 727 749
f 749 727 747
f 747 717 750
f 750 717 716
f 749 747 751
f 751 747 750
f 749 752 748
f 748 752 753
f 730 753 745
f 745 753 752
f 728 725 748
f 748 725 727
f 730 728 753
f 753 728 748
f 700 702 754
f 754 702 712
f 705 701 715
f 715 701 755
f 754 755 700
f 700 755 701
f 742 756 754
f 754 756 755
f 740 757 742
f 742 757 756
f 755 756 715
f 715 756 758
f 754 712 742
f 742 712 743
f 759 714 758
f 758 714 715
f 714 759 713
f 713 759 716
f 759 760 716
f 716 760 750
f 760 759 761
f 761 759 758
f 762 760 763
f 763 760 761
f 756 757 758
f 758 757 761
f 757 764 761
f 761 764 763
f 760 762 750
f 750 762 751
f 766 751 765
f 765 751 762
f 767 765 769
f 769 765 768
f 765 762 768
f 768 762 763
f 765 767 766
f 766 767 746
f 766 746 752
f 752 746 745
f 752 749 766
f 766 749 751
f 757 740 764
f 764 740 741
f 769 764 744
f 744 764 741
f 769 768 764
f 764 768 763
f 767 769 739
f 739 769 744
f 739 736 767
f 767 736 746
f 219 217 208
f 208 217 209
f 209 217 210
f 210 217 193
f 198 580 199
f 199 580 511
f 76 75 289
f 289 75 272
f 277 207 291
f 291 207 184
f 290 183 203
f 203 183 84
f 490 580 142
f 142 580 198
f 142 198 143
f 143 198 197
f 149 276 72
f 72 276 73
f 104 103 279
f 279 103 770
f 770 596 279
f 279 596 595
f 605 596 771
f 771 596 770
f 771 770 772
f 772 770 103
f 772 103 773
f 773 103 102
f 155 774 101
f 101 774 102
f 773 102 97
f 97 102 774
f 775 773 100
f 100 773 97
f 773 775 772
f 772 775 776
f 772 776 771
f 771 776 777
f 200 606 197
f 197 606 777
f 189 71 778
f 778 71 74
f 97 774 98
f 98 774 155
f 183 161 184
f 184 161 291
f 777 276 197
f 197 276 143
f 777 606 771
f 771 606 605
f 613 612 697
f 697 612 202
f 595 697 279
f 279 697 202
f 73 276 776
f 776 276 777
f 776 775 73
f 73 775 74
f 100 778 775
f 775 778 74
f 778 100 189
f 189 100 99
f 245 242 99
f 99 242 189
f 131 33 256
f 28 1 95
f 95 1 62
f 27 2 28
f 28 2 1
f 265 115 266
f 266 115 114
f 95 62 69
f 69 62 64
f 62 61 64
f 64 61 65
f 61 13 65
f 65 13 130
f 13 12 130
f 130 12 14
f 31 11 32
f 32 11 268
f 15 12 31
f 31 12 11
f 31 30 15
f 15 30 231
f 30 106 231
f 231 106 232
f 287 237 106
f 106 237 232
f 254 90 287
f 287 90 237
f 253 44 254
f 254 44 90
f 253 249 44
f 44 249 7
f 267 127 268
f 268 127 126
f 10 3 241
f 241 3 116
f 3 2 116
f 116 2 114
f 2 27 114
f 114 27 266
f 27 26 266
f 266 26 113
f 26 286 113
f 113 286 110
f 286 243 110
f 110 243 255
f 243 242 255
f 255 242 256
f 242 245 256
f 256 245 131
f 245 244 131
f 131 244 132
f 265 37 115
f 115 37 41
f 41 37 42
f 42 37 40
f 92 91 40
f 40 91 42
f 236 233 92
f 92 233 91
f 191 194 236
f 236 194 233
f 258 285 244
f 244 285 132
f 257 55 258
f 258 55 285
f 257 154 201
f 201 154 185
f 56 201 204
f 204 201 180
f 55 257 56
f 56 257 201
f 204 85 56
f 56 85 52
f 86 122 53
f 53 122 79
f 212 215 86
f 86 215 122
f 211 216 212
f 212 216 215
f 192 280 211
f 211 280 216
f 191 240 192
f 192 240 280
f 249 124 7
f 7 124 8
f 124 127 8
f 8 127 241
f 127 267 241
f 241 267 10
f 10 267 9
f 9 267 11
