v -0.003913205116987228 0.01656554639339447 1.6391576528549194
v 0.008880037814378738 0.012431830167770386 1.638540506362915
v 0.0019733496010303497 0.007648158818483353 1.643408179283142
v -0.009091034531593323 0.012490417808294296 1.6445667743682861
v 0.018321499228477478 0.003955865278840065 1.6563282012939453
v 0.021474547684192657 0.009168392047286034 1.6664109230041504
v 0.0050422511994838715 0.006400633603334427 1.6665170192718506
v 0.006035104393959045 0.0018426980823278427 1.6571319103240967
v -0.01418972760438919 0.012189462780952454 1.647904872894287
v -0.004916936159133911 0.005653915926814079 1.6463875770568848
v -0.016073502600193024 0.017459198832511902 1.6480106115341187
v -0.02426881715655327 0.026659870520234108 1.653687834739685
v -0.02317383699119091 0.02002052590250969 1.6519238948822021
v -0.03175869584083557 0.030585553497076035 1.655347228050232
v -0.018669001758098602 0.03651167452335358 1.6546516418457031
v -0.030916837975382805 0.039634816348552704 1.652562141418457
v -0.010162506252527237 0.050848864018917084 1.6365456581115723
v -0.006529267877340317 0.051651354879140854 1.6243300437927246
v -0.021945105865597725 0.049340080469846725 1.6222572326660156
v -0.02452177181839943 0.04848933592438698 1.6354548931121826
v -0.011538319289684296 0.0460050068795681 1.6054571866989136
v -0.018179818987846375 0.04788530617952347 1.6142685413360596
v -0.002628076821565628 0.051328033208847046 1.616437315940857
v 0.00265541672706604 0.04914579167962074 1.608077883720398
v 0.003207065165042877 0.021245039999485016 1.6278438568115234
v 0.014787264168262482 0.019478464499115944 1.6269619464874268
v 0.013457782566547394 0.017799731343984604 1.6312956809997559
v 0.0016237646341323853 0.020138168707489967 1.6322485208511353
v -0.018880322575569153 0.018995942547917366 1.6524431705474854
v -0.011884920299053192 0.02815469726920128 1.6581237316131592
v -0.015748731791973114 0.02493920922279358 1.652686595916748
v -0.018134210258722305 0.01515098474919796 1.6486198902130127
v 0.04005712270736694 0.013142483308911324 1.6188902854919434
v 0.05189044028520584 0.018971305340528488 1.6211459636688232
v 0.051251254975795746 0.01948847994208336 1.6270804405212402
v 0.04070813208818436 0.014386684633791447 1.6238361597061157
v 0.04283934831619263 0.015716737136244774 1.6522637605667114
v 0.05028250068426132 0.021929040551185608 1.6464405059814453
v 0.05405966192483902 0.030971217900514603 1.655280590057373
v 0.04474906623363495 0.028418898582458496 1.6599819660186768
v 0.032804906368255615 0.010833002626895905 1.6610578298568726
v 0.03455355018377304 0.022009292617440224 1.66685950756073
v 0.019821032881736755 0.01936800591647625 1.6720209121704102
v 0.0017378926277160645 0.01377084106206894 1.6715291738510132
v 0.05333506315946579 0.020869743078947067 1.6085892915725708
v 0.04500499367713928 0.01637404039502144 1.6051472425460815
v -0.07634404301643372 0.030390851199626923 1.6215537786483765
v -0.07285591959953308 0.035160131752491 1.620464563369751
v -0.06778961420059204 0.029045024886727333 1.623504638671875
v -0.0718257874250412 0.026159998029470444 1.6251580715179443
v 0.046666115522384644 0.035027824342250824 1.5961284637451172
v 0.04523420333862305 0.0449734628200531 1.5969598293304443
v 0.05237841606140137 0.0438728854060173 1.5967317819595337
v 0.053927257657051086 0.03468722105026245 1.5978178977966309
v 0.03700704127550125 0.03528527915477753 1.594070553779602
v 0.03523695468902588 0.04581185430288315 1.597821831703186
v -0.0817568302154541 0.03300877660512924 1.6322928667068481
v -0.08175375312566757 0.029747484251856804 1.6282458305358887
v -0.07715882360935211 0.027500605210661888 1.6330698728561401
v -0.07574565708637238 0.0313962921500206 1.6374598741531372
v -0.01966417208313942 0.017171919345855713 1.6479181051254272
v -0.014779411256313324 0.017832979559898376 1.640968918800354
v -0.03919192776083946 0.020313702523708344 1.6452548503875732
v -0.02907381020486355 0.020063893869519234 1.644059181213379
v -0.029239431023597717 0.02032450959086418 1.6503790616989136
v -0.03808145225048065 0.021107181906700134 1.6511192321777344
v -0.019400790333747864 0.022061314433813095 1.6229186058044434
v -0.007684309035539627 0.022364601492881775 1.624197244644165
v -0.010578256100416183 0.022166045382618904 1.629833698272705
v -0.02377386763691902 0.021216079592704773 1.6302659511566162
v -0.003425139933824539 0.019503245130181313 1.6110877990722656
v -0.015378396958112717 0.019757766276597977 1.6108670234680176
v -0.0117686428129673 0.017924845218658447 1.6034488677978516
v -0.003750782459974289 0.01726974919438362 1.6049492359161377
v -0.03913579136133194 0.021706175059080124 1.6123998165130615
v -0.049814824014902115 0.026236824691295624 1.612892508506775
v -0.044632598757743835 0.026037655770778656 1.609939694404602
v -0.036738209426403046 0.022102218121290207 1.6088589429855347
v 0.0594014972448349 0.04388565197587013 1.5969724655151367
v 0.06066622585058212 0.03476450592279434 1.6003409624099731
v -0.00197417289018631 0.03880926966667175 1.5888220071792603
v 0.003935310989618301 0.030988285318017006 1.5839474201202393
v -0.006492532789707184 0.02847251482307911 1.5805662870407104
v -0.009938102215528488 0.037218127399683 1.586424469947815
v 0.0420970544219017 0.052620552480220795 1.6032235622406006
v 0.04955993592739105 0.05256688594818115 1.6009199619293213
v -0.07944288849830627 0.038321927189826965 1.6349520683288574
v -0.073274627327919 0.0366615429520607 1.6384687423706055
v 0.019786931574344635 0.031122956424951553 1.6698923110961914
v -0.0001493021845817566 0.023006994277238846 1.6709246635437012
v 0.03483470529317856 0.03590180352330208 1.6648333072662354
v 0.044338829815387726 0.04004288464784622 1.6594550609588623
v 0.052970558404922485 0.04247492551803589 1.657257080078125
v -0.032343219965696335 0.020371560007333755 1.6383328437805176
v -0.008578766137361526 0.02020910196006298 1.634883999824524
v 0.004711885005235672 0.021131351590156555 1.6233758926391602
v 0.009412020444869995 0.013090880587697029 1.5944315195083618
v 0.019966937601566315 0.012877283617854118 1.5961300134658813
v 0.01425383985042572 0.012795010581612587 1.6049524545669556
v 0.006171036511659622 0.01369161531329155 1.6015571355819702
v 0.004350084811449051 0.021313820034265518 1.5829095840454102
v 0.001163296401500702 0.015550544485449791 1.587088704109192
v -0.00823301076889038 0.01522959116846323 1.5854942798614502
v -0.005580645054578781 0.01997595652937889 1.581025242805481
v -0.019708532840013504 0.020235970616340637 1.6592243909835815
v -0.007851190865039825 0.030391046777367592 1.6629645824432373
v 0.047415487468242645 0.024964557960629463 1.598936676979065
v 0.05405368655920029 0.02586294710636139 1.6027195453643799
v 0.06166284531354904 0.02858099527657032 1.6049147844314575
v 0.027898266911506653 0.01537252590060234 1.6247056722640991
v 0.041279181838035583 0.015023664571344852 1.6275811195373535
v 0.04054715484380722 0.014249826781451702 1.6328974962234497
v 0.027872927486896515 0.015600825659930706 1.6279078722000122
v 0.020986288785934448 0.007358331233263016 1.6424046754837036
v 0.031115688383579254 0.007142549380660057 1.6490180492401123
v 0.011002548038959503 0.002887830138206482 1.6466690301895142
v 0.05207552760839462 0.020453622564673424 1.6356509923934937
v 0.06093656271696091 0.021653471514582634 1.6289316415786743
v 0.06043926626443863 0.02335910126566887 1.6377801895141602
v 0.061872199177742004 0.022372286766767502 1.6192195415496826
v 0.062161386013031006 0.024511415511369705 1.6105921268463135
v 0.05736280977725983 0.05540478602051735 1.5993212461471558
v 0.05884312093257904 0.02644013985991478 1.6455612182617188
v -0.0024043768644332886 0.0010051354765892029 1.6559878587722778
v -0.010285850614309311 -0.0005767401307821274 1.6540037393569946
v -0.011469099670648575 0.0029306653887033463 1.6469452381134033
v -0.004389561712741852 0.0034761950373649597 1.6478155851364136
v -0.04222948104143143 0.031570546329021454 1.6553034782409668
v -0.04067932814359665 0.02453327178955078 1.6540218591690063
v -0.02974214032292366 0.02377845160663128 1.6551064252853394
v 0.030437275767326355 0.012058695778250694 1.6125097274780273
v 0.03517686575651169 0.014521722681820393 1.6012215614318848
v -0.041835904121398926 0.02290286496281624 1.639614224433899
v -0.07224717736244202 0.03361879661679268 1.6422715187072754
v -0.07279758900403976 0.027896372601389885 1.639931321144104
v -0.058659039437770844 0.028371041640639305 1.6495579481124878
v -0.05983120948076248 0.03478960692882538 1.6504374742507935
v -0.04912567511200905 0.03220737352967262 1.6352812051773071
v -0.046340640634298325 0.027338247746229172 1.6362930536270142
v -0.04868185520172119 0.030179230496287346 1.634436845779419
v -0.05077572166919708 0.03575826808810234 1.6321232318878174
v -0.04109979793429375 0.02547721192240715 1.6017647981643677
v -0.03338952362537384 0.021489843726158142 1.6010189056396484
v -0.03845033422112465 0.043164584785699844 1.63326895236969
v -0.038928039371967316 0.04576262831687927 1.648045539855957
v -0.026965223252773285 0.046782348304986954 1.6451959609985352
v -0.016300469636917114 0.02120935544371605 1.6162201166152954
v -0.027207661420106888 0.02068420499563217 1.6139658689498901
v -0.026070982217788696 0.020389582961797714 1.6098837852478027
v -0.03584190085530281 0.021340355277061462 1.6348297595977783
v -0.0433388315141201 0.0249579269438982 1.6352620124816895
v -0.041692666709423065 0.022424213588237762 1.6309183835983276
v -0.03331555426120758 0.021298475563526154 1.6298459768295288
v 0.015957437455654144 0.033871736377477646 1.586844563484192
v 0.016784898936748505 0.022465582937002182 1.5852769613265991
v -0.07964619994163513 0.02868453599512577 1.6244066953659058
v -0.07501191645860672 0.025435425341129303 1.6290323734283447
v -0.004871919751167297 0.02155572921037674 1.617616891860962
v -0.013094816356897354 0.04707072675228119 1.6448848247528076
v 0.006493508815765381 0.020358853042125702 1.618356466293335
v -0.026876583695411682 0.037235893309116364 1.5937827825546265
v -0.029439443722367287 0.032810889184474945 1.590429663658142
v -0.03644353896379471 0.034462276846170425 1.5931377410888672
v -0.033572737127542496 0.038391776382923126 1.5947825908660889
v -0.061996594071388245 0.0389743335545063 1.6267410516738892
v -0.06310023367404938 0.03322383761405945 1.6254957914352417
v -0.0648326650261879 0.03406531736254692 1.62279212474823
v -0.06371046602725983 0.03884314373135567 1.6251691579818726
v -0.046145517379045486 0.023593105375766754 1.6402208805084229
v -0.04641636833548546 0.021894272416830063 1.646532416343689
v -0.05249455198645592 0.02310408651828766 1.6412349939346313
v -0.05057670921087265 0.026374224573373795 1.63694429397583
v -0.04967545345425606 0.024540554732084274 1.6499743461608887
v -0.05568499118089676 0.024073835462331772 1.6461637020111084
v -0.0631113350391388 0.04306258261203766 1.6317272186279297
v -0.06661617755889893 0.043078549206256866 1.6385955810546875
v -0.056125301867723465 0.04442667216062546 1.6420701742172241
v -0.05447928607463837 0.04175001010298729 1.635045051574707
v 0.016738176345825195 0.05246250703930855 1.6105270385742188
v 0.020494043827056885 0.048569753766059875 1.600937008857727
v 0.006597977131605148 0.04518095776438713 1.598271369934082
v -0.006453603506088257 0.04238602891564369 1.5951539278030396
v -0.019072990864515305 0.038306478410959244 1.5931944847106934
v -0.022732943296432495 0.04344804212450981 1.601952075958252
v 0.010542601346969604 0.041979942470788956 1.5921486616134644
v -0.04570873826742172 0.034932199865579605 1.631480097770691
v -0.04552313685417175 0.04211670160293579 1.64091956615448
v -0.04082568362355232 0.038522932678461075 1.630184531211853
v 0.008038576692342758 0.017618464305996895 1.6116842031478882
v -0.07099170982837677 0.02493942901492119 1.636965036392212
v 0.0422850176692009 0.05648062378168106 1.645430326461792
v 0.04262329638004303 0.06026823818683624 1.6328721046447754
v 0.03421510010957718 0.05827707052230835 1.63450026512146
v 0.03346644341945648 0.053547345101833344 1.6480618715286255
v -0.06525573134422302 0.027159331366419792 1.627887487411499
v -0.06806264072656631 0.023940742015838623 1.631941556930542
v -0.03295361250638962 0.02231777273118496 1.5947645902633667
v -0.040309201925992966 0.027058450505137444 1.5966665744781494
v -0.04153398051857948 0.03067755326628685 1.5948103666305542
v -0.03491218388080597 0.02472245693206787 1.5896283388137817
v 0.02371211349964142 0.046013109385967255 1.5968022346496582
v -0.012485861778259277 0.02752849832177162 1.5785231590270996
v -0.015153873711824417 0.03583141416311264 1.5832916498184204
v 0.03274525701999664 0.05154982954263687 1.6037143468856812
v 0.02956172078847885 0.05551673844456673 1.6119695901870728
v 0.03899578005075455 0.05752596631646156 1.6124433279037476
v -0.03323595970869064 0.0428449921309948 1.6120060682296753
v 0.012055084109306335 0.05403163656592369 1.617597222328186
v 0.026107266545295715 0.05647142603993416 1.6186962127685547
v 0.037259139120578766 0.058881454169750214 1.619584083557129
v 0.0452578142285347 0.061109185218811035 1.6194806098937988
v 0.0463959276676178 0.05917517840862274 1.6116735935211182
v -0.06953885406255722 0.038872186094522476 1.6412627696990967
v -0.07000618427991867 0.040985748171806335 1.6360235214233398
v 0.054673537611961365 0.06253664940595627 1.6102336645126343
v 0.05316338688135147 0.06394650042057037 1.619248628616333
v 0.022943034768104553 0.05670135095715523 1.6273455619812012
v 0.019452281296253204 0.055731963366270065 1.637426495552063
v 0.009461339563131332 0.05420518293976784 1.625823736190796
v 0.004888258874416351 0.05312282592058182 1.6357707977294922
v -0.032165512442588806 0.046568579971790314 1.6212131977081299
v -0.08245541155338287 0.05223283916711807 1.6251001358032227
v -0.07323143631219864 0.046663518995046616 1.6300647258758545
v -0.07016101479530334 0.045104019343853 1.6253087520599365
v -0.0785956159234047 0.05272674560546875 1.6230672597885132
v -0.06551428884267807 0.04150870442390442 1.630083441734314
v -0.07640352100133896 0.044103849679231644 1.633751392364502
v 0.001796826720237732 0.0481676384806633 1.6468185186386108
v -0.04869651049375534 0.026823759078979492 1.6312127113342285
v 0.017312847077846527 0.04861099272966385 1.650957703590393
v -0.006787855178117752 0.040625832974910736 1.6564521789550781
v 0.004166401922702789 0.03947921842336655 1.6599773168563843
v 0.03289375454187393 0.047450657933950424 1.6579890251159668
v 0.018353603780269623 0.04098563641309738 1.663941502571106
v 0.05085548758506775 0.051657795906066895 1.6528757810592651
v 0.04186484217643738 0.05006304383277893 1.6544694900512695
v 0.003474961966276169 0.03311292082071304 1.6668716669082642
v -0.07861744612455368 0.03943586349487305 1.6153547763824463
v -0.07518907636404037 0.044317469000816345 1.6169724464416504
v 0.05035232752561569 0.058800362050533295 1.6445105075836182
v 0.0019108355045318604 0.0022960249334573746 1.648006796836853
v 0.018361374735832214 0.01578466221690178 1.6149638891220093
v 0.016866028308868408 0.017944931983947754 1.6197644472122192
v 0.02611987292766571 0.013300890102982521 1.5978490114212036
v 0.021402880549430847 0.012557826936244965 1.6084152460098267
v -0.08310408890247345 0.036623355001211166 1.616557002067566
v -0.052024614065885544 0.03228180855512619 1.6134889125823975
v -0.043126631528139114 0.02985508367419243 1.6120710372924805
v -0.00373835489153862 0.0029098037630319595 1.6645218133926392
v -0.01085202768445015 0.0002528280019760132 1.661693811416626
v -0.01856163516640663 0.009954368695616722 1.6662176847457886
v -0.014995712786912918 0.003744058310985565 1.6662802696228027
v -0.00740036740899086 0.00879940576851368 1.6693388223648071
v -0.010519839823246002 0.01584843546152115 1.6690112352371216
v 0.027672022581100464 0.014796505682170391 1.6220234632492065
v 0.02788481116294861 0.013889907859265804 1.6181788444519043
v 0.027193889021873474 0.034473467618227005 1.59038507938385
v 0.027383744716644287 0.023063262924551964 1.5891779661178589
v -0.051494356244802475 0.029936091974377632 1.6525461673736572
v -0.043533459305763245 0.03843950852751732 1.6543999910354614
v -0.05231127887964249 0.03634801134467125 1.6527942419052124
v -0.05738075450062752 0.04100349545478821 1.6485835313796997
v -0.04917478561401367 0.032615844160318375 1.6322230100631714
v -0.04868745058774948 0.03808744624257088 1.6369671821594238
v 0.036350853741168976 0.010756729170680046 1.6397290229797363
v 0.026048429310321808 0.012857533991336823 1.6342252492904663
v -0.009279966354370117 0.007392939180135727 1.6462175846099854
v -0.01478462666273117 0.008752865716814995 1.64497709274292
v -0.028980962932109833 0.02132134884595871 1.6229807138442993
v -0.042011938989162445 0.04157870262861252 1.6136144399642944
v -0.03809479996562004 0.04478292539715767 1.6207027435302734
v -0.03952867165207863 0.02213331125676632 1.6224008798599243
v -0.0887669175863266 0.0396965891122818 1.621323585510254
v -0.08623981475830078 0.03701239451766014 1.6182169914245605
v -0.049897097051143646 0.042165547609329224 1.649972915649414
v -0.023336995393037796 0.018269915133714676 1.6021766662597656
v -0.03307624161243439 0.03692817687988281 1.608158826828003
v -0.04763839393854141 0.03809502348303795 1.6121995449066162
v -0.011519890278577805 0.019557174295186996 1.5798405408859253
v 0.051256678998470306 0.0622924268245697 1.632447600364685
v -0.07042215764522552 0.04102722555398941 1.621345043182373
v -0.07425933331251144 0.048967570066452026 1.619553565979004
v -0.08551536500453949 0.04971180483698845 1.6264622211456299
v -0.08824016153812408 0.04435978829860687 1.6258175373077393
v 0.036693595349788666 0.02323012799024582 1.594414234161377
v 0.015605650842189789 0.019111521542072296 1.6228355169296265
v -0.009366583079099655 0.025682684034109116 1.666038990020752
v -0.019962690770626068 0.016707364469766617 1.6630651950836182
v -0.04857129231095314 0.02449948713183403 1.6217490434646606
v -0.021955842152237892 0.035498686134815216 1.5886080265045166
v -0.02852488122880459 0.041228946298360825 1.599518895149231
v -0.02997470274567604 0.04135696589946747 1.6013197898864746
v -0.030025210231542587 0.039025112986564636 1.6083531379699707
v -0.03539074584841728 0.035069212317466736 1.6125479936599731
v -0.08776851743459702 0.05251077562570572 1.6211131811141968
v -0.09010354429483414 0.04754257947206497 1.6197665929794312
v -0.08924609422683716 0.043159160763025284 1.615471363067627
v -0.08642175793647766 0.04062260687351227 1.613426923751831
v -0.08248941600322723 0.040059588849544525 1.6130479574203491
v -0.08469600975513458 0.055510297417640686 1.6202113628387451
v -0.08114665746688843 0.05588890612125397 1.6188993453979492
v -0.0760941207408905 0.05187632516026497 1.617777705192566
v -0.08464480936527252 0.05811591446399689 1.6160414218902588
v -0.08899006247520447 0.056608639657497406 1.6135892868041992
v -0.087965227663517 0.04893357306718826 1.602419137954712
v -0.08967266976833344 0.04760690778493881 1.607757329940796
v -0.09023771435022354 0.049816932529211044 1.6066073179244995
v -0.08928904682397842 0.051755838096141815 1.6022287607192993
v -0.08916251361370087 0.05489090830087662 1.5982767343521118
v -0.08761529624462128 0.05185287445783615 1.597727656364441
v -0.09058044105768204 0.05205976963043213 1.6106255054473877
v -0.08958626538515091 0.055300477892160416 1.6049590110778809
v -0.08827202022075653 0.058752115815877914 1.6068702936172485
v -0.08831934630870819 0.06127132475376129 1.6020832061767578
v -0.08972061425447464 0.058343976736068726 1.6002181768417358
v -0.08935016393661499 0.056371234357357025 1.6106194257736206
v -0.09100570529699326 0.051305048167705536 1.6126842498779297
v -0.08731544017791748 0.055670589208602905 1.5954477787017822
v -0.08914059400558472 0.05699904263019562 1.5963757038116455
v -0.08901682496070862 0.0598997063934803 1.5977760553359985
v -0.08700955659151077 0.060519617050886154 1.5957077741622925
v -0.08568491041660309 0.043474067002534866 1.6090545654296875
v -0.08574746549129486 0.04776553064584732 1.6018680334091187
v -0.08452169597148895 0.05185110494494438 1.5977717638015747
v -0.08455830812454224 0.05568578839302063 1.5955265760421753
v -0.08195529878139496 0.04915924370288849 1.6016422510147095
v -0.08190439641475677 0.05276570841670036 1.598596453666687
v -0.08168460428714752 0.05632423609495163 1.596950650215149
v -0.07885079830884933 0.05184772610664368 1.6024283170700073
v -0.07972830533981323 0.05474374070763588 1.5997254848480225
v -0.0785866379737854 0.044945672154426575 1.6115772724151611
v -0.08154283463954926 0.042315974831581116 1.6108981370925903
v -0.07981672137975693 0.0566168837249279 1.598016619682312
v -0.08490721881389618 0.060832567512989044 1.5958049297332764
v -0.08617718517780304 0.060178205370903015 1.6095174551010132
v -0.0855630487203598 0.06254422664642334 1.6030609607696533
v -0.08395134657621384 0.06085240840911865 1.6099563837051392
v -0.08349524438381195 0.06351318210363388 1.6037302017211914
v -0.08619463443756104 0.06383956223726273 1.599035620689392
v -0.08795671910047531 0.06207653135061264 1.5994013547897339
v -0.07820772379636765 0.04229487478733063 1.6141319274902344
v -0.07553330063819885 0.047608453780412674 1.6161773204803467
v -0.07624396681785583 0.05003192275762558 1.6141594648361206
v -0.076963409781456 0.05561697483062744 1.6047086715698242
v -0.07684019207954407 0.05434279888868332 1.615381121635437
v -0.08102129399776459 0.05834512040019035 1.615088701248169
v -0.08120928704738617 0.06107232719659805 1.608875036239624
v -0.07846154272556305 0.0596371665596962 1.6074455976486206
v -0.08111753314733505 0.06265129894018173 1.603867769241333
v -0.079464390873909 0.060825057327747345 1.6032228469848633
v -0.0783819779753685 0.05774480104446411 1.601292610168457
v -0.08140882849693298 0.06258943676948547 1.5998854637145996
v -0.0840522050857544 0.06376578658819199 1.5993831157684326
v -0.08191745728254318 0.06015954166650772 1.5971437692642212
v -0.07999885082244873 0.061457179486751556 1.6005898714065552
v -0.08026818186044693 0.05904456600546837 1.5988537073135376
v -0.07365468144416809 0.05749369412660599 1.6423383951187134
v -0.0747632384300232 0.059858884662389755 1.6367151737213135
v -0.07216186821460724 0.05177895724773407 1.6346509456634521
v -0.07020610570907593 0.050917644053697586 1.639599084854126
v -0.06106878072023392 0.05807739123702049 1.6431547403335571
v -0.06588781625032425 0.056560199707746506 1.6458126306533813
v -0.0622122660279274 0.05384419113397598 1.6433277130126953
v -0.05889517441391945 0.05746693164110184 1.6394206285476685
v -0.059552811086177826 0.060913681983947754 1.6382641792297363
v -0.058709949254989624 0.059395384043455124 1.6344808340072632
v -0.05555184930562973 0.05719059705734253 1.6375073194503784
v -0.058812059462070465 0.05201864615082741 1.6410942077636719
v -0.04770806431770325 0.03926931321620941 1.631305456161499
v -0.04476518929004669 0.04547124728560448 1.6286228895187378
v -0.05808773636817932 0.032033346593379974 1.6191171407699585
v -0.058124590665102005 0.03605455532670021 1.6183338165283203
v -0.07053424417972565 0.056680455803871155 1.6452157497406006
v -0.0666498914361 0.05187160521745682 1.6429543495178223
v -0.0714772641658783 0.051257774233818054 1.6261065006256104
v -0.0721665769815445 0.04781540110707283 1.6301391124725342
v -0.07352780550718307 0.05411212891340256 1.6304197311401367
v -0.07131986320018768 0.05748981237411499 1.6272680759429932
v -0.05232202261686325 0.03169197216629982 1.628958821296692
v -0.0551021546125412 0.03044084459543228 1.6234652996063232
v -0.050532225519418716 0.03506603091955185 1.6308828592300415
v -0.06747516244649887 0.05578293651342392 1.624112606048584
v -0.06205848604440689 0.059460368007421494 1.6248773336410522
v -0.050689615309238434 0.04829169437289238 1.6166682243347168
v -0.05552615970373154 0.04420803114771843 1.6159895658493042
v -0.06316816806793213 0.04850652068853378 1.64180326461792
v -0.07030926644802094 0.045979809015989304 1.6349743604660034
v -0.06771000474691391 0.04620451480150223 1.6391229629516602
v -0.05718785151839256 0.059583865106105804 1.6310244798660278
v -0.06226082891225815 0.06144711375236511 1.6286544799804688
v -0.06368614733219147 0.07531964033842087 1.635874629020691
v -0.06517130881547928 0.06408350169658661 1.6294069290161133
v -0.07001473009586334 0.06420569866895676 1.6301637887954712
v -0.06851237267255783 0.07681611180305481 1.635897159576416
v -0.06651757657527924 0.059968285262584686 1.6264058351516724
v -0.06119488179683685 0.06258801370859146 1.63227117061615
v -0.07399266958236694 0.07301085442304611 1.647477626800537
v -0.07466217875480652 0.07591060549020767 1.6423346996307373
v -0.07119038701057434 0.0712088868021965 1.6503255367279053
v -0.04625158756971359 0.049105167388916016 1.6222381591796875
v -0.06190035492181778 0.0681501105427742 1.6489015817642212
v -0.0676497146487236 0.06918204575777054 1.6511163711547852
v -0.07370655238628387 0.0627514198422432 1.6324818134307861
v -0.07242162525653839 0.07740876078605652 1.638320803642273
v -0.060117997229099274 0.07329658418893814 1.6378087997436523
v -0.05862216278910637 0.06917119026184082 1.6430591344833374
v -0.059849634766578674 0.07761474698781967 1.6403264999389648
v -0.058833710849285126 0.07430508732795715 1.6457717418670654
v -0.06287509202957153 0.07346498966217041 1.6522512435913086
v -0.06858210265636444 0.07448440045118332 1.653477668762207
v -0.07196956872940063 0.07561486214399338 1.6521023511886597
v -0.06320324540138245 0.07986467331647873 1.6381070613861084
v -0.06794994324445724 0.08150069415569305 1.6378581523895264
v -0.07273144274950027 0.08016492426395416 1.6400314569473267
v -0.06361767649650574 0.08576854318380356 1.6399930715560913
v -0.060328736901283264 0.08496632426977158 1.642785668373108
v -0.06601933389902115 0.0951092541217804 1.657340168952942
v -0.06519539654254913 0.0892212763428688 1.6563260555267334
v -0.06313826888799667 0.09008210152387619 1.6548049449920654
v -0.06359139084815979 0.09550495445728302 1.655896782875061
v -0.06253117322921753 0.08341830968856812 1.654691457748413
v -0.06172272935509682 0.08575349301099777 1.6533619165420532
v -0.0600694976747036 0.08525731414556503 1.6490896940231323
v -0.06119966134428978 0.0911501944065094 1.6505306959152222
v -0.061512723565101624 0.09155312925577164 1.645630955696106
v -0.06128140538930893 0.09716424345970154 1.6468963623046875
v -0.06088237836956978 0.09702123701572418 1.6517831087112427
v -0.0602787509560585 0.08726537227630615 1.645735263824463
v -0.06349155306816101 0.09910702705383301 1.6555883884429932
v -0.06568741053342819 0.10054601728916168 1.6559197902679443
v -0.05924605205655098 0.08195450156927109 1.648689866065979
v -0.06785984337329865 0.07970492541790009 1.6550958156585693
v -0.06824733316898346 0.08920533210039139 1.6565274000167847
v -0.06910531967878342 0.09587174654006958 1.6566983461380005
v -0.06808018684387207 0.1014602780342102 1.6542491912841797
v -0.07169842720031738 0.09039751440286636 1.6544218063354492
v -0.07133863866329193 0.09664508700370789 1.654536485671997
v -0.06998807191848755 0.10098069906234741 1.6522748470306396
v -0.0742853507399559 0.09169919788837433 1.6506859064102173
v -0.07307223975658417 0.09762308746576309 1.6508147716522217
v -0.07484780251979828 0.08034013956785202 1.6491771936416626
v -0.07230110466480255 0.07955185323953629 1.6530095338821411
v -0.07154304534196854 0.09990087151527405 1.6507396697998047
v -0.06315802782773972 0.10271376371383667 1.6522941589355469
v -0.06622974574565887 0.10349375009536743 1.6510082483291626
v -0.06201562285423279 0.10116235911846161 1.65243399143219
v -0.06212364882230759 0.09174896776676178 1.6436281204223633
v -0.06267189979553223 0.09797634184360504 1.6453086137771606
v -0.0640692412853241 0.09248778223991394 1.6417900323867798
v -0.06441392004489899 0.09911276400089264 1.6440176963806152
v -0.0627426877617836 0.10210652649402618 1.6475178003311157
v -0.06169062852859497 0.10132026672363281 1.6487221717834473
v -0.0744660496711731 0.07665043324232101 1.6486845016479492
v -0.07469499111175537 0.07846584916114807 1.6435718536376953
v -0.07500841468572617 0.08155636489391327 1.643749713897705
v -0.07387672364711761 0.09262704104185104 1.6456332206726074
v -0.07236137986183167 0.08293469250202179 1.6399139165878296
v -0.06708371639251709 0.08567580580711365 1.639007329940796
v -0.06674467772245407 0.09249605238437653 1.6409116983413696
v -0.07057401537895203 0.09301257133483887 1.6420334577560425
v -0.0663646012544632 0.0992250144481659 1.6429213285446167
v -0.06936806440353394 0.09776459634304047 1.643267035484314
v -0.07262729108333588 0.0978010967373848 1.646815538406372
v -0.06648421287536621 0.10280406475067139 1.6457808017730713
v -0.06422970443964005 0.10281524062156677 1.6467361450195312
v -0.06816761195659637 0.10287009179592133 1.6499073505401611
v -0.0689176470041275 0.10106553137302399 1.645215630531311
v -0.07056528329849243 0.1011030375957489 1.648498773574829
v -0.054428622126579285 0.048139892518520355 1.625433087348938
v -0.056009288877248764 0.05208827182650566 1.6219300031661987
v -0.05794509872794151 0.04664932191371918 1.6172868013381958
v -0.05501542240381241 0.04470091685652733 1.621752381324768
v -0.04231688007712364 0.046015143394470215 1.6218894720077515
v -0.046429939568042755 0.045058973133563995 1.6245077848434448
v -0.04706256836652756 0.04379640892148018 1.6221230030059814
v -0.042681142687797546 0.04541022330522537 1.618592381477356
v -0.040278322994709015 0.05042476952075958 1.6192315816879272
v -0.04058606177568436 0.04955710470676422 1.6151708364486694
v -0.039938852190971375 0.047578733414411545 1.6175984144210815
v -0.04512011259794235 0.04447425156831741 1.6205040216445923
v -0.03631184622645378 0.03730952367186546 1.6148525476455688
v -0.03194241225719452 0.04207790270447731 1.6121429204940796
v -0.05095992609858513 0.04595431685447693 1.6256953477859497
v -0.051185231655836105 0.04397501051425934 1.6233175992965698
v -0.05458294600248337 0.047410376369953156 1.6066757440567017
v -0.05535389855504036 0.04316170513629913 1.6100072860717773
v -0.05691317096352577 0.05072489753365517 1.613208293914795
v -0.05330592393875122 0.054785870015621185 1.611075758934021
v -0.0432131364941597 0.02930157072842121 1.6107300519943237
v -0.0436384379863739 0.029660144820809364 1.6047171354293823
v -0.0410747304558754 0.03307626396417618 1.6142736673355103
v -0.049840573221445084 0.051056377589702606 1.605015754699707
v -0.04323941841721535 0.05271944776177406 1.6068087816238403
v -0.03720469772815704 0.04476050287485123 1.5999782085418701
v -0.04142376407980919 0.04048922285437584 1.5984113216400146
v -0.04867342859506607 0.04248299077153206 1.6220213174819946
v -0.05494698882102966 0.04098519682884216 1.6142189502716064
v -0.05270164832472801 0.040535520762205124 1.6197075843811035
v -0.03965722396969795 0.05103997886180878 1.6129931211471558
v -0.043239668011665344 0.05307033658027649 1.6104614734649658
v -0.041506294161081314 0.06454499810934067 1.6295640468597412
v -0.04755496233701706 0.05891051143407822 1.6142686605453491
v -0.052086539566516876 0.05923311412334442 1.616825819015503
v -0.04451194405555725 0.06602296233177185 1.631489634513855
v -0.048628583550453186 0.05573578178882599 1.6098814010620117
v -0.042605817317962646 0.05542004108428955 1.6152820587158203
v -0.049005188047885895 0.05625973641872406 1.6387383937835693
v -0.05012807622551918 0.06068062037229538 1.6363403797149658
v -0.04703088849782944 0.05302417278289795 1.6371839046478271
v -0.031910672783851624 0.04556283727288246 1.6060452461242676
v -0.04391154274344444 0.034335602074861526 1.5995221138000488
v -0.041300855576992035 0.05254688858985901 1.6338380575180054
v -0.0445132777094841 0.052017904818058014 1.6358896493911743
v -0.05492238327860832 0.056392304599285126 1.6184018850326538
v -0.04806506633758545 0.06480050086975098 1.63384211063385
v -0.03904998302459717 0.06102534383535385 1.6284797191619873
v -0.03804066777229309 0.055510275065898895 1.6299399137496948
v -0.03969230130314827 0.06217774748802185 1.6308197975158691
v -0.03953161835670471 0.05684104561805725 1.6317614316940308
v -0.042123615741729736 0.05351680889725685 1.6359659433364868
v -0.04452471062541008 0.05337273329496384 1.6389802694320679
v -0.04627171531319618 0.0549258217215538 1.6407599449157715
v -0.04016442596912384 0.06551024317741394 1.6324176788330078
v -0.04169289767742157 0.06695366650819778 1.6351807117462158
v -0.046710751950740814 0.06574323773384094 1.6366147994995117
v -0.036580756306648254 0.06512879580259323 1.6355568170547485
v -0.03456326574087143 0.06113891303539276 1.6341731548309326
v -0.0266990065574646 0.05128883570432663 1.6475074291229248
v -0.031994957476854324 0.05204082652926445 1.6445039510726929
v -0.031161881983280182 0.05248153954744339 1.64372718334198
v -0.025609426200389862 0.05150038003921509 1.6460912227630615
v -0.03743673861026764 0.05298382043838501 1.6389858722686768
v -0.03482910990715027 0.053308844566345215 1.639905571937561
v -0.03433519974350929 0.05578530579805374 1.6369229555130005
v -0.027844075113534927 0.054681196808815 1.6400642395019531
v -0.027648702263832092 0.06068200618028641 1.639357089996338
v -0.022795505821704865 0.05929282307624817 1.6415821313858032
v -0.022709429264068604 0.0536385178565979 1.6426266431808472
v -0.03261413797736168 0.059458740055561066 1.6361417770385742
v -0.022407859563827515 0.05191299319267273 1.647019624710083
v -0.022596463561058044 0.05106145888566971 1.6485460996627808
v -0.036622487008571625 0.05654183030128479 1.6347203254699707
v -0.04091710224747658 0.05347669869661331 1.6418428421020508
v -0.03380374237895012 0.05274762213230133 1.646730661392212
v -0.028397947549819946 0.052093133330345154 1.6500457525253296
v -0.02427557110786438 0.05314522609114647 1.6510913372039795
v -0.03525299206376076 0.05561123788356781 1.6488325595855713
v -0.02967921644449234 0.05479888617992401 1.6512773036956787
v -0.025964155793190002 0.055686105042696 1.6521620750427246
v -0.036051053553819656 0.058557868003845215 1.6494505405426025
v -0.030564196407794952 0.057915352284908295 1.6516871452331543
v -0.045915137976408005 0.05871454253792763 1.643402099609375
v -0.04375573620200157 0.055504605174064636 1.6434717178344727
v -0.027129068970680237 0.05766967684030533 1.6521612405776978
v -0.019562222063541412 0.054248321801424026 1.6468980312347412
v -0.020794406533241272 0.05704731494188309 1.6498173475265503
v -0.02042882889509201 0.053870949894189835 1.6454824209213257
v -0.028362873941659927 0.062365658581256866 1.6388847827911377
v -0.02233898639678955 0.06150120496749878 1.6425795555114746
v -0.029639430344104767 0.06436771154403687 1.6399658918380737
v -0.02349022775888443 0.06353159993886948 1.6441116333007812
v -0.019561447203159332 0.058925285935401917 1.6446752548217773
v -0.01996217668056488 0.05790510028600693 1.644002079963684
v -0.04833974689245224 0.05772016942501068 1.640662670135498
v -0.0486791729927063 0.06213965266942978 1.6389381885528564
v -0.045727796852588654 0.06316515058279037 1.6423263549804688
v -0.03484967350959778 0.06255056709051132 1.6486759185791016
v -0.043559588491916656 0.06626586616039276 1.639800786972046
v -0.03729484602808952 0.06657210737466812 1.6381700038909912
v -0.031079821288585663 0.06519784033298492 1.6425225734710693
v -0.03285215422511101 0.06498317420482635 1.6456489562988281
v -0.025361932814121246 0.06413856893777847 1.6459945440292358
v -0.027745991945266724 0.06392991542816162 1.647529125213623
v -0.029624972492456436 0.06157130002975464 1.6510374546051025
v -0.02281869947910309 0.061989329755306244 1.6482380628585815
v -0.020551539957523346 0.06094775348901749 1.6464571952819824
v -0.023176953196525574 0.058805786073207855 1.6512187719345093
v -0.025203965604305267 0.062408365309238434 1.649410367012024
v -0.02562829852104187 0.05998193472623825 1.651545763015747
v -0.04417618364095688 0.031122609972953796 1.6009418964385986
v -0.04738027602434158 0.024440918117761612 1.5697245597839355
v -0.046822093427181244 0.021407458931207657 1.567243218421936
v -0.04256066679954529 0.020529918372631073 1.569011926651001
v -0.043024223297834396 0.02304886281490326 1.5721853971481323
v -0.04271332919597626 0.03377716988325119 1.5665414333343506
v -0.045577529817819595 0.031391970813274384 1.5691769123077393
v -0.041441455483436584 0.031122256070375443 1.5714586973190308
v -0.03828559070825577 0.03348666429519653 1.568835735321045
v -0.04014388471841812 0.033222369849681854 1.562239408493042
v -0.035557717084884644 0.03263663128018379 1.5643192529678345
v -0.03638067841529846 0.03457265347242355 1.5708705186843872
v -0.039283718913793564 0.0316629484295845 1.5736116170883179
v -0.030934147536754608 0.03269277513027191 1.5845773220062256
v -0.02672279067337513 0.03553807735443115 1.5824612379074097
v -0.016607511788606644 0.020370811223983765 1.5782301425933838
v -0.019259687513113022 0.01721842586994171 1.5824447870254517
v -0.025204166769981384 0.01895062066614628 1.5777549743652344
v -0.02199689857661724 0.020751971751451492 1.5749770402908325
v -0.04697593301534653 0.0280303955078125 1.5701955556869507
v -0.04346911609172821 0.02684714086353779 1.5726470947265625
v -0.033010609447956085 0.019596906378865242 1.5652785301208496
v -0.03632519394159317 0.018166765570640564 1.5682127475738525
v -0.04085695371031761 0.01883438602089882 1.5658026933670044
v -0.03845755755901337 0.019702434539794922 1.561780571937561
v -0.02387828752398491 0.018032055348157883 1.5857065916061401
v -0.027588477358222008 0.02030946873128414 1.5885214805603027
v -0.031216183677315712 0.021793154999613762 1.5855470895767212
v -0.02880012057721615 0.01943407580256462 1.5809674263000488
v -0.034248046576976776 0.02657288871705532 1.5868375301361084
v -0.031189555302262306 0.022827226668596268 1.5633177757263184
v -0.03029247745871544 0.02867935784161091 1.5631660223007202
v -0.0182315893471241 0.029272865504026413 1.5736501216888428
v -0.018827363848686218 0.02453858219087124 1.5742322206497192
v -0.04117633029818535 0.027646340429782867 1.5750800371170044
v -0.03936535492539406 0.019456923007965088 1.571040391921997
v -0.040772695094347 0.022789714857935905 1.574194312095642
v -0.032367438077926636 0.033755823969841 1.5666762590408325
v -0.0347999632358551 0.028433408588171005 1.5601286888122559
v -0.04881424456834793 0.025084231048822403 1.5535287857055664
v -0.04044606536626816 0.023655671626329422 1.5573211908340454
v -0.04299534857273102 0.020502902567386627 1.5596809387207031
v -0.05036262795329094 0.022737709805369377 1.5549451112747192
v -0.03561044856905937 0.023174647241830826 1.5600544214248657
v -0.0395868644118309 0.02906864508986473 1.5578954219818115
v -0.05563977360725403 0.02559281326830387 1.5653406381607056
v -0.05404190719127655 0.022186655551195145 1.5620136260986328
v -0.055301155894994736 0.028673455119132996 1.56607985496521
v -0.021913714706897736 0.035426586866378784 1.5774872303009033
v -0.05214078351855278 0.03415573760867119 1.56242036819458
v -0.054705169051885605 0.03183182328939438 1.5650535821914673
v -0.045361679047346115 0.02011769451200962 1.5637511014938354
v -0.05219938978552818 0.02153376117348671 1.5580791234970093
v -0.04809111729264259 0.029369425028562546 1.5539846420288086
v -0.04891165718436241 0.03382888436317444 1.5577750205993652
v -0.05206027999520302 0.030249733477830887 1.5524346828460693
v -0.05319516360759735 0.03406451269984245 1.556488275527954
v -0.057402148842811584 0.03368714079260826 1.5613017082214355
v -0.058390650898218155 0.031085465103387833 1.5636696815490723
v -0.0587407648563385 0.028004175052046776 1.5644521713256836
v -0.05231544375419617 0.02575390785932541 1.551949143409729
v -0.0532761812210083 0.023155031725764275 1.5535281896591187
v -0.054344888776540756 0.02157782018184662 1.5568712949752808
v -0.056177735328674316 0.026310723274946213 1.5501610040664673
v -0.05826305225491524 0.030586231499910355 1.5505633354187012
v -0.07101032137870789 0.029089756309986115 1.5543843507766724
v -0.0678621381521225 0.029758993536233902 1.5566474199295044
v -0.06738290190696716 0.030330855399370193 1.555746078491211
v -0.07086912542581558 0.030040543526411057 1.553841471672058
v -0.0633317083120346 0.03190422058105469 1.558424472808838
v -0.06378289312124252 0.031811751425266266 1.5567935705184937
v -0.060996003448963165 0.03237026184797287 1.554635763168335
v -0.06533194333314896 0.031624794006347656 1.5521799325942993
v -0.06321507692337036 0.02900638058781624 1.548060655593872
v -0.06689627468585968 0.028773188591003418 1.5465924739837646
v -0.06838096678256989 0.03140048682689667 1.5502369403839111
v -0.06021066755056381 0.031083468347787857 1.5507466793060303
v -0.07251517474651337 0.030391909182071686 1.551788091659546
v -0.07371644675731659 0.0297229066491127 1.5517947673797607
v -0.05933818221092224 0.03343141824007034 1.5553408861160278
v -0.06325912475585938 0.029388954862952232 1.561602234840393
v -0.06902730464935303 0.02787047065794468 1.5577538013458252
v -0.07273232936859131 0.027582217007875443 1.5545400381088257
v -0.07424294948577881 0.027632499113678932 1.5511919260025024
v -0.06802491843700409 0.025592152029275894 1.558445930480957
v -0.0726991519331932 0.025279639288783073 1.554727554321289
v -0.07402463257312775 0.025283444672822952 1.5514479875564575
v -0.06650698930025101 0.022687137126922607 1.5579200983047485
v -0.07108907401561737 0.023176487535238266 1.5542694330215454
v -0.06050148978829384 0.023277491331100464 1.561800479888916
v -0.06229179725050926 0.026360660791397095 1.5623530149459839
v -0.07267309725284576 0.024092551320791245 1.5517191886901855
v -0.07257010787725449 0.029939543455839157 1.5480995178222656
v -0.07327623665332794 0.027084525674581528 1.548093557357788
v -0.07134677469730377 0.0308588445186615 1.5483264923095703
v -0.06246296316385269 0.027996502816677094 1.5474960803985596
v -0.06700113415718079 0.02744244784116745 1.545675277709961
v -0.06180597469210625 0.025535793974995613 1.547417163848877
v -0.06723109632730484 0.025279056280851364 1.5458040237426758
v -0.0703858807682991 0.028210237622261047 1.5457426309585571
v -0.06952153146266937 0.02953193336725235 1.5466630458831787
v -0.05843827500939369 0.02429141476750374 1.5634101629257202
v -0.056149035692214966 0.022221866995096207 1.5608785152435303
v -0.058140553534030914 0.021419541910290718 1.5590754747390747
v -0.06429096311330795 0.02078811079263687 1.5554561614990234
v -0.05624353885650635 0.0213526152074337 1.5550248622894287
v -0.05568768084049225 0.02353374846279621 1.551802635192871
v -0.06187122315168381 0.02318781614303589 1.5487955808639526
v -0.06268474459648132 0.02117760479450226 1.551360845565796
v -0.06779330223798752 0.023460259661078453 1.5468956232070923
v -0.06813015043735504 0.021726422011852264 1.549361228942871
v -0.06930239498615265 0.021458134055137634 1.5522863864898682
v -0.07136203348636627 0.024626504629850388 1.5473545789718628
v -0.07126510143280029 0.026129961013793945 1.546198844909668
v -0.0729428231716156 0.025142852216959 1.5488393306732178
v -0.07110172510147095 0.023269452154636383 1.5487562417984009
v -0.07188326865434647 0.02342325635254383 1.550125241279602
v -0.01679198071360588 0.02377452328801155 1.5762405395507812
v -0.0328839048743248 0.00788828544318676 1.6537836790084839
v -0.030702339485287666 0.008899489417672157 1.6486834287643433
v -0.021588435396552086 -0.00449339859187603 1.6452910900115967
v -0.024822352454066277 0.0016783364117145538 1.6425155401229858
v -0.021941479295492172 -0.008390476927161217 1.6512317657470703
v -0.0267888605594635 -0.006536608561873436 1.6605802774429321
v -0.023118488490581512 -0.008135160431265831 1.6569404602050781
v -0.02770392969250679 0.0063399020582437515 1.6442172527313232
v -0.03272944688796997 0.0047532543540000916 1.6585183143615723
v -0.03029767982661724 -0.0013148747384548187 1.6619919538497925
v -0.043192554265260696 -0.00186874158680439 1.6542102098464966
v -0.03917815163731575 -0.008447548374533653 1.6568326950073242
v -0.034209758043289185 -0.013651272282004356 1.6538498401641846
v -0.02875303477048874 -0.01271534152328968 1.6503931283950806
v -0.026057371869683266 -0.011601278558373451 1.6467021703720093
v -0.03978361561894417 0.004094937816262245 1.6498842239379883
v -0.036672286689281464 0.006001299247145653 1.645421028137207
v -0.03158959001302719 0.003946162760257721 1.6417604684829712
v -0.044306498020887375 0.0013571176677942276 1.6435117721557617
v -0.04562016576528549 -0.005704117938876152 1.6373190879821777
v -0.03659052401781082 -0.017478255555033684 1.6249829530715942
v -0.034508250653743744 -0.01659940369427204 1.6311006546020508
v -0.03721080720424652 -0.01613066904246807 1.6314566135406494
v -0.038954805582761765 -0.01739553175866604 1.6259526014328003
v -0.03585347533226013 -0.016239089891314507 1.6365691423416138
v -0.0376247838139534 -0.01514519564807415 1.6355891227722168
v -0.04138697311282158 -0.01143568567931652 1.6375733613967896
v -0.04267723858356476 -0.012813663110136986 1.6320304870605469
v -0.04403088614344597 -0.0075362976640462875 1.635986328125
v -0.04467538744211197 -0.007023004814982414 1.6317658424377441
v -0.043845146894454956 -0.01367909274995327 1.6266798973083496
v -0.041539061814546585 -0.01731218956410885 1.6231989860534668
v -0.04449997469782829 -0.014365045353770256 1.6223132610321045
v -0.039614588022232056 -0.016838720068335533 1.6211639642715454
v -0.044480450451374054 -0.013158885762095451 1.6396284103393555
v -0.030749734491109848 -0.01548079214990139 1.6405125856399536
v -0.03115895576775074 -0.015646325424313545 1.6315150260925293
v -0.03376888483762741 -0.01567460410296917 1.6242564916610718
v -0.037643205374479294 -0.014864152297377586 1.6199963092803955
v -0.028596993535757065 -0.012633925303816795 1.6308256387710571
v -0.03166530281305313 -0.012085402384400368 1.6244158744812012
v -0.03575173392891884 -0.01080256886780262 1.6206860542297363
v -0.028358018025755882 -0.008045392110943794 1.6301329135894775
v -0.031926609575748444 -0.008390622213482857 1.6247336864471436
v -0.025509249418973923 -0.0062821973115205765 1.6402745246887207
v -0.026470379903912544 -0.011773115023970604 1.6414856910705566
v -0.03508108854293823 -0.008657926693558693 1.6220449209213257
v -0.044446609914302826 -0.013888655230402946 1.620038390159607
v -0.04240626096725464 -0.011568533256649971 1.6189287900924683
v -0.045259736478328705 -0.003941593691706657 1.6320908069610596
v -0.04648180305957794 -0.008173836395144463 1.6270495653152466
v -0.04604365676641464 -0.0056718941777944565 1.6263912916183472
v -0.04390363395214081 -0.0004285033792257309 1.6326502561569214
v -0.04480906203389168 -0.0032021421939134598 1.6257624626159668
v -0.04634767770767212 -0.008914215490221977 1.6221743822097778
v -0.046338438987731934 -0.010731702670454979 1.6238597631454468
v -0.02444104105234146 -0.0069213006645441055 1.6428934335708618
v -0.0267365500330925 -0.0008573867380619049 1.6411147117614746
v -0.028576642274856567 -0.00010451488196849823 1.6397309303283691
v -0.031011193990707397 -0.002318168058991432 1.6306633949279785
v -0.034045230597257614 0.004253091290593147 1.6395090818405151
v -0.040292251855134964 0.004293302074074745 1.641811728477478
v -0.0410328283905983 0.0018214229494333267 1.631821870803833
v -0.03606122359633446 0.0014833714812994003 1.6313822269439697
v -0.04170204699039459 -0.0018198098987340927 1.6253020763397217
v -0.03874196112155914 -0.002091536298394203 1.6253323554992676
v -0.034394271671772 -0.004636475816369057 1.624533772468567
v -0.04181010648608208 -0.005299480631947517 1.6215804815292358
v -0.04466758668422699 -0.006563303992152214 1.6214501857757568
v -0.03956428915262222 -0.008519953116774559 1.6198827028274536
v -0.039489828050136566 -0.004589525982737541 1.6227971315383911
v -0.03748071566224098 -0.0067141372710466385 1.6218485832214355
v -0.013750176876783371 0.015681706368923187 1.5845907926559448
v -0.017629209905862808 0.015449387021362782 1.589746356010437
v -0.010425489395856857 0.01433970220386982 1.590213656425476
v -0.0006665438413619995 0.013701708987355232 1.592186689376831
v 0.009635768830776215 0.015415781177580357 1.589030146598816
v -0.002635132521390915 0.014766966924071312 1.5985181331634521
v -0.012577924877405167 0.015436041168868542 1.5959532260894775
v -0.023236289620399475 0.01792295277118683 1.5944491624832153
v 0.0037499740719795227 0.01663726195693016 1.6065618991851807
f 2 3 1
f 1 3 4
f 5 6 8
f 8 6 7
f 9 4 10
f 10 4 3
f 12 13 11
f 11 13 9
f 14 12 16
f 16 12 15
f 18 19 17
f 17 19 20
f 22 23 21
f 21 23 24
f 26 27 25
f 25 27 28
f 30 31 29
f 29 31 32
f 33 34 36
f 36 34 35
f 37 38 40
f 40 38 39
f 41 42 6
f 6 42 43
f 6 43 7
f 7 43 44
f 45 34 46
f 46 34 33
f 48 49 47
f 47 49 50
f 52 53 51
f 51 53 54
f 56 52 55
f 55 52 51
f 58 59 57
f 57 59 60
f 61 62 4
f 4 62 1
f 64 65 63
f 63 65 66
f 68 69 67
f 67 69 70
f 72 73 71
f 71 73 74
f 76 77 75
f 75 77 78
f 53 79 54
f 54 79 80
f 82 83 81
f 81 83 84
f 85 86 52
f 52 86 53
f 57 60 87
f 87 60 88
f 89 90 43
f 43 90 44
f 43 42 89
f 89 42 91
f 40 39 92
f 92 39 93
f 94 70 64
f 64 70 69
f 13 61 9
f 9 61 4
f 25 28 69
f 69 28 95
f 96 25 68
f 68 25 69
f 98 99 97
f 97 99 100
f 101 102 104
f 104 102 103
f 106 30 105
f 105 30 29
f 51 54 107
f 107 54 108
f 54 80 108
f 108 80 109
f 111 112 110
f 110 112 113
f 115 5 114
f 114 5 116
f 115 41 5
f 5 41 6
f 36 35 111
f 111 35 117
f 35 118 117
f 117 118 119
f 34 120 35
f 35 120 118
f 34 45 120
f 120 45 121
f 125 126 124
f 124 126 127
f 128 129 14
f 14 129 130
f 33 131 46
f 46 131 132
f 133 94 63
f 63 94 64
f 134 135 137
f 137 135 136
f 139 140 138
f 138 140 141
f 77 142 78
f 78 142 143
f 144 145 20
f 20 145 146
f 148 149 147
f 147 149 72
f 151 152 150
f 150 152 153
f 82 101 83
f 83 101 104
f 101 82 155
f 155 82 154
f 156 157 58
f 58 157 59
f 158 68 147
f 147 68 67
f 159 146 15
f 15 146 16
f 68 158 96
f 96 158 160
f 129 66 130
f 130 66 65
f 162 163 161
f 161 163 164
f 166 167 165
f 165 167 168
f 170 171 169
f 169 171 172
f 174 171 173
f 173 171 170
f 176 177 175
f 175 177 178
f 180 181 179
f 179 181 24
f 182 183 21
f 21 183 184
f 81 185 82
f 82 185 154
f 186 187 188
f 188 187 144
f 158 71 160
f 160 71 189
f 190 135 157
f 157 135 59
f 169 172 139
f 139 172 140
f 147 72 158
f 158 72 71
f 192 193 191
f 191 193 194
f 167 166 49
f 49 166 195
f 196 190 50
f 50 190 157
f 197 198 200
f 200 198 199
f 21 24 182
f 182 24 181
f 146 159 20
f 20 159 17
f 182 181 81
f 81 181 185
f 201 185 180
f 180 185 181
f 202 203 83
f 83 203 84
f 205 206 204
f 204 206 85
f 207 22 184
f 184 22 21
f 179 24 208
f 208 24 23
f 208 209 179
f 179 209 205
f 209 210 205
f 205 210 206
f 212 206 211
f 211 206 210
f 179 205 180
f 180 205 204
f 213 176 88
f 88 176 214
f 86 85 212
f 212 85 206
f 193 217 218
f 217 219 218
f 218 219 220
f 219 18 220
f 220 18 17
f 19 221 20
f 20 221 144
f 222 223 225
f 225 223 224
f 175 226 176
f 176 226 214
f 227 87 214
f 214 87 88
f 220 17 228
f 228 17 159
f 134 213 60
f 60 213 88
f 138 229 151
f 151 229 152
f 193 192 210
f 210 192 211
f 230 194 218
f 218 194 193
f 231 232 228
f 228 232 230
f 233 234 91
f 91 234 89
f 235 236 93
f 93 236 92
f 230 232 234
f 234 232 237
f 47 238 48
f 48 238 239
f 240 191 235
f 235 191 236
f 5 8 116
f 116 8 241
f 242 243 189
f 189 243 160
f 244 245 98
f 98 245 99
f 156 246 47
f 47 246 238
f 76 247 77
f 77 247 248
f 250 125 249
f 249 125 124
f 252 253 251
f 251 253 254
f 111 110 36
f 36 110 255
f 256 33 255
f 255 33 36
f 257 258 154
f 154 258 155
f 63 169 133
f 133 169 139
f 66 170 63
f 63 170 169
f 173 170 129
f 129 170 66
f 129 128 173
f 173 128 259
f 128 260 259
f 259 260 261
f 213 134 262
f 262 134 137
f 263 264 186
f 186 264 187
f 112 265 113
f 113 265 266
f 11 267 268
f 234 233 230
f 230 233 194
f 153 269 70
f 70 269 67
f 175 178 165
f 165 178 141
f 150 153 94
f 94 153 70
f 271 221 270
f 270 221 207
f 269 153 272
f 272 153 152
f 121 45 109
f 109 45 108
f 47 50 156
f 156 50 157
f 57 273 58
f 58 273 274
f 145 275 260
f 260 275 261
f 276 149 143
f 143 149 78
f 148 269 75
f 75 269 272
f 207 277 270
f 270 277 278
f 195 196 49
f 49 196 50
f 59 135 60
f 60 135 134
f 83 104 202
f 202 104 279
f 149 148 78
f 78 148 75
f 247 278 248
f 248 278 277
f 183 182 84
f 84 182 81
f 48 239 281
f 281 239 282
f 227 223 283
f 283 223 222
f 223 226 224
f 224 226 168
f 281 282 224
f 224 282 225
f 165 168 175
f 175 168 226
f 264 263 138
f 138 263 229
f 14 16 128
f 128 16 260
f 220 228 218
f 218 228 230
f 87 227 284
f 284 227 283
f 260 16 145
f 145 16 146
f 244 98 258
f 258 98 155
f 58 274 156
f 156 274 246
f 107 285 51
f 51 285 55
f 243 286 160
f 160 286 96
f 234 237 89
f 89 237 90
f 46 132 107
f 107 132 285
f 253 252 249
f 249 252 250
f 286 26 96
f 96 26 25
f 106 105 287
f 287 105 288
f 272 152 289
f 289 152 229
f 138 151 139
f 139 151 133
f 183 290 161
f 161 290 162
f 291 292 277
f 277 292 293
f 151 150 133
f 133 150 94
f 262 275 177
f 177 275 187
f 144 187 145
f 145 187 275
f 273 57 284
f 284 57 87
f 174 136 190
f 190 136 135
f 111 117 112
f 112 117 38
f 117 119 38
f 38 119 123
f 112 38 265
f 265 38 37
f 287 288 254
f 254 288 251
f 228 159 231
f 231 159 15
f 223 227 226
f 226 227 214
f 147 67 148
f 148 67 269
f 224 168 281
f 281 168 167
f 199 163 200
f 200 163 162
f 45 46 108
f 108 46 107
f 281 167 48
f 48 167 49
f 161 164 291
f 291 164 292
f 38 123 39
f 293 294 277
f 277 294 248
f 284 283 296
f 296 283 295
f 284 296 273
f 273 296 297
f 274 273 298
f 298 273 297
f 246 274 299
f 299 274 298
f 283 222 295
f 295 222 300
f 222 225 300
f 300 225 301
f 301 225 302
f 302 225 282
f 303 304 300
f 300 304 295
f 306 307 305
f 305 307 308
f 309 310 308
f 308 310 305
f 308 307 312
f 312 307 311
f 313 314 312
f 312 314 315
f 311 316 312
f 312 316 313
f 317 304 311
f 311 304 316
f 315 309 312
f 312 309 308
f 318 319 321
f 321 319 320
f 319 318 309
f 309 318 310
f 311 307 317
f 317 307 306
f 306 297 317
f 317 297 296
f 306 322 297
f 297 322 298
f 305 323 306
f 306 323 322
f 323 305 324
f 324 305 310
f 304 317 295
f 295 317 296
f 318 325 310
f 310 325 324
f 323 324 326
f 326 324 327
f 324 325 327
f 327 325 328
f 326 327 329
f 329 327 330
f 329 331 326
f 326 331 332
f 333 330 328
f 328 330 327
f 323 326 322
f 322 326 332
f 322 332 298
f 298 332 299
f 325 318 334
f 334 318 321
f 313 316 335
f 335 316 304
f 335 336 313
f 313 336 314
f 304 303 335
f 335 303 337
f 336 335 338
f 338 335 337
f 336 339 314
f 314 339 340
f 246 299 238
f 238 299 341
f 239 342 282
f 282 342 302
f 342 239 341
f 341 239 238
f 341 331 342
f 342 331 343
f 331 329 343
f 343 329 344
f 342 343 302
f 302 343 345
f 341 299 331
f 331 299 332
f 346 301 345
f 345 301 302
f 346 303 301
f 301 303 300
f 347 337 346
f 346 337 303
f 347 346 348
f 348 346 345
f 349 347 350
f 350 347 348
f 343 344 345
f 345 344 348
f 344 351 348
f 348 351 350
f 337 347 338
f 338 347 349
f 353 338 352
f 352 338 349
f 352 355 354
f 354 355 356
f 352 349 355
f 355 349 350
f 352 354 353
f 353 354 334
f 353 334 339
f 339 334 321
f 339 336 353
f 353 336 338
f 329 330 344
f 344 330 351
f 356 351 333
f 333 351 330
f 356 355 351
f 351 355 350
f 354 356 328
f 328 356 333
f 328 325 354
f 354 325 334
f 309 315 319
f 319 315 320
f 320 340 321
f 321 340 339
f 320 315 340
f 340 315 314
f 137 136 261
f 261 136 259
f 140 166 141
f 141 166 165
f 172 171 195
f 195 171 196
f 171 174 196
f 196 174 190
f 178 177 264
f 264 177 187
f 172 195 140
f 140 195 166
f 137 261 262
f 262 261 275
f 178 264 141
f 141 264 138
f 262 177 213
f 213 177 176
f 136 174 259
f 259 174 173
f 358 359 357
f 357 359 360
f 362 363 361
f 361 363 364
f 361 364 365
f 365 364 366
f 367 368 370
f 370 368 369
f 76 371 247
f 247 371 372
f 373 374 362
f 362 374 363
f 376 377 375
f 375 377 378
f 289 229 380
f 380 229 379
f 381 379 263
f 263 379 229
f 383 384 382
f 382 384 385
f 386 368 374
f 374 368 363
f 76 289 371
f 371 289 380
f 377 376 359
f 359 376 387
f 388 386 360
f 360 386 374
f 389 383 366
f 366 383 390
f 392 393 391
f 391 393 394
f 383 382 390
f 390 382 395
f 396 365 390
f 390 365 366
f 389 366 367
f 367 366 364
f 357 397 358
f 358 397 398
f 373 399 357
f 357 399 397
f 389 367 400
f 400 367 370
f 382 385 375
f 375 385 372
f 357 360 373
f 373 360 374
f 361 401 362
f 362 401 402
f 387 388 359
f 359 388 360
f 363 368 364
f 364 368 367
f 358 398 403
f 403 398 404
f 396 392 405
f 405 392 391
f 392 395 393
f 393 395 378
f 393 403 394
f 394 403 404
f 375 378 382
f 382 378 395
f 365 396 406
f 406 396 405
f 362 402 373
f 373 402 399
f 271 270 400
f 400 270 384
f 401 361 406
f 406 361 365
f 381 369 386
f 386 369 368
f 392 396 395
f 395 396 390
f 393 378 403
f 403 378 377
f 403 377 358
f 358 377 359
f 406 405 408
f 408 405 407
f 406 408 401
f 401 408 409
f 401 409 402
f 402 409 410
f 402 410 399
f 399 410 411
f 405 391 407
f 407 391 412
f 391 394 412
f 412 394 413
f 394 404 413
f 413 404 414
f 415 416 412
f 412 416 407
f 418 419 417
f 417 419 420
f 421 422 418
f 418 422 419
f 419 422 424
f 424 422 423
f 425 426 424
f 424 426 427
f 423 428 424
f 424 428 425
f 427 420 424
f 424 420 419
f 420 429 417
f 417 429 430
f 423 422 431
f 431 422 421
f 421 409 431
f 431 409 408
f 421 432 409
f 409 432 410
f 418 433 421
f 421 433 432
f 434 433 417
f 417 433 418
f 431 416 423
f 423 416 428
f 416 431 407
f 407 431 408
f 435 434 430
f 430 434 417
f 433 434 436
f 436 434 437
f 434 435 437
f 437 435 438
f 436 437 439
f 439 437 440
f 439 441 436
f 436 441 442
f 438 443 437
f 437 443 440
f 436 442 433
f 433 442 432
f 432 442 410
f 410 442 411
f 435 430 445
f 445 430 444
f 430 429 444
f 444 429 446
f 425 428 447
f 447 428 416
f 426 425 448
f 448 425 447
f 416 415 447
f 447 415 449
f 447 449 448
f 448 449 450
f 451 452 448
f 448 452 426
f 446 452 444
f 444 452 451
f 399 411 397
f 397 411 453
f 398 454 404
f 404 454 414
f 454 398 453
f 453 398 397
f 453 441 454
f 454 441 455
f 441 439 455
f 455 439 456
f 454 455 414
f 414 455 457
f 441 453 442
f 442 453 411
f 458 413 457
f 457 413 414
f 458 415 413
f 413 415 412
f 458 459 415
f 415 459 449
f 459 458 460
f 460 458 457
f 461 459 462
f 462 459 460
f 455 456 457
f 457 456 460
f 456 463 460
f 460 463 462
f 459 461 449
f 449 461 450
f 465 450 464
f 464 450 461
f 464 467 466
f 466 467 468
f 464 461 467
f 467 461 462
f 464 466 465
f 465 466 445
f 465 445 451
f 451 445 444
f 451 448 465
f 465 448 450
f 439 440 456
f 456 440 463
f 468 463 443
f 443 463 440
f 468 467 463
f 463 467 462
f 466 468 438
f 438 468 443
f 438 435 466
f 466 435 445
f 420 427 429
f 429 427 446
f 446 427 452
f 452 427 426
f 370 369 188
f 188 369 186
f 371 376 372
f 372 376 375
f 380 379 387
f 387 379 388
f 379 381 388
f 388 381 386
f 385 384 278
f 278 384 270
f 380 387 371
f 371 387 376
f 400 370 271
f 271 370 188
f 385 278 372
f 372 278 247
f 400 384 389
f 389 384 383
f 369 381 186
f 186 381 263
f 221 271 144
f 144 271 188
f 221 19 207
f 207 19 22
f 19 18 22
f 22 18 23
f 18 219 23
f 23 219 208
f 469 470 472
f 472 470 471
f 474 475 473
f 473 475 476
f 473 476 477
f 477 476 478
f 480 481 479
f 479 481 482
f 483 484 474
f 474 484 475
f 486 487 485
f 485 487 488
f 489 490 77
f 77 490 142
f 491 489 248
f 248 489 77
f 493 494 492
f 492 494 495
f 496 480 484
f 484 480 475
f 486 497 487
f 487 497 471
f 498 496 472
f 472 496 484
f 499 493 478
f 478 493 500
f 501 502 504
f 504 502 503
f 493 492 500
f 500 492 505
f 506 477 500
f 500 477 478
f 499 478 479
f 479 478 476
f 469 507 470
f 470 507 508
f 483 509 469
f 469 509 507
f 479 482 499
f 499 482 510
f 492 495 485
f 485 495 511
f 483 469 484
f 484 469 472
f 473 512 474
f 474 512 513
f 497 498 471
f 471 498 472
f 475 480 476
f 476 480 479
f 470 508 514
f 514 508 515
f 506 502 516
f 516 502 501
f 503 502 488
f 488 502 505
f 514 515 503
f 503 515 504
f 485 488 492
f 492 488 505
f 477 506 517
f 517 506 516
f 474 513 483
f 483 513 509
f 510 292 494
f 494 292 164
f 512 473 517
f 517 473 477
f 491 481 496
f 496 481 480
f 502 506 505
f 505 506 500
f 503 488 514
f 514 488 487
f 514 487 470
f 470 487 471
f 517 516 519
f 519 516 518
f 517 519 512
f 512 519 520
f 512 520 513
f 513 520 521
f 513 521 509
f 509 521 522
f 516 501 518
f 518 501 523
f 501 504 523
f 523 504 524
f 524 504 525
f 525 504 515
f 526 527 523
f 523 527 518
f 529 530 528
f 528 530 531
f 532 533 529
f 529 533 530
f 530 533 535
f 535 533 534
f 536 537 535
f 535 537 538
f 534 539 535
f 535 539 536
f 538 531 535
f 535 531 530
f 540 541 531
f 531 541 528
f 533 532 534
f 534 532 542
f 532 520 542
f 542 520 519
f 532 543 520
f 520 543 521
f 529 544 532
f 532 544 543
f 544 529 545
f 545 529 528
f 534 542 539
f 539 542 527
f 527 542 518
f 518 542 519
f 541 546 528
f 528 546 545
f 547 544 548
f 548 544 545
f 546 549 545
f 545 549 548
f 550 547 551
f 551 547 548
f 547 550 553
f 553 550 552
f 549 554 548
f 548 554 551
f 544 547 543
f 543 547 553
f 543 553 521
f 521 553 522
f 546 541 556
f 556 541 555
f 541 540 555
f 555 540 557
f 536 539 558
f 558 539 527
f 537 536 559
f 559 536 558
f 527 526 558
f 558 526 560
f 559 558 561
f 561 558 560
f 559 562 537
f 537 562 563
f 557 563 555
f 555 563 562
f 509 522 507
f 507 522 564
f 508 565 515
f 515 565 525
f 565 508 564
f 564 508 507
f 564 552 565
f 565 552 566
f 552 550 566
f 566 550 567
f 565 566 525
f 525 566 568
f 564 522 552
f 552 522 553
f 569 524 568
f 568 524 525
f 569 526 524
f 524 526 523
f 570 560 569
f 569 560 526
f 570 569 571
f 571 569 568
f 572 570 573
f 573 570 571
f 566 567 568
f 568 567 571
f 567 574 571
f 571 574 573
f 570 572 560
f 560 572 561
f 576 561 575
f 575 561 572
f 575 578 577
f 577 578 579
f 575 572 578
f 578 572 573
f 575 577 576
f 576 577 556
f 576 556 562
f 562 556 555
f 562 559 576
f 576 559 561
f 550 551 567
f 567 551 574
f 579 574 554
f 554 574 551
f 579 578 574
f 574 578 573
f 579 554 577
f 577 554 549
f 549 546 577
f 577 546 556
f 531 538 540
f 540 538 557
f 557 538 563
f 563 538 537
f 481 294 482
f 482 294 293
f 580 486 511
f 511 486 485
f 490 489 497
f 497 489 498
f 489 491 498
f 498 491 496
f 163 495 164
f 164 495 494
f 580 490 486
f 486 490 497
f 482 293 510
f 510 293 292
f 495 163 511
f 511 163 199
f 494 493 510
f 510 493 499
f 481 491 294
f 294 491 248
f 582 583 581
f 581 583 584
f 586 587 585
f 585 587 588
f 585 588 589
f 589 588 590
f 592 593 591
f 591 593 594
f 595 596 598
f 598 596 597
f 599 600 586
f 586 600 587
f 601 602 604
f 604 602 603
f 605 606 608
f 608 606 607
f 609 607 200
f 200 607 606
f 610 611 613
f 613 611 612
f 600 614 587
f 587 614 592
f 596 605 597
f 597 605 608
f 602 615 603
f 603 615 583
f 616 614 584
f 584 614 600
f 611 618 617
f 617 618 590
f 620 621 619
f 619 621 622
f 610 623 611
f 611 623 618
f 624 589 618
f 618 589 590
f 617 590 591
f 591 590 588
f 581 625 582
f 582 625 626
f 599 627 581
f 581 627 625
f 591 594 617
f 617 594 628
f 601 610 598
f 598 610 613
f 581 584 599
f 599 584 600
f 585 629 586
f 586 629 630
f 615 616 583
f 583 616 584
f 587 592 588
f 588 592 591
f 582 626 631
f 631 626 632
f 624 620 633
f 633 620 619
f 621 620 604
f 604 620 623
f 631 632 621
f 621 632 622
f 610 601 623
f 623 601 604
f 589 624 634
f 634 624 633
f 586 630 599
f 599 630 627
f 203 202 628
f 628 202 612
f 629 585 634
f 634 585 589
f 609 593 614
f 614 593 592
f 620 624 623
f 623 624 618
f 631 621 603
f 603 621 604
f 582 631 583
f 583 631 603
f 634 633 636
f 636 633 635
f 634 636 629
f 629 636 637
f 629 637 630
f 630 637 638
f 630 638 627
f 627 638 639
f 633 619 635
f 635 619 640
f 619 622 640
f 640 622 641
f 641 622 642
f 642 622 632
f 644 635 643
f 643 635 640
f 645 646 648
f 648 646 647
f 649 650 646
f 646 650 647
f 647 650 652
f 652 650 651
f 652 653 655
f 655 653 654
f 651 656 652
f 652 656 653
f 655 648 652
f 652 648 647
f 648 657 645
f 645 657 658
f 650 649 651
f 651 649 659
f 649 637 659
f 659 637 636
f 649 660 637
f 637 660 638
f 661 660 646
f 646 660 649
f 662 661 645
f 645 661 646
f 651 659 656
f 656 659 644
f 644 659 635
f 635 659 636
f 663 662 658
f 658 662 645
f 664 661 665
f 665 661 662
f 663 666 662
f 662 666 665
f 667 664 668
f 668 664 665
f 664 667 670
f 670 667 669
f 666 671 665
f 665 671 668
f 661 664 660
f 660 664 670
f 660 670 638
f 638 670 639
f 658 672 663
f 663 672 673
f 658 657 672
f 672 657 674
f 653 656 675
f 675 656 644
f 653 675 654
f 654 675 676
f 675 644 677
f 677 644 643
f 676 675 678
f 678 675 677
f 679 680 676
f 676 680 654
f 674 680 672
f 672 680 679
f 627 639 625
f 625 639 681
f 626 682 632
f 632 682 642
f 681 682 625
f 625 682 626
f 669 683 681
f 681 683 682
f 667 684 669
f 669 684 683
f 682 683 642
f 642 683 685
f 681 639 669
f 669 639 670
f 686 641 685
f 685 641 642
f 641 686 640
f 640 686 643
f 686 687 643
f 643 687 677
f 687 686 688
f 688 686 685
f 689 687 690
f 690 687 688
f 683 684 685
f 685 684 688
f 684 691 688
f 688 691 690
f 687 689 677
f 677 689 678
f 693 678 692
f 692 678 689
f 692 695 694
f 694 695 696
f 692 689 695
f 695 689 690
f 692 694 693
f 693 694 673
f 693 673 679
f 679 673 672
f 679 676 693
f 693 676 678
f 684 667 691
f 691 667 668
f 696 691 671
f 671 691 668
f 696 695 691
f 691 695 690
f 694 696 666
f 666 696 671
f 666 663 694
f 694 663 673
f 648 655 657
f 657 655 674
f 674 655 680
f 680 655 654
f 593 162 594
f 594 162 290
f 598 597 601
f 601 597 602
f 615 608 616
f 616 608 607
f 607 609 616
f 616 609 614
f 697 595 613
f 613 595 598
f 597 608 602
f 602 608 615
f 594 290 628
f 628 290 203
f 628 612 617
f 617 612 611
f 593 609 162
f 162 609 200
f 105 29 698
f 698 29 699
f 268 126 701
f 701 126 700
f 126 125 700
f 700 125 702
f 252 703 250
f 250 703 704
f 32 268 705
f 705 268 701
f 288 105 706
f 706 105 698
f 29 32 699
f 699 32 705
f 707 251 706
f 706 251 288
f 250 704 125
f 125 704 702
f 703 252 707
f 707 252 251
f 706 708 707
f 707 708 709
f 707 709 703
f 703 709 710
f 703 710 704
f 704 710 711
f 704 711 702
f 702 711 712
f 706 698 708
f 708 698 713
f 698 699 713
f 713 699 714
f 699 705 714
f 714 705 715
f 717 708 716
f 716 708 713
f 719 720 718
f 718 720 721
f 722 723 719
f 719 723 720
f 724 725 723
f 723 725 720
f 724 726 725
f 725 726 727
f 728 721 725
f 725 721 720
f 721 728 729
f 729 728 730
f 729 731 721
f 721 731 718
f 724 723 732
f 732 723 722
f 722 710 732
f 732 710 709
f 722 733 710
f 710 733 711
f 719 734 722
f 722 734 733
f 734 719 735
f 735 719 718
f 724 732 726
f 726 732 717
f 717 732 708
f 708 732 709
f 731 736 718
f 718 736 735
f 737 734 738
f 738 734 735
f 736 739 735
f 735 739 738
f 740 737 741
f 741 737 738
f 737 740 743
f 743 740 742
f 739 744 738
f 738 744 741
f 734 737 733
f 733 737 743
f 733 743 711
f 711 743 712
f 736 731 746
f 746 731 745
f 731 729 745
f 745 729 730
f 727 726 747
f 747 726 717
f 748 727 749
f 749 727 747
f 747 717 750
f 750 717 716
f 749 747 751
f 751 747 750
f 749 752 748
f 748 752 753
f 730 753 745
f 745 753 752
f 728 725 748
f 748 725 727
f 730 728 753
f 753 728 748
f 700 702 754
f 754 702 712
f 705 701 715
f 715 701 755
f 754 755 700
f 700 755 701
f 742 756 754
f 754 756 755
f 740 757 742
f 742 757 756
f 755 756 715
f 715 756 758
f 754 712 742
f 742 712 743
f 759 714 758
f 758 714 715
f 714 759 713
f 713 759 716
f 759 760 716
f 716 760 750
f 760 759 761
f 761 759 758
f 762 760 763
f 763 760 761
f 756 757 758
f 758 757 761
f 757 764 761
f 761 764 763
f 760 762 750
f 750 762 751
f 766 751 765
f 765 751 762
f 767 765 769
f 769 765 768
f 765 762 768
f 768 762 763
f 765 767 766
f 766 767 746
f 766 746 752
f 752 746 745
f 752 749 766
f 766 749 751
f 757 740 764
f 764 740 741
f 769 764 744
f 744 764 741
f 769 768 764
f 764 768 763
f 767 769 739
f 739 769 744
f 739 736 767
f 767 736 746
f 219 217 208
f 208 217 209
f 209 217 210
f 210 217 193
f 198 580 199
f 199 580 511
f 76 75 289
f 289 75 272
f 277 207 291
f 291 207 184
f 290 183 203
f 203 183 84
f 490 580 142
f 142 580 198
f 142 198 143
f 143 198 197
f 149 276 72
f 72 276 73
f 104 103 279
f 279 103 770
f 770 596 279
f 279 596 595
f 605 596 771
f 771 596 770
f 771 770 772
f 772 770 103
f 772 103 773
f 773 103 102
f 155 774 101
f 101 774 102
f 773 102 97
f 97 102 774
f 775 773 100
f 100 773 97
f 773 775 772
f 772 775 776
f 772 776 771
f 771 776 777
f 200 606 197
f 197 606 777
f 189 71 778
f 778 71 74
f 97 774 98
f 98 774 155
f 183 161 184
f 184 161 291
f 777 276 197
f 197 276 143
f 777 606 771
f 771 606 605
f 613 612 697
f 697 612 202
f 595 697 279
f 279 697 202
f 73 276 776
f 776 276 777
f 776 775 73
f 73 775 74
f 100 778 775
f 775 778 74
f 778 100 189
f 189 100 99
f 245 242 99
f 99 242 189
f 131 33 256
f 28 1 95
f 95 1 62
f 27 2 28
f 28 2 1
f 265 115 266
f 266 115 114
f 95 62 69
f 69 62 64
f 62 61 64
f 64 61 65
f 61 13 65
f 65 13 130
f 13 12 130
f 130 12 14
f 31 11 32
f 32 11 268
f 15 12 31
f 31 12 11
f 31 30 15
f 15 30 231
f 30 106 231
f 231 106 232
f 287 237 106
f 106 237 232
f 254 90 287
f 287 90 237
f 253 44 254
f 254 44 90
f 253 249 44
f 44 249 7
f 267 127 268
f 268 127 126
f 10 3 241
f 241 3 116
f 3 2 116
f 116 2 114
f 2 27 114
f 114 27 266
f 27 26 266
f 266 26 113
f 26 286 113
f 113 286 110
f 286 243 110
f 110 243 255
f 243 242 255
f 255 242 256
f 242 245 256
f 256 245 131
f 245 244 131
f 131 244 132
f 265 37 115
f 115 37 41
f 41 37 42
f 42 37 40
f 92 91 40
f 40 91 42
f 236 233 92
f 92 233 91
f 191 194 236
f 236 194 233
f 258 285 244
f 244 285 132
f 257 55 258
f 258 55 285
f 257 154 201
f 201 154 185
f 56 201 204
f 204 201 180
f 55 257 56
f 56 257 201
f 204 85 56
f 56 85 52
f 86 122 53
f 53 122 79
f 212 215 86
f 86 215 122
f 211 216 212
f 212 216 215
f 192 280 211
f 211 280 216
f 191 240 192
f 192 240 280
f 249 124 7
f 7 124 8
f 124 127 8
f 8 127 241
f 127 267 241
f 241 267 10
f 10 267 9
f 9 267 11
