v 0.013576161116361618 -0.00778431398794055 0.712795078754425
v 0.025019507855176926 -0.012012403458356857 0.7127585411071777
v 0.017137981951236725 -0.014929480850696564 0.7199459671974182
v 0.007746066898107529 -0.010948514565825462 0.719462513923645
v 0.035102397203445435 -0.018844768404960632 0.7315018773078918
v 0.041096970438957214 -0.013679048046469688 0.7399325370788574
v 0.024026528000831604 -0.013085315003991127 0.743604838848114
v 0.02113565057516098 -0.018129639327526093 0.7358852624893188
v 0.0021648332476615906 -0.009780872613191605 0.7244645953178406
v 0.009755492210388184 -0.015215564519166946 0.724871039390564
v 0.0011331215500831604 -0.0024350322782993317 0.7259969115257263
v -0.006037971004843712 0.004376726690679789 0.7287725210189819
v -0.005380386486649513 -0.003108325880020857 0.7266212105751038
v -0.013566959649324417 0.007599403150379658 0.7291002869606018
v 0.0006402544677257538 0.01395963691174984 0.728966236114502
v -0.011949138715863228 0.016098443418741226 0.7253890037536621
v 0.008465539664030075 0.026271648705005646 0.709174394607544
v 0.012027226388454437 0.027044210582971573 0.6969531774520874
v -0.003667406737804413 0.02505778707563877 0.6953268051147461
v -0.0060576144605875015 0.023974595591425896 0.7083631753921509
v 0.007048480212688446 0.021363187581300735 0.678222119808197
v 0.00031051039695739746 0.023420140147209167 0.6871958374977112
v 0.015946615487337112 0.026713693514466286 0.6890580654144287
v 0.02126706764101982 0.02449679933488369 0.6807174682617188
v 0.021635983139276505 -0.003445676062256098 0.7005761861801147
v 0.03286910802125931 -0.005539754871279001 0.6995825171470642
v 0.030762650072574615 -0.007491057273000479 0.7041391730308533
v 0.01972462236881256 -0.004606671165674925 0.7051461935043335
v 0.002852749079465866 0.005709523800760508 0.7320572137832642
v 0.009768128395080566 0.009334511123597622 0.7345346808433533
v 0.00406232476234436 0.005832305643707514 0.7298843264579773
v 0.0009867958724498749 0.0010651755146682262 0.7291226983070374
v 0.058561235666275024 -0.011475671082735062 0.69151771068573
v 0.07041411846876144 -0.00570732681080699 0.693798303604126
v 0.0697459876537323 -0.005291444715112448 0.6996824145317078
v 0.05910925567150116 -0.01042897067964077 0.6963123083114624
v 0.06204827129840851 -0.008927544578909874 0.7249301075935364
v 0.0691358894109726 -0.003077430184930563 0.7187604904174805
v 0.07323287427425385 0.006410607136785984 0.7277654409408569
v 0.06462080031633377 0.004401195328682661 0.7324171662330627
v 0.05242408066987991 -0.012634923681616783 0.7336086630821228
v 0.05565781891345978 -0.0012727901339530945 0.73908531665802
v 0.04251278191804886 -0.0030826344154775143 0.7444691061973572
v 0.025021083652973175 -0.004286100622266531 0.7468418478965759
v 0.07190274447202682 -0.0038215150125324726 0.6812358498573303
v 0.06357555091381073 -0.008245723322033882 0.6777787208557129
v -0.06022573262453079 0.015338368713855743 0.6962305903434753
v -0.05535689741373062 0.014573955908417702 0.6928474307060242
v -0.05336284637451172 0.009097299538552761 0.6979745030403137
v -0.057844825088977814 0.010897448286414146 0.7010102868080139
v 0.06526560336351395 0.010332604870200157 0.6687608361244202
v 0.0638413280248642 0.020292183384299278 0.669560968875885
v 0.07098761200904846 0.01918080262839794 0.6693328619003296
v 0.07252635806798935 0.009981708601117134 0.6704460382461548
v 0.05560889095067978 0.01058189943432808 0.6666916608810425
v 0.05384266376495361 0.021131563931703568 0.6704251766204834
v -0.05847073718905449 0.02549235336482525 0.7027089595794678
v -0.06186747923493385 0.02196016162633896 0.7013399004936218
v -0.05908043682575226 0.019501451402902603 0.7066401839256287
v -0.05492847040295601 0.02346542477607727 0.7078866958618164
v -0.0017572231590747833 -0.006888271775096655 0.7217351794242859
v 0.0033665187656879425 -0.006668925751000643 0.7141268849372864
v -0.022794466465711594 -0.004380990285426378 0.7203907370567322
v -0.010873701423406601 -0.004706573206931353 0.7171446084976196
v -0.011461418122053146 -0.004038459155708551 0.7242035865783691
v -0.021470872685313225 -0.00213049678131938 0.7261293530464172
v -0.0008106157183647156 -0.002586526330560446 0.6955875158309937
v 0.010895464569330215 -0.0022838027216494083 0.6968688368797302
v 0.007924649864435196 -0.002485809847712517 0.7025606632232666
v -0.005202852189540863 -0.003439790103584528 0.7029650211334229
v 0.015127919614315033 -0.005157958250492811 0.6836983561515808
v 0.0031753890216350555 -0.00494541646912694 0.6834704279899597
v 0.006707619875669479 -0.006771494168788195 0.6759327054023743
v 0.014776032418012619 -0.007362424861639738 0.6774890422821045
v -0.018158474937081337 -0.0027237916365265846 0.6860026121139526
v -0.024912867695093155 0.001080688089132309 0.6858633160591125
v -0.02495170757174492 0.0009558801539242268 0.6825000643730164
v -0.017567850649356842 -0.0025371620431542397 0.681602418422699
v 0.07801052182912827 0.019175171852111816 0.6695722937583923
v 0.07925666868686676 0.010046022944152355 0.6729698181152344
v 0.01638711988925934 0.014514531940221786 0.6613011360168457
v 0.022339221090078354 0.006805983372032642 0.6557892560958862
v 0.011089902371168137 0.005630301311612129 0.6520567536354065
v 0.00794430822134018 0.013627616688609123 0.658810555934906
v 0.06070531904697418 0.02797183021903038 0.6758161187171936
v 0.06817677617073059 0.027905084192752838 0.6735093593597412
v -0.05274374410510063 0.02812013402581215 0.7020655870437622
v -0.05005590617656708 0.026638967916369438 0.7057008743286133
v 0.04325515031814575 0.00848834216594696 0.741631269454956
v 0.025385119020938873 0.0047317128628492355 0.7450834512710571
v 0.05612950026988983 0.011879455298185349 0.7362526059150696
v 0.06442134082317352 0.015477258712053299 0.7311902642250061
v 0.07237440347671509 0.017869088798761368 0.7294654846191406
v -0.014251003041863441 -0.004978402052074671 0.711463451385498
v 0.009736292064189911 -0.004423953127115965 0.7077701687812805
v 0.023256871849298477 -0.0035094688646495342 0.6960523724555969
v 0.027914293110370636 -0.011412568390369415 0.6668702960014343
v 0.03852944076061249 -0.01165580190718174 0.6686480045318604
v 0.03281009942293167 -0.011750942096114159 0.6775550842285156
v 0.02468821406364441 -0.010866466909646988 0.674078643321991
v 0.022631093859672546 -0.0026935446076095104 0.6547015309333801
v 0.019378911703824997 -0.00862104445695877 0.6590896844863892
v 0.009257625788450241 -0.008113261312246323 0.6565131545066833
v 0.011746130883693695 -0.0026424494571983814 0.6518773436546326
v 0.004490848630666733 0.008593631908297539 0.7383760809898376
v 0.015233952552080154 0.011644573882222176 0.7386053204536438
v 0.06601753830909729 0.00027654459699988365 0.6715731620788574
v 0.07264208048582077 0.0011668114457279444 0.6753668785095215
v 0.08023551106452942 0.0038630999624729156 0.6775569915771484
v 0.0460711270570755 -0.009734682738780975 0.6971191167831421
v 0.0596042200922966 -0.010034672915935516 0.699925422668457
v 0.05874983221292496 -0.011178921908140182 0.7052090764045715
v 0.04563143104314804 -0.009975740686058998 0.7002230286598206
v 0.036547355353832245 -0.017418742179870605 0.7162832021713257
v 0.04851870238780975 -0.017373552545905113 0.7216956615447998
v 0.02535592019557953 -0.019490517675876617 0.7238433361053467
v 0.07065694034099579 -0.00457787374034524 0.7081360220909119
v 0.07944958657026291 -0.003156882245093584 0.701555073261261
v 0.07902297377586365 -0.001512395218014717 0.7103763222694397
v 0.08039693534374237 -0.0023837247863411903 0.6918500065803528
v 0.08071676641702652 -0.00021363887935876846 0.683225691318512
v 0.07598619163036346 0.03072500228881836 0.6719021201133728
v 0.07750988751649857 0.0016934643499553204 0.7181444764137268
v 0.012050557881593704 -0.016139395534992218 0.7368288636207581
v 0.003705386072397232 -0.013663621619343758 0.7373230457305908
v 0.0020523443818092346 -0.011603591963648796 0.7300801873207092
v 0.008872799575328827 -0.014580981805920601 0.7292872667312622
v -0.023837879300117493 0.011215036734938622 0.7281275391578674
v -0.02369503118097782 0.0032945284619927406 0.7287124991416931
v -0.011874202638864517 0.0003516026772558689 0.7293311357498169
v 0.048984281718730927 -0.012496288865804672 0.6851638555526733
v 0.05375507473945618 -0.010056450963020325 0.6738396286964417
v -0.025158189237117767 -0.0032965675927698612 0.7142607569694519
v -0.05046078562736511 0.023495035246014595 0.710638701915741
v -0.0539756640791893 0.018857905641198158 0.7119347453117371
v -0.03945121169090271 0.014576517045497894 0.7212526798248291
v -0.03756636381149292 0.02021961845457554 0.7186323404312134
v -0.03135062754154205 0.004456268157809973 0.7069028615951538
v -0.02986532263457775 0.0003741458058357239 0.7113611698150635
v -0.031902290880680084 0.003275168826803565 0.7087384462356567
v -0.03180428594350815 0.007148465141654015 0.7036237120628357
v -0.022501153871417046 0.0007602307014167309 0.6739743947982788
v -0.014679167419672012 -0.002961093559861183 0.6733500361442566
v -0.02106868103146553 0.018495189025998116 0.7072100639343262
v -0.018710408359766006 0.021608471870422363 0.7193300127983093
v -0.007954617962241173 0.022301455959677696 0.7177525758743286
v 0.002281446009874344 -0.0034517082385718822 0.6888575553894043
v -0.008366553112864494 -0.003902025055140257 0.6867811679840088
v -0.0074193961918354034 -0.004271537531167269 0.6825098395347595
v -0.017601419240236282 -0.0040978058241307735 0.7078760266304016
v -0.025651121512055397 -0.0021002921275794506 0.7086215615272522
v -0.022912457585334778 -0.002561323344707489 0.7040295600891113
v -0.014641201123595238 -0.0033352146856486797 0.7027243971824646
v 0.03453294187784195 0.009229871444404125 0.659263551235199
v 0.035321012139320374 -0.0021101124584674835 0.6576741337776184
v -0.06248108670115471 0.018168894574046135 0.6992077231407166
v -0.059717755764722824 0.014519548043608665 0.7045896053314209
v 0.013699870556592941 -0.003097269218415022 0.6902572512626648
v 0.0058237724006175995 0.02278890274465084 0.7177011370658875
v 0.02506350353360176 -0.00425609340891242 0.6910062432289124
v -0.00803086906671524 0.012770673260092735 0.667086124420166
v -0.009511945769190788 0.007930201478302479 0.6642689108848572
v -0.01716083101928234 0.010250499472022057 0.6667523980140686
v -0.014670589938759804 0.014064343646168709 0.6686359643936157
v -0.04203778877854347 0.013639170676469803 0.6957206130027771
v -0.04579804092645645 0.009357994422316551 0.6976327300071716
v -0.048319049179553986 0.010367187671363354 0.6947372555732727
v -0.044246233999729156 0.013870758935809135 0.6941641569137573
v -0.030773870646953583 -0.000541280023753643 0.7168018221855164
v -0.030858632177114487 0.0009329980239272118 0.7231490612030029
v -0.03739829733967781 0.003430986776947975 0.7179177403450012
v -0.034896120429039 0.0027102723252028227 0.7127552032470703
v -0.03280669078230858 0.006769045256078243 0.7252455353736877
v -0.03911948204040527 0.008384086191654205 0.7210093140602112
v -0.04035339131951332 0.01987956091761589 0.6978453397750854
v -0.04187878221273422 0.02571851760149002 0.7031698822975159
v -0.03135782480239868 0.021701393648982048 0.7074876427650452
v -0.03214668855071068 0.01498027890920639 0.7029257416725159
v 0.0353468656539917 0.027809128165245056 0.6831469535827637
v 0.03911271691322327 0.02388746850192547 0.673555314540863
v 0.02522565796971321 0.020512262359261513 0.6709060668945312
v 0.012110322713851929 0.01786133646965027 0.6678067445755005
v -0.0008218586444854736 0.014005083590745926 0.6657820343971252
v -0.004101105034351349 0.01891055889427662 0.6752021908760071
v 0.02915247529745102 0.017303207889199257 0.6647171378135681
v -0.03304943069815636 0.009000279940664768 0.7035296559333801
v -0.026480352506041527 0.017208144068717957 0.7111511826515198
v -0.029540937393903732 0.014012083411216736 0.7053546905517578
v 0.026606827974319458 -0.00698056211695075 0.6843132376670837
v -0.05440156161785126 0.01391635276377201 0.7109886407852173
v 0.06127816438674927 0.03178704157471657 0.7177721858024597
v 0.061312802135944366 0.035626620054244995 0.7054190039634705
v 0.05292125791311264 0.033619776368141174 0.7070007920265198
v 0.05278017371892929 0.02882135845720768 0.720158576965332
v -0.049900323152542114 0.007188120856881142 0.7026678323745728
v -0.05335361510515213 0.00887160375714302 0.7074432373046875
v -0.0141929741948843 -0.0017564273439347744 0.6669878363609314
v -0.021485934033989906 0.002666916698217392 0.6690782904624939
v -0.02235846407711506 0.006403096951544285 0.6677498817443848
v -0.015949873253703117 0.001207761000841856 0.6624197363853455
v 0.04232969880104065 0.02131587825715542 0.6694061756134033
v 0.004670396447181702 0.004429164342582226 0.6503022909164429
v 0.0038524456322193146 0.011968331411480904 0.6567637324333191
v 0.05135331302881241 0.026899881660938263 0.6763143539428711
v 0.04816770553588867 0.030880654230713844 0.6845731735229492
v 0.05760578811168671 0.03289741650223732 0.685036301612854
v -0.014706799760460854 0.018719498068094254 0.6864597201347351
v 0.03065175563097 0.029408328235149384 0.6902062892913818
v 0.0447109118103981 0.03184807300567627 0.6912971138954163
v 0.055872902274131775 0.03425922617316246 0.6921775937080383
v 0.0638870894908905 0.03648605942726135 0.6920705437660217
v 0.0650191456079483 0.0345442108809948 0.684261679649353
v -0.04593010991811752 0.025856826454401016 0.7070032954216003
v -0.0452490895986557 0.02574116550385952 0.7021128535270691
v 0.07330989837646484 0.037891797721385956 0.6828116178512573
v 0.07180941849946976 0.03931442275643349 0.6918283104896545
v 0.04155673831701279 0.03207611292600632 0.6999368667602539
v 0.038300931453704834 0.031045330688357353 0.7098226547241211
v 0.0280618853867054 0.02957632578909397 0.6984173655509949
v 0.023570425808429718 0.028495194390416145 0.7083207368850708
v -0.014993129298090935 0.023460928350687027 0.696552574634552
v -0.04833411052823067 0.031206876039505005 0.687170684337616
v -0.04431934654712677 0.02473192848265171 0.6945915818214417
v -0.0451565645635128 0.019582141190767288 0.6913188695907593
v -0.04725330322980881 0.02812890149652958 0.6845096349716187
v -0.04304330050945282 0.019478289410471916 0.6970728635787964
v -0.0469401590526104 0.028049591928720474 0.6987782716751099
v 0.02103608101606369 0.02383808046579361 0.719404935836792
v -0.03160246089100838 0.0001560412347316742 0.7022746205329895
v 0.037356436252593994 0.024148382246494293 0.7229591608047485
v 0.0136486254632473 0.01806601509451866 0.7302531003952026
v 0.025487534701824188 0.016993464902043343 0.733242392539978
v 0.05348259210586548 0.022998671978712082 0.7294239401817322
v 0.04067360609769821 0.017850151285529137 0.7357949018478394
v 0.06998775154352188 0.02707701548933983 0.7251642942428589
v 0.06150414049625397 0.025452028959989548 0.7264175415039062
v 0.028142280876636505 0.012755867093801498 0.7402169704437256
v -0.06007916480302811 0.02076665684580803 0.6858890652656555
v -0.0544593371450901 0.02053048461675644 0.6840921640396118
v 0.0691860169172287 0.034154217690229416 0.716975212097168
v 0.015389792621135712 -0.017753610387444496 0.7278581261634827
v 0.03689252585172653 -0.008826866745948792 0.6875914931297302
v 0.03532826900482178 -0.006740570534020662 0.6923642754554749
v 0.04470858722925186 -0.011247938498854637 0.6704404354095459
v 0.03996384143829346 -0.011995567008852959 0.6810551881790161
v -0.06376579403877258 0.023322327062487602 0.6887624263763428
v -0.026740357279777527 0.006984739564359188 0.6854598522186279
v -0.023576121777296066 0.004858279600739479 0.6851237416267395
v 0.014286339282989502 -0.012155242264270782 0.7439594864845276
v 0.006131168454885483 -0.011116961017251015 0.7441178560256958
v 0.004948850721120834 0.0016790563240647316 0.7468917965888977
v 0.00544506311416626 -0.005393930245190859 0.7478429675102234
v 0.015010572969913483 -0.004300542641431093 0.7473965883255005
v 0.014823134988546371 0.003341592848300934 0.7460253238677979
v 0.046078525483608246 -0.00994420237839222 0.6945608258247375
v 0.04641028493642807 -0.010695314034819603 0.6908107995986938
v 0.0457969531416893 0.00976010411977768 0.6629698872566223
v 0.04598754644393921 -0.0016268477775156498 0.66173255443573
v -0.032208338379859924 0.012996973469853401 0.7248626947402954
v -0.023130934685468674 0.01775268465280533 0.7253105044364929
v -0.030490323901176453 0.01857798732817173 0.7218630313873291
v -0.033070750534534454 0.022864677011966705 0.7143936157226562
v -0.03476114571094513 0.005105390213429928 0.7012932300567627
v -0.029853172600269318 0.010543471202254295 0.7064063549041748
v 0.05415073782205582 -0.014461187645792961 0.7123628258705139
v 0.04289469122886658 -0.012886716052889824 0.7067838311195374
v 0.005367688834667206 -0.011154206469655037 0.7268953323364258
v 0.0008355937898159027 -0.006212564650923014 0.7269089221954346
v -0.010150488466024399 -0.0032370793633162975 0.6959039568901062
v -0.02399386838078499 0.018976904451847076 0.6897158026695251
v -0.025938645005226135 0.021573323756456375 0.6963569521903992
v -0.019886907190084457 -0.002414629328995943 0.6956965327262878
v -0.06187210977077484 0.030435150489211082 0.6920144557952881
v -0.06425870954990387 0.026513759046792984 0.6904094219207764
v -0.027132751420140266 0.021348362788558006 0.717753529548645
v -0.004867954179644585 -0.006367702502757311 0.6745443940162659
v -0.014380402863025665 0.012641975656151772 0.6836739778518677
v -0.02461499348282814 0.01431763544678688 0.6870169639587402
v 0.005299590528011322 -0.002076336182653904 0.6504325866699219
v 0.06994582712650299 0.03765961527824402 0.7050053477287292
v -0.04935476928949356 0.016199450939893723 0.6903761029243469
v -0.04963076487183571 0.022337406873703003 0.6832967400550842
v -0.05079825967550278 0.032949887216091156 0.6901047825813293
v -0.056170448660850525 0.033177152276039124 0.6928218007087708
v 0.055303700268268585 -0.0014644470065832138 0.6670224070549011
v 0.033968403935432434 -0.005681138020008802 0.695433497428894
v 0.017067819833755493 0.010287368670105934 0.7415429949760437
v 0.005116231739521027 0.0072309174574911594 0.742704451084137
v -0.02671365812420845 -0.0008048741146922112 0.6945253610610962
v -0.00190032459795475 0.010520310141146183 0.6626245975494385
v -0.009721990674734116 0.01679138094186783 0.6736117005348206
v -0.011823616921901703 0.016664408147335052 0.6757921576499939
v -0.012799151241779327 0.013750575482845306 0.6825723052024841
v -0.018486257642507553 0.009605955332517624 0.6859151721000671
v -0.05358828604221344 0.03459600359201431 0.6857483983039856
v -0.0580001026391983 0.03404650464653969 0.6883090138435364
v -0.0631488785147667 0.030759023502469063 0.6879520416259766
v -0.06484474241733551 0.02771606482565403 0.6864474415779114
v -0.06360562145709991 0.024422287940979004 0.6847671270370483
v -0.05092395097017288 0.03433024510741234 0.6823023557662964
v -0.05008096247911453 0.0319635309278965 0.6796551942825317
v -0.0505521185696125 0.02572881616652012 0.679557740688324
v -0.053566306829452515 0.036082834005355835 0.6774483919143677
v -0.058531858026981354 0.03803715482354164 0.6787694692611694
v -0.07006745040416718 0.031102998182177544 0.6761442422866821
v -0.06740272045135498 0.03211815655231476 0.6810054779052734
v -0.06768105924129486 0.03397573158144951 0.6792954802513123
v -0.06965850293636322 0.03395894914865494 0.6748257279396057
v -0.071199432015419 0.03533489629626274 0.670192539691925
v -0.0722014456987381 0.03220238536596298 0.6711989045143127
v -0.06379196047782898 0.036189984530210495 0.6803936958312988
v -0.06619331240653992 0.03676103428006172 0.6742620468139648
v -0.06262502074241638 0.03817136958241463 0.6726604700088501
v -0.0651928186416626 0.039009202271699905 0.6679242253303528
v -0.06847050786018372 0.03807594254612923 0.6692978739738464
v -0.061319500207901 0.038037244230508804 0.6771018505096436
v -0.062454093247652054 0.0359962098300457 0.6821597218513489
v -0.07222798466682434 0.03407654911279678 0.6671346426010132
v -0.07174340635538101 0.036410413682460785 0.6676434278488159
v -0.0693625956773758 0.03820602968335152 0.6664813160896301
v -0.06987491250038147 0.036841053515672684 0.6639121770858765
v -0.06629253178834915 0.026879489421844482 0.6827069520950317
v -0.07005946338176727 0.028513435274362564 0.6756144762039185
v -0.07082585990428925 0.029686637222766876 0.6698480248451233
v -0.07101082801818848 0.03190094977617264 0.6658903360366821
v -0.06778956949710846 0.02634713053703308 0.6729191541671753
v -0.06862231343984604 0.028305422514677048 0.6685997843742371
v -0.06832656264305115 0.030230645090341568 0.6651191711425781
v -0.06452535092830658 0.025860019028186798 0.6703312993049622
v -0.06588749587535858 0.028072986751794815 0.6670750975608826
v -0.06018940359354019 0.02314957231283188 0.6802387237548828
v -0.06356726586818695 0.023456916213035583 0.6828112602233887
v -0.0665251761674881 0.029067091643810272 0.6647418141365051
v -0.06880271434783936 0.03540687635540962 0.6626949310302734
v -0.058908287435770035 0.03781578689813614 0.672468900680542
v -0.06268253177404404 0.03780084103345871 0.6665153503417969
v -0.05711488425731659 0.03661038354039192 0.6712729334831238
v -0.06074128299951553 0.036960531026124954 0.6653525829315186
v -0.06553933769464493 0.0386078767478466 0.6633731722831726
v -0.06673479825258255 0.038863133639097214 0.6655729413032532
v -0.05947650223970413 0.022284485399723053 0.6831668019294739
v -0.053842417895793915 0.022996259853243828 0.6807191967964172
v -0.05471475049853325 0.02446858584880829 0.6778244972229004
v -0.0602683462202549 0.027057182043790817 0.6683782935142517
v -0.05210583284497261 0.02764439955353737 0.6761301159858704
v -0.05251997709274292 0.033367276191711426 0.6750279068946838
v -0.056580111384391785 0.03440980240702629 0.6692150831222534
v -0.057055287063121796 0.031130053102970123 0.6681337952613831
v -0.05990453064441681 0.03455318883061409 0.6649147272109985
v -0.060444001108407974 0.032083142548799515 0.6650571227073669
v -0.06281131505966187 0.029094872996211052 0.6654074788093567
v -0.06326387822628021 0.03424196317791939 0.6625654697418213
v -0.06435557454824448 0.036961816251277924 0.662675678730011
v -0.06668446213006973 0.03282796964049339 0.6627223491668701
v -0.06252224743366241 0.03252926841378212 0.6631350517272949
v -0.06506136804819107 0.031057069078087807 0.6638263463973999
v -0.05227821320295334 0.010112538002431393 0.6672676205635071
v -0.04941758140921593 0.014876922592520714 0.6648015379905701
v -0.04859715327620506 0.013167647644877434 0.6715224385261536
v -0.05194681137800217 0.01054066140204668 0.6740615367889404
v -0.0609588548541069 0.01655185967683792 0.6761700510978699
v -0.05923782289028168 0.011475544422864914 0.6732385754585266
v -0.05825328826904297 0.014322502538561821 0.6802524924278259
v -0.057482123374938965 0.020098038017749786 0.680945873260498
v -0.05955451726913452 0.022233469411730766 0.6752706170082092
v -0.05429362878203392 0.023823074996471405 0.6794833540916443
v -0.055279284715652466 0.02213047631084919 0.6848616003990173
v -0.05593122914433479 0.014997720718383789 0.6845830082893372
v -0.04027070105075836 0.01150558702647686 0.6976647973060608
v -0.039739035069942474 0.01868162490427494 0.6974834203720093
v -0.030471432954072952 0.004922483582049608 0.6854360699653625
v -0.030139515176415443 0.009197894483804703 0.6841983199119568
v -0.055834267288446426 0.009358443319797516 0.6697255969047546
v -0.05577417463064194 0.010805312544107437 0.6768574714660645
v -0.042232878506183624 0.01530703529715538 0.6703086495399475
v -0.044429317116737366 0.01059606485068798 0.6715601086616516
v -0.04575246199965477 0.0158664770424366 0.6685008406639099
v -0.04586217924952507 0.02100287191569805 0.6682233810424805
v -0.03693835437297821 0.003718777559697628 0.6946799755096436
v -0.03276827931404114 0.003293347544968128 0.6905101537704468
v -0.039264462888240814 0.006815901957452297 0.6961055397987366
v -0.042414695024490356 0.021770935505628586 0.6718913316726685
v -0.04508614540100098 0.026650790125131607 0.6757203340530396
v -0.031949687749147415 0.02343360334634781 0.6873427033424377
v -0.03016500361263752 0.018342839553952217 0.683937668800354
v -0.05477603152394295 0.010250885039567947 0.6820572018623352
v -0.048387616872787476 0.007939689792692661 0.6747104525566101
v -0.05175917223095894 0.007337506860494614 0.6782005429267883
v -0.050332605838775635 0.02623092383146286 0.6814666986465454
v -0.05077517405152321 0.026931719854474068 0.6742053031921387
v -0.05994343012571335 0.02613169699907303 0.6580835580825806
v -0.05260743945837021 0.02690868079662323 0.6674954295158386
v -0.049902431666851044 0.02394384890794754 0.6642770767211914
v -0.05718034505844116 0.024441512301564217 0.6545013785362244
v -0.04803440347313881 0.025669477880001068 0.6710479259490967
v -0.05601583421230316 0.026105783879756927 0.67144775390625
v -0.05890137702226639 0.011375742964446545 0.6532636880874634
v -0.055884841829538345 0.016266994178295135 0.65099036693573
v -0.062091901898384094 0.009744555689394474 0.6558911204338074
v -0.03602302074432373 0.0238064955919981 0.6929826736450195
v -0.06689347326755524 0.014445357024669647 0.6636516451835632
v -0.06453419476747513 0.010147811844944954 0.6593606472015381
v -0.04796141758561134 0.019766472280025482 0.6632957458496094
v -0.05586268752813339 0.021196424961090088 0.6514467000961304
v -0.06292244791984558 0.025322411209344864 0.6612013578414917
v -0.0660923570394516 0.020753521472215652 0.665060818195343
v -0.06583580374717712 0.024211684241890907 0.6572753190994263
v -0.06851430237293243 0.019966188818216324 0.6604819297790527
v -0.06918607652187347 0.013563219457864761 0.6593981981277466
v -0.06679528951644897 0.0101730115711689 0.6558898687362671
v -0.0640513151884079 0.009994100779294968 0.652942955493927
v -0.06374872475862503 0.02530345879495144 0.6541243195533752
v -0.061173323541879654 0.024436641484498978 0.6504113674163818
v -0.05844329297542572 0.02075885981321335 0.6489275097846985
v -0.06747512519359589 0.024757742881774902 0.647642195224762
v -0.07106295973062515 0.023429660126566887 0.6498492956161499
v -0.0803002193570137 0.010826971381902695 0.6420336365699768
v -0.07705944776535034 0.011216333135962486 0.6469845771789551
v -0.07825900614261627 0.013554072007536888 0.6471783518791199
v -0.08135776221752167 0.013406503945589066 0.6426308751106262
v -0.07496830821037292 0.013188701122999191 0.6524547338485718
v -0.07616432011127472 0.014828301966190338 0.6508772969245911
v -0.07468310743570328 0.01907462254166603 0.6510946154594421
v -0.07744026184082031 0.01813247799873352 0.645971417427063
v -0.07503582537174225 0.022052092477679253 0.6446194648742676
v -0.07888872921466827 0.022236302495002747 0.6403184533119202
v -0.08163276314735413 0.018442349508404732 0.6417202353477478
v -0.0738062933087349 0.02188015915453434 0.6487273573875427
v -0.08306396007537842 0.014262106269598007 0.6395717859268188
v -0.08261880278587341 0.012966154143214226 0.6373847723007202
v -0.07330746948719025 0.019207464531064034 0.6535061001777649
v -0.06985399127006531 0.009894264861941338 0.653302013874054
v -0.07500247657299042 0.009403670206665993 0.645544171333313
v -0.0782635509967804 0.009786110371351242 0.6396985650062561
v -0.08069002628326416 0.013073379173874855 0.6350054740905762
v -0.07219823449850082 0.009429529309272766 0.6425312757492065
v -0.0760393813252449 0.010353388264775276 0.6374716758728027
v -0.0781557708978653 0.013502398505806923 0.6340340375900269
v -0.06927283108234406 0.011320309713482857 0.6394926309585571
v -0.07345147430896759 0.012503156438469887 0.6350081562995911
v -0.06210550665855408 0.011443791911005974 0.6487007737159729
v -0.06566085666418076 0.009168477728962898 0.6510324478149414
v -0.07575291395187378 0.013685358688235283 0.63381028175354
v -0.08350993692874908 0.01756410300731659 0.6360303163528442
v -0.08127357810735703 0.016926102340221405 0.6334949135780334
v -0.08342517912387848 0.01785489171743393 0.637860894203186
v -0.07365043461322784 0.023219021037220955 0.6435487866401672
v -0.07749076932668686 0.02275259979069233 0.6385236978530884
v -0.07161686569452286 0.02387624979019165 0.6417895555496216
v -0.0761968344449997 0.02279028482735157 0.6364515423774719
v -0.08086145669221878 0.021494518965482712 0.6355705857276917
v -0.08180200308561325 0.021008513867855072 0.6370112895965576
v -0.06087087094783783 0.012253839522600174 0.6510543823242188
v -0.058320917189121246 0.016693303361535072 0.6491240859031677
v -0.05967707186937332 0.016052857041358948 0.646891176700592
v -0.06727773696184158 0.015698915347456932 0.6379379034042358
v -0.06017918139696121 0.020673967897892 0.6464053392410278
v -0.06430049985647202 0.023968171328306198 0.6460838317871094
v -0.06934032589197159 0.023223362863063812 0.6402536630630493
v -0.06764732301235199 0.020302709192037582 0.6382412910461426
v -0.07440185546875 0.022773651406168938 0.6351045370101929
v -0.07190562784671783 0.02059232071042061 0.634921669960022
v -0.07168078422546387 0.01592417061328888 0.6340861916542053
v -0.07792620360851288 0.020890502259135246 0.6326383948326111
v -0.0798635333776474 0.02136167325079441 0.6340572834014893
v -0.07909587025642395 0.01664888486266136 0.6328029036521912
v -0.07507652044296265 0.01971266232430935 0.6327524781227112
v -0.07583098113536835 0.016180016100406647 0.6327334642410278
v -0.03692424297332764 0.021390747278928757 0.6981698274612427
v -0.040442194789648056 0.02388659119606018 0.6941041946411133
v -0.04024982079863548 0.019712157547473907 0.6904841065406799
v -0.03685075417160988 0.018489696085453033 0.695033848285675
v -0.025082899257540703 0.02619917318224907 0.6961866617202759
v -0.028242452070116997 0.023305103182792664 0.6986590027809143
v -0.028246205300092697 0.02127302810549736 0.6964359283447266
v -0.02487366273999214 0.02422701194882393 0.6933038830757141
v -0.025658924132585526 0.03105989471077919 0.693345844745636
v -0.024786628782749176 0.028142467141151428 0.689666748046875
v -0.023421553894877434 0.0235583633184433 0.6918591856956482
v -0.02793954499065876 0.020304104313254356 0.6945095062255859
v -0.019857462495565414 0.01165023259818554 0.6880160570144653
v -0.015276141464710236 0.01659317873418331 0.6861969828605652
v -0.032591063529253006 0.02154092863202095 0.6991233825683594
v -0.032717399299144745 0.019497724249958992 0.6969899535179138
v -0.038137294352054596 0.022225480526685715 0.6801642179489136
v -0.03904518112540245 0.018351003527641296 0.6829941868782043
v -0.04080967977643013 0.02357693761587143 0.6865391731262207
v -0.03918461501598358 0.027832765132188797 0.6841756105422974
v -0.02596777305006981 0.0040192254818975925 0.6828194856643677
v -0.02583320066332817 0.004740368574857712 0.6768057346343994
v -0.02446916326880455 0.007505482062697411 0.6866919994354248
v -0.03412787243723869 0.02669687755405903 0.679049551486969
v -0.027470968663692474 0.028735332190990448 0.6810848712921143
v -0.019120384007692337 0.020277343690395355 0.673913300037384
v -0.023011531680822372 0.01613345369696617 0.6716582775115967
v -0.03229248896241188 0.01761999912559986 0.6955249905586243
v -0.0382523387670517 0.01576351374387741 0.6872552633285522
v -0.03616655617952347 0.015353905037045479 0.6928175687789917
v -0.02365902066230774 0.02675333060324192 0.6872432231903076
v -0.028725991025567055 0.031168527901172638 0.6847545504570007
v -0.036320872604846954 0.04277179390192032 0.7011721730232239
v -0.0360456220805645 0.03401760011911392 0.6868377923965454
v -0.04039255157113075 0.03132447600364685 0.6887844800949097
v -0.04014423117041588 0.041847113519907 0.7023345232009888
v -0.035162489861249924 0.031222926452755928 0.6832392811775208
v -0.02989153563976288 0.0339178666472435 0.6886049509048462
v -0.038820452988147736 0.03175780177116394 0.7106849551200867
v -0.042142294347286224 0.03445017337799072 0.7074053287506104
v -0.03485924378037453 0.030530691146850586 0.7101724743843079
v -0.014572657644748688 0.0205676332116127 0.6805068254470825
v -0.02540854923427105 0.009812118485569954 0.6720829010009766
v -0.02906602807343006 0.03380435332655907 0.7080766558647156
v -0.031860850751399994 0.03136788681149483 0.7096914649009705
v -0.041573166847229004 0.027770325541496277 0.6904963254928589
v -0.04264519736170769 0.038810715079307556 0.7044837474822998
v -0.03183057904243469 0.04147552698850632 0.7013034224510193
v -0.02797621302306652 0.03775373101234436 0.7039499282836914
v -0.032795727252960205 0.043750304728746414 0.7037600874900818
v -0.02926444821059704 0.040116146206855774 0.7064156532287598
v -0.029617108404636383 0.03685656934976578 0.7107794284820557
v -0.032361842691898346 0.03496618941426277 0.7128943204879761
v -0.035504478961229324 0.034361083060503006 0.7136425971984863
v -0.03649310767650604 0.04561997950077057 0.7039616703987122
v -0.03975966200232506 0.04515436664223671 0.7054709792137146
v -0.042626939713954926 0.04065469652414322 0.7065646052360535
v -0.03591442108154297 0.04846743121743202 0.7066683173179626
v -0.03099697083234787 0.04807395860552788 0.7078261375427246
v -0.027124106884002686 0.0504341647028923 0.7240079641342163
v -0.028167739510536194 0.04601297527551651 0.7204715609550476
v -0.027781575918197632 0.04691287502646446 0.7196840643882751
v -0.026211995631456375 0.05141719430685043 0.7228424549102783
v -0.028152011334896088 0.04189939796924591 0.7147777080535889
v -0.027718868106603622 0.04405105113983154 0.7155551910400391
v -0.02803944982588291 0.045639753341674805 0.7120212912559509
v -0.02679038979113102 0.05069669336080551 0.7160266041755676
v -0.03095412626862526 0.053351990878582 0.7126776576042175
v -0.029562853276729584 0.056764841079711914 0.7159514427185059
v -0.025491874665021896 0.054679520428180695 0.7192596197128296
v -0.029979094862937927 0.04879707098007202 0.7098844647407532
v -0.025892265141010284 0.054423995316028595 0.7237944602966309
v -0.025841712951660156 0.054033488035202026 0.7255868911743164
v -0.028516346588730812 0.04404500126838684 0.7100598812103271
v -0.03113071247935295 0.038779109716415405 0.7165620923042297
v -0.030254054814577103 0.0447068065404892 0.7220052480697632
v -0.0293916966766119 0.049219682812690735 0.7259188890457153
v -0.02930046245455742 0.05345085263252258 0.7267798185348511
v -0.034062135964632034 0.044740334153175354 0.7223280072212219
v -0.03261542692780495 0.049267299473285675 0.7256119847297668
v -0.032432928681373596 0.05303604155778885 0.7264796495437622
v -0.037022922188043594 0.04544687643647194 0.721432626247406
v -0.03560008481144905 0.04986334592103958 0.7244109511375427
v -0.03885311260819435 0.03709759563207626 0.7145934700965881
v -0.03494052216410637 0.037257928401231766 0.7163041234016418
v -0.034437257796525955 0.05280856043100357 0.7254209518432617
v -0.026653025299310684 0.057934701442718506 0.723010241985321
v -0.030670927837491035 0.05811562389135361 0.7242867946624756
v -0.02622847631573677 0.05683400481939316 0.7218296527862549
v -0.03237258642911911 0.05349101126194 0.7114613056182861
v -0.03148031607270241 0.05823252350091934 0.715806245803833
v -0.03509766608476639 0.0533558651804924 0.7113543748855591
v -0.03426678851246834 0.05818162113428116 0.7160161137580872
v -0.02948630228638649 0.0596199631690979 0.7190235257148743
v -0.02857602760195732 0.05878108739852905 0.7188934683799744
v -0.039278797805309296 0.034369323402643204 0.7123343348503113
v -0.0422641783952713 0.03693338483572006 0.7094700932502747
v -0.0418168380856514 0.03952590376138687 0.7119787931442261
v -0.03943288326263428 0.04828334599733353 0.7192577123641968
v -0.042059287428855896 0.042937591671943665 0.70887690782547
v -0.0387718491256237 0.04824170470237732 0.7082372307777405
v -0.03754690662026405 0.052522968500852585 0.7130573391914368
v -0.03927001357078552 0.051084648817777634 0.7158405780792236
v -0.03640115261077881 0.05695752054452896 0.7171998023986816
v -0.03761906549334526 0.05472474545240402 0.7184494137763977
v -0.03795793652534485 0.052212245762348175 0.7224172353744507
v -0.03466491773724556 0.05819132179021835 0.7204934358596802
v -0.03225833550095558 0.059701137244701385 0.7196171283721924
v -0.03356099873781204 0.05677364766597748 0.7245416045188904
v -0.036356110125780106 0.0563633069396019 0.7210971713066101
v -0.035533878952264786 0.055131979286670685 0.7240757346153259
v -0.025909338146448135 0.006480080541223288 0.6731361150741577
v -0.020288439467549324 0.02010887674987316 0.6612703204154968
v -0.02254400961101055 0.021896954625844955 0.6587343811988831
v -0.022049788385629654 0.016535459086298943 0.6555951237678528
v -0.02024569921195507 0.01454721949994564 0.6585569381713867
v -0.009955234825611115 0.02130267582833767 0.6595719456672668
v -0.013563236221671104 0.020151520147919655 0.6620485186576843
v -0.012899566441774368 0.016579942777752876 0.6600394248962402
v -0.009097468107938766 0.017836064100265503 0.6573050618171692
v -0.008767710998654366 0.02394561842083931 0.6555967330932617
v -0.008019417524337769 0.020557455718517303 0.6531281471252441
v -0.007381593808531761 0.018105987459421158 0.6587914228439331
v -0.011398963630199432 0.015876468271017075 0.6610261797904968
v -0.007393740117549896 0.009600792080163956 0.6632943153381348
v -0.0032255686819553375 0.01204206608235836 0.6611731052398682
v -0.0018549412488937378 -0.0006342381238937378 0.6478118300437927
v -0.002768097445368767 -0.004477946553379297 0.6527884006500244
v -0.010187331587076187 0.003024050500243902 0.6500058174133301
v -0.00640479102730751 0.005434595514088869 0.6477357149124146
v -0.017126008868217468 0.01969958283007145 0.6625117659568787
v -0.017567802220582962 0.015780916437506676 0.6606718897819519
v -0.015374351292848587 0.013552237302064896 0.6472000479698181
v -0.018757574260234833 0.012438729405403137 0.6501994729042053
v -0.022197037935256958 0.017757762223482132 0.6519016623497009
v -0.019375961273908615 0.019763147458434105 0.6482827067375183
v -0.006398381665349007 -0.004147226456552744 0.6569167971611023
v -0.009091408923268318 -0.002423093654215336 0.660486102104187
v -0.013458553701639175 3.092922270298004e-06 0.6585462689399719
v -0.013047577813267708 0.002415978815406561 0.6538081765174866
v -0.014427769929170609 0.0042846729047596455 0.662025511264801
v -0.011825695633888245 0.01583099737763405 0.6465810537338257
v -0.007603544741868973 0.01831672340631485 0.6483287811279297
v 0.0017053782939910889 0.010417871177196503 0.649707019329071
v -0.0013959966599941254 0.007320686709135771 0.6480368971824646
v -0.015621181577444077 0.013380806893110275 0.6611893177032471
v -0.02022719383239746 0.012666583061218262 0.6543022990226746
v -0.018294118344783783 0.011538544669747353 0.6581899523735046
v -0.0054281726479530334 0.01940406672656536 0.6537654995918274
v -0.010594433173537254 0.022328650578856468 0.6485943794250488
v -0.016785435378551483 0.0349479615688324 0.6553888320922852
v -0.016521185636520386 0.026808619499206543 0.6496328115463257
v -0.020565159618854523 0.026010317727923393 0.6516157388687134
v -0.01965104602277279 0.03479873761534691 0.6565521359443665
v -0.014401523396372795 0.020283013582229614 0.6467820405960083
v -0.011462803930044174 0.02650546282529831 0.6512500643730164
v -0.020575784146785736 0.028720542788505554 0.6664013266563416
v -0.022709278389811516 0.030907152220606804 0.6626444458961487
v -0.017773035913705826 0.027688849717378616 0.6675115823745728
v 0.0011598803102970123 0.01339164562523365 0.6559543013572693
v -0.011166781187057495 0.028916291892528534 0.6651260852813721
v -0.014504756778478622 0.028048889711499214 0.6676253080368042
v -0.02248653583228588 0.02385064586997032 0.6553722620010376
v -0.02191311866044998 0.03327411785721779 0.6590584516525269
v -0.012735331431031227 0.034039128571748734 0.6564581990242004
v -0.009583894163370132 0.031291522085666656 0.6603868007659912
v -0.012204864993691444 0.037065405398607254 0.6596160531044006
v -0.010249476879835129 0.034099280834198 0.6634671688079834
v -0.01276976615190506 0.03211485967040062 0.66908198595047
v -0.016013016924262047 0.030964983627200127 0.6699481010437012
v -0.0191844180226326 0.030803700909018517 0.6694160103797913
v -0.01627357304096222 0.03810325264930725 0.6580015420913696
v -0.019275600090622902 0.037641651928424835 0.6585757732391357
v -0.021969836205244064 0.03551714867353439 0.6602902412414551
v -0.015806814655661583 0.0413922555744648 0.6610895395278931
v -0.012710433453321457 0.04146619886159897 0.6647160053253174
v -0.018275994807481766 0.045292045921087265 0.676072359085083
v -0.01782282441854477 0.041729629039764404 0.6746879816055298
v -0.016887763515114784 0.04210387170314789 0.6741225719451904
v -0.017189817503094673 0.04549390450119972 0.6760607361793518
v -0.015456773340702057 0.037560708820819855 0.672630250453949
v -0.015140535309910774 0.03914857655763626 0.6722577214241028
v -0.013233695179224014 0.03938264027237892 0.6693677306175232
v -0.013915691524744034 0.04374291002750397 0.6714386940002441
v -0.014431439340114594 0.04652680456638336 0.6669869422912598
v -0.014835016801953316 0.04972543567419052 0.6692361235618591
v -0.014002097770571709 0.046944648027420044 0.6729781627655029
v -0.012832826003432274 0.042335014790296555 0.6665454506874084
v -0.016414569690823555 0.04793471843004227 0.676720380783081
v -0.017325270920991898 0.04866677522659302 0.6774336695671082
v -0.01195489801466465 0.03775836527347565 0.6687004566192627
v -0.018724041059613228 0.03532570227980614 0.6728134155273438
v -0.02020641602575779 0.04178648442029953 0.675334095954895
v -0.020080681890249252 0.0463407076895237 0.6769430637359619
v -0.019128160551190376 0.049850016832351685 0.6768476963043213
v -0.022228240966796875 0.041107840836048126 0.6738381385803223
v -0.02221284620463848 0.04662200063467026 0.6760974526405334
v -0.02131001278758049 0.04999884217977524 0.6758707165718079
v -0.02424350194633007 0.041249003261327744 0.6712053418159485
v -0.023585958406329155 0.04657483100891113 0.6737676858901978
v -0.02347276359796524 0.03462823107838631 0.6680456399917603
v -0.021376093849539757 0.0346660278737545 0.6710236072540283
v -0.022183917462825775 0.04933097958564758 0.6744129061698914
v -0.015507370233535767 0.05112344026565552 0.6749936938285828
v -0.018304379656910896 0.05205520987510681 0.6745262742042542
v -0.014408932998776436 0.05014077574014664 0.6744414567947388
v -0.014995504170656204 0.04677605628967285 0.6657362580299377
v -0.015790166333317757 0.05082135647535324 0.6684140563011169
v -0.017010625451803207 0.04692278802394867 0.6642323136329651
v -0.01786903478205204 0.05125631392002106 0.6678313612937927
v -0.015825901180505753 0.052321359515190125 0.671532154083252
v -0.014690034091472626 0.05087412893772125 0.671703040599823
v -0.022221984341740608 0.03192009776830673 0.6674116253852844
v -0.022824760526418686 0.03302852064371109 0.6637694239616394
v -0.023679981008172035 0.03585691377520561 0.6642633676528931
v -0.024565182626247406 0.04242929071187973 0.6676537394523621
v -0.02189425751566887 0.03830201178789139 0.6610400080680847
v -0.01866801455616951 0.040305182337760925 0.6601777672767639
v -0.019539184868335724 0.04621385782957077 0.6639121770858765
v -0.022388238459825516 0.04487339407205582 0.664842963218689
v -0.020026495680212975 0.0509372353553772 0.6680781245231628
v -0.02252289652824402 0.04937859624624252 0.6687370538711548
v -0.024059971794486046 0.047617822885513306 0.6708243489265442
v -0.01988949254155159 0.05218924582004547 0.6717117428779602
v -0.018083350732922554 0.05282093584537506 0.6716912984848022
v -0.020276326686143875 0.05164947360754013 0.673850953578949
v -0.021563483402132988 0.05114465951919556 0.6715677380561829
v -0.02207624539732933 0.05037638545036316 0.672854483127594
v -0.0010150112211704254 0.003475890029221773 0.6475651264190674
v -0.010580377653241158 0.005666821729391813 0.7380542159080505
v -0.010105205699801445 0.0038715063128620386 0.732651948928833
v -0.010973673313856125 -0.01223161444067955 0.7331421971321106
v -0.01138567179441452 -0.006600440014153719 0.7288450002670288
v -0.011120650917291641 -0.013808423653244972 0.7398377060890198
v -0.010690005496144295 -0.007364960853010416 0.7484151721000671
v -0.009938212111592293 -0.011690517887473106 0.7451184988021851
v -0.010822290554642677 -0.0008198260329663754 0.7288628816604614
v -0.010446041822433472 0.004602525848895311 0.7436802983283997
v -0.010350842028856277 -0.0006649196147918701 0.7485515475273132
v -0.020866505801677704 0.0066542536951601505 0.7430382966995239
v -0.02152146026492119 -2.1753832697868347e-05 0.7481066584587097
v -0.02230953797698021 -0.007194297853857279 0.7479485273361206
v -0.019254080951213837 -0.012274008244276047 0.7433062791824341
v -0.018097441643476486 -0.014323098585009575 0.7387906908988953
v -0.017456699162721634 0.006416982505470514 0.7359755039215088
v -0.015938447788357735 0.0043455203995108604 0.7309141755104065
v -0.015124073252081871 -0.001482582651078701 0.7276963591575623
v -0.023774005472660065 0.006004167255014181 0.7312448024749756
v -0.03277226537466049 0.0022812732495367527 0.7315152287483215
v -0.042464934289455414 -0.014609798789024353 0.7295151352882385
v -0.036838777363300323 -0.013865591958165169 0.7332719564437866
v -0.038033924996852875 -0.011313056573271751 0.7332673072814941
v -0.0433080792427063 -0.012262970209121704 0.7302777171134949
v -0.033891692757606506 -0.010677522048354149 0.7370550036430359
v -0.0350055992603302 -0.009169811382889748 0.7356091737747192
v -0.03403867781162262 -0.003889248240739107 0.7350143194198608
v -0.038900479674339294 -0.00509960250928998 0.7319436073303223
v -0.034090712666511536 -0.00026094960048794746 0.7313880920410156
v -0.036838531494140625 -0.0007707909680902958 0.7280911803245544
v -0.043555207550525665 -0.006038181949406862 0.7288938760757446
v -0.04663015902042389 -0.010914605110883713 0.7285482287406921
v -0.04729997366666794 -0.0070303683169186115 0.726223349571228
v -0.046466097235679626 -0.01313118264079094 0.7263777256011963
v -0.03489762544631958 -0.0020928229205310345 0.7379252314567566
v -0.02809172123670578 -0.013759534806013107 0.7388743758201599
v -0.03409726917743683 -0.016104351729154587 0.7326747179031372
v -0.040138378739356995 -0.016554048284888268 0.7274933457374573
v -0.044695690274238586 -0.014310980215668678 0.7239817976951599
v -0.031140141189098358 -0.017036810517311096 0.7297288775444031
v -0.0366719588637352 -0.016379501670598984 0.7249670028686523
v -0.04054746776819229 -0.013694647699594498 0.7216122150421143
v -0.02860468626022339 -0.01526343822479248 0.7260251045227051
v -0.03436635434627533 -0.014198865741491318 0.7226297855377197
v -0.01872294768691063 -0.013139236718416214 0.7316887378692627
v -0.022416356950998306 -0.01533389464020729 0.7363055348396301
v -0.0379890576004982 -0.012702073901891708 0.721132218837738
v -0.04824727773666382 -0.0078696608543396 0.7237957119941711
v -0.04612080007791519 -0.009015798568725586 0.7211703062057495
v -0.034891337156295776 0.00133197708055377 0.7263185381889343
v -0.04149089753627777 -0.0012233895249664783 0.725500226020813
v -0.03991588205099106 -0.00054599205031991 0.7231409549713135
v -0.031551145017147064 0.0019820560701191425 0.7242980003356934
v -0.038071781396865845 -0.0007365499623119831 0.7209777235984802
v -0.04486090689897537 -0.003077142406255007 0.7221515774726868
v -0.04506704956293106 -0.003254998940974474 0.7248988151550293
v -0.015885042026638985 -0.013033876195549965 0.7329837083816528
v -0.014626812189817429 -0.007889579981565475 0.7289909720420837
v -0.017066586762666702 -0.007672586943954229 0.7280669808387756
v -0.026419639587402344 -0.009893083944916725 0.7228044271469116
v -0.01800636202096939 -0.001720441970974207 0.7259552478790283
v -0.020709332078695297 0.0036175032146275043 0.7278308272361755
v -0.029043808579444885 0.00035113515332341194 0.7220677733421326
v -0.02678406983613968 -0.0038556051440536976 0.7213568091392517
v -0.03570977598428726 -0.002979088108986616 0.7195377945899963
v -0.03412190079689026 -0.005575274582952261 0.7195019125938416
v -0.03366467356681824 -0.010440308600664139 0.720298707485199
v -0.040102213621139526 -0.005770919378846884 0.7190197110176086
v -0.04280081391334534 -0.0038109668530523777 0.7198824286460876
v -0.0418810173869133 -0.009713232517242432 0.7196916341781616
v -0.037662334740161896 -0.0069923182018101215 0.7192944884300232
v -0.03833988308906555 -0.009987685829401016 0.7198242545127869
v 0.003688063472509384 -0.006646384950727224 0.6553722620010376
v 7.922947406768799e-05 -0.007560467813163996 0.6606489419937134
v 0.00745048001408577 -0.009815571829676628 0.661820650100708
v 0.017683710902929306 -0.010709982365369797 0.664394736289978
v 0.02808082476258278 -0.009041357785463333 0.6613405346870422
v 0.01581958681344986 -0.009813930839300156 0.6709142327308655
v 0.005604367703199387 -0.00904109701514244 0.667986273765564
v -0.004903832450509071 -0.005978766363114119 0.6662822961807251
v 0.02229352295398712 -0.007976701483130455 0.6791450381278992
f 2 3 1
f 1 3 4
f 5 6 8
f 8 6 7
f 9 4 10
f 10 4 3
f 12 13 11
f 11 13 9
f 14 12 16
f 16 12 15
f 18 19 17
f 17 19 20
f 22 23 21
f 21 23 24
f 26 27 25
f 25 27 28
f 30 31 29
f 29 31 32
f 33 34 36
f 36 34 35
f 37 38 40
f 40 38 39
f 41 42 6
f 6 42 43
f 6 43 7
f 7 43 44
f 45 34 46
f 46 34 33
f 48 49 47
f 47 49 50
f 52 53 51
f 51 53 54
f 56 52 55
f 55 52 51
f 58 59 57
f 57 59 60
f 61 62 4
f 4 62 1
f 64 65 63
f 63 65 66
f 68 69 67
f 67 69 70
f 72 73 71
f 71 73 74
f 76 77 75
f 75 77 78
f 53 79 54
f 54 79 80
f 82 83 81
f 81 83 84
f 85 86 52
f 52 86 53
f 57 60 87
f 87 60 88
f 89 90 43
f 43 90 44
f 43 42 89
f 89 42 91
f 40 39 92
f 92 39 93
f 94 70 64
f 64 70 69
f 13 61 9
f 9 61 4
f 25 28 69
f 69 28 95
f 96 25 68
f 68 25 69
f 98 99 97
f 97 99 100
f 101 102 104
f 104 102 103
f 106 30 105
f 105 30 29
f 51 54 107
f 107 54 108
f 54 80 108
f 108 80 109
f 111 112 110
f 110 112 113
f 115 5 114
f 114 5 116
f 115 41 5
f 5 41 6
f 36 35 111
f 111 35 117
f 35 118 117
f 117 118 119
f 34 120 35
f 35 120 118
f 34 45 120
f 120 45 121
f 125 126 124
f 124 126 127
f 128 129 14
f 14 129 130
f 33 131 46
f 46 131 132
f 133 94 63
f 63 94 64
f 134 135 137
f 137 135 136
f 139 140 138
f 138 140 141
f 77 142 78
f 78 142 143
f 144 145 20
f 20 145 146
f 148 149 147
f 147 149 72
f 151 152 150
f 150 152 153
f 82 101 83
f 83 101 104
f 101 82 155
f 155 82 154
f 156 157 58
f 58 157 59
f 158 68 147
f 147 68 67
f 159 146 15
f 15 146 16
f 68 158 96
f 96 158 160
f 129 66 130
f 130 66 65
f 162 163 161
f 161 163 164
f 166 167 165
f 165 167 168
f 170 171 169
f 169 171 172
f 174 171 173
f 173 171 170
f 176 177 175
f 175 177 178
f 180 181 179
f 179 181 24
f 182 183 21
f 21 183 184
f 81 185 82
f 82 185 154
f 186 187 188
f 188 187 144
f 158 71 160
f 160 71 189
f 190 135 157
f 157 135 59
f 169 172 139
f 139 172 140
f 147 72 158
f 158 72 71
f 192 193 191
f 191 193 194
f 167 166 49
f 49 166 195
f 196 190 50
f 50 190 157
f 197 198 200
f 200 198 199
f 21 24 182
f 182 24 181
f 146 159 20
f 20 159 17
f 182 181 81
f 81 181 185
f 201 185 180
f 180 185 181
f 202 203 83
f 83 203 84
f 205 206 204
f 204 206 85
f 207 22 184
f 184 22 21
f 179 24 208
f 208 24 23
f 208 209 179
f 179 209 205
f 209 210 205
f 205 210 206
f 212 206 211
f 211 206 210
f 179 205 180
f 180 205 204
f 213 176 88
f 88 176 214
f 86 85 212
f 212 85 206
f 193 217 218
f 217 219 218
f 218 219 220
f 219 18 220
f 220 18 17
f 19 221 20
f 20 221 144
f 222 223 225
f 225 223 224
f 175 226 176
f 176 226 214
f 227 87 214
f 214 87 88
f 220 17 228
f 228 17 159
f 134 213 60
f 60 213 88
f 138 229 151
f 151 229 152
f 193 192 210
f 210 192 211
f 230 194 218
f 218 194 193
f 231 232 228
f 228 232 230
f 233 234 91
f 91 234 89
f 235 236 93
f 93 236 92
f 230 232 234
f 234 232 237
f 47 238 48
f 48 238 239
f 240 191 235
f 235 191 236
f 5 8 116
f 116 8 241
f 242 243 189
f 189 243 160
f 244 245 98
f 98 245 99
f 156 246 47
f 47 246 238
f 76 247 77
f 77 247 248
f 250 125 249
f 249 125 124
f 252 253 251
f 251 253 254
f 111 110 36
f 36 110 255
f 256 33 255
f 255 33 36
f 257 258 154
f 154 258 155
f 63 169 133
f 133 169 139
f 66 170 63
f 63 170 169
f 173 170 129
f 129 170 66
f 129 128 173
f 173 128 259
f 128 260 259
f 259 260 261
f 213 134 262
f 262 134 137
f 263 264 186
f 186 264 187
f 112 265 113
f 113 265 266
f 11 267 268
f 234 233 230
f 230 233 194
f 153 269 70
f 70 269 67
f 175 178 165
f 165 178 141
f 150 153 94
f 94 153 70
f 271 221 270
f 270 221 207
f 269 153 272
f 272 153 152
f 121 45 109
f 109 45 108
f 47 50 156
f 156 50 157
f 57 273 58
f 58 273 274
f 145 275 260
f 260 275 261
f 276 149 143
f 143 149 78
f 148 269 75
f 75 269 272
f 207 277 270
f 270 277 278
f 195 196 49
f 49 196 50
f 59 135 60
f 60 135 134
f 83 104 202
f 202 104 279
f 149 148 78
f 78 148 75
f 247 278 248
f 248 278 277
f 183 182 84
f 84 182 81
f 48 239 281
f 281 239 282
f 227 223 283
f 283 223 222
f 223 226 224
f 224 226 168
f 281 282 224
f 224 282 225
f 165 168 175
f 175 168 226
f 264 263 138
f 138 263 229
f 14 16 128
f 128 16 260
f 220 228 218
f 218 228 230
f 87 227 284
f 284 227 283
f 260 16 145
f 145 16 146
f 244 98 258
f 258 98 155
f 58 274 156
f 156 274 246
f 107 285 51
f 51 285 55
f 243 286 160
f 160 286 96
f 234 237 89
f 89 237 90
f 46 132 107
f 107 132 285
f 253 252 249
f 249 252 250
f 286 26 96
f 96 26 25
f 106 105 287
f 287 105 288
f 272 152 289
f 289 152 229
f 138 151 139
f 139 151 133
f 183 290 161
f 161 290 162
f 291 292 277
f 277 292 293
f 151 150 133
f 133 150 94
f 262 275 177
f 177 275 187
f 144 187 145
f 145 187 275
f 273 57 284
f 284 57 87
f 174 136 190
f 190 136 135
f 111 117 112
f 112 117 38
f 117 119 38
f 38 119 123
f 112 38 265
f 265 38 37
f 287 288 254
f 254 288 251
f 228 159 231
f 231 159 15
f 223 227 226
f 226 227 214
f 147 67 148
f 148 67 269
f 224 168 281
f 281 168 167
f 199 163 200
f 200 163 162
f 45 46 108
f 108 46 107
f 281 167 48
f 48 167 49
f 161 164 291
f 291 164 292
f 38 123 39
f 293 294 277
f 277 294 248
f 284 283 296
f 296 283 295
f 284 296 273
f 273 296 297
f 274 273 298
f 298 273 297
f 246 274 299
f 299 274 298
f 283 222 295
f 295 222 300
f 222 225 300
f 300 225 301
f 301 225 302
f 302 225 282
f 303 304 300
f 300 304 295
f 306 307 305
f 305 307 308
f 309 310 308
f 308 310 305
f 308 307 312
f 312 307 311
f 313 314 312
f 312 314 315
f 311 316 312
f 312 316 313
f 317 304 311
f 311 304 316
f 315 309 312
f 312 309 308
f 318 319 321
f 321 319 320
f 319 318 309
f 309 318 310
f 311 307 317
f 317 307 306
f 306 297 317
f 317 297 296
f 306 322 297
f 297 322 298
f 305 323 306
f 306 323 322
f 323 305 324
f 324 305 310
f 304 317 295
f 295 317 296
f 318 325 310
f 310 325 324
f 323 324 326
f 326 324 327
f 324 325 327
f 327 325 328
f 326 327 329
f 329 327 330
f 329 331 326
f 326 331 332
f 333 330 328
f 328 330 327
f 323 326 322
f 322 326 332
f 322 332 298
f 298 332 299
f 325 318 334
f 334 318 321
f 313 316 335
f 335 316 304
f 335 336 313
f 313 336 314
f 304 303 335
f 335 303 337
f 336 335 338
f 338 335 337
f 336 339 314
f 314 339 340
f 246 299 238
f 238 299 341
f 239 342 282
f 282 342 302
f 342 239 341
f 341 239 238
f 341 331 342
f 342 331 343
f 331 329 343
f 343 329 344
f 342 343 302
f 302 343 345
f 341 299 331
f 331 299 332
f 346 301 345
f 345 301 302
f 346 303 301
f 301 303 300
f 347 337 346
f 346 337 303
f 347 346 348
f 348 346 345
f 349 347 350
f 350 347 348
f 343 344 345
f 345 344 348
f 344 351 348
f 348 351 350
f 337 347 338
f 338 347 349
f 353 338 352
f 352 338 349
f 352 355 354
f 354 355 356
f 352 349 355
f 355 349 350
f 352 354 353
f 353 354 334
f 353 334 339
f 339 334 321
f 339 336 353
f 353 336 338
f 329 330 344
f 344 330 351
f 356 351 333
f 333 351 330
f 356 355 351
f 351 355 350
f 354 356 328
f 328 356 333
f 328 325 354
f 354 325 334
f 309 315 319
f 319 315 320
f 320 340 321
f 321 340 339
f 320 315 340
f 340 315 314
f 137 136 261
f 261 136 259
f 140 166 141
f 141 166 165
f 172 171 195
f 195 171 196
f 171 174 196
f 196 174 190
f 178 177 264
f 264 177 187
f 172 195 140
f 140 195 166
f 137 261 262
f 262 261 275
f 178 264 141
f 141 264 138
f 262 177 213
f 213 177 176
f 136 174 259
f 259 174 173
f 358 359 357
f 357 359 360
f 362 363 361
f 361 363 364
f 361 364 365
f 365 364 366
f 367 368 370
f 370 368 369
f 76 371 247
f 247 371 372
f 373 374 362
f 362 374 363
f 376 377 375
f 375 377 378
f 289 229 380
f 380 229 379
f 381 379 263
f 263 379 229
f 383 384 382
f 382 384 385
f 386 368 374
f 374 368 363
f 76 289 371
f 371 289 380
f 377 376 359
f 359 376 387
f 388 386 360
f 360 386 374
f 389 383 366
f 366 383 390
f 392 393 391
f 391 393 394
f 383 382 390
f 390 382 395
f 396 365 390
f 390 365 366
f 389 366 367
f 367 366 364
f 357 397 358
f 358 397 398
f 373 399 357
f 357 399 397
f 389 367 400
f 400 367 370
f 382 385 375
f 375 385 372
f 357 360 373
f 373 360 374
f 361 401 362
f 362 401 402
f 387 388 359
f 359 388 360
f 363 368 364
f 364 368 367
f 358 398 403
f 403 398 404
f 396 392 405
f 405 392 391
f 392 395 393
f 393 395 378
f 393 403 394
f 394 403 404
f 375 378 382
f 382 378 395
f 365 396 406
f 406 396 405
f 362 402 373
f 373 402 399
f 271 270 400
f 400 270 384
f 401 361 406
f 406 361 365
f 381 369 386
f 386 369 368
f 392 396 395
f 395 396 390
f 393 378 403
f 403 378 377
f 403 377 358
f 358 377 359
f 406 405 408
f 408 405 407
f 406 408 401
f 401 408 409
f 401 409 402
f 402 409 410
f 402 410 399
f 399 410 411
f 405 391 407
f 407 391 412
f 391 394 412
f 412 394 413
f 394 404 413
f 413 404 414
f 415 416 412
f 412 416 407
f 418 419 417
f 417 419 420
f 421 422 418
f 418 422 419
f 419 422 424
f 424 422 423
f 425 426 424
f 424 426 427
f 423 428 424
f 424 428 425
f 427 420 424
f 424 420 419
f 420 429 417
f 417 429 430
f 423 422 431
f 431 422 421
f 421 409 431
f 431 409 408
f 421 432 409
f 409 432 410
f 418 433 421
f 421 433 432
f 434 433 417
f 417 433 418
f 431 416 423
f 423 416 428
f 416 431 407
f 407 431 408
f 435 434 430
f 430 434 417
f 433 434 436
f 436 434 437
f 434 435 437
f 437 435 438
f 436 437 439
f 439 437 440
f 439 441 436
f 436 441 442
f 438 443 437
f 437 443 440
f 436 442 433
f 433 442 432
f 432 442 410
f 410 442 411
f 435 430 445
f 445 430 444
f 430 429 444
f 444 429 446
f 425 428 447
f 447 428 416
f 426 425 448
f 448 425 447
f 416 415 447
f 447 415 449
f 447 449 448
f 448 449 450
f 451 452 448
f 448 452 426
f 446 452 444
f 444 452 451
f 399 411 397
f 397 411 453
f 398 454 404
f 404 454 414
f 454 398 453
f 453 398 397
f 453 441 454
f 454 441 455
f 441 439 455
f 455 439 456
f 454 455 414
f 414 455 457
f 441 453 442
f 442 453 411
f 458 413 457
f 457 413 414
f 458 415 413
f 413 415 412
f 458 459 415
f 415 459 449
f 459 458 460
f 460 458 457
f 461 459 462
f 462 459 460
f 455 456 457
f 457 456 460
f 456 463 460
f 460 463 462
f 459 461 449
f 449 461 450
f 465 450 464
f 464 450 461
f 464 467 466
f 466 467 468
f 464 461 467
f 467 461 462
f 464 466 465
f 465 466 445
f 465 445 451
f 451 445 444
f 451 448 465
f 465 448 450
f 439 440 456
f 456 440 463
f 468 463 443
f 443 463 440
f 468 467 463
f 463 467 462
f 466 468 438
f 438 468 443
f 438 435 466
f 466 435 445
f 420 427 429
f 429 427 446
f 446 427 452
f 452 427 426
f 370 369 188
f 188 369 186
f 371 376 372
f 372 376 375
f 380 379 387
f 387 379 388
f 379 381 388
f 388 381 386
f 385 384 278
f 278 384 270
f 380 387 371
f 371 387 376
f 400 370 271
f 271 370 188
f 385 278 372
f 372 278 247
f 400 384 389
f 389 384 383
f 369 381 186
f 186 381 263
f 221 271 144
f 144 271 188
f 221 19 207
f 207 19 22
f 19 18 22
f 22 18 23
f 18 219 23
f 23 219 208
f 469 470 472
f 472 470 471
f 474 475 473
f 473 475 476
f 473 476 477
f 477 476 478
f 480 481 479
f 479 481 482
f 483 484 474
f 474 484 475
f 486 487 485
f 485 487 488
f 489 490 77
f 77 490 142
f 491 489 248
f 248 489 77
f 493 494 492
f 492 494 495
f 496 480 484
f 484 480 475
f 486 497 487
f 487 497 471
f 498 496 472
f 472 496 484
f 499 493 478
f 478 493 500
f 501 502 504
f 504 502 503
f 493 492 500
f 500 492 505
f 506 477 500
f 500 477 478
f 499 478 479
f 479 478 476
f 469 507 470
f 470 507 508
f 483 509 469
f 469 509 507
f 479 482 499
f 499 482 510
f 492 495 485
f 485 495 511
f 483 469 484
f 484 469 472
f 473 512 474
f 474 512 513
f 497 498 471
f 471 498 472
f 475 480 476
f 476 480 479
f 470 508 514
f 514 508 515
f 506 502 516
f 516 502 501
f 503 502 488
f 488 502 505
f 514 515 503
f 503 515 504
f 485 488 492
f 492 488 505
f 477 506 517
f 517 506 516
f 474 513 483
f 483 513 509
f 510 292 494
f 494 292 164
f 512 473 517
f 517 473 477
f 491 481 496
f 496 481 480
f 502 506 505
f 505 506 500
f 503 488 514
f 514 488 487
f 514 487 470
f 470 487 471
f 517 516 519
f 519 516 518
f 517 519 512
f 512 519 520
f 512 520 513
f 513 520 521
f 513 521 509
f 509 521 522
f 516 501 518
f 518 501 523
f 501 504 523
f 523 504 524
f 524 504 525
f 525 504 515
f 526 527 523
f 523 527 518
f 529 530 528
f 528 530 531
f 532 533 529
f 529 533 530
f 530 533 535
f 535 533 534
f 536 537 535
f 535 537 538
f 534 539 535
f 535 539 536
f 538 531 535
f 535 531 530
f 540 541 531
f 531 541 528
f 533 532 534
f 534 532 542
f 532 520 542
f 542 520 519
f 532 543 520
f 520 543 521
f 529 544 532
f 532 544 543
f 544 529 545
f 545 529 528
f 534 542 539
f 539 542 527
f 527 542 518
f 518 542 519
f 541 546 528
f 528 546 545
f 547 544 548
f 548 544 545
f 546 549 545
f 545 549 548
f 550 547 551
f 551 547 548
f 547 550 553
f 553 550 552
f 549 554 548
f 548 554 551
f 544 547 543
f 543 547 553
f 543 553 521
f 521 553 522
f 546 541 556
f 556 541 555
f 541 540 555
f 555 540 557
f 536 539 558
f 558 539 527
f 537 536 559
f 559 536 558
f 527 526 558
f 558 526 560
f 559 558 561
f 561 558 560
f 559 562 537
f 537 562 563
f 557 563 555
f 555 563 562
f 509 522 507
f 507 522 564
f 508 565 515
f 515 565 525
f 565 508 564
f 564 508 507
f 564 552 565
f 565 552 566
f 552 550 566
f 566 550 567
f 565 566 525
f 525 566 568
f 564 522 552
f 552 522 553
f 569 524 568
f 568 524 525
f 569 526 524
f 524 526 523
f 570 560 569
f 569 560 526
f 570 569 571
f 571 569 568
f 572 570 573
f 573 570 571
f 566 567 568
f 568 567 571
f 567 574 571
f 571 574 573
f 570 572 560
f 560 572 561
f 576 561 575
f 575 561 572
f 575 578 577
f 577 578 579
f 575 572 578
f 578 572 573
f 575 577 576
f 576 577 556
f 576 556 562
f 562 556 555
f 562 559 576
f 576 559 561
f 550 551 567
f 567 551 574
f 579 574 554
f 554 574 551
f 579 578 574
f 574 578 573
f 579 554 577
f 577 554 549
f 549 546 577
f 577 546 556
f 531 538 540
f 540 538 557
f 557 538 563
f 563 538 537
f 481 294 482
f 482 294 293
f 580 486 511
f 511 486 485
f 490 489 497
f 497 489 498
f 489 491 498
f 498 491 496
f 163 495 164
f 164 495 494
f 580 490 486
f 486 490 497
f 482 293 510
f 510 293 292
f 495 163 511
f 511 163 199
f 494 493 510
f 510 493 499
f 481 491 294
f 294 491 248
f 582 583 581
f 581 583 584
f 586 587 585
f 585 587 588
f 585 588 589
f 589 588 590
f 592 593 591
f 591 593 594
f 595 596 598
f 598 596 597
f 599 600 586
f 586 600 587
f 601 602 604
f 604 602 603
f 605 606 608
f 608 606 607
f 609 607 200
f 200 607 606
f 610 611 613
f 613 611 612
f 600 614 587
f 587 614 592
f 596 605 597
f 597 605 608
f 602 615 603
f 603 615 583
f 616 614 584
f 584 614 600
f 611 618 617
f 617 618 590
f 620 621 619
f 619 621 622
f 610 623 611
f 611 623 618
f 624 589 618
f 618 589 590
f 617 590 591
f 591 590 588
f 581 625 582
f 582 625 626
f 599 627 581
f 581 627 625
f 591 594 617
f 617 594 628
f 601 610 598
f 598 610 613
f 581 584 599
f 599 584 600
f 585 629 586
f 586 629 630
f 615 616 583
f 583 616 584
f 587 592 588
f 588 592 591
f 582 626 631
f 631 626 632
f 624 620 633
f 633 620 619
f 621 620 604
f 604 620 623
f 631 632 621
f 621 632 622
f 610 601 623
f 623 601 604
f 589 624 634
f 634 624 633
f 586 630 599
f 599 630 627
f 203 202 628
f 628 202 612
f 629 585 634
f 634 585 589
f 609 593 614
f 614 593 592
f 620 624 623
f 623 624 618
f 631 621 603
f 603 621 604
f 582 631 583
f 583 631 603
f 634 633 636
f 636 633 635
f 634 636 629
f 629 636 637
f 629 637 630
f 630 637 638
f 630 638 627
f 627 638 639
f 633 619 635
f 635 619 640
f 619 622 640
f 640 622 641
f 641 622 642
f 642 622 632
f 644 635 643
f 643 635 640
f 645 646 648
f 648 646 647
f 649 650 646
f 646 650 647
f 647 650 652
f 652 650 651
f 652 653 655
f 655 653 654
f 651 656 652
f 652 656 653
f 655 648 652
f 652 648 647
f 648 657 645
f 645 657 658
f 650 649 651
f 651 649 659
f 649 637 659
f 659 637 636
f 649 660 637
f 637 660 638
f 661 660 646
f 646 660 649
f 662 661 645
f 645 661 646
f 651 659 656
f 656 659 644
f 644 659 635
f 635 659 636
f 663 662 658
f 658 662 645
f 664 661 665
f 665 661 662
f 663 666 662
f 662 666 665
f 667 664 668
f 668 664 665
f 664 667 670
f 670 667 669
f 666 671 665
f 665 671 668
f 661 664 660
f 660 664 670
f 660 670 638
f 638 670 639
f 658 672 663
f 663 672 673
f 658 657 672
f 672 657 674
f 653 656 675
f 675 656 644
f 653 675 654
f 654 675 676
f 675 644 677
f 677 644 643
f 676 675 678
f 678 675 677
f 679 680 676
f 676 680 654
f 674 680 672
f 672 680 679
f 627 639 625
f 625 639 681
f 626 682 632
f 632 682 642
f 681 682 625
f 625 682 626
f 669 683 681
f 681 683 682
f 667 684 669
f 669 684 683
f 682 683 642
f 642 683 685
f 681 639 669
f 669 639 670
f 686 641 685
f 685 641 642
f 641 686 640
f 640 686 643
f 686 687 643
f 643 687 677
f 687 686 688
f 688 686 685
f 689 687 690
f 690 687 688
f 683 684 685
f 685 684 688
f 684 691 688
f 688 691 690
f 687 689 677
f 677 689 678
f 693 678 692
f 692 678 689
f 692 695 694
f 694 695 696
f 692 689 695
f 695 689 690
f 692 694 693
f 693 694 673
f 693 673 679
f 679 673 672
f 679 676 693
f 693 676 678
f 684 667 691
f 691 667 668
f 696 691 671
f 671 691 668
f 696 695 691
f 691 695 690
f 694 696 666
f 666 696 671
f 666 663 694
f 694 663 673
f 648 655 657
f 657 655 674
f 674 655 680
f 680 655 654
f 593 162 594
f 594 162 290
f 598 597 601
f 601 597 602
f 615 608 616
f 616 608 607
f 607 609 616
f 616 609 614
f 697 595 613
f 613 595 598
f 597 608 602
f 602 608 615
f 594 290 628
f 628 290 203
f 628 612 617
f 617 612 611
f 593 609 162
f 162 609 200
f 105 29 698
f 698 29 699
f 268 126 701
f 701 126 700
f 126 125 700
f 700 125 702
f 252 703 250
f 250 703 704
f 32 268 705
f 705 268 701
f 288 105 706
f 706 105 698
f 29 32 699
f 699 32 705
f 707 251 706
f 706 251 288
f 250 704 125
f 125 704 702
f 703 252 707
f 707 252 251
f 706 708 707
f 707 708 709
f 707 709 703
f 703 709 710
f 703 710 704
f 704 710 711
f 704 711 702
f 702 711 712
f 706 698 708
f 708 698 713
f 698 699 713
f 713 699 714
f 699 705 714
f 714 705 715
f 717 708 716
f 716 708 713
f 719 720 718
f 718 720 721
f 722 723 719
f 719 723 720
f 724 725 723
f 723 725 720
f 724 726 725
f 725 726 727
f 728 721 725
f 725 721 720
f 721 728 729
f 729 728 730
f 729 731 721
f 721 731 718
f 724 723 732
f 732 723 722
f 722 710 732
f 732 710 709
f 722 733 710
f 710 733 711
f 719 734 722
f 722 734 733
f 734 719 735
f 735 719 718
f 724 732 726
f 726 732 717
f 717 732 708
f 708 732 709
f 731 736 718
f 718 736 735
f 737 734 738
f 738 734 735
f 736 739 735
f 735 739 738
f 740 737 741
f 741 737 738
f 737 740 743
f 743 740 742
f 739 744 738
f 738 744 741
f 734 737 733
f 733 737 743
f 733 743 711
f 711 743 712
f 736 731 746
f 746 731 745
f 731 729 745
f 745 729 730
f 727 726 747
f 747 726 717
f 748 727 749
f 749 727 747
f 747 717 750
f 750 717 716
f 749 747 751
f 751 747 750
f 749 752 748
f 748 752 753
f 730 753 745
f 745 753 752
f 728 725 748
f 748 725 727
f 730 728 753
f 753 728 748
f 700 702 754
f 754 702 712
f 705 701 715
f 715 701 755
f 754 755 700
f 700 755 701
f 742 756 754
f 754 756 755
f 740 757 742
f 742 757 756
f 755 756 715
f 715 756 758
f 754 712 742
f 742 712 743
f 759 714 758
f 758 714 715
f 714 759 713
f 713 759 716
f 759 760 716
f 716 760 750
f 760 759 761
f 761 759 758
f 762 760 763
f 763 760 761
f 756 757 758
f 758 757 761
f 757 764 761
f 761 764 763
f 760 762 750
f 750 762 751
f 766 751 765
f 765 751 762
f 767 765 769
f 769 765 768
f 765 762 768
f 768 762 763
f 765 767 766
f 766 767 746
f 766 746 752
f 752 746 745
f 752 749 766
f 766 749 751
f 757 740 764
f 764 740 741
f 769 764 744
f 744 764 741
f 769 768 764
f 764 768 763
f 767 769 739
f 739 769 744
f 739 736 767
f 767 736 746
f 219 217 208
f 208 217 209
f 209 217 210
f 210 217 193
f 198 580 199
f 199 580 511
f 76 75 289
f 289 75 272
f 277 207 291
f 291 207 184
f 290 183 203
f 203 183 84
f 490 580 142
f 142 580 198
f 142 198 143
f 143 198 197
f 149 276 72
f 72 276 73
f 104 103 279
f 279 103 770
f 770 596 279
f 279 596 595
f 605 596 771
f 771 596 770
f 771 770 772
f 772 770 103
f 772 103 773
f 773 103 102
f 155 774 101
f 101 774 102
f 773 102 97
f 97 102 774
f 775 773 100
f 100 773 97
f 773 775 772
f 772 775 776
f 772 776 771
f 771 776 777
f 200 606 197
f 197 606 777
f 189 71 778
f 778 71 74
f 97 774 98
f 98 774 155
f 183 161 184
f 184 161 291
f 777 276 197
f 197 276 143
f 777 606 771
f 771 606 605
f 613 612 697
f 697 612 202
f 595 697 279
f 279 697 202
f 73 276 776
f 776 276 777
f 776 775 73
f 73 775 74
f 100 778 775
f 775 778 74
f 778 100 189
f 189 100 99
f 245 242 99
f 99 242 189
f 131 33 256
f 28 1 95
f 95 1 62
f 27 2 28
f 28 2 1
f 265 115 266
f 266 115 114
f 95 62 69
f 69 62 64
f 62 61 64
f 64 61 65
f 61 13 65
f 65 13 130
f 13 12 130
f 130 12 14
f 31 11 32
f 32 11 268
f 15 12 31
f 31 12 11
f 31 30 15
f 15 30 231
f 30 106 231
f 231 106 232
f 287 237 106
f 106 237 232
f 254 90 287
f 287 90 237
f 253 44 254
f 254 44 90
f 253 249 44
f 44 249 7
f 267 127 268
f 268 127 126
f 10 3 241
f 241 3 116
f 3 2 116
f 116 2 114
f 2 27 114
f 114 27 266
f 27 26 266
f 266 26 113
f 26 286 113
f 113 286 110
f 286 243 110
f 110 243 255
f 243 242 255
f 255 242 256
f 242 245 256
f 256 245 131
f 245 244 131
f 131 244 132
f 265 37 115
f 115 37 41
f 41 37 42
f 42 37 40
f 92 91 40
f 40 91 42
f 236 233 92
f 92 233 91
f 191 194 236
f 236 194 233
f 258 285 244
f 244 285 132
f 257 55 258
f 258 55 285
f 257 154 201
f 201 154 185
f 56 201 204
f 204 201 180
f 55 257 56
f 56 257 201
f 204 85 56
f 56 85 52
f 86 122 53
f 53 122 79
f 212 215 86
f 86 215 122
f 211 216 212
f 212 216 215
f 192 280 211
f 211 280 216
f 191 240 192
f 192 240 280
f 249 124 7
f 7 124 8
f 124 127 8
f 8 127 241
f 127 267 241
f 241 267 10
f 10 267 9
f 9 267 11
