v -0.006610918790102005 0.011362353339791298 1.6662027835845947
v 0.005130480974912643 0.00717378593981266 1.6660674810409546
v -0.0017060041427612305 0.0029139798134565353 1.6736270189285278
v -0.012040086090564728 0.0074433330446481705 1.6731669902801514
v 0.01800355687737465 0.0002075284719467163 1.6843559741973877
v 0.02318277582526207 0.005953684449195862 1.6933919191360474
v 0.0065703801810741425 0.0033852029591798782 1.6984533071517944
v 0.005324326455593109 -0.002105262130498886 1.6900733709335327
v -0.016949355602264404 0.007178906351327896 1.6786049604415894
v -0.007970068603754044 0.001119818538427353 1.678991675376892
v -0.017976466566324234 0.012081876397132874 1.680422067642212
v -0.026149947196245193 0.021539771929383278 1.6826320886611938
v -0.025318775326013565 0.014913627877831459 1.6803704500198364
v -0.03334854543209076 0.02575071156024933 1.6826212406158447
v -0.02005702257156372 0.0312705934047699 1.6828453540802002
v -0.03121630661189556 0.034134458750486374 1.6786999702453613
v -0.011596523225307465 0.045661456882953644 1.6624690294265747
v -0.00797605887055397 0.04657177999615669 1.6501795053482056
v -0.023520465940237045 0.04445001110434532 1.6489099264144897
v -0.025637511163949966 0.04307946935296059 1.661615014076233
v -0.01310589537024498 0.04109744355082512 1.6318306922912598
v -0.019869819283485413 0.04308495298027992 1.6410340070724487
v -0.0041259899735450745 0.04629191756248474 1.6422977447509766
v 0.00110611692070961 0.04413393884897232 1.6338896751403809
v 0.0014531873166561127 0.016158577054739 1.6537375450134277
v 0.01257290318608284 0.014238600619137287 1.6526864767074585
v 0.010394427925348282 0.012340827845036983 1.6572612524032593
v -0.0005276836454868317 0.014943600632250309 1.6583691835403442
v -0.018330808728933334 0.015787716954946518 1.6867722272872925
v -0.011731922626495361 0.024206658825278282 1.688929557800293
v -0.0165376178920269 0.020114507526159286 1.6842584609985352
v -0.01841595396399498 0.010992081835865974 1.6839264631271362
v 0.03844298794865608 0.008119907230138779 1.6446359157562256
v 0.05028890445828438 0.01390733104199171 1.646934151649475
v 0.049624379724264145 0.01438109390437603 1.652796983718872
v 0.03897695615887642 0.009312058798968792 1.6493752002716064
v 0.042284149676561356 0.011380273848772049 1.6774191856384277
v 0.049042124301195145 0.016975685954093933 1.671679139137268
v 0.05312252417206764 0.026205813512206078 1.680821418762207
v 0.04448306933045387 0.02424030750989914 1.685451865196228
v 0.033529285341501236 0.007596228271722794 1.6862986087799072
v 0.03576189652085304 0.01856544427573681 1.6923573017120361
v 0.022811900824308395 0.016438495367765427 1.6986608505249023
v 0.005017820745706558 0.011925537139177322 1.7025765180587769
v 0.05177270248532295 0.01581508293747902 1.6343721151351929
v 0.04345158115029335 0.011353803798556328 1.6309139728546143
v -0.08026865124702454 0.04896249622106552 1.6719815731048584
v -0.07963082194328308 0.04957762360572815 1.6662849187850952
v -0.07688237726688385 0.041935041546821594 1.6674706935882568
v -0.07780840247869492 0.04311761632561684 1.6728651523590088
v 0.04514269903302193 0.03000524267554283 1.6219083070755005
v 0.04371294006705284 0.039950333535671234 1.6227450370788574
v 0.050862934440374374 0.038848720490932465 1.62251877784729
v 0.052404750138521194 0.02965548075735569 1.6236047744750977
v 0.03548537567257881 0.030276501551270485 1.6198251247406006
v 0.033706095069646835 0.04078560695052147 1.6236066818237305
v -0.0707453116774559 0.053955137729644775 1.6772277355194092
v -0.07532982528209686 0.05206618830561638 1.6778995990753174
v -0.0721261277794838 0.047989461570978165 1.6786030530929565
v -0.06713073700666428 0.049956731498241425 1.6769126653671265
v -0.021858466789126396 0.011981755495071411 1.6752218008041382
v -0.016803186386823654 0.012617504224181175 1.667433261871338
v -0.04452327638864517 0.01616721600294113 1.6738864183425903
v -0.0313325896859169 0.014599650166928768 1.67019784450531
v -0.031867414712905884 0.015027797780930996 1.6773707866668701
v -0.04215109348297119 0.017887601628899574 1.6797844171524048
v -0.02098832279443741 0.016969721764326096 1.6487523317337036
v -0.009241078048944473 0.017309147864580154 1.6500236988067627
v -0.01224122941493988 0.017054155468940735 1.6557369232177734
v -0.025430280715227127 0.016063423827290535 1.6561254262924194
v -0.004944425076246262 0.014509721659123898 1.6368716955184937
v -0.01689675822854042 0.0147549444809556 1.6366738080978394
v -0.01322503387928009 0.013006049208343029 1.6292147636413574
v -0.005239717662334442 0.012316206470131874 1.6307073831558228
v -0.03986659273505211 0.016475189477205276 1.6391990184783936
v -0.04818619415163994 0.020363733172416687 1.638648271560669
v -0.04806195944547653 0.022753935307264328 1.633597731590271
v -0.03857035934925079 0.017372149974107742 1.6352261304855347
v 0.05789007619023323 0.038846928626298904 1.6227608919143677
v 0.05914397910237312 0.029715508222579956 1.6261307001113892
v -0.0039715878665447235 0.03420446068048477 1.6141612529754639
v 0.0020353756844997406 0.02660500817000866 1.6090642213821411
v -0.009944252669811249 0.02460184320807457 1.6048814058303833
v -0.012522213160991669 0.03283952921628952 1.6116511821746826
v 0.04057682678103447 0.04759333282709122 1.6290100812911987
v 0.048049140721559525 0.04754243046045303 1.6267071962356567
v -0.0665217787027359 0.05580420047044754 1.6730625629425049
v -0.06370817124843597 0.05222315341234207 1.6722522974014282
v 0.022076677531003952 0.02772727981209755 1.6961586475372314
v 0.0031183473765850067 0.02063661441206932 1.70122492313385
v 0.03552187606692314 0.03177330270409584 1.6897437572479248
v 0.04402484372258186 0.03537210077047348 1.684460163116455
v 0.05217717960476875 0.037652961909770966 1.6826341152191162
v -0.03531154245138168 0.014425920322537422 1.6642438173294067
v -0.010451678186655045 0.015049249865114689 1.6609952449798584
v 0.003118518739938736 0.016098927706480026 1.6491986513137817
v 0.00791480764746666 0.00823761522769928 1.6200617551803589
v 0.018449466675519943 0.007961306720972061 1.6217880249023438
v 0.012730229645967484 0.00782768428325653 1.6307001113891602
v 0.0046743229031562805 0.008758598938584328 1.6272764205932617
v 0.0025196336209774017 0.01696772314608097 1.608060598373413
v -0.0004607737064361572 0.011042051948606968 1.612412691116333
v -0.010140102356672287 0.011137078516185284 1.6103147268295288
v -0.008406877517700195 0.016256563365459442 1.605440378189087
v -0.018067043274641037 0.018853556364774704 1.6932612657546997
v -0.006941020488739014 0.027053624391555786 1.6934446096420288
v 0.045885760337114334 0.01993555575609207 1.6247063875198364
v 0.052515577524900436 0.020820531994104385 1.6285021305084229
v 0.060126449912786484 0.023512788116931915 1.6306971311569214
v 0.025856588035821915 0.010161099955439568 1.6501156091690063
v 0.039463724941015244 0.009891797788441181 1.6528966426849365
v 0.038652751594781876 0.009071060456335545 1.657936930656433
v 0.02536020800471306 0.010216329246759415 1.653067708015442
v 0.017576847225427628 0.002417471259832382 1.6689499616622925
v 0.029592443257570267 0.0030859671533107758 1.6740362644195557
v 0.008149392902851105 -0.0015878230333328247 1.6768765449523926
v 0.05052909627556801 0.01528926007449627 1.661156177520752
v 0.05934892222285271 0.016467109322547913 1.6547023057937622
v 0.05891582742333412 0.018168406561017036 1.6635067462921143
v 0.06028858944773674 0.017238253727555275 1.644992709159851
v 0.0606083981692791 0.019417548552155495 1.6363660097122192
v 0.055860329419374466 0.05037004128098488 1.6251065731048584
v 0.057409513741731644 0.021385982632637024 1.6712712049484253
v -0.00348803773522377 -0.0026358477771282196 1.6922341585159302
v -0.011605679988861084 -0.0031086113303899765 1.692807912826538
v -0.013210829347372055 -0.00154087133705616 1.6854875087738037
v -0.006599407643079758 -0.0015088152140378952 1.6845223903656006
v -0.04193075746297836 0.030669866129755974 1.6822706460952759
v -0.04317862540483475 0.023268330842256546 1.6828713417053223
v -0.03191883862018585 0.018859993666410446 1.6828244924545288
v 0.028876792639493942 0.0070565324276685715 1.6382873058319092
v 0.033637966960668564 0.009527926333248615 1.6269640922546387
v -0.047947291284799576 0.017863307148218155 1.6679589748382568
v -0.06250330060720444 0.05036338418722153 1.6764849424362183
v -0.06642299145460129 0.04679020866751671 1.67923903465271
v -0.05313409864902496 0.039696648716926575 1.680794358253479
v -0.050734713673591614 0.044530097395181656 1.6773700714111328
v -0.054857444018125534 0.027935687452554703 1.6627699136734009
v -0.05350467935204506 0.02347055822610855 1.6674307584762573
v -0.056181129068136215 0.027689795941114426 1.6666557788848877
v -0.0572206974029541 0.03188839927315712 1.6620707511901855
v -0.04250645637512207 0.020517652854323387 1.6267274618148804
v -0.03446575254201889 0.0161326602101326 1.627954363822937
v -0.040406834334135056 0.038032107055187225 1.660168170928955
v -0.03674723207950592 0.03963959962129593 1.6718900203704834
v -0.027460215613245964 0.04077707231044769 1.670940637588501
v -0.01785362884402275 0.01616605371236801 1.6420354843139648
v -0.028726542368531227 0.015613040886819363 1.6400398015975952
v -0.02761995606124401 0.015376023948192596 1.6360039710998535
v -0.038881998509168625 0.015499506145715714 1.6607478857040405
v -0.0487029068171978 0.018945546820759773 1.6620436906814575
v -0.04451005533337593 0.017648199573159218 1.6572792530059814
v -0.035162124782800674 0.016213273629546165 1.6558837890625
v 0.014346208423376083 0.029072269797325134 1.6123889684677124
v 0.015204612165689468 0.017663810402154922 1.6108238697052002
v -0.07872515171766281 0.0500248521566391 1.6761343479156494
v -0.07571588456630707 0.04501698911190033 1.6769793033599854
v -0.006412137299776077 0.01653388887643814 1.643419861793518
v -0.014537248760461807 0.04173652455210686 1.671157956123352
v 0.004940096288919449 0.015348955988883972 1.6441525220870972
v -0.0275370292365551 0.03215593844652176 1.6216832399368286
v -0.028633112087845802 0.02726619876921177 1.6178778409957886
v -0.034045636653900146 0.0279695987701416 1.6195483207702637
v -0.032591063529253006 0.033042680472135544 1.6214094161987305
v -0.06705053895711899 0.042595915496349335 1.6593759059906006
v -0.07077371329069138 0.03966693580150604 1.6629337072372437
v -0.07459119707345963 0.043021008372306824 1.6616325378417969
v -0.07038749754428864 0.04545636475086212 1.6588388681411743
v -0.05260062962770462 0.022698964923620224 1.6731743812561035
v -0.05058504641056061 0.023680463433265686 1.6793102025985718
v -0.05668984726071358 0.028871409595012665 1.6773605346679688
v -0.057026706635951996 0.027812741696834564 1.6717115640640259
v -0.0500248521566391 0.02968435548245907 1.682029366493225
v -0.05514497309923172 0.033812038600444794 1.6807795763015747
v -0.06220266595482826 0.04711107164621353 1.660317301750183
v -0.05835281312465668 0.051344871520996094 1.6656763553619385
v -0.05022706463932991 0.04490842670202255 1.6648094654083252
v -0.0552857331931591 0.039464063942432404 1.6617175340652466
v 0.01520310714840889 0.04744003340601921 1.636313796043396
v 0.018942441791296005 0.04355800896883011 1.6267133951187134
v 0.004978254437446594 0.04021842032670975 1.6240063905715942
v -0.00819103792309761 0.037537265568971634 1.6209840774536133
v -0.020490024238824844 0.03356350585818291 1.6193671226501465
v -0.02437509223818779 0.03878018260002136 1.6297276020050049
v 0.00889769196510315 0.037074435502290726 1.6178079843521118
v -0.05197909474372864 0.0328206829726696 1.6579554080963135
v -0.0453638881444931 0.03794075548648834 1.664413571357727
v -0.04701521247625351 0.03615540266036987 1.658997654914856
v 0.006507113575935364 0.012618537060916424 1.637459397315979
v -0.06929010152816772 0.043327465653419495 1.6787391901016235
v 0.04106387868523598 0.05145733430981636 1.6709637641906738
v 0.041202228516340256 0.05523211508989334 1.6585944890975952
v 0.032773200422525406 0.05324261263012886 1.6601849794387817
v 0.03235622122883797 0.04854091256856918 1.673413634300232
v -0.07240520417690277 0.037979308515787125 1.6694309711456299
v -0.07217636704444885 0.039538465440273285 1.6752195358276367
v -0.03304117172956467 0.016055241227149963 1.621584177017212
v -0.03915045037865639 0.020504381507635117 1.6220279932022095
v -0.03828508406877518 0.02273053303360939 1.6193987131118774
v -0.03321292996406555 0.017636269330978394 1.616842269897461
v 0.02215573564171791 0.04100611060857773 1.622564435005188
v -0.01826326921582222 0.023320699110627174 1.6027936935424805
v -0.018921684473752975 0.030968602746725082 1.6080597639083862
v 0.03121441975235939 0.04652094841003418 1.6295031309127808
v 0.0280400849878788 0.050488583743572235 1.637756586074829
v 0.037484731525182724 0.05250152572989464 1.6382248401641846
v -0.03587426245212555 0.03899279609322548 1.640282392501831
v 0.01054365560412407 0.04899493604898453 1.6433883905410767
v 0.024597596377134323 0.05144248902797699 1.6444793939590454
v 0.03576166555285454 0.05385587364435196 1.6453577280044556
v 0.04377787187695503 0.056084055453538895 1.6452505588531494
v 0.04489876702427864 0.05414984002709389 1.6374521255493164
v -0.05962351709604263 0.051606547087430954 1.670997142791748
v -0.06202244013547897 0.052155494689941406 1.6663296222686768
v 0.05318814888596535 0.05750434845685959 1.636007308959961
v 0.051699038594961166 0.05891367048025131 1.645013451576233
v 0.02145475521683693 0.05166720971465111 1.65311598777771
v 0.017992567270994186 0.050669677555561066 1.6630696058273315
v 0.007978808134794235 0.049146465957164764 1.6516034603118896
v 0.0033996403217315674 0.048025213181972504 1.6615564823150635
v -0.03418835997581482 0.042553022503852844 1.6499322652816772
v -0.07081801444292068 0.06569031625986099 1.6630059480667114
v -0.06711877882480621 0.055605366826057434 1.6618599891662598
v -0.07181073725223541 0.053296297788619995 1.6592018604278564
v -0.07349039614200592 0.06407783925533295 1.6601183414459229
v -0.06560780853033066 0.04885706305503845 1.660676121711731
v -0.06454841792583466 0.05634067580103874 1.6670244932174683
v 0.0003481470048427582 0.04304531216621399 1.672911286354065
v -0.05404263734817505 0.023388458415865898 1.6567617654800415
v 0.01634254679083824 0.04363211244344711 1.6765140295028687
v -0.007660888135433197 0.03587352856993675 1.6841967105865479
v 0.003991376608610153 0.03512074053287506 1.687385082244873
v 0.03260296210646629 0.042811840772628784 1.6828683614730835
v 0.019171979278326035 0.036908626556396484 1.6898952722549438
v 0.049795519560575485 0.04675546661019325 1.6783504486083984
v 0.04107613489031792 0.0452326238155365 1.6796735525131226
v 0.005513761192560196 0.029994167387485504 1.6955488920211792
v -0.08366537094116211 0.059140633791685104 1.6675224304199219
v -0.08163051307201385 0.05911978334188461 1.6624935865402222
v 0.049064699560403824 0.053772300481796265 1.670150637626648
v -0.0005750693380832672 -0.0021916627883911133 1.6818257570266724
v 0.01676754280924797 0.010764301754534245 1.6407229900360107
v 0.015165258198976517 0.012889870442450047 1.6454901695251465
v 0.02459254488348961 0.008348284289240837 1.6235547065734863
v 0.019860263913869858 0.007568009197711945 1.6341803073883057
v -0.0828675925731659 0.05999328941106796 1.6724399328231812
v -0.04950639232993126 0.026335183531045914 1.6372556686401367
v -0.04878503829240799 0.0280672088265419 1.6347941160202026
v -0.00306069478392601 0.0013542063534259796 1.6996594667434692
v -0.01070021465420723 -2.47173011302948e-05 1.6996772289276123
v -0.0162518247961998 0.011567927896976471 1.7020984888076782
v -0.013489600270986557 0.005064727738499641 1.7033607959747314
v -0.0049892812967300415 0.008893013000488281 1.7034457921981812
v -0.007571075111627579 0.016038497909903526 1.7021410465240479
v 0.025923941284418106 0.009734726510941982 1.6476523876190186
v 0.026287507265806198 0.008883273229002953 1.6439374685287476
v 0.025656137615442276 0.029521264135837555 1.6160765886306763
v 0.025845255702733994 0.018117936328053474 1.6148494482040405
v -0.047751590609550476 0.03526667505502701 1.6812158823013306
v -0.0398244634270668 0.036654382944107056 1.6786041259765625
v -0.045180924236774445 0.040427252650260925 1.677428960800171
v -0.04823695868253708 0.045990534126758575 1.6714311838150024
v -0.055715903639793396 0.029754960909485817 1.6562811136245728
v -0.05192505940794945 0.03361678496003151 1.661967158317566
v 0.03435911610722542 0.005957294255495071 1.6647512912750244
v 0.02281675860285759 0.0074964165687561035 1.6594243049621582
v -0.011544596403837204 0.002445526421070099 1.6815741062164307
v -0.016059454530477524 0.0037822574377059937 1.6820591688156128
v -0.03058873862028122 0.016208583489060402 1.6490639448165894
v -0.04199988394975662 0.0379771925508976 1.6420953273773193
v -0.04126757010817528 0.041835859417915344 1.6499541997909546
v -0.041132181882858276 0.01713198982179165 1.6488813161849976
v -0.07631108909845352 0.06424108147621155 1.675081491470337
v -0.08066845685243607 0.06175873056054115 1.6746231317520142
v -0.043723784387111664 0.04186548292636871 1.6716457605361938
v -0.024599039927124977 0.013106072321534157 1.628449559211731
v -0.038784898817539215 0.035495299845933914 1.6372226476669312
v -0.04484613612294197 0.03246300667524338 1.6384574174880981
v -0.015468180179595947 0.015673622488975525 1.604247808456421
v 0.04984430596232414 0.057253964245319366 1.6581817865371704
v -0.07670159637928009 0.0515182763338089 1.6608341932296753
v -0.07829110324382782 0.060282059013843536 1.6592602729797363
v -0.06908221542835236 0.06628590822219849 1.6669217348098755
v -0.07066203653812408 0.06539817154407501 1.6722710132598877
v 0.03516511246562004 0.0182199589908123 1.620153784751892
v 0.013758603483438492 0.01400064304471016 1.6485505104064941
v -0.006787795573472977 0.023989513516426086 1.6973463296890259
v -0.017443280667066574 0.01716793328523636 1.6978013515472412
v -0.049753669649362564 0.01970052346587181 1.6482048034667969
v -0.023380275815725327 0.030861705541610718 1.6147620677947998
v -0.03115425631403923 0.03789248317480087 1.628490924835205
v -0.034544602036476135 0.039110228419303894 1.6270718574523926
v -0.04034658521413803 0.0395977757871151 1.6309093236923218
v -0.04719061031937599 0.036301158368587494 1.6318135261535645
v -0.07101549208164215 0.06975515186786652 1.664903163909912
v -0.07289163768291473 0.07040470838546753 1.670647382736206
v -0.07823136448860168 0.07084141671657562 1.672950267791748
v -0.08273977786302567 0.06824281811714172 1.672616720199585
v -0.08465500175952911 0.06423990428447723 1.6704487800598145
v -0.07297144085168839 0.06881747394800186 1.6610169410705566
v -0.07566624879837036 0.0672198161482811 1.6587328910827637
v -0.07993906736373901 0.06283070147037506 1.6587995290756226
v -0.07403325289487839 0.07159589976072311 1.6585215330123901
v -0.07271607965230942 0.07540004700422287 1.6612586975097656
v -0.08160398155450821 0.08316245675086975 1.6661630868911743
v -0.07853446155786514 0.07891793549060822 1.6686221361160278
v -0.07772614061832428 0.08062467724084854 1.6667324304580688
v -0.07921582460403442 0.08461824804544449 1.664475679397583
v -0.07933322340250015 0.08868905901908875 1.6615644693374634
v -0.08248072862625122 0.08758316934108734 1.6630569696426392
v -0.07469280064105988 0.07772231101989746 1.66533362865448
v -0.07598350197076797 0.0829487070441246 1.6619250774383545
v -0.07428564131259918 0.08119021356105804 1.6584914922714233
v -0.07445452362298965 0.08597715198993683 1.6561733484268188
v -0.07594901323318481 0.08789661526679993 1.6592729091644287
v -0.0735318586230278 0.07787267863750458 1.661213994026184
v -0.07412921637296677 0.0762263610959053 1.6665587425231934
v -0.08155880123376846 0.09018508344888687 1.6594620943069458
v -0.07900656014680862 0.09068600088357925 1.6595584154129028
v -0.07660718262195587 0.09000620990991592 1.6573024988174438
v -0.07878104597330093 0.09078430384397507 1.6552644968032837
v -0.0830952376127243 0.07452396303415298 1.6703306436538696
v -0.083863265812397 0.08198542892932892 1.6658879518508911
v -0.08444348722696304 0.08576519787311554 1.6614043712615967
v -0.0833330899477005 0.0884866863489151 1.6579737663269043
v -0.08584839105606079 0.08038701117038727 1.6628059148788452
v -0.08526076376438141 0.08383023738861084 1.659347653388977
v -0.08430862426757812 0.08595192432403564 1.6560183763504028
v -0.08634750545024872 0.07853882014751434 1.659023642539978
v -0.08530953526496887 0.08219264447689056 1.656648874282837
v -0.08661547303199768 0.0669761598110199 1.6654918193817139
v -0.08561919629573822 0.06964309513568878 1.6689624786376953
v -0.08489790558815002 0.0842425525188446 1.654963493347168
v -0.08005906641483307 0.08936668187379837 1.6539452075958252
v -0.07410883903503418 0.0781870186328888 1.6565001010894775
v -0.07538297772407532 0.08400769531726837 1.653555989265442
v -0.07520194351673126 0.07687227427959442 1.6550759077072144
v -0.07627342641353607 0.08249431848526001 1.6518032550811768
v -0.07587721943855286 0.08806584775447845 1.652451753616333
v -0.0753219947218895 0.08841454237699509 1.655052900314331
v -0.08452436327934265 0.061514437198638916 1.666301965713501
v -0.08254498988389969 0.06116027012467384 1.6614530086517334
v -0.08437347412109375 0.06524385511875153 1.6604151725769043
v -0.08467788994312286 0.07665438950061798 1.6551826000213623
v -0.08128206431865692 0.066033273935318 1.657372236251831
v -0.07653369009494781 0.07042757421731949 1.6564229726791382
v -0.07724417746067047 0.07642869651317596 1.6533576250076294
v -0.08043383061885834 0.07585299015045166 1.6528576612472534
v -0.07829402387142181 0.08094047009944916 1.651334524154663
v -0.08077076822519302 0.08028294146060944 1.6518385410308838
v -0.08396821469068527 0.08089277893304825 1.653600811958313
v -0.07974548637866974 0.08455042541027069 1.650980830192566
v -0.07742863893508911 0.08655128628015518 1.6513088941574097
v -0.08196885883808136 0.08668268471956253 1.6529803276062012
v -0.08107241988182068 0.08299687504768372 1.6513952016830444
v -0.08298350870609283 0.0841631293296814 1.6532187461853027
v -0.07447730004787445 0.050984252244234085 1.6231831312179565
v -0.06923512369394302 0.04933372139930725 1.6208504438400269
v -0.070311538875103 0.041169021278619766 1.6262214183807373
v -0.07392443716526031 0.04317869991064072 1.6294562816619873
v -0.0713164359331131 0.05559039115905762 1.6350972652435303
v -0.07561422884464264 0.05456843972206116 1.6313660144805908
v -0.07323717325925827 0.05033373832702637 1.6371345520019531
v -0.06728529185056686 0.0528259351849556 1.6383312940597534
v -0.0653533935546875 0.05509832501411438 1.6348910331726074
v -0.061627186834812164 0.05203970521688461 1.6362605094909668
v -0.06334519386291504 0.05341125279664993 1.6405514478683472
v -0.06900723278522491 0.049173079431056976 1.6411370038986206
v -0.05601352080702782 0.037681370973587036 1.6524492502212524
v -0.05180561915040016 0.04324515163898468 1.6509926319122314
v -0.05390018969774246 0.024719469249248505 1.6399303674697876
v -0.052343402057886124 0.02803865075111389 1.6380046606063843
v -0.07618208974599838 0.05286812037229538 1.626760721206665
v -0.07498390972614288 0.046807661652565 1.6336618661880493
v -0.06171697750687599 0.039428696036338806 1.6251226663589478
v -0.06632570922374725 0.037723809480667114 1.627344012260437
v -0.06627089530229568 0.040874794125556946 1.6233896017074585
v -0.06186865270137787 0.042523205280303955 1.6232742071151733
v -0.05798406898975372 0.028706185519695282 1.6503863334655762
v -0.05553608760237694 0.0250980444252491 1.6456831693649292
v -0.0578756257891655 0.03303425759077072 1.6514726877212524
v -0.05736984685063362 0.04392331466078758 1.6262686252593994
v -0.054932333528995514 0.04924165457487106 1.629621148109436
v -0.04516035318374634 0.04130156338214874 1.6389436721801758
v -0.04746490716934204 0.035458628088235855 1.636330246925354
v -0.07212051749229431 0.045020945370197296 1.6390045881271362
v -0.07015003263950348 0.03836527094244957 1.6313632726669312
v -0.07247772812843323 0.04069993272423744 1.635028600692749
v -0.05790235474705696 0.052956659346818924 1.635920524597168
v -0.057967670261859894 0.05024130642414093 1.6303412914276123
v -0.05520449951291084 0.06283915042877197 1.62301504611969
v -0.05832122266292572 0.05134587734937668 1.6269603967666626
v -0.06028952822089195 0.04998273029923439 1.6225290298461914
v -0.0561637356877327 0.06164431944489479 1.6182289123535156
v -0.05904483422636986 0.04580463469028473 1.6263940334320068
v -0.060209110379219055 0.053437598049640656 1.6313246488571167
v -0.06879164278507233 0.06546945124864578 1.6156344413757324
v -0.06350356340408325 0.06318018585443497 1.6134651899337769
v -0.07088321447372437 0.06758624315261841 1.619064211845398
v -0.047070588916540146 0.04489288479089737 1.6451504230499268
v -0.0682855173945427 0.06852665543556213 1.6285747289657593
v -0.07136648893356323 0.06839479506015778 1.6232309341430664
v -0.06394316256046295 0.04911617189645767 1.6201634407043457
v -0.0589609332382679 0.06204350292682648 1.614629864692688
v -0.05643252283334732 0.06466175615787506 1.6271082162857056
v -0.06245886906981468 0.06633959710597992 1.6307820081710815
v -0.05463416129350662 0.06820102035999298 1.6223219633102417
v -0.05879868566989899 0.07170894742012024 1.6257144212722778
v -0.06416766345500946 0.07439249753952026 1.6236270666122437
v -0.06783361732959747 0.07393155992031097 1.6191651821136475
v -0.06856755912303925 0.07196563482284546 1.6158777475357056
v -0.05404023826122284 0.06644704937934875 1.6187602281570435
v -0.05542153865098953 0.06538742780685425 1.614405870437622
v -0.0595797523856163 0.06467394530773163 1.612140417098999
v -0.05201657861471176 0.0692022293806076 1.6135122776031494
v -0.0515667200088501 0.07196536660194397 1.616352915763855
v -0.0556451752781868 0.08706711232662201 1.6089873313903809
v -0.057914990931749344 0.0839049220085144 1.6131764650344849
v -0.05542902648448944 0.08342564105987549 1.613804817199707
v -0.05313422903418541 0.08637908101081848 1.6101324558258057
v -0.058721624314785004 0.08056192100048065 1.6181704998016357
v -0.05625314638018608 0.08069352060556412 1.617142915725708
v -0.05363631993532181 0.07708858698606491 1.617740273475647
v -0.05175226181745529 0.08044419437646866 1.613519310951233
v -0.04956658557057381 0.07628271728754044 1.6123777627944946
v -0.04681909829378128 0.07952655851840973 1.6091629266738892
v -0.04868989437818527 0.08390633016824722 1.6103087663650513
v -0.05111629143357277 0.0750160813331604 1.6157029867172241
v -0.05092683807015419 0.08750295639038086 1.607743740081787
v -0.051748327910900116 0.08798010647296906 1.6053073406219482
v -0.055219296365976334 0.07581037282943726 1.6198278665542603
v -0.064654141664505 0.07809819281101227 1.617210865020752
v -0.060144633054733276 0.08354328572750092 1.6111829280853271
v -0.057094015181064606 0.0862974226474762 1.6062724590301514
v -0.05219804495573044 0.08637265861034393 1.6027642488479614
v -0.06096404045820236 0.08152113109827042 1.6077311038970947
v -0.05729209631681442 0.08421522378921509 1.6038684844970703
v -0.052975405007600784 0.08406548202037811 1.6014983654022217
v -0.06040295213460922 0.0782831460237503 1.6044468879699707
v -0.056371960788965225 0.08092378824949265 1.6014171838760376
v -0.06631806492805481 0.07180305570363998 1.6110808849334717
v -0.06686922907829285 0.07525902986526489 1.613911509513855
v -0.05403633788228035 0.08200229704380035 1.6009366512298584
v -0.047244854271411896 0.08602526783943176 1.6049689054489136
v -0.04842648655176163 0.08456331491470337 1.6021263599395752
v -0.0474504791200161 0.08574423938989639 1.6068289279937744
v -0.04904882237315178 0.0745098888874054 1.6113457679748535
v -0.04664241150021553 0.07814666628837585 1.6073535680770874
v -0.0492502897977829 0.07280153036117554 1.609252691268921
v -0.046752579510211945 0.07712608575820923 1.6051775217056274
v -0.045384060591459274 0.08160644769668579 1.6049295663833618
v -0.04557693004608154 0.08261115849018097 1.6063477993011475
v -0.0671708881855011 0.06891819834709167 1.613337516784668
v -0.06315875053405762 0.0657522901892662 1.61174738407135
v -0.06318527460098267 0.0679185539484024 1.6094340085983276
v -0.05754456669092178 0.07441401481628418 1.6032086610794067
v -0.059066593647003174 0.06610891968011856 1.6098811626434326
v -0.053989481180906296 0.0674942284822464 1.6111798286437988
v -0.05083847790956497 0.07159890979528427 1.6072875261306763
v -0.05362716317176819 0.07209689915180206 1.604579210281372
v -0.04757256060838699 0.07579128444194794 1.6035834550857544
v -0.050667885690927505 0.07502704858779907 1.6026215553283691
v -0.05434402823448181 0.07755614817142487 1.6009094715118408
v -0.04681205749511719 0.07960043102502823 1.6015866994857788
v -0.045681506395339966 0.08087825775146484 1.6033055782318115
v -0.049662552773952484 0.08299676328897476 1.6010825634002686
v -0.04928939789533615 0.07802001386880875 1.6010267734527588
v -0.051739007234573364 0.08065058290958405 1.6004012823104858
v -0.06464152038097382 0.047356292605400085 1.6067180633544922
v -0.06150217354297638 0.04444734752178192 1.6034674644470215
v -0.06176632642745972 0.03719741478562355 1.6066981554031372
v -0.06471554934978485 0.04122353717684746 1.6103994846343994
v -0.057114310562610626 0.0510922372341156 1.6165437698364258
v -0.061677925288677216 0.05097811669111252 1.6144298315048218
v -0.06183605641126633 0.04700364172458649 1.6166296005249023
v -0.05667690932750702 0.04686835780739784 1.6189452409744263
v -0.05187704414129257 0.05124487355351448 1.614951252937317
v -0.05124642699956894 0.046454258263111115 1.6171268224716187
v -0.05323805287480354 0.047508351504802704 1.6213406324386597
v -0.059278178960084915 0.04539632424712181 1.6200312376022339
v -0.04999250918626785 0.038852084428071976 1.6285035610198975
v -0.04420258849859238 0.04302901774644852 1.6278339624404907
v -0.06413602828979492 0.049573734402656555 1.610540509223938
v -0.06443215161561966 0.04502546787261963 1.6136620044708252
v -0.051305096596479416 0.03372390195727348 1.6071518659591675
v -0.055260565131902695 0.03280379995703697 1.6093376874923706
v -0.05689232423901558 0.03667597472667694 1.6041978597640991
v -0.052804600447416306 0.03813275322318077 1.603928565979004
v -0.05132332816720009 0.027770381420850754 1.627879023551941
v -0.047035735100507736 0.025011258199810982 1.6242188215255737
v -0.052625030279159546 0.03337674215435982 1.6280694007873535
v -0.04711530730128288 0.03754493221640587 1.608507752418518
v -0.044551216065883636 0.04313834011554718 1.6128065586090088
v -0.036843471229076385 0.03764309361577034 1.6181138753890991
v -0.038961879909038544 0.03185009956359863 1.6169414520263672
v -0.06199674308300018 0.04214632511138916 1.6185168027877808
v -0.05917300656437874 0.03353093937039375 1.612370491027832
v -0.06252004206180573 0.03739534690976143 1.6157821416854858
v -0.047795891761779785 0.04707401990890503 1.617996096611023
v -0.04840045049786568 0.04358827322721481 1.61221182346344
v -0.04657845199108124 0.06153155863285065 1.6014240980148315
v -0.0484694242477417 0.04471348971128464 1.6056115627288818
v -0.05216429382562637 0.0439598523080349 1.6019881963729858
v -0.04836175590753555 0.06079521402716637 1.5976113080978394
v -0.049143869429826736 0.04049867391586304 1.606453537940979
v -0.04801730066537857 0.04795826971530914 1.6108721494674683
v -0.0607401542365551 0.06404214352369308 1.5992568731307983
v -0.05730327218770981 0.06103537231683731 1.5963011980056763
v -0.06108741834759712 0.06456959992647171 1.6033159494400024
v -0.03843333199620247 0.043043751269578934 1.623664140701294
v -0.042271532118320465 0.026204494759440422 1.6190977096557617
v -0.056517474353313446 0.06635963171720505 1.6084721088409424
v -0.059923674911260605 0.06579482555389404 1.6061742305755615
v -0.05645758658647537 0.04332713410258293 1.6018413305282593
v -0.052188582718372345 0.06035025417804718 1.5954993963241577
v -0.04751666635274887 0.06274878978729248 1.6055551767349243
v -0.051323819905519485 0.06464940309524536 1.6091396808624268
v -0.046079371124506 0.06618417799472809 1.6023844480514526
v -0.049808353185653687 0.0685160756111145 1.60589599609375
v -0.05396631732583046 0.07112179696559906 1.6058390140533447
v -0.05717064440250397 0.07116518169641495 1.6037497520446777
v -0.05882333219051361 0.07019829750061035 1.6008954048156738
v -0.045564256608486176 0.06541602313518524 1.5982463359832764
v -0.047615133225917816 0.06498732417821884 1.5951108932495117
v -0.051743678748607635 0.0635734274983406 1.5945206880569458
v -0.04424478858709335 0.06813984364271164 1.5954475402832031
v -0.04330701008439064 0.07123443484306335 1.5995811223983765
v -0.04651759937405586 0.08643846213817596 1.5976473093032837
v -0.04878884181380272 0.0820574164390564 1.5997971296310425
v -0.04754425585269928 0.08179724216461182 1.6000010967254639
v -0.044934604316949844 0.0862446129322052 1.598215103149414
v -0.04985552281141281 0.07654137909412384 1.603279709815979
v -0.04792540892958641 0.07771390676498413 1.6025546789169312
v -0.04544215649366379 0.07504867017269135 1.6021720170974731
v -0.04275255277752876 0.08002407103776932 1.5993757247924805
v -0.04073105379939079 0.07613534480333328 1.5956178903579712
v -0.039288412779569626 0.0804043710231781 1.5941439867019653
v -0.040684040635824203 0.08423872292041779 1.5977003574371338
v -0.042715635150671005 0.07317785918712616 1.5993796586990356
v -0.04294416680932045 0.08781147748231888 1.5966280698776245
v -0.0440308079123497 0.08958922326564789 1.5965865850448608
v -0.04697559028863907 0.07325594127178192 1.6030782461166382
v -0.054401736706495285 0.07634022831916809 1.6025391817092896
v -0.051302213221788406 0.0824221521615982 1.598652958869934
v -0.049414150416851044 0.0872834250330925 1.5960972309112549
v -0.046329066157341 0.08896312862634659 1.5937211513519287
v -0.05299631133675575 0.08129674196243286 1.595589518547058
v -0.05047883838415146 0.08568915724754333 1.593503713607788
v -0.04774835705757141 0.08742007613182068 1.591404914855957
v -0.05331031233072281 0.07948950678110123 1.592970609664917
v -0.050530947744846344 0.08351963758468628 1.591096043586731
v -0.05771173536777496 0.07071060687303543 1.5971599817276
v -0.056888267397880554 0.07395178079605103 1.600170373916626
v -0.04824542626738548 0.08561483770608902 1.5901856422424316
v -0.04008769989013672 0.08782930672168732 1.594509243965149
v -0.04203499108552933 0.08735860139131546 1.5907927751541138
v -0.04057922214269638 0.08644348382949829 1.595489263534546
v -0.040851470082998276 0.07460916042327881 1.5945147275924683
v -0.0385451503098011 0.07980043441057205 1.5919289588928223
v -0.04214657470583916 0.07335526496171951 1.5922455787658691
v -0.039813119918107986 0.07874518632888794 1.5895471572875977
v -0.03812836483120918 0.08368711918592453 1.592188835144043
v -0.03859824314713478 0.08372269570827484 1.5933071374893188
v -0.058725498616695404 0.06728298217058182 1.5978515148162842
v -0.055954016745090485 0.06471198797225952 1.5950827598571777
v -0.05567074939608574 0.06805950403213501 1.5942113399505615
v -0.05119117721915245 0.07743588835000992 1.5899986028671265
v -0.05177978426218033 0.06623795628547668 1.5931483507156372
v -0.04650903865695 0.06828907132148743 1.5929094552993774
v -0.044551435858011246 0.0736272856593132 1.5902988910675049
v -0.047568850219249725 0.07520533353090286 1.5892562866210938
v -0.04215845465660095 0.07854478061199188 1.58799409866333
v -0.04503820836544037 0.07881850004196167 1.5882036685943604
v -0.04885753244161606 0.0815165638923645 1.5883419513702393
v -0.04196475073695183 0.08253805339336395 1.5884034633636475
v -0.03942440077662468 0.08313905447721481 1.58969247341156
v -0.0443434901535511 0.08617739379405975 1.5890345573425293
v -0.04431460425257683 0.0819467157125473 1.587844729423523
v -0.046230535954236984 0.08462780714035034 1.5883104801177979
v -0.04408876225352287 0.024215783923864365 1.6212496757507324
v -0.04826824367046356 0.02076270617544651 1.6167246103286743
v -0.05063498392701149 0.017720019444823265 1.61562180519104
v -0.04692603647708893 0.015950113534927368 1.6131176948547363
v -0.044022489339113235 0.018571048974990845 1.6146230697631836
v -0.04805152490735054 0.02913064695894718 1.6101876497268677
v -0.04731142148375511 0.027220558375120163 1.614175796508789
v -0.04356766119599342 0.02631259895861149 1.6115694046020508
v -0.0439407154917717 0.028148595243692398 1.607126235961914
v -0.05054949223995209 0.02831193245947361 1.6058135032653809
v -0.04639219865202904 0.027120379731059074 1.6026966571807861
v -0.04110213369131088 0.029651086777448654 1.6076149940490723
v -0.041127655655145645 0.02708917111158371 1.611915946006775
v -0.030277011916041374 0.028092026710510254 1.6148622035980225
v -0.028498515486717224 0.030991649255156517 1.6111087799072266
v -0.02197868376970291 0.015909241512417793 1.6038933992385864
v -0.02231452614068985 0.012610501609742641 1.608130693435669
v -0.029739653691649437 0.013741650618612766 1.60710608959198
v -0.02891884557902813 0.015451171435415745 1.6031709909439087
v -0.047326214611530304 0.024190498515963554 1.6161692142486572
v -0.043947383761405945 0.022380784153938293 1.614580750465393
v -0.04417487233877182 0.013744572177529335 1.6039454936981201
v -0.04406479373574257 0.012700537219643593 1.608381986618042
v -0.04906676337122917 0.013955628499388695 1.6104471683502197
v -0.051333729177713394 0.014528803527355194 1.6062593460083008
v -0.02553340047597885 0.012900854460895061 1.612227201461792
v -0.028290826827287674 0.014292191714048386 1.615282416343689
v -0.030958611518144608 0.01624171808362007 1.6149311065673828
v -0.03102959133684635 0.014358652755618095 1.6113559007644653
v -0.03216235712170601 0.021067151799798012 1.6168986558914185
v -0.044354572892189026 0.016765588894486427 1.6009005308151245
v -0.043532419949769974 0.022642435505986214 1.5991894006729126
v -0.0267964955419302 0.023811589926481247 1.5996707677841187
v -0.02707993984222412 0.019097253680229187 1.6005005836486816
v -0.041261497884988785 0.02318926528096199 1.6143748760223389
v -0.043729107826948166 0.014464444480836391 1.6123346090316772
v -0.041851453483104706 0.018255531787872314 1.6142024993896484
v -0.04131307825446129 0.02837139554321766 1.6022502183914185
v -0.050155945122241974 0.022905344143509865 1.6008987426757812
v -0.06334687769412994 0.022074058651924133 1.6105128526687622
v -0.056783754378557205 0.01945796236395836 1.6053543090820312
v -0.056078389286994934 0.016700033098459244 1.6088380813598633
v -0.06274212896823883 0.019540971145033836 1.6125197410583496
v -0.05066530406475067 0.017726130783557892 1.6024917364120483
v -0.05511675029993057 0.024461448192596436 1.6042298078536987
v -0.05475194379687309 0.022370632737874985 1.6214038133621216
v -0.05762489140033722 0.019007068127393723 1.6188771724700928
v -0.05372012406587601 0.025403717532753944 1.6213940382003784
v -0.027331717312335968 0.030416235327720642 1.6046733856201172
v -0.05537084862589836 0.030858440324664116 1.616952657699585
v -0.05426410213112831 0.028467968106269836 1.6203471422195435
v -0.05333508178591728 0.016483256593346596 1.6128748655319214
v -0.060682833194732666 0.018215082585811615 1.6156021356582642
v -0.06217598170042038 0.026496531441807747 1.6099861860275269
v -0.05825664475560188 0.030483273789286613 1.6119592189788818
v -0.06513369083404541 0.02822682075202465 1.6135066747665405
v -0.06170279532670975 0.030998872593045235 1.6158186197280884
v -0.05882294476032257 0.03001069650053978 1.6220370531082153
v -0.05709351226687431 0.026941655203700066 1.6233820915222168
v -0.05656536668539047 0.02380485273897648 1.623593807220459
v -0.06578624248504639 0.023173576220870018 1.612923502922058
v -0.0647781491279602 0.020437605679035187 1.6139836311340332
v -0.062061574310064316 0.018484175205230713 1.6163111925125122
v -0.06875216960906982 0.024203911423683167 1.6158729791641235
v -0.06892373412847519 0.027318108826875687 1.6193883419036865
v -0.07055647671222687 0.020800475031137466 1.6306655406951904
v -0.06718993186950684 0.022296831011772156 1.6291965246200562
v -0.06787733733654022 0.023010512813925743 1.6286556720733643
v -0.07101859152317047 0.021769458428025246 1.6306002140045166
v -0.0637272447347641 0.02588099241256714 1.6269317865371704
v -0.06548979878425598 0.025512615218758583 1.6267534494400024
v -0.06623484939336777 0.027429718524217606 1.6237616539001465
v -0.07028400897979736 0.025399349629878998 1.6260244846343994
v -0.07302246987819672 0.024218488484621048 1.6216238737106323
v -0.07584846019744873 0.022847849875688553 1.6238977909088135
v -0.07326750457286835 0.02431865781545639 1.6275945901870728
v -0.06947395205497742 0.026877805590629578 1.621093988418579
v -0.07358653843402863 0.02179124765098095 1.6312988996505737
v -0.07413239777088165 0.020746996626257896 1.6320557594299316
v -0.0648813471198082 0.029564160853624344 1.62264883518219
v -0.061005257070064545 0.023111576214432716 1.6271193027496338
v -0.06673009693622589 0.0198755394667387 1.6299279928207397
v -0.07118070125579834 0.018698934465646744 1.6316509246826172
v -0.07489477097988129 0.018632007762789726 1.6315559148788452
v -0.06582988798618317 0.018015794456005096 1.6285732984542847
v -0.07102112472057343 0.01657054014503956 1.6308977603912354
v -0.07454454898834229 0.016527332365512848 1.6306796073913574
v -0.0658302754163742 0.015951434150338173 1.6260393857955933
v -0.07083338499069214 0.015210412442684174 1.6286702156066895
v -0.06009642779827118 0.01813635602593422 1.623022198677063
v -0.06011918932199478 0.020371006801724434 1.6256728172302246
v -0.07376603782176971 0.015788128599524498 1.6292644739151
v -0.07703664898872375 0.021802883595228195 1.6296594142913818
v -0.07722702622413635 0.018871264532208443 1.6292167901992798
v -0.07627217471599579 0.023106221109628677 1.6290547847747803
v -0.07328049838542938 0.023661881685256958 1.6204313039779663
v -0.0767563134431839 0.021694958209991455 1.62314772605896
v -0.07317053526639938 0.021737540140748024 1.6190072298049927
v -0.07673388719558716 0.01961887627840042 1.6225805282592773
v -0.07812070846557617 0.021219944581389427 1.6262375116348267
v -0.07696439325809479 0.022670019418001175 1.626339316368103
v -0.0575738251209259 0.020223844796419144 1.622635006904602
v -0.05904187634587288 0.018811142072081566 1.6196966171264648
v -0.061590585857629776 0.017401237040758133 1.6196576356887817
v -0.0672665387392044 0.015335082076489925 1.6224919557571411
v -0.06467939168214798 0.018568111583590508 1.6161503791809082
v -0.06733155250549316 0.021381083875894547 1.6150336265563965
v -0.07222004234790802 0.019343912601470947 1.61862051486969
v -0.0703856498003006 0.016792383044958115 1.6195241212844849
v -0.07604853808879852 0.017612338066101074 1.6228364706039429
v -0.07403691112995148 0.015520328655838966 1.6234309673309326
v -0.07189741730690002 0.014492573216557503 1.6256383657455444
v -0.07707570493221283 0.017322540283203125 1.6264584064483643
v -0.07807742059230804 0.018907597288489342 1.6264395713806152
v -0.0764494240283966 0.01705225557088852 1.6286121606826782
v -0.07574479281902313 0.01596938818693161 1.6263117790222168
v -0.07486657798290253 0.015656324103474617 1.627654790878296
v -0.023080158978700638 0.019273051992058754 1.6022108793258667
v -0.031668271869421005 0.009524479508399963 1.6923002004623413
v -0.030230969190597534 0.008214842528104782 1.686955451965332
v -0.024010490626096725 -0.006943386048078537 1.687780737876892
v -0.02654251456260681 -0.001723315566778183 1.6833282709121704
v -0.024052005261182785 -0.008534178137779236 1.6946306228637695
v -0.026918482035398483 -0.0025999322533607483 1.7030744552612305
v -0.024257615208625793 -0.006134562194347382 1.6999057531356812
v -0.028480935841798782 0.0037011466920375824 1.6833913326263428
v -0.03126795217394829 0.00840819999575615 1.697827935218811
v -0.029282432049512863 0.0035829655826091766 1.7029402256011963
v -0.04214653745293617 0.003930423408746719 1.6972984075546265
v -0.03928696736693382 -0.002137482166290283 1.7021335363388062
v -0.036135394126176834 -0.008977077901363373 1.7015247344970703
v -0.031197262927889824 -0.011166967451572418 1.6971218585968018
v -0.029036855325102806 -0.012189049273729324 1.692841649055481
v -0.03874155879020691 0.006368283182382584 1.6904518604278564
v -0.03623621165752411 0.005579665303230286 1.6853063106536865
v -0.03240714222192764 0.0011674612760543823 1.6821706295013428
v -0.04458582028746605 0.002523394301533699 1.6860603094100952
v -0.049303628504276276 -0.005858017131686211 1.684807300567627
v -0.046518389135599136 -0.02445244789123535 1.6798820495605469
v -0.04277443140745163 -0.021303445100784302 1.6843284368515015
v -0.045199695974588394 -0.01992793381214142 1.684562087059021
v -0.04856691509485245 -0.02319033443927765 1.6808490753173828
v -0.042568422853946686 -0.017838649451732635 1.6887893676757812
v -0.0442768819630146 -0.016927145421504974 1.6875083446502686
v -0.04659580811858177 -0.011887975037097931 1.6875874996185303
v -0.049541544169187546 -0.015274286270141602 1.6838167905807495
v -0.04866442829370499 -0.00856846198439598 1.6844068765640259
v -0.0503079891204834 -0.010027945041656494 1.6807050704956055
v -0.05232968553900719 -0.018245607614517212 1.68001389503479
v -0.051783014088869095 -0.02372787892818451 1.6788033246994019
v -0.054346758872270584 -0.02077106386423111 1.676797866821289
v -0.05029405653476715 -0.024971969425678253 1.6765635013580322
v -0.04897403344511986 -0.011441633105278015 1.6905001401901245
v -0.03642439469695091 -0.017060350626707077 1.6910842657089233
v -0.03925863280892372 -0.02138267457485199 1.6838244199752808
v -0.04354458674788475 -0.024243026971817017 1.677994966506958
v -0.04820791259407997 -0.024507030844688416 1.6743099689483643
v -0.03630438074469566 -0.02000107616186142 1.6812740564346313
v -0.040770113468170166 -0.02178874984383583 1.675962209701538
v -0.04530782997608185 -0.021325696259737015 1.6725224256515503
v -0.03525737673044205 -0.016587279736995697 1.6781704425811768
v -0.040153488516807556 -0.01843412220478058 1.674227237701416
v -0.029266107827425003 -0.010630164295434952 1.6853381395339966
v -0.031119270250201225 -0.014761928468942642 1.689300775527954
v -0.04387146234512329 -0.019047029316425323 1.6724523305892944
v -0.05464956909418106 -0.02155420184135437 1.674444317817688
v -0.05235322564840317 -0.020802129060029984 1.6720277070999146
v -0.050045598298311234 -0.007057271897792816 1.6794015169143677
v -0.053523771464824677 -0.012717805802822113 1.6775400638580322
v -0.052672240883111954 -0.011006072163581848 1.6755497455596924
v -0.04778489097952843 -0.004292428493499756 1.6778700351715088
v -0.05107622221112251 -0.00968741625547409 1.673593282699585
v -0.05483813211321831 -0.01569715142250061 1.6737440824508667
v -0.054884836077690125 -0.01638445258140564 1.6762511730194092
v -0.027385221794247627 -0.009734604507684708 1.6871529817581177
v -0.028746098279953003 -0.00434369221329689 1.6832293272018433
v -0.030895231291651726 -0.004747763276100159 1.6821287870407104
v -0.03649887815117836 -0.010673865675926208 1.6758500337600708
v -0.035147905349731445 0.00015278346836566925 1.680378794670105
v -0.04054948315024376 0.0029071196913719177 1.6827208995819092
v -0.044736847281455994 -0.0037594586610794067 1.6757397651672363
v -0.04028942435979843 -0.005748867988586426 1.6749728918075562
v -0.047874826937913895 -0.009787313640117645 1.6721699237823486
v -0.04508848860859871 -0.010914202779531479 1.6720454692840576
v -0.04175456613302231 -0.014682132750749588 1.6723464727401733
v -0.04965754598379135 -0.014455273747444153 1.6708811521530151
v -0.05281372368335724 -0.01465701311826706 1.671695590019226
v -0.048665739595890045 -0.018664367496967316 1.670949101448059
v -0.04700258746743202 -0.014012075960636139 1.671294927597046
v -0.04577129706740379 -0.016848329454660416 1.671438217163086
v -0.015855573117733 0.011489832773804665 1.6096022129058838
v -0.018994703888893127 0.010728875175118446 1.615079641342163
v -0.011874549090862274 0.009867046028375626 1.6155452728271484
v -0.0021515563130378723 0.008992203511297703 1.617709994316101
v 0.008096154779195786 0.010668144561350346 1.614554524421692
v -0.004089672118425369 0.009917856194078922 1.624197244644165
v -0.013934127986431122 0.010679412633180618 1.6215988397598267
v -0.024135379120707512 0.01246629934757948 1.620659351348877
v 0.002242535352706909 0.01166221871972084 1.6323174238204956
f 2 3 1
f 1 3 4
f 5 6 8
f 8 6 7
f 9 4 10
f 10 4 3
f 12 13 11
f 11 13 9
f 14 12 16
f 16 12 15
f 18 19 17
f 17 19 20
f 22 23 21
f 21 23 24
f 26 27 25
f 25 27 28
f 30 31 29
f 29 31 32
f 33 34 36
f 36 34 35
f 37 38 40
f 40 38 39
f 41 42 6
f 6 42 43
f 6 43 7
f 7 43 44
f 45 34 46
f 46 34 33
f 48 49 47
f 47 49 50
f 52 53 51
f 51 53 54
f 56 52 55
f 55 52 51
f 58 59 57
f 57 59 60
f 61 62 4
f 4 62 1
f 64 65 63
f 63 65 66
f 68 69 67
f 67 69 70
f 72 73 71
f 71 73 74
f 76 77 75
f 75 77 78
f 53 79 54
f 54 79 80
f 82 83 81
f 81 83 84
f 85 86 52
f 52 86 53
f 57 60 87
f 87 60 88
f 89 90 43
f 43 90 44
f 43 42 89
f 89 42 91
f 40 39 92
f 92 39 93
f 94 70 64
f 64 70 69
f 13 61 9
f 9 61 4
f 25 28 69
f 69 28 95
f 96 25 68
f 68 25 69
f 98 99 97
f 97 99 100
f 101 102 104
f 104 102 103
f 106 30 105
f 105 30 29
f 51 54 107
f 107 54 108
f 54 80 108
f 108 80 109
f 111 112 110
f 110 112 113
f 115 5 114
f 114 5 116
f 115 41 5
f 5 41 6
f 36 35 111
f 111 35 117
f 35 118 117
f 117 118 119
f 34 120 35
f 35 120 118
f 34 45 120
f 120 45 121
f 125 126 124
f 124 126 127
f 128 129 14
f 14 129 130
f 33 131 46
f 46 131 132
f 133 94 63
f 63 94 64
f 134 135 137
f 137 135 136
f 139 140 138
f 138 140 141
f 77 142 78
f 78 142 143
f 144 145 20
f 20 145 146
f 148 149 147
f 147 149 72
f 151 152 150
f 150 152 153
f 82 101 83
f 83 101 104
f 101 82 155
f 155 82 154
f 156 157 58
f 58 157 59
f 158 68 147
f 147 68 67
f 159 146 15
f 15 146 16
f 68 158 96
f 96 158 160
f 129 66 130
f 130 66 65
f 162 163 161
f 161 163 164
f 166 167 165
f 165 167 168
f 170 171 169
f 169 171 172
f 174 171 173
f 173 171 170
f 176 177 175
f 175 177 178
f 180 181 179
f 179 181 24
f 182 183 21
f 21 183 184
f 81 185 82
f 82 185 154
f 186 187 188
f 188 187 144
f 158 71 160
f 160 71 189
f 190 135 157
f 157 135 59
f 169 172 139
f 139 172 140
f 147 72 158
f 158 72 71
f 192 193 191
f 191 193 194
f 167 166 49
f 49 166 195
f 196 190 50
f 50 190 157
f 197 198 200
f 200 198 199
f 21 24 182
f 182 24 181
f 146 159 20
f 20 159 17
f 182 181 81
f 81 181 185
f 201 185 180
f 180 185 181
f 202 203 83
f 83 203 84
f 205 206 204
f 204 206 85
f 207 22 184
f 184 22 21
f 179 24 208
f 208 24 23
f 208 209 179
f 179 209 205
f 209 210 205
f 205 210 206
f 212 206 211
f 211 206 210
f 179 205 180
f 180 205 204
f 213 176 88
f 88 176 214
f 86 85 212
f 212 85 206
f 193 217 218
f 217 219 218
f 218 219 220
f 219 18 220
f 220 18 17
f 19 221 20
f 20 221 144
f 222 223 225
f 225 223 224
f 175 226 176
f 176 226 214
f 227 87 214
f 214 87 88
f 220 17 228
f 228 17 159
f 134 213 60
f 60 213 88
f 138 229 151
f 151 229 152
f 193 192 210
f 210 192 211
f 230 194 218
f 218 194 193
f 231 232 228
f 228 232 230
f 233 234 91
f 91 234 89
f 235 236 93
f 93 236 92
f 230 232 234
f 234 232 237
f 47 238 48
f 48 238 239
f 240 191 235
f 235 191 236
f 5 8 116
f 116 8 241
f 242 243 189
f 189 243 160
f 244 245 98
f 98 245 99
f 156 246 47
f 47 246 238
f 76 247 77
f 77 247 248
f 250 125 249
f 249 125 124
f 252 253 251
f 251 253 254
f 111 110 36
f 36 110 255
f 256 33 255
f 255 33 36
f 257 258 154
f 154 258 155
f 63 169 133
f 133 169 139
f 66 170 63
f 63 170 169
f 173 170 129
f 129 170 66
f 129 128 173
f 173 128 259
f 128 260 259
f 259 260 261
f 213 134 262
f 262 134 137
f 263 264 186
f 186 264 187
f 112 265 113
f 113 265 266
f 11 267 268
f 234 233 230
f 230 233 194
f 153 269 70
f 70 269 67
f 175 178 165
f 165 178 141
f 150 153 94
f 94 153 70
f 271 221 270
f 270 221 207
f 269 153 272
f 272 153 152
f 121 45 109
f 109 45 108
f 47 50 156
f 156 50 157
f 57 273 58
f 58 273 274
f 145 275 260
f 260 275 261
f 276 149 143
f 143 149 78
f 148 269 75
f 75 269 272
f 207 277 270
f 270 277 278
f 195 196 49
f 49 196 50
f 59 135 60
f 60 135 134
f 83 104 202
f 202 104 279
f 149 148 78
f 78 148 75
f 247 278 248
f 248 278 277
f 183 182 84
f 84 182 81
f 48 239 281
f 281 239 282
f 227 223 283
f 283 223 222
f 223 226 224
f 224 226 168
f 281 282 224
f 224 282 225
f 165 168 175
f 175 168 226
f 264 263 138
f 138 263 229
f 14 16 128
f 128 16 260
f 220 228 218
f 218 228 230
f 87 227 284
f 284 227 283
f 260 16 145
f 145 16 146
f 244 98 258
f 258 98 155
f 58 274 156
f 156 274 246
f 107 285 51
f 51 285 55
f 243 286 160
f 160 286 96
f 234 237 89
f 89 237 90
f 46 132 107
f 107 132 285
f 253 252 249
f 249 252 250
f 286 26 96
f 96 26 25
f 106 105 287
f 287 105 288
f 272 152 289
f 289 152 229
f 138 151 139
f 139 151 133
f 183 290 161
f 161 290 162
f 291 292 277
f 277 292 293
f 151 150 133
f 133 150 94
f 262 275 177
f 177 275 187
f 144 187 145
f 145 187 275
f 273 57 284
f 284 57 87
f 174 136 190
f 190 136 135
f 111 117 112
f 112 117 38
f 117 119 38
f 38 119 123
f 112 38 265
f 265 38 37
f 287 288 254
f 254 288 251
f 228 159 231
f 231 159 15
f 223 227 226
f 226 227 214
f 147 67 148
f 148 67 269
f 224 168 281
f 281 168 167
f 199 163 200
f 200 163 162
f 45 46 108
f 108 46 107
f 281 167 48
f 48 167 49
f 161 164 291
f 291 164 292
f 38 123 39
f 293 294 277
f 277 294 248
f 284 283 296
f 296 283 295
f 284 296 273
f 273 296 297
f 274 273 298
f 298 273 297
f 246 274 299
f 299 274 298
f 283 222 295
f 295 222 300
f 222 225 300
f 300 225 301
f 301 225 302
f 302 225 282
f 303 304 300
f 300 304 295
f 306 307 305
f 305 307 308
f 309 310 308
f 308 310 305
f 308 307 312
f 312 307 311
f 313 314 312
f 312 314 315
f 311 316 312
f 312 316 313
f 317 304 311
f 311 304 316
f 315 309 312
f 312 309 308
f 318 319 321
f 321 319 320
f 319 318 309
f 309 318 310
f 311 307 317
f 317 307 306
f 306 297 317
f 317 297 296
f 306 322 297
f 297 322 298
f 305 323 306
f 306 323 322
f 323 305 324
f 324 305 310
f 304 317 295
f 295 317 296
f 318 325 310
f 310 325 324
f 323 324 326
f 326 324 327
f 324 325 327
f 327 325 328
f 326 327 329
f 329 327 330
f 329 331 326
f 326 331 332
f 333 330 328
f 328 330 327
f 323 326 322
f 322 326 332
f 322 332 298
f 298 332 299
f 325 318 334
f 334 318 321
f 313 316 335
f 335 316 304
f 335 336 313
f 313 336 314
f 304 303 335
f 335 303 337
f 336 335 338
f 338 335 337
f 336 339 314
f 314 339 340
f 246 299 238
f 238 299 341
f 239 342 282
f 282 342 302
f 342 239 341
f 341 239 238
f 341 331 342
f 342 331 343
f 331 329 343
f 343 329 344
f 342 343 302
f 302 343 345
f 341 299 331
f 331 299 332
f 346 301 345
f 345 301 302
f 346 303 301
f 301 303 300
f 347 337 346
f 346 337 303
f 347 346 348
f 348 346 345
f 349 347 350
f 350 347 348
f 343 344 345
f 345 344 348
f 344 351 348
f 348 351 350
f 337 347 338
f 338 347 349
f 353 338 352
f 352 338 349
f 352 355 354
f 354 355 356
f 352 349 355
f 355 349 350
f 352 354 353
f 353 354 334
f 353 334 339
f 339 334 321
f 339 336 353
f 353 336 338
f 329 330 344
f 344 330 351
f 356 351 333
f 333 351 330
f 356 355 351
f 351 355 350
f 354 356 328
f 328 356 333
f 328 325 354
f 354 325 334
f 309 315 319
f 319 315 320
f 320 340 321
f 321 340 339
f 320 315 340
f 340 315 314
f 137 136 261
f 261 136 259
f 140 166 141
f 141 166 165
f 172 171 195
f 195 171 196
f 171 174 196
f 196 174 190
f 178 177 264
f 264 177 187
f 172 195 140
f 140 195 166
f 137 261 262
f 262 261 275
f 178 264 141
f 141 264 138
f 262 177 213
f 213 177 176
f 136 174 259
f 259 174 173
f 358 359 357
f 357 359 360
f 362 363 361
f 361 363 364
f 361 364 365
f 365 364 366
f 367 368 370
f 370 368 369
f 76 371 247
f 247 371 372
f 373 374 362
f 362 374 363
f 376 377 375
f 375 377 378
f 289 229 380
f 380 229 379
f 381 379 263
f 263 379 229
f 383 384 382
f 382 384 385
f 386 368 374
f 374 368 363
f 76 289 371
f 371 289 380
f 377 376 359
f 359 376 387
f 388 386 360
f 360 386 374
f 389 383 366
f 366 383 390
f 392 393 391
f 391 393 394
f 383 382 390
f 390 382 395
f 396 365 390
f 390 365 366
f 389 366 367
f 367 366 364
f 357 397 358
f 358 397 398
f 373 399 357
f 357 399 397
f 389 367 400
f 400 367 370
f 382 385 375
f 375 385 372
f 357 360 373
f 373 360 374
f 361 401 362
f 362 401 402
f 387 388 359
f 359 388 360
f 363 368 364
f 364 368 367
f 358 398 403
f 403 398 404
f 396 392 405
f 405 392 391
f 392 395 393
f 393 395 378
f 393 403 394
f 394 403 404
f 375 378 382
f 382 378 395
f 365 396 406
f 406 396 405
f 362 402 373
f 373 402 399
f 271 270 400
f 400 270 384
f 401 361 406
f 406 361 365
f 381 369 386
f 386 369 368
f 392 396 395
f 395 396 390
f 393 378 403
f 403 378 377
f 403 377 358
f 358 377 359
f 406 405 408
f 408 405 407
f 406 408 401
f 401 408 409
f 401 409 402
f 402 409 410
f 402 410 399
f 399 410 411
f 405 391 407
f 407 391 412
f 391 394 412
f 412 394 413
f 394 404 413
f 413 404 414
f 415 416 412
f 412 416 407
f 418 419 417
f 417 419 420
f 421 422 418
f 418 422 419
f 419 422 424
f 424 422 423
f 425 426 424
f 424 426 427
f 423 428 424
f 424 428 425
f 427 420 424
f 424 420 419
f 420 429 417
f 417 429 430
f 423 422 431
f 431 422 421
f 421 409 431
f 431 409 408
f 421 432 409
f 409 432 410
f 418 433 421
f 421 433 432
f 434 433 417
f 417 433 418
f 431 416 423
f 423 416 428
f 416 431 407
f 407 431 408
f 435 434 430
f 430 434 417
f 433 434 436
f 436 434 437
f 434 435 437
f 437 435 438
f 436 437 439
f 439 437 440
f 439 441 436
f 436 441 442
f 438 443 437
f 437 443 440
f 436 442 433
f 433 442 432
f 432 442 410
f 410 442 411
f 435 430 445
f 445 430 444
f 430 429 444
f 444 429 446
f 425 428 447
f 447 428 416
f 426 425 448
f 448 425 447
f 416 415 447
f 447 415 449
f 447 449 448
f 448 449 450
f 451 452 448
f 448 452 426
f 446 452 444
f 444 452 451
f 399 411 397
f 397 411 453
f 398 454 404
f 404 454 414
f 454 398 453
f 453 398 397
f 453 441 454
f 454 441 455
f 441 439 455
f 455 439 456
f 454 455 414
f 414 455 457
f 441 453 442
f 442 453 411
f 458 413 457
f 457 413 414
f 458 415 413
f 413 415 412
f 458 459 415
f 415 459 449
f 459 458 460
f 460 458 457
f 461 459 462
f 462 459 460
f 455 456 457
f 457 456 460
f 456 463 460
f 460 463 462
f 459 461 449
f 449 461 450
f 465 450 464
f 464 450 461
f 464 467 466
f 466 467 468
f 464 461 467
f 467 461 462
f 464 466 465
f 465 466 445
f 465 445 451
f 451 445 444
f 451 448 465
f 465 448 450
f 439 440 456
f 456 440 463
f 468 463 443
f 443 463 440
f 468 467 463
f 463 467 462
f 466 468 438
f 438 468 443
f 438 435 466
f 466 435 445
f 420 427 429
f 429 427 446
f 446 427 452
f 452 427 426
f 370 369 188
f 188 369 186
f 371 376 372
f 372 376 375
f 380 379 387
f 387 379 388
f 379 381 388
f 388 381 386
f 385 384 278
f 278 384 270
f 380 387 371
f 371 387 376
f 400 370 271
f 271 370 188
f 385 278 372
f 372 278 247
f 400 384 389
f 389 384 383
f 369 381 186
f 186 381 263
f 221 271 144
f 144 271 188
f 221 19 207
f 207 19 22
f 19 18 22
f 22 18 23
f 18 219 23
f 23 219 208
f 469 470 472
f 472 470 471
f 474 475 473
f 473 475 476
f 473 476 477
f 477 476 478
f 480 481 479
f 479 481 482
f 483 484 474
f 474 484 475
f 486 487 485
f 485 487 488
f 489 490 77
f 77 490 142
f 491 489 248
f 248 489 77
f 493 494 492
f 492 494 495
f 496 480 484
f 484 480 475
f 486 497 487
f 487 497 471
f 498 496 472
f 472 496 484
f 499 493 478
f 478 493 500
f 501 502 504
f 504 502 503
f 493 492 500
f 500 492 505
f 506 477 500
f 500 477 478
f 499 478 479
f 479 478 476
f 469 507 470
f 470 507 508
f 483 509 469
f 469 509 507
f 479 482 499
f 499 482 510
f 492 495 485
f 485 495 511
f 483 469 484
f 484 469 472
f 473 512 474
f 474 512 513
f 497 498 471
f 471 498 472
f 475 480 476
f 476 480 479
f 470 508 514
f 514 508 515
f 506 502 516
f 516 502 501
f 503 502 488
f 488 502 505
f 514 515 503
f 503 515 504
f 485 488 492
f 492 488 505
f 477 506 517
f 517 506 516
f 474 513 483
f 483 513 509
f 510 292 494
f 494 292 164
f 512 473 517
f 517 473 477
f 491 481 496
f 496 481 480
f 502 506 505
f 505 506 500
f 503 488 514
f 514 488 487
f 514 487 470
f 470 487 471
f 517 516 519
f 519 516 518
f 517 519 512
f 512 519 520
f 512 520 513
f 513 520 521
f 513 521 509
f 509 521 522
f 516 501 518
f 518 501 523
f 501 504 523
f 523 504 524
f 524 504 525
f 525 504 515
f 526 527 523
f 523 527 518
f 529 530 528
f 528 530 531
f 532 533 529
f 529 533 530
f 530 533 535
f 535 533 534
f 536 537 535
f 535 537 538
f 534 539 535
f 535 539 536
f 538 531 535
f 535 531 530
f 540 541 531
f 531 541 528
f 533 532 534
f 534 532 542
f 532 520 542
f 542 520 519
f 532 543 520
f 520 543 521
f 529 544 532
f 532 544 543
f 544 529 545
f 545 529 528
f 534 542 539
f 539 542 527
f 527 542 518
f 518 542 519
f 541 546 528
f 528 546 545
f 547 544 548
f 548 544 545
f 546 549 545
f 545 549 548
f 550 547 551
f 551 547 548
f 547 550 553
f 553 550 552
f 549 554 548
f 548 554 551
f 544 547 543
f 543 547 553
f 543 553 521
f 521 553 522
f 546 541 556
f 556 541 555
f 541 540 555
f 555 540 557
f 536 539 558
f 558 539 527
f 537 536 559
f 559 536 558
f 527 526 558
f 558 526 560
f 559 558 561
f 561 558 560
f 559 562 537
f 537 562 563
f 557 563 555
f 555 563 562
f 509 522 507
f 507 522 564
f 508 565 515
f 515 565 525
f 565 508 564
f 564 508 507
f 564 552 565
f 565 552 566
f 552 550 566
f 566 550 567
f 565 566 525
f 525 566 568
f 564 522 552
f 552 522 553
f 569 524 568
f 568 524 525
f 569 526 524
f 524 526 523
f 570 560 569
f 569 560 526
f 570 569 571
f 571 569 568
f 572 570 573
f 573 570 571
f 566 567 568
f 568 567 571
f 567 574 571
f 571 574 573
f 570 572 560
f 560 572 561
f 576 561 575
f 575 561 572
f 575 578 577
f 577 578 579
f 575 572 578
f 578 572 573
f 575 577 576
f 576 577 556
f 576 556 562
f 562 556 555
f 562 559 576
f 576 559 561
f 550 551 567
f 567 551 574
f 579 574 554
f 554 574 551
f 579 578 574
f 574 578 573
f 579 554 577
f 577 554 549
f 549 546 577
f 577 546 556
f 531 538 540
f 540 538 557
f 557 538 563
f 563 538 537
f 481 294 482
f 482 294 293
f 580 486 511
f 511 486 485
f 490 489 497
f 497 489 498
f 489 491 498
f 498 491 496
f 163 495 164
f 164 495 494
f 580 490 486
f 486 490 497
f 482 293 510
f 510 293 292
f 495 163 511
f 511 163 199
f 494 493 510
f 510 493 499
f 481 491 294
f 294 491 248
f 582 583 581
f 581 583 584
f 586 587 585
f 585 587 588
f 585 588 589
f 589 588 590
f 592 593 591
f 591 593 594
f 595 596 598
f 598 596 597
f 599 600 586
f 586 600 587
f 601 602 604
f 604 602 603
f 605 606 608
f 608 606 607
f 609 607 200
f 200 607 606
f 610 611 613
f 613 611 612
f 600 614 587
f 587 614 592
f 596 605 597
f 597 605 608
f 602 615 603
f 603 615 583
f 616 614 584
f 584 614 600
f 611 618 617
f 617 618 590
f 620 621 619
f 619 621 622
f 610 623 611
f 611 623 618
f 624 589 618
f 618 589 590
f 617 590 591
f 591 590 588
f 581 625 582
f 582 625 626
f 599 627 581
f 581 627 625
f 591 594 617
f 617 594 628
f 601 610 598
f 598 610 613
f 581 584 599
f 599 584 600
f 585 629 586
f 586 629 630
f 615 616 583
f 583 616 584
f 587 592 588
f 588 592 591
f 582 626 631
f 631 626 632
f 624 620 633
f 633 620 619
f 621 620 604
f 604 620 623
f 631 632 621
f 621 632 622
f 610 601 623
f 623 601 604
f 589 624 634
f 634 624 633
f 586 630 599
f 599 630 627
f 203 202 628
f 628 202 612
f 629 585 634
f 634 585 589
f 609 593 614
f 614 593 592
f 620 624 623
f 623 624 618
f 631 621 603
f 603 621 604
f 582 631 583
f 583 631 603
f 634 633 636
f 636 633 635
f 634 636 629
f 629 636 637
f 629 637 630
f 630 637 638
f 630 638 627
f 627 638 639
f 633 619 635
f 635 619 640
f 619 622 640
f 640 622 641
f 641 622 642
f 642 622 632
f 644 635 643
f 643 635 640
f 645 646 648
f 648 646 647
f 649 650 646
f 646 650 647
f 647 650 652
f 652 650 651
f 652 653 655
f 655 653 654
f 651 656 652
f 652 656 653
f 655 648 652
f 652 648 647
f 648 657 645
f 645 657 658
f 650 649 651
f 651 649 659
f 649 637 659
f 659 637 636
f 649 660 637
f 637 660 638
f 661 660 646
f 646 660 649
f 662 661 645
f 645 661 646
f 651 659 656
f 656 659 644
f 644 659 635
f 635 659 636
f 663 662 658
f 658 662 645
f 664 661 665
f 665 661 662
f 663 666 662
f 662 666 665
f 667 664 668
f 668 664 665
f 664 667 670
f 670 667 669
f 666 671 665
f 665 671 668
f 661 664 660
f 660 664 670
f 660 670 638
f 638 670 639
f 658 672 663
f 663 672 673
f 658 657 672
f 672 657 674
f 653 656 675
f 675 656 644
f 653 675 654
f 654 675 676
f 675 644 677
f 677 644 643
f 676 675 678
f 678 675 677
f 679 680 676
f 676 680 654
f 674 680 672
f 672 680 679
f 627 639 625
f 625 639 681
f 626 682 632
f 632 682 642
f 681 682 625
f 625 682 626
f 669 683 681
f 681 683 682
f 667 684 669
f 669 684 683
f 682 683 642
f 642 683 685
f 681 639 669
f 669 639 670
f 686 641 685
f 685 641 642
f 641 686 640
f 640 686 643
f 686 687 643
f 643 687 677
f 687 686 688
f 688 686 685
f 689 687 690
f 690 687 688
f 683 684 685
f 685 684 688
f 684 691 688
f 688 691 690
f 687 689 677
f 677 689 678
f 693 678 692
f 692 678 689
f 692 695 694
f 694 695 696
f 692 689 695
f 695 689 690
f 692 694 693
f 693 694 673
f 693 673 679
f 679 673 672
f 679 676 693
f 693 676 678
f 684 667 691
f 691 667 668
f 696 691 671
f 671 691 668
f 696 695 691
f 691 695 690
f 694 696 666
f 666 696 671
f 666 663 694
f 694 663 673
f 648 655 657
f 657 655 674
f 674 655 680
f 680 655 654
f 593 162 594
f 594 162 290
f 598 597 601
f 601 597 602
f 615 608 616
f 616 608 607
f 607 609 616
f 616 609 614
f 697 595 613
f 613 595 598
f 597 608 602
f 602 608 615
f 594 290 628
f 628 290 203
f 628 612 617
f 617 612 611
f 593 609 162
f 162 609 200
f 105 29 698
f 698 29 699
f 268 126 701
f 701 126 700
f 126 125 700
f 700 125 702
f 252 703 250
f 250 703 704
f 32 268 705
f 705 268 701
f 288 105 706
f 706 105 698
f 29 32 699
f 699 32 705
f 707 251 706
f 706 251 288
f 250 704 125
f 125 704 702
f 703 252 707
f 707 252 251
f 706 708 707
f 707 708 709
f 707 709 703
f 703 709 710
f 703 710 704
f 704 710 711
f 704 711 702
f 702 711 712
f 706 698 708
f 708 698 713
f 698 699 713
f 713 699 714
f 699 705 714
f 714 705 715
f 717 708 716
f 716 708 713
f 719 720 718
f 718 720 721
f 722 723 719
f 719 723 720
f 724 725 723
f 723 725 720
f 724 726 725
f 725 726 727
f 728 721 725
f 725 721 720
f 721 728 729
f 729 728 730
f 729 731 721
f 721 731 718
f 724 723 732
f 732 723 722
f 722 710 732
f 732 710 709
f 722 733 710
f 710 733 711
f 719 734 722
f 722 734 733
f 734 719 735
f 735 719 718
f 724 732 726
f 726 732 717
f 717 732 708
f 708 732 709
f 731 736 718
f 718 736 735
f 737 734 738
f 738 734 735
f 736 739 735
f 735 739 738
f 740 737 741
f 741 737 738
f 737 740 743
f 743 740 742
f 739 744 738
f 738 744 741
f 734 737 733
f 733 737 743
f 733 743 711
f 711 743 712
f 736 731 746
f 746 731 745
f 731 729 745
f 745 729 730
f 727 726 747
f 747 726 717
f 748 727 749
f 749 727 747
f 747 717 750
f 750 717 716
f 749 747 751
f 751 747 750
f 749 752 748
f 748 752 753
f 730 753 745
f 745 753 752
f 728 725 748
f 748 725 727
f 730 728 753
f 753 728 748
f 700 702 754
f 754 702 712
f 705 701 715
f 715 701 755
f 754 755 700
f 700 755 701
f 742 756 754
f 754 756 755
f 740 757 742
f 742 757 756
f 755 756 715
f 715 756 758
f 754 712 742
f 742 712 743
f 759 714 758
f 758 714 715
f 714 759 713
f 713 759 716
f 759 760 716
f 716 760 750
f 760 759 761
f 761 759 758
f 762 760 763
f 763 760 761
f 756 757 758
f 758 757 761
f 757 764 761
f 761 764 763
f 760 762 750
f 750 762 751
f 766 751 765
f 765 751 762
f 767 765 769
f 769 765 768
f 765 762 768
f 768 762 763
f 765 767 766
f 766 767 746
f 766 746 752
f 752 746 745
f 752 749 766
f 766 749 751
f 757 740 764
f 764 740 741
f 769 764 744
f 744 764 741
f 769 768 764
f 764 768 763
f 767 769 739
f 739 769 744
f 739 736 767
f 767 736 746
f 219 217 208
f 208 217 209
f 209 217 210
f 210 217 193
f 198 580 199
f 199 580 511
f 76 75 289
f 289 75 272
f 277 207 291
f 291 207 184
f 290 183 203
f 203 183 84
f 490 580 142
f 142 580 198
f 142 198 143
f 143 198 197
f 149 276 72
f 72 276 73
f 104 103 279
f 279 103 770
f 770 596 279
f 279 596 595
f 605 596 771
f 771 596 770
f 771 770 772
f 772 770 103
f 772 103 773
f 773 103 102
f 155 774 101
f 101 774 102
f 773 102 97
f 97 102 774
f 775 773 100
f 100 773 97
f 773 775 772
f 772 775 776
f 772 776 771
f 771 776 777
f 200 606 197
f 197 606 777
f 189 71 778
f 778 71 74
f 97 774 98
f 98 774 155
f 183 161 184
f 184 161 291
f 777 276 197
f 197 276 143
f 777 606 771
f 771 606 605
f 613 612 697
f 697 612 202
f 595 697 279
f 279 697 202
f 73 276 776
f 776 276 777
f 776 775 73
f 73 775 74
f 100 778 775
f 775 778 74
f 778 100 189
f 189 100 99
f 245 242 99
f 99 242 189
f 131 33 256
f 28 1 95
f 95 1 62
f 27 2 28
f 28 2 1
f 265 115 266
f 266 115 114
f 95 62 69
f 69 62 64
f 62 61 64
f 64 61 65
f 61 13 65
f 65 13 130
f 13 12 130
f 130 12 14
f 31 11 32
f 32 11 268
f 15 12 31
f 31 12 11
f 31 30 15
f 15 30 231
f 30 106 231
f 231 106 232
f 287 237 106
f 106 237 232
f 254 90 287
f 287 90 237
f 253 44 254
f 254 44 90
f 253 249 44
f 44 249 7
f 267 127 268
f 268 127 126
f 10 3 241
f 241 3 116
f 3 2 116
f 116 2 114
f 2 27 114
f 114 27 266
f 27 26 266
f 266 26 113
f 26 286 113
f 113 286 110
f 286 243 110
f 110 243 255
f 243 242 255
f 255 242 256
f 242 245 256
f 256 245 131
f 245 244 131
f 131 244 132
f 265 37 115
f 115 37 41
f 41 37 42
f 42 37 40
f 92 91 40
f 40 91 42
f 236 233 92
f 92 233 91
f 191 194 236
f 236 194 233
f 258 285 244
f 244 285 132
f 257 55 258
f 258 55 285
f 257 154 201
f 201 154 185
f 56 201 204
f 204 201 180
f 55 257 56
f 56 257 201
f 204 85 56
f 56 85 52
f 86 122 53
f 53 122 79
f 212 215 86
f 86 215 122
f 211 216 212
f 212 216 215
f 192 280 211
f 211 280 216
f 191 240 192
f 192 240 280
f 249 124 7
f 7 124 8
f 124 127 8
f 8 127 241
f 127 267 241
f 241 267 10
f 10 267 9
f 9 267 11
