v -0.010421466082334518 0.0734916627407074 0.7812837958335876
v 0.002425350248813629 0.06962753087282181 0.7803937792778015
v -0.004350803792476654 0.06455407291650772 0.7848454117774963
v -0.015504702925682068 0.06939806789159775 0.7865301966667175
v 0.012305870652198792 0.059974852949380875 0.7969166040420532
v 0.015615105628967285 0.06448529660701752 0.8072423934936523
v -0.00019823014736175537 0.06153196096420288 0.8070055842399597
v 0.0005116723477840424 0.05783463269472122 0.7972911596298218
v -0.020506523549556732 0.06913315504789352 0.7897832989692688
v -0.011270835995674133 0.06238151341676712 0.7876100540161133
v -0.02233598381280899 0.07470408827066422 0.7902836799621582
v -0.030579686164855957 0.08340105414390564 0.7960803508758545
v -0.029550815001130104 0.07680939137935638 0.7942418456077576
v -0.03792845085263252 0.08752328902482986 0.7975006103515625
v -0.025055885314941406 0.09298974275588989 0.7973109483718872
v -0.036366596817970276 0.0962672084569931 0.7942439913749695
v -0.016577988862991333 0.10750032961368561 0.7788316607475281
v -0.012984246015548706 0.10835891216993332 0.766592264175415
v -0.028703929856419563 0.10658267140388489 0.7651936411857605
v -0.030840346589684486 0.10515528172254562 0.7779240012168884
v -0.01800515502691269 0.10301081836223602 0.7482869625091553
v -0.024961769580841064 0.10520242899656296 0.7573425769805908
v -0.009090784937143326 0.10804843157529831 0.7587123513221741
v -0.0037841796875 0.1058432012796402 0.7503364682197571
v -0.0033105164766311646 0.07801398634910583 0.7700590491294861
v 0.008242487907409668 0.07641260325908661 0.7691760659217834
v 0.006894975900650024 0.07496429234743118 0.7734551429748535
v -0.0049075596034526825 0.07700107991695404 0.7744585275650024
v -0.024680230766534805 0.07620424032211304 0.7947657704353333
v -0.018233582377433777 0.08450246602296829 0.8012165427207947
v -0.02206401154398918 0.08180771768093109 0.7955875396728516
v -0.0239768847823143 0.07274336367845535 0.7904871106147766
v 0.03356722742319107 0.06986342370510101 0.7610924243927002
v 0.04540174454450607 0.07569444179534912 0.7633426189422607
v 0.044765859842300415 0.07623707503080368 0.7692718505859375
v 0.034216903150081635 0.0711529552936554 0.7660289406776428
v 0.03642939031124115 0.07216928154230118 0.7938860058784485
v 0.043807439506053925 0.07862132787704468 0.7885482907295227
v 0.04754381626844406 0.08756089210510254 0.7974409461021423
v 0.03828766942024231 0.08472271263599396 0.8020318150520325
v 0.026617243885993958 0.0666600912809372 0.8021944761276245
v 0.028254270553588867 0.0777544230222702 0.8085767030715942
v 0.01395852118730545 0.0742781013250351 0.8136298656463623
v -0.0035038739442825317 0.06826353818178177 0.8126572370529175
v 0.04682766646146774 0.07758121192455292 0.7507850527763367
v 0.03849954903125763 0.0730835422873497 0.7473570704460144
v -0.09057566523551941 0.09567128866910934 0.7839749455451965
v -0.08870740234851837 0.09651288390159607 0.7784525156021118
v -0.08425834774971008 0.09160116314888 0.7808675765991211
v -0.08633964508771896 0.09213914722204208 0.786024808883667
v 0.040150366723537445 0.09172570705413818 0.7383235692977905
v 0.03872298449277878 0.10168100893497467 0.7391459941864014
v 0.045863136649131775 0.1005718931555748 0.7389143705368042
v 0.04740549623966217 0.09138524532318115 0.7400060892105103
v 0.030494317412376404 0.09197507053613663 0.7362765073776245
v 0.028734616935253143 0.1025223359465599 0.7400139570236206
v -0.08664669096469879 0.10534866899251938 0.7905336022377014
v -0.08968236297369003 0.1012386754155159 0.7904917597770691
v -0.08466079086065292 0.09921371936798096 0.7925437688827515
v -0.08085592091083527 0.10330244153738022 0.7917404174804688
v -0.026163656264543533 0.07388028502464294 0.7901913523674011
v -0.021302856504917145 0.07455365359783173 0.7831936478614807
v -0.04802829027175903 0.07716003805398941 0.7896803617477417
v -0.035918816924095154 0.07651994377374649 0.7863750457763672
v -0.03616439551115036 0.07695181667804718 0.7930861711502075
v -0.04600530490279198 0.07900553196668625 0.7954656481742859
v -0.025949914008378983 0.07873144000768661 0.7651474475860596
v -0.014204241335391998 0.07905852794647217 0.7664166688919067
v -0.017108123749494553 0.07886472344398499 0.7720574736595154
v -0.030359862372279167 0.07785699516534805 0.7725027203559875
v -0.009944882243871689 0.07619573175907135 0.7533068656921387
v -0.021928220987319946 0.07642590254545212 0.7530944347381592
v -0.018339239060878754 0.0745890885591507 0.7456496953964233
v -0.01028740406036377 0.07395850867033005 0.7471582293510437
v -0.044130075722932816 0.07869318872690201 0.7554019093513489
v -0.052067384123802185 0.08288711309432983 0.7544629573822021
v -0.0526847280561924 0.08410375565290451 0.7499001026153564
v -0.04320160672068596 0.07928603887557983 0.7518084049224854
v 0.05288294702768326 0.10058529675006866 0.7391507625579834
v 0.05414287745952606 0.09146694093942642 0.7425240874290466
v -0.008371852338314056 0.09568886458873749 0.7310365438461304
v -0.002554040402173996 0.08788855373859406 0.7259924411773682
v -0.01305273175239563 0.0866946130990982 0.7223196029663086
v -0.016472525894641876 0.09479228407144547 0.7286821007728577
v 0.03559581935405731 0.10933627188205719 0.7454119920730591
v 0.04305236041545868 0.10927444696426392 0.7431042790412903
v -0.08294293284416199 0.10913168638944626 0.787164032459259
v -0.07795922458171844 0.106656014919281 0.7875682711601257
v 0.013596110045909882 0.08648181706666946 0.8122494220733643
v -0.005741998553276062 0.07767338305711746 0.8129224181175232
v 0.028353549540042877 0.09197816997766495 0.8072577714920044
v 0.03779330849647522 0.09653399884700775 0.8018345832824707
v 0.0463901087641716 0.09908802807331085 0.7995290160179138
v -0.03965368866920471 0.0763922929763794 0.7805554866790771
v -0.015104472637176514 0.07695449888706207 0.7771027088165283
v -0.0017949938774108887 0.07785966247320175 0.7655898928642273
v 0.0028601475059986115 0.06982757151126862 0.7366198897361755
v 0.013437852263450623 0.06959091126918793 0.7383553981781006
v 0.007737018167972565 0.06950393319129944 0.747170627117157
v -0.00036568939685821533 0.07040312141180038 0.7437593340873718
v -0.002232331782579422 0.07833036035299301 0.7248719930648804
v -0.005466170608997345 0.07250504195690155 0.7290927767753601
v -0.014907188713550568 0.0727413222193718 0.7269379496574402
v -0.012176092714071274 0.0780816301703453 0.7223790287971497
v -0.02541489526629448 0.07668016850948334 0.8015093803405762
v -0.014185279607772827 0.08636097609996796 0.8059808611869812
v 0.04089681804180145 0.08166644722223282 0.7411409020423889
v 0.047534532845020294 0.08256605267524719 0.7449145317077637
v 0.05514458566904068 0.08529018610715866 0.7471004128456116
v 0.021367043256759644 0.07227002084255219 0.7668876647949219
v 0.034779101610183716 0.07184043526649475 0.7697452306747437
v 0.03403192758560181 0.07114063948392868 0.7749297618865967
v 0.021311990916728973 0.0726706013083458 0.7700243592262268
v 0.014621682465076447 0.0644897073507309 0.783733069896698
v 0.024799063801765442 0.06371212005615234 0.7901948094367981
v 0.004853792488574982 0.0596160963177681 0.7874332070350647
v 0.0455779954791069 0.07723187655210495 0.777813196182251
v 0.054445743560791016 0.0784105509519577 0.7711319327354431
v 0.05393978953361511 0.08011996001005173 0.7799748778343201
v 0.055376164615154266 0.07910811901092529 0.7614171504974365
v 0.055651016533374786 0.08122950047254562 0.7527826428413391
v 0.05085020512342453 0.11211124062538147 0.7415040731430054
v 0.05233687907457352 0.08315697312355042 0.7877500653266907
v -0.007562045007944107 0.05730243772268295 0.7960473895072937
v -0.01510382816195488 0.056501757353544235 0.7938128709793091
v -0.01648835837841034 0.060624171048402786 0.7872092723846436
v -0.009956791996955872 0.060542091727256775 0.7884479761123657
v -0.04738277941942215 0.09170997142791748 0.798059344291687
v -0.04760485514998436 0.08401942253112793 0.7983445525169373
v -0.036285221576690674 0.0806795060634613 0.7977766394615173
v 0.023935697972774506 0.06877255439758301 0.7547229528427124
v 0.028663307428359985 0.07122564315795898 0.7434418201446533
v -0.05139044672250748 0.07861307263374329 0.7837252020835876
v -0.07607604563236237 0.10428428649902344 0.7920392751693726
v -0.07870059460401535 0.09947164356708527 0.7941956520080566
v -0.06267383694648743 0.09613579511642456 0.7969738841056824
v -0.06175430491566658 0.10189017653465271 0.794152557849884
v -0.0595577172935009 0.08709487318992615 0.7785040140151978
v -0.05737399309873581 0.08260416984558105 0.7826704382896423
v -0.06054539978504181 0.08560508489608765 0.7816728949546814
v -0.06243107095360756 0.08971371501684189 0.7772238254547119
v -0.04651661962270737 0.08179626613855362 0.743914008140564
v -0.039036624133586884 0.07813659310340881 0.7447648644447327
v -0.04586416855454445 0.10012021660804749 0.7764483094215393
v -0.04296020045876503 0.10247544199228287 0.7885990142822266
v -0.03268320858478546 0.10301750153303146 0.7870805859565735
v -0.022842712700366974 0.07789260149002075 0.7584452629089355
v -0.03362052142620087 0.07745248079299927 0.7564241290092468
v -0.03258983790874481 0.07718593627214432 0.7524483799934387
v -0.043215177953243256 0.07736431062221527 0.7770509719848633
v -0.052369073033332825 0.07997660338878632 0.7780278921127319
v -0.04862647131085396 0.07910281419754028 0.7734910845756531
v -0.03993713855743408 0.07799501717090607 0.7722282409667969
v 0.00948256254196167 0.09052947163581848 0.7290730476379395
v 0.010253652930259705 0.07917594909667969 0.7274839282035828
v -0.09098463505506516 0.09757533669471741 0.7882437109947205
v -0.08616987615823746 0.09483735263347626 0.7904421091079712
v -0.011388130486011505 0.07825589179992676 0.7598352432250977
v -0.01947690173983574 0.10365867614746094 0.7872545123100281
v -1.0013580322265625e-05 0.0770779475569725 0.7605704069137573
v -0.033291541039943695 0.0942104160785675 0.7377898097038269
v -0.03518684580922127 0.08802428096532822 0.7333881258964539
v -0.039664920419454575 0.08921349793672562 0.7347044944763184
v -0.0387287437915802 0.0950382873415947 0.7361317276954651
v -0.07517284154891968 0.09632904827594757 0.7742944955825806
v -0.0778370276093483 0.0919741615653038 0.7771303653717041
v -0.08174555748701096 0.09376228600740433 0.775584876537323
v -0.07868500053882599 0.09786372631788254 0.7735270261764526
v -0.05661659687757492 0.08141417056322098 0.7883018255233765
v -0.05521741509437561 0.0824756845831871 0.7946195006370544
v -0.06233033537864685 0.0852557122707367 0.7922697067260742
v -0.06183655560016632 0.08482853323221207 0.7865186929702759
v -0.05627657100558281 0.08811266720294952 0.7976969480514526
v -0.06264425069093704 0.08994494378566742 0.7962542176246643
v -0.07260534167289734 0.10223475098609924 0.7759097814559937
v -0.07144380360841751 0.10724952816963196 0.7817850708961487
v -0.06033126264810562 0.10376068204641342 0.7815549373626709
v -0.06302111595869064 0.0974264144897461 0.7774417400360107
v 0.0102652907371521 0.10916582494974136 0.7527346611022949
v 0.014020346105098724 0.10527423769235611 0.7431409358978271
v 0.00017604604363441467 0.10184679925441742 0.7405019998550415
v -0.012749157845973969 0.09910590946674347 0.7376961708068848
v -0.02560751512646675 0.09495033323764801 0.7363525629043579
v -0.02966075763106346 0.1013796478509903 0.7458238005638123
v 0.004104491323232651 0.09867072105407715 0.7343748807907104
v -0.05754746124148369 0.09256118535995483 0.77433842420578
v -0.05221892520785332 0.09925304353237152 0.7812508344650269
v -0.053074829280376434 0.09718267619609833 0.7752848267555237
v 0.0015305392444133759 0.0743321031332016 0.7539004683494568
v -0.07979170978069305 0.0949045941233635 0.7931579351425171
v 0.03573310375213623 0.11318206787109375 0.7877246737480164
v 0.03611328452825546 0.11699007451534271 0.775094747543335
v 0.02771071344614029 0.11500193178653717 0.776748538017273
v 0.026879601180553436 0.11023380607366562 0.7904717922210693
v -0.07946544885635376 0.08932994306087494 0.7832415699958801
v -0.08048372715711594 0.09041378647089005 0.7891222238540649
v -0.03794737905263901 0.07821482419967651 0.7377439737319946
v -0.04343675822019577 0.08170974999666214 0.7387017011642456
v -0.04264792799949646 0.08346138894557953 0.7355664968490601
v -0.03814765810966492 0.07927753031253815 0.7313171029090881
v 0.017231278121471405 0.10271284729242325 0.7390104532241821
v -0.018795620650053024 0.08710826933383942 0.7214905023574829
v -0.022481460124254227 0.09414652734994888 0.7265089750289917
v 0.02625276893377304 0.10827051848173141 0.7459067106246948
v 0.023072466254234314 0.11223958432674408 0.754167377948761
v 0.03249967843294144 0.1142488569021225 0.7546384930610657
v -0.041499726474285126 0.10184605419635773 0.7561179399490356
v 0.00558529794216156 0.11073273420333862 0.7598087191581726
v 0.019621267914772034 0.1131896823644638 0.7609018087387085
v 0.030765406787395477 0.11560411006212234 0.7617874145507812
v 0.03875676542520523 0.1178288608789444 0.7616822123527527
v 0.03989380598068237 0.1158902496099472 0.7538682222366333
v -0.07338175922632217 0.10682082176208496 0.7869882583618164
v -0.07576107233762741 0.10735086351633072 0.7818958163261414
v 0.04816783219575882 0.11924901604652405 0.7524257898330688
v 0.046659551560878754 0.12066015601158142 0.7614473104476929
v 0.016458876430988312 0.1134156882762909 0.7695602178573608
v 0.012916453182697296 0.11245446652173996 0.7797514796257019
v 0.0029956847429275513 0.11090043932199478 0.768039882183075
v -0.001592639833688736 0.1098179742693901 0.7780413031578064
v -0.03986882418394089 0.10515742003917694 0.7659453749656677
v -0.08923344314098358 0.11587059497833252 0.7745416164398193
v -0.08036260306835175 0.10877801477909088 0.776239812374115
v -0.08220735192298889 0.10410112142562866 0.7730177044868469
v -0.0888512060046196 0.11281965672969818 0.7711971402168274
v -0.07629695534706116 0.10292425751686096 0.7759219408035278
v -0.0802597925066948 0.11072126030921936 0.7815788388252258
v -0.004772178828716278 0.10481556504964828 0.789345383644104
v -0.057596947997808456 0.08317612111568451 0.7728130221366882
v 0.01063123345375061 0.10521121323108673 0.7936597466468811
v -0.013350479304790497 0.09702202677726746 0.7994285225868225
v -0.0024258270859718323 0.09568791836500168 0.8029029965400696
v 0.02629673480987549 0.10384413599967957 0.8006519079208374
v 0.01179707795381546 0.09692692011594772 0.8067734241485596
v 0.04428204894065857 0.10831346362829208 0.7951716780662537
v 0.035275936126708984 0.10665023326873779 0.7968891859054565
v -0.002714298665523529 0.08840464800596237 0.8096964955329895
v -0.0967852920293808 0.10148287564516068 0.7762515544891357
v -0.0930187925696373 0.1029137521982193 0.7719835638999939
v 0.043812431395053864 0.11550891399383545 0.7867575883865356
v -0.004170842468738556 0.05890930816531181 0.788597583770752
v 0.011858589947223663 0.07251616567373276 0.7571759819984436
v 0.010357126593589783 0.07471369206905365 0.76197749376297
v 0.019601643085479736 0.07000328600406647 0.7400797605514526
v 0.014895960688591003 0.06926704943180084 0.7506320476531982
v -0.09870299696922302 0.10288842022418976 0.7810441851615906
v -0.054620251059532166 0.08916330337524414 0.7529439330101013
v -0.054260723292827606 0.08971725404262543 0.7502902746200562
v -0.008677881211042404 0.05833800509572029 0.8045142889022827
v -0.015586335211992264 0.05659573897719383 0.8015164732933044
v -0.023463726043701172 0.06565645337104797 0.8071921467781067
v -0.019656144082546234 0.05960521474480629 0.8063519597053528
v -0.012414123862981796 0.06347180157899857 0.8098015785217285
v -0.01581849530339241 0.0703362226486206 0.8103499412536621
v 0.021167390048503876 0.07157474011182785 0.764225959777832
v 0.02138906717300415 0.07061554491519928 0.7603858709335327
v 0.020696163177490234 0.09113453328609467 0.7326152324676514
v 0.020870737731456757 0.0797433853149414 0.7314130663871765
v -0.05552399903535843 0.0943761095404625 0.7975560426712036
v -0.04658818244934082 0.0985693633556366 0.7953100800514221
v -0.0544469878077507 0.10026457160711288 0.7944440245628357
v -0.05927397683262825 0.10471376031637192 0.788584291934967
v -0.06051553413271904 0.08877698332071304 0.7726874947547913
v -0.0580742247402668 0.09319230914115906 0.7781223058700562
v 0.029880687594413757 0.06760922074317932 0.7814137935638428
v 0.019505776464939117 0.07010993361473083 0.7760956883430481
v -0.015471607446670532 0.06452907621860504 0.7876967191696167
v -0.020402386784553528 0.06659338623285294 0.78609699010849
v -0.03540708124637604 0.0780457854270935 0.7654101252555847
v -0.049663517624139786 0.10184956341981888 0.7577558755874634
v -0.04947268217802048 0.10446066409349442 0.7656683921813965
v -0.04550623148679733 0.0789690762758255 0.7651023268699646
v -0.09762981534004211 0.11051839590072632 0.7843725085258484
v -0.09910702705383301 0.1058015301823616 0.7832970023155212
v -0.05245744436979294 0.10293261706829071 0.7888978719711304
v -0.029705479741096497 0.0749303549528122 0.7448635697364807
v -0.04546290263533592 0.09917718172073364 0.7520262598991394
v -0.051769327372312546 0.09656943380832672 0.754081130027771
v -0.01765640825033188 0.07850358635187149 0.7211262583732605
v 0.04474381357431412 0.1190098375082016 0.7746602892875671
v -0.08572922646999359 0.09975863248109818 0.7736114859580994
v -0.08977986127138138 0.10626985877752304 0.7696391344070435
v -0.09005974233150482 0.11705052852630615 0.7785694599151611
v -0.09290232509374619 0.11509983241558075 0.7832879424095154
v 0.030176840722560883 0.0799255520105362 0.7366318106651306
v 0.009083881974220276 0.07592745125293732 0.765052080154419
v -0.01525607705116272 0.08075518906116486 0.8086830973625183
v -0.02538415417075157 0.07263108342885971 0.8048298954963684
v -0.05309474095702171 0.0811760202050209 0.7640603184700012
v -0.02905261144042015 0.09196765720844269 0.7318896055221558
v -0.03735160827636719 0.10090584307909012 0.7435563802719116
v -0.04219561815261841 0.10151208937168121 0.7404686808586121
v -0.04855680093169212 0.10138511657714844 0.7439439296722412
v -0.05460912734270096 0.09699069708585739 0.7456899881362915
v -0.09419245272874832 0.1189083456993103 0.7749428749084473
v -0.0979965329170227 0.11721730977296829 0.7791088819503784
v -0.10230066627264023 0.11290477216243744 0.7791900038719177
v -0.10321607440710068 0.10808873176574707 0.7785272002220154
v -0.10129950940608978 0.1043107882142067 0.7769880890846252
v -0.09295355528593063 0.11772457510232925 0.771064281463623
v -0.09229728579521179 0.11483870446681976 0.7685274481773376
v -0.09191550314426422 0.10824067890644073 0.7682798504829407
v -0.09462030231952667 0.11863624304533005 0.7673236727714539
v -0.0984439104795456 0.12118513882160187 0.7690293192863464
v -0.11044757813215256 0.11605654656887054 0.7678760886192322
v -0.10696128755807877 0.11654909700155258 0.7724100351333618
v -0.10719136893749237 0.11821414530277252 0.7705417275428772
v -0.10989496111869812 0.11885140836238861 0.7665983438491821
v -0.11195196956396103 0.12086573988199234 0.762525737285614
v -0.11308357864618301 0.11764997243881226 0.7633532881736755
v -0.10300540924072266 0.11972523480653763 0.7713190317153931
v -0.10620070993900299 0.12121179699897766 0.7659135460853577
v -0.10269257426261902 0.12231095135211945 0.7639628052711487
v -0.10568459331989288 0.12433113157749176 0.7600373029708862
v -0.10905773192644119 0.12357619404792786 0.7617035508155823
v -0.10087008029222488 0.12136700749397278 0.7678979635238647
v -0.10199162364006042 0.11968017369508743 0.7730626463890076
v -0.11327102035284042 0.11992008239030838 0.7595561742782593
v -0.1126384362578392 0.12223832309246063 0.7601664066314697
v -0.11018809676170349 0.12408530712127686 0.7590516805648804
v -0.11086848378181458 0.12285271286964417 0.7564520835876465
v -0.10614999383687973 0.11055286228656769 0.7739206552505493
v -0.11047782748937607 0.11363877356052399 0.7672609090805054
v -0.11184591799974442 0.11531941592693329 0.7618265151977539
v -0.11211486905813217 0.11781185865402222 0.7582119703292847
v -0.10876225680112839 0.11156926304101944 0.7643689513206482
v -0.10980597883462906 0.11389988660812378 0.7603662014007568
v -0.10964997112751007 0.11598766595125198 0.7570396661758423
v -0.10591495782136917 0.1107291728258133 0.7614446878433228
v -0.10731440782546997 0.11339318007230759 0.7585269808769226
v -0.10051778703927994 0.10501386970281601 0.7710093855857849
v -0.10324813425540924 0.1062573790550232 0.7736324071884155
v -0.1080143004655838 0.11474654078483582 0.7564638257026672
v -0.10980589687824249 0.12136231362819672 0.755332350730896
v -0.09925317019224167 0.1214088648557663 0.7632935643196106
v -0.10335423052310944 0.12292446941137314 0.7581838369369507
v -0.09795238077640533 0.12006574124097824 0.7620292901992798
v -0.1017056480050087 0.12179239094257355 0.7568445205688477
v -0.10637339949607849 0.12436559796333313 0.7556570172309875
v -0.10749445855617523 0.12468075007200241 0.7579411864280701
v -0.09769080579280853 0.10278432071208954 0.7739086151123047
v -0.09375786781311035 0.10468824952840805 0.7701546549797058
v -0.09577260911464691 0.10664936155080795 0.767776608467102
v -0.10191522538661957 0.1116260513663292 0.7591949105262756
v -0.09349052608013153 0.10996945202350616 0.7657661437988281
v -0.09390343725681305 0.11600813269615173 0.7649412155151367
v -0.09776431322097778 0.11819307506084442 0.7599607110023499
v -0.0985308513045311 0.115216463804245 0.7587261199951172
v -0.10110741853713989 0.11939981579780579 0.7563141584396362
v -0.1018274798989296 0.11693182587623596 0.7562724947929382
v -0.10432301461696625 0.11421668529510498 0.7566999197006226
v -0.10450396686792374 0.11972615867853165 0.75440913438797
v -0.10533905774354935 0.12256436794996262 0.7547470331192017
v -0.10796679556369781 0.11859926581382751 0.754814088344574
v -0.10392379015684128 0.11787733435630798 0.754833996295929
v -0.10643810033798218 0.11657687276601791 0.7555662989616394
v -0.08798260241746902 0.09863441437482834 0.7444705367088318
v -0.08349654823541641 0.10040757060050964 0.7409231662750244
v -0.08038114011287689 0.09595874696969986 0.7457959055900574
v -0.08393813669681549 0.09543554484844208 0.7494040727615356
v -0.08784991502761841 0.10774075239896774 0.7546982169151306
v -0.0905647724866867 0.10299204289913177 0.7520862221717834
v -0.0860542356967926 0.10182623565196991 0.757220983505249
v -0.08207634091377258 0.10712949186563492 0.7579140067100525
v -0.08263887465000153 0.11138443648815155 0.7531174421310425
v -0.07689463347196579 0.10935234278440475 0.7551412582397461
v -0.07843519002199173 0.10852597653865814 0.7602947354316711
v -0.08139108121395111 0.10203037410974503 0.7607661485671997
v -0.06363001465797424 0.09588488191366196 0.7698521018028259
v -0.061884332448244095 0.10295525193214417 0.7689284086227417
v -0.058136504143476486 0.08645500987768173 0.7558444738388062
v -0.0579196959733963 0.09034670889377594 0.7541146874427795
v -0.09008807688951492 0.09993527829647064 0.7479381561279297
v -0.0860409140586853 0.09784362465143204 0.7536118030548096
v -0.07255001366138458 0.09793128818273544 0.7434062957763672
v -0.07558811455965042 0.09410707652568817 0.7457008957862854
v -0.0773286521434784 0.09777870774269104 0.7423696517944336
v -0.07445544004440308 0.10185118764638901 0.7418028712272644
v -0.062324319034814835 0.08723451942205429 0.7668986916542053
v -0.05929647013545036 0.08557602018117905 0.7616984844207764
v -0.06377605348825455 0.09091561287641525 0.7684921026229858
v -0.07046875357627869 0.10397481173276901 0.7445875406265259
v -0.07029961794614792 0.10958525538444519 0.7483958601951599
v -0.05622512847185135 0.10515645891427994 0.7562973499298096
v -0.056450050324201584 0.09924855828285217 0.75311678647995
v -0.08240880817174911 0.09704078733921051 0.7583760023117065
v -0.0788816288113594 0.0927080437541008 0.7499682307243347
v -0.08138226717710495 0.09328433126211166 0.7541496157646179
v -0.07379137724637985 0.11101140081882477 0.755314826965332
v -0.07391101121902466 0.11028227210044861 0.7485286593437195
v -0.08337250351905823 0.11903168261051178 0.736008882522583
v -0.07663392275571823 0.11141743510961533 0.743131697177887
v -0.07742038369178772 0.10761777311563492 0.7397927045822144
v -0.08320470154285431 0.11571259051561356 0.7321301698684692
v -0.07323068380355835 0.10668008029460907 0.7443925142288208
v -0.0786222442984581 0.1130405142903328 0.7478234171867371
v -0.09469418972730637 0.10787274688482285 0.7329958081245422
v -0.08940412104129791 0.10931125283241272 0.7298010587692261
v -0.0976608544588089 0.1090744212269783 0.7363138794898987
v -0.058562107384204865 0.10701446235179901 0.7630191445350647
v -0.09622284770011902 0.1153569221496582 0.744227409362793
v -0.0984518826007843 0.11099085211753845 0.7400696277618408
v -0.07956734299659729 0.10349826514720917 0.7388248443603516
v -0.08536148071289062 0.11229994148015976 0.729579746723175
v -0.08546354621648788 0.12063787877559662 0.7398014664649963
v -0.09047213941812515 0.11876808106899261 0.744935929775238
v -0.08784784376621246 0.12278717756271362 0.734749436378479
v -0.09319102764129639 0.12230440229177475 0.7383525371551514
v -0.09892498701810837 0.11891017109155655 0.7376182675361633
v -0.10050053894519806 0.11390861868858337 0.7348335385322571
v -0.09915326535701752 0.11105311661958694 0.7325557470321655
v -0.08582732081413269 0.12091687321662903 0.731453537940979
v -0.08555677533149719 0.11731594800949097 0.7282973527908325
v -0.08737127482891083 0.11270038783550262 0.7276004552841187
v -0.08779868483543396 0.12103688716888428 0.72496497631073
v -0.09037992358207703 0.12414202839136124 0.7267606258392334
v -0.10598402470350266 0.1205672100186348 0.7176275849342346
v -0.10429622232913971 0.12042763829231262 0.723304808139801
v -0.10282629728317261 0.12252727895975113 0.7227369546890259
v -0.10430462658405304 0.12285230308771133 0.7175509929656982
v -0.10194629430770874 0.12193456292152405 0.7289413213729858
v -0.10090860724449158 0.12319201231002808 0.7269064784049988
v -0.09648542106151581 0.12458693236112595 0.7272992134094238
v -0.09852302074432373 0.12426567077636719 0.721554696559906
v -0.09373340010643005 0.12410460412502289 0.7206851840019226
v -0.09549370408058167 0.12502364814281464 0.7154857516288757
v -0.10027415305376053 0.12547065317630768 0.7161250114440918
v -0.09338458627462387 0.12469202280044556 0.7248976230621338
v -0.10435052961111069 0.12344636023044586 0.7140494585037231
v -0.10502613335847855 0.12167668342590332 0.7122615575790405
v -0.09591992199420929 0.12477853894233704 0.7305360436439514
v -0.1023484319448471 0.11618473380804062 0.7311648726463318
v -0.10485900193452835 0.11746834963560104 0.7226475477218628
v -0.10575646907091141 0.11766047030687332 0.716206431388855
v -0.10360534489154816 0.11943353712558746 0.7107623815536499
v -0.10319052636623383 0.11422857642173767 0.7205443382263184
v -0.10379631072282791 0.11549590528011322 0.7148070335388184
v -0.10172867774963379 0.11744298040866852 0.710721492767334
v -0.09972793608903885 0.11179833114147186 0.7183864712715149
v -0.10021597146987915 0.11388060450553894 0.713184654712677
v -0.09699138253927231 0.1096852719783783 0.7281989455223083
v -0.10066744685173035 0.11183314770460129 0.7299530506134033
v -0.10020680725574493 0.11569283902645111 0.7113532423973083
v -0.10142309963703156 0.1242530345916748 0.7102636694908142
v -0.10042526572942734 0.12137452512979507 0.7088295221328735
v -0.10131990909576416 0.12498152256011963 0.7119994759559631
v -0.09176688641309738 0.12343081831932068 0.7201349139213562
v -0.09409637749195099 0.1237284392118454 0.7143079042434692
v -0.09015718102455139 0.12150908261537552 0.7187841534614563
v -0.09309257566928864 0.12215284258127213 0.7127482295036316
v -0.09667909145355225 0.12431226670742035 0.71053147315979
v -0.09772410988807678 0.125191330909729 0.7115556597709656
v -0.09571730345487595 0.10959888249635696 0.730460524559021
v -0.09060851484537125 0.11032657325267792 0.7282974720001221
v -0.09171614050865173 0.10983715206384659 0.726521909236908
v -0.09469278901815414 0.11229550093412399 0.7170306444168091
v -0.08794820308685303 0.11254219710826874 0.725645899772644
v -0.0870123952627182 0.11753059923648834 0.7242498397827148
v -0.08948801457881927 0.11882197856903076 0.7181167006492615
v -0.09093840420246124 0.11529267579317093 0.7169308662414551
v -0.09202249348163605 0.12033642828464508 0.7121247053146362
v -0.09243431687355042 0.11719071865081787 0.713009774684906
v -0.09618012607097626 0.11416005343198776 0.7126686573028564
v -0.09518110007047653 0.12086690962314606 0.7089359760284424
v -0.09604373574256897 0.12301444262266159 0.7094894647598267
v -0.09941604733467102 0.11939549446105957 0.709000289440155
v -0.09463569521903992 0.11820339411497116 0.7101167440414429
v -0.09801554679870605 0.11674988269805908 0.7101119756698608
v -0.07205543667078018 0.09046158194541931 0.7211872935295105
v -0.06783027201890945 0.08782889693975449 0.7192793488502502
v -0.0654151663184166 0.08641429990530014 0.724253237247467
v -0.06958227604627609 0.08944080024957657 0.7263494729995728
v -0.06913844496011734 0.10338084399700165 0.7222638130187988
v -0.07271596789360046 0.09975682199001312 0.7226501703262329
v -0.07046698033809662 0.09919024258852005 0.7270838022232056
v -0.0662275180220604 0.10300621390342712 0.7274177074432373
v -0.0648488849401474 0.10457302629947662 0.718775749206543
v -0.06089623272418976 0.10364976525306702 0.724856972694397
v -0.06313546746969223 0.10425972938537598 0.7310352921485901
v -0.06781981140375137 0.09974673390388489 0.731054425239563
v -0.057792335748672485 0.09789982438087463 0.7416931390762329
v -0.053326044231653214 0.10302051901817322 0.7396838068962097
v -0.07328075170516968 0.0949648916721344 0.7220531702041626
v -0.07121627777814865 0.09421783685684204 0.7267353534698486
v -0.05661781504750252 0.08772830665111542 0.7226982712745667
v -0.06017358973622322 0.08569588512182236 0.7248560190200806
v -0.06103884428739548 0.0866466760635376 0.7214102149009705
v -0.058253418654203415 0.08909551799297333 0.7197906970977783
v -0.05635477229952812 0.0869254395365715 0.7438229322433472
v -0.05129455402493477 0.08459294587373734 0.7409815192222595
v -0.058919284492731094 0.09191080182790756 0.7427313923835754
v -0.053933579474687576 0.09373987466096878 0.7218953967094421
v -0.053362887352705 0.10066661238670349 0.7235519289970398
v -0.044215407222509384 0.0975051298737526 0.731334388256073
v -0.04470498114824295 0.09130621701478958 0.7316648364067078
v -0.06899570673704147 0.09463010728359222 0.7308397889137268
v -0.06400816887617111 0.08598936349153519 0.7281684875488281
v -0.06804457306861877 0.08927246928215027 0.7301533222198486
v -0.05766518786549568 0.10435312986373901 0.7277737259864807
v -0.057049885392189026 0.10023987293243408 0.721059262752533
v -0.0650608241558075 0.10092353820800781 0.7010458111763
v -0.05791077762842178 0.09640515595674515 0.7154401540756226
v -0.060011886060237885 0.09095653891563416 0.7152470946311951
v -0.06537797302007675 0.09658708423376083 0.7001862525939941
v -0.056180309504270554 0.09445469081401825 0.7187786102294922
v -0.05961327254772186 0.10198457539081573 0.7166233658790588
v -0.0775579884648323 0.0930914655327797 0.704170823097229
v -0.07260595262050629 0.09121333062648773 0.7029524445533752
v -0.07882952690124512 0.09653330594301224 0.7062571048736572
v -0.04752037301659584 0.10342808812856674 0.7354724407196045
v -0.04667350649833679 0.08560898900032043 0.7353242039680481
v -0.07717281579971313 0.1036929190158844 0.7061300873756409
v -0.0791209265589714 0.09991195052862167 0.7065727710723877
v -0.0631045550107956 0.08832361549139023 0.7169145345687866
v -0.06784727424383163 0.09274867177009583 0.700847864151001
v -0.06720028072595596 0.10435126721858978 0.7030869126319885
v -0.07200184464454651 0.10601846873760223 0.7056710720062256
v -0.06789595633745193 0.1040794774889946 0.6976805925369263
v -0.07302582263946533 0.10575084388256073 0.6996886134147644
v -0.07809475064277649 0.10440462827682495 0.6995475888252258
v -0.08005432784557343 0.10083561390638351 0.6999513506889343
v -0.0800798088312149 0.0973224863409996 0.6999331712722778
v -0.06607259809970856 0.10046972334384918 0.695817232131958
v -0.06672298163175583 0.09664939343929291 0.6954687833786011
v -0.06897260248661041 0.09353607892990112 0.6981996893882751
v -0.06635012477636337 0.09925303608179092 0.6917034983634949
v -0.06880191713571548 0.10398536920547485 0.6909068822860718
v -0.08069408684968948 0.1028234213590622 0.6806665062904358
v -0.08006037771701813 0.10298861563205719 0.6860780715942383
v -0.07900884002447128 0.10364591330289841 0.6857532262802124
v -0.07952993363142014 0.10398747026920319 0.6802768111228943
v -0.07821093499660492 0.10488487780094147 0.6920362114906311
v -0.07733757793903351 0.10510903596878052 0.6900787353515625
v -0.07367584109306335 0.10563915967941284 0.6905117034912109
v -0.0742299035191536 0.10501871258020401 0.6843347549438477
v -0.06922799348831177 0.1020255759358406 0.6845366358757019
v -0.07063490152359009 0.10202670097351074 0.6799346804618835
v -0.07504579424858093 0.10514089465141296 0.6793392896652222
v -0.06970209628343582 0.10408171266317368 0.6893085241317749
v -0.07874923944473267 0.10381273180246353 0.6773433089256287
v -0.08065138757228851 0.10359348356723785 0.6765658259391785
v -0.07376271486282349 0.10586252808570862 0.6928315162658691
v -0.08125222474336624 0.10188077390193939 0.6941182017326355
v -0.08189074695110321 0.1008753776550293 0.6865306496620178
v -0.08295457810163498 0.10033684968948364 0.6808657050132751
v -0.08124390244483948 0.099946528673172 0.676939845085144
v -0.08157826960086823 0.09717807918787003 0.6868055462837219
v -0.08204986155033112 0.09730661660432816 0.6814357042312622
v -0.08067165315151215 0.09703004360198975 0.6778005361557007
v -0.07992102950811386 0.09443251043558121 0.6869802474975586
v -0.08002901822328568 0.09481226652860641 0.6819573044776917
v -0.07867437601089478 0.09454269707202911 0.6971533298492432
v -0.08088017255067825 0.09809073805809021 0.6958898901939392
v -0.07950472831726074 0.09542583674192429 0.6788815259933472
v -0.07616648077964783 0.10329872369766235 0.674885630607605
v -0.07633234560489655 0.09908623993396759 0.6745872497558594
v -0.07584729790687561 0.10367798060178757 0.6765815615653992
v -0.0679817795753479 0.10080435127019882 0.6851717233657837
v -0.06914320588111877 0.10038545727729797 0.6790177822113037
v -0.06745739281177521 0.09801024198532104 0.6856324076652527
v -0.0686926394701004 0.09759441018104553 0.6793761849403381
v -0.0714670866727829 0.10144931823015213 0.6759433150291443
v -0.07208480685949326 0.10219952464103699 0.6766682863235474
v -0.07753236591815948 0.09401827305555344 0.7003831267356873
v -0.0731525793671608 0.09227192401885986 0.6995521783828735
v -0.07460436224937439 0.09244529157876968 0.6967695951461792
v -0.07617992907762527 0.09238213300704956 0.6861416697502136
v -0.07021380215883255 0.09303242713212967 0.6957375407218933
v -0.06749792397022247 0.0958373099565506 0.6915357112884521
v -0.06886398792266846 0.09515690803527832 0.6857613921165466
v -0.07185187190771103 0.09306560456752777 0.6855763792991638
v -0.06984046846628189 0.0950908288359642 0.6800284385681152
v -0.07210680097341537 0.09391283243894577 0.6813783645629883
v -0.07673603296279907 0.09277872741222382 0.6814015507698059
v -0.07247133553028107 0.09620356559753418 0.6771358251571655
v -0.07137930393218994 0.09862049669027328 0.6759281158447266
v -0.07676491886377335 0.09629140049219131 0.6759450435638428
v -0.0736108049750328 0.09450782835483551 0.6785265803337097
v -0.07689940929412842 0.09452661871910095 0.6777474284172058
v -0.048113927245140076 0.0838816687464714 0.7380976676940918
v -0.04899664223194122 0.09134716540575027 0.6976290345191956
v -0.04543474316596985 0.08955827355384827 0.6965012550354004
v -0.044039465487003326 0.08695928752422333 0.6994134187698364
v -0.04796774685382843 0.0874888151884079 0.700761616230011
v -0.047187842428684235 0.10021062195301056 0.7041153907775879
v -0.0500435009598732 0.09751304984092712 0.7020605802536011
v -0.050406742841005325 0.09475667774677277 0.7060068845748901
v -0.04818323254585266 0.09792636334896088 0.7076521515846252
v -0.04273228347301483 0.10117615759372711 0.7036430239677429
v -0.043631117790937424 0.09864827245473862 0.7067625522613525
v -0.04702678322792053 0.09570913761854172 0.7105488181114197
v -0.04890447109937668 0.09140466153621674 0.7100657224655151
v -0.03774022310972214 0.08757438510656357 0.7261722683906555
v -0.03423728048801422 0.09192576259374619 0.7260520458221436
v -0.021881259977817535 0.08029275387525558 0.7195864319801331
v -0.02502262592315674 0.07562652975320816 0.7228841185569763
v -0.02991586923599243 0.07944042980670929 0.716303288936615
v -0.026631180197000504 0.0832255631685257 0.7152698040008545
v -0.05046211928129196 0.09432564675807953 0.6996980309486389
v -0.05051770806312561 0.09056481719017029 0.703395664691925
v -0.034113384783267975 0.08896039426326752 0.703052818775177
v -0.03749612346291542 0.08555091172456741 0.702629029750824
v -0.039864301681518555 0.08642369508743286 0.6991803050041199
v -0.036122165620326996 0.0883593037724495 0.6998578906059265
v -0.02976585552096367 0.07573588192462921 0.7258485555648804
v -0.03314370661973953 0.07705897092819214 0.7296420335769653
v -0.03599005937576294 0.07773905992507935 0.724536657333374
v -0.033956415951251984 0.078170046210289 0.7184626460075378
v -0.039625778794288635 0.08115439116954803 0.7259023189544678
v -0.03375186771154404 0.09299728274345398 0.7043287754058838
v -0.03661628067493439 0.09686535596847534 0.7069612741470337
v -0.024598460644483566 0.09227326512336731 0.7186029553413391
v -0.024342656135559082 0.0878545343875885 0.7171425223350525
v -0.04927198961377144 0.08720965683460236 0.7076776027679443
v -0.04168061539530754 0.08440160751342773 0.7033857703208923
v -0.04618809372186661 0.08403447270393372 0.7050215005874634
v -0.042414065450429916 0.09845994412899017 0.708377480506897
v -0.037908125668764114 0.09661851078271866 0.704931378364563
v -0.03598538041114807 0.09876558929681778 0.6905739307403564
v -0.0350821316242218 0.09360925853252411 0.6991202235221863
v -0.03726886957883835 0.09014391899108887 0.6962815523147583
v -0.03763032704591751 0.09707704186439514 0.6890581250190735
v -0.03523887321352959 0.09224747121334076 0.7019131779670715
v -0.037225086241960526 0.09855743497610092 0.7019284963607788
v -0.049463361501693726 0.09799335896968842 0.689234733581543
v -0.045031748712062836 0.09545809030532837 0.688400387763977
v -0.05039699748158455 0.10029954463243484 0.6910760998725891
v -0.029647622257471085 0.09493084996938705 0.7224597930908203
v -0.04650954157114029 0.10519823431968689 0.6947948932647705
v -0.04985431581735611 0.10327106714248657 0.6926881074905396
v -0.0414508618414402 0.08904639631509781 0.6958298683166504
v -0.0408877357840538 0.09567027539014816 0.6885685920715332
v -0.036474280059337616 0.10193037986755371 0.6929619312286377
v -0.0410744771361351 0.10532274097204208 0.695329487323761
v -0.035761963576078415 0.10446114838123322 0.6892043352127075
v -0.040598854422569275 0.10738818347454071 0.6919428706169128
v -0.046285681426525116 0.1077406033873558 0.6905418634414673
v -0.049072735011577606 0.10547444969415665 0.6894419193267822
v -0.050022825598716736 0.10288438200950623 0.6878241896629333
v -0.035337917506694794 0.10097914934158325 0.6867069005966187
v -0.03715099021792412 0.0988171324133873 0.6853336691856384
v -0.040712255984544754 0.09697738289833069 0.6849838495254517
v -0.03479424864053726 0.10341938585042953 0.6830309629440308
v -0.035487644374370575 0.10799480229616165 0.6841864585876465
v -0.04527726396918297 0.11199647188186646 0.6760802865028381
v -0.04569751396775246 0.1106068342924118 0.679663896560669
v -0.04463520273566246 0.1111670732498169 0.6800324320793152
v -0.04478941857814789 0.11301456391811371 0.6765031218528748
v -0.045013174414634705 0.10976280272006989 0.6847876906394958
v -0.043611135333776474 0.11036700755357742 0.6839463710784912
v -0.04030410572886467 0.10988420993089676 0.6851868033409119
v -0.04054174944758415 0.11200939118862152 0.6805223822593689
v -0.035836007446050644 0.11004914343357086 0.6789166927337646
v -0.03663637489080429 0.11181584000587463 0.6754790544509888
v -0.04054361954331398 0.11364541947841644 0.6772946715354919
v -0.03650987893342972 0.10956663638353348 0.6833521127700806
v -0.04381358623504639 0.11432386934757233 0.6745520830154419
v -0.044477999210357666 0.11442794650793076 0.673362135887146
v -0.0405859500169754 0.10961050540208817 0.6868441700935364
v -0.048243772238492966 0.1069602221250534 0.6848224997520447
v -0.04734107851982117 0.10941855609416962 0.6783584356307983
v -0.04637282341718674 0.11157791316509247 0.6741493344306946
v -0.044258590787649155 0.11302909255027771 0.6716708540916443
v -0.04778781160712242 0.10687850415706635 0.6781244874000549
v -0.04675442725419998 0.10961499810218811 0.6730054616928101
v -0.04453551396727562 0.1109272837638855 0.6706478595733643
v -0.04691289737820625 0.10385212302207947 0.677381694316864
v -0.0456942617893219 0.10716057568788528 0.6729235649108887
v -0.04777131229639053 0.10043737292289734 0.6834376454353333
v -0.0488114170730114 0.10379514843225479 0.6841583847999573
v -0.04415213316679001 0.10919766128063202 0.6712169647216797
v -0.04085826501250267 0.11482532322406769 0.6727321743965149
v -0.041206762194633484 0.11286887526512146 0.6707301139831543
v -0.04049042984843254 0.11483171582221985 0.6740247011184692
v -0.03507107123732567 0.1089145615696907 0.6785849332809448
v -0.03599124029278755 0.1109795868396759 0.6743743419647217
v -0.03487110882997513 0.10641524195671082 0.6775899529457092
v -0.036347564309835434 0.10929203778505325 0.6730959415435791
v -0.03772248327732086 0.113100066781044 0.672356128692627
v -0.03818323835730553 0.11348767578601837 0.6740331053733826
v -0.048772845417261124 0.09955406188964844 0.6858195662498474
v -0.045343972742557526 0.09709582477807999 0.6855630874633789
v -0.044322799891233444 0.09835878014564514 0.6829290986061096
v -0.043835971504449844 0.10171161592006683 0.6768473386764526
v -0.039719998836517334 0.09823878109455109 0.6825180053710938
v -0.036438554525375366 0.10051930695772171 0.6826418042182922
v -0.03646295145153999 0.10410697013139725 0.6768296957015991
v -0.03939554840326309 0.10219210386276245 0.6763250827789307
v -0.037651799619197845 0.10774306207895279 0.6721397638320923
v -0.04007420316338539 0.1058490201830864 0.6720584034919739
v -0.04320281371474266 0.10542065650224686 0.6724883317947388
v -0.03969627618789673 0.11014284193515778 0.6705214381217957
v -0.03861574828624725 0.11163320392370224 0.6708750128746033
v -0.041716545820236206 0.11089035868644714 0.6703252196311951
v -0.04086863994598389 0.10856596380472183 0.6705828905105591
v -0.042409706860780716 0.10868558287620544 0.6707679629325867
v -0.022230863571166992 0.08438192307949066 0.7184563875198364
v -0.03517286479473114 0.06634198129177094 0.7940030097961426
v -0.03352402150630951 0.0668928474187851 0.7888991236686707
v -0.024489115923643112 0.05302862823009491 0.7855168581008911
v -0.02794261835515499 0.05866953730583191 0.782526969909668
v -0.024342186748981476 0.04954816401004791 0.7916573882102966
v -0.028936266899108887 0.052279289811849594 0.8015710115432739
v -0.02546502649784088 0.05010268837213516 0.7976115345954895
v -0.03122221678495407 0.06363679468631744 0.7841882705688477
v -0.03517137095332146 0.06365622580051422 0.7991944551467896
v -0.032584644854068756 0.05781817436218262 0.8030962347984314
v -0.042409494519233704 0.05790429562330246 0.7957871556282043
v -0.03950042650103569 0.05160815268754959 0.7996870279312134
v -0.03525812551379204 0.04566364735364914 0.798758864402771
v -0.02942468225955963 0.04467375576496124 0.794364869594574
v -0.026917994022369385 0.04523176699876785 0.7899176478385925
v -0.039599210023880005 0.061575524508953094 0.7900934815406799
v -0.0371193028986454 0.062250398099422455 0.7853233218193054
v -0.032631613314151764 0.05975493788719177 0.7814317941665649
v -0.04440697282552719 0.05672594904899597 0.7842235565185547
v -0.04955297335982323 0.04757469519972801 0.7833221554756165
v -0.04595327004790306 0.028561584651470184 0.7792328000068665
v -0.04226089268922806 0.032534897327423096 0.7833160758018494
v -0.04497450590133667 0.03364641219377518 0.783409059047699
v -0.048298999667167664 0.02961711585521698 0.7801268100738525
v -0.042046792805194855 0.0363873615860939 0.7873291373252869
v -0.04404744878411293 0.03701461851596832 0.7860956192016602
v -0.046839579939842224 0.04158218950033188 0.7860691547393799
v -0.04975464195013046 0.037763066589832306 0.78258216381073
v -0.049227580428123474 0.044754840433597565 0.782734751701355
v -0.05113512650132179 0.042835138738155365 0.7791939377784729
v -0.052843060344457626 0.03417179733514786 0.7792501449584961
v -0.051743656396865845 0.028361663222312927 0.7782644629478455
v -0.0551050528883934 0.031013600528240204 0.7761716246604919
v -0.04991830140352249 0.027032770216464996 0.7758560180664062
v -0.048093799501657486 0.04203801602125168 0.7885894179344177
v -0.03529014438390732 0.03768736124038696 0.7890138030052185
v -0.03848768025636673 0.03273695707321167 0.7825606465339661
v -0.04273176193237305 0.028968535363674164 0.7771298289299011
v -0.04769299179315567 0.027750007808208466 0.7734740972518921
v -0.0354316383600235 0.034510862082242966 0.7794909477233887
v -0.040234699845314026 0.03186657652258873 0.7746769785881042
v -0.04495704919099808 0.03155242279171944 0.7713093757629395
v -0.034723296761512756 0.038253143429756165 0.7760629653930664
v -0.03995189070701599 0.035439323633909225 0.772537350654602
v -0.028300167992711067 0.04661932960152626 0.7830232381820679
v -0.02970488741993904 0.04095291346311569 0.7868767976760864
v -0.04371669143438339 0.03417614474892616 0.7710213661193848
v -0.055007703602313995 0.029883310198783875 0.7733306288719177
v -0.05241555720567703 0.03090180829167366 0.7707235813140869
v -0.05092957988381386 0.046089157462120056 0.7777832746505737
v -0.05445806682109833 0.039509519934654236 0.7761591076850891
v -0.05363748222589493 0.04157496988773346 0.7739068269729614
v -0.04870743677020073 0.049152668565511703 0.7761416435241699
v -0.05203573405742645 0.04295630007982254 0.7718535661697388
v -0.05576166883111 0.03618057072162628 0.7722333073616028
v -0.05595576390624046 0.03558573126792908 0.7751221656799316
v -0.02597077563405037 0.049299806356430054 0.7847287058830261
v -0.028275946155190468 0.05516042187809944 0.7817944884300232
v -0.030218835920095444 0.05271517485380173 0.7804269790649414
v -0.03674514964222908 0.04441160708665848 0.7736217379570007
v -0.03494993969798088 0.056538719683885574 0.7790166735649109
v -0.04060591757297516 0.05780027061700821 0.7809954881668091
v -0.04556627199053764 0.05000970512628555 0.7740681171417236
v -0.04104175418615341 0.0486435703933239 0.7729634046554565
v -0.04861203953623772 0.04316507279872894 0.7703458070755005
v -0.04560774564743042 0.04238647222518921 0.770200252532959
v -0.04200274124741554 0.039016418159008026 0.7706491351127625
v -0.05003365874290466 0.03801097348332405 0.7691929936408997
v -0.05354970693588257 0.037367917597293854 0.7700316309928894
v -0.048693202435970306 0.03370455652475357 0.7694886922836304
v -0.047386474907398224 0.03884998708963394 0.7695267796516418
v -0.04584314674139023 0.036072421818971634 0.769802987575531
v -0.020210426300764084 0.07361062616109848 0.7256795167922974
v -0.02425222471356392 0.07278109341859818 0.730983555316925
v -0.017152689397335052 0.07133397459983826 0.7319710850715637
v -0.007274366915225983 0.07051625847816467 0.7342677712440491
v 0.003069687634706497 0.07218378037214279 0.7311872243881226
v -0.009208481758832932 0.07147982716560364 0.7406772375106812
v -0.019246522337198257 0.07217146456241608 0.7379813194274902
v -0.029518190771341324 0.07469508796930313 0.7366430759429932
v -0.002773657441139221 0.07334361225366592 0.748774528503418
f 2 3 1
f 1 3 4
f 5 6 8
f 8 6 7
f 9 4 10
f 10 4 3
f 12 13 11
f 11 13 9
f 14 12 16
f 16 12 15
f 18 19 17
f 17 19 20
f 22 23 21
f 21 23 24
f 26 27 25
f 25 27 28
f 30 31 29
f 29 31 32
f 33 34 36
f 36 34 35
f 37 38 40
f 40 38 39
f 41 42 6
f 6 42 43
f 6 43 7
f 7 43 44
f 45 34 46
f 46 34 33
f 48 49 47
f 47 49 50
f 52 53 51
f 51 53 54
f 56 52 55
f 55 52 51
f 58 59 57
f 57 59 60
f 61 62 4
f 4 62 1
f 64 65 63
f 63 65 66
f 68 69 67
f 67 69 70
f 72 73 71
f 71 73 74
f 76 77 75
f 75 77 78
f 53 79 54
f 54 79 80
f 82 83 81
f 81 83 84
f 85 86 52
f 52 86 53
f 57 60 87
f 87 60 88
f 89 90 43
f 43 90 44
f 43 42 89
f 89 42 91
f 40 39 92
f 92 39 93
f 94 70 64
f 64 70 69
f 13 61 9
f 9 61 4
f 25 28 69
f 69 28 95
f 96 25 68
f 68 25 69
f 98 99 97
f 97 99 100
f 101 102 104
f 104 102 103
f 106 30 105
f 105 30 29
f 51 54 107
f 107 54 108
f 54 80 108
f 108 80 109
f 111 112 110
f 110 112 113
f 115 5 114
f 114 5 116
f 115 41 5
f 5 41 6
f 36 35 111
f 111 35 117
f 35 118 117
f 117 118 119
f 34 120 35
f 35 120 118
f 34 45 120
f 120 45 121
f 125 126 124
f 124 126 127
f 128 129 14
f 14 129 130
f 33 131 46
f 46 131 132
f 133 94 63
f 63 94 64
f 134 135 137
f 137 135 136
f 139 140 138
f 138 140 141
f 77 142 78
f 78 142 143
f 144 145 20
f 20 145 146
f 148 149 147
f 147 149 72
f 151 152 150
f 150 152 153
f 82 101 83
f 83 101 104
f 101 82 155
f 155 82 154
f 156 157 58
f 58 157 59
f 158 68 147
f 147 68 67
f 159 146 15
f 15 146 16
f 68 158 96
f 96 158 160
f 129 66 130
f 130 66 65
f 162 163 161
f 161 163 164
f 166 167 165
f 165 167 168
f 170 171 169
f 169 171 172
f 174 171 173
f 173 171 170
f 176 177 175
f 175 177 178
f 180 181 179
f 179 181 24
f 182 183 21
f 21 183 184
f 81 185 82
f 82 185 154
f 186 187 188
f 188 187 144
f 158 71 160
f 160 71 189
f 190 135 157
f 157 135 59
f 169 172 139
f 139 172 140
f 147 72 158
f 158 72 71
f 192 193 191
f 191 193 194
f 167 166 49
f 49 166 195
f 196 190 50
f 50 190 157
f 197 198 200
f 200 198 199
f 21 24 182
f 182 24 181
f 146 159 20
f 20 159 17
f 182 181 81
f 81 181 185
f 201 185 180
f 180 185 181
f 202 203 83
f 83 203 84
f 205 206 204
f 204 206 85
f 207 22 184
f 184 22 21
f 179 24 208
f 208 24 23
f 208 209 179
f 179 209 205
f 209 210 205
f 205 210 206
f 212 206 211
f 211 206 210
f 179 205 180
f 180 205 204
f 213 176 88
f 88 176 214
f 86 85 212
f 212 85 206
f 193 217 218
f 217 219 218
f 218 219 220
f 219 18 220
f 220 18 17
f 19 221 20
f 20 221 144
f 222 223 225
f 225 223 224
f 175 226 176
f 176 226 214
f 227 87 214
f 214 87 88
f 220 17 228
f 228 17 159
f 134 213 60
f 60 213 88
f 138 229 151
f 151 229 152
f 193 192 210
f 210 192 211
f 230 194 218
f 218 194 193
f 231 232 228
f 228 232 230
f 233 234 91
f 91 234 89
f 235 236 93
f 93 236 92
f 230 232 234
f 234 232 237
f 47 238 48
f 48 238 239
f 240 191 235
f 235 191 236
f 5 8 116
f 116 8 241
f 242 243 189
f 189 243 160
f 244 245 98
f 98 245 99
f 156 246 47
f 47 246 238
f 76 247 77
f 77 247 248
f 250 125 249
f 249 125 124
f 252 253 251
f 251 253 254
f 111 110 36
f 36 110 255
f 256 33 255
f 255 33 36
f 257 258 154
f 154 258 155
f 63 169 133
f 133 169 139
f 66 170 63
f 63 170 169
f 173 170 129
f 129 170 66
f 129 128 173
f 173 128 259
f 128 260 259
f 259 260 261
f 213 134 262
f 262 134 137
f 263 264 186
f 186 264 187
f 112 265 113
f 113 265 266
f 11 267 268
f 234 233 230
f 230 233 194
f 153 269 70
f 70 269 67
f 175 178 165
f 165 178 141
f 150 153 94
f 94 153 70
f 271 221 270
f 270 221 207
f 269 153 272
f 272 153 152
f 121 45 109
f 109 45 108
f 47 50 156
f 156 50 157
f 57 273 58
f 58 273 274
f 145 275 260
f 260 275 261
f 276 149 143
f 143 149 78
f 148 269 75
f 75 269 272
f 207 277 270
f 270 277 278
f 195 196 49
f 49 196 50
f 59 135 60
f 60 135 134
f 83 104 202
f 202 104 279
f 149 148 78
f 78 148 75
f 247 278 248
f 248 278 277
f 183 182 84
f 84 182 81
f 48 239 281
f 281 239 282
f 227 223 283
f 283 223 222
f 223 226 224
f 224 226 168
f 281 282 224
f 224 282 225
f 165 168 175
f 175 168 226
f 264 263 138
f 138 263 229
f 14 16 128
f 128 16 260
f 220 228 218
f 218 228 230
f 87 227 284
f 284 227 283
f 260 16 145
f 145 16 146
f 244 98 258
f 258 98 155
f 58 274 156
f 156 274 246
f 107 285 51
f 51 285 55
f 243 286 160
f 160 286 96
f 234 237 89
f 89 237 90
f 46 132 107
f 107 132 285
f 253 252 249
f 249 252 250
f 286 26 96
f 96 26 25
f 106 105 287
f 287 105 288
f 272 152 289
f 289 152 229
f 138 151 139
f 139 151 133
f 183 290 161
f 161 290 162
f 291 292 277
f 277 292 293
f 151 150 133
f 133 150 94
f 262 275 177
f 177 275 187
f 144 187 145
f 145 187 275
f 273 57 284
f 284 57 87
f 174 136 190
f 190 136 135
f 111 117 112
f 112 117 38
f 117 119 38
f 38 119 123
f 112 38 265
f 265 38 37
f 287 288 254
f 254 288 251
f 228 159 231
f 231 159 15
f 223 227 226
f 226 227 214
f 147 67 148
f 148 67 269
f 224 168 281
f 281 168 167
f 199 163 200
f 200 163 162
f 45 46 108
f 108 46 107
f 281 167 48
f 48 167 49
f 161 164 291
f 291 164 292
f 38 123 39
f 293 294 277
f 277 294 248
f 284 283 296
f 296 283 295
f 284 296 273
f 273 296 297
f 274 273 298
f 298 273 297
f 246 274 299
f 299 274 298
f 283 222 295
f 295 222 300
f 222 225 300
f 300 225 301
f 301 225 302
f 302 225 282
f 303 304 300
f 300 304 295
f 306 307 305
f 305 307 308
f 309 310 308
f 308 310 305
f 308 307 312
f 312 307 311
f 313 314 312
f 312 314 315
f 311 316 312
f 312 316 313
f 317 304 311
f 311 304 316
f 315 309 312
f 312 309 308
f 318 319 321
f 321 319 320
f 319 318 309
f 309 318 310
f 311 307 317
f 317 307 306
f 306 297 317
f 317 297 296
f 306 322 297
f 297 322 298
f 305 323 306
f 306 323 322
f 323 305 324
f 324 305 310
f 304 317 295
f 295 317 296
f 318 325 310
f 310 325 324
f 323 324 326
f 326 324 327
f 324 325 327
f 327 325 328
f 326 327 329
f 329 327 330
f 329 331 326
f 326 331 332
f 333 330 328
f 328 330 327
f 323 326 322
f 322 326 332
f 322 332 298
f 298 332 299
f 325 318 334
f 334 318 321
f 313 316 335
f 335 316 304
f 335 336 313
f 313 336 314
f 304 303 335
f 335 303 337
f 336 335 338
f 338 335 337
f 336 339 314
f 314 339 340
f 246 299 238
f 238 299 341
f 239 342 282
f 282 342 302
f 342 239 341
f 341 239 238
f 341 331 342
f 342 331 343
f 331 329 343
f 343 329 344
f 342 343 302
f 302 343 345
f 341 299 331
f 331 299 332
f 346 301 345
f 345 301 302
f 346 303 301
f 301 303 300
f 347 337 346
f 346 337 303
f 347 346 348
f 348 346 345
f 349 347 350
f 350 347 348
f 343 344 345
f 345 344 348
f 344 351 348
f 348 351 350
f 337 347 338
f 338 347 349
f 353 338 352
f 352 338 349
f 352 355 354
f 354 355 356
f 352 349 355
f 355 349 350
f 352 354 353
f 353 354 334
f 353 334 339
f 339 334 321
f 339 336 353
f 353 336 338
f 329 330 344
f 344 330 351
f 356 351 333
f 333 351 330
f 356 355 351
f 351 355 350
f 354 356 328
f 328 356 333
f 328 325 354
f 354 325 334
f 309 315 319
f 319 315 320
f 320 340 321
f 321 340 339
f 320 315 340
f 340 315 314
f 137 136 261
f 261 136 259
f 140 166 141
f 141 166 165
f 172 171 195
f 195 171 196
f 171 174 196
f 196 174 190
f 178 177 264
f 264 177 187
f 172 195 140
f 140 195 166
f 137 261 262
f 262 261 275
f 178 264 141
f 141 264 138
f 262 177 213
f 213 177 176
f 136 174 259
f 259 174 173
f 358 359 357
f 357 359 360
f 362 363 361
f 361 363 364
f 361 364 365
f 365 364 366
f 367 368 370
f 370 368 369
f 76 371 247
f 247 371 372
f 373 374 362
f 362 374 363
f 376 377 375
f 375 377 378
f 289 229 380
f 380 229 379
f 381 379 263
f 263 379 229
f 383 384 382
f 382 384 385
f 386 368 374
f 374 368 363
f 76 289 371
f 371 289 380
f 377 376 359
f 359 376 387
f 388 386 360
f 360 386 374
f 389 383 366
f 366 383 390
f 392 393 391
f 391 393 394
f 383 382 390
f 390 382 395
f 396 365 390
f 390 365 366
f 389 366 367
f 367 366 364
f 357 397 358
f 358 397 398
f 373 399 357
f 357 399 397
f 389 367 400
f 400 367 370
f 382 385 375
f 375 385 372
f 357 360 373
f 373 360 374
f 361 401 362
f 362 401 402
f 387 388 359
f 359 388 360
f 363 368 364
f 364 368 367
f 358 398 403
f 403 398 404
f 396 392 405
f 405 392 391
f 392 395 393
f 393 395 378
f 393 403 394
f 394 403 404
f 375 378 382
f 382 378 395
f 365 396 406
f 406 396 405
f 362 402 373
f 373 402 399
f 271 270 400
f 400 270 384
f 401 361 406
f 406 361 365
f 381 369 386
f 386 369 368
f 392 396 395
f 395 396 390
f 393 378 403
f 403 378 377
f 403 377 358
f 358 377 359
f 406 405 408
f 408 405 407
f 406 408 401
f 401 408 409
f 401 409 402
f 402 409 410
f 402 410 399
f 399 410 411
f 405 391 407
f 407 391 412
f 391 394 412
f 412 394 413
f 394 404 413
f 413 404 414
f 415 416 412
f 412 416 407
f 418 419 417
f 417 419 420
f 421 422 418
f 418 422 419
f 419 422 424
f 424 422 423
f 425 426 424
f 424 426 427
f 423 428 424
f 424 428 425
f 427 420 424
f 424 420 419
f 420 429 417
f 417 429 430
f 423 422 431
f 431 422 421
f 421 409 431
f 431 409 408
f 421 432 409
f 409 432 410
f 418 433 421
f 421 433 432
f 434 433 417
f 417 433 418
f 431 416 423
f 423 416 428
f 416 431 407
f 407 431 408
f 435 434 430
f 430 434 417
f 433 434 436
f 436 434 437
f 434 435 437
f 437 435 438
f 436 437 439
f 439 437 440
f 439 441 436
f 436 441 442
f 438 443 437
f 437 443 440
f 436 442 433
f 433 442 432
f 432 442 410
f 410 442 411
f 435 430 445
f 445 430 444
f 430 429 444
f 444 429 446
f 425 428 447
f 447 428 416
f 426 425 448
f 448 425 447
f 416 415 447
f 447 415 449
f 447 449 448
f 448 449 450
f 451 452 448
f 448 452 426
f 446 452 444
f 444 452 451
f 399 411 397
f 397 411 453
f 398 454 404
f 404 454 414
f 454 398 453
f 453 398 397
f 453 441 454
f 454 441 455
f 441 439 455
f 455 439 456
f 454 455 414
f 414 455 457
f 441 453 442
f 442 453 411
f 458 413 457
f 457 413 414
f 458 415 413
f 413 415 412
f 458 459 415
f 415 459 449
f 459 458 460
f 460 458 457
f 461 459 462
f 462 459 460
f 455 456 457
f 457 456 460
f 456 463 460
f 460 463 462
f 459 461 449
f 449 461 450
f 465 450 464
f 464 450 461
f 464 467 466
f 466 467 468
f 464 461 467
f 467 461 462
f 464 466 465
f 465 466 445
f 465 445 451
f 451 445 444
f 451 448 465
f 465 448 450
f 439 440 456
f 456 440 463
f 468 463 443
f 443 463 440
f 468 467 463
f 463 467 462
f 466 468 438
f 438 468 443
f 438 435 466
f 466 435 445
f 420 427 429
f 429 427 446
f 446 427 452
f 452 427 426
f 370 369 188
f 188 369 186
f 371 376 372
f 372 376 375
f 380 379 387
f 387 379 388
f 379 381 388
f 388 381 386
f 385 384 278
f 278 384 270
f 380 387 371
f 371 387 376
f 400 370 271
f 271 370 188
f 385 278 372
f 372 278 247
f 400 384 389
f 389 384 383
f 369 381 186
f 186 381 263
f 221 271 144
f 144 271 188
f 221 19 207
f 207 19 22
f 19 18 22
f 22 18 23
f 18 219 23
f 23 219 208
f 469 470 472
f 472 470 471
f 474 475 473
f 473 475 476
f 473 476 477
f 477 476 478
f 480 481 479
f 479 481 482
f 483 484 474
f 474 484 475
f 486 487 485
f 485 487 488
f 489 490 77
f 77 490 142
f 491 489 248
f 248 489 77
f 493 494 492
f 492 494 495
f 496 480 484
f 484 480 475
f 486 497 487
f 487 497 471
f 498 496 472
f 472 496 484
f 499 493 478
f 478 493 500
f 501 502 504
f 504 502 503
f 493 492 500
f 500 492 505
f 506 477 500
f 500 477 478
f 499 478 479
f 479 478 476
f 469 507 470
f 470 507 508
f 483 509 469
f 469 509 507
f 479 482 499
f 499 482 510
f 492 495 485
f 485 495 511
f 483 469 484
f 484 469 472
f 473 512 474
f 474 512 513
f 497 498 471
f 471 498 472
f 475 480 476
f 476 480 479
f 470 508 514
f 514 508 515
f 506 502 516
f 516 502 501
f 503 502 488
f 488 502 505
f 514 515 503
f 503 515 504
f 485 488 492
f 492 488 505
f 477 506 517
f 517 506 516
f 474 513 483
f 483 513 509
f 510 292 494
f 494 292 164
f 512 473 517
f 517 473 477
f 491 481 496
f 496 481 480
f 502 506 505
f 505 506 500
f 503 488 514
f 514 488 487
f 514 487 470
f 470 487 471
f 517 516 519
f 519 516 518
f 517 519 512
f 512 519 520
f 512 520 513
f 513 520 521
f 513 521 509
f 509 521 522
f 516 501 518
f 518 501 523
f 501 504 523
f 523 504 524
f 524 504 525
f 525 504 515
f 526 527 523
f 523 527 518
f 529 530 528
f 528 530 531
f 532 533 529
f 529 533 530
f 530 533 535
f 535 533 534
f 536 537 535
f 535 537 538
f 534 539 535
f 535 539 536
f 538 531 535
f 535 531 530
f 540 541 531
f 531 541 528
f 533 532 534
f 534 532 542
f 532 520 542
f 542 520 519
f 532 543 520
f 520 543 521
f 529 544 532
f 532 544 543
f 544 529 545
f 545 529 528
f 534 542 539
f 539 542 527
f 527 542 518
f 518 542 519
f 541 546 528
f 528 546 545
f 547 544 548
f 548 544 545
f 546 549 545
f 545 549 548
f 550 547 551
f 551 547 548
f 547 550 553
f 553 550 552
f 549 554 548
f 548 554 551
f 544 547 543
f 543 547 553
f 543 553 521
f 521 553 522
f 546 541 556
f 556 541 555
f 541 540 555
f 555 540 557
f 536 539 558
f 558 539 527
f 537 536 559
f 559 536 558
f 527 526 558
f 558 526 560
f 559 558 561
f 561 558 560
f 559 562 537
f 537 562 563
f 557 563 555
f 555 563 562
f 509 522 507
f 507 522 564
f 508 565 515
f 515 565 525
f 565 508 564
f 564 508 507
f 564 552 565
f 565 552 566
f 552 550 566
f 566 550 567
f 565 566 525
f 525 566 568
f 564 522 552
f 552 522 553
f 569 524 568
f 568 524 525
f 569 526 524
f 524 526 523
f 570 560 569
f 569 560 526
f 570 569 571
f 571 569 568
f 572 570 573
f 573 570 571
f 566 567 568
f 568 567 571
f 567 574 571
f 571 574 573
f 570 572 560
f 560 572 561
f 576 561 575
f 575 561 572
f 575 578 577
f 577 578 579
f 575 572 578
f 578 572 573
f 575 577 576
f 576 577 556
f 576 556 562
f 562 556 555
f 562 559 576
f 576 559 561
f 550 551 567
f 567 551 574
f 579 574 554
f 554 574 551
f 579 578 574
f 574 578 573
f 579 554 577
f 577 554 549
f 549 546 577
f 577 546 556
f 531 538 540
f 540 538 557
f 557 538 563
f 563 538 537
f 481 294 482
f 482 294 293
f 580 486 511
f 511 486 485
f 490 489 497
f 497 489 498
f 489 491 498
f 498 491 496
f 163 495 164
f 164 495 494
f 580 490 486
f 486 490 497
f 482 293 510
f 510 293 292
f 495 163 511
f 511 163 199
f 494 493 510
f 510 493 499
f 481 491 294
f 294 491 248
f 582 583 581
f 581 583 584
f 586 587 585
f 585 587 588
f 585 588 589
f 589 588 590
f 592 593 591
f 591 593 594
f 595 596 598
f 598 596 597
f 599 600 586
f 586 600 587
f 601 602 604
f 604 602 603
f 605 606 608
f 608 606 607
f 609 607 200
f 200 607 606
f 610 611 613
f 613 611 612
f 600 614 587
f 587 614 592
f 596 605 597
f 597 605 608
f 602 615 603
f 603 615 583
f 616 614 584
f 584 614 600
f 611 618 617
f 617 618 590
f 620 621 619
f 619 621 622
f 610 623 611
f 611 623 618
f 624 589 618
f 618 589 590
f 617 590 591
f 591 590 588
f 581 625 582
f 582 625 626
f 599 627 581
f 581 627 625
f 591 594 617
f 617 594 628
f 601 610 598
f 598 610 613
f 581 584 599
f 599 584 600
f 585 629 586
f 586 629 630
f 615 616 583
f 583 616 584
f 587 592 588
f 588 592 591
f 582 626 631
f 631 626 632
f 624 620 633
f 633 620 619
f 621 620 604
f 604 620 623
f 631 632 621
f 621 632 622
f 610 601 623
f 623 601 604
f 589 624 634
f 634 624 633
f 586 630 599
f 599 630 627
f 203 202 628
f 628 202 612
f 629 585 634
f 634 585 589
f 609 593 614
f 614 593 592
f 620 624 623
f 623 624 618
f 631 621 603
f 603 621 604
f 582 631 583
f 583 631 603
f 634 633 636
f 636 633 635
f 634 636 629
f 629 636 637
f 629 637 630
f 630 637 638
f 630 638 627
f 627 638 639
f 633 619 635
f 635 619 640
f 619 622 640
f 640 622 641
f 641 622 642
f 642 622 632
f 644 635 643
f 643 635 640
f 645 646 648
f 648 646 647
f 649 650 646
f 646 650 647
f 647 650 652
f 652 650 651
f 652 653 655
f 655 653 654
f 651 656 652
f 652 656 653
f 655 648 652
f 652 648 647
f 648 657 645
f 645 657 658
f 650 649 651
f 651 649 659
f 649 637 659
f 659 637 636
f 649 660 637
f 637 660 638
f 661 660 646
f 646 660 649
f 662 661 645
f 645 661 646
f 651 659 656
f 656 659 644
f 644 659 635
f 635 659 636
f 663 662 658
f 658 662 645
f 664 661 665
f 665 661 662
f 663 666 662
f 662 666 665
f 667 664 668
f 668 664 665
f 664 667 670
f 670 667 669
f 666 671 665
f 665 671 668
f 661 664 660
f 660 664 670
f 660 670 638
f 638 670 639
f 658 672 663
f 663 672 673
f 658 657 672
f 672 657 674
f 653 656 675
f 675 656 644
f 653 675 654
f 654 675 676
f 675 644 677
f 677 644 643
f 676 675 678
f 678 675 677
f 679 680 676
f 676 680 654
f 674 680 672
f 672 680 679
f 627 639 625
f 625 639 681
f 626 682 632
f 632 682 642
f 681 682 625
f 625 682 626
f 669 683 681
f 681 683 682
f 667 684 669
f 669 684 683
f 682 683 642
f 642 683 685
f 681 639 669
f 669 639 670
f 686 641 685
f 685 641 642
f 641 686 640
f 640 686 643
f 686 687 643
f 643 687 677
f 687 686 688
f 688 686 685
f 689 687 690
f 690 687 688
f 683 684 685
f 685 684 688
f 684 691 688
f 688 691 690
f 687 689 677
f 677 689 678
f 693 678 692
f 692 678 689
f 692 695 694
f 694 695 696
f 692 689 695
f 695 689 690
f 692 694 693
f 693 694 673
f 693 673 679
f 679 673 672
f 679 676 693
f 693 676 678
f 684 667 691
f 691 667 668
f 696 691 671
f 671 691 668
f 696 695 691
f 691 695 690
f 694 696 666
f 666 696 671
f 666 663 694
f 694 663 673
f 648 655 657
f 657 655 674
f 674 655 680
f 680 655 654
f 593 162 594
f 594 162 290
f 598 597 601
f 601 597 602
f 615 608 616
f 616 608 607
f 607 609 616
f 616 609 614
f 697 595 613
f 613 595 598
f 597 608 602
f 602 608 615
f 594 290 628
f 628 290 203
f 628 612 617
f 617 612 611
f 593 609 162
f 162 609 200
f 105 29 698
f 698 29 699
f 268 126 701
f 701 126 700
f 126 125 700
f 700 125 702
f 252 703 250
f 250 703 704
f 32 268 705
f 705 268 701
f 288 105 706
f 706 105 698
f 29 32 699
f 699 32 705
f 707 251 706
f 706 251 288
f 250 704 125
f 125 704 702
f 703 252 707
f 707 252 251
f 706 708 707
f 707 708 709
f 707 709 703
f 703 709 710
f 703 710 704
f 704 710 711
f 704 711 702
f 702 711 712
f 706 698 708
f 708 698 713
f 698 699 713
f 713 699 714
f 699 705 714
f 714 705 715
f 717 708 716
f 716 708 713
f 719 720 718
f 718 720 721
f 722 723 719
f 719 723 720
f 724 725 723
f 723 725 720
f 724 726 725
f 725 726 727
f 728 721 725
f 725 721 720
f 721 728 729
f 729 728 730
f 729 731 721
f 721 731 718
f 724 723 732
f 732 723 722
f 722 710 732
f 732 710 709
f 722 733 710
f 710 733 711
f 719 734 722
f 722 734 733
f 734 719 735
f 735 719 718
f 724 732 726
f 726 732 717
f 717 732 708
f 708 732 709
f 731 736 718
f 718 736 735
f 737 734 738
f 738 734 735
f 736 739 735
f 735 739 738
f 740 737 741
f 741 737 738
f 737 740 743
f 743 740 742
f 739 744 738
f 738 744 741
f 734 737 733
f 733 737 743
f 733 743 711
f 711 743 712
f 736 731 746
f 746 731 745
f 731 729 745
f 745 729 730
f 727 726 747
f 747 726 717
f 748 727 749
f 749 727 747
f 747 717 750
f 750 717 716
f 749 747 751
f 751 747 750
f 749 752 748
f 748 752 753
f 730 753 745
f 745 753 752
f 728 725 748
f 748 725 727
f 730 728 753
f 753 728 748
f 700 702 754
f 754 702 712
f 705 701 715
f 715 701 755
f 754 755 700
f 700 755 701
f 742 756 754
f 754 756 755
f 740 757 742
f 742 757 756
f 755 756 715
f 715 756 758
f 754 712 742
f 742 712 743
f 759 714 758
f 758 714 715
f 714 759 713
f 713 759 716
f 759 760 716
f 716 760 750
f 760 759 761
f 761 759 758
f 762 760 763
f 763 760 761
f 756 757 758
f 758 757 761
f 757 764 761
f 761 764 763
f 760 762 750
f 750 762 751
f 766 751 765
f 765 751 762
f 767 765 769
f 769 765 768
f 765 762 768
f 768 762 763
f 765 767 766
f 766 767 746
f 766 746 752
f 752 746 745
f 752 749 766
f 766 749 751
f 757 740 764
f 764 740 741
f 769 764 744
f 744 764 741
f 769 768 764
f 764 768 763
f 767 769 739
f 739 769 744
f 739 736 767
f 767 736 746
f 219 217 208
f 208 217 209
f 209 217 210
f 210 217 193
f 198 580 199
f 199 580 511
f 76 75 289
f 289 75 272
f 277 207 291
f 291 207 184
f 290 183 203
f 203 183 84
f 490 580 142
f 142 580 198
f 142 198 143
f 143 198 197
f 149 276 72
f 72 276 73
f 104 103 279
f 279 103 770
f 770 596 279
f 279 596 595
f 605 596 771
f 771 596 770
f 771 770 772
f 772 770 103
f 772 103 773
f 773 103 102
f 155 774 101
f 101 774 102
f 773 102 97
f 97 102 774
f 775 773 100
f 100 773 97
f 773 775 772
f 772 775 776
f 772 776 771
f 771 776 777
f 200 606 197
f 197 606 777
f 189 71 778
f 778 71 74
f 97 774 98
f 98 774 155
f 183 161 184
f 184 161 291
f 777 276 197
f 197 276 143
f 777 606 771
f 771 606 605
f 613 612 697
f 697 612 202
f 595 697 279
f 279 697 202
f 73 276 776
f 776 276 777
f 776 775 73
f 73 775 74
f 100 778 775
f 775 778 74
f 778 100 189
f 189 100 99
f 245 242 99
f 99 242 189
f 131 33 256
f 28 1 95
f 95 1 62
f 27 2 28
f 28 2 1
f 265 115 266
f 266 115 114
f 95 62 69
f 69 62 64
f 62 61 64
f 64 61 65
f 61 13 65
f 65 13 130
f 13 12 130
f 130 12 14
f 31 11 32
f 32 11 268
f 15 12 31
f 31 12 11
f 31 30 15
f 15 30 231
f 30 106 231
f 231 106 232
f 287 237 106
f 106 237 232
f 254 90 287
f 287 90 237
f 253 44 254
f 254 44 90
f 253 249 44
f 44 249 7
f 267 127 268
f 268 127 126
f 10 3 241
f 241 3 116
f 3 2 116
f 116 2 114
f 2 27 114
f 114 27 266
f 27 26 266
f 266 26 113
f 26 286 113
f 113 286 110
f 286 243 110
f 110 243 255
f 243 242 255
f 255 242 256
f 242 245 256
f 256 245 131
f 245 244 131
f 131 244 132
f 265 37 115
f 115 37 41
f 41 37 42
f 42 37 40
f 92 91 40
f 40 91 42
f 236 233 92
f 92 233 91
f 191 194 236
f 236 194 233
f 258 285 244
f 244 285 132
f 257 55 258
f 258 55 285
f 257 154 201
f 201 154 185
f 56 201 204
f 204 201 180
f 55 257 56
f 56 257 201
f 204 85 56
f 56 85 52
f 86 122 53
f 53 122 79
f 212 215 86
f 86 215 122
f 211 216 212
f 212 216 215
f 192 280 211
f 211 280 216
f 191 240 192
f 192 240 280
f 249 124 7
f 7 124 8
f 124 127 8
f 8 127 241
f 127 267 241
f 241 267 10
f 10 267 9
f 9 267 11
