v -0.0033093877136707306 0.010706234723329544 1.5959841012954712
v 0.009345963597297668 0.006639160215854645 1.5953527688980103
v 0.002397436648607254 0.002077510580420494 1.600433111190796
v -0.008479606360197067 0.006758492439985275 1.6015764474868774
v 0.018942534923553467 -0.0017804522067308426 1.613108515739441
v 0.022372886538505554 0.0033976398408412933 1.6231930255889893
v 0.005852252244949341 0.0008538439869880676 1.623661994934082
v 0.006614863872528076 -0.003700604662299156 1.6142382621765137
v -0.013504795730113983 0.006639417260885239 1.6050735712051392
v -0.004424106329679489 0.00022616609930992126 1.603593349456787
v -0.01534414291381836 0.012071570381522179 1.6053085327148438
v -0.023334793746471405 0.020840462297201157 1.6106897592544556
v -0.022378697991371155 0.014201602898538113 1.6090905666351318
v -0.030540289357304573 0.024899033829569817 1.6119475364685059
v -0.01765473186969757 0.030471602454781532 1.6115731000900269
v -0.028459938243031502 0.03330621123313904 1.6083519458770752
v -0.009231142699718475 0.04483906924724579 1.5933009386062622
v -0.005765434354543686 0.04575670510530472 1.5810991525650024
v -0.021230164915323257 0.04368823766708374 1.5797524452209473
v -0.023247741162776947 0.0422467365860939 1.592400312423706
v -0.011189732700586319 0.040571339428424835 1.5624631643295288
v -0.017676942050457 0.04239485040307045 1.5718339681625366
v -0.0019890032708644867 0.04550255089998245 1.5731955766677856
v 0.0031276047229766846 0.043422237038612366 1.5647273063659668
v 0.003899894654750824 0.015329990535974503 1.5845234394073486
v 0.01543533056974411 0.013520224019885063 1.583604335784912
v 0.014030061662197113 0.01186460629105568 1.5879685878753662
v 0.0022805333137512207 0.01422819122672081 1.5889633893966675
v -0.01805420219898224 0.013946271501481533 1.609966516494751
v -0.011025819927453995 0.022736409679055214 1.6154699325561523
v -0.014933131635189056 0.019468067213892937 1.6100635528564453
v -0.01738421618938446 0.01010425016283989 1.6061261892318726
v 0.04077788442373276 0.007205981761217117 1.5755022764205933
v 0.05261731892824173 0.013055678457021713 1.577784776687622
v 0.05198065936565399 0.013540372252464294 1.583724856376648
v 0.0414193719625473 0.008428351953625679 1.5804435014724731
v 0.043644629418849945 0.009709520265460014 1.6089226007461548
v 0.05105002224445343 0.015916146337985992 1.6030877828598022
v 0.05487922579050064 0.025012798607349396 1.6119716167449951
v 0.04564085602760315 0.022501515224575996 1.6167030334472656
v 0.033657871186733246 0.004932211712002754 1.6177061796188354
v 0.035571739077568054 0.016141004860401154 1.6236202716827393
v 0.020946167409420013 0.013612686656415462 1.6289114952087402
v 0.002743065357208252 0.008249449543654919 1.628782868385315
v 0.05407128483057022 0.015021088533103466 1.5652310848236084
v 0.045738182961940765 0.010491490364074707 1.561745524406433
v -0.07767042517662048 0.04904695227742195 1.6041815280914307
v -0.07695873081684113 0.04966466873884201 1.5984609127044678
v -0.07479970157146454 0.041391436010599136 1.5999126434326172
v -0.07553025335073471 0.042815059423446655 1.6052331924438477
v 0.04739762097597122 0.029259897768497467 1.552782654762268
v 0.04595571756362915 0.03916551172733307 1.5536937713623047
v 0.053113438189029694 0.03809991851449013 1.5534770488739014
v 0.054674260318279266 0.02892385795712471 1.5545049905776978
v 0.03774518519639969 0.02957608923316002 1.5506223440170288
v 0.03593810647726059 0.04000086337327957 1.5545175075531006
v -0.06778845191001892 0.05332425236701965 1.6093024015426636
v -0.07249362766742706 0.05172639340162277 1.6100454330444336
v -0.06939965486526489 0.047300416976213455 1.6105718612670898
v -0.06425841152667999 0.048836492002010345 1.608586072921753
v -0.019021756947040558 0.01119677722454071 1.604978322982788
v -0.014124643057584763 0.011837873607873917 1.59780752658844
v -0.04221083223819733 0.015368321910500526 1.6050945520401
v -0.028982650488615036 0.013739649206399918 1.6009783744812012
v -0.02935614623129368 0.014188529923558235 1.607886552810669
v -0.03962063789367676 0.017134863883256912 1.6107242107391357
v -0.018691562116146088 0.016161944717168808 1.5796403884887695
v -0.00696081668138504 0.0164779145270586 1.5808840990066528
v -0.009885944426059723 0.016222041100263596 1.586550235748291
v -0.02314787730574608 0.015219011344015598 1.5870107412338257
v -0.002570953220129013 0.013733481988310814 1.5677800178527832
v -0.01445893943309784 0.014095048420131207 1.5676214694976807
v -0.010568536818027496 0.012390720658004284 1.5603058338165283
v -0.0027588829398155212 0.011554231867194176 1.5616836547851562
v -0.03762237727642059 0.015491427853703499 1.5702612400054932
v -0.04642680287361145 0.01914675347507 1.569866418838501
v -0.04577682539820671 0.02136223018169403 1.5650867223739624
v -0.03602813556790352 0.01628985069692135 1.5664361715316772
v 0.060155533254146576 0.03812084719538689 1.5537256002426147
v 0.061441078782081604 0.028992321342229843 1.5570398569107056
v -0.0022775381803512573 0.03347732871770859 1.5446364879608154
v 0.004090707749128342 0.026024486869573593 1.5400745868682861
v -0.007907956838607788 0.022026147693395615 1.5367618799209595
v -0.01104753464460373 0.03124670311808586 1.5422658920288086
v 0.042813144624233246 0.046744391322135925 1.5599806308746338
v 0.05028557777404785 0.04673223942518234 1.5576984882354736
v -0.06345891952514648 0.05489487200975418 1.6050796508789062
v -0.06097479164600372 0.050891097635030746 1.6037825345993042
v 0.02097277343273163 0.02534494549036026 1.6268274784088135
v 0.0009637512266635895 0.017502250149846077 1.6282196044921875
v 0.03588837385177612 0.029989657923579216 1.621565818786621
v 0.04527362436056137 0.03409189358353615 1.6161412000656128
v 0.05383036285638809 0.03652879595756531 1.613945484161377
v -0.033104248344898224 0.013528718613088131 1.595183253288269
v -0.007905397564172745 0.01426270417869091 1.5916273593902588
v 0.005428396165370941 0.015224466100335121 1.580039381980896
v 0.010415207594633102 0.007500046864151955 1.5509649515151978
v 0.020794086158275604 0.007187932729721069 1.552580714225769
v 0.015081949532032013 0.006965888664126396 1.5615381002426147
v 0.007146503776311874 0.007956149987876415 1.558200478553772
v 0.004973042756319046 0.016222212463617325 1.539227843284607
v 0.002398226410150528 0.010298680514097214 1.5435760021209717
v -0.006338737905025482 0.009676387533545494 1.5425320863723755
v -0.005377423018217087 0.014206351712346077 1.5377980470657349
v -0.01881439983844757 0.015202384442090988 1.616764783859253
v -0.006901316344738007 0.02499213255941868 1.6203017234802246
v 0.0481463223695755 0.01916883885860443 1.5555425882339478
v 0.05479894578456879 0.02005854994058609 1.5593578815460205
v 0.06243932247161865 0.022774090990424156 1.5615832805633545
v 0.028569623827934265 0.009378398768603802 1.5812982320785522
v 0.04198414087295532 0.009042500518262386 1.5841777324676514
v 0.041238605976104736 0.008229019120335579 1.5894852876663208
v 0.028497017920017242 0.009581523947417736 1.5844861268997192
v 0.021398119628429413 0.0014970079064369202 1.599074363708496
v 0.031723752617836 0.0012090373784303665 1.605582356452942
v 0.01136806607246399 -0.002735201269388199 1.6036039590835571
v 0.052813321352005005 0.014462579973042011 1.5922925472259521
v 0.061685532331466675 0.015701301395893097 1.5855940580368042
v 0.06118578463792801 0.017388323321938515 1.594448208808899
v 0.06262436509132385 0.01646699756383896 1.5758777856826782
v 0.0629289522767067 0.018661174923181534 1.5672584772109985
v 0.058098405599594116 0.0495947003364563 1.5561089515686035
v 0.05959698557853699 0.02047668769955635 1.6022382974624634
v -0.0018553733825683594 -0.004343684762716293 1.6133190393447876
v -0.009758520871400833 -0.00569683313369751 1.6114063262939453
v -0.010908965021371841 -0.002140730619430542 1.6043906211853027
v -0.003886021673679352 -0.0017879363149404526 1.605217695236206
v -0.0389864556491375 0.029947111383080482 1.6122981309890747
v -0.040370844304561615 0.022571347653865814 1.6133614778518677
v -0.029201321303844452 0.018032118678092957 1.612568736076355
v 0.03117825835943222 0.006134353578090668 1.5690988302230835
v 0.03592389076948166 0.008669822476804256 1.557761549949646
v -0.045843593776226044 0.016963332891464233 1.5992447137832642
v -0.05928462743759155 0.04953048750758171 1.607695460319519
v -0.06319315731525421 0.04615385830402374 1.610883116722107
v -0.04982493072748184 0.03940870612859726 1.6116962432861328
v -0.047667495906353 0.04398634284734726 1.6078168153762817
v -0.05286930128931999 0.026992307975888252 1.5942373275756836
v -0.05149814486503601 0.02255138009786606 1.5990703105926514
v -0.054260965436697006 0.026746762916445732 1.5984829664230347
v -0.0556466244161129 0.03071977198123932 1.5937905311584473
v -0.04036451876163483 0.01882084459066391 1.558132290840149
v -0.0316871777176857 0.014608281664550304 1.559435486793518
v -0.037868570536375046 0.0372687503695488 1.5908420085906982
v -0.03421695530414581 0.03873344510793686 1.6022865772247314
v -0.024860184639692307 0.03997281938791275 1.6012661457061768
v -0.015511184930801392 0.015420389361679554 1.5729422569274902
v -0.026340724900364876 0.014844577759504318 1.5710012912750244
v -0.025076087564229965 0.014631025493144989 1.567064881324768
v -0.03668902814388275 0.014601320959627628 1.5917013883590698
v -0.04667579010128975 0.018003039062023163 1.5932680368423462
v -0.042198508977890015 0.016862373799085617 1.5883488655090332
v -0.032871000468730927 0.015373042784631252 1.5867995023727417
v 0.016465872526168823 0.02863047644495964 1.5431087017059326
v 0.017488092184066772 0.017140962183475494 1.5416136980056763
v -0.07603801786899567 0.04994639754295349 1.6083428859710693
v -0.07317847013473511 0.04459899291396141 1.6091817617416382
v -0.004095751792192459 0.01573001965880394 1.5743070840835571
v -0.01198369637131691 0.04096682369709015 1.6015328168869019
v 0.007226128131151199 0.014452867209911346 1.5750138759613037
v -0.025591600686311722 0.031038425862789154 1.551861047744751
v -0.02709629386663437 0.025189854204654694 1.547946810722351
v -0.03272978961467743 0.02643205225467682 1.5496487617492676
v -0.031112857162952423 0.03186682239174843 1.5513725280761719
v -0.06535708159208298 0.04136667773127556 1.5913254022598267
v -0.06886210292577744 0.03873905539512634 1.5953723192214966
v -0.07276132702827454 0.04216376319527626 1.5939608812332153
v -0.06861378997564316 0.04429178312420845 1.5908522605895996
v -0.050200268626213074 0.022012503817677498 1.6048035621643066
v -0.0478241927921772 0.02315172366797924 1.6106977462768555
v -0.053831491619348526 0.028485313057899475 1.609134316444397
v -0.054661501199007034 0.027142178267240524 1.6035946607589722
v -0.04691780358552933 0.029282838106155396 1.6130486726760864
v -0.05190980061888695 0.03358372300863266 1.6121588945388794
v -0.06029025837779045 0.04572076350450516 1.5916897058486938
v -0.055905673652887344 0.04995342344045639 1.5966203212738037
v -0.048219382762908936 0.04371574521064758 1.5952256917953491
v -0.05366544425487518 0.03821127861738205 1.5928977727890015
v 0.01735365390777588 0.046650342643260956 1.567211627960205
v 0.021073386073112488 0.04282426834106445 1.5575895309448242
v 0.006898939609527588 0.03961990773677826 1.5547711849212646
v -0.00658542662858963 0.03688765689730644 1.5515692234039307
v -0.01871092990040779 0.03273439407348633 1.5496965646743774
v -0.022231586277484894 0.038289882242679596 1.5601794719696045
v 0.010860040783882141 0.03650885820388794 1.5485429763793945
v -0.048724737018346786 0.03248348832130432 1.5890107154846191
v -0.04288545250892639 0.037050046026706696 1.5948463678359985
v -0.04364211484789848 0.03582426905632019 1.5895813703536987
v 0.008820213377475739 0.011734774336218834 1.5683163404464722
v -0.06609278917312622 0.04291331768035889 1.6107630729675293
v 0.043100349605083466 0.05054618418216705 1.602130651473999
v 0.043387725949287415 0.05434257537126541 1.5895916223526
v 0.03498080372810364 0.05235583335161209 1.5912100076675415
v 0.034320369362831116 0.047618795186281204 1.6047570705413818
v -0.0699966624379158 0.037399210035800934 1.6020965576171875
v -0.06930483877658844 0.039159923791885376 1.6076713800430298
v -0.03013724274933338 0.01379671972244978 1.5535129308700562
v -0.03740517050027847 0.01850569248199463 1.5530906915664673
v -0.037004243582487106 0.020923402160406113 1.5499842166900635
v -0.030922571197152138 0.014697078615427017 1.548748254776001
v 0.02429637312889099 0.04030166193842888 1.5534029006958008
v -0.01607825607061386 0.0165485180914402 1.5360702276229858
v -0.017200272530317307 0.026292908936738968 1.5391597747802734
v 0.03342422842979431 0.04567435011267662 1.5604500770568848
v 0.030255459249019623 0.04961807280778885 1.5687061548233032
v 0.039717912673950195 0.05161415785551071 1.5691982507705688
v -0.03341452032327652 0.038198985159397125 1.5709314346313477
v 0.012726165354251862 0.048156216740608215 1.5743082761764526
v 0.02681852877140045 0.050562337040901184 1.5754272937774658
v 0.037992656230926514 0.052958667278289795 1.5763236284255981
v 0.04600144177675247 0.055192433297634125 1.576225996017456
v 0.0471256747841835 0.05327931046485901 1.5684373378753662
v -0.056755151599645615 0.05035746097564697 1.601998209953308
v -0.05953742191195488 0.05064436048269272 1.5979043245315552
v 0.055406294763088226 0.0566619336605072 1.5670082569122314
v 0.05390959978103638 0.05803976207971573 1.576006293296814
v 0.023682430386543274 0.050783947110176086 1.5840673446655273
v 0.02024434506893158 0.049813538789749146 1.5941368341445923
v 0.010197564959526062 0.04829345643520355 1.5825424194335938
v 0.005695156753063202 0.04718503728508949 1.5924946069717407
v -0.03164628893136978 0.04179614409804344 1.580515742301941
v -0.06707297265529633 0.06596508622169495 1.5954481363296509
v -0.0639725849032402 0.05499514937400818 1.5939478874206543
v -0.06887233257293701 0.052988775074481964 1.5912612676620483
v -0.06949959695339203 0.06418511271476746 1.5922088623046875
v -0.06360834091901779 0.04745719954371452 1.5924458503723145
v -0.061418600380420685 0.055470168590545654 1.599101185798645
v 0.002701420336961746 0.04222456365823746 1.6035709381103516
v -0.05144250765442848 0.022891947999596596 1.5883198976516724
v 0.018236719071865082 0.04271027445793152 1.607719898223877
v -0.005851611495018005 0.03483901172876358 1.6134570837020874
v 0.0051436275243759155 0.03372900187969208 1.6169800758361816
v 0.03387698531150818 0.041533369570970535 1.614696741104126
v 0.019456669688224792 0.03517124801874161 1.6208237409591675
v 0.051683440804481506 0.04572629928588867 1.6095696687698364
v 0.04275117814540863 0.04412991553544998 1.6111633777618408
v 0.004590548574924469 0.027544254437088966 1.6240803003311157
v -0.0807371586561203 0.059026215225458145 1.5990809202194214
v -0.07815466821193695 0.05889022722840309 1.594030499458313
v 0.05114372819662094 0.05286668986082077 1.6012179851531982
v 0.0023377351462841034 -0.003149237483739853 1.6052069664001465
v 0.01909559965133667 0.009856962598860264 1.5715795755386353
v 0.017574183642864227 0.011988580226898193 1.5763962268829346
v 0.026877745985984802 0.007537800818681717 1.5543169975280762
v 0.02216286212205887 0.00667678564786911 1.5649930238723755
v -0.0802597776055336 0.06003451347351074 1.6041334867477417
v -0.047970402985811234 0.02487562596797943 1.5682951211929321
v -0.0464818961918354 0.026715846732258797 1.5662018060684204
v -0.0030571259558200836 -0.002449534833431244 1.6218419075012207
v -0.010259147733449936 -0.004895331338047981 1.6190892457962036
v -0.01774335280060768 0.004919804632663727 1.6237053871154785
v -0.01430918276309967 -0.0013644658029079437 1.6237163543701172
v -0.006567008793354034 0.003470422700047493 1.6267122030258179
v -0.009570147842168808 0.010560550726950169 1.626429557800293
v 0.028375156223773956 0.008833629079163074 1.5786356925964355
v 0.028607867658138275 0.00794446561485529 1.5747942924499512
v 0.02786557376384735 0.028967339545488358 1.5467811822891235
v 0.028072185814380646 0.017521454021334648 1.545566439628601
v -0.044583357870578766 0.03476806730031967 1.6117900609970093
v -0.03695997595787048 0.03585585951805115 1.6087132692337036
v -0.042190685868263245 0.03972906619310379 1.6076714992523193
v -0.04567132145166397 0.0450829416513443 1.6015928983688354
v -0.052865587174892426 0.02930532768368721 1.5877785682678223
v -0.049836669117212296 0.032624904066324234 1.5930225849151611
v 0.03699657320976257 0.004744168370962143 1.5963209867477417
v 0.026579327881336212 0.00685293972492218 1.5908076763153076
v -0.008724138140678406 0.002132819965481758 1.6036134958267212
v -0.014146670699119568 0.0037167593836784363 1.6024771928787231
v -0.028280597180128098 0.015395245514810085 1.5799798965454102
v -0.03959015756845474 0.036859508603811264 1.57219398021698
v -0.03825219348073006 0.04128812998533249 1.5800879001617432
v -0.03885115683078766 0.016302084550261497 1.5798847675323486
v -0.07398724555969238 0.0645156130194664 1.6070830821990967
v -0.07827703654766083 0.061937734484672546 1.6063971519470215
v -0.041171979159116745 0.04090159013867378 1.601725697517395
v -0.02164800465106964 0.012261583469808102 1.559885025024414
v -0.03628402203321457 0.03459780663251877 1.5676801204681396
v -0.043123092502355576 0.03093945048749447 1.5687395334243774
v -0.011557746678590775 0.01136879064142704 1.5381014347076416
v 0.05201995372772217 0.05636666342616081 1.5891793966293335
v -0.07391231507062912 0.051449254155159 1.592965006828308
v -0.07440066337585449 0.060126472264528275 1.5909253358840942
v -0.0657573714852333 0.06657125055789948 1.5994747877120972
v -0.06786404550075531 0.06568165868520737 1.604729413986206
v 0.03741026669740677 0.017498403787612915 1.5509426593780518
v 0.01629117876291275 0.013153590261936188 1.5794720649719238
v -0.008332602679729462 0.020363030955195427 1.6234687566757202
v -0.019041884690523148 0.011706629768013954 1.6206077337265015
v -0.04758276790380478 0.018920671194791794 1.5795625448226929
v -0.021836701780557632 0.02748505026102066 1.5449222326278687
v -0.028985386714339256 0.03712819889187813 1.5586612224578857
v -0.03286236152052879 0.03821288049221039 1.5570250749588013
v -0.03840096294879913 0.03861144930124283 1.5613621473312378
v -0.04501260817050934 0.035031758248806 1.5630213022232056
v -0.0680132806301117 0.0706653967499733 1.5974171161651611
v -0.07079722732305527 0.07120522856712341 1.6026240587234497
v -0.07650743424892426 0.07107827067375183 1.6039420366287231
v -0.08073641359806061 0.06815288960933685 1.6033506393432617
v -0.08221501111984253 0.06408192217350006 1.6012232303619385
v -0.0691806897521019 0.06965647637844086 1.593454360961914
v -0.07127515226602554 0.06774856150150299 1.590888261795044
v -0.07546914368867874 0.06286952644586563 1.5904231071472168
v -0.06973925232887268 0.07226225733757019 1.5906658172607422
v -0.06949925422668457 0.07616204768419266 1.5934385061264038
v -0.08007955551147461 0.08256762474775314 1.596285104751587
v -0.0770077109336853 0.07886114716529846 1.59933602809906
v -0.07613571733236313 0.08057323843240738 1.597694993019104
v -0.07769612222909927 0.08425413072109222 1.5950672626495361
v -0.07781258225440979 0.08822208642959595 1.5921132564544678
v -0.08094990253448486 0.08679759502410889 1.5930325984954834
v -0.07253128290176392 0.07808799296617508 1.597007393836975
v -0.07386709749698639 0.08303965628147125 1.5932945013046265
v -0.07130223512649536 0.08159468322992325 1.5903241634368896
v -0.07173357903957367 0.08624863624572754 1.5878944396972656
v -0.0740477591753006 0.08789649605751038 1.5905736684799194
v -0.0706099197268486 0.07842671871185303 1.5932213068008423
v -0.0719761773943901 0.07681773602962494 1.598193883895874
v -0.07974410057067871 0.08940230309963226 1.5896708965301514
v -0.0774083286523819 0.09021036326885223 1.5902020931243896
v -0.0746217668056488 0.0898076742887497 1.5884945392608643
v -0.07640067487955093 0.09028159081935883 1.5861291885375977
v -0.08116529136896133 0.07399732619524002 1.6003726720809937
v -0.08206334710121155 0.08119134604930878 1.595644474029541
v -0.0822819173336029 0.0848168283700943 1.591105580329895
v -0.08094087988138199 0.08757470548152924 1.5879356861114502
v -0.08319590985774994 0.07937507331371307 1.592348337173462
v -0.08243391662836075 0.08280957490205765 1.5890328884124756
v -0.08117805421352386 0.08495521545410156 1.5859369039535522
v -0.08271396160125732 0.07749557495117188 1.5886608362197876
v -0.08174045383930206 0.08115965873003006 1.5864665508270264
v -0.08289091289043427 0.06630677729845047 1.5956043004989624
v -0.0828673392534256 0.06889934837818146 1.598953366279602
v -0.08133508265018463 0.08316945284605026 1.584824562072754
v -0.07716260850429535 0.08878965675830841 1.5846794843673706
v -0.07032289355993271 0.07865068316459656 1.5884754657745361
v -0.07186973094940186 0.08418982475996017 1.5852316617965698
v -0.07089219987392426 0.07723750174045563 1.5868936777114868
v -0.07214026153087616 0.0826026201248169 1.5833793878555298
v -0.07270222902297974 0.08804704248905182 1.5839835405349731
v -0.07273904234170914 0.08845438063144684 1.5865802764892578
v -0.0813867375254631 0.06125929206609726 1.5972481966018677
v -0.07849287986755371 0.06099020317196846 1.5926586389541626
v -0.07948198914527893 0.06486042588949203 1.591130018234253
v -0.0801146924495697 0.07578600943088531 1.5852750539779663
v -0.07597687095403671 0.06599724292755127 1.5886098146438599
v -0.07159022986888885 0.07075963914394379 1.5881952047348022
v -0.07250235974788666 0.0765383243560791 1.584859848022461
v -0.07544844597578049 0.07559297978878021 1.583835482597351
v -0.07378865033388138 0.08081328868865967 1.5826153755187988
v -0.07619645446538925 0.07985113561153412 1.5826971530914307
v -0.0796884298324585 0.07997133582830429 1.5838011503219604
v -0.07564937323331833 0.0841345563530922 1.5819408893585205
v -0.07375743240118027 0.08639119565486908 1.5826624631881714
v -0.07845249027013779 0.08591797947883606 1.5834193229675293
v -0.07677306979894638 0.08243198692798615 1.582113265991211
v -0.07912015169858932 0.0833183079957962 1.5835309028625488
v -0.07556329667568207 0.05125041306018829 1.5621159076690674
v -0.07376015186309814 0.0486440509557724 1.5566695928573608
v -0.07203123718500137 0.041862741112709045 1.561042308807373
v -0.07377219200134277 0.04465872794389725 1.5655850172042847
v -0.06517663598060608 0.05622573569417 1.5677342414855957
v -0.0708475112915039 0.055166564881801605 1.567986249923706
v -0.06945418566465378 0.051733508706092834 1.5707579851150513
v -0.06352940201759338 0.054169051349163055 1.569183349609375
v -0.060421787202358246 0.05524080619215965 1.5638595819473267
v -0.05889686942100525 0.053260236978530884 1.5651518106460571
v -0.06066082790493965 0.053304657340049744 1.5709161758422852
v -0.06626170873641968 0.04945451766252518 1.5729252099990845
v -0.05263017117977142 0.03731340914964676 1.5834605693817139
v -0.0483977235853672 0.04259873181581497 1.5810742378234863
v -0.05266952142119408 0.02347078174352646 1.5715737342834473
v -0.051378484815359116 0.026499265804886818 1.5693005323410034
v -0.07432031631469727 0.05331180989742279 1.565466284751892
v -0.07263880968093872 0.04831980913877487 1.569016456604004
v -0.06304827332496643 0.03818555921316147 1.5570191144943237
v -0.06721896678209305 0.03681003302335739 1.5602527856826782
v -0.06948820501565933 0.041120484471321106 1.5567604303359985
v -0.06494962424039841 0.0422915518283844 1.5543103218078613
v -0.05520850419998169 0.028308594599366188 1.5822733640670776
v -0.053556110709905624 0.024307582527399063 1.577467679977417
v -0.05477499961853027 0.032693445682525635 1.5830473899841309
v -0.058315590023994446 0.042392875999212265 1.556577205657959
v -0.054787300527095795 0.04768673703074455 1.558869481086731
v -0.04355490207672119 0.039456017315387726 1.5683177709579468
v -0.04658285528421402 0.03354480117559433 1.566435694694519
v -0.07008352875709534 0.04528719186782837 1.5718952417373657
v -0.06999364495277405 0.037892162799835205 1.56476628780365
v -0.07140100002288818 0.040725208818912506 1.5687317848205566
v -0.056309349834918976 0.05214056745171547 1.5654326677322388
v -0.05734569951891899 0.04976625740528107 1.5580521821975708
v -0.062284231185913086 0.06052446365356445 1.5479846000671387
v -0.06125069409608841 0.049348559230566025 1.5530227422714233
v -0.06590528786182404 0.048276226967573166 1.55165696144104
v -0.06646597385406494 0.0600016750395298 1.5455924272537231
v -0.06058294326066971 0.045234352350234985 1.5545748472213745
v -0.05854044854640961 0.05191929265856743 1.5575120449066162
v -0.07580363005399704 0.06549573689699173 1.552507996559143
v -0.07432436943054199 0.06295131146907806 1.5473365783691406
v -0.0743861049413681 0.06740064918994904 1.5562613010406494
v -0.04440080747008324 0.0436197891831398 1.574579119682312
v -0.06568405032157898 0.06712852418422699 1.5606451034545898
v -0.07159672677516937 0.06773428618907928 1.5593292713165283
v -0.0705733671784401 0.04789407551288605 1.552659273147583
v -0.07072880864143372 0.061290938407182693 1.5451377630233765
v -0.05963924899697304 0.0621374137699604 1.5515174865722656
v -0.06030472368001938 0.06438428163528442 1.5581331253051758
v -0.06267671287059784 0.06585156917572021 1.5464215278625488
v -0.06153406202793121 0.06912411749362946 1.5517414808273315
v -0.06549477577209473 0.07227461785078049 1.5542033910751343
v -0.07054963707923889 0.07341010868549347 1.5539517402648926
v -0.07386153936386108 0.07237495481967926 1.5521690845489502
v -0.0648237019777298 0.06473210453987122 1.5438753366470337
v -0.06864592432975769 0.06478576362133026 1.5417746305465698
v -0.07274924963712692 0.06501290202140808 1.5433210134506226
v -0.06526138633489609 0.06743805855512619 1.5386543273925781
v -0.06238092854619026 0.069130539894104 1.5402275323867798
v -0.060459889471530914 0.08490091562271118 1.5384175777435303
v -0.061554908752441406 0.08167816698551178 1.5427671670913696
v -0.05968553200364113 0.0802282840013504 1.5416724681854248
v -0.05840674787759781 0.08307330310344696 1.5376296043395996
v -0.061595238745212555 0.07748523354530334 1.54672110080719
v -0.0601220540702343 0.07718093693256378 1.5443533658981323
v -0.05999118834733963 0.0731058120727539 1.542814016342163
v -0.05902116000652313 0.07648630440235138 1.5388801097869873
v -0.060273803770542145 0.07254937291145325 1.5364612340927124
v -0.058224719017744064 0.07513689249753952 1.532502293586731
v -0.05654624104499817 0.07918988168239594 1.5347890853881836
v -0.06039426475763321 0.07114158570766449 1.5396475791931152
v -0.05763966590166092 0.08392965793609619 1.5344876050949097
v -0.05934954434633255 0.08545402437448502 1.5332324504852295
v -0.06163397431373596 0.07235100865364075 1.5449780225753784
v -0.06733343005180359 0.07719287276268005 1.5502780675888062
v -0.06439930200576782 0.08267290145158768 1.5428606271743774
v -0.06330987811088562 0.08561274409294128 1.5373486280441284
v -0.061879269778728485 0.0851307064294815 1.5315816402435303
v -0.06781647354364395 0.08228032290935516 1.5408991575241089
v -0.06580635160207748 0.08473028242588043 1.53566312789917
v -0.06427743285894394 0.08390352129936218 1.5310767889022827
v -0.07079029828310013 0.08044129610061646 1.538006067276001
v -0.06824295967817307 0.08248695731163025 1.5331661701202393
v -0.07500190287828445 0.07388322800397873 1.5469028949737549
v -0.07206077128648758 0.07623913139104843 1.549410104751587
v -0.06634119153022766 0.08276472985744476 1.5312846899032593
v -0.05746442824602127 0.08221380412578583 1.5299830436706543
v -0.060620762407779694 0.08239386975765228 1.5285953283309937
v -0.05667516961693764 0.08141939342021942 1.5314967632293701
v -0.061464324593544006 0.07133345305919647 1.5352123975753784
v -0.05984794348478317 0.07451824843883514 1.53093421459198
v -0.06355751305818558 0.07054334878921509 1.5339138507843018
v -0.06171201914548874 0.07446572184562683 1.5294420719146729
v -0.058534033596515656 0.07774558663368225 1.528550148010254
v -0.0572870597243309 0.0781998485326767 1.5297542810440063
v -0.07549181580543518 0.06971798837184906 1.549458384513855
v -0.07495541870594025 0.06646834313869476 1.545482873916626
v -0.07563590258359909 0.0702751874923706 1.5433986186981201
v -0.07164891809225082 0.07676363736391068 1.535163402557373
v -0.07337335497140884 0.06769772619009018 1.5408445596694946
v -0.06860795617103577 0.06717905402183533 1.5383083820343018
v -0.0662948340177536 0.07079371809959412 1.5335723161697388
v -0.06940025836229324 0.07307419925928116 1.5335211753845215
v -0.06387443095445633 0.07422284036874771 1.5287944078445435
v -0.06681470572948456 0.07510647177696228 1.530139446258545
v -0.06890939921140671 0.07915399223566055 1.5313713550567627
v -0.06244249641895294 0.0777909979224205 1.5269526243209839
v -0.060049742460250854 0.07780972123146057 1.5275323390960693
v -0.06283275783061981 0.08189256489276886 1.528572678565979
v -0.06522157788276672 0.07760675996541977 1.5281341075897217
v -0.0658116564154625 0.08095085620880127 1.5293450355529785
v -0.06646643579006195 0.04527471214532852 1.5412571430206299
v -0.06512961536645889 0.041095007210969925 1.537657618522644
v -0.06457573920488358 0.035516172647476196 1.5412076711654663
v -0.06622907519340515 0.039930716156959534 1.5450836420059204
v -0.05515222251415253 0.04996870830655098 1.5456348657608032
v -0.06018790602684021 0.05027075111865997 1.5455800294876099
v -0.06040249019861221 0.04681132733821869 1.5488722324371338
v -0.05482092127203941 0.04647289961576462 1.5495468378067017
v -0.051090553402900696 0.04880787804722786 1.542035698890686
v -0.050357602536678314 0.04491741210222244 1.546197772026062
v -0.05213141068816185 0.04655683785676956 1.5523219108581543
v -0.058223944157361984 0.044683076441287994 1.5523492097854614
v -0.0481330007314682 0.03748143091797829 1.56007981300354
v -0.042737074196338654 0.041817352175712585 1.5585345029830933
v -0.06406134366989136 0.048380762338638306 1.5438040494918823
v -0.06436482071876526 0.04424013942480087 1.547316074371338
v -0.05353502929210663 0.03178896754980087 1.539036512374878
v -0.05685480684041977 0.031053807586431503 1.5417574644088745
v -0.06092820316553116 0.034152161329984665 1.5372724533081055
v -0.05739383026957512 0.034468766301870346 1.5355305671691895
v -0.04915490746498108 0.02616013027727604 1.5598701238632202
v -0.0451594777405262 0.023464884608983994 1.5558959245681763
v -0.05063340440392494 0.03175918012857437 1.5600768327713013
v -0.049246422946453094 0.03547332435846329 1.5388374328613281
v -0.04555254057049751 0.04125487059354782 1.542438268661499
v -0.036319851875305176 0.03615256026387215 1.548215389251709
v -0.038319189101457596 0.030209405347704887 1.5474414825439453
v -0.06179085001349449 0.04106110334396362 1.551544427871704
v -0.0602584108710289 0.032120946794748306 1.5456950664520264
v -0.06289341300725937 0.036156002432107925 1.5493805408477783
v -0.047648996114730835 0.04553891718387604 1.548130989074707
v -0.04947111755609512 0.041026920080184937 1.540482759475708
v -0.05236276984214783 0.053906843066215515 1.5249735116958618
v -0.052368562668561935 0.039851490408182144 1.5341384410858154
v -0.05748598277568817 0.03869734704494476 1.532984972000122
v -0.055800460278987885 0.05270286649465561 1.5227293968200684
v -0.052585914731025696 0.03668082877993584 1.535843014717102
v -0.04937143623828888 0.044111669063568115 1.5377819538116455
v -0.06556523591279984 0.05824825167655945 1.5288889408111572
v -0.06408391147851944 0.05415838211774826 1.5256134271621704
v -0.06387880444526672 0.05971003323793411 1.5324496030807495
v -0.03752269595861435 0.041813790798187256 1.55372953414917
v -0.04114018380641937 0.02453727275133133 1.5500518083572388
v -0.05719795823097229 0.06164350360631943 1.5342826843261719
v -0.061369433999061584 0.06123994663357735 1.534043788909912
v -0.06139197200536728 0.038933634757995605 1.534574270248413
v -0.06006717309355736 0.05245058611035347 1.5228394269943237
v -0.05102980136871338 0.05603204667568207 1.528603196144104
v -0.052429117262363434 0.05928332731127739 1.5329293012619019
v -0.051478832960128784 0.05847881734371185 1.5242645740509033
v -0.052702903747558594 0.0618269257247448 1.5286669731140137
v -0.056122057139873505 0.06503435969352722 1.5302330255508423
v -0.05999206006526947 0.0653066635131836 1.5301222801208496
v -0.06290444731712341 0.06415329873561859 1.528666615486145
v -0.05327986925840378 0.057061366736888885 1.5206592082977295
v -0.056631579995155334 0.05654317885637283 1.5190744400024414
v -0.060403287410736084 0.0555698461830616 1.521104097366333
v -0.05373585224151611 0.05948984995484352 1.5169360637664795
v -0.05051885172724724 0.06289055943489075 1.519297480583191
v -0.0534023717045784 0.07822476327419281 1.5172269344329834
v -0.05432780086994171 0.0744096115231514 1.5208587646484375
v -0.05316635221242905 0.07401823997497559 1.5204623937606812
v -0.0517774298787117 0.07793164253234863 1.51688551902771
v -0.05365202575922012 0.06947867572307587 1.525038242340088
v -0.05232394486665726 0.07029881328344345 1.5233888626098633
v -0.050667136907577515 0.06731641292572021 1.522051453590393
v -0.049679946154356 0.07159622013568878 1.5176085233688354
v -0.050287045538425446 0.06712977588176727 1.5140457153320312
v -0.04963712394237518 0.07108822464942932 1.5113494396209717
v -0.048635922372341156 0.07538090646266937 1.5144402980804443
v -0.05007922649383545 0.06483149528503418 1.5186262130737305
v -0.05094916746020317 0.07907910645008087 1.514240026473999
v -0.05182625353336334 0.08100306987762451 1.5145455598831177
v -0.051579512655735016 0.0657670795917511 1.523784875869751
v -0.057860083878040314 0.06984999030828476 1.5269500017166138
v -0.057034462690353394 0.07500723004341125 1.5212323665618896
v -0.056677401065826416 0.07930122315883636 1.5173861980438232
v -0.055349238216876984 0.08035072684288025 1.5134919881820679
v -0.06025253236293793 0.07385504245758057 1.5198633670806885
v -0.059093184769153595 0.0776025652885437 1.516072154045105
v -0.05789203941822052 0.07875904440879822 1.5125761032104492
v -0.062107376754283905 0.07182317227125168 1.5181092023849487
v -0.06057173013687134 0.07521308958530426 1.5144503116607666
v -0.06386952102184296 0.06403331458568573 1.5251333713531494
v -0.061410583555698395 0.067580446600914 1.5267444849014282
v -0.05906827375292778 0.07691039144992828 1.5121263265609741
v -0.04974623769521713 0.0785723626613617 1.5109668970108032
v -0.053449198603630066 0.0779736265540123 1.5089938640594482
v -0.04968994855880737 0.07731324434280396 1.5122512578964233
v -0.05114797130227089 0.06553392112255096 1.5133942365646362
v -0.050278060138225555 0.0701720118522644 1.5091947317123413
v -0.05358586460351944 0.06421983242034912 1.5124101638793945
v -0.052750274538993835 0.0690423995256424 1.5080955028533936
v -0.0495716854929924 0.07404759526252747 1.5085830688476562
v -0.04935701936483383 0.07422482967376709 1.509774088859558
v -0.06445375829935074 0.06078534200787544 1.5265218019485474
v -0.06361322104930878 0.05738916993141174 1.5234230756759644
v -0.06389125436544418 0.06077124923467636 1.5221415758132935
v -0.06211007386445999 0.06918296217918396 1.5148506164550781
v -0.0613238550722599 0.05828284099698067 1.5194549560546875
v -0.05705590173602104 0.05967819318175316 1.5160274505615234
v -0.05666419491171837 0.06458427011966705 1.5120728015899658
v -0.059666916728019714 0.06639635562896729 1.5125778913497925
v -0.055592864751815796 0.06894506514072418 1.5081194639205933
v -0.05786793678998947 0.06960201263427734 1.5098364353179932
v -0.06082365661859512 0.07274670898914337 1.5116010904312134
v -0.05495738610625267 0.07295937091112137 1.5077399015426636
v -0.052087195217609406 0.07340871542692184 1.5073086023330688
v -0.05641258507966995 0.07689815759658813 1.5089737176895142
v -0.05726210027933121 0.07257644832134247 1.5086580514907837
v -0.05847301334142685 0.07550142705440521 1.509641408920288
v -0.04258136451244354 0.022627579048275948 1.5525481700897217
v -0.04168764501810074 0.020364418625831604 1.5507932901382446
v -0.040675923228263855 0.017083294689655304 1.5530554056167603
v -0.03807234764099121 0.014883149415254593 1.550978422164917
v -0.0380079485476017 0.01830783113837242 1.5489187240600586
v -0.04813026636838913 0.018340840935707092 1.5419970750808716
v -0.046266403049230576 0.021127842366695404 1.5450010299682617
v -0.04327498748898506 0.020019959658384323 1.541839361190796
v -0.04475374519824982 0.017435293644666672 1.5384105443954468
v -0.04909791424870491 0.013364188373088837 1.541517734527588
v -0.045710042119026184 0.012649286538362503 1.5377001762390137
v -0.04227548837661743 0.02040065824985504 1.5369837284088135
v -0.04105788469314575 0.021995386108756065 1.5413230657577515
v -0.03049386292695999 0.026257896795868874 1.5445085763931274
v -0.028912542387843132 0.026260627433657646 1.5404338836669922
v -0.01876920461654663 0.009247628971934319 1.539794921875
v -0.01704871654510498 0.007706478238105774 1.5432085990905762
v -0.02621452324092388 0.009379075840115547 1.5450726747512817
v -0.025757281109690666 0.009253760799765587 1.5412136316299438
v -0.043905265629291534 0.021549977362155914 1.5479092597961426
v -0.04066784679889679 0.020436812192201614 1.5459285974502563
v -0.035370178520679474 0.006569648161530495 1.5460714101791382
v -0.03482689708471298 0.009476888924837112 1.5493855476379395
v -0.037349723279476166 0.010918162763118744 1.5518412590026855
v -0.038915906101465225 0.007128361612558365 1.5506078004837036
v -0.02020784467458725 0.008755248039960861 1.5469741821289062
v -0.0242044348269701 0.010803323239088058 1.5487357378005981
v -0.02795323170721531 0.013527268543839455 1.5490667819976807
v -0.02803729847073555 0.011632256209850311 1.5482134819030762
v -0.030723847448825836 0.019830096513032913 1.5487064123153687
v -0.03713390231132507 0.005991389974951744 1.542040228843689
v -0.03970757871866226 0.00856512039899826 1.5368976593017578
v -0.025593863800168037 0.01443580724298954 1.5339958667755127
v -0.02474786527454853 0.011080708354711533 1.5370746850967407
v -0.03961910307407379 0.021328121423721313 1.5456032752990723
v -0.035848841071128845 0.013641400262713432 1.550350546836853
v -0.037531837821006775 0.017972763627767563 1.5487943887710571
v -0.04143884778022766 0.015278508886694908 1.5344041585922241
v -0.04486234486103058 0.007561497390270233 1.5413705110549927
v -0.05147508531808853 0.009250318631529808 1.5576308965682983
v -0.04570496827363968 0.006700657308101654 1.550682783126831
v -0.042821962386369705 0.008694253861904144 1.5539237260818481
v -0.048863910138607025 0.010314781218767166 1.559427261352539
v -0.04102695733308792 0.005977559834718704 1.5461187362670898
v -0.04877994954586029 0.00845363363623619 1.5460456609725952
v -0.046494536101818085 0.022393491119146347 1.5561050176620483
v -0.04534439742565155 0.017588596791028976 1.5585167407989502
v -0.04865593463182449 0.023853134363889694 1.5538992881774902
v -0.02721541002392769 0.022686010226607323 1.5354171991348267
v -0.054478563368320465 0.020753126591444016 1.5499297380447388
v -0.05169539153575897 0.023574575781822205 1.5520894527435303
v -0.041086819022893906 0.013026177883148193 1.5542651414871216
v -0.04631108045578003 0.013224273920059204 1.5597379207611084
v -0.054548151791095734 0.010628031566739082 1.5541917085647583
v -0.05569002777338028 0.015280608087778091 1.5496658086776733
v -0.056716226041316986 0.012921802699565887 1.5590046644210815
v -0.057995207607746124 0.01717153750360012 1.5541541576385498
v -0.05541574954986572 0.022591184824705124 1.5537850856781006
v -0.051640987396240234 0.023968730121850967 1.5544898509979248
v -0.048632219433784485 0.02381308376789093 1.5557829141616821
v -0.0528586208820343 0.011378331109881401 1.561872959136963
v -0.04999718442559242 0.011878935620188713 1.5628838539123535
v -0.04707925021648407 0.014048893004655838 1.5618774890899658
v -0.05373901128768921 0.013924496248364449 1.5656578540802002
v -0.056777775287628174 0.0174427293241024 1.5644415616989136
v -0.051240622997283936 0.029337603598833084 1.5674117803573608
v -0.051763467490673065 0.027559582144021988 1.563539743423462
v -0.05280003696680069 0.027074800804257393 1.5640279054641724
v -0.05233463644981384 0.02936127968132496 1.567576289176941
v -0.054074451327323914 0.024924535304307938 1.5591439008712769
v -0.0546129047870636 0.02482481859624386 1.5609318017959595
v -0.05652946978807449 0.02172381803393364 1.5611858367919922
v -0.05576678365468979 0.024567479267716408 1.5659321546554565
v -0.0555928498506546 0.020368294790387154 1.5692945718765259
v -0.05506010353565216 0.023114332929253578 1.5726432800292969
v -0.05562430992722511 0.026610393077135086 1.569406509399414
v -0.05692440643906593 0.019396182149648666 1.5648949146270752
v -0.052991822361946106 0.03032136708498001 1.5702487230300903
v -0.052027929574251175 0.031091250479221344 1.570984125137329
v -0.0574844665825367 0.02071423828601837 1.5591312646865845
v -0.050200313329696655 0.025306958705186844 1.5578031539916992
v -0.04922495037317276 0.02830221876502037 1.5637990236282349
v -0.0492386668920517 0.030348168686032295 1.56857168674469
v -0.05016167089343071 0.03061421774327755 1.572400689125061
v -0.046925075352191925 0.027096616104245186 1.5637247562408447
v -0.04706820845603943 0.029548021033406258 1.5690606832504272
v -0.04806046187877655 0.029566451907157898 1.5726996660232544
v -0.044814713299274445 0.024638192728161812 1.564797282218933
v -0.04573335498571396 0.02734954096376896 1.569619059562683
v -0.045031026005744934 0.02140803635120392 1.559696078300476
v -0.04707718640565872 0.024129195138812065 1.5584297180175781
v -0.0471140593290329 0.028099576011300087 1.5723140239715576
v -0.05403410643339157 0.029112564399838448 1.5738487243652344
v -0.05120580643415451 0.028539370745420456 1.574869990348816
v -0.055167749524116516 0.028414862230420113 1.5727248191833496
v -0.055070310831069946 0.01911032199859619 1.569924235343933
v -0.05425766855478287 0.022351816296577454 1.5739867687225342
v -0.05325385928153992 0.017581142485141754 1.5706772804260254
v -0.052259571850299835 0.021693376824259758 1.5746744871139526
v -0.05401510000228882 0.025733647868037224 1.5753685235977173
v -0.05513187497854233 0.02576608397066593 1.5737504959106445
v -0.04602911323308945 0.021642934530973434 1.5583263635635376
v -0.045786842703819275 0.018133550882339478 1.5600817203521729
v -0.045243218541145325 0.017730241641402245 1.5620286464691162
v -0.044736266136169434 0.020994000136852264 1.566960334777832
v -0.04730025678873062 0.014238634146749973 1.5641471147537231
v -0.0506817102432251 0.013143644668161869 1.5655590295791626
v -0.05049712210893631 0.017192548140883446 1.570678472518921
v -0.04727408289909363 0.01809046044945717 1.569705605506897
v -0.05004193261265755 0.021831976249814034 1.574596643447876
v -0.04730089008808136 0.02222468890249729 1.5732338428497314
v -0.0454278439283371 0.024366339668631554 1.571305274963379
v -0.04983127862215042 0.025617310777306557 1.575435996055603
v -0.05168323218822479 0.025797735899686813 1.5759638547897339
v -0.049220144748687744 0.027764324098825455 1.574705719947815
v -0.048092395067214966 0.025290530174970627 1.5745394229888916
v -0.047452397644519806 0.026582250371575356 1.5736281871795654
v -0.02088242396712303 0.011840911582112312 1.5374524593353271
v -0.03214661404490471 0.0032149143517017365 1.6113237142562866
v -0.029968544840812683 0.0042135752737522125 1.6062226295471191
v -0.02101512998342514 -0.00932222232222557 1.602746844291687
v -0.024170110002160072 -0.0030866041779518127 1.6000111103057861
v -0.02142719179391861 -0.013235252350568771 1.608687400817871
v -0.026243790984153748 -0.011349841952323914 1.618051528930664
v -0.022601373493671417 -0.012985464185476303 1.6143972873687744
v -0.02699420601129532 0.001611817628145218 1.6017476320266724
v -0.032013580203056335 5.542859435081482e-05 1.6160316467285156
v -0.029659893363714218 -0.006071830168366432 1.619484543800354
v -0.042508888989686966 -0.006527548655867577 1.6116784811019897
v -0.03855700045824051 -0.013148043304681778 1.614316701889038
v -0.03361084684729576 -0.018412310630083084 1.6113401651382446
v -0.02815994806587696 -0.017492812126874924 1.6079106330871582
v -0.025454945862293243 -0.016388200223445892 1.6042335033416748
v -0.03903625160455704 -0.0005445946007966995 1.6073918342590332
v -0.03590958192944527 0.001363193616271019 1.6029388904571533
v -0.030845362693071365 -0.0007306002080440521 1.59929358959198
v -0.043577201664447784 -0.003324851393699646 1.6009521484375
v -0.0448535680770874 -0.010379958897829056 1.594714641571045
v -0.03571756184101105 -0.022134341299533844 1.5824058055877686
v -0.03371503949165344 -0.021284516900777817 1.5885539054870605
v -0.03641730174422264 -0.020806357264518738 1.588884949684143
v -0.03809063881635666 -0.022044837474822998 1.5833474397659302
v -0.03511800616979599 -0.020948298275470734 1.594011902809143
v -0.03687961399555206 -0.01983906328678131 1.5930265188217163
v -0.0406481958925724 -0.016122102737426758 1.5949889421463013
v -0.04186864197254181 -0.01747237890958786 1.5894047021865845
v -0.043253105133771896 -0.012209057807922363 1.5933866500854492
v -0.04384150356054306 -0.011675611138343811 1.5891395807266235
v -0.04297050088644028 -0.018315359950065613 1.5840204954147339
v -0.04063556343317032 -0.02194543182849884 1.580550193786621
v -0.04357163608074188 -0.018984973430633545 1.5796326398849487
v -0.038683291524648666 -0.02147515118122101 1.5785424709320068
v -0.04377502575516701 -0.01784031093120575 1.5970183610916138
v -0.03005404584109783 -0.02022765949368477 1.597995400428772
v -0.030364718288183212 -0.02035016566514969 1.5889971256256104
v -0.03287971392273903 -0.02034004032611847 1.5817151069641113
v -0.03668870031833649 -0.01950007677078247 1.5774102210998535
v -0.027781490236520767 -0.01734195277094841 1.5883374214172363
v -0.030766243115067482 -0.016756828874349594 1.581906795501709
v -0.03479693457484245 -0.015443995594978333 1.5781352519989014
v -0.02752542868256569 -0.012745562940835953 1.587665319442749
v -0.031022893264889717 -0.013059418648481369 1.5822333097457886
v -0.024786271154880524 -0.011043280363082886 1.5978198051452637
v -0.025776105001568794 -0.016544315963983536 1.5990184545516968
v -0.034140028059482574 -0.013305611908435822 1.5795083045959473
v -0.043486762791872025 -0.018500864505767822 1.577356219291687
v -0.041422389447689056 -0.016182556748390198 1.5762890577316284
v -0.0444188229739666 -0.008596718311309814 1.589476466178894
v -0.045587822794914246 -0.012801103293895721 1.584378719329834
v -0.045135192573070526 -0.010301224887371063 1.5837433338165283
v -0.043061353266239166 -0.005090836435556412 1.5900681018829346
v -0.04388992115855217 -0.007831793278455734 1.58314049243927
v -0.04539639130234718 -0.013525225222110748 1.5794939994812012
v -0.04541445150971413 -0.015349023044109344 1.5811717510223389
v -0.02380317822098732 -0.011700533330440521 1.6004114151000977
v -0.026051035150885582 -0.005592059344053268 1.5986297130584717
v -0.02781258337199688 -0.00482717901468277 1.597272515296936
v -0.030168266966938972 -0.007007662206888199 1.58819580078125
v -0.03326445817947388 -0.0004316866397857666 1.5970326662063599
v -0.039531607180833817 -0.00037885457277297974 1.5993001461029053
v -0.04017465561628342 -0.0028421320021152496 1.5892798900604248
v -0.03520490229129791 -0.0031942464411258698 1.588889241218567
v -0.040774840861558914 -0.006448660045862198 1.5827221870422363
v -0.037818484008312225 -0.006729505956172943 1.5827858448028564
v -0.03347582370042801 -0.009293179959058762 1.5820224285125732
v -0.04084429889917374 -0.009917128831148148 1.5789766311645508
v -0.04370102658867836 -0.011175956577062607 1.5788049697875977
v -0.038587071001529694 -0.013142835348844528 1.5772942304611206
v -0.03854205831885338 -0.00921482965350151 1.580224633216858
v -0.0365285649895668 -0.011346887797117233 1.5792900323867798
v -0.011466298252344131 0.008826333098113537 1.542833924293518
v -0.01453111320734024 0.00858949963003397 1.5481946468353271
v -0.008160252124071121 0.008878436870872974 1.5475589036941528
v 0.000672515481710434 0.008242852985858917 1.5488641262054443
v 0.010628625750541687 0.01004289835691452 1.5455057621002197
v -0.0014247559010982513 0.009188192896544933 1.5552862882614136
v -0.010654278099536896 0.00995498988777399 1.5532549619674683
v -0.02044270932674408 0.010612837970256805 1.553113341331482
v 0.004647970199584961 0.010845325887203217 1.5632137060165405
f 2 3 1
f 1 3 4
f 5 6 8
f 8 6 7
f 9 4 10
f 10 4 3
f 12 13 11
f 11 13 9
f 14 12 16
f 16 12 15
f 18 19 17
f 17 19 20
f 22 23 21
f 21 23 24
f 26 27 25
f 25 27 28
f 30 31 29
f 29 31 32
f 33 34 36
f 36 34 35
f 37 38 40
f 40 38 39
f 41 42 6
f 6 42 43
f 6 43 7
f 7 43 44
f 45 34 46
f 46 34 33
f 48 49 47
f 47 49 50
f 52 53 51
f 51 53 54
f 56 52 55
f 55 52 51
f 58 59 57
f 57 59 60
f 61 62 4
f 4 62 1
f 64 65 63
f 63 65 66
f 68 69 67
f 67 69 70
f 72 73 71
f 71 73 74
f 76 77 75
f 75 77 78
f 53 79 54
f 54 79 80
f 82 83 81
f 81 83 84
f 85 86 52
f 52 86 53
f 57 60 87
f 87 60 88
f 89 90 43
f 43 90 44
f 43 42 89
f 89 42 91
f 40 39 92
f 92 39 93
f 94 70 64
f 64 70 69
f 13 61 9
f 9 61 4
f 25 28 69
f 69 28 95
f 96 25 68
f 68 25 69
f 98 99 97
f 97 99 100
f 101 102 104
f 104 102 103
f 106 30 105
f 105 30 29
f 51 54 107
f 107 54 108
f 54 80 108
f 108 80 109
f 111 112 110
f 110 112 113
f 115 5 114
f 114 5 116
f 115 41 5
f 5 41 6
f 36 35 111
f 111 35 117
f 35 118 117
f 117 118 119
f 34 120 35
f 35 120 118
f 34 45 120
f 120 45 121
f 125 126 124
f 124 126 127
f 128 129 14
f 14 129 130
f 33 131 46
f 46 131 132
f 133 94 63
f 63 94 64
f 134 135 137
f 137 135 136
f 139 140 138
f 138 140 141
f 77 142 78
f 78 142 143
f 144 145 20
f 20 145 146
f 148 149 147
f 147 149 72
f 151 152 150
f 150 152 153
f 82 101 83
f 83 101 104
f 101 82 155
f 155 82 154
f 156 157 58
f 58 157 59
f 158 68 147
f 147 68 67
f 159 146 15
f 15 146 16
f 68 158 96
f 96 158 160
f 129 66 130
f 130 66 65
f 162 163 161
f 161 163 164
f 166 167 165
f 165 167 168
f 170 171 169
f 169 171 172
f 174 171 173
f 173 171 170
f 176 177 175
f 175 177 178
f 180 181 179
f 179 181 24
f 182 183 21
f 21 183 184
f 81 185 82
f 82 185 154
f 186 187 188
f 188 187 144
f 158 71 160
f 160 71 189
f 190 135 157
f 157 135 59
f 169 172 139
f 139 172 140
f 147 72 158
f 158 72 71
f 192 193 191
f 191 193 194
f 167 166 49
f 49 166 195
f 196 190 50
f 50 190 157
f 197 198 200
f 200 198 199
f 21 24 182
f 182 24 181
f 146 159 20
f 20 159 17
f 182 181 81
f 81 181 185
f 201 185 180
f 180 185 181
f 202 203 83
f 83 203 84
f 205 206 204
f 204 206 85
f 207 22 184
f 184 22 21
f 179 24 208
f 208 24 23
f 208 209 179
f 179 209 205
f 209 210 205
f 205 210 206
f 212 206 211
f 211 206 210
f 179 205 180
f 180 205 204
f 213 176 88
f 88 176 214
f 86 85 212
f 212 85 206
f 193 217 218
f 217 219 218
f 218 219 220
f 219 18 220
f 220 18 17
f 19 221 20
f 20 221 144
f 222 223 225
f 225 223 224
f 175 226 176
f 176 226 214
f 227 87 214
f 214 87 88
f 220 17 228
f 228 17 159
f 134 213 60
f 60 213 88
f 138 229 151
f 151 229 152
f 193 192 210
f 210 192 211
f 230 194 218
f 218 194 193
f 231 232 228
f 228 232 230
f 233 234 91
f 91 234 89
f 235 236 93
f 93 236 92
f 230 232 234
f 234 232 237
f 47 238 48
f 48 238 239
f 240 191 235
f 235 191 236
f 5 8 116
f 116 8 241
f 242 243 189
f 189 243 160
f 244 245 98
f 98 245 99
f 156 246 47
f 47 246 238
f 76 247 77
f 77 247 248
f 250 125 249
f 249 125 124
f 252 253 251
f 251 253 254
f 111 110 36
f 36 110 255
f 256 33 255
f 255 33 36
f 257 258 154
f 154 258 155
f 63 169 133
f 133 169 139
f 66 170 63
f 63 170 169
f 173 170 129
f 129 170 66
f 129 128 173
f 173 128 259
f 128 260 259
f 259 260 261
f 213 134 262
f 262 134 137
f 263 264 186
f 186 264 187
f 112 265 113
f 113 265 266
f 11 267 268
f 234 233 230
f 230 233 194
f 153 269 70
f 70 269 67
f 175 178 165
f 165 178 141
f 150 153 94
f 94 153 70
f 271 221 270
f 270 221 207
f 269 153 272
f 272 153 152
f 121 45 109
f 109 45 108
f 47 50 156
f 156 50 157
f 57 273 58
f 58 273 274
f 145 275 260
f 260 275 261
f 276 149 143
f 143 149 78
f 148 269 75
f 75 269 272
f 207 277 270
f 270 277 278
f 195 196 49
f 49 196 50
f 59 135 60
f 60 135 134
f 83 104 202
f 202 104 279
f 149 148 78
f 78 148 75
f 247 278 248
f 248 278 277
f 183 182 84
f 84 182 81
f 48 239 281
f 281 239 282
f 227 223 283
f 283 223 222
f 223 226 224
f 224 226 168
f 281 282 224
f 224 282 225
f 165 168 175
f 175 168 226
f 264 263 138
f 138 263 229
f 14 16 128
f 128 16 260
f 220 228 218
f 218 228 230
f 87 227 284
f 284 227 283
f 260 16 145
f 145 16 146
f 244 98 258
f 258 98 155
f 58 274 156
f 156 274 246
f 107 285 51
f 51 285 55
f 243 286 160
f 160 286 96
f 234 237 89
f 89 237 90
f 46 132 107
f 107 132 285
f 253 252 249
f 249 252 250
f 286 26 96
f 96 26 25
f 106 105 287
f 287 105 288
f 272 152 289
f 289 152 229
f 138 151 139
f 139 151 133
f 183 290 161
f 161 290 162
f 291 292 277
f 277 292 293
f 151 150 133
f 133 150 94
f 262 275 177
f 177 275 187
f 144 187 145
f 145 187 275
f 273 57 284
f 284 57 87
f 174 136 190
f 190 136 135
f 111 117 112
f 112 117 38
f 117 119 38
f 38 119 123
f 112 38 265
f 265 38 37
f 287 288 254
f 254 288 251
f 228 159 231
f 231 159 15
f 223 227 226
f 226 227 214
f 147 67 148
f 148 67 269
f 224 168 281
f 281 168 167
f 199 163 200
f 200 163 162
f 45 46 108
f 108 46 107
f 281 167 48
f 48 167 49
f 161 164 291
f 291 164 292
f 38 123 39
f 293 294 277
f 277 294 248
f 284 283 296
f 296 283 295
f 284 296 273
f 273 296 297
f 274 273 298
f 298 273 297
f 246 274 299
f 299 274 298
f 283 222 295
f 295 222 300
f 222 225 300
f 300 225 301
f 301 225 302
f 302 225 282
f 303 304 300
f 300 304 295
f 306 307 305
f 305 307 308
f 309 310 308
f 308 310 305
f 308 307 312
f 312 307 311
f 313 314 312
f 312 314 315
f 311 316 312
f 312 316 313
f 317 304 311
f 311 304 316
f 315 309 312
f 312 309 308
f 318 319 321
f 321 319 320
f 319 318 309
f 309 318 310
f 311 307 317
f 317 307 306
f 306 297 317
f 317 297 296
f 306 322 297
f 297 322 298
f 305 323 306
f 306 323 322
f 323 305 324
f 324 305 310
f 304 317 295
f 295 317 296
f 318 325 310
f 310 325 324
f 323 324 326
f 326 324 327
f 324 325 327
f 327 325 328
f 326 327 329
f 329 327 330
f 329 331 326
f 326 331 332
f 333 330 328
f 328 330 327
f 323 326 322
f 322 326 332
f 322 332 298
f 298 332 299
f 325 318 334
f 334 318 321
f 313 316 335
f 335 316 304
f 335 336 313
f 313 336 314
f 304 303 335
f 335 303 337
f 336 335 338
f 338 335 337
f 336 339 314
f 314 339 340
f 246 299 238
f 238 299 341
f 239 342 282
f 282 342 302
f 342 239 341
f 341 239 238
f 341 331 342
f 342 331 343
f 331 329 343
f 343 329 344
f 342 343 302
f 302 343 345
f 341 299 331
f 331 299 332
f 346 301 345
f 345 301 302
f 346 303 301
f 301 303 300
f 347 337 346
f 346 337 303
f 347 346 348
f 348 346 345
f 349 347 350
f 350 347 348
f 343 344 345
f 345 344 348
f 344 351 348
f 348 351 350
f 337 347 338
f 338 347 349
f 353 338 352
f 352 338 349
f 352 355 354
f 354 355 356
f 352 349 355
f 355 349 350
f 352 354 353
f 353 354 334
f 353 334 339
f 339 334 321
f 339 336 353
f 353 336 338
f 329 330 344
f 344 330 351
f 356 351 333
f 333 351 330
f 356 355 351
f 351 355 350
f 354 356 328
f 328 356 333
f 328 325 354
f 354 325 334
f 309 315 319
f 319 315 320
f 320 340 321
f 321 340 339
f 320 315 340
f 340 315 314
f 137 136 261
f 261 136 259
f 140 166 141
f 141 166 165
f 172 171 195
f 195 171 196
f 171 174 196
f 196 174 190
f 178 177 264
f 264 177 187
f 172 195 140
f 140 195 166
f 137 261 262
f 262 261 275
f 178 264 141
f 141 264 138
f 262 177 213
f 213 177 176
f 136 174 259
f 259 174 173
f 358 359 357
f 357 359 360
f 362 363 361
f 361 363 364
f 361 364 365
f 365 364 366
f 367 368 370
f 370 368 369
f 76 371 247
f 247 371 372
f 373 374 362
f 362 374 363
f 376 377 375
f 375 377 378
f 289 229 380
f 380 229 379
f 381 379 263
f 263 379 229
f 383 384 382
f 382 384 385
f 386 368 374
f 374 368 363
f 76 289 371
f 371 289 380
f 377 376 359
f 359 376 387
f 388 386 360
f 360 386 374
f 389 383 366
f 366 383 390
f 392 393 391
f 391 393 394
f 383 382 390
f 390 382 395
f 396 365 390
f 390 365 366
f 389 366 367
f 367 366 364
f 357 397 358
f 358 397 398
f 373 399 357
f 357 399 397
f 389 367 400
f 400 367 370
f 382 385 375
f 375 385 372
f 357 360 373
f 373 360 374
f 361 401 362
f 362 401 402
f 387 388 359
f 359 388 360
f 363 368 364
f 364 368 367
f 358 398 403
f 403 398 404
f 396 392 405
f 405 392 391
f 392 395 393
f 393 395 378
f 393 403 394
f 394 403 404
f 375 378 382
f 382 378 395
f 365 396 406
f 406 396 405
f 362 402 373
f 373 402 399
f 271 270 400
f 400 270 384
f 401 361 406
f 406 361 365
f 381 369 386
f 386 369 368
f 392 396 395
f 395 396 390
f 393 378 403
f 403 378 377
f 403 377 358
f 358 377 359
f 406 405 408
f 408 405 407
f 406 408 401
f 401 408 409
f 401 409 402
f 402 409 410
f 402 410 399
f 399 410 411
f 405 391 407
f 407 391 412
f 391 394 412
f 412 394 413
f 394 404 413
f 413 404 414
f 415 416 412
f 412 416 407
f 418 419 417
f 417 419 420
f 421 422 418
f 418 422 419
f 419 422 424
f 424 422 423
f 425 426 424
f 424 426 427
f 423 428 424
f 424 428 425
f 427 420 424
f 424 420 419
f 420 429 417
f 417 429 430
f 423 422 431
f 431 422 421
f 421 409 431
f 431 409 408
f 421 432 409
f 409 432 410
f 418 433 421
f 421 433 432
f 434 433 417
f 417 433 418
f 431 416 423
f 423 416 428
f 416 431 407
f 407 431 408
f 435 434 430
f 430 434 417
f 433 434 436
f 436 434 437
f 434 435 437
f 437 435 438
f 436 437 439
f 439 437 440
f 439 441 436
f 436 441 442
f 438 443 437
f 437 443 440
f 436 442 433
f 433 442 432
f 432 442 410
f 410 442 411
f 435 430 445
f 445 430 444
f 430 429 444
f 444 429 446
f 425 428 447
f 447 428 416
f 426 425 448
f 448 425 447
f 416 415 447
f 447 415 449
f 447 449 448
f 448 449 450
f 451 452 448
f 448 452 426
f 446 452 444
f 444 452 451
f 399 411 397
f 397 411 453
f 398 454 404
f 404 454 414
f 454 398 453
f 453 398 397
f 453 441 454
f 454 441 455
f 441 439 455
f 455 439 456
f 454 455 414
f 414 455 457
f 441 453 442
f 442 453 411
f 458 413 457
f 457 413 414
f 458 415 413
f 413 415 412
f 458 459 415
f 415 459 449
f 459 458 460
f 460 458 457
f 461 459 462
f 462 459 460
f 455 456 457
f 457 456 460
f 456 463 460
f 460 463 462
f 459 461 449
f 449 461 450
f 465 450 464
f 464 450 461
f 464 467 466
f 466 467 468
f 464 461 467
f 467 461 462
f 464 466 465
f 465 466 445
f 465 445 451
f 451 445 444
f 451 448 465
f 465 448 450
f 439 440 456
f 456 440 463
f 468 463 443
f 443 463 440
f 468 467 463
f 463 467 462
f 466 468 438
f 438 468 443
f 438 435 466
f 466 435 445
f 420 427 429
f 429 427 446
f 446 427 452
f 452 427 426
f 370 369 188
f 188 369 186
f 371 376 372
f 372 376 375
f 380 379 387
f 387 379 388
f 379 381 388
f 388 381 386
f 385 384 278
f 278 384 270
f 380 387 371
f 371 387 376
f 400 370 271
f 271 370 188
f 385 278 372
f 372 278 247
f 400 384 389
f 389 384 383
f 369 381 186
f 186 381 263
f 221 271 144
f 144 271 188
f 221 19 207
f 207 19 22
f 19 18 22
f 22 18 23
f 18 219 23
f 23 219 208
f 469 470 472
f 472 470 471
f 474 475 473
f 473 475 476
f 473 476 477
f 477 476 478
f 480 481 479
f 479 481 482
f 483 484 474
f 474 484 475
f 486 487 485
f 485 487 488
f 489 490 77
f 77 490 142
f 491 489 248
f 248 489 77
f 493 494 492
f 492 494 495
f 496 480 484
f 484 480 475
f 486 497 487
f 487 497 471
f 498 496 472
f 472 496 484
f 499 493 478
f 478 493 500
f 501 502 504
f 504 502 503
f 493 492 500
f 500 492 505
f 506 477 500
f 500 477 478
f 499 478 479
f 479 478 476
f 469 507 470
f 470 507 508
f 483 509 469
f 469 509 507
f 479 482 499
f 499 482 510
f 492 495 485
f 485 495 511
f 483 469 484
f 484 469 472
f 473 512 474
f 474 512 513
f 497 498 471
f 471 498 472
f 475 480 476
f 476 480 479
f 470 508 514
f 514 508 515
f 506 502 516
f 516 502 501
f 503 502 488
f 488 502 505
f 514 515 503
f 503 515 504
f 485 488 492
f 492 488 505
f 477 506 517
f 517 506 516
f 474 513 483
f 483 513 509
f 510 292 494
f 494 292 164
f 512 473 517
f 517 473 477
f 491 481 496
f 496 481 480
f 502 506 505
f 505 506 500
f 503 488 514
f 514 488 487
f 514 487 470
f 470 487 471
f 517 516 519
f 519 516 518
f 517 519 512
f 512 519 520
f 512 520 513
f 513 520 521
f 513 521 509
f 509 521 522
f 516 501 518
f 518 501 523
f 501 504 523
f 523 504 524
f 524 504 525
f 525 504 515
f 526 527 523
f 523 527 518
f 529 530 528
f 528 530 531
f 532 533 529
f 529 533 530
f 530 533 535
f 535 533 534
f 536 537 535
f 535 537 538
f 534 539 535
f 535 539 536
f 538 531 535
f 535 531 530
f 540 541 531
f 531 541 528
f 533 532 534
f 534 532 542
f 532 520 542
f 542 520 519
f 532 543 520
f 520 543 521
f 529 544 532
f 532 544 543
f 544 529 545
f 545 529 528
f 534 542 539
f 539 542 527
f 527 542 518
f 518 542 519
f 541 546 528
f 528 546 545
f 547 544 548
f 548 544 545
f 546 549 545
f 545 549 548
f 550 547 551
f 551 547 548
f 547 550 553
f 553 550 552
f 549 554 548
f 548 554 551
f 544 547 543
f 543 547 553
f 543 553 521
f 521 553 522
f 546 541 556
f 556 541 555
f 541 540 555
f 555 540 557
f 536 539 558
f 558 539 527
f 537 536 559
f 559 536 558
f 527 526 558
f 558 526 560
f 559 558 561
f 561 558 560
f 559 562 537
f 537 562 563
f 557 563 555
f 555 563 562
f 509 522 507
f 507 522 564
f 508 565 515
f 515 565 525
f 565 508 564
f 564 508 507
f 564 552 565
f 565 552 566
f 552 550 566
f 566 550 567
f 565 566 525
f 525 566 568
f 564 522 552
f 552 522 553
f 569 524 568
f 568 524 525
f 569 526 524
f 524 526 523
f 570 560 569
f 569 560 526
f 570 569 571
f 571 569 568
f 572 570 573
f 573 570 571
f 566 567 568
f 568 567 571
f 567 574 571
f 571 574 573
f 570 572 560
f 560 572 561
f 576 561 575
f 575 561 572
f 575 578 577
f 577 578 579
f 575 572 578
f 578 572 573
f 575 577 576
f 576 577 556
f 576 556 562
f 562 556 555
f 562 559 576
f 576 559 561
f 550 551 567
f 567 551 574
f 579 574 554
f 554 574 551
f 579 578 574
f 574 578 573
f 579 554 577
f 577 554 549
f 549 546 577
f 577 546 556
f 531 538 540
f 540 538 557
f 557 538 563
f 563 538 537
f 481 294 482
f 482 294 293
f 580 486 511
f 511 486 485
f 490 489 497
f 497 489 498
f 489 491 498
f 498 491 496
f 163 495 164
f 164 495 494
f 580 490 486
f 486 490 497
f 482 293 510
f 510 293 292
f 495 163 511
f 511 163 199
f 494 493 510
f 510 493 499
f 481 491 294
f 294 491 248
f 582 583 581
f 581 583 584
f 586 587 585
f 585 587 588
f 585 588 589
f 589 588 590
f 592 593 591
f 591 593 594
f 595 596 598
f 598 596 597
f 599 600 586
f 586 600 587
f 601 602 604
f 604 602 603
f 605 606 608
f 608 606 607
f 609 607 200
f 200 607 606
f 610 611 613
f 613 611 612
f 600 614 587
f 587 614 592
f 596 605 597
f 597 605 608
f 602 615 603
f 603 615 583
f 616 614 584
f 584 614 600
f 611 618 617
f 617 618 590
f 620 621 619
f 619 621 622
f 610 623 611
f 611 623 618
f 624 589 618
f 618 589 590
f 617 590 591
f 591 590 588
f 581 625 582
f 582 625 626
f 599 627 581
f 581 627 625
f 591 594 617
f 617 594 628
f 601 610 598
f 598 610 613
f 581 584 599
f 599 584 600
f 585 629 586
f 586 629 630
f 615 616 583
f 583 616 584
f 587 592 588
f 588 592 591
f 582 626 631
f 631 626 632
f 624 620 633
f 633 620 619
f 621 620 604
f 604 620 623
f 631 632 621
f 621 632 622
f 610 601 623
f 623 601 604
f 589 624 634
f 634 624 633
f 586 630 599
f 599 630 627
f 203 202 628
f 628 202 612
f 629 585 634
f 634 585 589
f 609 593 614
f 614 593 592
f 620 624 623
f 623 624 618
f 631 621 603
f 603 621 604
f 582 631 583
f 583 631 603
f 634 633 636
f 636 633 635
f 634 636 629
f 629 636 637
f 629 637 630
f 630 637 638
f 630 638 627
f 627 638 639
f 633 619 635
f 635 619 640
f 619 622 640
f 640 622 641
f 641 622 642
f 642 622 632
f 644 635 643
f 643 635 640
f 645 646 648
f 648 646 647
f 649 650 646
f 646 650 647
f 647 650 652
f 652 650 651
f 652 653 655
f 655 653 654
f 651 656 652
f 652 656 653
f 655 648 652
f 652 648 647
f 648 657 645
f 645 657 658
f 650 649 651
f 651 649 659
f 649 637 659
f 659 637 636
f 649 660 637
f 637 660 638
f 661 660 646
f 646 660 649
f 662 661 645
f 645 661 646
f 651 659 656
f 656 659 644
f 644 659 635
f 635 659 636
f 663 662 658
f 658 662 645
f 664 661 665
f 665 661 662
f 663 666 662
f 662 666 665
f 667 664 668
f 668 664 665
f 664 667 670
f 670 667 669
f 666 671 665
f 665 671 668
f 661 664 660
f 660 664 670
f 660 670 638
f 638 670 639
f 658 672 663
f 663 672 673
f 658 657 672
f 672 657 674
f 653 656 675
f 675 656 644
f 653 675 654
f 654 675 676
f 675 644 677
f 677 644 643
f 676 675 678
f 678 675 677
f 679 680 676
f 676 680 654
f 674 680 672
f 672 680 679
f 627 639 625
f 625 639 681
f 626 682 632
f 632 682 642
f 681 682 625
f 625 682 626
f 669 683 681
f 681 683 682
f 667 684 669
f 669 684 683
f 682 683 642
f 642 683 685
f 681 639 669
f 669 639 670
f 686 641 685
f 685 641 642
f 641 686 640
f 640 686 643
f 686 687 643
f 643 687 677
f 687 686 688
f 688 686 685
f 689 687 690
f 690 687 688
f 683 684 685
f 685 684 688
f 684 691 688
f 688 691 690
f 687 689 677
f 677 689 678
f 693 678 692
f 692 678 689
f 692 695 694
f 694 695 696
f 692 689 695
f 695 689 690
f 692 694 693
f 693 694 673
f 693 673 679
f 679 673 672
f 679 676 693
f 693 676 678
f 684 667 691
f 691 667 668
f 696 691 671
f 671 691 668
f 696 695 691
f 691 695 690
f 694 696 666
f 666 696 671
f 666 663 694
f 694 663 673
f 648 655 657
f 657 655 674
f 674 655 680
f 680 655 654
f 593 162 594
f 594 162 290
f 598 597 601
f 601 597 602
f 615 608 616
f 616 608 607
f 607 609 616
f 616 609 614
f 697 595 613
f 613 595 598
f 597 608 602
f 602 608 615
f 594 290 628
f 628 290 203
f 628 612 617
f 617 612 611
f 593 609 162
f 162 609 200
f 105 29 698
f 698 29 699
f 268 126 701
f 701 126 700
f 126 125 700
f 700 125 702
f 252 703 250
f 250 703 704
f 32 268 705
f 705 268 701
f 288 105 706
f 706 105 698
f 29 32 699
f 699 32 705
f 707 251 706
f 706 251 288
f 250 704 125
f 125 704 702
f 703 252 707
f 707 252 251
f 706 708 707
f 707 708 709
f 707 709 703
f 703 709 710
f 703 710 704
f 704 710 711
f 704 711 702
f 702 711 712
f 706 698 708
f 708 698 713
f 698 699 713
f 713 699 714
f 699 705 714
f 714 705 715
f 717 708 716
f 716 708 713
f 719 720 718
f 718 720 721
f 722 723 719
f 719 723 720
f 724 725 723
f 723 725 720
f 724 726 725
f 725 726 727
f 728 721 725
f 725 721 720
f 721 728 729
f 729 728 730
f 729 731 721
f 721 731 718
f 724 723 732
f 732 723 722
f 722 710 732
f 732 710 709
f 722 733 710
f 710 733 711
f 719 734 722
f 722 734 733
f 734 719 735
f 735 719 718
f 724 732 726
f 726 732 717
f 717 732 708
f 708 732 709
f 731 736 718
f 718 736 735
f 737 734 738
f 738 734 735
f 736 739 735
f 735 739 738
f 740 737 741
f 741 737 738
f 737 740 743
f 743 740 742
f 739 744 738
f 738 744 741
f 734 737 733
f 733 737 743
f 733 743 711
f 711 743 712
f 736 731 746
f 746 731 745
f 731 729 745
f 745 729 730
f 727 726 747
f 747 726 717
f 748 727 749
f 749 727 747
f 747 717 750
f 750 717 716
f 749 747 751
f 751 747 750
f 749 752 748
f 748 752 753
f 730 753 745
f 745 753 752
f 728 725 748
f 748 725 727
f 730 728 753
f 753 728 748
f 700 702 754
f 754 702 712
f 705 701 715
f 715 701 755
f 754 755 700
f 700 755 701
f 742 756 754
f 754 756 755
f 740 757 742
f 742 757 756
f 755 756 715
f 715 756 758
f 754 712 742
f 742 712 743
f 759 714 758
f 758 714 715
f 714 759 713
f 713 759 716
f 759 760 716
f 716 760 750
f 760 759 761
f 761 759 758
f 762 760 763
f 763 760 761
f 756 757 758
f 758 757 761
f 757 764 761
f 761 764 763
f 760 762 750
f 750 762 751
f 766 751 765
f 765 751 762
f 767 765 769
f 769 765 768
f 765 762 768
f 768 762 763
f 765 767 766
f 766 767 746
f 766 746 752
f 752 746 745
f 752 749 766
f 766 749 751
f 757 740 764
f 764 740 741
f 769 764 744
f 744 764 741
f 769 768 764
f 764 768 763
f 767 769 739
f 739 769 744
f 739 736 767
f 767 736 746
f 219 217 208
f 208 217 209
f 209 217 210
f 210 217 193
f 198 580 199
f 199 580 511
f 76 75 289
f 289 75 272
f 277 207 291
f 291 207 184
f 290 183 203
f 203 183 84
f 490 580 142
f 142 580 198
f 142 198 143
f 143 198 197
f 149 276 72
f 72 276 73
f 104 103 279
f 279 103 770
f 770 596 279
f 279 596 595
f 605 596 771
f 771 596 770
f 771 770 772
f 772 770 103
f 772 103 773
f 773 103 102
f 155 774 101
f 101 774 102
f 773 102 97
f 97 102 774
f 775 773 100
f 100 773 97
f 773 775 772
f 772 775 776
f 772 776 771
f 771 776 777
f 200 606 197
f 197 606 777
f 189 71 778
f 778 71 74
f 97 774 98
f 98 774 155
f 183 161 184
f 184 161 291
f 777 276 197
f 197 276 143
f 777 606 771
f 771 606 605
f 613 612 697
f 697 612 202
f 595 697 279
f 279 697 202
f 73 276 776
f 776 276 777
f 776 775 73
f 73 775 74
f 100 778 775
f 775 778 74
f 778 100 189
f 189 100 99
f 245 242 99
f 99 242 189
f 131 33 256
f 28 1 95
f 95 1 62
f 27 2 28
f 28 2 1
f 265 115 266
f 266 115 114
f 95 62 69
f 69 62 64
f 62 61 64
f 64 61 65
f 61 13 65
f 65 13 130
f 13 12 130
f 130 12 14
f 31 11 32
f 32 11 268
f 15 12 31
f 31 12 11
f 31 30 15
f 15 30 231
f 30 106 231
f 231 106 232
f 287 237 106
f 106 237 232
f 254 90 287
f 287 90 237
f 253 44 254
f 254 44 90
f 253 249 44
f 44 249 7
f 267 127 268
f 268 127 126
f 10 3 241
f 241 3 116
f 3 2 116
f 116 2 114
f 2 27 114
f 114 27 266
f 27 26 266
f 266 26 113
f 26 286 113
f 113 286 110
f 286 243 110
f 110 243 255
f 243 242 255
f 255 242 256
f 242 245 256
f 256 245 131
f 245 244 131
f 131 244 132
f 265 37 115
f 115 37 41
f 41 37 42
f 42 37 40
f 92 91 40
f 40 91 42
f 236 233 92
f 92 233 91
f 191 194 236
f 236 194 233
f 258 285 244
f 244 285 132
f 257 55 258
f 258 55 285
f 257 154 201
f 201 154 185
f 56 201 204
f 204 201 180
f 55 257 56
f 56 257 201
f 204 85 56
f 56 85 52
f 86 122 53
f 53 122 79
f 212 215 86
f 86 215 122
f 211 216 212
f 212 216 215
f 192 280 211
f 211 280 216
f 191 240 192
f 192 240 280
f 249 124 7
f 7 124 8
f 124 127 8
f 8 127 241
f 127 267 241
f 241 267 10
f 10 267 9
f 9 267 11
