v -0.0010957345366477966 0.01657206192612648 1.6552655696868896
v 0.011643070727586746 0.012452397495508194 1.6546615362167358
v 0.004766505211591721 0.007668931037187576 1.6597216129302979
v -0.006261322647333145 0.0124887116253376 1.6608023643493652
v 0.021371085196733475 0.004097402095794678 1.6725201606750488
v 0.024644244462251663 0.009360423311591148 1.6825447082519531
v 0.008204009383916855 0.006522223353385925 1.6829702854156494
v 0.00906510278582573 0.001904275268316269 1.6736146211624146
v -0.011327926069498062 0.012161904945969582 1.6642787456512451
v -0.0020713917911052704 0.005642734467983246 1.6628613471984863
v -0.013233017176389694 0.017361149191856384 1.6644937992095947
v -0.02134033292531967 0.02656128630042076 1.6699347496032715
v -0.020294740796089172 0.019970837980508804 1.6682250499725342
v -0.028792161494493484 0.0306891817599535 1.6714202165603638
v -0.015695538371801376 0.036327943205833435 1.6708260774612427
v -0.027297895401716232 0.039499010890722275 1.668275237083435
v -0.007169187068939209 0.05082982778549194 1.6525942087173462
v -0.003604978322982788 0.05170740932226181 1.6404017210006714
v -0.019186435267329216 0.049735695123672485 1.6390630006790161
v -0.021421069279313087 0.04848632216453552 1.6518458127975464
v -0.008738964796066284 0.04635056480765343 1.621930718421936
v -0.015484720468521118 0.04835696518421173 1.6311559677124023
v 0.0002538152039051056 0.0514112189412117 1.6325087547302246
v 0.0054871439933776855 0.049246616661548615 1.6240949630737305
v 0.0060847364366054535 0.021287105977535248 1.6438645124435425
v 0.017633888870477676 0.019508259370923042 1.642960548400879
v 0.01625068113207817 0.01781855896115303 1.647306203842163
v 0.004473205655813217 0.020166676491498947 1.6482861042022705
v -0.015939902514219284 0.018986772745847702 1.6691471338272095
v -0.008949697017669678 0.02814989909529686 1.6745508909225464
v -0.01286708191037178 0.024838214740157127 1.669166922569275
v -0.015252973884344101 0.015082210302352905 1.6653556823730469
v 0.04295291379094124 0.013181868940591812 1.6348817348480225
v 0.054791342467069626 0.01901218295097351 1.6371476650238037
v 0.05414971336722374 0.01952555403113365 1.6430799961090088
v 0.043597083538770676 0.014427331276237965 1.6398167610168457
v 0.04582500085234642 0.01584479585289955 1.6682300567626953
v 0.053209852427244186 0.021994169801473618 1.6624152660369873
v 0.057006124407052994 0.031042955815792084 1.6712803840637207
v 0.04774459823966026 0.028541909530758858 1.6759798526763916
v 0.03589314594864845 0.011037958785891533 1.6770553588867188
v 0.0376572348177433 0.022195089608430862 1.6828738451004028
v 0.02304801717400551 0.019572362303733826 1.6881451606750488
v 0.004995185881853104 0.01394405122846365 1.6879725456237793
v 0.05624508485198021 0.020925141870975494 1.6245920658111572
v 0.04791231080889702 0.016423478722572327 1.621131181716919
v -0.07951165735721588 0.040111154317855835 1.6484079360961914
v -0.07551594823598862 0.04215499013662338 1.6445162296295166
v -0.07188182324171066 0.03564535081386566 1.647170066833496
v -0.07577677816152573 0.03519705682992935 1.6511037349700928
v 0.04957660660147667 0.03510155901312828 1.6121339797973633
v 0.04813985899090767 0.045037638396024704 1.6129846572875977
v 0.05528828129172325 0.04395120590925217 1.6127598285675049
v 0.05684424564242363 0.03476579114794731 1.6138333082199097
v 0.03991790488362312 0.035370778292417526 1.6100425720214844
v 0.03813233599066734 0.045868974179029465 1.61383855342865
v -0.07827933132648468 0.04698657616972923 1.658437728881836
v -0.0811537653207779 0.04347563534975052 1.6561013460159302
v -0.07679018378257751 0.040332723408937454 1.6594393253326416
v -0.07279989868402481 0.044185854494571686 1.6613950729370117
v -0.01683395728468895 0.01711742766201496 1.664138913154602
v -0.011932957917451859 0.017804639413952827 1.6570675373077393
v -0.03837248310446739 0.020419543609023094 1.662458896636963
v -0.026484612375497818 0.01988108828663826 1.6601628065109253
v -0.02683236636221409 0.020190410315990448 1.6667712926864624
v -0.03678884729743004 0.02186044678092003 1.6684179306030273
v -0.016525350511074066 0.022100871428847313 1.6389532089233398
v -0.004792645573616028 0.022414211183786392 1.6402170658111572
v -0.007704783231019974 0.02218993566930294 1.645867109298706
v -0.020942308008670807 0.021217113360762596 1.646311640739441
v -0.0004916153848171234 0.019599802792072296 1.6270896196365356
v -0.012431338429450989 0.019877232611179352 1.6268916130065918
v -0.008745789527893066 0.018127044662833214 1.6194432973861694
v -0.0007791519165039062 0.017407316714525223 1.6209312677383423
v -0.035315051674842834 0.021404728293418884 1.6296775341033936
v -0.04387902095913887 0.024768242612481117 1.629425287246704
v -0.043307024985551834 0.026721756905317307 1.6245352029800415
v -0.03378530964255333 0.022259917110204697 1.625666856765747
v 0.062317054718732834 0.043966732919216156 1.6130040884017944
v 0.06358993053436279 0.03484291955828667 1.6163616180419922
v 0.0003926865756511688 0.03933778777718544 1.6043156385421753
v 0.006436016410589218 0.03173975646495819 1.5992838144302368
v -0.005555015057325363 0.029675431549549103 1.595098614692688
v -0.008200537413358688 0.03801456838846207 1.6017576456069946
v 0.04499579593539238 0.05267033725976944 1.619255781173706
v 0.05246277526021004 0.052632223814725876 1.6169568300247192
v -0.07343299686908722 0.0509992316365242 1.6580668687820435
v -0.06877270340919495 0.0484040230512619 1.6596782207489014
v 0.022930379956960678 0.03128720447421074 1.6859835386276245
v 0.003065105527639389 0.023151421919465065 1.687323808670044
v 0.03788474574685097 0.03603322058916092 1.680811882019043
v 0.04732564464211464 0.04013175144791603 1.6754289865493774
v 0.055926527827978134 0.042541421949863434 1.6732503175735474
v -0.030046358704566956 0.019916435703635216 1.6543247699737549
v -0.005716979503631592 0.0202212892472744 1.650934100151062
v 0.007604636251926422 0.0211806520819664 1.6393874883651733
v 0.012369908392429352 0.01332138106226921 1.6102806329727173
v 0.022893574088811874 0.01303594745695591 1.61199951171875
v 0.0171789713203907 0.012890584766864777 1.6209138631820679
v 0.009130753576755524 0.013833895325660706 1.6174989938735962
v 0.006959032267332077 0.022078270092606544 1.5982887744903564
v 0.004016362130641937 0.016145892441272736 1.6026403903961182
v -0.0055864304304122925 0.0162242129445076 1.600594162940979
v -0.00391947478055954 0.021326612681150436 1.5957057476043701
v -0.01666075363755226 0.02032841369509697 1.6759438514709473
v -0.004845332354307175 0.030449841171503067 1.6793664693832397
v 0.0503293015062809 0.02502945065498352 1.6149262189865112
v 0.05697036162018776 0.025929179042577744 1.6187225580215454
v 0.06458543241024017 0.02865055948495865 1.620928168296814
v 0.030762773007154465 0.01540340855717659 1.6406751871109009
v 0.0441640205681324 0.015067112632095814 1.643547773361206
v 0.04343100264668465 0.014302663505077362 1.6488453149795532
v 0.030707288533449173 0.015631064772605896 1.6438586711883545
v 0.023802030831575394 0.00742231123149395 1.6584625244140625
v 0.034059811383485794 0.007292376831173897 1.6649811267852783
v 0.01388082280755043 0.0029357168823480606 1.6629873514175415
v 0.05497933551669121 0.0204920694231987 1.6516392230987549
v 0.06384120881557465 0.02168515883386135 1.644939661026001
v 0.06334482133388519 0.02339112013578415 1.65378737449646
v 0.06478001177310944 0.02241552621126175 1.6352269649505615
v 0.06507842242717743 0.024569567292928696 1.626603603363037
v 0.060267847031354904 0.05547736585140228 1.6153595447540283
v 0.06175334379076958 0.026483099907636642 1.6615688800811768
v 0.0005671195685863495 0.001018233597278595 1.6726771593093872
v -0.007354449480772018 -0.0005576349794864655 1.670901894569397
v -0.008627280592918396 0.002845022827386856 1.6638175249099731
v -0.0015287064015865326 0.0034018624573946 1.6645195484161377
v -0.039029836654663086 0.0339580699801445 1.6718641519546509
v -0.038840293884277344 0.02641557902097702 1.671409010887146
v -0.027088787406682968 0.023823905736207962 1.6715425252914429
v 0.03333849832415581 0.012103468179702759 1.6284935474395752
v 0.03808761015534401 0.014591356739401817 1.6171773672103882
v -0.041185613721609116 0.022476285696029663 1.6565454006195068
v -0.06777365505695343 0.04525157809257507 1.663506031036377
v -0.07076762616634369 0.040025949478149414 1.663537621498108
v -0.05523453280329704 0.03670116513967514 1.6691973209381104
v -0.05416939780116081 0.04300859943032265 1.6681216955184937
v -0.04872528463602066 0.032663457095623016 1.6516469717025757
v -0.04649144783616066 0.02705248072743416 1.6544392108917236
v -0.04919338598847389 0.0303427055478096 1.652949333190918
v -0.05030804127454758 0.03544992581009865 1.6493268013000488
v -0.03748496249318123 0.024870652705430984 1.6175206899642944
v -0.029514459893107414 0.02107701450586319 1.6183547973632812
v -0.03621895611286163 0.04396548867225647 1.6508393287658691
v -0.034237492829561234 0.0458558052778244 1.6634515523910522
v -0.023404473438858986 0.04638424143195152 1.6609666347503662
v -0.013394374400377274 0.021288108080625534 1.6322466135025024
v -0.02422141842544079 0.020739804953336716 1.6302871704101562
v -0.023057162761688232 0.02049887925386429 1.6262574195861816
v -0.03359208628535271 0.020970962941646576 1.6508550643920898
v -0.04220569133758545 0.024399299174547195 1.6515319347381592
v -0.03965871036052704 0.02287251129746437 1.6475991010665894
v -0.030611667782068253 0.02136901393532753 1.6460928916931152
v 0.018759530037641525 0.03419363498687744 1.6025965213775635
v 0.01963776722550392 0.022771092131733894 1.6010358333587646
v -0.08152107894420624 0.0408097580075264 1.6525635719299316
v -0.07725086063146591 0.03671641647815704 1.6558663845062256
v -0.0019627660512924194 0.021627575159072876 1.6336312294006348
v -0.010043803602457047 0.04696321487426758 1.6608781814575195
v 0.009393464773893356 0.020411167293787003 1.6343618631362915
v -0.023501986637711525 0.03774900361895561 1.6113595962524414
v -0.02451714128255844 0.032552991062402725 1.6078435182571411
v -0.030231881886720657 0.03330717980861664 1.6092870235443115
v -0.029330464079976082 0.03876608982682228 1.6107802391052246
v -0.06179075315594673 0.04212813824415207 1.6452006101608276
v -0.06488311290740967 0.03716766834259033 1.646145224571228
v -0.06784774363040924 0.03875506669282913 1.6438487768173218
v -0.06440367549657822 0.04292284697294235 1.6440190076828003
v -0.046623967587947845 0.024709511548280716 1.6595144271850586
v -0.0462208092212677 0.024681543931365013 1.6660475730895996
v -0.0531037375330925 0.02737199328839779 1.662370204925537
v -0.051412731409072876 0.028374990448355675 1.6569818258285522
v -0.04819127917289734 0.029406867921352386 1.6695410013198853
v -0.05459331348538399 0.03087448887526989 1.66706383228302
v -0.06001745164394379 0.04739817976951599 1.6488648653030396
v -0.06080476567149162 0.05067477375268936 1.6559820175170898
v -0.050200819969177246 0.04806091636419296 1.656929850578308
v -0.05137377232313156 0.0429411455988884 1.6510294675827026
v 0.01960807666182518 0.05252988636493683 1.6265381574630737
v 0.02335203066468239 0.048647440969944 1.616937518119812
v 0.009360238909721375 0.045328885316848755 1.614211082458496
v -0.003847997635602951 0.04271158203482628 1.611126184463501
v -0.016169395297765732 0.03890678286552429 1.6093753576278687
v -0.02002534829080105 0.04428493604063988 1.619612693786621
v 0.013293184340000153 0.04218601807951927 1.6080125570297241
v -0.04710851237177849 0.03889160603284836 1.6484683752059937
v -0.042464450001716614 0.043988339602947235 1.6564805507659912
v -0.04226222634315491 0.04237012565135956 1.6492468118667603
v 0.01095312088727951 0.017679600045084953 1.6276739835739136
v -0.0710730329155922 0.03593278303742409 1.6612268686294556
v 0.0452188216149807 0.05652745068073273 1.6614336967468262
v 0.04554034397006035 0.06031347066164017 1.6488895416259766
v 0.03713096305727959 0.05832435563206673 1.650512456893921
v 0.036404747515916824 0.053600288927555084 1.6640527248382568
v -0.06785796582698822 0.033110618591308594 1.6507971286773682
v -0.07036328315734863 0.03262437507510185 1.6562154293060303
v -0.028294848278164864 0.02097334712743759 1.6119250059127808
v -0.03447762876749039 0.025123342871665955 1.6124846935272217
v -0.03394171968102455 0.027418430894613266 1.6096991300582886
v -0.028731822967529297 0.02255874127149582 1.6070741415023804
v 0.026571039110422134 0.046098001301288605 1.6127853393554688
v -0.01388208195567131 0.028142230585217476 1.5930174589157104
v -0.014682576060295105 0.03597162663936615 1.598191499710083
v 0.03563300892710686 0.05159531533718109 1.6197409629821777
v 0.032453496009111404 0.055562254041433334 1.627995491027832
v 0.04189523681998253 0.05757132172584534 1.6284732818603516
v -0.03142798691987991 0.04423065483570099 1.6303139925003052
v 0.014943886548280716 0.05408453196287155 1.6336159706115723
v 0.029005128890275955 0.056518398225307465 1.6347194910049438
v 0.04016314074397087 0.05892690271139145 1.6356087923049927
v 0.048165034502744675 0.06115750968456268 1.6355068683624268
v 0.049297746270895004 0.059227295219898224 1.6277050971984863
v -0.06399891525506973 0.048878900706768036 1.6602590084075928
v -0.06497237086296082 0.05007007718086243 1.6553599834442139
v 0.05757591500878334 0.0625946894288063 1.626267671585083
v 0.05607122555375099 0.06399679183959961 1.6352777481079102
v 0.025851760059595108 0.056746192276477814 1.6433659791946411
v 0.022368308156728745 0.055773552507162094 1.6534347534179688
v 0.01237357035279274 0.054245203733444214 1.6418441534042358
v 0.007820766419172287 0.0531466007232666 1.6517927646636963
v -0.029765106737613678 0.048051752150058746 1.639985203742981
v -0.07413972169160843 0.06183260679244995 1.646177053451538
v -0.06706449389457703 0.053571563214063644 1.6491022109985352
v -0.06738156825304031 0.05006738752126694 1.6442477703094482
v -0.07239324599504471 0.0596182718873024 1.642680048942566
v -0.06321745365858078 0.04709817096590996 1.648376226425171
v -0.06899376958608627 0.0539327934384346 1.654353380203247
v 0.0047372132539749146 0.04815392196178436 1.6628453731536865
v -0.04901052638888359 0.02890120819211006 1.6472927331924438
v 0.02024627849459648 0.04864882305264473 1.6669663190841675
v -0.00385235995054245 0.04059082269668579 1.6726207733154297
v 0.007127046585083008 0.039506688714027405 1.6761287450790405
v 0.03587291017174721 0.04753590747714043 1.6739580631256104
v 0.021381448954343796 0.041086673736572266 1.6799981594085693
v 0.053795818239450455 0.05171369016170502 1.6688759326934814
v 0.044819947332143784 0.0501304566860199 1.6704554557800293
v 0.00656316801905632 0.03322510048747063 1.6831419467926025
v -0.08161704242229462 0.04836772382259369 1.6408389806747437
v -0.07642225921154022 0.05047602206468582 1.6390607357025146
v 0.053280267864465714 0.058844272047281265 1.6605217456817627
v 0.004804711788892746 0.002288214862346649 1.664543628692627
v 0.021259423345327377 0.015828553587198257 1.6309541463851929
v 0.019752774387598038 0.01798154041171074 1.6357592344284058
v 0.029034476727247238 0.013416184112429619 1.6137638092041016
v 0.024309750646352768 0.012624138966202736 1.6243900060653687
v -0.0853179395198822 0.04864996671676636 1.6446717977523804
v -0.045417554676532745 0.0302928127348423 1.6278517246246338
v -0.0443146750330925 0.03182545676827431 1.6256848573684692
v -0.0006264373660087585 0.0030344445258378983 1.681199550628662
v -0.007786385715007782 0.00039670057594776154 1.6785823106765747
v -0.015380270779132843 0.010195234790444374 1.6830824613571167
v -0.011835161596536636 0.003973988816142082 1.68317711353302
v -0.004185833036899567 0.009003102779388428 1.686010479927063
v -0.007301498204469681 0.016050094738602638 1.6856467723846436
v 0.03055613860487938 0.014832554385066032 1.6380085945129395
v 0.030780073255300522 0.013928170315921307 1.6341710090637207
v 0.030080925673246384 0.03462861478328705 1.6062846183776855
v 0.030275780707597733 0.023215824738144875 1.6050572395324707
v -0.04795026406645775 0.035568736493587494 1.6707375049591064
v -0.03865602985024452 0.04086203873157501 1.6700795888900757
v -0.0468444749712944 0.04190772399306297 1.669175624847412
v -0.05073155462741852 0.04719962179660797 1.6640902757644653
v -0.05062667280435562 0.03564046323299408 1.6468464136123657
v -0.04722306877374649 0.03915627673268318 1.6523714065551758
v 0.03924018517136574 0.010847346857190132 1.6556724309921265
v 0.02884635701775551 0.012899506837129593 1.6501743793487549
v -0.0064352937042713165 0.007312394678592682 1.662861704826355
v -0.011954929679632187 0.00863739475607872 1.6617814302444458
v -0.026098106056451797 0.021360237151384354 1.6393026113510132
v -0.03760594502091408 0.042879097163677216 1.6317871809005737
v -0.03662134334445 0.04760822653770447 1.6395968198776245
v -0.03660614788532257 0.022243384271860123 1.6392441987991333
v -0.08567275106906891 0.0549563467502594 1.650100588798523
v -0.08657243847846985 0.05085098743438721 1.6472939252853394
v -0.044037170708179474 0.045768626034259796 1.6647160053253174
v -0.019974295049905777 0.01823628507554531 1.6187227964401245
v -0.03460187464952469 0.04056904837489128 1.6271511316299438
v -0.04080177843570709 0.03660106658935547 1.628418207168579
v -0.010905209928750992 0.02059277519583702 1.5945593118667603
v 0.054173145443201065 0.06233710050582886 1.6484689712524414
v -0.07088731229305267 0.04616580158472061 1.6423319578170776
v -0.07250308245420456 0.05388374626636505 1.6392043828964233
v -0.07651634514331818 0.06205587089061737 1.6497139930725098
v -0.08092169463634491 0.059045419096946716 1.6521720886230469
v 0.039602283388376236 0.023308811709284782 1.6103692054748535
v 0.018479634076356888 0.01914660818874836 1.6388323307037354
v -0.0062229447066783905 0.025801805779337883 1.6825451850891113
v -0.0168171226978302 0.016888054087758064 1.6798542737960815
v -0.04531177878379822 0.024689991027116776 1.6389522552490234
v -0.019257601350545883 0.03605315834283829 1.6047779321670532
v -0.027276385575532913 0.043554820120334625 1.6180006265640259
v -0.03192391246557236 0.04472697898745537 1.616302251815796
v -0.03765178471803665 0.04437161237001419 1.620690941810608
v -0.04380132257938385 0.04002700373530388 1.6224095821380615
v -0.07826005667448044 0.06532435119152069 1.6454004049301147
v -0.08377290517091751 0.06315072625875473 1.6471080780029297
v -0.08788543939590454 0.05957842618227005 1.6441681385040283
v -0.08848513662815094 0.05491165071725845 1.6419117450714111
v -0.0860595777630806 0.05122049152851105 1.6404863595962524
v -0.07553903758525848 0.06445355713367462 1.6420761346817017
v -0.07400626689195633 0.06186019629240036 1.6393723487854004
v -0.07381591200828552 0.05560990422964096 1.6376711130142212
v -0.07509864121675491 0.06588007509708405 1.6383224725723267
v -0.07889571785926819 0.06890890002250671 1.6388860940933228
v -0.08959078043699265 0.06646528840065002 1.6314442157745361
v -0.08854350447654724 0.0654914453625679 1.6371506452560425
v -0.08760804682970047 0.06748425960540771 1.6356796026229858
v -0.08816631138324738 0.06928613036870956 1.6311774253845215
v -0.08792498707771301 0.07231321185827255 1.6271605491638184
v -0.08964209258556366 0.06925007700920105 1.6266497373580933
v -0.08411663770675659 0.06799356639385223 1.6385486125946045
v -0.08431655168533325 0.07097378373146057 1.6327348947525024
v -0.08017568290233612 0.07161740213632584 1.6327943801879883
v -0.08083130419254303 0.07485590130090714 1.628531575202942
v -0.08468471467494965 0.07454322278499603 1.6283414363861084
v -0.08045683056116104 0.06968885660171509 1.6368181705474854
v -0.08418632298707962 0.06744890660047531 1.6407217979431152
v -0.0878099799156189 0.07212845236063004 1.6237317323684692
v -0.08729331195354462 0.07418017089366913 1.6250853538513184
v -0.08441251516342163 0.0757322683930397 1.6256085634231567
v -0.0839148610830307 0.07504525035619736 1.62273371219635
v -0.08911986649036407 0.05917781591415405 1.6372575759887695
v -0.08954308927059174 0.06423021852970123 1.6303412914276123
v -0.08807168900966644 0.06699652969837189 1.6253334283828735
v -0.08635939657688141 0.07004688680171967 1.6226141452789307
v -0.0869237408041954 0.06240919232368469 1.6280272006988525
v -0.08572053909301758 0.06546113640069962 1.624597191810608
v -0.08380787074565887 0.06798858940601349 1.6222225427627563
v -0.08313076198101044 0.061449505388736725 1.6264410018920898
v -0.08270809054374695 0.06476877629756927 1.6239101886749268
v -0.08319882303476334 0.052996981889009476 1.6355472803115845
v -0.08668771386146545 0.054447710514068604 1.637036681175232
v -0.08223119378089905 0.0665811225771904 1.6221615076065063
v -0.08259396255016327 0.07353158295154572 1.6219065189361572
v -0.07693909853696823 0.07016873359680176 1.6334911584854126
v -0.07802823185920715 0.07333532720804214 1.6276143789291382
v -0.07539767026901245 0.06876745074987411 1.6326103210449219
v -0.07610747963190079 0.07208691537380219 1.6268872022628784
v -0.07940303534269333 0.07574623078107834 1.6243929862976074
v -0.08143225312232971 0.0759509801864624 1.6259791851043701
v -0.0815003365278244 0.05003281682729721 1.6388275623321533
v -0.07638338953256607 0.052074164152145386 1.6376919746398926
v -0.07737499475479126 0.05429500341415405 1.6351535320281982
v -0.07847252488136292 0.06189833581447601 1.6264280080795288
v -0.07415467500686646 0.05743696540594101 1.6352390050888062
v -0.07366180419921875 0.06353769451379776 1.6358537673950195
v -0.07448045909404755 0.06726271659135818 1.630435585975647
v -0.07486364245414734 0.06474176049232483 1.6283103227615356
v -0.07559047639369965 0.06973694264888763 1.6261112689971924
v -0.07642732560634613 0.06748904287815094 1.625154733657837
v -0.079135000705719 0.06529603153467178 1.6237951517105103
v -0.07764598727226257 0.07104294002056122 1.623055100440979
v -0.07823410630226135 0.07391854375600815 1.623632550239563
v -0.08101595938205719 0.07056622952222824 1.62162184715271
v -0.0775456428527832 0.06906823813915253 1.623236894607544
v -0.08022233843803406 0.06818217784166336 1.6224559545516968
v -0.07269426435232162 0.055493369698524475 1.6190412044525146
v -0.0707317590713501 0.05282580852508545 1.613631010055542
v -0.06887994706630707 0.04627590999007225 1.6181724071502686
v -0.07094115018844604 0.049172595143318176 1.6225471496582031
v -0.06262911856174469 0.06091448664665222 1.6245819330215454
v -0.06824323534965515 0.059642307460308075 1.6247968673706055
v -0.06717430055141449 0.056530360132455826 1.627453327178955
v -0.06136249005794525 0.05923275649547577 1.6260159015655518
v -0.05776944011449814 0.06011749804019928 1.6208598613739014
v -0.05654020980000496 0.05850983038544655 1.6223018169403076
v -0.05879269540309906 0.058382548391819 1.6280951499938965
v -0.06437098979949951 0.05436515063047409 1.629831314086914
v -0.05120830610394478 0.043130211532115936 1.6421005725860596
v -0.04699736088514328 0.048460330814123154 1.6398371458053589
v -0.04995371401309967 0.02890939451754093 1.6307772397994995
v -0.04852087050676346 0.031868912279605865 1.628512978553772
v -0.07159917056560516 0.05764978379011154 1.6223511695861816
v -0.07014615833759308 0.05295532941818237 1.6257901191711426
v -0.05947568640112877 0.042636461555957794 1.6147969961166382
v -0.06383819133043289 0.04119469225406647 1.6177548170089722
v -0.0661168098449707 0.04549800232052803 1.6140451431274414
v -0.06147226691246033 0.0468323677778244 1.6117229461669922
v -0.053445134311914444 0.03402066230773926 1.641014814376831
v -0.051303014159202576 0.029936136677861214 1.6365143060684204
v -0.05320262536406517 0.03842993825674057 1.6416856050491333
v -0.05489429086446762 0.04702024161815643 1.6144804954528809
v -0.05176583677530289 0.052540481090545654 1.6168076992034912
v -0.04109492525458336 0.045113202184438705 1.6276609897613525
v -0.04373033717274666 0.038990478962659836 1.625759482383728
v -0.06795808672904968 0.050004854798316956 1.6287202835083008
v -0.06699449568986893 0.04233694076538086 1.6219679117202759
v -0.0688290223479271 0.045275166630744934 1.625691533088684
v -0.053987354040145874 0.05718091130256653 1.623055100440979
v -0.05437130853533745 0.05470246076583862 1.6154553890228271
v -0.0596785768866539 0.06499360501766205 1.6051527261734009
v -0.05816608667373657 0.05385494977235794 1.6101808547973633
v -0.06276582181453705 0.052662067115306854 1.6087905168533325
v -0.06377729028463364 0.06443510949611664 1.6027252674102783
v -0.05720973014831543 0.049956709146499634 1.6119740009307861
v -0.05555998533964157 0.05657130852341652 1.6146970987319946
v -0.07322125136852264 0.06972433626651764 1.609480619430542
v -0.07165355980396271 0.06725534796714783 1.6043298244476318
v -0.07188883423805237 0.07160888612270355 1.6132563352584839
v -0.04253249615430832 0.049447715282440186 1.6336708068847656
v -0.06328378617763519 0.07143798470497131 1.6177070140838623
v -0.06916002929210663 0.07194920629262924 1.6163500547409058
v -0.06747017055749893 0.05214753746986389 1.6097038984298706
v -0.06801468133926392 0.06569545716047287 1.6022131443023682
v -0.05708694085478783 0.06662746518850327 1.6087110042572021
v -0.057800713926553726 0.06886382400989532 1.615278720855713
v -0.06034465879201889 0.0703374445438385 1.6035425662994385
v -0.05921885371208191 0.07348215579986572 1.6089355945587158
v -0.06314840167760849 0.07647398859262466 1.6114009618759155
v -0.0680389478802681 0.077653668820858 1.6110999584197998
v -0.07130640745162964 0.07666695863008499 1.6092092990875244
v -0.062345318496227264 0.06925570219755173 1.6009935140609741
v -0.066036656498909 0.06934423744678497 1.5987956523895264
v -0.07008820027112961 0.06954294443130493 1.600290298461914
v -0.06238742917776108 0.07182299345731735 1.5958313941955566
v -0.05954050272703171 0.07340829819440842 1.59750235080719
v -0.056375905871391296 0.0888432189822197 1.5960208177566528
v -0.05791488662362099 0.08569470793008804 1.6002624034881592
v -0.05606566369533539 0.08414994925260544 1.5992506742477417
v -0.0543845035135746 0.08691217750310898 1.5953112840652466
v -0.05851646512746811 0.0815088227391243 1.6041431427001953
v -0.056873928755521774 0.08115045726299286 1.6018363237380981
v -0.056936658918857574 0.07711217552423477 1.600237488746643
v -0.05552370101213455 0.08040023595094681 1.5964418649673462
v -0.056897055357694626 0.07656821608543396 1.593928337097168
v -0.05445865914225578 0.07899875938892365 1.5901105403900146
v -0.05263127386569977 0.0829264372587204 1.5925195217132568
v -0.05729910731315613 0.07519593089818954 1.5970511436462402
v -0.05342089384794235 0.08771666139364243 1.5922212600708008
v -0.054985951632261276 0.0893445611000061 1.5909100770950317
v -0.058967940509319305 0.07651763409376144 1.6022497415542603
v -0.06443178653717041 0.08142324537038803 1.607535719871521
v -0.060720860958099365 0.08682654798030853 1.600265383720398
v -0.05912967026233673 0.08971555531024933 1.594841718673706
v -0.057455915957689285 0.08919019252061844 1.5891492366790771
v -0.06405911594629288 0.08663066476583481 1.5981782674789429
v -0.06159559637308121 0.08900216966867447 1.5930498838424683
v -0.059903085231781006 0.08812243491411209 1.5885300636291504
v -0.06698819249868393 0.08499094098806381 1.5951460599899292
v -0.06405309587717056 0.0869419053196907 1.5904361009597778
v -0.07212966680526733 0.07847483456134796 1.6038480997085571
v -0.0691627711057663 0.08067311346530914 1.6064976453781128
v -0.06204061210155487 0.08712027221918106 1.5886366367340088
v -0.05314534530043602 0.08601286262273788 1.5877193212509155
v -0.05622938275337219 0.08639917522668839 1.5861984491348267
v -0.05246803164482117 0.08516440540552139 1.589257001876831
v -0.05811411514878273 0.07545794546604156 1.5926027297973633
v -0.05605091154575348 0.0784914419054985 1.5884579420089722
v -0.06018556281924248 0.07478619366884232 1.5912387371063232
v -0.05786032974720001 0.07857152819633484 1.5869024991989136
v -0.05442767217755318 0.08162979036569595 1.5861902236938477
v -0.05319558456540108 0.08199863880872726 1.5874491930007935
v -0.07287900894880295 0.0740770623087883 1.6064302921295166
v -0.07231192290782928 0.07091823220252991 1.6024162769317627
v -0.07280317693948746 0.07498586177825928 1.600247859954834
v -0.06796130537986755 0.08143100142478943 1.592244267463684
v -0.07055395096540451 0.07241412252187729 1.5977296829223633
v -0.06570753455162048 0.07172907888889313 1.5953651666641235
v -0.06288480758666992 0.07521305233240128 1.5908024311065674
v -0.06584914773702621 0.0776624083518982 1.5906621217727661
v -0.06001181900501251 0.07847511768341064 1.5861661434173584
v -0.0629446804523468 0.07954185456037521 1.5874003171920776
v -0.06484327465295792 0.08369029313325882 1.5885841846466064
v -0.058266185224056244 0.0819411426782608 1.5844284296035767
v -0.05589791759848595 0.08179717510938644 1.58511221408844
v -0.058468908071517944 0.08603944629430771 1.5860748291015625
v -0.06110655516386032 0.08193182200193405 1.5854896306991577
v -0.06153802573680878 0.08529120683670044 1.5867055654525757
v -0.06678099930286407 0.045873627066612244 1.6008707284927368
v -0.06457166373729706 0.04202420637011528 1.5973924398422241
v -0.06271646916866302 0.0372600220143795 1.601011037826538
v -0.06520996987819672 0.04120025038719177 1.604783296585083
v -0.05704610049724579 0.05371996760368347 1.604622721672058
v -0.06197887659072876 0.05266629159450531 1.6047823429107666
v -0.06110679358243942 0.049445658922195435 1.6081539392471313
v -0.05556706339120865 0.05051049590110779 1.608634352684021
v -0.05295278877019882 0.05351601168513298 1.6008782386779785
v -0.05085102468729019 0.04977406561374664 1.6052234172821045
v -0.052614495158195496 0.0506618469953537 1.611567497253418
v -0.05835936963558197 0.047819048166275024 1.6116156578063965
v -0.04727456718683243 0.04197452962398529 1.619465947151184
v -0.042514849454164505 0.047001875936985016 1.6178772449493408
v -0.06521455198526382 0.04965634271502495 1.603198766708374
v -0.06433716416358948 0.04590359330177307 1.606791615486145
v -0.05169381946325302 0.03575047105550766 1.598596453666687
v -0.05497331917285919 0.03437244892120361 1.601217269897461
v -0.058893270790576935 0.036546941846609116 1.5971436500549316
v -0.05552429333329201 0.03757719695568085 1.595401406288147
v -0.04688020423054695 0.030712340027093887 1.6193225383758545
v -0.0424918569624424 0.028559252619743347 1.6153892278671265
v -0.04902946203947067 0.03601669520139694 1.6194994449615479
v -0.04797833785414696 0.04029883071780205 1.5983004570007324
v -0.0452825129032135 0.04649534821510315 1.601714849472046
v -0.035392437130212784 0.042385831475257874 1.6075176000595093
v -0.03651649132370949 0.03626222535967827 1.6068578958511353
v -0.061267953366041183 0.04357757046818733 1.6108092069625854
v -0.05840796232223511 0.03488919138908386 1.6051695346832275
v -0.061611078679561615 0.03849845752120018 1.6087428331375122
v -0.04801800101995468 0.050305649638175964 1.6073975563049316
v -0.04916323721408844 0.046084605157375336 1.5996662378311157
v -0.05588241666555405 0.05722503736615181 1.5835645198822021
v -0.05198787897825241 0.04422193765640259 1.5935208797454834
v -0.05670592561364174 0.04158121347427368 1.592607021331787
v -0.05890745297074318 0.0548393577337265 1.5815913677215576
v -0.0513080433011055 0.04104013368487358 1.5953890085220337
v -0.050161249935626984 0.04927917569875717 1.596812129020691
v -0.06972093880176544 0.05800642818212509 1.5877315998077393
v -0.06718726456165314 0.054144397377967834 1.5847004652023315
v -0.06848560273647308 0.06028050184249878 1.5910030603408813
v -0.03735632449388504 0.04774358123540878 1.6130231618881226
v -0.03852366283535957 0.030216537415981293 1.609661340713501
v -0.06260164082050323 0.06430601328611374 1.5923041105270386
v -0.0665338784456253 0.06272967159748077 1.5923503637313843
v -0.06051572412252426 0.040761884301900864 1.5942623615264893
v -0.06291007995605469 0.053391773253679276 1.5818859338760376
v -0.05529175326228142 0.059995345771312714 1.586925983428955
v -0.05752810090780258 0.06306007504463196 1.5909786224365234
v -0.05646015331149101 0.06186077743768692 1.581882357597351
v -0.058517199009656906 0.0653313547372818 1.585716962814331
v -0.062350496649742126 0.06780952960252762 1.5868496894836426
v -0.06613665819168091 0.0669960305094719 1.5871527194976807
v -0.06872602552175522 0.06480533629655838 1.5862112045288086
v -0.05800281837582588 0.05935842543840408 1.5787371397018433
v -0.06118344888091087 0.05753612518310547 1.5776489973068237
v -0.06416350603103638 0.056177057325839996 1.5800029039382935
v -0.05953679978847504 0.060060545802116394 1.5745513439178467
v -0.057208649814128876 0.0647178366780281 1.57573401927948
v -0.06448002904653549 0.07720237225294113 1.5709779262542725
v -0.0639161691069603 0.07445695251226425 1.5753761529922485
v -0.06271354854106903 0.0742855966091156 1.5749106407165527
v -0.06290815770626068 0.07727772742509842 1.5704641342163086
v -0.061478570103645325 0.07133450359106064 1.5802472829818726
v -0.06050913780927658 0.0718989446759224 1.5783679485321045
v -0.05823236703872681 0.06922314316034317 1.5774325132369995
v -0.059109754860401154 0.07207438349723816 1.5721025466918945
v -0.05869612097740173 0.06689173728227615 1.5697802305221558
v -0.05966290459036827 0.06996427476406097 1.5663412809371948
v -0.059564605355262756 0.07494843006134033 1.56817626953125
v -0.05731133371591568 0.06612060964107513 1.57455575466156
v -0.06272786855697632 0.07779053598642349 1.5675863027572632
v -0.06405128538608551 0.07958218455314636 1.567575216293335
v -0.05870310962200165 0.06829260289669037 1.5795859098434448
v -0.06544560194015503 0.07131733000278473 1.5827767848968506
v -0.06661143153905869 0.07459821552038193 1.5760509967803955
v -0.06795681267976761 0.07765095680952072 1.5714452266693115
v -0.06734616309404373 0.07784193009138107 1.5672619342803955
v -0.06948625296354294 0.0724378153681755 1.5754859447479248
v -0.06990285217761993 0.07513594627380371 1.570918083190918
v -0.0694340318441391 0.07555261999368668 1.5670974254608154
v -0.07087758183479309 0.06965769082307816 1.5744937658309937
v -0.0707438737154007 0.07212251424789429 1.5700889825820923
v -0.06973904371261597 0.06384696066379547 1.5829384326934814
v -0.06817706674337387 0.06816859543323517 1.5835164785385132
v -0.07006129622459412 0.0734260231256485 1.5672653913497925
v -0.06172900274395943 0.076801598072052 1.5643751621246338
v -0.06529149413108826 0.07485063374042511 1.5631866455078125
v -0.06132885441184044 0.07585188001394272 1.565916895866394
v -0.059184297919273376 0.06503964215517044 1.5696145296096802
v -0.060092829167842865 0.06840629130601883 1.5645473003387451
v -0.06128593906760216 0.06294427067041397 1.5692780017852783
v -0.06222528591752052 0.06641969829797745 1.564091444015503
v -0.060572098940610886 0.07198516279459 1.56306791305542
v -0.060397785156965256 0.07249344140291214 1.564151406288147
v -0.06924264878034592 0.06075593829154968 1.5848222970962524
v -0.06764081865549088 0.057313062250614166 1.5821774005889893
v -0.06910447776317596 0.060146454721689224 1.580707311630249
v -0.07054657489061356 0.06636057794094086 1.5719149112701416
v -0.06618362665176392 0.057867176830768585 1.5783183574676514
v -0.06296069175004959 0.05919112265110016 1.5741875171661377
v -0.06439217925071716 0.06245751678943634 1.5693470239639282
v -0.06770465523004532 0.06372833251953125 1.569916009902954
v -0.0649527981877327 0.06561381369829178 1.5645129680633545
v -0.06712684780359268 0.06627928465604782 1.5664366483688354
v -0.07064896076917648 0.06901335716247559 1.5679157972335815
v -0.06547325849533081 0.06951135396957397 1.5633195638656616
v -0.0629148855805397 0.07047121226787567 1.5623502731323242
v -0.06783797591924667 0.07317998260259628 1.563838005065918
v -0.06747085601091385 0.06887399405241013 1.5646058320999146
v -0.0693741887807846 0.07158932089805603 1.5650526285171509
v -0.039754219353199005 0.0281209833920002 1.6121139526367188
v -0.0438862107694149 0.02461780421435833 1.6069400310516357
v -0.0459832027554512 0.021366946399211884 1.6058354377746582
v -0.042312141507864 0.019913483411073685 1.6033899784088135
v -0.03961417078971863 0.022780274972319603 1.604879379272461
v -0.04432601109147072 0.03295348584651947 1.6003003120422363
v -0.04345671832561493 0.031147191300988197 1.6043282747268677
v -0.039641592651605606 0.030550280585885048 1.6017205715179443
v -0.04010326787829399 0.03229377046227455 1.5972462892532349
v -0.04670864716172218 0.03186722844839096 1.595900297164917
v -0.04243277758359909 0.03098519891500473 1.5927870273590088
v -0.03730637952685356 0.03386295586824417 1.5976908206939697
v -0.03722326457500458 0.031394731253385544 1.602034091949463
v -0.02633075788617134 0.03290478140115738 1.6049792766571045
v -0.02458783984184265 0.035793405026197433 1.6011625528335571
v -0.017424896359443665 0.020610662177205086 1.5942391157150269
v -0.017649337649345398 0.017385754734277725 1.5985028743743896
v -0.025174129754304886 0.01826576702296734 1.5974726676940918
v -0.02438460849225521 0.01994665525853634 1.5935115814208984
v -0.043232325464487076 0.02812681347131729 1.6063523292541504
v -0.03974897041916847 0.02662365511059761 1.6047742366790771
v -0.03955429419875145 0.01763933338224888 1.5942472219467163
v -0.03938787803053856 0.016702773049473763 1.5987173318862915
v -0.04430285468697548 0.017697174102067947 1.6007403135299683
v -0.046615321189165115 0.017993802204728127 1.596558928489685
v -0.02088754251599312 0.017673008143901825 1.602614164352417
v -0.023697305470705032 0.019146334379911423 1.6056245565414429
v -0.02649296447634697 0.020950209349393845 1.605251669883728
v -0.026529952883720398 0.01894332841038704 1.6017138957977295
v -0.027926402166485786 0.02584928646683693 1.6071308851242065
v -0.03986697643995285 0.020595528185367584 1.5911365747451782
v -0.039328478276729584 0.026515372097492218 1.589335560798645
v -0.02253330685198307 0.02833954244852066 1.5898667573928833
v -0.022657422348856926 0.023626895621418953 1.590782880783081
v -0.03723017871379852 0.02753632888197899 1.6045446395874023
v -0.03912811726331711 0.01859467849135399 1.6026440858840942
v -0.03758023679256439 0.022532669827342033 1.6044636964797974
v -0.0373828187584877 0.03245395049452782 1.592323660850525
v -0.04593595117330551 0.02641841396689415 1.591063380241394
v -0.058980491012334824 0.024498548358678818 1.6006606817245483
v -0.05227183550596237 0.022469203919172287 1.5955511331558228
v -0.051339101046323776 0.019792204722762108 1.5990595817565918
v -0.05813531577587128 0.022030726075172424 1.6026736497879028
v -0.046191077679395676 0.02116437628865242 1.5927668809890747
v -0.05099201947450638 0.027597766369581223 1.5943846702575684
v -0.050413407385349274 0.02562730759382248 1.6115790605545044
v -0.052972327917814255 0.022003505378961563 1.6090400218963623
v -0.04966742545366287 0.02874787338078022 1.6115622520446777
v -0.02329431287944317 0.035045310854911804 1.5947812795639038
v -0.05181116610765457 0.03402472287416458 1.6070878505706787
v -0.050492849200963974 0.03175278753042221 1.6105003356933594
v -0.04858420044183731 0.01985970139503479 1.6030985116958618
v -0.05594936013221741 0.020910777151584625 1.6057676076889038
v -0.05821056663990021 0.029014654457569122 1.600117564201355
v -0.05464585870504379 0.03335922956466675 1.6020786762237549
v -0.06131923571228981 0.030417688190937042 1.6036174297332764
v -0.0581500381231308 0.03355611115694046 1.6059480905532837
v -0.05518925189971924 0.032859209924936295 1.6121530532836914
v -0.05316394194960594 0.029978914186358452 1.613519549369812
v -0.052338678389787674 0.026909710839390755 1.6137489080429077
v -0.061485376209020615 0.025330349802970886 1.603057622909546
v -0.06021033599972725 0.022702042013406754 1.604129433631897
v -0.05731983110308647 0.02104109525680542 1.6064693927764893
v -0.06452805548906326 0.02602159045636654 1.6059612035751343
v -0.06501835584640503 0.02914578467607498 1.609437346458435
v -0.06597654521465302 0.022596091032028198 1.6207942962646484
v -0.06277472525835037 0.024430839344859123 1.6193130016326904
v -0.06353400647640228 0.0250654686242342 1.618764877319336
v -0.06653615832328796 0.023511212319135666 1.6207228899002075
v -0.059691864997148514 0.02833390235900879 1.6170085668563843
v -0.06141134351491928 0.027792897075414658 1.6168328523635864
v -0.06234776973724365 0.029592856764793396 1.6138136386871338
v -0.0661727786064148 0.027161089703440666 1.6161062717437744
v -0.06877480447292328 0.025666750967502594 1.6117123365402222
v -0.07144482433795929 0.024021068587899208 1.6140073537826538
v -0.06903234124183655 0.02577846869826317 1.617693543434143
v -0.06551821529865265 0.02867860533297062 1.6111513376235962
v -0.06909626722335815 0.023261146619915962 1.621418833732605
v -0.06953351199626923 0.02217395044863224 1.6221866607666016
v -0.061211466789245605 0.0318199060857296 1.612686038017273
v -0.05669413134455681 0.025853820145130157 1.6172356605529785
v -0.062065936625003815 0.02207941561937332 1.6200720071792603
v -0.06638021767139435 0.02044868655502796 1.6218016147613525
v -0.0700715184211731 0.019986791536211967 1.621702790260315
v -0.06097490340471268 0.020306337624788284 1.618743658065796
v -0.0659981220960617 0.018340811133384705 1.6210694313049316
v -0.06950245797634125 0.01792343333363533 1.620845913887024
v -0.06076054275035858 0.018221190199255943 1.616232991218567
v -0.06566809117794037 0.016987871378660202 1.6188547611236572
v -0.055288270115852356 0.020943256095051765 1.613202452659607
v -0.05553259328007698 0.02319624461233616 1.6158266067504883
v -0.06864787638187408 0.01725892722606659 1.6194374561309814
v -0.07252807915210724 0.022898461669683456 1.619781255722046
v -0.07241301238536835 0.019962692633271217 1.619361400604248
v -0.07189875841140747 0.024265125393867493 1.619164228439331
v -0.06897306442260742 0.025075826793909073 1.6105256080627441
v -0.072227343916893 0.022778131067752838 1.6132677793502808
v -0.06866449117660522 0.023156410083174706 1.6091187000274658
v -0.07198846340179443 0.02071225270628929 1.612720012664795
v -0.07354286313056946 0.02218405157327652 1.616363763809204
v -0.07253888249397278 0.023743152618408203 1.6164536476135254
v -0.05300027132034302 0.02323681302368641 1.6127996444702148
v -0.05433976650238037 0.02166980504989624 1.6098592281341553
v -0.056714873760938644 0.020026754587888718 1.609836220741272
v -0.062128886580467224 0.017421631142497063 1.6126848459243774
v -0.05989769473671913 0.020837752148509026 1.606312870979309
v -0.06282180547714233 0.02334972284734249 1.6051603555679321
v -0.06747103482484818 0.020862990990281105 1.608759880065918
v -0.06538146734237671 0.018519200384616852 1.6096935272216797
v -0.07110221683979034 0.01878821849822998 1.6129934787750244
v -0.06888490915298462 0.01691945642232895 1.6136080026626587
v -0.06665223836898804 0.01613742858171463 1.615827202796936
v -0.07209810614585876 0.01841963455080986 1.6166151762008667
v -0.07325847446918488 0.019891250878572464 1.6165839433670044
v -0.0714503675699234 0.018230676651000977 1.6187713146209717
v -0.07063373923301697 0.017211128026247025 1.616481065750122
v -0.0697295218706131 0.017001278698444366 1.6178271770477295
v -0.018625758588314056 0.023923270404338837 1.592503547668457
v -0.029839729890227318 0.008050499483942986 1.6709048748016357
v -0.027750657871365547 0.00894494540989399 1.6657434701919556
v -0.018734535202383995 -0.004557034000754356 1.662489414215088
v -0.02198738045990467 0.0015592630952596664 1.6596364974975586
v -0.019003819674253464 -0.008329520002007484 1.6685142517089844
v -0.023682665079832077 -0.006253616884350777 1.6779093742370605
v -0.020087141543626785 -0.00794951431453228 1.6742373704910278
v -0.024836787953972816 0.006268614903092384 1.6612821817398071
v -0.029614455997943878 0.005022382363677025 1.6757053136825562
v -0.02714627794921398 -0.0009793639183044434 1.6792761087417603
v -0.040071286261081696 -0.0016599558293819427 1.6717612743377686
v -0.036052875220775604 -0.008198803290724754 1.6744798421859741
v -0.031163059175014496 -0.01350485347211361 1.6715822219848633
v -0.025770511478185654 -0.012684104964137077 1.6679667234420776
v -0.02313893660902977 -0.011662928387522697 1.6641874313354492
v -0.036741651594638824 0.004170238971710205 1.6671966314315796
v -0.033716343343257904 0.005955876782536507 1.6626238822937012
v -0.028710510581731796 0.003805318847298622 1.6589199304580688
v -0.041390955448150635 0.001223517581820488 1.6609643697738647
v -0.04289218410849571 -0.006076650694012642 1.6550569534301758
v -0.03415685147047043 -0.01835590787231922 1.6429862976074219
v -0.03195220232009888 -0.017251210287213326 1.6490260362625122
v -0.03464927524328232 -0.01675605960190296 1.649412751197815
v -0.036506906151771545 -0.018227526918053627 1.6439956426620483
v -0.03318575769662857 -0.016675086691975594 1.6544978618621826
v -0.034975096583366394 -0.015611575916409492 1.653513789176941
v -0.03868462145328522 -0.011821316555142403 1.6554304361343384
v -0.040091387927532196 -0.013400102034211159 1.6499682664871216
v -0.041346028447151184 -0.007967652752995491 1.6537524461746216
v -0.04207756370306015 -0.007614182308316231 1.6495267152786255
v -0.04137714207172394 -0.014468582347035408 1.6446788311004639
v -0.03914815932512283 -0.018244663253426552 1.6412887573242188
v -0.042128026485443115 -0.015321115031838417 1.6403496265411377
v -0.03725447878241539 -0.017854327335953712 1.639195203781128
v -0.04171250760555267 -0.01344994269311428 1.6576004028320312
v -0.027987459674477577 -0.015797002241015434 1.658294677734375
v -0.02858658879995346 -0.016297461465001106 1.6493339538574219
v -0.03133639693260193 -0.016590381041169167 1.6421349048614502
v -0.03529417887330055 -0.015927394852042198 1.6379176378250122
v -0.026023227721452713 -0.013313809409737587 1.6484745740890503
v -0.029220417141914368 -0.012997789308428764 1.642116665840149
v -0.03337499499320984 -0.011840013787150383 1.6384207010269165
v -0.025786643847823143 -0.008746443316340446 1.647608757019043
v -0.029465356841683388 -0.009283581748604774 1.642301321029663
v -0.02271347865462303 -0.006584653630852699 1.6576337814331055
v -0.023665815591812134 -0.012058420106768608 1.6590403318405151
v -0.03267248719930649 -0.009643817320466042 1.6396867036819458
v -0.042108550667762756 -0.014926547184586525 1.6380454301834106
v -0.0400722473859787 -0.012650789692997932 1.6368118524551392
v -0.042640961706638336 -0.004513474181294441 1.649754285812378
v -0.04398517310619354 -0.008936429396271706 1.6448875665664673
v -0.04354934021830559 -0.0064522866159677505 1.644131064414978
v -0.04125688225030899 -0.0009834375232458115 1.6501604318618774
v -0.04231595620512962 -0.00401110015809536 1.6433881521224976
v -0.043953463435173035 -0.00985565222799778 1.6400350332260132
v -0.04392291232943535 -0.011615702882409096 1.6417922973632812
v -0.02158544585108757 -0.007065394893288612 1.660216212272644
v -0.023892484605312347 -0.001020548865199089 1.6583213806152344
v -0.025754151865839958 -0.00040140189230442047 1.656941294670105
v -0.028418105095624924 -0.0029841717332601547 1.6479891538619995
v -0.031202392652630806 0.003951342776417732 1.6566776037216187
v -0.03740016371011734 0.004085855558514595 1.6590827703475952
v -0.03838949650526047 0.0012224968522787094 1.649196743965149
v -0.03343404084444046 0.0008529778569936752 1.6486679315567017
v -0.039206791669130325 -0.0026574190706014633 1.6428141593933105
v -0.03624523803591728 -0.0029389839619398117 1.6427966356277466
v -0.031926460564136505 -0.005529614165425301 1.6420135498046875
v -0.039399031549692154 -0.006276892498135567 1.639222264289856
v -0.04227239638566971 -0.007536446675658226 1.6391925811767578
v -0.0371972993016243 -0.009572504088282585 1.6376020908355713
v -0.037053171545267105 -0.005529334768652916 1.640365481376648
v -0.03506854921579361 -0.007698098197579384 1.6394587755203247
v -0.011255655437707901 0.016482479870319366 1.5999313592910767
v -0.014382917433977127 0.015742626041173935 1.6054223775863647
v -0.007325433194637299 0.014975950121879578 1.6058239936828613
v 0.0023268908262252808 0.014088771305978298 1.6079418659210205
v 0.012550797313451767 0.015767155215144157 1.6047754287719727
v 0.00038123875856399536 0.015013517811894417 1.614427924156189
v -0.009409349411725998 0.015799008309841156 1.6118628978729248
v -0.019498884677886963 0.017507830634713173 1.6109861135482788
v 0.00669516995549202 0.016736788675189018 1.6225367784500122
f 2 3 1
f 1 3 4
f 5 6 8
f 8 6 7
f 9 4 10
f 10 4 3
f 12 13 11
f 11 13 9
f 14 12 16
f 16 12 15
f 18 19 17
f 17 19 20
f 22 23 21
f 21 23 24
f 26 27 25
f 25 27 28
f 30 31 29
f 29 31 32
f 33 34 36
f 36 34 35
f 37 38 40
f 40 38 39
f 41 42 6
f 6 42 43
f 6 43 7
f 7 43 44
f 45 34 46
f 46 34 33
f 48 49 47
f 47 49 50
f 52 53 51
f 51 53 54
f 56 52 55
f 55 52 51
f 58 59 57
f 57 59 60
f 61 62 4
f 4 62 1
f 64 65 63
f 63 65 66
f 68 69 67
f 67 69 70
f 72 73 71
f 71 73 74
f 76 77 75
f 75 77 78
f 53 79 54
f 54 79 80
f 82 83 81
f 81 83 84
f 85 86 52
f 52 86 53
f 57 60 87
f 87 60 88
f 89 90 43
f 43 90 44
f 43 42 89
f 89 42 91
f 40 39 92
f 92 39 93
f 94 70 64
f 64 70 69
f 13 61 9
f 9 61 4
f 25 28 69
f 69 28 95
f 96 25 68
f 68 25 69
f 98 99 97
f 97 99 100
f 101 102 104
f 104 102 103
f 106 30 105
f 105 30 29
f 51 54 107
f 107 54 108
f 54 80 108
f 108 80 109
f 111 112 110
f 110 112 113
f 115 5 114
f 114 5 116
f 115 41 5
f 5 41 6
f 36 35 111
f 111 35 117
f 35 118 117
f 117 118 119
f 34 120 35
f 35 120 118
f 34 45 120
f 120 45 121
f 125 126 124
f 124 126 127
f 128 129 14
f 14 129 130
f 33 131 46
f 46 131 132
f 133 94 63
f 63 94 64
f 134 135 137
f 137 135 136
f 139 140 138
f 138 140 141
f 77 142 78
f 78 142 143
f 144 145 20
f 20 145 146
f 148 149 147
f 147 149 72
f 151 152 150
f 150 152 153
f 82 101 83
f 83 101 104
f 101 82 155
f 155 82 154
f 156 157 58
f 58 157 59
f 158 68 147
f 147 68 67
f 159 146 15
f 15 146 16
f 68 158 96
f 96 158 160
f 129 66 130
f 130 66 65
f 162 163 161
f 161 163 164
f 166 167 165
f 165 167 168
f 170 171 169
f 169 171 172
f 174 171 173
f 173 171 170
f 176 177 175
f 175 177 178
f 180 181 179
f 179 181 24
f 182 183 21
f 21 183 184
f 81 185 82
f 82 185 154
f 186 187 188
f 188 187 144
f 158 71 160
f 160 71 189
f 190 135 157
f 157 135 59
f 169 172 139
f 139 172 140
f 147 72 158
f 158 72 71
f 192 193 191
f 191 193 194
f 167 166 49
f 49 166 195
f 196 190 50
f 50 190 157
f 197 198 200
f 200 198 199
f 21 24 182
f 182 24 181
f 146 159 20
f 20 159 17
f 182 181 81
f 81 181 185
f 201 185 180
f 180 185 181
f 202 203 83
f 83 203 84
f 205 206 204
f 204 206 85
f 207 22 184
f 184 22 21
f 179 24 208
f 208 24 23
f 208 209 179
f 179 209 205
f 209 210 205
f 205 210 206
f 212 206 211
f 211 206 210
f 179 205 180
f 180 205 204
f 213 176 88
f 88 176 214
f 86 85 212
f 212 85 206
f 193 217 218
f 217 219 218
f 218 219 220
f 219 18 220
f 220 18 17
f 19 221 20
f 20 221 144
f 222 223 225
f 225 223 224
f 175 226 176
f 176 226 214
f 227 87 214
f 214 87 88
f 220 17 228
f 228 17 159
f 134 213 60
f 60 213 88
f 138 229 151
f 151 229 152
f 193 192 210
f 210 192 211
f 230 194 218
f 218 194 193
f 231 232 228
f 228 232 230
f 233 234 91
f 91 234 89
f 235 236 93
f 93 236 92
f 230 232 234
f 234 232 237
f 47 238 48
f 48 238 239
f 240 191 235
f 235 191 236
f 5 8 116
f 116 8 241
f 242 243 189
f 189 243 160
f 244 245 98
f 98 245 99
f 156 246 47
f 47 246 238
f 76 247 77
f 77 247 248
f 250 125 249
f 249 125 124
f 252 253 251
f 251 253 254
f 111 110 36
f 36 110 255
f 256 33 255
f 255 33 36
f 257 258 154
f 154 258 155
f 63 169 133
f 133 169 139
f 66 170 63
f 63 170 169
f 173 170 129
f 129 170 66
f 129 128 173
f 173 128 259
f 128 260 259
f 259 260 261
f 213 134 262
f 262 134 137
f 263 264 186
f 186 264 187
f 112 265 113
f 113 265 266
f 11 267 268
f 234 233 230
f 230 233 194
f 153 269 70
f 70 269 67
f 175 178 165
f 165 178 141
f 150 153 94
f 94 153 70
f 271 221 270
f 270 221 207
f 269 153 272
f 272 153 152
f 121 45 109
f 109 45 108
f 47 50 156
f 156 50 157
f 57 273 58
f 58 273 274
f 145 275 260
f 260 275 261
f 276 149 143
f 143 149 78
f 148 269 75
f 75 269 272
f 207 277 270
f 270 277 278
f 195 196 49
f 49 196 50
f 59 135 60
f 60 135 134
f 83 104 202
f 202 104 279
f 149 148 78
f 78 148 75
f 247 278 248
f 248 278 277
f 183 182 84
f 84 182 81
f 48 239 281
f 281 239 282
f 227 223 283
f 283 223 222
f 223 226 224
f 224 226 168
f 281 282 224
f 224 282 225
f 165 168 175
f 175 168 226
f 264 263 138
f 138 263 229
f 14 16 128
f 128 16 260
f 220 228 218
f 218 228 230
f 87 227 284
f 284 227 283
f 260 16 145
f 145 16 146
f 244 98 258
f 258 98 155
f 58 274 156
f 156 274 246
f 107 285 51
f 51 285 55
f 243 286 160
f 160 286 96
f 234 237 89
f 89 237 90
f 46 132 107
f 107 132 285
f 253 252 249
f 249 252 250
f 286 26 96
f 96 26 25
f 106 105 287
f 287 105 288
f 272 152 289
f 289 152 229
f 138 151 139
f 139 151 133
f 183 290 161
f 161 290 162
f 291 292 277
f 277 292 293
f 151 150 133
f 133 150 94
f 262 275 177
f 177 275 187
f 144 187 145
f 145 187 275
f 273 57 284
f 284 57 87
f 174 136 190
f 190 136 135
f 111 117 112
f 112 117 38
f 117 119 38
f 38 119 123
f 112 38 265
f 265 38 37
f 287 288 254
f 254 288 251
f 228 159 231
f 231 159 15
f 223 227 226
f 226 227 214
f 147 67 148
f 148 67 269
f 224 168 281
f 281 168 167
f 199 163 200
f 200 163 162
f 45 46 108
f 108 46 107
f 281 167 48
f 48 167 49
f 161 164 291
f 291 164 292
f 38 123 39
f 293 294 277
f 277 294 248
f 284 283 296
f 296 283 295
f 284 296 273
f 273 296 297
f 274 273 298
f 298 273 297
f 246 274 299
f 299 274 298
f 283 222 295
f 295 222 300
f 222 225 300
f 300 225 301
f 301 225 302
f 302 225 282
f 303 304 300
f 300 304 295
f 306 307 305
f 305 307 308
f 309 310 308
f 308 310 305
f 308 307 312
f 312 307 311
f 313 314 312
f 312 314 315
f 311 316 312
f 312 316 313
f 317 304 311
f 311 304 316
f 315 309 312
f 312 309 308
f 318 319 321
f 321 319 320
f 319 318 309
f 309 318 310
f 311 307 317
f 317 307 306
f 306 297 317
f 317 297 296
f 306 322 297
f 297 322 298
f 305 323 306
f 306 323 322
f 323 305 324
f 324 305 310
f 304 317 295
f 295 317 296
f 318 325 310
f 310 325 324
f 323 324 326
f 326 324 327
f 324 325 327
f 327 325 328
f 326 327 329
f 329 327 330
f 329 331 326
f 326 331 332
f 333 330 328
f 328 330 327
f 323 326 322
f 322 326 332
f 322 332 298
f 298 332 299
f 325 318 334
f 334 318 321
f 313 316 335
f 335 316 304
f 335 336 313
f 313 336 314
f 304 303 335
f 335 303 337
f 336 335 338
f 338 335 337
f 336 339 314
f 314 339 340
f 246 299 238
f 238 299 341
f 239 342 282
f 282 342 302
f 342 239 341
f 341 239 238
f 341 331 342
f 342 331 343
f 331 329 343
f 343 329 344
f 342 343 302
f 302 343 345
f 341 299 331
f 331 299 332
f 346 301 345
f 345 301 302
f 346 303 301
f 301 303 300
f 347 337 346
f 346 337 303
f 347 346 348
f 348 346 345
f 349 347 350
f 350 347 348
f 343 344 345
f 345 344 348
f 344 351 348
f 348 351 350
f 337 347 338
f 338 347 349
f 353 338 352
f 352 338 349
f 352 355 354
f 354 355 356
f 352 349 355
f 355 349 350
f 352 354 353
f 353 354 334
f 353 334 339
f 339 334 321
f 339 336 353
f 353 336 338
f 329 330 344
f 344 330 351
f 356 351 333
f 333 351 330
f 356 355 351
f 351 355 350
f 354 356 328
f 328 356 333
f 328 325 354
f 354 325 334
f 309 315 319
f 319 315 320
f 320 340 321
f 321 340 339
f 320 315 340
f 340 315 314
f 137 136 261
f 261 136 259
f 140 166 141
f 141 166 165
f 172 171 195
f 195 171 196
f 171 174 196
f 196 174 190
f 178 177 264
f 264 177 187
f 172 195 140
f 140 195 166
f 137 261 262
f 262 261 275
f 178 264 141
f 141 264 138
f 262 177 213
f 213 177 176
f 136 174 259
f 259 174 173
f 358 359 357
f 357 359 360
f 362 363 361
f 361 363 364
f 361 364 365
f 365 364 366
f 367 368 370
f 370 368 369
f 76 371 247
f 247 371 372
f 373 374 362
f 362 374 363
f 376 377 375
f 375 377 378
f 289 229 380
f 380 229 379
f 381 379 263
f 263 379 229
f 383 384 382
f 382 384 385
f 386 368 374
f 374 368 363
f 76 289 371
f 371 289 380
f 377 376 359
f 359 376 387
f 388 386 360
f 360 386 374
f 389 383 366
f 366 383 390
f 392 393 391
f 391 393 394
f 383 382 390
f 390 382 395
f 396 365 390
f 390 365 366
f 389 366 367
f 367 366 364
f 357 397 358
f 358 397 398
f 373 399 357
f 357 399 397
f 389 367 400
f 400 367 370
f 382 385 375
f 375 385 372
f 357 360 373
f 373 360 374
f 361 401 362
f 362 401 402
f 387 388 359
f 359 388 360
f 363 368 364
f 364 368 367
f 358 398 403
f 403 398 404
f 396 392 405
f 405 392 391
f 392 395 393
f 393 395 378
f 393 403 394
f 394 403 404
f 375 378 382
f 382 378 395
f 365 396 406
f 406 396 405
f 362 402 373
f 373 402 399
f 271 270 400
f 400 270 384
f 401 361 406
f 406 361 365
f 381 369 386
f 386 369 368
f 392 396 395
f 395 396 390
f 393 378 403
f 403 378 377
f 403 377 358
f 358 377 359
f 406 405 408
f 408 405 407
f 406 408 401
f 401 408 409
f 401 409 402
f 402 409 410
f 402 410 399
f 399 410 411
f 405 391 407
f 407 391 412
f 391 394 412
f 412 394 413
f 394 404 413
f 413 404 414
f 415 416 412
f 412 416 407
f 418 419 417
f 417 419 420
f 421 422 418
f 418 422 419
f 419 422 424
f 424 422 423
f 425 426 424
f 424 426 427
f 423 428 424
f 424 428 425
f 427 420 424
f 424 420 419
f 420 429 417
f 417 429 430
f 423 422 431
f 431 422 421
f 421 409 431
f 431 409 408
f 421 432 409
f 409 432 410
f 418 433 421
f 421 433 432
f 434 433 417
f 417 433 418
f 431 416 423
f 423 416 428
f 416 431 407
f 407 431 408
f 435 434 430
f 430 434 417
f 433 434 436
f 436 434 437
f 434 435 437
f 437 435 438
f 436 437 439
f 439 437 440
f 439 441 436
f 436 441 442
f 438 443 437
f 437 443 440
f 436 442 433
f 433 442 432
f 432 442 410
f 410 442 411
f 435 430 445
f 445 430 444
f 430 429 444
f 444 429 446
f 425 428 447
f 447 428 416
f 426 425 448
f 448 425 447
f 416 415 447
f 447 415 449
f 447 449 448
f 448 449 450
f 451 452 448
f 448 452 426
f 446 452 444
f 444 452 451
f 399 411 397
f 397 411 453
f 398 454 404
f 404 454 414
f 454 398 453
f 453 398 397
f 453 441 454
f 454 441 455
f 441 439 455
f 455 439 456
f 454 455 414
f 414 455 457
f 441 453 442
f 442 453 411
f 458 413 457
f 457 413 414
f 458 415 413
f 413 415 412
f 458 459 415
f 415 459 449
f 459 458 460
f 460 458 457
f 461 459 462
f 462 459 460
f 455 456 457
f 457 456 460
f 456 463 460
f 460 463 462
f 459 461 449
f 449 461 450
f 465 450 464
f 464 450 461
f 464 467 466
f 466 467 468
f 464 461 467
f 467 461 462
f 464 466 465
f 465 466 445
f 465 445 451
f 451 445 444
f 451 448 465
f 465 448 450
f 439 440 456
f 456 440 463
f 468 463 443
f 443 463 440
f 468 467 463
f 463 467 462
f 466 468 438
f 438 468 443
f 438 435 466
f 466 435 445
f 420 427 429
f 429 427 446
f 446 427 452
f 452 427 426
f 370 369 188
f 188 369 186
f 371 376 372
f 372 376 375
f 380 379 387
f 387 379 388
f 379 381 388
f 388 381 386
f 385 384 278
f 278 384 270
f 380 387 371
f 371 387 376
f 400 370 271
f 271 370 188
f 385 278 372
f 372 278 247
f 400 384 389
f 389 384 383
f 369 381 186
f 186 381 263
f 221 271 144
f 144 271 188
f 221 19 207
f 207 19 22
f 19 18 22
f 22 18 23
f 18 219 23
f 23 219 208
f 469 470 472
f 472 470 471
f 474 475 473
f 473 475 476
f 473 476 477
f 477 476 478
f 480 481 479
f 479 481 482
f 483 484 474
f 474 484 475
f 486 487 485
f 485 487 488
f 489 490 77
f 77 490 142
f 491 489 248
f 248 489 77
f 493 494 492
f 492 494 495
f 496 480 484
f 484 480 475
f 486 497 487
f 487 497 471
f 498 496 472
f 472 496 484
f 499 493 478
f 478 493 500
f 501 502 504
f 504 502 503
f 493 492 500
f 500 492 505
f 506 477 500
f 500 477 478
f 499 478 479
f 479 478 476
f 469 507 470
f 470 507 508
f 483 509 469
f 469 509 507
f 479 482 499
f 499 482 510
f 492 495 485
f 485 495 511
f 483 469 484
f 484 469 472
f 473 512 474
f 474 512 513
f 497 498 471
f 471 498 472
f 475 480 476
f 476 480 479
f 470 508 514
f 514 508 515
f 506 502 516
f 516 502 501
f 503 502 488
f 488 502 505
f 514 515 503
f 503 515 504
f 485 488 492
f 492 488 505
f 477 506 517
f 517 506 516
f 474 513 483
f 483 513 509
f 510 292 494
f 494 292 164
f 512 473 517
f 517 473 477
f 491 481 496
f 496 481 480
f 502 506 505
f 505 506 500
f 503 488 514
f 514 488 487
f 514 487 470
f 470 487 471
f 517 516 519
f 519 516 518
f 517 519 512
f 512 519 520
f 512 520 513
f 513 520 521
f 513 521 509
f 509 521 522
f 516 501 518
f 518 501 523
f 501 504 523
f 523 504 524
f 524 504 525
f 525 504 515
f 526 527 523
f 523 527 518
f 529 530 528
f 528 530 531
f 532 533 529
f 529 533 530
f 530 533 535
f 535 533 534
f 536 537 535
f 535 537 538
f 534 539 535
f 535 539 536
f 538 531 535
f 535 531 530
f 540 541 531
f 531 541 528
f 533 532 534
f 534 532 542
f 532 520 542
f 542 520 519
f 532 543 520
f 520 543 521
f 529 544 532
f 532 544 543
f 544 529 545
f 545 529 528
f 534 542 539
f 539 542 527
f 527 542 518
f 518 542 519
f 541 546 528
f 528 546 545
f 547 544 548
f 548 544 545
f 546 549 545
f 545 549 548
f 550 547 551
f 551 547 548
f 547 550 553
f 553 550 552
f 549 554 548
f 548 554 551
f 544 547 543
f 543 547 553
f 543 553 521
f 521 553 522
f 546 541 556
f 556 541 555
f 541 540 555
f 555 540 557
f 536 539 558
f 558 539 527
f 537 536 559
f 559 536 558
f 527 526 558
f 558 526 560
f 559 558 561
f 561 558 560
f 559 562 537
f 537 562 563
f 557 563 555
f 555 563 562
f 509 522 507
f 507 522 564
f 508 565 515
f 515 565 525
f 565 508 564
f 564 508 507
f 564 552 565
f 565 552 566
f 552 550 566
f 566 550 567
f 565 566 525
f 525 566 568
f 564 522 552
f 552 522 553
f 569 524 568
f 568 524 525
f 569 526 524
f 524 526 523
f 570 560 569
f 569 560 526
f 570 569 571
f 571 569 568
f 572 570 573
f 573 570 571
f 566 567 568
f 568 567 571
f 567 574 571
f 571 574 573
f 570 572 560
f 560 572 561
f 576 561 575
f 575 561 572
f 575 578 577
f 577 578 579
f 575 572 578
f 578 572 573
f 575 577 576
f 576 577 556
f 576 556 562
f 562 556 555
f 562 559 576
f 576 559 561
f 550 551 567
f 567 551 574
f 579 574 554
f 554 574 551
f 579 578 574
f 574 578 573
f 579 554 577
f 577 554 549
f 549 546 577
f 577 546 556
f 531 538 540
f 540 538 557
f 557 538 563
f 563 538 537
f 481 294 482
f 482 294 293
f 580 486 511
f 511 486 485
f 490 489 497
f 497 489 498
f 489 491 498
f 498 491 496
f 163 495 164
f 164 495 494
f 580 490 486
f 486 490 497
f 482 293 510
f 510 293 292
f 495 163 511
f 511 163 199
f 494 493 510
f 510 493 499
f 481 491 294
f 294 491 248
f 582 583 581
f 581 583 584
f 586 587 585
f 585 587 588
f 585 588 589
f 589 588 590
f 592 593 591
f 591 593 594
f 595 596 598
f 598 596 597
f 599 600 586
f 586 600 587
f 601 602 604
f 604 602 603
f 605 606 608
f 608 606 607
f 609 607 200
f 200 607 606
f 610 611 613
f 613 611 612
f 600 614 587
f 587 614 592
f 596 605 597
f 597 605 608
f 602 615 603
f 603 615 583
f 616 614 584
f 584 614 600
f 611 618 617
f 617 618 590
f 620 621 619
f 619 621 622
f 610 623 611
f 611 623 618
f 624 589 618
f 618 589 590
f 617 590 591
f 591 590 588
f 581 625 582
f 582 625 626
f 599 627 581
f 581 627 625
f 591 594 617
f 617 594 628
f 601 610 598
f 598 610 613
f 581 584 599
f 599 584 600
f 585 629 586
f 586 629 630
f 615 616 583
f 583 616 584
f 587 592 588
f 588 592 591
f 582 626 631
f 631 626 632
f 624 620 633
f 633 620 619
f 621 620 604
f 604 620 623
f 631 632 621
f 621 632 622
f 610 601 623
f 623 601 604
f 589 624 634
f 634 624 633
f 586 630 599
f 599 630 627
f 203 202 628
f 628 202 612
f 629 585 634
f 634 585 589
f 609 593 614
f 614 593 592
f 620 624 623
f 623 624 618
f 631 621 603
f 603 621 604
f 582 631 583
f 583 631 603
f 634 633 636
f 636 633 635
f 634 636 629
f 629 636 637
f 629 637 630
f 630 637 638
f 630 638 627
f 627 638 639
f 633 619 635
f 635 619 640
f 619 622 640
f 640 622 641
f 641 622 642
f 642 622 632
f 644 635 643
f 643 635 640
f 645 646 648
f 648 646 647
f 649 650 646
f 646 650 647
f 647 650 652
f 652 650 651
f 652 653 655
f 655 653 654
f 651 656 652
f 652 656 653
f 655 648 652
f 652 648 647
f 648 657 645
f 645 657 658
f 650 649 651
f 651 649 659
f 649 637 659
f 659 637 636
f 649 660 637
f 637 660 638
f 661 660 646
f 646 660 649
f 662 661 645
f 645 661 646
f 651 659 656
f 656 659 644
f 644 659 635
f 635 659 636
f 663 662 658
f 658 662 645
f 664 661 665
f 665 661 662
f 663 666 662
f 662 666 665
f 667 664 668
f 668 664 665
f 664 667 670
f 670 667 669
f 666 671 665
f 665 671 668
f 661 664 660
f 660 664 670
f 660 670 638
f 638 670 639
f 658 672 663
f 663 672 673
f 658 657 672
f 672 657 674
f 653 656 675
f 675 656 644
f 653 675 654
f 654 675 676
f 675 644 677
f 677 644 643
f 676 675 678
f 678 675 677
f 679 680 676
f 676 680 654
f 674 680 672
f 672 680 679
f 627 639 625
f 625 639 681
f 626 682 632
f 632 682 642
f 681 682 625
f 625 682 626
f 669 683 681
f 681 683 682
f 667 684 669
f 669 684 683
f 682 683 642
f 642 683 685
f 681 639 669
f 669 639 670
f 686 641 685
f 685 641 642
f 641 686 640
f 640 686 643
f 686 687 643
f 643 687 677
f 687 686 688
f 688 686 685
f 689 687 690
f 690 687 688
f 683 684 685
f 685 684 688
f 684 691 688
f 688 691 690
f 687 689 677
f 677 689 678
f 693 678 692
f 692 678 689
f 692 695 694
f 694 695 696
f 692 689 695
f 695 689 690
f 692 694 693
f 693 694 673
f 693 673 679
f 679 673 672
f 679 676 693
f 693 676 678
f 684 667 691
f 691 667 668
f 696 691 671
f 671 691 668
f 696 695 691
f 691 695 690
f 694 696 666
f 666 696 671
f 666 663 694
f 694 663 673
f 648 655 657
f 657 655 674
f 674 655 680
f 680 655 654
f 593 162 594
f 594 162 290
f 598 597 601
f 601 597 602
f 615 608 616
f 616 608 607
f 607 609 616
f 616 609 614
f 697 595 613
f 613 595 598
f 597 608 602
f 602 608 615
f 594 290 628
f 628 290 203
f 628 612 617
f 617 612 611
f 593 609 162
f 162 609 200
f 105 29 698
f 698 29 699
f 268 126 701
f 701 126 700
f 126 125 700
f 700 125 702
f 252 703 250
f 250 703 704
f 32 268 705
f 705 268 701
f 288 105 706
f 706 105 698
f 29 32 699
f 699 32 705
f 707 251 706
f 706 251 288
f 250 704 125
f 125 704 702
f 703 252 707
f 707 252 251
f 706 708 707
f 707 708 709
f 707 709 703
f 703 709 710
f 703 710 704
f 704 710 711
f 704 711 702
f 702 711 712
f 706 698 708
f 708 698 713
f 698 699 713
f 713 699 714
f 699 705 714
f 714 705 715
f 717 708 716
f 716 708 713
f 719 720 718
f 718 720 721
f 722 723 719
f 719 723 720
f 724 725 723
f 723 725 720
f 724 726 725
f 725 726 727
f 728 721 725
f 725 721 720
f 721 728 729
f 729 728 730
f 729 731 721
f 721 731 718
f 724 723 732
f 732 723 722
f 722 710 732
f 732 710 709
f 722 733 710
f 710 733 711
f 719 734 722
f 722 734 733
f 734 719 735
f 735 719 718
f 724 732 726
f 726 732 717
f 717 732 708
f 708 732 709
f 731 736 718
f 718 736 735
f 737 734 738
f 738 734 735
f 736 739 735
f 735 739 738
f 740 737 741
f 741 737 738
f 737 740 743
f 743 740 742
f 739 744 738
f 738 744 741
f 734 737 733
f 733 737 743
f 733 743 711
f 711 743 712
f 736 731 746
f 746 731 745
f 731 729 745
f 745 729 730
f 727 726 747
f 747 726 717
f 748 727 749
f 749 727 747
f 747 717 750
f 750 717 716
f 749 747 751
f 751 747 750
f 749 752 748
f 748 752 753
f 730 753 745
f 745 753 752
f 728 725 748
f 748 725 727
f 730 728 753
f 753 728 748
f 700 702 754
f 754 702 712
f 705 701 715
f 715 701 755
f 754 755 700
f 700 755 701
f 742 756 754
f 754 756 755
f 740 757 742
f 742 757 756
f 755 756 715
f 715 756 758
f 754 712 742
f 742 712 743
f 759 714 758
f 758 714 715
f 714 759 713
f 713 759 716
f 759 760 716
f 716 760 750
f 760 759 761
f 761 759 758
f 762 760 763
f 763 760 761
f 756 757 758
f 758 757 761
f 757 764 761
f 761 764 763
f 760 762 750
f 750 762 751
f 766 751 765
f 765 751 762
f 767 765 769
f 769 765 768
f 765 762 768
f 768 762 763
f 765 767 766
f 766 767 746
f 766 746 752
f 752 746 745
f 752 749 766
f 766 749 751
f 757 740 764
f 764 740 741
f 769 764 744
f 744 764 741
f 769 768 764
f 764 768 763
f 767 769 739
f 739 769 744
f 739 736 767
f 767 736 746
f 219 217 208
f 208 217 209
f 209 217 210
f 210 217 193
f 198 580 199
f 199 580 511
f 76 75 289
f 289 75 272
f 277 207 291
f 291 207 184
f 290 183 203
f 203 183 84
f 490 580 142
f 142 580 198
f 142 198 143
f 143 198 197
f 149 276 72
f 72 276 73
f 104 103 279
f 279 103 770
f 770 596 279
f 279 596 595
f 605 596 771
f 771 596 770
f 771 770 772
f 772 770 103
f 772 103 773
f 773 103 102
f 155 774 101
f 101 774 102
f 773 102 97
f 97 102 774
f 775 773 100
f 100 773 97
f 773 775 772
f 772 775 776
f 772 776 771
f 771 776 777
f 200 606 197
f 197 606 777
f 189 71 778
f 778 71 74
f 97 774 98
f 98 774 155
f 183 161 184
f 184 161 291
f 777 276 197
f 197 276 143
f 777 606 771
f 771 606 605
f 613 612 697
f 697 612 202
f 595 697 279
f 279 697 202
f 73 276 776
f 776 276 777
f 776 775 73
f 73 775 74
f 100 778 775
f 775 778 74
f 778 100 189
f 189 100 99
f 245 242 99
f 99 242 189
f 131 33 256
f 28 1 95
f 95 1 62
f 27 2 28
f 28 2 1
f 265 115 266
f 266 115 114
f 95 62 69
f 69 62 64
f 62 61 64
f 64 61 65
f 61 13 65
f 65 13 130
f 13 12 130
f 130 12 14
f 31 11 32
f 32 11 268
f 15 12 31
f 31 12 11
f 31 30 15
f 15 30 231
f 30 106 231
f 231 106 232
f 287 237 106
f 106 237 232
f 254 90 287
f 287 90 237
f 253 44 254
f 254 44 90
f 253 249 44
f 44 249 7
f 267 127 268
f 268 127 126
f 10 3 241
f 241 3 116
f 3 2 116
f 116 2 114
f 2 27 114
f 114 27 266
f 27 26 266
f 266 26 113
f 26 286 113
f 113 286 110
f 286 243 110
f 110 243 255
f 243 242 255
f 255 242 256
f 242 245 256
f 256 245 131
f 245 244 131
f 131 244 132
f 265 37 115
f 115 37 41
f 41 37 42
f 42 37 40
f 92 91 40
f 40 91 42
f 236 233 92
f 92 233 91
f 191 194 236
f 236 194 233
f 258 285 244
f 244 285 132
f 257 55 258
f 258 55 285
f 257 154 201
f 201 154 185
f 56 201 204
f 204 201 180
f 55 257 56
f 56 257 201
f 204 85 56
f 56 85 52
f 86 122 53
f 53 122 79
f 212 215 86
f 86 215 122
f 211 216 212
f 212 216 215
f 192 280 211
f 211 280 216
f 191 240 192
f 192 240 280
f 249 124 7
f 7 124 8
f 124 127 8
f 8 127 241
f 127 267 241
f 241 267 10
f 10 267 9
f 9 267 11
