v -0.004064910113811493 0.01059654913842678 1.5626808404922485
v 0.008154012262821198 0.006513196974992752 1.5621086359024048
v 0.0007242932915687561 0.0024931933730840683 1.5676674842834473
v -0.00952833890914917 0.0069411750882864 1.568503975868225
v 0.017542503774166107 -0.0019973088055849075 1.5798094272613525
v 0.02196190506219864 0.0028967931866645813 1.589569330215454
v 0.005203083157539368 0.001508183777332306 1.5908544063568115
v 0.004553146660327911 -0.002993527799844742 1.5816882848739624
v -0.014877524226903915 0.007307574152946472 1.572425365447998
v -0.006459467113018036 0.0011478960514068604 1.5712652206420898
v -0.016587167978286743 0.013587026856839657 1.5732604265213013
v -0.024037133902311325 0.021483860909938812 1.5779523849487305
v -0.023188212886452675 0.014467786997556686 1.5760071277618408
v -0.031229542568325996 0.02501022256910801 1.5789861679077148
v -0.017955157905817032 0.031113233417272568 1.5788017511367798
v -0.029270179569721222 0.03355647623538971 1.5755828619003296
v -0.009682614356279373 0.044610537588596344 1.559878945350647
v -0.0062321871519088745 0.04548410326242447 1.5476411581039429
v -0.021791452541947365 0.04349752143025398 1.5463192462921143
v -0.02383982203900814 0.04214523732662201 1.5590546131134033
v -0.011751942336559296 0.04031307250261307 1.5289846658706665
v -0.018206816166639328 0.04214147850871086 1.538406252861023
v -0.0024597719311714172 0.04522217810153961 1.5397273302078247
v 0.002636697143316269 0.043157294392585754 1.531238079071045
v 0.0034341923892498016 0.01501911785453558 1.5510512590408325
v 0.014883428812026978 0.013124811463057995 1.5500901937484741
v 0.01326606422662735 0.01145804300904274 1.5544748306274414
v 0.0017269104719161987 0.013942724093794823 1.5555189847946167
v -0.01806212216615677 0.017650233581662178 1.5789504051208496
v -0.010627463459968567 0.02444635145366192 1.5833606719970703
v -0.015227243304252625 0.021283969283103943 1.5780588388442993
v -0.018354207277297974 0.013590704649686813 1.57511305809021
v 0.040340274572372437 0.006885260343551636 1.541999101638794
v 0.05218386650085449 0.012736817821860313 1.5442936420440674
v 0.0515470951795578 0.01317883376032114 1.5502207279205322
v 0.040960974991321564 0.008043470792472363 1.546895980834961
v 0.04333306849002838 0.009084634482860565 1.5753402709960938
v 0.05071286857128143 0.0153706856071949 1.5695146322250366
v 0.05462264269590378 0.024605831131339073 1.5784627199172974
v 0.0455525740981102 0.022113502025604248 1.5831786394119263
v 0.033308371901512146 0.004389405250549316 1.5839617252349854
v 0.035771772265434265 0.015705104917287827 1.5899730920791626
v 0.02167457342147827 0.01320791244506836 1.595255970954895
v 0.0036719627678394318 0.009406749159097672 1.5958110094070435
v 0.0536453053355217 0.014724083244800568 1.5317413806915283
v 0.0453127846121788 0.010194174945354462 1.5282461643218994
v -0.08194668591022491 0.04014594107866287 1.568164348602295
v -0.0805065706372261 0.04096526652574539 1.5625489950180054
v -0.07668451219797134 0.03520601615309715 1.56394624710083
v -0.078340083360672 0.03563737869262695 1.5693161487579346
v 0.046976178884506226 0.028984494507312775 1.5192946195602417
v 0.04553423821926117 0.03888227790594101 1.5202239751815796
v 0.052696049213409424 0.03782331198453903 1.520010232925415
v 0.05425579845905304 0.02864808402955532 1.5210247039794922
v 0.037325888872146606 0.029314665123820305 1.5171104669570923
v 0.03551304340362549 0.03971719369292259 1.521038293838501
v -0.07556301355361938 0.04823525995016098 1.5748465061187744
v -0.0793749988079071 0.04487372934818268 1.5748335123062134
v -0.07507619261741638 0.04176163300871849 1.5762478113174438
v -0.07079365849494934 0.04524003714323044 1.5755202770233154
v -0.019675906747579575 0.011170413345098495 1.5716379880905151
v -0.014673251658678055 0.011660248972475529 1.564395785331726
v -0.04195794835686684 0.014557726681232452 1.5704056024551392
v -0.029278574511408806 0.013555566780269146 1.5674021244049072
v -0.02968081831932068 0.013987516984343529 1.5741827487945557
v -0.03985141962766647 0.01614920049905777 1.5763499736785889
v -0.019099242985248566 0.015887128189206123 1.5461691617965698
v -0.007377244532108307 0.01618819497525692 1.547408938407898
v -0.010324396193027496 0.015939492732286453 1.5530790090560913
v -0.023553453385829926 0.014949246309697628 1.5535317659378052
v -0.002962011843919754 0.013463115319609642 1.534308910369873
v -0.014834988862276077 0.013848618604242802 1.5341637134552002
v -0.010891783982515335 0.012169299647212029 1.5268666744232178
v -0.003123179078102112 0.011295423842966557 1.5282214879989624
v -0.038212649524211884 0.015210233628749847 1.5370547771453857
v -0.0470040887594223 0.01872118003666401 1.5367534160614014
v -0.04657842591404915 0.021995872259140015 1.5313739776611328
v -0.036680981516838074 0.01616053655743599 1.5331323146820068
v 0.05974392592906952 0.037843767553567886 1.5202608108520508
v 0.061031095683574677 0.028711609542369843 1.5235627889633179
v -0.0028852038085460663 0.03331833332777023 1.510956883430481
v 0.003581024706363678 0.02590823359787464 1.5064760446548462
v -0.008565887808799744 0.021789638325572014 1.503137230873108
v -0.011850308626890182 0.031079348176717758 1.5085573196411133
v 0.042392536997795105 0.04644475877285004 1.52651846408844
v 0.04986806958913803 0.04644235596060753 1.5242419242858887
v -0.07144314050674438 0.05146505683660507 1.5714057683944702
v -0.06755249202251434 0.04860825091600418 1.571494221687317
v 0.022067241370677948 0.025167841464281082 1.5932551622390747
v 0.002782899886369705 0.01882774941623211 1.5953043699264526
v 0.036281876266002655 0.02955884486436844 1.587907314300537
v 0.04529842734336853 0.03364170715212822 1.5825215578079224
v 0.05363762378692627 0.03613591566681862 1.580403208732605
v -0.033099912106990814 0.013471374288201332 1.5614757537841797
v -0.008399628102779388 0.014007407240569592 1.5581779479980469
v 0.0049962252378463745 0.014915859326720238 1.5465617179870605
v 0.0100482776761055 0.007272649556398392 1.5174616575241089
v 0.020390838384628296 0.006937157362699509 1.519060730934143
v 0.014682002365589142 0.006684618070721626 1.5280437469482422
v 0.006777230650186539 0.007696753367781639 1.5247185230255127
v 0.004549082368612289 0.016104714944958687 1.5056649446487427
v 0.0020851828157901764 0.010156783275306225 1.5100550651550293
v -0.006466198712587357 0.009533904492855072 1.5090662240982056
v -0.005751457065343857 0.01408971194177866 1.504250407218933
v -0.017938867211341858 0.019189078360795975 1.5857816934585571
v -0.005964629352092743 0.026529140770435333 1.5879912376403809
v 0.047721944749355316 0.018887802958488464 1.5220444202423096
v 0.05437716841697693 0.019772833213210106 1.5258668661117554
v 0.06202784180641174 0.022482166066765785 1.5280979871749878
v 0.02804744243621826 0.008921261876821518 1.5477218627929688
v 0.04151049256324768 0.008577045984566212 1.5505861043930054
v 0.04072435945272446 0.007621073164045811 1.5558536052703857
v 0.027865514159202576 0.009002904407680035 1.5508545637130737
v 0.01990795135498047 0.0011145994067192078 1.565595030784607
v 0.030753135681152344 0.0006050802767276764 1.5718144178390503
v 0.00925356149673462 -0.0024322811514139175 1.5708115100860596
v 0.05240749567747116 0.01399869006127119 1.5587555170059204
v 0.0612621009349823 0.015341534279286861 1.5521032810211182
v 0.060777127742767334 0.016996141523122787 1.5609511137008667
v 0.062201306223869324 0.01613776758313179 1.5423883199691772
v 0.06251353770494461 0.018355511128902435 1.5337716341018677
v 0.057684823870658875 0.04931030794978142 1.5226547718048096
v 0.05920695513486862 0.020096780732274055 1.568742036819458
v -0.004210751503705978 -0.0026770588010549545 1.581295371055603
v -0.01255767047405243 -0.0026838965713977814 1.5803114175796509
v -0.01387237012386322 0.0007995478808879852 1.5733168125152588
v -0.006667248904705048 -9.539350867271423e-05 1.5734360218048096
v -0.04054886847734451 0.028875719755887985 1.5795074701309204
v -0.04126935452222824 0.02123645320534706 1.579478144645691
v -0.029790889471769333 0.017965296283364296 1.5791629552841187
v 0.03075527399778366 0.005831275135278702 1.5356018543243408
v 0.035503558814525604 0.008382046595215797 1.5242514610290527
v -0.04523390159010887 0.016496021300554276 1.5645365715026855
v -0.06641659140586853 0.04526272416114807 1.5756869316101074
v -0.0695565938949585 0.040719881653785706 1.5774927139282227
v -0.054575853049755096 0.034632403403520584 1.5792651176452637
v -0.05288579314947128 0.040447331964969635 1.5770097970962524
v -0.05274401605129242 0.026955829933285713 1.560006022453308
v -0.0509757362306118 0.02153998240828514 1.5637251138687134
v -0.053952693939208984 0.025263909250497818 1.5630542039871216
v -0.05533493310213089 0.030035387724637985 1.5591415166854858
v -0.04157613217830658 0.01900915428996086 1.524739146232605
v -0.03248152136802673 0.014250902459025383 1.5263466835021973
v -0.03855756297707558 0.037536777555942535 1.5578267574310303
v -0.03559188172221184 0.03920499607920647 1.569987177848816
v -0.025530312210321426 0.040123093873262405 1.568191647529602
v -0.015908926725387573 0.015155434608459473 1.5394768714904785
v -0.026766467839479446 0.014583918265998363 1.537591576576233
v -0.025503311306238174 0.014380577951669693 1.5336791276931763
v -0.036689359694719315 0.01456967368721962 1.5580313205718994
v -0.046147122979164124 0.018138861283659935 1.559070110321045
v -0.042611684650182724 0.01675167679786682 1.5548558235168457
v -0.03328317403793335 0.015120121650397778 1.5533373355865479
v 0.016006670892238617 0.02845546416938305 1.5095423460006714
v 0.017059408128261566 0.01696067303419113 1.508068561553955
v -0.08156795799732208 0.04175059497356415 1.5725278854370117
v -0.07745629549026489 0.0378621444106102 1.5739113092422485
v -0.004501763731241226 0.015448769554495811 1.5408357381820679
v -0.012377634644508362 0.04094656556844711 1.5682860612869263
v 0.006804168224334717 0.01414708886295557 1.541534662246704
v -0.025975212454795837 0.030094455927610397 1.5187044143676758
v -0.027933448553085327 0.02409207448363304 1.5147124528884888
v -0.03314145654439926 0.02500666305422783 1.5164161920547485
v -0.030851665884256363 0.03021135926246643 1.5179458856582642
v -0.06717215478420258 0.039001185446977615 1.5572470426559448
v -0.07038110494613647 0.03479047119617462 1.559737205505371
v -0.07407773286104202 0.03745647892355919 1.5586642026901245
v -0.07044710218906403 0.04116792604327202 1.5567469596862793
v -0.050382133573293686 0.01989942044019699 1.569218397140503
v -0.04893556982278824 0.02038067951798439 1.5755852460861206
v -0.055686481297016144 0.02423696219921112 1.573586106300354
v -0.05528195574879646 0.024246137589216232 1.567845106124878
v -0.049482181668281555 0.025840025395154953 1.5790550708770752
v -0.05539480224251747 0.028556272387504578 1.577976107597351
v -0.06372808665037155 0.04432724788784981 1.5593616962432861
v -0.06163233891129494 0.048625022172927856 1.565609335899353
v -0.05138103663921356 0.04326346516609192 1.564691424369812
v -0.05490494892001152 0.03775772824883461 1.5601896047592163
v 0.01690298318862915 0.04636666923761368 1.533734917640686
v 0.020620569586753845 0.04255680739879608 1.5241013765335083
v 0.006388824433088303 0.03939138352870941 1.5212475061416626
v -0.007211428135633469 0.03665059804916382 1.5180156230926514
v -0.019414328038692474 0.032399434596300125 1.5162039995193481
v -0.02273009903728962 0.03792649880051613 1.526817798614502
v 0.01036122813820839 0.03630049526691437 1.5149939060211182
v -0.04947435110807419 0.03290867805480957 1.5554835796356201
v -0.04421641677618027 0.037811219692230225 1.5629518032073975
v -0.044455137103796005 0.035989999771118164 1.5563353300094604
v 0.008411705493927002 0.011438797228038311 1.5348318815231323
v -0.0714343711733818 0.03645143657922745 1.5760670900344849
v 0.04278383404016495 0.050199802964925766 1.5686291456222534
v 0.042980536818504333 0.054021187126636505 1.5561233758926392
v 0.03458413481712341 0.052030839025974274 1.5577350854873657
v 0.034120820462703705 0.04726063832640648 1.5712352991104126
v -0.07223491370677948 0.03177407383918762 1.565590262413025
v -0.07293781638145447 0.032498277723789215 1.5716460943222046
v -0.030781393870711327 0.01307285949587822 1.520542025566101
v -0.038488201797008514 0.01795637607574463 1.519910454750061
v -0.03792228549718857 0.020045999437570572 1.5167443752288818
v -0.031765446066856384 0.013528347946703434 1.5158393383026123
v 0.023846812546253204 0.04004047065973282 1.5199006795883179
v -0.016765207052230835 0.015532937832176685 1.5027607679367065
v -0.01816745102405548 0.02558952569961548 1.505646824836731
v 0.03299398720264435 0.04537556692957878 1.5269831418991089
v 0.029826000332832336 0.0493118017911911 1.5352431535720825
v 0.039296954870224 0.051304206252098083 1.5357400178909302
v -0.033795058727264404 0.03799853473901749 1.5375698804855347
v 0.012280084192752838 0.04786113277077675 1.54084050655365
v 0.0263885036110878 0.05025357007980347 1.5419660806655884
v 0.03757059574127197 0.05264368653297424 1.5428649187088013
v 0.04558403044939041 0.05487963184714317 1.5427683591842651
v 0.04670827090740204 0.052974388003349304 1.5349810123443604
v -0.06350035220384598 0.04801800847053528 1.5707850456237793
v -0.06535866856575012 0.049387041479349136 1.5657508373260498
v 0.05499153584241867 0.05636316537857056 1.5335537195205688
v 0.0534951314330101 0.057731591165065765 1.5425512790679932
v 0.023254215717315674 0.050473153591156006 1.5506060123443604
v 0.019902803003787994 0.0494980663061142 1.5606621503829956
v 0.00975719839334488 0.047995928674936295 1.5490812063217163
v 0.0052857063710689545 0.04690351337194443 1.559045672416687
v -0.03224368393421173 0.04176696017384529 1.5472646951675415
v -0.07687971740961075 0.059552982449531555 1.5596915483474731
v -0.0699010044336319 0.05119460076093674 1.5601520538330078
v -0.07306622713804245 0.047318197786808014 1.5568325519561768
v -0.07814368605613708 0.05692729353904724 1.556411862373352
v -0.06704463064670563 0.04557173326611519 1.5594375133514404
v -0.06881985068321228 0.05276937037706375 1.5656334161758423
v 0.0024843961000442505 0.04210856929421425 1.5702404975891113
v -0.052132293581962585 0.02319512702524662 1.554526686668396
v 0.018302828073501587 0.042486727237701416 1.5742803812026978
v -0.005705501884222031 0.03533974289894104 1.580573320388794
v 0.0055901892483234406 0.03410111367702484 1.5839468240737915
v 0.034104496240615845 0.04115922003984451 1.5811046361923218
v 0.020231008529663086 0.03513167053461075 1.5874463319778442
v 0.05140566825866699 0.04538259655237198 1.5760507583618164
v 0.04264809191226959 0.043751515448093414 1.577602505683899
v 0.006165251135826111 0.02835364080965519 1.5911203622817993
v -0.08760896325111389 0.04833897948265076 1.5625035762786865
v -0.08459943532943726 0.04901757836341858 1.5577892065048218
v 0.05077090859413147 0.052538126707077026 1.5677343606948853
v -0.00025419145822525024 -0.0021278858184814453 1.5730226039886475
v 0.01866719126701355 0.009542882442474365 1.538084626197815
v 0.017123393714427948 0.011649837717413902 1.5428954362869263
v 0.026460319757461548 0.007270675152540207 1.520796537399292
v 0.021747060120105743 0.0063832346349954605 1.531495451927185
v -0.08816519379615784 0.0496714785695076 1.5675352811813354
v -0.04814127832651138 0.024403583258390427 1.5349160432815552
v -0.046922601759433746 0.027689389884471893 1.5321085453033447
v -0.004189770668745041 -0.0002966243773698807 1.5896856784820557
v -0.012048974633216858 -0.0015476271510124207 1.5879567861557007
v -0.01732494682073593 0.0094777662307024 1.592957854270935
v -0.014940541237592697 0.0027081482112407684 1.5927619934082031
v -0.006181292235851288 0.006331438198685646 1.594627857208252
v -0.008099868893623352 0.013833330012857914 1.5944932699203491
v 0.027912326157093048 0.008472733199596405 1.5451090335845947
v 0.028175190091133118 0.007627652958035469 1.541296362876892
v 0.02743350714445114 0.028746524825692177 1.5132379531860352
v 0.027639344334602356 0.01729831099510193 1.5120272636413574
v -0.04807344451546669 0.031896207481622696 1.5793780088424683
v -0.0392163023352623 0.03532025218009949 1.5768892765045166
v -0.04626159742474556 0.037831030786037445 1.5767617225646973
v -0.05017580837011337 0.043425530195236206 1.5716882944107056
v -0.053444668650627136 0.02990742400288582 1.5539062023162842
v -0.050376925617456436 0.0332396999001503 1.560006022453308
v 0.03630506992340088 0.00410078838467598 1.5626884698867798
v 0.025647327303886414 0.006226165220141411 1.5571560859680176
v -0.010997071862220764 0.003882063552737236 1.57192063331604
v -0.01635783165693283 0.006810463964939117 1.5714266300201416
v -0.02871575765311718 0.015133427456021309 1.5465501546859741
v -0.03951879218220711 0.03598039597272873 1.5390433073043823
v -0.03836259990930557 0.040694981813430786 1.5470325946807861
v -0.03936736285686493 0.0160516407340765 1.5465346574783325
v -0.08406655490398407 0.05619797483086586 1.5709606409072876
v -0.08717512339353561 0.052266284823417664 1.5699927806854248
v -0.04426615685224533 0.040563225746154785 1.57122802734375
v -0.02202070876955986 0.011959048919379711 1.5266032218933105
v -0.036392103880643845 0.03455037623643875 1.5340412855148315
v -0.04293839633464813 0.030004603788256645 1.5354831218719482
v -0.011729255318641663 0.010880609974265099 1.5047043561935425
v 0.051611341536045074 0.05604980140924454 1.5557167530059814
v -0.07734228670597076 0.04388430342078209 1.5575793981552124
v -0.08115935325622559 0.05134446546435356 1.5549907684326172
v -0.07640063762664795 0.060646604746580124 1.5638618469238281
v -0.07866103947162628 0.059222348034381866 1.5690209865570068
v 0.03698253631591797 0.017234530299901962 1.5174291133880615
v 0.015811622142791748 0.012794002890586853 1.5459660291671753
v -0.0062606483697891235 0.022948192432522774 1.5913068056106567
v -0.01796089857816696 0.016184061765670776 1.5898096561431885
v -0.04838656261563301 0.018686484545469284 1.5462919473648071
v -0.02282450720667839 0.026603858917951584 1.5115021467208862
v -0.0289742611348629 0.036339171230793 1.5253028869628906
v -0.03181423246860504 0.037081293761730194 1.522886872291565
v -0.03722463548183441 0.03874799609184265 1.5264745950698853
v -0.04434917867183685 0.03638371825218201 1.5278946161270142
v -0.07974837720394135 0.0635705441236496 1.5610532760620117
v -0.08269605040550232 0.06299819052219391 1.566401481628418
v -0.08821569383144379 0.060683462768793106 1.5678683519363403
v -0.09103506803512573 0.05654887855052948 1.5672190189361572
v -0.09085975587368011 0.052405573427677155 1.5650538206100464
v -0.08020088821649551 0.06215941905975342 1.5569157600402832
v -0.08152779936790466 0.05946914106607437 1.554298758506775
v -0.08341355621814728 0.0534478984773159 1.5540584325790405
v -0.08275795727968216 0.06386181712150574 1.5538874864578247
v -0.08442091941833496 0.06770509481430054 1.5566095113754272
v -0.09734982252120972 0.0681709498167038 1.5596158504486084
v -0.09270691871643066 0.0667218416929245 1.562873125076294
v -0.09277987480163574 0.06857450306415558 1.5609391927719116
v -0.09608027338981628 0.07066355645656586 1.5580101013183594
v -0.09827306121587753 0.07371655106544495 1.5546317100524902
v -0.10033179819583893 0.07110339403152466 1.5559664964675903
v -0.08831827342510223 0.0681784525513649 1.5602647066116333
v -0.0921076089143753 0.07136446237564087 1.556010365486145
v -0.08922073990106583 0.07100376486778259 1.5529831647872925
v -0.09215038269758224 0.07446959614753723 1.5500479936599731
v -0.09485733509063721 0.07508942484855652 1.5527424812316895
v -0.08684995770454407 0.06903489679098129 1.5562236309051514
v -0.08687516301870346 0.06742991507053375 1.5618113279342651
v -0.10074687004089355 0.07363730669021606 1.552220106124878
v -0.09901286661624908 0.07547982037067413 1.5524826049804688
v -0.09645158797502518 0.07631882280111313 1.5505084991455078
v -0.0983957052230835 0.07565616071224213 1.548274040222168
v -0.09410940110683441 0.060714732855558395 1.5642471313476562
v -0.09853360056877136 0.06596969813108444 1.5591627359390259
v -0.10069675743579865 0.06853628158569336 1.5542654991149902
v -0.10101883113384247 0.07127958536148071 1.5507079362869263
v -0.0988091453909874 0.06362815201282501 1.5559511184692383
v -0.09997695684432983 0.06651764363050461 1.5522825717926025
v -0.10001218318939209 0.06868686527013779 1.548903226852417
v -0.09761691093444824 0.061891328543424606 1.5522714853286743
v -0.09862984716892242 0.06519237160682678 1.5497440099716187
v -0.09228655695915222 0.05336971953511238 1.5595790147781372
v -0.09342808276414871 0.055596064776182175 1.5629771947860718
v -0.09929119795560837 0.06695951521396637 1.5479321479797363
v -0.09844732284545898 0.07387957721948624 1.5469366312026978
v -0.08684802055358887 0.06880195438861847 1.5513421297073364
v -0.0912824422121048 0.07237231731414795 1.5476243495941162
v -0.0867173820734024 0.06708596646785736 1.5498343706130981
v -0.09078262746334076 0.07072482258081436 1.5459247827529907
v -0.09409746527671814 0.07520050555467606 1.546044945716858
v -0.09420138597488403 0.07580257207155228 1.5485777854919434
v -0.08882957696914673 0.0500909760594368 1.5610620975494385
v -0.08572722971439362 0.05073817819356918 1.556471347808838
v -0.08848321437835693 0.053164102137088776 1.5549460649490356
v -0.09452296048402786 0.06129427254199982 1.5488241910934448
v -0.08575910329818726 0.055451489984989166 1.552251935005188
v -0.0840461403131485 0.061364952474832535 1.551513671875
v -0.087978795170784 0.06546828150749207 1.547892689704895
v -0.09023833274841309 0.06314322352409363 1.5470890998840332
v -0.09145765006542206 0.06831914186477661 1.5453476905822754
v -0.09311755001544952 0.06635259836912155 1.545637607574463
v -0.09631569683551788 0.06492181122303009 1.5469862222671509
v -0.09482188522815704 0.07022780179977417 1.5445334911346436
v -0.09424202144145966 0.07315841317176819 1.5449283123016357
v -0.09817104041576385 0.07061418890953064 1.546069622039795
v -0.0949900895357132 0.06825707107782364 1.544891595840454
v -0.09748153388500214 0.06805404275655746 1.5464236736297607
v -0.07164295762777328 0.051779940724372864 1.5242658853530884
v -0.0697985291481018 0.04869507998228073 1.519027829170227
v -0.06931628286838531 0.04151926189661026 1.5241684913635254
v -0.07112807780504227 0.04482853412628174 1.5284004211425781
v -0.06130350008606911 0.05491108447313309 1.5305531024932861
v -0.06703945994377136 0.05482546612620354 1.5303559303283691
v -0.06654606759548187 0.05165877193212509 1.5332905054092407
v -0.060326531529426575 0.053561147302389145 1.532081961631775
v -0.056500520557165146 0.05324191600084305 1.5272507667541504
v -0.055501893162727356 0.052146248519420624 1.5286420583724976
v -0.05792650207877159 0.05278433859348297 1.5341264009475708
v -0.06403689086437225 0.049606092274188995 1.5357975959777832
v -0.05283021926879883 0.03743073344230652 1.548845887184143
v -0.04803226888179779 0.04206210374832153 1.5465279817581177
v -0.05287393927574158 0.02276930771768093 1.537996768951416
v -0.051079172641038895 0.025536134839057922 1.5356484651565552
v -0.07046017050743103 0.05363406240940094 1.5276758670806885
v -0.06995245814323425 0.04854365438222885 1.5316236019134521
v -0.06010996177792549 0.036706872284412384 1.5213462114334106
v -0.06473560631275177 0.03598877042531967 1.5241806507110596
v -0.0664578527212143 0.04019744321703911 1.5201842784881592
v -0.061596572399139404 0.04071180522441864 1.518029808998108
v -0.05602779984474182 0.028614060953259468 1.5479695796966553
v -0.05422211065888405 0.024097278714179993 1.5436902046203613
v -0.055280931293964386 0.03302265703678131 1.5485002994537354
v -0.05502621829509735 0.04046251252293587 1.5210989713668823
v -0.05131709203124046 0.04563349485397339 1.5233378410339355
v -0.04218577593564987 0.037639934569597244 1.5346198081970215
v -0.0454031378030777 0.031827908009290695 1.5328457355499268
v -0.06811381876468658 0.045728325843811035 1.5346975326538086
v -0.06787991523742676 0.037686049938201904 1.5282377004623413
v -0.06946837902069092 0.04101536422967911 1.531770944595337
v -0.05315388739109039 0.050773508846759796 1.5293163061141968
v -0.053600020706653595 0.04770175367593765 1.5220221281051636
v -0.055617645382881165 0.0581073984503746 1.512027382850647
v -0.05719294399023056 0.04696168377995491 1.5166279077529907
v -0.06173960119485855 0.04679250717163086 1.5148181915283203
v -0.05929935351014137 0.05868121609091759 1.509191870689392
v -0.05703543871641159 0.04314000532031059 1.5184613466262817
v -0.05453426390886307 0.0491485521197319 1.5213361978530884
v -0.06794083118438721 0.06590951979160309 1.5149129629135132
v -0.06639622896909714 0.06328749656677246 1.509874701499939
v -0.0667690709233284 0.067305788397789 1.5188833475112915
v -0.043383002281188965 0.042279407382011414 1.5404835939407349
v -0.059174247086048126 0.06496652960777283 1.5241940021514893
v -0.06453178077936172 0.06689804792404175 1.522283911705017
v -0.0664554163813591 0.04734347388148308 1.5153392553329468
v -0.06289626657962799 0.06100201979279518 1.5081663131713867
v -0.05329877883195877 0.05901911109685898 1.5158599615097046
v -0.05413546413183212 0.06131024658679962 1.5222089290618896
v -0.05432506650686264 0.06378257274627686 1.5115638971328735
v -0.05389195680618286 0.06603749096393585 1.5172553062438965
v -0.05755513533949852 0.06989030539989471 1.519677758216858
v -0.061881452798843384 0.07204245030879974 1.5185317993164062
v -0.06469893455505371 0.07197311520576477 1.5158010721206665
v -0.05585303530097008 0.06327290832996368 1.508474349975586
v -0.05882575362920761 0.06421808153390884 1.505560040473938
v -0.06305576860904694 0.0651402696967125 1.50619375705719
v -0.05353420972824097 0.06739361584186554 1.5041701793670654
v -0.050986532121896744 0.06854378432035446 1.506848692893982
v -0.045972324907779694 0.08341827988624573 1.5090571641921997
v -0.048988841474056244 0.07989673316478729 1.512116551399231
v -0.047057460993528366 0.07829619944095612 1.5113791227340698
v -0.04403730481863022 0.08137347549200058 1.5085359811782837
v -0.050921641290187836 0.07526303827762604 1.514909029006958
v -0.048830606043338776 0.07508546859025955 1.5130794048309326
v -0.04884852096438408 0.07144303619861603 1.510770320892334
v -0.04620492830872536 0.07506436109542847 1.5080515146255493
v -0.047188859432935715 0.07196968793869019 1.5045742988586426
v -0.0434379018843174 0.07458673417568207 1.5019381046295166
v -0.041996389627456665 0.07770900428295135 1.5054961442947388
v -0.0485699363052845 0.0701638013124466 1.5073177814483643
v -0.042155321687459946 0.08252620697021484 1.505968689918518
v -0.04311634972691536 0.08455749601125717 1.5046507120132446
v -0.051206380128860474 0.07069061696529388 1.5120168924331665
v -0.057452812790870667 0.07543379068374634 1.5166852474212646
v -0.05159631371498108 0.08135159313678741 1.511583924293518
v -0.04821791872382164 0.08482924103736877 1.5073620080947876
v -0.04497610405087471 0.08509752154350281 1.502301573753357
v -0.054242756217718124 0.0819455161690712 1.5087120532989502
v -0.05014233663678169 0.08482086658477783 1.5048916339874268
v -0.04724809527397156 0.08454276621341705 1.5008649826049805
v -0.05633201077580452 0.08123454451560974 1.5047889947891235
v -0.0519518218934536 0.08364853262901306 1.5013803243637085
v -0.06425999104976654 0.07398700714111328 1.5107871294021606
v -0.061825819313526154 0.0755055695772171 1.5144648551940918
v -0.049432169646024704 0.0838765799999237 1.5002106428146362
v -0.04075385630130768 0.08161617815494537 1.5014417171478271
v -0.043210480362176895 0.08274812996387482 1.4992616176605225
v -0.04063742607831955 0.08043177425861359 1.5028884410858154
v -0.04810171201825142 0.07132318615913391 1.5027987957000732
v -0.044566113501787186 0.07464496046304703 1.4998618364334106
v -0.0497945211827755 0.07111406326293945 1.5008506774902344
v -0.045864369720220566 0.07527648657560349 1.497942328453064
v -0.04198071360588074 0.0778454914689064 1.498727560043335
v -0.041130103170871735 0.07779379189014435 1.5003317594528198
v -0.06610909849405289 0.06985318660736084 1.5124578475952148
v -0.06546363979578018 0.0669308751821518 1.5081442594528198
v -0.06442566961050034 0.0710153728723526 1.5064855813980103
v -0.05681874230504036 0.07834117114543915 1.5011065006256104
v -0.061884716153144836 0.06847117096185684 1.5040240287780762
v -0.056644096970558167 0.06770451366901398 1.5028455257415771
v -0.05220415070652962 0.07190932333469391 1.499770998954773
v -0.05477434769272804 0.07469090074300766 1.4993438720703125
v -0.047707587480545044 0.0755997747182846 1.4966404438018799
v -0.05075880140066147 0.07684894651174545 1.4972625970840454
v -0.0525076724588871 0.08094307780265808 1.4987516403198242
v -0.04511406272649765 0.07905453443527222 1.4961128234863281
v -0.04305871203541756 0.07843074947595596 1.4973567724227905
v -0.045365527272224426 0.08275529742240906 1.498477816581726
v -0.048162564635276794 0.07927459478378296 1.4963788986206055
v -0.04857965558767319 0.08237314969301224 1.4981309175491333
v -0.06139523163437843 0.04801678657531738 1.502258062362671
v -0.06069502234458923 0.04316869378089905 1.4994237422943115
v -0.061902064830064774 0.03790257126092911 1.5036606788635254
v -0.06288741528987885 0.04307200759649277 1.506794810295105
v -0.049915861338377 0.05033988878130913 1.5078824758529663
v -0.0546351820230484 0.0518653430044651 1.5069693326950073
v -0.05610210448503494 0.049014344811439514 1.510697841644287
v -0.05091509222984314 0.04752358794212341 1.5122839212417603
v -0.04584875702857971 0.04772404953837395 1.505178451538086
v -0.046584393829107285 0.044665805995464325 1.5097439289093018
v -0.04847608879208565 0.0478023923933506 1.5152586698532104
v -0.05477713793516159 0.047020748257637024 1.51481032371521
v -0.046749163419008255 0.03930098935961723 1.5241905450820923
v -0.04056335613131523 0.04242291301488876 1.5227253437042236
v -0.0586133673787117 0.05079200118780136 1.504794716835022
v -0.06035085394978523 0.04716678708791733 1.5088460445404053
v -0.05149619281291962 0.031856030225753784 1.5034712553024292
v -0.05499057099223137 0.03215432167053223 1.5058789253234863
v -0.058300867676734924 0.03532958775758743 1.5003652572631836
v -0.054686594754457474 0.0346442386507988 1.4991259574890137
v -0.0495903454720974 0.02806590497493744 1.5251356363296509
v -0.04591873288154602 0.024472076445817947 1.5217761993408203
v -0.050147607922554016 0.03395186737179756 1.5246105194091797
v -0.046701572835445404 0.03459535539150238 1.50346040725708
v -0.04224175587296486 0.0401671901345253 1.5068103075027466
v -0.034532733261585236 0.03454368934035301 1.5137759447097778
v -0.037499360740184784 0.028968598693609238 1.5134083032608032
v -0.05882156640291214 0.04396539926528931 1.5140281915664673
v -0.058509692549705505 0.03430495783686638 1.5092679262161255
v -0.06062374636530876 0.03913324326276779 1.5122405290603638
v -0.04389991611242294 0.045492023229599 1.5116901397705078
v -0.046149998903274536 0.03993334248661995 1.504623532295227
v -0.043708983808755875 0.050298698246479034 1.4877557754516602
v -0.0484592542052269 0.03831051290035248 1.4981701374053955
v -0.05342397466301918 0.03831318020820618 1.4963102340698242
v -0.046822305768728256 0.04985757917165756 1.4850099086761475
v -0.049655698239803314 0.0357036218047142 1.5000193119049072
v -0.04490761458873749 0.042198896408081055 1.5017789602279663
v -0.055280428379774094 0.058504823595285416 1.4887070655822754
v -0.054560691118240356 0.05377668887376785 1.486213207244873
v -0.05387061834335327 0.0598587803542614 1.4923927783966064
v -0.0351000614464283 0.040944453328847885 1.5184992551803589
v -0.041431576013565063 0.024202127009630203 1.5162273645401
v -0.047429829835891724 0.05997755751013756 1.4951790571212769
v -0.0513516403734684 0.06074788048863411 1.4942615032196045
v -0.05726030096411705 0.03976020589470863 1.4972442388534546
v -0.05085504800081253 0.05076772719621658 1.4843865633010864
v -0.042428091168403625 0.05238069221377373 1.4913338422775269
v -0.04332505539059639 0.05641133338212967 1.4949378967285156
v -0.04180222749710083 0.05364226549863815 1.4871870279312134
v -0.04257591813802719 0.057617977261543274 1.4911127090454102
v -0.04506812244653702 0.06166957691311836 1.4919642210006714
v -0.048381924629211426 0.06333354115486145 1.4909485578536987
v -0.050993721932172775 0.06311886012554169 1.4888744354248047
v -0.0430307611823082 0.05262269452214241 1.4833704233169556
v -0.04570416733622551 0.05325926095247269 1.4810791015625
v -0.04993975907564163 0.053689755499362946 1.482222557067871
v -0.04135400429368019 0.05485774204134941 1.4800821542739868
v -0.037924375385046005 0.05667901411652565 1.4833858013153076
v -0.03304797038435936 0.07200545072555542 1.4819810390472412
v -0.036634378135204315 0.06901845335960388 1.4847204685211182
v -0.03563940152525902 0.06820923089981079 1.4846718311309814
v -0.03162964805960655 0.07108384370803833 1.4821369647979736
v -0.0396486297249794 0.06417502462863922 1.4884835481643677
v -0.037507686764001846 0.06451867520809174 1.4872709512710571
v -0.036955613642930984 0.0610157735645771 1.4862940311431885
v -0.03264552354812622 0.06444720923900604 1.4828834533691406
v -0.03388567641377449 0.06049858033657074 1.4788984060287476
v -0.030653391033411026 0.06366091966629028 1.4769928455352783
v -0.029078524559736252 0.06735609471797943 1.4806241989135742
v -0.036347895860672 0.05843878537416458 1.4830461740493774
v -0.029582660645246506 0.07165949046611786 1.4800007343292236
v -0.02972249686717987 0.0737699419260025 1.4801700115203857
v -0.03907201439142227 0.05984059348702431 1.4875695705413818
v -0.043701354414224625 0.06621232628822327 1.489004373550415
v -0.03890683874487877 0.07056380808353424 1.4842631816864014
v -0.0355408675968647 0.0742228776216507 1.481126308441162
v -0.03269972279667854 0.0744607001543045 1.4780067205429077
v -0.04176536574959755 0.07073714584112167 1.4819283485412598
v -0.03790653869509697 0.07356125116348267 1.4789963960647583
v -0.0352676697075367 0.073960080742836 1.4762109518051147
v -0.04371924698352814 0.06951242685317993 1.4796334505081177
v -0.03968292102217674 0.07191641628742218 1.4768340587615967
v -0.05082745477557182 0.06314422935247421 1.4853394031524658
v -0.04766824468970299 0.06562745571136475 1.487729549407959
v -0.036885689944028854 0.07275833189487457 1.4752588272094727
v -0.027717560529708862 0.07054607570171356 1.4772493839263916
v -0.030555080622434616 0.07134459912776947 1.474195957183838
v -0.028528716415166855 0.06944140046834946 1.4784046411514282
v -0.035121891647577286 0.05934998020529747 1.4779198169708252
v -0.03095635399222374 0.06300461292266846 1.474654197692871
v -0.03748925030231476 0.05908586457371712 1.4762502908706665
v -0.03325485438108444 0.06296928972005844 1.4727784395217896
v -0.028571028262376785 0.06621403992176056 1.4746708869934082
v -0.028660133481025696 0.06635460257530212 1.4758896827697754
v -0.05307470262050629 0.060279447585344315 1.4864639043807983
v -0.05274764820933342 0.056562889367341995 1.4837749004364014
v -0.05126708745956421 0.06004941463470459 1.4822874069213867
v -0.04369595646858215 0.06698712706565857 1.4764012098312378
v -0.049139123409986496 0.05672049894928932 1.480271577835083
v -0.043754007667303085 0.056275106966495514 1.4783246517181396
v -0.03988293930888176 0.060628827661275864 1.4750831127166748
v -0.04197118431329727 0.06338775157928467 1.4748212099075317
v -0.03576778620481491 0.06402191519737244 1.4719780683517456
v -0.0380391888320446 0.0655849501490593 1.4729430675506592
v -0.03993135318160057 0.06965640932321548 1.4739166498184204
v -0.033446889370679855 0.06734726577997208 1.4720978736877441
v -0.03063628450036049 0.06658364832401276 1.4726293087005615
v -0.03354000672698021 0.07154633104801178 1.473142385482788
v -0.035921890288591385 0.06796236336231232 1.4722371101379395
v -0.03612715005874634 0.07112697511911392 1.4730267524719238
v -0.04331769049167633 0.02285381779074669 1.5187549591064453
v -0.037954311817884445 0.018513236194849014 1.5200188159942627
v -0.035476215183734894 0.014996763318777084 1.5206546783447266
v -0.035703595727682114 0.013029787689447403 1.519476056098938
v -0.03746609017252922 0.016843833029270172 1.5183405876159668
v -0.04825586453080177 0.01601860672235489 1.5150249004364014
v -0.04526572674512863 0.018913578242063522 1.5174036026000977
v -0.04531734064221382 0.018777474761009216 1.513391375541687
v -0.047703634947538376 0.016366366297006607 1.510259747505188
v -0.04865577071905136 0.010831229388713837 1.513826608657837
v -0.04768315702676773 0.010966382920742035 1.5090638399124146
v -0.04541642218828201 0.018254123628139496 1.5086075067520142
v -0.04364822059869766 0.02005210518836975 1.5125869512557983
v -0.03196978569030762 0.024840574711561203 1.5120421648025513
v -0.030582673847675323 0.024530719965696335 1.5079442262649536
v -0.01882842928171158 0.008130943402647972 1.5068309307098389
v -0.01680000126361847 0.0068171098828315735 1.5099234580993652
v -0.026219910010695457 0.007707901298999786 1.512896180152893
v -0.026228774338960648 0.00753234326839447 1.509189486503601
v -0.04164343327283859 0.019527330994606018 1.5189288854599
v -0.0412566252052784 0.019257456064224243 1.516260027885437
v -0.035531822592020035 0.004179678857326508 1.514793872833252
v -0.03460363671183586 0.007361438125371933 1.5179845094680786
v -0.03414938598871231 0.008839379996061325 1.5192292928695679
v -0.03500434011220932 0.004595950245857239 1.5182157754898071
v -0.019854918122291565 0.007857103832066059 1.5138113498687744
v -0.024341516196727753 0.009871726855635643 1.5156967639923096
v -0.02811836451292038 0.012191122397780418 1.516314148902893
v -0.028118563815951347 0.010143419727683067 1.5159214735031128
v -0.031485117971897125 0.018565118312835693 1.5158188343048096
v -0.03796897828578949 0.0037088319659233093 1.5111889839172363
v -0.04175134748220444 0.0062241330742836 1.5071470737457275
v -0.027114422991871834 0.012487838044762611 1.5019891262054443
v -0.02583128958940506 0.009323755279183388 1.505038857460022
v -0.04167520999908447 0.019050486385822296 1.516240119934082
v -0.03572005033493042 0.01174551248550415 1.5192368030548096
v -0.0387432798743248 0.01554977148771286 1.5187088251113892
v -0.04440538212656975 0.012949846684932709 1.5054110288619995
v -0.04409151151776314 0.0053152963519096375 1.5119504928588867
v -0.04009092599153519 0.004782535135746002 1.5278874635696411
v -0.0395427905023098 0.0035756826400756836 1.5195143222808838
v -0.03529244661331177 0.005740508437156677 1.5209858417510986
v -0.03697851300239563 0.006113514304161072 1.5277948379516602
v -0.038638219237327576 0.003440640866756439 1.515363097190857
v -0.04479409381747246 0.0054547786712646484 1.5173004865646362
v -0.03821998089551926 0.019008740782737732 1.5260010957717896
v -0.035552989691495895 0.014034897089004517 1.5263299942016602
v -0.04138798266649246 0.020274054259061813 1.5258876085281372
v -0.02887524478137493 0.02073344774544239 1.5032390356063843
v -0.04817419499158859 0.016541413962841034 1.5255292654037476
v -0.044865112751722336 0.019580893218517303 1.526175618171692
v -0.03447292745113373 0.010560557246208191 1.5211589336395264
v -0.03507808595895767 0.00942828506231308 1.526991367340088
v -0.044678281992673874 0.006011847406625748 1.5271542072296143
v -0.04876985773444176 0.01092546433210373 1.5248836278915405
v -0.04329101741313934 0.007697025313973427 1.5325297117233276
v -0.04793914034962654 0.012158265337347984 1.5304248332977295
v -0.04678026959300041 0.01786213554441929 1.5293327569961548
v -0.043597057461738586 0.019804850220680237 1.527705430984497
v -0.040495049208402634 0.02013838104903698 1.5267795324325562
v -0.03840048983693123 0.006494419649243355 1.5320123434066772
v -0.03561704605817795 0.007383029907941818 1.5309756994247437
v -0.03434225171804428 0.010071275755763054 1.5287892818450928
v -0.036693744361400604 0.008663167245686054 1.535526990890503
v -0.04020482301712036 0.011543214321136475 1.5372592210769653
v -0.03545492887496948 0.024097982794046402 1.537632942199707
v -0.03846195712685585 0.022489210590720177 1.5348972082138062
v -0.038796089589595795 0.021776655688881874 1.5358867645263672
v -0.03611623868346214 0.02391742914915085 1.5384914875030518
v -0.04291146248579025 0.01968471333384514 1.532837152481079
v -0.04208465293049812 0.019364558160305023 1.5345094203948975
v -0.0429411344230175 0.0159156434237957 1.5354434251785278
v -0.03921683132648468 0.018627885729074478 1.5387773513793945
v -0.03630392253398895 0.01437288150191307 1.5403530597686768
v -0.03377945348620415 0.017016977071762085 1.5428045988082886
v -0.03676924854516983 0.020497813820838928 1.5414786338806152
v -0.040288046002388 0.013390818610787392 1.5379955768585205
v -0.03468647971749306 0.024560635909438133 1.5409882068634033
v -0.033588360995054245 0.025485219433903694 1.5410140752792358
v -0.044784486293792725 0.014913095161318779 1.5343527793884277
v -0.0410488024353981 0.020972272381186485 1.529306411743164
v -0.03657664358615875 0.02375555783510208 1.5334975719451904
v -0.03332791104912758 0.025471767410635948 1.5372743606567383
v -0.031227175146341324 0.025314677506685257 1.5406620502471924
v -0.034834861755371094 0.02315613441169262 1.5316630601882935
v -0.031377438455820084 0.025150375440716743 1.5359840393066406
v -0.02944811061024666 0.024725593626499176 1.539254069328308
v -0.032243773341178894 0.021186549216508865 1.5305681228637695
v -0.029801905155181885 0.023258183151483536 1.535096287727356
v -0.035374823957681656 0.01823532022535801 1.5266402959823608
v -0.03814946115016937 0.020511968061327934 1.5274897813796997
v -0.028921756893396378 0.023509113118052483 1.538063883781433
v -0.032743580639362335 0.02300853282213211 1.5440278053283691
v -0.030011165887117386 0.02294858731329441 1.5427390336990356
v -0.03422540798783302 0.02215895615518093 1.5438238382339478
v -0.0353839285671711 0.013248562812805176 1.540256142616272
v -0.03224217891693115 0.01636636070907116 1.5431063175201416
v -0.03339578956365585 0.01210617646574974 1.539320707321167
v -0.03030681237578392 0.016108084470033646 1.5421240329742432
v -0.03137080371379852 0.01964014396071434 1.544526219367981
v -0.03327207639813423 0.019542496651411057 1.5440914630889893
v -0.03662891685962677 0.01820697821676731 1.5266205072402954
v -0.034891314804553986 0.014500267803668976 1.527385950088501
v -0.03339191526174545 0.014291314408183098 1.5279980897903442
v -0.0301959328353405 0.0174733716994524 1.5314710140228271
v -0.03307650238275528 0.010369224473834038 1.5302356481552124
v -0.03443211317062378 0.008536599576473236 1.5333048105239868
v -0.031333182007074356 0.012321019545197487 1.537397027015686
v -0.029770534485578537 0.013918563723564148 1.5346641540527344
v -0.0287921279668808 0.016696980223059654 1.5406187772750854
v -0.027832791209220886 0.017709525302052498 1.5378633737564087
v -0.028079740703105927 0.020306764170527458 1.535596489906311
v -0.028389636427164078 0.020338673144578934 1.5417027473449707
v -0.029333055019378662 0.020125210285186768 1.5433599948883057
v -0.028664525598287582 0.022596701979637146 1.5411486625671387
v -0.027763523161411285 0.02042802982032299 1.5398377180099487
v -0.02808399498462677 0.021873194724321365 1.538985252380371
v -0.02128659561276436 0.01049080304801464 1.504685878753662
v -0.032837167382240295 0.010171616449952126 1.5821502208709717
v -0.031105995178222656 0.010582583025097847 1.5768057107925415
v -0.025394955649971962 -0.004442254081368446 1.573021650314331
v -0.02757607400417328 0.002143990248441696 1.5703331232070923
v -0.025810785591602325 -0.008054565638303757 1.5791105031967163
v -0.029081203043460846 -0.005019038915634155 1.5888782739639282
v -0.02626323327422142 -0.007448386400938034 1.5849149227142334
v -0.029275422915816307 0.007347170263528824 1.572127342224121
v -0.03282114863395691 0.0072369687259197235 1.5869925022125244
v -0.03130297362804413 0.0008833520114421844 1.590471863746643
v -0.0445011667907238 0.0031515881419181824 1.5842701196670532
v -0.04192042723298073 -0.00422181561589241 1.5868406295776367
v -0.03868214786052704 -0.010555848479270935 1.5838671922683716
v -0.033500801771879196 -0.011096987873315811 1.5795410871505737
v -0.03105839341878891 -0.010673191398382187 1.5754207372665405
v -0.040448036044836044 0.007898308336734772 1.579087734222412
v -0.03757619857788086 0.008902816101908684 1.5742008686065674
v -0.03357814997434616 0.005694083869457245 1.5700589418411255
v -0.04615664482116699 0.00597849115729332 1.5733672380447388
v -0.05024714395403862 -0.0010837800800800323 1.5683178901672363
v -0.04629519209265709 -0.015924986451864243 1.5564930438995361
v -0.043150804936885834 -0.014991972595453262 1.56217622756958
v -0.045599620789289474 -0.013811003416776657 1.5627588033676147
v -0.04842906445264816 -0.015150744467973709 1.557702898979187
v -0.04351993277668953 -0.013755228370428085 1.5676740407943726
v -0.04511308670043945 -0.012346658855676651 1.5667680501937866
v -0.047560978680849075 -0.007697906345129013 1.5687094926834106
v -0.04997391253709793 -0.009198900312185287 1.5635638236999512
v -0.04940740019083023 -0.003380466252565384 1.566977620124817
v -0.050578635185956955 -0.0031369291245937347 1.5628255605697632
v -0.05218224972486496 -0.010264109820127487 1.5585639476776123
v -0.05134928226470947 -0.01471618190407753 1.5552866458892822
v -0.05370614677667618 -0.01118820533156395 1.5544077157974243
v -0.04965449124574661 -0.014944758266210556 1.5529500246047974
v -0.05046216771006584 -0.008433591574430466 1.5713105201721191
v -0.03775683790445328 -0.014030221849679947 1.570751667022705
v -0.03962887078523636 -0.014904279261827469 1.5620334148406982
v -0.043219052255153656 -0.014989316463470459 1.5551832914352417
v -0.047422416508197784 -0.013635862618684769 1.5513134002685547
v -0.03652629628777504 -0.0126718170940876 1.5606095790863037
v -0.0403338223695755 -0.012001249939203262 1.554620385169983
v -0.04450852796435356 -0.010087080299854279 1.5512646436691284
v -0.03531477600336075 -0.008322719484567642 1.5593129396438599
v -0.03966574743390083 -0.008286766707897186 1.554490327835083
v -0.030453557148575783 -0.0061836205422878265 1.5687791109085083
v -0.03250766173005104 -0.01135985180735588 1.5706498622894287
v -0.043155696243047714 -0.008032407611608505 1.5522629022598267
v -0.05381761118769646 -0.010945882648229599 1.5520116090774536
v -0.05139782279729843 -0.009313158690929413 1.5503811836242676
v -0.05032610148191452 5.015358328819275e-05 1.5628653764724731
v -0.05332501605153084 -0.004233639687299728 1.558517575263977
v -0.05237927287817001 -0.0019341520965099335 1.5575116872787476
v -0.04806964844465256 0.003158126026391983 1.5628230571746826
v -0.05067857727408409 6.562098860740662e-05 1.5564372539520264
v -0.05413125455379486 -0.005399573594331741 1.5537524223327637
v -0.05434909462928772 -0.00702296569943428 1.5556831359863281
v -0.028974078595638275 -0.006496807560324669 1.5711042881011963
v -0.03004898503422737 -5.3415074944496155e-05 1.5692310333251953
v -0.03196073696017265 0.0005247071385383606 1.5679813623428345
v -0.03647448495030403 -0.0020218901336193085 1.5594911575317383
v -0.03619169816374779 0.0059355199337005615 1.5679543018341064
v -0.041844822466373444 0.007649250328540802 1.5708580017089844
v -0.04488237202167511 0.004506148397922516 1.5613917112350464
v -0.040299251675605774 0.0029201917350292206 1.5603517293930054
v -0.047398801892995834 0.0005521699786186218 1.5554245710372925
v -0.04460278898477554 -0.0004559420049190521 1.5551249980926514
v -0.041183773428201675 -0.004066437482833862 1.5541518926620483
v -0.048883695155382156 -0.00313451886177063 1.5521771907806396
v -0.05201481282711029 -0.0036301277577877045 1.5525377988815308
v -0.047755166888237 -0.0069849565625190735 1.5506246089935303
v -0.046308740973472595 -0.002925403416156769 1.553001880645752
v -0.04501725733280182 -0.005576685070991516 1.5520882606506348
v -0.011433698236942291 0.008458597585558891 1.5095090866088867
v -0.014489483088254929 0.00817957054823637 1.5149409770965576
v -0.008269697427749634 0.008696726523339748 1.514183521270752
v 0.00037284567952156067 0.008049272000789642 1.5153837203979492
v 0.010260093957185745 0.009860857389867306 1.5119916200637817
v -0.001749534159898758 0.008960484527051449 1.5218274593353271
v -0.01084848865866661 0.009747623465955257 1.5198915004730225
v -0.02062978409230709 0.010087233036756516 1.5199886560440063
v 0.00426439568400383 0.010571792721748352 1.529733657836914
f 2 3 1
f 1 3 4
f 5 6 8
f 8 6 7
f 9 4 10
f 10 4 3
f 12 13 11
f 11 13 9
f 14 12 16
f 16 12 15
f 18 19 17
f 17 19 20
f 22 23 21
f 21 23 24
f 26 27 25
f 25 27 28
f 30 31 29
f 29 31 32
f 33 34 36
f 36 34 35
f 37 38 40
f 40 38 39
f 41 42 6
f 6 42 43
f 6 43 7
f 7 43 44
f 45 34 46
f 46 34 33
f 48 49 47
f 47 49 50
f 52 53 51
f 51 53 54
f 56 52 55
f 55 52 51
f 58 59 57
f 57 59 60
f 61 62 4
f 4 62 1
f 64 65 63
f 63 65 66
f 68 69 67
f 67 69 70
f 72 73 71
f 71 73 74
f 76 77 75
f 75 77 78
f 53 79 54
f 54 79 80
f 82 83 81
f 81 83 84
f 85 86 52
f 52 86 53
f 57 60 87
f 87 60 88
f 89 90 43
f 43 90 44
f 43 42 89
f 89 42 91
f 40 39 92
f 92 39 93
f 94 70 64
f 64 70 69
f 13 61 9
f 9 61 4
f 25 28 69
f 69 28 95
f 96 25 68
f 68 25 69
f 98 99 97
f 97 99 100
f 101 102 104
f 104 102 103
f 106 30 105
f 105 30 29
f 51 54 107
f 107 54 108
f 54 80 108
f 108 80 109
f 111 112 110
f 110 112 113
f 115 5 114
f 114 5 116
f 115 41 5
f 5 41 6
f 36 35 111
f 111 35 117
f 35 118 117
f 117 118 119
f 34 120 35
f 35 120 118
f 34 45 120
f 120 45 121
f 125 126 124
f 124 126 127
f 128 129 14
f 14 129 130
f 33 131 46
f 46 131 132
f 133 94 63
f 63 94 64
f 134 135 137
f 137 135 136
f 139 140 138
f 138 140 141
f 77 142 78
f 78 142 143
f 144 145 20
f 20 145 146
f 148 149 147
f 147 149 72
f 151 152 150
f 150 152 153
f 82 101 83
f 83 101 104
f 101 82 155
f 155 82 154
f 156 157 58
f 58 157 59
f 158 68 147
f 147 68 67
f 159 146 15
f 15 146 16
f 68 158 96
f 96 158 160
f 129 66 130
f 130 66 65
f 162 163 161
f 161 163 164
f 166 167 165
f 165 167 168
f 170 171 169
f 169 171 172
f 174 171 173
f 173 171 170
f 176 177 175
f 175 177 178
f 180 181 179
f 179 181 24
f 182 183 21
f 21 183 184
f 81 185 82
f 82 185 154
f 186 187 188
f 188 187 144
f 158 71 160
f 160 71 189
f 190 135 157
f 157 135 59
f 169 172 139
f 139 172 140
f 147 72 158
f 158 72 71
f 192 193 191
f 191 193 194
f 167 166 49
f 49 166 195
f 196 190 50
f 50 190 157
f 197 198 200
f 200 198 199
f 21 24 182
f 182 24 181
f 146 159 20
f 20 159 17
f 182 181 81
f 81 181 185
f 201 185 180
f 180 185 181
f 202 203 83
f 83 203 84
f 205 206 204
f 204 206 85
f 207 22 184
f 184 22 21
f 179 24 208
f 208 24 23
f 208 209 179
f 179 209 205
f 209 210 205
f 205 210 206
f 212 206 211
f 211 206 210
f 179 205 180
f 180 205 204
f 213 176 88
f 88 176 214
f 86 85 212
f 212 85 206
f 193 217 218
f 217 219 218
f 218 219 220
f 219 18 220
f 220 18 17
f 19 221 20
f 20 221 144
f 222 223 225
f 225 223 224
f 175 226 176
f 176 226 214
f 227 87 214
f 214 87 88
f 220 17 228
f 228 17 159
f 134 213 60
f 60 213 88
f 138 229 151
f 151 229 152
f 193 192 210
f 210 192 211
f 230 194 218
f 218 194 193
f 231 232 228
f 228 232 230
f 233 234 91
f 91 234 89
f 235 236 93
f 93 236 92
f 230 232 234
f 234 232 237
f 47 238 48
f 48 238 239
f 240 191 235
f 235 191 236
f 5 8 116
f 116 8 241
f 242 243 189
f 189 243 160
f 244 245 98
f 98 245 99
f 156 246 47
f 47 246 238
f 76 247 77
f 77 247 248
f 250 125 249
f 249 125 124
f 252 253 251
f 251 253 254
f 111 110 36
f 36 110 255
f 256 33 255
f 255 33 36
f 257 258 154
f 154 258 155
f 63 169 133
f 133 169 139
f 66 170 63
f 63 170 169
f 173 170 129
f 129 170 66
f 129 128 173
f 173 128 259
f 128 260 259
f 259 260 261
f 213 134 262
f 262 134 137
f 263 264 186
f 186 264 187
f 112 265 113
f 113 265 266
f 11 267 268
f 234 233 230
f 230 233 194
f 153 269 70
f 70 269 67
f 175 178 165
f 165 178 141
f 150 153 94
f 94 153 70
f 271 221 270
f 270 221 207
f 269 153 272
f 272 153 152
f 121 45 109
f 109 45 108
f 47 50 156
f 156 50 157
f 57 273 58
f 58 273 274
f 145 275 260
f 260 275 261
f 276 149 143
f 143 149 78
f 148 269 75
f 75 269 272
f 207 277 270
f 270 277 278
f 195 196 49
f 49 196 50
f 59 135 60
f 60 135 134
f 83 104 202
f 202 104 279
f 149 148 78
f 78 148 75
f 247 278 248
f 248 278 277
f 183 182 84
f 84 182 81
f 48 239 281
f 281 239 282
f 227 223 283
f 283 223 222
f 223 226 224
f 224 226 168
f 281 282 224
f 224 282 225
f 165 168 175
f 175 168 226
f 264 263 138
f 138 263 229
f 14 16 128
f 128 16 260
f 220 228 218
f 218 228 230
f 87 227 284
f 284 227 283
f 260 16 145
f 145 16 146
f 244 98 258
f 258 98 155
f 58 274 156
f 156 274 246
f 107 285 51
f 51 285 55
f 243 286 160
f 160 286 96
f 234 237 89
f 89 237 90
f 46 132 107
f 107 132 285
f 253 252 249
f 249 252 250
f 286 26 96
f 96 26 25
f 106 105 287
f 287 105 288
f 272 152 289
f 289 152 229
f 138 151 139
f 139 151 133
f 183 290 161
f 161 290 162
f 291 292 277
f 277 292 293
f 151 150 133
f 133 150 94
f 262 275 177
f 177 275 187
f 144 187 145
f 145 187 275
f 273 57 284
f 284 57 87
f 174 136 190
f 190 136 135
f 111 117 112
f 112 117 38
f 117 119 38
f 38 119 123
f 112 38 265
f 265 38 37
f 287 288 254
f 254 288 251
f 228 159 231
f 231 159 15
f 223 227 226
f 226 227 214
f 147 67 148
f 148 67 269
f 224 168 281
f 281 168 167
f 199 163 200
f 200 163 162
f 45 46 108
f 108 46 107
f 281 167 48
f 48 167 49
f 161 164 291
f 291 164 292
f 38 123 39
f 293 294 277
f 277 294 248
f 284 283 296
f 296 283 295
f 284 296 273
f 273 296 297
f 274 273 298
f 298 273 297
f 246 274 299
f 299 274 298
f 283 222 295
f 295 222 300
f 222 225 300
f 300 225 301
f 301 225 302
f 302 225 282
f 303 304 300
f 300 304 295
f 306 307 305
f 305 307 308
f 309 310 308
f 308 310 305
f 308 307 312
f 312 307 311
f 313 314 312
f 312 314 315
f 311 316 312
f 312 316 313
f 317 304 311
f 311 304 316
f 315 309 312
f 312 309 308
f 318 319 321
f 321 319 320
f 319 318 309
f 309 318 310
f 311 307 317
f 317 307 306
f 306 297 317
f 317 297 296
f 306 322 297
f 297 322 298
f 305 323 306
f 306 323 322
f 323 305 324
f 324 305 310
f 304 317 295
f 295 317 296
f 318 325 310
f 310 325 324
f 323 324 326
f 326 324 327
f 324 325 327
f 327 325 328
f 326 327 329
f 329 327 330
f 329 331 326
f 326 331 332
f 333 330 328
f 328 330 327
f 323 326 322
f 322 326 332
f 322 332 298
f 298 332 299
f 325 318 334
f 334 318 321
f 313 316 335
f 335 316 304
f 335 336 313
f 313 336 314
f 304 303 335
f 335 303 337
f 336 335 338
f 338 335 337
f 336 339 314
f 314 339 340
f 246 299 238
f 238 299 341
f 239 342 282
f 282 342 302
f 342 239 341
f 341 239 238
f 341 331 342
f 342 331 343
f 331 329 343
f 343 329 344
f 342 343 302
f 302 343 345
f 341 299 331
f 331 299 332
f 346 301 345
f 345 301 302
f 346 303 301
f 301 303 300
f 347 337 346
f 346 337 303
f 347 346 348
f 348 346 345
f 349 347 350
f 350 347 348
f 343 344 345
f 345 344 348
f 344 351 348
f 348 351 350
f 337 347 338
f 338 347 349
f 353 338 352
f 352 338 349
f 352 355 354
f 354 355 356
f 352 349 355
f 355 349 350
f 352 354 353
f 353 354 334
f 353 334 339
f 339 334 321
f 339 336 353
f 353 336 338
f 329 330 344
f 344 330 351
f 356 351 333
f 333 351 330
f 356 355 351
f 351 355 350
f 354 356 328
f 328 356 333
f 328 325 354
f 354 325 334
f 309 315 319
f 319 315 320
f 320 340 321
f 321 340 339
f 320 315 340
f 340 315 314
f 137 136 261
f 261 136 259
f 140 166 141
f 141 166 165
f 172 171 195
f 195 171 196
f 171 174 196
f 196 174 190
f 178 177 264
f 264 177 187
f 172 195 140
f 140 195 166
f 137 261 262
f 262 261 275
f 178 264 141
f 141 264 138
f 262 177 213
f 213 177 176
f 136 174 259
f 259 174 173
f 358 359 357
f 357 359 360
f 362 363 361
f 361 363 364
f 361 364 365
f 365 364 366
f 367 368 370
f 370 368 369
f 76 371 247
f 247 371 372
f 373 374 362
f 362 374 363
f 376 377 375
f 375 377 378
f 289 229 380
f 380 229 379
f 381 379 263
f 263 379 229
f 383 384 382
f 382 384 385
f 386 368 374
f 374 368 363
f 76 289 371
f 371 289 380
f 377 376 359
f 359 376 387
f 388 386 360
f 360 386 374
f 389 383 366
f 366 383 390
f 392 393 391
f 391 393 394
f 383 382 390
f 390 382 395
f 396 365 390
f 390 365 366
f 389 366 367
f 367 366 364
f 357 397 358
f 358 397 398
f 373 399 357
f 357 399 397
f 389 367 400
f 400 367 370
f 382 385 375
f 375 385 372
f 357 360 373
f 373 360 374
f 361 401 362
f 362 401 402
f 387 388 359
f 359 388 360
f 363 368 364
f 364 368 367
f 358 398 403
f 403 398 404
f 396 392 405
f 405 392 391
f 392 395 393
f 393 395 378
f 393 403 394
f 394 403 404
f 375 378 382
f 382 378 395
f 365 396 406
f 406 396 405
f 362 402 373
f 373 402 399
f 271 270 400
f 400 270 384
f 401 361 406
f 406 361 365
f 381 369 386
f 386 369 368
f 392 396 395
f 395 396 390
f 393 378 403
f 403 378 377
f 403 377 358
f 358 377 359
f 406 405 408
f 408 405 407
f 406 408 401
f 401 408 409
f 401 409 402
f 402 409 410
f 402 410 399
f 399 410 411
f 405 391 407
f 407 391 412
f 391 394 412
f 412 394 413
f 394 404 413
f 413 404 414
f 415 416 412
f 412 416 407
f 418 419 417
f 417 419 420
f 421 422 418
f 418 422 419
f 419 422 424
f 424 422 423
f 425 426 424
f 424 426 427
f 423 428 424
f 424 428 425
f 427 420 424
f 424 420 419
f 420 429 417
f 417 429 430
f 423 422 431
f 431 422 421
f 421 409 431
f 431 409 408
f 421 432 409
f 409 432 410
f 418 433 421
f 421 433 432
f 434 433 417
f 417 433 418
f 431 416 423
f 423 416 428
f 416 431 407
f 407 431 408
f 435 434 430
f 430 434 417
f 433 434 436
f 436 434 437
f 434 435 437
f 437 435 438
f 436 437 439
f 439 437 440
f 439 441 436
f 436 441 442
f 438 443 437
f 437 443 440
f 436 442 433
f 433 442 432
f 432 442 410
f 410 442 411
f 435 430 445
f 445 430 444
f 430 429 444
f 444 429 446
f 425 428 447
f 447 428 416
f 426 425 448
f 448 425 447
f 416 415 447
f 447 415 449
f 447 449 448
f 448 449 450
f 451 452 448
f 448 452 426
f 446 452 444
f 444 452 451
f 399 411 397
f 397 411 453
f 398 454 404
f 404 454 414
f 454 398 453
f 453 398 397
f 453 441 454
f 454 441 455
f 441 439 455
f 455 439 456
f 454 455 414
f 414 455 457
f 441 453 442
f 442 453 411
f 458 413 457
f 457 413 414
f 458 415 413
f 413 415 412
f 458 459 415
f 415 459 449
f 459 458 460
f 460 458 457
f 461 459 462
f 462 459 460
f 455 456 457
f 457 456 460
f 456 463 460
f 460 463 462
f 459 461 449
f 449 461 450
f 465 450 464
f 464 450 461
f 464 467 466
f 466 467 468
f 464 461 467
f 467 461 462
f 464 466 465
f 465 466 445
f 465 445 451
f 451 445 444
f 451 448 465
f 465 448 450
f 439 440 456
f 456 440 463
f 468 463 443
f 443 463 440
f 468 467 463
f 463 467 462
f 466 468 438
f 438 468 443
f 438 435 466
f 466 435 445
f 420 427 429
f 429 427 446
f 446 427 452
f 452 427 426
f 370 369 188
f 188 369 186
f 371 376 372
f 372 376 375
f 380 379 387
f 387 379 388
f 379 381 388
f 388 381 386
f 385 384 278
f 278 384 270
f 380 387 371
f 371 387 376
f 400 370 271
f 271 370 188
f 385 278 372
f 372 278 247
f 400 384 389
f 389 384 383
f 369 381 186
f 186 381 263
f 221 271 144
f 144 271 188
f 221 19 207
f 207 19 22
f 19 18 22
f 22 18 23
f 18 219 23
f 23 219 208
f 469 470 472
f 472 470 471
f 474 475 473
f 473 475 476
f 473 476 477
f 477 476 478
f 480 481 479
f 479 481 482
f 483 484 474
f 474 484 475
f 486 487 485
f 485 487 488
f 489 490 77
f 77 490 142
f 491 489 248
f 248 489 77
f 493 494 492
f 492 494 495
f 496 480 484
f 484 480 475
f 486 497 487
f 487 497 471
f 498 496 472
f 472 496 484
f 499 493 478
f 478 493 500
f 501 502 504
f 504 502 503
f 493 492 500
f 500 492 505
f 506 477 500
f 500 477 478
f 499 478 479
f 479 478 476
f 469 507 470
f 470 507 508
f 483 509 469
f 469 509 507
f 479 482 499
f 499 482 510
f 492 495 485
f 485 495 511
f 483 469 484
f 484 469 472
f 473 512 474
f 474 512 513
f 497 498 471
f 471 498 472
f 475 480 476
f 476 480 479
f 470 508 514
f 514 508 515
f 506 502 516
f 516 502 501
f 503 502 488
f 488 502 505
f 514 515 503
f 503 515 504
f 485 488 492
f 492 488 505
f 477 506 517
f 517 506 516
f 474 513 483
f 483 513 509
f 510 292 494
f 494 292 164
f 512 473 517
f 517 473 477
f 491 481 496
f 496 481 480
f 502 506 505
f 505 506 500
f 503 488 514
f 514 488 487
f 514 487 470
f 470 487 471
f 517 516 519
f 519 516 518
f 517 519 512
f 512 519 520
f 512 520 513
f 513 520 521
f 513 521 509
f 509 521 522
f 516 501 518
f 518 501 523
f 501 504 523
f 523 504 524
f 524 504 525
f 525 504 515
f 526 527 523
f 523 527 518
f 529 530 528
f 528 530 531
f 532 533 529
f 529 533 530
f 530 533 535
f 535 533 534
f 536 537 535
f 535 537 538
f 534 539 535
f 535 539 536
f 538 531 535
f 535 531 530
f 540 541 531
f 531 541 528
f 533 532 534
f 534 532 542
f 532 520 542
f 542 520 519
f 532 543 520
f 520 543 521
f 529 544 532
f 532 544 543
f 544 529 545
f 545 529 528
f 534 542 539
f 539 542 527
f 527 542 518
f 518 542 519
f 541 546 528
f 528 546 545
f 547 544 548
f 548 544 545
f 546 549 545
f 545 549 548
f 550 547 551
f 551 547 548
f 547 550 553
f 553 550 552
f 549 554 548
f 548 554 551
f 544 547 543
f 543 547 553
f 543 553 521
f 521 553 522
f 546 541 556
f 556 541 555
f 541 540 555
f 555 540 557
f 536 539 558
f 558 539 527
f 537 536 559
f 559 536 558
f 527 526 558
f 558 526 560
f 559 558 561
f 561 558 560
f 559 562 537
f 537 562 563
f 557 563 555
f 555 563 562
f 509 522 507
f 507 522 564
f 508 565 515
f 515 565 525
f 565 508 564
f 564 508 507
f 564 552 565
f 565 552 566
f 552 550 566
f 566 550 567
f 565 566 525
f 525 566 568
f 564 522 552
f 552 522 553
f 569 524 568
f 568 524 525
f 569 526 524
f 524 526 523
f 570 560 569
f 569 560 526
f 570 569 571
f 571 569 568
f 572 570 573
f 573 570 571
f 566 567 568
f 568 567 571
f 567 574 571
f 571 574 573
f 570 572 560
f 560 572 561
f 576 561 575
f 575 561 572
f 575 578 577
f 577 578 579
f 575 572 578
f 578 572 573
f 575 577 576
f 576 577 556
f 576 556 562
f 562 556 555
f 562 559 576
f 576 559 561
f 550 551 567
f 567 551 574
f 579 574 554
f 554 574 551
f 579 578 574
f 574 578 573
f 579 554 577
f 577 554 549
f 549 546 577
f 577 546 556
f 531 538 540
f 540 538 557
f 557 538 563
f 563 538 537
f 481 294 482
f 482 294 293
f 580 486 511
f 511 486 485
f 490 489 497
f 497 489 498
f 489 491 498
f 498 491 496
f 163 495 164
f 164 495 494
f 580 490 486
f 486 490 497
f 482 293 510
f 510 293 292
f 495 163 511
f 511 163 199
f 494 493 510
f 510 493 499
f 481 491 294
f 294 491 248
f 582 583 581
f 581 583 584
f 586 587 585
f 585 587 588
f 585 588 589
f 589 588 590
f 592 593 591
f 591 593 594
f 595 596 598
f 598 596 597
f 599 600 586
f 586 600 587
f 601 602 604
f 604 602 603
f 605 606 608
f 608 606 607
f 609 607 200
f 200 607 606
f 610 611 613
f 613 611 612
f 600 614 587
f 587 614 592
f 596 605 597
f 597 605 608
f 602 615 603
f 603 615 583
f 616 614 584
f 584 614 600
f 611 618 617
f 617 618 590
f 620 621 619
f 619 621 622
f 610 623 611
f 611 623 618
f 624 589 618
f 618 589 590
f 617 590 591
f 591 590 588
f 581 625 582
f 582 625 626
f 599 627 581
f 581 627 625
f 591 594 617
f 617 594 628
f 601 610 598
f 598 610 613
f 581 584 599
f 599 584 600
f 585 629 586
f 586 629 630
f 615 616 583
f 583 616 584
f 587 592 588
f 588 592 591
f 582 626 631
f 631 626 632
f 624 620 633
f 633 620 619
f 621 620 604
f 604 620 623
f 631 632 621
f 621 632 622
f 610 601 623
f 623 601 604
f 589 624 634
f 634 624 633
f 586 630 599
f 599 630 627
f 203 202 628
f 628 202 612
f 629 585 634
f 634 585 589
f 609 593 614
f 614 593 592
f 620 624 623
f 623 624 618
f 631 621 603
f 603 621 604
f 582 631 583
f 583 631 603
f 634 633 636
f 636 633 635
f 634 636 629
f 629 636 637
f 629 637 630
f 630 637 638
f 630 638 627
f 627 638 639
f 633 619 635
f 635 619 640
f 619 622 640
f 640 622 641
f 641 622 642
f 642 622 632
f 644 635 643
f 643 635 640
f 645 646 648
f 648 646 647
f 649 650 646
f 646 650 647
f 647 650 652
f 652 650 651
f 652 653 655
f 655 653 654
f 651 656 652
f 652 656 653
f 655 648 652
f 652 648 647
f 648 657 645
f 645 657 658
f 650 649 651
f 651 649 659
f 649 637 659
f 659 637 636
f 649 660 637
f 637 660 638
f 661 660 646
f 646 660 649
f 662 661 645
f 645 661 646
f 651 659 656
f 656 659 644
f 644 659 635
f 635 659 636
f 663 662 658
f 658 662 645
f 664 661 665
f 665 661 662
f 663 666 662
f 662 666 665
f 667 664 668
f 668 664 665
f 664 667 670
f 670 667 669
f 666 671 665
f 665 671 668
f 661 664 660
f 660 664 670
f 660 670 638
f 638 670 639
f 658 672 663
f 663 672 673
f 658 657 672
f 672 657 674
f 653 656 675
f 675 656 644
f 653 675 654
f 654 675 676
f 675 644 677
f 677 644 643
f 676 675 678
f 678 675 677
f 679 680 676
f 676 680 654
f 674 680 672
f 672 680 679
f 627 639 625
f 625 639 681
f 626 682 632
f 632 682 642
f 681 682 625
f 625 682 626
f 669 683 681
f 681 683 682
f 667 684 669
f 669 684 683
f 682 683 642
f 642 683 685
f 681 639 669
f 669 639 670
f 686 641 685
f 685 641 642
f 641 686 640
f 640 686 643
f 686 687 643
f 643 687 677
f 687 686 688
f 688 686 685
f 689 687 690
f 690 687 688
f 683 684 685
f 685 684 688
f 684 691 688
f 688 691 690
f 687 689 677
f 677 689 678
f 693 678 692
f 692 678 689
f 692 695 694
f 694 695 696
f 692 689 695
f 695 689 690
f 692 694 693
f 693 694 673
f 693 673 679
f 679 673 672
f 679 676 693
f 693 676 678
f 684 667 691
f 691 667 668
f 696 691 671
f 671 691 668
f 696 695 691
f 691 695 690
f 694 696 666
f 666 696 671
f 666 663 694
f 694 663 673
f 648 655 657
f 657 655 674
f 674 655 680
f 680 655 654
f 593 162 594
f 594 162 290
f 598 597 601
f 601 597 602
f 615 608 616
f 616 608 607
f 607 609 616
f 616 609 614
f 697 595 613
f 613 595 598
f 597 608 602
f 602 608 615
f 594 290 628
f 628 290 203
f 628 612 617
f 617 612 611
f 593 609 162
f 162 609 200
f 105 29 698
f 698 29 699
f 268 126 701
f 701 126 700
f 126 125 700
f 700 125 702
f 252 703 250
f 250 703 704
f 32 268 705
f 705 268 701
f 288 105 706
f 706 105 698
f 29 32 699
f 699 32 705
f 707 251 706
f 706 251 288
f 250 704 125
f 125 704 702
f 703 252 707
f 707 252 251
f 706 708 707
f 707 708 709
f 707 709 703
f 703 709 710
f 703 710 704
f 704 710 711
f 704 711 702
f 702 711 712
f 706 698 708
f 708 698 713
f 698 699 713
f 713 699 714
f 699 705 714
f 714 705 715
f 717 708 716
f 716 708 713
f 719 720 718
f 718 720 721
f 722 723 719
f 719 723 720
f 724 725 723
f 723 725 720
f 724 726 725
f 725 726 727
f 728 721 725
f 725 721 720
f 721 728 729
f 729 728 730
f 729 731 721
f 721 731 718
f 724 723 732
f 732 723 722
f 722 710 732
f 732 710 709
f 722 733 710
f 710 733 711
f 719 734 722
f 722 734 733
f 734 719 735
f 735 719 718
f 724 732 726
f 726 732 717
f 717 732 708
f 708 732 709
f 731 736 718
f 718 736 735
f 737 734 738
f 738 734 735
f 736 739 735
f 735 739 738
f 740 737 741
f 741 737 738
f 737 740 743
f 743 740 742
f 739 744 738
f 738 744 741
f 734 737 733
f 733 737 743
f 733 743 711
f 711 743 712
f 736 731 746
f 746 731 745
f 731 729 745
f 745 729 730
f 727 726 747
f 747 726 717
f 748 727 749
f 749 727 747
f 747 717 750
f 750 717 716
f 749 747 751
f 751 747 750
f 749 752 748
f 748 752 753
f 730 753 745
f 745 753 752
f 728 725 748
f 748 725 727
f 730 728 753
f 753 728 748
f 700 702 754
f 754 702 712
f 705 701 715
f 715 701 755
f 754 755 700
f 700 755 701
f 742 756 754
f 754 756 755
f 740 757 742
f 742 757 756
f 755 756 715
f 715 756 758
f 754 712 742
f 742 712 743
f 759 714 758
f 758 714 715
f 714 759 713
f 713 759 716
f 759 760 716
f 716 760 750
f 760 759 761
f 761 759 758
f 762 760 763
f 763 760 761
f 756 757 758
f 758 757 761
f 757 764 761
f 761 764 763
f 760 762 750
f 750 762 751
f 766 751 765
f 765 751 762
f 767 765 769
f 769 765 768
f 765 762 768
f 768 762 763
f 765 767 766
f 766 767 746
f 766 746 752
f 752 746 745
f 752 749 766
f 766 749 751
f 757 740 764
f 764 740 741
f 769 764 744
f 744 764 741
f 769 768 764
f 764 768 763
f 767 769 739
f 739 769 744
f 739 736 767
f 767 736 746
f 219 217 208
f 208 217 209
f 209 217 210
f 210 217 193
f 198 580 199
f 199 580 511
f 76 75 289
f 289 75 272
f 277 207 291
f 291 207 184
f 290 183 203
f 203 183 84
f 490 580 142
f 142 580 198
f 142 198 143
f 143 198 197
f 149 276 72
f 72 276 73
f 104 103 279
f 279 103 770
f 770 596 279
f 279 596 595
f 605 596 771
f 771 596 770
f 771 770 772
f 772 770 103
f 772 103 773
f 773 103 102
f 155 774 101
f 101 774 102
f 773 102 97
f 97 102 774
f 775 773 100
f 100 773 97
f 773 775 772
f 772 775 776
f 772 776 771
f 771 776 777
f 200 606 197
f 197 606 777
f 189 71 778
f 778 71 74
f 97 774 98
f 98 774 155
f 183 161 184
f 184 161 291
f 777 276 197
f 197 276 143
f 777 606 771
f 771 606 605
f 613 612 697
f 697 612 202
f 595 697 279
f 279 697 202
f 73 276 776
f 776 276 777
f 776 775 73
f 73 775 74
f 100 778 775
f 775 778 74
f 778 100 189
f 189 100 99
f 245 242 99
f 99 242 189
f 131 33 256
f 28 1 95
f 95 1 62
f 27 2 28
f 28 2 1
f 265 115 266
f 266 115 114
f 95 62 69
f 69 62 64
f 62 61 64
f 64 61 65
f 61 13 65
f 65 13 130
f 13 12 130
f 130 12 14
f 31 11 32
f 32 11 268
f 15 12 31
f 31 12 11
f 31 30 15
f 15 30 231
f 30 106 231
f 231 106 232
f 287 237 106
f 106 237 232
f 254 90 287
f 287 90 237
f 253 44 254
f 254 44 90
f 253 249 44
f 44 249 7
f 267 127 268
f 268 127 126
f 10 3 241
f 241 3 116
f 3 2 116
f 116 2 114
f 2 27 114
f 114 27 266
f 27 26 266
f 266 26 113
f 26 286 113
f 113 286 110
f 286 243 110
f 110 243 255
f 243 242 255
f 255 242 256
f 242 245 256
f 256 245 131
f 245 244 131
f 131 244 132
f 265 37 115
f 115 37 41
f 41 37 42
f 42 37 40
f 92 91 40
f 40 91 42
f 236 233 92
f 92 233 91
f 191 194 236
f 236 194 233
f 258 285 244
f 244 285 132
f 257 55 258
f 258 55 285
f 257 154 201
f 201 154 185
f 56 201 204
f 204 201 180
f 55 257 56
f 56 257 201
f 204 85 56
f 56 85 52
f 86 122 53
f 53 122 79
f 212 215 86
f 86 215 122
f 211 216 212
f 212 216 215
f 192 280 211
f 211 280 216
f 191 240 192
f 192 240 280
f 249 124 7
f 7 124 8
f 124 127 8
f 8 127 241
f 127 267 241
f 241 267 10
f 10 267 9
f 9 267 11
