v 0.009745411574840546 0.0018933145329356194 0.6726042032241821
v 0.02111084759235382 -0.0023936759680509567 0.6726036071777344
v 0.013153836131095886 -0.0052793268114328384 0.6798593997955322
v 0.0038235485553741455 -0.001275205984711647 0.679252564907074
v 0.031242601573467255 -0.009280405938625336 0.6913337111473083
v 0.03734250366687775 -0.004161551594734192 0.699751615524292
v 0.020294737070798874 -0.0034929029643535614 0.7035382390022278
v 0.017306558787822723 -0.008489226922392845 0.6958400011062622
v -0.001812562346458435 -8.155405521392822e-05 0.6843407154083252
v 0.005764670670032501 -0.0054908860474824905 0.6848530173301697
v -0.0026372820138931274 0.007356975227594376 0.6859652400016785
v -0.0099516361951828 0.014207018539309502 0.6887079477310181
v -0.009281594306230545 0.006612586788833141 0.6862870454788208
v -0.017484888434410095 0.016976261511445045 0.6891779899597168
v -0.003251630812883377 0.023956255987286568 0.6889969706535339
v -0.01684919372200966 0.02592390775680542 0.6860829591751099
v 0.004494264721870422 0.03604765236377716 0.6690599918365479
v 0.008144181221723557 0.036765288561582565 0.6568341255187988
v -0.007792675867676735 0.03493528813123703 0.6552659869194031
v -0.010538419708609581 0.03395114094018936 0.6683393716812134
v 0.0032545551657676697 0.031116066500544548 0.6381736397743225
v -0.003603331744670868 0.03324470296502113 0.6472117900848389
v 0.012113600969314575 0.03640507906675339 0.6489300727844238
v 0.01745334267616272 0.03417219966650009 0.6405825614929199
v 0.017857074737548828 0.006199785508215427 0.6604095697402954
v 0.029065869748592377 0.0040815724059939384 0.6594156622886658
v 0.026922598481178284 0.002134256064891815 0.6639623045921326
v 0.015930354595184326 0.005050427280366421 0.664968729019165
v -0.0007157102227210999 0.01549676526337862 0.6920315623283386
v 0.006135184317827225 0.019072474911808968 0.6945276260375977
v 0.00040548667311668396 0.015674427151679993 0.689818799495697
v -0.0025819726288318634 0.010868155397474766 0.6890836954116821
v 0.05479767173528671 -0.0018400270491838455 0.6513729095458984
v 0.06665229052305222 0.0039402199909091 0.6536579728126526
v 0.06598144769668579 0.004351262003183365 0.6595393419265747
v 0.05533834546804428 -0.0007985616102814674 0.6561610102653503
v 0.05826985836029053 0.0006412873044610023 0.6847373843193054
v 0.06536413729190826 0.006528327241539955 0.6786032915115356
v 0.06946505606174469 0.01602836512029171 0.6876214742660522
v 0.06085961312055588 0.013987239450216293 0.6922668218612671
v 0.04865356534719467 -0.003107108175754547 0.693392276763916
v 0.05192176252603531 0.00825971458107233 0.6989267468452454
v 0.0388244166970253 0.006423963233828545 0.7043397426605225
v 0.02133653312921524 0.0053105102851986885 0.7067922353744507
v 0.06814137101173401 0.005835086107254028 0.6410975456237793
v 0.05981317162513733 0.0013998206704854965 0.6376379132270813
v -0.04929904639720917 0.0074497610330581665 0.6505355834960938
v -0.047336190938949585 0.011724062263965607 0.6467795968055725
v -0.04356608912348747 0.010946940630674362 0.6514301896095276
v -0.04644843190908432 0.007139923050999641 0.6542137861251831
v 0.061496034264564514 0.019994717091321945 0.6286274194717407
v 0.060067109763622284 0.029947694391012192 0.6294388175010681
v 0.06721357256174088 0.028844039887189865 0.6292093992233276
v 0.06875931471586227 0.019648216664791107 0.6303132176399231
v 0.051839232444763184 0.020245414227247238 0.626552164554596
v 0.050066813826560974 0.030785150825977325 0.6302997469902039
v -0.05829887092113495 0.011980600655078888 0.6586268544197083
v -0.0560484454035759 0.007747475057840347 0.6566146016120911
v -0.05339575186371803 0.008752265945076942 0.6610687971115112
v -0.05433174595236778 0.013413287699222565 0.6633428931236267
v -0.005544159561395645 0.0028837965801358223 0.6813570261001587
v -0.00040229037404060364 0.00309763103723526 0.6738859415054321
v -0.023256268352270126 0.005218882113695145 0.6781443357467651
v -0.014226630330085754 0.005282105877995491 0.6767803430557251
v -0.014525536447763443 0.005728395655751228 0.6833369731903076
v -0.02265128307044506 0.006048762239515781 0.6838310956954956
v -0.004538834095001221 0.00713611114770174 0.6554259657859802
v 0.007143300026655197 0.007399318274110556 0.6567096710205078
v 0.004173658788204193 0.007220281288027763 0.662385106086731
v -0.008886165916919708 0.006325173191726208 0.6627802848815918
v 0.011374767869710922 0.004498200491070747 0.6435644030570984
v -0.0005693398416042328 0.004740581847727299 0.6433354020118713
v 0.00297362357378006 0.0028950124979019165 0.635817289352417
v 0.011030405759811401 0.0022885892540216446 0.6373639106750488
v -0.021682433784008026 0.007273892872035503 0.6458528637886047
v -0.02830636128783226 0.011596543714404106 0.6455784440040588
v -0.02911445125937462 0.010664369910955429 0.6418670415878296
v -0.02117151767015457 0.007178065367043018 0.6414167284965515
v 0.07423897087574005 0.028844274580478668 0.6294489502906799
v 0.07549332082271576 0.019715690985322 0.63283771276474
v 0.012533601373434067 0.02417416125535965 0.6211304664611816
v 0.01851409673690796 0.016501108184456825 0.6156446933746338
v 0.007054805755615234 0.015240664593875408 0.6118584275245667
v 0.004039805382490158 0.023226505145430565 0.6186311841011047
v 0.05692566931247711 0.03761858493089676 0.6356982588768005
v 0.0643962100148201 0.03755930811166763 0.6333918571472168
v -0.058421142399311066 0.018174711614847183 0.6579511761665344
v -0.05350285768508911 0.01902172528207302 0.6626861095428467
v 0.039585284888744354 0.01802520453929901 0.7015421390533447
v 0.0217219740152359 0.014325075782835484 0.7050719857215881
v 0.052405938506126404 0.02144385501742363 0.6961168646812439
v 0.06066584587097168 0.025072455406188965 0.6910486221313477
v 0.06860169768333435 0.027489429339766502 0.6893272399902344
v -0.017213044688105583 0.005550929345190525 0.6711815595626831
v 0.005968879908323288 0.005285062827169895 0.6675742864608765
v 0.019486945122480392 0.006132559850811958 0.6558999419212341
v 0.024167750030755997 -0.0017639175057411194 0.6267367005348206
v 0.03477202355861664 -0.0020084381103515625 0.6285037398338318
v 0.0290537029504776 -0.0021124277263879776 0.6374147534370422
v 0.020940743386745453 -0.0012247376143932343 0.6339488625526428
v 0.018843907862901688 0.006978706922382116 0.614570677280426
v 0.015639491379261017 0.0010374756529927254 0.618960440158844
v 0.005491629242897034 0.001524249091744423 0.6164389252662659
v 0.007801730185747147 0.007001010701060295 0.6117697358131409
v 0.0008769705891609192 0.018366914242506027 0.6983596086502075
v 0.01156574860215187 0.02133454568684101 0.6986255049705505
v 0.06225217133760452 0.00993590522557497 0.6314338445663452
v 0.06887981295585632 0.010828651487827301 0.6352278590202332
v 0.07647563517093658 0.013530554249882698 0.637422502040863
v 0.042278952896595 -0.00011337082833051682 0.6569563746452332
v 0.05582544952630997 -0.0004101227968931198 0.6597636342048645
v 0.054954931139945984 -0.001567663624882698 0.6650272607803345
v 0.04181334376335144 -0.00036152172833681107 0.6600392460823059
v 0.03261110931634903 -0.00781860202550888 0.6761042475700378
v 0.0446663498878479 -0.007814964279532433 0.6814680099487305
v 0.021387021988630295 -0.009831937029957771 0.6837476491928101
v 0.06688756495714188 0.005053024739027023 0.6679846048355103
v 0.07568665593862534 0.006495502777397633 0.6614189147949219
v 0.07525626569986343 0.008131951093673706 0.6702386736869812
v 0.0766361802816391 0.007274020463228226 0.6517143249511719
v 0.07695653289556503 0.009450023993849754 0.6430918574333191
v 0.07220405340194702 0.04038745164871216 0.6317847967147827
v 0.07374115288257599 0.011331800371408463 0.6780083775520325
v 0.008321285247802734 -0.006440805271267891 0.6968163847923279
v 1.554936170578003e-05 -0.0039018727838993073 0.6972446441650391
v -0.00157257542014122 -0.001842789351940155 0.6900098323822021
v 0.005127079784870148 -0.004829404875636101 0.6893187761306763
v -0.02797986939549446 0.016582384705543518 0.6877525448799133
v -0.02566477283835411 0.009456915780901909 0.6866278648376465
v -0.015337003394961357 0.009772414341568947 0.6885950565338135
v 0.045223698019981384 -0.0028607789427042007 0.6450188159942627
v 0.04999294877052307 -0.00041249580681324005 0.6336961984634399
v -0.02543238364160061 0.0077937329187989235 0.6725603342056274
v -0.05378803610801697 0.01543707400560379 0.6675706505775452
v -0.0523371659219265 0.009941985830664635 0.6660835146903992
v -0.042494744062423706 0.011247476562857628 0.6781789660453796
v -0.04468347877264023 0.017572414129972458 0.6788891553878784
v -0.032813992351293564 0.016319599002599716 0.6661128401756287
v -0.028495322912931442 0.012187093496322632 0.6683276891708374
v -0.029872577637434006 0.015031760558485985 0.6658377051353455
v -0.03188258782029152 0.020611561834812164 0.6631647348403931
v -0.02580185793340206 0.010123221203684807 0.6332480907440186
v -0.018000705167651176 0.006621689535677433 0.6331515908241272
v -0.026187974959611893 0.0282343290746212 0.667608380317688
v -0.02602701261639595 0.031198300421237946 0.6807153224945068
v -0.012819996103644371 0.03269241750240326 0.6782405376434326
v -0.0014620572328567505 0.006245763972401619 0.6487116813659668
v -0.012066910043358803 0.005839887075126171 0.6466458439826965
v -0.011103302240371704 0.005427557043731213 0.6423933506011963
v -0.02056930772960186 0.006452599540352821 0.6676756739616394
v -0.02728922665119171 0.009717101231217384 0.6680383086204529
v -0.02604399248957634 0.007213690783828497 0.6636642217636108
v -0.01819458045065403 0.006413104943931103 0.6625022888183594
v 0.030740007758140564 0.01891208253800869 0.619121253490448
v 0.031551264226436615 0.007562146056443453 0.6175356507301331
v -0.05256786569952965 0.006027542054653168 0.6538442969322205
v -0.050062984228134155 0.0064249057322740555 0.6579498052597046
v 0.009945590049028397 0.006568636745214462 0.650114893913269
v 0.0017566606402397156 0.03270824998617172 0.677757978439331
v 0.021296486258506775 0.005379201844334602 0.6508634686470032
v -0.011809725314378738 0.022860925644636154 0.6273499131202698
v -0.012761030346155167 0.017620457336306572 0.6242491006851196
v -0.020498119294643402 0.020121127367019653 0.6266883015632629
v -0.018697617575526237 0.02436475083231926 0.6291475296020508
v -0.04107644408941269 0.02225116640329361 0.6543390154838562
v -0.04078563675284386 0.016581114381551743 0.6530805826187134
v -0.042109813541173935 0.016605820506811142 0.6494699120521545
v -0.04344121366739273 0.02210899256169796 0.6507322192192078
v -0.028436215594410896 0.008225241675972939 0.6720146536827087
v -0.029553323984146118 0.0061915358528494835 0.6781142950057983
v -0.03405778855085373 0.007105361670255661 0.6713037490844727
v -0.031725890934467316 0.010830480605363846 0.6676648259162903
v -0.03340096026659012 0.008458690717816353 0.6807816028594971
v -0.03832419961690903 0.007502460852265358 0.6754244565963745
v -0.044122274965047836 0.02621876448392868 0.658179521560669
v -0.049112096428871155 0.025613240897655487 0.6636770963668823
v -0.04042663797736168 0.028109479695558548 0.671485424041748
v -0.0366438664495945 0.026224028319120407 0.6651355624198914
v 0.03154934197664261 0.03746799752116203 0.6430179476737976
v 0.03532097488641739 0.033544041216373444 0.6334276795387268
v 0.021412000060081482 0.030180638656020164 0.6307681202888489
v 0.008293554186820984 0.027546748518943787 0.6276867389678955
v -0.004541873931884766 0.023769687861204147 0.6256682872772217
v -0.007931847125291824 0.028828654438257217 0.6354809999465942
v 0.0253446064889431 0.026969827711582184 0.624579906463623
v -0.037077002227306366 0.017225923016667366 0.6626679301261902
v -0.033683449029922485 0.025967959314584732 0.6732661128044128
v -0.03416379541158676 0.02198483981192112 0.6651091575622559
v 0.02284567803144455 0.0026549557223916054 0.6441744565963745
v -0.04962703585624695 0.006958417594432831 0.6634190082550049
v 0.05747044086456299 0.04142288491129875 0.6776492595672607
v 0.05750744044780731 0.04526560753583908 0.6653031706809998
v 0.04911484569311142 0.043256111443042755 0.6668847799301147
v 0.04898054152727127 0.0384490042924881 0.6800393462181091
v -0.042608652263879776 0.010224983096122742 0.6552373170852661
v -0.04554881155490875 0.00645655021071434 0.6590111255645752
v -0.017507389187812805 0.007700941991060972 0.6268235445022583
v -0.024482088163495064 0.012030861340463161 0.6283890604972839
v -0.02524409629404545 0.015603313222527504 0.626875102519989
v -0.019036388024687767 0.010602720081806183 0.6222445368766785
v 0.03854270279407501 0.03097502514719963 0.6292755603790283
v 5.640089511871338e-05 0.013837063685059547 0.6097491383552551
v -0.00010658800601959229 0.021353883668780327 0.6162661910057068
v 0.0475708544254303 0.0365455225110054 0.6361935138702393
v 0.04438009113073349 0.0405246764421463 0.6444525122642517
v 0.05382008105516434 0.04253736883401871 0.6449190974235535
v -0.019143544137477875 0.028696252033114433 0.6468696594238281
v 0.02684485912322998 0.039070356637239456 0.6500787734985352
v 0.04091644287109375 0.04149334505200386 0.6511767506599426
v 0.052080824971199036 0.04389728978276253 0.6520605683326721
v 0.06009294092655182 0.04612577334046364 0.6519536972045898
v 0.061230823397636414 0.04418922960758209 0.6441442966461182
v -0.05186920985579491 0.021030021831393242 0.6663326621055603
v -0.05144832283258438 0.02472187764942646 0.6591859459877014
v 0.06951797753572464 0.04754370078444481 0.6426966190338135
v 0.06801070272922516 0.04896092042326927 0.6517142057418823
v 0.03775086998939514 0.041723545640707016 0.6598194241523743
v 0.03448694944381714 0.040692977607250214 0.6697095036506653
v 0.024234306067228317 0.03924990072846413 0.6582999229431152
v 0.019716285169124603 0.03818627819418907 0.668209433555603
v -0.01966022700071335 0.03317246958613396 0.6567333340644836
v -0.06138123199343681 0.02235206961631775 0.64197838306427
v -0.05313519388437271 0.025316568091511726 0.6492891311645508
v -0.048973482102155685 0.022602930665016174 0.6460803747177124
v -0.05839942395687103 0.021653616800904274 0.6390283107757568
v -0.046839870512485504 0.025456303730607033 0.6541643142700195
v -0.056285321712493896 0.023776983842253685 0.6542454957962036
v 0.017172858119010925 0.0335850715637207 0.6793534159660339
v -0.03427790850400925 0.009601883590221405 0.6610816121101379
v 0.03357698768377304 0.033810004591941833 0.6828645467758179
v 0.009876053780317307 0.027839377522468567 0.6902347803115845
v 0.02176768332719803 0.026684196665883064 0.6932010054588318
v 0.04973652958869934 0.032597415149211884 0.6893026828765869
v 0.0369863361120224 0.02744457870721817 0.6957181096076965
v 0.06619780510663986 0.03670495003461838 0.6850338578224182
v 0.057727791368961334 0.0350676029920578 0.6862813830375671
v 0.024501167237758636 0.02236793376505375 0.7002126574516296
v -0.05548294633626938 0.007696337997913361 0.6414668560028076
v -0.053568389266729355 0.012331981211900711 0.6386706829071045
v 0.06537894904613495 0.04379486292600632 0.6768569946289062
v 0.011470820754766464 -0.008020821958780289 0.6878644824028015
v 0.03312657028436661 0.0008047902956604958 0.6474481225013733
v 0.031553782522678375 0.0028839372098445892 0.6522205471992493
v 0.04094579070806503 -0.00160212442278862 0.6302933692932129
v 0.03620339184999466 -0.0023571643978357315 0.6409111618995667
v -0.058874644339084625 0.005430001765489578 0.6452362537384033
v -0.030815795063972473 0.017697414383292198 0.6453150510787964
v -0.028715547174215317 0.014760289341211319 0.6447300910949707
v 0.010568805038928986 -0.0024601388722658157 0.7039028406143188
v 0.002408180385828018 -0.0013542622327804565 0.7040384411811829
v 0.001258987933397293 0.011444050818681717 0.7068085670471191
v 0.0017115585505962372 0.0043606627732515335 0.707748293876648
v 0.011307336390018463 0.005402291193604469 0.7073454260826111
v 0.01114356517791748 0.013057997450232506 0.7060015797615051
v 0.04230382293462753 -0.00031946878880262375 0.6544134020805359
v 0.042644254863262177 -0.0010656286031007767 0.6506666541099548
v 0.04201960563659668 0.019435305148363113 0.6228241920471191
v 0.04221677780151367 0.00804123841226101 0.6215853691101074
v -0.03631581366062164 0.013564681634306908 0.6829322576522827
v -0.030054152011871338 0.023128677159547806 0.6863425374031067
v -0.038025908172130585 0.019756590947508812 0.6830604076385498
v -0.042642585933208466 0.024161197245121002 0.6777522563934326
v -0.038028351962566376 0.014385628513991833 0.6602379679679871
v -0.0341496504843235 0.022036602720618248 0.6675339937210083
v 0.050330013036727905 -0.00486939400434494 0.672160804271698
v 0.039027921855449677 -0.0032810475677251816 0.6665855646133423
v 0.0015538036823272705 -0.0013520997017621994 0.6869430541992188
v -0.0027523264288902283 0.003584122285246849 0.686863899230957
v -0.013818230479955673 0.006532424129545689 0.6557348370552063
v -0.02931644394993782 0.028379976749420166 0.6503860950469971
v -0.03092583641409874 0.02979050949215889 0.6566645503044128
v -0.023358400911092758 0.0073531935922801495 0.6554576754570007
v -0.06527809798717499 0.009978894144296646 0.6492315530776978
v -0.0621538944542408 0.0062275417149066925 0.6475215554237366
v -0.03616959974169731 0.026054786518216133 0.6810566186904907
v -0.008475827053189278 0.003270549699664116 0.634466826915741
v -0.019832247868180275 0.023173412308096886 0.6448274850845337
v -0.029704511165618896 0.024846039712429047 0.6476575136184692
v 0.0010716617107391357 0.007409088313579559 0.6103626489639282
v 0.0661410316824913 0.04730229452252388 0.6648917198181152
v -0.04694410786032677 0.017449304461479187 0.6444082856178284
v -0.053800299763679504 0.017090044915676117 0.6376641988754272
v -0.06346238404512405 0.02097141370177269 0.6456276178359985
v -0.06537877023220062 0.01610369235277176 0.6494265198707581
v 0.0515366867184639 0.00819585844874382 0.626880407333374
v 0.030183851718902588 0.003942460753023624 0.6552822589874268
v 0.013409677892923355 0.020000524818897247 0.7015544772148132
v 0.0014746785163879395 0.017011750489473343 0.7026748061180115
v -0.029707301408052444 0.008987782523036003 0.653835117816925
v -0.005365639925003052 0.020098257809877396 0.6223016381263733
v -0.014187786728143692 0.027278682217001915 0.6345861554145813
v -0.01755034551024437 0.027369216084480286 0.6370168328285217
v -0.019762061536312103 0.024269722402095795 0.6435397267341614
v -0.02543039433658123 0.019492199644446373 0.6457986831665039
v -0.06663157045841217 0.01988568902015686 0.6411016583442688
v -0.06807683408260345 0.015688758343458176 0.6454260945320129
v -0.06785528361797333 0.010061364620923996 0.6463290452957153
v -0.0651051327586174 0.006254516541957855 0.645074188709259
v -0.0609748512506485 0.005467671900987625 0.6428853869438171
v -0.06480484455823898 0.020809512585401535 0.6371526718139648
v -0.06197492033243179 0.01954486221075058 0.6346497535705566
v -0.05655406787991524 0.01618950068950653 0.6349912285804749
v -0.06656567752361298 0.01831759512424469 0.6324807405471802
v -0.07115606963634491 0.015863381326198578 0.6344842910766602
v -0.07126519829034805 0.0015915073454380035 0.6367785930633545
v -0.07127345353364944 0.0061185769736766815 0.6407398581504822
v -0.07275637984275818 0.006348948925733566 0.6383187770843506
v -0.07343690097332001 0.002937179058790207 0.6344636082649231
v -0.07492972910404205 0.00048455968499183655 0.6298584342002869
v -0.07273654639720917 -0.00149550661444664 0.6320029497146606
v -0.07260726392269135 0.011134296655654907 0.6377968788146973
v -0.07376103848218918 0.00704033300280571 0.6321086883544922
v -0.07255016267299652 0.010142151266336441 0.6293216943740845
v -0.07424135506153107 0.00647445023059845 0.6250183582305908
v -0.07556238770484924 0.0038138553500175476 0.6273607611656189
v -0.0722532719373703 0.012909885495901108 0.633405327796936
v -0.07210683822631836 0.012679863721132278 0.6398140788078308
v -0.07404346019029617 -0.002278827130794525 0.6273739337921143
v -0.07588858157396317 -0.0004348866641521454 0.62708580493927
v -0.07608388364315033 0.00195293128490448 0.6246688365936279
v -0.07492950558662415 -0.0002414993941783905 0.6226399540901184
v -0.06618545204401016 0.004692040383815765 0.6429636478424072
v -0.0688677430152893 0.00015081092715263367 0.636911153793335
v -0.06954622268676758 -0.002127554267644882 0.6310724020004272
v -0.07121886312961578 -0.002761807292699814 0.6265298128128052
v -0.06551551818847656 -0.00010807812213897705 0.6340858936309814
v -0.06696662306785583 -0.0014849305152893066 0.6295372247695923
v -0.0681525319814682 -0.0016268827021121979 0.6254701614379883
v -0.06287822127342224 0.001385655254125595 0.6307458281517029
v -0.06506732106208801 6.421282887458801e-05 0.6273017525672913
v -0.05887048318982124 0.006825979799032211 0.6392059922218323
v -0.06141814589500427 0.0051996707916259766 0.6424787640571594
v -0.06618782877922058 -0.0008286647498607635 0.6249387860298157
v -0.07281962037086487 -0.0005633942782878876 0.6215457320213318
v -0.07021655887365341 0.013059470802545547 0.6283243894577026
v -0.07165244221687317 0.00753851979970932 0.6233774423599243
v -0.06794179230928421 0.013441167771816254 0.6270757913589478
v -0.06968948990106583 0.008264005184173584 0.6220861673355103
v -0.07377950847148895 0.004155445843935013 0.6206581592559814
v -0.0749473124742508 0.004184242337942123 0.6230204701423645
v -0.05715784430503845 0.007731523364782333 0.640021800994873
v -0.05546130985021591 0.012391433119773865 0.6368783116340637
v -0.056770309805870056 0.011421103030443192 0.6353453993797302
v -0.06136032193899155 0.004838574677705765 0.6274412274360657
v -0.058048032224178314 0.014667011797428131 0.632629930973053
v -0.06320209056138992 0.016799181699752808 0.630469799041748
v -0.06553097814321518 0.011962853372097015 0.6254715919494629
v -0.06283581256866455 0.00956551730632782 0.625320315361023
v -0.06710325926542282 0.007543250918388367 0.6219713687896729
v -0.06525948643684387 0.00595514103770256 0.6227846741676331
v -0.06419672816991806 0.00243951752781868 0.6245108842849731
v -0.06854988634586334 0.00365409255027771 0.6205031275749207
v -0.07151007652282715 0.004097659140825272 0.620079517364502
v -0.06934427469968796 5.872547626495361e-05 0.6219014525413513
v -0.06674706935882568 0.0035761483013629913 0.6213669776916504
v -0.06697478145360947 0.0009373314678668976 0.6230388283729553
v -0.052884988486766815 0.02214236557483673 0.6249640583992004
v -0.05075030028820038 0.027695802971720695 0.6247134208679199
v -0.05007840692996979 0.023181922733783722 0.6304973363876343
v -0.05302778631448746 0.019644947722554207 0.6318114399909973
v -0.06326628476381302 0.024075951427221298 0.6340543031692505
v -0.060440436005592346 0.020492225885391235 0.6299117803573608
v -0.06051478162407875 0.02087191864848137 0.6380289793014526
v -0.060872312635183334 0.026433203369379044 0.6406101584434509
v -0.06250408291816711 0.02991814911365509 0.6354066729545593
v -0.057803697884082794 0.030922653153538704 0.6407337784767151
v -0.059774890542030334 0.028579968959093094 0.6448809504508972
v -0.05929484963417053 0.021593088284134865 0.6431457996368408
v -0.04432176426053047 0.01875334419310093 0.6562896370887756
v -0.04480326920747757 0.02574845217168331 0.6572641730308533
v -0.033340249210596085 0.01600312441587448 0.64451664686203
v -0.033552322536706924 0.020568694919347763 0.6438571810722351
v -0.05639822781085968 0.020266126841306686 0.6264853477478027
v -0.05714119225740433 0.018767476081848145 0.6342741250991821
v -0.04484737291932106 0.027121661230921745 0.63055419921875
v -0.046428970992565155 0.02198486030101776 0.6306711435317993
v -0.04751710966229439 0.02703961357474327 0.6289515495300293
v -0.04814431816339493 0.03184813633561134 0.6299979090690613
v -0.03980878368020058 0.012305695563554764 0.6525068283081055
v -0.035529617220163345 0.013301779516041279 0.6490029692649841
v -0.04260650649666786 0.01458662562072277 0.6541048288345337
v -0.04625478386878967 0.03291203826665878 0.6334726214408875
v -0.049987830221652985 0.03645075112581253 0.6378490924835205
v -0.03760873153805733 0.033272091299295425 0.6488375663757324
v -0.034896478056907654 0.029466064646840096 0.6450302600860596
v -0.057226259261369705 0.017768550664186478 0.6398749947547913
v -0.05012083053588867 0.018140949308872223 0.6327969431877136
v -0.05352729186415672 0.01626557670533657 0.6357654333114624
v -0.0553874596953392 0.03406103327870369 0.6428492665290833
v -0.05460185185074806 0.03561550751328468 0.636565625667572
v -0.06202835589647293 0.04030248895287514 0.6208223700523376
v -0.055935341864824295 0.037725985050201416 0.6305432319641113
v -0.05237439647316933 0.03639779984951019 0.6271211504936218
v -0.05853572487831116 0.0405125766992569 0.6173719763755798
v -0.05132855474948883 0.03517508506774902 0.6335811018943787
v -0.05959013104438782 0.03528375178575516 0.6332390308380127
v -0.057821013033390045 0.028590155765414238 0.6112576723098755
v -0.0554826483130455 0.034301627427339554 0.6115150451660156
v -0.060980722308158875 0.025750113651156425 0.6125165820121765
v -0.04175209999084473 0.0319221168756485 0.6538729667663574
v -0.06748470664024353 0.026436513289809227 0.6206063032150269
v -0.06388594210147858 0.02449290081858635 0.6154630184173584
v -0.04983402043581009 0.03302442282438278 0.6251983046531677
v -0.05627945065498352 0.03878709301352501 0.6136434674263
v -0.06512735038995743 0.0380244106054306 0.6229329109191895
v -0.06787058711051941 0.03191685676574707 0.6243082284927368
v -0.06754317879676819 0.03777656704187393 0.6191397905349731
v -0.06948593258857727 0.032143667340278625 0.6199524402618408
v -0.0683060735464096 0.026371803134679794 0.6163182258605957
v -0.06492052972316742 0.02520265430212021 0.6120514273643494
v -0.06207937002182007 0.026738593354821205 0.6096833944320679
v -0.06545951962471008 0.04038024693727493 0.6168095469474792
v -0.062358103692531586 0.04150683432817459 0.6134331822395325
v -0.058637045323848724 0.03914376720786095 0.61098313331604
v -0.06829147785902023 0.04154176265001297 0.6100313663482666
v -0.07157015800476074 0.03862142935395241 0.6110665202140808
v -0.07566803693771362 0.02815810777246952 0.5967029333114624
v -0.07316145300865173 0.027235684916377068 0.602192759513855
v -0.07503461092710495 0.02897622063755989 0.6029641628265381
v -0.07753494381904602 0.02990596555173397 0.597964346408844
v -0.0723610371351242 0.0272151418030262 0.6085931062698364
v -0.07379357516765594 0.029071999713778496 0.6074414253234863
v -0.07377530634403229 0.033137816935777664 0.6095908284187317
v -0.07564807683229446 0.033718980848789215 0.6037542819976807
v -0.0744466707110405 0.03836401179432869 0.604392945766449
v -0.0778026133775711 0.039254941046237946 0.5995231866836548
v -0.07929867506027222 0.034648600965738297 0.5988685488700867
v -0.0735660120844841 0.036836061626672745 0.6086120009422302
v -0.07918489724397659 0.031459990888834 0.5950496792793274
v -0.07817592471837997 0.03133230656385422 0.5926655530929565
v -0.07288648188114166 0.03274308145046234 0.6124855279922485
v -0.06671848893165588 0.025219473987817764 0.6089956760406494
v -0.07050386071205139 0.026759814471006393 0.6005856394767761
v -0.07320381700992584 0.028743019327521324 0.5945895910263062
v -0.07619994878768921 0.032891977578401566 0.5909110903739929
v -0.0675855502486229 0.028736276552081108 0.5983436703681946
v -0.07109756022691727 0.03071393445134163 0.5931876301765442
v -0.07384928315877914 0.03433149307966232 0.5906921029090881
v -0.0651284009218216 0.03240423649549484 0.5968431830406189
v -0.06913387775421143 0.034279849380254745 0.5922314524650574
v -0.05949322134256363 0.03027672879397869 0.6067952513694763
v -0.06241537258028984 0.026506848633289337 0.6074016690254211
v -0.07160534709692001 0.03522132709622383 0.5910564064979553
v -0.0803784653544426 0.03566696122288704 0.5928760766983032
v -0.07787695527076721 0.03672342374920845 0.5907689929008484
v -0.08054906874895096 0.035208821296691895 0.5946828126907349
v -0.07341372966766357 0.040199603885412216 0.6041852831840515
v -0.0765046775341034 0.040791094303131104 0.59836745262146
v -0.0715487003326416 0.04204407334327698 0.603171169757843
v -0.075147844851017 0.04203462600708008 0.5967307090759277
v -0.07910555601119995 0.040004074573516846 0.5944127440452576
v -0.07993520796298981 0.038749657571315765 0.595385730266571
v -0.05926346406340599 0.030022893100976944 0.6092833280563354
v -0.057617075741291046 0.03522641956806183 0.609670102596283
v -0.05830278620123863 0.035667479038238525 0.6073865294456482
v -0.06448563933372498 0.03747802972793579 0.5974658131599426
v -0.059995025396347046 0.03996216133236885 0.6086106300354004
v -0.06490994989871979 0.04217805713415146 0.6088390350341797
v -0.06905882060527802 0.04271985962986946 0.6019747257232666
v -0.06633132696151733 0.04137387126684189 0.5993726253509521
v -0.07334621995687485 0.043035492300987244 0.5958544015884399
v -0.07025589048862457 0.04188030585646629 0.5954092144966125
v -0.0684792697429657 0.038153789937496185 0.5930047631263733
v -0.07590163499116898 0.04143121466040611 0.5921151638031006
v -0.07800815254449844 0.040761854499578476 0.5931744575500488
v -0.07565713673830032 0.037341319024562836 0.5904831290245056
v -0.07282751798629761 0.04112875461578369 0.5923961997032166
v -0.07239550352096558 0.037827104330062866 0.5909495949745178
v -0.05054447799921036 0.030101247131824493 0.6505880355834961
v -0.051780082285404205 0.031689029186964035 0.645317018032074
v -0.04943845048546791 0.0265071801841259 0.6423205733299255
v -0.048224546015262604 0.02586355060338974 0.6480712294578552
v -0.038661301136016846 0.034713126718997955 0.6532295346260071
v -0.042686354368925095 0.032103586941957474 0.6545460224151611
v -0.04129350185394287 0.02925320714712143 0.6527184844017029
v -0.03669045865535736 0.03181913122534752 0.6508090496063232
v -0.03764255717396736 0.039047613739967346 0.6499579548835754
v -0.035021182149648666 0.035242628306150436 0.6468862891197205
v -0.0335376150906086 0.03141964226961136 0.649855375289917
v -0.0387076772749424 0.0279536172747612 0.6512836813926697
v -0.027772579342126846 0.02091846987605095 0.6471220850944519
v -0.023460891097784042 0.026452604681253433 0.6462568044662476
v -0.047035880386829376 0.030543483793735504 0.6532875299453735
v -0.04537661001086235 0.02736225351691246 0.651587724685669
v -0.04364432767033577 0.02893453650176525 0.6337482333183289
v -0.04520922154188156 0.025080109015107155 0.6365241408348083
v -0.0484558641910553 0.029987454414367676 0.637994110584259
v -0.04620438069105148 0.03379414230585098 0.6361557841300964
v -0.03135589510202408 0.01292520109564066 0.6410976052284241
v -0.030036121606826782 0.013518591411411762 0.635080873966217
v -0.03131872043013573 0.01644558645784855 0.6450155377388
v -0.03955434635281563 0.033495672047138214 0.6338932514190674
v -0.03417854383587837 0.03615504503250122 0.6378831267356873
v -0.0246885959059 0.02972974069416523 0.6333268880844116
v -0.027461227029561996 0.025103997439146042 0.6303585171699524
v -0.04261795058846474 0.0250592939555645 0.6506361365318298
v -0.04553703963756561 0.022594692185521126 0.640846848487854
v -0.04527534544467926 0.022477956488728523 0.6468464136123657
v -0.032394889742136 0.03472224250435829 0.6450241208076477
v -0.03688734024763107 0.03749275580048561 0.640612006187439
v -0.04897138103842735 0.0526292510330677 0.6507216095924377
v -0.04391070082783699 0.04058552533388138 0.6395199298858643
v -0.048877276480197906 0.03833023086190224 0.6396806836128235
v -0.05306151881814003 0.05194614827632904 0.650000274181366
v -0.04215753450989723 0.03719561547040939 0.6366708874702454
v -0.039215125143527985 0.041075244545936584 0.6437062621116638
v -0.0567765049636364 0.0437856949865818 0.6594709753990173
v -0.05792641267180443 0.045680850744247437 0.6545254588127136
v -0.05321221798658371 0.042539846152067184 0.6611842513084412
v -0.02187051624059677 0.030565492808818817 0.640762448310852
v -0.029133547097444534 0.01851039007306099 0.6303543448448181
v -0.046781498938798904 0.04542805626988411 0.6617327332496643
v -0.05023537203669548 0.04327161982655525 0.6622496247291565
v -0.05096009373664856 0.03500806540250778 0.6411477327346802
v -0.05655484274029732 0.04939461126923561 0.6510845422744751
v -0.045403316617012024 0.05137457326054573 0.6533046960830688
v -0.04371781647205353 0.0483250692486763 0.6579582691192627
v -0.04755166172981262 0.05492589250206947 0.6545878052711487
v -0.046051133424043655 0.0520821288228035 0.6593307256698608
v -0.04838581755757332 0.05006342753767967 0.6635386347770691
v -0.0518159344792366 0.048362672328948975 0.6644068360328674
v -0.05500786751508713 0.047608841210603714 0.6635916233062744
v -0.05093833804130554 0.05642874911427498 0.6525176763534546
v -0.05461530759930611 0.0558527372777462 0.6522529721260071
v -0.05739174410700798 0.05174308270215988 0.6528198719024658
v -0.05237877368927002 0.059850458055734634 0.6538951396942139
v -0.04857887327671051 0.060475364327430725 0.6573752164840698
v -0.053183652460575104 0.06644901633262634 0.6716808080673218
v -0.05212601274251938 0.0614609532058239 0.669449508190155
v -0.05138316750526428 0.06221061572432518 0.6687397360801697
v -0.05187823995947838 0.06731760501861572 0.6709332466125488
v -0.04916750639677048 0.056494127959012985 0.6660071611404419
v -0.04909598082304001 0.05874025821685791 0.6661165356636047
v -0.047841861844062805 0.059512119740247726 0.6626287698745728
v -0.049163538962602615 0.06524643301963806 0.6650750637054443
v -0.051191117614507675 0.06637248396873474 0.6596718430519104
v -0.051939718425273895 0.07037815451622009 0.6622398495674133
v -0.049870073795318604 0.06979277729988098 0.6673349142074585
v -0.04869742691516876 0.06176908686757088 0.6590477824211121
v -0.0522942952811718 0.07036539912223816 0.6710374355316162
v -0.05304652452468872 0.07041679322719574 0.6728335022926331
v -0.04741891846060753 0.05739409103989601 0.661613404750824
v -0.05229952931404114 0.05327833071351051 0.6672258377075195
v -0.05451319366693497 0.06018304452300072 0.6703037619590759
v -0.056015901267528534 0.0652875304222107 0.6728569269180298
v -0.05662067234516144 0.06950284540653229 0.6724055409431458
v -0.057961151003837585 0.05960537865757942 0.6689369678497314
v -0.05867685377597809 0.06471765041351318 0.6711155772209167
v -0.059197958558797836 0.0685398280620575 0.6708878874778748
v -0.06019841507077217 0.05958859995007515 0.6666641235351562
v -0.060677431523799896 0.06455254554748535 0.6685448288917542
v -0.05814684182405472 0.05008082464337349 0.6622597575187683
v -0.055444296449422836 0.051135119050741196 0.665529191493988
v -0.0603916198015213 0.06774860620498657 0.6691401600837708
v -0.05273064970970154 0.0734327882528305 0.6691553592681885
v -0.056871749460697174 0.07319560647010803 0.6683847308158875
v -0.05188116803765297 0.07208646833896637 0.6685591340065002
v -0.05195504054427147 0.06600739061832428 0.6580060720443726
v -0.05351740121841431 0.0714849978685379 0.6607916355133057
v -0.05437611788511276 0.06537464261054993 0.6567205786705017
v -0.0560789555311203 0.07098397612571716 0.6596787571907043
v -0.05340642109513283 0.07374471426010132 0.664053738117218
v -0.05259121581912041 0.0730132907629013 0.6645997762680054
v -0.05761456862092018 0.047114625573158264 0.6604529023170471
v -0.058732032775878906 0.04881545156240463 0.6561107039451599
v -0.059521935880184174 0.05145088583230972 0.6581230759620667
v -0.06147899478673935 0.06142136827111244 0.6630232334136963
v -0.05836333706974983 0.05401316285133362 0.6545426249504089
v -0.055705346167087555 0.05933374911546707 0.6540746092796326
v -0.057304978370666504 0.06448765099048615 0.6572967767715454
v -0.05997031182050705 0.06341886520385742 0.6594206690788269
v -0.058520399034023285 0.06970961391925812 0.6600067615509033
v -0.059944428503513336 0.06759516894817352 0.6612856984138489
v -0.0619826503098011 0.06596365571022034 0.6652041673660278
v -0.058527734130620956 0.0717834085226059 0.6633860468864441
v -0.05613416060805321 0.07348349690437317 0.6633031964302063
v -0.05944802984595299 0.071499764919281 0.6677020788192749
v -0.060173168778419495 0.06989629566669464 0.6636362075805664
v -0.060876861214637756 0.06953179836273193 0.666877269744873
v -0.029503092169761658 0.015197157859802246 0.6313875317573547
v -0.022651612758636475 0.029763536527752876 0.6251019835472107
v -0.02477627620100975 0.03244525194168091 0.6234578490257263
v -0.026429105550050735 0.027717364951968193 0.6195036768913269
v -0.0245758518576622 0.025001714006066322 0.62175452709198
v -0.013119818642735481 0.029134921729564667 0.6216310858726501
v -0.016267571598291397 0.028264474123716354 0.6244343519210815
v -0.016693897545337677 0.025355106219649315 0.6218463182449341
v -0.013397613540291786 0.026229046285152435 0.6186206936836243
v -0.01208522915840149 0.03213624283671379 0.6180306673049927
v -0.012710491195321083 0.029385054484009743 0.614769458770752
v -0.011589836329221725 0.027098800987005234 0.6199478507041931
v -0.015445832163095474 0.02505745366215706 0.6225987076759338
v -0.010529952123761177 0.01885353773832321 0.6232483983039856
v -0.006621375679969788 0.021305454894900322 0.6207577586174011
v -0.006959246471524239 0.008916552178561687 0.6075258255004883
v -0.007078556343913078 0.004820144735276699 0.6128868460655212
v -0.015353681519627571 0.013050859794020653 0.6102979183197021
v -0.011775005608797073 0.015771113336086273 0.6077778339385986
v -0.01959487982094288 0.028466643765568733 0.6255333423614502
v -0.021286441013216972 0.02538764476776123 0.6234340071678162
v -0.02047106996178627 0.024445487186312675 0.609327495098114
v -0.023739304393529892 0.023368528112769127 0.6126890182495117
v -0.026889672502875328 0.029376531019806862 0.6159395575523376
v -0.02430637925863266 0.031321585178375244 0.6120157241821289
v -0.01040508784353733 0.005060246214270592 0.6171222925186157
v -0.012698104605078697 0.006835080683231354 0.6206384301185608
v -0.017233509570360184 0.00906419288367033 0.6188181042671204
v -0.0177436713129282 0.012168598361313343 0.6143541932106018
v -0.01772647351026535 0.013381526805460453 0.6222657561302185
v -0.016822338104248047 0.026433393359184265 0.6085526347160339
v -0.012677675113081932 0.028286077082157135 0.6099622845649719
v -0.003316260874271393 0.020443588495254517 0.6090777516365051
v -0.006689209491014481 0.01763944700360298 0.6076616048812866
v -0.019695663824677467 0.022854052484035492 0.6230858564376831
v -0.024988994002342224 0.02334248274564743 0.6170881986618042
v -0.022729313001036644 0.021462969481945038 0.6203492879867554
v -0.010034913197159767 0.02859584055840969 0.6149004101753235
v -0.015463266521692276 0.032294608652591705 0.6110770106315613
v -0.016269532963633537 0.04413719102740288 0.6209160089492798
v -0.019318191334605217 0.03776450455188751 0.6142979860305786
v -0.02292349375784397 0.03741642087697983 0.6169281005859375
v -0.01900489069521427 0.044378332793712616 0.6223962903022766
v -0.019582901149988174 0.031007442623376846 0.6094765067100525
v -0.014436159282922745 0.03606382757425308 0.6148207783699036
v -0.020568672567605972 0.03669154644012451 0.6309012174606323
v -0.022393848747015 0.04009286314249039 0.6280770897865295
v -0.01804741472005844 0.03482925519347191 0.6314026117324829
v -0.0029380731284618378 0.022843241691589355 0.615212619304657
v -0.01161862164735794 0.035004958510398865 0.6284937858581543
v -0.014855710789561272 0.03442252427339554 0.6311542391777039
v -0.024726759642362595 0.034957751631736755 0.6205624341964722
v -0.021359756588935852 0.04291205853223801 0.6249268054962158
v -0.01248038187623024 0.042096298187971115 0.6212679147720337
v -0.009929614141583443 0.03791651874780655 0.6241055727005005
v -0.010673720389604568 0.04375170171260834 0.6249998807907104
v -0.00951564870774746 0.03987770155072212 0.6278915405273438
v -0.012276336550712585 0.03745710849761963 0.6334254741668701
v -0.015717586502432823 0.036973003298044205 0.6342398524284363
v -0.018854524940252304 0.0376647487282753 0.6338858008384705
v -0.014541015028953552 0.04607826843857765 0.6238433122634888
v -0.017545821145176888 0.04623745009303093 0.624519407749176
v -0.020691437646746635 0.04450998082756996 0.6260860562324524
v -0.01298501156270504 0.04828723892569542 0.6274173855781555
v -0.010088151320815086 0.047059524804353714 0.6309735774993896
v -0.014951398596167564 0.05056537315249443 0.6426296830177307
v -0.015318203717470169 0.04721147567033768 0.6407982707023621
v -0.014334848150610924 0.0474504791200161 0.6402868032455444
v -0.013855548575520515 0.050508368760347366 0.6426159739494324
v -0.01390305906534195 0.04287448152899742 0.6382015347480774
v -0.013298673555254936 0.044446785002946854 0.6380740404129028
v -0.011272376403212547 0.04456774890422821 0.635236382484436
v -0.011000050231814384 0.04864903539419174 0.6378300189971924
v -0.010733367875218391 0.05202928185462952 0.6338034272193909
v -0.010457808151841164 0.05487803369760513 0.6363958120346069
v -0.010395893827080727 0.05152507126331329 0.6397215723991394
v -0.010130142793059349 0.047697827219963074 0.6328356862068176
v -0.01254001073539257 0.05257175490260124 0.6435648202896118
v -0.013239504769444466 0.05340925604104996 0.644382655620575
v -0.01025131344795227 0.04269760847091675 0.6342545747756958
v -0.017576301470398903 0.04149764031171799 0.638068437576294
v -0.017639322206377983 0.04777422919869423 0.6414717435836792
v -0.016461508348584175 0.05190766602754593 0.6436607837677002
v -0.01469353400170803 0.05506211519241333 0.6440015435218811
v -0.019702846184372902 0.047819070518016815 0.6399250030517578
v -0.01842249371111393 0.05280877649784088 0.642907440662384
v -0.016740811988711357 0.055856481194496155 0.6431145071983337
v -0.021532906219363213 0.048806529492139816 0.6373712420463562
v -0.0197183545678854 0.053403228521347046 0.6406368613243103
v -0.02226896584033966 0.04271944239735603 0.6333762407302856
v -0.020277919247746468 0.04178416728973389 0.6362497210502625
v -0.017726270481944084 0.05562455579638481 0.6416116952896118
v -0.010866867378354073 0.05563812702894211 0.6422442197799683
v -0.013339376077055931 0.057264313101768494 0.6419621706008911
v -0.010040795430541039 0.05449733883142471 0.6415597200393677
v -0.011162970215082169 0.05256316438317299 0.6326278448104858
v -0.011099988594651222 0.056267764419317245 0.6357555985450745
v -0.013010423630475998 0.05338697507977486 0.6312165856361389
v -0.012983860448002815 0.05725822597742081 0.6352757215499878
v -0.010847335681319237 0.0573025718331337 0.638997495174408
v -0.010098068043589592 0.0556245855987072 0.6389544010162354
v -0.021610407158732414 0.039827607572078705 0.6323896646499634
v -0.022038307040929794 0.041667111217975616 0.6291801929473877
v -0.022175397723913193 0.04451129585504532 0.629908561706543
v -0.021464450284838676 0.050508830696344376 0.6340458393096924
v -0.01970985159277916 0.04691700264811516 0.6270110607147217
v -0.01601726934313774 0.04814435914158821 0.6263830661773682
v -0.015598513185977936 0.05340112745761871 0.6308134198188782
v -0.018694257363677025 0.052719537168741226 0.6315588355064392
v -0.015133792534470558 0.05745689570903778 0.6355180144309998
v -0.017923789098858833 0.05650384724140167 0.6359944939613342
v -0.01985928602516651 0.05490674078464508 0.6378636956214905
v -0.014792749658226967 0.05814328417181969 0.6392540335655212
v -0.012903423979878426 0.058307696133852005 0.6392725110054016
v -0.01532716490328312 0.057451095432043076 0.6413015723228455
v -0.016644885763525963 0.05757710337638855 0.6390098929405212
v -0.017346655949950218 0.05680466070771217 0.640198826789856
v -0.0060973335057497025 0.013068427331745625 0.6071689128875732
v -0.014165110886096954 0.015543406829237938 0.697852611541748
v -0.013641387224197388 0.013730252161622047 0.6924567818641663
v -0.01467118039727211 -0.0023462511599063873 0.6929188966751099
v -0.014980968087911606 0.003276187926530838 0.6886224150657654
v -0.014909820631146431 -0.003916477784514427 0.6996021270751953
v -0.014515580609440804 0.0025348272174596786 0.708170473575592
v -0.01376730389893055 -0.0018040351569652557 0.7048882842063904
v -0.014364538714289665 0.009051324799656868 0.6886459589004517
v -0.014115802943706512 0.01449824869632721 0.703476071357727
v -0.014121176674962044 0.009235505014657974 0.7083238363265991
v -0.02439812198281288 0.016735967248678207 0.7026665210723877
v -0.02522311732172966 0.010082513093948364 0.7077419757843018
v -0.026121675968170166 0.002943171188235283 0.7075878381729126
v -0.023095503449440002 -0.0022189076989889145 0.7029964327812195
v -0.02191973105072975 -0.004299798980355263 0.6984924077987671
v -0.020936153829097748 0.01640985906124115 0.6956511735916138
v -0.019390413537621498 0.014296392910182476 0.6906123161315918
v -0.018632754683494568 0.008443910628557205 0.6874092221260071
v -0.02713301032781601 0.01608896628022194 0.6907867193222046
v -0.036211103200912476 0.01257738471031189 0.6909859776496887
v -0.046279072761535645 -0.004092849791049957 0.6889905333518982
v -0.040658943355083466 -0.003458155319094658 0.6927961111068726
v -0.04180163890123367 -0.000879380851984024 0.6927628517150879
v -0.047078534960746765 -0.0017223916947841644 0.6897311210632324
v -0.037663839757442474 -0.0003122268244624138 0.6965876817703247
v -0.03874003887176514 0.0012063588947057724 0.6951169967651367
v -0.037657611072063446 0.006455995142459869 0.6945029497146606
v -0.042517535388469696 0.0053464751690626144 0.6913985013961792
v -0.03759229928255081 0.01006917655467987 0.6908555030822754
v -0.04032321274280548 0.009608365595340729 0.6875433921813965
v -0.04717057943344116 0.004506103694438934 0.6883184313774109
v -0.05035954713821411 -0.0003030505031347275 0.6879684925079346
v -0.05092059075832367 0.003593260422348976 0.6856207251548767
v -0.05022716522216797 -0.0025366265326738358 0.685806393623352
v -0.038481615483760834 0.008270789869129658 0.6973973512649536
v -0.031938306987285614 -0.0035173632204532623 0.6984819769859314
v -0.03795727342367172 -0.005759112536907196 0.6922394633293152
v -0.04397505521774292 -0.006105130538344383 0.6870007514953613
v -0.04845978319644928 -0.0037727616727352142 0.683432936668396
v -0.03498717397451401 -0.0067704543471336365 0.6893277764320374
v -0.040477409958839417 -0.006018985062837601 0.6845073103904724
v -0.04426703602075577 -0.00326693058013916 0.6810988187789917
v -0.03237343207001686 -0.005078084766864777 0.6856370568275452
v -0.03809788078069687 -0.0039021428674459457 0.6821784973144531
v -0.022468704730272293 -0.003128940239548683 0.6913841962814331
v -0.02626197040081024 -0.005227452144026756 0.695973813533783
v -0.04167714715003967 -0.0023345835506916046 0.6806381344795227
v -0.05186237394809723 0.0027574431151151657 0.6831790804862976
v -0.04973558336496353 0.001543702557682991 0.6805774569511414
v -0.03830654174089432 0.011657661758363247 0.6857760548591614
v -0.0449632853269577 0.009253831580281258 0.6849151253700256
v -0.043346062302589417 0.009883292019367218 0.6825615763664246
v -0.034930258989334106 0.01221794355660677 0.6837828159332275
v -0.04148615151643753 0.00963275134563446 0.6804169416427612
v -0.04834534972906113 0.00746535137295723 0.6815416216850281
v -0.04858344793319702 0.00731055811047554 0.6842937469482422
v -0.01962468959391117 -0.003060676157474518 0.6927149295806885
v -0.018244873732328415 0.00204288586974144 0.6887332201004028
v -0.0206742025911808 0.0022849785163998604 0.6877634525299072
v -0.03003975749015808 0.00022645201534032822 0.682403028011322
v -0.021473590284585953 0.008228394202888012 0.685612678527832
v -0.024090737104415894 0.013620289042592049 0.687420129776001
v -0.032438743859529495 0.010518337599933147 0.6815874576568604
v -0.030264753848314285 0.006263521499931812 0.6809177994728088
v -0.03916142135858536 0.0073231980204582214 0.6790131330490112
v -0.03762971609830856 0.0046905092895030975 0.6790059804916382
v -0.03728999197483063 -0.00017484556883573532 0.6798352599143982
v -0.04361338168382645 0.004630114883184433 0.6784677505493164
v -0.046280793845653534 0.006664874963462353 0.6792935132980347
v -0.04549311846494675 0.0007344447076320648 0.679142415523529
v -0.041203297674655914 0.003351958468556404 0.6787728071212769
v -0.04195410758256912 0.00037618912756443024 0.6793116331100464
v -0.00012559443712234497 0.0028825728222727776 0.6154353618621826
v -0.0036245472729206085 0.001956057734787464 0.6207183599472046
v 0.0037571676075458527 -0.00018037576228380203 0.6217688322067261
v 0.013955876231193542 -0.0010621529072523117 0.6242788434028625
v 0.024332553148269653 0.0006205383688211441 0.6212075352668762
v 0.012084748595952988 -0.00016663968563079834 0.6307985186576843
v 0.0019096769392490387 0.0006048530340194702 0.627918541431427
v -0.008475849404931068 0.00352303683757782 0.6263094544410706
v 0.018541410565376282 0.0016653994098305702 0.6390125155448914
f 2 3 1
f 1 3 4
f 5 6 8
f 8 6 7
f 9 4 10
f 10 4 3
f 12 13 11
f 11 13 9
f 14 12 16
f 16 12 15
f 18 19 17
f 17 19 20
f 22 23 21
f 21 23 24
f 26 27 25
f 25 27 28
f 30 31 29
f 29 31 32
f 33 34 36
f 36 34 35
f 37 38 40
f 40 38 39
f 41 42 6
f 6 42 43
f 6 43 7
f 7 43 44
f 45 34 46
f 46 34 33
f 48 49 47
f 47 49 50
f 52 53 51
f 51 53 54
f 56 52 55
f 55 52 51
f 58 59 57
f 57 59 60
f 61 62 4
f 4 62 1
f 64 65 63
f 63 65 66
f 68 69 67
f 67 69 70
f 72 73 71
f 71 73 74
f 76 77 75
f 75 77 78
f 53 79 54
f 54 79 80
f 82 83 81
f 81 83 84
f 85 86 52
f 52 86 53
f 57 60 87
f 87 60 88
f 89 90 43
f 43 90 44
f 43 42 89
f 89 42 91
f 40 39 92
f 92 39 93
f 94 70 64
f 64 70 69
f 13 61 9
f 9 61 4
f 25 28 69
f 69 28 95
f 96 25 68
f 68 25 69
f 98 99 97
f 97 99 100
f 101 102 104
f 104 102 103
f 106 30 105
f 105 30 29
f 51 54 107
f 107 54 108
f 54 80 108
f 108 80 109
f 111 112 110
f 110 112 113
f 115 5 114
f 114 5 116
f 115 41 5
f 5 41 6
f 36 35 111
f 111 35 117
f 35 118 117
f 117 118 119
f 34 120 35
f 35 120 118
f 34 45 120
f 120 45 121
f 125 126 124
f 124 126 127
f 128 129 14
f 14 129 130
f 33 131 46
f 46 131 132
f 133 94 63
f 63 94 64
f 134 135 137
f 137 135 136
f 139 140 138
f 138 140 141
f 77 142 78
f 78 142 143
f 144 145 20
f 20 145 146
f 148 149 147
f 147 149 72
f 151 152 150
f 150 152 153
f 82 101 83
f 83 101 104
f 101 82 155
f 155 82 154
f 156 157 58
f 58 157 59
f 158 68 147
f 147 68 67
f 159 146 15
f 15 146 16
f 68 158 96
f 96 158 160
f 129 66 130
f 130 66 65
f 162 163 161
f 161 163 164
f 166 167 165
f 165 167 168
f 170 171 169
f 169 171 172
f 174 171 173
f 173 171 170
f 176 177 175
f 175 177 178
f 180 181 179
f 179 181 24
f 182 183 21
f 21 183 184
f 81 185 82
f 82 185 154
f 186 187 188
f 188 187 144
f 158 71 160
f 160 71 189
f 190 135 157
f 157 135 59
f 169 172 139
f 139 172 140
f 147 72 158
f 158 72 71
f 192 193 191
f 191 193 194
f 167 166 49
f 49 166 195
f 196 190 50
f 50 190 157
f 197 198 200
f 200 198 199
f 21 24 182
f 182 24 181
f 146 159 20
f 20 159 17
f 182 181 81
f 81 181 185
f 201 185 180
f 180 185 181
f 202 203 83
f 83 203 84
f 205 206 204
f 204 206 85
f 207 22 184
f 184 22 21
f 179 24 208
f 208 24 23
f 208 209 179
f 179 209 205
f 209 210 205
f 205 210 206
f 212 206 211
f 211 206 210
f 179 205 180
f 180 205 204
f 213 176 88
f 88 176 214
f 86 85 212
f 212 85 206
f 193 217 218
f 217 219 218
f 218 219 220
f 219 18 220
f 220 18 17
f 19 221 20
f 20 221 144
f 222 223 225
f 225 223 224
f 175 226 176
f 176 226 214
f 227 87 214
f 214 87 88
f 220 17 228
f 228 17 159
f 134 213 60
f 60 213 88
f 138 229 151
f 151 229 152
f 193 192 210
f 210 192 211
f 230 194 218
f 218 194 193
f 231 232 228
f 228 232 230
f 233 234 91
f 91 234 89
f 235 236 93
f 93 236 92
f 230 232 234
f 234 232 237
f 47 238 48
f 48 238 239
f 240 191 235
f 235 191 236
f 5 8 116
f 116 8 241
f 242 243 189
f 189 243 160
f 244 245 98
f 98 245 99
f 156 246 47
f 47 246 238
f 76 247 77
f 77 247 248
f 250 125 249
f 249 125 124
f 252 253 251
f 251 253 254
f 111 110 36
f 36 110 255
f 256 33 255
f 255 33 36
f 257 258 154
f 154 258 155
f 63 169 133
f 133 169 139
f 66 170 63
f 63 170 169
f 173 170 129
f 129 170 66
f 129 128 173
f 173 128 259
f 128 260 259
f 259 260 261
f 213 134 262
f 262 134 137
f 263 264 186
f 186 264 187
f 112 265 113
f 113 265 266
f 11 267 268
f 234 233 230
f 230 233 194
f 153 269 70
f 70 269 67
f 175 178 165
f 165 178 141
f 150 153 94
f 94 153 70
f 271 221 270
f 270 221 207
f 269 153 272
f 272 153 152
f 121 45 109
f 109 45 108
f 47 50 156
f 156 50 157
f 57 273 58
f 58 273 274
f 145 275 260
f 260 275 261
f 276 149 143
f 143 149 78
f 148 269 75
f 75 269 272
f 207 277 270
f 270 277 278
f 195 196 49
f 49 196 50
f 59 135 60
f 60 135 134
f 83 104 202
f 202 104 279
f 149 148 78
f 78 148 75
f 247 278 248
f 248 278 277
f 183 182 84
f 84 182 81
f 48 239 281
f 281 239 282
f 227 223 283
f 283 223 222
f 223 226 224
f 224 226 168
f 281 282 224
f 224 282 225
f 165 168 175
f 175 168 226
f 264 263 138
f 138 263 229
f 14 16 128
f 128 16 260
f 220 228 218
f 218 228 230
f 87 227 284
f 284 227 283
f 260 16 145
f 145 16 146
f 244 98 258
f 258 98 155
f 58 274 156
f 156 274 246
f 107 285 51
f 51 285 55
f 243 286 160
f 160 286 96
f 234 237 89
f 89 237 90
f 46 132 107
f 107 132 285
f 253 252 249
f 249 252 250
f 286 26 96
f 96 26 25
f 106 105 287
f 287 105 288
f 272 152 289
f 289 152 229
f 138 151 139
f 139 151 133
f 183 290 161
f 161 290 162
f 291 292 277
f 277 292 293
f 151 150 133
f 133 150 94
f 262 275 177
f 177 275 187
f 144 187 145
f 145 187 275
f 273 57 284
f 284 57 87
f 174 136 190
f 190 136 135
f 111 117 112
f 112 117 38
f 117 119 38
f 38 119 123
f 112 38 265
f 265 38 37
f 287 288 254
f 254 288 251
f 228 159 231
f 231 159 15
f 223 227 226
f 226 227 214
f 147 67 148
f 148 67 269
f 224 168 281
f 281 168 167
f 199 163 200
f 200 163 162
f 45 46 108
f 108 46 107
f 281 167 48
f 48 167 49
f 161 164 291
f 291 164 292
f 38 123 39
f 293 294 277
f 277 294 248
f 284 283 296
f 296 283 295
f 284 296 273
f 273 296 297
f 274 273 298
f 298 273 297
f 246 274 299
f 299 274 298
f 283 222 295
f 295 222 300
f 222 225 300
f 300 225 301
f 301 225 302
f 302 225 282
f 303 304 300
f 300 304 295
f 306 307 305
f 305 307 308
f 309 310 308
f 308 310 305
f 308 307 312
f 312 307 311
f 313 314 312
f 312 314 315
f 311 316 312
f 312 316 313
f 317 304 311
f 311 304 316
f 315 309 312
f 312 309 308
f 318 319 321
f 321 319 320
f 319 318 309
f 309 318 310
f 311 307 317
f 317 307 306
f 306 297 317
f 317 297 296
f 306 322 297
f 297 322 298
f 305 323 306
f 306 323 322
f 323 305 324
f 324 305 310
f 304 317 295
f 295 317 296
f 318 325 310
f 310 325 324
f 323 324 326
f 326 324 327
f 324 325 327
f 327 325 328
f 326 327 329
f 329 327 330
f 329 331 326
f 326 331 332
f 333 330 328
f 328 330 327
f 323 326 322
f 322 326 332
f 322 332 298
f 298 332 299
f 325 318 334
f 334 318 321
f 313 316 335
f 335 316 304
f 335 336 313
f 313 336 314
f 304 303 335
f 335 303 337
f 336 335 338
f 338 335 337
f 336 339 314
f 314 339 340
f 246 299 238
f 238 299 341
f 239 342 282
f 282 342 302
f 342 239 341
f 341 239 238
f 341 331 342
f 342 331 343
f 331 329 343
f 343 329 344
f 342 343 302
f 302 343 345
f 341 299 331
f 331 299 332
f 346 301 345
f 345 301 302
f 346 303 301
f 301 303 300
f 347 337 346
f 346 337 303
f 347 346 348
f 348 346 345
f 349 347 350
f 350 347 348
f 343 344 345
f 345 344 348
f 344 351 348
f 348 351 350
f 337 347 338
f 338 347 349
f 353 338 352
f 352 338 349
f 352 355 354
f 354 355 356
f 352 349 355
f 355 349 350
f 352 354 353
f 353 354 334
f 353 334 339
f 339 334 321
f 339 336 353
f 353 336 338
f 329 330 344
f 344 330 351
f 356 351 333
f 333 351 330
f 356 355 351
f 351 355 350
f 354 356 328
f 328 356 333
f 328 325 354
f 354 325 334
f 309 315 319
f 319 315 320
f 320 340 321
f 321 340 339
f 320 315 340
f 340 315 314
f 137 136 261
f 261 136 259
f 140 166 141
f 141 166 165
f 172 171 195
f 195 171 196
f 171 174 196
f 196 174 190
f 178 177 264
f 264 177 187
f 172 195 140
f 140 195 166
f 137 261 262
f 262 261 275
f 178 264 141
f 141 264 138
f 262 177 213
f 213 177 176
f 136 174 259
f 259 174 173
f 358 359 357
f 357 359 360
f 362 363 361
f 361 363 364
f 361 364 365
f 365 364 366
f 367 368 370
f 370 368 369
f 76 371 247
f 247 371 372
f 373 374 362
f 362 374 363
f 376 377 375
f 375 377 378
f 289 229 380
f 380 229 379
f 381 379 263
f 263 379 229
f 383 384 382
f 382 384 385
f 386 368 374
f 374 368 363
f 76 289 371
f 371 289 380
f 377 376 359
f 359 376 387
f 388 386 360
f 360 386 374
f 389 383 366
f 366 383 390
f 392 393 391
f 391 393 394
f 383 382 390
f 390 382 395
f 396 365 390
f 390 365 366
f 389 366 367
f 367 366 364
f 357 397 358
f 358 397 398
f 373 399 357
f 357 399 397
f 389 367 400
f 400 367 370
f 382 385 375
f 375 385 372
f 357 360 373
f 373 360 374
f 361 401 362
f 362 401 402
f 387 388 359
f 359 388 360
f 363 368 364
f 364 368 367
f 358 398 403
f 403 398 404
f 396 392 405
f 405 392 391
f 392 395 393
f 393 395 378
f 393 403 394
f 394 403 404
f 375 378 382
f 382 378 395
f 365 396 406
f 406 396 405
f 362 402 373
f 373 402 399
f 271 270 400
f 400 270 384
f 401 361 406
f 406 361 365
f 381 369 386
f 386 369 368
f 392 396 395
f 395 396 390
f 393 378 403
f 403 378 377
f 403 377 358
f 358 377 359
f 406 405 408
f 408 405 407
f 406 408 401
f 401 408 409
f 401 409 402
f 402 409 410
f 402 410 399
f 399 410 411
f 405 391 407
f 407 391 412
f 391 394 412
f 412 394 413
f 394 404 413
f 413 404 414
f 415 416 412
f 412 416 407
f 418 419 417
f 417 419 420
f 421 422 418
f 418 422 419
f 419 422 424
f 424 422 423
f 425 426 424
f 424 426 427
f 423 428 424
f 424 428 425
f 427 420 424
f 424 420 419
f 420 429 417
f 417 429 430
f 423 422 431
f 431 422 421
f 421 409 431
f 431 409 408
f 421 432 409
f 409 432 410
f 418 433 421
f 421 433 432
f 434 433 417
f 417 433 418
f 431 416 423
f 423 416 428
f 416 431 407
f 407 431 408
f 435 434 430
f 430 434 417
f 433 434 436
f 436 434 437
f 434 435 437
f 437 435 438
f 436 437 439
f 439 437 440
f 439 441 436
f 436 441 442
f 438 443 437
f 437 443 440
f 436 442 433
f 433 442 432
f 432 442 410
f 410 442 411
f 435 430 445
f 445 430 444
f 430 429 444
f 444 429 446
f 425 428 447
f 447 428 416
f 426 425 448
f 448 425 447
f 416 415 447
f 447 415 449
f 447 449 448
f 448 449 450
f 451 452 448
f 448 452 426
f 446 452 444
f 444 452 451
f 399 411 397
f 397 411 453
f 398 454 404
f 404 454 414
f 454 398 453
f 453 398 397
f 453 441 454
f 454 441 455
f 441 439 455
f 455 439 456
f 454 455 414
f 414 455 457
f 441 453 442
f 442 453 411
f 458 413 457
f 457 413 414
f 458 415 413
f 413 415 412
f 458 459 415
f 415 459 449
f 459 458 460
f 460 458 457
f 461 459 462
f 462 459 460
f 455 456 457
f 457 456 460
f 456 463 460
f 460 463 462
f 459 461 449
f 449 461 450
f 465 450 464
f 464 450 461
f 464 467 466
f 466 467 468
f 464 461 467
f 467 461 462
f 464 466 465
f 465 466 445
f 465 445 451
f 451 445 444
f 451 448 465
f 465 448 450
f 439 440 456
f 456 440 463
f 468 463 443
f 443 463 440
f 468 467 463
f 463 467 462
f 466 468 438
f 438 468 443
f 438 435 466
f 466 435 445
f 420 427 429
f 429 427 446
f 446 427 452
f 452 427 426
f 370 369 188
f 188 369 186
f 371 376 372
f 372 376 375
f 380 379 387
f 387 379 388
f 379 381 388
f 388 381 386
f 385 384 278
f 278 384 270
f 380 387 371
f 371 387 376
f 400 370 271
f 271 370 188
f 385 278 372
f 372 278 247
f 400 384 389
f 389 384 383
f 369 381 186
f 186 381 263
f 221 271 144
f 144 271 188
f 221 19 207
f 207 19 22
f 19 18 22
f 22 18 23
f 18 219 23
f 23 219 208
f 469 470 472
f 472 470 471
f 474 475 473
f 473 475 476
f 473 476 477
f 477 476 478
f 480 481 479
f 479 481 482
f 483 484 474
f 474 484 475
f 486 487 485
f 485 487 488
f 489 490 77
f 77 490 142
f 491 489 248
f 248 489 77
f 493 494 492
f 492 494 495
f 496 480 484
f 484 480 475
f 486 497 487
f 487 497 471
f 498 496 472
f 472 496 484
f 499 493 478
f 478 493 500
f 501 502 504
f 504 502 503
f 493 492 500
f 500 492 505
f 506 477 500
f 500 477 478
f 499 478 479
f 479 478 476
f 469 507 470
f 470 507 508
f 483 509 469
f 469 509 507
f 479 482 499
f 499 482 510
f 492 495 485
f 485 495 511
f 483 469 484
f 484 469 472
f 473 512 474
f 474 512 513
f 497 498 471
f 471 498 472
f 475 480 476
f 476 480 479
f 470 508 514
f 514 508 515
f 506 502 516
f 516 502 501
f 503 502 488
f 488 502 505
f 514 515 503
f 503 515 504
f 485 488 492
f 492 488 505
f 477 506 517
f 517 506 516
f 474 513 483
f 483 513 509
f 510 292 494
f 494 292 164
f 512 473 517
f 517 473 477
f 491 481 496
f 496 481 480
f 502 506 505
f 505 506 500
f 503 488 514
f 514 488 487
f 514 487 470
f 470 487 471
f 517 516 519
f 519 516 518
f 517 519 512
f 512 519 520
f 512 520 513
f 513 520 521
f 513 521 509
f 509 521 522
f 516 501 518
f 518 501 523
f 501 504 523
f 523 504 524
f 524 504 525
f 525 504 515
f 526 527 523
f 523 527 518
f 529 530 528
f 528 530 531
f 532 533 529
f 529 533 530
f 530 533 535
f 535 533 534
f 536 537 535
f 535 537 538
f 534 539 535
f 535 539 536
f 538 531 535
f 535 531 530
f 540 541 531
f 531 541 528
f 533 532 534
f 534 532 542
f 532 520 542
f 542 520 519
f 532 543 520
f 520 543 521
f 529 544 532
f 532 544 543
f 544 529 545
f 545 529 528
f 534 542 539
f 539 542 527
f 527 542 518
f 518 542 519
f 541 546 528
f 528 546 545
f 547 544 548
f 548 544 545
f 546 549 545
f 545 549 548
f 550 547 551
f 551 547 548
f 547 550 553
f 553 550 552
f 549 554 548
f 548 554 551
f 544 547 543
f 543 547 553
f 543 553 521
f 521 553 522
f 546 541 556
f 556 541 555
f 541 540 555
f 555 540 557
f 536 539 558
f 558 539 527
f 537 536 559
f 559 536 558
f 527 526 558
f 558 526 560
f 559 558 561
f 561 558 560
f 559 562 537
f 537 562 563
f 557 563 555
f 555 563 562
f 509 522 507
f 507 522 564
f 508 565 515
f 515 565 525
f 565 508 564
f 564 508 507
f 564 552 565
f 565 552 566
f 552 550 566
f 566 550 567
f 565 566 525
f 525 566 568
f 564 522 552
f 552 522 553
f 569 524 568
f 568 524 525
f 569 526 524
f 524 526 523
f 570 560 569
f 569 560 526
f 570 569 571
f 571 569 568
f 572 570 573
f 573 570 571
f 566 567 568
f 568 567 571
f 567 574 571
f 571 574 573
f 570 572 560
f 560 572 561
f 576 561 575
f 575 561 572
f 575 578 577
f 577 578 579
f 575 572 578
f 578 572 573
f 575 577 576
f 576 577 556
f 576 556 562
f 562 556 555
f 562 559 576
f 576 559 561
f 550 551 567
f 567 551 574
f 579 574 554
f 554 574 551
f 579 578 574
f 574 578 573
f 579 554 577
f 577 554 549
f 549 546 577
f 577 546 556
f 531 538 540
f 540 538 557
f 557 538 563
f 563 538 537
f 481 294 482
f 482 294 293
f 580 486 511
f 511 486 485
f 490 489 497
f 497 489 498
f 489 491 498
f 498 491 496
f 163 495 164
f 164 495 494
f 580 490 486
f 486 490 497
f 482 293 510
f 510 293 292
f 495 163 511
f 511 163 199
f 494 493 510
f 510 493 499
f 481 491 294
f 294 491 248
f 582 583 581
f 581 583 584
f 586 587 585
f 585 587 588
f 585 588 589
f 589 588 590
f 592 593 591
f 591 593 594
f 595 596 598
f 598 596 597
f 599 600 586
f 586 600 587
f 601 602 604
f 604 602 603
f 605 606 608
f 608 606 607
f 609 607 200
f 200 607 606
f 610 611 613
f 613 611 612
f 600 614 587
f 587 614 592
f 596 605 597
f 597 605 608
f 602 615 603
f 603 615 583
f 616 614 584
f 584 614 600
f 611 618 617
f 617 618 590
f 620 621 619
f 619 621 622
f 610 623 611
f 611 623 618
f 624 589 618
f 618 589 590
f 617 590 591
f 591 590 588
f 581 625 582
f 582 625 626
f 599 627 581
f 581 627 625
f 591 594 617
f 617 594 628
f 601 610 598
f 598 610 613
f 581 584 599
f 599 584 600
f 585 629 586
f 586 629 630
f 615 616 583
f 583 616 584
f 587 592 588
f 588 592 591
f 582 626 631
f 631 626 632
f 624 620 633
f 633 620 619
f 621 620 604
f 604 620 623
f 631 632 621
f 621 632 622
f 610 601 623
f 623 601 604
f 589 624 634
f 634 624 633
f 586 630 599
f 599 630 627
f 203 202 628
f 628 202 612
f 629 585 634
f 634 585 589
f 609 593 614
f 614 593 592
f 620 624 623
f 623 624 618
f 631 621 603
f 603 621 604
f 582 631 583
f 583 631 603
f 634 633 636
f 636 633 635
f 634 636 629
f 629 636 637
f 629 637 630
f 630 637 638
f 630 638 627
f 627 638 639
f 633 619 635
f 635 619 640
f 619 622 640
f 640 622 641
f 641 622 642
f 642 622 632
f 644 635 643
f 643 635 640
f 645 646 648
f 648 646 647
f 649 650 646
f 646 650 647
f 647 650 652
f 652 650 651
f 652 653 655
f 655 653 654
f 651 656 652
f 652 656 653
f 655 648 652
f 652 648 647
f 648 657 645
f 645 657 658
f 650 649 651
f 651 649 659
f 649 637 659
f 659 637 636
f 649 660 637
f 637 660 638
f 661 660 646
f 646 660 649
f 662 661 645
f 645 661 646
f 651 659 656
f 656 659 644
f 644 659 635
f 635 659 636
f 663 662 658
f 658 662 645
f 664 661 665
f 665 661 662
f 663 666 662
f 662 666 665
f 667 664 668
f 668 664 665
f 664 667 670
f 670 667 669
f 666 671 665
f 665 671 668
f 661 664 660
f 660 664 670
f 660 670 638
f 638 670 639
f 658 672 663
f 663 672 673
f 658 657 672
f 672 657 674
f 653 656 675
f 675 656 644
f 653 675 654
f 654 675 676
f 675 644 677
f 677 644 643
f 676 675 678
f 678 675 677
f 679 680 676
f 676 680 654
f 674 680 672
f 672 680 679
f 627 639 625
f 625 639 681
f 626 682 632
f 632 682 642
f 681 682 625
f 625 682 626
f 669 683 681
f 681 683 682
f 667 684 669
f 669 684 683
f 682 683 642
f 642 683 685
f 681 639 669
f 669 639 670
f 686 641 685
f 685 641 642
f 641 686 640
f 640 686 643
f 686 687 643
f 643 687 677
f 687 686 688
f 688 686 685
f 689 687 690
f 690 687 688
f 683 684 685
f 685 684 688
f 684 691 688
f 688 691 690
f 687 689 677
f 677 689 678
f 693 678 692
f 692 678 689
f 692 695 694
f 694 695 696
f 692 689 695
f 695 689 690
f 692 694 693
f 693 694 673
f 693 673 679
f 679 673 672
f 679 676 693
f 693 676 678
f 684 667 691
f 691 667 668
f 696 691 671
f 671 691 668
f 696 695 691
f 691 695 690
f 694 696 666
f 666 696 671
f 666 663 694
f 694 663 673
f 648 655 657
f 657 655 674
f 674 655 680
f 680 655 654
f 593 162 594
f 594 162 290
f 598 597 601
f 601 597 602
f 615 608 616
f 616 608 607
f 607 609 616
f 616 609 614
f 697 595 613
f 613 595 598
f 597 608 602
f 602 608 615
f 594 290 628
f 628 290 203
f 628 612 617
f 617 612 611
f 593 609 162
f 162 609 200
f 105 29 698
f 698 29 699
f 268 126 701
f 701 126 700
f 126 125 700
f 700 125 702
f 252 703 250
f 250 703 704
f 32 268 705
f 705 268 701
f 288 105 706
f 706 105 698
f 29 32 699
f 699 32 705
f 707 251 706
f 706 251 288
f 250 704 125
f 125 704 702
f 703 252 707
f 707 252 251
f 706 708 707
f 707 708 709
f 707 709 703
f 703 709 710
f 703 710 704
f 704 710 711
f 704 711 702
f 702 711 712
f 706 698 708
f 708 698 713
f 698 699 713
f 713 699 714
f 699 705 714
f 714 705 715
f 717 708 716
f 716 708 713
f 719 720 718
f 718 720 721
f 722 723 719
f 719 723 720
f 724 725 723
f 723 725 720
f 724 726 725
f 725 726 727
f 728 721 725
f 725 721 720
f 721 728 729
f 729 728 730
f 729 731 721
f 721 731 718
f 724 723 732
f 732 723 722
f 722 710 732
f 732 710 709
f 722 733 710
f 710 733 711
f 719 734 722
f 722 734 733
f 734 719 735
f 735 719 718
f 724 732 726
f 726 732 717
f 717 732 708
f 708 732 709
f 731 736 718
f 718 736 735
f 737 734 738
f 738 734 735
f 736 739 735
f 735 739 738
f 740 737 741
f 741 737 738
f 737 740 743
f 743 740 742
f 739 744 738
f 738 744 741
f 734 737 733
f 733 737 743
f 733 743 711
f 711 743 712
f 736 731 746
f 746 731 745
f 731 729 745
f 745 729 730
f 727 726 747
f 747 726 717
f 748 727 749
f 749 727 747
f 747 717 750
f 750 717 716
f 749 747 751
f 751 747 750
f 749 752 748
f 748 752 753
f 730 753 745
f 745 753 752
f 728 725 748
f 748 725 727
f 730 728 753
f 753 728 748
f 700 702 754
f 754 702 712
f 705 701 715
f 715 701 755
f 754 755 700
f 700 755 701
f 742 756 754
f 754 756 755
f 740 757 742
f 742 757 756
f 755 756 715
f 715 756 758
f 754 712 742
f 742 712 743
f 759 714 758
f 758 714 715
f 714 759 713
f 713 759 716
f 759 760 716
f 716 760 750
f 760 759 761
f 761 759 758
f 762 760 763
f 763 760 761
f 756 757 758
f 758 757 761
f 757 764 761
f 761 764 763
f 760 762 750
f 750 762 751
f 766 751 765
f 765 751 762
f 767 765 769
f 769 765 768
f 765 762 768
f 768 762 763
f 765 767 766
f 766 767 746
f 766 746 752
f 752 746 745
f 752 749 766
f 766 749 751
f 757 740 764
f 764 740 741
f 769 764 744
f 744 764 741
f 769 768 764
f 764 768 763
f 767 769 739
f 739 769 744
f 739 736 767
f 767 736 746
f 219 217 208
f 208 217 209
f 209 217 210
f 210 217 193
f 198 580 199
f 199 580 511
f 76 75 289
f 289 75 272
f 277 207 291
f 291 207 184
f 290 183 203
f 203 183 84
f 490 580 142
f 142 580 198
f 142 198 143
f 143 198 197
f 149 276 72
f 72 276 73
f 104 103 279
f 279 103 770
f 770 596 279
f 279 596 595
f 605 596 771
f 771 596 770
f 771 770 772
f 772 770 103
f 772 103 773
f 773 103 102
f 155 774 101
f 101 774 102
f 773 102 97
f 97 102 774
f 775 773 100
f 100 773 97
f 773 775 772
f 772 775 776
f 772 776 771
f 771 776 777
f 200 606 197
f 197 606 777
f 189 71 778
f 778 71 74
f 97 774 98
f 98 774 155
f 183 161 184
f 184 161 291
f 777 276 197
f 197 276 143
f 777 606 771
f 771 606 605
f 613 612 697
f 697 612 202
f 595 697 279
f 279 697 202
f 73 276 776
f 776 276 777
f 776 775 73
f 73 775 74
f 100 778 775
f 775 778 74
f 778 100 189
f 189 100 99
f 245 242 99
f 99 242 189
f 131 33 256
f 28 1 95
f 95 1 62
f 27 2 28
f 28 2 1
f 265 115 266
f 266 115 114
f 95 62 69
f 69 62 64
f 62 61 64
f 64 61 65
f 61 13 65
f 65 13 130
f 13 12 130
f 130 12 14
f 31 11 32
f 32 11 268
f 15 12 31
f 31 12 11
f 31 30 15
f 15 30 231
f 30 106 231
f 231 106 232
f 287 237 106
f 106 237 232
f 254 90 287
f 287 90 237
f 253 44 254
f 254 44 90
f 253 249 44
f 44 249 7
f 267 127 268
f 268 127 126
f 10 3 241
f 241 3 116
f 3 2 116
f 116 2 114
f 2 27 114
f 114 27 266
f 27 26 266
f 266 26 113
f 26 286 113
f 113 286 110
f 286 243 110
f 110 243 255
f 243 242 255
f 255 242 256
f 242 245 256
f 256 245 131
f 245 244 131
f 131 244 132
f 265 37 115
f 115 37 41
f 41 37 42
f 42 37 40
f 92 91 40
f 40 91 42
f 236 233 92
f 92 233 91
f 191 194 236
f 236 194 233
f 258 285 244
f 244 285 132
f 257 55 258
f 258 55 285
f 257 154 201
f 201 154 185
f 56 201 204
f 204 201 180
f 55 257 56
f 56 257 201
f 204 85 56
f 56 85 52
f 86 122 53
f 53 122 79
f 212 215 86
f 86 215 122
f 211 216 212
f 212 216 215
f 192 280 211
f 211 280 216
f 191 240 192
f 192 240 280
f 249 124 7
f 7 124 8
f 124 127 8
f 8 127 241
f 127 267 241
f 241 267 10
f 10 267 9
f 9 267 11
