v 0.05641842633485794 0.044863827526569366 0.7201439142227173
v 0.06805909425020218 0.04083016514778137 0.7197538614273071
v 0.060422737151384354 0.03730698674917221 0.7264403104782104
v 0.050738584250211716 0.04149233549833298 0.7266232371330261
v 0.07828199118375778 0.03255569934844971 0.7375564575195312
v 0.08390190452337265 0.037251368165016174 0.7466090321540833
v 0.06702322512865067 0.03671102970838547 0.7498977184295654
v 0.0646602213382721 0.03217026963829994 0.7414841651916504
v 0.04523526504635811 0.0422092080116272 0.73142009973526
v 0.053153593093156815 0.03631982579827309 0.7310757637023926
v 0.04380849376320839 0.048880841583013535 0.733110785484314
v 0.03670500963926315 0.05634661391377449 0.7362268567085266
v 0.03750220686197281 0.04915054887533188 0.7341135144233704
v 0.029499154537916183 0.060004085302352905 0.7363256812095642
v 0.04314594343304634 0.06585676968097687 0.7366361618041992
v 0.03156134486198425 0.06805551052093506 0.732240617275238
v 0.05121132358908653 0.07878345251083374 0.7167022228240967
v 0.05472329631447792 0.07959333062171936 0.7044184803962708
v 0.03899854049086571 0.07754357904195786 0.7028216123580933
v 0.03686036169528961 0.07612043619155884 0.7157360911369324
v 0.04938960075378418 0.07420607656240463 0.6854012608528137
v 0.04289225861430168 0.07604530453681946 0.6946559548377991
v 0.05856357887387276 0.0793001800775528 0.6964998841285706
v 0.06375695019960403 0.07717757672071457 0.6880813241004944
v 0.06436873972415924 0.049136314541101456 0.7080096006393433
v 0.07561962306499481 0.04719024524092674 0.7069880962371826
v 0.07360075414180756 0.045483607798814774 0.7114769220352173
v 0.06248318403959274 0.0480610653758049 0.712579071521759
v 0.044575657695531845 0.05511641502380371 0.7398397922515869
v 0.05172096565365791 0.06015310063958168 0.7424196004867554
v 0.04625149816274643 0.056842684745788574 0.7375295758247375
v 0.04311579093337059 0.05069383978843689 0.7364575862884521
v 0.10131219029426575 0.04101620614528656 0.6989077925682068
v 0.11316674202680588 0.04682732746005058 0.7012084126472473
v 0.11251312494277954 0.04725223034620285 0.7070956230163574
v 0.10187740623950958 0.04213111102581024 0.7037064433097839
v 0.10468722134828568 0.043252427130937576 0.7319537401199341
v 0.11184371262788773 0.04939853772521019 0.7261644601821899
v 0.11588958650827408 0.05876341462135315 0.7352254390716553
v 0.10713708400726318 0.056434035301208496 0.7398698329925537
v 0.09505144506692886 0.03887065127491951 0.7404564619064331
v 0.09800604730844498 0.05013761296868324 0.7465041875839233
v 0.08482976257801056 0.04758181795477867 0.7519705295562744
v 0.06733406335115433 0.045126963406801224 0.7541086077690125
v 0.11464883387088776 0.04876801744103432 0.688654363155365
v 0.10631516575813293 0.044285427778959274 0.6851692199707031
v -0.00981102418154478 0.08379048109054565 0.7079164981842041
v -0.00968508142977953 0.07966390997171402 0.7036709189414978
v -0.008596322499215603 0.07562756538391113 0.7088128924369812
v -0.008562800474464893 0.08011233061552048 0.7121227383613586
v 0.10800448805093765 0.06298165768384933 0.6761913299560547
v 0.1065739318728447 0.07290859520435333 0.6770637035369873
v 0.11373196542263031 0.07182536274194717 0.6768460869789124
v 0.1152789369225502 0.06263506412506104 0.6779065728187561
v 0.0983460545539856 0.06328494846820831 0.6740598082542419
v 0.09655613452196121 0.07374562323093414 0.6778998970985413
v 0.0007655611261725426 0.09037740528583527 0.7070766687393188
v -0.003953407518565655 0.09008285403251648 0.7091102004051208
v -0.0015468960627913475 0.08709608018398285 0.7129469513893127
v 0.0031396793201565742 0.0870625227689743 0.7103851437568665
v 0.04105379804968834 0.04552736133337021 0.7292635440826416
v 0.046135395765304565 0.045838043093681335 0.7216059565544128
v 0.01798791065812111 0.05005218833684921 0.7299525737762451
v 0.03152018412947655 0.04770833998918533 0.7248807549476624
v 0.03090561181306839 0.04864886403083801 0.7322516441345215
v 0.020594969391822815 0.052557725459337234 0.7350896596908569
v 0.041947346180677414 0.049986161291599274 0.7030535340309143
v 0.05364157259464264 0.050284963101148605 0.7043137550354004
v 0.050660040229558945 0.05005526915192604 0.7100278735160828
v 0.03751998767256737 0.049057118594646454 0.7104530334472656
v 0.05798250809311867 0.047542594373226166 0.6911422610282898
v 0.046095363795757294 0.04786992818117142 0.6909506916999817
v 0.049857549369335175 0.04620983451604843 0.6835017800331116
v 0.057739339768886566 0.045389920473098755 0.684983491897583
v 0.02484782598912716 0.05024564266204834 0.6933757662773132
v 0.018219413235783577 0.055189117789268494 0.693084180355072
v 0.017670245841145515 0.05397099256515503 0.6900419592857361
v 0.025380462408065796 0.049958519637584686 0.6891842484474182
v 0.12077126652002335 0.07183001935482025 0.6770956516265869
v 0.12203605473041534 0.06269541382789612 0.680442214012146
v 0.05847243592143059 0.06753232330083847 0.6679713129997253
v 0.0647318884730339 0.05992339923977852 0.6631877422332764
v 0.05270903930068016 0.05735309422016144 0.6591557264328003
v 0.04955606162548065 0.0662720799446106 0.6651975512504578
v 0.10343297570943832 0.080520860850811 0.6833398342132568
v 0.11091169714927673 0.08049268275499344 0.6810523867607117
v 0.0049195801839232445 0.08809740841388702 0.702851414680481
v 0.006555289961397648 0.08519914746284485 0.7054866552352905
v 0.08527972549200058 0.05962952598929405 0.7498588562011719
v 0.06715157628059387 0.054459843784570694 0.7532419562339783
v 0.09845803678035736 0.0637982040643692 0.7442530989646912
v 0.10692087560892105 0.06776353716850281 0.7389945983886719
v 0.11497999727725983 0.07027125358581543 0.7370773553848267
v 0.027506768703460693 0.0471932552754879 0.7194752097129822
v 0.052481509745121 0.048140011727809906 0.7152306437492371
v 0.06599190086126328 0.049039386212825775 0.7034764289855957
v 0.070876345038414 0.041327930986881256 0.6742868423461914
v 0.0813334658741951 0.040997788310050964 0.6759827136993408
v 0.07562574744224548 0.040811896324157715 0.6849426031112671
v 0.06763099879026413 0.041797835379838943 0.6815343499183655
v 0.06542189419269562 0.05020229518413544 0.6622793674468994
v 0.06265503168106079 0.044249046593904495 0.6666805148124695
v 0.053495798259973526 0.04418007284402847 0.6649388074874878
v 0.054847780615091324 0.04912629723548889 0.6600134372711182
v 0.04594619199633598 0.05735599994659424 0.7464670538902283
v 0.05704624950885773 0.06222466751933098 0.7467227578163147
v 0.108747199177742 0.05290096998214722 0.6789681911468506
v 0.11539002507925034 0.0537867471575737 0.6827825307846069
v 0.12301989644765854 0.05648481845855713 0.6849976181983948
v 0.08883705735206604 0.042959243059158325 0.7044875025749207
v 0.10238353163003922 0.04260411113500595 0.7072991132736206
v 0.10153637081384659 0.04156237095594406 0.7124616503715515
v 0.0884336456656456 0.04293801262974739 0.7075240612030029
v 0.07971732318401337 0.03536956384778023 0.7227938771247864
v 0.09142215549945831 0.03491578251123428 0.7283286452293396
v 0.06887384504079819 0.0323544517159462 0.7296223044395447
v 0.11340902000665665 0.04800594970583916 0.7155361175537109
v 0.12223455309867859 0.0493914820253849 0.7089928984642029
v 0.12178448587656021 0.051036983728408813 0.7178142666816711
v 0.12317774444818497 0.05018286779522896 0.6992856860160828
v 0.12350001931190491 0.052379440516233444 0.6906670928001404
v 0.11872869729995728 0.08333664387464523 0.6794573068618774
v 0.12025293707847595 0.05419178679585457 0.7255892753601074
v 0.05554919317364693 0.0333729162812233 0.7424608469009399
v 0.047081563621759415 0.03490954637527466 0.7430974841117859
v 0.04529436677694321 0.03768293559551239 0.7360609769821167
v 0.05236462131142616 0.035546258091926575 0.7349744439125061
v 0.021438203752040863 0.06548872590065002 0.7345528602600098
v 0.019895322620868683 0.05860612168908119 0.7368243932723999
v 0.030939310789108276 0.05298948287963867 0.7371289730072021
v 0.09174022078514099 0.03997547924518585 0.6925360560417175
v 0.09650155901908875 0.04248028248548508 0.6811918616294861
v 0.014617923647165298 0.05020994320511818 0.7240263819694519
v 0.006045895628631115 0.08567856252193451 0.7116721272468567
v 0.002070813439786434 0.0849163830280304 0.7158266305923462
v 0.012477349489927292 0.07569736242294312 0.724892795085907
v 0.015989700332283974 0.07739035785198212 0.7197542190551758
v 0.009028533473610878 0.05594135448336601 0.7152996063232422
v 0.009312095120549202 0.05503110587596893 0.722072422504425
v 0.0074477000162005424 0.058549098670482635 0.7192212343215942
v 0.00757964700460434 0.05946733057498932 0.7128815650939941
v 0.01983948051929474 0.052844882011413574 0.6814473271369934
v 0.02841700240969658 0.048921748995780945 0.6811177730560303
v 0.02197364717721939 0.06909786909818649 0.7141411900520325
v 0.02637472376227379 0.0719766914844513 0.7250780463218689
v 0.03526131808757782 0.07425026595592499 0.7248938679695129
v 0.04509597644209862 0.049224261194467545 0.6963217854499817
v 0.034506656229496 0.04877778887748718 0.6942727565765381
v 0.03557943180203438 0.04842088744044304 0.6900820136070251
v 0.024167310446500778 0.04796524718403816 0.7158174514770508
v 0.014449326321482658 0.04971374571323395 0.7174632549285889
v 0.019730325788259506 0.049679484218358994 0.7112515568733215
v 0.02809777855873108 0.0491323359310627 0.7101790308952332
v 0.0771179273724556 0.062309883534908295 0.6664839386940002
v 0.07805006206035614 0.05085435509681702 0.6649681925773621
v -0.007663729600608349 0.08762042224407196 0.7097099423408508
v -0.005850114859640598 0.08412991464138031 0.7139236927032471
v 0.056488361209630966 0.049532849341630936 0.6977019906044006
v 0.048544153571128845 0.07518752664327621 0.7252922058105469
v 0.06780771911144257 0.048284679651260376 0.6984275579452515
v 0.034262385219335556 0.06548862904310226 0.6739269495010376
v 0.03183843567967415 0.06091514229774475 0.6707090735435486
v 0.02492489293217659 0.062440719455480576 0.6737671494483948
v 0.027603555470705032 0.06638312339782715 0.6757721304893494
v -6.7641958594322205e-06 0.06935475766658783 0.7028061151504517
v -0.004114125855267048 0.06951513141393661 0.7070878744125366
v -0.006382848136126995 0.07241392135620117 0.703674852848053
v -0.002102297730743885 0.07186386734247208 0.7000458836555481
v 0.009980513714253902 0.056961286813020706 0.727517306804657
v 0.012396278791129589 0.05966866761445999 0.7327370047569275
v 0.006877587176859379 0.06540240347385406 0.7275106906890869
v 0.006434786599129438 0.061558421701192856 0.7232674956321716
v 0.013901963829994202 0.06612949073314667 0.7326036691665649
v 0.009329590946435928 0.07120121270418167 0.7277438640594482
v 0.005446213763207197 0.07311427593231201 0.7011574506759644
v 0.010060787200927734 0.0794118344783783 0.7027158737182617
v 0.017276635393500328 0.07069282233715057 0.709278404712677
v 0.011269403621554375 0.06513725221157074 0.7086735367774963
v 0.07797938585281372 0.08041663467884064 0.6905888915061951
v 0.08172337710857391 0.07656317204236984 0.6809698343276978
v 0.06760211288928986 0.073362797498703 0.678159236907959
v 0.054089196026325226 0.07087180018424988 0.6747190952301025
v 0.04148922115564346 0.06729627400636673 0.6724539995193481
v 0.03837774693965912 0.07176271080970764 0.6824383735656738
v 0.07157421112060547 0.0702425092458725 0.671919584274292
v 0.009656560607254505 0.05818760395050049 0.7092430591583252
v 0.018009182065725327 0.0653698593378067 0.7162221074104309
v 0.01319117657840252 0.06284380704164505 0.7119415998458862
v 0.06939003616571426 0.0455729179084301 0.6917203664779663
v -0.0016930075362324715 0.0819859504699707 0.7174842357635498
v 0.10394061356782913 0.08430595695972443 0.7253679633140564
v 0.10403814911842346 0.08813605457544327 0.7129332423210144
v 0.0956367775797844 0.08614009618759155 0.7145248651504517
v 0.09537501633167267 0.08134974539279938 0.7278907895088196
v -0.006091090850532055 0.07219552248716354 0.7131285071372986
v -0.005378839559853077 0.07710211724042892 0.7167895436286926
v 0.029114674776792526 0.0492912158370018 0.6751192212104797
v 0.020808465778827667 0.05435934662818909 0.6765209436416626
v 0.019767742604017258 0.05834541842341423 0.6749500632286072
v 0.026866834610700607 0.05165758728981018 0.670720100402832
v 0.08495119959115982 0.07402586936950684 0.6767951846122742
v 0.04449842497706413 0.05436732620000839 0.6573132276535034
v 0.042999137192964554 0.06314998865127563 0.6616866588592529
v 0.09404955804347992 0.07944866269826889 0.6838154196739197
v 0.09087201207876205 0.08340360224246979 0.6920722126960754
v 0.1003342717885971 0.08540825545787811 0.6925570368766785
v 0.027765415608882904 0.07126004993915558 0.6942771673202515
v 0.0733194574713707 0.08195802569389343 0.6976698637008667
v 0.08742350339889526 0.08436045795679092 0.6987910270690918
v 0.0986047312617302 0.086758092045784 0.6996857523918152
v 0.10662452131509781 0.08899282664060593 0.6995878219604492
v 0.10775235295295715 0.0870722085237503 0.6917930841445923
v 0.00898674875497818 0.08320826292037964 0.7063700556755066
v 0.007948951795697212 0.08082404732704163 0.7011896371841431
v 0.11604271829128265 0.09044231474399567 0.6903572678565979
v 0.11454428732395172 0.09183633327484131 0.6993613839149475
v 0.0842827633023262 0.08458959311246872 0.7074249982833862
v 0.0809735581278801 0.08360409736633301 0.7174264788627625
v 0.07076939195394516 0.08210930973291397 0.7058945298194885
v 0.06628362834453583 0.08103759586811066 0.7158547043800354
v 0.027374472469091415 0.07529309391975403 0.704306960105896
v 0.00023331400007009506 0.0868324339389801 0.6890292763710022
v 0.0036517949774861336 0.07879049330949783 0.6958249807357788
v -0.0018623005598783493 0.07581676542758942 0.6958548426628113
v -0.002810557372868061 0.08354046940803528 0.6881574392318726
v 0.003316427581012249 0.07493691891431808 0.6992854475975037
v 0.006729975342750549 0.08337229490280151 0.6984699368476868
v 0.06360145658254623 0.07632069289684296 0.7271879315376282
v 0.011214382946491241 0.05147244781255722 0.708322286605835
v 0.07976367324590683 0.07663718611001968 0.7309976816177368
v 0.055906739085912704 0.07002847641706467 0.7382380366325378
v 0.06762818247079849 0.06879843771457672 0.7414172291755676
v 0.09586912393569946 0.07531505823135376 0.7375258803367615
v 0.08275027573108673 0.06960362195968628 0.7442213296890259
v 0.11262516677379608 0.07953310757875443 0.7327699661254883
v 0.10405311733484268 0.07788240164518356 0.7341904640197754
v 0.06983521580696106 0.0634937658905983 0.7487335205078125
v -0.013630089350044727 0.08745475858449936 0.6976330876350403
v -0.011792813427746296 0.0829436331987381 0.6942463517189026
v 0.11187871545553207 0.08666020631790161 0.7245186567306519
v 0.05904084071516991 0.03313339874148369 0.7334085702896118
v 0.0796423926949501 0.04368304833769798 0.6949891448020935
v 0.07806820422410965 0.04579222574830055 0.6997764110565186
v 0.08745352923870087 0.04134708642959595 0.6777536273002625
v 0.08272706717252731 0.040516868233680725 0.6884245872497559
v -0.012314594350755215 0.09217517822980881 0.6999815702438354
v 0.01583046466112137 0.061635274440050125 0.6933350563049316
v 0.01883738487958908 0.05827522650361061 0.6929430365562439
v 0.05732107535004616 0.03662215173244476 0.7501671314239502
v 0.049180418252944946 0.036833055317401886 0.7502331733703613
v 0.04680327698588371 0.04909348487854004 0.7544216513633728
v 0.047946538776159286 0.04202263057231903 0.7546296119689941
v 0.05733286216855049 0.04403887689113617 0.7545214295387268
v 0.05652663856744766 0.05175541341304779 0.7539748549461365
v 0.08882966637611389 0.04259685426950455 0.7019578814506531
v 0.08915393054485321 0.04178015515208244 0.698205292224884
v 0.08848612010478973 0.06263142824172974 0.6702325344085693
v 0.08867666870355606 0.051210302859544754 0.6690108180046082
v 0.016926217824220657 0.07001061737537384 0.729762077331543
v 0.02406582236289978 0.07000928372144699 0.7301643490791321
v 0.02037055417895317 0.07235239446163177 0.7244592308998108
v 0.019076306372880936 0.0748634859919548 0.7145880460739136
v 0.007656024768948555 0.0549953430891037 0.7069629430770874
v 0.01221383921802044 0.05937366560101509 0.7128885388374329
v 0.0969771146774292 0.03817243501543999 0.719300389289856
v 0.08580750226974487 0.04018964245915413 0.7138380408287048
v 0.048573654145002365 0.0394827201962471 0.7330460548400879
v 0.04359147325158119 0.04349440708756447 0.7335021495819092
v 0.032648954540491104 0.049330830574035645 0.7033325433731079
v 0.01747191697359085 0.0709829181432724 0.6986285448074341
v 0.016085799783468246 0.07145833969116211 0.7046723961830139
v 0.02306567318737507 0.05021718144416809 0.7029260993003845
v -0.00523751974105835 0.09634419530630112 0.6980504989624023
v -0.00979436095803976 0.09498720616102219 0.6997776627540588
v 0.02201521396636963 0.07131974399089813 0.7201482057571411
v 0.03856147825717926 0.0462871715426445 0.6824096441268921
v 0.027804065495729446 0.0655798614025116 0.6918413639068604
v 0.017019735649228096 0.06832302361726761 0.6961000561714172
v 0.048321161419153214 0.04758225008845329 0.6592624187469482
v 0.11267180740833282 0.09016743302345276 0.7125283479690552
v -0.006915601901710033 0.07627291977405548 0.6983523964881897
v -0.008358259685337543 0.08071424067020416 0.6908677220344543
v 0.0019317902624607086 0.09016337245702744 0.6912239193916321
v 0.0006583733484148979 0.09435118734836578 0.6952157616615295
v 0.09801292419433594 0.05121854692697525 0.6743788719177246
v 0.07670365273952484 0.04691122844815254 0.7028472423553467
v 0.05844491720199585 0.05968744680285454 0.7500633597373962
v 0.046572741121053696 0.05519521236419678 0.7507691979408264
v 0.01676948368549347 0.05226458981633186 0.7008737921714783
v 0.03780870512127876 0.0636279359459877 0.6677107214927673
v 0.03275034949183464 0.06946362555027008 0.6811132431030273
v 0.03049420192837715 0.06928431987762451 0.6832203269004822
v 0.029491599649190903 0.06669515371322632 0.6901042461395264
v 0.02380600944161415 0.06267157942056656 0.693549633026123
v -0.0014016227796673775 0.09273602813482285 0.6874039173126221
v -0.0031258706003427505 0.09629679471254349 0.6909138560295105
v -0.0085205202922225 0.09754271805286407 0.693166196346283
v -0.012223937548696995 0.09615913033485413 0.6947536468505859
v -0.014194861985743046 0.09258732944726944 0.695513904094696
v -0.0021972795948386192 0.08989465236663818 0.6845266222953796
v -0.004373912699520588 0.08716034889221191 0.6836608648300171
v -0.008570139296352863 0.08338429778814316 0.6871882677078247
v -0.004113434813916683 0.09136253595352173 0.6803473830223083
v -0.004918050952255726 0.09631931781768799 0.6808630228042603
v -0.016691632568836212 0.10134851187467575 0.6827243566513062
v -0.012482048012316227 0.10057701170444489 0.6861550807952881
v -0.012213504873216152 0.10137240588665009 0.683996856212616
v -0.015056031756103039 0.10235479474067688 0.6803461909294128
v -0.016691498458385468 0.10372251272201538 0.6759148240089417
v -0.019103579223155975 0.10286494344472885 0.6781942248344421
v -0.008133075200021267 0.0995568260550499 0.6837173104286194
v -0.011371447704732418 0.10097837448120117 0.6784633994102478
v -0.008991128765046597 0.09863132983446121 0.6760711073875427
v -0.011339022777974606 0.10062414407730103 0.6718257069587708
v -0.013446188531816006 0.10302439332008362 0.6737970113754272
v -0.006842701695859432 0.09805350005626678 0.6798813343048096
v -0.006958427838981152 0.09895911812782288 0.6848765015602112
v -0.019245408475399017 0.10320962965488434 0.673880398273468
v -0.017182663083076477 0.10432131588459015 0.6732919812202454
v -0.014876625500619411 0.10327818244695663 0.6713821887969971
v -0.017049640417099 0.10231782495975494 0.6697337031364441
v -0.01476429682224989 0.09698379039764404 0.6903255581855774
v -0.018525533378124237 0.0997544527053833 0.6833797097206116
v -0.020366817712783813 0.10008406639099121 0.6779226660728455
v -0.02037081867456436 0.10073696821928024 0.6736019849777222
v -0.01968904584646225 0.0962579995393753 0.681869387626648
v -0.02042274922132492 0.09731519222259521 0.6772763729095459
v -0.0202653706073761 0.09750628471374512 0.6733894944190979
v -0.019214607775211334 0.0928792804479599 0.6796098351478577
v -0.01965589076280594 0.09469007700681686 0.6758467555046082
v -0.014959448017179966 0.08916837722063065 0.6903003454208374
v -0.015373599715530872 0.09258672595024109 0.6922541856765747
v -0.02017449215054512 0.0953451618552208 0.6734097003936768
v -0.017734691500663757 0.10037357360124588 0.6693202257156372
v -0.007385781966149807 0.09537819772958755 0.6757512092590332
v -0.011355976574122906 0.0975707471370697 0.6708062887191772
v -0.007670416496694088 0.09318745136260986 0.6751471757888794
v -0.011341913603246212 0.09528464078903198 0.6700281500816345
v -0.013449511490762234 0.0997951328754425 0.6680559515953064
v -0.013172215782105923 0.10139824450016022 0.6699917912483215
v -0.013956074602901936 0.08776700496673584 0.694449245929718
v -0.01146977860480547 0.08392857015132904 0.6905233860015869
v -0.011960658244788647 0.08547572791576385 0.6867183446884155
v -0.016768604516983032 0.08983436226844788 0.6770110130310059
v -0.009149632416665554 0.0850474089384079 0.6832481026649475
v -0.006027606315910816 0.08854489028453827 0.679493248462677
v -0.009498386643826962 0.09121223539113998 0.6742537617683411
v -0.012356768362224102 0.08956257253885269 0.6747177839279175
v -0.012601564638316631 0.09320004284381866 0.6706877946853638
v -0.014605800621211529 0.0922466367483139 0.6719337105751038
v -0.017804622650146484 0.09246426820755005 0.6737404465675354
v -0.01551287155598402 0.09528203308582306 0.6690496206283569
v -0.014201811514794827 0.09773550182580948 0.6680671572685242
v -0.01837906613945961 0.09720589965581894 0.6701163053512573
v -0.0160558819770813 0.09382282197475433 0.6702659726142883
v -0.018272675573825836 0.09510093927383423 0.6716940402984619
v -0.010427401401102543 0.06835412979125977 0.675045907497406
v -0.00843177642673254 0.07403669506311417 0.6741887331008911
v -0.006745713762938976 0.07100611180067062 0.6801431179046631
v -0.009695612825453281 0.06717846542596817 0.6815325617790222
v -0.019597124308347702 0.07010291516780853 0.6852814555168152
v -0.017254814505577087 0.06655768305063248 0.681071937084198
v -0.016373228281736374 0.067508764564991 0.6881473064422607
v -0.016400888562202454 0.07274237275123596 0.6904577016830444
v -0.01936117559671402 0.0758553296327591 0.6860842108726501
v -0.014123459346592426 0.07702658325433731 0.6903373003005981
v -0.014317200519144535 0.07331059128046036 0.6948397159576416
v -0.01372563000768423 0.0667642131447792 0.6921380162239075
v 0.002064586617052555 0.06143534183502197 0.7039247751235962
v 0.001620936207473278 0.0682143121957779 0.7059091925621033
v 0.012822817079722881 0.06058222055435181 0.6919531226158142
v 0.012508567422628403 0.06526680290699005 0.6919373273849487
v -0.013764706440269947 0.06620682775974274 0.6771481037139893
v -0.013473606668412685 0.06581602245569229 0.6839302182197571
v -0.0002163723111152649 0.07409688830375671 0.679884135723114
v -0.0014674877747893333 0.06895279884338379 0.6793426871299744
v -0.004522497765719891 0.07492963969707489 0.6781284213066101
v -0.00570620596408844 0.07978452742099762 0.6795631647109985
v 0.00655096210539341 0.05578131228685379 0.6993914842605591
v 0.010801143012940884 0.057273220270872116 0.6960415840148926
v 0.0037307078018784523 0.05774831026792526 0.7012433409690857
v -0.0015401700511574745 0.07950643450021744 0.6834492683410645
v -0.005008104257285595 0.08217846602201462 0.688507080078125
v 0.00848506111651659 0.07688680291175842 0.6985619068145752
v 0.011061720550060272 0.07384045422077179 0.6943402290344238
v -0.011776016093790531 0.06337670981884003 0.6882504820823669
v -0.004864499904215336 0.06478933244943619 0.6811763644218445
v -0.008196943439543247 0.06255445629358292 0.6839386224746704
v -0.010157992132008076 0.07894161343574524 0.6933166980743408
v -0.01128204632550478 0.08227896690368652 0.686836838722229
v -0.021396029740571976 0.08449101448059082 0.6710569858551025
v -0.01355175580829382 0.08373893052339554 0.680637776851654
v -0.010660284198820591 0.08242160826921463 0.676618218421936
v -0.018498409539461136 0.08432653546333313 0.667216956615448
v -0.008562910370528698 0.08280093222856522 0.6837512254714966
v -0.016520697623491287 0.08113023638725281 0.684131383895874
v -0.018407799303531647 0.0721563771367073 0.6622103452682495
v -0.01625124365091324 0.07791616022586823 0.6614521741867065
v -0.021240223199129105 0.06934136152267456 0.6642258763313293
v 0.004500522278249264 0.07473742216825485 0.7032738327980042
v -0.02636032924056053 0.07075139880180359 0.6727914214134216
v -0.023574601858854294 0.06831847131252289 0.6675784587860107
v -0.008078577928245068 0.07923831045627594 0.6742895841598511
v -0.016860615462064743 0.08232979476451874 0.6634228229522705
v -0.024223074316978455 0.08234001696109772 0.6737481355667114
v -0.02644253522157669 0.07628164440393448 0.6760481595993042
v -0.026865392923355103 0.08280961215496063 0.6685311198234558
v -0.029378902167081833 0.07762657105922699 0.670324981212616
v -0.029686782509088516 0.0721166804432869 0.6674780249595642
v -0.026805486530065536 0.06984710693359375 0.6634859442710876
v -0.023808494210243225 0.07050231844186783 0.6609416007995605
v -0.024593334645032883 0.08480338007211685 0.666083037853241
v -0.021798912435770035 0.08501361310482025 0.6625104546546936
v -0.018879055976867676 0.08204375207424164 0.6604415774345398
v -0.0276215597987175 0.08629865944385529 0.6596095561981201
v -0.031267356127500534 0.08465858548879623 0.6610380411148071
v -0.04011090472340584 0.07560595124959946 0.649827241897583
v -0.03735232725739479 0.07439455389976501 0.6547247767448425
v -0.03843642771244049 0.07662561535835266 0.6555124521255493
v -0.04105733707547188 0.0779745876789093 0.6510958075523376
v -0.035585224628448486 0.07454743981361389 0.6603963971138
v -0.036625783890485764 0.07665674388408661 0.6593906283378601
v -0.034987933933734894 0.08049284666776657 0.6609163284301758
v -0.037353869527578354 0.08125048875808716 0.6558309197425842
v -0.03468469902873039 0.08520565927028656 0.6559424996376038
v -0.037984974682331085 0.08683452010154724 0.6518522500991821
v -0.04104185104370117 0.08302322775125504 0.6518029570579529
v -0.0338677279651165 0.08382294327020645 0.6595823764801025
v -0.042403511703014374 0.079781174659729 0.648419976234436
v -0.041822273284196854 0.07915300875902176 0.6459841132164001
v -0.033774007111787796 0.07959692180156708 0.6630764007568359
v -0.030541475862264633 0.07079249620437622 0.6606107354164124
v -0.03534415364265442 0.07292553037405014 0.6529800295829773
v -0.037981029599905014 0.07510454207658768 0.6474576592445374
v -0.039651814848184586 0.07981538772583008 0.6439338326454163
v -0.0323200449347496 0.07362702488899231 0.6503507494926453
v -0.03552483022212982 0.07616110146045685 0.6457111239433289
v -0.037031494081020355 0.08032608032226562 0.6433465480804443
v -0.02906106784939766 0.07609053701162338 0.6482176780700684
v -0.03260223567485809 0.07875775545835495 0.6442422270774841
v -0.022460054606199265 0.07321365177631378 0.6571283340454102
v -0.026150204241275787 0.07056304067373276 0.6585224270820618
v -0.034635934978723526 0.08038654178380966 0.643368124961853
v -0.0422934927046299 0.08402082324028015 0.6460813283920288
v -0.03983236849308014 0.08399347215890884 0.6436899900436401
v -0.042374610900878906 0.08373571932315826 0.6479107141494751
v -0.03317151591181755 0.08654534071683884 0.6553623080253601
v -0.0364089272916317 0.08777943253517151 0.6504274606704712
v -0.031004007905721664 0.08749568462371826 0.6540189385414124
v -0.03492627292871475 0.0883341133594513 0.6485981345176697
v -0.03941948339343071 0.08767489343881607 0.647097110748291
v -0.040530961006879807 0.08686154335737228 0.6482106447219849
v -0.02075224369764328 0.07335709035396576 0.6599434018135071
v -0.018523037433624268 0.07830749452114105 0.65951007604599
v -0.01992494985461235 0.07801572978496552 0.6568268537521362
v -0.026793766766786575 0.08053162693977356 0.6481545567512512
v -0.020399760454893112 0.08246609568595886 0.657695472240448
v -0.024388566613197327 0.08583676069974899 0.6581226587295532
v -0.028664853423833847 0.0870787501335144 0.652529239654541
v -0.02698567882180214 0.08480346202850342 0.6498677134513855
v -0.033010777086019516 0.08854871988296509 0.6474550366401672
v -0.03065170720219612 0.08631709218025208 0.6467962861061096
v -0.030591677874326706 0.08213335275650024 0.644565761089325
v -0.03624903783202171 0.08776053786277771 0.6443822979927063
v -0.038276806473731995 0.08793073892593384 0.6457167267799377
v -0.03764605149626732 0.08376257121562958 0.6431199312210083
v -0.03354126587510109 0.08636969327926636 0.6443241834640503
v -0.03446849063038826 0.08308669924736023 0.6431325674057007
v 0.0054717897437512875 0.07328200340270996 0.7046308517456055
v 0.0018867505714297295 0.07604826986789703 0.7007632255554199
v 0.002201048657298088 0.07233165204524994 0.6970858573913574
v 0.005652218591421843 0.07111262530088425 0.7015107274055481
v 0.017153915017843246 0.07857902348041534 0.7031858563423157
v 0.014064706861972809 0.0753910169005394 0.7053296566009521
v 0.014147699810564518 0.07393980026245117 0.7029933333396912
v 0.017376238480210304 0.07729776203632355 0.7001419067382812
v 0.016399208456277847 0.08365108072757721 0.70074063539505
v 0.01738096959888935 0.08141739666461945 0.6968119144439697
v 0.018530137836933136 0.07683664560317993 0.6986966133117676
v 0.014127152040600777 0.07342541962862015 0.7012252807617188
v 0.022402361035346985 0.06468285620212555 0.6952914595603943
v 0.02689351513981819 0.06960666179656982 0.6933969855308533
v 0.009764608927071095 0.07341817021369934 0.7056154012680054
v 0.009709019213914871 0.07205222547054291 0.7034713625907898
v 0.003847024869173765 0.07482091337442398 0.6870602369308472
v 0.003069235011935234 0.07091375440359116 0.6898477077484131
v 0.0015771156176924706 0.07627382129430771 0.6933593153953552
v 0.0031574731692671776 0.08086301386356354 0.6912866830825806
v 0.01640765368938446 0.0568828359246254 0.6902841925621033
v 0.01647593080997467 0.057333458214998245 0.6841914653778076
v 0.017855443060398102 0.06047717481851578 0.6940788626670837
v 0.00776553712785244 0.07946807891130447 0.6859913468360901
v 0.014380844309926033 0.0817108154296875 0.6879832148551941
v 0.023064158856868744 0.07269079983234406 0.6808605194091797
v 0.01915881037712097 0.06843140721321106 0.6785993576049805
v 0.009819911792874336 0.07063321024179459 0.7023141384124756
v 0.003913810942322016 0.06845792382955551 0.6941013336181641
v 0.006019542459398508 0.06819839775562286 0.699616014957428
v 0.01821422576904297 0.07988279312849045 0.6941094994544983
v 0.013486478477716446 0.08449455350637436 0.6920763254165649
v 0.004957661032676697 0.09384571015834808 0.7095878720283508
v 0.005911801476031542 0.08686155080795288 0.6944234371185303
v 0.0016468474641442299 0.0838908702135086 0.6961365938186646
v 0.0012314552441239357 0.09272561967372894 0.710713267326355
v 0.0071059297770261765 0.08439698070287704 0.6906141638755798
v 0.012034136801958084 0.08672626316547394 0.6962231397628784
v 0.0031232167966663837 0.08211597055196762 0.718143880367279
v -0.0003448743373155594 0.08493001759052277 0.7150894403457642
v 0.007096253335475922 0.08109797537326813 0.7175189852714539
v 0.027584675699472427 0.07331328839063644 0.6875793933868408
v 0.016723453998565674 0.06218303367495537 0.6791517734527588
v 0.012618277221918106 0.0847841203212738 0.7156673073768616
v 0.010024850256741047 0.08210200816392899 0.7170941233634949
v 0.0005840379744768143 0.0801675096154213 0.6974781155586243
v -0.0010714419186115265 0.089480459690094 0.7126056551933289
v 0.00945423822849989 0.0926877111196518 0.7096123695373535
v 0.013478321023285389 0.08903592824935913 0.7119330167770386
v 0.008302481845021248 0.09459376335144043 0.7117581963539124
v 0.012083316221833229 0.09114876389503479 0.7141406536102295
v 0.012080226093530655 0.08777637779712677 0.7181170582771301
v 0.009591855108737946 0.08568239212036133 0.7203143835067749
v 0.00652962364256382 0.08490253239870071 0.721187949180603
v 0.004623098764568567 0.09626656770706177 0.7121809124946594
v 0.0015141302719712257 0.09564216434955597 0.7137988209724426
v -0.00109811220318079 0.09114928543567657 0.7148253917694092
v 0.005349207669496536 0.09892003238201141 0.7146251201629639
v 0.010325226932764053 0.09867361187934875 0.7152734398841858
v 0.015878859907388687 0.10113237798213959 0.7309133410453796
v 0.014490662142634392 0.09672517329454422 0.7275115251541138
v 0.014805172570049763 0.0976448804140091 0.7267097234725952
v 0.016676221042871475 0.10213261842727661 0.7296890020370483
v 0.013924640603363514 0.092617928981781 0.7217205166816711
v 0.014412795193493366 0.09480435401201248 0.7225684523582458
v 0.013709117658436298 0.09636565297842026 0.7190722823143005
v 0.015369482338428497 0.10144513845443726 0.7229958176612854
v 0.010862244293093681 0.10403260588645935 0.720114529132843
v 0.012585113756358624 0.107426717877388 0.7231832146644592
v 0.016987554728984833 0.10539683699607849 0.7260565757751465
v 0.01153729110956192 0.09948687255382538 0.7172048091888428
v 0.017037231475114822 0.1051245778799057 0.7305752038955688
v 0.017286933958530426 0.10473281145095825 0.7323697805404663
v 0.013063276186585426 0.09476755559444427 0.717161238193512
v 0.011235148645937443 0.08944741636514664 0.7237259149551392
v 0.012581685557961464 0.09537331759929657 0.7291956543922424
v 0.013815009035170078 0.09988278150558472 0.7330530881881714
v 0.013944248668849468 0.1041017472743988 0.7338584661483765
v 0.008837234228849411 0.09530853480100632 0.7298766374588013
v 0.010566637851297855 0.0998811274766922 0.7330478429794312
v 0.010795324109494686 0.10364016890525818 0.7338805794715881
v 0.005805078893899918 0.09588930010795593 0.7292500138282776
v 0.007470427080988884 0.10040487349033356 0.7321417331695557
v 0.003375805914402008 0.08751415461301804 0.7223985195159912
v 0.007473406847566366 0.08778224885463715 0.7238051891326904
v 0.008706201799213886 0.10338082909584045 0.7330414056777954
v 0.016165558248758316 0.10860835015773773 0.7298606634140015
v 0.012283068150281906 0.10871158540248871 0.7315072417259216
v 0.01646282523870468 0.10748955607414246 0.7286520004272461
v 0.009321581572294235 0.1041041761636734 0.7190519571304321
v 0.01063621323555708 0.10886865854263306 0.723220705986023
v 0.0066196369007229805 0.10386338829994202 0.7192060947418213
v 0.00786806084215641 0.1087513118982315 0.7237218022346497
v 0.012928095646202564 0.11024364829063416 0.7261729836463928
v 0.013832288794219494 0.10941514372825623 0.7259811758995056
v 0.002667195163667202 0.08476747572422028 0.7200002670288086
v -0.0005041509866714478 0.08733703196048737 0.7174408435821533
v 0.00014931987971067429 0.089870385825634 0.7201638221740723
v 0.0032136598601937294 0.0986822172999382 0.7273774147033691
v -0.0003705071285367012 0.09331953525543213 0.7172223925590515
v 0.002734910696744919 0.09862283617258072 0.7164145112037659
v 0.004397938027977943 0.10296745598316193 0.7211245894432068
v 0.003015948459506035 0.10147157311439514 0.7240059971809387
v 0.005882176570594311 0.10748611390590668 0.72511225938797
v 0.004873615689575672 0.10521547496318817 0.7264761924743652
v 0.004934708587825298 0.10270684957504272 0.7304257750511169
v 0.007943637669086456 0.10873743891716003 0.728171169757843
v 0.010217437520623207 0.11027641594409943 0.7270509600639343
v 0.009454721584916115 0.1073484718799591 0.7320706248283386
v 0.006353653967380524 0.10688139498233795 0.7289488911628723
v 0.007463566027581692 0.10567840933799744 0.7318264842033386
v 0.01629755087196827 0.058893926441669464 0.6803921461105347
v 0.01762763410806656 0.049399279057979584 0.6715678572654724
v 0.01836363598704338 0.0454464890062809 0.6717860698699951
v 0.021130595356225967 0.04467427730560303 0.6691280007362366
v 0.02137153223156929 0.04862441495060921 0.6692399382591248
v 0.01242616306990385 0.0525503009557724 0.6623545289039612
v 0.013955296017229557 0.0533297099173069 0.6665538549423218
v 0.017045389860868454 0.05388542637228966 0.6636059880256653
v 0.015955183655023575 0.05343275144696236 0.6591805815696716
v 0.011548609472811222 0.048535943031311035 0.6592931151390076
v 0.015168913640081882 0.049616001546382904 0.6559131145477295
v 0.01831202581524849 0.056607358157634735 0.658917248249054
v 0.019211087375879288 0.05593728646636009 0.6637170910835266
v 0.02947455272078514 0.0608263723552227 0.6684709191322327
v 0.031285446137189865 0.06258150190114975 0.6641291975975037
v 0.041878897696733475 0.04653443396091461 0.6596885919570923
v 0.04212478920817375 0.044023822993040085 0.6637173295021057
v 0.03485800698399544 0.04440592601895332 0.6638160347938538
v 0.03587721660733223 0.045264407992362976 0.6596782207489014
v 0.015892233699560165 0.05203363671898842 0.6695460081100464
v 0.019170522689819336 0.05201202630996704 0.6675873398780823
v 0.024723481386899948 0.0400344654917717 0.6611581444740295
v 0.024897824972867966 0.041025370359420776 0.6654828786849976
v 0.021740183234214783 0.040915604680776596 0.6678610444068909
v 0.020383361726999283 0.0384058877825737 0.6645846962928772
v 0.03876201808452606 0.04451441764831543 0.667815625667572
v 0.0347488597035408 0.046756647527217865 0.6698842644691467
v 0.03103889524936676 0.04872344434261322 0.670342206954956
v 0.032588232308626175 0.04575378820300102 0.6676714420318604
v 0.028369344770908356 0.05434693396091461 0.6715304851531982
v 0.02333308383822441 0.04142606630921364 0.6571945548057556
v 0.021100196987390518 0.046130672097206116 0.6535493731498718
v 0.03613867610692978 0.05284450948238373 0.6543127298355103
v 0.03714906424283981 0.048400577157735825 0.6562256813049316
v 0.020240141078829765 0.053372085094451904 0.6674373745918274
v 0.023752648383378983 0.044215716421604156 0.6681535243988037
v 0.022169139236211777 0.04885631799697876 0.6688482761383057
v 0.019286029040813446 0.05311045050621033 0.6543303728103638
v 0.015766654163599014 0.043417565524578094 0.6562997102737427
v 0.00766198243945837 0.03740387037396431 0.6690344214439392
v 0.014304683543741703 0.038470108062028885 0.6632069945335388
v 0.016483575105667114 0.03828674927353859 0.6674719452857971
v 0.009368046186864376 0.0372101254761219 0.6717462539672852
v 0.018884580582380295 0.03960766643285751 0.6599417328834534
v 0.011712300591170788 0.042302146553993225 0.6599100828170776
v 0.011133856140077114 0.04802737012505531 0.6772332787513733
v 0.012220415286719799 0.043078597635030746 0.6764935255050659
v 0.009589985944330692 0.05047271400690079 0.6757458448410034
v 0.03364059329032898 0.06045394018292427 0.6581144332885742
v 0.005244375206530094 0.05033796280622482 0.6697743535041809
v 0.007112652994692326 0.05142926797270775 0.6735499501228333
v 0.01795491948723793 0.04151095449924469 0.67048579454422
v 0.011218572966754436 0.0391700342297554 0.6744495034217834
v 0.005489199422299862 0.040259335190057755 0.6666181683540344
v 0.004250236786901951 0.04610989987850189 0.6661190986633301
v 0.002225755713880062 0.03960850462317467 0.6700342893600464
v 0.001188470982015133 0.045203737914562225 0.6702204346656799
v 0.0023156097158789635 0.049350813031196594 0.6746887564659119
v 0.004869258962571621 0.04998727887868881 0.6770114898681641
v 0.007252427749335766 0.04905351623892784 0.6788944602012634
v 0.00487417820841074 0.0367932990193367 0.6720827221870422
v 0.0070617785677313805 0.03668694570660591 0.674446165561676
v 0.009527475573122501 0.038599006831645966 0.6765764355659485
v 0.0013895025476813316 0.03629882261157036 0.6753538250923157
v -0.002194107510149479 0.039407938718795776 0.6751951575279236
v -0.00554788950830698 0.04412449896335602 0.6872520446777344
v -0.0030211256816983223 0.045532576739788055 0.6846732497215271
v -0.0036731483414769173 0.04509487748146057 0.6837803721427917
v -0.006397047080099583 0.0442398265004158 0.6865634322166443
v -0.001018294133245945 0.047207050025463104 0.6801965832710266
v -0.0021779658272862434 0.04601317644119263 0.6802179217338562
v -0.002411407418549061 0.044096656143665314 0.6773542761802673
v -0.0056337760761380196 0.042617738246917725 0.6808330416679382
v -0.005294610746204853 0.03744512051343918 0.6797583699226379
v -0.007985112257301807 0.036925964057445526 0.6827159523963928
v -0.008265011943876743 0.04163850098848343 0.6831596493721008
v -0.0034954482689499855 0.04019750654697418 0.6766394376754761
v -0.008722708560526371 0.04324207454919815 0.6874569058418274
v -0.008847140707075596 0.0431005135178566 0.6888323426246643
v -0.0019330913200974464 0.04500563442707062 0.6756675839424133
v 0.002468942664563656 0.048260875046253204 0.681847870349884
v -0.0017555886879563332 0.04555363208055496 0.6867792010307312
v -0.005335808731615543 0.04374278336763382 0.6894935965538025
v -0.008129534311592579 0.04152301698923111 0.6902408599853516
v 0.0005977628752589226 0.04455993324518204 0.6871453523635864
v -0.003711027093231678 0.042532749474048615 0.6906493306159973
v -0.006337192840874195 0.04028014838695526 0.6912735104560852
v 0.002917482517659664 0.04217931628227234 0.687211811542511
v -0.0018555643036961555 0.04059247672557831 0.6902397871017456
v 0.00790464412420988 0.044454023241996765 0.6823497414588928
v 0.005303683690726757 0.04697851091623306 0.6825148463249207
v -0.004758936353027821 0.039501890540122986 0.6907342076301575
v -0.010705781169235706 0.040060512721538544 0.6871926188468933
v -0.009184160269796848 0.03854041546583176 0.6892426013946533
v -0.01056708488613367 0.040512748062610626 0.6856698393821716
v -0.004574094898998737 0.036272600293159485 0.6795570850372314
v -0.007729419507086277 0.03543879836797714 0.6833317875862122
v -0.0026879804208874702 0.034669648855924606 0.6802061796188354
v -0.006365378387272358 0.03431779891252518 0.6846500039100647
v -0.009911851026117802 0.0366964116692543 0.6858288645744324
v -0.00979416910558939 0.03800658881664276 0.6845483779907227
v 0.00939525943249464 0.04601886868476868 0.6801406145095825
v 0.010431417264044285 0.04247916489839554 0.6783778667449951
v 0.008782065473496914 0.04084288701415062 0.680627703666687
v 0.003819703124463558 0.03874349594116211 0.6858804225921631
v 0.007409910671412945 0.03722384572029114 0.6785058975219727
v 0.004396221600472927 0.03588680922985077 0.6765047907829285
v -0.0004379870370030403 0.03444357588887215 0.6816042065620422
v 0.0019437214359641075 0.03549187630414963 0.6836775541305542
v -0.0048041390255093575 0.03427436947822571 0.6861941814422607
v -0.0023856358602643013 0.03530541807413101 0.68771892786026
v -0.0010452242568135262 0.037683308124542236 0.6892973184585571
v -0.007092718966305256 0.03608860820531845 0.6887199878692627
v -0.008726158179342747 0.03602368384599686 0.6877111792564392
v -0.007312481291592121 0.037928104400634766 0.6900302171707153
v -0.005230733193457127 0.036352597177028656 0.6893848180770874
v -0.0048960791900753975 0.03770250082015991 0.690169095993042
v 0.040237363427877426 0.04951224476099014 0.6575634479522705
v 0.030867472290992737 0.052402183413505554 0.7458125352859497
v 0.031573135405778885 0.05140376836061478 0.740260899066925
v 0.03264962136745453 0.035254865884780884 0.7387698888778687
v 0.03158817067742348 0.041395243257284164 0.7351895570755005
v 0.032648179680109024 0.0328294113278389 0.7452756762504578
v 0.03223307430744171 0.03812992572784424 0.7546336650848389
v 0.033526286482810974 0.03439155966043472 0.7508261799812317
v 0.031473930925130844 0.04714364930987358 0.7359820604324341
v 0.031118080019950867 0.0505707710981369 0.7512342929840088
v 0.03179085627198219 0.044740624725818634 0.7555211186408997
v 0.019963838160037994 0.0509171262383461 0.7508525252342224
v 0.020346015691757202 0.043570831418037415 0.7549414038658142
v 0.020671140402555466 0.036324016749858856 0.7536991834640503
v 0.024472523480653763 0.03261242061853409 0.7485033273696899
v 0.02595728263258934 0.03141177445650101 0.7438281178474426
v 0.023574572056531906 0.052325230091810226 0.7439122796058655
v 0.025410328060388565 0.051238007843494415 0.7386409640312195
v 0.027117956429719925 0.04611944407224655 0.7347159385681152
v 0.017102528363466263 0.05157521367073059 0.7392777800559998
v 0.009004916064441204 0.04623354226350784 0.7384439706802368
v 0.002833484672009945 0.02844959683716297 0.7331119775772095
v 0.008052843622863293 0.029529182240366936 0.7372466325759888
v 0.00643566157668829 0.0317908376455307 0.7376314401626587
v 0.001573837362229824 0.030433570966124535 0.734219491481781
v 0.010196271352469921 0.032453298568725586 0.7416845560073853
v 0.008901393972337246 0.03400170058012009 0.7404894828796387
v 0.008921998552978039 0.039437755942344666 0.7408391237258911
v 0.004468283616006374 0.037875160574913025 0.737307071685791
v 0.008265688084065914 0.04353373497724533 0.7378641963005066
v 0.005777410231530666 0.04309557378292084 0.7343417406082153
v 0.0002198508009314537 0.03661715239286423 0.7338290214538574
v -0.0018385956063866615 0.03142493963241577 0.7325182557106018
v -0.003123045898973942 0.03540538251399994 0.7308069467544556
v -0.0012133801355957985 0.02970525436103344 0.7300711870193481
v 0.007496423088014126 0.04059803485870361 0.7439818382263184
v 0.016345340758562088 0.030239053070545197 0.7433167695999146
v 0.011146030388772488 0.02794630639255047 0.7364348769187927
v 0.005492831580340862 0.027357587590813637 0.7309434413909912
v 0.0007634153589606285 0.029302269220352173 0.727627158164978
v 0.014246097765862942 0.0280606709420681 0.7335599660873413
v 0.008899769745767117 0.02854524366557598 0.7286736965179443
v 0.00471003632992506 0.031038695946335793 0.7256175875663757
v 0.01645609736442566 0.03086600825190544 0.7303523421287537
v 0.010788450948894024 0.03145348280668259 0.7268711924552917
v 0.025422971695661545 0.03360426425933838 0.7368370294570923
v 0.022173695266246796 0.030144615098834038 0.7408703565597534
v 0.007017514668405056 0.03252682089805603 0.7254447937011719
v -0.0038614654913544655 0.03486543148756027 0.7283108830451965
v -0.0015475498512387276 0.03461466729640961 0.7256802320480347
v 0.007286413572728634 0.045771412551403046 0.7330560684204102
v 0.0013990392908453941 0.04222951829433441 0.7314395904541016
v 0.002828783355653286 0.04355441778898239 0.7293497920036316
v 0.010452262125909328 0.0473579466342926 0.7313510179519653
v 0.0047055622562766075 0.04409876465797424 0.7272861003875732
v -0.0014463001862168312 0.04035816341638565 0.7276788353919983
v -0.001650937832891941 0.03966854512691498 0.7302830815315247
v 0.028024107217788696 0.033811915665864944 0.7382860779762268
v 0.028537463396787643 0.039671529084444046 0.7350550889968872
v 0.026168297976255417 0.03980858623981476 0.7341446876525879
v 0.017673876136541367 0.03697090595960617 0.7281998991966248
v 0.024235617369413376 0.04588752239942551 0.7329683303833008
v 0.02063068374991417 0.05035920813679695 0.7356476187705994
v 0.013254239223897457 0.04661272466182709 0.7289997935295105
v 0.01627066731452942 0.043022118508815765 0.72774738073349
v 0.007456119172275066 0.042632121592760086 0.7256132960319519
v 0.009483846835792065 0.04041270166635513 0.7252329587936401
v 0.010829265229403973 0.03562256321310997 0.7252214550971985
v 0.0037034107372164726 0.03922408074140549 0.7244113087654114
v 0.0007297983393073082 0.0404454842209816 0.7254523038864136
v 0.0027161790058016777 0.03497590869665146 0.724331259727478
v 0.006309877149760723 0.03844590485095978 0.7246077656745911
v 0.006196777336299419 0.03533512353897095 0.7245997786521912
v 0.04808690771460533 0.04401795566082001 0.6645412445068359
v 0.04491054639220238 0.04348529875278473 0.6699789762496948
v 0.05169188231229782 0.043068014085292816 0.6701231598854065
v 0.06096463277935982 0.04215288162231445 0.6720002889633179
v 0.07106082886457443 0.043840568512678146 0.6687756776809692
v 0.05896908789873123 0.043054379522800446 0.6784895062446594
v 0.049419209361076355 0.04394180327653885 0.6760413646697998
v 0.0392257384955883 0.04543989896774292 0.6749848127365112
v 0.06517376750707626 0.04467266425490379 0.6865779161453247
f 2 3 1
f 1 3 4
f 5 6 8
f 8 6 7
f 9 4 10
f 10 4 3
f 12 13 11
f 11 13 9
f 14 12 16
f 16 12 15
f 18 19 17
f 17 19 20
f 22 23 21
f 21 23 24
f 26 27 25
f 25 27 28
f 30 31 29
f 29 31 32
f 33 34 36
f 36 34 35
f 37 38 40
f 40 38 39
f 41 42 6
f 6 42 43
f 6 43 7
f 7 43 44
f 45 34 46
f 46 34 33
f 48 49 47
f 47 49 50
f 52 53 51
f 51 53 54
f 56 52 55
f 55 52 51
f 58 59 57
f 57 59 60
f 61 62 4
f 4 62 1
f 64 65 63
f 63 65 66
f 68 69 67
f 67 69 70
f 72 73 71
f 71 73 74
f 76 77 75
f 75 77 78
f 53 79 54
f 54 79 80
f 82 83 81
f 81 83 84
f 85 86 52
f 52 86 53
f 57 60 87
f 87 60 88
f 89 90 43
f 43 90 44
f 43 42 89
f 89 42 91
f 40 39 92
f 92 39 93
f 94 70 64
f 64 70 69
f 13 61 9
f 9 61 4
f 25 28 69
f 69 28 95
f 96 25 68
f 68 25 69
f 98 99 97
f 97 99 100
f 101 102 104
f 104 102 103
f 106 30 105
f 105 30 29
f 51 54 107
f 107 54 108
f 54 80 108
f 108 80 109
f 111 112 110
f 110 112 113
f 115 5 114
f 114 5 116
f 115 41 5
f 5 41 6
f 36 35 111
f 111 35 117
f 35 118 117
f 117 118 119
f 34 120 35
f 35 120 118
f 34 45 120
f 120 45 121
f 125 126 124
f 124 126 127
f 128 129 14
f 14 129 130
f 33 131 46
f 46 131 132
f 133 94 63
f 63 94 64
f 134 135 137
f 137 135 136
f 139 140 138
f 138 140 141
f 77 142 78
f 78 142 143
f 144 145 20
f 20 145 146
f 148 149 147
f 147 149 72
f 151 152 150
f 150 152 153
f 82 101 83
f 83 101 104
f 101 82 155
f 155 82 154
f 156 157 58
f 58 157 59
f 158 68 147
f 147 68 67
f 159 146 15
f 15 146 16
f 68 158 96
f 96 158 160
f 129 66 130
f 130 66 65
f 162 163 161
f 161 163 164
f 166 167 165
f 165 167 168
f 170 171 169
f 169 171 172
f 174 171 173
f 173 171 170
f 176 177 175
f 175 177 178
f 180 181 179
f 179 181 24
f 182 183 21
f 21 183 184
f 81 185 82
f 82 185 154
f 186 187 188
f 188 187 144
f 158 71 160
f 160 71 189
f 190 135 157
f 157 135 59
f 169 172 139
f 139 172 140
f 147 72 158
f 158 72 71
f 192 193 191
f 191 193 194
f 167 166 49
f 49 166 195
f 196 190 50
f 50 190 157
f 197 198 200
f 200 198 199
f 21 24 182
f 182 24 181
f 146 159 20
f 20 159 17
f 182 181 81
f 81 181 185
f 201 185 180
f 180 185 181
f 202 203 83
f 83 203 84
f 205 206 204
f 204 206 85
f 207 22 184
f 184 22 21
f 179 24 208
f 208 24 23
f 208 209 179
f 179 209 205
f 209 210 205
f 205 210 206
f 212 206 211
f 211 206 210
f 179 205 180
f 180 205 204
f 213 176 88
f 88 176 214
f 86 85 212
f 212 85 206
f 193 217 218
f 217 219 218
f 218 219 220
f 219 18 220
f 220 18 17
f 19 221 20
f 20 221 144
f 222 223 225
f 225 223 224
f 175 226 176
f 176 226 214
f 227 87 214
f 214 87 88
f 220 17 228
f 228 17 159
f 134 213 60
f 60 213 88
f 138 229 151
f 151 229 152
f 193 192 210
f 210 192 211
f 230 194 218
f 218 194 193
f 231 232 228
f 228 232 230
f 233 234 91
f 91 234 89
f 235 236 93
f 93 236 92
f 230 232 234
f 234 232 237
f 47 238 48
f 48 238 239
f 240 191 235
f 235 191 236
f 5 8 116
f 116 8 241
f 242 243 189
f 189 243 160
f 244 245 98
f 98 245 99
f 156 246 47
f 47 246 238
f 76 247 77
f 77 247 248
f 250 125 249
f 249 125 124
f 252 253 251
f 251 253 254
f 111 110 36
f 36 110 255
f 256 33 255
f 255 33 36
f 257 258 154
f 154 258 155
f 63 169 133
f 133 169 139
f 66 170 63
f 63 170 169
f 173 170 129
f 129 170 66
f 129 128 173
f 173 128 259
f 128 260 259
f 259 260 261
f 213 134 262
f 262 134 137
f 263 264 186
f 186 264 187
f 112 265 113
f 113 265 266
f 11 267 268
f 234 233 230
f 230 233 194
f 153 269 70
f 70 269 67
f 175 178 165
f 165 178 141
f 150 153 94
f 94 153 70
f 271 221 270
f 270 221 207
f 269 153 272
f 272 153 152
f 121 45 109
f 109 45 108
f 47 50 156
f 156 50 157
f 57 273 58
f 58 273 274
f 145 275 260
f 260 275 261
f 276 149 143
f 143 149 78
f 148 269 75
f 75 269 272
f 207 277 270
f 270 277 278
f 195 196 49
f 49 196 50
f 59 135 60
f 60 135 134
f 83 104 202
f 202 104 279
f 149 148 78
f 78 148 75
f 247 278 248
f 248 278 277
f 183 182 84
f 84 182 81
f 48 239 281
f 281 239 282
f 227 223 283
f 283 223 222
f 223 226 224
f 224 226 168
f 281 282 224
f 224 282 225
f 165 168 175
f 175 168 226
f 264 263 138
f 138 263 229
f 14 16 128
f 128 16 260
f 220 228 218
f 218 228 230
f 87 227 284
f 284 227 283
f 260 16 145
f 145 16 146
f 244 98 258
f 258 98 155
f 58 274 156
f 156 274 246
f 107 285 51
f 51 285 55
f 243 286 160
f 160 286 96
f 234 237 89
f 89 237 90
f 46 132 107
f 107 132 285
f 253 252 249
f 249 252 250
f 286 26 96
f 96 26 25
f 106 105 287
f 287 105 288
f 272 152 289
f 289 152 229
f 138 151 139
f 139 151 133
f 183 290 161
f 161 290 162
f 291 292 277
f 277 292 293
f 151 150 133
f 133 150 94
f 262 275 177
f 177 275 187
f 144 187 145
f 145 187 275
f 273 57 284
f 284 57 87
f 174 136 190
f 190 136 135
f 111 117 112
f 112 117 38
f 117 119 38
f 38 119 123
f 112 38 265
f 265 38 37
f 287 288 254
f 254 288 251
f 228 159 231
f 231 159 15
f 223 227 226
f 226 227 214
f 147 67 148
f 148 67 269
f 224 168 281
f 281 168 167
f 199 163 200
f 200 163 162
f 45 46 108
f 108 46 107
f 281 167 48
f 48 167 49
f 161 164 291
f 291 164 292
f 38 123 39
f 293 294 277
f 277 294 248
f 284 283 296
f 296 283 295
f 284 296 273
f 273 296 297
f 274 273 298
f 298 273 297
f 246 274 299
f 299 274 298
f 283 222 295
f 295 222 300
f 222 225 300
f 300 225 301
f 301 225 302
f 302 225 282
f 303 304 300
f 300 304 295
f 306 307 305
f 305 307 308
f 309 310 308
f 308 310 305
f 308 307 312
f 312 307 311
f 313 314 312
f 312 314 315
f 311 316 312
f 312 316 313
f 317 304 311
f 311 304 316
f 315 309 312
f 312 309 308
f 318 319 321
f 321 319 320
f 319 318 309
f 309 318 310
f 311 307 317
f 317 307 306
f 306 297 317
f 317 297 296
f 306 322 297
f 297 322 298
f 305 323 306
f 306 323 322
f 323 305 324
f 324 305 310
f 304 317 295
f 295 317 296
f 318 325 310
f 310 325 324
f 323 324 326
f 326 324 327
f 324 325 327
f 327 325 328
f 326 327 329
f 329 327 330
f 329 331 326
f 326 331 332
f 333 330 328
f 328 330 327
f 323 326 322
f 322 326 332
f 322 332 298
f 298 332 299
f 325 318 334
f 334 318 321
f 313 316 335
f 335 316 304
f 335 336 313
f 313 336 314
f 304 303 335
f 335 303 337
f 336 335 338
f 338 335 337
f 336 339 314
f 314 339 340
f 246 299 238
f 238 299 341
f 239 342 282
f 282 342 302
f 342 239 341
f 341 239 238
f 341 331 342
f 342 331 343
f 331 329 343
f 343 329 344
f 342 343 302
f 302 343 345
f 341 299 331
f 331 299 332
f 346 301 345
f 345 301 302
f 346 303 301
f 301 303 300
f 347 337 346
f 346 337 303
f 347 346 348
f 348 346 345
f 349 347 350
f 350 347 348
f 343 344 345
f 345 344 348
f 344 351 348
f 348 351 350
f 337 347 338
f 338 347 349
f 353 338 352
f 352 338 349
f 352 355 354
f 354 355 356
f 352 349 355
f 355 349 350
f 352 354 353
f 353 354 334
f 353 334 339
f 339 334 321
f 339 336 353
f 353 336 338
f 329 330 344
f 344 330 351
f 356 351 333
f 333 351 330
f 356 355 351
f 351 355 350
f 354 356 328
f 328 356 333
f 328 325 354
f 354 325 334
f 309 315 319
f 319 315 320
f 320 340 321
f 321 340 339
f 320 315 340
f 340 315 314
f 137 136 261
f 261 136 259
f 140 166 141
f 141 166 165
f 172 171 195
f 195 171 196
f 171 174 196
f 196 174 190
f 178 177 264
f 264 177 187
f 172 195 140
f 140 195 166
f 137 261 262
f 262 261 275
f 178 264 141
f 141 264 138
f 262 177 213
f 213 177 176
f 136 174 259
f 259 174 173
f 358 359 357
f 357 359 360
f 362 363 361
f 361 363 364
f 361 364 365
f 365 364 366
f 367 368 370
f 370 368 369
f 76 371 247
f 247 371 372
f 373 374 362
f 362 374 363
f 376 377 375
f 375 377 378
f 289 229 380
f 380 229 379
f 381 379 263
f 263 379 229
f 383 384 382
f 382 384 385
f 386 368 374
f 374 368 363
f 76 289 371
f 371 289 380
f 377 376 359
f 359 376 387
f 388 386 360
f 360 386 374
f 389 383 366
f 366 383 390
f 392 393 391
f 391 393 394
f 383 382 390
f 390 382 395
f 396 365 390
f 390 365 366
f 389 366 367
f 367 366 364
f 357 397 358
f 358 397 398
f 373 399 357
f 357 399 397
f 389 367 400
f 400 367 370
f 382 385 375
f 375 385 372
f 357 360 373
f 373 360 374
f 361 401 362
f 362 401 402
f 387 388 359
f 359 388 360
f 363 368 364
f 364 368 367
f 358 398 403
f 403 398 404
f 396 392 405
f 405 392 391
f 392 395 393
f 393 395 378
f 393 403 394
f 394 403 404
f 375 378 382
f 382 378 395
f 365 396 406
f 406 396 405
f 362 402 373
f 373 402 399
f 271 270 400
f 400 270 384
f 401 361 406
f 406 361 365
f 381 369 386
f 386 369 368
f 392 396 395
f 395 396 390
f 393 378 403
f 403 378 377
f 403 377 358
f 358 377 359
f 406 405 408
f 408 405 407
f 406 408 401
f 401 408 409
f 401 409 402
f 402 409 410
f 402 410 399
f 399 410 411
f 405 391 407
f 407 391 412
f 391 394 412
f 412 394 413
f 394 404 413
f 413 404 414
f 415 416 412
f 412 416 407
f 418 419 417
f 417 419 420
f 421 422 418
f 418 422 419
f 419 422 424
f 424 422 423
f 425 426 424
f 424 426 427
f 423 428 424
f 424 428 425
f 427 420 424
f 424 420 419
f 420 429 417
f 417 429 430
f 423 422 431
f 431 422 421
f 421 409 431
f 431 409 408
f 421 432 409
f 409 432 410
f 418 433 421
f 421 433 432
f 434 433 417
f 417 433 418
f 431 416 423
f 423 416 428
f 416 431 407
f 407 431 408
f 435 434 430
f 430 434 417
f 433 434 436
f 436 434 437
f 434 435 437
f 437 435 438
f 436 437 439
f 439 437 440
f 439 441 436
f 436 441 442
f 438 443 437
f 437 443 440
f 436 442 433
f 433 442 432
f 432 442 410
f 410 442 411
f 435 430 445
f 445 430 444
f 430 429 444
f 444 429 446
f 425 428 447
f 447 428 416
f 426 425 448
f 448 425 447
f 416 415 447
f 447 415 449
f 447 449 448
f 448 449 450
f 451 452 448
f 448 452 426
f 446 452 444
f 444 452 451
f 399 411 397
f 397 411 453
f 398 454 404
f 404 454 414
f 454 398 453
f 453 398 397
f 453 441 454
f 454 441 455
f 441 439 455
f 455 439 456
f 454 455 414
f 414 455 457
f 441 453 442
f 442 453 411
f 458 413 457
f 457 413 414
f 458 415 413
f 413 415 412
f 458 459 415
f 415 459 449
f 459 458 460
f 460 458 457
f 461 459 462
f 462 459 460
f 455 456 457
f 457 456 460
f 456 463 460
f 460 463 462
f 459 461 449
f 449 461 450
f 465 450 464
f 464 450 461
f 464 467 466
f 466 467 468
f 464 461 467
f 467 461 462
f 464 466 465
f 465 466 445
f 465 445 451
f 451 445 444
f 451 448 465
f 465 448 450
f 439 440 456
f 456 440 463
f 468 463 443
f 443 463 440
f 468 467 463
f 463 467 462
f 466 468 438
f 438 468 443
f 438 435 466
f 466 435 445
f 420 427 429
f 429 427 446
f 446 427 452
f 452 427 426
f 370 369 188
f 188 369 186
f 371 376 372
f 372 376 375
f 380 379 387
f 387 379 388
f 379 381 388
f 388 381 386
f 385 384 278
f 278 384 270
f 380 387 371
f 371 387 376
f 400 370 271
f 271 370 188
f 385 278 372
f 372 278 247
f 400 384 389
f 389 384 383
f 369 381 186
f 186 381 263
f 221 271 144
f 144 271 188
f 221 19 207
f 207 19 22
f 19 18 22
f 22 18 23
f 18 219 23
f 23 219 208
f 469 470 472
f 472 470 471
f 474 475 473
f 473 475 476
f 473 476 477
f 477 476 478
f 480 481 479
f 479 481 482
f 483 484 474
f 474 484 475
f 486 487 485
f 485 487 488
f 489 490 77
f 77 490 142
f 491 489 248
f 248 489 77
f 493 494 492
f 492 494 495
f 496 480 484
f 484 480 475
f 486 497 487
f 487 497 471
f 498 496 472
f 472 496 484
f 499 493 478
f 478 493 500
f 501 502 504
f 504 502 503
f 493 492 500
f 500 492 505
f 506 477 500
f 500 477 478
f 499 478 479
f 479 478 476
f 469 507 470
f 470 507 508
f 483 509 469
f 469 509 507
f 479 482 499
f 499 482 510
f 492 495 485
f 485 495 511
f 483 469 484
f 484 469 472
f 473 512 474
f 474 512 513
f 497 498 471
f 471 498 472
f 475 480 476
f 476 480 479
f 470 508 514
f 514 508 515
f 506 502 516
f 516 502 501
f 503 502 488
f 488 502 505
f 514 515 503
f 503 515 504
f 485 488 492
f 492 488 505
f 477 506 517
f 517 506 516
f 474 513 483
f 483 513 509
f 510 292 494
f 494 292 164
f 512 473 517
f 517 473 477
f 491 481 496
f 496 481 480
f 502 506 505
f 505 506 500
f 503 488 514
f 514 488 487
f 514 487 470
f 470 487 471
f 517 516 519
f 519 516 518
f 517 519 512
f 512 519 520
f 512 520 513
f 513 520 521
f 513 521 509
f 509 521 522
f 516 501 518
f 518 501 523
f 501 504 523
f 523 504 524
f 524 504 525
f 525 504 515
f 526 527 523
f 523 527 518
f 529 530 528
f 528 530 531
f 532 533 529
f 529 533 530
f 530 533 535
f 535 533 534
f 536 537 535
f 535 537 538
f 534 539 535
f 535 539 536
f 538 531 535
f 535 531 530
f 540 541 531
f 531 541 528
f 533 532 534
f 534 532 542
f 532 520 542
f 542 520 519
f 532 543 520
f 520 543 521
f 529 544 532
f 532 544 543
f 544 529 545
f 545 529 528
f 534 542 539
f 539 542 527
f 527 542 518
f 518 542 519
f 541 546 528
f 528 546 545
f 547 544 548
f 548 544 545
f 546 549 545
f 545 549 548
f 550 547 551
f 551 547 548
f 547 550 553
f 553 550 552
f 549 554 548
f 548 554 551
f 544 547 543
f 543 547 553
f 543 553 521
f 521 553 522
f 546 541 556
f 556 541 555
f 541 540 555
f 555 540 557
f 536 539 558
f 558 539 527
f 537 536 559
f 559 536 558
f 527 526 558
f 558 526 560
f 559 558 561
f 561 558 560
f 559 562 537
f 537 562 563
f 557 563 555
f 555 563 562
f 509 522 507
f 507 522 564
f 508 565 515
f 515 565 525
f 565 508 564
f 564 508 507
f 564 552 565
f 565 552 566
f 552 550 566
f 566 550 567
f 565 566 525
f 525 566 568
f 564 522 552
f 552 522 553
f 569 524 568
f 568 524 525
f 569 526 524
f 524 526 523
f 570 560 569
f 569 560 526
f 570 569 571
f 571 569 568
f 572 570 573
f 573 570 571
f 566 567 568
f 568 567 571
f 567 574 571
f 571 574 573
f 570 572 560
f 560 572 561
f 576 561 575
f 575 561 572
f 575 578 577
f 577 578 579
f 575 572 578
f 578 572 573
f 575 577 576
f 576 577 556
f 576 556 562
f 562 556 555
f 562 559 576
f 576 559 561
f 550 551 567
f 567 551 574
f 579 574 554
f 554 574 551
f 579 578 574
f 574 578 573
f 579 554 577
f 577 554 549
f 549 546 577
f 577 546 556
f 531 538 540
f 540 538 557
f 557 538 563
f 563 538 537
f 481 294 482
f 482 294 293
f 580 486 511
f 511 486 485
f 490 489 497
f 497 489 498
f 489 491 498
f 498 491 496
f 163 495 164
f 164 495 494
f 580 490 486
f 486 490 497
f 482 293 510
f 510 293 292
f 495 163 511
f 511 163 199
f 494 493 510
f 510 493 499
f 481 491 294
f 294 491 248
f 582 583 581
f 581 583 584
f 586 587 585
f 585 587 588
f 585 588 589
f 589 588 590
f 592 593 591
f 591 593 594
f 595 596 598
f 598 596 597
f 599 600 586
f 586 600 587
f 601 602 604
f 604 602 603
f 605 606 608
f 608 606 607
f 609 607 200
f 200 607 606
f 610 611 613
f 613 611 612
f 600 614 587
f 587 614 592
f 596 605 597
f 597 605 608
f 602 615 603
f 603 615 583
f 616 614 584
f 584 614 600
f 611 618 617
f 617 618 590
f 620 621 619
f 619 621 622
f 610 623 611
f 611 623 618
f 624 589 618
f 618 589 590
f 617 590 591
f 591 590 588
f 581 625 582
f 582 625 626
f 599 627 581
f 581 627 625
f 591 594 617
f 617 594 628
f 601 610 598
f 598 610 613
f 581 584 599
f 599 584 600
f 585 629 586
f 586 629 630
f 615 616 583
f 583 616 584
f 587 592 588
f 588 592 591
f 582 626 631
f 631 626 632
f 624 620 633
f 633 620 619
f 621 620 604
f 604 620 623
f 631 632 621
f 621 632 622
f 610 601 623
f 623 601 604
f 589 624 634
f 634 624 633
f 586 630 599
f 599 630 627
f 203 202 628
f 628 202 612
f 629 585 634
f 634 585 589
f 609 593 614
f 614 593 592
f 620 624 623
f 623 624 618
f 631 621 603
f 603 621 604
f 582 631 583
f 583 631 603
f 634 633 636
f 636 633 635
f 634 636 629
f 629 636 637
f 629 637 630
f 630 637 638
f 630 638 627
f 627 638 639
f 633 619 635
f 635 619 640
f 619 622 640
f 640 622 641
f 641 622 642
f 642 622 632
f 644 635 643
f 643 635 640
f 645 646 648
f 648 646 647
f 649 650 646
f 646 650 647
f 647 650 652
f 652 650 651
f 652 653 655
f 655 653 654
f 651 656 652
f 652 656 653
f 655 648 652
f 652 648 647
f 648 657 645
f 645 657 658
f 650 649 651
f 651 649 659
f 649 637 659
f 659 637 636
f 649 660 637
f 637 660 638
f 661 660 646
f 646 660 649
f 662 661 645
f 645 661 646
f 651 659 656
f 656 659 644
f 644 659 635
f 635 659 636
f 663 662 658
f 658 662 645
f 664 661 665
f 665 661 662
f 663 666 662
f 662 666 665
f 667 664 668
f 668 664 665
f 664 667 670
f 670 667 669
f 666 671 665
f 665 671 668
f 661 664 660
f 660 664 670
f 660 670 638
f 638 670 639
f 658 672 663
f 663 672 673
f 658 657 672
f 672 657 674
f 653 656 675
f 675 656 644
f 653 675 654
f 654 675 676
f 675 644 677
f 677 644 643
f 676 675 678
f 678 675 677
f 679 680 676
f 676 680 654
f 674 680 672
f 672 680 679
f 627 639 625
f 625 639 681
f 626 682 632
f 632 682 642
f 681 682 625
f 625 682 626
f 669 683 681
f 681 683 682
f 667 684 669
f 669 684 683
f 682 683 642
f 642 683 685
f 681 639 669
f 669 639 670
f 686 641 685
f 685 641 642
f 641 686 640
f 640 686 643
f 686 687 643
f 643 687 677
f 687 686 688
f 688 686 685
f 689 687 690
f 690 687 688
f 683 684 685
f 685 684 688
f 684 691 688
f 688 691 690
f 687 689 677
f 677 689 678
f 693 678 692
f 692 678 689
f 692 695 694
f 694 695 696
f 692 689 695
f 695 689 690
f 692 694 693
f 693 694 673
f 693 673 679
f 679 673 672
f 679 676 693
f 693 676 678
f 684 667 691
f 691 667 668
f 696 691 671
f 671 691 668
f 696 695 691
f 691 695 690
f 694 696 666
f 666 696 671
f 666 663 694
f 694 663 673
f 648 655 657
f 657 655 674
f 674 655 680
f 680 655 654
f 593 162 594
f 594 162 290
f 598 597 601
f 601 597 602
f 615 608 616
f 616 608 607
f 607 609 616
f 616 609 614
f 697 595 613
f 613 595 598
f 597 608 602
f 602 608 615
f 594 290 628
f 628 290 203
f 628 612 617
f 617 612 611
f 593 609 162
f 162 609 200
f 105 29 698
f 698 29 699
f 268 126 701
f 701 126 700
f 126 125 700
f 700 125 702
f 252 703 250
f 250 703 704
f 32 268 705
f 705 268 701
f 288 105 706
f 706 105 698
f 29 32 699
f 699 32 705
f 707 251 706
f 706 251 288
f 250 704 125
f 125 704 702
f 703 252 707
f 707 252 251
f 706 708 707
f 707 708 709
f 707 709 703
f 703 709 710
f 703 710 704
f 704 710 711
f 704 711 702
f 702 711 712
f 706 698 708
f 708 698 713
f 698 699 713
f 713 699 714
f 699 705 714
f 714 705 715
f 717 708 716
f 716 708 713
f 719 720 718
f 718 720 721
f 722 723 719
f 719 723 720
f 724 725 723
f 723 725 720
f 724 726 725
f 725 726 727
f 728 721 725
f 725 721 720
f 721 728 729
f 729 728 730
f 729 731 721
f 721 731 718
f 724 723 732
f 732 723 722
f 722 710 732
f 732 710 709
f 722 733 710
f 710 733 711
f 719 734 722
f 722 734 733
f 734 719 735
f 735 719 718
f 724 732 726
f 726 732 717
f 717 732 708
f 708 732 709
f 731 736 718
f 718 736 735
f 737 734 738
f 738 734 735
f 736 739 735
f 735 739 738
f 740 737 741
f 741 737 738
f 737 740 743
f 743 740 742
f 739 744 738
f 738 744 741
f 734 737 733
f 733 737 743
f 733 743 711
f 711 743 712
f 736 731 746
f 746 731 745
f 731 729 745
f 745 729 730
f 727 726 747
f 747 726 717
f 748 727 749
f 749 727 747
f 747 717 750
f 750 717 716
f 749 747 751
f 751 747 750
f 749 752 748
f 748 752 753
f 730 753 745
f 745 753 752
f 728 725 748
f 748 725 727
f 730 728 753
f 753 728 748
f 700 702 754
f 754 702 712
f 705 701 715
f 715 701 755
f 754 755 700
f 700 755 701
f 742 756 754
f 754 756 755
f 740 757 742
f 742 757 756
f 755 756 715
f 715 756 758
f 754 712 742
f 742 712 743
f 759 714 758
f 758 714 715
f 714 759 713
f 713 759 716
f 759 760 716
f 716 760 750
f 760 759 761
f 761 759 758
f 762 760 763
f 763 760 761
f 756 757 758
f 758 757 761
f 757 764 761
f 761 764 763
f 760 762 750
f 750 762 751
f 766 751 765
f 765 751 762
f 767 765 769
f 769 765 768
f 765 762 768
f 768 762 763
f 765 767 766
f 766 767 746
f 766 746 752
f 752 746 745
f 752 749 766
f 766 749 751
f 757 740 764
f 764 740 741
f 769 764 744
f 744 764 741
f 769 768 764
f 764 768 763
f 767 769 739
f 739 769 744
f 739 736 767
f 767 736 746
f 219 217 208
f 208 217 209
f 209 217 210
f 210 217 193
f 198 580 199
f 199 580 511
f 76 75 289
f 289 75 272
f 277 207 291
f 291 207 184
f 290 183 203
f 203 183 84
f 490 580 142
f 142 580 198
f 142 198 143
f 143 198 197
f 149 276 72
f 72 276 73
f 104 103 279
f 279 103 770
f 770 596 279
f 279 596 595
f 605 596 771
f 771 596 770
f 771 770 772
f 772 770 103
f 772 103 773
f 773 103 102
f 155 774 101
f 101 774 102
f 773 102 97
f 97 102 774
f 775 773 100
f 100 773 97
f 773 775 772
f 772 775 776
f 772 776 771
f 771 776 777
f 200 606 197
f 197 606 777
f 189 71 778
f 778 71 74
f 97 774 98
f 98 774 155
f 183 161 184
f 184 161 291
f 777 276 197
f 197 276 143
f 777 606 771
f 771 606 605
f 613 612 697
f 697 612 202
f 595 697 279
f 279 697 202
f 73 276 776
f 776 276 777
f 776 775 73
f 73 775 74
f 100 778 775
f 775 778 74
f 778 100 189
f 189 100 99
f 245 242 99
f 99 242 189
f 131 33 256
f 28 1 95
f 95 1 62
f 27 2 28
f 28 2 1
f 265 115 266
f 266 115 114
f 95 62 69
f 69 62 64
f 62 61 64
f 64 61 65
f 61 13 65
f 65 13 130
f 13 12 130
f 130 12 14
f 31 11 32
f 32 11 268
f 15 12 31
f 31 12 11
f 31 30 15
f 15 30 231
f 30 106 231
f 231 106 232
f 287 237 106
f 106 237 232
f 254 90 287
f 287 90 237
f 253 44 254
f 254 44 90
f 253 249 44
f 44 249 7
f 267 127 268
f 268 127 126
f 10 3 241
f 241 3 116
f 3 2 116
f 116 2 114
f 2 27 114
f 114 27 266
f 27 26 266
f 266 26 113
f 26 286 113
f 113 286 110
f 286 243 110
f 110 243 255
f 243 242 255
f 255 242 256
f 242 245 256
f 256 245 131
f 245 244 131
f 131 244 132
f 265 37 115
f 115 37 41
f 41 37 42
f 42 37 40
f 92 91 40
f 40 91 42
f 236 233 92
f 92 233 91
f 191 194 236
f 236 194 233
f 258 285 244
f 244 285 132
f 257 55 258
f 258 55 285
f 257 154 201
f 201 154 185
f 56 201 204
f 204 201 180
f 55 257 56
f 56 257 201
f 204 85 56
f 56 85 52
f 86 122 53
f 53 122 79
f 212 215 86
f 86 215 122
f 211 216 212
f 212 216 215
f 192 280 211
f 211 280 216
f 191 240 192
f 192 240 280
f 249 124 7
f 7 124 8
f 124 127 8
f 8 127 241
f 127 267 241
f 241 267 10
f 10 267 9
f 9 267 11
