v -0.02276226505637169 0.02509630098938942 1.0091397762298584
v -0.011365000158548355 0.020901089534163475 1.009123682975769
v -0.018939875066280365 0.017520757392048836 1.0167567729949951
v -0.028508350253105164 0.02161874622106552 1.0160915851593018
v -0.00016473233699798584 0.013694804161787033 1.0280190706253052
v 0.005513176321983337 0.018990879878401756 1.0367950201034546
v -0.012197248637676239 0.018532153218984604 1.0421565771102905
v -0.014352299273014069 0.012998856604099274 1.034482717514038
v -0.033773988485336304 0.021785791963338852 1.0217565298080444
v -0.025864604860544205 0.01643325760960579 1.022404670715332
v -0.034566618502140045 0.026808183640241623 1.0236260890960693
v -0.0422227568924427 0.03598853945732117 1.025498390197754
v -0.04155537486076355 0.029055766761302948 1.0232683420181274
v -0.049586664885282516 0.03996595740318298 1.0256125926971436
v -0.03573204576969147 0.04565528407692909 1.0254653692245483
v -0.047759782522916794 0.0484454445540905 1.0218197107315063
v -0.027742210775613785 0.05921108275651932 1.005401372909546
v -0.024137001484632492 0.06002187356352806 0.9931634664535522
v -0.04021685570478439 0.058388710021972656 0.9917841553688049
v -0.042295414954423904 0.05694381147623062 1.0045454502105713
v -0.0289975106716156 0.05434414744377136 0.9750263690948486
v -0.03615180775523186 0.05671564117074013 0.9840168356895447
v -0.02018926292657852 0.05968227609992027 0.9853001236915588
v -0.01483098417520523 0.057450901716947556 0.9769524335861206
v -0.014584630727767944 0.029544701799750328 0.9967353343963623
v -0.003439761698246002 0.027522237971425056 0.9957043528556824
v -0.0056699588894844055 0.025608394294977188 1.0002882480621338
v -0.0165630504488945 0.028380077332258224 1.0013457536697388
v -0.03375472128391266 0.03288743644952774 1.0275942087173462
v -0.02690891921520233 0.03949129208922386 1.0307375192642212
v -0.03217049688100815 0.0352056622505188 1.0265218019485474
v -0.0347498282790184 0.027592040598392487 1.0259387493133545
v 0.02237723022699356 0.021508537232875824 0.9876583218574524
v 0.034216344356536865 0.027282241731882095 0.9899384379386902
v 0.03354945778846741 0.02770628035068512 0.9958004951477051
v 0.022905074059963226 0.022596711292862892 0.992400586605072
v 0.025987155735492706 0.024132655933499336 1.0208022594451904
v 0.032959818840026855 0.029963474720716476 1.0147662162780762
v 0.03712677210569382 0.039351753890514374 1.0238490104675293
v 0.02849007397890091 0.03730448707938194 1.0285662412643433
v 0.016693897545337677 0.020398221909999847 1.029672384262085
v 0.01953074336051941 0.031492020934820175 1.035528302192688
v 0.006214573979377747 0.02967490255832672 1.041520118713379
v -0.012263316661119461 0.02782098948955536 1.0449185371398926
v 0.03569534420967102 0.029177656397223473 0.9773770570755005
v 0.02738259732723236 0.02474203333258629 0.9739497303962708
v -0.09978607296943665 0.051515765488147736 1.0030194520950317
v -0.096530981361866 0.05257353186607361 0.9982179403305054
v -0.09299953281879425 0.045888446271419525 1.0014278888702393
v -0.09627377241849899 0.046572379767894745 1.0058797597885132
v 0.029068827629089355 0.043345894664525986 0.9649161100387573
v 0.027645789086818695 0.05330793187022209 0.9657210111618042
v 0.03478887677192688 0.05218449980020523 0.9654864072799683
v 0.03631892055273056 0.04298999533057213 0.9665927290916443
v 0.019414179027080536 0.043591294437646866 0.9628812670707703
v 0.017656899988651276 0.054152436554431915 0.9665977358818054
v -0.09587214887142181 0.05930202081799507 1.011497139930725
v -0.09948752075433731 0.05593060702085495 1.0102795362472534
v -0.09512515366077423 0.05276123061776161 1.0131783485412598
v -0.09039686620235443 0.0561491921544075 1.0136829614639282
v -0.03800266981124878 0.025826869532465935 1.0181052684783936
v -0.03288155794143677 0.02623039484024048 1.010370135307312
v -0.05949070304632187 0.028857339173555374 1.0162898302078247
v -0.047149717807769775 0.028167452663183212 1.0131887197494507
v -0.04769132286310196 0.02871326357126236 1.0202664136886597
v -0.057749100029468536 0.030838001519441605 1.0222668647766113
v -0.03702148050069809 0.030377987772226334 0.9917461276054382
v -0.02529420331120491 0.0306928139179945 0.993026852607727
v -0.028280600905418396 0.030478214845061302 0.998724639415741
v -0.0414176844060421 0.029514700174331665 0.9991152882575989
v -0.021060239523649216 0.027796845883131027 0.9799039363861084
v -0.033048782497644424 0.028002552688121796 0.979684591293335
v -0.02951180189847946 0.02607758343219757 0.9722573161125183
v -0.02142176777124405 0.025528181344270706 0.9737589955329895
v -0.05463266000151634 0.03145001828670502 0.9819709062576294
v -0.06184256449341774 0.03687107563018799 0.9808909296989441
v -0.06398612260818481 0.03805100545287132 0.9762699604034424
v -0.05453544482588768 0.03142275661230087 0.9781603813171387
v 0.041808053851127625 0.052176862955093384 0.9657192826271057
v 0.04304736852645874 0.04304860532283783 0.969106912612915
v -0.019290350377559662 0.04688987135887146 0.9580198526382446
v -0.01351829245686531 0.03908785805106163 0.9527743458747864
v -0.023738626390695572 0.03690202906727791 0.9497811794281006
v -0.027031347155570984 0.04523003101348877 0.9561160802841187
v 0.02452310174703598 0.06097666919231415 0.9719772338867188
v 0.03198885917663574 0.06090063601732254 0.9696647524833679
v -0.0908694714307785 0.06256860494613647 1.0095759630203247
v -0.08624471724033356 0.05929388105869293 1.0106137990951538
v 0.006577789783477783 0.04114378243684769 1.0387046337127686
v -0.012877993285655975 0.03616850823163986 1.0430465936660767
v 0.01992495357990265 0.044794730842113495 1.0325816869735718
v 0.028278566896915436 0.04840879887342453 1.027367115020752
v 0.036297909915447235 0.05083092674612999 1.0255869626998901
v -0.05070049315690994 0.027954116463661194 1.0072969198226929
v -0.026497427374124527 0.028527211397886276 1.0039637088775635
v -0.01293223723769188 0.02947850711643696 0.9922084212303162
v -0.008251804858446121 0.021374162286520004 0.9632547497749329
v 0.002353094518184662 0.02120000496506691 0.9649747610092163
v -0.00336562842130661 0.021151091903448105 0.973776638507843
v -0.011486668139696121 0.022000182420015335 0.9703662991523743
v -0.013257872313261032 0.029546935111284256 0.9516485333442688
v -0.016613516956567764 0.023789551109075546 0.9558379650115967
v -0.026370972394943237 0.023640910163521767 0.953884482383728
v -0.02334967628121376 0.02855297550559044 0.9495765566825867
v -0.032967425882816315 0.03732170909643173 1.0331363677978516
v -0.02199806645512581 0.042413122951984406 1.0351667404174805
v 0.029810048639774323 0.03328996151685715 0.9677368998527527
v 0.03643143177032471 0.03417131304740906 0.9715098142623901
v 0.04403015226125717 0.03685576841235161 0.9736850261688232
v 0.009804219007492065 0.023352868854999542 0.9931695461273193
v 0.0233844593167305 0.023043997585773468 0.9959489703178406
v 0.022522568702697754 0.021988430991768837 1.0011035203933716
v 0.009287633001804352 0.023207850754261017 0.9961826801300049
v 0.000464707612991333 0.015655579045414925 1.0122965574264526
v 0.012622103095054626 0.01582978665828705 1.0174771547317505
v -0.010100733488798141 0.01284787431359291 1.0204646587371826
v 0.03446332365274429 0.02845984697341919 1.0041897296905518
v 0.04326597601175308 0.029807496815919876 0.9976864457130432
v 0.042845867574214935 0.03145352751016617 1.0064927339553833
v 0.04420468956232071 0.030593562871217728 0.9879821538925171
v 0.044517189264297485 0.03276911377906799 0.9793534278869629
v 0.03979715704917908 0.06371667981147766 0.9680591821670532
v 0.041350074112415314 0.034650322049856186 1.0142524242401123
v -0.02345132827758789 0.014189265668392181 1.0371674299240112
v -0.03060895949602127 0.015866704285144806 1.038137674331665
v -0.0318102166056633 0.01563335210084915 1.0307543277740479
v -0.026118185371160507 0.01463722437620163 1.0295228958129883
v -0.05924214795231819 0.04397052526473999 1.0251295566558838
v -0.05957445502281189 0.03618157282471657 1.025336742401123
v -0.048005834221839905 0.03283492103219032 1.0256874561309814
v 0.012812115252017975 0.020466383546590805 0.9813304543495178
v 0.017566755414009094 0.022892536595463753 0.9700440168380737
v -0.062392476946115494 0.030268505215644836 1.010197401046753
v -0.08520518243312836 0.057386063039302826 1.0149874687194824
v -0.08889839053153992 0.05278366804122925 1.0164014101028442
v -0.07401282340288162 0.04896280914545059 1.0215474367141724
v -0.07217831909656525 0.05456749349832535 1.0190058946609497
v -0.06901095807552338 0.0381900854408741 1.0037392377853394
v -0.06790616363286972 0.034685395658016205 1.0083528757095337
v -0.07054043561220169 0.038093261420726776 1.0067228078842163
v -0.07125450670719147 0.04227769002318382 1.0020304918289185
v -0.05856435373425484 0.03475267067551613 0.969882607460022
v -0.05092234909534454 0.030046166852116585 0.9708725810050964
v -0.057275768369436264 0.05113307386636734 1.0031152963638306
v -0.0541718490421772 0.054014623165130615 1.0155119895935059
v -0.04397661238908768 0.054917801171541214 1.014029860496521
v -0.03393467143177986 0.029511071741580963 0.9850349426269531
v -0.044659871608018875 0.02920619584619999 0.9829971194267273
v -0.04379848390817642 0.028804264962673187 0.9789626598358154
v -0.05407934635877609 0.028910767287015915 1.0037457942962646
v -0.06271635740995407 0.031296152621507645 1.0043820142745972
v -0.05874423310160637 0.03055616095662117 0.99982088804245
v -0.050810180604457855 0.029683083295822144 0.9988207221031189
v -0.0015696510672569275 0.04201455041766167 0.955739438533783
v -0.000803038477897644 0.030671369284391403 0.9541388750076294
v -0.10085725784301758 0.05291342735290527 1.0073288679122925
v -0.09668774902820587 0.04889543354511261 1.0104401111602783
v -0.02248804271221161 0.02988016977906227 0.9864304661750793
v -0.030480220913887024 0.055531203746795654 1.014037847518921
v -0.011118214577436447 0.02872502990067005 0.9871704578399658
v -0.0434226393699646 0.0450931191444397 0.9653945565223694
v -0.045217595994472504 0.03989073634147644 0.9611672759056091
v -0.05005328357219696 0.04113147780299187 0.9622703194618225
v -0.048118576407432556 0.045953795313835144 0.9642000794410706
v -0.08208395540714264 0.04998031258583069 0.9972742795944214
v -0.08577501028776169 0.045937925577163696 0.9995549321174622
v -0.08912725001573563 0.047772426158189774 0.9970054030418396
v -0.08512549102306366 0.0513402484357357 0.995934009552002
v -0.06793096661567688 0.033640939742326736 1.0140061378479004
v -0.06706112623214722 0.03475672006607056 1.020480751991272
v -0.0738750547170639 0.038073956966400146 1.0169718265533447
v -0.07261405885219574 0.03752980753779411 1.0113520622253418
v -0.06821534782648087 0.04055488482117653 1.023360252380371
v -0.0743926540017128 0.04283503443002701 1.0207997560501099
v -0.07908894121646881 0.05542517453432083 0.9996182322502136
v -0.07843516767024994 0.05996248871088028 1.0059547424316406
v -0.06860288232564926 0.05623622238636017 1.0068823099136353
v -0.0710359439253807 0.05011492222547531 1.0022642612457275
v -0.0008043274283409119 0.06079741567373276 0.9793267250061035
v 0.002956286072731018 0.05688933655619621 0.9697448015213013
v -0.010841239243745804 0.05340835452079773 0.9671618938446045
v -0.023637019097805023 0.05041951313614845 0.9645178318023682
v -0.03620374947786331 0.04583814740180969 0.9635154008865356
v -0.04049026221036911 0.052260786294937134 0.9729517102241516
v -0.006923239678144455 0.05017474293708801 0.9610592722892761
v -0.06823190301656723 0.03949255496263504 0.9988674521446228
v -0.06265226006507874 0.04961075633764267 1.007611632347107
v -0.06506180018186569 0.044545937329530716 1.0011565685272217
v -0.009572714567184448 0.025979824364185333 0.9805006384849548
v -0.09018506854772568 0.048630040138959885 1.0150527954101562
v 0.02512248605489731 0.06477734446525574 1.0139206647872925
v 0.025158435106277466 0.06860406696796417 1.0015783309936523
v 0.016750112175941467 0.06660671532154083 1.0031672716140747
v 0.016561515629291534 0.06182849407196045 1.0163249969482422
v -0.08875757455825806 0.04344791918992996 1.0052684545516968
v -0.09064207971096039 0.044446952641010284 1.0108140707015991
v -0.049716293811798096 0.030372871086001396 0.9641311168670654
v -0.055252011865377426 0.03447854891419411 0.9649872183799744
v -0.05430272966623306 0.036392487585544586 0.9621856212615967
v -0.04960932210087776 0.03180879354476929 0.9585056900978088
v 0.0061662644147872925 0.05431773513555527 0.9656187891960144
v -0.02945171669125557 0.03537251427769661 0.9490649700164795
v -0.03182113915681839 0.04386160895228386 0.954535722732544
v 0.015178248286247253 0.05991266667842865 0.9724829792976379
v 0.011998765170574188 0.06388324499130249 0.9807400107383728
v 0.021433569490909576 0.06589428335428238 0.9811988472938538
v -0.05291853845119476 0.05361315980553627 0.9833025336265564
v -0.00549682229757309 0.06237936392426491 0.9863889813423157
v 0.008547283709049225 0.0648333728313446 0.987469494342804
v 0.019707120954990387 0.0672447681427002 0.9883422255516052
v 0.027722738683223724 0.06946726888418198 0.9882308840751648
v 0.028845764696598053 0.06752967834472656 0.9804222583770752
v -0.08129606395959854 0.05952339991927147 1.0107090473175049
v -0.08288684487342834 0.05984769016504288 1.005699634552002
v 0.03713713586330414 0.07087375223636627 0.9789707064628601
v 0.035647474229335785 0.07229146361351013 0.987987220287323
v 0.005393601953983307 0.06505543738603592 0.9961100220680237
v 0.002070307731628418 0.06403789669275284 1.006018877029419
v -0.008094709366559982 0.06254546344280243 0.994598925113678
v -0.012630142271518707 0.06145735830068588 1.0045212507247925
v -0.05246446654200554 0.05708811432123184 0.9929213523864746
v -0.09308217465877533 0.07192787528038025 0.9967281222343445
v -0.08607140183448792 0.0630805715918541 0.9993782639503479
v -0.08780963718891144 0.059179842472076416 0.9952331781387329
v -0.09241916239261627 0.06940078735351562 0.9931839108467102
v -0.08270741999149323 0.055827636271715164 0.9992585182189941
v -0.08686496317386627 0.06427302956581116 1.0048801898956299
v -0.015336193144321442 0.056680671870708466 1.0157349109649658
v -0.06639586389064789 0.032501958310604095 0.997411847114563
v 0.0009421110153198242 0.05708331614732742 1.0192615985870361
v -0.022918090224266052 0.05009928345680237 1.0266064405441284
v -0.01112038642168045 0.049363523721694946 1.0298291444778442
v 0.017179720103740692 0.056003473699092865 1.0256474018096924
v 0.004135161638259888 0.05057033151388168 1.032414436340332
v 0.03387424349784851 0.060055315494537354 1.0213017463684082
v 0.025333143770694733 0.05845225602388382 1.022575855255127
v -0.009348705410957336 0.04477084428071976 1.0373867750167847
v -0.10292515158653259 0.05926503241062164 0.9951617121696472
v -0.09814167022705078 0.060548845678567886 0.992003321647644
v 0.03305671364068985 0.06712693721055984 1.0131229162216187
v -0.019683528691530228 0.013353792950510979 1.0259597301483154
v 0.000710509717464447 0.024151749908924103 0.983754575252533
v -0.0008787959814071655 0.0262601375579834 0.9885092377662659
v 0.008520208299160004 0.021648893132805824 0.9666935205459595
v 0.0037929415702819824 0.02094034105539322 0.977239191532135
v -0.10565628111362457 0.0603298619389534 0.9995882511138916
v -0.06541328877210617 0.043605562299489975 0.9796887636184692
v -0.06521536409854889 0.04420338198542595 0.9771813154220581
v -0.02228056639432907 0.019264550879597664 1.043399453163147
v -0.028958681970834732 0.020625021308660507 1.0437496900558472
v -0.032037876546382904 0.03338431939482689 1.0427379608154297
v -0.03046487271785736 0.026896482333540916 1.0455313920974731
v -0.022495806217193604 0.027715422213077545 1.0456563234329224
v -0.023831121623516083 0.03474440053105354 1.0434256792068481
v 0.00986906886100769 0.023072823882102966 0.9906772971153259
v 0.010230526328086853 0.022286880761384964 0.9869623780250549
v 0.00962229073047638 0.04271506518125534 0.9592453837394714
v 0.009806498885154724 0.03132255747914314 0.958036482334137
v -0.06714140623807907 0.04670493304729462 1.023269534111023
v -0.05808371305465698 0.05042309686541557 1.022155523300171
v -0.06533586233854294 0.052408501505851746 1.020272970199585
v -0.06860087811946869 0.05712359398603439 1.0139952898025513
v -0.06998571008443832 0.036284226924180984 0.9966546893119812
v -0.0672653466463089 0.0437324121594429 1.003452181816101
v 0.017978817224502563 0.01874770037829876 1.0081324577331543
v 0.006513655185699463 0.02036980539560318 1.00266432762146
v -0.02974623069167137 0.01845373772084713 1.02574622631073
v -0.03369119018316269 0.02007841318845749 1.0259968042373657
v -0.046328574419021606 0.02983502298593521 0.9919995069503784
v -0.06356123089790344 0.05287344753742218 0.9857049584388733
v -0.06375744938850403 0.05272682383656502 0.9926111698150635
v -0.05585484206676483 0.030965467914938927 0.9915900230407715
v -0.10407238453626633 0.0670492947101593 1.0041426420211792
v -0.10605005919933319 0.0629250556230545 1.0021318197250366
v -0.06269964575767517 0.054809145629405975 1.0152791738510132
v -0.041119225323200226 0.02644455060362816 0.9713326692581177
v -0.05606631934642792 0.051207177340984344 0.9801126718521118
v -0.0646762102842331 0.05036013200879097 0.9820674657821655
v -0.029283810406923294 0.02840777114033699 0.9484687447547913
v 0.03379802405834198 0.07063082605600357 1.0011627674102783
v -0.09205588698387146 0.05561678111553192 0.9946233034133911
v -0.09403103590011597 0.0634739100933075 0.9907560348510742
v -0.09461724758148193 0.0726398155093193 1.000647783279419
v -0.09866612404584885 0.07072147727012634 1.0045005083084106
v 0.019101738929748535 0.031545694917440414 0.9632341861724854
v -0.0022721439599990845 0.02733859419822693 0.9915675520896912
v -0.021802961826324463 0.040833063423633575 1.0381110906600952
v -0.032308124005794525 0.03767549246549606 1.0372871160507202
v -0.06192481517791748 0.033216625452041626 0.9897024035453796
v -0.03833511099219322 0.04269915074110031 0.960128128528595
v -0.04725773259997368 0.05171441286802292 0.9715406894683838
v -0.04983766749501228 0.0525287464261055 0.9694684147834778
v -0.055634938180446625 0.05375618487596512 0.9729295372962952
v -0.06292035430669785 0.05126421898603439 0.9737694263458252
v -0.09784521162509918 0.07544441521167755 0.9966453909873962
v -0.10235835611820221 0.0737924575805664 0.999997615814209
v -0.10732483863830566 0.07012491673231125 0.9990948438644409
v -0.10872381925582886 0.06600090861320496 0.9975350499153137
v -0.10711056739091873 0.062474653124809265 0.9956365823745728
v -0.09598623216152191 0.07487955689430237 0.992807924747467
v -0.09535044431686401 0.0724240094423294 0.9898918867111206
v -0.09563818573951721 0.06608158349990845 0.9888694882392883
v -0.09773893654346466 0.07651188969612122 0.9888396859169006
v -0.101779043674469 0.07911941409111023 0.9905198216438293
v -0.11409792304039001 0.07479614019393921 0.9874400496482849
v -0.11112266778945923 0.07455714792013168 0.9923897981643677
v -0.11105622351169586 0.07653141021728516 0.9907100200653076
v -0.11323247849941254 0.0776951014995575 0.986510694026947
v -0.11468291282653809 0.08019168674945831 0.9823798537254333
v -0.1161150336265564 0.0770142525434494 0.9827957153320312
v -0.1068832278251648 0.07775193452835083 0.9920892715454102
v -0.10934001207351685 0.07991772890090942 0.9864192008972168
v -0.10556986927986145 0.08095167577266693 0.98496413230896
v -0.10800735652446747 0.08339693397283554 0.9808170795440674
v -0.1115378588438034 0.08274205029010773 0.9820622205734253
v -0.10424971580505371 0.07960997521877289 0.9890678524971008
v -0.10590776801109314 0.07732927799224854 0.9940161108970642
v -0.11579708755016327 0.07963648438453674 0.9791679978370667
v -0.11504477262496948 0.08182346820831299 0.9800750017166138
v -0.11237939447164536 0.0835784450173378 0.9793325662612915
v -0.11292596161365509 0.08266649395227432 0.9765470027923584
v -0.11085224151611328 0.06851474940776825 0.9931963682174683
v -0.11426423490047455 0.07242485880851746 0.9865344762802124
v -0.11492988467216492 0.07470592856407166 0.9811196327209473
v -0.11469076573848724 0.07756362855434418 0.977692186832428
v -0.1123805120587349 0.0705413669347763 0.9835476875305176
v -0.11285987496376038 0.07328388839960098 0.9796766638755798
v -0.1122337281703949 0.07568574696779251 0.9765836000442505
v -0.10927799344062805 0.06983628869056702 0.9808163046836853
v -0.11021049320697784 0.07281887531280518 0.9780422449111938
v -0.1052902415394783 0.06333650648593903 0.9900290369987488
v -0.1083168163895607 0.06425938010215759 0.9925833344459534
v -0.11061885952949524 0.07439510524272919 0.9760408401489258
v -0.11189039796590805 0.08123356103897095 0.9753021001815796
v -0.10208172351121902 0.07994326204061508 0.9845985770225525
v -0.10559695959091187 0.08204340934753418 0.979109525680542
v -0.10068404674530029 0.07862655818462372 0.9832945466041565
v -0.10387608408927917 0.08097432553768158 0.9778304696083069
v -0.1082800030708313 0.08389411866664886 0.9763522744178772
v -0.10956716537475586 0.08405325561761856 0.9785535335540771
v -0.10317881405353546 0.060965750366449356 0.9929367899894714
v -0.0983179360628128 0.06271319091320038 0.9900161027908325
v -0.09993709623813629 0.06479771435260773 0.9875355362892151
v -0.1049727275967598 0.07068191468715668 0.9790734648704529
v -0.0971212387084961 0.06805837154388428 0.9862335324287415
v -0.09704732894897461 0.07405957579612732 0.9861539006233215
v -0.10042600333690643 0.0768953412771225 0.9809983372688293
v -0.10127401351928711 0.07407213747501373 0.9793607592582703
v -0.103390634059906 0.07859307527542114 0.9770633578300476
v -0.10425737500190735 0.07620430737733841 0.9767017960548401
v -0.10699933767318726 0.07363074272871017 0.9765813946723938
v -0.10659374296665192 0.07930633425712585 0.9748218059539795
v -0.1072797179222107 0.08214487135410309 0.975365161895752
v -0.11017361283302307 0.07839605212211609 0.9747575521469116
v -0.10617238283157349 0.0773986279964447 0.9751018285751343
v -0.10885393619537354 0.07621145248413086 0.975463330745697
v -0.09545468538999557 0.04003618657588959 0.9662219882011414
v -0.09265801310539246 0.044979698956012726 0.964241623878479
v -0.08866823464632034 0.041923053562641144 0.9688438773155212
v -0.09153612703084946 0.03844525292515755 0.9712316393852234
v -0.10155951976776123 0.04410267993807793 0.9778344631195068
v -0.1005866676568985 0.03977533057332039 0.9737010598182678
v -0.09727156162261963 0.039818987250328064 0.9793877005577087
v -0.09715528041124344 0.04579821228981018 0.9821764230728149
v -0.0996013954281807 0.05019944906234741 0.9782878160476685
v -0.09407224506139755 0.05104122683405876 0.9813937544822693
v -0.09479779750108719 0.04752760007977486 0.9856968522071838
v -0.0938984677195549 0.04068824648857117 0.9837049841880798
v -0.07607967406511307 0.0401766300201416 0.9938785433769226
v -0.07735185325145721 0.04701949656009674 0.9951071739196777
v -0.067038893699646 0.039809875190258026 0.9804131388664246
v -0.06820937246084213 0.04428926855325699 0.979633092880249
v -0.09814950078725815 0.038864437490701675 0.9692453145980835
v -0.09482613950967789 0.037841036915779114 0.9750562906265259
v -0.0830610990524292 0.04783347249031067 0.9686328172683716
v -0.08377566933631897 0.042487047612667084 0.9690144062042236
v -0.08685246109962463 0.04599381238222122 0.9666683673858643
v -0.0868469700217247 0.050976336002349854 0.9677694439888
v -0.0713711827993393 0.034820716828107834 0.9894652962684631
v -0.06797890365123749 0.03667189180850983 0.9853577017784119
v -0.07418470829725266 0.036439329385757446 0.9914084672927856
v -0.0845986157655716 0.05335420370101929 0.971783459186554
v -0.0876922458410263 0.05652714520692825 0.9768937230110168
v -0.07299908250570297 0.05572102218866348 0.985415518283844
v -0.0706365555524826 0.05249028280377388 0.9811878800392151
v -0.09200487285852432 0.037013642489910126 0.9799669981002808
v -0.08620958030223846 0.03827251121401787 0.9718115925788879
v -0.08890756964683533 0.03602311387658119 0.9752969741821289
v -0.09174320846796036 0.05346386879682541 0.9828817248344421
v -0.09162558615207672 0.055573489516973495 0.9761587381362915
v -0.103722482919693 0.05961799621582031 0.9637656211853027
v -0.09390801936388016 0.056445956230163574 0.9702157378196716
v -0.0921085849404335 0.05413173884153366 0.9660559296607971
v -0.1019313782453537 0.05875229090452194 0.9593019485473633
v -0.08876741677522659 0.05466359108686447 0.9715994596481323
v -0.09674443304538727 0.055188268423080444 0.9746569991111755
v -0.1059030294418335 0.0465535931289196 0.9554846882820129
v -0.10280527174472809 0.05165882408618927 0.953816831111908
v -0.10869839787483215 0.044507984071969986 0.9583261609077454
v -0.0758354663848877 0.05355513095855713 0.9912289977073669
v -0.11108164489269257 0.04710299149155617 0.9678215384483337
v -0.11026313900947571 0.0440719872713089 0.9622402191162109
v -0.09122791886329651 0.050093505531549454 0.9637081027030945
v -0.10177059471607208 0.05624549835920334 0.9554008841514587
v -0.10613425076007843 0.058184292167425156 0.9672156572341919
v -0.10896740853786469 0.05273635685443878 0.9704605937004089
v -0.110463947057724 0.05890802666544914 0.9637519121170044
v -0.1130220890045166 0.054078422486782074 0.9662580490112305
v -0.11495646834373474 0.04842788726091385 0.9638475775718689
v -0.11344066262245178 0.04575148969888687 0.9591847062110901
v -0.11118930578231812 0.04598313570022583 0.9558835625648499
v -0.10861313343048096 0.06060232222080231 0.960524320602417
v -0.10665148496627808 0.060358915477991104 0.9562820196151733
v -0.10469108074903488 0.05687285214662552 0.9534417390823364
v -0.11317428946495056 0.06192554906010628 0.954442024230957
v -0.11668242514133453 0.06052635982632637 0.9569334983825684
v -0.12740203738212585 0.05023359879851341 0.947128176689148
v -0.12391984462738037 0.049406807869672775 0.9518787860870361
v -0.12482564896345139 0.05175791680812836 0.9526128172874451
v -0.12806710600852966 0.052730802446603775 0.9482905864715576
v -0.12142449617385864 0.05009628087282181 0.9575119614601135
v -0.12246628105640411 0.0521092489361763 0.9564234018325806
v -0.1205611601471901 0.056121520698070526 0.9574755430221558
v -0.12363740801811218 0.05639772117137909 0.9523314237594604
v -0.1209532767534256 0.0603228323161602 0.9516332745552063
v -0.12488164007663727 0.06152766942977905 0.9476226568222046
v -0.12786903977394104 0.05778639018535614 0.9483968019485474
v -0.11958268284797668 0.05929926037788391 0.9556170701980591
v -0.1298612654209137 0.05428067594766617 0.9455695152282715
v -0.12975385785102844 0.053428053855895996 0.9431347250938416
v -0.1191980391740799 0.05571351200342178 0.9600277543067932
v -0.11675907671451569 0.04633672162890434 0.9569960236549377
v -0.12227509170770645 0.047752104699611664 0.9498603343963623
v -0.12570303678512573 0.049475137144327164 0.9444306492805481
v -0.12799134850502014 0.05385727435350418 0.9406660795211792
v -0.11974424868822098 0.04814956337213516 0.9465839266777039
v -0.12358089536428452 0.050308410078287125 0.9421552419662476
v -0.1254952847957611 0.05427456274628639 0.9396092891693115
v -0.11682666838169098 0.050370972603559494 0.9436885714530945
v -0.12094470113515854 0.05273913964629173 0.9399747848510742
v -0.10944443941116333 0.04822136461734772 0.9518019556999207
v -0.11294421553611755 0.045798055827617645 0.9540629982948303
v -0.12310242652893066 0.054312095046043396 0.9392477869987488
v -0.13018609583377838 0.058240823447704315 0.9427832365036011
v -0.1282287836074829 0.05796796455979347 0.940001368522644
v -0.12992051243782043 0.05813118815422058 0.9446164965629578
v -0.11951124668121338 0.06161417067050934 0.9507602453231812
v -0.12356894463300705 0.06227462738752365 0.9458914399147034
v -0.11759062111377716 0.062422528862953186 0.9488726258277893
v -0.12245409935712814 0.06265798211097717 0.9437493681907654
v -0.1271928995847702 0.06190790608525276 0.9429485201835632
v -0.1280461996793747 0.0612085796892643 0.944311797618866
v -0.10803569853305817 0.04833986237645149 0.9539389610290527
v -0.10521340370178223 0.05291096866130829 0.9526680111885071
v -0.10664062201976776 0.052887313067913055 0.9507104158401489
v -0.11453055590391159 0.05491247400641441 0.9429081678390503
v -0.10656283795833588 0.057524584233760834 0.9513466358184814
v -0.11023189127445221 0.061149824410676956 0.9523114562034607
v -0.11551596224308014 0.06193363294005394 0.9469889998435974
v -0.11433228850364685 0.05938210338354111 0.9442152976989746
v -0.12078691273927689 0.06282728910446167 0.9422882795333862
v -0.11854099482297897 0.060569263994693756 0.941450297832489
v -0.1188778281211853 0.056164905428886414 0.9396398067474365
v -0.12457428872585297 0.06175234168767929 0.9397380352020264
v -0.12634015083312988 0.062035977840423584 0.9413654208183289
v -0.1261574923992157 0.05766655504703522 0.9391063451766968
v -0.12188130617141724 0.060369737446308136 0.9393879175186157
v -0.12298958748579025 0.05697778984904289 0.9387018084526062
v -0.07854896783828735 0.05748201161623001 0.9478102326393127
v -0.07514484226703644 0.05449064075946808 0.945076048374176
v -0.07397885620594025 0.04966882988810539 0.9498389959335327
v -0.07716839760541916 0.053455039858818054 0.9526826739311218
v -0.07200631499290466 0.06671793758869171 0.954429566860199
v -0.07649160176515579 0.06466826796531677 0.9532946944236755
v -0.07514919340610504 0.06157783791422844 0.9568058252334595
v -0.06997865438461304 0.06319480389356613 0.9584481120109558
v -0.06717373430728912 0.06763346493244171 0.951898992061615
v -0.0646815225481987 0.0627763494849205 0.9565329551696777
v -0.06671661883592606 0.06267635524272919 0.9616337418556213
v -0.07265472412109375 0.06028999388217926 0.9604315757751465
v -0.0647348091006279 0.05363273620605469 0.9701104760169983
v -0.05861303210258484 0.05724697932600975 0.969292402267456
v -0.07847755402326584 0.06116866320371628 0.9505754709243774
v -0.07735477387905121 0.05801462009549141 0.9547109603881836
v -0.06512071192264557 0.047505155205726624 0.9494925737380981
v -0.06944916397333145 0.04652329161763191 0.95122891664505
v -0.06930683553218842 0.04922342300415039 0.947439968585968
v -0.06559114903211594 0.05116572231054306 0.946696937084198
v -0.06722643226385117 0.042849380522966385 0.970183253288269
v -0.0629175454378128 0.039356015622615814 0.9670408964157104
v -0.06803426146507263 0.04844643920660019 0.9699280261993408
v -0.06058311462402344 0.05197225138545036 0.9503804445266724
v -0.05803995579481125 0.05761618912220001 0.9537667632102966
v -0.05141012743115425 0.05065708979964256 0.9602039456367493
v -0.053925059735774994 0.04504695534706116 0.9594075679779053
v -0.07545942068099976 0.056525539606809616 0.9589784145355225
v -0.07314258813858032 0.047510236501693726 0.954258143901825
v -0.076189786195755 0.05156286805868149 0.9569165110588074
v -0.061297982931137085 0.06171140819787979 0.9585398435592651
v -0.06150050461292267 0.05962172523140907 0.9522304534912109
v -0.06588682532310486 0.07296034693717957 0.9343999624252319
v -0.06261830776929855 0.05961295962333679 0.9452061653137207
v -0.06624608486890793 0.05612858757376671 0.9426316022872925
v -0.06743603944778442 0.06969771534204483 0.9318418502807617
v -0.06209712475538254 0.0553094744682312 0.9478316307067871
v -0.06278447806835175 0.06439054012298584 0.948745608329773
v -0.08064000308513641 0.06914544850587845 0.934575617313385
v -0.07637245953083038 0.06648702919483185 0.9323315620422363
v -0.08108748495578766 0.07159169018268585 0.9379838705062866
v -0.05275709927082062 0.05648796632885933 0.9653157591819763
v -0.05779381841421127 0.03982779383659363 0.9619641304016113
v -0.07734542340040207 0.07725155353546143 0.9409666061401367
v -0.08040818572044373 0.0744587630033493 0.9397736191749573
v -0.07020609080791473 0.05417525768280029 0.9431285858154297
v -0.07109110057353973 0.06702306866645813 0.93092942237854
v -0.06708388775587082 0.0757354274392128 0.9378819465637207
v -0.07159358263015747 0.07753463089466095 0.9413105249404907
v -0.06766568869352341 0.07828742265701294 0.9323025345802307
v -0.0724150687456131 0.08052487671375275 0.9351677298545837
v -0.07792557030916214 0.08094292134046555 0.9348042607307434
v -0.08094113320112228 0.07793597877025604 0.9340996146202087
v -0.08191663026809692 0.07479457557201385 0.9328495264053345
v -0.06700749695301056 0.07477156817913055 0.929155707359314
v -0.06886430829763412 0.07146108150482178 0.9276658296585083
v -0.07196953892707825 0.06877994537353516 0.9292824864387512
v -0.06785222887992859 0.07447841763496399 0.924686074256897
v -0.06886495649814606 0.0799119770526886 0.9253603219985962
v -0.08127613365650177 0.08382904529571533 0.9159708619117737
v -0.08040690422058105 0.08287735283374786 0.9213644862174988
v -0.0792228952050209 0.08323581516742706 0.9211262464523315
v -0.07983623445034027 0.08463886380195618 0.9157528877258301
v -0.0779857337474823 0.08313816785812378 0.9273670315742493
v -0.07707791030406952 0.08347618579864502 0.9255794286727905
v -0.07331202924251556 0.08287261426448822 0.9257767200469971
v -0.07429040968418121 0.0834079384803772 0.9196070432662964
v -0.07022255659103394 0.07923179864883423 0.9188051223754883
v -0.07189858704805374 0.08037030696868896 0.9143070578575134
v -0.07527586817741394 0.08460031449794769 0.9146674871444702
v -0.06988552212715149 0.08049684762954712 0.9239557981491089
v -0.07928964495658875 0.0848415195941925 0.9127229452133179
v -0.08119987696409225 0.08538109064102173 0.9120515584945679
v -0.07320110499858856 0.08280052244663239 0.9280778169631958
v -0.08193656802177429 0.08072793483734131 0.9288591146469116
v -0.08287379145622253 0.08140891790390015 0.9214516282081604
v -0.08422763645648956 0.08219602704048157 0.9158645272254944
v -0.08286705613136292 0.08208964765071869 0.911720335483551
v -0.08367116749286652 0.07785366475582123 0.9208259582519531
v -0.08423789590597153 0.0790272206068039 0.9157124757766724
v -0.08310611546039581 0.07906855642795563 0.9119173884391785
v -0.08283981680870056 0.07479248195886612 0.9200876355171204
v -0.0829361081123352 0.07606366276741028 0.9154738187789917
v -0.08146171271800995 0.0725533664226532 0.9293549060821533
v -0.08260396122932434 0.07667852938175201 0.9294084906578064
v -0.08234697580337524 0.07702618092298508 0.912589967250824
v -0.0770362839102745 0.08420346677303314 0.9099360704421997
v -0.07840245217084885 0.08038049936294556 0.9088002443313599
v -0.07656703889369965 0.08402974903583527 0.9116630554199219
v -0.06931108236312866 0.07761889696121216 0.9190068244934082
v -0.07088856399059296 0.07871638983488083 0.9129444360733032
v -0.06957074254751205 0.07470703125 0.9186559915542603
v -0.07114656269550323 0.07592768967151642 0.9126394391059875
v -0.07299806922674179 0.08095601201057434 0.9102267026901245
v -0.07337025552988052 0.08159859478473663 0.9111615419387817
v -0.08027811348438263 0.07114005088806152 0.9318793416023254
v -0.07646527886390686 0.06859655678272247 0.9302365183830261
v -0.078052818775177 0.06954017281532288 0.9282575845718384
v -0.07981227338314056 0.07177110761404037 0.9185571670532227
v -0.07357435673475266 0.06887061893939972 0.9272173643112183
v -0.07011307030916214 0.07154753804206848 0.9237265586853027
v -0.07179568707942963 0.07232866436243057 0.9182263612747192
v -0.075376957654953 0.07121507823467255 0.9177566170692444
v -0.0729435384273529 0.0736999586224556 0.9128112196922302
v -0.07545452564954758 0.07291685044765472 0.9140666127204895
v -0.0803152471780777 0.07322341948747635 0.9142537713050842
v -0.0753491222858429 0.07610122859477997 0.9104468822479248
v -0.0736670047044754 0.07832907140254974 0.909631609916687
v -0.07955372333526611 0.07761364430189133 0.9096523523330688
v -0.07686898857355118 0.07452137768268585 0.911527156829834
v -0.08010034263134003 0.07563574612140656 0.9110420346260071
v -0.05986812710762024 0.03808435797691345 0.9642496705055237
v -0.05571629852056503 0.05386507883667946 0.9269405603408813
v -0.05311174318194389 0.051560454070568085 0.9249277710914612
v -0.05366396903991699 0.04788268357515335 0.9267838001251221
v -0.056947190314531326 0.049585532397031784 0.928839921951294
v -0.05105820298194885 0.05891173705458641 0.9355709552764893
v -0.05451871454715729 0.05812254548072815 0.9329999685287476
v -0.05573006719350815 0.055622443556785583 0.9356082677841187
v -0.0523541085422039 0.05681183189153671 0.9375932216644287
v -0.046576038002967834 0.05812432989478111 0.9350981712341309
v -0.04787418246269226 0.055574629455804825 0.9363154768943787
v -0.05190206691622734 0.05426352471113205 0.9392751455307007
v -0.055459387600421906 0.051519155502319336 0.9386171102523804
v -0.04645994305610657 0.04166008532047272 0.9534718990325928
v -0.041901107877492905 0.04409318417310715 0.9534445405006409
v -0.03440326452255249 0.02912483736872673 0.9458528161048889
v -0.037452779710292816 0.026268215849995613 0.9499657154083252
v -0.04253806173801422 0.0314510203897953 0.9423176646232605
v -0.03827077895402908 0.03395036980509758 0.9412468671798706
v -0.05599793791770935 0.05617625638842583 0.9299570322036743
v -0.05762917920947075 0.0528094619512558 0.9322710037231445
v -0.04379023611545563 0.04378118738532066 0.9299497604370117
v -0.048362016677856445 0.042335644364356995 0.9295656681060791
v -0.05015036463737488 0.04565473645925522 0.9258238077163696
v -0.04587487131357193 0.04544011503458023 0.9263027906417847
v -0.04200625419616699 0.027457965537905693 0.9529650211334229
v -0.04475690424442291 0.02922888472676277 0.9568576216697693
v -0.04820505902171135 0.03071560710668564 0.9516041278839111
v -0.046555157750844955 0.03147523105144501 0.9449438452720642
v -0.05068216472864151 0.03550240397453308 0.9532699584960938
v -0.04152408242225647 0.04711171239614487 0.9314681887626648
v -0.04212856665253639 0.05121780186891556 0.9347747564315796
v -0.03272640332579613 0.041011497378349304 0.9451030492782593
v -0.03432907164096832 0.037145912647247314 0.9433066844940186
v -0.05776647850871086 0.048074252903461456 0.9361050128936768
v -0.052629776298999786 0.04321388155221939 0.930684506893158
v -0.056639663875103 0.043984267860651016 0.9329192638397217
v -0.046491838991642 0.054921239614486694 0.9369628429412842
v -0.0435819998383522 0.05195912346243858 0.9332851767539978
v -0.04103837162256241 0.058667611330747604 0.9232805371284485
v -0.042118415236473083 0.05114266276359558 0.9275010228157043
v -0.04523175582289696 0.049764830619096756 0.924197793006897
v -0.042708128690719604 0.0576719306409359 0.9210602045059204
v -0.0433235801756382 0.047567736357450485 0.9291423559188843
v -0.04245352745056152 0.054974477738142014 0.9319339990615845
v -0.05415382981300354 0.059760116040706635 0.9219076037406921
v -0.05022015795111656 0.05736520141363144 0.9198373556137085
v -0.05485863983631134 0.061434030532836914 0.9245652556419373
v -0.03641977533698082 0.0452180877327919 0.949488639831543
v -0.050723083317279816 0.06444060802459717 0.9297376275062561
v -0.05396942049264908 0.063535176217556 0.9270049929618835
v -0.04956949129700661 0.05023519694805145 0.9237544536590576
v -0.04606515169143677 0.05693554878234863 0.9197638034820557
v -0.04143800213932991 0.06110330671072006 0.9268527030944824
v -0.045361071825027466 0.06368402391672134 0.9304503202438354
v -0.04164314642548561 0.06464635580778122 0.9248966574668884
v -0.04630697891116142 0.06626199185848236 0.9284123182296753
v -0.05202189087867737 0.06693416833877563 0.9271270036697388
v -0.05453767627477646 0.06507700681686401 0.9250476956367493
v -0.05525074526667595 0.0630987137556076 0.9226413369178772
v -0.040959835052490234 0.06232583522796631 0.9213719964027405
v -0.042555347084999084 0.06079965829849243 0.9193686246871948
v -0.04595091566443443 0.05904195085167885 0.9183458089828491
v -0.041277091950178146 0.06587757915258408 0.9190258979797363
v -0.042467884719371796 0.06969455629587173 0.9216499328613281
v -0.05268473923206329 0.0763283520936966 0.9157235026359558
v -0.05289275199174881 0.07351748645305634 0.9185794591903687
v -0.051841333508491516 0.07393504679203033 0.9190472364425659
v -0.05215100944042206 0.07708005607128143 0.9164154529571533
v -0.05183188617229462 0.0707610473036766 0.9229831695556641
v -0.050642628222703934 0.07173359394073486 0.9223694205284119
v -0.04730689525604248 0.0709354430437088 0.9233495593070984
v -0.047689665108919144 0.0747344046831131 0.919846773147583
v -0.043139927089214325 0.0735664963722229 0.917391300201416
v -0.04394589364528656 0.07673625648021698 0.9148889183998108
v -0.04773975536227226 0.07769554853439331 0.9174978137016296
v -0.043673545122146606 0.07136355340480804 0.9213841557502747
v -0.051284175366163254 0.07928075641393661 0.9151481986045837
v -0.051987625658512115 0.07968425005674362 0.914046049118042
v -0.04716280475258827 0.07001515477895737 0.9247945547103882
v -0.05474124476313591 0.0678996741771698 0.9218817949295044
v -0.05451911687850952 0.07273875921964645 0.9169103503227234
v -0.053791191428899765 0.0765322595834732 0.9137476682662964
v -0.05180855095386505 0.0790441483259201 0.9119182825088501
v -0.05478648468852043 0.07037149369716644 0.9157237410545349
v -0.05405855551362038 0.07504234462976456 0.9119521379470825
v -0.05197295546531677 0.0773652195930481 0.9101953506469727
v -0.053716566413640976 0.06781338900327682 0.913860023021698
v -0.05290020629763603 0.07285404950380325 0.9108631610870361
v -0.05375588685274124 0.06222585588693619 0.9182206392288208
v -0.05509451404213905 0.06510212272405624 0.9200338125228882
v -0.051520708948373795 0.07559194415807724 0.9099860787391663
v -0.04829530045390129 0.08059348165988922 0.9135610461235046
v -0.04873162880539894 0.07942157983779907 0.910904049873352
v -0.047805119305849075 0.08022352308034897 0.9149192571640015
v -0.0422983355820179 0.07263515144586563 0.9166886210441589
v -0.04327353090047836 0.0763748288154602 0.9134533405303955
v -0.04198545217514038 0.07072360068559647 0.9149275422096252
v -0.043593790382146835 0.07520043849945068 0.9116252660751343
v -0.04516233503818512 0.07916335761547089 0.9124207496643066
v -0.04546066373586655 0.07895705103874207 0.9142242670059204
v -0.05390489473938942 0.06096409261226654 0.9198228120803833
v -0.05034894496202469 0.059035398066043854 0.9186325669288635
v -0.050017744302749634 0.06065642461180687 0.9169665575027466
v -0.05048375576734543 0.06618133187294006 0.9124882221221924
v -0.04563608765602112 0.061002425849437714 0.9167294502258301
v -0.042545806616544724 0.06327155977487564 0.9176583886146545
v -0.04340454936027527 0.0687604546546936 0.9134424924850464
v -0.046160075813531876 0.06704000383615494 0.9122651219367981
v -0.04490449279546738 0.07400903105735779 0.9102280735969543
v -0.047249577939510345 0.07214973121881485 0.9094857573509216
v -0.05035047233104706 0.07150943577289581 0.9096462726593018
v -0.04713299125432968 0.07697165012359619 0.9095990657806396
v -0.04607320949435234 0.07830338180065155 0.9104755520820618
v -0.04921448230743408 0.077690988779068 0.909746527671814
v -0.04823167622089386 0.07537245750427246 0.9090911149978638
v -0.04978518187999725 0.07537522912025452 0.909300684928894
v -0.03374262526631355 0.03303809463977814 0.9448870420455933
v -0.04272908717393875 0.030375082045793533 1.0304021835327148
v -0.04258986562490463 0.026357773691415787 1.0272438526153564
v -0.03909451514482498 0.012820262461900711 1.0365467071533203
v -0.0415775291621685 0.015023976564407349 1.0302761793136597
v -0.03819790109992027 0.015240050852298737 1.0430686473846436
v -0.03910982981324196 0.0263527724891901 1.0468446016311646
v -0.0376100018620491 0.020456163212656975 1.0462899208068848
v -0.04300805926322937 0.020374273881316185 1.0271246433258057
v -0.042064838111400604 0.03356686607003212 1.0357065200805664
v -0.04033701866865158 0.03232847899198532 1.0428327322006226
v -0.049624331295490265 0.030547574162483215 1.0362735986709595
v -0.047678638249635696 0.030635926872491837 1.0441967248916626
v -0.04523838311433792 0.026591405272483826 1.0490977764129639
v -0.04048299044370651 0.019456567242741585 1.048654317855835
v -0.03929821029305458 0.015139415860176086 1.0459544658660889
v -0.0472891628742218 0.026037126779556274 1.0314130783081055
v -0.04613965377211571 0.02183551900088787 1.0292515754699707
v -0.043966419994831085 0.015973705798387527 1.0297142267227173
v -0.054281216114759445 0.020840849727392197 1.0326277017593384
v -0.06224606931209564 0.02052691951394081 1.0399978160858154
v -0.06593248248100281 0.012190140783786774 1.0582948923110962
v -0.06005946174263954 0.015309948474168777 1.0558682680130005
v -0.06235825642943382 0.016460038721561432 1.0543303489685059
v -0.06767569482326508 0.013947732746601105 1.0570534467697144
v -0.05739710479974747 0.019445739686489105 1.0530109405517578
v -0.05956408381462097 0.019164837896823883 1.0517449378967285
v -0.060955215245485306 0.02093091607093811 1.0470268726348877
v -0.06591495871543884 0.017976421862840652 1.0493220090866089
v -0.06328325718641281 0.01912582665681839 1.0425922870635986
v -0.0669475793838501 0.016125980764627457 1.04334557056427
v -0.07115504145622253 0.015530705451965332 1.0515609979629517
v -0.07200625538825989 0.013232924044132233 1.0574239492416382
v -0.07540489733219147 0.012918435037136078 1.0536537170410156
v -0.07126018404960632 0.009976379573345184 1.0586286783218384
v -0.06057310104370117 0.02350781485438347 1.0469205379486084
v -0.05007006227970123 0.018049217760562897 1.0534251928329468
v -0.05662631243467331 0.013145435601472855 1.0563256740570068
v -0.0632670670747757 0.009043771773576736 1.0580979585647583
v -0.06951583921909332 0.007049273699522018 1.0577049255371094
v -0.054109085351228714 0.009172867983579636 1.0543948411941528
v -0.06096222996711731 0.00621384009718895 1.0550132989883423
v -0.06650711596012115 0.004624113440513611 1.0537534952163696
v -0.05345199257135391 0.0061597563326358795 1.0498573780059814
v -0.060443103313446045 0.004503361880779266 1.0509567260742188
v -0.04278723523020744 0.011380866169929504 1.043316125869751
v -0.04438918083906174 0.01416429877281189 1.0502790212631226
v -0.06474466621875763 0.00430968776345253 1.0512360334396362
v -0.07627034187316895 0.00955207273364067 1.0542408227920532
v -0.07406146079301834 0.006317760795354843 1.0530705451965332
v -0.0661051943898201 0.015332967042922974 1.039709448814392
v -0.07209429889917374 0.013759821653366089 1.0453256368637085
v -0.07133990526199341 0.011634428054094315 1.042711615562439
v -0.0635632798075676 0.013564281165599823 1.0367662906646729
v -0.0700116902589798 0.009401552379131317 1.0412750244140625
v -0.07560326904058456 0.009771868586540222 1.0473922491073608
v -0.07522126287221909 0.012741919606924057 1.0486078262329102
v -0.03943692147731781 0.012141615152359009 1.0402209758758545
v -0.04119555652141571 0.012837748974561691 1.0339102745056152
v -0.0434257909655571 0.011621050536632538 1.0364998579025269
v -0.05459434539079666 0.005686946213245392 1.0426201820373535
v -0.047211818397045135 0.013111338019371033 1.0324259996414185
v -0.05152147263288498 0.016824625432491302 1.0313762426376343
v -0.06097652390599251 0.0107664093375206 1.0360422134399414
v -0.057667527347803116 0.007638189941644669 1.0377459526062012
v -0.06708192825317383 0.006924524903297424 1.0413447618484497
v -0.06446024775505066 0.005637276917695999 1.0425604581832886
v -0.06198491156101227 0.004182606935501099 1.0466127395629883
v -0.0701780915260315 0.005335859954357147 1.0459494590759277
v -0.07366891205310822 0.007104817777872086 1.0461820363998413
v -0.07003454864025116 0.004422653466463089 1.0505740642547607
v -0.06739416718482971 0.00495905801653862 1.0456271171569824
v -0.06659084558486938 0.0041747018694877625 1.0487258434295654
v -0.03188558667898178 0.02459510788321495 0.952734112739563
v -0.03590016812086105 0.024188896641135216 0.9578695893287659
v -0.02854694426059723 0.02248958684504032 0.9587334394454956
v -0.018439881503582 0.021922310814261436 0.9609488248825073
v -0.008034680038690567 0.023649530485272408 0.957846999168396
v -0.020366642624139786 0.022972963750362396 0.9673035144805908
v -0.03054266795516014 0.02353963442146778 0.9646230936050415
v -0.041078872978687286 0.02633540891110897 0.9632410407066345
v -0.013889964669942856 0.02495323121547699 0.9753772020339966
f 2 3 1
f 1 3 4
f 5 6 8
f 8 6 7
f 9 4 10
f 10 4 3
f 12 13 11
f 11 13 9
f 14 12 16
f 16 12 15
f 18 19 17
f 17 19 20
f 22 23 21
f 21 23 24
f 26 27 25
f 25 27 28
f 30 31 29
f 29 31 32
f 33 34 36
f 36 34 35
f 37 38 40
f 40 38 39
f 41 42 6
f 6 42 43
f 6 43 7
f 7 43 44
f 45 34 46
f 46 34 33
f 48 49 47
f 47 49 50
f 52 53 51
f 51 53 54
f 56 52 55
f 55 52 51
f 58 59 57
f 57 59 60
f 61 62 4
f 4 62 1
f 64 65 63
f 63 65 66
f 68 69 67
f 67 69 70
f 72 73 71
f 71 73 74
f 76 77 75
f 75 77 78
f 53 79 54
f 54 79 80
f 82 83 81
f 81 83 84
f 85 86 52
f 52 86 53
f 57 60 87
f 87 60 88
f 89 90 43
f 43 90 44
f 43 42 89
f 89 42 91
f 40 39 92
f 92 39 93
f 94 70 64
f 64 70 69
f 13 61 9
f 9 61 4
f 25 28 69
f 69 28 95
f 96 25 68
f 68 25 69
f 98 99 97
f 97 99 100
f 101 102 104
f 104 102 103
f 106 30 105
f 105 30 29
f 51 54 107
f 107 54 108
f 54 80 108
f 108 80 109
f 111 112 110
f 110 112 113
f 115 5 114
f 114 5 116
f 115 41 5
f 5 41 6
f 36 35 111
f 111 35 117
f 35 118 117
f 117 118 119
f 34 120 35
f 35 120 118
f 34 45 120
f 120 45 121
f 125 126 124
f 124 126 127
f 128 129 14
f 14 129 130
f 33 131 46
f 46 131 132
f 133 94 63
f 63 94 64
f 134 135 137
f 137 135 136
f 139 140 138
f 138 140 141
f 77 142 78
f 78 142 143
f 144 145 20
f 20 145 146
f 148 149 147
f 147 149 72
f 151 152 150
f 150 152 153
f 82 101 83
f 83 101 104
f 101 82 155
f 155 82 154
f 156 157 58
f 58 157 59
f 158 68 147
f 147 68 67
f 159 146 15
f 15 146 16
f 68 158 96
f 96 158 160
f 129 66 130
f 130 66 65
f 162 163 161
f 161 163 164
f 166 167 165
f 165 167 168
f 170 171 169
f 169 171 172
f 174 171 173
f 173 171 170
f 176 177 175
f 175 177 178
f 180 181 179
f 179 181 24
f 182 183 21
f 21 183 184
f 81 185 82
f 82 185 154
f 186 187 188
f 188 187 144
f 158 71 160
f 160 71 189
f 190 135 157
f 157 135 59
f 169 172 139
f 139 172 140
f 147 72 158
f 158 72 71
f 192 193 191
f 191 193 194
f 167 166 49
f 49 166 195
f 196 190 50
f 50 190 157
f 197 198 200
f 200 198 199
f 21 24 182
f 182 24 181
f 146 159 20
f 20 159 17
f 182 181 81
f 81 181 185
f 201 185 180
f 180 185 181
f 202 203 83
f 83 203 84
f 205 206 204
f 204 206 85
f 207 22 184
f 184 22 21
f 179 24 208
f 208 24 23
f 208 209 179
f 179 209 205
f 209 210 205
f 205 210 206
f 212 206 211
f 211 206 210
f 179 205 180
f 180 205 204
f 213 176 88
f 88 176 214
f 86 85 212
f 212 85 206
f 193 217 218
f 217 219 218
f 218 219 220
f 219 18 220
f 220 18 17
f 19 221 20
f 20 221 144
f 222 223 225
f 225 223 224
f 175 226 176
f 176 226 214
f 227 87 214
f 214 87 88
f 220 17 228
f 228 17 159
f 134 213 60
f 60 213 88
f 138 229 151
f 151 229 152
f 193 192 210
f 210 192 211
f 230 194 218
f 218 194 193
f 231 232 228
f 228 232 230
f 233 234 91
f 91 234 89
f 235 236 93
f 93 236 92
f 230 232 234
f 234 232 237
f 47 238 48
f 48 238 239
f 240 191 235
f 235 191 236
f 5 8 116
f 116 8 241
f 242 243 189
f 189 243 160
f 244 245 98
f 98 245 99
f 156 246 47
f 47 246 238
f 76 247 77
f 77 247 248
f 250 125 249
f 249 125 124
f 252 253 251
f 251 253 254
f 111 110 36
f 36 110 255
f 256 33 255
f 255 33 36
f 257 258 154
f 154 258 155
f 63 169 133
f 133 169 139
f 66 170 63
f 63 170 169
f 173 170 129
f 129 170 66
f 129 128 173
f 173 128 259
f 128 260 259
f 259 260 261
f 213 134 262
f 262 134 137
f 263 264 186
f 186 264 187
f 112 265 113
f 113 265 266
f 11 267 268
f 234 233 230
f 230 233 194
f 153 269 70
f 70 269 67
f 175 178 165
f 165 178 141
f 150 153 94
f 94 153 70
f 271 221 270
f 270 221 207
f 269 153 272
f 272 153 152
f 121 45 109
f 109 45 108
f 47 50 156
f 156 50 157
f 57 273 58
f 58 273 274
f 145 275 260
f 260 275 261
f 276 149 143
f 143 149 78
f 148 269 75
f 75 269 272
f 207 277 270
f 270 277 278
f 195 196 49
f 49 196 50
f 59 135 60
f 60 135 134
f 83 104 202
f 202 104 279
f 149 148 78
f 78 148 75
f 247 278 248
f 248 278 277
f 183 182 84
f 84 182 81
f 48 239 281
f 281 239 282
f 227 223 283
f 283 223 222
f 223 226 224
f 224 226 168
f 281 282 224
f 224 282 225
f 165 168 175
f 175 168 226
f 264 263 138
f 138 263 229
f 14 16 128
f 128 16 260
f 220 228 218
f 218 228 230
f 87 227 284
f 284 227 283
f 260 16 145
f 145 16 146
f 244 98 258
f 258 98 155
f 58 274 156
f 156 274 246
f 107 285 51
f 51 285 55
f 243 286 160
f 160 286 96
f 234 237 89
f 89 237 90
f 46 132 107
f 107 132 285
f 253 252 249
f 249 252 250
f 286 26 96
f 96 26 25
f 106 105 287
f 287 105 288
f 272 152 289
f 289 152 229
f 138 151 139
f 139 151 133
f 183 290 161
f 161 290 162
f 291 292 277
f 277 292 293
f 151 150 133
f 133 150 94
f 262 275 177
f 177 275 187
f 144 187 145
f 145 187 275
f 273 57 284
f 284 57 87
f 174 136 190
f 190 136 135
f 111 117 112
f 112 117 38
f 117 119 38
f 38 119 123
f 112 38 265
f 265 38 37
f 287 288 254
f 254 288 251
f 228 159 231
f 231 159 15
f 223 227 226
f 226 227 214
f 147 67 148
f 148 67 269
f 224 168 281
f 281 168 167
f 199 163 200
f 200 163 162
f 45 46 108
f 108 46 107
f 281 167 48
f 48 167 49
f 161 164 291
f 291 164 292
f 38 123 39
f 293 294 277
f 277 294 248
f 284 283 296
f 296 283 295
f 284 296 273
f 273 296 297
f 274 273 298
f 298 273 297
f 246 274 299
f 299 274 298
f 283 222 295
f 295 222 300
f 222 225 300
f 300 225 301
f 301 225 302
f 302 225 282
f 303 304 300
f 300 304 295
f 306 307 305
f 305 307 308
f 309 310 308
f 308 310 305
f 308 307 312
f 312 307 311
f 313 314 312
f 312 314 315
f 311 316 312
f 312 316 313
f 317 304 311
f 311 304 316
f 315 309 312
f 312 309 308
f 318 319 321
f 321 319 320
f 319 318 309
f 309 318 310
f 311 307 317
f 317 307 306
f 306 297 317
f 317 297 296
f 306 322 297
f 297 322 298
f 305 323 306
f 306 323 322
f 323 305 324
f 324 305 310
f 304 317 295
f 295 317 296
f 318 325 310
f 310 325 324
f 323 324 326
f 326 324 327
f 324 325 327
f 327 325 328
f 326 327 329
f 329 327 330
f 329 331 326
f 326 331 332
f 333 330 328
f 328 330 327
f 323 326 322
f 322 326 332
f 322 332 298
f 298 332 299
f 325 318 334
f 334 318 321
f 313 316 335
f 335 316 304
f 335 336 313
f 313 336 314
f 304 303 335
f 335 303 337
f 336 335 338
f 338 335 337
f 336 339 314
f 314 339 340
f 246 299 238
f 238 299 341
f 239 342 282
f 282 342 302
f 342 239 341
f 341 239 238
f 341 331 342
f 342 331 343
f 331 329 343
f 343 329 344
f 342 343 302
f 302 343 345
f 341 299 331
f 331 299 332
f 346 301 345
f 345 301 302
f 346 303 301
f 301 303 300
f 347 337 346
f 346 337 303
f 347 346 348
f 348 346 345
f 349 347 350
f 350 347 348
f 343 344 345
f 345 344 348
f 344 351 348
f 348 351 350
f 337 347 338
f 338 347 349
f 353 338 352
f 352 338 349
f 352 355 354
f 354 355 356
f 352 349 355
f 355 349 350
f 352 354 353
f 353 354 334
f 353 334 339
f 339 334 321
f 339 336 353
f 353 336 338
f 329 330 344
f 344 330 351
f 356 351 333
f 333 351 330
f 356 355 351
f 351 355 350
f 354 356 328
f 328 356 333
f 328 325 354
f 354 325 334
f 309 315 319
f 319 315 320
f 320 340 321
f 321 340 339
f 320 315 340
f 340 315 314
f 137 136 261
f 261 136 259
f 140 166 141
f 141 166 165
f 172 171 195
f 195 171 196
f 171 174 196
f 196 174 190
f 178 177 264
f 264 177 187
f 172 195 140
f 140 195 166
f 137 261 262
f 262 261 275
f 178 264 141
f 141 264 138
f 262 177 213
f 213 177 176
f 136 174 259
f 259 174 173
f 358 359 357
f 357 359 360
f 362 363 361
f 361 363 364
f 361 364 365
f 365 364 366
f 367 368 370
f 370 368 369
f 76 371 247
f 247 371 372
f 373 374 362
f 362 374 363
f 376 377 375
f 375 377 378
f 289 229 380
f 380 229 379
f 381 379 263
f 263 379 229
f 383 384 382
f 382 384 385
f 386 368 374
f 374 368 363
f 76 289 371
f 371 289 380
f 377 376 359
f 359 376 387
f 388 386 360
f 360 386 374
f 389 383 366
f 366 383 390
f 392 393 391
f 391 393 394
f 383 382 390
f 390 382 395
f 396 365 390
f 390 365 366
f 389 366 367
f 367 366 364
f 357 397 358
f 358 397 398
f 373 399 357
f 357 399 397
f 389 367 400
f 400 367 370
f 382 385 375
f 375 385 372
f 357 360 373
f 373 360 374
f 361 401 362
f 362 401 402
f 387 388 359
f 359 388 360
f 363 368 364
f 364 368 367
f 358 398 403
f 403 398 404
f 396 392 405
f 405 392 391
f 392 395 393
f 393 395 378
f 393 403 394
f 394 403 404
f 375 378 382
f 382 378 395
f 365 396 406
f 406 396 405
f 362 402 373
f 373 402 399
f 271 270 400
f 400 270 384
f 401 361 406
f 406 361 365
f 381 369 386
f 386 369 368
f 392 396 395
f 395 396 390
f 393 378 403
f 403 378 377
f 403 377 358
f 358 377 359
f 406 405 408
f 408 405 407
f 406 408 401
f 401 408 409
f 401 409 402
f 402 409 410
f 402 410 399
f 399 410 411
f 405 391 407
f 407 391 412
f 391 394 412
f 412 394 413
f 394 404 413
f 413 404 414
f 415 416 412
f 412 416 407
f 418 419 417
f 417 419 420
f 421 422 418
f 418 422 419
f 419 422 424
f 424 422 423
f 425 426 424
f 424 426 427
f 423 428 424
f 424 428 425
f 427 420 424
f 424 420 419
f 420 429 417
f 417 429 430
f 423 422 431
f 431 422 421
f 421 409 431
f 431 409 408
f 421 432 409
f 409 432 410
f 418 433 421
f 421 433 432
f 434 433 417
f 417 433 418
f 431 416 423
f 423 416 428
f 416 431 407
f 407 431 408
f 435 434 430
f 430 434 417
f 433 434 436
f 436 434 437
f 434 435 437
f 437 435 438
f 436 437 439
f 439 437 440
f 439 441 436
f 436 441 442
f 438 443 437
f 437 443 440
f 436 442 433
f 433 442 432
f 432 442 410
f 410 442 411
f 435 430 445
f 445 430 444
f 430 429 444
f 444 429 446
f 425 428 447
f 447 428 416
f 426 425 448
f 448 425 447
f 416 415 447
f 447 415 449
f 447 449 448
f 448 449 450
f 451 452 448
f 448 452 426
f 446 452 444
f 444 452 451
f 399 411 397
f 397 411 453
f 398 454 404
f 404 454 414
f 454 398 453
f 453 398 397
f 453 441 454
f 454 441 455
f 441 439 455
f 455 439 456
f 454 455 414
f 414 455 457
f 441 453 442
f 442 453 411
f 458 413 457
f 457 413 414
f 458 415 413
f 413 415 412
f 458 459 415
f 415 459 449
f 459 458 460
f 460 458 457
f 461 459 462
f 462 459 460
f 455 456 457
f 457 456 460
f 456 463 460
f 460 463 462
f 459 461 449
f 449 461 450
f 465 450 464
f 464 450 461
f 464 467 466
f 466 467 468
f 464 461 467
f 467 461 462
f 464 466 465
f 465 466 445
f 465 445 451
f 451 445 444
f 451 448 465
f 465 448 450
f 439 440 456
f 456 440 463
f 468 463 443
f 443 463 440
f 468 467 463
f 463 467 462
f 466 468 438
f 438 468 443
f 438 435 466
f 466 435 445
f 420 427 429
f 429 427 446
f 446 427 452
f 452 427 426
f 370 369 188
f 188 369 186
f 371 376 372
f 372 376 375
f 380 379 387
f 387 379 388
f 379 381 388
f 388 381 386
f 385 384 278
f 278 384 270
f 380 387 371
f 371 387 376
f 400 370 271
f 271 370 188
f 385 278 372
f 372 278 247
f 400 384 389
f 389 384 383
f 369 381 186
f 186 381 263
f 221 271 144
f 144 271 188
f 221 19 207
f 207 19 22
f 19 18 22
f 22 18 23
f 18 219 23
f 23 219 208
f 469 470 472
f 472 470 471
f 474 475 473
f 473 475 476
f 473 476 477
f 477 476 478
f 480 481 479
f 479 481 482
f 483 484 474
f 474 484 475
f 486 487 485
f 485 487 488
f 489 490 77
f 77 490 142
f 491 489 248
f 248 489 77
f 493 494 492
f 492 494 495
f 496 480 484
f 484 480 475
f 486 497 487
f 487 497 471
f 498 496 472
f 472 496 484
f 499 493 478
f 478 493 500
f 501 502 504
f 504 502 503
f 493 492 500
f 500 492 505
f 506 477 500
f 500 477 478
f 499 478 479
f 479 478 476
f 469 507 470
f 470 507 508
f 483 509 469
f 469 509 507
f 479 482 499
f 499 482 510
f 492 495 485
f 485 495 511
f 483 469 484
f 484 469 472
f 473 512 474
f 474 512 513
f 497 498 471
f 471 498 472
f 475 480 476
f 476 480 479
f 470 508 514
f 514 508 515
f 506 502 516
f 516 502 501
f 503 502 488
f 488 502 505
f 514 515 503
f 503 515 504
f 485 488 492
f 492 488 505
f 477 506 517
f 517 506 516
f 474 513 483
f 483 513 509
f 510 292 494
f 494 292 164
f 512 473 517
f 517 473 477
f 491 481 496
f 496 481 480
f 502 506 505
f 505 506 500
f 503 488 514
f 514 488 487
f 514 487 470
f 470 487 471
f 517 516 519
f 519 516 518
f 517 519 512
f 512 519 520
f 512 520 513
f 513 520 521
f 513 521 509
f 509 521 522
f 516 501 518
f 518 501 523
f 501 504 523
f 523 504 524
f 524 504 525
f 525 504 515
f 526 527 523
f 523 527 518
f 529 530 528
f 528 530 531
f 532 533 529
f 529 533 530
f 530 533 535
f 535 533 534
f 536 537 535
f 535 537 538
f 534 539 535
f 535 539 536
f 538 531 535
f 535 531 530
f 540 541 531
f 531 541 528
f 533 532 534
f 534 532 542
f 532 520 542
f 542 520 519
f 532 543 520
f 520 543 521
f 529 544 532
f 532 544 543
f 544 529 545
f 545 529 528
f 534 542 539
f 539 542 527
f 527 542 518
f 518 542 519
f 541 546 528
f 528 546 545
f 547 544 548
f 548 544 545
f 546 549 545
f 545 549 548
f 550 547 551
f 551 547 548
f 547 550 553
f 553 550 552
f 549 554 548
f 548 554 551
f 544 547 543
f 543 547 553
f 543 553 521
f 521 553 522
f 546 541 556
f 556 541 555
f 541 540 555
f 555 540 557
f 536 539 558
f 558 539 527
f 537 536 559
f 559 536 558
f 527 526 558
f 558 526 560
f 559 558 561
f 561 558 560
f 559 562 537
f 537 562 563
f 557 563 555
f 555 563 562
f 509 522 507
f 507 522 564
f 508 565 515
f 515 565 525
f 565 508 564
f 564 508 507
f 564 552 565
f 565 552 566
f 552 550 566
f 566 550 567
f 565 566 525
f 525 566 568
f 564 522 552
f 552 522 553
f 569 524 568
f 568 524 525
f 569 526 524
f 524 526 523
f 570 560 569
f 569 560 526
f 570 569 571
f 571 569 568
f 572 570 573
f 573 570 571
f 566 567 568
f 568 567 571
f 567 574 571
f 571 574 573
f 570 572 560
f 560 572 561
f 576 561 575
f 575 561 572
f 575 578 577
f 577 578 579
f 575 572 578
f 578 572 573
f 575 577 576
f 576 577 556
f 576 556 562
f 562 556 555
f 562 559 576
f 576 559 561
f 550 551 567
f 567 551 574
f 579 574 554
f 554 574 551
f 579 578 574
f 574 578 573
f 579 554 577
f 577 554 549
f 549 546 577
f 577 546 556
f 531 538 540
f 540 538 557
f 557 538 563
f 563 538 537
f 481 294 482
f 482 294 293
f 580 486 511
f 511 486 485
f 490 489 497
f 497 489 498
f 489 491 498
f 498 491 496
f 163 495 164
f 164 495 494
f 580 490 486
f 486 490 497
f 482 293 510
f 510 293 292
f 495 163 511
f 511 163 199
f 494 493 510
f 510 493 499
f 481 491 294
f 294 491 248
f 582 583 581
f 581 583 584
f 586 587 585
f 585 587 588
f 585 588 589
f 589 588 590
f 592 593 591
f 591 593 594
f 595 596 598
f 598 596 597
f 599 600 586
f 586 600 587
f 601 602 604
f 604 602 603
f 605 606 608
f 608 606 607
f 609 607 200
f 200 607 606
f 610 611 613
f 613 611 612
f 600 614 587
f 587 614 592
f 596 605 597
f 597 605 608
f 602 615 603
f 603 615 583
f 616 614 584
f 584 614 600
f 611 618 617
f 617 618 590
f 620 621 619
f 619 621 622
f 610 623 611
f 611 623 618
f 624 589 618
f 618 589 590
f 617 590 591
f 591 590 588
f 581 625 582
f 582 625 626
f 599 627 581
f 581 627 625
f 591 594 617
f 617 594 628
f 601 610 598
f 598 610 613
f 581 584 599
f 599 584 600
f 585 629 586
f 586 629 630
f 615 616 583
f 583 616 584
f 587 592 588
f 588 592 591
f 582 626 631
f 631 626 632
f 624 620 633
f 633 620 619
f 621 620 604
f 604 620 623
f 631 632 621
f 621 632 622
f 610 601 623
f 623 601 604
f 589 624 634
f 634 624 633
f 586 630 599
f 599 630 627
f 203 202 628
f 628 202 612
f 629 585 634
f 634 585 589
f 609 593 614
f 614 593 592
f 620 624 623
f 623 624 618
f 631 621 603
f 603 621 604
f 582 631 583
f 583 631 603
f 634 633 636
f 636 633 635
f 634 636 629
f 629 636 637
f 629 637 630
f 630 637 638
f 630 638 627
f 627 638 639
f 633 619 635
f 635 619 640
f 619 622 640
f 640 622 641
f 641 622 642
f 642 622 632
f 644 635 643
f 643 635 640
f 645 646 648
f 648 646 647
f 649 650 646
f 646 650 647
f 647 650 652
f 652 650 651
f 652 653 655
f 655 653 654
f 651 656 652
f 652 656 653
f 655 648 652
f 652 648 647
f 648 657 645
f 645 657 658
f 650 649 651
f 651 649 659
f 649 637 659
f 659 637 636
f 649 660 637
f 637 660 638
f 661 660 646
f 646 660 649
f 662 661 645
f 645 661 646
f 651 659 656
f 656 659 644
f 644 659 635
f 635 659 636
f 663 662 658
f 658 662 645
f 664 661 665
f 665 661 662
f 663 666 662
f 662 666 665
f 667 664 668
f 668 664 665
f 664 667 670
f 670 667 669
f 666 671 665
f 665 671 668
f 661 664 660
f 660 664 670
f 660 670 638
f 638 670 639
f 658 672 663
f 663 672 673
f 658 657 672
f 672 657 674
f 653 656 675
f 675 656 644
f 653 675 654
f 654 675 676
f 675 644 677
f 677 644 643
f 676 675 678
f 678 675 677
f 679 680 676
f 676 680 654
f 674 680 672
f 672 680 679
f 627 639 625
f 625 639 681
f 626 682 632
f 632 682 642
f 681 682 625
f 625 682 626
f 669 683 681
f 681 683 682
f 667 684 669
f 669 684 683
f 682 683 642
f 642 683 685
f 681 639 669
f 669 639 670
f 686 641 685
f 685 641 642
f 641 686 640
f 640 686 643
f 686 687 643
f 643 687 677
f 687 686 688
f 688 686 685
f 689 687 690
f 690 687 688
f 683 684 685
f 685 684 688
f 684 691 688
f 688 691 690
f 687 689 677
f 677 689 678
f 693 678 692
f 692 678 689
f 692 695 694
f 694 695 696
f 692 689 695
f 695 689 690
f 692 694 693
f 693 694 673
f 693 673 679
f 679 673 672
f 679 676 693
f 693 676 678
f 684 667 691
f 691 667 668
f 696 691 671
f 671 691 668
f 696 695 691
f 691 695 690
f 694 696 666
f 666 696 671
f 666 663 694
f 694 663 673
f 648 655 657
f 657 655 674
f 674 655 680
f 680 655 654
f 593 162 594
f 594 162 290
f 598 597 601
f 601 597 602
f 615 608 616
f 616 608 607
f 607 609 616
f 616 609 614
f 697 595 613
f 613 595 598
f 597 608 602
f 602 608 615
f 594 290 628
f 628 290 203
f 628 612 617
f 617 612 611
f 593 609 162
f 162 609 200
f 105 29 698
f 698 29 699
f 268 126 701
f 701 126 700
f 126 125 700
f 700 125 702
f 252 703 250
f 250 703 704
f 32 268 705
f 705 268 701
f 288 105 706
f 706 105 698
f 29 32 699
f 699 32 705
f 707 251 706
f 706 251 288
f 250 704 125
f 125 704 702
f 703 252 707
f 707 252 251
f 706 708 707
f 707 708 709
f 707 709 703
f 703 709 710
f 703 710 704
f 704 710 711
f 704 711 702
f 702 711 712
f 706 698 708
f 708 698 713
f 698 699 713
f 713 699 714
f 699 705 714
f 714 705 715
f 717 708 716
f 716 708 713
f 719 720 718
f 718 720 721
f 722 723 719
f 719 723 720
f 724 725 723
f 723 725 720
f 724 726 725
f 725 726 727
f 728 721 725
f 725 721 720
f 721 728 729
f 729 728 730
f 729 731 721
f 721 731 718
f 724 723 732
f 732 723 722
f 722 710 732
f 732 710 709
f 722 733 710
f 710 733 711
f 719 734 722
f 722 734 733
f 734 719 735
f 735 719 718
f 724 732 726
f 726 732 717
f 717 732 708
f 708 732 709
f 731 736 718
f 718 736 735
f 737 734 738
f 738 734 735
f 736 739 735
f 735 739 738
f 740 737 741
f 741 737 738
f 737 740 743
f 743 740 742
f 739 744 738
f 738 744 741
f 734 737 733
f 733 737 743
f 733 743 711
f 711 743 712
f 736 731 746
f 746 731 745
f 731 729 745
f 745 729 730
f 727 726 747
f 747 726 717
f 748 727 749
f 749 727 747
f 747 717 750
f 750 717 716
f 749 747 751
f 751 747 750
f 749 752 748
f 748 752 753
f 730 753 745
f 745 753 752
f 728 725 748
f 748 725 727
f 730 728 753
f 753 728 748
f 700 702 754
f 754 702 712
f 705 701 715
f 715 701 755
f 754 755 700
f 700 755 701
f 742 756 754
f 754 756 755
f 740 757 742
f 742 757 756
f 755 756 715
f 715 756 758
f 754 712 742
f 742 712 743
f 759 714 758
f 758 714 715
f 714 759 713
f 713 759 716
f 759 760 716
f 716 760 750
f 760 759 761
f 761 759 758
f 762 760 763
f 763 760 761
f 756 757 758
f 758 757 761
f 757 764 761
f 761 764 763
f 760 762 750
f 750 762 751
f 766 751 765
f 765 751 762
f 767 765 769
f 769 765 768
f 765 762 768
f 768 762 763
f 765 767 766
f 766 767 746
f 766 746 752
f 752 746 745
f 752 749 766
f 766 749 751
f 757 740 764
f 764 740 741
f 769 764 744
f 744 764 741
f 769 768 764
f 764 768 763
f 767 769 739
f 739 769 744
f 739 736 767
f 767 736 746
f 219 217 208
f 208 217 209
f 209 217 210
f 210 217 193
f 198 580 199
f 199 580 511
f 76 75 289
f 289 75 272
f 277 207 291
f 291 207 184
f 290 183 203
f 203 183 84
f 490 580 142
f 142 580 198
f 142 198 143
f 143 198 197
f 149 276 72
f 72 276 73
f 104 103 279
f 279 103 770
f 770 596 279
f 279 596 595
f 605 596 771
f 771 596 770
f 771 770 772
f 772 770 103
f 772 103 773
f 773 103 102
f 155 774 101
f 101 774 102
f 773 102 97
f 97 102 774
f 775 773 100
f 100 773 97
f 773 775 772
f 772 775 776
f 772 776 771
f 771 776 777
f 200 606 197
f 197 606 777
f 189 71 778
f 778 71 74
f 97 774 98
f 98 774 155
f 183 161 184
f 184 161 291
f 777 276 197
f 197 276 143
f 777 606 771
f 771 606 605
f 613 612 697
f 697 612 202
f 595 697 279
f 279 697 202
f 73 276 776
f 776 276 777
f 776 775 73
f 73 775 74
f 100 778 775
f 775 778 74
f 778 100 189
f 189 100 99
f 245 242 99
f 99 242 189
f 131 33 256
f 28 1 95
f 95 1 62
f 27 2 28
f 28 2 1
f 265 115 266
f 266 115 114
f 95 62 69
f 69 62 64
f 62 61 64
f 64 61 65
f 61 13 65
f 65 13 130
f 13 12 130
f 130 12 14
f 31 11 32
f 32 11 268
f 15 12 31
f 31 12 11
f 31 30 15
f 15 30 231
f 30 106 231
f 231 106 232
f 287 237 106
f 106 237 232
f 254 90 287
f 287 90 237
f 253 44 254
f 254 44 90
f 253 249 44
f 44 249 7
f 267 127 268
f 268 127 126
f 10 3 241
f 241 3 116
f 3 2 116
f 116 2 114
f 2 27 114
f 114 27 266
f 27 26 266
f 266 26 113
f 26 286 113
f 113 286 110
f 286 243 110
f 110 243 255
f 243 242 255
f 255 242 256
f 242 245 256
f 256 245 131
f 245 244 131
f 131 244 132
f 265 37 115
f 115 37 41
f 41 37 42
f 42 37 40
f 92 91 40
f 40 91 42
f 236 233 92
f 92 233 91
f 191 194 236
f 236 194 233
f 258 285 244
f 244 285 132
f 257 55 258
f 258 55 285
f 257 154 201
f 201 154 185
f 56 201 204
f 204 201 180
f 55 257 56
f 56 257 201
f 204 85 56
f 56 85 52
f 86 122 53
f 53 122 79
f 212 215 86
f 86 215 122
f 211 216 212
f 212 216 215
f 192 280 211
f 211 280 216
f 191 240 192
f 192 240 280
f 249 124 7
f 7 124 8
f 124 127 8
f 8 127 241
f 127 267 241
f 241 267 10
f 10 267 9
f 9 267 11
