v -0.028934698551893234 0.00862638745456934 1.4231315851211548
v -0.016933374106884003 0.0033966582268476486 1.4251630306243896
v -0.021863941103219986 8.028559386730194e-05 1.436775803565979
v -0.03370616212487221 0.004487097263336182 1.4324884414672852
v 0.0008982568979263306 0.005309071391820908 1.4442869424819946
v 0.005564600229263306 0.013519231230020523 1.4483041763305664
v -0.008372649550437927 0.013019032776355743 1.4595434665679932
v -0.010152563452720642 0.005075505003333092 1.456750750541687
v -0.03801341354846954 0.004126342013478279 1.441210389137268
v -0.02697249874472618 -0.0005686338990926743 1.4453762769699097
v -0.03927915170788765 0.008314738050103188 1.4459882974624634
v -0.04829006269574165 0.018555933609604836 1.441493034362793
v -0.04724269360303879 0.012546343728899956 1.438654899597168
v -0.05555447190999985 0.02380760759115219 1.439125657081604
v -0.04272397235035896 0.028044134378433228 1.4397063255310059
v -0.053801167756319046 0.03192566707730293 1.4343042373657227
v -0.03413240239024162 0.04444239288568497 1.417041540145874
v -0.030261311680078506 0.045780252665281296 1.404788851737976
v -0.04635424539446831 0.0443526990711689 1.4033921957015991
v -0.048432812094688416 0.042360298335552216 1.4161885976791382
v -0.0352705717086792 0.04019524157047272 1.3866686820983887
v -0.04234442114830017 0.042633913457393646 1.3956515789031982
v -0.02631482481956482 0.045483849942684174 1.396929383277893
v -0.02096904069185257 0.0432656966149807 1.3885729312896729
v -0.020818710327148438 0.01492182444781065 1.4085791110992432
v -0.010058127343654633 0.012200342491269112 1.4077270030975342
v -0.012576371431350708 0.008940553292632103 1.4133394956588745
v -0.022988729178905487 0.012989768758416176 1.4137318134307861
v -0.037515122443437576 0.01653311774134636 1.4520782232284546
v -0.03276076912879944 0.022282812744379044 1.4471536874771118
v -0.03803935647010803 0.016657870262861252 1.4460442066192627
v -0.037925489246845245 0.010993164032697678 1.4533275365829468
v 0.016229309141635895 0.007282240316271782 1.3992935419082642
v 0.028074033558368683 0.013050764799118042 1.4015955924987793
v 0.027349404990673065 0.013509423471987247 1.4074009656906128
v 0.01662420481443405 0.008357084356248379 1.403936743736267
v 0.020929299294948578 0.013899624347686768 1.4304633140563965
v 0.02681497484445572 0.017217930406332016 1.4252628087997437
v 0.031012363731861115 0.026469526812434196 1.434576153755188
v 0.022621557116508484 0.02605249732732773 1.4379496574401855
v 0.01396244764328003 0.013598614372313023 1.4390089511871338
v 0.014936156570911407 0.023472368717193604 1.4429454803466797
v 0.004195891320705414 0.024050652980804443 1.4488780498504639
v -0.009847886860370636 0.02211061865091324 1.4574538469314575
v 0.029576189815998077 0.014932593330740929 1.3890107870101929
v 0.021274708211421967 0.010516331531107426 1.385581612586975
v -0.09967593848705292 0.05022013187408447 1.422502875328064
v -0.09960252046585083 0.04851963743567467 1.4168967008590698
v -0.09723887592554092 0.04292866960167885 1.420089602470398
v -0.097183957695961 0.04569167271256447 1.4249008893966675
v 0.02297862619161606 0.029119741171598434 1.3765419721603394
v 0.021556951105594635 0.039085324853658676 1.3773488998413086
v 0.02870013564825058 0.037953805178403854 1.377112865447998
v 0.03022465854883194 0.028751738369464874 1.3782187700271606
v 0.013324134051799774 0.029375502839684486 1.3745098114013672
v 0.011566221714019775 0.03993707895278931 1.3782260417938232
v -0.09009674936532974 0.05787239968776703 1.424013376235962
v -0.09441496431827545 0.05603010952472687 1.4260170459747314
v -0.09083610773086548 0.05239732936024666 1.4278308153152466
v -0.08640587329864502 0.053792521357536316 1.4249413013458252
v -0.04390539973974228 0.0101095512509346 1.431865930557251
v -0.03901214152574539 0.011007602326571941 1.4230356216430664
v -0.06669563800096512 0.01572529971599579 1.4296241998672485
v -0.053491536527872086 0.013631325215101242 1.4252232313156128
v -0.053988225758075714 0.013985848985612392 1.4330161809921265
v -0.06411484628915787 0.017666975036263466 1.4354133605957031
v -0.04310320317745209 0.016151458024978638 1.4033831357955933
v -0.03137878328561783 0.01646047830581665 1.4046618938446045
v -0.034422680735588074 0.016042659059166908 1.4104949235916138
v -0.0475214459002018 0.015259182080626488 1.4107691049575806
v -0.027134202420711517 0.013576909899711609 1.3915377855300903
v -0.039099179208278656 0.013805589638650417 1.3913300037384033
v -0.03554176539182663 0.011853454634547234 1.383941888809204
v -0.027486953884363174 0.011295642703771591 1.3854115009307861
v -0.06068113446235657 0.017065921798348427 1.3941906690597534
v -0.06724736094474792 0.02165308967232704 1.393435001373291
v -0.06955976039171219 0.02588549815118313 1.3871376514434814
v -0.06078502535820007 0.017764050513505936 1.39005708694458
v 0.03571782261133194 0.03793518245220184 1.3773441314697266
v 0.03694731742143631 0.02879771590232849 1.3807307481765747
v -0.02536224201321602 0.03247679024934769 1.3697952032089233
v -0.019563734531402588 0.024659698829054832 1.364647626876831
v -0.029626749455928802 0.02167603187263012 1.362078070640564
v -0.03292335569858551 0.03023732453584671 1.368212103843689
v 0.01843738555908203 0.04675329476594925 1.3836019039154053
v 0.025906220078468323 0.046672895550727844 1.3812867403030396
v -0.08648988604545593 0.058263033628463745 1.4188947677612305
v -0.08374707400798798 0.05414753407239914 1.4193871021270752
v 0.0007555484771728516 0.031976647675037384 1.444312334060669
v -0.013699904084205627 0.027634527534246445 1.452873945236206
v 0.01296699047088623 0.03390950337052345 1.4394739866256714
v 0.021456755697727203 0.035946160554885864 1.4362640380859375
v 0.029943101108074188 0.037509627640247345 1.436035394668579
v -0.0574832409620285 0.013467377983033657 1.4192649126052856
v -0.032718122005462646 0.013637038879096508 1.4161192178726196
v -0.01905570551753044 0.015161849558353424 1.403883695602417
v -0.014313876628875732 0.00710163451731205 1.3749306201934814
v -0.003726653754711151 0.0069519709795713425 1.3766214847564697
v -0.009448714554309845 0.006916368380188942 1.385408639907837
v -0.017555180937051773 0.0077542755752801895 1.3820182085037231
v -0.019259683787822723 0.015053538605570793 1.3635473251342773
v -0.022608023136854172 0.009349821135401726 1.3676737546920776
v -0.03232038393616676 0.00884127989411354 1.3661330938339233
v -0.029297083616256714 0.013402708806097507 1.361985683441162
v -0.035436052829027176 0.02308952435851097 1.45444655418396
v -0.027309194207191467 0.02683354914188385 1.4487870931625366
v 0.02371358871459961 0.019060863181948662 1.379361867904663
v 0.030326999723911285 0.01993047632277012 1.3831367492675781
v 0.03792012482881546 0.022594278678297997 1.385307788848877
v 0.0033160746097564697 0.008600248955190182 1.4048473834991455
v 0.01699424535036087 0.008860668167471886 1.4073352813720703
v 0.0161806121468544 0.008147699758410454 1.4122871160507202
v 0.00252484530210495 0.007959386333823204 1.407996654510498
v -0.0030608177185058594 0.0007624011486768723 1.4282857179641724
v 0.009327597916126251 0.005399417132139206 1.4294520616531372
v -0.009516783058643341 -0.0010641105473041534 1.4418554306030273
v 0.028200574219226837 0.014564347453415394 1.4154824018478394
v 0.037115469574928284 0.015531432814896107 1.409338355064392
v 0.0367087721824646 0.017319731414318085 1.4180755615234375
v 0.03806528449058533 0.016306042671203613 1.399620771408081
v 0.03839588165283203 0.018495436757802963 1.3909753561019897
v 0.033718571066856384 0.04947655647993088 1.3796775341033936
v 0.035246022045612335 0.020773444324731827 1.4257853031158447
v -0.01923360303044319 0.006156865507364273 1.4628788232803345
v -0.02732386812567711 0.008357271552085876 1.4673511981964111
v -0.03127015382051468 0.004564940929412842 1.4624468088150024
v -0.024211395531892776 0.001978805288672447 1.4579206705093384
v -0.06361123919487 0.02999613620340824 1.4369642734527588
v -0.06488461047410965 0.023092074319720268 1.4383801221847534
v -0.05392467603087425 0.01741873100399971 1.4393558502197266
v 0.006711609661579132 0.006245998665690422 1.3929654359817505
v 0.011470265686511993 0.008664197288453579 1.3816736936569214
v -0.0703001469373703 0.01670937053859234 1.4236677885055542
v -0.08247978240251541 0.05277228727936745 1.4245144128799438
v -0.0859704539179802 0.05043390393257141 1.4285691976547241
v -0.0732765644788742 0.0414610281586647 1.4317113161087036
v -0.07080020010471344 0.0449582077562809 1.426923155784607
v -0.07703151553869247 0.024423738941550255 1.4169734716415405
v -0.0759284719824791 0.022127294912934303 1.422973871231079
v -0.07843548059463501 0.02628691866993904 1.4216214418411255
v -0.07952375710010529 0.029066622257232666 1.41603684425354
v -0.06597509980201721 0.02196732722222805 1.3815299272537231
v -0.05771414935588837 0.01620596833527088 1.3831803798675537
v -0.06352774053812027 0.03705266863107681 1.41448175907135
v -0.05900345370173454 0.0383949801325798 1.4258487224578857
v -0.05028779059648514 0.03893626481294632 1.4259482622146606
v -0.04000092297792435 0.015303842723369598 1.396669626235962
v -0.05073422193527222 0.015026027336716652 1.394733190536499
v -0.04991507530212402 0.014717955142259598 1.3907159566879272
v -0.060904890298843384 0.01441807858645916 1.4157211780548096
v -0.0707813948392868 0.016875749453902245 1.4173543453216553
v -0.06542669236660004 0.01632155478000641 1.4120495319366455
v -0.056985244154930115 0.015444502234458923 1.4105665683746338
v -0.007664702832698822 0.027782201766967773 1.367417573928833
v -0.006871573626995087 0.01641071029007435 1.3658239841461182
v -0.09778080880641937 0.05309600755572319 1.4256824254989624
v -0.09460892528295517 0.04894081503152847 1.4278603792190552
v -0.028567224740982056 0.01566062867641449 1.3980586528778076
v -0.0374804362654686 0.0394543781876564 1.4259355068206787
v -0.017214719206094742 0.014479960314929485 1.3988088369369507
v -0.04914044216275215 0.029445484280586243 1.378270149230957
v -0.05106606334447861 0.024455327540636063 1.3741880655288696
v -0.056667428463697433 0.02399713173508644 1.3751449584960938
v -0.05367085337638855 0.027602192014455795 1.376467227935791
v -0.08915765583515167 0.040214717388153076 1.4112704992294312
v -0.09253895282745361 0.03866512328386307 1.4157874584197998
v -0.09568221867084503 0.04211113601922989 1.4139649868011475
v -0.09192799776792526 0.043475400656461716 1.4100371599197388
v -0.07464274764060974 0.022707132622599602 1.4287347793579102
v -0.07210781425237656 0.024548448622226715 1.4344121217727661
v -0.07793426513671875 0.03037409484386444 1.4316567182540894
v -0.07885020971298218 0.02788037247955799 1.426527738571167
v -0.07090073823928833 0.030936161056160927 1.4358227252960205
v -0.0757070779800415 0.03598897159099579 1.4334518909454346
v -0.08415935188531876 0.044569168239831924 1.4103411436080933
v -0.0796254426240921 0.050105564296245575 1.4135792255401611
v -0.07128883898258209 0.04176840931177139 1.4147454500198364
v -0.07697966694831848 0.03612290322780609 1.4135242700576782
v -0.006905108690261841 0.04658837616443634 1.390950322151184
v -0.0031459778547286987 0.04268651083111763 1.3813719749450684
v -0.016970548778772354 0.03921627998352051 1.378792405128479
v -0.029826711863279343 0.03612897917628288 1.3762239217758179
v -0.04213117063045502 0.03125271201133728 1.3755851984024048
v -0.04664639011025429 0.03802520036697388 1.3847277164459229
v -0.013035420328378677 0.03595251217484474 1.3727142810821533
v -0.07562645524740219 0.026673736050724983 1.4111683368682861
v -0.06829199194908142 0.034635599702596664 1.4173316955566406
v -0.07230720669031143 0.03202590346336365 1.4127042293548584
v -0.015657715499401093 0.011754021979868412 1.3921291828155518
v -0.08915075659751892 0.046922460198402405 1.4294843673706055
v 0.018794909119606018 0.05056877061724663 1.424981713294983
v 0.01908578723669052 0.054358579218387604 1.4131296873092651
v 0.010555252432823181 0.05231394246220589 1.4146010875701904
v 0.009708903729915619 0.047513607889413834 1.426684021949768
v -0.09359122067689896 0.0390503853559494 1.4225742816925049
v -0.09259787201881409 0.04233088716864586 1.4275858402252197
v -0.05636516213417053 0.01579202339053154 1.3768517971038818
v -0.06292370706796646 0.01993664912879467 1.3774585723876953
v -0.0620710551738739 0.020845774561166763 1.374735713005066
v -0.05658190697431564 0.01623411290347576 1.3722021579742432
v 6.669759750366211e-05 0.04011104255914688 1.3772486448287964
v -0.03556625545024872 0.019453546032309532 1.361406922340393
v -0.03728174418210983 0.028293278068304062 1.3664988279342651
v 0.00908777117729187 0.04569334536790848 1.3841103315353394
v 0.0059118494391441345 0.04965648427605629 1.392365574836731
v 0.015353672206401825 0.051665231585502625 1.3928205966949463
v -0.05831483006477356 0.03979472070932388 1.3946250677108765
v -0.011593617498874664 0.048159196972846985 1.3980125188827515
v 0.002463899552822113 0.05060114711523056 1.3990907669067383
v 0.01363334059715271 0.053009286522865295 1.3999578952789307
v 0.02165711671113968 0.05523329973220825 1.3998435735702515
v 0.02277233451604843 0.0532999187707901 1.3920401334762573
v -0.08028615266084671 0.05224280804395676 1.4185376167297363
v -0.08284054696559906 0.05211009085178375 1.4136484861373901
v 0.031068220734596252 0.056638091802597046 1.390581488609314
v 0.029586322605609894 0.058055657893419266 1.399593472480774
v -0.0006927624344825745 0.0508103221654892 1.4077130556106567
v -0.004524335265159607 0.0494360476732254 1.4171618223190308
v -0.01420499011874199 0.0482877716422081 1.406204104423523
v -0.018996551632881165 0.04689888656139374 1.4160044193267822
v -0.058456383645534515 0.043830640614032745 1.4043424129486084
v -0.09252630919218063 0.06347782909870148 1.406529426574707
v -0.08774953335523605 0.05330502614378929 1.4088462591171265
v -0.09258617460727692 0.04982003942131996 1.4079087972640991
v -0.09483769536018372 0.060081370174884796 1.4043954610824585
v -0.08699224889278412 0.047139160335063934 1.4100033044815063
v -0.08497460186481476 0.05642246827483177 1.4129443168640137
v -0.022718898952007294 0.04086391627788544 1.4268633127212524
v -0.07412543147802353 0.01852971874177456 1.4105929136276245
v -0.007064633071422577 0.04182194918394089 1.4287680387496948
v -0.03057907521724701 0.0329427570104599 1.4389030933380127
v -0.018817607313394547 0.0337555818259716 1.4400228261947632
v 0.009320534765720367 0.042641639709472656 1.4336878061294556
v -0.003964141011238098 0.037717048078775406 1.4392573833465576
v 0.027614757418632507 0.046139851212501526 1.432222604751587
v 0.018463172018527985 0.044786714017391205 1.4324203729629517
v -0.015140879899263382 0.03208225220441818 1.445682168006897
v -0.10523251444101334 0.05662669613957405 1.4142907857894897
v -0.10285554826259613 0.05455319955945015 1.4093014001846313
v 0.026979945600032806 0.05292239040136337 1.4245442152023315
v -0.017460457980632782 -0.0001865345984697342 1.4512189626693726
v -0.0054194629192352295 0.009866612032055855 1.3954020738601685
v -0.007101289927959442 0.011810075491666794 1.4001984596252441
v 0.002429455518722534 0.007413141429424286 1.37832510471344
v -0.0022977590560913086 0.006713924929499626 1.3888673782348633
v -0.1046258881688118 0.05999818444252014 1.418434739112854
v -0.06950844824314117 0.02848750725388527 1.3910717964172363
v -0.06926368921995163 0.03262486308813095 1.3868972063064575
v -0.017158541828393936 0.013912957161664963 1.4646354913711548
v -0.02417236566543579 0.014920465648174286 1.4684863090515137
v -0.029240749776363373 0.025233373045921326 1.4632933139801025
v -0.025514021515846252 0.021032635122537613 1.4673705101013184
v -0.018264535814523697 0.022111069411039352 1.4623301029205322
v -0.02189304679632187 0.026729892939329147 1.457788109779358
v 0.003612242639064789 0.008665700443089008 1.402331829071045
v 0.004100777208805084 0.008042214438319206 1.3986083269119263
v 0.003528580069541931 0.028507910668849945 1.3708791732788086
v 0.003717660903930664 0.01710372045636177 1.369674801826477
v -0.06837712228298187 0.035835541784763336 1.4336093664169312
v -0.0612887442111969 0.0357605442404747 1.4319746494293213
v -0.06566672027111053 0.03993324935436249 1.428444504737854
v -0.06867064535617828 0.04444955289363861 1.4207143783569336
v -0.07776069641113281 0.022734375670552254 1.4093029499053955
v -0.07443255931138992 0.02909988909959793 1.4149515628814697
v 0.01250314712524414 0.0060514286160469055 1.4195246696472168
v 0.00017801672220230103 0.004768870770931244 1.4154895544052124
v -0.030208997428417206 0.0018123146146535873 1.4522299766540527
v -0.0353606753051281 0.004851318895816803 1.4566491842269897
v -0.052442461252212524 0.015591575764119625 1.4037455320358276
v -0.06771685928106308 0.03915104642510414 1.3960846662521362
v -0.06940016150474548 0.04029981046915054 1.403387427330017
v -0.062075499445199966 0.016630295664072037 1.4036808013916016
v -0.09917529672384262 0.06633493304252625 1.418399453163147
v -0.10295096039772034 0.06312446296215057 1.4194055795669556
v -0.06472516059875488 0.04005945846438408 1.4229257106781006
v -0.047285959124565125 0.01231368351727724 1.3832489252090454
v -0.060054514557123184 0.03746473789215088 1.3904626369476318
v -0.06803224980831146 0.03535187989473343 1.3924018144607544
v -0.03559298440814018 0.01287977583706379 1.3611087799072266
v 0.02775968611240387 0.056393079459667206 1.412745714187622
v -0.09728150814771652 0.048318326473236084 1.4106374979019165
v -0.09932099282741547 0.054944958537817 1.4054147005081177
v -0.09133382141590118 0.06590237468481064 1.4098020792007446
v -0.09316971153020859 0.06729108840227127 1.4151101112365723
v 0.013008631765842438 0.01732683926820755 1.3748621940612793
v -0.008617483079433441 0.012638408690690994 1.4033335447311401
v -0.024008624255657196 0.028475940227508545 1.4507592916488647
v -0.03257289528846741 0.02601543441414833 1.4578033685684204
v -0.06839638203382492 0.018369589000940323 1.4028233289718628
v -0.04376116767525673 0.027478277683258057 1.372578740119934
v -0.052271194756031036 0.03593284636735916 1.3833955526351929
v -0.05275794118642807 0.034722864627838135 1.3797931671142578
v -0.05679018795490265 0.03877979516983032 1.3813982009887695
v -0.06419593095779419 0.03955386206507683 1.3815499544143677
v -0.0948050245642662 0.06921440362930298 1.4070383310317993
v -0.09771566838026047 0.07089032232761383 1.4112839698791504
v -0.10312746465206146 0.06984523683786392 1.412681221961975
v -0.10645599663257599 0.06635434925556183 1.4137555360794067
v -0.10728862881660461 0.061821989715099335 1.4136041402816772
v -0.09523192793130875 0.06695038080215454 1.4038139581680298
v -0.09641151130199432 0.06396578997373581 1.4022701978683472
v -0.09983186423778534 0.0581146739423275 1.4038745164871216
v -0.09548057615756989 0.06870684027671814 1.400193452835083
v -0.096952885389328 0.07298790663480759 1.401407241821289
v -0.10895785689353943 0.07591463625431061 1.4015482664108276
v -0.10548767447471619 0.0746985673904419 1.4055585861206055
v -0.10499164462089539 0.0759243443608284 1.4037671089172363
v -0.10711103677749634 0.0777837336063385 1.4000493288040161
v -0.1079593300819397 0.08033563941717148 1.3960225582122803
v -0.11057452857494354 0.07841132581233978 1.3972079753875732
v -0.10077942907810211 0.07466758787631989 1.4040782451629639
v -0.10296758264303207 0.07741786539554596 1.3989832401275635
v -0.09971578419208527 0.07619428634643555 1.396759033203125
v -0.10118818283081055 0.07935449481010437 1.392960548400879
v -0.10421283543109894 0.08078892529010773 1.3948580026626587
v -0.09852688014507294 0.07452322542667389 1.4005317687988281
v -0.10008677840232849 0.07416994869709015 1.4052162170410156
v -0.10974149405956268 0.08004042506217957 1.39336359500885
v -0.10791981220245361 0.0816304087638855 1.3936676979064941
v -0.10502501577138901 0.08158043026924133 1.3923499584197998
v -0.10645590722560883 0.0807829201221466 1.3899706602096558
v -0.10796348750591278 0.06954654306173325 1.408219337463379
v -0.11038011312484741 0.07393578439950943 1.4013224840164185
v -0.11098907887935638 0.07569701969623566 1.3959660530090332
v -0.11011642217636108 0.07759982347488403 1.3922302722930908
v -0.11044719815254211 0.07092101126909256 1.3988595008850098
v -0.11026448011398315 0.07325627654790878 1.3947196006774902
v -0.10929708927869797 0.0746108889579773 1.3912317752838135
v -0.1088695079088211 0.0683760792016983 1.3961173295974731
v -0.10874035954475403 0.07124921679496765 1.3929452896118164
v -0.10681095719337463 0.061184316873550415 1.406928539276123
v -0.10794545710086823 0.06422081589698792 1.4090421199798584
v -0.10877712070941925 0.07258589565753937 1.390739917755127
v -0.10653127729892731 0.07888375222682953 1.389051079750061
v -0.09763582050800323 0.07334595173597336 1.3959969282150269
v -0.10037434101104736 0.07669666409492493 1.3911330699920654
v -0.09741425514221191 0.07148411870002747 1.3949130773544312
v -0.09981085360050201 0.07468673586845398 1.389862298965454
v -0.10208710283041 0.07941852509975433 1.388742208480835
v -0.10263562202453613 0.08046799898147583 1.3910276889801025
v -0.10594116151332855 0.057805489748716354 1.4111719131469727
v -0.10265965759754181 0.05648867040872574 1.406732201576233
v -0.10261254757642746 0.05954311415553093 1.4033311605453491
v -0.10542052984237671 0.06662337481975555 1.3936035633087158
v -0.09932363033294678 0.06081203743815422 1.40054452419281
v -0.09626774489879608 0.06602588295936584 1.3983618021011353
v -0.09841970354318619 0.06971469521522522 1.3931972980499268
v -0.10079692304134369 0.06764465570449829 1.3924909830093384
v -0.10067729651927948 0.07234511524438858 1.3896987438201904
v -0.10266704857349396 0.07076513767242432 1.3900645971298218
v -0.10607361793518066 0.06999383866786957 1.3909634351730347
v -0.10337086021900177 0.07445655763149261 1.3879704475402832
v -0.10239815711975098 0.0772787407040596 1.3880250453948975
v -0.10669927299022675 0.07555092871189117 1.3887008428573608
v -0.10388514399528503 0.07261841744184494 1.3886244297027588
v -0.10654030740261078 0.073074109852314 1.389636754989624
v -0.09424383193254471 0.022174082696437836 1.3732255697250366
v -0.09023132920265198 0.026119055226445198 1.3711978197097778
v -0.0887628123164177 0.02375059574842453 1.3772701025009155
v -0.09252716600894928 0.021395733579993248 1.3795254230499268
v -0.102690689265728 0.03011815994977951 1.3810206651687622
v -0.1012825146317482 0.024629034101963043 1.3784230947494507
v -0.09981869161128998 0.0259377621114254 1.3852856159210205
v -0.09949342906475067 0.03264317288994789 1.3866912126541138
v -0.0996616929769516 0.03603602200746536 1.3808634281158447
v -0.0951293483376503 0.03730752691626549 1.3855578899383545
v -0.09773612022399902 0.03525276482105255 1.3902404308319092
v -0.09774965792894363 0.028047723695635796 1.3902963399887085
v -0.08254973590373993 0.0280497707426548 1.4045989513397217
v -0.08282775431871414 0.03513205051422119 1.4038904905319214
v -0.07147921621799469 0.023082980886101723 1.3931459188461304
v -0.07156543433666229 0.027485370635986328 1.3911986351013184
v -0.09775811433792114 0.02223213203251362 1.3753505945205688
v -0.09666551649570465 0.022442743182182312 1.3824164867401123
v -0.08279626816511154 0.02928515523672104 1.3769711256027222
v -0.08468034118413925 0.024392900988459587 1.378428339958191
v -0.08570371568202972 0.02688605897128582 1.3749462366104126
v -0.08488104492425919 0.031910791993141174 1.374825119972229
v -0.07819735258817673 0.02094011940062046 1.4023069143295288
v -0.0738268792629242 0.0211496502161026 1.3984384536743164
v -0.08095666021108627 0.023600848391652107 1.403417706489563
v -0.08390441536903381 0.035655755549669266 1.3782765865325928
v -0.08741544187068939 0.04055370017886162 1.381499171257019
v -0.07532582432031631 0.0408523790538311 1.3934401273727417
v -0.07272070646286011 0.03601859509944916 1.3904415369033813
v -0.09579169750213623 0.023346228525042534 1.3881464004516602
v -0.08849076926708221 0.021433362737298012 1.381434679031372
v -0.09212940186262131 0.02057565189898014 1.3847198486328125
v -0.09305177628993988 0.03985823690891266 1.3869447708129883
v -0.09073834121227264 0.03963594511151314 1.3800485134124756
v -0.09713948518037796 0.041243765503168106 1.363608479499817
v -0.09093957394361496 0.038993239402770996 1.3734114170074463
v -0.08831994235515594 0.03538345545530319 1.3708572387695312
v -0.09416064620018005 0.03914979100227356 1.360377550125122
v -0.08702975511550903 0.036741554737091064 1.3768714666366577
v -0.0951458215713501 0.039416976273059845 1.3767704963684082
v -0.09860757738351822 0.02663550153374672 1.3581959009170532
v -0.09423381090164185 0.030850939452648163 1.3566938638687134
v -0.10247860103845596 0.025651216506958008 1.360209584236145
v -0.07958295941352844 0.04059777408838272 1.3991901874542236
v -0.10742989182472229 0.030953126028180122 1.3674955368041992
v -0.10531571507453918 0.026440853253006935 1.3633122444152832
v -0.08757494390010834 0.030726958066225052 1.3700565099716187
v -0.0930512547492981 0.03571557253599167 1.3574074506759644
v -0.10066650807857513 0.04086928814649582 1.3661785125732422
v -0.10534300655126572 0.03686093911528587 1.3693320751190186
v -0.10391036421060562 0.04065103828907013 1.3621476888656616
v -0.10744792222976685 0.03680729866027832 1.364759922027588
v -0.10887643694877625 0.030940789729356766 1.3635121583938599
v -0.10647010803222656 0.027205102145671844 1.3601933717727661
v -0.10342609137296677 0.026563208550214767 1.3575704097747803
v -0.1013287603855133 0.04153740778565407 1.3592522144317627
v -0.09819544106721878 0.040404923260211945 1.3559420108795166
v -0.0955747440457344 0.03636930137872696 1.354567050933838
v -0.10391227900981903 0.04076564684510231 1.3516597747802734
v -0.10810261964797974 0.039718080312013626 1.3535096645355225
v -0.11550836265087128 0.025513673201203346 1.3449628353118896
v -0.1134013831615448 0.02663746476173401 1.3505600690841675
v -0.114589624106884 0.02897777408361435 1.3502494096755981
v -0.11651840806007385 0.0281548872590065 1.3450086116790771
v -0.11264196038246155 0.02944726124405861 1.3561608791351318
v -0.11339472234249115 0.030801987275481224 1.3542686700820923
v -0.11194416880607605 0.035207174718379974 1.3543752431869507
v -0.11334115266799927 0.03337106481194496 1.3486313819885254
v -0.11072003841400146 0.037186652421951294 1.347330927848816
v -0.11346971988677979 0.03654590621590614 1.3420833349227905
v -0.11640721559524536 0.032921649515628815 1.343348741531372
v -0.11052627861499786 0.037705011665821075 1.351865530014038
v -0.11753442883491516 0.02850874699652195 1.3414735794067383
v -0.1168089210987091 0.026947999373078346 1.3395754098892212
v -0.11137308925390244 0.03602108359336853 1.3571596145629883
v -0.1081426590681076 0.026434194296598434 1.3579474687576294
v -0.11116817593574524 0.02461773343384266 1.3496432304382324
v -0.11309543251991272 0.024146204814314842 1.3431416749954224
v -0.11450089514255524 0.02673737332224846 1.3375673294067383
v -0.1078483909368515 0.024228908121585846 1.3471176624298096
v -0.110470712184906 0.024402940645813942 1.3412749767303467
v -0.11182771623134613 0.027066310867667198 1.337065577507019
v -0.10432438552379608 0.0257806945592165 1.3444527387619019
v -0.10743387043476105 0.026289472356438637 1.3390891551971436
v -0.09973713755607605 0.02736358717083931 1.3544793128967285
v -0.10376107692718506 0.025364795699715614 1.3563528060913086
v -0.10941360890865326 0.027260150760412216 1.3373061418533325
v -0.11727311462163925 0.03124260902404785 1.3374708890914917
v -0.11469324678182602 0.030292943120002747 1.3354549407958984
v -0.11744983494281769 0.031754761934280396 1.3392279148101807
v -0.10910116881132126 0.03827589005231857 1.346441388130188
v -0.11174818873405457 0.03679753467440605 1.3405694961547852
v -0.1067110225558281 0.0387030690908432 1.344913363456726
v -0.11011694371700287 0.036542247980833054 1.338740348815918
v -0.11452200263738632 0.03504175692796707 1.3370386362075806
v -0.1156623438000679 0.0347309485077858 1.3383291959762573
v -0.09965728968381882 0.02836517244577408 1.3561688661575317
v -0.09613112360239029 0.03230242431163788 1.354659080505371
v -0.09670340269804001 0.03168436512351036 1.3528450727462769
v -0.10198105871677399 0.030136797577142715 1.3427999019622803
v -0.0967475026845932 0.03631094470620155 1.3520015478134155
v -0.10041636228561401 0.03963348641991615 1.3507341146469116
v -0.10416410863399506 0.03794526308774948 1.3438102006912231
v -0.1021944060921669 0.03475334122776985 1.342437982559204
v -0.108147993683815 0.03651129826903343 1.3377101421356201
v -0.1056966781616211 0.03440523147583008 1.3382514715194702
v -0.10542348027229309 0.029638342559337616 1.3380578756332397
v -0.11118946969509125 0.03417472168803215 1.3347426652908325
v -0.11331392824649811 0.034742917865514755 1.335740327835083
v -0.1124429851770401 0.029971430078148842 1.3352408409118652
v -0.10842981934547424 0.03310175612568855 1.335556149482727
v -0.10923954844474792 0.02957935445010662 1.3358811140060425
v -0.06968437135219574 0.04513592645525932 1.3491921424865723
v -0.06775850057601929 0.040383800864219666 1.3489652872085571
v -0.07269172370433807 0.03609640896320343 1.3543118238449097
v -0.07352900505065918 0.0419701412320137 1.3550246953964233
v -0.06429603695869446 0.050809890031814575 1.359418272972107
v -0.06753800809383392 0.051112107932567596 1.3555978536605835
v -0.06986109167337418 0.0488167442381382 1.3592950105667114
v -0.06617632508277893 0.04800771176815033 1.363409161567688
v -0.05939880758523941 0.04848325997591019 1.360542893409729
v -0.06136903166770935 0.044728152453899384 1.3640061616897583
v -0.062330786138772964 0.04781627655029297 1.3665050268173218
v -0.06844428181648254 0.04791339114308357 1.36416757106781
v -0.06423699855804443 0.04212501645088196 1.3765437602996826
v -0.05711991712450981 0.04227094352245331 1.3761467933654785
v -0.06919344514608383 0.04871795326471329 1.3516846895217896
v -0.072167307138443 0.04655524343252182 1.356524109840393
v -0.0665116161108017 0.029857506975531578 1.358931541442871
v -0.07042092829942703 0.031825363636016846 1.3598692417144775
v -0.06859234720468521 0.03290758654475212 1.3542439937591553
v -0.06433244049549103 0.03275436908006668 1.3552674055099487
v -0.0711837112903595 0.03327271714806557 1.3788654804229736
v -0.06885790824890137 0.02801499515771866 1.3771580457687378
v -0.06943292170763016 0.03865419700741768 1.3771947622299194
v -0.06129483878612518 0.03191240131855011 1.360424518585205
v -0.05652176961302757 0.037153955549001694 1.3629097938537598
v -0.05351763963699341 0.030880946666002274 1.3705312013626099
v -0.05829416215419769 0.026961609721183777 1.3705140352249146
v -0.07194054126739502 0.045522283762693405 1.3633136749267578
v -0.07357363402843475 0.03521030768752098 1.361209511756897
v -0.0745609775185585 0.04091842100024223 1.3621530532836914
v -0.057471275329589844 0.043683912605047226 1.3652675151824951
v -0.05994816869497299 0.03950320929288864 1.361919641494751
v -0.04617173224687576 0.04780271649360657 1.3494093418121338
v -0.057431913912296295 0.037654414772987366 1.3568724393844604
v -0.05977640300989151 0.03621227666735649 1.352388620376587
v -0.04681681841611862 0.045611973851919174 1.3459583520889282
v -0.060839202255010605 0.03476239740848541 1.3581324815750122
v -0.05680807679891586 0.042680490761995316 1.3601819276809692
v -0.055586546659469604 0.052431922405958176 1.338752269744873
v -0.05345192924141884 0.047723107039928436 1.3394643068313599
v -0.056847795844078064 0.05512383207678795 1.3414956331253052
v -0.05216546356678009 0.037880849093198776 1.3737112283706665
v -0.06406735628843307 0.024908792227506638 1.3731560707092285
v -0.05425434932112694 0.05818033218383789 1.3469831943511963
v -0.0562136285007 0.05711514130234718 1.343766689300537
v -0.0636914074420929 0.03711380809545517 1.3504259586334229
v -0.049434844404459 0.0451936274766922 1.3420698642730713
v -0.047547973692417145 0.05147364363074303 1.3517518043518066
v -0.05093300715088844 0.05614504963159561 1.351489543914795
v -0.04535052180290222 0.052585311233997345 1.3501241207122803
v -0.048138830810785294 0.057209745049476624 1.3490028381347656
v -0.05019336938858032 0.05953005328774452 1.3444913625717163
v -0.05105286464095116 0.05832158774137497 1.3409719467163086
v -0.05131547525525093 0.056223064661026 1.3385261297225952
v -0.04331660270690918 0.04946774244308472 1.3485418558120728
v -0.04332251101732254 0.0476895272731781 1.3454445600509644
v -0.04683928191661835 0.0460132472217083 1.3416105508804321
v -0.040343739092350006 0.05126270651817322 1.3482732772827148
v -0.04082366079092026 0.05609133094549179 1.3497120141983032
v -0.03247932717204094 0.06663131713867188 1.3398208618164062
v -0.03790389746427536 0.06444055587053299 1.3404853343963623
v -0.037305112928152084 0.06423936784267426 1.3415822982788086
v -0.03210323676466942 0.06671111285686493 1.3415662050247192
v -0.044321298599243164 0.06236131116747856 1.3435977697372437
v -0.04157955199480057 0.0625687837600708 1.3438632488250732
v -0.041636839509010315 0.060634322464466095 1.3471366167068481
v -0.035287681967020035 0.0630551129579544 1.3464959859848022
v -0.0336119718849659 0.057494014501571655 1.3481383323669434
v -0.02941671386361122 0.059932976961135864 1.3475621938705444
v -0.030528243631124496 0.06534922868013382 1.3460499048233032
v -0.03917991369962692 0.05755062401294708 1.3491063117980957
v -0.02899223193526268 0.06719999015331268 1.3421393632888794
v -0.028700370341539383 0.06806644052267075 1.3406471014022827
v -0.044168755412101746 0.05982154607772827 1.3478286266326904
v -0.04617912694811821 0.06073442101478577 1.3396879434585571
v -0.03834915906190872 0.06338652968406677 1.337800145149231
v -0.032681819051504135 0.06559254229068756 1.336860179901123
v -0.02845831587910652 0.06570711731910706 1.3378150463104248
v -0.0377533882856369 0.0601339116692543 1.335801601409912
v -0.032424669712781906 0.06263580918312073 1.335585117340088
v -0.028655555099248886 0.06287159025669098 1.3363990783691406
v -0.03723006695508957 0.05717431753873825 1.3354047536849976
v -0.03202354535460472 0.059410907328128815 1.3353021144866943
v -0.04780713468790054 0.05346664786338806 1.3367241621017456
v -0.04724806174635887 0.05747465789318085 1.337500810623169
v -0.02904350683093071 0.0606328584253788 1.3361833095550537
v -0.02595413848757744 0.06575772911310196 1.3437373638153076
v -0.02494792267680168 0.0628432035446167 1.3408766984939575
v -0.027409855276346207 0.06575490534305573 1.3444995880126953
v -0.03388674557209015 0.05573897063732147 1.3485586643218994
v -0.02794281765818596 0.05805344507098198 1.3472715616226196
v -0.03382293879985809 0.053409263491630554 1.3473063707351685
v -0.027608010917901993 0.055756255984306335 1.3457798957824707
v -0.025671016424894333 0.061163149774074554 1.3461989164352417
v -0.026543397456407547 0.062007203698158264 1.346451759338379
v -0.051640838384628296 0.05242377892136574 1.3374254703521729
v -0.04968252778053284 0.048161108046770096 1.3385916948318481
v -0.04606160894036293 0.04935409873723984 1.3380509614944458
v -0.03515053540468216 0.053800467401742935 1.3370264768600464
v -0.044006623327732086 0.04748969525098801 1.3414621353149414
v -0.039671365171670914 0.04955347999930382 1.3457047939300537
v -0.0336955189704895 0.05217432603240013 1.344485878944397
v -0.03389851748943329 0.052177540957927704 1.3408643007278442
v -0.028079133480787277 0.054641999304294586 1.343362808227539
v -0.029522638767957687 0.05431629717350006 1.3409497737884521
v -0.03033512458205223 0.05616096779704094 1.3366749286651611
v -0.025874856859445572 0.057504065334796906 1.3420203924179077
v -0.025103654712438583 0.059026069939136505 1.3444522619247437
v -0.025806326419115067 0.06057361513376236 1.3387919664382935
v -0.02714688703417778 0.05651186406612396 1.3400285243988037
v -0.02729903534054756 0.05880561098456383 1.3376027345657349
v -0.06666619330644608 0.0249109398573637 1.3753091096878052
v -0.06164507567882538 0.03574120253324509 1.3444023132324219
v -0.06116197258234024 0.034288521856069565 1.3409478664398193
v -0.06212303042411804 0.027844512835144997 1.3430941104888916
v -0.0632912814617157 0.029358554631471634 1.3466579914093018
v -0.052514538168907166 0.035936854779720306 1.349879264831543
v -0.0568341501057148 0.03683299571275711 1.3491790294647217
v -0.05787886306643486 0.033108942210674286 1.3512970209121704
v -0.05340977758169174 0.03253141790628433 1.3518985509872437
v -0.04881295561790466 0.03469214215874672 1.347447156906128
v -0.04959612339735031 0.031211860477924347 1.348892331123352
v -0.05253254622220993 0.0335172563791275 1.3525972366333008
v -0.05721878260374069 0.03232488036155701 1.3533393144607544
v -0.05128340423107147 0.026942644268274307 1.3654738664627075
v -0.04645508527755737 0.028624624013900757 1.3649020195007324
v -0.04140845313668251 0.0131932832300663 1.3586184978485107
v -0.044185806065797806 0.011205637827515602 1.362760066986084
v -0.049550026655197144 0.015232277102768421 1.3562313318252563
v -0.0452846884727478 0.016301408410072327 1.3548427820205688
v -0.060007452964782715 0.036766134202480316 1.3472665548324585
v -0.0619225911796093 0.03241359815001488 1.3490378856658936
v -0.05155497416853905 0.020309483632445335 1.345878005027771
v -0.05639858543872833 0.020692244172096252 1.346382737159729
v -0.059778161346912384 0.024966154247522354 1.3408422470092773
v -0.055137522518634796 0.023527856916189194 1.3398849964141846
v -0.04854412376880646 0.012699859216809273 1.3657029867172241
v -0.05102487653493881 0.014338895678520203 1.3697866201400757
v -0.05466797575354576 0.016259189695119858 1.3651626110076904
v -0.05331147089600563 0.01608956605195999 1.3588941097259521
v -0.05653519183397293 0.02104678377509117 1.3666268587112427
v -0.04795705899596214 0.022842567414045334 1.3459718227386475
v -0.0463586151599884 0.02688826248049736 1.3470752239227295
v -0.0386565737426281 0.02254870906472206 1.3567397594451904
v -0.040950287133455276 0.018736395984888077 1.3560404777526855
v -0.060989148914813995 0.029609519988298416 1.3531476259231567
v -0.06021519750356674 0.023281244561076164 1.3474048376083374
v -0.061418432742357254 0.025469280779361725 1.3513497114181519
v -0.048036012798547745 0.03187831491231918 1.349379301071167
v -0.04827161878347397 0.02776153013110161 1.3441150188446045
v -0.04894453287124634 0.040175922214984894 1.3350749015808105
v -0.05068953335285187 0.029709219932556152 1.3383632898330688
v -0.05496937036514282 0.030707087367773056 1.336796522140503
v -0.05131654068827629 0.041314586997032166 1.3340365886688232
v -0.05053006857633591 0.023723866790533066 1.3418744802474976
v -0.047774456441402435 0.03157564252614975 1.3425859212875366
v -0.05871529504656792 0.045751020312309265 1.3410710096359253
v -0.057655107229948044 0.04380595311522484 1.336769700050354
v -0.057535767555236816 0.045867305248975754 1.3439640998840332
v -0.04116006940603256 0.028511779382824898 1.360434651374817
v -0.05105767771601677 0.04422290623188019 1.3463481664657593
v -0.05495740473270416 0.045925572514534 1.3460173606872559
v -0.05886928737163544 0.032444339245557785 1.3383411169052124
v -0.0545525848865509 0.042238347232341766 1.3345916271209717
v -0.04691045731306076 0.040282681584358215 1.3383839130401611
v -0.04713582247495651 0.04198620468378067 1.343880534172058
v -0.04609118402004242 0.04445020854473114 1.3378621339797974
v -0.04757072031497955 0.04515984654426575 1.3436843156814575
v -0.051715098321437836 0.04780209809541702 1.3464075326919556
v -0.05525458604097366 0.048468343913555145 1.3458682298660278
v -0.0576743446290493 0.048744719475507736 1.3438200950622559
v -0.04774712398648262 0.04481524974107742 1.3346232175827026
v -0.05039103329181671 0.04560636729001999 1.3336197137832642
v -0.05408431589603424 0.04567064344882965 1.3340193033218384
v -0.0469304583966732 0.049595266580581665 1.3346257209777832
v -0.044557616114616394 0.05063989758491516 1.338661789894104
v -0.04943596571683884 0.06183772161602974 1.3451719284057617
v -0.05053769052028656 0.05802572891116142 1.3454499244689941
v -0.04936422407627106 0.057621926069259644 1.3453541994094849
v -0.048410288989543915 0.06168089434504509 1.3456841707229614
v -0.05030246078968048 0.05279542878270149 1.3459051847457886
v -0.04888845980167389 0.053466930985450745 1.3453813791275024
v -0.046737685799598694 0.051574017852544785 1.3434057235717773
v -0.04550541192293167 0.056539732962846756 1.343648910522461
v -0.0435822531580925 0.05665011331439018 1.3387558460235596
v -0.04274804890155792 0.06073765829205513 1.3395469188690186
v -0.04427795112133026 0.060194384306669235 1.3439587354660034
v -0.04431668668985367 0.05233602225780487 1.3402612209320068
v -0.046743907034397125 0.06379708647727966 1.3456411361694336
v -0.04738452285528183 0.06499989330768585 1.3455795049667358
v -0.0470089390873909 0.0499461330473423 1.3434942960739136
v -0.054589059203863144 0.05236967280507088 1.3456553220748901
v -0.052636608481407166 0.05907749384641647 1.3450849056243896
v -0.05066218227148056 0.06362004578113556 1.344774842262268
v -0.048183560371398926 0.06610676646232605 1.3438689708709717
v -0.05460859090089798 0.058425769209861755 1.3433624505996704
v -0.0522579699754715 0.06405742466449738 1.3430790901184082
v -0.049769386649131775 0.06637142598628998 1.3419994115829468
v -0.0559391975402832 0.05783650651574135 1.3403316736221313
v -0.05298346281051636 0.06315577030181885 1.3405849933624268
v -0.05834160000085831 0.050718046724796295 1.3401057720184326
v -0.057035915553569794 0.0517730638384819 1.3434100151062012
v -0.0505097433924675 0.06526164710521698 1.3406819105148315
v -0.04411933571100235 0.06508994102478027 1.3435354232788086
v -0.04587836563587189 0.06645779311656952 1.3415786027908325
v -0.043530069291591644 0.06375636160373688 1.3438819646835327
v -0.0437982976436615 0.056350454688072205 1.3372564315795898
v -0.04289642721414566 0.061413828283548355 1.338029384613037
v -0.04534941166639328 0.05633431300520897 1.3350111246109009
v -0.04439415782690048 0.062113646417856216 1.3365083932876587
v -0.0428951159119606 0.06437133252620697 1.340132236480713
v -0.042720817029476166 0.06297401338815689 1.3413125276565552
v -0.0586930513381958 0.04843658208847046 1.3402762413024902
v -0.05718164145946503 0.04661031812429428 1.3365281820297241
v -0.05684041231870651 0.04941484332084656 1.33627450466156
v -0.055024005472660065 0.05700356513261795 1.3366868495941162
v -0.053578931838274 0.04892731457948685 1.333718180656433
v -0.04976215958595276 0.049106501042842865 1.3334957361221313
v -0.04807724058628082 0.0563989132642746 1.3341692686080933
v -0.05148286372423172 0.05673230439424515 1.3344228267669678
v -0.04655492305755615 0.06263338029384613 1.335923671722412
v -0.049648530781269073 0.06250885128974915 1.3360295295715332
v -0.05227098613977432 0.06265763938426971 1.3376450538635254
v -0.046499885618686676 0.06551261246204376 1.3385210037231445
v -0.04463201016187668 0.06548887491226196 1.3390676975250244
v -0.04759559780359268 0.06629997491836548 1.3402727842330933
v -0.04845330864191055 0.0651049092411995 1.3380545377731323
v -0.04955232888460159 0.06527596712112427 1.3391221761703491
v -0.040368638932704926 0.016662074252963066 1.3574179410934448
v -0.04661143943667412 0.021383211016654968 1.4632132053375244
v -0.048264697194099426 0.01605038344860077 1.461012363433838
v -0.04282800853252411 0.0065515413880348206 1.4717415571212769
v -0.046609967947006226 0.006806671619415283 1.4661078453063965
v -0.040139928460121155 0.010034941136837006 1.4764671325683594
v -0.03804920241236687 0.019997119903564453 1.4756609201431274
v -0.037661127746105194 0.01497705653309822 1.4768571853637695
v -0.04857578128576279 0.010026432573795319 1.4621787071228027
v -0.043715834617614746 0.025120429694652557 1.4663376808166504
v -0.03992367535829544 0.024845339357852936 1.471750020980835
v -0.05029924958944321 0.027236156165599823 1.4697015285491943
v -0.04693175479769707 0.026001524180173874 1.4759948253631592
v -0.04590807855129242 0.020753279328346252 1.4802563190460205
v -0.04594801366329193 0.014716818928718567 1.4806267023086548
v -0.04707934707403183 0.010388962924480438 1.4794652462005615
v -0.05254217982292175 0.022814657539129257 1.4650170803070068
v -0.05414748191833496 0.017392493784427643 1.4627381563186646
v -0.05339100956916809 0.010883904993534088 1.4642084836959839
v -0.059019025415182114 0.02385557070374489 1.466117262840271
v -0.06452494114637375 0.026051241904497147 1.4739208221435547
v -0.0702415406703949 0.01854991354048252 1.4896358251571655
v -0.06421614438295364 0.017349643632769585 1.4878226518630981
v -0.06502672284841537 0.020163964480161667 1.4869604110717773
v -0.07007366418838501 0.021363429725170135 1.48915696144104
v -0.06003805249929428 0.019450224936008453 1.4856206178665161
v -0.062011778354644775 0.020871788263320923 1.4848928451538086
v -0.06239797919988632 0.024149779230356216 1.4803653955459595
v -0.0666230171918869 0.025249812752008438 1.4827276468276978
v -0.06521471589803696 0.025603942573070526 1.4763333797454834
v -0.06859499216079712 0.025756139308214188 1.4766181707382202
v -0.07112135738134384 0.025970298796892166 1.4846000671386719
v -0.07300736010074615 0.023592520505189896 1.4892246723175049
v -0.07501693814992905 0.02608577534556389 1.4860765933990479
v -0.07472772896289825 0.020857419818639755 1.4892216920852661
v -0.061600975692272186 0.025502189993858337 1.4808909893035889
v -0.054340533912181854 0.014948947355151176 1.484438180923462
v -0.06257732212543488 0.013901740312576294 1.4866584539413452
v -0.07024312019348145 0.015155259519815445 1.4879388809204102
v -0.07570410519838333 0.018229857087135315 1.4876573085784912
v -0.0626007542014122 0.010580562055110931 1.483867883682251
v -0.0698460042476654 0.012406352907419205 1.48439621925354
v -0.07485537976026535 0.015473779290914536 1.4835368394851685
v -0.06368441879749298 0.008967949077486992 1.4795461893081665
v -0.07005409896373749 0.011762076988816261 1.4806029796600342
v -0.052036941051483154 0.007755707949399948 1.475240707397461
v -0.05189491808414459 0.010299164801836014 1.481017827987671
v -0.0735996812582016 0.014471625909209251 1.4811302423477173
v -0.07744965702295303 0.025210153311491013 1.4859631061553955
v -0.07868754118680954 0.022240038961172104 1.4840229749679565
v -0.06911633163690567 0.02535010501742363 1.4731740951538086
v -0.07275521755218506 0.027446065098047256 1.4784973859786987
v -0.07395055145025253 0.02591729909181595 1.47586989402771
v -0.0685480386018753 0.023106582462787628 1.4697730541229248
v -0.07452723383903503 0.023719921708106995 1.473702073097229
v -0.07709459960460663 0.026476308703422546 1.4800840616226196
v -0.07494500279426575 0.027477938681840897 1.481757402420044
v -0.04795859009027481 0.007256731390953064 1.4744842052459717
v -0.049992334097623825 0.007470685988664627 1.4684759378433228
v -0.05416639894247055 0.008970193564891815 1.4688763618469238
v -0.06483634561300278 0.010020742192864418 1.4731934070587158
v -0.05768454074859619 0.01274663582444191 1.464432716369629
v -0.059279169887304306 0.01901814341545105 1.4638158082962036
v -0.06845562905073166 0.019424330443143845 1.4680631160736084
v -0.06700960546731949 0.014511143788695335 1.468784213066101
v -0.07411631941795349 0.019960980862379074 1.4730360507965088
v -0.07304306328296661 0.01702479086816311 1.4736660718917847
v -0.0717029869556427 0.013192448765039444 1.4767175912857056
v -0.07693003863096237 0.020334433764219284 1.4771827459335327
v -0.07780114561319351 0.023829147219657898 1.4780569076538086
v -0.07736866176128387 0.018690047785639763 1.4810818433761597
v -0.07509973645210266 0.0178949236869812 1.4765852689743042
v -0.07494158297777176 0.016344783827662468 1.4791074991226196
v -0.037972599267959595 0.009592495858669281 1.3652019500732422
v -0.04189322888851166 0.009493691846728325 1.3702834844589233
v -0.03449080139398575 0.008002876304090023 1.3707406520843506
v -0.024461977183818817 0.007580950856208801 1.372712254524231
v -0.014083601534366608 0.009345706552267075 1.3695611953735352
v -0.026410318911075592 0.008706492371857166 1.3790031671524048
v -0.03650781139731407 0.009223144501447678 1.3764674663543701
v -0.04720542952418327 0.011878624558448792 1.3754688501358032
v -0.019965164363384247 0.010722363367676735 1.3870151042938232
f 2 3 1
f 1 3 4
f 5 6 8
f 8 6 7
f 9 4 10
f 10 4 3
f 12 13 11
f 11 13 9
f 14 12 16
f 16 12 15
f 18 19 17
f 17 19 20
f 22 23 21
f 21 23 24
f 26 27 25
f 25 27 28
f 30 31 29
f 29 31 32
f 33 34 36
f 36 34 35
f 37 38 40
f 40 38 39
f 41 42 6
f 6 42 43
f 6 43 7
f 7 43 44
f 45 34 46
f 46 34 33
f 48 49 47
f 47 49 50
f 52 53 51
f 51 53 54
f 56 52 55
f 55 52 51
f 58 59 57
f 57 59 60
f 61 62 4
f 4 62 1
f 64 65 63
f 63 65 66
f 68 69 67
f 67 69 70
f 72 73 71
f 71 73 74
f 76 77 75
f 75 77 78
f 53 79 54
f 54 79 80
f 82 83 81
f 81 83 84
f 85 86 52
f 52 86 53
f 57 60 87
f 87 60 88
f 89 90 43
f 43 90 44
f 43 42 89
f 89 42 91
f 40 39 92
f 92 39 93
f 94 70 64
f 64 70 69
f 13 61 9
f 9 61 4
f 25 28 69
f 69 28 95
f 96 25 68
f 68 25 69
f 98 99 97
f 97 99 100
f 101 102 104
f 104 102 103
f 106 30 105
f 105 30 29
f 51 54 107
f 107 54 108
f 54 80 108
f 108 80 109
f 111 112 110
f 110 112 113
f 115 5 114
f 114 5 116
f 115 41 5
f 5 41 6
f 36 35 111
f 111 35 117
f 35 118 117
f 117 118 119
f 34 120 35
f 35 120 118
f 34 45 120
f 120 45 121
f 125 126 124
f 124 126 127
f 128 129 14
f 14 129 130
f 33 131 46
f 46 131 132
f 133 94 63
f 63 94 64
f 134 135 137
f 137 135 136
f 139 140 138
f 138 140 141
f 77 142 78
f 78 142 143
f 144 145 20
f 20 145 146
f 148 149 147
f 147 149 72
f 151 152 150
f 150 152 153
f 82 101 83
f 83 101 104
f 101 82 155
f 155 82 154
f 156 157 58
f 58 157 59
f 158 68 147
f 147 68 67
f 159 146 15
f 15 146 16
f 68 158 96
f 96 158 160
f 129 66 130
f 130 66 65
f 162 163 161
f 161 163 164
f 166 167 165
f 165 167 168
f 170 171 169
f 169 171 172
f 174 171 173
f 173 171 170
f 176 177 175
f 175 177 178
f 180 181 179
f 179 181 24
f 182 183 21
f 21 183 184
f 81 185 82
f 82 185 154
f 186 187 188
f 188 187 144
f 158 71 160
f 160 71 189
f 190 135 157
f 157 135 59
f 169 172 139
f 139 172 140
f 147 72 158
f 158 72 71
f 192 193 191
f 191 193 194
f 167 166 49
f 49 166 195
f 196 190 50
f 50 190 157
f 197 198 200
f 200 198 199
f 21 24 182
f 182 24 181
f 146 159 20
f 20 159 17
f 182 181 81
f 81 181 185
f 201 185 180
f 180 185 181
f 202 203 83
f 83 203 84
f 205 206 204
f 204 206 85
f 207 22 184
f 184 22 21
f 179 24 208
f 208 24 23
f 208 209 179
f 179 209 205
f 209 210 205
f 205 210 206
f 212 206 211
f 211 206 210
f 179 205 180
f 180 205 204
f 213 176 88
f 88 176 214
f 86 85 212
f 212 85 206
f 193 217 218
f 217 219 218
f 218 219 220
f 219 18 220
f 220 18 17
f 19 221 20
f 20 221 144
f 222 223 225
f 225 223 224
f 175 226 176
f 176 226 214
f 227 87 214
f 214 87 88
f 220 17 228
f 228 17 159
f 134 213 60
f 60 213 88
f 138 229 151
f 151 229 152
f 193 192 210
f 210 192 211
f 230 194 218
f 218 194 193
f 231 232 228
f 228 232 230
f 233 234 91
f 91 234 89
f 235 236 93
f 93 236 92
f 230 232 234
f 234 232 237
f 47 238 48
f 48 238 239
f 240 191 235
f 235 191 236
f 5 8 116
f 116 8 241
f 242 243 189
f 189 243 160
f 244 245 98
f 98 245 99
f 156 246 47
f 47 246 238
f 76 247 77
f 77 247 248
f 250 125 249
f 249 125 124
f 252 253 251
f 251 253 254
f 111 110 36
f 36 110 255
f 256 33 255
f 255 33 36
f 257 258 154
f 154 258 155
f 63 169 133
f 133 169 139
f 66 170 63
f 63 170 169
f 173 170 129
f 129 170 66
f 129 128 173
f 173 128 259
f 128 260 259
f 259 260 261
f 213 134 262
f 262 134 137
f 263 264 186
f 186 264 187
f 112 265 113
f 113 265 266
f 11 267 268
f 234 233 230
f 230 233 194
f 153 269 70
f 70 269 67
f 175 178 165
f 165 178 141
f 150 153 94
f 94 153 70
f 271 221 270
f 270 221 207
f 269 153 272
f 272 153 152
f 121 45 109
f 109 45 108
f 47 50 156
f 156 50 157
f 57 273 58
f 58 273 274
f 145 275 260
f 260 275 261
f 276 149 143
f 143 149 78
f 148 269 75
f 75 269 272
f 207 277 270
f 270 277 278
f 195 196 49
f 49 196 50
f 59 135 60
f 60 135 134
f 83 104 202
f 202 104 279
f 149 148 78
f 78 148 75
f 247 278 248
f 248 278 277
f 183 182 84
f 84 182 81
f 48 239 281
f 281 239 282
f 227 223 283
f 283 223 222
f 223 226 224
f 224 226 168
f 281 282 224
f 224 282 225
f 165 168 175
f 175 168 226
f 264 263 138
f 138 263 229
f 14 16 128
f 128 16 260
f 220 228 218
f 218 228 230
f 87 227 284
f 284 227 283
f 260 16 145
f 145 16 146
f 244 98 258
f 258 98 155
f 58 274 156
f 156 274 246
f 107 285 51
f 51 285 55
f 243 286 160
f 160 286 96
f 234 237 89
f 89 237 90
f 46 132 107
f 107 132 285
f 253 252 249
f 249 252 250
f 286 26 96
f 96 26 25
f 106 105 287
f 287 105 288
f 272 152 289
f 289 152 229
f 138 151 139
f 139 151 133
f 183 290 161
f 161 290 162
f 291 292 277
f 277 292 293
f 151 150 133
f 133 150 94
f 262 275 177
f 177 275 187
f 144 187 145
f 145 187 275
f 273 57 284
f 284 57 87
f 174 136 190
f 190 136 135
f 111 117 112
f 112 117 38
f 117 119 38
f 38 119 123
f 112 38 265
f 265 38 37
f 287 288 254
f 254 288 251
f 228 159 231
f 231 159 15
f 223 227 226
f 226 227 214
f 147 67 148
f 148 67 269
f 224 168 281
f 281 168 167
f 199 163 200
f 200 163 162
f 45 46 108
f 108 46 107
f 281 167 48
f 48 167 49
f 161 164 291
f 291 164 292
f 38 123 39
f 293 294 277
f 277 294 248
f 284 283 296
f 296 283 295
f 284 296 273
f 273 296 297
f 274 273 298
f 298 273 297
f 246 274 299
f 299 274 298
f 283 222 295
f 295 222 300
f 222 225 300
f 300 225 301
f 301 225 302
f 302 225 282
f 303 304 300
f 300 304 295
f 306 307 305
f 305 307 308
f 309 310 308
f 308 310 305
f 308 307 312
f 312 307 311
f 313 314 312
f 312 314 315
f 311 316 312
f 312 316 313
f 317 304 311
f 311 304 316
f 315 309 312
f 312 309 308
f 318 319 321
f 321 319 320
f 319 318 309
f 309 318 310
f 311 307 317
f 317 307 306
f 306 297 317
f 317 297 296
f 306 322 297
f 297 322 298
f 305 323 306
f 306 323 322
f 323 305 324
f 324 305 310
f 304 317 295
f 295 317 296
f 318 325 310
f 310 325 324
f 323 324 326
f 326 324 327
f 324 325 327
f 327 325 328
f 326 327 329
f 329 327 330
f 329 331 326
f 326 331 332
f 333 330 328
f 328 330 327
f 323 326 322
f 322 326 332
f 322 332 298
f 298 332 299
f 325 318 334
f 334 318 321
f 313 316 335
f 335 316 304
f 335 336 313
f 313 336 314
f 304 303 335
f 335 303 337
f 336 335 338
f 338 335 337
f 336 339 314
f 314 339 340
f 246 299 238
f 238 299 341
f 239 342 282
f 282 342 302
f 342 239 341
f 341 239 238
f 341 331 342
f 342 331 343
f 331 329 343
f 343 329 344
f 342 343 302
f 302 343 345
f 341 299 331
f 331 299 332
f 346 301 345
f 345 301 302
f 346 303 301
f 301 303 300
f 347 337 346
f 346 337 303
f 347 346 348
f 348 346 345
f 349 347 350
f 350 347 348
f 343 344 345
f 345 344 348
f 344 351 348
f 348 351 350
f 337 347 338
f 338 347 349
f 353 338 352
f 352 338 349
f 352 355 354
f 354 355 356
f 352 349 355
f 355 349 350
f 352 354 353
f 353 354 334
f 353 334 339
f 339 334 321
f 339 336 353
f 353 336 338
f 329 330 344
f 344 330 351
f 356 351 333
f 333 351 330
f 356 355 351
f 351 355 350
f 354 356 328
f 328 356 333
f 328 325 354
f 354 325 334
f 309 315 319
f 319 315 320
f 320 340 321
f 321 340 339
f 320 315 340
f 340 315 314
f 137 136 261
f 261 136 259
f 140 166 141
f 141 166 165
f 172 171 195
f 195 171 196
f 171 174 196
f 196 174 190
f 178 177 264
f 264 177 187
f 172 195 140
f 140 195 166
f 137 261 262
f 262 261 275
f 178 264 141
f 141 264 138
f 262 177 213
f 213 177 176
f 136 174 259
f 259 174 173
f 358 359 357
f 357 359 360
f 362 363 361
f 361 363 364
f 361 364 365
f 365 364 366
f 367 368 370
f 370 368 369
f 76 371 247
f 247 371 372
f 373 374 362
f 362 374 363
f 376 377 375
f 375 377 378
f 289 229 380
f 380 229 379
f 381 379 263
f 263 379 229
f 383 384 382
f 382 384 385
f 386 368 374
f 374 368 363
f 76 289 371
f 371 289 380
f 377 376 359
f 359 376 387
f 388 386 360
f 360 386 374
f 389 383 366
f 366 383 390
f 392 393 391
f 391 393 394
f 383 382 390
f 390 382 395
f 396 365 390
f 390 365 366
f 389 366 367
f 367 366 364
f 357 397 358
f 358 397 398
f 373 399 357
f 357 399 397
f 389 367 400
f 400 367 370
f 382 385 375
f 375 385 372
f 357 360 373
f 373 360 374
f 361 401 362
f 362 401 402
f 387 388 359
f 359 388 360
f 363 368 364
f 364 368 367
f 358 398 403
f 403 398 404
f 396 392 405
f 405 392 391
f 392 395 393
f 393 395 378
f 393 403 394
f 394 403 404
f 375 378 382
f 382 378 395
f 365 396 406
f 406 396 405
f 362 402 373
f 373 402 399
f 271 270 400
f 400 270 384
f 401 361 406
f 406 361 365
f 381 369 386
f 386 369 368
f 392 396 395
f 395 396 390
f 393 378 403
f 403 378 377
f 403 377 358
f 358 377 359
f 406 405 408
f 408 405 407
f 406 408 401
f 401 408 409
f 401 409 402
f 402 409 410
f 402 410 399
f 399 410 411
f 405 391 407
f 407 391 412
f 391 394 412
f 412 394 413
f 394 404 413
f 413 404 414
f 415 416 412
f 412 416 407
f 418 419 417
f 417 419 420
f 421 422 418
f 418 422 419
f 419 422 424
f 424 422 423
f 425 426 424
f 424 426 427
f 423 428 424
f 424 428 425
f 427 420 424
f 424 420 419
f 420 429 417
f 417 429 430
f 423 422 431
f 431 422 421
f 421 409 431
f 431 409 408
f 421 432 409
f 409 432 410
f 418 433 421
f 421 433 432
f 434 433 417
f 417 433 418
f 431 416 423
f 423 416 428
f 416 431 407
f 407 431 408
f 435 434 430
f 430 434 417
f 433 434 436
f 436 434 437
f 434 435 437
f 437 435 438
f 436 437 439
f 439 437 440
f 439 441 436
f 436 441 442
f 438 443 437
f 437 443 440
f 436 442 433
f 433 442 432
f 432 442 410
f 410 442 411
f 435 430 445
f 445 430 444
f 430 429 444
f 444 429 446
f 425 428 447
f 447 428 416
f 426 425 448
f 448 425 447
f 416 415 447
f 447 415 449
f 447 449 448
f 448 449 450
f 451 452 448
f 448 452 426
f 446 452 444
f 444 452 451
f 399 411 397
f 397 411 453
f 398 454 404
f 404 454 414
f 454 398 453
f 453 398 397
f 453 441 454
f 454 441 455
f 441 439 455
f 455 439 456
f 454 455 414
f 414 455 457
f 441 453 442
f 442 453 411
f 458 413 457
f 457 413 414
f 458 415 413
f 413 415 412
f 458 459 415
f 415 459 449
f 459 458 460
f 460 458 457
f 461 459 462
f 462 459 460
f 455 456 457
f 457 456 460
f 456 463 460
f 460 463 462
f 459 461 449
f 449 461 450
f 465 450 464
f 464 450 461
f 464 467 466
f 466 467 468
f 464 461 467
f 467 461 462
f 464 466 465
f 465 466 445
f 465 445 451
f 451 445 444
f 451 448 465
f 465 448 450
f 439 440 456
f 456 440 463
f 468 463 443
f 443 463 440
f 468 467 463
f 463 467 462
f 466 468 438
f 438 468 443
f 438 435 466
f 466 435 445
f 420 427 429
f 429 427 446
f 446 427 452
f 452 427 426
f 370 369 188
f 188 369 186
f 371 376 372
f 372 376 375
f 380 379 387
f 387 379 388
f 379 381 388
f 388 381 386
f 385 384 278
f 278 384 270
f 380 387 371
f 371 387 376
f 400 370 271
f 271 370 188
f 385 278 372
f 372 278 247
f 400 384 389
f 389 384 383
f 369 381 186
f 186 381 263
f 221 271 144
f 144 271 188
f 221 19 207
f 207 19 22
f 19 18 22
f 22 18 23
f 18 219 23
f 23 219 208
f 469 470 472
f 472 470 471
f 474 475 473
f 473 475 476
f 473 476 477
f 477 476 478
f 480 481 479
f 479 481 482
f 483 484 474
f 474 484 475
f 486 487 485
f 485 487 488
f 489 490 77
f 77 490 142
f 491 489 248
f 248 489 77
f 493 494 492
f 492 494 495
f 496 480 484
f 484 480 475
f 486 497 487
f 487 497 471
f 498 496 472
f 472 496 484
f 499 493 478
f 478 493 500
f 501 502 504
f 504 502 503
f 493 492 500
f 500 492 505
f 506 477 500
f 500 477 478
f 499 478 479
f 479 478 476
f 469 507 470
f 470 507 508
f 483 509 469
f 469 509 507
f 479 482 499
f 499 482 510
f 492 495 485
f 485 495 511
f 483 469 484
f 484 469 472
f 473 512 474
f 474 512 513
f 497 498 471
f 471 498 472
f 475 480 476
f 476 480 479
f 470 508 514
f 514 508 515
f 506 502 516
f 516 502 501
f 503 502 488
f 488 502 505
f 514 515 503
f 503 515 504
f 485 488 492
f 492 488 505
f 477 506 517
f 517 506 516
f 474 513 483
f 483 513 509
f 510 292 494
f 494 292 164
f 512 473 517
f 517 473 477
f 491 481 496
f 496 481 480
f 502 506 505
f 505 506 500
f 503 488 514
f 514 488 487
f 514 487 470
f 470 487 471
f 517 516 519
f 519 516 518
f 517 519 512
f 512 519 520
f 512 520 513
f 513 520 521
f 513 521 509
f 509 521 522
f 516 501 518
f 518 501 523
f 501 504 523
f 523 504 524
f 524 504 525
f 525 504 515
f 526 527 523
f 523 527 518
f 529 530 528
f 528 530 531
f 532 533 529
f 529 533 530
f 530 533 535
f 535 533 534
f 536 537 535
f 535 537 538
f 534 539 535
f 535 539 536
f 538 531 535
f 535 531 530
f 540 541 531
f 531 541 528
f 533 532 534
f 534 532 542
f 532 520 542
f 542 520 519
f 532 543 520
f 520 543 521
f 529 544 532
f 532 544 543
f 544 529 545
f 545 529 528
f 534 542 539
f 539 542 527
f 527 542 518
f 518 542 519
f 541 546 528
f 528 546 545
f 547 544 548
f 548 544 545
f 546 549 545
f 545 549 548
f 550 547 551
f 551 547 548
f 547 550 553
f 553 550 552
f 549 554 548
f 548 554 551
f 544 547 543
f 543 547 553
f 543 553 521
f 521 553 522
f 546 541 556
f 556 541 555
f 541 540 555
f 555 540 557
f 536 539 558
f 558 539 527
f 537 536 559
f 559 536 558
f 527 526 558
f 558 526 560
f 559 558 561
f 561 558 560
f 559 562 537
f 537 562 563
f 557 563 555
f 555 563 562
f 509 522 507
f 507 522 564
f 508 565 515
f 515 565 525
f 565 508 564
f 564 508 507
f 564 552 565
f 565 552 566
f 552 550 566
f 566 550 567
f 565 566 525
f 525 566 568
f 564 522 552
f 552 522 553
f 569 524 568
f 568 524 525
f 569 526 524
f 524 526 523
f 570 560 569
f 569 560 526
f 570 569 571
f 571 569 568
f 572 570 573
f 573 570 571
f 566 567 568
f 568 567 571
f 567 574 571
f 571 574 573
f 570 572 560
f 560 572 561
f 576 561 575
f 575 561 572
f 575 578 577
f 577 578 579
f 575 572 578
f 578 572 573
f 575 577 576
f 576 577 556
f 576 556 562
f 562 556 555
f 562 559 576
f 576 559 561
f 550 551 567
f 567 551 574
f 579 574 554
f 554 574 551
f 579 578 574
f 574 578 573
f 579 554 577
f 577 554 549
f 549 546 577
f 577 546 556
f 531 538 540
f 540 538 557
f 557 538 563
f 563 538 537
f 481 294 482
f 482 294 293
f 580 486 511
f 511 486 485
f 490 489 497
f 497 489 498
f 489 491 498
f 498 491 496
f 163 495 164
f 164 495 494
f 580 490 486
f 486 490 497
f 482 293 510
f 510 293 292
f 495 163 511
f 511 163 199
f 494 493 510
f 510 493 499
f 481 491 294
f 294 491 248
f 582 583 581
f 581 583 584
f 586 587 585
f 585 587 588
f 585 588 589
f 589 588 590
f 592 593 591
f 591 593 594
f 595 596 598
f 598 596 597
f 599 600 586
f 586 600 587
f 601 602 604
f 604 602 603
f 605 606 608
f 608 606 607
f 609 607 200
f 200 607 606
f 610 611 613
f 613 611 612
f 600 614 587
f 587 614 592
f 596 605 597
f 597 605 608
f 602 615 603
f 603 615 583
f 616 614 584
f 584 614 600
f 611 618 617
f 617 618 590
f 620 621 619
f 619 621 622
f 610 623 611
f 611 623 618
f 624 589 618
f 618 589 590
f 617 590 591
f 591 590 588
f 581 625 582
f 582 625 626
f 599 627 581
f 581 627 625
f 591 594 617
f 617 594 628
f 601 610 598
f 598 610 613
f 581 584 599
f 599 584 600
f 585 629 586
f 586 629 630
f 615 616 583
f 583 616 584
f 587 592 588
f 588 592 591
f 582 626 631
f 631 626 632
f 624 620 633
f 633 620 619
f 621 620 604
f 604 620 623
f 631 632 621
f 621 632 622
f 610 601 623
f 623 601 604
f 589 624 634
f 634 624 633
f 586 630 599
f 599 630 627
f 203 202 628
f 628 202 612
f 629 585 634
f 634 585 589
f 609 593 614
f 614 593 592
f 620 624 623
f 623 624 618
f 631 621 603
f 603 621 604
f 582 631 583
f 583 631 603
f 634 633 636
f 636 633 635
f 634 636 629
f 629 636 637
f 629 637 630
f 630 637 638
f 630 638 627
f 627 638 639
f 633 619 635
f 635 619 640
f 619 622 640
f 640 622 641
f 641 622 642
f 642 622 632
f 644 635 643
f 643 635 640
f 645 646 648
f 648 646 647
f 649 650 646
f 646 650 647
f 647 650 652
f 652 650 651
f 652 653 655
f 655 653 654
f 651 656 652
f 652 656 653
f 655 648 652
f 652 648 647
f 648 657 645
f 645 657 658
f 650 649 651
f 651 649 659
f 649 637 659
f 659 637 636
f 649 660 637
f 637 660 638
f 661 660 646
f 646 660 649
f 662 661 645
f 645 661 646
f 651 659 656
f 656 659 644
f 644 659 635
f 635 659 636
f 663 662 658
f 658 662 645
f 664 661 665
f 665 661 662
f 663 666 662
f 662 666 665
f 667 664 668
f 668 664 665
f 664 667 670
f 670 667 669
f 666 671 665
f 665 671 668
f 661 664 660
f 660 664 670
f 660 670 638
f 638 670 639
f 658 672 663
f 663 672 673
f 658 657 672
f 672 657 674
f 653 656 675
f 675 656 644
f 653 675 654
f 654 675 676
f 675 644 677
f 677 644 643
f 676 675 678
f 678 675 677
f 679 680 676
f 676 680 654
f 674 680 672
f 672 680 679
f 627 639 625
f 625 639 681
f 626 682 632
f 632 682 642
f 681 682 625
f 625 682 626
f 669 683 681
f 681 683 682
f 667 684 669
f 669 684 683
f 682 683 642
f 642 683 685
f 681 639 669
f 669 639 670
f 686 641 685
f 685 641 642
f 641 686 640
f 640 686 643
f 686 687 643
f 643 687 677
f 687 686 688
f 688 686 685
f 689 687 690
f 690 687 688
f 683 684 685
f 685 684 688
f 684 691 688
f 688 691 690
f 687 689 677
f 677 689 678
f 693 678 692
f 692 678 689
f 692 695 694
f 694 695 696
f 692 689 695
f 695 689 690
f 692 694 693
f 693 694 673
f 693 673 679
f 679 673 672
f 679 676 693
f 693 676 678
f 684 667 691
f 691 667 668
f 696 691 671
f 671 691 668
f 696 695 691
f 691 695 690
f 694 696 666
f 666 696 671
f 666 663 694
f 694 663 673
f 648 655 657
f 657 655 674
f 674 655 680
f 680 655 654
f 593 162 594
f 594 162 290
f 598 597 601
f 601 597 602
f 615 608 616
f 616 608 607
f 607 609 616
f 616 609 614
f 697 595 613
f 613 595 598
f 597 608 602
f 602 608 615
f 594 290 628
f 628 290 203
f 628 612 617
f 617 612 611
f 593 609 162
f 162 609 200
f 105 29 698
f 698 29 699
f 268 126 701
f 701 126 700
f 126 125 700
f 700 125 702
f 252 703 250
f 250 703 704
f 32 268 705
f 705 268 701
f 288 105 706
f 706 105 698
f 29 32 699
f 699 32 705
f 707 251 706
f 706 251 288
f 250 704 125
f 125 704 702
f 703 252 707
f 707 252 251
f 706 708 707
f 707 708 709
f 707 709 703
f 703 709 710
f 703 710 704
f 704 710 711
f 704 711 702
f 702 711 712
f 706 698 708
f 708 698 713
f 698 699 713
f 713 699 714
f 699 705 714
f 714 705 715
f 717 708 716
f 716 708 713
f 719 720 718
f 718 720 721
f 722 723 719
f 719 723 720
f 724 725 723
f 723 725 720
f 724 726 725
f 725 726 727
f 728 721 725
f 725 721 720
f 721 728 729
f 729 728 730
f 729 731 721
f 721 731 718
f 724 723 732
f 732 723 722
f 722 710 732
f 732 710 709
f 722 733 710
f 710 733 711
f 719 734 722
f 722 734 733
f 734 719 735
f 735 719 718
f 724 732 726
f 726 732 717
f 717 732 708
f 708 732 709
f 731 736 718
f 718 736 735
f 737 734 738
f 738 734 735
f 736 739 735
f 735 739 738
f 740 737 741
f 741 737 738
f 737 740 743
f 743 740 742
f 739 744 738
f 738 744 741
f 734 737 733
f 733 737 743
f 733 743 711
f 711 743 712
f 736 731 746
f 746 731 745
f 731 729 745
f 745 729 730
f 727 726 747
f 747 726 717
f 748 727 749
f 749 727 747
f 747 717 750
f 750 717 716
f 749 747 751
f 751 747 750
f 749 752 748
f 748 752 753
f 730 753 745
f 745 753 752
f 728 725 748
f 748 725 727
f 730 728 753
f 753 728 748
f 700 702 754
f 754 702 712
f 705 701 715
f 715 701 755
f 754 755 700
f 700 755 701
f 742 756 754
f 754 756 755
f 740 757 742
f 742 757 756
f 755 756 715
f 715 756 758
f 754 712 742
f 742 712 743
f 759 714 758
f 758 714 715
f 714 759 713
f 713 759 716
f 759 760 716
f 716 760 750
f 760 759 761
f 761 759 758
f 762 760 763
f 763 760 761
f 756 757 758
f 758 757 761
f 757 764 761
f 761 764 763
f 760 762 750
f 750 762 751
f 766 751 765
f 765 751 762
f 767 765 769
f 769 765 768
f 765 762 768
f 768 762 763
f 765 767 766
f 766 767 746
f 766 746 752
f 752 746 745
f 752 749 766
f 766 749 751
f 757 740 764
f 764 740 741
f 769 764 744
f 744 764 741
f 769 768 764
f 764 768 763
f 767 769 739
f 739 769 744
f 739 736 767
f 767 736 746
f 219 217 208
f 208 217 209
f 209 217 210
f 210 217 193
f 198 580 199
f 199 580 511
f 76 75 289
f 289 75 272
f 277 207 291
f 291 207 184
f 290 183 203
f 203 183 84
f 490 580 142
f 142 580 198
f 142 198 143
f 143 198 197
f 149 276 72
f 72 276 73
f 104 103 279
f 279 103 770
f 770 596 279
f 279 596 595
f 605 596 771
f 771 596 770
f 771 770 772
f 772 770 103
f 772 103 773
f 773 103 102
f 155 774 101
f 101 774 102
f 773 102 97
f 97 102 774
f 775 773 100
f 100 773 97
f 773 775 772
f 772 775 776
f 772 776 771
f 771 776 777
f 200 606 197
f 197 606 777
f 189 71 778
f 778 71 74
f 97 774 98
f 98 774 155
f 183 161 184
f 184 161 291
f 777 276 197
f 197 276 143
f 777 606 771
f 771 606 605
f 613 612 697
f 697 612 202
f 595 697 279
f 279 697 202
f 73 276 776
f 776 276 777
f 776 775 73
f 73 775 74
f 100 778 775
f 775 778 74
f 778 100 189
f 189 100 99
f 245 242 99
f 99 242 189
f 131 33 256
f 28 1 95
f 95 1 62
f 27 2 28
f 28 2 1
f 265 115 266
f 266 115 114
f 95 62 69
f 69 62 64
f 62 61 64
f 64 61 65
f 61 13 65
f 65 13 130
f 13 12 130
f 130 12 14
f 31 11 32
f 32 11 268
f 15 12 31
f 31 12 11
f 31 30 15
f 15 30 231
f 30 106 231
f 231 106 232
f 287 237 106
f 106 237 232
f 254 90 287
f 287 90 237
f 253 44 254
f 254 44 90
f 253 249 44
f 44 249 7
f 267 127 268
f 268 127 126
f 10 3 241
f 241 3 116
f 3 2 116
f 116 2 114
f 2 27 114
f 114 27 266
f 27 26 266
f 266 26 113
f 26 286 113
f 113 286 110
f 286 243 110
f 110 243 255
f 243 242 255
f 255 242 256
f 242 245 256
f 256 245 131
f 245 244 131
f 131 244 132
f 265 37 115
f 115 37 41
f 41 37 42
f 42 37 40
f 92 91 40
f 40 91 42
f 236 233 92
f 92 233 91
f 191 194 236
f 236 194 233
f 258 285 244
f 244 285 132
f 257 55 258
f 258 55 285
f 257 154 201
f 201 154 185
f 56 201 204
f 204 201 180
f 55 257 56
f 56 257 201
f 204 85 56
f 56 85 52
f 86 122 53
f 53 122 79
f 212 215 86
f 86 215 122
f 211 216 212
f 212 216 215
f 192 280 211
f 211 280 216
f 191 240 192
f 192 240 280
f 249 124 7
f 7 124 8
f 124 127 8
f 8 127 241
f 127 267 241
f 241 267 10
f 10 267 9
f 9 267 11
