v -0.006000462919473648 0.012322590686380863 1.66486394405365
v 0.0057126618921756744 0.00818459689617157 1.6646937131881714
v -0.0011019669473171234 0.003915619105100632 1.6722384691238403
v -0.011426623910665512 0.008415408432483673 1.6718339920043945
v 0.018658261746168137 0.0010093040764331818 1.682830810546875
v 0.02387445792555809 0.0066570378839969635 1.6919686794281006
v 0.0072653330862522125 0.004001447930932045 1.6971122026443481
v 0.006038356572389603 -0.0014007575809955597 1.68862783908844
v -0.016298647969961166 0.00813228078186512 1.6772934198379517
v -0.007302612066268921 0.0020757094025611877 1.677618145942688
v -0.017270032316446304 0.012943397276103497 1.6791517734527588
v -0.025506269186735153 0.02245745062828064 1.6813459396362305
v -0.02468198351562023 0.01584586314857006 1.6790574789047241
v -0.0327148400247097 0.02668139524757862 1.6813106536865234
v -0.019415974617004395 0.032175514847040176 1.6815823316574097
v -0.030582260340452194 0.035062603652477264 1.6773896217346191
v -0.010962814092636108 0.046571653336286545 1.6611286401748657
v -0.007341466844081879 0.04747381806373596 1.6488243341445923
v -0.022887572646141052 0.04535407945513725 1.6475545167922974
v -0.025004282593727112 0.04398675262928009 1.6602654457092285
v -0.012474123388528824 0.04200052097439766 1.6304737329483032
v -0.019237224012613297 0.04398736730217934 1.6396784782409668
v -0.0034917406737804413 0.047193463891744614 1.6409417390823364
v 0.0017397068440914154 0.04503614082932472 1.6325331926345825
v 0.0020828768610954285 0.017071451991796494 1.6523852348327637
v 0.013189774006605148 0.015175781212747097 1.6513320207595825
v 0.010990340262651443 0.013321848586201668 1.6559051275253296
v 9.303167462348938e-05 0.01587730646133423 1.657022476196289
v -0.017634447664022446 0.016387637704610825 1.685559868812561
v -0.01107613742351532 0.024980496615171432 1.687724232673645
v -0.01585782691836357 0.020918916910886765 1.6830271482467651
v -0.01766103133559227 0.011626475490629673 1.682682991027832
v 0.039076875895261765 0.009021542966365814 1.6432774066925049
v 0.050923388451337814 0.014808543026447296 1.6455763578414917
v 0.05025844648480415 0.015282057225704193 1.651436448097229
v 0.039607029408216476 0.010217561386525631 1.6480106115341187
v 0.042911071330308914 0.012193369679152966 1.6760070323944092
v 0.04967450723052025 0.017841240391135216 1.6703088283538818
v 0.053767960518598557 0.027067888528108597 1.679463267326355
v 0.04512974992394447 0.025056736543774605 1.6841051578521729
v 0.03417928144335747 0.008342452347278595 1.6848527193069458
v 0.03642691299319267 0.019290434196591377 1.6910241842269897
v 0.023505952209234238 0.017089862376451492 1.6973785161972046
v 0.005667697638273239 0.012475680559873581 1.7013758420944214
v 0.05240729823708534 0.016717005521059036 1.6330152750015259
v 0.04408636316657066 0.01225519273430109 1.6295572519302368
v -0.0794542208313942 0.0499023012816906 1.6708136796951294
v -0.07894126325845718 0.05042736977338791 1.6650917530059814
v -0.07619403302669525 0.042970627546310425 1.666288137435913
v -0.07699240744113922 0.04418165981769562 1.671699047088623
v 0.04577772691845894 0.03090749680995941 1.6205519437789917
v 0.044348087161779404 0.0408523790538311 1.6213891506195068
v 0.051498208194971085 0.03975095599889755 1.6211631298065186
v 0.053039852529764175 0.03055781126022339 1.622248649597168
v 0.036120425909757614 0.031179089099168777 1.6184684038162231
v 0.03434113785624504 0.04168761149048805 1.6222506761550903
v -0.06990313529968262 0.055176347494125366 1.675788402557373
v -0.07444565743207932 0.05321706831455231 1.676579475402832
v -0.07123476266860962 0.04919523000717163 1.6772747039794922
v -0.06634698063135147 0.05121034383773804 1.6754660606384277
v -0.02123231813311577 0.012912963517010212 1.6738883256912231
v -0.016177557408809662 0.013540701940655708 1.6660884618759155
v -0.04388652741909027 0.01707363873720169 1.672558069229126
v -0.030700258910655975 0.015504582785069942 1.6688491106033325
v -0.031235037371516228 0.015942182391881943 1.676032543182373
v -0.041510045528411865 0.018806347623467445 1.678452730178833
v -0.020353179425001144 0.017871245741844177 1.6473966836929321
v -0.008606042712926865 0.018210766837000847 1.6486681699752808
v -0.011608436703681946 0.017960352823138237 1.6543837785720825
v -0.02479550987482071 0.016964521259069443 1.6547702550888062
v -0.004308607429265976 0.015412149019539356 1.6355156898498535
v -0.016260627657175064 0.015657939016819 1.6353180408477783
v -0.012587569653987885 0.013909934088587761 1.6278594732284546
v -0.004603270441293716 0.013218874111771584 1.6293517351150513
v -0.039223071187734604 0.017376743257045746 1.63784658908844
v -0.047535043209791183 0.021259507164359093 1.6372979879379272
v -0.04742807522416115 0.02364921383559704 1.6322356462478638
v -0.03793306648731232 0.018271297216415405 1.6338692903518677
v 0.05852558836340904 0.039749227464199066 1.6214052438735962
v 0.05977944657206535 0.03061782196164131 1.624774694442749
v -0.0033395737409591675 0.03510909900069237 1.6128009557724
v 0.002669289708137512 0.027509860694408417 1.6077078580856323
v -0.00930863618850708 0.025501787662506104 1.603524923324585
v -0.011892087757587433 0.03374478220939636 1.6102899312973022
v 0.04121216759085655 0.048494853079319 1.6276544332504272
v 0.04868461564183235 0.048444248735904694 1.6253517866134644
v -0.0657903328537941 0.057031672447919846 1.6715087890625
v -0.06302514672279358 0.05344264954328537 1.670707106590271
v 0.022763732820749283 0.028427746146917343 1.694981575012207
v 0.003730006515979767 0.021195925772190094 1.7001404762268066
v 0.03620092198252678 0.03255828842520714 1.6884660720825195
v 0.0446849949657917 0.036210350692272186 1.6831424236297607
v 0.05282914265990257 0.03852548822760582 1.6812905073165894
v -0.03467938303947449 0.015323552303016186 1.6628954410552979
v -0.009823553264141083 0.015966717153787613 1.6596463918685913
v 0.0037521235644817352 0.01700333133339882 1.6478434801101685
v 0.008551172912120819 0.009140418842434883 1.6187055110931396
v 0.01908480003476143 0.008863598108291626 1.6204313039779663
v 0.01336575672030449 0.008729344233870506 1.6293437480926514
v 0.005310636013746262 0.00966087356209755 1.6259204149246216
v 0.003155820071697235 0.017871659249067307 1.6067049503326416
v 0.00017787516117095947 0.011945853941142559 1.6110572814941406
v -0.009494215250015259 0.012038997374475002 1.6089634895324707
v -0.007764648646116257 0.017157020047307014 1.604087471961975
v -0.017426658421754837 0.01939758099615574 1.6920840740203857
v -0.00630483403801918 0.02778901532292366 1.6922962665557861
v 0.046520527452230453 0.020837660878896713 1.6233497858047485
v 0.053150396794080734 0.021722596138715744 1.627145528793335
v 0.06076200678944588 0.024414846673607826 1.6293405294418335
v 0.026475805789232254 0.011086116544902325 1.6487476825714111
v 0.04008954390883446 0.01080023217946291 1.6515239477157593
v 0.03926854953169823 0.00998004525899887 1.656543493270874
v 0.025963585823774338 0.011165008880198002 1.651687502861023
v 0.0181436650454998 0.0034001916646957397 1.6674652099609375
v 0.030186492949724197 0.003953021019697189 1.6725389957427979
v 0.008768372237682343 -0.0006544049829244614 1.6753565073013306
v 0.05116213485598564 0.01618485152721405 1.6597888469696045
v 0.05998558923602104 0.017367199063301086 1.6533437967300415
v 0.05955248698592186 0.019065488129854202 1.6621463298797607
v 0.06092449650168419 0.018139753490686417 1.6436351537704468
v 0.06124409660696983 0.0203192587941885 1.6350090503692627
v 0.05649590864777565 0.051272135227918625 1.6237512826919556
v 0.05804764851927757 0.022277386859059334 1.6699100732803345
v -0.002741243690252304 -0.001991715282201767 1.6908981800079346
v -0.010807473212480545 -0.0025476347655057907 1.6914947032928467
v -0.012374334037303925 -0.0009178090840578079 1.6841906309127808
v -0.005824919790029526 -0.0007667727768421173 1.6831953525543213
v -0.04128236696124077 0.031608738005161285 1.680928349494934
v -0.042532503604888916 0.02420317381620407 1.6815392971038818
v -0.03128470107913017 0.019784746691584587 1.6815004348754883
v 0.029511842876672745 0.007957324385643005 1.6369304656982422
v 0.03427289053797722 0.010429354384541512 1.6256073713302612
v -0.0473189502954483 0.018756236881017685 1.666629672050476
v -0.061870791018009186 0.05152429640293121 1.6750115156173706
v -0.06570139527320862 0.04795461148023605 1.6778342723846436
v -0.052465587854385376 0.04067155718803406 1.6793853044509888
v -0.05007755011320114 0.04548856243491173 1.675919771194458
v -0.05424286425113678 0.02880450338125229 1.6614187955856323
v -0.05288176238536835 0.024355724453926086 1.6661075353622437
v -0.05556570738554001 0.028576435521245003 1.6653308868408203
v -0.056623995304107666 0.03275187686085701 1.6607255935668945
v -0.0418756827712059 0.021414214745163918 1.6253665685653687
v -0.0338282510638237 0.017029672861099243 1.6265970468521118
v -0.03977721557021141 0.038934409618377686 1.6588060855865479
v -0.03610825538635254 0.04054586589336395 1.6705211400985718
v -0.02682800404727459 0.04169807583093643 1.6696184873580933
v -0.017218105494976044 0.017068300396203995 1.6406797170639038
v -0.028089873492717743 0.016515430063009262 1.6386845111846924
v -0.02698330022394657 0.016278140246868134 1.634648323059082
v -0.038250260055065155 0.016395634040236473 1.6593983173370361
v -0.04807853698730469 0.019828639924526215 1.660704255104065
v -0.04387219250202179 0.018545839935541153 1.6559274196624756
v -0.034526363015174866 0.017114218324422836 1.6545289754867554
v 0.014980498701334 0.029976772144436836 1.611031413078308
v 0.015839610248804092 0.0185678880661726 1.609466791152954
v -0.07783952355384827 0.05107628181576729 1.6749188899993896
v -0.07484076172113419 0.04615512490272522 1.6757562160491943
v -0.005776736885309219 0.01743595115840435 1.6420639753341675
v -0.013904567807912827 0.04266068711876869 1.669854760169983
v 0.0055747441947460175 0.016251344233751297 1.6427963972091675
v -0.026906773447990417 0.03305654227733612 1.6203298568725586
v -0.028010135516524315 0.028160477057099342 1.6165204048156738
v -0.03341591730713844 0.028869708999991417 1.6181929111480713
v -0.03195991739630699 0.03394424542784691 1.6200625896453857
v -0.06654508411884308 0.04354855790734291 1.658028244972229
v -0.07022028416395187 0.04062453657388687 1.6616286039352417
v -0.07400275766849518 0.04403812065720558 1.6603915691375732
v -0.06986436247825623 0.04649771749973297 1.6575020551681519
v -0.05196205899119377 0.02360994555056095 1.6718547344207764
v -0.04993201792240143 0.024613259360194206 1.6779811382293701
v -0.05603708326816559 0.029818464070558548 1.6760307550430298
v -0.05639325827360153 0.028727727010846138 1.6703890562057495
v -0.04935922846198082 0.03063458576798439 1.6806752681732178
v -0.05447820574045181 0.034783508628606796 1.6794151067733765
v -0.06172104924917221 0.04811209812760353 1.6588881015777588
v -0.05783686414361 0.05244123935699463 1.6641491651535034
v -0.04961973801255226 0.04579216241836548 1.663360595703125
v -0.05469340458512306 0.040330175310373306 1.6603232622146606
v 0.015837717801332474 0.04834184795618057 1.6349575519561768
v 0.01957690343260765 0.04446040466427803 1.625356912612915
v 0.005611341446638107 0.04112175852060318 1.6226491928100586
v -0.007560260593891144 0.03844127058982849 1.6196256875991821
v -0.019859954714775085 0.03446878492832184 1.61801016330719
v -0.023744551464915276 0.039683997631073 1.6283730268478394
v 0.00953109934926033 0.03797829896211624 1.6164504289627075
v -0.0513603612780571 0.03371600806713104 1.656590461730957
v -0.04474154859781265 0.03882540762424469 1.663017988204956
v -0.046400122344493866 0.03706854581832886 1.6576313972473145
v 0.007142413407564163 0.013520224951207638 1.6361031532287598
v -0.06859444081783295 0.0444478914141655 1.6773948669433594
v 0.04170507565140724 0.05235529690980911 1.6696181297302246
v 0.0418396033346653 0.056132953613996506 1.657239317893982
v 0.03341008350253105 0.05414407700300217 1.6588326692581177
v 0.03300118073821068 0.049435291439294815 1.67208731174469
v -0.0717974603176117 0.03897302597761154 1.6681444644927979
v -0.07151231169700623 0.040600959211587906 1.6739331483840942
v -0.03240130841732025 0.016949879005551338 1.6202291250228882
v -0.0385180301964283 0.021401353180408478 1.6206676959991455
v -0.03765250742435455 0.023631691932678223 1.618038296699524
v -0.03257569298148155 0.018525240942835808 1.6154837608337402
v 0.02279021218419075 0.04190870001912117 1.6212078332901
v -0.017625141888856888 0.024201102554798126 1.6014362573623657
v -0.018295522779226303 0.031860921531915665 1.6066995859146118
v 0.031849462538957596 0.04742250218987465 1.6281472444534302
v 0.02867530658841133 0.05138988047838211 1.6364006996154785
v 0.038120295852422714 0.05340275168418884 1.6368690729141235
v -0.03524384647607803 0.039897896349430084 1.6389285326004028
v 0.011178534477949142 0.04989626258611679 1.642032265663147
v 0.025232989341020584 0.05234357714653015 1.6431233882904053
v 0.03639756515622139 0.0547567754983902 1.644001841545105
v 0.04441433772444725 0.05698512867093086 1.6438946723937988
v 0.04553466662764549 0.05505119264125824 1.6360965967178345
v -0.05905730649828911 0.05276605486869812 1.6694689989089966
v -0.06141478568315506 0.053341180086135864 1.664749026298523
v 0.053824152797460556 0.058406006544828415 1.634651780128479
v 0.05233573541045189 0.059815045446157455 1.6436578035354614
v 0.022090528160333633 0.05256832391023636 1.6517601013183594
v 0.01862943544983864 0.05157572031021118 1.6617320775985718
v 0.008614026010036469 0.05004803091287613 1.6502480506896973
v 0.004034861922264099 0.04893152415752411 1.6602118015289307
v -0.03355983644723892 0.043466776609420776 1.6485767364501953
v -0.07039324194192886 0.06665986776351929 1.6614114046096802
v -0.06655893474817276 0.05658396705985069 1.660326600074768
v -0.07129016518592834 0.05416607856750488 1.6577965021133423
v -0.07309320569038391 0.06492002308368683 1.6585755348205566
v -0.0650731772184372 0.04995544254779816 1.6592113971710205
v -0.06390619277954102 0.057473186403512955 1.6654280424118042
v 0.0009854771196842194 0.043962009251117706 1.6716197729110718
v -0.05340702459216118 0.0242722537368536 1.6554086208343506
v 0.016991857439279556 0.04452858865261078 1.675246238708496
v -0.007017351686954498 0.036761656403541565 1.6829653978347778
v 0.004647575318813324 0.03597049042582512 1.6861876249313354
v 0.03326788172125816 0.04366491734981537 1.6815927028656006
v 0.01985565945506096 0.03770343214273453 1.6887120008468628
v 0.05044015869498253 0.04764596372842789 1.6770044565200806
v 0.0417281873524189 0.046109508723020554 1.6783502101898193
v 0.006152238696813583 0.030706018209457397 1.6944659948349
v -0.08313732594251633 0.05991998314857483 1.6662312746047974
v -0.0811665952205658 0.05981571599841118 1.6611530780792236
v 0.04970413073897362 0.05467219650745392 1.668797254562378
v 0.00013344362378120422 -0.0013382285833358765 1.680375576019287
v 0.01740126684308052 0.011667922139167786 1.6393660306930542
v 0.015795890241861343 0.013799157924950123 1.6441330909729004
v 0.025227483361959457 0.009250180795788765 1.6221978664398193
v 0.020495396107435226 0.008469263091683388 1.6328235864639282
v -0.08227024972438812 0.06091346964240074 1.6711269617080688
v -0.04886265844106674 0.027230899780988693 1.6359004974365234
v -0.048155367374420166 0.0289628803730011 1.6334311962127686
v -0.0023659951984882355 0.0018943063914775848 1.6983698606491089
v -0.009958475828170776 0.0004769042134284973 1.6983871459960938
v -0.015608683228492737 0.01199960708618164 1.700878381729126
v -0.012803006917238235 0.005508000031113625 1.7021032571792603
v -0.004344437271356583 0.009371954947710037 1.702248215675354
v -0.006975535303354263 0.01651178114116192 1.7010196447372437
v 0.026553068310022354 0.01064437534660101 1.6462912559509277
v 0.026921328157186508 0.009785533882677555 1.6425797939300537
v 0.026290912181138992 0.030424822121858597 1.6147191524505615
v 0.026479896157979965 0.019021350890398026 1.6134922504425049
v -0.047085266560316086 0.036210961639881134 1.6798279285430908
v -0.03917219489812851 0.03757968544960022 1.677228569984436
v -0.04452138394117355 0.04135100170969963 1.6760040521621704
v -0.04760479927062988 0.04691290110349655 1.669964075088501
v -0.05509478971362114 0.03063138760626316 1.6549174785614014
v -0.051315899938344955 0.034480489790439606 1.6605865955352783
v 0.03495556488633156 0.006852930411696434 1.6633154153823853
v 0.02339235320687294 0.008475681766867638 1.658008337020874
v -0.010794486850500107 0.0032787732779979706 1.6802513599395752
v -0.015241112560033798 0.0044466666877269745 1.680784821510315
v -0.02995223179459572 0.01711048185825348 1.6477088928222656
v -0.041379451751708984 0.03890187293291092 1.6407362222671509
v -0.0406629741191864 0.042767442762851715 1.6485857963562012
v -0.04049157723784447 0.01803327538073063 1.6475282907485962
v -0.07575678080320358 0.0653732493519783 1.6735702753067017
v -0.08007825911045074 0.06278623640537262 1.673234224319458
v -0.04308047145605087 0.0427645668387413 1.6702170372009277
v -0.023960135877132416 0.014008378610014915 1.6270952224731445
v -0.038161542266607285 0.03639644756913185 1.6358715295791626
v -0.044214874505996704 0.033375225961208344 1.637101650238037
v -0.014817379415035248 0.01656203716993332 1.6028972864151
v 0.050481896847486496 0.05815480649471283 1.6568262577056885
v -0.07613547146320343 0.0523282065987587 1.6595346927642822
v -0.07787121832370758 0.060982443392276764 1.657835841178894
v -0.06861142814159393 0.06737369298934937 1.665281891822815
v -0.07012007385492325 0.0665750652551651 1.6706655025482178
v 0.035799790173769 0.019122453406453133 1.6187970638275146
v 0.014385048300027847 0.014917961321771145 1.6471943855285645
v -0.006217312067747116 0.02455275133252144 1.696273922920227
v -0.016811512410640717 0.01764042116701603 1.6966286897659302
v -0.04910321533679962 0.020595263689756393 1.6468555927276611
v -0.02276068739593029 0.03175394982099533 1.6134028434753418
v -0.03052557073533535 0.03879329562187195 1.627143144607544
v -0.03391830995678902 0.04000905156135559 1.6257318258285522
v -0.03972484916448593 0.040491245687007904 1.6295639276504517
v -0.04656892269849777 0.037193663418293 1.6304543018341064
v -0.07067778706550598 0.07081923633813858 1.6632329225540161
v -0.07254306972026825 0.0715700015425682 1.6689454317092896
v -0.07787760347127914 0.07191561162471771 1.6712332963943481
v -0.08234228938817978 0.06919468939304352 1.6710290908813477
v -0.08420340716838837 0.06508868932723999 1.668992280960083
v -0.0726403146982193 0.06975241005420685 1.6594128608703613
v -0.07529644668102264 0.06801992654800415 1.6571916341781616
v -0.07951128482818604 0.06351140141487122 1.657382845878601
v -0.07368654012680054 0.07240445911884308 1.6568317413330078
v -0.07245656847953796 0.07629135996103287 1.6594563722610474
v -0.08149629831314087 0.08394773304462433 1.6641570329666138
v -0.07833702862262726 0.07984501123428345 1.6667070388793945
v -0.07757542282342911 0.08150994777679443 1.6647931337356567
v -0.07915124297142029 0.08540652692317963 1.6624447107315063
v -0.07935363799333572 0.08939718455076218 1.6594499349594116
v -0.08246801048517227 0.0882665142416954 1.660962700843811
v -0.0744798481464386 0.07864128053188324 1.6634697914123535
v -0.07588149607181549 0.08374960720539093 1.6599522829055786
v -0.07413185387849808 0.0819595456123352 1.6565676927566528
v -0.07440225780010223 0.08667758107185364 1.654149055480957
v -0.0759531781077385 0.08863013237714767 1.6571967601776123
v -0.07331325858831406 0.07872478663921356 1.6593587398529053
v -0.07388915121555328 0.07721918821334839 1.664703130722046
v -0.08159876614809036 0.09078478068113327 1.6573216915130615
v -0.0790698304772377 0.09134597331285477 1.6574076414108276
v -0.07665760815143585 0.09066005796194077 1.6551835536956787
v -0.07883395999670029 0.09133205562829971 1.6531316041946411
v -0.08279584348201752 0.07539527863264084 1.6685374975204468
v -0.08371961116790771 0.08272281289100647 1.6639128923416138
v -0.08437405526638031 0.08637423813343048 1.6593551635742188
v -0.08332137763500214 0.08902154117822647 1.655875325202942
v -0.08565899729728699 0.08100780844688416 1.6608831882476807
v -0.08513903617858887 0.08437319099903107 1.6573550701141357
v -0.08423225581645966 0.08642257750034332 1.6539860963821411
v -0.08610792458057404 0.07905913889408112 1.6571587324142456
v -0.08514492213726044 0.08266699314117432 1.6547045707702637
v -0.08616087585687637 0.06765510141849518 1.6639525890350342
v -0.08521651476621628 0.07041890174150467 1.6673266887664795
v -0.08478276431560516 0.08467453718185425 1.6529715061187744
v -0.08006507158279419 0.08986050635576248 1.65185546875
v -0.07388696819543839 0.07891641557216644 1.6546461582183838
v -0.07528065145015717 0.08462737500667572 1.6515792608261108
v -0.07494068145751953 0.07755038142204285 1.653254747390747
v -0.07612722367048264 0.08305501937866211 1.6498606204986572
v -0.07586297392845154 0.08862730115652084 1.6503890752792358
v -0.07532897591590881 0.08905341476202011 1.6529757976531982
v -0.08405173569917679 0.06225147843360901 1.6649218797683716
v -0.08208245038986206 0.06183144077658653 1.660073161125183
v -0.08386994898319244 0.0658654123544693 1.6589328050613403
v -0.08439283818006516 0.07711617648601532 1.6533706188201904
v -0.08080077171325684 0.06665732711553574 1.6558598279953003
v -0.07613851875066757 0.07112251222133636 1.6547666788101196
v -0.07696247845888138 0.0770203024148941 1.6515529155731201
v -0.08013308793306351 0.07636556029319763 1.6510728597640991
v -0.07810445874929428 0.08144532144069672 1.6494349241256714
v -0.0805642381310463 0.08074583113193512 1.6499568223953247
v -0.08377104997634888 0.08131302893161774 1.6516976356506348
v -0.07963664829730988 0.08500047028064728 1.6490015983581543
v -0.0773710086941719 0.08705617487430573 1.6492875814437866
v -0.08190835267305374 0.08712093532085419 1.6509445905685425
v -0.08092424273490906 0.08342842757701874 1.649448037147522
v -0.0828617513179779 0.08459043502807617 1.6512408256530762
v -0.07403630018234253 0.0516677126288414 1.6218551397323608
v -0.06884527951478958 0.04996930807828903 1.619436264038086
v -0.06983084231615067 0.04192596673965454 1.6248358488082886
v -0.07342550158500671 0.04395565390586853 1.6280914545059204
v -0.07065553218126297 0.05647612363100052 1.6336671113967896
v -0.07501942664384842 0.055382050573825836 1.6300047636032104
v -0.07267749309539795 0.05116819217801094 1.6357418298721313
v -0.0667068213224411 0.05369536206126213 1.6369255781173706
v -0.06465940922498703 0.055956751108169556 1.63339102268219
v -0.06100828945636749 0.05289885401725769 1.634824514389038
v -0.06280288100242615 0.05425611510872841 1.639129877090454
v -0.06845321506261826 0.04999914392828941 1.639726161956787
v -0.05541466176509857 0.03856511786580086 1.6510751247406006
v -0.051225289702415466 0.04414592683315277 1.649613857269287
v -0.053247012197971344 0.025595851242542267 1.6385784149169922
v -0.05169849097728729 0.028916550800204277 1.6366482973098755
v -0.07565982639789581 0.053599029779434204 1.625428318977356
v -0.07443614304065704 0.04760787636041641 1.6322916746139526
v -0.06113410368561745 0.040235403925180435 1.623733401298523
v -0.06574172526597977 0.03851940855383873 1.6259607076644897
v -0.06579478085041046 0.04162660986185074 1.6219899654388428
v -0.061366114765405655 0.043258365243673325 1.621837854385376
v -0.057352062314748764 0.029580220580101013 1.6490261554718018
v -0.05488792061805725 0.025976598262786865 1.64432954788208
v -0.057260747998952866 0.03390901908278465 1.6501058340072632
v -0.05679827183485031 0.04474751651287079 1.6248656511306763
v -0.05437000095844269 0.05008792132139206 1.6282042264938354
v -0.04456336796283722 0.04221133887767792 1.6375738382339478
v -0.046846743673086166 0.03635278344154358 1.6349660158157349
v -0.0715506449341774 0.045822225511074066 1.6376011371612549
v -0.06956421583890915 0.039156511425971985 1.6299747228622437
v -0.07189982384443283 0.04148973524570465 1.6336455345153809
v -0.057352688163518906 0.05381216108798981 1.6345007419586182
v -0.05736769363284111 0.05105261504650116 1.6288608312606812
v -0.05471236631274223 0.06344354152679443 1.6210753917694092
v -0.05777771770954132 0.05206354334950447 1.625293254852295
v -0.059845324605703354 0.050616756081581116 1.6209276914596558
v -0.05578255653381348 0.062161821871995926 1.616334319114685
v -0.05850110203027725 0.046565234661102295 1.6248910427093506
v -0.059547651559114456 0.05425075441598892 1.6297019720077515
v -0.06844747811555862 0.06599900126457214 1.6139382123947144
v -0.06321807205677032 0.06364504247903824 1.6117002964019775
v -0.070454441010952 0.06818988919258118 1.6173717975616455
v -0.046489205211400986 0.045805007219314575 1.6437745094299316
v -0.06764557957649231 0.0692969560623169 1.6268141269683838
v -0.07084072381258011 0.06907616555690765 1.6215330362319946
v -0.06356830894947052 0.049721769988536835 1.6186491250991821
v -0.05865899473428726 0.06250670552253723 1.6127872467041016
v -0.055840104818344116 0.06535027921199799 1.6251617670059204
v -0.06177693232893944 0.06712383776903152 1.6289408206939697
v -0.0541381761431694 0.06879381835460663 1.6202590465545654
v -0.058206625282764435 0.0723830908536911 1.6236785650253296
v -0.06360078603029251 0.07505302131175995 1.6216641664505005
v -0.06736506521701813 0.0745265781879425 1.6172963380813599
v -0.06818008422851562 0.07250357419252396 1.6140625476837158
v -0.053628724068403244 0.06697174906730652 1.6167227029800415
v -0.05510597676038742 0.06583674252033234 1.612423300743103
v -0.059311483055353165 0.065097376704216 1.6102648973464966
v -0.051709797233343124 0.06963323056697845 1.6113708019256592
v -0.051186464726924896 0.07244893163442612 1.6141465902328491
v -0.05537499859929085 0.08742949366569519 1.6066210269927979
v -0.05755913257598877 0.08434993028640747 1.6109141111373901
v -0.05506167933344841 0.08387315273284912 1.6114944219589233
v -0.0528409443795681 0.08675117790699005 1.6077197790145874
v -0.05826130509376526 0.08109922707080841 1.6159791946411133
v -0.05581817775964737 0.08120395243167877 1.6148947477340698
v -0.053202059119939804 0.07759992778301239 1.6154934167861938
v -0.051405154168605804 0.08087106794118881 1.6111735105514526
v -0.049261417239904404 0.07668258994817734 1.610055685043335
v -0.04657590016722679 0.07985714077949524 1.606723427772522
v -0.048403557389974594 0.08426329493522644 1.6078358888626099
v -0.050738126039505005 0.07548275589942932 1.6134357452392578
v -0.05068532004952431 0.08782365918159485 1.6052616834640503
v -0.05156102031469345 0.088262178003788 1.6028372049331665
v -0.0547407865524292 0.07636712491512299 1.617633581161499
v -0.06422004103660583 0.07864141464233398 1.6152019500732422
v -0.05983535945415497 0.08396216481924057 1.6089791059494019
v -0.056889038532972336 0.08661860227584839 1.6039539575576782
v -0.0520753376185894 0.08661330491304398 1.6003329753875732
v -0.06074156612157822 0.08188335597515106 1.605583667755127
v -0.057150594890117645 0.08449600636959076 1.6015915870666504
v -0.052890367805957794 0.08428797870874405 1.5991257429122925
v -0.060268014669418335 0.07858692854642868 1.6023449897766113
v -0.05629982054233551 0.08115911483764648 1.5991774797439575
v -0.06604506075382233 0.072242870926857 1.6092275381088257
v -0.06651997566223145 0.07575264573097229 1.6120060682296753
v -0.05397181212902069 0.08222001791000366 1.5986244678497314
v -0.04707419499754906 0.08628332614898682 1.602428913116455
v -0.048326559364795685 0.08477780967950821 1.599639654159546
v -0.0472380705177784 0.08603516966104507 1.604297399520874
v -0.04877469316124916 0.07489063590765 1.6090419292449951
v -0.04644690081477165 0.07844556868076324 1.6049342155456543
v -0.04903102666139603 0.07314595580101013 1.606985330581665
v -0.04661201685667038 0.07738826423883438 1.6027793884277344
v -0.04523172602057457 0.08185717463493347 1.6024225950241089
v -0.045388005673885345 0.08288709819316864 1.6038271188735962
v -0.06685267388820648 0.06940130889415741 1.611551284790039
v -0.06289094686508179 0.06618604809045792 1.6099309921264648
v -0.06296581029891968 0.06831644475460052 1.6075794696807861
v -0.05745378136634827 0.07468564063310623 1.6011093854904175
v -0.058846767991781235 0.06649915874004364 1.6079636812210083
v -0.05374155566096306 0.06788904964923859 1.6091164350509644
v -0.05066793039441109 0.07191512733697891 1.6050785779953003
v -0.05351588502526283 0.07237687706947327 1.60242760181427
v -0.04747268185019493 0.07602904736995697 1.6012279987335205
v -0.05059194937348366 0.07526122033596039 1.6003512144088745
v -0.05429697409272194 0.0777752622961998 1.598681092262268
v -0.046743664890527725 0.07979996502399445 1.5991485118865967
v -0.0455692894756794 0.0811024159193039 1.6008186340332031
v -0.049592144787311554 0.08319871872663498 1.5986520051956177
v -0.04923931881785393 0.0782204419374466 1.5986732244491577
v -0.05169260501861572 0.08084988594055176 1.5980595350265503
v -0.06402694433927536 0.048270389437675476 1.6053822040557861
v -0.06093462556600571 0.04530888423323631 1.6021161079406738
v -0.06119021773338318 0.03812576085329056 1.605372667312622
v -0.06411194801330566 0.04216071590781212 1.6090742349624634
v -0.05637213587760925 0.05209498479962349 1.6150844097137451
v -0.06096285581588745 0.05198322609066963 1.6130238771438599
v -0.06114422529935837 0.04800701513886452 1.6152633428573608
v -0.055969640612602234 0.04787047207355499 1.6175481081008911
v -0.05115099996328354 0.0522070936858654 1.6134276390075684
v -0.05055560916662216 0.047409817576408386 1.6156930923461914
v -0.05257898196578026 0.04846178740262985 1.6199781894683838
v -0.05862239748239517 0.04636653885245323 1.618677020072937
v -0.04936622455716133 0.0397525317966938 1.6271470785140991
v -0.04357598349452019 0.043929293751716614 1.6264879703521729
v -0.06346601247787476 0.05054087191820145 1.6091828346252441
v -0.06378097087144852 0.04599297046661377 1.6123173236846924
v -0.05070768669247627 0.034665606915950775 1.605785846710205
v -0.05465828999876976 0.03375208377838135 1.6079572439193726
v -0.05633760616183281 0.03757502883672714 1.6028401851654053
v -0.0522608682513237 0.03898666799068451 1.602532148361206
v -0.05069781094789505 0.02866833284497261 1.62650728225708
v -0.046407800167798996 0.02591412514448166 1.6228514909744263
v -0.05200040340423584 0.034274764358997345 1.6267012357711792
v -0.04650632292032242 0.03848342224955559 1.6071245670318604
v -0.04391755163669586 0.04407010227441788 1.6114263534545898
v -0.0362081341445446 0.03855408355593681 1.6167691946029663
v -0.03832666575908661 0.03276257961988449 1.6155884265899658
v -0.06136699393391609 0.04310078173875809 1.6171497106552124
v -0.05857108533382416 0.03448387235403061 1.6110056638717651
v -0.06190566346049309 0.03834947571158409 1.6144165992736816
v -0.047148268669843674 0.0480060912668705 1.6166272163391113
v -0.047745369374752045 0.04451146349310875 1.6107515096664429
v -0.045934900641441345 0.0623110793530941 1.5997017621994019
v -0.04787253588438034 0.045559726655483246 1.6041269302368164
v -0.05162119120359421 0.044765617698431015 1.6005563735961914
v -0.047777749598026276 0.06151151657104492 1.5959199666976929
v -0.04854998737573624 0.04136621952056885 1.605006217956543
v -0.04734569787979126 0.04886327683925629 1.6093484163284302
v -0.060123175382614136 0.06483384966850281 1.5976871252059937
v -0.05673148110508919 0.06176278367638588 1.5947279930114746
v -0.060415469110012054 0.06544087827205658 1.6017422676086426
v -0.03780286759138107 0.043948329985141754 1.6223243474960327
v -0.04163900390267372 0.027113238349556923 1.6177358627319336
v -0.05575870722532272 0.06731007993221283 1.6068158149719238
v -0.05921133607625961 0.06672152131795883 1.6045730113983154
v -0.055917203426361084 0.0441543310880661 1.6004513502120972
v -0.05163063108921051 0.06104310601949692 1.5938690900802612
v -0.04682121425867081 0.06360236555337906 1.6038211584091187
v -0.050577834248542786 0.06556977331638336 1.6074241399765015
v -0.04539409652352333 0.06704163551330566 1.6005052328109741
v -0.049055568873882294 0.06945392489433289 1.6040291786193848
v -0.05317390710115433 0.07209378480911255 1.6040056943893433
v -0.056435585021972656 0.07209436595439911 1.601995825767517
v -0.05815870687365532 0.07105904817581177 1.5991946458816528
v -0.04498441517353058 0.06617052853107452 1.5963622331619263
v -0.04711795598268509 0.06565730273723602 1.5932773351669312
v -0.05122779309749603 0.0642624944448471 1.592841625213623
v -0.04375102370977402 0.06877939403057098 1.593368411064148
v -0.04267890006303787 0.07200226187705994 1.5973899364471436
v -0.045943304896354675 0.08708763122558594 1.5950886011123657
v -0.04813654348254204 0.0827992781996727 1.5974527597427368
v -0.04688652604818344 0.08253925293684006 1.5976290702819824
v -0.04434659332036972 0.08691111952066422 1.595608115196228
v -0.0490860790014267 0.07743574678897858 1.6011310815811157
v -0.04717811197042465 0.07855530083179474 1.6003296375274658
v -0.044713445007801056 0.07587779313325882 1.5999321937561035
v -0.042136967182159424 0.08072712272405624 1.5968729257583618
v -0.04024951159954071 0.07671870291233063 1.5931819677352905
v -0.03888095170259476 0.08093246072530746 1.5915131568908691
v -0.04013529419898987 0.08487053960561752 1.5949915647506714
v -0.0420902781188488 0.07390531897544861 1.5971026420593262
v -0.0424182191491127 0.08841382712125778 1.593900203704834
v -0.0435003787279129 0.09020967781543732 1.5938488245010376
v -0.046236906200647354 0.0741524025797844 1.6009368896484375
v -0.05366943031549454 0.07725176215171814 1.6005722284317017
v -0.0506875142455101 0.08315885812044144 1.5963973999023438
v -0.04890108481049538 0.08792170882225037 1.5936248302459717
v -0.0458984375 0.08950630575418472 1.5910842418670654
v -0.05249178037047386 0.08195806294679642 1.5934339761734009
v -0.050057269632816315 0.0862550288438797 1.5911195278167725
v -0.047398921102285385 0.08790616691112518 1.588866114616394
v -0.05289795249700546 0.08007872104644775 1.5908726453781128
v -0.05018796771764755 0.08401255309581757 1.588783860206604
v -0.0571480356156826 0.07147686183452606 1.5954418182373047
v -0.05622861534357071 0.07479725778102875 1.598347544670105
v -0.04793981462717056 0.08606430888175964 1.587724208831787
v -0.0396377295255661 0.0883621871471405 1.591688632965088
v -0.04171254485845566 0.08778972923755646 1.5880565643310547
v -0.04011216759681702 0.08699474483728409 1.5927152633666992
v -0.0404147133231163 0.07516523450613022 1.59212064743042
v -0.038200680166482925 0.08025684207677841 1.5893001556396484
v -0.04179012030363083 0.07384966313838959 1.5899221897125244
v -0.03954877704381943 0.0791296511888504 1.586992859840393
v -0.03777264431118965 0.08414566516876221 1.5894261598587036
v -0.03821427747607231 0.08421441912651062 1.5905526876449585
v -0.05811680108308792 0.06806474924087524 1.5962203741073608
v -0.05541354790329933 0.06542690098285675 1.593453049659729
v -0.055206798017024994 0.06873687356710434 1.592516541481018
v -0.050896964967250824 0.07792431116104126 1.5878826379776
v -0.0513606034219265 0.06686133146286011 1.5913867950439453
v -0.04611962288618088 0.06886439025402069 1.5908960103988647
v -0.0442635752260685 0.07407402247190475 1.5880476236343384
v -0.04731060191988945 0.07565094530582428 1.5870685577392578
v -0.04194619506597519 0.07888974249362946 1.5855172872543335
v -0.04481952264904976 0.07919548451900482 1.5858325958251953
v -0.04862451180815697 0.08191902190446854 1.5860271453857422
v -0.04173798859119415 0.08290042728185654 1.585817575454712
v -0.03915365785360336 0.08352982252836227 1.5869932174682617
v -0.04408273100852966 0.0865703597664833 1.5864170789718628
v -0.04410267621278763 0.0823051929473877 1.5853586196899414
v -0.045994192361831665 0.08501236140727997 1.5858030319213867
v -0.043457966297864914 0.025122299790382385 1.6198844909667969
v -0.047635480761528015 0.021554620936512947 1.6153584718704224
v -0.04998701438307762 0.01849425956606865 1.6142643690109253
v -0.04628395661711693 0.016735535115003586 1.6117546558380127
v -0.04338925704360008 0.01937638223171234 1.6132506132125854
v -0.04748232290148735 0.029915092512965202 1.608814001083374
v -0.046724241226911545 0.028016945347189903 1.6128020286560059
v -0.042975205928087234 0.027124591171741486 1.6101815700531006
v -0.043361127376556396 0.028952637687325478 1.6057363748550415
v -0.049981147050857544 0.02907579392194748 1.6044434309005737
v -0.04581182450056076 0.02790350280702114 1.6013127565383911
v -0.040520623326301575 0.030461495742201805 1.6062334775924683
v -0.04053764045238495 0.027904871851205826 1.6105355024337769
v -0.02967979945242405 0.02896205708384514 1.6134955883026123
v -0.027902355417609215 0.03185734152793884 1.609740138053894
v -0.02132786251604557 0.016779059544205666 1.6025420427322388
v -0.021656028926372528 0.013486167415976524 1.6067826747894287
v -0.02909212000668049 0.014588718302547932 1.605749487876892
v -0.028273988515138626 0.016298584640026093 1.6018126010894775
v -0.04671648144721985 0.02498946152627468 1.6147972345352173
v -0.043331585824489594 0.023191967979073524 1.6131993532180786
v -0.04353597015142441 0.014528060331940651 1.6025811433792114
v -0.04341905191540718 0.013487910851836205 1.6070199012756348
v -0.04842204600572586 0.014721998944878578 1.609091877937317
v -0.05070304498076439 0.015274963341653347 1.604910135269165
v -0.02487829141318798 0.013777180574834347 1.6108801364898682
v -0.027644291520118713 0.015176232904195786 1.6139323711395264
v -0.03031998872756958 0.017108216881752014 1.61357581615448
v -0.030387088656425476 0.015210717916488647 1.609999656677246
v -0.03154110535979271 0.021940821781754494 1.615537166595459
v -0.04372607171535492 0.017546087503433228 1.5995306968688965
v -0.04292505234479904 0.023428527638316154 1.5978139638900757
v -0.02617443911731243 0.024664826691150665 1.5983054637908936
v -0.026445044204592705 0.019950561225414276 1.5991394519805908
v -0.040656305849552155 0.024008212611079216 1.6129971742630005
v -0.043085962533950806 0.015259507112205029 1.6109710931777954
v -0.041228242218494415 0.019068118184804916 1.612833857536316
v -0.04071805626153946 0.029175492003560066 1.6008703708648682
v -0.04956662282347679 0.02366252988576889 1.599534273147583
v -0.0627535879611969 0.022756259888410568 1.6091933250427246
v -0.05618590861558914 0.020183593034744263 1.604017972946167
v -0.05545122176408768 0.01743314228951931 1.607500433921814
v -0.06211541220545769 0.020222274586558342 1.6111921072006226
v -0.05005486309528351 0.018473252654075623 1.6011385917663574
v -0.05454472824931145 0.025195453315973282 1.6028858423233032
v -0.054089948534965515 0.023115424439311028 1.6200482845306396
v -0.05695565789937973 0.019729353487491608 1.6175259351730347
v -0.05308258906006813 0.026157790794968605 1.6200401782989502
v -0.026727603748440742 0.03127361088991165 1.6033055782318115
v -0.054794371128082275 0.031607262790203094 1.6156086921691895
v -0.05365539714694023 0.029220042750239372 1.6189976930618286
v -0.05269050970673561 0.017238087952136993 1.611527442932129
v -0.060023996978998184 0.018909912556409836 1.6142635345458984
v -0.06161484122276306 0.027193160727620125 1.6086664199829102
v -0.057697366923093796 0.031207308173179626 1.610622763633728
v -0.0645836591720581 0.028875766322016716 1.6122148036956787
v -0.06113820523023605 0.031689777970314026 1.614507794380188
v -0.058209747076034546 0.03071025013923645 1.6207079887390137
v -0.056435294449329376 0.02764914184808731 1.6220347881317139
v -0.055877044796943665 0.024518858641386032 1.6222347021102905
v -0.06518812477588654 0.02381291426718235 1.6116187572479248
v -0.06414424628019333 0.021084142848849297 1.6126604080200195
v -0.061387497931718826 0.019159691408276558 1.6149691343307495
v -0.0681455135345459 0.02476990409195423 1.614576816558838
v -0.06832776963710785 0.027865875512361526 1.6181056499481201
v -0.06975415349006653 0.021249622106552124 1.629364013671875
v -0.06641942262649536 0.022822003811597824 1.62787926197052
v -0.06712590157985687 0.023526102304458618 1.6273484230041504
v -0.070233553647995 0.02221028506755829 1.6293085813522339
v -0.0630313977599144 0.02648586593568325 1.6256040334701538
v -0.06479356437921524 0.026086941361427307 1.625440239906311
v -0.0655926913022995 0.02800961211323738 1.6224578619003296
v -0.06959483027458191 0.025885166600346565 1.6247477531433105
v -0.07235026359558105 0.024685606360435486 1.6203595399856567
v -0.07513512670993805 0.023244883865118027 1.6226500272750854
v -0.07254999876022339 0.02473427541553974 1.6263371706008911
v -0.06885112822055817 0.02741071581840515 1.619814157485962
v -0.07279928028583527 0.022176280617713928 1.6300257444381714
v -0.07332238554954529 0.02111831307411194 1.6307806968688965
v -0.06427508592605591 0.030170297250151634 1.6213370561599731
v -0.060266539454460144 0.023751605302095413 1.625762701034546
v -0.06591390073299408 0.02040233090519905 1.6285948753356934
v -0.07033582031726837 0.01912814751267433 1.6303430795669556
v -0.07405306398868561 0.018991738557815552 1.630273461341858
v -0.06499709188938141 0.018561184406280518 1.6272295713424683
v -0.07014630734920502 0.01700669899582863 1.6295777559280396
v -0.07367384433746338 0.01690026745200157 1.6293827295303345
v -0.0649903416633606 0.01650659367442131 1.6246861219406128
v -0.06995673477649689 0.015662595629692078 1.6273428201675415
v -0.059334468096494675 0.01879914477467537 1.6216498613357544
v -0.05935769900679588 0.02102242410182953 1.6243064403533936
v -0.07289433479309082 0.016182487830519676 1.6279582977294922
v -0.07626393437385559 0.022136982530355453 1.6284140348434448
v -0.07640659809112549 0.01920611411333084 1.6279529333114624
v -0.07552464306354523 0.02345641329884529 1.6278116703033447
v -0.07261131703853607 0.024131614714860916 1.619165301322937
v -0.07603023946285248 0.02208290994167328 1.6218997240066528
v -0.0724855586886406 0.022217562422156334 1.6177291870117188
v -0.07597772777080536 0.020012155175209045 1.6213191747665405
v -0.07736395299434662 0.02156052738428116 1.6249973773956299
v -0.07623028755187988 0.02302885800600052 1.625099539756775
v -0.056859977543354034 0.020927423611283302 1.621271014213562
v -0.058345772325992584 0.01950838975608349 1.6183419227600098
v -0.060859013348817825 0.018059510737657547 1.6182960271835327
v -0.06645463407039642 0.01588498242199421 1.6211414337158203
v -0.06399151682853699 0.01919611729681492 1.614807367324829
v -0.06669400632381439 0.021971575915813446 1.613716959953308
v -0.07150529325008392 0.019836366176605225 1.617321491241455
v -0.06962430477142334 0.017305660992860794 1.6181981563568115
v -0.07525984942913055 0.018015045672655106 1.6215571165084839
v -0.07321059703826904 0.015951205044984818 1.6221221685409546
v -0.07103650271892548 0.01494518294930458 1.6243112087249756
v -0.07625134289264679 0.017680104821920395 1.6251838207244873
v -0.07727935910224915 0.01924755796790123 1.6251834630966187
v -0.07560473680496216 0.01740451529622078 1.6273314952850342
v -0.07490041851997375 0.016350679099559784 1.6250184774398804
v -0.07400685548782349 0.016043391078710556 1.6263543367385864
v -0.022437049075961113 0.020137764513492584 1.6008553504943848
v -0.030944673344492912 0.00992831215262413 1.6909894943237305
v -0.02946634218096733 0.008660327643156052 1.6856436729431152
v -0.023079371079802513 -0.006435651332139969 1.6864275932312012
v -0.02564471773803234 -0.0012164860963821411 1.681990146636963
v -0.023146595805883408 -0.008067544549703598 1.6932709217071533
v -0.026118706911802292 -0.0022096335887908936 1.701729416847229
v -0.02340507134795189 -0.0056982096284627914 1.6985538005828857
v -0.027643267065286636 0.004185080528259277 1.682069182395935
v -0.030553413555026054 0.00878596119582653 1.6965136528015137
v -0.02854040637612343 0.003955468535423279 1.701610803604126
v -0.041379425674676895 0.0041769128292799 1.6959199905395508
v -0.038454655557870865 -0.0018729232251644135 1.700742244720459
v -0.0352105088531971 -0.00867246463894844 1.7001087665557861
v -0.030229691416025162 -0.010768063366413116 1.6957193613052368
v -0.02803918346762657 -0.011744759976863861 1.6914479732513428
v -0.03796830773353577 0.0067002251744270325 1.6890991926193237
v -0.03542822599411011 0.005964236333966255 1.6839592456817627
v -0.031528644263744354 0.0016114041209220886 1.680825114250183
v -0.04374351724982262 0.002800753340125084 1.6846647262573242
v -0.0483185313642025 -0.00564001128077507 1.6833256483078003
v -0.04522204026579857 -0.02415461465716362 1.6782838106155396
v -0.04155433923006058 -0.020983174443244934 1.6827760934829712
v -0.043999139219522476 -0.019645150750875473 1.6830062866210938
v -0.04729258641600609 -0.022929411381483078 1.6792476177215576
v -0.04142783209681511 -0.017549026757478714 1.6872655153274536
v -0.04314039275050163 -0.01665257290005684 1.6859809160232544
v -0.04553328827023506 -0.011646013706922531 1.6860811710357666
v -0.048403866589069366 -0.015050593763589859 1.682266354560852
v -0.04763161763548851 -0.00833744928240776 1.6829113960266113
v -0.049228470772504807 -0.00979512557387352 1.6791868209838867
v -0.05112002417445183 -0.018036190420389175 1.6784214973449707
v -0.05048500373959541 -0.023498613387346268 1.677176594734192
v -0.05307505652308464 -0.02056758478283882 1.6751750707626343
v -0.04896625131368637 -0.024703826755285263 1.6749398708343506
v -0.04794543236494064 -0.011252712458372116 1.6889890432357788
v -0.03531702980399132 -0.016694214195013046 1.6896047592163086
v -0.03803695738315582 -0.021007604897022247 1.6822940111160278
v -0.042242832481861115 -0.02388809621334076 1.6764178276062012
v -0.04687555879354477 -0.02419327199459076 1.6727032661437988
v -0.035090409219264984 -0.01956794410943985 1.6797744035720825
v -0.039492759853601456 -0.02138204500079155 1.674420952796936
v -0.0440145842730999 -0.020960554480552673 1.6709567308425903
v -0.03407551348209381 -0.01612112671136856 1.676701545715332
v -0.03891589492559433 -0.01800929754972458 1.6727147102355957
v -0.02822829782962799 -0.010142017155885696 1.6839423179626465
v -0.030042167752981186 -0.01431155577301979 1.6878702640533447
v -0.042612407356500626 -0.018662400543689728 1.6709116697311401
v -0.05335471034049988 -0.0213368721306324 1.67281973361969
v -0.051059070974588394 -0.02053484320640564 1.670424222946167
v -0.04900475591421127 -0.006814226508140564 1.6779059171676636
v -0.05238175392150879 -0.012510035187005997 1.6759823560714722
v -0.051545750349760056 -0.010775227099657059 1.67401123046875
v -0.04677852243185043 -0.004006732255220413 1.6764072179794312
v -0.0499594509601593 -0.009419292211532593 1.6720739603042603
v -0.053626663982868195 -0.015483122318983078 1.6721596717834473
v -0.05367615446448326 -0.016188208013772964 1.6746580600738525
v -0.026389624923467636 -0.00924929603934288 1.685779094696045
v -0.027802810072898865 -0.0038605108857154846 1.6818736791610718
v -0.029927164316177368 -0.004265636205673218 1.6807585954666138
v -0.03538897633552551 -0.010214895009994507 1.6744129657745361
v -0.03423989564180374 0.0005922913551330566 1.6790146827697754
v -0.03969239443540573 0.0032624173909425735 1.6813491582870483
v -0.04372740536928177 -0.0034147463738918304 1.67429780960083
v -0.03924567624926567 -0.005335960537195206 1.6735460758209229
v -0.0467505045235157 -0.009461067616939545 1.6706700325012207
v -0.04394812136888504 -0.010546062141656876 1.6705552339553833
v -0.04056033864617348 -0.014268562197685242 1.6708489656448364
v -0.048455093055963516 -0.014144491404294968 1.6693384647369385
v -0.05160863324999809 -0.014398641884326935 1.6701321601867676
v -0.047400541603565216 -0.018337521702051163 1.669382929801941
v -0.04581014811992645 -0.013665258884429932 1.6697717905044556
v -0.0445382185280323 -0.01648375391960144 1.6699025630950928
v -0.015204932540655136 0.012384077534079552 1.608254075050354
v -0.01834520325064659 0.011624838225543499 1.6137326955795288
v -0.011230342090129852 0.010770677588880062 1.6141939163208008
v -0.0015131905674934387 0.009895609691739082 1.6163548231124878
v 0.00873267650604248 0.01157179195433855 1.6131983995437622
v -0.003452189266681671 0.010821118950843811 1.6228419542312622
v -0.013292931020259857 0.011583367362618446 1.6202462911605835
v -0.023491669446229935 0.01336347684264183 1.619309425354004
v 0.0028784871101379395 0.012564366683363914 1.630961298942566
f 2 3 1
f 1 3 4
f 5 6 8
f 8 6 7
f 9 4 10
f 10 4 3
f 12 13 11
f 11 13 9
f 14 12 16
f 16 12 15
f 18 19 17
f 17 19 20
f 22 23 21
f 21 23 24
f 26 27 25
f 25 27 28
f 30 31 29
f 29 31 32
f 33 34 36
f 36 34 35
f 37 38 40
f 40 38 39
f 41 42 6
f 6 42 43
f 6 43 7
f 7 43 44
f 45 34 46
f 46 34 33
f 48 49 47
f 47 49 50
f 52 53 51
f 51 53 54
f 56 52 55
f 55 52 51
f 58 59 57
f 57 59 60
f 61 62 4
f 4 62 1
f 64 65 63
f 63 65 66
f 68 69 67
f 67 69 70
f 72 73 71
f 71 73 74
f 76 77 75
f 75 77 78
f 53 79 54
f 54 79 80
f 82 83 81
f 81 83 84
f 85 86 52
f 52 86 53
f 57 60 87
f 87 60 88
f 89 90 43
f 43 90 44
f 43 42 89
f 89 42 91
f 40 39 92
f 92 39 93
f 94 70 64
f 64 70 69
f 13 61 9
f 9 61 4
f 25 28 69
f 69 28 95
f 96 25 68
f 68 25 69
f 98 99 97
f 97 99 100
f 101 102 104
f 104 102 103
f 106 30 105
f 105 30 29
f 51 54 107
f 107 54 108
f 54 80 108
f 108 80 109
f 111 112 110
f 110 112 113
f 115 5 114
f 114 5 116
f 115 41 5
f 5 41 6
f 36 35 111
f 111 35 117
f 35 118 117
f 117 118 119
f 34 120 35
f 35 120 118
f 34 45 120
f 120 45 121
f 125 126 124
f 124 126 127
f 128 129 14
f 14 129 130
f 33 131 46
f 46 131 132
f 133 94 63
f 63 94 64
f 134 135 137
f 137 135 136
f 139 140 138
f 138 140 141
f 77 142 78
f 78 142 143
f 144 145 20
f 20 145 146
f 148 149 147
f 147 149 72
f 151 152 150
f 150 152 153
f 82 101 83
f 83 101 104
f 101 82 155
f 155 82 154
f 156 157 58
f 58 157 59
f 158 68 147
f 147 68 67
f 159 146 15
f 15 146 16
f 68 158 96
f 96 158 160
f 129 66 130
f 130 66 65
f 162 163 161
f 161 163 164
f 166 167 165
f 165 167 168
f 170 171 169
f 169 171 172
f 174 171 173
f 173 171 170
f 176 177 175
f 175 177 178
f 180 181 179
f 179 181 24
f 182 183 21
f 21 183 184
f 81 185 82
f 82 185 154
f 186 187 188
f 188 187 144
f 158 71 160
f 160 71 189
f 190 135 157
f 157 135 59
f 169 172 139
f 139 172 140
f 147 72 158
f 158 72 71
f 192 193 191
f 191 193 194
f 167 166 49
f 49 166 195
f 196 190 50
f 50 190 157
f 197 198 200
f 200 198 199
f 21 24 182
f 182 24 181
f 146 159 20
f 20 159 17
f 182 181 81
f 81 181 185
f 201 185 180
f 180 185 181
f 202 203 83
f 83 203 84
f 205 206 204
f 204 206 85
f 207 22 184
f 184 22 21
f 179 24 208
f 208 24 23
f 208 209 179
f 179 209 205
f 209 210 205
f 205 210 206
f 212 206 211
f 211 206 210
f 179 205 180
f 180 205 204
f 213 176 88
f 88 176 214
f 86 85 212
f 212 85 206
f 193 217 218
f 217 219 218
f 218 219 220
f 219 18 220
f 220 18 17
f 19 221 20
f 20 221 144
f 222 223 225
f 225 223 224
f 175 226 176
f 176 226 214
f 227 87 214
f 214 87 88
f 220 17 228
f 228 17 159
f 134 213 60
f 60 213 88
f 138 229 151
f 151 229 152
f 193 192 210
f 210 192 211
f 230 194 218
f 218 194 193
f 231 232 228
f 228 232 230
f 233 234 91
f 91 234 89
f 235 236 93
f 93 236 92
f 230 232 234
f 234 232 237
f 47 238 48
f 48 238 239
f 240 191 235
f 235 191 236
f 5 8 116
f 116 8 241
f 242 243 189
f 189 243 160
f 244 245 98
f 98 245 99
f 156 246 47
f 47 246 238
f 76 247 77
f 77 247 248
f 250 125 249
f 249 125 124
f 252 253 251
f 251 253 254
f 111 110 36
f 36 110 255
f 256 33 255
f 255 33 36
f 257 258 154
f 154 258 155
f 63 169 133
f 133 169 139
f 66 170 63
f 63 170 169
f 173 170 129
f 129 170 66
f 129 128 173
f 173 128 259
f 128 260 259
f 259 260 261
f 213 134 262
f 262 134 137
f 263 264 186
f 186 264 187
f 112 265 113
f 113 265 266
f 11 267 268
f 234 233 230
f 230 233 194
f 153 269 70
f 70 269 67
f 175 178 165
f 165 178 141
f 150 153 94
f 94 153 70
f 271 221 270
f 270 221 207
f 269 153 272
f 272 153 152
f 121 45 109
f 109 45 108
f 47 50 156
f 156 50 157
f 57 273 58
f 58 273 274
f 145 275 260
f 260 275 261
f 276 149 143
f 143 149 78
f 148 269 75
f 75 269 272
f 207 277 270
f 270 277 278
f 195 196 49
f 49 196 50
f 59 135 60
f 60 135 134
f 83 104 202
f 202 104 279
f 149 148 78
f 78 148 75
f 247 278 248
f 248 278 277
f 183 182 84
f 84 182 81
f 48 239 281
f 281 239 282
f 227 223 283
f 283 223 222
f 223 226 224
f 224 226 168
f 281 282 224
f 224 282 225
f 165 168 175
f 175 168 226
f 264 263 138
f 138 263 229
f 14 16 128
f 128 16 260
f 220 228 218
f 218 228 230
f 87 227 284
f 284 227 283
f 260 16 145
f 145 16 146
f 244 98 258
f 258 98 155
f 58 274 156
f 156 274 246
f 107 285 51
f 51 285 55
f 243 286 160
f 160 286 96
f 234 237 89
f 89 237 90
f 46 132 107
f 107 132 285
f 253 252 249
f 249 252 250
f 286 26 96
f 96 26 25
f 106 105 287
f 287 105 288
f 272 152 289
f 289 152 229
f 138 151 139
f 139 151 133
f 183 290 161
f 161 290 162
f 291 292 277
f 277 292 293
f 151 150 133
f 133 150 94
f 262 275 177
f 177 275 187
f 144 187 145
f 145 187 275
f 273 57 284
f 284 57 87
f 174 136 190
f 190 136 135
f 111 117 112
f 112 117 38
f 117 119 38
f 38 119 123
f 112 38 265
f 265 38 37
f 287 288 254
f 254 288 251
f 228 159 231
f 231 159 15
f 223 227 226
f 226 227 214
f 147 67 148
f 148 67 269
f 224 168 281
f 281 168 167
f 199 163 200
f 200 163 162
f 45 46 108
f 108 46 107
f 281 167 48
f 48 167 49
f 161 164 291
f 291 164 292
f 38 123 39
f 293 294 277
f 277 294 248
f 284 283 296
f 296 283 295
f 284 296 273
f 273 296 297
f 274 273 298
f 298 273 297
f 246 274 299
f 299 274 298
f 283 222 295
f 295 222 300
f 222 225 300
f 300 225 301
f 301 225 302
f 302 225 282
f 303 304 300
f 300 304 295
f 306 307 305
f 305 307 308
f 309 310 308
f 308 310 305
f 308 307 312
f 312 307 311
f 313 314 312
f 312 314 315
f 311 316 312
f 312 316 313
f 317 304 311
f 311 304 316
f 315 309 312
f 312 309 308
f 318 319 321
f 321 319 320
f 319 318 309
f 309 318 310
f 311 307 317
f 317 307 306
f 306 297 317
f 317 297 296
f 306 322 297
f 297 322 298
f 305 323 306
f 306 323 322
f 323 305 324
f 324 305 310
f 304 317 295
f 295 317 296
f 318 325 310
f 310 325 324
f 323 324 326
f 326 324 327
f 324 325 327
f 327 325 328
f 326 327 329
f 329 327 330
f 329 331 326
f 326 331 332
f 333 330 328
f 328 330 327
f 323 326 322
f 322 326 332
f 322 332 298
f 298 332 299
f 325 318 334
f 334 318 321
f 313 316 335
f 335 316 304
f 335 336 313
f 313 336 314
f 304 303 335
f 335 303 337
f 336 335 338
f 338 335 337
f 336 339 314
f 314 339 340
f 246 299 238
f 238 299 341
f 239 342 282
f 282 342 302
f 342 239 341
f 341 239 238
f 341 331 342
f 342 331 343
f 331 329 343
f 343 329 344
f 342 343 302
f 302 343 345
f 341 299 331
f 331 299 332
f 346 301 345
f 345 301 302
f 346 303 301
f 301 303 300
f 347 337 346
f 346 337 303
f 347 346 348
f 348 346 345
f 349 347 350
f 350 347 348
f 343 344 345
f 345 344 348
f 344 351 348
f 348 351 350
f 337 347 338
f 338 347 349
f 353 338 352
f 352 338 349
f 352 355 354
f 354 355 356
f 352 349 355
f 355 349 350
f 352 354 353
f 353 354 334
f 353 334 339
f 339 334 321
f 339 336 353
f 353 336 338
f 329 330 344
f 344 330 351
f 356 351 333
f 333 351 330
f 356 355 351
f 351 355 350
f 354 356 328
f 328 356 333
f 328 325 354
f 354 325 334
f 309 315 319
f 319 315 320
f 320 340 321
f 321 340 339
f 320 315 340
f 340 315 314
f 137 136 261
f 261 136 259
f 140 166 141
f 141 166 165
f 172 171 195
f 195 171 196
f 171 174 196
f 196 174 190
f 178 177 264
f 264 177 187
f 172 195 140
f 140 195 166
f 137 261 262
f 262 261 275
f 178 264 141
f 141 264 138
f 262 177 213
f 213 177 176
f 136 174 259
f 259 174 173
f 358 359 357
f 357 359 360
f 362 363 361
f 361 363 364
f 361 364 365
f 365 364 366
f 367 368 370
f 370 368 369
f 76 371 247
f 247 371 372
f 373 374 362
f 362 374 363
f 376 377 375
f 375 377 378
f 289 229 380
f 380 229 379
f 381 379 263
f 263 379 229
f 383 384 382
f 382 384 385
f 386 368 374
f 374 368 363
f 76 289 371
f 371 289 380
f 377 376 359
f 359 376 387
f 388 386 360
f 360 386 374
f 389 383 366
f 366 383 390
f 392 393 391
f 391 393 394
f 383 382 390
f 390 382 395
f 396 365 390
f 390 365 366
f 389 366 367
f 367 366 364
f 357 397 358
f 358 397 398
f 373 399 357
f 357 399 397
f 389 367 400
f 400 367 370
f 382 385 375
f 375 385 372
f 357 360 373
f 373 360 374
f 361 401 362
f 362 401 402
f 387 388 359
f 359 388 360
f 363 368 364
f 364 368 367
f 358 398 403
f 403 398 404
f 396 392 405
f 405 392 391
f 392 395 393
f 393 395 378
f 393 403 394
f 394 403 404
f 375 378 382
f 382 378 395
f 365 396 406
f 406 396 405
f 362 402 373
f 373 402 399
f 271 270 400
f 400 270 384
f 401 361 406
f 406 361 365
f 381 369 386
f 386 369 368
f 392 396 395
f 395 396 390
f 393 378 403
f 403 378 377
f 403 377 358
f 358 377 359
f 406 405 408
f 408 405 407
f 406 408 401
f 401 408 409
f 401 409 402
f 402 409 410
f 402 410 399
f 399 410 411
f 405 391 407
f 407 391 412
f 391 394 412
f 412 394 413
f 394 404 413
f 413 404 414
f 415 416 412
f 412 416 407
f 418 419 417
f 417 419 420
f 421 422 418
f 418 422 419
f 419 422 424
f 424 422 423
f 425 426 424
f 424 426 427
f 423 428 424
f 424 428 425
f 427 420 424
f 424 420 419
f 420 429 417
f 417 429 430
f 423 422 431
f 431 422 421
f 421 409 431
f 431 409 408
f 421 432 409
f 409 432 410
f 418 433 421
f 421 433 432
f 434 433 417
f 417 433 418
f 431 416 423
f 423 416 428
f 416 431 407
f 407 431 408
f 435 434 430
f 430 434 417
f 433 434 436
f 436 434 437
f 434 435 437
f 437 435 438
f 436 437 439
f 439 437 440
f 439 441 436
f 436 441 442
f 438 443 437
f 437 443 440
f 436 442 433
f 433 442 432
f 432 442 410
f 410 442 411
f 435 430 445
f 445 430 444
f 430 429 444
f 444 429 446
f 425 428 447
f 447 428 416
f 426 425 448
f 448 425 447
f 416 415 447
f 447 415 449
f 447 449 448
f 448 449 450
f 451 452 448
f 448 452 426
f 446 452 444
f 444 452 451
f 399 411 397
f 397 411 453
f 398 454 404
f 404 454 414
f 454 398 453
f 453 398 397
f 453 441 454
f 454 441 455
f 441 439 455
f 455 439 456
f 454 455 414
f 414 455 457
f 441 453 442
f 442 453 411
f 458 413 457
f 457 413 414
f 458 415 413
f 413 415 412
f 458 459 415
f 415 459 449
f 459 458 460
f 460 458 457
f 461 459 462
f 462 459 460
f 455 456 457
f 457 456 460
f 456 463 460
f 460 463 462
f 459 461 449
f 449 461 450
f 465 450 464
f 464 450 461
f 464 467 466
f 466 467 468
f 464 461 467
f 467 461 462
f 464 466 465
f 465 466 445
f 465 445 451
f 451 445 444
f 451 448 465
f 465 448 450
f 439 440 456
f 456 440 463
f 468 463 443
f 443 463 440
f 468 467 463
f 463 467 462
f 466 468 438
f 438 468 443
f 438 435 466
f 466 435 445
f 420 427 429
f 429 427 446
f 446 427 452
f 452 427 426
f 370 369 188
f 188 369 186
f 371 376 372
f 372 376 375
f 380 379 387
f 387 379 388
f 379 381 388
f 388 381 386
f 385 384 278
f 278 384 270
f 380 387 371
f 371 387 376
f 400 370 271
f 271 370 188
f 385 278 372
f 372 278 247
f 400 384 389
f 389 384 383
f 369 381 186
f 186 381 263
f 221 271 144
f 144 271 188
f 221 19 207
f 207 19 22
f 19 18 22
f 22 18 23
f 18 219 23
f 23 219 208
f 469 470 472
f 472 470 471
f 474 475 473
f 473 475 476
f 473 476 477
f 477 476 478
f 480 481 479
f 479 481 482
f 483 484 474
f 474 484 475
f 486 487 485
f 485 487 488
f 489 490 77
f 77 490 142
f 491 489 248
f 248 489 77
f 493 494 492
f 492 494 495
f 496 480 484
f 484 480 475
f 486 497 487
f 487 497 471
f 498 496 472
f 472 496 484
f 499 493 478
f 478 493 500
f 501 502 504
f 504 502 503
f 493 492 500
f 500 492 505
f 506 477 500
f 500 477 478
f 499 478 479
f 479 478 476
f 469 507 470
f 470 507 508
f 483 509 469
f 469 509 507
f 479 482 499
f 499 482 510
f 492 495 485
f 485 495 511
f 483 469 484
f 484 469 472
f 473 512 474
f 474 512 513
f 497 498 471
f 471 498 472
f 475 480 476
f 476 480 479
f 470 508 514
f 514 508 515
f 506 502 516
f 516 502 501
f 503 502 488
f 488 502 505
f 514 515 503
f 503 515 504
f 485 488 492
f 492 488 505
f 477 506 517
f 517 506 516
f 474 513 483
f 483 513 509
f 510 292 494
f 494 292 164
f 512 473 517
f 517 473 477
f 491 481 496
f 496 481 480
f 502 506 505
f 505 506 500
f 503 488 514
f 514 488 487
f 514 487 470
f 470 487 471
f 517 516 519
f 519 516 518
f 517 519 512
f 512 519 520
f 512 520 513
f 513 520 521
f 513 521 509
f 509 521 522
f 516 501 518
f 518 501 523
f 501 504 523
f 523 504 524
f 524 504 525
f 525 504 515
f 526 527 523
f 523 527 518
f 529 530 528
f 528 530 531
f 532 533 529
f 529 533 530
f 530 533 535
f 535 533 534
f 536 537 535
f 535 537 538
f 534 539 535
f 535 539 536
f 538 531 535
f 535 531 530
f 540 541 531
f 531 541 528
f 533 532 534
f 534 532 542
f 532 520 542
f 542 520 519
f 532 543 520
f 520 543 521
f 529 544 532
f 532 544 543
f 544 529 545
f 545 529 528
f 534 542 539
f 539 542 527
f 527 542 518
f 518 542 519
f 541 546 528
f 528 546 545
f 547 544 548
f 548 544 545
f 546 549 545
f 545 549 548
f 550 547 551
f 551 547 548
f 547 550 553
f 553 550 552
f 549 554 548
f 548 554 551
f 544 547 543
f 543 547 553
f 543 553 521
f 521 553 522
f 546 541 556
f 556 541 555
f 541 540 555
f 555 540 557
f 536 539 558
f 558 539 527
f 537 536 559
f 559 536 558
f 527 526 558
f 558 526 560
f 559 558 561
f 561 558 560
f 559 562 537
f 537 562 563
f 557 563 555
f 555 563 562
f 509 522 507
f 507 522 564
f 508 565 515
f 515 565 525
f 565 508 564
f 564 508 507
f 564 552 565
f 565 552 566
f 552 550 566
f 566 550 567
f 565 566 525
f 525 566 568
f 564 522 552
f 552 522 553
f 569 524 568
f 568 524 525
f 569 526 524
f 524 526 523
f 570 560 569
f 569 560 526
f 570 569 571
f 571 569 568
f 572 570 573
f 573 570 571
f 566 567 568
f 568 567 571
f 567 574 571
f 571 574 573
f 570 572 560
f 560 572 561
f 576 561 575
f 575 561 572
f 575 578 577
f 577 578 579
f 575 572 578
f 578 572 573
f 575 577 576
f 576 577 556
f 576 556 562
f 562 556 555
f 562 559 576
f 576 559 561
f 550 551 567
f 567 551 574
f 579 574 554
f 554 574 551
f 579 578 574
f 574 578 573
f 579 554 577
f 577 554 549
f 549 546 577
f 577 546 556
f 531 538 540
f 540 538 557
f 557 538 563
f 563 538 537
f 481 294 482
f 482 294 293
f 580 486 511
f 511 486 485
f 490 489 497
f 497 489 498
f 489 491 498
f 498 491 496
f 163 495 164
f 164 495 494
f 580 490 486
f 486 490 497
f 482 293 510
f 510 293 292
f 495 163 511
f 511 163 199
f 494 493 510
f 510 493 499
f 481 491 294
f 294 491 248
f 582 583 581
f 581 583 584
f 586 587 585
f 585 587 588
f 585 588 589
f 589 588 590
f 592 593 591
f 591 593 594
f 595 596 598
f 598 596 597
f 599 600 586
f 586 600 587
f 601 602 604
f 604 602 603
f 605 606 608
f 608 606 607
f 609 607 200
f 200 607 606
f 610 611 613
f 613 611 612
f 600 614 587
f 587 614 592
f 596 605 597
f 597 605 608
f 602 615 603
f 603 615 583
f 616 614 584
f 584 614 600
f 611 618 617
f 617 618 590
f 620 621 619
f 619 621 622
f 610 623 611
f 611 623 618
f 624 589 618
f 618 589 590
f 617 590 591
f 591 590 588
f 581 625 582
f 582 625 626
f 599 627 581
f 581 627 625
f 591 594 617
f 617 594 628
f 601 610 598
f 598 610 613
f 581 584 599
f 599 584 600
f 585 629 586
f 586 629 630
f 615 616 583
f 583 616 584
f 587 592 588
f 588 592 591
f 582 626 631
f 631 626 632
f 624 620 633
f 633 620 619
f 621 620 604
f 604 620 623
f 631 632 621
f 621 632 622
f 610 601 623
f 623 601 604
f 589 624 634
f 634 624 633
f 586 630 599
f 599 630 627
f 203 202 628
f 628 202 612
f 629 585 634
f 634 585 589
f 609 593 614
f 614 593 592
f 620 624 623
f 623 624 618
f 631 621 603
f 603 621 604
f 582 631 583
f 583 631 603
f 634 633 636
f 636 633 635
f 634 636 629
f 629 636 637
f 629 637 630
f 630 637 638
f 630 638 627
f 627 638 639
f 633 619 635
f 635 619 640
f 619 622 640
f 640 622 641
f 641 622 642
f 642 622 632
f 644 635 643
f 643 635 640
f 645 646 648
f 648 646 647
f 649 650 646
f 646 650 647
f 647 650 652
f 652 650 651
f 652 653 655
f 655 653 654
f 651 656 652
f 652 656 653
f 655 648 652
f 652 648 647
f 648 657 645
f 645 657 658
f 650 649 651
f 651 649 659
f 649 637 659
f 659 637 636
f 649 660 637
f 637 660 638
f 661 660 646
f 646 660 649
f 662 661 645
f 645 661 646
f 651 659 656
f 656 659 644
f 644 659 635
f 635 659 636
f 663 662 658
f 658 662 645
f 664 661 665
f 665 661 662
f 663 666 662
f 662 666 665
f 667 664 668
f 668 664 665
f 664 667 670
f 670 667 669
f 666 671 665
f 665 671 668
f 661 664 660
f 660 664 670
f 660 670 638
f 638 670 639
f 658 672 663
f 663 672 673
f 658 657 672
f 672 657 674
f 653 656 675
f 675 656 644
f 653 675 654
f 654 675 676
f 675 644 677
f 677 644 643
f 676 675 678
f 678 675 677
f 679 680 676
f 676 680 654
f 674 680 672
f 672 680 679
f 627 639 625
f 625 639 681
f 626 682 632
f 632 682 642
f 681 682 625
f 625 682 626
f 669 683 681
f 681 683 682
f 667 684 669
f 669 684 683
f 682 683 642
f 642 683 685
f 681 639 669
f 669 639 670
f 686 641 685
f 685 641 642
f 641 686 640
f 640 686 643
f 686 687 643
f 643 687 677
f 687 686 688
f 688 686 685
f 689 687 690
f 690 687 688
f 683 684 685
f 685 684 688
f 684 691 688
f 688 691 690
f 687 689 677
f 677 689 678
f 693 678 692
f 692 678 689
f 692 695 694
f 694 695 696
f 692 689 695
f 695 689 690
f 692 694 693
f 693 694 673
f 693 673 679
f 679 673 672
f 679 676 693
f 693 676 678
f 684 667 691
f 691 667 668
f 696 691 671
f 671 691 668
f 696 695 691
f 691 695 690
f 694 696 666
f 666 696 671
f 666 663 694
f 694 663 673
f 648 655 657
f 657 655 674
f 674 655 680
f 680 655 654
f 593 162 594
f 594 162 290
f 598 597 601
f 601 597 602
f 615 608 616
f 616 608 607
f 607 609 616
f 616 609 614
f 697 595 613
f 613 595 598
f 597 608 602
f 602 608 615
f 594 290 628
f 628 290 203
f 628 612 617
f 617 612 611
f 593 609 162
f 162 609 200
f 105 29 698
f 698 29 699
f 268 126 701
f 701 126 700
f 126 125 700
f 700 125 702
f 252 703 250
f 250 703 704
f 32 268 705
f 705 268 701
f 288 105 706
f 706 105 698
f 29 32 699
f 699 32 705
f 707 251 706
f 706 251 288
f 250 704 125
f 125 704 702
f 703 252 707
f 707 252 251
f 706 708 707
f 707 708 709
f 707 709 703
f 703 709 710
f 703 710 704
f 704 710 711
f 704 711 702
f 702 711 712
f 706 698 708
f 708 698 713
f 698 699 713
f 713 699 714
f 699 705 714
f 714 705 715
f 717 708 716
f 716 708 713
f 719 720 718
f 718 720 721
f 722 723 719
f 719 723 720
f 724 725 723
f 723 725 720
f 724 726 725
f 725 726 727
f 728 721 725
f 725 721 720
f 721 728 729
f 729 728 730
f 729 731 721
f 721 731 718
f 724 723 732
f 732 723 722
f 722 710 732
f 732 710 709
f 722 733 710
f 710 733 711
f 719 734 722
f 722 734 733
f 734 719 735
f 735 719 718
f 724 732 726
f 726 732 717
f 717 732 708
f 708 732 709
f 731 736 718
f 718 736 735
f 737 734 738
f 738 734 735
f 736 739 735
f 735 739 738
f 740 737 741
f 741 737 738
f 737 740 743
f 743 740 742
f 739 744 738
f 738 744 741
f 734 737 733
f 733 737 743
f 733 743 711
f 711 743 712
f 736 731 746
f 746 731 745
f 731 729 745
f 745 729 730
f 727 726 747
f 747 726 717
f 748 727 749
f 749 727 747
f 747 717 750
f 750 717 716
f 749 747 751
f 751 747 750
f 749 752 748
f 748 752 753
f 730 753 745
f 745 753 752
f 728 725 748
f 748 725 727
f 730 728 753
f 753 728 748
f 700 702 754
f 754 702 712
f 705 701 715
f 715 701 755
f 754 755 700
f 700 755 701
f 742 756 754
f 754 756 755
f 740 757 742
f 742 757 756
f 755 756 715
f 715 756 758
f 754 712 742
f 742 712 743
f 759 714 758
f 758 714 715
f 714 759 713
f 713 759 716
f 759 760 716
f 716 760 750
f 760 759 761
f 761 759 758
f 762 760 763
f 763 760 761
f 756 757 758
f 758 757 761
f 757 764 761
f 761 764 763
f 760 762 750
f 750 762 751
f 766 751 765
f 765 751 762
f 767 765 769
f 769 765 768
f 765 762 768
f 768 762 763
f 765 767 766
f 766 767 746
f 766 746 752
f 752 746 745
f 752 749 766
f 766 749 751
f 757 740 764
f 764 740 741
f 769 764 744
f 744 764 741
f 769 768 764
f 764 768 763
f 767 769 739
f 739 769 744
f 739 736 767
f 767 736 746
f 219 217 208
f 208 217 209
f 209 217 210
f 210 217 193
f 198 580 199
f 199 580 511
f 76 75 289
f 289 75 272
f 277 207 291
f 291 207 184
f 290 183 203
f 203 183 84
f 490 580 142
f 142 580 198
f 142 198 143
f 143 198 197
f 149 276 72
f 72 276 73
f 104 103 279
f 279 103 770
f 770 596 279
f 279 596 595
f 605 596 771
f 771 596 770
f 771 770 772
f 772 770 103
f 772 103 773
f 773 103 102
f 155 774 101
f 101 774 102
f 773 102 97
f 97 102 774
f 775 773 100
f 100 773 97
f 773 775 772
f 772 775 776
f 772 776 771
f 771 776 777
f 200 606 197
f 197 606 777
f 189 71 778
f 778 71 74
f 97 774 98
f 98 774 155
f 183 161 184
f 184 161 291
f 777 276 197
f 197 276 143
f 777 606 771
f 771 606 605
f 613 612 697
f 697 612 202
f 595 697 279
f 279 697 202
f 73 276 776
f 776 276 777
f 776 775 73
f 73 775 74
f 100 778 775
f 775 778 74
f 778 100 189
f 189 100 99
f 245 242 99
f 99 242 189
f 131 33 256
f 28 1 95
f 95 1 62
f 27 2 28
f 28 2 1
f 265 115 266
f 266 115 114
f 95 62 69
f 69 62 64
f 62 61 64
f 64 61 65
f 61 13 65
f 65 13 130
f 13 12 130
f 130 12 14
f 31 11 32
f 32 11 268
f 15 12 31
f 31 12 11
f 31 30 15
f 15 30 231
f 30 106 231
f 231 106 232
f 287 237 106
f 106 237 232
f 254 90 287
f 287 90 237
f 253 44 254
f 254 44 90
f 253 249 44
f 44 249 7
f 267 127 268
f 268 127 126
f 10 3 241
f 241 3 116
f 3 2 116
f 116 2 114
f 2 27 114
f 114 27 266
f 27 26 266
f 266 26 113
f 26 286 113
f 113 286 110
f 286 243 110
f 110 243 255
f 243 242 255
f 255 242 256
f 242 245 256
f 256 245 131
f 245 244 131
f 131 244 132
f 265 37 115
f 115 37 41
f 41 37 42
f 42 37 40
f 92 91 40
f 40 91 42
f 236 233 92
f 92 233 91
f 191 194 236
f 236 194 233
f 258 285 244
f 244 285 132
f 257 55 258
f 258 55 285
f 257 154 201
f 201 154 185
f 56 201 204
f 204 201 180
f 55 257 56
f 56 257 201
f 204 85 56
f 56 85 52
f 86 122 53
f 53 122 79
f 212 215 86
f 86 215 122
f 211 216 212
f 212 216 215
f 192 280 211
f 211 280 216
f 191 240 192
f 192 240 280
f 249 124 7
f 7 124 8
f 124 127 8
f 8 127 241
f 127 267 241
f 241 267 10
f 10 267 9
f 9 267 11
