v 0.053273748606443405 0.10138805210590363 0.6823533773422241
v 0.06562750041484833 0.09713759273290634 0.6819464564323425
v 0.05848793685436249 0.09280432015657425 0.6878435611724854
v 0.04793846234679222 0.09747996926307678 0.6883659362792969
v 0.0757339596748352 0.08960549533367157 0.7003761529922485
v 0.07979686558246613 0.09515199065208435 0.7098864316940308
v 0.06302107125520706 0.09302199631929398 0.7115749716758728
v 0.06283044815063477 0.08790254592895508 0.7026864290237427
v 0.04272478073835373 0.09740528464317322 0.6924103498458862
v 0.05151870474219322 0.09113207459449768 0.6916511058807373
v 0.04087281599640846 0.10292673856019974 0.6930603981018066
v 0.033280596137046814 0.11175865679979324 0.697482168674469
v 0.034225061535835266 0.10504896938800812 0.6957874894142151
v 0.02615535631775856 0.11586133390665054 0.6983346343040466
v 0.039196014404296875 0.1214456781744957 0.6980487704277039
v 0.028342992067337036 0.12410593777894974 0.6944867968559265
v 0.047618914395570755 0.13569293916225433 0.6793606877326965
v 0.051089607179164886 0.13663996756076813 0.6671724915504456
v 0.03553019464015961 0.13480022549629211 0.6657569408416748
v 0.03355632722377777 0.13317899405956268 0.6784390807151794
v 0.045602403581142426 0.13145412504673004 0.6485390067100525
v 0.03912162780761719 0.13338397443294525 0.6578881144523621
v 0.054866351187229156 0.1363794356584549 0.6592684984207153
v 0.05997607856988907 0.13430511951446533 0.650789737701416
v 0.0607420839369297 0.10614306479692459 0.6706123352050781
v 0.07218082994222641 0.10420117527246475 0.6696410775184631
v 0.07057159394025803 0.10235942155122757 0.6740673184394836
v 0.05902748927474022 0.10495758056640625 0.6750945448875427
v 0.03905489668250084 0.10652250796556473 0.6983956098556519
v 0.046328309923410416 0.11445942521095276 0.7025275826454163
v 0.041895512491464615 0.11078561097383499 0.6974292397499084
v 0.03905844688415527 0.10213669389486313 0.6949388384819031
v 0.09764786809682846 0.09806300699710846 0.6615585684776306
v 0.10948991030454636 0.1039041131734848 0.6638520956039429
v 0.10885050892829895 0.10436667501926422 0.6697800159454346
v 0.09826818853616714 0.09924834221601486 0.6664553880691528
v 0.10079117119312286 0.10091216117143631 0.6950321197509766
v 0.10803768783807755 0.10683409124612808 0.6890559196472168
v 0.11192818731069565 0.11601398885250092 0.6979914307594299
v 0.10286947339773178 0.11378027498722076 0.7026933431625366
v 0.09100709855556488 0.09660719335079193 0.703973650932312
v 0.09314435720443726 0.10783299058675766 0.7096157670021057
v 0.07898329943418503 0.10563886165618896 0.7150732278823853
v 0.06093474477529526 0.10114815086126328 0.7160486578941345
v 0.11095389723777771 0.10588037967681885 0.6512954831123352
v 0.1026223674416542 0.10135865956544876 0.6478027701377869
v -0.016140196472406387 0.14430959522724152 0.6851957440376282
v -0.015599778853356838 0.14316987991333008 0.6794756650924683
v -0.014348006807267666 0.1364557147026062 0.682680070400238
v -0.014495345763862133 0.13891670107841492 0.6876271367073059
v 0.10429016500711441 0.12013491243124008 0.638844907283783
v 0.10284994542598724 0.13003765046596527 0.6397645473480225
v 0.1100110188126564 0.12897352874279022 0.639549970626831
v 0.11156819015741348 0.11979599297046661 0.6405722498893738
v 0.09463867545127869 0.12046060711145401 0.6366708874702454
v 0.09282948821783066 0.13087299466133118 0.6405840516090393
v -0.005843408405780792 0.1498759537935257 0.6885939836502075
v -0.010588514618575573 0.14864502847194672 0.6899046897888184
v -0.007711591199040413 0.14424262940883636 0.6916521191596985
v -0.0027192598208785057 0.14503978192806244 0.6892529129981995
v 0.03767149895429611 0.10200391709804535 0.6914029121398926
v 0.04264252632856369 0.10263023525476456 0.6840303540229797
v 0.014229432679712772 0.10672084242105484 0.6918082237243652
v 0.027790307998657227 0.10457606613636017 0.6872255802154541
v 0.02730061113834381 0.10510768741369247 0.6943405270576477
v 0.01694941706955433 0.10859762877225876 0.6973132491111755
v 0.03820936381816864 0.10703837871551514 0.6657206416130066
v 0.04993226379156113 0.10734706372022629 0.6669649481773376
v 0.046983033418655396 0.10706742107868195 0.6726445555686951
v 0.03375207632780075 0.10608682036399841 0.6730964183807373
v 0.05433692783117294 0.10462378710508347 0.6538522243499756
v 0.04245728999376297 0.10499528795480728 0.6537019610404968
v 0.04637540504336357 0.10331413894891739 0.646388828754425
v 0.054163094609975815 0.10245440155267715 0.6477574706077576
v 0.01983775943517685 0.10674237459897995 0.656247079372406
v 0.011510701850056648 0.11058905720710754 0.6556481719017029
v 0.01104872114956379 0.11352413892745972 0.6507038474082947
v 0.02079082652926445 0.10746065527200699 0.6525654792785645
v 0.11705681681632996 0.12899057567119598 0.6397998929023743
v 0.1183396577835083 0.11985809355974197 0.6431095004081726
v 0.05450378730893135 0.1244557723402977 0.6305601000785828
v 0.06092577427625656 0.11702162772417068 0.6260379552841187
v 0.048824671655893326 0.1130651906132698 0.6226123571395874
v 0.04559643939137459 0.12228259444236755 0.628143846988678
v 0.09970907866954803 0.13760781288146973 0.6460558772087097
v 0.1071849837899208 0.13760018348693848 0.6437767148017883
v -0.0016188668087124825 0.15006759762763977 0.6839677095413208
v 0.00047735683619976044 0.14549881219863892 0.6839819550514221
v 0.07898832112550735 0.11718574166297913 0.7125636339187622
v 0.05953184887766838 0.11028528958559036 0.7149309515953064
v 0.09339702129364014 0.12137164175510406 0.7071933150291443
v 0.10250650346279144 0.1251741200685501 0.701895534992218
v 0.11092091351747513 0.12749074399471283 0.6998745799064636
v 0.023591656237840652 0.10428886115550995 0.6815350651741028
v 0.04890647530555725 0.1050647646188736 0.6777641177177429
v 0.06230751797556877 0.10607770830392838 0.6661168336868286
v 0.06733287870883942 0.09842171519994736 0.6370117664337158
v 0.077692911028862 0.09809102863073349 0.6386223435401917
v 0.07198281586170197 0.09785163402557373 0.6475979685783386
v 0.06406432390213013 0.09885720908641815 0.644262969493866
v 0.06185063719749451 0.10722972452640533 0.6252097487449646
v 0.05933722108602524 0.1012897938489914 0.6295927166938782
v 0.05069870129227638 0.10071536153554916 0.6285237073898315
v 0.05152219161391258 0.10529870539903641 0.6237000823020935
v 0.03900943323969841 0.10869286954402924 0.7051098346710205
v 0.05086719989776611 0.11698073148727417 0.7071307301521301
v 0.1050349697470665 0.1100405752658844 0.6415997743606567
v 0.11168742924928665 0.11092469096183777 0.645420491695404
v 0.11933398246765137 0.1136309802532196 0.6476483345031738
v 0.08535940945148468 0.10009133070707321 0.6672805547714233
v 0.09882204979658127 0.09982404112815857 0.6701487302780151
v 0.0980726107954979 0.09896695613861084 0.675446093082428
v 0.08518941700458527 0.10015871375799179 0.6704292297363281
v 0.07771199941635132 0.09209717810153961 0.6857264637947083
v 0.08854381740093231 0.09233011305332184 0.6918874979019165
v 0.06747173517942429 0.08818411827087402 0.6914152503013611
v 0.1097143292427063 0.10526604950428009 0.6783124208450317
v 0.1185637041926384 0.10650826245546341 0.6716601252555847
v 0.11808297038078308 0.10819362848997116 0.6805090308189392
v 0.1195041686296463 0.10729482769966125 0.6619419455528259
v 0.11981850117444992 0.10950767248868942 0.6533219814300537
v 0.11500178277492523 0.14046290516853333 0.6421880125999451
v 0.11651597172021866 0.11133281141519547 0.6882998943328857
v 0.05393723025918007 0.08751212805509567 0.7025644183158875
v 0.04564721882343292 0.08680928498506546 0.7018364071846008
v 0.044235486537218094 0.08951511979103088 0.6945374608039856
v 0.051499951630830765 0.0893193930387497 0.6944475769996643
v 0.018106430768966675 0.12129327654838562 0.698027491569519
v 0.016428492963314056 0.11422642320394516 0.6996487975120544
v 0.02747240662574768 0.10901051014661789 0.6990997791290283
v 0.08806267380714417 0.09700418263673782 0.6551608443260193
v 0.09281288832426071 0.09954633563756943 0.6438114643096924
v 0.010644081979990005 0.10802409797906876 0.6858710646629333
v 0.0016152304597198963 0.14419475197792053 0.6885135769844055
v -0.0024297647178173065 0.1420339047908783 0.6923145651817322
v 0.009486662223935127 0.1326896846294403 0.694766640663147
v 0.01230650395154953 0.13614371418952942 0.6901795268058777
v 0.004566915333271027 0.11721166968345642 0.6799458265304565
v 0.005355664528906345 0.11402514576911926 0.6852555274963379
v 0.0031000201124697924 0.11855799704790115 0.684023916721344
v 0.00229797069914639 0.12175269424915314 0.6786519289016724
v 0.015795467421412468 0.11030225455760956 0.6442615389823914
v 0.02482464164495468 0.1055096685886383 0.6458272933959961
v 0.018957151100039482 0.12813891470432281 0.6766729354858398
v 0.022971168160438538 0.12909020483493805 0.6880024075508118
v 0.03197428211569786 0.13074342906475067 0.6873313188552856
v 0.04139394313097 0.10630807280540466 0.6590217351913452
v 0.030632704496383667 0.10579364746809006 0.6570817232131958
v 0.0318097248673439 0.10555452108383179 0.6531909108161926
v 0.020103003829717636 0.1053176149725914 0.6779995560646057
v 0.010124124586582184 0.10848307609558105 0.6797232031822205
v 0.015216575935482979 0.10751143842935562 0.6744838953018188
v 0.024143602699041367 0.10624618828296661 0.672881543636322
v 0.07333684712648392 0.1195717379450798 0.6291159391403198
v 0.07437105476856232 0.10808351635932922 0.6276335716247559
v -0.014274665154516697 0.14643582701683044 0.6888758540153503
v -0.01182165089994669 0.14145468175411224 0.6910458207130432
v 0.05280342325568199 0.10660997033119202 0.6603831648826599
v 0.044871434569358826 0.1317872852087021 0.6876063942909241
v 0.06411504000425339 0.10531927645206451 0.6610856652259827
v 0.03137017413973808 0.12133222818374634 0.6382526159286499
v 0.029449306428432465 0.11541164666414261 0.6343328952789307
v 0.024214453995227814 0.11627025157213211 0.6359954476356506
v 0.026464153081178665 0.12146531045436859 0.6374571323394775
v -0.005891210399568081 0.1335151046514511 0.6742035746574402
v -0.00958194863051176 0.13217070698738098 0.678578794002533
v -0.012486950494349003 0.13577458262443542 0.6766639947891235
v -0.008312970399856567 0.13680873811244965 0.6731148958206177
v 0.00662390049546957 0.11425454914569855 0.6910245418548584
v 0.009223779663443565 0.11569365859031677 0.6967244148254395
v 0.003907214850187302 0.12208455801010132 0.6941957473754883
v 0.002809960162267089 0.11993297934532166 0.6889752745628357
v 0.01084375474601984 0.1219550222158432 0.6981678605079651
v 0.006569872610270977 0.12740157544612885 0.6962291598320007
v -0.00034285569563508034 0.1372223198413849 0.6737011671066284
v 0.004687779117375612 0.141884908080101 0.6775645017623901
v 0.011644450016319752 0.13361279666423798 0.6778742671012878
v 0.005420949310064316 0.12862730026245117 0.6764348745346069
v 0.07422921806573868 0.137521892786026 0.6532808542251587
v 0.07794882357120514 0.13370651006698608 0.6436504125595093
v 0.06374024599790573 0.13052615523338318 0.6408095955848694
v 0.05018015578389168 0.1277923285961151 0.637591540813446
v 0.037989355623722076 0.12355964630842209 0.6358016133308411
v 0.03460829332470894 0.12916149199008942 0.6462946534156799
v 0.06770896911621094 0.12743233144283295 0.6345614790916443
v 0.007833130657672882 0.12222403287887573 0.675094485282898
v 0.01460691262036562 0.12672193348407745 0.6800158023834229
v 0.012363574467599392 0.1267402023077011 0.6753824353218079
v 0.06571769714355469 0.10261054337024689 0.6543828845024109
v -0.005860160104930401 0.1390278935432434 0.6928403377532959
v 0.10008176416158676 0.1414063572883606 0.6881065368652344
v 0.10030469298362732 0.14519323408603668 0.6756493449211121
v 0.09189416468143463 0.1432054191827774 0.6772456765174866
v 0.09135247021913528 0.13849233090877533 0.6906268000602722
v -0.010768421925604343 0.1323159784078598 0.6853819489479065
v -0.009642810560762882 0.13508546352386475 0.6905432939529419
v 0.026464562863111496 0.10439502447843552 0.6399869918823242
v 0.018853016197681427 0.10923803597688675 0.6394727230072021
v 0.0194100271910429 0.11128727346658707 0.6363442540168762
v 0.02553105354309082 0.10489754378795624 0.6353050470352173
v 0.0811738446354866 0.1311878114938736 0.6394551992416382
v 0.04063263535499573 0.10721690952777863 0.6219518184661865
v 0.03928367793560028 0.11708864569664001 0.6251300573348999
v 0.09031346440315247 0.1365383267402649 0.6465235352516174
v 0.08714531362056732 0.14047706127166748 0.6547821760177612
v 0.09661456942558289 0.14247192442417145 0.6552756428718567
v 0.023362159729003906 0.1298014521598816 0.6566979289054871
v 0.06960351020097733 0.13902196288108826 0.6603814363479614
v 0.08370805531740189 0.14142034947872162 0.6615034341812134
v 0.0948898196220398 0.14381325244903564 0.6623995900154114
v 0.10290481895208359 0.14604875445365906 0.6623018980026245
v 0.10402718931436539 0.14414015412330627 0.6545150279998779
v 0.004055058117955923 0.14363814890384674 0.6826948523521423
v 0.0015607508830726147 0.14377613365650177 0.6782438158988953
v 0.11231197416782379 0.14752469956874847 0.653085470199585
v 0.11081818491220474 0.14889785647392273 0.6620822548866272
v 0.08057459443807602 0.14164063334465027 0.6701387763023376
v 0.07716798782348633 0.14065194129943848 0.6801167726516724
v 0.06707791984081268 0.13915571570396423 0.6686135530471802
v 0.06258051097393036 0.13803359866142273 0.6785361766815186
v 0.024792790412902832 0.13356661796569824 0.6662323474884033
v -0.005089935846626759 0.15781402587890625 0.6716683506965637
v -0.002375437878072262 0.14672935009002686 0.6733697056770325
v -0.007468327879905701 0.14414472877979279 0.671487033367157
v -0.007531419396400452 0.15482473373413086 0.6690672039985657
v -0.0029554730281233788 0.13974344730377197 0.6738128066062927
v 0.00026953592896461487 0.14877621829509735 0.6780290603637695
v 0.059646088629961014 0.1330723613500595 0.6895453929901123
v 0.006456403993070126 0.11236683279275894 0.674548864364624
v 0.07536687701940536 0.13362281024456024 0.6934743523597717
v 0.051287584006786346 0.12594854831695557 0.699686586856842
v 0.06251592934131622 0.1250297874212265 0.7030497193336487
v 0.0911666750907898 0.13262490928173065 0.70029616355896
v 0.07709365338087082 0.12663152813911438 0.7064846754074097
v 0.1087065115571022 0.13663533329963684 0.695529580116272
v 0.09986745566129684 0.13509248197078705 0.696984052658081
v 0.06279801577329636 0.11962626874446869 0.710225522518158
v -0.019452989101409912 0.15190400183200836 0.6770358085632324
v -0.0167071633040905 0.14999821782112122 0.6722346544265747
v 0.10809836536645889 0.14372244477272034 0.687247633934021
v 0.058094125241041183 0.08796758204698563 0.6938453912734985
v 0.07597534358501434 0.10071311146020889 0.6576389670372009
v 0.07443103194236755 0.10281152278184891 0.662445604801178
v 0.08376938104629517 0.09842916578054428 0.6403607726097107
v 0.07905387878417969 0.09755304455757141 0.6510531902313232
v -0.018929358571767807 0.1547221839427948 0.6815428733825684
v 0.009255418553948402 0.11674340069293976 0.6538462042808533
v 0.010536379180848598 0.1194758340716362 0.6513249278068542
v 0.05367312207818031 0.09053277969360352 0.7107910513877869
v 0.046033211052417755 0.08870640397071838 0.7093267440795898
v 0.04006846621632576 0.0998377576470375 0.7131701111793518
v 0.04286879673600197 0.09325054287910461 0.7136819958686829
v 0.05125107988715172 0.09742911159992218 0.7152076363563538
v 0.04885510727763176 0.10472933948040009 0.7144089937210083
v 0.0852215588092804 0.09964887797832489 0.6646651029586792
v 0.08548431843519211 0.09880439192056656 0.6608538627624512
v 0.08475229144096375 0.11987621337175369 0.6328096985816956
v 0.08495594561100006 0.10843250900506973 0.6315977573394775
v 0.01372910849750042 0.12669619917869568 0.6961281299591064
v 0.020587977021932602 0.1265217810869217 0.6939755082130432
v 0.016780130565166473 0.13064078986644745 0.6913141012191772
v 0.014406918548047543 0.135744109749794 0.6839478015899658
v 0.004284870810806751 0.11819984763860703 0.6740198135375977
v 0.007913602516055107 0.1221056580543518 0.6781586408615112
v 0.09379549324512482 0.09560178220272064 0.6824228167533875
v 0.08308509737253189 0.09733269363641739 0.6768664121627808
v 0.04699292406439781 0.0931415781378746 0.6923859119415283
v 0.04146167263388634 0.09518599510192871 0.6919353604316711
v 0.028750285506248474 0.10632738471031189 0.666042685508728
v 0.015691347420215607 0.12974408268928528 0.6575031280517578
v 0.015874039381742477 0.13363032042980194 0.665306568145752
v 0.018569931387901306 0.1072409600019455 0.6659217476844788
v -0.012737392447888851 0.160260409116745 0.6828423738479614
v -0.01700328290462494 0.1574382781982422 0.6830453872680664
v 0.01762652024626732 0.13082244992256165 0.6856985092163086
v 0.03522335737943649 0.10313405841588974 0.6460853815078735
v 0.02075076848268509 0.12681959569454193 0.652967631816864
v 0.012949325144290924 0.12377883493900299 0.6540839076042175
v 0.04545111954212189 0.10229457169771194 0.6239887475967407
v 0.10893963277339935 0.14721955358982086 0.6752452850341797
v -0.012605699710547924 0.14320190250873566 0.6735736131668091
v -0.012662890367209911 0.15022170543670654 0.6689328551292419
v -0.003940668888390064 0.15977871417999268 0.6752550005912781
v -0.006306962110102177 0.160645991563797 0.6804341077804565
v 0.09429692476987839 0.10838284343481064 0.6369903683662415
v 0.07311694324016571 0.10393327474594116 0.6655148267745972
v 0.050299420952796936 0.11355593800544739 0.7105182409286499
v 0.03907957300543785 0.10612452030181885 0.7093589305877686
v 0.010780613869428635 0.10949394851922989 0.6655598878860474
v 0.03460369259119034 0.11800486594438553 0.6311177015304565
v 0.02830137312412262 0.12778742611408234 0.6446539759635925
v 0.02545616403222084 0.12841454148292542 0.6423142552375793
v 0.020042244344949722 0.13005465269088745 0.6459543704986572
v 0.012890666723251343 0.12768328189849854 0.6474285125732422
v -0.006078673526644707 0.1633901745080948 0.6720336079597473
v -0.009465545415878296 0.16550150513648987 0.6761220693588257
v -0.015169122256338596 0.16518926620483398 0.6765568256378174
v -0.019384942948818207 0.1617756187915802 0.6772068738937378
v -0.020833846181631088 0.1571500152349472 0.6768726706504822
v -0.006907843053340912 0.1608482301235199 0.6688687205314636
v -0.008565478026866913 0.15774518251419067 0.667328417301178
v -0.01307555753737688 0.1526498794555664 0.6682761907577515
v -0.006214347667992115 0.1613653600215912 0.6653368473052979
v -0.006554584018886089 0.1659150868654251 0.6659635901451111
v -0.017567913979291916 0.1713334619998932 0.6638147830963135
v -0.014990978874266148 0.16987411677837372 0.6685985326766968
v -0.013965790160000324 0.17064011096954346 0.6666074991226196
v -0.015118208713829517 0.17253175377845764 0.6624297499656677
v -0.014812461100518703 0.1747753918170929 0.6580986380577087
v -0.017976190894842148 0.17356812953948975 0.6589894890785217
v -0.010234537534415722 0.16854016482830048 0.6677687764167786
v -0.011017064563930035 0.17115047574043274 0.6621198654174805
v -0.00784939993172884 0.16894564032554626 0.6605826020240784
v -0.007969892583787441 0.17200402915477753 0.6563465595245361
v -0.010863077826797962 0.174313485622406 0.6575610041618347
v -0.007620546035468578 0.16745410859584808 0.6646262407302856
v -0.009858003817498684 0.1683066040277481 0.6693803071975708
v -0.01622782275080681 0.17453524470329285 0.6551734805107117
v -0.014134054072201252 0.17576442658901215 0.6556383371353149
v -0.01109613198786974 0.17500275373458862 0.6548362374305725
v -0.012327478267252445 0.17416810989379883 0.6523233652114868
v -0.019092164933681488 0.16557015478610992 0.6711229085922241
v -0.01929822564125061 0.16966241598129272 0.6635145545005798
v -0.018762093037366867 0.1708727777004242 0.6579537987709045
v -0.016936738044023514 0.17206650972366333 0.6542630195617676
v -0.019691865891218185 0.16652712225914001 0.6612840890884399
v -0.018416885286569595 0.1681884080171585 0.6570438742637634
v -0.01666303724050522 0.1688607633113861 0.6536443829536438
v -0.018432732671499252 0.16332292556762695 0.6590099334716797
v -0.017166290432214737 0.16568061709403992 0.6556774973869324
v -0.01998409628868103 0.15665054321289062 0.6704792976379395
v -0.02045278623700142 0.160225048661232 0.6721240282058716
v -0.016526449471712112 0.1667523980140686 0.653436541557312
v -0.012684236280620098 0.1721779704093933 0.6516470313072205
v -0.006412970833480358 0.16565389931201935 0.6604267358779907
v -0.007486612536013126 0.16899432241916656 0.6549164056777954
v -0.006566870026290417 0.1636868417263031 0.6595648527145386
v -0.007287877611815929 0.1667589694261551 0.6539496779441833
v -0.008194954134523869 0.1717575192451477 0.6520290374755859
v -0.008802701719105244 0.17323210835456848 0.6540724039077759
v -0.019834034144878387 0.1531006395816803 0.6743809580802917
v -0.016399893909692764 0.1514047086238861 0.6706321239471436
v -0.015739280730485916 0.15397679805755615 0.6677040457725525
v -0.01513990480452776 0.1606006920337677 0.6572928428649902
v -0.01185427512973547 0.15434424579143524 0.6654996871948242
v -0.007387349382042885 0.15864938497543335 0.6635552644729614
v -0.007684680633246899 0.16201409697532654 0.6578534841537476
v -0.01030717883259058 0.16042351722717285 0.6568920612335205
v -0.008637591265141964 0.16466590762138367 0.6538344025611877
v -0.010965215973556042 0.16356569528579712 0.6539326906204224
v -0.014572481624782085 0.16367512941360474 0.6542847156524658
v -0.010460051707923412 0.16707292199134827 0.6515039801597595
v -0.00887612160295248 0.16961689293384552 0.6514617800712585
v -0.013549202121794224 0.16893112659454346 0.6515403985977173
v -0.011496021412312984 0.1654951274394989 0.6522073745727539
v -0.014104156754910946 0.16660155355930328 0.6526702046394348
v -0.027155105024576187 0.1299528032541275 0.6504624485969543
v -0.024568919092416763 0.1279165893793106 0.6451919078826904
v -0.02026689052581787 0.12269189953804016 0.6494678258895874
v -0.02268565446138382 0.12470492720603943 0.6540216207504272
v -0.0194142647087574 0.13925528526306152 0.6555989980697632
v -0.024270500987768173 0.13595426082611084 0.6560038924217224
v -0.021029945462942123 0.13317334651947021 0.6592492461204529
v -0.016265537589788437 0.13773484528064728 0.6575793027877808
v -0.014462028630077839 0.13985545933246613 0.6515672206878662
v -0.011522256769239902 0.13845479488372803 0.6531169414520264
v -0.01283902209252119 0.13800668716430664 0.6590872406959534
v -0.01648193970322609 0.13232989609241486 0.661403238773346
v 0.0018187877722084522 0.12579599022865295 0.6702471375465393
v 0.003957665525376797 0.13238082826137543 0.6678162813186646
v 0.005166789051145315 0.11336492002010345 0.657720685005188
v 0.005405084230005741 0.11676420271396637 0.6553961634635925
v -0.026737570762634277 0.1325969398021698 0.6535784602165222
v -0.022717300802469254 0.12869583070278168 0.6574947834014893
v -0.010772689245641232 0.12306680530309677 0.6448104977607727
v -0.0138810770586133 0.12027217447757721 0.6483234763145447
v -0.017810244113206863 0.12287361919879913 0.6451370120048523
v -0.01413435023277998 0.12546074390411377 0.6425318121910095
v 0.002126201055943966 0.11661660671234131 0.6688596606254578
v 0.004471070598810911 0.11367093771696091 0.6637237668037415
v 0.0011725039221346378 0.1207152009010315 0.6698427796363831
v -0.007942347787320614 0.1287560909986496 0.6441813111305237
v -0.0064017996191978455 0.13504448533058167 0.6463645100593567
v 0.00863067340105772 0.1315050572156906 0.65453040599823
v 0.007372216321527958 0.12495136260986328 0.6525334715843201
v -0.01853622868657112 0.12703551352024078 0.6605075001716614
v -0.01649036630988121 0.12026220560073853 0.6530807018280029
v -0.018431920558214188 0.12232786417007446 0.6572917699813843
v -0.008785203099250793 0.1386108696460724 0.6532109379768372
v -0.009501905180513859 0.13563226163387299 0.6458234786987305
v -0.019131388515233994 0.14208786189556122 0.6347402930259705
v -0.013561883009970188 0.13337181508541107 0.6408855319023132
v -0.017348062247037888 0.13024945557117462 0.6398416757583618
v -0.022609952837228775 0.1395963579416275 0.6326784491539001
v -0.011282817460596561 0.12985537946224213 0.6425818800926208
v -0.011946101672947407 0.13728392124176025 0.6450378894805908
v -0.03340993449091911 0.14164720475673676 0.6392363905906677
v -0.03096192702651024 0.13924898207187653 0.6343408226966858
v -0.032931264489889145 0.1444440335035324 0.6426616311073303
v 0.007088445592671633 0.1349642425775528 0.6611029505729675
v -0.024944934993982315 0.1483287662267685 0.6467046737670898
v -0.0305425226688385 0.14629694819450378 0.6455657482147217
v -0.02140175923705101 0.1280766874551773 0.6411004066467285
v -0.026969585567712784 0.13896936178207397 0.6322369575500488
v -0.01743653044104576 0.1451280117034912 0.6378687620162964
v -0.0189046673476696 0.1477954238653183 0.6442492604255676
v -0.022377967834472656 0.1462951898574829 0.6321594715118408
v -0.022305205464363098 0.15040552616119385 0.6368807554244995
v -0.02673080563545227 0.15192151069641113 0.6390990614891052
v -0.03155653178691864 0.15118573606014252 0.6391807794570923
v -0.03422624245285988 0.14872190356254578 0.6377642750740051
v -0.023710928857326508 0.14421799778938293 0.6300636529922485
v -0.027031123638153076 0.14254292845726013 0.6282042860984802
v -0.030576948076486588 0.14140358567237854 0.6299688816070557
v -0.025043059140443802 0.14552432298660278 0.624403178691864
v -0.022946495562791824 0.14828887581825256 0.6254846453666687
v -0.025137726217508316 0.16324526071548462 0.6218481063842773
v -0.025301281362771988 0.16048219799995422 0.6265480518341064
v -0.023073822259902954 0.15953996777534485 0.6255800724029541
v -0.02265194058418274 0.16199150681495667 0.6211852431297302
v -0.02432803437113762 0.15699636936187744 0.6308671236038208
v -0.02271367609500885 0.15691377222537994 0.6285203695297241
v -0.021506257355213165 0.15289880335330963 0.6274515986442566
v -0.021518375724554062 0.15577426552772522 0.6232142448425293
v -0.021572202444076538 0.15137162804603577 0.6213955283164978
v -0.020311690866947174 0.1537824422121048 0.617097020149231
v -0.019819337874650955 0.15842099487781525 0.6187654137611389
v -0.021342337131500244 0.1505078226327896 0.6246098875999451
v -0.022210262715816498 0.1625443398952484 0.6179520487785339
v -0.024297170341014862 0.16334092617034912 0.6166216731071472
v -0.023341674357652664 0.15201161801815033 0.6296122074127197
v -0.029575824737548828 0.15539976954460144 0.6348889470100403
v -0.028324391692876816 0.16060109436511993 0.6267188191413879
v -0.028080973774194717 0.16296572983264923 0.6208767890930176
v -0.026661787182092667 0.16210797429084778 0.6151723861694336
v -0.03148337081074715 0.15898160636425018 0.6250705122947693
v -0.030253268778324127 0.16120459139347076 0.6194770932197571
v -0.02862217277288437 0.16021719574928284 0.6149717569351196
v -0.03380934149026871 0.15600809454917908 0.6226122975349426
v -0.03199825435876846 0.15806296467781067 0.617443859577179
v -0.035825733095407486 0.14944973587989807 0.6324848532676697
v -0.03375199809670448 0.15293246507644653 0.6344892382621765
v -0.030276600271463394 0.15860822796821594 0.6154378652572632
v -0.0216219462454319 0.16033658385276794 0.6137192845344543
v -0.024736419320106506 0.15944410860538483 0.6125041246414185
v -0.020627226680517197 0.1600126326084137 0.6152685284614563
v -0.022440604865550995 0.1497422158718109 0.6203373670578003
v -0.02173984795808792 0.15252244472503662 0.6157026290893555
v -0.02422374114394188 0.14819873869419098 0.6193364262580872
v -0.02357550337910652 0.1517711579799652 0.6143786907196045
v -0.021429479122161865 0.15560282766819 0.6129236817359924
v -0.020326294004917145 0.1565571129322052 0.6139707565307617
v -0.03464658930897713 0.14536577463150024 0.6355426907539368
v -0.03301989659667015 0.14208932220935822 0.6319631338119507
v -0.035389434546232224 0.14548423886299133 0.6294677257537842
v -0.03367976099252701 0.15194399654865265 0.6203265190124512
v -0.03255680948495865 0.14356468617916107 0.6271073818206787
v -0.028113778680562973 0.1442132592201233 0.6243530511856079
v -0.026931490749120712 0.1476443111896515 0.6191498637199402
v -0.030541442334651947 0.14892007410526276 0.6190249919891357
v -0.025591108947992325 0.15083909034729004 0.6138900518417358
v -0.028625890612602234 0.151082843542099 0.6152881979942322
v -0.031753093004226685 0.1544979363679886 0.616118848323822
v -0.02523007243871689 0.15435035526752472 0.6115477085113525
v -0.022925756871700287 0.1551024317741394 0.612001359462738
v -0.026713084429502487 0.15835756063461304 0.6126737594604492
v -0.02783076837658882 0.15358997881412506 0.6129032969474792
v -0.029298562556505203 0.15676471590995789 0.6137145757675171
v -0.0032172445207834244 0.14051948487758636 0.6221503615379333
v -0.0028154300525784492 0.1357496678829193 0.6190035343170166
v -0.005088014528155327 0.1298208087682724 0.6229890584945679
v -0.005707732401788235 0.13510562479496002 0.6263608932495117
v 0.00782341044396162 0.1410430520772934 0.6286189556121826
v 0.003407127223908901 0.14316849410533905 0.6275796890258789
v 0.0012283874675631523 0.14003488421440125 0.6309689879417419
v 0.006072713993489742 0.1379123032093048 0.6326407790184021
v 0.011657417751848698 0.13810168206691742 0.6259545087814331
v 0.010212401859462261 0.13511882722377777 0.6301011443138123
v 0.008539346978068352 0.138634592294693 0.6352414488792419
v 0.0022845687344670296 0.1379748284816742 0.6348865628242493
v 0.010480977594852448 0.13041743636131287 0.6438725590705872
v 0.01666368916630745 0.13354642689228058 0.6423347592353821
v -0.00042961444705724716 0.14282536506652832 0.6250691413879395
v -0.003014964982867241 0.13885392248630524 0.6288068294525146
v 0.00526013970375061 0.12294571846723557 0.6230355501174927
v 0.001961051020771265 0.12330970913171768 0.6256882548332214
v -0.0015578940510749817 0.127241849899292 0.6195301413536072
v 0.0021514063701033592 0.12648795545101166 0.6182283759117126
v 0.007736502215266228 0.11927857249975204 0.6447765827178955
v 0.011375374160706997 0.11566076427698135 0.6414020657539368
v 0.007091287523508072 0.1251194328069687 0.6442979574203491
v 0.009968260303139687 0.12547028064727783 0.623076856136322
v 0.014553019776940346 0.13101449608802795 0.6265613436698914
v 0.022615205496549606 0.1257009655237198 0.6333156824111938
v 0.019661933183670044 0.12012925744056702 0.6329768300056458
v -0.001759660430252552 0.13517440855503082 0.6341445446014404
v -0.0015486478805541992 0.12552301585674286 0.6290839910507202
v -0.003602796234190464 0.13040074706077576 0.6322419047355652
v 0.013049423694610596 0.13639721274375916 0.6315299272537231
v 0.010472564958035946 0.13063214719295502 0.6247274279594421
v 0.015842244029045105 0.1416446417570114 0.6088323593139648
v 0.008656580932438374 0.12946659326553345 0.6181186437606812
v 0.004102041013538837 0.13023090362548828 0.6159886717796326
v 0.012690580449998379 0.14155912399291992 0.6059732437133789
v 0.0069668469950556755 0.12696191668510437 0.6195940375328064
v 0.012206627987325191 0.13275912404060364 0.6222045421600342
v 0.005454587750136852 0.15112793445587158 0.6096714735031128
v 0.005617634393274784 0.14618845283985138 0.6070854663848877
v 0.006967254914343357 0.15240830183029175 0.6132581830024719
v 0.02209380269050598 0.13208907842636108 0.6380428075790405
v 0.01578456349670887 0.11538265645503998 0.6358442902565002
v 0.013468488119542599 0.15187139809131622 0.6160783767700195
v 0.009611000306904316 0.15324236452579498 0.6152128577232361
v 0.00039173755794763565 0.13206039369106293 0.6168074011802673
v 0.008930052630603313 0.142854243516922 0.6052577495574951
v 0.017039868980646133 0.1437462419271469 0.6123296022415161
v 0.016514871269464493 0.14775162935256958 0.6157894134521484
v 0.018088214099407196 0.14494064450263977 0.6071048378944397
v 0.018290188163518906 0.14903658628463745 0.6104909181594849
v 0.017474118620157242 0.15296036005020142 0.6108882427215576
v 0.014559042640030384 0.15524636209011078 0.6104592084884644
v 0.011521517299115658 0.15548250079154968 0.6088111400604248
v 0.016093280166387558 0.14409203827381134 0.6035802960395813
v 0.012985429726541042 0.14483697712421417 0.6017338633537292
v 0.010108168236911297 0.14605800807476044 0.6032537817955017
v 0.01610580086708069 0.14463388919830322 0.5991455912590027
v 0.020779915153980255 0.14579695463180542 0.6011462211608887
v 0.02769545093178749 0.15806172788143158 0.5963148474693298
v 0.024966083467006683 0.15648357570171356 0.6002607345581055
v 0.02571548894047737 0.15541388094425201 0.6000882983207703
v 0.02883986011147499 0.15691211819648743 0.5961570739746094
v 0.022629905492067337 0.15317416191101074 0.6051190495491028
v 0.024361461400985718 0.15261730551719666 0.6036026477813721
v 0.023588690906763077 0.14913135766983032 0.6029003858566284
v 0.026532918214797974 0.15098676085472107 0.5978457927703857
v 0.02322649583220482 0.14730025827884674 0.5952515006065369
v 0.0257403701543808 0.14956019818782806 0.5921337604522705
v 0.029314786195755005 0.15263837575912476 0.5944029092788696
v 0.022310178726911545 0.1462932974100113 0.6000131368637085
v 0.02982347086071968 0.1567014455795288 0.5935100317001343
v 0.03056824579834938 0.1589331179857254 0.5933920741081238
v 0.021650034934282303 0.14947375655174255 0.6047835946083069
v 0.01996389403939247 0.1566060334444046 0.6069315075874329
v 0.023437391966581345 0.15875175595283508 0.6004228591918945
v 0.02597261220216751 0.16129045188426971 0.5960429906845093
v 0.02728470414876938 0.160328209400177 0.5922023057937622
v 0.020217694342136383 0.159701406955719 0.5991654396057129
v 0.022956356406211853 0.16118896007537842 0.5948764681816101
v 0.02431289479136467 0.16059505939483643 0.59133380651474
v 0.017331939190626144 0.15901699662208557 0.5977538228034973
v 0.020271766930818558 0.15989623963832855 0.5936610102653503
v 0.011388991959393024 0.15527112782001495 0.6056137084960938
v 0.015757650136947632 0.1568446010351181 0.6069287657737732
v 0.02226383611559868 0.15984326601028442 0.5911700129508972
v 0.030320201069116592 0.15495865046977997 0.5905879735946655
v 0.02693495899438858 0.15640616416931152 0.5884992480278015
v 0.029303178191184998 0.15427584946155548 0.5920867919921875
v 0.021410919725894928 0.14664077758789062 0.5948168635368347
v 0.024671629071235657 0.14865736663341522 0.5901582837104797
v 0.018527429550886154 0.14702026546001434 0.59391188621521
v 0.021881788969039917 0.14910149574279785 0.5890679359436035
v 0.02746567130088806 0.15098312497138977 0.5891021490097046
v 0.02768830955028534 0.15137052536010742 0.5902199745178223
v 0.008694405667483807 0.15280325710773468 0.6070870757102966
v 0.008050872944295406 0.14917919039726257 0.6045987606048584
v 0.009478581137955189 0.15243291854858398 0.603270411491394
v 0.015502235852181911 0.15660424530506134 0.5950192213058472
v 0.010059519670903683 0.14867860078811646 0.6013896465301514
v 0.013561525382101536 0.14671184122562408 0.5981136560440063
v 0.016361314803361893 0.14917932450771332 0.5933389663696289
v 0.01541800145059824 0.15260718762874603 0.5934171676635742
v 0.019543025642633438 0.1508047878742218 0.5887826681137085
v 0.01856505125761032 0.1532498598098755 0.5903739333152771
v 0.018352914601564407 0.15779919922351837 0.5912880897521973
v 0.02264608070254326 0.15342378616333008 0.5880460739135742
v 0.02504095807671547 0.15186099708080292 0.5877320170402527
v 0.02406039834022522 0.1575232744216919 0.5883454084396362
v 0.020756009966135025 0.1547783613204956 0.5887981653213501
v 0.02167607471346855 0.1579640805721283 0.5889860391616821
v 0.01394277811050415 0.11402817815542221 0.6383824944496155
v 0.01793239638209343 0.10876211524009705 0.6388530731201172
v 0.02018807642161846 0.10511177778244019 0.6395403742790222
v 0.02047082409262657 0.10346508026123047 0.6381399631500244
v 0.019063033163547516 0.10738767683506012 0.637100338935852
v 0.008301885798573494 0.10723499953746796 0.632432222366333
v 0.01105758361518383 0.10980254411697388 0.6353776454925537
v 0.011768171563744545 0.10988399386405945 0.6315560340881348
v 0.009678717702627182 0.10777653753757477 0.6279851198196411
v 0.007932092063128948 0.10214918851852417 0.6307643055915833
v 0.009669756516814232 0.10251404345035553 0.6263683438301086
v 0.012095196172595024 0.10976552963256836 0.6266749501228333
v 0.013689343817532063 0.11122411489486694 0.6309174299240112
v 0.02550538256764412 0.1160496175289154 0.6313894987106323
v 0.026979174464941025 0.11604724079370499 0.627232551574707
v 0.03838685527443886 0.0997018814086914 0.6257613301277161
v 0.040174245834350586 0.09830804914236069 0.6291173696517944
v 0.030999179929494858 0.09898720681667328 0.6314346194267273
v 0.031179703772068024 0.09896707534790039 0.6275975108146667
v 0.014479217119514942 0.11008050292730331 0.6373697519302368
v 0.01551765762269497 0.1099831610918045 0.6348979473114014
v 0.021402761340141296 0.09522968530654907 0.6325737237930298
v 0.02220528945326805 0.09813283383846283 0.636050283908844
v 0.021929427981376648 0.09933243691921234 0.6377825736999512
v 0.020992854610085487 0.0952419638633728 0.6363606452941895
v 0.03705974668264389 0.09927228838205338 0.6330504417419434
v 0.03273433446884155 0.10126778483390808 0.6350197196006775
v 0.028957433998584747 0.10343170911073685 0.6355004906654358
v 0.029063556343317032 0.10126729309558868 0.6346299648284912
v 0.025777306407690048 0.10969212651252747 0.6351748704910278
v 0.01916145160794258 0.0949963927268982 0.6288068294525146
v 0.015649355947971344 0.09786468744277954 0.6246411204338074
v 0.030578576028347015 0.10435419529676437 0.6205567717552185
v 0.031765010207891464 0.10097552090883255 0.6235016584396362
v 0.015515330247581005 0.10997491329908371 0.6346653699874878
v 0.021083973348140717 0.10238017141819 0.6375598311424255
v 0.018293384462594986 0.10631100088357925 0.6370795369148254
v 0.013173660263419151 0.10471940040588379 0.6232154369354248
v 0.012684599496424198 0.09660378098487854 0.6291452646255493
v 0.013849583454430103 0.09435037523508072 0.6447458267211914
v 0.015844110399484634 0.09406747668981552 0.6368753910064697
v 0.019873857498168945 0.09590315073728561 0.6390770673751831
v 0.017036963254213333 0.09548237919807434 0.6452717781066895
v 0.017733987420797348 0.09438421577215195 0.6329811215400696
v 0.010995006188750267 0.0963362455368042 0.634163498878479
v 0.016877900809049606 0.10860659182071686 0.6446892023086548
v 0.01925155147910118 0.10352328419685364 0.6449324488639832
v 0.013837209902703762 0.1101144552230835 0.6442129015922546
v 0.028740987181663513 0.11253137141466141 0.622232973575592
v 0.006993413902819157 0.10694551467895508 0.6425586938858032
v 0.010355722159147263 0.10964573919773102 0.6439619064331055
v 0.0209055095911026 0.10064135491847992 0.6397995948791504
v 0.019329797476530075 0.09879851341247559 0.6452013850212097
v 0.009433076716959476 0.09597401320934296 0.6435073018074036
v 0.0061008865013718605 0.10136507451534271 0.6412702798843384
v 0.009692446328699589 0.09675659239292145 0.6489995121955872
v 0.006299883592873812 0.10185188055038452 0.6468386054039001
v 0.008270004764199257 0.10774793475866318 0.6470364332199097
v 0.011813662946224213 0.10948877781629562 0.6461948752403259
v 0.015015416778624058 0.10955929011106491 0.6457661986351013
v 0.014551871456205845 0.09512215852737427 0.6490412354469299
v 0.01752309501171112 0.09586409479379654 0.648592472076416
v 0.019530273973941803 0.09886354207992554 0.6470807194709778
v 0.015402784571051598 0.09628675878047943 0.6532641053199768
v 0.012273624539375305 0.09952926635742188 0.6549493074417114
v 0.019157491624355316 0.11039827764034271 0.6586638689041138
v 0.01663215644657612 0.10994881391525269 0.6552405953407288
v 0.016004394739866257 0.10918465256690979 0.6559635400772095
v 0.01831609383225441 0.11019664257764816 0.6593255400657654
v 0.012299698777496815 0.10860283672809601 0.6519265174865723
v 0.012769393622875214 0.10786309093236923 0.6536064743995667
v 0.011054396629333496 0.10459266602993011 0.6536722779273987
v 0.014314343221485615 0.10579681396484375 0.6580228805541992
v 0.01596655696630478 0.10078737139701843 0.6590927839279175
v 0.018283214420080185 0.10230782628059387 0.662354052066803
v 0.016352564096450806 0.10656159371137619 0.661338210105896
v 0.01251080259680748 0.10114619880914688 0.6559957265853882
v 0.019186507910490036 0.11009946465492249 0.662077009677887
v 0.0204143226146698 0.11071812361478806 0.6625027656555176
v 0.009087624028325081 0.10414297878742218 0.6521056294441223
v 0.01495489850640297 0.10997423529624939 0.6490750312805176
v 0.018993008881807327 0.11094638705253601 0.6544817090034485
v 0.021523352712392807 0.1112796887755394 0.6589876413345337
v 0.022715751081705093 0.11008720844984055 0.6625388860702515
v 0.020867709070444107 0.11020518094301224 0.6529012322425842
v 0.0235905721783638 0.1107175201177597 0.6580447554588318
v 0.024610579013824463 0.10936509817838669 0.6613826751708984
v 0.023128747940063477 0.10788800567388535 0.6518582701683044
v 0.02490897849202156 0.10869308561086655 0.6570408940315247
v 0.020235363394021988 0.10661730915307999 0.646751344203949
v 0.017910651862621307 0.10920776426792145 0.6476404070854187
v 0.025140248239040375 0.10827462375164032 0.6600808501243591
v 0.02008695900440216 0.10761196911334991 0.6649905443191528
v 0.022974319756031036 0.10716567933559418 0.6642045378684998
v 0.018525034189224243 0.10717128962278366 0.6643720269203186
v 0.01662570610642433 0.09952645748853683 0.6589128375053406
v 0.019582543522119522 0.10130025446414948 0.6627650260925293
v 0.018482821062207222 0.09817170351743698 0.6580909490585327
v 0.021591685712337494 0.10077963769435883 0.6620949506759644
v 0.02067955955862999 0.10398195683956146 0.664933443069458
v 0.018929902464151382 0.10437816381454468 0.664198637008667
v 0.018569737672805786 0.10729457437992096 0.6459821462631226
v 0.019680697470903397 0.10356728732585907 0.6462152600288391
v 0.021120522171258926 0.10246807336807251 0.6474404335021973
v 0.024131298065185547 0.10379736870527267 0.6522502303123474
v 0.02031310461461544 0.09807296097278595 0.6490055322647095
v 0.018022065982222557 0.09604218602180481 0.6514208316802979
v 0.020861200988292694 0.09818460792303085 0.6566542387008667
v 0.023211821913719177 0.0997728705406189 0.6546516418457031
v 0.023455537855625153 0.10126346349716187 0.661040723323822
v 0.025141775608062744 0.102470263838768 0.6587905883789062
v 0.025854099541902542 0.10538700222969055 0.6571387648582458
v 0.024270571768283844 0.10449676960706711 0.6629233956336975
v 0.022969570010900497 0.1042046844959259 0.6642939448356628
v 0.024542327970266342 0.10681562125682831 0.6628425121307373
v 0.02528144046664238 0.10475611686706543 0.6612727046012878
v 0.02543754130601883 0.1063610389828682 0.6607230305671692
v 0.0360802598297596 0.10213728249073029 0.6235511898994446
v 0.024877186864614487 0.09865489602088928 0.7022762298583984
v 0.026600830256938934 0.09845718741416931 0.6969113349914551
v 0.033218346536159515 0.08347102999687195 0.6951280832290649
v 0.03064834326505661 0.08946460485458374 0.6916186809539795
v 0.0330040343105793 0.08063410967588425 0.7016136646270752
v 0.029525108635425568 0.08469867706298828 0.7109614014625549
v 0.0324988067150116 0.08194562047719955 0.7073001265525818
v 0.028612088412046432 0.0947541669011116 0.6926863789558411
v 0.0250559002161026 0.09640361368656158 0.7075027823448181
v 0.02695118635892868 0.0906720831990242 0.7117995619773865
v 0.013838610611855984 0.09148900210857391 0.7054600715637207
v 0.016789529472589493 0.084647536277771 0.709078311920166
v 0.020360112190246582 0.07813809812068939 0.7071178555488586
v 0.025653332471847534 0.07723141461610794 0.7027548551559448
v 0.028074797242879868 0.07721860706806183 0.6985403299331665
v 0.017633698880672455 0.09558065980672836 0.6995446681976318
v 0.0204404778778553 0.09600371867418289 0.6945553421974182
v 0.024593643844127655 0.09246088564395905 0.6908531188964844
v 0.012121922336518764 0.09254643321037292 0.6941629648208618
v 0.008245299570262432 0.08453983813524246 0.6904674172401428
v 0.012776709161698818 0.06803223490715027 0.6812461018562317
v 0.015920139849185944 0.07009769976139069 0.6866610050201416
v 0.01341963466256857 0.07124927639961243 0.6870449185371399
v 0.010609748773276806 0.06890833377838135 0.682318925857544
v 0.015534619800746441 0.07226923853158951 0.6918805241584778
v 0.013879301957786083 0.07342101633548737 0.690750777721405
v 0.011226887814700603 0.07818622887134552 0.69190913438797
v 0.008845540694892406 0.07572253048419952 0.687105119228363
v 0.009171421639621258 0.08207358419895172 0.6894872784614563
v 0.007945525459945202 0.08153292536735535 0.6853594183921814
v 0.0066203949972987175 0.07370106875896454 0.6823909282684326
v 0.007634769193828106 0.06876833736896515 0.6799010038375854
v 0.005076686851680279 0.07199500501155853 0.6784640550613403
v 0.00933858286589384 0.06820821762084961 0.6775994300842285
v 0.008448733948171139 0.07777614891529083 0.6946712136268616
v 0.021359529346227646 0.07273964583873749 0.6948350667953491
v 0.019432973116636276 0.07029727101325989 0.6864540576934814
v 0.015820570290088654 0.06884521245956421 0.6797477006912231
v 0.011520828120410442 0.06931862235069275 0.6757354736328125
v 0.022429920732975006 0.07239046692848206 0.6846010684967041
v 0.018551789224147797 0.07183137536048889 0.6786401867866516
v 0.014279342256486416 0.07294946908950806 0.6750500798225403
v 0.023436173796653748 0.07651276886463165 0.682548999786377
v 0.019041292369365692 0.07551583647727966 0.6778593063354492
v 0.02832641452550888 0.0805683583021164 0.6914036870002747
v 0.02653750404715538 0.0756116509437561 0.6941378116607666
v 0.015538095496594906 0.07521675527095795 0.6756709218025208
v 0.004971916787326336 0.0718187540769577 0.6760251522064209
v 0.007337941788136959 0.0732581615447998 0.6741129159927368
v 0.008061225526034832 0.08471035957336426 0.6848690509796143
v 0.005215420387685299 0.0795869380235672 0.6813185214996338
v 0.006057801656424999 0.08174468576908112 0.6799251437187195
v 0.010185892693698406 0.08786894381046295 0.6842706203460693
v 0.007667015306651592 0.08359590172767639 0.678508460521698
v 0.004418916068971157 0.07759484648704529 0.6768096089363098
v 0.004265080206096172 0.07631060481071472 0.6790120005607605
v 0.02988540008664131 0.08085408061742783 0.6936249732971191
v 0.028431609272956848 0.08689942955970764 0.6908591389656067
v 0.026497870683670044 0.08696968853473663 0.6895813345909119
v 0.021958578377962112 0.08271960914134979 0.6816729307174683
v 0.022042665630578995 0.09204062819480896 0.6887412667274475
v 0.01634717732667923 0.09393706917762756 0.6913476586341858
v 0.013303971849381924 0.08907923847436905 0.682592511177063
v 0.017922140657901764 0.087545245885849 0.681746244430542
v 0.010929017327725887 0.0840347558259964 0.6773911118507385
v 0.013771883212029934 0.08311285823583603 0.6772307753562927
v 0.017326250672340393 0.07954534888267517 0.676841676235199
v 0.009599979035556316 0.07977516204118729 0.6748234033584595
v 0.006467676721513271 0.07921645045280457 0.6752859354019165
v 0.010890870355069637 0.07575808465480804 0.673924446105957
v 0.012163287959992886 0.08023132383823395 0.675568699836731
v 0.013574405573308468 0.07751789689064026 0.6750975847244263
v 0.04565398767590523 0.0997501015663147 0.6288591623306274
v 0.042581137269735336 0.09944824874401093 0.6343008279800415
v 0.048888999968767166 0.09986351430416107 0.6336321234703064
v 0.05762330815196037 0.09919625520706177 0.6349118947982788
v 0.0675431415438652 0.10099264234304428 0.6315406560897827
v 0.05551670864224434 0.1001141145825386 0.6413546800613403
v 0.046352360397577286 0.10089939087629318 0.639360785484314
v 0.036520544439554214 0.10136068612337112 0.6393724679946899
v 0.061559151858091354 0.10173574835062027 0.6492797136306763
f 2 3 1
f 1 3 4
f 5 6 8
f 8 6 7
f 9 4 10
f 10 4 3
f 12 13 11
f 11 13 9
f 14 12 16
f 16 12 15
f 18 19 17
f 17 19 20
f 22 23 21
f 21 23 24
f 26 27 25
f 25 27 28
f 30 31 29
f 29 31 32
f 33 34 36
f 36 34 35
f 37 38 40
f 40 38 39
f 41 42 6
f 6 42 43
f 6 43 7
f 7 43 44
f 45 34 46
f 46 34 33
f 48 49 47
f 47 49 50
f 52 53 51
f 51 53 54
f 56 52 55
f 55 52 51
f 58 59 57
f 57 59 60
f 61 62 4
f 4 62 1
f 64 65 63
f 63 65 66
f 68 69 67
f 67 69 70
f 72 73 71
f 71 73 74
f 76 77 75
f 75 77 78
f 53 79 54
f 54 79 80
f 82 83 81
f 81 83 84
f 85 86 52
f 52 86 53
f 57 60 87
f 87 60 88
f 89 90 43
f 43 90 44
f 43 42 89
f 89 42 91
f 40 39 92
f 92 39 93
f 94 70 64
f 64 70 69
f 13 61 9
f 9 61 4
f 25 28 69
f 69 28 95
f 96 25 68
f 68 25 69
f 98 99 97
f 97 99 100
f 101 102 104
f 104 102 103
f 106 30 105
f 105 30 29
f 51 54 107
f 107 54 108
f 54 80 108
f 108 80 109
f 111 112 110
f 110 112 113
f 115 5 114
f 114 5 116
f 115 41 5
f 5 41 6
f 36 35 111
f 111 35 117
f 35 118 117
f 117 118 119
f 34 120 35
f 35 120 118
f 34 45 120
f 120 45 121
f 125 126 124
f 124 126 127
f 128 129 14
f 14 129 130
f 33 131 46
f 46 131 132
f 133 94 63
f 63 94 64
f 134 135 137
f 137 135 136
f 139 140 138
f 138 140 141
f 77 142 78
f 78 142 143
f 144 145 20
f 20 145 146
f 148 149 147
f 147 149 72
f 151 152 150
f 150 152 153
f 82 101 83
f 83 101 104
f 101 82 155
f 155 82 154
f 156 157 58
f 58 157 59
f 158 68 147
f 147 68 67
f 159 146 15
f 15 146 16
f 68 158 96
f 96 158 160
f 129 66 130
f 130 66 65
f 162 163 161
f 161 163 164
f 166 167 165
f 165 167 168
f 170 171 169
f 169 171 172
f 174 171 173
f 173 171 170
f 176 177 175
f 175 177 178
f 180 181 179
f 179 181 24
f 182 183 21
f 21 183 184
f 81 185 82
f 82 185 154
f 186 187 188
f 188 187 144
f 158 71 160
f 160 71 189
f 190 135 157
f 157 135 59
f 169 172 139
f 139 172 140
f 147 72 158
f 158 72 71
f 192 193 191
f 191 193 194
f 167 166 49
f 49 166 195
f 196 190 50
f 50 190 157
f 197 198 200
f 200 198 199
f 21 24 182
f 182 24 181
f 146 159 20
f 20 159 17
f 182 181 81
f 81 181 185
f 201 185 180
f 180 185 181
f 202 203 83
f 83 203 84
f 205 206 204
f 204 206 85
f 207 22 184
f 184 22 21
f 179 24 208
f 208 24 23
f 208 209 179
f 179 209 205
f 209 210 205
f 205 210 206
f 212 206 211
f 211 206 210
f 179 205 180
f 180 205 204
f 213 176 88
f 88 176 214
f 86 85 212
f 212 85 206
f 193 217 218
f 217 219 218
f 218 219 220
f 219 18 220
f 220 18 17
f 19 221 20
f 20 221 144
f 222 223 225
f 225 223 224
f 175 226 176
f 176 226 214
f 227 87 214
f 214 87 88
f 220 17 228
f 228 17 159
f 134 213 60
f 60 213 88
f 138 229 151
f 151 229 152
f 193 192 210
f 210 192 211
f 230 194 218
f 218 194 193
f 231 232 228
f 228 232 230
f 233 234 91
f 91 234 89
f 235 236 93
f 93 236 92
f 230 232 234
f 234 232 237
f 47 238 48
f 48 238 239
f 240 191 235
f 235 191 236
f 5 8 116
f 116 8 241
f 242 243 189
f 189 243 160
f 244 245 98
f 98 245 99
f 156 246 47
f 47 246 238
f 76 247 77
f 77 247 248
f 250 125 249
f 249 125 124
f 252 253 251
f 251 253 254
f 111 110 36
f 36 110 255
f 256 33 255
f 255 33 36
f 257 258 154
f 154 258 155
f 63 169 133
f 133 169 139
f 66 170 63
f 63 170 169
f 173 170 129
f 129 170 66
f 129 128 173
f 173 128 259
f 128 260 259
f 259 260 261
f 213 134 262
f 262 134 137
f 263 264 186
f 186 264 187
f 112 265 113
f 113 265 266
f 11 267 268
f 234 233 230
f 230 233 194
f 153 269 70
f 70 269 67
f 175 178 165
f 165 178 141
f 150 153 94
f 94 153 70
f 271 221 270
f 270 221 207
f 269 153 272
f 272 153 152
f 121 45 109
f 109 45 108
f 47 50 156
f 156 50 157
f 57 273 58
f 58 273 274
f 145 275 260
f 260 275 261
f 276 149 143
f 143 149 78
f 148 269 75
f 75 269 272
f 207 277 270
f 270 277 278
f 195 196 49
f 49 196 50
f 59 135 60
f 60 135 134
f 83 104 202
f 202 104 279
f 149 148 78
f 78 148 75
f 247 278 248
f 248 278 277
f 183 182 84
f 84 182 81
f 48 239 281
f 281 239 282
f 227 223 283
f 283 223 222
f 223 226 224
f 224 226 168
f 281 282 224
f 224 282 225
f 165 168 175
f 175 168 226
f 264 263 138
f 138 263 229
f 14 16 128
f 128 16 260
f 220 228 218
f 218 228 230
f 87 227 284
f 284 227 283
f 260 16 145
f 145 16 146
f 244 98 258
f 258 98 155
f 58 274 156
f 156 274 246
f 107 285 51
f 51 285 55
f 243 286 160
f 160 286 96
f 234 237 89
f 89 237 90
f 46 132 107
f 107 132 285
f 253 252 249
f 249 252 250
f 286 26 96
f 96 26 25
f 106 105 287
f 287 105 288
f 272 152 289
f 289 152 229
f 138 151 139
f 139 151 133
f 183 290 161
f 161 290 162
f 291 292 277
f 277 292 293
f 151 150 133
f 133 150 94
f 262 275 177
f 177 275 187
f 144 187 145
f 145 187 275
f 273 57 284
f 284 57 87
f 174 136 190
f 190 136 135
f 111 117 112
f 112 117 38
f 117 119 38
f 38 119 123
f 112 38 265
f 265 38 37
f 287 288 254
f 254 288 251
f 228 159 231
f 231 159 15
f 223 227 226
f 226 227 214
f 147 67 148
f 148 67 269
f 224 168 281
f 281 168 167
f 199 163 200
f 200 163 162
f 45 46 108
f 108 46 107
f 281 167 48
f 48 167 49
f 161 164 291
f 291 164 292
f 38 123 39
f 293 294 277
f 277 294 248
f 284 283 296
f 296 283 295
f 284 296 273
f 273 296 297
f 274 273 298
f 298 273 297
f 246 274 299
f 299 274 298
f 283 222 295
f 295 222 300
f 222 225 300
f 300 225 301
f 301 225 302
f 302 225 282
f 303 304 300
f 300 304 295
f 306 307 305
f 305 307 308
f 309 310 308
f 308 310 305
f 308 307 312
f 312 307 311
f 313 314 312
f 312 314 315
f 311 316 312
f 312 316 313
f 317 304 311
f 311 304 316
f 315 309 312
f 312 309 308
f 318 319 321
f 321 319 320
f 319 318 309
f 309 318 310
f 311 307 317
f 317 307 306
f 306 297 317
f 317 297 296
f 306 322 297
f 297 322 298
f 305 323 306
f 306 323 322
f 323 305 324
f 324 305 310
f 304 317 295
f 295 317 296
f 318 325 310
f 310 325 324
f 323 324 326
f 326 324 327
f 324 325 327
f 327 325 328
f 326 327 329
f 329 327 330
f 329 331 326
f 326 331 332
f 333 330 328
f 328 330 327
f 323 326 322
f 322 326 332
f 322 332 298
f 298 332 299
f 325 318 334
f 334 318 321
f 313 316 335
f 335 316 304
f 335 336 313
f 313 336 314
f 304 303 335
f 335 303 337
f 336 335 338
f 338 335 337
f 336 339 314
f 314 339 340
f 246 299 238
f 238 299 341
f 239 342 282
f 282 342 302
f 342 239 341
f 341 239 238
f 341 331 342
f 342 331 343
f 331 329 343
f 343 329 344
f 342 343 302
f 302 343 345
f 341 299 331
f 331 299 332
f 346 301 345
f 345 301 302
f 346 303 301
f 301 303 300
f 347 337 346
f 346 337 303
f 347 346 348
f 348 346 345
f 349 347 350
f 350 347 348
f 343 344 345
f 345 344 348
f 344 351 348
f 348 351 350
f 337 347 338
f 338 347 349
f 353 338 352
f 352 338 349
f 352 355 354
f 354 355 356
f 352 349 355
f 355 349 350
f 352 354 353
f 353 354 334
f 353 334 339
f 339 334 321
f 339 336 353
f 353 336 338
f 329 330 344
f 344 330 351
f 356 351 333
f 333 351 330
f 356 355 351
f 351 355 350
f 354 356 328
f 328 356 333
f 328 325 354
f 354 325 334
f 309 315 319
f 319 315 320
f 320 340 321
f 321 340 339
f 320 315 340
f 340 315 314
f 137 136 261
f 261 136 259
f 140 166 141
f 141 166 165
f 172 171 195
f 195 171 196
f 171 174 196
f 196 174 190
f 178 177 264
f 264 177 187
f 172 195 140
f 140 195 166
f 137 261 262
f 262 261 275
f 178 264 141
f 141 264 138
f 262 177 213
f 213 177 176
f 136 174 259
f 259 174 173
f 358 359 357
f 357 359 360
f 362 363 361
f 361 363 364
f 361 364 365
f 365 364 366
f 367 368 370
f 370 368 369
f 76 371 247
f 247 371 372
f 373 374 362
f 362 374 363
f 376 377 375
f 375 377 378
f 289 229 380
f 380 229 379
f 381 379 263
f 263 379 229
f 383 384 382
f 382 384 385
f 386 368 374
f 374 368 363
f 76 289 371
f 371 289 380
f 377 376 359
f 359 376 387
f 388 386 360
f 360 386 374
f 389 383 366
f 366 383 390
f 392 393 391
f 391 393 394
f 383 382 390
f 390 382 395
f 396 365 390
f 390 365 366
f 389 366 367
f 367 366 364
f 357 397 358
f 358 397 398
f 373 399 357
f 357 399 397
f 389 367 400
f 400 367 370
f 382 385 375
f 375 385 372
f 357 360 373
f 373 360 374
f 361 401 362
f 362 401 402
f 387 388 359
f 359 388 360
f 363 368 364
f 364 368 367
f 358 398 403
f 403 398 404
f 396 392 405
f 405 392 391
f 392 395 393
f 393 395 378
f 393 403 394
f 394 403 404
f 375 378 382
f 382 378 395
f 365 396 406
f 406 396 405
f 362 402 373
f 373 402 399
f 271 270 400
f 400 270 384
f 401 361 406
f 406 361 365
f 381 369 386
f 386 369 368
f 392 396 395
f 395 396 390
f 393 378 403
f 403 378 377
f 403 377 358
f 358 377 359
f 406 405 408
f 408 405 407
f 406 408 401
f 401 408 409
f 401 409 402
f 402 409 410
f 402 410 399
f 399 410 411
f 405 391 407
f 407 391 412
f 391 394 412
f 412 394 413
f 394 404 413
f 413 404 414
f 415 416 412
f 412 416 407
f 418 419 417
f 417 419 420
f 421 422 418
f 418 422 419
f 419 422 424
f 424 422 423
f 425 426 424
f 424 426 427
f 423 428 424
f 424 428 425
f 427 420 424
f 424 420 419
f 420 429 417
f 417 429 430
f 423 422 431
f 431 422 421
f 421 409 431
f 431 409 408
f 421 432 409
f 409 432 410
f 418 433 421
f 421 433 432
f 434 433 417
f 417 433 418
f 431 416 423
f 423 416 428
f 416 431 407
f 407 431 408
f 435 434 430
f 430 434 417
f 433 434 436
f 436 434 437
f 434 435 437
f 437 435 438
f 436 437 439
f 439 437 440
f 439 441 436
f 436 441 442
f 438 443 437
f 437 443 440
f 436 442 433
f 433 442 432
f 432 442 410
f 410 442 411
f 435 430 445
f 445 430 444
f 430 429 444
f 444 429 446
f 425 428 447
f 447 428 416
f 426 425 448
f 448 425 447
f 416 415 447
f 447 415 449
f 447 449 448
f 448 449 450
f 451 452 448
f 448 452 426
f 446 452 444
f 444 452 451
f 399 411 397
f 397 411 453
f 398 454 404
f 404 454 414
f 454 398 453
f 453 398 397
f 453 441 454
f 454 441 455
f 441 439 455
f 455 439 456
f 454 455 414
f 414 455 457
f 441 453 442
f 442 453 411
f 458 413 457
f 457 413 414
f 458 415 413
f 413 415 412
f 458 459 415
f 415 459 449
f 459 458 460
f 460 458 457
f 461 459 462
f 462 459 460
f 455 456 457
f 457 456 460
f 456 463 460
f 460 463 462
f 459 461 449
f 449 461 450
f 465 450 464
f 464 450 461
f 464 467 466
f 466 467 468
f 464 461 467
f 467 461 462
f 464 466 465
f 465 466 445
f 465 445 451
f 451 445 444
f 451 448 465
f 465 448 450
f 439 440 456
f 456 440 463
f 468 463 443
f 443 463 440
f 468 467 463
f 463 467 462
f 466 468 438
f 438 468 443
f 438 435 466
f 466 435 445
f 420 427 429
f 429 427 446
f 446 427 452
f 452 427 426
f 370 369 188
f 188 369 186
f 371 376 372
f 372 376 375
f 380 379 387
f 387 379 388
f 379 381 388
f 388 381 386
f 385 384 278
f 278 384 270
f 380 387 371
f 371 387 376
f 400 370 271
f 271 370 188
f 385 278 372
f 372 278 247
f 400 384 389
f 389 384 383
f 369 381 186
f 186 381 263
f 221 271 144
f 144 271 188
f 221 19 207
f 207 19 22
f 19 18 22
f 22 18 23
f 18 219 23
f 23 219 208
f 469 470 472
f 472 470 471
f 474 475 473
f 473 475 476
f 473 476 477
f 477 476 478
f 480 481 479
f 479 481 482
f 483 484 474
f 474 484 475
f 486 487 485
f 485 487 488
f 489 490 77
f 77 490 142
f 491 489 248
f 248 489 77
f 493 494 492
f 492 494 495
f 496 480 484
f 484 480 475
f 486 497 487
f 487 497 471
f 498 496 472
f 472 496 484
f 499 493 478
f 478 493 500
f 501 502 504
f 504 502 503
f 493 492 500
f 500 492 505
f 506 477 500
f 500 477 478
f 499 478 479
f 479 478 476
f 469 507 470
f 470 507 508
f 483 509 469
f 469 509 507
f 479 482 499
f 499 482 510
f 492 495 485
f 485 495 511
f 483 469 484
f 484 469 472
f 473 512 474
f 474 512 513
f 497 498 471
f 471 498 472
f 475 480 476
f 476 480 479
f 470 508 514
f 514 508 515
f 506 502 516
f 516 502 501
f 503 502 488
f 488 502 505
f 514 515 503
f 503 515 504
f 485 488 492
f 492 488 505
f 477 506 517
f 517 506 516
f 474 513 483
f 483 513 509
f 510 292 494
f 494 292 164
f 512 473 517
f 517 473 477
f 491 481 496
f 496 481 480
f 502 506 505
f 505 506 500
f 503 488 514
f 514 488 487
f 514 487 470
f 470 487 471
f 517 516 519
f 519 516 518
f 517 519 512
f 512 519 520
f 512 520 513
f 513 520 521
f 513 521 509
f 509 521 522
f 516 501 518
f 518 501 523
f 501 504 523
f 523 504 524
f 524 504 525
f 525 504 515
f 526 527 523
f 523 527 518
f 529 530 528
f 528 530 531
f 532 533 529
f 529 533 530
f 530 533 535
f 535 533 534
f 536 537 535
f 535 537 538
f 534 539 535
f 535 539 536
f 538 531 535
f 535 531 530
f 540 541 531
f 531 541 528
f 533 532 534
f 534 532 542
f 532 520 542
f 542 520 519
f 532 543 520
f 520 543 521
f 529 544 532
f 532 544 543
f 544 529 545
f 545 529 528
f 534 542 539
f 539 542 527
f 527 542 518
f 518 542 519
f 541 546 528
f 528 546 545
f 547 544 548
f 548 544 545
f 546 549 545
f 545 549 548
f 550 547 551
f 551 547 548
f 547 550 553
f 553 550 552
f 549 554 548
f 548 554 551
f 544 547 543
f 543 547 553
f 543 553 521
f 521 553 522
f 546 541 556
f 556 541 555
f 541 540 555
f 555 540 557
f 536 539 558
f 558 539 527
f 537 536 559
f 559 536 558
f 527 526 558
f 558 526 560
f 559 558 561
f 561 558 560
f 559 562 537
f 537 562 563
f 557 563 555
f 555 563 562
f 509 522 507
f 507 522 564
f 508 565 515
f 515 565 525
f 565 508 564
f 564 508 507
f 564 552 565
f 565 552 566
f 552 550 566
f 566 550 567
f 565 566 525
f 525 566 568
f 564 522 552
f 552 522 553
f 569 524 568
f 568 524 525
f 569 526 524
f 524 526 523
f 570 560 569
f 569 560 526
f 570 569 571
f 571 569 568
f 572 570 573
f 573 570 571
f 566 567 568
f 568 567 571
f 567 574 571
f 571 574 573
f 570 572 560
f 560 572 561
f 576 561 575
f 575 561 572
f 575 578 577
f 577 578 579
f 575 572 578
f 578 572 573
f 575 577 576
f 576 577 556
f 576 556 562
f 562 556 555
f 562 559 576
f 576 559 561
f 550 551 567
f 567 551 574
f 579 574 554
f 554 574 551
f 579 578 574
f 574 578 573
f 579 554 577
f 577 554 549
f 549 546 577
f 577 546 556
f 531 538 540
f 540 538 557
f 557 538 563
f 563 538 537
f 481 294 482
f 482 294 293
f 580 486 511
f 511 486 485
f 490 489 497
f 497 489 498
f 489 491 498
f 498 491 496
f 163 495 164
f 164 495 494
f 580 490 486
f 486 490 497
f 482 293 510
f 510 293 292
f 495 163 511
f 511 163 199
f 494 493 510
f 510 493 499
f 481 491 294
f 294 491 248
f 582 583 581
f 581 583 584
f 586 587 585
f 585 587 588
f 585 588 589
f 589 588 590
f 592 593 591
f 591 593 594
f 595 596 598
f 598 596 597
f 599 600 586
f 586 600 587
f 601 602 604
f 604 602 603
f 605 606 608
f 608 606 607
f 609 607 200
f 200 607 606
f 610 611 613
f 613 611 612
f 600 614 587
f 587 614 592
f 596 605 597
f 597 605 608
f 602 615 603
f 603 615 583
f 616 614 584
f 584 614 600
f 611 618 617
f 617 618 590
f 620 621 619
f 619 621 622
f 610 623 611
f 611 623 618
f 624 589 618
f 618 589 590
f 617 590 591
f 591 590 588
f 581 625 582
f 582 625 626
f 599 627 581
f 581 627 625
f 591 594 617
f 617 594 628
f 601 610 598
f 598 610 613
f 581 584 599
f 599 584 600
f 585 629 586
f 586 629 630
f 615 616 583
f 583 616 584
f 587 592 588
f 588 592 591
f 582 626 631
f 631 626 632
f 624 620 633
f 633 620 619
f 621 620 604
f 604 620 623
f 631 632 621
f 621 632 622
f 610 601 623
f 623 601 604
f 589 624 634
f 634 624 633
f 586 630 599
f 599 630 627
f 203 202 628
f 628 202 612
f 629 585 634
f 634 585 589
f 609 593 614
f 614 593 592
f 620 624 623
f 623 624 618
f 631 621 603
f 603 621 604
f 582 631 583
f 583 631 603
f 634 633 636
f 636 633 635
f 634 636 629
f 629 636 637
f 629 637 630
f 630 637 638
f 630 638 627
f 627 638 639
f 633 619 635
f 635 619 640
f 619 622 640
f 640 622 641
f 641 622 642
f 642 622 632
f 644 635 643
f 643 635 640
f 645 646 648
f 648 646 647
f 649 650 646
f 646 650 647
f 647 650 652
f 652 650 651
f 652 653 655
f 655 653 654
f 651 656 652
f 652 656 653
f 655 648 652
f 652 648 647
f 648 657 645
f 645 657 658
f 650 649 651
f 651 649 659
f 649 637 659
f 659 637 636
f 649 660 637
f 637 660 638
f 661 660 646
f 646 660 649
f 662 661 645
f 645 661 646
f 651 659 656
f 656 659 644
f 644 659 635
f 635 659 636
f 663 662 658
f 658 662 645
f 664 661 665
f 665 661 662
f 663 666 662
f 662 666 665
f 667 664 668
f 668 664 665
f 664 667 670
f 670 667 669
f 666 671 665
f 665 671 668
f 661 664 660
f 660 664 670
f 660 670 638
f 638 670 639
f 658 672 663
f 663 672 673
f 658 657 672
f 672 657 674
f 653 656 675
f 675 656 644
f 653 675 654
f 654 675 676
f 675 644 677
f 677 644 643
f 676 675 678
f 678 675 677
f 679 680 676
f 676 680 654
f 674 680 672
f 672 680 679
f 627 639 625
f 625 639 681
f 626 682 632
f 632 682 642
f 681 682 625
f 625 682 626
f 669 683 681
f 681 683 682
f 667 684 669
f 669 684 683
f 682 683 642
f 642 683 685
f 681 639 669
f 669 639 670
f 686 641 685
f 685 641 642
f 641 686 640
f 640 686 643
f 686 687 643
f 643 687 677
f 687 686 688
f 688 686 685
f 689 687 690
f 690 687 688
f 683 684 685
f 685 684 688
f 684 691 688
f 688 691 690
f 687 689 677
f 677 689 678
f 693 678 692
f 692 678 689
f 692 695 694
f 694 695 696
f 692 689 695
f 695 689 690
f 692 694 693
f 693 694 673
f 693 673 679
f 679 673 672
f 679 676 693
f 693 676 678
f 684 667 691
f 691 667 668
f 696 691 671
f 671 691 668
f 696 695 691
f 691 695 690
f 694 696 666
f 666 696 671
f 666 663 694
f 694 663 673
f 648 655 657
f 657 655 674
f 674 655 680
f 680 655 654
f 593 162 594
f 594 162 290
f 598 597 601
f 601 597 602
f 615 608 616
f 616 608 607
f 607 609 616
f 616 609 614
f 697 595 613
f 613 595 598
f 597 608 602
f 602 608 615
f 594 290 628
f 628 290 203
f 628 612 617
f 617 612 611
f 593 609 162
f 162 609 200
f 105 29 698
f 698 29 699
f 268 126 701
f 701 126 700
f 126 125 700
f 700 125 702
f 252 703 250
f 250 703 704
f 32 268 705
f 705 268 701
f 288 105 706
f 706 105 698
f 29 32 699
f 699 32 705
f 707 251 706
f 706 251 288
f 250 704 125
f 125 704 702
f 703 252 707
f 707 252 251
f 706 708 707
f 707 708 709
f 707 709 703
f 703 709 710
f 703 710 704
f 704 710 711
f 704 711 702
f 702 711 712
f 706 698 708
f 708 698 713
f 698 699 713
f 713 699 714
f 699 705 714
f 714 705 715
f 717 708 716
f 716 708 713
f 719 720 718
f 718 720 721
f 722 723 719
f 719 723 720
f 724 725 723
f 723 725 720
f 724 726 725
f 725 726 727
f 728 721 725
f 725 721 720
f 721 728 729
f 729 728 730
f 729 731 721
f 721 731 718
f 724 723 732
f 732 723 722
f 722 710 732
f 732 710 709
f 722 733 710
f 710 733 711
f 719 734 722
f 722 734 733
f 734 719 735
f 735 719 718
f 724 732 726
f 726 732 717
f 717 732 708
f 708 732 709
f 731 736 718
f 718 736 735
f 737 734 738
f 738 734 735
f 736 739 735
f 735 739 738
f 740 737 741
f 741 737 738
f 737 740 743
f 743 740 742
f 739 744 738
f 738 744 741
f 734 737 733
f 733 737 743
f 733 743 711
f 711 743 712
f 736 731 746
f 746 731 745
f 731 729 745
f 745 729 730
f 727 726 747
f 747 726 717
f 748 727 749
f 749 727 747
f 747 717 750
f 750 717 716
f 749 747 751
f 751 747 750
f 749 752 748
f 748 752 753
f 730 753 745
f 745 753 752
f 728 725 748
f 748 725 727
f 730 728 753
f 753 728 748
f 700 702 754
f 754 702 712
f 705 701 715
f 715 701 755
f 754 755 700
f 700 755 701
f 742 756 754
f 754 756 755
f 740 757 742
f 742 757 756
f 755 756 715
f 715 756 758
f 754 712 742
f 742 712 743
f 759 714 758
f 758 714 715
f 714 759 713
f 713 759 716
f 759 760 716
f 716 760 750
f 760 759 761
f 761 759 758
f 762 760 763
f 763 760 761
f 756 757 758
f 758 757 761
f 757 764 761
f 761 764 763
f 760 762 750
f 750 762 751
f 766 751 765
f 765 751 762
f 767 765 769
f 769 765 768
f 765 762 768
f 768 762 763
f 765 767 766
f 766 767 746
f 766 746 752
f 752 746 745
f 752 749 766
f 766 749 751
f 757 740 764
f 764 740 741
f 769 764 744
f 744 764 741
f 769 768 764
f 764 768 763
f 767 769 739
f 739 769 744
f 739 736 767
f 767 736 746
f 219 217 208
f 208 217 209
f 209 217 210
f 210 217 193
f 198 580 199
f 199 580 511
f 76 75 289
f 289 75 272
f 277 207 291
f 291 207 184
f 290 183 203
f 203 183 84
f 490 580 142
f 142 580 198
f 142 198 143
f 143 198 197
f 149 276 72
f 72 276 73
f 104 103 279
f 279 103 770
f 770 596 279
f 279 596 595
f 605 596 771
f 771 596 770
f 771 770 772
f 772 770 103
f 772 103 773
f 773 103 102
f 155 774 101
f 101 774 102
f 773 102 97
f 97 102 774
f 775 773 100
f 100 773 97
f 773 775 772
f 772 775 776
f 772 776 771
f 771 776 777
f 200 606 197
f 197 606 777
f 189 71 778
f 778 71 74
f 97 774 98
f 98 774 155
f 183 161 184
f 184 161 291
f 777 276 197
f 197 276 143
f 777 606 771
f 771 606 605
f 613 612 697
f 697 612 202
f 595 697 279
f 279 697 202
f 73 276 776
f 776 276 777
f 776 775 73
f 73 775 74
f 100 778 775
f 775 778 74
f 778 100 189
f 189 100 99
f 245 242 99
f 99 242 189
f 131 33 256
f 28 1 95
f 95 1 62
f 27 2 28
f 28 2 1
f 265 115 266
f 266 115 114
f 95 62 69
f 69 62 64
f 62 61 64
f 64 61 65
f 61 13 65
f 65 13 130
f 13 12 130
f 130 12 14
f 31 11 32
f 32 11 268
f 15 12 31
f 31 12 11
f 31 30 15
f 15 30 231
f 30 106 231
f 231 106 232
f 287 237 106
f 106 237 232
f 254 90 287
f 287 90 237
f 253 44 254
f 254 44 90
f 253 249 44
f 44 249 7
f 267 127 268
f 268 127 126
f 10 3 241
f 241 3 116
f 3 2 116
f 116 2 114
f 2 27 114
f 114 27 266
f 27 26 266
f 266 26 113
f 26 286 113
f 113 286 110
f 286 243 110
f 110 243 255
f 243 242 255
f 255 242 256
f 242 245 256
f 256 245 131
f 245 244 131
f 131 244 132
f 265 37 115
f 115 37 41
f 41 37 42
f 42 37 40
f 92 91 40
f 40 91 42
f 236 233 92
f 92 233 91
f 191 194 236
f 236 194 233
f 258 285 244
f 244 285 132
f 257 55 258
f 258 55 285
f 257 154 201
f 201 154 185
f 56 201 204
f 204 201 180
f 55 257 56
f 56 257 201
f 204 85 56
f 56 85 52
f 86 122 53
f 53 122 79
f 212 215 86
f 86 215 122
f 211 216 212
f 212 216 215
f 192 280 211
f 211 280 216
f 191 240 192
f 192 240 280
f 249 124 7
f 7 124 8
f 124 127 8
f 8 127 241
f 127 267 241
f 241 267 10
f 10 267 9
f 9 267 11
