v 0.044389113783836365 0.08354867994785309 0.7179083824157715
v 0.05681142210960388 0.0793546512722969 0.7174445390701294
v 0.04974199831485748 0.07491281628608704 0.7232028841972351
v 0.03908926248550415 0.07960204780101776 0.7238507866859436
v 0.06693778187036514 0.07163895666599274 0.7357363700866699
v 0.07086227834224701 0.07713283598423004 0.745368480682373
v 0.054167456924915314 0.07479973137378693 0.7469155788421631
v 0.054170846939086914 0.06976558268070221 0.7378906011581421
v 0.03387625515460968 0.07943309843540192 0.7278095483779907
v 0.042798079550266266 0.0731193870306015 0.7269099354743958
v 0.031893856823444366 0.08476777374744415 0.7284314036369324
v 0.024328680709004402 0.09377007931470871 0.7329612970352173
v 0.02531781606376171 0.08712594956159592 0.7312963008880615
v 0.017253421247005463 0.09796342998743057 0.733831524848938
v 0.030178463086485863 0.1034461185336113 0.7335590720176697
v 0.019413519650697708 0.10620404034852982 0.72996985912323
v 0.03871121257543564 0.11779390275478363 0.7149204611778259
v 0.04221244528889656 0.118712417781353 0.7027313113212585
v 0.02678309753537178 0.11658941209316254 0.701367974281311
v 0.024708691984415054 0.11513198912143707 0.7140021920204163
v 0.03691279888153076 0.11335483193397522 0.6841557621955872
v 0.03037853352725506 0.11523044854402542 0.6934542655944824
v 0.0460122749209404 0.11844709515571594 0.6948370337486267
v 0.05116601288318634 0.11634328961372375 0.6863903403282166
v 0.05181260406970978 0.08829088509082794 0.7062128186225891
v 0.06326992064714432 0.08640369772911072 0.7052523493766785
v 0.06169208884239197 0.0846002921462059 0.7096617221832275
v 0.05011271685361862 0.08712130039930344 0.7106889486312866
v 0.029903845861554146 0.08785495907068253 0.7338494062423706
v 0.03717377036809921 0.09618648141622543 0.7379774451255798
v 0.032793283462524414 0.09253999590873718 0.7328518629074097
v 0.02999587170779705 0.08353708684444427 0.7303400039672852
v 0.08870503306388855 0.08020791411399841 0.6971724033355713
v 0.10054618120193481 0.08603715151548386 0.6994565725326538
v 0.09990537166595459 0.08651755750179291 0.7053806185722351
v 0.08933031558990479 0.08141118288040161 0.7020688652992249
v 0.0918227806687355 0.08303770422935486 0.7305809259414673
v 0.09907909482717514 0.08899810165166855 0.7246494293212891
v 0.10294872522354126 0.09814845770597458 0.7335748076438904
v 0.09385958313941956 0.09586403518915176 0.7382742166519165
v 0.08204144239425659 0.07864177972078323 0.7395004630088806
v 0.08409308642148972 0.08983824402093887 0.745193362236023
v 0.06989148259162903 0.08756203949451447 0.7506492137908936
v 0.05187668278813362 0.0827849954366684 0.7515535950660706
v 0.10201014578342438 0.08798032999038696 0.6868993639945984
v 0.0936780571937561 0.08347555994987488 0.6834194660186768
v -0.025109147652983665 0.12502466142177582 0.7225185036659241
v -0.025761811062693596 0.12296799570322037 0.7170908451080322
v -0.02313222549855709 0.11836646497249603 0.7197698950767517
v -0.02240121364593506 0.12106206268072128 0.7244877219200134
v 0.0953521579504013 0.10219844430685043 0.6744414567947388
v 0.09391654282808304 0.11211933195590973 0.6753242015838623
v 0.10107273608446121 0.11104077100753784 0.6751056909561157
v 0.10262539237737656 0.10185705870389938 0.6761568188667297
v 0.08569648116827011 0.10250068455934525 0.6723067164421082
v 0.08390112966299057 0.11295360326766968 0.6761611700057983
v -0.015584392473101616 0.1332463026046753 0.722317636013031
v -0.019571244716644287 0.13136664032936096 0.7249375581741333
v -0.015762940049171448 0.1280316412448883 0.7265073657035828
v -0.011774007230997086 0.129582941532135 0.7232178449630737
v 0.028765639290213585 0.08412414789199829 0.7269534468650818
v 0.03372287005186081 0.084762804210186 0.7196055054664612
v 0.005396360997110605 0.08884091675281525 0.7275571823120117
v 0.018866585567593575 0.08669830858707428 0.7228222489356995
v 0.018421480432152748 0.08725078403949738 0.7299372553825378
v 0.008167630061507225 0.09076987206935883 0.7329752445220947
v 0.029246630147099495 0.08912400156259537 0.701300323009491
v 0.0409819632768631 0.08945336937904358 0.7025564908981323
v 0.03804222494363785 0.08919045329093933 0.7082356214523315
v 0.02479718066751957 0.08818808197975159 0.7086791396141052
v 0.04533788561820984 0.08670611679553986 0.6894184947013855
v 0.03342581167817116 0.0870199128985405 0.6892426609992981
v 0.03723815083503723 0.08533549308776855 0.6818529963493347
v 0.045111749321222305 0.08453626930713654 0.6832873225212097
v 0.010728025808930397 0.08875024318695068 0.6914920210838318
v 0.002360033802688122 0.09296718239784241 0.6908347606658936
v 0.0025379429571330547 0.09478647261857986 0.6867186427116394
v 0.011923860758543015 0.08937901258468628 0.6877835392951965
v 0.10811043530702591 0.1110527515411377 0.6753536462783813
v 0.10938369482755661 0.10192295908927917 0.6786909699440002
v 0.04583728313446045 0.10653498023748398 0.6663178205490112
v 0.05208541452884674 0.09901673346757889 0.6615794897079468
v 0.040034350007772446 0.09589725732803345 0.6577613949775696
v 0.037058066576719284 0.10479975491762161 0.6637599468231201
v 0.09077585488557816 0.11972178518772125 0.6816034913063049
v 0.09824944287538528 0.11969694495201111 0.6793151497840881
v -0.012692250311374664 0.13345181941986084 0.7167935371398926
v -0.009721124544739723 0.12972556054592133 0.7174302339553833
v 0.06981807947158813 0.09913058578968048 0.74821537733078
v 0.050317201763391495 0.09193821996450424 0.7505433559417725
v 0.0843176320195198 0.10343106091022491 0.7428452372550964
v 0.09347916394472122 0.10729099810123444 0.7375265955924988
v 0.10192659497261047 0.10962846130132675 0.7354735136032104
v 0.01464572548866272 0.08638709038496017 0.7171614766120911
v 0.0399794839322567 0.08720085024833679 0.7133556604385376
v 0.053367678076028824 0.0882144421339035 0.7017145752906799
v 0.0582735612988472 0.0804816260933876 0.6725843548774719
v 0.06870754063129425 0.08016452193260193 0.6742509603500366
v 0.06299519538879395 0.0799679309129715 0.6832032203674316
v 0.05501696839928627 0.08094976842403412 0.6798239946365356
v 0.052828289568424225 0.08928153663873672 0.660681962966919
v 0.050123389810323715 0.08334502577781677 0.6650590300559998
v 0.0410882905125618 0.08306007087230682 0.6635593771934509
v 0.042290106415748596 0.08784742653369904 0.658685564994812
v 0.02984989993274212 0.08991611748933792 0.7406136989593506
v 0.04169590026140213 0.09868612140417099 0.7426229119300842
v 0.09609729051589966 0.09211516380310059 0.677215576171875
v 0.10274308919906616 0.09300389140844345 0.6810266971588135
v 0.11037525534629822 0.09571213275194168 0.6832429766654968
v 0.07643821090459824 0.08229479193687439 0.7028985023498535
v 0.08988815546035767 0.08200420439243317 0.7057624459266663
v 0.08914656192064285 0.08117375522851944 0.7110468149185181
v 0.07628846168518066 0.08240445703268051 0.7060455083847046
v 0.06893280893564224 0.07432901859283447 0.7211772799491882
v 0.07967329770326614 0.07448707520961761 0.7273930907249451
v 0.05879437178373337 0.07025516033172607 0.7266795635223389
v 0.10076699405908585 0.08743753284215927 0.7139104604721069
v 0.10961072146892548 0.08865904808044434 0.7072542309761047
v 0.10913115739822388 0.09035411477088928 0.7160990834236145
v 0.11055086553096771 0.0894225537776947 0.6975388526916504
v 0.11086159944534302 0.0916084498167038 0.6889165639877319
v 0.10606202483177185 0.1225469559431076 0.6777218580245972
v 0.10756125301122665 0.09348837286233902 0.7238844037055969
v 0.04528779163956642 0.06918470561504364 0.737729549407959
v 0.03706628829240799 0.06818649172782898 0.7370533347129822
v 0.03551828861236572 0.07099654525518417 0.7297807931900024
v 0.04282699525356293 0.07107727229595184 0.7295724153518677
v 0.009306594729423523 0.10347851365804672 0.7334516048431396
v 0.007673138286918402 0.09642259776592255 0.7352188229560852
v 0.01859264262020588 0.09113766252994537 0.7346441745758057
v 0.07911033183336258 0.07914290577173233 0.6907809376716614
v 0.0838625431060791 0.0816577821969986 0.679443359375
v 0.0016853944398462772 0.09005840122699738 0.7216651439666748
v -0.008332949131727219 0.12776243686676025 0.7230782508850098
v -0.011538559570908546 0.1255558729171753 0.7272549867630005
v 0.0005057768430560827 0.11500424891710281 0.730006217956543
v 0.0030480409041047096 0.1184038445353508 0.7251499891281128
v -0.004788152873516083 0.0990375429391861 0.7156118154525757
v -0.0037498390302062035 0.09594611078500748 0.7211699485778809
v -0.006141094025224447 0.10039569437503815 0.7199949026107788
v -0.007242069113999605 0.10344171524047852 0.7145561575889587
v 0.007479543332010508 0.09236716479063034 0.6795194745063782
v 0.015981651842594147 0.08787515759468079 0.6805098056793213
v 0.010044297203421593 0.10966911166906357 0.7122710943222046
v 0.014058513566851616 0.11109223961830139 0.723378598690033
v 0.02305496856570244 0.11280320584774017 0.7228448987007141
v 0.03240867331624031 0.08836570382118225 0.6945885419845581
v 0.021614843979477882 0.08781225979328156 0.6925671100616455
v 0.02278190292418003 0.08756300806999207 0.6885817646980286
v 0.011111089959740639 0.08738765865564346 0.7136082053184509
v 0.0010031573474407196 0.0904586911201477 0.7153881788253784
v 0.006028189789503813 0.0895046666264534 0.7098667621612549
v 0.01513948105275631 0.0883125588297844 0.7084226608276367
v 0.0644625574350357 0.10150442272424698 0.6647774577140808
v 0.06541869789361954 0.09004566073417664 0.6632603406906128
v -0.022883977741003036 0.12821733951568604 0.7251896262168884
v -0.019550150260329247 0.12445861101150513 0.7270601391792297
v 0.0438331663608551 0.08870141953229904 0.6959618330001831
v 0.03592032566666603 0.1138821691274643 0.7231663465499878
v 0.055168259888887405 0.08745677024126053 0.6966789364814758
v 0.02240784838795662 0.1041126400232315 0.6735285520553589
v 0.020664313808083534 0.09885213524103165 0.6695775985717773
v 0.015094863250851631 0.10012560337781906 0.6714545488357544
v 0.016958685591816902 0.10516675561666489 0.6734837293624878
v -0.01643422059714794 0.11533842980861664 0.7104663848876953
v -0.019578684121370316 0.11386499553918839 0.7150297164916992
v -0.02216453291475773 0.11753460019826889 0.7135794758796692
v -0.018785884603857994 0.1188802495598793 0.7093322277069092
v -0.0022803712636232376 0.0963166356086731 0.7268999814987183
v 0.00047153118066489697 0.09788230061531067 0.7324565649032593
v -0.004941749852150679 0.10422509908676147 0.7300127148628235
v -0.0062385788187384605 0.10189972817897797 0.7249059677124023
v 0.0021084765903651714 0.10421598702669144 0.73369300365448
v -0.0022514795418828726 0.10967674106359482 0.7317747473716736
v -0.011387009173631668 0.11951753497123718 0.7091458439826965
v -0.006449137814342976 0.12497381865978241 0.7119174003601074
v 0.001797559205442667 0.11541230976581573 0.7129635214805603
v -0.0043782442808151245 0.11029840260744095 0.7119684815406799
v 0.06534523516893387 0.11960521340370178 0.6888585686683655
v 0.06907213479280472 0.11576159298419952 0.6792397499084473
v 0.054966144263744354 0.11252398043870926 0.6764469146728516
v 0.04156659543514252 0.10985203087329865 0.6732401251792908
v 0.029320241883397102 0.10583075135946274 0.6713895797729492
v 0.025872012600302696 0.11093348264694214 0.6818694472312927
v 0.05891142785549164 0.10941830277442932 0.6702125072479248
v -0.0013469276018440723 0.1036774069070816 0.7106226682662964
v 0.005438727792352438 0.10830812156200409 0.7154380679130554
v 0.003523595631122589 0.10779048502445221 0.7112642526626587
v 0.05674976855516434 0.08473924547433853 0.6899787783622742
v -0.014902770519256592 0.12197501957416534 0.728446364402771
v 0.09111564606428146 0.1235555037856102 0.7236886024475098
v 0.09135989844799042 0.12733973562717438 0.7112077474594116
v 0.08295083045959473 0.12535151839256287 0.7128116488456726
v 0.08236826211214066 0.12063919007778168 0.7262324690818787
v -0.020227115601301193 0.11422769725322723 0.7217901945114136
v -0.0186845064163208 0.11745700240135193 0.7267858386039734
v 0.017372360453009605 0.0874793529510498 0.6743723154067993
v 0.010280309244990349 0.09238490462303162 0.6744365096092224
v 0.010574987158179283 0.09503454715013504 0.6715853214263916
v 0.016523312777280807 0.0888194888830185 0.6694872975349426
v 0.07229161262512207 0.11323074996471405 0.6750643253326416
v 0.0317414365708828 0.09187720715999603 0.6562073230743408
v 0.03060826100409031 0.10093604028224945 0.6603053212165833
v 0.08139561116695404 0.11864949762821198 0.6820803880691528
v 0.07822408527135849 0.12260279059410095 0.6903358697891235
v 0.08768000453710556 0.12460653483867645 0.6908202171325684
v 0.014612294733524323 0.11119790375232697 0.6925843358039856
v 0.06070580333471298 0.12113012373447418 0.6959472298622131
v 0.07478384673595428 0.1235528364777565 0.6970573663711548
v 0.08595367521047592 0.12595605850219727 0.6979485750198364
v 0.09396453201770782 0.12818892300128937 0.6978487968444824
v 0.09509049355983734 0.12626755237579346 0.6900558471679688
v -0.006630389019846916 0.12730073928833008 0.7168897390365601
v -0.009499477222561836 0.12750643491744995 0.7115768194198608
v 0.10337424278259277 0.12964072823524475 0.6886216402053833
v 0.10187701880931854 0.13103097677230835 0.6976236701011658
v 0.07164488732814789 0.12377797812223434 0.7056953310966492
v 0.06821702420711517 0.12279538810253143 0.7156979441642761
v 0.05816582962870598 0.1212741956114769 0.7041720747947693
v 0.0536503866314888 0.12015846371650696 0.7141011357307434
v 0.016189614310860634 0.11472061276435852 0.7020919322967529
v -0.020495984703302383 0.13716210424900055 0.7050882577896118
v -0.015169192105531693 0.12770652770996094 0.7073555588722229
v -0.01992432214319706 0.124009869992733 0.7073310613632202
v -0.02309940941631794 0.13356813788414001 0.7037394046783447
v -0.013881556689739227 0.12248082458972931 0.7085778713226318
v -0.011989369988441467 0.13121649622917175 0.7107844948768616
v 0.05066470056772232 0.1151871532201767 0.7251308560371399
v -0.0029667594935745 0.09434322267770767 0.7096735239028931
v 0.0663364827632904 0.11574356257915497 0.7291062474250793
v 0.04221205413341522 0.10794729739427567 0.7352287173271179
v 0.053416211158037186 0.10701409727334976 0.7386286854743958
v 0.08211129903793335 0.1147347167134285 0.7359578013420105
v 0.06795910745859146 0.10863767564296722 0.7421517968177795
v 0.09972798079252243 0.11877923458814621 0.7311186194419861
v 0.09086183458566666 0.1172281950712204 0.7326023578643799
v 0.05356058478355408 0.10143359750509262 0.7458441853523254
v -0.031868062913417816 0.13083849847316742 0.7148895859718323
v -0.03029962070286274 0.12841352820396423 0.7098935842514038
v 0.0991409420967102 0.12587089836597443 0.7228154540061951
v 0.049480732530355453 0.06989123672246933 0.72898930311203
v 0.06702587008476257 0.08285871893167496 0.6932478547096252
v 0.06549366563558578 0.0849791169166565 0.6980501413345337
v 0.07481519877910614 0.08051790297031403 0.6760064959526062
v 0.07009342312812805 0.07968020439147949 0.6866726875305176
v -0.030626218765974045 0.13450570404529572 0.7185769081115723
v 0.00038518826477229595 0.09921760112047195 0.6897648572921753
v 0.0020843511447310448 0.10011173039674759 0.6882815361022949
v 0.044941794127225876 0.07200147211551666 0.7461002469062805
v 0.037437230348587036 0.06994068622589111 0.7446008920669556
v 0.031167419627308846 0.08084769546985626 0.7486612796783447
v 0.034163977950811386 0.0743405818939209 0.7490741610527039
v 0.04235505312681198 0.07872526347637177 0.7506706714630127
v 0.03977460786700249 0.08597191423177719 0.7499847412109375
v 0.07628601044416428 0.08181839436292648 0.7002764344215393
v 0.07653963565826416 0.08095508813858032 0.696465015411377
v 0.07583454996347427 0.10184913128614426 0.6684863567352295
v 0.07602963596582413 0.09042367339134216 0.6672662496566772
v 0.004876262042671442 0.10892356932163239 0.7314233779907227
v 0.011723559349775314 0.10869450867176056 0.7292488813400269
v 0.007707701530307531 0.11275914311408997 0.7264025807380676
v 0.004829465877264738 0.11780290305614471 0.7188360691070557
v -0.00503088254481554 0.10010559856891632 0.7093569040298462
v -0.001538661541417241 0.1038006991147995 0.7136773467063904
v 0.08488994836807251 0.07780154794454575 0.717974841594696
v 0.07422561943531036 0.07961229234933853 0.712439239025116
v 0.03822170943021774 0.07493877410888672 0.727566659450531
v 0.0325586274266243 0.07666974514722824 0.7272379398345947
v 0.019735900685191154 0.08836929500102997 0.7015706896781921
v 0.007266527507454157 0.11134985834360123 0.6941566467285156
v 0.007755129132419825 0.1147092878818512 0.7018305659294128
v 0.009416855871677399 0.0892614871263504 0.7012938857078552
v -0.025280535221099854 0.14091946184635162 0.7172823548316956
v -0.028841247782111168 0.13770043849945068 0.719065248966217
v 0.008407877758145332 0.11278028786182404 0.7207825183868408
v 0.02602331154048443 0.08526822179555893 0.6811947822570801
v 0.012257330119609833 0.1075950413942337 0.689700186252594
v 0.004421320743858814 0.10602010786533356 0.690716564655304
v 0.03580678254365921 0.08577681332826614 0.6582829356193542
v 0.09999364614486694 0.1293637901544571 0.7107972502708435
v -0.024245893582701683 0.12247259169816971 0.7106406688690186
v -0.027349580079317093 0.12848031520843506 0.7056590914726257
v -0.018751123920083046 0.13989967107772827 0.7078292965888977
v -0.019849851727485657 0.14154857397079468 0.7131779193878174
v 0.08536382019519806 0.09043170511722565 0.6726284027099609
v 0.06419022381305695 0.08611222356557846 0.7011218667030334
v 0.04105011373758316 0.09499307721853256 0.7461435198783875
v 0.029992839321494102 0.08719979226589203 0.7448835372924805
v 0.001344223041087389 0.0917009487748146 0.7005064487457275
v 0.025950757786631584 0.1015462800860405 0.6665271520614624
v 0.019326226785779 0.10984146595001221 0.680589497089386
v 0.015937678515911102 0.11099162697792053 0.6798900961875916
v 0.01087886095046997 0.11117103695869446 0.6847951412200928
v 0.004091021604835987 0.10783564299345016 0.6863925457000732
v -0.02193370833992958 0.1425512433052063 0.7051054835319519
v -0.02439865469932556 0.14512459933757782 0.7094618678092957
v -0.02959521859884262 0.14455461502075195 0.7113577723503113
v -0.0330943800508976 0.14093054831027985 0.7134461998939514
v -0.03398356959223747 0.13610003888607025 0.7141525745391846
v -0.023232603445649147 0.13947634398937225 0.7026690244674683
v -0.02477860637009144 0.13610857725143433 0.7020003795623779
v -0.028282957151532173 0.13082486391067505 0.7046989798545837
v -0.02310303784906864 0.13980814814567566 0.6990408301353455
v -0.02362954244017601 0.14436820149421692 0.6991952061653137
v -0.03495277464389801 0.14910393953323364 0.6990119814872742
v -0.031373027712106705 0.14828747510910034 0.7031923532485962
v -0.030843114480376244 0.14888305962085724 0.7009916305541992
v -0.03294415399432182 0.15029191970825195 0.6970285177230835
v -0.033686522394418716 0.15207023918628693 0.6925626397132874
v -0.03649291768670082 0.15077976882457733 0.6942334771156311
v -0.02685505710542202 0.14707010984420776 0.7014720439910889
v -0.02894674427807331 0.14905409514904022 0.695968508720398
v -0.02603290043771267 0.14684318006038666 0.6939958930015564
v -0.027182018384337425 0.14944158494472504 0.6896530985832214
v -0.029917409643530846 0.15173858404159546 0.6912411451339722
v -0.024913588538765907 0.14576977491378784 0.697986900806427
v -0.02627081423997879 0.14695405960083008 0.702878475189209
v -0.035637084394693375 0.15140563249588013 0.6900748610496521
v -0.03358997032046318 0.15280234813690186 0.689949631690979
v -0.030741004273295403 0.15210142731666565 0.6886005997657776
v -0.03239880129694939 0.15092439949512482 0.686500608921051
v -0.034505877643823624 0.1441010683774948 0.7070789933204651
v -0.03656940162181854 0.14730767905712128 0.6993048191070557
v -0.037268850952386856 0.1479271501302719 0.6936912536621094
v -0.03633850812911987 0.1488044559955597 0.6895993947982788
v -0.037197623401880264 0.1438853144645691 0.6976001262664795
v -0.03692231699824333 0.1451728492975235 0.6930239796638489
v -0.035976674407720566 0.14555968344211578 0.689269483089447
v -0.03619886934757233 0.14051473140716553 0.6954699158668518
v -0.03582080826163292 0.1425887644290924 0.6916881799697876
v -0.034719713032245636 0.13492190837860107 0.7077959179878235
v -0.03511710837483406 0.1387733668088913 0.7090157270431519
v -0.03575025871396065 0.14344613254070282 0.6892479062080383
v -0.032748833298683167 0.14883220195770264 0.6861345767974854
v -0.024481045082211494 0.1436007022857666 0.6938430666923523
v -0.026826107874512672 0.14630073308944702 0.6884352564811707
v -0.024662034586071968 0.1415572166442871 0.6932573318481445
v -0.026688380166888237 0.14396263659000397 0.6876787543296814
v -0.02826881967484951 0.1487005650997162 0.6855390667915344
v -0.028543928638100624 0.1503707766532898 0.6875243782997131
v -0.03314943611621857 0.13170988857746124 0.7121595740318298
v -0.03068767674267292 0.1297026127576828 0.7079334855079651
v -0.031060943379998207 0.13216793537139893 0.7044458389282227
v -0.03318443521857262 0.13779234886169434 0.6933335065841675
v -0.027873637154698372 0.13248494267463684 0.7013499736785889
v -0.024302707985043526 0.13689257204532623 0.6978884935379028
v -0.025950102135539055 0.13965068757534027 0.6920346617698669
v -0.028574496507644653 0.13782115280628204 0.6918736100196838
v -0.027866249904036522 0.14179259538650513 0.6880970001220703
v -0.030034689232707024 0.14059670269489288 0.6888334155082703
v -0.03346217796206474 0.1405644416809082 0.689965009689331
v -0.03027663193643093 0.14384794235229492 0.6859920024871826
v -0.0289145614951849 0.14645667374134064 0.6853482723236084
v -0.03339748457074165 0.1455460786819458 0.6865335702896118
v -0.03103061579167843 0.14229997992515564 0.6870810985565186
v -0.03354208543896675 0.14332269132137299 0.6879945397377014
v -0.03382738679647446 0.11640291661024094 0.684044599533081
v -0.02987496182322502 0.11528918147087097 0.679682731628418
v -0.027283983305096626 0.10919056087732315 0.6841208338737488
v -0.030210549011826515 0.1104331910610199 0.6882971525192261
v -0.027662117034196854 0.12488485127687454 0.6928332448005676
v -0.03264748677611351 0.12169154733419418 0.6912216544151306
v -0.02887202985584736 0.11808004975318909 0.6956778168678284
v -0.02321552485227585 0.12238311767578125 0.6957992315292358
v -0.021441617980599403 0.1255652904510498 0.6903101205825806
v -0.01746438629925251 0.1230015680193901 0.6920204758644104
v -0.019418606534600258 0.12289877235889435 0.6974259614944458
v -0.023738786578178406 0.11731564253568649 0.6986391544342041
v -0.006657226476818323 0.108222596347332 0.7064751386642456
v -0.003850058652460575 0.114841528236866 0.7049906253814697
v -0.004032144322991371 0.09697290509939194 0.6926902532577515
v -0.0034379824064671993 0.10065557062625885 0.6908797025680542
v -0.034260738641023636 0.11859545111656189 0.6874998211860657
v -0.030471952632069588 0.11394061148166656 0.6926229000091553
v -0.01787879317998886 0.11023268848657608 0.6808627843856812
v -0.0214944239705801 0.10733464360237122 0.6837315559387207
v -0.024089954793453217 0.10984012484550476 0.6804309487342834
v -0.019925951957702637 0.1122760996222496 0.6790658831596375
v -0.007086385507136583 0.09920614212751389 0.7039814591407776
v -0.004831255879253149 0.09662236273288727 0.6986202597618103
v -0.0077151102013885975 0.10327363014221191 0.7054202556610107
v -0.014438077807426453 0.11562953144311905 0.6814464330673218
v -0.012529175728559494 0.12136248499155045 0.6846935153007507
v 0.0010683515574783087 0.11509454250335693 0.6919326782226562
v -0.0005856435745954514 0.10908076167106628 0.6891613006591797
v -0.026101160794496536 0.11249469965696335 0.6967198848724365
v -0.024468732997775078 0.10689178854227066 0.6883305907249451
v -0.026369070634245872 0.10834620893001556 0.692726194858551
v -0.014916563406586647 0.12405116856098175 0.69184809923172
v -0.015209151431918144 0.12159045040607452 0.6847462058067322
v -0.020839998498558998 0.1307411640882492 0.6723052263259888
v -0.018198788166046143 0.1212865561246872 0.6792916655540466
v -0.021367106586694717 0.11810334771871567 0.6767878532409668
v -0.023378882557153702 0.12781605124473572 0.6689748167991638
v -0.016981106251478195 0.116427943110466 0.680663526058197
v -0.017997292801737785 0.12447910010814667 0.684009313583374
v -0.03655178099870682 0.12832418084144592 0.6722309589385986
v -0.03222525492310524 0.12644509971141815 0.6683591604232788
v -0.037485867738723755 0.13109669089317322 0.6756922602653503
v -0.0004082347732037306 0.11785241216421127 0.6986467838287354
v -0.031338997185230255 0.1356096863746643 0.6824430823326111
v -0.03624311089515686 0.13313937187194824 0.6792832016944885
v -0.02549573965370655 0.1158137395977974 0.6766940355300903
v -0.027560969814658165 0.1264563500881195 0.6672785878181458
v -0.020516233518719673 0.13360513746738434 0.6760379076004028
v -0.02452939562499523 0.1352660059928894 0.6819292902946472
v -0.02211211808025837 0.13518613576889038 0.6703566312789917
v -0.025343460962176323 0.13908734917640686 0.6744322180747986
v -0.03173469752073288 0.14003291726112366 0.6746589541435242
v -0.036657046526670456 0.1375650018453598 0.6726700067520142
v -0.03812802582979202 0.1345234215259552 0.6706981658935547
v -0.02265722118318081 0.13243046402931213 0.6674113869667053
v -0.02546790987253189 0.1297949254512787 0.6646050214767456
v -0.029917998239398003 0.12780487537384033 0.6649020910263062
v -0.023441120982170105 0.1333318054676056 0.6617041826248169
v -0.022565849125385284 0.13682791590690613 0.6633031368255615
v -0.03254250809550285 0.1482197344303131 0.6549142599105835
v -0.032259710133075714 0.14637599885463715 0.6603188514709473
v -0.02966923825442791 0.14636853337287903 0.6598934531211853
v -0.029689999297261238 0.14825528860092163 0.6549949645996094
v -0.030355902388691902 0.1447332501411438 0.6658870577812195
v -0.0285201296210289 0.1447831392288208 0.6638472080230713
v -0.025094836950302124 0.1418871134519577 0.664131224155426
v -0.025715580210089684 0.14395180344581604 0.6588419675827026
v -0.023230886086821556 0.13987544178962708 0.6579406261444092
v -0.02272462286055088 0.14221468567848206 0.6531842947006226
v -0.02500540390610695 0.14651495218276978 0.6538788676261902
v -0.023094533011317253 0.1395508348941803 0.6617989540100098
v -0.028861019760370255 0.14879101514816284 0.6516996622085571
v -0.03064308688044548 0.1483062505722046 0.6498274207115173
v -0.02552146278321743 0.1411275863647461 0.6669609546661377
v -0.03553852438926697 0.14138254523277283 0.6683019995689392
v -0.034928128123283386 0.14512299001216888 0.6596692800521851
v -0.03467167168855667 0.14643323421478271 0.653395414352417
v -0.031612902879714966 0.1458970010280609 0.6482433080673218
v -0.03648156672716141 0.14198589324951172 0.6575512886047363
v -0.03524349257349968 0.14366570115089417 0.6519342660903931
v -0.03223048523068428 0.1432194709777832 0.6480625867843628
v -0.036462392657995224 0.13792194426059723 0.6552793383598328
v -0.03456198796629906 0.1398697942495346 0.6502450108528137
v -0.037919338792562485 0.13326025009155273 0.6652935147285461
v -0.03808778524398804 0.1373441219329834 0.667140543460846
v -0.03289545327425003 0.14097821712493896 0.6485536694526672
v -0.026238204911351204 0.14687956869602203 0.648091197013855
v -0.028014102950692177 0.14441514015197754 0.6465309858322144
v -0.025632798671722412 0.14723801612854004 0.6498644948005676
v -0.02271977812051773 0.13793963193893433 0.6572797298431396
v -0.022894328460097313 0.1403421312570572 0.6518904566764832
v -0.02327709272503853 0.135640949010849 0.6559852957725525
v -0.023537160828709602 0.13864031434059143 0.6503172516822815
v -0.023492714390158653 0.14292842149734497 0.648385226726532
v -0.02336692251265049 0.14432884752750397 0.6494450569152832
v -0.03723233565688133 0.13102835416793823 0.6685736775398254
v -0.03349434211850166 0.1281539499759674 0.6661033034324646
v -0.034850843250751495 0.12947218120098114 0.6634112596511841
v -0.03346967697143555 0.13420209288597107 0.6539373397827148
v -0.030562734231352806 0.12842699885368347 0.6623956561088562
v -0.0256961602717638 0.13078390061855316 0.6609532237052917
v -0.025175798684358597 0.1337054818868637 0.6552910208702087
v -0.028836792334914207 0.13295912742614746 0.6540356874465942
v -0.024606669321656227 0.13678419589996338 0.6496440768241882
v -0.027570711448788643 0.1353941261768341 0.6503420472145081
v -0.03211869299411774 0.13678471744060516 0.6498043537139893
v -0.025581318885087967 0.13976934552192688 0.6466508507728577
v -0.02420426905155182 0.14166468381881714 0.647301197052002
v -0.02914508618414402 0.14245693385601044 0.6465548872947693
v -0.02763417549431324 0.13782355189323425 0.6476300358772278
v -0.030705099925398827 0.13979588449001312 0.6474595069885254
v -0.016779065132141113 0.12421795725822449 0.6693524122238159
v -0.016909493133425713 0.12044428288936615 0.6649393439292908
v -0.017380839213728905 0.11415193974971771 0.6672544479370117
v -0.017688535153865814 0.11810067296028137 0.6719829440116882
v -0.004348024260252714 0.12546567618846893 0.672236979007721
v -0.009059473872184753 0.12685255706310272 0.6731275320053101
v -0.010018909350037575 0.12288350611925125 0.675852358341217
v -0.004728501196950674 0.12131263315677643 0.67561274766922
v -0.0013293339870870113 0.12405090034008026 0.6678708791732788
v -0.0012360443361103535 0.11973574757575989 0.6715638637542725
v -0.0023613437078893185 0.12096339464187622 0.6782060265541077
v -0.008476760238409042 0.11980137228965759 0.6786664128303528
v 0.0011686249636113644 0.11065296083688736 0.6842933893203735
v 0.006780652794986963 0.11479979753494263 0.6829766631126404
v -0.013407079502940178 0.1262621134519577 0.6718875765800476
v -0.01470489427447319 0.12148311734199524 0.6745538115501404
v -0.006879054009914398 0.10891573876142502 0.6631791591644287
v -0.009821097366511822 0.10809823870658875 0.6661637425422668
v -0.014612134546041489 0.11300782859325409 0.6625611186027527
v -0.011333128437399864 0.11298664659261703 0.6602902412414551
v -0.0008173920214176178 0.09972718358039856 0.6825311779975891
v 0.0027353158220648766 0.09730352461338043 0.6780237555503845
v -0.0018646684475243092 0.10525915771722794 0.6836169362068176
v -0.0023730876855552197 0.11192489415407181 0.6628443002700806
v 0.0023885490372776985 0.11665362864732742 0.666935384273529
v 0.01192774623632431 0.11034375429153442 0.6714823842048645
v 0.009453147649765015 0.1047339215874672 0.6700966358184814
v -0.01271829567849636 0.11689499020576477 0.6778777837753296
v -0.012744497507810593 0.10894812643527985 0.6706076860427856
v -0.014577895402908325 0.11259409785270691 0.6751718521118164
v 0.001398283988237381 0.12023657560348511 0.6734893321990967
v -0.001790712121874094 0.11683627218008041 0.665086567401886
v -0.004274196457117796 0.13226808607578278 0.6521710753440857
v -0.005731127690523863 0.1170007735490799 0.6590966582298279
v -0.010898645967245102 0.11728024482727051 0.6587780117988586
v -0.00812586396932602 0.13246995210647583 0.6505083441734314
v -0.006255653221160173 0.11399506032466888 0.6602398753166199
v -0.0014033163897693157 0.11988664418458939 0.6627944707870483
v -0.013975268229842186 0.13900205492973328 0.6589215993881226
v -0.014371555298566818 0.1349945068359375 0.6550226807594299
v -0.011466769501566887 0.13951945304870605 0.662097692489624
v 0.01159144937992096 0.11518970876932144 0.67781662940979
v 0.0064333281479775906 0.09897257387638092 0.6722322106361389
v -0.004425623919814825 0.13932083547115326 0.6623044013977051
v -0.008376089856028557 0.14025214314460754 0.6633107662200928
v -0.014289384707808495 0.11806114763021469 0.6609930396080017
v -0.011747833341360092 0.13305675983428955 0.6513818502426147
v -0.002208187710493803 0.1334589272737503 0.6555468440055847
v -0.0016205883584916592 0.13614912331104279 0.6598758101463318
v -0.0037071811966598034 0.13607697188854218 0.6506609916687012
v -0.002223582472652197 0.13867305219173431 0.6548356413841248
v -0.00240139989182353 0.14181995391845703 0.6565664410591125
v -0.0050475928001105785 0.14393040537834167 0.6582040190696716
v -0.008415617048740387 0.14439693093299866 0.6579073071479797
v -0.006844712886959314 0.1364317238330841 0.6480796933174133
v -0.010204670950770378 0.13746483623981476 0.6478399634361267
v -0.011786121875047684 0.1375124454498291 0.650530219078064
v -0.0087807085365057 0.13856825232505798 0.6443305015563965
v -0.0036386861465871334 0.13890239596366882 0.6444430947303772
v 0.0030605890788137913 0.1517838090658188 0.6422101855278015
v 0.001765735913068056 0.14880460500717163 0.6458854675292969
v 0.0023183939047157764 0.14788952469825745 0.6450988054275513
v 0.003938574809581041 0.15089534223079681 0.6412023305892944
v 0.0007703634910285473 0.14389032125473022 0.6495093703269958
v 0.001900551375001669 0.14394131302833557 0.647498369216919
v 0.00024194316938519478 0.14110404253005981 0.6458844542503357
v 0.0013615167699754238 0.14483916759490967 0.6412487030029297
v -0.00316045293584466 0.1425185203552246 0.6391362547874451
v -0.0016264705918729305 0.14589451253414154 0.6363949179649353
v 0.002943065483123064 0.14774161577224731 0.637942373752594
v -0.0024939081631600857 0.1397237777709961 0.6430473923683167
v 0.0037246202118694782 0.15175163745880127 0.6385581493377686
v 0.00480258883908391 0.1539713740348816 0.6390315294265747
v -0.0010497434996068478 0.14083778858184814 0.6483724117279053
v -0.0002801395021378994 0.1463632881641388 0.6535079479217529
v 0.0008880109526216984 0.1508234143257141 0.6475206017494202
v 0.0019232411868870258 0.1550237536430359 0.6439403891563416
v 0.00150002958253026 0.15562528371810913 0.6398547291755676
v -0.002309053670614958 0.15226420760154724 0.6482870578765869
v -0.0013054176233708858 0.1553654670715332 0.6441569328308105
v -0.0015120054595172405 0.15623067319393158 0.6404134035110474
v -0.005661277566105127 0.15220704674720764 0.6480889320373535
v -0.004402689170092344 0.15461039543151855 0.6437686681747437
v -0.00907202996313572 0.14537112414836884 0.6554141640663147
v -0.004097834695130587 0.14651335775852203 0.6554200649261475
v -0.003546124789863825 0.15559932589530945 0.6408469080924988
v 0.002893683034926653 0.1513657569885254 0.6353195309638977
v -0.0007865610532462597 0.1534956842660904 0.6354756951332092
v 0.0022415504790842533 0.15010066330432892 0.6367955207824707
v -0.005198788363486528 0.14219176769256592 0.6393123269081116
v -0.003462808672338724 0.14579616487026215 0.6347995400428772
v -0.00817122869193554 0.14292165637016296 0.6399381160736084
v -0.0064313639886677265 0.14664813876152039 0.6352410316467285
v -0.0008827089332044125 0.14833559095859528 0.633705735206604
v -0.0002672257833182812 0.14828616380691528 0.6347481608390808
v -0.011665383353829384 0.14203420281410217 0.6564129590988159
v -0.013134602457284927 0.13949093222618103 0.6533269286155701
v -0.01195494644343853 0.1436995416879654 0.6533283591270447
v -0.008755011484026909 0.1511746048927307 0.6457257866859436
v -0.012577924877405167 0.1411161869764328 0.6501891613006592
v -0.01113780029118061 0.14088644087314606 0.6453592777252197
v -0.010004209354519844 0.1451156735420227 0.6411951780319214
v -0.010185540653765202 0.1481991708278656 0.6429362297058105
v -0.008477302268147469 0.1483028531074524 0.6365882158279419
v -0.008236709982156754 0.149952232837677 0.6393294334411621
v -0.0073761665262281895 0.15371599793434143 0.6418483257293701
v -0.005328780505806208 0.1509857177734375 0.6357466578483582
v -0.0035144337452948093 0.14971452951431274 0.6338856220245361
v -0.0032978481613099575 0.1546117663383484 0.636898934841156
v -0.006559380795806646 0.15190856158733368 0.6376609802246094
v -0.005196725483983755 0.15478095412254333 0.6385577321052551
v 0.005038558039814234 0.09677917510271072 0.6744943261146545
v 0.005155556369572878 0.09106442332267761 0.6711017489433289
v 0.005978698376566172 0.08727791905403137 0.6723940372467041
v 0.009114369750022888 0.08560573309659958 0.6698663234710693
v 0.009420106187462807 0.08941362053155899 0.6689420938491821
v -0.00041678687557578087 0.09171596169471741 0.661859393119812
v 0.0011797682382166386 0.09357819706201553 0.6654966473579407
v 0.004677741322666407 0.09316794574260712 0.6624332666397095
v 0.003349865321069956 0.09167543053627014 0.6584029793739319
v -0.0013903225772082806 0.08708269894123077 0.660065770149231
v 0.002310397569090128 0.0873481035232544 0.6563242673873901
v 0.005962649825960398 0.09494242072105408 0.6576840281486511
v 0.007096752058714628 0.09520591795444489 0.6624043583869934
v 0.017704525962471962 0.09948652237653732 0.6664789915084839
v 0.01927018351852894 0.1006036177277565 0.6622298955917358
v 0.02907531149685383 0.08424387127161026 0.6590370535850525
v 0.02985505573451519 0.08214060217142105 0.662972629070282
v 0.022111602127552032 0.08292976021766663 0.6636649966239929
v 0.022847017273306847 0.08341676741838455 0.6595950126647949
v 0.003241563681513071 0.09310339391231537 0.6685507893562317
v 0.006972836796194315 0.09234272688627243 0.6666358709335327
v 0.012408914044499397 0.07911202311515808 0.6628479957580566
v 0.012840205803513527 0.08092927187681198 0.6668550372123718
v 0.00972653366625309 0.08160442113876343 0.6695774793624878
v 0.008202122524380684 0.07841726392507553 0.6671390533447266
v 0.0266128983348608 0.08283166587352753 0.6669785976409912
v 0.022906215861439705 0.08479489386081696 0.6690955758094788
v 0.01948251761496067 0.08706071227788925 0.6692817807197571
v 0.020152276381850243 0.08461468666791916 0.6673036217689514
v 0.01708909310400486 0.09288773685693741 0.6698495745658875
v 0.010767541825771332 0.07971879839897156 0.6587622165679932
v 0.008361047133803368 0.0836557149887085 0.6544457077980042
v 0.023014387115836143 0.09010027348995209 0.6534332036972046
v 0.023963864892721176 0.08607466518878937 0.6558092832565308
v 0.008436044678092003 0.09336379170417786 0.6664164662361145
v 0.011816658079624176 0.08459798991680145 0.668897271156311
v 0.010412367060780525 0.08925347030162811 0.6686058640480042
v 0.0066629801876842976 0.09071632474660873 0.6539005637168884
v 0.002907660324126482 0.08149862289428711 0.658216118812561
v -0.004943390842527151 0.07848476618528366 0.6730050444602966
v 0.0014442582614719868 0.07816934585571289 0.6665619611740112
v 0.003917513880878687 0.07915443927049637 0.6704859137535095
v -0.0026961076073348522 0.07908406853675842 0.6752504706382751
v 0.006435705814510584 0.0785890445113182 0.662345826625824
v -0.0013372390531003475 0.08112983405590057 0.6625242233276367
v -0.0007708701305091381 0.0915459394454956 0.6766917705535889
v 0.00040561193600296974 0.08631346374750137 0.677418053150177
v -0.0026618256233632565 0.093531534075737 0.674897313117981
v 0.02102799154818058 0.09802031517028809 0.6564454436302185
v -0.007777440827339888 0.09168023616075516 0.6697605848312378
v -0.005489548202604055 0.09380084276199341 0.6728501915931702
v 0.0055394419468939304 0.08312845230102539 0.6722598075866699
v -0.0005115303210914135 0.08184774219989777 0.6768426895141602
v -0.007632856722921133 0.08064287900924683 0.6700493097305298
v -0.008756116032600403 0.08638717979192734 0.6676719188690186
v -0.010568372905254364 0.08098620176315308 0.6746117472648621
v -0.011691026389598846 0.08650028705596924 0.6725773811340332
v -0.009740371257066727 0.09202751517295837 0.6752538681030273
v -0.006380425300449133 0.09325124323368073 0.6765766739845276
v -0.0035659815184772015 0.09284292906522751 0.6779428124427795
v -0.00682267127558589 0.07865758240222931 0.6767613291740417
v -0.004008439835160971 0.07911761850118637 0.678199827671051
v -0.0013019791804254055 0.08178015798330307 0.6788369417190552
v -0.00867447443306446 0.07886023819446564 0.6808561682701111
v -0.012128442525863647 0.08208055794239044 0.6813727617263794
v -0.00886722095310688 0.08993043005466461 0.6917500495910645
v -0.008564252406358719 0.09082826226949692 0.6877465844154358
v -0.009503887966275215 0.09011456370353699 0.6875990629196167
v -0.009938070550560951 0.08982759714126587 0.6916448473930359
v -0.00976424291729927 0.09129246324300766 0.6823704242706299
v -0.010446416214108467 0.09013716876506805 0.6835693717002869
v -0.011921290308237076 0.08741126954555511 0.6816077828407288
v -0.01223229430615902 0.08686041086912155 0.6869054436683655
v -0.01184224896132946 0.08150521665811539 0.6870102286338806
v -0.012142421677708626 0.08172079920768738 0.6910943388938904
v -0.0127693060785532 0.0864100307226181 0.6906181573867798
v -0.012506309896707535 0.08332031965255737 0.6828643679618835
v -0.011077625676989555 0.0889296680688858 0.6940028667449951
v -0.010462222620844841 0.08914224803447723 0.6952570676803589
v -0.012565722689032555 0.08768413215875626 0.6792583465576172
v -0.005996001418679953 0.09269993007183075 0.6820175051689148
v -0.006325045134872198 0.09140540659427643 0.6888981461524963
v -0.007351783569902182 0.09015257656574249 0.6936668753623962
v -0.008820438757538795 0.08798328042030334 0.6964211463928223
v -0.003994965460151434 0.0905986875295639 0.6884747743606567
v -0.005221521016210318 0.08934369683265686 0.6940526962280273
v -0.0066588944755494595 0.08713507652282715 0.6965581178665161
v -0.001698122825473547 0.08819668740034103 0.6881521344184875
v -0.0036491169594228268 0.08736127614974976 0.693328320980072
v -0.0005751601420342922 0.08903929591178894 0.6818003058433533
v -0.0029327752999961376 0.09164239466190338 0.6820929050445557
v -0.005491559859365225 0.08627188205718994 0.6955082416534424
v -0.012370644137263298 0.08573739230632782 0.6956986784934998
v -0.009776825085282326 0.08481131494045258 0.6967816352844238
v -0.013088209554553032 0.08581104874610901 0.6942278146743774
v -0.01125871017575264 0.08026126027107239 0.6868219375610352
v -0.011460697278380394 0.08043058216571808 0.6918081641197205
v -0.00926731713116169 0.07877977192401886 0.6868520379066467
v -0.009529026225209236 0.07966209948062897 0.6923786401748657
v -0.012001728639006615 0.08219820261001587 0.6948254108428955
v -0.012752501294016838 0.08314687013626099 0.6934072971343994
v -0.0008685733191668987 0.09020552039146423 0.6795318722724915
v -0.0002878899686038494 0.08626002073287964 0.679158627986908
v -0.0003136410377919674 0.08495257794857025 0.6813173294067383
v -0.001274618785828352 0.0842132568359375 0.6875819563865662
v -0.002048139926046133 0.0806112289428711 0.680869460105896
v -0.005425430368632078 0.07863552868366241 0.6807820796966553
v -0.006576707120984793 0.0786798968911171 0.6871368885040283
v -0.0035390215925872326 0.08015897125005722 0.6875114440917969
v -0.007446920033544302 0.07993212342262268 0.6928996443748474
v -0.004725297447293997 0.08123017847537994 0.6926774978637695
v -0.0030953041277825832 0.08410744369029999 0.6927966475486755
v -0.008038913831114769 0.08232720196247101 0.6957608461380005
v -0.009900325909256935 0.08202710747718811 0.6958414316177368
v -0.007744280155748129 0.0844329372048378 0.6966157555580139
v -0.006209184881299734 0.08273105323314667 0.6952799558639526
v -0.005701224785298109 0.08429218828678131 0.6954951286315918
v 0.02728366106748581 0.0870702713727951 0.656817615032196
v 0.016004716977477074 0.07934637367725372 0.7378032803535461
v 0.01768265850841999 0.07926056534051895 0.7324333190917969
v 0.024824490770697594 0.0645165741443634 0.7304768562316895
v 0.02198861725628376 0.07045409828424454 0.7270486354827881
v 0.024783121421933174 0.06160834804177284 0.736949622631073
v 0.02123103477060795 0.06544502079486847 0.7464019060134888
v 0.024280762299895287 0.06284031271934509 0.7426687479019165
v 0.019775191321969032 0.07566556334495544 0.7281830310821533
v 0.016315756365656853 0.07704080641269684 0.7430254220962524
v 0.01845659129321575 0.07133251428604126 0.7472965717315674
v 0.005265756044536829 0.07165102660655975 0.7410451173782349
v 0.008533678948879242 0.06490771472454071 0.7446159720420837
v 0.012374777346849442 0.05854200944304466 0.7425904273986816
v 0.01768353395164013 0.05791105329990387 0.7381706237792969
v 0.02006472460925579 0.0580349862575531 0.7339324355125427
v 0.008875496685504913 0.07595926523208618 0.7351221442222595
v 0.0116167813539505 0.07652954012155533 0.7301295399665833
v 0.015866180881857872 0.07318198680877686 0.7263796329498291
v 0.0034450613893568516 0.07268466055393219 0.7297604084014893
v -7.027154788374901e-05 0.06452873349189758 0.7260183095932007
v 0.005204400513321161 0.048313744366168976 0.7166229486465454
v 0.008252354338765144 0.05048416554927826 0.7220562696456909
v 0.005708033684641123 0.05151822417974472 0.7224550843238831
v 0.003006784711033106 0.049083732068538666 0.7177028656005859
v 0.007777138147503138 0.05259101465344429 0.727303683757782
v 0.0060722664929926395 0.0536816343665123 0.7261908054351807
v 0.003210416529327631 0.058310531079769135 0.7274000644683838
v 0.0009421803988516331 0.05577402561903 0.7225549817085266
v 0.0009777159430086613 0.062116168439388275 0.7250104546546936
v -0.0002277507446706295 0.06154707074165344 0.7208613157272339
v -0.001192761119455099 0.053685471415519714 0.7178115844726562
v 4.0611717849969864e-05 0.04882092773914337 0.7152779698371887
v -0.0026615834794938564 0.05193711817264557 0.7138646245002747
v 0.0017628916539251804 0.04835296422243118 0.7129747271537781
v 0.0004435093142092228 0.05775739252567291 0.7301852107048035
v 0.013575470075011253 0.05329020693898201 0.7302355170249939
v 0.011747142300009727 0.050831571221351624 0.7218389511108398
v 0.008204055950045586 0.049266356974840164 0.7151251435279846
v 0.0038905576802790165 0.049574580043554306 0.7111199498176575
v 0.014639394357800484 0.05306529253721237 0.7199881672859192
v 0.010790735483169556 0.05237778276205063 0.7140336036682129
v 0.006474169436842203 0.05333000421524048 0.7104570865631104
v 0.015449099242687225 0.057245638221502304 0.7179612517356873
v 0.01110471598803997 0.056086935102939606 0.713277280330658
v 0.02015557326376438 0.06144481897354126 0.7268091440200806
v 0.01861565373837948 0.05639347806572914 0.7295284271240234
v 0.007623661775141954 0.05564681440591812 0.7110936641693115
v -0.002759115304797888 0.05177413672208786 0.7114249467849731
v -0.00046377023681998253 0.0533333420753479 0.7095298767089844
v -0.00026159128174185753 0.06472798436880112 0.7204033732414246
v -0.002864049281924963 0.05950649827718735 0.7167912721633911
v -0.0021274215541779995 0.06170825660228729 0.7154223918914795
v 0.0017106370069086552 0.06798377633094788 0.719825804233551
v -0.0006111166439950466 0.0636398047208786 0.7140191197395325
v -0.00357412314042449 0.05751148611307144 0.7122623920440674
v -0.00366606330499053 0.05620719492435455 0.7144514322280884
v 0.021663783118128777 0.06177349388599396 0.7290180325508118
v 0.01991795375943184 0.06777800619602203 0.7263044714927673
v 0.018030349165201187 0.06777379661798477 0.7250555753707886
v 0.013680951669812202 0.06338635832071304 0.7171385288238525
v 0.01335463859140873 0.0726543515920639 0.7242811322212219
v 0.007599521894007921 0.07428224384784698 0.7269372940063477
v 0.004762733820825815 0.06934608519077301 0.7181474566459656
v 0.009436255320906639 0.0680256262421608 0.7172713279724121
v 0.0026225545443594456 0.06423887610435486 0.71290123462677
v 0.005501760635524988 0.06344862282276154 0.7127285599708557
v 0.009206173941493034 0.060043927282094955 0.7122984528541565
v 0.0014920220710337162 0.05994052812457085 0.7102944254875183
v -0.001606819685548544 0.059234946966171265 0.7107533812522888
v 0.002965799067169428 0.05599316954612732 0.7093596458435059
v 0.004027186427265406 0.06050872430205345 0.7110407948493958
v 0.005560575518757105 0.05786401405930519 0.7105427384376526
v 0.03574170172214508 0.08262093365192413 0.6634128093719482
v 0.03263077884912491 0.08215605467557907 0.6688657402992249
v 0.03928503394126892 0.08205892890691757 0.6687010526657104
v 0.048416849225759506 0.08126787096261978 0.6703680157661438
v 0.05847153812646866 0.08299997448921204 0.6670932173728943
v 0.04637988284230232 0.08218518644571304 0.6768320202827454
v 0.036930885165929794 0.082988440990448 0.6745557188987732
v 0.026946144178509712 0.08404718339443207 0.6739826798439026
v 0.05254394933581352 0.08383570611476898 0.6848538517951965
f 2 3 1
f 1 3 4
f 5 6 8
f 8 6 7
f 9 4 10
f 10 4 3
f 12 13 11
f 11 13 9
f 14 12 16
f 16 12 15
f 18 19 17
f 17 19 20
f 22 23 21
f 21 23 24
f 26 27 25
f 25 27 28
f 30 31 29
f 29 31 32
f 33 34 36
f 36 34 35
f 37 38 40
f 40 38 39
f 41 42 6
f 6 42 43
f 6 43 7
f 7 43 44
f 45 34 46
f 46 34 33
f 48 49 47
f 47 49 50
f 52 53 51
f 51 53 54
f 56 52 55
f 55 52 51
f 58 59 57
f 57 59 60
f 61 62 4
f 4 62 1
f 64 65 63
f 63 65 66
f 68 69 67
f 67 69 70
f 72 73 71
f 71 73 74
f 76 77 75
f 75 77 78
f 53 79 54
f 54 79 80
f 82 83 81
f 81 83 84
f 85 86 52
f 52 86 53
f 57 60 87
f 87 60 88
f 89 90 43
f 43 90 44
f 43 42 89
f 89 42 91
f 40 39 92
f 92 39 93
f 94 70 64
f 64 70 69
f 13 61 9
f 9 61 4
f 25 28 69
f 69 28 95
f 96 25 68
f 68 25 69
f 98 99 97
f 97 99 100
f 101 102 104
f 104 102 103
f 106 30 105
f 105 30 29
f 51 54 107
f 107 54 108
f 54 80 108
f 108 80 109
f 111 112 110
f 110 112 113
f 115 5 114
f 114 5 116
f 115 41 5
f 5 41 6
f 36 35 111
f 111 35 117
f 35 118 117
f 117 118 119
f 34 120 35
f 35 120 118
f 34 45 120
f 120 45 121
f 125 126 124
f 124 126 127
f 128 129 14
f 14 129 130
f 33 131 46
f 46 131 132
f 133 94 63
f 63 94 64
f 134 135 137
f 137 135 136
f 139 140 138
f 138 140 141
f 77 142 78
f 78 142 143
f 144 145 20
f 20 145 146
f 148 149 147
f 147 149 72
f 151 152 150
f 150 152 153
f 82 101 83
f 83 101 104
f 101 82 155
f 155 82 154
f 156 157 58
f 58 157 59
f 158 68 147
f 147 68 67
f 159 146 15
f 15 146 16
f 68 158 96
f 96 158 160
f 129 66 130
f 130 66 65
f 162 163 161
f 161 163 164
f 166 167 165
f 165 167 168
f 170 171 169
f 169 171 172
f 174 171 173
f 173 171 170
f 176 177 175
f 175 177 178
f 180 181 179
f 179 181 24
f 182 183 21
f 21 183 184
f 81 185 82
f 82 185 154
f 186 187 188
f 188 187 144
f 158 71 160
f 160 71 189
f 190 135 157
f 157 135 59
f 169 172 139
f 139 172 140
f 147 72 158
f 158 72 71
f 192 193 191
f 191 193 194
f 167 166 49
f 49 166 195
f 196 190 50
f 50 190 157
f 197 198 200
f 200 198 199
f 21 24 182
f 182 24 181
f 146 159 20
f 20 159 17
f 182 181 81
f 81 181 185
f 201 185 180
f 180 185 181
f 202 203 83
f 83 203 84
f 205 206 204
f 204 206 85
f 207 22 184
f 184 22 21
f 179 24 208
f 208 24 23
f 208 209 179
f 179 209 205
f 209 210 205
f 205 210 206
f 212 206 211
f 211 206 210
f 179 205 180
f 180 205 204
f 213 176 88
f 88 176 214
f 86 85 212
f 212 85 206
f 193 217 218
f 217 219 218
f 218 219 220
f 219 18 220
f 220 18 17
f 19 221 20
f 20 221 144
f 222 223 225
f 225 223 224
f 175 226 176
f 176 226 214
f 227 87 214
f 214 87 88
f 220 17 228
f 228 17 159
f 134 213 60
f 60 213 88
f 138 229 151
f 151 229 152
f 193 192 210
f 210 192 211
f 230 194 218
f 218 194 193
f 231 232 228
f 228 232 230
f 233 234 91
f 91 234 89
f 235 236 93
f 93 236 92
f 230 232 234
f 234 232 237
f 47 238 48
f 48 238 239
f 240 191 235
f 235 191 236
f 5 8 116
f 116 8 241
f 242 243 189
f 189 243 160
f 244 245 98
f 98 245 99
f 156 246 47
f 47 246 238
f 76 247 77
f 77 247 248
f 250 125 249
f 249 125 124
f 252 253 251
f 251 253 254
f 111 110 36
f 36 110 255
f 256 33 255
f 255 33 36
f 257 258 154
f 154 258 155
f 63 169 133
f 133 169 139
f 66 170 63
f 63 170 169
f 173 170 129
f 129 170 66
f 129 128 173
f 173 128 259
f 128 260 259
f 259 260 261
f 213 134 262
f 262 134 137
f 263 264 186
f 186 264 187
f 112 265 113
f 113 265 266
f 11 267 268
f 234 233 230
f 230 233 194
f 153 269 70
f 70 269 67
f 175 178 165
f 165 178 141
f 150 153 94
f 94 153 70
f 271 221 270
f 270 221 207
f 269 153 272
f 272 153 152
f 121 45 109
f 109 45 108
f 47 50 156
f 156 50 157
f 57 273 58
f 58 273 274
f 145 275 260
f 260 275 261
f 276 149 143
f 143 149 78
f 148 269 75
f 75 269 272
f 207 277 270
f 270 277 278
f 195 196 49
f 49 196 50
f 59 135 60
f 60 135 134
f 83 104 202
f 202 104 279
f 149 148 78
f 78 148 75
f 247 278 248
f 248 278 277
f 183 182 84
f 84 182 81
f 48 239 281
f 281 239 282
f 227 223 283
f 283 223 222
f 223 226 224
f 224 226 168
f 281 282 224
f 224 282 225
f 165 168 175
f 175 168 226
f 264 263 138
f 138 263 229
f 14 16 128
f 128 16 260
f 220 228 218
f 218 228 230
f 87 227 284
f 284 227 283
f 260 16 145
f 145 16 146
f 244 98 258
f 258 98 155
f 58 274 156
f 156 274 246
f 107 285 51
f 51 285 55
f 243 286 160
f 160 286 96
f 234 237 89
f 89 237 90
f 46 132 107
f 107 132 285
f 253 252 249
f 249 252 250
f 286 26 96
f 96 26 25
f 106 105 287
f 287 105 288
f 272 152 289
f 289 152 229
f 138 151 139
f 139 151 133
f 183 290 161
f 161 290 162
f 291 292 277
f 277 292 293
f 151 150 133
f 133 150 94
f 262 275 177
f 177 275 187
f 144 187 145
f 145 187 275
f 273 57 284
f 284 57 87
f 174 136 190
f 190 136 135
f 111 117 112
f 112 117 38
f 117 119 38
f 38 119 123
f 112 38 265
f 265 38 37
f 287 288 254
f 254 288 251
f 228 159 231
f 231 159 15
f 223 227 226
f 226 227 214
f 147 67 148
f 148 67 269
f 224 168 281
f 281 168 167
f 199 163 200
f 200 163 162
f 45 46 108
f 108 46 107
f 281 167 48
f 48 167 49
f 161 164 291
f 291 164 292
f 38 123 39
f 293 294 277
f 277 294 248
f 284 283 296
f 296 283 295
f 284 296 273
f 273 296 297
f 274 273 298
f 298 273 297
f 246 274 299
f 299 274 298
f 283 222 295
f 295 222 300
f 222 225 300
f 300 225 301
f 301 225 302
f 302 225 282
f 303 304 300
f 300 304 295
f 306 307 305
f 305 307 308
f 309 310 308
f 308 310 305
f 308 307 312
f 312 307 311
f 313 314 312
f 312 314 315
f 311 316 312
f 312 316 313
f 317 304 311
f 311 304 316
f 315 309 312
f 312 309 308
f 318 319 321
f 321 319 320
f 319 318 309
f 309 318 310
f 311 307 317
f 317 307 306
f 306 297 317
f 317 297 296
f 306 322 297
f 297 322 298
f 305 323 306
f 306 323 322
f 323 305 324
f 324 305 310
f 304 317 295
f 295 317 296
f 318 325 310
f 310 325 324
f 323 324 326
f 326 324 327
f 324 325 327
f 327 325 328
f 326 327 329
f 329 327 330
f 329 331 326
f 326 331 332
f 333 330 328
f 328 330 327
f 323 326 322
f 322 326 332
f 322 332 298
f 298 332 299
f 325 318 334
f 334 318 321
f 313 316 335
f 335 316 304
f 335 336 313
f 313 336 314
f 304 303 335
f 335 303 337
f 336 335 338
f 338 335 337
f 336 339 314
f 314 339 340
f 246 299 238
f 238 299 341
f 239 342 282
f 282 342 302
f 342 239 341
f 341 239 238
f 341 331 342
f 342 331 343
f 331 329 343
f 343 329 344
f 342 343 302
f 302 343 345
f 341 299 331
f 331 299 332
f 346 301 345
f 345 301 302
f 346 303 301
f 301 303 300
f 347 337 346
f 346 337 303
f 347 346 348
f 348 346 345
f 349 347 350
f 350 347 348
f 343 344 345
f 345 344 348
f 344 351 348
f 348 351 350
f 337 347 338
f 338 347 349
f 353 338 352
f 352 338 349
f 352 355 354
f 354 355 356
f 352 349 355
f 355 349 350
f 352 354 353
f 353 354 334
f 353 334 339
f 339 334 321
f 339 336 353
f 353 336 338
f 329 330 344
f 344 330 351
f 356 351 333
f 333 351 330
f 356 355 351
f 351 355 350
f 354 356 328
f 328 356 333
f 328 325 354
f 354 325 334
f 309 315 319
f 319 315 320
f 320 340 321
f 321 340 339
f 320 315 340
f 340 315 314
f 137 136 261
f 261 136 259
f 140 166 141
f 141 166 165
f 172 171 195
f 195 171 196
f 171 174 196
f 196 174 190
f 178 177 264
f 264 177 187
f 172 195 140
f 140 195 166
f 137 261 262
f 262 261 275
f 178 264 141
f 141 264 138
f 262 177 213
f 213 177 176
f 136 174 259
f 259 174 173
f 358 359 357
f 357 359 360
f 362 363 361
f 361 363 364
f 361 364 365
f 365 364 366
f 367 368 370
f 370 368 369
f 76 371 247
f 247 371 372
f 373 374 362
f 362 374 363
f 376 377 375
f 375 377 378
f 289 229 380
f 380 229 379
f 381 379 263
f 263 379 229
f 383 384 382
f 382 384 385
f 386 368 374
f 374 368 363
f 76 289 371
f 371 289 380
f 377 376 359
f 359 376 387
f 388 386 360
f 360 386 374
f 389 383 366
f 366 383 390
f 392 393 391
f 391 393 394
f 383 382 390
f 390 382 395
f 396 365 390
f 390 365 366
f 389 366 367
f 367 366 364
f 357 397 358
f 358 397 398
f 373 399 357
f 357 399 397
f 389 367 400
f 400 367 370
f 382 385 375
f 375 385 372
f 357 360 373
f 373 360 374
f 361 401 362
f 362 401 402
f 387 388 359
f 359 388 360
f 363 368 364
f 364 368 367
f 358 398 403
f 403 398 404
f 396 392 405
f 405 392 391
f 392 395 393
f 393 395 378
f 393 403 394
f 394 403 404
f 375 378 382
f 382 378 395
f 365 396 406
f 406 396 405
f 362 402 373
f 373 402 399
f 271 270 400
f 400 270 384
f 401 361 406
f 406 361 365
f 381 369 386
f 386 369 368
f 392 396 395
f 395 396 390
f 393 378 403
f 403 378 377
f 403 377 358
f 358 377 359
f 406 405 408
f 408 405 407
f 406 408 401
f 401 408 409
f 401 409 402
f 402 409 410
f 402 410 399
f 399 410 411
f 405 391 407
f 407 391 412
f 391 394 412
f 412 394 413
f 394 404 413
f 413 404 414
f 415 416 412
f 412 416 407
f 418 419 417
f 417 419 420
f 421 422 418
f 418 422 419
f 419 422 424
f 424 422 423
f 425 426 424
f 424 426 427
f 423 428 424
f 424 428 425
f 427 420 424
f 424 420 419
f 420 429 417
f 417 429 430
f 423 422 431
f 431 422 421
f 421 409 431
f 431 409 408
f 421 432 409
f 409 432 410
f 418 433 421
f 421 433 432
f 434 433 417
f 417 433 418
f 431 416 423
f 423 416 428
f 416 431 407
f 407 431 408
f 435 434 430
f 430 434 417
f 433 434 436
f 436 434 437
f 434 435 437
f 437 435 438
f 436 437 439
f 439 437 440
f 439 441 436
f 436 441 442
f 438 443 437
f 437 443 440
f 436 442 433
f 433 442 432
f 432 442 410
f 410 442 411
f 435 430 445
f 445 430 444
f 430 429 444
f 444 429 446
f 425 428 447
f 447 428 416
f 426 425 448
f 448 425 447
f 416 415 447
f 447 415 449
f 447 449 448
f 448 449 450
f 451 452 448
f 448 452 426
f 446 452 444
f 444 452 451
f 399 411 397
f 397 411 453
f 398 454 404
f 404 454 414
f 454 398 453
f 453 398 397
f 453 441 454
f 454 441 455
f 441 439 455
f 455 439 456
f 454 455 414
f 414 455 457
f 441 453 442
f 442 453 411
f 458 413 457
f 457 413 414
f 458 415 413
f 413 415 412
f 458 459 415
f 415 459 449
f 459 458 460
f 460 458 457
f 461 459 462
f 462 459 460
f 455 456 457
f 457 456 460
f 456 463 460
f 460 463 462
f 459 461 449
f 449 461 450
f 465 450 464
f 464 450 461
f 464 467 466
f 466 467 468
f 464 461 467
f 467 461 462
f 464 466 465
f 465 466 445
f 465 445 451
f 451 445 444
f 451 448 465
f 465 448 450
f 439 440 456
f 456 440 463
f 468 463 443
f 443 463 440
f 468 467 463
f 463 467 462
f 466 468 438
f 438 468 443
f 438 435 466
f 466 435 445
f 420 427 429
f 429 427 446
f 446 427 452
f 452 427 426
f 370 369 188
f 188 369 186
f 371 376 372
f 372 376 375
f 380 379 387
f 387 379 388
f 379 381 388
f 388 381 386
f 385 384 278
f 278 384 270
f 380 387 371
f 371 387 376
f 400 370 271
f 271 370 188
f 385 278 372
f 372 278 247
f 400 384 389
f 389 384 383
f 369 381 186
f 186 381 263
f 221 271 144
f 144 271 188
f 221 19 207
f 207 19 22
f 19 18 22
f 22 18 23
f 18 219 23
f 23 219 208
f 469 470 472
f 472 470 471
f 474 475 473
f 473 475 476
f 473 476 477
f 477 476 478
f 480 481 479
f 479 481 482
f 483 484 474
f 474 484 475
f 486 487 485
f 485 487 488
f 489 490 77
f 77 490 142
f 491 489 248
f 248 489 77
f 493 494 492
f 492 494 495
f 496 480 484
f 484 480 475
f 486 497 487
f 487 497 471
f 498 496 472
f 472 496 484
f 499 493 478
f 478 493 500
f 501 502 504
f 504 502 503
f 493 492 500
f 500 492 505
f 506 477 500
f 500 477 478
f 499 478 479
f 479 478 476
f 469 507 470
f 470 507 508
f 483 509 469
f 469 509 507
f 479 482 499
f 499 482 510
f 492 495 485
f 485 495 511
f 483 469 484
f 484 469 472
f 473 512 474
f 474 512 513
f 497 498 471
f 471 498 472
f 475 480 476
f 476 480 479
f 470 508 514
f 514 508 515
f 506 502 516
f 516 502 501
f 503 502 488
f 488 502 505
f 514 515 503
f 503 515 504
f 485 488 492
f 492 488 505
f 477 506 517
f 517 506 516
f 474 513 483
f 483 513 509
f 510 292 494
f 494 292 164
f 512 473 517
f 517 473 477
f 491 481 496
f 496 481 480
f 502 506 505
f 505 506 500
f 503 488 514
f 514 488 487
f 514 487 470
f 470 487 471
f 517 516 519
f 519 516 518
f 517 519 512
f 512 519 520
f 512 520 513
f 513 520 521
f 513 521 509
f 509 521 522
f 516 501 518
f 518 501 523
f 501 504 523
f 523 504 524
f 524 504 525
f 525 504 515
f 526 527 523
f 523 527 518
f 529 530 528
f 528 530 531
f 532 533 529
f 529 533 530
f 530 533 535
f 535 533 534
f 536 537 535
f 535 537 538
f 534 539 535
f 535 539 536
f 538 531 535
f 535 531 530
f 540 541 531
f 531 541 528
f 533 532 534
f 534 532 542
f 532 520 542
f 542 520 519
f 532 543 520
f 520 543 521
f 529 544 532
f 532 544 543
f 544 529 545
f 545 529 528
f 534 542 539
f 539 542 527
f 527 542 518
f 518 542 519
f 541 546 528
f 528 546 545
f 547 544 548
f 548 544 545
f 546 549 545
f 545 549 548
f 550 547 551
f 551 547 548
f 547 550 553
f 553 550 552
f 549 554 548
f 548 554 551
f 544 547 543
f 543 547 553
f 543 553 521
f 521 553 522
f 546 541 556
f 556 541 555
f 541 540 555
f 555 540 557
f 536 539 558
f 558 539 527
f 537 536 559
f 559 536 558
f 527 526 558
f 558 526 560
f 559 558 561
f 561 558 560
f 559 562 537
f 537 562 563
f 557 563 555
f 555 563 562
f 509 522 507
f 507 522 564
f 508 565 515
f 515 565 525
f 565 508 564
f 564 508 507
f 564 552 565
f 565 552 566
f 552 550 566
f 566 550 567
f 565 566 525
f 525 566 568
f 564 522 552
f 552 522 553
f 569 524 568
f 568 524 525
f 569 526 524
f 524 526 523
f 570 560 569
f 569 560 526
f 570 569 571
f 571 569 568
f 572 570 573
f 573 570 571
f 566 567 568
f 568 567 571
f 567 574 571
f 571 574 573
f 570 572 560
f 560 572 561
f 576 561 575
f 575 561 572
f 575 578 577
f 577 578 579
f 575 572 578
f 578 572 573
f 575 577 576
f 576 577 556
f 576 556 562
f 562 556 555
f 562 559 576
f 576 559 561
f 550 551 567
f 567 551 574
f 579 574 554
f 554 574 551
f 579 578 574
f 574 578 573
f 579 554 577
f 577 554 549
f 549 546 577
f 577 546 556
f 531 538 540
f 540 538 557
f 557 538 563
f 563 538 537
f 481 294 482
f 482 294 293
f 580 486 511
f 511 486 485
f 490 489 497
f 497 489 498
f 489 491 498
f 498 491 496
f 163 495 164
f 164 495 494
f 580 490 486
f 486 490 497
f 482 293 510
f 510 293 292
f 495 163 511
f 511 163 199
f 494 493 510
f 510 493 499
f 481 491 294
f 294 491 248
f 582 583 581
f 581 583 584
f 586 587 585
f 585 587 588
f 585 588 589
f 589 588 590
f 592 593 591
f 591 593 594
f 595 596 598
f 598 596 597
f 599 600 586
f 586 600 587
f 601 602 604
f 604 602 603
f 605 606 608
f 608 606 607
f 609 607 200
f 200 607 606
f 610 611 613
f 613 611 612
f 600 614 587
f 587 614 592
f 596 605 597
f 597 605 608
f 602 615 603
f 603 615 583
f 616 614 584
f 584 614 600
f 611 618 617
f 617 618 590
f 620 621 619
f 619 621 622
f 610 623 611
f 611 623 618
f 624 589 618
f 618 589 590
f 617 590 591
f 591 590 588
f 581 625 582
f 582 625 626
f 599 627 581
f 581 627 625
f 591 594 617
f 617 594 628
f 601 610 598
f 598 610 613
f 581 584 599
f 599 584 600
f 585 629 586
f 586 629 630
f 615 616 583
f 583 616 584
f 587 592 588
f 588 592 591
f 582 626 631
f 631 626 632
f 624 620 633
f 633 620 619
f 621 620 604
f 604 620 623
f 631 632 621
f 621 632 622
f 610 601 623
f 623 601 604
f 589 624 634
f 634 624 633
f 586 630 599
f 599 630 627
f 203 202 628
f 628 202 612
f 629 585 634
f 634 585 589
f 609 593 614
f 614 593 592
f 620 624 623
f 623 624 618
f 631 621 603
f 603 621 604
f 582 631 583
f 583 631 603
f 634 633 636
f 636 633 635
f 634 636 629
f 629 636 637
f 629 637 630
f 630 637 638
f 630 638 627
f 627 638 639
f 633 619 635
f 635 619 640
f 619 622 640
f 640 622 641
f 641 622 642
f 642 622 632
f 644 635 643
f 643 635 640
f 645 646 648
f 648 646 647
f 649 650 646
f 646 650 647
f 647 650 652
f 652 650 651
f 652 653 655
f 655 653 654
f 651 656 652
f 652 656 653
f 655 648 652
f 652 648 647
f 648 657 645
f 645 657 658
f 650 649 651
f 651 649 659
f 649 637 659
f 659 637 636
f 649 660 637
f 637 660 638
f 661 660 646
f 646 660 649
f 662 661 645
f 645 661 646
f 651 659 656
f 656 659 644
f 644 659 635
f 635 659 636
f 663 662 658
f 658 662 645
f 664 661 665
f 665 661 662
f 663 666 662
f 662 666 665
f 667 664 668
f 668 664 665
f 664 667 670
f 670 667 669
f 666 671 665
f 665 671 668
f 661 664 660
f 660 664 670
f 660 670 638
f 638 670 639
f 658 672 663
f 663 672 673
f 658 657 672
f 672 657 674
f 653 656 675
f 675 656 644
f 653 675 654
f 654 675 676
f 675 644 677
f 677 644 643
f 676 675 678
f 678 675 677
f 679 680 676
f 676 680 654
f 674 680 672
f 672 680 679
f 627 639 625
f 625 639 681
f 626 682 632
f 632 682 642
f 681 682 625
f 625 682 626
f 669 683 681
f 681 683 682
f 667 684 669
f 669 684 683
f 682 683 642
f 642 683 685
f 681 639 669
f 669 639 670
f 686 641 685
f 685 641 642
f 641 686 640
f 640 686 643
f 686 687 643
f 643 687 677
f 687 686 688
f 688 686 685
f 689 687 690
f 690 687 688
f 683 684 685
f 685 684 688
f 684 691 688
f 688 691 690
f 687 689 677
f 677 689 678
f 693 678 692
f 692 678 689
f 692 695 694
f 694 695 696
f 692 689 695
f 695 689 690
f 692 694 693
f 693 694 673
f 693 673 679
f 679 673 672
f 679 676 693
f 693 676 678
f 684 667 691
f 691 667 668
f 696 691 671
f 671 691 668
f 696 695 691
f 691 695 690
f 694 696 666
f 666 696 671
f 666 663 694
f 694 663 673
f 648 655 657
f 657 655 674
f 674 655 680
f 680 655 654
f 593 162 594
f 594 162 290
f 598 597 601
f 601 597 602
f 615 608 616
f 616 608 607
f 607 609 616
f 616 609 614
f 697 595 613
f 613 595 598
f 597 608 602
f 602 608 615
f 594 290 628
f 628 290 203
f 628 612 617
f 617 612 611
f 593 609 162
f 162 609 200
f 105 29 698
f 698 29 699
f 268 126 701
f 701 126 700
f 126 125 700
f 700 125 702
f 252 703 250
f 250 703 704
f 32 268 705
f 705 268 701
f 288 105 706
f 706 105 698
f 29 32 699
f 699 32 705
f 707 251 706
f 706 251 288
f 250 704 125
f 125 704 702
f 703 252 707
f 707 252 251
f 706 708 707
f 707 708 709
f 707 709 703
f 703 709 710
f 703 710 704
f 704 710 711
f 704 711 702
f 702 711 712
f 706 698 708
f 708 698 713
f 698 699 713
f 713 699 714
f 699 705 714
f 714 705 715
f 717 708 716
f 716 708 713
f 719 720 718
f 718 720 721
f 722 723 719
f 719 723 720
f 724 725 723
f 723 725 720
f 724 726 725
f 725 726 727
f 728 721 725
f 725 721 720
f 721 728 729
f 729 728 730
f 729 731 721
f 721 731 718
f 724 723 732
f 732 723 722
f 722 710 732
f 732 710 709
f 722 733 710
f 710 733 711
f 719 734 722
f 722 734 733
f 734 719 735
f 735 719 718
f 724 732 726
f 726 732 717
f 717 732 708
f 708 732 709
f 731 736 718
f 718 736 735
f 737 734 738
f 738 734 735
f 736 739 735
f 735 739 738
f 740 737 741
f 741 737 738
f 737 740 743
f 743 740 742
f 739 744 738
f 738 744 741
f 734 737 733
f 733 737 743
f 733 743 711
f 711 743 712
f 736 731 746
f 746 731 745
f 731 729 745
f 745 729 730
f 727 726 747
f 747 726 717
f 748 727 749
f 749 727 747
f 747 717 750
f 750 717 716
f 749 747 751
f 751 747 750
f 749 752 748
f 748 752 753
f 730 753 745
f 745 753 752
f 728 725 748
f 748 725 727
f 730 728 753
f 753 728 748
f 700 702 754
f 754 702 712
f 705 701 715
f 715 701 755
f 754 755 700
f 700 755 701
f 742 756 754
f 754 756 755
f 740 757 742
f 742 757 756
f 755 756 715
f 715 756 758
f 754 712 742
f 742 712 743
f 759 714 758
f 758 714 715
f 714 759 713
f 713 759 716
f 759 760 716
f 716 760 750
f 760 759 761
f 761 759 758
f 762 760 763
f 763 760 761
f 756 757 758
f 758 757 761
f 757 764 761
f 761 764 763
f 760 762 750
f 750 762 751
f 766 751 765
f 765 751 762
f 767 765 769
f 769 765 768
f 765 762 768
f 768 762 763
f 765 767 766
f 766 767 746
f 766 746 752
f 752 746 745
f 752 749 766
f 766 749 751
f 757 740 764
f 764 740 741
f 769 764 744
f 744 764 741
f 769 768 764
f 764 768 763
f 767 769 739
f 739 769 744
f 739 736 767
f 767 736 746
f 219 217 208
f 208 217 209
f 209 217 210
f 210 217 193
f 198 580 199
f 199 580 511
f 76 75 289
f 289 75 272
f 277 207 291
f 291 207 184
f 290 183 203
f 203 183 84
f 490 580 142
f 142 580 198
f 142 198 143
f 143 198 197
f 149 276 72
f 72 276 73
f 104 103 279
f 279 103 770
f 770 596 279
f 279 596 595
f 605 596 771
f 771 596 770
f 771 770 772
f 772 770 103
f 772 103 773
f 773 103 102
f 155 774 101
f 101 774 102
f 773 102 97
f 97 102 774
f 775 773 100
f 100 773 97
f 773 775 772
f 772 775 776
f 772 776 771
f 771 776 777
f 200 606 197
f 197 606 777
f 189 71 778
f 778 71 74
f 97 774 98
f 98 774 155
f 183 161 184
f 184 161 291
f 777 276 197
f 197 276 143
f 777 606 771
f 771 606 605
f 613 612 697
f 697 612 202
f 595 697 279
f 279 697 202
f 73 276 776
f 776 276 777
f 776 775 73
f 73 775 74
f 100 778 775
f 775 778 74
f 778 100 189
f 189 100 99
f 245 242 99
f 99 242 189
f 131 33 256
f 28 1 95
f 95 1 62
f 27 2 28
f 28 2 1
f 265 115 266
f 266 115 114
f 95 62 69
f 69 62 64
f 62 61 64
f 64 61 65
f 61 13 65
f 65 13 130
f 13 12 130
f 130 12 14
f 31 11 32
f 32 11 268
f 15 12 31
f 31 12 11
f 31 30 15
f 15 30 231
f 30 106 231
f 231 106 232
f 287 237 106
f 106 237 232
f 254 90 287
f 287 90 237
f 253 44 254
f 254 44 90
f 253 249 44
f 44 249 7
f 267 127 268
f 268 127 126
f 10 3 241
f 241 3 116
f 3 2 116
f 116 2 114
f 2 27 114
f 114 27 266
f 27 26 266
f 266 26 113
f 26 286 113
f 113 286 110
f 286 243 110
f 110 243 255
f 243 242 255
f 255 242 256
f 242 245 256
f 256 245 131
f 245 244 131
f 131 244 132
f 265 37 115
f 115 37 41
f 41 37 42
f 42 37 40
f 92 91 40
f 40 91 42
f 236 233 92
f 92 233 91
f 191 194 236
f 236 194 233
f 258 285 244
f 244 285 132
f 257 55 258
f 258 55 285
f 257 154 201
f 201 154 185
f 56 201 204
f 204 201 180
f 55 257 56
f 56 257 201
f 204 85 56
f 56 85 52
f 86 122 53
f 53 122 79
f 212 215 86
f 86 215 122
f 211 216 212
f 212 216 215
f 192 280 211
f 211 280 216
f 191 240 192
f 192 240 280
f 249 124 7
f 7 124 8
f 124 127 8
f 8 127 241
f 127 267 241
f 241 267 10
f 10 267 9
f 9 267 11
