v -0.005632083863019943 0.011224295943975449 1.631421685218811
v 0.006398987025022507 0.007230199873447418 1.630941390991211
v -0.0006209686398506165 0.0029457975178956985 1.6373305320739746
v -0.011033765971660614 0.007396044209599495 1.6377547979354858
v 0.017740510404109955 -0.0008800271898508072 1.6487772464752197
v 0.02231849730014801 0.00435713492333889 1.6586055755615234
v 0.005512930452823639 0.001801924780011177 1.6617134809494019
v 0.005115523934364319 -0.0030611641705036163 1.6524885892868042
v -0.016064908355474472 0.007252447307109833 1.6423404216766357
v -0.007147766649723053 0.0011166427284479141 1.6417220830917358
v -0.017505675554275513 0.012289033271372318 1.6435537338256836
v -0.025417039170861244 0.021420395001769066 1.6471781730651855
v -0.02450999803841114 0.014765594154596329 1.6451692581176758
v -0.03246429190039635 0.025538375601172447 1.6476624011993408
v -0.019466787576675415 0.031057650223374367 1.647760033607483
v -0.030358921736478806 0.0339105948805809 1.6438406705856323
v -0.010937292128801346 0.04527829587459564 1.6281858682632446
v -0.007384013384580612 0.04615370184183121 1.6159080266952515
v -0.022929871454834938 0.044091563671827316 1.6146129369735718
v -0.025010909885168076 0.04271318018436432 1.627266764640808
v -0.01258421316742897 0.040744949132204056 1.5974875688552856
v -0.01929202675819397 0.04271170496940613 1.6067310571670532
v -0.0035515539348125458 0.045874062925577164 1.6080193519592285
v 0.0016555339097976685 0.043732695281505585 1.5995968580245972
v 0.002139665186405182 0.01577320322394371 1.6194202899932861
v 0.013435505330562592 0.013957595452666283 1.6184120178222656
v 0.011548914015293121 0.012278765439987183 1.622855544090271
v 0.00029759109020233154 0.014669528231024742 1.6239628791809082
v -0.01901240646839142 0.014723947271704674 1.649573564529419
v -0.012023337185382843 0.02355056069791317 1.6530439853668213
v -0.016477208584547043 0.019920960068702698 1.6479458808898926
v -0.018768370151519775 0.010436911135911942 1.646147608757019
v 0.03908330202102661 0.007666364312171936 1.6103510856628418
v 0.05092509090900421 0.01347518339753151 1.6126402616500854
v 0.05027570575475693 0.013949541375041008 1.6185295581817627
v 0.039667658507823944 0.008869430050253868 1.6151617765426636
v 0.042478784918785095 0.010283742100000381 1.6433677673339844
v 0.04956177622079849 0.01631266251206398 1.6376277208328247
v 0.05354896932840347 0.025501426309347153 1.646677851676941
v 0.0446484312415123 0.023174738511443138 1.6514191627502441
v 0.03311338275671005 0.0059306807816028595 1.6521703004837036
v 0.03533118963241577 0.01698455959558487 1.6584255695343018
v 0.021601654589176178 0.014614572748541832 1.664427638053894
v 0.0033096447587013245 0.009683217853307724 1.666757583618164
v 0.05239740014076233 0.015399493277072906 1.6000844240188599
v 0.04407217353582382 0.010914865881204605 1.596619963645935
v -0.07876364886760712 0.047988876700401306 1.6421408653259277
v -0.07961778342723846 0.04781486839056015 1.636428713798523
v -0.07642257213592529 0.041447967290878296 1.6375732421875
v -0.07594488561153412 0.04304507374763489 1.642861247062683
v 0.04575246572494507 0.029597872868180275 1.5876269340515137
v 0.044318653643131256 0.039532482624053955 1.5884827375411987
v 0.0514703169465065 0.03844209760427475 1.5882591009140015
v 0.053018778562545776 0.02925436571240425 1.5893298387527466
v 0.036095887422561646 0.029877949506044388 1.5855257511138916
v 0.034309022128582 0.0403660386800766 1.5893349647521973
v -0.06903186440467834 0.05504608526825905 1.6441824436187744
v -0.07302478700876236 0.05269196629524231 1.646202802658081
v -0.0695202648639679 0.04909320920705795 1.6465004682540894
v -0.06557245552539825 0.05131075903773308 1.643537163734436
v -0.021060027182102203 0.011725857853889465 1.6404577493667603
v -0.01604611426591873 0.012303659692406654 1.6329309940338135
v -0.043688416481018066 0.015779975801706314 1.6401081085205078
v -0.030675426125526428 0.014191832393407822 1.6358872652053833
v -0.031075619161128998 0.014696625992655754 1.6429692506790161
v -0.04107864946126938 0.0176271703094244 1.645743727684021
v -0.020368542522192 0.016549333930015564 1.6144717931747437
v -0.008625790476799011 0.016882281750440598 1.6157360076904297
v -0.011595252901315689 0.01664796657860279 1.6214288473129272
v -0.024813111871480942 0.015635695308446884 1.62184476852417
v -0.004306536167860031 0.014095545746386051 1.6025958061218262
v -0.01624380797147751 0.014369606971740723 1.6024069786071777
v -0.012521728873252869 0.012633134610950947 1.5949797630310059
v -0.004577107727527618 0.011905355378985405 1.5964473485946655
v -0.03922337666153908 0.01598285883665085 1.6051007509231567
v -0.04765019193291664 0.019609639421105385 1.6047221422195435
v -0.047466304153203964 0.022118723019957542 1.599515676498413
v -0.03789016231894493 0.016873067244887352 1.6010648012161255
v 0.05850137025117874 0.03844871371984482 1.5885032415390015
v 0.05976572632789612 0.02931966446340084 1.5918586254119873
v -0.003497343510389328 0.03380259871482849 1.579774022102356
v 0.0025919079780578613 0.026233240962028503 1.5748063325881958
v -0.009429436177015305 0.023751188069581985 1.5707683563232422
v -0.012107033282518387 0.03224070742726326 1.5772796869277954
v 0.041179634630680084 0.04715881496667862 1.5947537422180176
v 0.04865129292011261 0.04711952805519104 1.592456579208374
v -0.06625023484230042 0.056794945150613785 1.6388883590698242
v -0.06357797980308533 0.05311140418052673 1.637973666191101
v 0.021314628422260284 0.026196420192718506 1.6623294353485107
v 0.0015259459614753723 0.01870877668261528 1.6660305261611938
v 0.03546199947595596 0.03061043843626976 1.6561496257781982
v 0.04429993778467178 0.03455554321408272 1.650667428970337
v 0.052584730088710785 0.03701067715883255 1.6485912799835205
v -0.03475381061434746 0.013954171910881996 1.6300355195999146
v -0.00973360612988472 0.014701234176754951 1.6266093254089355
v 0.003748606890439987 0.01566918008029461 1.6149040460586548
v 0.008581213653087616 0.007828403264284134 1.5857850313186646
v 0.019080750644207 0.007542451843619347 1.5874860286712646
v 0.013363145291805267 0.007387936115264893 1.5964086055755615
v 0.005334828048944473 0.008334837853908539 1.5930051803588867
v 0.0031684786081314087 0.016554128378629684 1.573839783668518
v 0.000283900648355484 0.01063007302582264 1.5781935453414917
v -0.009190060198307037 0.010548627004027367 1.5763335227966309
v -0.007648680359125137 0.015511885285377502 1.571467638015747
v -0.01917106658220291 0.01683460734784603 1.6564033031463623
v -0.007472500205039978 0.025996265932917595 1.6578621864318848
v 0.046498142182826996 0.01952286995947361 1.590415120124817
v 0.0531347319483757 0.020411910489201546 1.5942150354385376
v 0.06075415760278702 0.02311510592699051 1.5964184999465942
v 0.026660792529582977 0.009805484674870968 1.6159377098083496
v 0.040193378925323486 0.009454463608562946 1.6187591552734375
v 0.039404988288879395 0.008606226183474064 1.6238781213760376
v 0.02633684128522873 0.009961193427443504 1.6189565658569336
v 0.01858048141002655 0.002172756940126419 1.6339702606201172
v 0.029949456453323364 0.0020530205219984055 1.6397593021392822
v 0.008755967020988464 -0.0018870439380407333 1.64028000831604
v 0.05116216838359833 0.014830995351076126 1.6269716024398804
v 0.05999082326889038 0.016069624572992325 1.6204192638397217
v 0.05953381955623627 0.017752233892679214 1.6292415857315063
v 0.060927726328372955 0.01683877781033516 1.610710620880127
v 0.061240024864673615 0.019018031656742096 1.6020886898040771
v 0.0564618855714798 0.04995857924222946 1.590859293937683
v 0.057995691895484924 0.020897377282381058 1.6370160579681396
v -0.0036222562193870544 -0.003743791952729225 1.6534830331802368
v -0.011620372533798218 -0.004825877025723457 1.6531826257705688
v -0.013052523136138916 -0.0021005310118198395 1.6459648609161377
v -0.006240863353013992 -0.0016682911664247513 1.6455068588256836
v -0.04058607667684555 0.030578840523958206 1.6474741697311401
v -0.041867874562740326 0.02314283698797226 1.648539423942566
v -0.031056517735123634 0.01862112246453762 1.6480733156204224
v 0.029500484466552734 0.006599418818950653 1.603987216949463
v 0.03425702452659607 0.009088798426091671 1.5926625728607178
v -0.04748857021331787 0.01726430281996727 1.634321928024292
v -0.06176608428359032 0.051188401877880096 1.6425460577011108
v -0.06467689573764801 0.047772906720638275 1.6462366580963135
v -0.05130770802497864 0.03998453915119171 1.6465587615966797
v -0.04956024885177612 0.04452668875455856 1.6423614025115967
v -0.055087000131607056 0.027011623606085777 1.629274845123291
v -0.05331321060657501 0.022661611437797546 1.6344258785247803
v -0.0562458373606205 0.0267444159835577 1.6340358257293701
v -0.0580880232155323 0.03053315356373787 1.629323124885559
v -0.04193916916847229 0.019867487251758575 1.592584490776062
v -0.03374365717172623 0.01553364098072052 1.5938371419906616
v -0.03984842449426651 0.037752557545900345 1.6256787776947021
v -0.03602725267410278 0.03928668424487114 1.6369781494140625
v -0.02672257088124752 0.040486156940460205 1.6364259719848633
v -0.0172230526804924 0.015760285779833794 1.6077593564987183
v -0.028079615905880928 0.015205522999167442 1.6057944297790527
v -0.026941418647766113 0.01496998779475689 1.6017721891403198
v -0.03836569935083389 0.015008282847702503 1.626556396484375
v -0.04849807173013687 0.01825995184481144 1.628243088722229
v -0.043900903314352036 0.017248377203941345 1.6231567859649658
v -0.03453578054904938 0.015795325860381126 1.621629238128662
v 0.014922715723514557 0.028734387829899788 1.5780689716339111
v 0.01582011580467224 0.017304357141256332 1.5765199661254883
v -0.07641220092773438 0.049928002059459686 1.645606279373169
v -0.07314859330654144 0.04561275243759155 1.6461297273635864
v -0.005788009613752365 0.016112929210066795 1.609139084815979
v -0.013797171413898468 0.041459839791059494 1.6367402076721191
v 0.0055589452385902405 0.014905410818755627 1.6098650693893433
v -0.026995304971933365 0.031688664108514786 1.587249517440796
v -0.028212741017341614 0.02661372348666191 1.5834263563156128
v -0.03362087532877922 0.02737969160079956 1.5851047039031982
v -0.03213224932551384 0.03252744674682617 1.5868970155715942
v -0.06898815929889679 0.04132060706615448 1.627579927444458
v -0.07181179523468018 0.038591064512729645 1.6319324970245361
v -0.07559484243392944 0.04214020445942879 1.6312671899795532
v -0.07235201448202133 0.044623494148254395 1.62735915184021
v -0.05169929191470146 0.022280732169747353 1.640116810798645
v -0.049119364470243454 0.02358175814151764 1.6458585262298584
v -0.055190540850162506 0.028819315135478973 1.6445882320404053
v -0.0563293881714344 0.027280203998088837 1.6391489505767822
v -0.04818761348724365 0.02983085997402668 1.6480963230133057
v -0.05319748818874359 0.03409086912870407 1.6473596096038818
v -0.06438875198364258 0.04616974666714668 1.6271427869796753
v -0.05987792834639549 0.05121821165084839 1.631083607673645
v -0.051016271114349365 0.043786659836769104 1.6298573017120361
v -0.05644452944397926 0.0380605012178421 1.6281087398529053
v 0.01578456163406372 0.047019653022289276 1.602036952972412
v 0.01952025294303894 0.04315013438463211 1.5924317836761475
v 0.005505867302417755 0.03984234482049942 1.5896964073181152
v -0.00773906335234642 0.037155866622924805 1.5866265296936035
v -0.01998079940676689 0.033165089786052704 1.5849599838256836
v -0.02379697561264038 0.03844882920384407 1.5953465700149536
v 0.009436424821615219 0.03670709580183029 1.5834906101226807
v -0.0513017363846302 0.03276675567030907 1.6236207485198975
v -0.04523954540491104 0.037369612604379654 1.6294126510620117
v -0.04626578092575073 0.036285966634750366 1.6244267225265503
v 0.007130775600671768 0.01217476837337017 1.603171944618225
v -0.0675627589225769 0.04400882124900818 1.646704912185669
v 0.041607990860939026 0.05098993331193924 1.63683021068573
v 0.04178576171398163 0.05478730797767639 1.6243547201156616
v 0.03337147831916809 0.05279884487390518 1.6259663105010986
v 0.03290451318025589 0.048054877668619156 1.6394121646881104
v -0.07218386977910995 0.03745857998728752 1.6386961936950684
v -0.07090593874454498 0.039691679179668427 1.6442004442214966
v -0.03229321539402008 0.015273178927600384 1.5875722169876099
v -0.03864877671003342 0.019784938544034958 1.587813138961792
v -0.037859946489334106 0.022044630721211433 1.5850770473480225
v -0.032601214945316315 0.01667752116918564 1.5828391313552856
v 0.02273678034543991 0.040604978799819946 1.5882747173309326
v -0.017888624221086502 0.021402452141046524 1.5687994956970215
v -0.018563326448202133 0.02962639555335045 1.5736849308013916
v 0.03181111812591553 0.0460859015583992 1.5952401161193848
v 0.028637297451496124 0.05004797875881195 1.6034938097000122
v 0.03808562457561493 0.05205683410167694 1.6039692163467407
v -0.03521440178155899 0.03862784802913666 1.6059370040893555
v 0.011131778359413147 0.048563044518232346 1.6091166734695435
v 0.025195375084877014 0.050999872386455536 1.6102160215377808
v 0.03636123985052109 0.05340856313705444 1.6111003160476685
v 0.04437439143657684 0.055638935416936874 1.6109966039657593
v 0.045496866106987 0.053710706532001495 1.6032003164291382
v -0.06013469025492668 0.05211587995290756 1.6364340782165527
v -0.06319689750671387 0.05259513854980469 1.6317826509475708
v 0.053782373666763306 0.05707451328635216 1.6017605066299438
v 0.05229032784700394 0.05847508832812309 1.6107652187347412
v 0.022054016590118408 0.05122453346848488 1.6188549995422363
v 0.018628783524036407 0.05025078356266022 1.6289057731628418
v 0.008576914668083191 0.0487138070166111 1.617339015007019
v 0.004037056118249893 0.04761615768074989 1.627314805984497
v -0.03355160355567932 0.042379915714263916 1.6155445575714111
v -0.07404036819934845 0.0645141750574112 1.629312515258789
v -0.06923021376132965 0.054633524268865585 1.6282613277435303
v -0.07415030151605606 0.05145181342959404 1.6272014379501343
v -0.07705812156200409 0.06201206520199776 1.627252221107483
v -0.06759362667798996 0.04849762097001076 1.6275895833969116
v -0.06568874418735504 0.056542981415987015 1.632511854171753
v 0.0010406970977783203 0.042710743844509125 1.6386598348617554
v -0.05349951237440109 0.02305714227259159 1.622867226600647
v 0.016910389065742493 0.04317840188741684 1.6425882577896118
v -0.0072711072862148285 0.03550627455115318 1.6494412422180176
v 0.004169289022684097 0.03446047008037567 1.6528924703598022
v 0.03294176608324051 0.04205606132745743 1.6492383480072021
v 0.019104555249214172 0.035877540707588196 1.656111717224121
v 0.05028095096349716 0.04621579125523567 1.6442433595657349
v 0.041516900062561035 0.04461457580327988 1.6457574367523193
v 0.004670731723308563 0.028636910021305084 1.6609501838684082
v -0.08482786267995834 0.056782711297273636 1.6376028060913086
v -0.08390916883945465 0.05613875761628151 1.6321439743041992
v 0.0496089905500412 0.05331723392009735 1.6359477043151855
v -7.455796003341675e-05 -0.002446228638291359 1.6438095569610596
v 0.01740323007106781 0.010319957509636879 1.6064364910125732
v 0.015837840735912323 0.012465406209230423 1.6112189292907715
v 0.025210455060005188 0.007920356467366219 1.5892454385757446
v 0.020482413470745087 0.007119977846741676 1.5998821258544922
v -0.08308316767215729 0.05867728590965271 1.6420867443084717
v -0.04905281588435173 0.02538946084678173 1.6031436920166016
v -0.048200301826000214 0.027429603040218353 1.6006449460983276
v -0.00389915332198143 -0.0009951218962669373 1.6617447137832642
v -0.011314362287521362 -0.002956004813313484 1.6606364250183105
v -0.017712395638227463 0.007855437695980072 1.6645044088363647
v -0.014646217226982117 0.001383800059556961 1.6650317907333374
v -0.006481975317001343 0.005724113434553146 1.666435718536377
v -0.009231019765138626 0.01291014812886715 1.665813684463501
v 0.026615045964717865 0.009304799139499664 1.6134071350097656
v 0.026921100914478302 0.008424369618296623 1.609649896621704
v 0.02625443786382675 0.029156405478715897 1.58175528049469
v 0.026448339223861694 0.01774226501584053 1.5805307626724243
v -0.04600923880934715 0.035346582531929016 1.646578311920166
v -0.03857943415641785 0.03647904470562935 1.6434192657470703
v -0.04390561953186989 0.040240027010440826 1.6421315670013428
v -0.04805761203169823 0.04545799642801285 1.635971188545227
v -0.05530379340052605 0.02940073236823082 1.6221973896026611
v -0.05235708877444267 0.032667335122823715 1.6278115510940552
v 0.035055011510849 0.005275420844554901 1.6306103467941284
v 0.023978479206562042 0.007301317527890205 1.6251885890960693
v -0.011078275740146637 0.002510957419872284 1.6432148218154907
v -0.01605319231748581 0.0036356616765260696 1.643303632736206
v -0.02995745837688446 0.015797754749655724 1.614813208580017
v -0.04134143516421318 0.03754125535488129 1.6074554920196533
v -0.040573760867118835 0.04191126301884651 1.615199327468872
v -0.04048466682434082 0.016721129417419434 1.6147247552871704
v -0.07692908495664597 0.06433556973934174 1.6424946784973145
v -0.08082142472267151 0.06118040904402733 1.6434334516525269
v -0.04321010038256645 0.04131494462490082 1.6360875368118286
v -0.023828474804759026 0.012675579637289047 1.594303011894226
v -0.038135722279548645 0.03505472093820572 1.6028224229812622
v -0.044364362955093384 0.03158862888813019 1.6039551496505737
v -0.01458711177110672 0.014325672760605812 1.5705628395080566
v 0.0504220649600029 0.05681082233786583 1.623938798904419
v -0.07832751423120499 0.049287863075733185 1.6301349401474
v -0.08145584911108017 0.05727536231279373 1.6279813051223755
v -0.07168081402778625 0.06595763564109802 1.6326205730438232
v -0.07202398777008057 0.06580343842506409 1.6382977962493896
v 0.035773053765296936 0.017815785482525826 1.5858519077301025
v 0.014484748244285583 0.013617715798318386 1.6142840385437012
v -0.008157584816217422 0.021927611902356148 1.6618338823318481
v -0.01891031116247177 0.014181573875248432 1.6607909202575684
v -0.04910857230424881 0.019239580258727074 1.6143276691436768
v -0.02302308939397335 0.029899634420871735 1.580252766609192
v -0.03056473098695278 0.037495724856853485 1.5940334796905518
v -0.0340576134622097 0.038664259016513824 1.5924979448318481
v -0.039832014590501785 0.03913109749555588 1.596405267715454
v -0.04664158821105957 0.03577297553420067 1.597478985786438
v -0.07489407062530518 0.0691697895526886 1.630861759185791
v -0.07590146362781525 0.07030424475669861 1.6366026401519775
v -0.08077363669872284 0.0699482411146164 1.6397489309310913
v -0.08461754769086838 0.06662672758102417 1.640852451324463
v -0.08616706728935242 0.062129486352205276 1.6397367715835571
v -0.07714703679084778 0.06747247278690338 1.6276493072509766
v -0.07970749586820602 0.06505663692951202 1.6261403560638428
v -0.0831444263458252 0.059835486114025116 1.6276122331619263
v -0.07889638096094131 0.069607213139534 1.6249581575393677
v -0.07819318771362305 0.0738808736205101 1.6270265579223633
v -0.08784426003694534 0.07995228469371796 1.632555365562439
v -0.08357153832912445 0.07691560685634613 1.6347827911376953
v -0.08346977829933167 0.07843414694070816 1.632754921913147
v -0.08617709577083588 0.08160951733589172 1.6304184198379517
v -0.0876653641462326 0.08510947972536087 1.6272481679916382
v -0.0901694968342781 0.08361595124006271 1.6293278932571411
v -0.08005574345588684 0.07611221075057983 1.631162166595459
v -0.08303610980510712 0.08039439469575882 1.627591609954834
v -0.08144635707139969 0.0786999985575676 1.624112606048584
v -0.08311572670936584 0.08293738216161728 1.6214638948440552
v -0.08458907157182693 0.08480800688266754 1.6245664358139038
v -0.07953023165464401 0.07602372020483017 1.626940131187439
v -0.07902632653713226 0.07506321370601654 1.6322293281555176
v -0.09040466696023941 0.08580055832862854 1.6254771947860718
v -0.08811431378126144 0.08683066070079803 1.6250956058502197
v -0.08600442111492157 0.0863732248544693 1.622597336769104
v -0.08850397169589996 0.08638996630907059 1.6209285259246826
v -0.08660898357629776 0.0719679445028305 1.6377019882202148
v -0.08976632356643677 0.07835622876882553 1.632784128189087
v -0.09183528274297714 0.08128293603658676 1.6281994581222534
v -0.09189942479133606 0.0836566761136055 1.6244657039642334
v -0.09170913696289062 0.0760030746459961 1.6302870512008667
v -0.0924370214343071 0.07899023592472076 1.626535415649414
v -0.09249510616064072 0.0807654932141304 1.6229684352874756
v -0.09225399792194366 0.07365129888057709 1.626879334449768
v -0.09245046973228455 0.07704266905784607 1.6240835189819336
v -0.08890306204557419 0.06349720060825348 1.6346291303634644
v -0.08808232843875885 0.06658506393432617 1.6374871730804443
v -0.09281626343727112 0.07883620262145996 1.6221823692321777
v -0.08953893184661865 0.08464515209197998 1.619997501373291
v -0.08082745969295502 0.07558995485305786 1.6223878860473633
v -0.08390140533447266 0.0805123895406723 1.6192480325698853
v -0.08172732591629028 0.07392825186252594 1.6212666034698486
v -0.08459734916687012 0.07865756750106812 1.6177878379821777
v -0.0854903981089592 0.08410578221082687 1.617924451828003
v -0.08471673727035522 0.08487880229949951 1.6203234195709229
v -0.08627164363861084 0.05877883359789848 1.6360597610473633
v -0.08501218259334564 0.058068614453077316 1.6308963298797607
v -0.08702606707811356 0.061655234545469284 1.6294622421264648
v -0.09074336290359497 0.07166360318660736 1.6230227947235107
v -0.08470235764980316 0.0626603215932846 1.6258047819137573
v -0.08126243203878403 0.06764841824769974 1.6234380006790161
v -0.0838184505701065 0.07284073531627655 1.6199830770492554
v -0.08681406825780869 0.07156255096197128 1.6201223134994507
v -0.08620516210794449 0.0766696184873581 1.6178289651870728
v -0.08833935856819153 0.07557372748851776 1.6188263893127441
v -0.09127308428287506 0.07563385367393494 1.621024489402771
v -0.08852007985115051 0.07974782586097717 1.6174472570419312
v -0.08674430847167969 0.0822051540017128 1.6172255277633667
v -0.09086041897535324 0.08154439926147461 1.6195790767669678
v -0.08934149146080017 0.07801488041877747 1.618186593055725
v -0.09117859601974487 0.07894355058670044 1.6202025413513184
v -0.07588867843151093 0.04807349666953087 1.5892008543014526
v -0.07122357189655304 0.0459352545440197 1.5860140323638916
v -0.07122406363487244 0.038970787078142166 1.5919668674468994
v -0.07452329993247986 0.041407711803913116 1.5954012870788574
v -0.0704510360956192 0.05433446168899536 1.599523901939392
v -0.0754176527261734 0.0527694895863533 1.5968033075332642
v -0.0729488953948021 0.0492297038435936 1.602114200592041
v -0.06681352108716965 0.051859013736248016 1.602541208267212
v -0.06440448015928268 0.053672365844249725 1.598372220993042
v -0.06117229163646698 0.05083471164107323 1.6000257730484009
v -0.06308305263519287 0.052249569445848465 1.6044962406158447
v -0.06871366500854492 0.04810445383191109 1.6057367324829102
v -0.05526471510529518 0.03743797168135643 1.617722749710083
v -0.051109228283166885 0.04290640354156494 1.6157009601593018
v -0.05350283160805702 0.02359914965927601 1.6060912609100342
v -0.05204028636217117 0.02669820562005043 1.6038988828659058
v -0.07682916522026062 0.050415731966495514 1.5926895141601562
v -0.07503621280193329 0.04540056362748146 1.599234938621521
v -0.06224871799349785 0.036904361099004745 1.5903865098953247
v -0.06675701588392258 0.03540534898638725 1.5929890871047974
v -0.06743636727333069 0.03837115690112114 1.5887584686279297
v -0.06287246942520142 0.03987598419189453 1.5879826545715332
v -0.05728946253657341 0.028332490473985672 1.6163930892944336
v -0.05497826635837555 0.02440911903977394 1.611847996711731
v -0.057149454951286316 0.0327288992702961 1.6171637773513794
v -0.057824742048978806 0.04146033897995949 1.5908513069152832
v -0.05516943335533142 0.047053806483745575 1.5935790538787842
v -0.04482724145054817 0.04004961997270584 1.603609323501587
v -0.047275520861148834 0.0339462049305439 1.6014822721481323
v -0.07194279134273529 0.04374507814645767 1.60414719581604
v -0.07035177946090698 0.036406949162483215 1.5970929861068726
v -0.07250680774450302 0.039083488285541534 1.600687026977539
v -0.05785088241100311 0.05135873705148697 1.5996838808059692
v -0.057927533984184265 0.04822062700986862 1.5938451290130615
v -0.05738041549921036 0.05917349457740784 1.5833561420440674
v -0.059147030115127563 0.04848547652363777 1.5893752574920654
v -0.06203620135784149 0.04656486213207245 1.585729718208313
v -0.059369347989559174 0.05750219151377678 1.5790635347366333
v -0.059544384479522705 0.04337426275014877 1.5901857614517212
v -0.05983861908316612 0.05130945146083832 1.5939297676086426
v -0.07214102149009705 0.061341557651758194 1.5787659883499146
v -0.06750522553920746 0.05875237658619881 1.5758534669876099
v -0.07340413331985474 0.06384953111410141 1.5822803974151611
v -0.046516627073287964 0.044145986437797546 1.6096571683883667
v -0.06878982484340668 0.0657697468996048 1.5908801555633545
v -0.07294534146785736 0.06508520245552063 1.5863419771194458
v -0.06621111184358597 0.04549489915370941 1.5842902660369873
v -0.0628911703824997 0.05764809623360634 1.5761358737945557
v -0.057563938200473785 0.06146836653351784 1.5874134302139282
v -0.06251046806573868 0.0637398362159729 1.5920625925064087
v -0.05693666636943817 0.06426355987787247 1.582023024559021
v -0.060267314314842224 0.0682344138622284 1.585861086845398
v -0.06603851169347763 0.07085494697093964 1.584652304649353
v -0.07037986069917679 0.07014407962560654 1.5809904336929321
v -0.071741983294487 0.06794965267181396 1.5780500173568726
v -0.05707462131977081 0.062161315232515335 1.578600525856018
v -0.0592520572245121 0.06079677492380142 1.5746499300003052
v -0.06386327743530273 0.06005224585533142 1.573343276977539
v -0.055493876338005066 0.06440797448158264 1.573368787765503
v -0.054554060101509094 0.0672895759344101 1.5758594274520874
v -0.0581965446472168 0.08220633864402771 1.5683395862579346
v -0.06025327369570732 0.07944051921367645 1.5728778839111328
v -0.057732224464416504 0.07881415635347366 1.5732561349868774
v -0.055600855499506 0.08145462721586227 1.5692578554153442
v -0.06082494184374809 0.07639171183109283 1.578095555305481
v -0.05841999500989914 0.07630588114261627 1.5767611265182495
v -0.0560077540576458 0.07258240878582001 1.5772311687469482
v -0.05428343638777733 0.07559296488761902 1.5727765560150146
v -0.05256178602576256 0.07121623307466507 1.5716135501861572
v -0.04986577481031418 0.07409210503101349 1.5680292844772339
v -0.05128581449389458 0.07867306470870972 1.5691403150558472
v -0.05387938767671585 0.07022939622402191 1.5750837326049805
v -0.053565964102745056 0.08228157460689545 1.5666166543960571
v -0.05465252697467804 0.08264608681201935 1.564252257347107
v -0.05759089067578316 0.07148106396198273 1.5793853998184204
v -0.06709714978933334 0.07418359816074371 1.5781145095825195
v -0.0627356469631195 0.07906556129455566 1.5712188482284546
v -0.0599864162504673 0.08135457336902618 1.5658754110336304
v -0.055497076362371445 0.08093217015266418 1.561883568763733
v -0.06407536566257477 0.0768837183713913 1.5680582523345947
v -0.06058940291404724 0.07916808128356934 1.563658595085144
v -0.05657065659761429 0.07861875742673874 1.560840368270874
v -0.06410743296146393 0.07345081865787506 1.5649514198303223
v -0.06019511818885803 0.07570987939834595 1.5613188743591309
v -0.06998571753501892 0.06754659116268158 1.5726933479309082
v -0.06989653408527374 0.07121095061302185 1.5753607749938965
v -0.05782883241772652 0.07661309093236923 1.5605149269104004
v -0.05030978471040726 0.08037560433149338 1.5635688304901123
v -0.051917482167482376 0.07883360981941223 1.560964584350586
v -0.05029420554637909 0.08023449778556824 1.565468192100525
v -0.05228649079799652 0.06937828660011292 1.5706329345703125
v -0.04997316002845764 0.07259905338287354 1.5662894248962402
v -0.05282941833138466 0.06756885349750519 1.5687426328659058
v -0.05039878934621811 0.07145336270332336 1.5642184019088745
v -0.04873385280370712 0.07581939548254013 1.563584804534912
v -0.04868302494287491 0.07692563533782959 1.5649693012237549
v -0.07099924236536026 0.06462346017360687 1.5755575895309448
v -0.06747293472290039 0.06119418889284134 1.5735795497894287
v -0.06733842939138412 0.06340748071670532 1.570859432220459
v -0.061731841415166855 0.06935930252075195 1.5636177062988281
v -0.06326150894165039 0.06145293265581131 1.5708400011062622
v -0.05780833214521408 0.06269392371177673 1.5714354515075684
v -0.054726406931877136 0.06638126075267792 1.5670769214630127
v -0.05780015513300896 0.06689661741256714 1.5646978616714478
v -0.05154199153184891 0.07011881470680237 1.5628070831298828
v -0.054793257266283035 0.06953249871730804 1.5622414350509644
v -0.058473434299230576 0.07220891118049622 1.5608071088790894
v -0.05072915926575661 0.07374416291713715 1.5605452060699463
v -0.049285054206848145 0.07502162456512451 1.562047004699707
v -0.053380511701107025 0.07729978114366531 1.5601441860198975
v -0.05337405577301979 0.07231844961643219 1.5603489875793457
v -0.05569816753268242 0.07507485896348953 1.5598293542861938
v -0.06502318382263184 0.04613149166107178 1.5728263854980469
v -0.06221101060509682 0.04291878640651703 1.5694739818572998
v -0.062158677726984024 0.036177463829517365 1.5730221271514893
v -0.06489699333906174 0.04028977453708649 1.5767141580581665
v -0.05650586634874344 0.050662510097026825 1.5815327167510986
v -0.061266690492630005 0.05044792592525482 1.5798765420913696
v -0.06139536201953888 0.046605825424194336 1.582413911819458
v -0.05607616901397705 0.04660496860742569 1.5843766927719116
v -0.05142576992511749 0.05063409358263016 1.579420566558838
v -0.05079116299748421 0.045960091054439545 1.582192301750183
v -0.05283864215016365 0.04706117883324623 1.58685302734375
v -0.05891011655330658 0.0449439138174057 1.585831642150879
v -0.0494934618473053 0.038317155092954636 1.5942115783691406
v -0.04377194494009018 0.04252695292234421 1.593331217765808
v -0.06409186124801636 0.04870867729187012 1.576417088508606
v -0.06429028511047363 0.04432462900876999 1.5797350406646729
v -0.05152158439159393 0.032897647470235825 1.572942852973938
v -0.05538322031497955 0.03201328217983246 1.575211524963379
v -0.05748223140835762 0.03549100458621979 1.5701954364776611
v -0.05349390208721161 0.03674021735787392 1.5695310831069946
v -0.05076431483030319 0.02715093269944191 1.5937793254852295
v -0.04652072861790657 0.02439538948237896 1.5900838375091553
v -0.052105799317359924 0.032766666263341904 1.5939100980758667
v -0.04726944863796234 0.03677874803543091 1.57395601272583
v -0.044500865042209625 0.04245324060320854 1.5780662298202515
v -0.036565862596035004 0.03701004758477211 1.5835503339767456
v -0.038658808916807175 0.031172947958111763 1.5825127363204956
v -0.06179950386285782 0.04154592007398605 1.5844247341156006
v -0.05921423062682152 0.03280795365571976 1.5784364938735962
v -0.062435753643512726 0.036721862852573395 1.5818474292755127
v -0.04756135866045952 0.04647783190011978 1.5833261013031006
v -0.0482586994767189 0.04282468184828758 1.5770994424819946
v -0.047509804368019104 0.059546589851379395 1.5645126104354858
v -0.04897896945476532 0.04332801699638367 1.5703381299972534
v -0.05309327691793442 0.04222001135349274 1.5671906471252441
v -0.04969870671629906 0.05847868695855141 1.5609887838363647
v -0.04950635880231857 0.03928263112902641 1.5715446472167969
v -0.04795271158218384 0.04699729010462761 1.5752780437469482
v -0.061910733580589294 0.06187547370791435 1.563646674156189
v -0.05878353863954544 0.05866425856947899 1.5606026649475098
v -0.06182602792978287 0.06273722648620605 1.56769859790802
v -0.03809484839439392 0.04250925034284592 1.5890401601791382
v -0.04187650978565216 0.025527765974402428 1.5848076343536377
v -0.056739307940006256 0.06492676585912704 1.572218894958496
v -0.06035701185464859 0.06416484713554382 1.5703083276748657
v -0.05737266689538956 0.04165316000580788 1.5674750804901123
v -0.05375596135854721 0.05786968767642975 1.5593372583389282
v -0.047952838242053986 0.06109624356031418 1.5686542987823486
v -0.05141708627343178 0.06329169124364853 1.5725079774856567
v -0.04699616879224777 0.0643647089600563 1.5651471614837646
v -0.05044872686266899 0.06687913835048676 1.5689024925231934
v -0.0548337958753109 0.06941831856966019 1.5690653324127197
v -0.05824551731348038 0.06918653845787048 1.5672612190246582
v -0.06012303754687309 0.06795904040336609 1.5646604299545288
v -0.04687365144491196 0.06327453255653381 1.5610116720199585
v -0.04921427741646767 0.06258036196231842 1.5581185817718506
v -0.05346149951219559 0.060940224677324295 1.5580558776855469
v -0.045995403081178665 0.06603477150201797 1.5579344034194946
v -0.04484611749649048 0.06950323283672333 1.5617121458053589
v -0.04922613874077797 0.08441951870918274 1.558915376663208
v -0.051027633249759674 0.08008652925491333 1.5616449117660522
v -0.049763113260269165 0.0798940509557724 1.561737060546875
v -0.04757998511195183 0.08433360606431961 1.559334397315979
v -0.051421310752630234 0.07483774423599243 1.5656449794769287
v -0.04967107996344566 0.07601162791252136 1.5646388530731201
v -0.047054823487997055 0.07346591353416443 1.5642222166061401
v -0.04493046924471855 0.07833227515220642 1.5608106851577759
v -0.04304129630327225 0.07424233108758926 1.5571602582931519
v -0.04195518419146538 0.07848107814788818 1.5552011728286743
v -0.043255604803562164 0.08253606408834457 1.5585780143737793
v -0.044492457062006 0.07149815559387207 1.561334252357483
v -0.045833684504032135 0.08590727299451828 1.5574369430541992
v -0.047028690576553345 0.08757990598678589 1.5573536157608032
v -0.04827352613210678 0.07164914906024933 1.565422534942627
v -0.056003227829933167 0.07431604713201523 1.5653035640716553
v -0.053663816303014755 0.08021524548530579 1.560701847076416
v -0.0522804781794548 0.08493633568286896 1.5575906038284302
v -0.049549903720617294 0.08661848306655884 1.554789423942566
v -0.05556664988398552 0.0787506103515625 1.55789315700531
v -0.05349467694759369 0.08308877050876617 1.555245280265808
v -0.051081180572509766 0.08480030298233032 1.5527571439743042
v -0.05599439889192581 0.07673202455043793 1.5554386377334595
v -0.05364625155925751 0.08073471486568451 1.5530163049697876
v -0.059466272592544556 0.0681535005569458 1.560716986656189
v -0.05856982618570328 0.07164865732192993 1.563356876373291
v -0.051578886806964874 0.082867830991745 1.5517313480377197
v -0.043194908648729324 0.08590526133775711 1.5550330877304077
v -0.04544933885335922 0.08503320813179016 1.5515680313110352
v -0.04346698895096779 0.08460506796836853 1.5561803579330444
v -0.043144140392541885 0.07262593507766724 1.5561950206756592
v -0.04141518473625183 0.07774510979652405 1.5529663562774658
v -0.044547416269779205 0.07113173604011536 1.5541588068008423
v -0.04282783716917038 0.07644021511077881 1.5508177280426025
v -0.04120141267776489 0.08170029520988464 1.552856206893921
v -0.041540421545505524 0.08179214596748352 1.5540226697921753
v -0.06023864448070526 0.06485100835561752 1.5618308782577515
v -0.057664915919303894 0.062081314623355865 1.5589981079101562
v -0.057549793273210526 0.06531519442796707 1.5577943325042725
v -0.0540241040289402 0.07451393455266953 1.5524321794509888
v -0.053662560880184174 0.06354788690805435 1.5564712285995483
v -0.048483241349458694 0.06586186587810516 1.5555862188339233
v -0.04713651165366173 0.07111077010631561 1.5524243116378784
v -0.050336357206106186 0.07241557538509369 1.5515164136886597
v -0.04529266431927681 0.07598529756069183 1.549537181854248
v -0.048148032277822495 0.07607947289943695 1.5499598979949951
v -0.05210256576538086 0.07857850939035416 1.5502715110778809
v -0.04530097916722298 0.08001159876585007 1.5495654344558716
v -0.0426868237555027 0.08087123930454254 1.550555944442749
v -0.047840893268585205 0.08355890214443207 1.5501532554626465
v -0.04765813797712326 0.07923241704702377 1.54928719997406
v -0.04968664422631264 0.0818331241607666 1.549753189086914
v -0.04362984746694565 0.023574337363243103 1.5870468616485596
v -0.046864867210388184 0.018599247559905052 1.5836482048034668
v -0.04832347854971886 0.014852206222712994 1.582985520362854
v -0.045215778052806854 0.013836576603353024 1.5804996490478516
v -0.0429433211684227 0.017293743789196014 1.5814523696899414
v -0.049397312104701996 0.02607807144522667 1.5761038064956665
v -0.047948334366083145 0.024898987263441086 1.5802907943725586
v -0.044282469898462296 0.024779681116342545 1.5773828029632568
v -0.04523511976003647 0.025906842201948166 1.5727810859680176
v -0.05175645649433136 0.024005942046642303 1.5719791650772095
v -0.047528039664030075 0.02362348511815071 1.5686064958572388
v -0.04226880893111229 0.0275479294359684 1.572835087776184
v -0.04173394292593002 0.02574826404452324 1.577420711517334
v -0.030391328036785126 0.027415262535214424 1.5802154541015625
v -0.028768490999937057 0.029688045382499695 1.576214075088501
v -0.02133193612098694 0.013860777951776981 1.5704904794692993
v -0.021141428500413895 0.011028379201889038 1.5747381448745728
v -0.028968827798962593 0.011854659765958786 1.5741475820541382
v -0.02835487201809883 0.01314795482903719 1.570096731185913
v -0.046992458403110504 0.022148407995700836 1.5826127529144287
v -0.04353818669915199 0.021225206553936005 1.5808199644088745
v -0.043130163103342056 0.010351541452109814 1.5717424154281616
v -0.04256222024559975 0.01017008163034916 1.576256513595581
v -0.04691880941390991 0.010878009721636772 1.5783458948135376
v -0.04951779544353485 0.010123565793037415 1.5744881629943848
v -0.02431328594684601 0.011492982506752014 1.5788172483444214
v -0.02731783129274845 0.013132564723491669 1.5816090106964111
v -0.030241267755627632 0.015085743740200996 1.5813754796981812
v -0.030287297442555428 0.012960643507540226 1.578263282775879
v -0.03176303207874298 0.020412083715200424 1.5828258991241455
v -0.043886106461286545 0.01281281840056181 1.5682411193847656
v -0.044005073606967926 0.018568789586424828 1.5655795335769653
v -0.026872668415308 0.021062638610601425 1.565542221069336
v -0.026834983378648758 0.016497913748025894 1.5669504404067993
v -0.04136800393462181 0.022230222821235657 1.5803502798080444
v -0.042227283120155334 0.01278433483093977 1.579788327217102
v -0.04127029702067375 0.017137302085757256 1.580959439277649
v -0.04244663566350937 0.025243042036890984 1.5676469802856445
v -0.050448525696992874 0.01810752972960472 1.5678486824035645
v -0.06199833005666733 0.014461218379437923 1.5790207386016846
v -0.055557265877723694 0.013408595696091652 1.5733389854431152
v -0.05380625277757645 0.011264828033745289 1.5770102739334106
v -0.060397714376449585 0.012436162680387497 1.5811426639556885
v -0.04993896186351776 0.012820588424801826 1.570428490638733
v -0.05533597245812416 0.018627557903528214 1.5714925527572632
v -0.0527171790599823 0.018822532147169113 1.5887584686279297
v -0.0546644926071167 0.014369018375873566 1.5867959260940552
v -0.05274270102381706 0.022068364545702934 1.5883687734603882
v -0.027583882212638855 0.028283121064305305 1.5699033737182617
v -0.05646473169326782 0.026284217834472656 1.5835516452789307
v -0.05434326454997063 0.024727441370487213 1.5870676040649414
v -0.05080568790435791 0.012412448413670063 1.5807087421417236
v -0.0576290600001812 0.012180479243397713 1.5840352773666382
v -0.0622943714261055 0.01902080699801445 1.5779200792312622
v -0.059493158012628555 0.02439621463418007 1.5789417028427124
v -0.06534852087497711 0.019627071917057037 1.5818291902542114
v -0.06255542486906052 0.024197187274694443 1.5832439661026
v -0.05877090245485306 0.02506926655769348 1.5887815952301025
v -0.05593350902199745 0.02292734943330288 1.5902574062347412
v -0.05438319593667984 0.020179150626063347 1.590760350227356
v -0.06440730392932892 0.014652874320745468 1.5819729566574097
v -0.06244037300348282 0.012532323598861694 1.5831457376480103
v -0.05894805118441582 0.012050512246787548 1.585080623626709
v -0.06700003147125244 0.014611989259719849 1.5854089260101318
v -0.06779387593269348 0.01826685667037964 1.5883251428604126
v -0.06481437385082245 0.014566214755177498 1.600722074508667
v -0.06259042024612427 0.016871526837348938 1.598223090171814
v -0.06361314654350281 0.017151053994894028 1.5977606773376465
v -0.06563961505889893 0.015256492421030998 1.6006362438201904
v -0.0612436905503273 0.020793501287698746 1.594576120376587
v -0.06277695298194885 0.01987375132739544 1.5948915481567383
v -0.06468525528907776 0.020579639822244644 1.5918474197387695
v -0.06719474494457245 0.01774887554347515 1.595446228981018
v -0.069933220744133 0.014627944678068161 1.5920778512954712
v -0.0715901106595993 0.012845220044255257 1.5952577590942383
v -0.06924465298652649 0.015999311581254005 1.5979430675506592
v -0.06785199046134949 0.018197860568761826 1.5902173519134521
v -0.06787481904029846 0.01442805677652359 1.601962685585022
v -0.06779494881629944 0.01345887966454029 1.6029794216156006
v -0.06432502716779709 0.022582339122891426 1.5901211500167847
v -0.05760828033089638 0.01921108551323414 1.594660758972168
v -0.06105612590909004 0.015026569366455078 1.5992052555084229
v -0.0643320232629776 0.012652263045310974 1.6021473407745361
v -0.06769305467605591 0.011139189824461937 1.6030018329620361
v -0.05968242883682251 0.013290807604789734 1.5980474948883057
v -0.06341834366321564 0.010600103065371513 1.6017037630081177
v -0.06665252149105072 0.009168202057480812 1.602362036705017
v -0.059273604303598404 0.010733802802860737 1.5959759950637817
v -0.06308703869581223 0.008882524445652962 1.599747657775879
v -0.055580753833055496 0.013892645947635174 1.5914247035980225
v -0.05596727132797241 0.016598578542470932 1.5936155319213867
v -0.06588193774223328 0.008442061021924019 1.6009328365325928
v -0.07128003239631653 0.012764262035489082 1.6012874841690063
v -0.07030825316905975 0.009942194446921349 1.601320505142212
v -0.07122327387332916 0.014090849086642265 1.6003059148788452
v -0.07015003263950348 0.01372356154024601 1.5910768508911133
v -0.07208162546157837 0.011299198493361473 1.5949254035949707
v -0.06954285502433777 0.011661801487207413 1.5899672508239746
v -0.07131451368331909 0.00929536484181881 1.5946776866912842
v -0.07261623442173004 0.011056376621127129 1.5983514785766602
v -0.07214069366455078 0.01282568834722042 1.5979422330856323
v -0.05433261767029762 0.016276970505714417 1.5903493165969849
v -0.05575154349207878 0.013878059573471546 1.5878760814666748
v -0.05739520862698555 0.011860561557114124 1.588565707206726
v -0.06098584830760956 0.008735238574445248 1.5929871797561646
v -0.061118293553590775 0.011049212887883186 1.585699439048767
v -0.0647631287574768 0.012356086634099483 1.5847699642181396
v -0.06777142733335495 0.009690637700259686 1.589769721031189
v -0.06490756571292877 0.008221052587032318 1.5906264781951904
v -0.0698322206735611 0.007776122540235519 1.5950480699539185
v -0.06704689562320709 0.0067420657724142075 1.595438003540039
v -0.06430107355117798 0.007087266072630882 1.5972126722335815
v -0.07001964747905731 0.00795917771756649 1.5988373756408691
v -0.07157820463180542 0.009023154154419899 1.5988538265228271
v -0.06896218657493591 0.00843886099755764 1.600799322128296
v -0.06828096508979797 0.007187286391854286 1.5985594987869263
v -0.06712187826633453 0.007541527971625328 1.5996806621551514
v -0.022693678736686707 0.017035117372870445 1.5685824155807495
v -0.03288169205188751 0.005889333784580231 1.6536622047424316
v -0.03113514743745327 0.005830710753798485 1.6482785940170288
v -0.023342091590166092 -0.008647546172142029 1.6465928554534912
v -0.026306988671422005 -0.0027618221938610077 1.6430621147155762
v -0.02349865809082985 -0.011523827910423279 1.653112769126892
v -0.027301371097564697 -0.007699236273765564 1.6623609066009521
v -0.02414623275399208 -0.010226715356111526 1.6587485074996948
v -0.02871997095644474 0.0023228302597999573 1.6441214084625244
v -0.03249652683734894 0.0036458782851696014 1.658852458000183
v -0.03021695464849472 -0.0019323080778121948 1.6631327867507935
v -0.04333307594060898 -0.002688491716980934 1.6567569971084595
v -0.0395517572760582 -0.008979231119155884 1.660287618637085
v -0.035243190824985504 -0.015031997114419937 1.6580458879470825
v -0.030167054384946823 -0.015217959880828857 1.6539533138275146
v -0.0277896448969841 -0.015012845396995544 1.6498785018920898
v -0.040047306567430496 0.002069631591439247 1.6510533094406128
v -0.037285223603248596 0.0028727613389492035 1.6460318565368652
v -0.03272697702050209 -0.00019819475710391998 1.642419695854187
v -0.045337602496147156 -0.0016061998903751373 1.6456966400146484
v -0.04774214327335358 -0.00973454862833023 1.641302227973938
v -0.040668927133083344 -0.02454022690653801 1.6311005353927612
v -0.03795911371707916 -0.022537466138601303 1.6366848945617676
v -0.04059050232172012 -0.02179468795657158 1.637148380279541
v -0.042930372059345245 -0.02407439425587654 1.632219672203064
v -0.03873300552368164 -0.020922131836414337 1.642024278640747
v -0.04053505137562752 -0.019924599677324295 1.6409881114959717
v -0.043868161737918854 -0.015609528869390488 1.6424248218536377
v -0.045772913843393326 -0.01802770420908928 1.6374372243881226
v -0.04642233997583389 -0.011933591216802597 1.6402539014816284
v -0.04745632782578468 -0.012283939868211746 1.636085867881775
v -0.04751813784241676 -0.019927997142076492 1.632520318031311
v -0.04576393961906433 -0.02439207211136818 1.6297317743301392
v -0.04863912984728813 -0.021481703966856003 1.6284713745117188
v -0.044006817042827606 -0.02450696751475334 1.6274827718734741
v -0.046773511916399 -0.016625069081783295 1.6450358629226685
v -0.03321602940559387 -0.01976233720779419 1.6452409029006958
v -0.03452451527118683 -0.02178138867020607 1.6365934610366821
v -0.037818484008312225 -0.02314731478691101 1.629762887954712
v -0.04203763231635094 -0.022969312965869904 1.625756025314331
v -0.031859949231147766 -0.01917680725455284 1.635041356086731
v -0.03550795465707779 -0.019762609153985977 1.6289587020874023
v -0.039856940507888794 -0.01898961141705513 1.6253881454467773
v -0.03142937272787094 -0.01485404372215271 1.633353590965271
v -0.03552667796611786 -0.016059134155511856 1.6284863948822021
v -0.027477093040943146 -0.011161431670188904 1.6426012516021729
v -0.028640300035476685 -0.01625385880470276 1.6450161933898926
v -0.03893836587667465 -0.01665418967604637 1.626190185546875
v -0.048765841871500015 -0.021500717848539352 1.6261307001113892
v -0.04669615998864174 -0.019617315381765366 1.6243776082992554
v -0.0478186160326004 -0.009153436869382858 1.635791540145874
v -0.04978455230593681 -0.014274273067712784 1.6318873167037964
v -0.04926375672221184 -0.011989820748567581 1.6306712627410889
v -0.04620179161429405 -0.0057067908346652985 1.635469913482666
v -0.047950685024261475 -0.00980544462800026 1.6294231414794922
v -0.05016971752047539 -0.016035329550504684 1.6272836923599243
v -0.05011020973324776 -0.01746051385998726 1.6293278932571411
v -0.02625729888677597 -0.011228088289499283 1.6450773477554321
v -0.02830561064183712 -0.005387287586927414 1.6423407793045044
v -0.030178584158420563 -0.004968265071511269 1.6410127878189087
v -0.0336938202381134 -0.008936062455177307 1.6328659057617188
v -0.035357262939214706 -0.00036074966192245483 1.6403425931930542
v -0.04133785516023636 0.0006126798689365387 1.6430749893188477
v -0.043283477425575256 -0.003905877470970154 1.633945345878601
v -0.03841167688369751 -0.0047028549015522 1.6331719160079956
v -0.044814083725214005 -0.008785191923379898 1.6284136772155762
v -0.04188007116317749 -0.009267237037420273 1.6282572746276855
v -0.03778644651174545 -0.012251529842615128 1.627684235572815
v -0.045482851564884186 -0.012964710593223572 1.625548243522644
v -0.04842296242713928 -0.014016345143318176 1.6259320974349976
v -0.043598342686891556 -0.016643576323986053 1.6244149208068848
v -0.04301854968070984 -0.012186150997877121 1.6263834238052368
v -0.04123297706246376 -0.014615952968597412 1.625760793685913
v -0.014799363911151886 0.010580877773463726 1.5758461952209473
v -0.017898153513669968 0.009952929802238941 1.5813179016113281
v -0.010933514684438705 0.00940749328583479 1.5815179347991943
v -0.0014123879373073578 0.00858356524258852 1.5834895372390747
v 0.008769083768129349 0.010284322313964367 1.5802875757217407
v -0.0033851787447929382 0.00951633881777525 1.5899624824523926
v -0.013087917119264603 0.010281522758305073 1.5874929428100586
v -0.023204341530799866 0.011779345571994781 1.586748480796814
v 0.0028876811265945435 0.011235740035772324 1.5980393886566162
f 2 3 1
f 1 3 4
f 5 6 8
f 8 6 7
f 9 4 10
f 10 4 3
f 12 13 11
f 11 13 9
f 14 12 16
f 16 12 15
f 18 19 17
f 17 19 20
f 22 23 21
f 21 23 24
f 26 27 25
f 25 27 28
f 30 31 29
f 29 31 32
f 33 34 36
f 36 34 35
f 37 38 40
f 40 38 39
f 41 42 6
f 6 42 43
f 6 43 7
f 7 43 44
f 45 34 46
f 46 34 33
f 48 49 47
f 47 49 50
f 52 53 51
f 51 53 54
f 56 52 55
f 55 52 51
f 58 59 57
f 57 59 60
f 61 62 4
f 4 62 1
f 64 65 63
f 63 65 66
f 68 69 67
f 67 69 70
f 72 73 71
f 71 73 74
f 76 77 75
f 75 77 78
f 53 79 54
f 54 79 80
f 82 83 81
f 81 83 84
f 85 86 52
f 52 86 53
f 57 60 87
f 87 60 88
f 89 90 43
f 43 90 44
f 43 42 89
f 89 42 91
f 40 39 92
f 92 39 93
f 94 70 64
f 64 70 69
f 13 61 9
f 9 61 4
f 25 28 69
f 69 28 95
f 96 25 68
f 68 25 69
f 98 99 97
f 97 99 100
f 101 102 104
f 104 102 103
f 106 30 105
f 105 30 29
f 51 54 107
f 107 54 108
f 54 80 108
f 108 80 109
f 111 112 110
f 110 112 113
f 115 5 114
f 114 5 116
f 115 41 5
f 5 41 6
f 36 35 111
f 111 35 117
f 35 118 117
f 117 118 119
f 34 120 35
f 35 120 118
f 34 45 120
f 120 45 121
f 125 126 124
f 124 126 127
f 128 129 14
f 14 129 130
f 33 131 46
f 46 131 132
f 133 94 63
f 63 94 64
f 134 135 137
f 137 135 136
f 139 140 138
f 138 140 141
f 77 142 78
f 78 142 143
f 144 145 20
f 20 145 146
f 148 149 147
f 147 149 72
f 151 152 150
f 150 152 153
f 82 101 83
f 83 101 104
f 101 82 155
f 155 82 154
f 156 157 58
f 58 157 59
f 158 68 147
f 147 68 67
f 159 146 15
f 15 146 16
f 68 158 96
f 96 158 160
f 129 66 130
f 130 66 65
f 162 163 161
f 161 163 164
f 166 167 165
f 165 167 168
f 170 171 169
f 169 171 172
f 174 171 173
f 173 171 170
f 176 177 175
f 175 177 178
f 180 181 179
f 179 181 24
f 182 183 21
f 21 183 184
f 81 185 82
f 82 185 154
f 186 187 188
f 188 187 144
f 158 71 160
f 160 71 189
f 190 135 157
f 157 135 59
f 169 172 139
f 139 172 140
f 147 72 158
f 158 72 71
f 192 193 191
f 191 193 194
f 167 166 49
f 49 166 195
f 196 190 50
f 50 190 157
f 197 198 200
f 200 198 199
f 21 24 182
f 182 24 181
f 146 159 20
f 20 159 17
f 182 181 81
f 81 181 185
f 201 185 180
f 180 185 181
f 202 203 83
f 83 203 84
f 205 206 204
f 204 206 85
f 207 22 184
f 184 22 21
f 179 24 208
f 208 24 23
f 208 209 179
f 179 209 205
f 209 210 205
f 205 210 206
f 212 206 211
f 211 206 210
f 179 205 180
f 180 205 204
f 213 176 88
f 88 176 214
f 86 85 212
f 212 85 206
f 193 217 218
f 217 219 218
f 218 219 220
f 219 18 220
f 220 18 17
f 19 221 20
f 20 221 144
f 222 223 225
f 225 223 224
f 175 226 176
f 176 226 214
f 227 87 214
f 214 87 88
f 220 17 228
f 228 17 159
f 134 213 60
f 60 213 88
f 138 229 151
f 151 229 152
f 193 192 210
f 210 192 211
f 230 194 218
f 218 194 193
f 231 232 228
f 228 232 230
f 233 234 91
f 91 234 89
f 235 236 93
f 93 236 92
f 230 232 234
f 234 232 237
f 47 238 48
f 48 238 239
f 240 191 235
f 235 191 236
f 5 8 116
f 116 8 241
f 242 243 189
f 189 243 160
f 244 245 98
f 98 245 99
f 156 246 47
f 47 246 238
f 76 247 77
f 77 247 248
f 250 125 249
f 249 125 124
f 252 253 251
f 251 253 254
f 111 110 36
f 36 110 255
f 256 33 255
f 255 33 36
f 257 258 154
f 154 258 155
f 63 169 133
f 133 169 139
f 66 170 63
f 63 170 169
f 173 170 129
f 129 170 66
f 129 128 173
f 173 128 259
f 128 260 259
f 259 260 261
f 213 134 262
f 262 134 137
f 263 264 186
f 186 264 187
f 112 265 113
f 113 265 266
f 11 267 268
f 234 233 230
f 230 233 194
f 153 269 70
f 70 269 67
f 175 178 165
f 165 178 141
f 150 153 94
f 94 153 70
f 271 221 270
f 270 221 207
f 269 153 272
f 272 153 152
f 121 45 109
f 109 45 108
f 47 50 156
f 156 50 157
f 57 273 58
f 58 273 274
f 145 275 260
f 260 275 261
f 276 149 143
f 143 149 78
f 148 269 75
f 75 269 272
f 207 277 270
f 270 277 278
f 195 196 49
f 49 196 50
f 59 135 60
f 60 135 134
f 83 104 202
f 202 104 279
f 149 148 78
f 78 148 75
f 247 278 248
f 248 278 277
f 183 182 84
f 84 182 81
f 48 239 281
f 281 239 282
f 227 223 283
f 283 223 222
f 223 226 224
f 224 226 168
f 281 282 224
f 224 282 225
f 165 168 175
f 175 168 226
f 264 263 138
f 138 263 229
f 14 16 128
f 128 16 260
f 220 228 218
f 218 228 230
f 87 227 284
f 284 227 283
f 260 16 145
f 145 16 146
f 244 98 258
f 258 98 155
f 58 274 156
f 156 274 246
f 107 285 51
f 51 285 55
f 243 286 160
f 160 286 96
f 234 237 89
f 89 237 90
f 46 132 107
f 107 132 285
f 253 252 249
f 249 252 250
f 286 26 96
f 96 26 25
f 106 105 287
f 287 105 288
f 272 152 289
f 289 152 229
f 138 151 139
f 139 151 133
f 183 290 161
f 161 290 162
f 291 292 277
f 277 292 293
f 151 150 133
f 133 150 94
f 262 275 177
f 177 275 187
f 144 187 145
f 145 187 275
f 273 57 284
f 284 57 87
f 174 136 190
f 190 136 135
f 111 117 112
f 112 117 38
f 117 119 38
f 38 119 123
f 112 38 265
f 265 38 37
f 287 288 254
f 254 288 251
f 228 159 231
f 231 159 15
f 223 227 226
f 226 227 214
f 147 67 148
f 148 67 269
f 224 168 281
f 281 168 167
f 199 163 200
f 200 163 162
f 45 46 108
f 108 46 107
f 281 167 48
f 48 167 49
f 161 164 291
f 291 164 292
f 38 123 39
f 293 294 277
f 277 294 248
f 284 283 296
f 296 283 295
f 284 296 273
f 273 296 297
f 274 273 298
f 298 273 297
f 246 274 299
f 299 274 298
f 283 222 295
f 295 222 300
f 222 225 300
f 300 225 301
f 301 225 302
f 302 225 282
f 303 304 300
f 300 304 295
f 306 307 305
f 305 307 308
f 309 310 308
f 308 310 305
f 308 307 312
f 312 307 311
f 313 314 312
f 312 314 315
f 311 316 312
f 312 316 313
f 317 304 311
f 311 304 316
f 315 309 312
f 312 309 308
f 318 319 321
f 321 319 320
f 319 318 309
f 309 318 310
f 311 307 317
f 317 307 306
f 306 297 317
f 317 297 296
f 306 322 297
f 297 322 298
f 305 323 306
f 306 323 322
f 323 305 324
f 324 305 310
f 304 317 295
f 295 317 296
f 318 325 310
f 310 325 324
f 323 324 326
f 326 324 327
f 324 325 327
f 327 325 328
f 326 327 329
f 329 327 330
f 329 331 326
f 326 331 332
f 333 330 328
f 328 330 327
f 323 326 322
f 322 326 332
f 322 332 298
f 298 332 299
f 325 318 334
f 334 318 321
f 313 316 335
f 335 316 304
f 335 336 313
f 313 336 314
f 304 303 335
f 335 303 337
f 336 335 338
f 338 335 337
f 336 339 314
f 314 339 340
f 246 299 238
f 238 299 341
f 239 342 282
f 282 342 302
f 342 239 341
f 341 239 238
f 341 331 342
f 342 331 343
f 331 329 343
f 343 329 344
f 342 343 302
f 302 343 345
f 341 299 331
f 331 299 332
f 346 301 345
f 345 301 302
f 346 303 301
f 301 303 300
f 347 337 346
f 346 337 303
f 347 346 348
f 348 346 345
f 349 347 350
f 350 347 348
f 343 344 345
f 345 344 348
f 344 351 348
f 348 351 350
f 337 347 338
f 338 347 349
f 353 338 352
f 352 338 349
f 352 355 354
f 354 355 356
f 352 349 355
f 355 349 350
f 352 354 353
f 353 354 334
f 353 334 339
f 339 334 321
f 339 336 353
f 353 336 338
f 329 330 344
f 344 330 351
f 356 351 333
f 333 351 330
f 356 355 351
f 351 355 350
f 354 356 328
f 328 356 333
f 328 325 354
f 354 325 334
f 309 315 319
f 319 315 320
f 320 340 321
f 321 340 339
f 320 315 340
f 340 315 314
f 137 136 261
f 261 136 259
f 140 166 141
f 141 166 165
f 172 171 195
f 195 171 196
f 171 174 196
f 196 174 190
f 178 177 264
f 264 177 187
f 172 195 140
f 140 195 166
f 137 261 262
f 262 261 275
f 178 264 141
f 141 264 138
f 262 177 213
f 213 177 176
f 136 174 259
f 259 174 173
f 358 359 357
f 357 359 360
f 362 363 361
f 361 363 364
f 361 364 365
f 365 364 366
f 367 368 370
f 370 368 369
f 76 371 247
f 247 371 372
f 373 374 362
f 362 374 363
f 376 377 375
f 375 377 378
f 289 229 380
f 380 229 379
f 381 379 263
f 263 379 229
f 383 384 382
f 382 384 385
f 386 368 374
f 374 368 363
f 76 289 371
f 371 289 380
f 377 376 359
f 359 376 387
f 388 386 360
f 360 386 374
f 389 383 366
f 366 383 390
f 392 393 391
f 391 393 394
f 383 382 390
f 390 382 395
f 396 365 390
f 390 365 366
f 389 366 367
f 367 366 364
f 357 397 358
f 358 397 398
f 373 399 357
f 357 399 397
f 389 367 400
f 400 367 370
f 382 385 375
f 375 385 372
f 357 360 373
f 373 360 374
f 361 401 362
f 362 401 402
f 387 388 359
f 359 388 360
f 363 368 364
f 364 368 367
f 358 398 403
f 403 398 404
f 396 392 405
f 405 392 391
f 392 395 393
f 393 395 378
f 393 403 394
f 394 403 404
f 375 378 382
f 382 378 395
f 365 396 406
f 406 396 405
f 362 402 373
f 373 402 399
f 271 270 400
f 400 270 384
f 401 361 406
f 406 361 365
f 381 369 386
f 386 369 368
f 392 396 395
f 395 396 390
f 393 378 403
f 403 378 377
f 403 377 358
f 358 377 359
f 406 405 408
f 408 405 407
f 406 408 401
f 401 408 409
f 401 409 402
f 402 409 410
f 402 410 399
f 399 410 411
f 405 391 407
f 407 391 412
f 391 394 412
f 412 394 413
f 394 404 413
f 413 404 414
f 415 416 412
f 412 416 407
f 418 419 417
f 417 419 420
f 421 422 418
f 418 422 419
f 419 422 424
f 424 422 423
f 425 426 424
f 424 426 427
f 423 428 424
f 424 428 425
f 427 420 424
f 424 420 419
f 420 429 417
f 417 429 430
f 423 422 431
f 431 422 421
f 421 409 431
f 431 409 408
f 421 432 409
f 409 432 410
f 418 433 421
f 421 433 432
f 434 433 417
f 417 433 418
f 431 416 423
f 423 416 428
f 416 431 407
f 407 431 408
f 435 434 430
f 430 434 417
f 433 434 436
f 436 434 437
f 434 435 437
f 437 435 438
f 436 437 439
f 439 437 440
f 439 441 436
f 436 441 442
f 438 443 437
f 437 443 440
f 436 442 433
f 433 442 432
f 432 442 410
f 410 442 411
f 435 430 445
f 445 430 444
f 430 429 444
f 444 429 446
f 425 428 447
f 447 428 416
f 426 425 448
f 448 425 447
f 416 415 447
f 447 415 449
f 447 449 448
f 448 449 450
f 451 452 448
f 448 452 426
f 446 452 444
f 444 452 451
f 399 411 397
f 397 411 453
f 398 454 404
f 404 454 414
f 454 398 453
f 453 398 397
f 453 441 454
f 454 441 455
f 441 439 455
f 455 439 456
f 454 455 414
f 414 455 457
f 441 453 442
f 442 453 411
f 458 413 457
f 457 413 414
f 458 415 413
f 413 415 412
f 458 459 415
f 415 459 449
f 459 458 460
f 460 458 457
f 461 459 462
f 462 459 460
f 455 456 457
f 457 456 460
f 456 463 460
f 460 463 462
f 459 461 449
f 449 461 450
f 465 450 464
f 464 450 461
f 464 467 466
f 466 467 468
f 464 461 467
f 467 461 462
f 464 466 465
f 465 466 445
f 465 445 451
f 451 445 444
f 451 448 465
f 465 448 450
f 439 440 456
f 456 440 463
f 468 463 443
f 443 463 440
f 468 467 463
f 463 467 462
f 466 468 438
f 438 468 443
f 438 435 466
f 466 435 445
f 420 427 429
f 429 427 446
f 446 427 452
f 452 427 426
f 370 369 188
f 188 369 186
f 371 376 372
f 372 376 375
f 380 379 387
f 387 379 388
f 379 381 388
f 388 381 386
f 385 384 278
f 278 384 270
f 380 387 371
f 371 387 376
f 400 370 271
f 271 370 188
f 385 278 372
f 372 278 247
f 400 384 389
f 389 384 383
f 369 381 186
f 186 381 263
f 221 271 144
f 144 271 188
f 221 19 207
f 207 19 22
f 19 18 22
f 22 18 23
f 18 219 23
f 23 219 208
f 469 470 472
f 472 470 471
f 474 475 473
f 473 475 476
f 473 476 477
f 477 476 478
f 480 481 479
f 479 481 482
f 483 484 474
f 474 484 475
f 486 487 485
f 485 487 488
f 489 490 77
f 77 490 142
f 491 489 248
f 248 489 77
f 493 494 492
f 492 494 495
f 496 480 484
f 484 480 475
f 486 497 487
f 487 497 471
f 498 496 472
f 472 496 484
f 499 493 478
f 478 493 500
f 501 502 504
f 504 502 503
f 493 492 500
f 500 492 505
f 506 477 500
f 500 477 478
f 499 478 479
f 479 478 476
f 469 507 470
f 470 507 508
f 483 509 469
f 469 509 507
f 479 482 499
f 499 482 510
f 492 495 485
f 485 495 511
f 483 469 484
f 484 469 472
f 473 512 474
f 474 512 513
f 497 498 471
f 471 498 472
f 475 480 476
f 476 480 479
f 470 508 514
f 514 508 515
f 506 502 516
f 516 502 501
f 503 502 488
f 488 502 505
f 514 515 503
f 503 515 504
f 485 488 492
f 492 488 505
f 477 506 517
f 517 506 516
f 474 513 483
f 483 513 509
f 510 292 494
f 494 292 164
f 512 473 517
f 517 473 477
f 491 481 496
f 496 481 480
f 502 506 505
f 505 506 500
f 503 488 514
f 514 488 487
f 514 487 470
f 470 487 471
f 517 516 519
f 519 516 518
f 517 519 512
f 512 519 520
f 512 520 513
f 513 520 521
f 513 521 509
f 509 521 522
f 516 501 518
f 518 501 523
f 501 504 523
f 523 504 524
f 524 504 525
f 525 504 515
f 526 527 523
f 523 527 518
f 529 530 528
f 528 530 531
f 532 533 529
f 529 533 530
f 530 533 535
f 535 533 534
f 536 537 535
f 535 537 538
f 534 539 535
f 535 539 536
f 538 531 535
f 535 531 530
f 540 541 531
f 531 541 528
f 533 532 534
f 534 532 542
f 532 520 542
f 542 520 519
f 532 543 520
f 520 543 521
f 529 544 532
f 532 544 543
f 544 529 545
f 545 529 528
f 534 542 539
f 539 542 527
f 527 542 518
f 518 542 519
f 541 546 528
f 528 546 545
f 547 544 548
f 548 544 545
f 546 549 545
f 545 549 548
f 550 547 551
f 551 547 548
f 547 550 553
f 553 550 552
f 549 554 548
f 548 554 551
f 544 547 543
f 543 547 553
f 543 553 521
f 521 553 522
f 546 541 556
f 556 541 555
f 541 540 555
f 555 540 557
f 536 539 558
f 558 539 527
f 537 536 559
f 559 536 558
f 527 526 558
f 558 526 560
f 559 558 561
f 561 558 560
f 559 562 537
f 537 562 563
f 557 563 555
f 555 563 562
f 509 522 507
f 507 522 564
f 508 565 515
f 515 565 525
f 565 508 564
f 564 508 507
f 564 552 565
f 565 552 566
f 552 550 566
f 566 550 567
f 565 566 525
f 525 566 568
f 564 522 552
f 552 522 553
f 569 524 568
f 568 524 525
f 569 526 524
f 524 526 523
f 570 560 569
f 569 560 526
f 570 569 571
f 571 569 568
f 572 570 573
f 573 570 571
f 566 567 568
f 568 567 571
f 567 574 571
f 571 574 573
f 570 572 560
f 560 572 561
f 576 561 575
f 575 561 572
f 575 578 577
f 577 578 579
f 575 572 578
f 578 572 573
f 575 577 576
f 576 577 556
f 576 556 562
f 562 556 555
f 562 559 576
f 576 559 561
f 550 551 567
f 567 551 574
f 579 574 554
f 554 574 551
f 579 578 574
f 574 578 573
f 579 554 577
f 577 554 549
f 549 546 577
f 577 546 556
f 531 538 540
f 540 538 557
f 557 538 563
f 563 538 537
f 481 294 482
f 482 294 293
f 580 486 511
f 511 486 485
f 490 489 497
f 497 489 498
f 489 491 498
f 498 491 496
f 163 495 164
f 164 495 494
f 580 490 486
f 486 490 497
f 482 293 510
f 510 293 292
f 495 163 511
f 511 163 199
f 494 493 510
f 510 493 499
f 481 491 294
f 294 491 248
f 582 583 581
f 581 583 584
f 586 587 585
f 585 587 588
f 585 588 589
f 589 588 590
f 592 593 591
f 591 593 594
f 595 596 598
f 598 596 597
f 599 600 586
f 586 600 587
f 601 602 604
f 604 602 603
f 605 606 608
f 608 606 607
f 609 607 200
f 200 607 606
f 610 611 613
f 613 611 612
f 600 614 587
f 587 614 592
f 596 605 597
f 597 605 608
f 602 615 603
f 603 615 583
f 616 614 584
f 584 614 600
f 611 618 617
f 617 618 590
f 620 621 619
f 619 621 622
f 610 623 611
f 611 623 618
f 624 589 618
f 618 589 590
f 617 590 591
f 591 590 588
f 581 625 582
f 582 625 626
f 599 627 581
f 581 627 625
f 591 594 617
f 617 594 628
f 601 610 598
f 598 610 613
f 581 584 599
f 599 584 600
f 585 629 586
f 586 629 630
f 615 616 583
f 583 616 584
f 587 592 588
f 588 592 591
f 582 626 631
f 631 626 632
f 624 620 633
f 633 620 619
f 621 620 604
f 604 620 623
f 631 632 621
f 621 632 622
f 610 601 623
f 623 601 604
f 589 624 634
f 634 624 633
f 586 630 599
f 599 630 627
f 203 202 628
f 628 202 612
f 629 585 634
f 634 585 589
f 609 593 614
f 614 593 592
f 620 624 623
f 623 624 618
f 631 621 603
f 603 621 604
f 582 631 583
f 583 631 603
f 634 633 636
f 636 633 635
f 634 636 629
f 629 636 637
f 629 637 630
f 630 637 638
f 630 638 627
f 627 638 639
f 633 619 635
f 635 619 640
f 619 622 640
f 640 622 641
f 641 622 642
f 642 622 632
f 644 635 643
f 643 635 640
f 645 646 648
f 648 646 647
f 649 650 646
f 646 650 647
f 647 650 652
f 652 650 651
f 652 653 655
f 655 653 654
f 651 656 652
f 652 656 653
f 655 648 652
f 652 648 647
f 648 657 645
f 645 657 658
f 650 649 651
f 651 649 659
f 649 637 659
f 659 637 636
f 649 660 637
f 637 660 638
f 661 660 646
f 646 660 649
f 662 661 645
f 645 661 646
f 651 659 656
f 656 659 644
f 644 659 635
f 635 659 636
f 663 662 658
f 658 662 645
f 664 661 665
f 665 661 662
f 663 666 662
f 662 666 665
f 667 664 668
f 668 664 665
f 664 667 670
f 670 667 669
f 666 671 665
f 665 671 668
f 661 664 660
f 660 664 670
f 660 670 638
f 638 670 639
f 658 672 663
f 663 672 673
f 658 657 672
f 672 657 674
f 653 656 675
f 675 656 644
f 653 675 654
f 654 675 676
f 675 644 677
f 677 644 643
f 676 675 678
f 678 675 677
f 679 680 676
f 676 680 654
f 674 680 672
f 672 680 679
f 627 639 625
f 625 639 681
f 626 682 632
f 632 682 642
f 681 682 625
f 625 682 626
f 669 683 681
f 681 683 682
f 667 684 669
f 669 684 683
f 682 683 642
f 642 683 685
f 681 639 669
f 669 639 670
f 686 641 685
f 685 641 642
f 641 686 640
f 640 686 643
f 686 687 643
f 643 687 677
f 687 686 688
f 688 686 685
f 689 687 690
f 690 687 688
f 683 684 685
f 685 684 688
f 684 691 688
f 688 691 690
f 687 689 677
f 677 689 678
f 693 678 692
f 692 678 689
f 692 695 694
f 694 695 696
f 692 689 695
f 695 689 690
f 692 694 693
f 693 694 673
f 693 673 679
f 679 673 672
f 679 676 693
f 693 676 678
f 684 667 691
f 691 667 668
f 696 691 671
f 671 691 668
f 696 695 691
f 691 695 690
f 694 696 666
f 666 696 671
f 666 663 694
f 694 663 673
f 648 655 657
f 657 655 674
f 674 655 680
f 680 655 654
f 593 162 594
f 594 162 290
f 598 597 601
f 601 597 602
f 615 608 616
f 616 608 607
f 607 609 616
f 616 609 614
f 697 595 613
f 613 595 598
f 597 608 602
f 602 608 615
f 594 290 628
f 628 290 203
f 628 612 617
f 617 612 611
f 593 609 162
f 162 609 200
f 105 29 698
f 698 29 699
f 268 126 701
f 701 126 700
f 126 125 700
f 700 125 702
f 252 703 250
f 250 703 704
f 32 268 705
f 705 268 701
f 288 105 706
f 706 105 698
f 29 32 699
f 699 32 705
f 707 251 706
f 706 251 288
f 250 704 125
f 125 704 702
f 703 252 707
f 707 252 251
f 706 708 707
f 707 708 709
f 707 709 703
f 703 709 710
f 703 710 704
f 704 710 711
f 704 711 702
f 702 711 712
f 706 698 708
f 708 698 713
f 698 699 713
f 713 699 714
f 699 705 714
f 714 705 715
f 717 708 716
f 716 708 713
f 719 720 718
f 718 720 721
f 722 723 719
f 719 723 720
f 724 725 723
f 723 725 720
f 724 726 725
f 725 726 727
f 728 721 725
f 725 721 720
f 721 728 729
f 729 728 730
f 729 731 721
f 721 731 718
f 724 723 732
f 732 723 722
f 722 710 732
f 732 710 709
f 722 733 710
f 710 733 711
f 719 734 722
f 722 734 733
f 734 719 735
f 735 719 718
f 724 732 726
f 726 732 717
f 717 732 708
f 708 732 709
f 731 736 718
f 718 736 735
f 737 734 738
f 738 734 735
f 736 739 735
f 735 739 738
f 740 737 741
f 741 737 738
f 737 740 743
f 743 740 742
f 739 744 738
f 738 744 741
f 734 737 733
f 733 737 743
f 733 743 711
f 711 743 712
f 736 731 746
f 746 731 745
f 731 729 745
f 745 729 730
f 727 726 747
f 747 726 717
f 748 727 749
f 749 727 747
f 747 717 750
f 750 717 716
f 749 747 751
f 751 747 750
f 749 752 748
f 748 752 753
f 730 753 745
f 745 753 752
f 728 725 748
f 748 725 727
f 730 728 753
f 753 728 748
f 700 702 754
f 754 702 712
f 705 701 715
f 715 701 755
f 754 755 700
f 700 755 701
f 742 756 754
f 754 756 755
f 740 757 742
f 742 757 756
f 755 756 715
f 715 756 758
f 754 712 742
f 742 712 743
f 759 714 758
f 758 714 715
f 714 759 713
f 713 759 716
f 759 760 716
f 716 760 750
f 760 759 761
f 761 759 758
f 762 760 763
f 763 760 761
f 756 757 758
f 758 757 761
f 757 764 761
f 761 764 763
f 760 762 750
f 750 762 751
f 766 751 765
f 765 751 762
f 767 765 769
f 769 765 768
f 765 762 768
f 768 762 763
f 765 767 766
f 766 767 746
f 766 746 752
f 752 746 745
f 752 749 766
f 766 749 751
f 757 740 764
f 764 740 741
f 769 764 744
f 744 764 741
f 769 768 764
f 764 768 763
f 767 769 739
f 739 769 744
f 739 736 767
f 767 736 746
f 219 217 208
f 208 217 209
f 209 217 210
f 210 217 193
f 198 580 199
f 199 580 511
f 76 75 289
f 289 75 272
f 277 207 291
f 291 207 184
f 290 183 203
f 203 183 84
f 490 580 142
f 142 580 198
f 142 198 143
f 143 198 197
f 149 276 72
f 72 276 73
f 104 103 279
f 279 103 770
f 770 596 279
f 279 596 595
f 605 596 771
f 771 596 770
f 771 770 772
f 772 770 103
f 772 103 773
f 773 103 102
f 155 774 101
f 101 774 102
f 773 102 97
f 97 102 774
f 775 773 100
f 100 773 97
f 773 775 772
f 772 775 776
f 772 776 771
f 771 776 777
f 200 606 197
f 197 606 777
f 189 71 778
f 778 71 74
f 97 774 98
f 98 774 155
f 183 161 184
f 184 161 291
f 777 276 197
f 197 276 143
f 777 606 771
f 771 606 605
f 613 612 697
f 697 612 202
f 595 697 279
f 279 697 202
f 73 276 776
f 776 276 777
f 776 775 73
f 73 775 74
f 100 778 775
f 775 778 74
f 778 100 189
f 189 100 99
f 245 242 99
f 99 242 189
f 131 33 256
f 28 1 95
f 95 1 62
f 27 2 28
f 28 2 1
f 265 115 266
f 266 115 114
f 95 62 69
f 69 62 64
f 62 61 64
f 64 61 65
f 61 13 65
f 65 13 130
f 13 12 130
f 130 12 14
f 31 11 32
f 32 11 268
f 15 12 31
f 31 12 11
f 31 30 15
f 15 30 231
f 30 106 231
f 231 106 232
f 287 237 106
f 106 237 232
f 254 90 287
f 287 90 237
f 253 44 254
f 254 44 90
f 253 249 44
f 44 249 7
f 267 127 268
f 268 127 126
f 10 3 241
f 241 3 116
f 3 2 116
f 116 2 114
f 2 27 114
f 114 27 266
f 27 26 266
f 266 26 113
f 26 286 113
f 113 286 110
f 286 243 110
f 110 243 255
f 243 242 255
f 255 242 256
f 242 245 256
f 256 245 131
f 245 244 131
f 131 244 132
f 265 37 115
f 115 37 41
f 41 37 42
f 42 37 40
f 92 91 40
f 40 91 42
f 236 233 92
f 92 233 91
f 191 194 236
f 236 194 233
f 258 285 244
f 244 285 132
f 257 55 258
f 258 55 285
f 257 154 201
f 201 154 185
f 56 201 204
f 204 201 180
f 55 257 56
f 56 257 201
f 204 85 56
f 56 85 52
f 86 122 53
f 53 122 79
f 212 215 86
f 86 215 122
f 211 216 212
f 212 216 215
f 192 280 211
f 211 280 216
f 191 240 192
f 192 240 280
f 249 124 7
f 7 124 8
f 124 127 8
f 8 127 241
f 127 267 241
f 241 267 10
f 10 267 9
f 9 267 11
