v 0.022103838622570038 -0.006638441700488329 0.6322565078735352
v 0.033884868025779724 -0.01107485219836235 0.6322491765022278
v 0.02614155411720276 -0.014417294412851334 0.639056384563446
v 0.016344524919986725 -0.010133540257811546 0.6386565566062927
v 0.04394735395908356 -0.017241988331079483 0.6513965129852295
v 0.049136266112327576 -0.011421877890825272 0.6600823998451233
v 0.031954385340213776 -0.011753479018807411 0.663038969039917
v 0.030296973884105682 -0.017402905970811844 0.6550436019897461
v 0.010787319391965866 -0.009485965594649315 0.6433330774307251
v 0.0188605859875679 -0.01507602259516716 0.6435969471931458
v 0.009491324424743652 -0.0029076621867716312 0.6443853974342346
v 0.002121996134519577 0.004954029805958271 0.6477675437927246
v 0.0029451772570610046 -0.0023064245469868183 0.6456747651100159
v -0.00528993085026741 0.008217059075832367 0.6486036777496338
v 0.008534058928489685 0.014817344024777412 0.6480527520179749
v -0.0043294355273246765 0.017126858234405518 0.6455031633377075
v 0.016658540815114975 0.027739187702536583 0.6289070844650269
v 0.020298313349485397 0.028531260788440704 0.616758406162262
v 0.004546321928501129 0.026767633855342865 0.6152118444442749
v 0.001972053200006485 0.025647711008787155 0.6281304359436035
v 0.015520788729190826 0.022755781188607216 0.5984308123588562
v 0.00857386365532875 0.02505689486861229 0.6073880791664124
v 0.024256449192762375 0.028175657615065575 0.6088845729827881
v 0.0295974463224411 0.025952376425266266 0.6005239486694336
v 0.02995116636157036 -0.0019976594485342503 0.6202811002731323
v 0.04129335284233093 -0.004121128004044294 0.6193119883537292
v 0.03939861059188843 -0.006198072340339422 0.6238245368003845
v 0.028129063546657562 -0.003236930351704359 0.6247901320457458
v 0.009682096540927887 0.003995683044195175 0.6495490074157715
v 0.01684878021478653 0.009395094588398933 0.6528087854385376
v 0.011664599180221558 0.005524102598428726 0.6480815410614014
v 0.008633136749267578 -0.0009084991179406643 0.6467204689979553
v 0.06684216111898422 -0.010005567222833633 0.6112684607505798
v 0.07867544889450073 -0.004212192725390196 0.6135378479957581
v 0.07802530378103256 -0.00377911189571023 0.6194412708282471
v 0.06743009388446808 -0.008924750611186028 0.6161097288131714
v 0.07023264467716217 -0.007054474670439959 0.6449252963066101
v 0.07736828923225403 -0.0013746838085353374 0.638625979423523
v 0.08136823028326035 0.008016875013709068 0.6475679874420166
v 0.07259821891784668 0.0061158970929682255 0.6522635817527771
v 0.0604899600148201 -0.010585125535726547 0.6538698077201843
v 0.06329456716775894 0.0007653441280126572 0.6591245532035828
v 0.04958370327949524 -0.0006330977194011211 0.664511501789093
v 0.03154875710606575 -0.0028892657719552517 0.6664243936538696
v 0.08014102280139923 -0.0023163105361163616 0.6009710431098938
v 0.07182175666093826 -0.006763320881873369 0.5975356698036194
v -0.04103151336312294 0.0018660775385797024 0.6145229339599609
v -0.03924752399325371 0.005970252212136984 0.6104345917701721
v -0.035384539514780045 0.0046355160884559155 0.6145430207252502
v -0.03806203231215477 0.0011844257824122906 0.6177185773849487
v 0.0735059604048729 0.011851411312818527 0.588502824306488
v 0.07208488136529922 0.02181215025484562 0.5893166065216064
v 0.07922777533531189 0.0206898245960474 0.5890839695930481
v 0.08075790107250214 0.011494400911033154 0.5901844501495361
v 0.06385048478841782 0.012108804658055305 0.5864587426185608
v 0.062095366418361664 0.022658847272396088 0.5901891589164734
v -0.04832315817475319 0.007314128335565329 0.623975396156311
v -0.04680237919092178 0.0028555779717862606 0.6216325163841248
v -0.04358779639005661 0.0035644113086163998 0.6255617737770081
v -0.04360362887382507 0.008268103003501892 0.628022313117981
v 0.006654936820268631 -0.005676050204783678 0.6410118937492371
v 0.011752180755138397 -0.0052725267596542835 0.6336660981178284
v -0.01223301887512207 -0.0029960968531668186 0.6377836465835571
v -0.0022665802389383316 -0.0030569196678698063 0.6365619897842407
v -0.0025864914059638977 -0.0027061342261731625 0.6430686116218567
v -0.011345352046191692 -0.002047592308372259 0.6436673402786255
v 0.007447697222232819 -0.0010772221721708775 0.6153194308280945
v 0.019165359437465668 -0.0007814671844244003 0.6166070699691772
v 0.01622394472360611 -0.000995601061731577 0.6222627758979797
v 0.003092179074883461 -0.0019032829441130161 0.622663140296936
v 0.02340124174952507 -0.003663227427750826 0.6034877300262451
v 0.011415600776672363 -0.0034459629096090794 0.6032669544219971
v 0.014984700828790665 -0.0052861603908240795 0.5958123803138733
v 0.023052822798490524 -0.00589487561956048 0.597331166267395
v -0.010720942169427872 -0.00023088185116648674 0.6048881411552429
v -0.01918989233672619 0.00514004472643137 0.6037737131118774
v -0.01899414137005806 0.006835295353084803 0.6010845899581909
v -0.010083247907459736 -6.988644599914551e-05 0.6017296314239502
v 0.08624810725450516 0.020684288814663887 0.5893195867538452
v 0.08749032765626907 0.011554582975804806 0.5927025079727173
v 0.025015898048877716 0.015824750065803528 0.5812143683433533
v 0.03081989660859108 0.008053483441472054 0.5761228203773499
v 0.020327478647232056 0.00696901511400938 0.5724562406539917
v 0.016875173896551132 0.014899477362632751 0.5787884593009949
v 0.06896090507507324 0.029474405571818352 0.595578134059906
v 0.07642468810081482 0.029402514919638634 0.5932668447494507
v -0.04791008681058884 0.01354035921394825 0.6233057379722595
v -0.04224702715873718 0.013732468709349632 0.6273000836372375
v 0.05007848143577576 0.010540401563048363 0.6614173054695129
v 0.031197436153888702 0.0059989751316607 0.6644645929336548
v 0.06368546932935715 0.013768477365374565 0.6561244130134583
v 0.07232888042926788 0.01719704642891884 0.651044487953186
v 0.08046074211597443 0.019454101100564003 0.6492726802825928
v -0.005403582006692886 -0.0028282632119953632 0.6308287382125854
v 0.01808534935116768 -0.002991009969264269 0.6274110078811646
v 0.03153819963335991 -0.0020335051231086254 0.6157892942428589
v 0.03620363399386406 -0.010012077167630196 0.5867913365364075
v 0.04678229242563248 -0.01024569757282734 0.5885318517684937
v 0.041079938411712646 -0.010326886549592018 0.5973520278930664
v 0.03297523781657219 -0.009437374770641327 0.5939327478408813
v 0.03112339973449707 -0.0014802305959165096 0.575005292892456
v 0.027877964079380035 -0.007313257548958063 0.5792407393455505
v 0.018448270857334137 -0.007021730300039053 0.5770430564880371
v 0.021200314164161682 -0.0016207150183618069 0.5724800229072571
v 0.010503090918064117 0.007282566279172897 0.6558317542076111
v 0.021898318082094193 0.01209624856710434 0.6570829153060913
v 0.07424315810203552 0.0017933282069861889 0.5913208723068237
v 0.08087024092674255 0.002674838760867715 0.5950985550880432
v 0.08847543597221375 0.005363970063626766 0.5972796678543091
v 0.05447781831026077 -0.008239664137363434 0.6169346570968628
v 0.06796303391456604 -0.008479796350002289 0.6197723150253296
v 0.06717851758003235 -0.009531671181321144 0.6251251101493835
v 0.05417781323194504 -0.008464116603136063 0.6200882196426392
v 0.04564764350652695 -0.016208579763770103 0.6362126469612122
v 0.05720505863428116 -0.015650877729058266 0.6419610977172852
v 0.034696854650974274 -0.01873893477022648 0.6431975960731506
v 0.07893486320972443 -0.0029877224005758762 0.627941906452179
v 0.08771944046020508 -0.0016504679806530476 0.6213010549545288
v 0.08728349953889847 1.5999656170606613e-05 0.630137026309967
v 0.08865885436534882 -0.0008831215091049671 0.6115877032279968
v 0.08896461874246597 0.0012840256094932556 0.6029541492462158
v 0.08422978222370148 0.03222310543060303 0.5916622281074524
v 0.08575380593538284 0.0032158263493329287 0.6379143595695496
v 0.02106650173664093 -0.016461506485939026 0.6557056903839111
v 0.012584473937749863 -0.015227122232317924 0.6557489633560181
v 0.011284101754426956 -0.013613855466246605 0.6483235359191895
v 0.018400728702545166 -0.01538354903459549 0.6477562785148621
v -0.0158619973808527 0.008839793503284454 0.6478674411773682
v -0.014167146757245064 0.0016097193583846092 0.6466419100761414
v -0.003282923251390457 0.0011391174048185349 0.648212194442749
v 0.057255782186985016 -0.011045243591070175 0.6049129366874695
v 0.06199990212917328 -0.008607447147369385 0.5936217308044434
v -0.014622902497649193 -0.0004912526346743107 0.632114827632904
v -0.042776137590408325 0.010235615074634552 0.6319776177406311
v -0.042238689959049225 0.004596134182065725 0.630416750907898
v -0.031646616756916046 0.005562336649745703 0.6406423449516296
v -0.03281693905591965 0.01207311823964119 0.641373336315155
v -0.021689657121896744 0.008293887600302696 0.6267355680465698
v -0.018688905984163284 0.0040124026127159595 0.6284204721450806
v -0.020492609590291977 0.007006706204265356 0.6262723803520203
v -0.022132914513349533 0.012647902593016624 0.6237021088600159
v -0.014134284108877182 0.0036159325391054153 0.5942283272743225
v -0.006588581949472427 -0.0014246716164052486 0.5943557024002075
v -0.01280728168785572 0.02041875384747982 0.6269258260726929
v -0.012606598436832428 0.022820720449090004 0.6405893564224243
v -0.00030966103076934814 0.023972315713763237 0.6378070116043091
v 0.010523799806833267 -0.0019578230567276478 0.6086217164993286
v -0.00024422071874141693 -0.0023071891628205776 0.6064713001251221
v 0.0006645675748586655 -0.0026930845342576504 0.6024978160858154
v -0.008796503767371178 -0.0018641320057213306 0.6273086071014404
v -0.015928849577903748 0.0014464985579252243 0.627570390701294
v -0.013999741524457932 -0.000700648408383131 0.6231487989425659
v -0.006257874891161919 -0.0017498773522675037 0.6222617030143738
v 0.04284772276878357 0.01066840160638094 0.5792397856712341
v 0.043607234954833984 -0.0006714793853461742 0.5776496529579163
v -0.043925002217292786 0.000768756028264761 0.6183264851570129
v -0.04108647257089615 0.0008406299166381359 0.6219490170478821
v 0.021968141198158264 -0.0015992042608559132 0.6100199818611145
v 0.013864710927009583 0.024183182045817375 0.637350857257843
v 0.03333612531423569 -0.002778871450573206 0.6107597947120667
v 0.0006145760416984558 0.013059135526418686 0.5877347588539124
v -0.002168457955121994 0.007536289747804403 0.5831430554389954
v -0.006909746676683426 0.009206718765199184 0.5847793817520142
v -0.004232145845890045 0.014020304195582867 0.5864185094833374
v -0.03175531327724457 0.01537572406232357 0.6165779829025269
v -0.03246481344103813 0.00973108597099781 0.6154792308807373
v -0.03363022208213806 0.010052371770143509 0.6122666001319885
v -0.03413998335599899 0.015693731606006622 0.6135860085487366
v -0.01880727708339691 0.0003389050252735615 0.6323786973953247
v -0.019467098638415337 -0.0012484914623200893 0.6386928558349609
v -0.02494015544652939 8.797599002718925e-05 0.6328117251396179
v -0.02265183813869953 0.003250730689615011 0.6286523938179016
v -0.022951852530241013 0.0016210009343922138 0.6419157385826111
v -0.02847129851579666 0.0012125479988753796 0.6375093460083008
v -0.03352808952331543 0.019743209704756737 0.6207140684127808
v -0.0375894159078598 0.019736606627702713 0.6269956827163696
v -0.028255408629775047 0.02151118777692318 0.6329167485237122
v -0.02575748600065708 0.01889914833009243 0.6261855363845825
v 0.0436258390545845 0.029302353039383888 0.6029182076454163
v 0.047386571764945984 0.02540726214647293 0.5933231115341187
v 0.03356250375509262 0.021973157301545143 0.5906933546066284
v 0.020678583532571793 0.019102199003100395 0.5878393650054932
v 0.007789399474859238 0.01453826017677784 0.5863850116729736
v 0.004313156008720398 0.020350394770503044 0.5959045886993408
v 0.03748154640197754 0.01880040019750595 0.5845546722412109
v -0.022452298551797867 0.009825630113482475 0.6241885423660278
v -0.019850168377161026 0.018479904159903526 0.6336243748664856
v -0.01871861331164837 0.015103466808795929 0.6255010366439819
v 0.03487744927406311 -0.005508980248123407 0.6040859818458557
v -0.04046379402279854 0.0013264152221381664 0.6274464130401611
v 0.0694495141506195 0.03329218924045563 0.6375510096549988
v 0.06954730302095413 0.03710529953241348 0.625193178653717
v 0.06115347892045975 0.035102419555187225 0.6267821192741394
v 0.06087346374988556 0.03035450354218483 0.6399309635162354
v -0.0347483828663826 0.003678468521684408 0.6181203126907349
v -0.0373297855257988 0.00035276589915156364 0.6224852800369263
v -0.0056074317544698715 -0.001240867655724287 0.5872606635093689
v -0.011646401137113571 0.003126891329884529 0.5885823369026184
v -0.011470243334770203 0.0049477871507406235 0.5854727029800415
v -0.006225503981113434 -0.00011957203969359398 0.5807713270187378
v 0.05059713125228882 0.022847384214401245 0.5891891121864319
v 0.014496691524982452 0.0074225724674761295 0.5719206929206848
v 0.01073666661977768 0.014283278957009315 0.576850414276123
v 0.05961503088474274 0.028411179780960083 0.5960792899131775
v 0.05643152445554733 0.03237953037023544 0.6043400168418884
v 0.06586449593305588 0.03438862785696983 0.6048025488853455
v -0.0075463782995939255 0.021875033155083656 0.6062208414077759
v 0.03893127292394638 0.03088190034031868 0.6099885702133179
v 0.052974432706832886 0.03333069011569023 0.6110727190971375
v 0.06412938237190247 0.035739678889513016 0.6119483709335327
v 0.07213696092367172 0.03796367347240448 0.6118373274803162
v 0.07327157258987427 0.036027692258358 0.6040263772010803
v -0.04035015031695366 0.01549375057220459 0.630321204662323
v -0.0402817539870739 0.019294388592243195 0.6232514977455139
v 0.08155681937932968 0.039376311004161835 0.6025766730308533
v 0.08005396276712418 0.04079195111989975 0.6115950345993042
v 0.0498100146651268 0.0335562564432621 0.6197171807289124
v 0.04649873822927475 0.03252238407731056 0.6295860409736633
v 0.0363229401409626 0.031056683510541916 0.6182058453559875
v 0.031792931258678436 0.029960205778479576 0.6280806064605713
v -0.006831793114542961 0.02527746744453907 0.6157238483428955
v -0.053011875599622726 0.01770022325217724 0.6077336072921753
v -0.04331527277827263 0.020174289122223854 0.6136264801025391
v -0.03993428871035576 0.016978202387690544 0.6098199486732483
v -0.05048282817006111 0.016797900199890137 0.6043610572814941
v -0.036519650369882584 0.0194818414747715 0.6174211502075195
v -0.04585462808609009 0.019013678655028343 0.6191094517707825
v 0.029096078127622604 0.02521340921521187 0.6389923691749573
v -0.021315384656190872 0.0021281871013343334 0.6217668652534485
v 0.04525585472583771 0.02562764286994934 0.6425713300704956
v 0.021300092339515686 0.019020894542336464 0.6492786407470703
v 0.032932743430137634 0.018148289993405342 0.6523780822753906
v 0.06124051660299301 0.024673983454704285 0.6491900086402893
v 0.04788650572299957 0.019463298842310905 0.6552792191505432
v 0.07813912630081177 0.028587007895112038 0.6449493765830994
v 0.06952479481697083 0.02703646942973137 0.6462128162384033
v 0.034434251487255096 0.01406879723072052 0.6593325734138489
v -0.048104606568813324 0.0027377507649362087 0.6061845421791077
v -0.04624343290925026 0.007267353590577841 0.6031926870346069
v 0.07739783078432083 0.03563526272773743 0.6367507576942444
v 0.024984627962112427 -0.017657751217484474 0.6465622186660767
v 0.04517603665590286 -0.007364333141595125 0.6073506474494934
v 0.04363442212343216 -0.005283408332616091 0.6121230125427246
v 0.052945949137210846 -0.009829312562942505 0.59026038646698
v 0.048233114182949066 -0.010558051988482475 0.6008188128471375
v -0.05110737681388855 0.0007618456147611141 0.610399603843689
v -0.022744230926036835 0.011779846623539925 0.603551983833313
v -0.0192970409989357 0.01276697963476181 0.6025418043136597
v 0.022070106118917465 -0.012229865416884422 0.6630796194076538
v 0.014083780348300934 -0.012230226770043373 0.6625890135765076
v 0.01099521666765213 0.0004078429192304611 0.6646280288696289
v 0.012376736849546432 -0.006477509159594774 0.6659972071647644
v 0.021419420838356018 -0.004391873721033335 0.6664341688156128
v 0.02029813826084137 0.0030739777721464634 0.6647620797157288
v 0.05440211296081543 -0.008476188406348228 0.6143391728401184
v 0.05469255894422531 -0.009235449135303497 0.6105640530586243
v 0.05405531823635101 0.01126930583268404 0.5827962160110474
v 0.05422496050596237 -0.00011321902275085449 0.5815898180007935
v -0.02494220994412899 0.007087147329002619 0.6442792415618896
v -0.0171769168227911 0.015557387843728065 0.6466530561447144
v -0.02572375163435936 0.013484664261341095 0.6443700790405273
v -0.0301058366894722 0.01820172369480133 0.6395852565765381
v -0.024360768496990204 0.006654051132500172 0.6226001977920532
v -0.02186664752662182 0.014070207253098488 0.6284265518188477
v 0.06271954625844955 -0.01279558427631855 0.6323674917221069
v 0.05170172452926636 -0.011457793414592743 0.6267231106758118
v 0.014507655054330826 -0.011871080845594406 0.6451321840286255
v 0.009531378746032715 -0.008326347917318344 0.6447640061378479
v -0.0018849074840545654 -0.0016378001309931278 0.6154360771179199
v -0.018355224281549454 0.021914362907409668 0.608860969543457
v -0.0179631095379591 0.022645089775323868 0.6163807511329651
v -0.011619379743933678 -0.0005606603808701038 0.6147436499595642
v -0.05654562637209892 0.0055394782684743404 0.6151700615882874
v -0.0539403036236763 0.0017468719743192196 0.6130460500717163
v -0.023187007755041122 0.019200628623366356 0.6417673230171204
v 0.0033612437546253204 -0.00499481288716197 0.5948086380958557
v -0.00922822579741478 0.019258467480540276 0.602994441986084
v -0.020867973566055298 0.018697138875722885 0.605358362197876
v 0.015804335474967957 -0.0011523752473294735 0.5713317394256592
v 0.0781816765666008 0.03913450613617897 0.6247758269309998
v -0.0386340469121933 0.01159118302166462 0.6078867316246033
v -0.0463552325963974 0.012018809095025063 0.6022871136665344
v -0.05475218594074249 0.016536464914679527 0.6116392612457275
v -0.056401629000902176 0.011774299666285515 0.6155266165733337
v 0.06352774053812027 6.45369291305542e-05 0.5868108868598938
v 0.042306020855903625 -0.0042337230406701565 0.6151841878890991
v 0.022431645542383194 0.010455899871885777 0.6601499319076538
v 0.010761234909296036 0.0058585903607308865 0.6601381301879883
v -0.018533192574977875 0.0017724432982504368 0.6127288341522217
v 0.0041559357196092606 0.0114629827439785 0.5818867087364197
v -0.001903396099805832 0.019503740593791008 0.5938495993614197
v -0.0038237255066633224 0.02036612667143345 0.5921260118484497
v -0.00799797847867012 0.021778151392936707 0.5973599553108215
v -0.015180550515651703 0.019743280485272408 0.6000834107398987
v -0.058136265724897385 0.015605226159095764 0.6076118350028992
v -0.05947558209300041 0.011327525600790977 0.6116499304771423
v -0.05946136265993118 0.005347428377717733 0.612038791179657
v -0.057243380695581436 0.0016895360313355923 0.6102789640426636
v -0.05347353219985962 0.0008968277834355831 0.6077186465263367
v -0.05691370368003845 0.01670052297413349 0.6035467386245728
v -0.05473198741674423 0.015532201156020164 0.6006059646606445
v -0.049678318202495575 0.011692112311720848 0.599867582321167
v -0.05971042811870575 0.01501125656068325 0.5994937419891357
v -0.06402900815010071 0.012872518971562386 0.60193932056427
v -0.06677631288766861 -0.0006620795466005802 0.6021640300750732
v -0.06492182612419128 0.002837815787643194 0.606482744216919
v -0.06681796163320541 0.00369803374633193 0.6046642065048218
v -0.0691370815038681 0.0014155670069158077 0.6007919311523438
v -0.07213378697633743 0.0003507225774228573 0.596528172492981
v -0.06987287849187851 -0.002339488361030817 0.5976290702819824
v -0.06573386490345001 0.00820462591946125 0.6047793626785278
v -0.06901807337999344 0.005785004701465368 0.5992889404296875
v -0.06783758103847504 0.009098479524254799 0.5968135595321655
v -0.07128145545721054 0.0070562525652348995 0.5927501320838928
v -0.07259765267372131 0.004193724598735571 0.5949180126190186
v -0.06596190482378006 0.010658403858542442 0.6008979082107544
v -0.06448769569396973 0.009135102853178978 0.6064793467521667
v -0.07228434830904007 -0.00182029465213418 0.5934930443763733
v -0.0738111361861229 0.00027551641687750816 0.5940194129943848
v -0.07402761280536652 0.003144101705402136 0.5922281742095947
v -0.07377255707979202 0.0013305707834661007 0.5896017551422119
v -0.05959475785493851 0.00036548590287566185 0.6075688600540161
v -0.06464256346225739 -0.0023347162641584873 0.6015380620956421
v -0.06707215309143066 -0.0031274505890905857 0.5958737730979919
v -0.06979665160179138 -0.0024742544628679752 0.5919238924980164
v -0.061928004026412964 -0.002449671272188425 0.5981075763702393
v -0.06476640701293945 -0.00252885976806283 0.5939387679100037
v -0.06683358550071716 -0.0016528875567018986 0.5903605818748474
v -0.05980771407485008 -0.0007372000254690647 0.5946177244186401
v -0.06308013200759888 -0.0009320736862719059 0.5916355848312378
v -0.052413035184144974 0.0022321133874356747 0.6031492948532104
v -0.054739147424697876 0.00044517358765006065 0.606469988822937
v -0.06489922106266022 -0.0011180178262293339 0.5895127058029175
v -0.07193659245967865 0.0009761764667928219 0.5880340933799744
v -0.06517325341701508 0.011534536257386208 0.5957263112068176
v -0.06890301406383514 0.007906569167971611 0.5906417369842529
v -0.06322597712278366 0.011817099526524544 0.5941493511199951
v -0.06708189845085144 0.008499601855874062 0.5890586972236633
v -0.07223646342754364 0.00576799875125289 0.5881271362304688
v -0.0728696882724762 0.005457037594169378 0.5907168388366699
v -0.0499199815094471 0.003053543623536825 0.6046146154403687
v -0.04846694692969322 0.0077251954935491085 0.6013869643211365
v -0.050591371953487396 0.006992341484874487 0.5994635820388794
v -0.058438897132873535 0.0028878054581582546 0.5916449427604675
v -0.05195979028940201 0.010694144293665886 0.5974315404891968
v -0.05722425505518913 0.013659512624144554 0.5967651605606079
v -0.061561014503240585 0.010514987632632256 0.5918723940849304
v -0.059443891048431396 0.00795782171189785 0.5907194018363953
v -0.06471872329711914 0.007500724401324987 0.5882633924484253
v -0.06306004524230957 0.0055309622548520565 0.5883660912513733
v -0.06234554946422577 0.0017329058609902859 0.5891717076301575
v -0.06724023818969727 0.0044385879300534725 0.5866019129753113
v -0.07012094557285309 0.005437151994556189 0.5869880318641663
v -0.06839752197265625 0.000882366206496954 0.5875566005706787
v -0.06529176980257034 0.003889234270900488 0.5870137214660645
v -0.065668486058712 0.0010906620882451534 0.5882053971290588
v -0.05991622060537338 0.006772769149392843 0.6059374809265137
v -0.05740167945623398 0.010004866868257523 0.6016497015953064
v -0.05189672112464905 0.006741181947290897 0.6041144132614136
v -0.053657036274671555 0.004430077970027924 0.6082380414009094
v -0.05902881547808647 0.014773815870285034 0.6174740791320801
v -0.060876477509737015 0.009372955188155174 0.6144269108772278
v -0.0549490749835968 0.008670829236507416 0.617911696434021
v -0.05295862257480621 0.015653997659683228 0.6198928952217102
v -0.05525704473257065 0.020411159843206406 0.6155190467834473
v -0.049595631659030914 0.02100028656423092 0.6164323687553406
v -0.04952027276158333 0.017852408811450005 0.6215866804122925
v -0.049794528633356094 0.010631597600877285 0.6206116676330566
v -0.02968878485262394 0.010403085500001907 0.6220779418945312
v -0.03020121343433857 0.017641229555010796 0.6230112314224243
v -0.02641194686293602 0.007454282604157925 0.6056051254272461
v -0.027745256200432777 0.011647375300526619 0.6051048636436462
v -0.06083106994628906 0.007083381060510874 0.6097472906112671
v -0.05461832880973816 0.005541934631764889 0.6134048104286194
v -0.04664958268404007 0.014198288321495056 0.6012340188026428
v -0.04735188186168671 0.009024158120155334 0.6028628945350647
v -0.05064226686954498 0.010217975825071335 0.6008985042572021
v -0.04906303435564041 0.015065852552652359 0.6005159020423889
v -0.027057640254497528 0.00406587403267622 0.6166509985923767
v -0.025573158636689186 0.005052248015999794 0.6109190583229065
v -0.02887636050581932 0.0061166128143668175 0.6194229125976562
v -0.046421028673648834 0.020238731056451797 0.6037201881408691
v -0.046873077750205994 0.024712765589356422 0.6089335083961487
v -0.02946939505636692 0.02431950718164444 0.610775351524353
v -0.029356148093938828 0.0201253704726696 0.6063717007637024
v -0.04977186769247055 0.006237915717065334 0.6170633435249329
v -0.048371147364377975 0.00556894950568676 0.6070606708526611
v -0.04917711764574051 0.004130407702177763 0.6117914319038391
v -0.047939449548721313 0.023147238418459892 0.6166919469833374
v -0.04927212372422218 0.023405365645885468 0.6091189384460449
v -0.06298737227916718 0.02760476805269718 0.6007112264633179
v -0.05319518595933914 0.022277653217315674 0.6035510301589966
v -0.053774647414684296 0.018536634743213654 0.6000473499298096
v -0.06382345408201218 0.025409311056137085 0.5963167548179626
v -0.048814091831445694 0.0196064542979002 0.6034791469573975
v -0.05391409620642662 0.02350953407585621 0.6091040968894958
v -0.07223648577928543 0.015057409182190895 0.5981787443161011
v -0.06913813948631287 0.018417419865727425 0.5943166017532349
v -0.07374893873929977 0.014732586219906807 0.6022886633872986
v -0.029973318800330162 0.023488827049732208 0.6178323030471802
v -0.07049839198589325 0.01944751851260662 0.611008882522583
v -0.07319442927837372 0.015543943271040916 0.6065273284912109
v -0.055156659334897995 0.014080308377742767 0.5990303158760071
v -0.06635401397943497 0.022377625107765198 0.5937283039093018
v -0.06350219249725342 0.028085676953196526 0.6051597595214844
v -0.0657309889793396 0.024704234674572945 0.6108030676841736
v -0.06758560240268707 0.029017724096775055 0.603907585144043
v -0.07036364078521729 0.025783946737647057 0.6084294319152832
v -0.07544301450252533 0.020006529986858368 0.6081477999687195
v -0.07739999890327454 0.017041385173797607 0.6038374304771423
v -0.07707682996988297 0.016512861475348473 0.5999783277511597
v -0.06716972589492798 0.029490480199456215 0.5997509956359863
v -0.06793596595525742 0.028277525678277016 0.5952097177505493
v -0.06917716562747955 0.023881882429122925 0.5928326845169067
v -0.07255750894546509 0.032835703343153 0.5974599719047546
v -0.07441192865371704 0.03279434144496918 0.6013678312301636
v -0.09236490726470947 0.030756182968616486 0.5994477868080139
v -0.08789534866809845 0.027344439178705215 0.6017018556594849
v -0.087032750248909 0.029747162014245987 0.6025777459144592
v -0.09124168753623962 0.03301926329731941 0.6008050441741943
v -0.08279922604560852 0.025357533246278763 0.6052563786506653
v -0.08314767479896545 0.028052402660250664 0.6045545339584351
v -0.07936560362577438 0.030554747208952904 0.6042172312736511
v -0.08409066498279572 0.033493347465991974 0.6018202900886536
v -0.0805882066488266 0.035868432372808456 0.599376380443573
v -0.084928497672081 0.03968183696269989 0.598253071308136
v -0.08857935667037964 0.03750117868185043 0.6007526516914368
v -0.07796095311641693 0.03331512585282326 0.6019336581230164
v -0.0931471586227417 0.03583284467458725 0.599459707736969
v -0.0945224016904831 0.035501349717378616 0.5972298383712769
v -0.07707849144935608 0.028868215158581734 0.6055589914321899
v -0.08130431175231934 0.01967596262693405 0.6026856899261475
v -0.08825980126857758 0.025528423488140106 0.5992102026939392
v -0.09259830415248871 0.02995460107922554 0.5962958931922913
v -0.09411118924617767 0.03564248979091644 0.5941951870918274
v -0.0876428559422493 0.025443775579333305 0.595087468624115
v -0.09168225526809692 0.030270103365182877 0.5932645201683044
v -0.09254306554794312 0.03517739102244377 0.5919308662414551
v -0.08579671382904053 0.026711443439126015 0.5910027623176575
v -0.08964874595403671 0.03170629218220711 0.58990478515625
v -0.07727690786123276 0.018845392391085625 0.5944716930389404
v -0.07989037781953812 0.018006013706326485 0.5983691215515137
v -0.09090634435415268 0.03426998481154442 0.5903593897819519
v -0.0927705317735672 0.04011053591966629 0.5970895886421204
v -0.09266991913318634 0.039599187672138214 0.5936701893806458
v -0.09179624915122986 0.03957922011613846 0.5986593961715698
v -0.07931332290172577 0.03656115382909775 0.5978772044181824
v -0.08438767492771149 0.04022245854139328 0.5960721969604492
v -0.07837112247943878 0.03684351593255997 0.5953184366226196
v -0.08429767936468124 0.04060652107000351 0.5936483144760132
v -0.08866047859191895 0.04215942323207855 0.5955567955970764
v -0.08898267149925232 0.04162093251943588 0.5972692966461182
v -0.07472376525402069 0.01705833710730076 0.5963810086250305
v -0.07136125862598419 0.020130734890699387 0.5933927893638611
v -0.07357462495565414 0.021997908130288124 0.5917288064956665
v -0.08236458897590637 0.02978227473795414 0.5888673663139343
v -0.07117462158203125 0.02615811862051487 0.5917151570320129
v -0.0718497633934021 0.03133740276098251 0.5943376421928406
v -0.07794176042079926 0.03581738844513893 0.592737078666687
v -0.07950596511363983 0.033515814691782 0.5898641347885132
v -0.08374914526939392 0.04013451188802719 0.5915013551712036
v -0.08351688086986542 0.03729751333594322 0.589684784412384
v -0.0866568386554718 0.0338977612555027 0.5884877443313599
v -0.08825496584177017 0.0413840189576149 0.5914033055305481
v -0.08869040757417679 0.042191050946712494 0.5937148332595825
v -0.09167502820491791 0.03861582279205322 0.591781497001648
v -0.08704391866922379 0.0390649288892746 0.5897287130355835
v -0.0898003950715065 0.036687955260276794 0.589783787727356
v -0.03659870848059654 0.03322170302271843 0.5824037790298462
v -0.03542179986834526 0.02988390438258648 0.5783385038375854
v -0.03450459986925125 0.02376844733953476 0.5817378163337708
v -0.0354669913649559 0.027796510607004166 0.5859568119049072
v -0.02521084062755108 0.03767024353146553 0.5872461199760437
v -0.030267199501395226 0.037592191249132156 0.5874409079551697
v -0.029623322188854218 0.03391824662685394 0.5899134874343872
v -0.023943929001688957 0.03359429910778999 0.5898991823196411
v -0.02126952074468136 0.03746354579925537 0.5834153294563293
v -0.01980128511786461 0.03229153901338577 0.5861639380455017
v -0.02022828906774521 0.032638974487781525 0.591585099697113
v -0.02664737030863762 0.03159298747777939 0.5922913551330566
v -0.01712918095290661 0.022679690271615982 0.5979691743850708
v -0.011097993701696396 0.02575661800801754 0.5955634713172913
v -0.034226253628730774 0.03580285981297493 0.5853196382522583
v -0.03347628563642502 0.03172236680984497 0.5884075164794922
v -0.02561095356941223 0.019317690283060074 0.5781228542327881
v -0.029055897146463394 0.01893458142876625 0.5813261270523071
v -0.031105438247323036 0.022565098479390144 0.5776463150978088
v -0.027446627616882324 0.023307081311941147 0.575675904750824
v -0.02120216190814972 0.012196952477097511 0.597661554813385
v -0.018328804522752762 0.008713856339454651 0.5931892991065979
v -0.021219898015260696 0.017864877358078957 0.5982503890991211
v -0.020421698689460754 0.022496169432997704 0.5776512622833252
v -0.015732066705822945 0.027217352762818336 0.5807308554649353
v -0.00810476765036583 0.01954137347638607 0.5841132402420044
v -0.011484870687127113 0.014270981773734093 0.5836769342422485
v -0.03056308440864086 0.028764227405190468 0.5916961431503296
v -0.031470153480768204 0.020171821117401123 0.5855426788330078
v -0.032814592123031616 0.0243361983448267 0.5895551443099976
v -0.01643138751387596 0.03129654750227928 0.5867552161216736
v -0.01924792490899563 0.029001936316490173 0.5804899334907532
v -0.02340240217745304 0.04593312740325928 0.5679588317871094
v -0.022663503885269165 0.02998320758342743 0.5743325352668762
v -0.02788345143198967 0.0288523118942976 0.5729484558105469
v -0.02678583189845085 0.04494359344244003 0.5655319094657898
v -0.02265671081840992 0.02570958063006401 0.5759093165397644
v -0.019675210118293762 0.03362555801868439 0.5783994793891907
v -0.03717787563800812 0.048269931226968765 0.5726448893547058
v -0.035514213144779205 0.04526294395327568 0.5686101317405701
v -0.03548833727836609 0.04894847422838211 0.5764620304107666
v -0.00695132277905941 0.024890568107366562 0.5898489952087402
v -0.01501068752259016 0.009171269834041595 0.586849570274353
v -0.029018493369221687 0.05088062584400177 0.5788733959197998
v -0.033074378967285156 0.05014616250991821 0.5783209800720215
v -0.03179256245493889 0.028398094698786736 0.5747242569923401
v -0.031279053539037704 0.04438755661249161 0.56552654504776
v -0.021951287984848022 0.04730293154716492 0.5720489025115967
v -0.023693932220339775 0.04938845336437225 0.5771592259407043
v -0.022682948037981987 0.050684452056884766 0.5691931247711182
v -0.024649662896990776 0.052642662078142166 0.5743198990821838
v -0.02942557819187641 0.054832573980093 0.5762882828712463
v -0.03332028165459633 0.05443223938345909 0.5755167007446289
v -0.035816483199596405 0.05337075516581535 0.5735405683517456
v -0.02392033487558365 0.049998149275779724 0.5651081800460815
v -0.027021024376153946 0.04952758923172951 0.5630090236663818
v -0.031452953815460205 0.047236330807209015 0.5642491579055786
v -0.024220868945121765 0.053837310522794724 0.5626861453056335
v -0.022400425747036934 0.05698174983263016 0.5663817524909973
v -0.029603732749819756 0.07178725302219391 0.5671343207359314
v -0.029964402318000793 0.0667341873049736 0.5696821808815002
v -0.028752600774168968 0.0666985809803009 0.5693452954292297
v -0.02786146104335785 0.07185211777687073 0.5670349597930908
v -0.028450744226574898 0.06098146364092827 0.5728896856307983
v -0.027392512187361717 0.062470801174640656 0.5715564489364624
v -0.02459593303501606 0.06047400087118149 0.5701124668121338
v -0.02404594235122204 0.06612301617860794 0.5670827031135559
v -0.022822130471467972 0.06277234852313995 0.562370777130127
v -0.02266392856836319 0.06755241006612778 0.5607393383979797
v -0.023562710732221603 0.07101435959339142 0.564986526966095
v -0.022722458466887474 0.05923464521765709 0.5664207935333252
v -0.026913441717624664 0.07409005612134933 0.5650013089179993
v -0.02830444648861885 0.0753600001335144 0.5654049515724182
v -0.02470328100025654 0.05822799727320671 0.5712345242500305
v -0.03288181126117706 0.059624481946229935 0.5733723640441895
v -0.032801639288663864 0.0664198026061058 0.5693551301956177
v -0.032818764448165894 0.07170286029577255 0.5666277408599854
v -0.03131392225623131 0.07430858910083771 0.5635170340538025
v -0.03522218018770218 0.0649305060505867 0.5668665766716003
v -0.03442399203777313 0.06995166838169098 0.5644516944885254
v -0.033068008720874786 0.07239558547735214 0.5617249011993408
v -0.036020055413246155 0.06319548189640045 0.5642840266227722
v -0.0349540039896965 0.06787829846143723 0.5619919300079346
v -0.036788634955883026 0.05374247208237648 0.5692599415779114
v -0.03564026206731796 0.056945595890283585 0.5718420147895813
v -0.033581413328647614 0.07050256431102753 0.5605612993240356
v -0.025112848728895187 0.0748140811920166 0.5619359016418457
v -0.028123319149017334 0.07394309341907501 0.5590875744819641
v -0.024677887558937073 0.07352513074874878 0.5629715919494629
v -0.022859860211610794 0.06127488240599632 0.5612455606460571
v -0.022856295108795166 0.06717237830162048 0.5583532452583313
v -0.02448817901313305 0.059834957122802734 0.5594621896743774
v -0.02460702508687973 0.06592358648777008 0.5565283298492432
v -0.023211246356368065 0.07129473239183426 0.558696985244751
v -0.02307332679629326 0.07118915021419525 0.5599309802055359
v -0.036810874938964844 0.050699383020401 0.5706478357315063
v -0.03518056496977806 0.04817669466137886 0.566860556602478
v -0.03543918579816818 0.05134770646691322 0.5655167698860168
v -0.03461494669318199 0.061567530035972595 0.5605267882347107
v -0.031899064779281616 0.050212450325489044 0.5628394484519958
v -0.027137676253914833 0.05355570837855339 0.5609267354011536
v -0.027432089671492577 0.05954517796635628 0.5584350824356079
v -0.03098243661224842 0.06024859845638275 0.5584207773208618
v -0.027221351861953735 0.06517099589109421 0.5559781789779663
v -0.02984057180583477 0.06455256044864655 0.5569074749946594
v -0.03387501835823059 0.06626388430595398 0.5586264729499817
v -0.027808668091893196 0.06915706396102905 0.5563581585884094
v -0.025141363963484764 0.07042469829320908 0.5567895174026489
v -0.030575621873140335 0.07209663093090057 0.5581687092781067
v -0.030038047581911087 0.06792084127664566 0.5565966963768005
v -0.032169319689273834 0.07001794874668121 0.5580543875694275
v -0.01642800122499466 0.0074317618273198605 0.5895078182220459
v -0.01463630236685276 0.01326536200940609 0.546891987323761
v -0.010842718183994293 0.012129856273531914 0.5458230972290039
v -0.009869535453617573 0.009189700707793236 0.5482579469680786
v -0.013961424119770527 0.009210729971528053 0.5493863821029663
v -0.014465725049376488 0.020893892273306847 0.5549686551094055
v -0.016735905781388283 0.01832048036158085 0.55218505859375
v -0.01729273423552513 0.015466492623090744 0.5553976893424988
v -0.01546473614871502 0.01842033490538597 0.5576134324073792
v -0.010113663971424103 0.0222847331315279 0.5551555752754211
v -0.010913396254181862 0.01948467455804348 0.5572062730789185
v -0.014231161214411259 0.01601572521030903 0.5601698160171509
v -0.0157381072640419 0.011745942756533623 0.5592048168182373
v -0.0047445595264434814 0.007504079956561327 0.5761089324951172
v -0.0012717954814434052 0.011736422777175903 0.576248288154602
v 0.011644143611192703 0.000685032457113266 0.5698102116584778
v 0.00856231153011322 -0.004101641941815615 0.5730295777320862
v 0.003801874816417694 0.00014751357957720757 0.5660146474838257
v 0.0069731250405311584 0.004238359164446592 0.5652372241020203
v -0.016564050689339638 0.015587827190756798 0.5493174195289612
v -0.016841240227222443 0.011744916439056396 0.552256166934967
v -0.00046053528785705566 0.011102121323347092 0.5528591871261597
v -0.0035573765635490417 0.007515569683164358 0.5519164800643921
v -0.005649840459227562 0.008949397131800652 0.5482786297798157
v -0.0021034367382526398 0.01094680093228817 0.5494981408119202
v 0.0037661418318748474 -0.003973950166255236 0.575904369354248
v -0.00011806003749370575 -0.002582268323749304 0.5794341564178467
v -0.002946823835372925 -0.002069136593490839 0.5742055177688599
v -0.0002787075936794281 -0.0013385755009949207 0.5680835843086243
v -0.006758686155080795 0.0013478933833539486 0.5755077600479126
v -0.00045313313603401184 0.015027882531285286 0.554563045501709
v -0.0037376098334789276 0.018284665420651436 0.5574443340301514
v 0.00850871205329895 0.01316039264202118 0.5692358613014221
v 0.009019408375024796 0.0089181549847126 0.5675010681152344
v -0.015751691535115242 0.007917780429124832 0.5565015077590942
v -0.007679350674152374 0.006001356523483992 0.5523502230644226
v -0.012382443062961102 0.005128124263137579 0.5537363290786743
v -0.009692417457699776 0.01924755796790123 0.558590829372406
v -0.004897991195321083 0.01816684752702713 0.555593729019165
v -0.00225159153342247 0.023257220163941383 0.5436058044433594
v -0.0013954117894172668 0.016795797273516655 0.5500870943069458
v -0.002864586189389229 0.01374117098748684 0.5465689301490784
v -0.003275632858276367 0.021628914400935173 0.5414903163909912
v -0.0017093196511268616 0.014416642487049103 0.552223265171051
v -0.0043195690959692 0.020750848576426506 0.5534963011741638
v -0.01484670490026474 0.020116811618208885 0.5402055978775024
v -0.010040560737252235 0.01874219812452793 0.5393937826156616
v -0.016419637948274612 0.02175077609717846 0.5423482060432434
v 0.003344424068927765 0.015184378251433372 0.5730599761009216
v -0.01416531391441822 0.026451649144291878 0.5473855137825012
v -0.016651539131999016 0.024337077513337135 0.5444949865341187
v -0.006830194965004921 0.012267721816897392 0.5454696416854858
v -0.006078433245420456 0.01973804645240307 0.5401120185852051
v -0.0037551335990428925 0.02573193795979023 0.546486496925354
v -0.009018871933221817 0.02753971703350544 0.5487757325172424
v -0.003551444038748741 0.028959207236766815 0.5441413521766663
v -0.009149802848696709 0.02992924116551876 0.5464849472045898
v -0.014552034437656403 0.029245035722851753 0.5442116856575012
v -0.016428662464022636 0.026777705177664757 0.5421115159988403
v -0.016422273591160774 0.024490877985954285 0.5398705005645752
v -0.001992803066968918 0.026502782478928566 0.5410359501838684
v -0.002986852079629898 0.02444257214665413 0.5389651656150818
v -0.005874225869774818 0.02191067300736904 0.5375799536705017
v -0.0018874891102313995 0.030013171955943108 0.538473904132843
v -0.003940548747777939 0.03385240584611893 0.5405462980270386
v -0.013548307120800018 0.03800144046545029 0.5321301817893982
v -0.013899054378271103 0.03545178100466728 0.5350180268287659
v -0.013086926192045212 0.03608538582921028 0.5356972217559814
v -0.013367131352424622 0.03890462964773178 0.532873272895813
v -0.013509344309568405 0.03314753249287605 0.5396855473518372
v -0.012279730290174484 0.03432963788509369 0.5393181443214417
v -0.00912594422698021 0.03426552191376686 0.5409954786300659
v -0.009456925094127655 0.03768310695886612 0.5372380018234253
v -0.0042856670916080475 0.03735579922795296 0.5360161066055298
v -0.005133334547281265 0.039956316351890564 0.5331715941429138
v -0.009547002613544464 0.04026629030704498 0.534705400466919
v -0.005254536867141724 0.03534090891480446 0.5399210453033447
v -0.012617986649274826 0.04100850969552994 0.5316336154937744
v -0.01313401386141777 0.041277505457401276 0.5303957462310791
v -0.009449835866689682 0.03336706385016441 0.5424242615699768
v -0.015757955610752106 0.029717786237597466 0.5383994579315186
v -0.014987461268901825 0.03433438763022423 0.5331695675849915
v -0.014241203665733337 0.03792937844991684 0.5300019383430481
v -0.012370210140943527 0.04055330902338028 0.5284721851348877
v -0.014651183038949966 0.031901340931653976 0.5322445631027222
v -0.013902392238378525 0.03635241463780403 0.5283459424972534
v -0.01191762089729309 0.0388202965259552 0.5269072651863098
v -0.012897845357656479 0.02947223372757435 0.5309562087059021
v -0.012227825820446014 0.03431832790374756 0.5278190970420837
v -0.013333652168512344 0.024034226313233376 0.5356866121292114
v -0.01533764973282814 0.026771487668156624 0.5369232892990112
v -0.011151589453220367 0.03713756054639816 0.5270391702651978
v -0.009687546640634537 0.04269162565469742 0.5306187868118286
v -0.009291362017393112 0.041384436190128326 0.5281113982200623
v -0.009466823190450668 0.042441822588443756 0.5319740176200867
v -0.0031922906637191772 0.03655462712049484 0.5355811715126038
v -0.004162859171628952 0.03964097052812576 0.5319892168045044
v -0.002259001135826111 0.034561481326818466 0.5340553522109985
v -0.00391131266951561 0.03835359215736389 0.53026282787323
v -0.006191834807395935 0.041859112679958344 0.5303547382354736
v -0.006881088018417358 0.041653066873550415 0.531991183757782
v -0.014203628525137901 0.02229972369968891 0.5375542640686035
v -0.01033523865044117 0.020790496841073036 0.5372952818870544
v -0.00944712944328785 0.022969666868448257 0.5353555679321289
v -0.009363576769828796 0.028310434892773628 0.5304769277572632
v -0.005045656114816666 0.024143235757946968 0.535815417766571
v -0.002587277442216873 0.027042225003242493 0.5371148586273193
v -0.0030949749052524567 0.032251857221126556 0.5324974656105042
v -0.005271732807159424 0.029955517500638962 0.5309865474700928
v -0.004676643759012222 0.03688831254839897 0.5287359952926636
v -0.006474580615758896 0.03461087867617607 0.527718722820282
v -0.009359605610370636 0.03338582441210747 0.52740079164505
v -0.00710504874587059 0.03923345357179642 0.5274580121040344
v -0.0064959339797496796 0.040755435824394226 0.5283932089805603
v -0.00921548530459404 0.039542511105537415 0.5271040201187134
v -0.007805652916431427 0.037470970302820206 0.5268874168395996
v -0.009319346398115158 0.03718104586005211 0.5267927050590515
v 0.011175911873579025 0.004861927125602961 0.5687806606292725
v -0.00328897126019001 0.0020695594139397144 0.6540600657463074
v -0.0024027489125728607 -0.000311107374727726 0.6489997506141663
v -0.0010856278240680695 -0.01626959629356861 0.6514696478843689
v -0.0021698232740163803 -0.011423440650105476 0.6465811133384705
v -0.0012621060013771057 -0.01707030087709427 0.6582504510879517
v -0.002077169716358185 -0.009549299255013466 0.6660854816436768
v -0.0006113685667514801 -0.014193672686815262 0.6632972359657288
v -0.0024792365729808807 -0.005515484604984522 0.6458008289337158
v -0.0032844506204128265 0.0018509053625166416 0.6599355340003967
v -0.002595163881778717 -0.0027127466164529324 0.6654227375984192
v -0.01255277544260025 0.0024572941474616528 0.6581619381904602
v -0.012631513178348541 -0.003084286581724882 0.6644377708435059
v -0.012651219964027405 -0.00998772494494915 0.6657861471176147
v -0.0088321752846241 -0.015714937821030617 0.6622238755226135
v -0.007400393486022949 -0.018383966758847237 0.6580229997634888
v -0.009235493838787079 0.0011001876555383205 0.651382327079773
v -0.007405556738376617 -0.001604300457984209 0.6469196677207947
v -0.005936391651630402 -0.007752592209726572 0.6447736620903015
v -0.01506778597831726 -0.0014938106760382652 0.6463125348091125
v -0.02404934912919998 -0.005292289424687624 0.6478316783905029
v -0.03324007987976074 -0.02250625379383564 0.6507585644721985
v -0.027400091290473938 -0.02042355388402939 0.6539397239685059
v -0.028804130852222443 -0.018073080107569695 0.6532217264175415
v -0.034254930913448334 -0.020096564665436745 0.6508243083953857
v -0.024393334984779358 -0.016152173280715942 0.6565402746200562
v -0.025706201791763306 -0.015219081193208694 0.6547601819038391
v -0.02514488995075226 -0.010359087958931923 0.6527976989746094
v -0.030062668025493622 -0.012563733384013176 0.6502907276153564
v -0.025412321090698242 -0.007834723219275475 0.6482897996902466
v -0.02833513915538788 -0.009341979399323463 0.6453484296798706
v -0.03493833541870117 -0.01442590169608593 0.647828221321106
v -0.03787153959274292 -0.019433211535215378 0.6489541530609131
v -0.038916684687137604 -0.016226844862103462 0.6456429958343506
v -0.037624768912792206 -0.02226758748292923 0.6474305391311646
v -0.025623414665460587 -0.008038707077503204 0.6551654934883118
v -0.018284358084201813 -0.01856180839240551 0.6588133573532104
v -0.024522848427295685 -0.022652391344308853 0.6538702249526978
v -0.030781380832195282 -0.02493179403245449 0.649270236492157
v -0.03570964187383652 -0.02401280775666237 0.6453860402107239
v -0.021458372473716736 -0.02425045520067215 0.6510819792747498
v -0.027321234345436096 -0.025215035304427147 0.6465941071510315
v -0.031485140323638916 -0.023826783522963524 0.6427466869354248
v -0.018996044993400574 -0.023410627618432045 0.6468821167945862
v -0.02513428032398224 -0.023612482473254204 0.6435813903808594
v -0.008647620677947998 -0.019084151834249496 0.6511691808700562
v -0.01232815906405449 -0.020504502579569817 0.6564165353775024
v -0.02893071621656418 -0.02282227762043476 0.6418979167938232
v -0.03981136530637741 -0.0179617777466774 0.6434023976325989
v -0.03750762343406677 -0.019763987511396408 0.641128420829773
v -0.026387840509414673 -0.007674032356590033 0.643014132976532
v -0.03313671052455902 -0.010711107403039932 0.643073320388794
v -0.03151330351829529 -0.010599343106150627 0.6405002474784851
v -0.023028284311294556 -0.007445600349456072 0.6408073306083679
v -0.02966883033514023 -0.011328265070915222 0.6384491324424744
v -0.03656800836324692 -0.013547344133257866 0.6403355598449707
v -0.03678733855485916 -0.012860124930739403 0.6431455612182617
v -0.0054213013499975204 -0.017867764458060265 0.6520646810531616
v -0.004767438396811485 -0.013491399586200714 0.6472495198249817
v -0.007349751889705658 -0.014496224001049995 0.6464806199073792
v -0.017170071601867676 -0.018875235691666603 0.6421821117401123
v -0.008754778653383255 -0.009559357538819313 0.6431471109390259
v -0.011899646371603012 -0.004384826403111219 0.6435884237289429
v -0.02042922005057335 -0.009463168680667877 0.6390611529350281
v -0.017962586134672165 -0.01350848563015461 0.6393014788627625
v -0.02714565396308899 -0.01378645934164524 0.6376314759254456
v -0.025370292365550995 -0.016202230006456375 0.6382514834403992
v -0.024677470326423645 -0.020568789914250374 0.640332818031311
v -0.031465671956539154 -0.01690574176609516 0.6379960775375366
v -0.03441630303859711 -0.014866935089230537 0.6383107304573059
v -0.033097170293331146 -0.020625939592719078 0.6397875547409058
v -0.028940647840499878 -0.017854467034339905 0.6385189294815063
v -0.029454674571752548 -0.0206498634070158 0.639873206615448
v 0.013199243694543839 -0.006103749852627516 0.5757834911346436
v 0.009081296622753143 -0.006969890091568232 0.5810372233390808
v 0.01617319881916046 -0.00849083811044693 0.5820988416671753
v 0.0260651595890522 -0.009321756660938263 0.5844260454177856
v 0.036414068192243576 -0.007653846871107817 0.5813513398170471
v 0.02412833645939827 -0.008370347321033478 0.5908430814743042
v 0.014053106307983398 -0.007683477830141783 0.5881113409996033
v 0.003527304157614708 -0.005110098514705896 0.5865297317504883
v 0.03056982159614563 -0.00650332635268569 0.5989541411399841
f 2 3 1
f 1 3 4
f 5 6 8
f 8 6 7
f 9 4 10
f 10 4 3
f 12 13 11
f 11 13 9
f 14 12 16
f 16 12 15
f 18 19 17
f 17 19 20
f 22 23 21
f 21 23 24
f 26 27 25
f 25 27 28
f 30 31 29
f 29 31 32
f 33 34 36
f 36 34 35
f 37 38 40
f 40 38 39
f 41 42 6
f 6 42 43
f 6 43 7
f 7 43 44
f 45 34 46
f 46 34 33
f 48 49 47
f 47 49 50
f 52 53 51
f 51 53 54
f 56 52 55
f 55 52 51
f 58 59 57
f 57 59 60
f 61 62 4
f 4 62 1
f 64 65 63
f 63 65 66
f 68 69 67
f 67 69 70
f 72 73 71
f 71 73 74
f 76 77 75
f 75 77 78
f 53 79 54
f 54 79 80
f 82 83 81
f 81 83 84
f 85 86 52
f 52 86 53
f 57 60 87
f 87 60 88
f 89 90 43
f 43 90 44
f 43 42 89
f 89 42 91
f 40 39 92
f 92 39 93
f 94 70 64
f 64 70 69
f 13 61 9
f 9 61 4
f 25 28 69
f 69 28 95
f 96 25 68
f 68 25 69
f 98 99 97
f 97 99 100
f 101 102 104
f 104 102 103
f 106 30 105
f 105 30 29
f 51 54 107
f 107 54 108
f 54 80 108
f 108 80 109
f 111 112 110
f 110 112 113
f 115 5 114
f 114 5 116
f 115 41 5
f 5 41 6
f 36 35 111
f 111 35 117
f 35 118 117
f 117 118 119
f 34 120 35
f 35 120 118
f 34 45 120
f 120 45 121
f 125 126 124
f 124 126 127
f 128 129 14
f 14 129 130
f 33 131 46
f 46 131 132
f 133 94 63
f 63 94 64
f 134 135 137
f 137 135 136
f 139 140 138
f 138 140 141
f 77 142 78
f 78 142 143
f 144 145 20
f 20 145 146
f 148 149 147
f 147 149 72
f 151 152 150
f 150 152 153
f 82 101 83
f 83 101 104
f 101 82 155
f 155 82 154
f 156 157 58
f 58 157 59
f 158 68 147
f 147 68 67
f 159 146 15
f 15 146 16
f 68 158 96
f 96 158 160
f 129 66 130
f 130 66 65
f 162 163 161
f 161 163 164
f 166 167 165
f 165 167 168
f 170 171 169
f 169 171 172
f 174 171 173
f 173 171 170
f 176 177 175
f 175 177 178
f 180 181 179
f 179 181 24
f 182 183 21
f 21 183 184
f 81 185 82
f 82 185 154
f 186 187 188
f 188 187 144
f 158 71 160
f 160 71 189
f 190 135 157
f 157 135 59
f 169 172 139
f 139 172 140
f 147 72 158
f 158 72 71
f 192 193 191
f 191 193 194
f 167 166 49
f 49 166 195
f 196 190 50
f 50 190 157
f 197 198 200
f 200 198 199
f 21 24 182
f 182 24 181
f 146 159 20
f 20 159 17
f 182 181 81
f 81 181 185
f 201 185 180
f 180 185 181
f 202 203 83
f 83 203 84
f 205 206 204
f 204 206 85
f 207 22 184
f 184 22 21
f 179 24 208
f 208 24 23
f 208 209 179
f 179 209 205
f 209 210 205
f 205 210 206
f 212 206 211
f 211 206 210
f 179 205 180
f 180 205 204
f 213 176 88
f 88 176 214
f 86 85 212
f 212 85 206
f 193 217 218
f 217 219 218
f 218 219 220
f 219 18 220
f 220 18 17
f 19 221 20
f 20 221 144
f 222 223 225
f 225 223 224
f 175 226 176
f 176 226 214
f 227 87 214
f 214 87 88
f 220 17 228
f 228 17 159
f 134 213 60
f 60 213 88
f 138 229 151
f 151 229 152
f 193 192 210
f 210 192 211
f 230 194 218
f 218 194 193
f 231 232 228
f 228 232 230
f 233 234 91
f 91 234 89
f 235 236 93
f 93 236 92
f 230 232 234
f 234 232 237
f 47 238 48
f 48 238 239
f 240 191 235
f 235 191 236
f 5 8 116
f 116 8 241
f 242 243 189
f 189 243 160
f 244 245 98
f 98 245 99
f 156 246 47
f 47 246 238
f 76 247 77
f 77 247 248
f 250 125 249
f 249 125 124
f 252 253 251
f 251 253 254
f 111 110 36
f 36 110 255
f 256 33 255
f 255 33 36
f 257 258 154
f 154 258 155
f 63 169 133
f 133 169 139
f 66 170 63
f 63 170 169
f 173 170 129
f 129 170 66
f 129 128 173
f 173 128 259
f 128 260 259
f 259 260 261
f 213 134 262
f 262 134 137
f 263 264 186
f 186 264 187
f 112 265 113
f 113 265 266
f 11 267 268
f 234 233 230
f 230 233 194
f 153 269 70
f 70 269 67
f 175 178 165
f 165 178 141
f 150 153 94
f 94 153 70
f 271 221 270
f 270 221 207
f 269 153 272
f 272 153 152
f 121 45 109
f 109 45 108
f 47 50 156
f 156 50 157
f 57 273 58
f 58 273 274
f 145 275 260
f 260 275 261
f 276 149 143
f 143 149 78
f 148 269 75
f 75 269 272
f 207 277 270
f 270 277 278
f 195 196 49
f 49 196 50
f 59 135 60
f 60 135 134
f 83 104 202
f 202 104 279
f 149 148 78
f 78 148 75
f 247 278 248
f 248 278 277
f 183 182 84
f 84 182 81
f 48 239 281
f 281 239 282
f 227 223 283
f 283 223 222
f 223 226 224
f 224 226 168
f 281 282 224
f 224 282 225
f 165 168 175
f 175 168 226
f 264 263 138
f 138 263 229
f 14 16 128
f 128 16 260
f 220 228 218
f 218 228 230
f 87 227 284
f 284 227 283
f 260 16 145
f 145 16 146
f 244 98 258
f 258 98 155
f 58 274 156
f 156 274 246
f 107 285 51
f 51 285 55
f 243 286 160
f 160 286 96
f 234 237 89
f 89 237 90
f 46 132 107
f 107 132 285
f 253 252 249
f 249 252 250
f 286 26 96
f 96 26 25
f 106 105 287
f 287 105 288
f 272 152 289
f 289 152 229
f 138 151 139
f 139 151 133
f 183 290 161
f 161 290 162
f 291 292 277
f 277 292 293
f 151 150 133
f 133 150 94
f 262 275 177
f 177 275 187
f 144 187 145
f 145 187 275
f 273 57 284
f 284 57 87
f 174 136 190
f 190 136 135
f 111 117 112
f 112 117 38
f 117 119 38
f 38 119 123
f 112 38 265
f 265 38 37
f 287 288 254
f 254 288 251
f 228 159 231
f 231 159 15
f 223 227 226
f 226 227 214
f 147 67 148
f 148 67 269
f 224 168 281
f 281 168 167
f 199 163 200
f 200 163 162
f 45 46 108
f 108 46 107
f 281 167 48
f 48 167 49
f 161 164 291
f 291 164 292
f 38 123 39
f 293 294 277
f 277 294 248
f 284 283 296
f 296 283 295
f 284 296 273
f 273 296 297
f 274 273 298
f 298 273 297
f 246 274 299
f 299 274 298
f 283 222 295
f 295 222 300
f 222 225 300
f 300 225 301
f 301 225 302
f 302 225 282
f 303 304 300
f 300 304 295
f 306 307 305
f 305 307 308
f 309 310 308
f 308 310 305
f 308 307 312
f 312 307 311
f 313 314 312
f 312 314 315
f 311 316 312
f 312 316 313
f 317 304 311
f 311 304 316
f 315 309 312
f 312 309 308
f 318 319 321
f 321 319 320
f 319 318 309
f 309 318 310
f 311 307 317
f 317 307 306
f 306 297 317
f 317 297 296
f 306 322 297
f 297 322 298
f 305 323 306
f 306 323 322
f 323 305 324
f 324 305 310
f 304 317 295
f 295 317 296
f 318 325 310
f 310 325 324
f 323 324 326
f 326 324 327
f 324 325 327
f 327 325 328
f 326 327 329
f 329 327 330
f 329 331 326
f 326 331 332
f 333 330 328
f 328 330 327
f 323 326 322
f 322 326 332
f 322 332 298
f 298 332 299
f 325 318 334
f 334 318 321
f 313 316 335
f 335 316 304
f 335 336 313
f 313 336 314
f 304 303 335
f 335 303 337
f 336 335 338
f 338 335 337
f 336 339 314
f 314 339 340
f 246 299 238
f 238 299 341
f 239 342 282
f 282 342 302
f 342 239 341
f 341 239 238
f 341 331 342
f 342 331 343
f 331 329 343
f 343 329 344
f 342 343 302
f 302 343 345
f 341 299 331
f 331 299 332
f 346 301 345
f 345 301 302
f 346 303 301
f 301 303 300
f 347 337 346
f 346 337 303
f 347 346 348
f 348 346 345
f 349 347 350
f 350 347 348
f 343 344 345
f 345 344 348
f 344 351 348
f 348 351 350
f 337 347 338
f 338 347 349
f 353 338 352
f 352 338 349
f 352 355 354
f 354 355 356
f 352 349 355
f 355 349 350
f 352 354 353
f 353 354 334
f 353 334 339
f 339 334 321
f 339 336 353
f 353 336 338
f 329 330 344
f 344 330 351
f 356 351 333
f 333 351 330
f 356 355 351
f 351 355 350
f 354 356 328
f 328 356 333
f 328 325 354
f 354 325 334
f 309 315 319
f 319 315 320
f 320 340 321
f 321 340 339
f 320 315 340
f 340 315 314
f 137 136 261
f 261 136 259
f 140 166 141
f 141 166 165
f 172 171 195
f 195 171 196
f 171 174 196
f 196 174 190
f 178 177 264
f 264 177 187
f 172 195 140
f 140 195 166
f 137 261 262
f 262 261 275
f 178 264 141
f 141 264 138
f 262 177 213
f 213 177 176
f 136 174 259
f 259 174 173
f 358 359 357
f 357 359 360
f 362 363 361
f 361 363 364
f 361 364 365
f 365 364 366
f 367 368 370
f 370 368 369
f 76 371 247
f 247 371 372
f 373 374 362
f 362 374 363
f 376 377 375
f 375 377 378
f 289 229 380
f 380 229 379
f 381 379 263
f 263 379 229
f 383 384 382
f 382 384 385
f 386 368 374
f 374 368 363
f 76 289 371
f 371 289 380
f 377 376 359
f 359 376 387
f 388 386 360
f 360 386 374
f 389 383 366
f 366 383 390
f 392 393 391
f 391 393 394
f 383 382 390
f 390 382 395
f 396 365 390
f 390 365 366
f 389 366 367
f 367 366 364
f 357 397 358
f 358 397 398
f 373 399 357
f 357 399 397
f 389 367 400
f 400 367 370
f 382 385 375
f 375 385 372
f 357 360 373
f 373 360 374
f 361 401 362
f 362 401 402
f 387 388 359
f 359 388 360
f 363 368 364
f 364 368 367
f 358 398 403
f 403 398 404
f 396 392 405
f 405 392 391
f 392 395 393
f 393 395 378
f 393 403 394
f 394 403 404
f 375 378 382
f 382 378 395
f 365 396 406
f 406 396 405
f 362 402 373
f 373 402 399
f 271 270 400
f 400 270 384
f 401 361 406
f 406 361 365
f 381 369 386
f 386 369 368
f 392 396 395
f 395 396 390
f 393 378 403
f 403 378 377
f 403 377 358
f 358 377 359
f 406 405 408
f 408 405 407
f 406 408 401
f 401 408 409
f 401 409 402
f 402 409 410
f 402 410 399
f 399 410 411
f 405 391 407
f 407 391 412
f 391 394 412
f 412 394 413
f 394 404 413
f 413 404 414
f 415 416 412
f 412 416 407
f 418 419 417
f 417 419 420
f 421 422 418
f 418 422 419
f 419 422 424
f 424 422 423
f 425 426 424
f 424 426 427
f 423 428 424
f 424 428 425
f 427 420 424
f 424 420 419
f 420 429 417
f 417 429 430
f 423 422 431
f 431 422 421
f 421 409 431
f 431 409 408
f 421 432 409
f 409 432 410
f 418 433 421
f 421 433 432
f 434 433 417
f 417 433 418
f 431 416 423
f 423 416 428
f 416 431 407
f 407 431 408
f 435 434 430
f 430 434 417
f 433 434 436
f 436 434 437
f 434 435 437
f 437 435 438
f 436 437 439
f 439 437 440
f 439 441 436
f 436 441 442
f 438 443 437
f 437 443 440
f 436 442 433
f 433 442 432
f 432 442 410
f 410 442 411
f 435 430 445
f 445 430 444
f 430 429 444
f 444 429 446
f 425 428 447
f 447 428 416
f 426 425 448
f 448 425 447
f 416 415 447
f 447 415 449
f 447 449 448
f 448 449 450
f 451 452 448
f 448 452 426
f 446 452 444
f 444 452 451
f 399 411 397
f 397 411 453
f 398 454 404
f 404 454 414
f 454 398 453
f 453 398 397
f 453 441 454
f 454 441 455
f 441 439 455
f 455 439 456
f 454 455 414
f 414 455 457
f 441 453 442
f 442 453 411
f 458 413 457
f 457 413 414
f 458 415 413
f 413 415 412
f 458 459 415
f 415 459 449
f 459 458 460
f 460 458 457
f 461 459 462
f 462 459 460
f 455 456 457
f 457 456 460
f 456 463 460
f 460 463 462
f 459 461 449
f 449 461 450
f 465 450 464
f 464 450 461
f 464 467 466
f 466 467 468
f 464 461 467
f 467 461 462
f 464 466 465
f 465 466 445
f 465 445 451
f 451 445 444
f 451 448 465
f 465 448 450
f 439 440 456
f 456 440 463
f 468 463 443
f 443 463 440
f 468 467 463
f 463 467 462
f 466 468 438
f 438 468 443
f 438 435 466
f 466 435 445
f 420 427 429
f 429 427 446
f 446 427 452
f 452 427 426
f 370 369 188
f 188 369 186
f 371 376 372
f 372 376 375
f 380 379 387
f 387 379 388
f 379 381 388
f 388 381 386
f 385 384 278
f 278 384 270
f 380 387 371
f 371 387 376
f 400 370 271
f 271 370 188
f 385 278 372
f 372 278 247
f 400 384 389
f 389 384 383
f 369 381 186
f 186 381 263
f 221 271 144
f 144 271 188
f 221 19 207
f 207 19 22
f 19 18 22
f 22 18 23
f 18 219 23
f 23 219 208
f 469 470 472
f 472 470 471
f 474 475 473
f 473 475 476
f 473 476 477
f 477 476 478
f 480 481 479
f 479 481 482
f 483 484 474
f 474 484 475
f 486 487 485
f 485 487 488
f 489 490 77
f 77 490 142
f 491 489 248
f 248 489 77
f 493 494 492
f 492 494 495
f 496 480 484
f 484 480 475
f 486 497 487
f 487 497 471
f 498 496 472
f 472 496 484
f 499 493 478
f 478 493 500
f 501 502 504
f 504 502 503
f 493 492 500
f 500 492 505
f 506 477 500
f 500 477 478
f 499 478 479
f 479 478 476
f 469 507 470
f 470 507 508
f 483 509 469
f 469 509 507
f 479 482 499
f 499 482 510
f 492 495 485
f 485 495 511
f 483 469 484
f 484 469 472
f 473 512 474
f 474 512 513
f 497 498 471
f 471 498 472
f 475 480 476
f 476 480 479
f 470 508 514
f 514 508 515
f 506 502 516
f 516 502 501
f 503 502 488
f 488 502 505
f 514 515 503
f 503 515 504
f 485 488 492
f 492 488 505
f 477 506 517
f 517 506 516
f 474 513 483
f 483 513 509
f 510 292 494
f 494 292 164
f 512 473 517
f 517 473 477
f 491 481 496
f 496 481 480
f 502 506 505
f 505 506 500
f 503 488 514
f 514 488 487
f 514 487 470
f 470 487 471
f 517 516 519
f 519 516 518
f 517 519 512
f 512 519 520
f 512 520 513
f 513 520 521
f 513 521 509
f 509 521 522
f 516 501 518
f 518 501 523
f 501 504 523
f 523 504 524
f 524 504 525
f 525 504 515
f 526 527 523
f 523 527 518
f 529 530 528
f 528 530 531
f 532 533 529
f 529 533 530
f 530 533 535
f 535 533 534
f 536 537 535
f 535 537 538
f 534 539 535
f 535 539 536
f 538 531 535
f 535 531 530
f 540 541 531
f 531 541 528
f 533 532 534
f 534 532 542
f 532 520 542
f 542 520 519
f 532 543 520
f 520 543 521
f 529 544 532
f 532 544 543
f 544 529 545
f 545 529 528
f 534 542 539
f 539 542 527
f 527 542 518
f 518 542 519
f 541 546 528
f 528 546 545
f 547 544 548
f 548 544 545
f 546 549 545
f 545 549 548
f 550 547 551
f 551 547 548
f 547 550 553
f 553 550 552
f 549 554 548
f 548 554 551
f 544 547 543
f 543 547 553
f 543 553 521
f 521 553 522
f 546 541 556
f 556 541 555
f 541 540 555
f 555 540 557
f 536 539 558
f 558 539 527
f 537 536 559
f 559 536 558
f 527 526 558
f 558 526 560
f 559 558 561
f 561 558 560
f 559 562 537
f 537 562 563
f 557 563 555
f 555 563 562
f 509 522 507
f 507 522 564
f 508 565 515
f 515 565 525
f 565 508 564
f 564 508 507
f 564 552 565
f 565 552 566
f 552 550 566
f 566 550 567
f 565 566 525
f 525 566 568
f 564 522 552
f 552 522 553
f 569 524 568
f 568 524 525
f 569 526 524
f 524 526 523
f 570 560 569
f 569 560 526
f 570 569 571
f 571 569 568
f 572 570 573
f 573 570 571
f 566 567 568
f 568 567 571
f 567 574 571
f 571 574 573
f 570 572 560
f 560 572 561
f 576 561 575
f 575 561 572
f 575 578 577
f 577 578 579
f 575 572 578
f 578 572 573
f 575 577 576
f 576 577 556
f 576 556 562
f 562 556 555
f 562 559 576
f 576 559 561
f 550 551 567
f 567 551 574
f 579 574 554
f 554 574 551
f 579 578 574
f 574 578 573
f 579 554 577
f 577 554 549
f 549 546 577
f 577 546 556
f 531 538 540
f 540 538 557
f 557 538 563
f 563 538 537
f 481 294 482
f 482 294 293
f 580 486 511
f 511 486 485
f 490 489 497
f 497 489 498
f 489 491 498
f 498 491 496
f 163 495 164
f 164 495 494
f 580 490 486
f 486 490 497
f 482 293 510
f 510 293 292
f 495 163 511
f 511 163 199
f 494 493 510
f 510 493 499
f 481 491 294
f 294 491 248
f 582 583 581
f 581 583 584
f 586 587 585
f 585 587 588
f 585 588 589
f 589 588 590
f 592 593 591
f 591 593 594
f 595 596 598
f 598 596 597
f 599 600 586
f 586 600 587
f 601 602 604
f 604 602 603
f 605 606 608
f 608 606 607
f 609 607 200
f 200 607 606
f 610 611 613
f 613 611 612
f 600 614 587
f 587 614 592
f 596 605 597
f 597 605 608
f 602 615 603
f 603 615 583
f 616 614 584
f 584 614 600
f 611 618 617
f 617 618 590
f 620 621 619
f 619 621 622
f 610 623 611
f 611 623 618
f 624 589 618
f 618 589 590
f 617 590 591
f 591 590 588
f 581 625 582
f 582 625 626
f 599 627 581
f 581 627 625
f 591 594 617
f 617 594 628
f 601 610 598
f 598 610 613
f 581 584 599
f 599 584 600
f 585 629 586
f 586 629 630
f 615 616 583
f 583 616 584
f 587 592 588
f 588 592 591
f 582 626 631
f 631 626 632
f 624 620 633
f 633 620 619
f 621 620 604
f 604 620 623
f 631 632 621
f 621 632 622
f 610 601 623
f 623 601 604
f 589 624 634
f 634 624 633
f 586 630 599
f 599 630 627
f 203 202 628
f 628 202 612
f 629 585 634
f 634 585 589
f 609 593 614
f 614 593 592
f 620 624 623
f 623 624 618
f 631 621 603
f 603 621 604
f 582 631 583
f 583 631 603
f 634 633 636
f 636 633 635
f 634 636 629
f 629 636 637
f 629 637 630
f 630 637 638
f 630 638 627
f 627 638 639
f 633 619 635
f 635 619 640
f 619 622 640
f 640 622 641
f 641 622 642
f 642 622 632
f 644 635 643
f 643 635 640
f 645 646 648
f 648 646 647
f 649 650 646
f 646 650 647
f 647 650 652
f 652 650 651
f 652 653 655
f 655 653 654
f 651 656 652
f 652 656 653
f 655 648 652
f 652 648 647
f 648 657 645
f 645 657 658
f 650 649 651
f 651 649 659
f 649 637 659
f 659 637 636
f 649 660 637
f 637 660 638
f 661 660 646
f 646 660 649
f 662 661 645
f 645 661 646
f 651 659 656
f 656 659 644
f 644 659 635
f 635 659 636
f 663 662 658
f 658 662 645
f 664 661 665
f 665 661 662
f 663 666 662
f 662 666 665
f 667 664 668
f 668 664 665
f 664 667 670
f 670 667 669
f 666 671 665
f 665 671 668
f 661 664 660
f 660 664 670
f 660 670 638
f 638 670 639
f 658 672 663
f 663 672 673
f 658 657 672
f 672 657 674
f 653 656 675
f 675 656 644
f 653 675 654
f 654 675 676
f 675 644 677
f 677 644 643
f 676 675 678
f 678 675 677
f 679 680 676
f 676 680 654
f 674 680 672
f 672 680 679
f 627 639 625
f 625 639 681
f 626 682 632
f 632 682 642
f 681 682 625
f 625 682 626
f 669 683 681
f 681 683 682
f 667 684 669
f 669 684 683
f 682 683 642
f 642 683 685
f 681 639 669
f 669 639 670
f 686 641 685
f 685 641 642
f 641 686 640
f 640 686 643
f 686 687 643
f 643 687 677
f 687 686 688
f 688 686 685
f 689 687 690
f 690 687 688
f 683 684 685
f 685 684 688
f 684 691 688
f 688 691 690
f 687 689 677
f 677 689 678
f 693 678 692
f 692 678 689
f 692 695 694
f 694 695 696
f 692 689 695
f 695 689 690
f 692 694 693
f 693 694 673
f 693 673 679
f 679 673 672
f 679 676 693
f 693 676 678
f 684 667 691
f 691 667 668
f 696 691 671
f 671 691 668
f 696 695 691
f 691 695 690
f 694 696 666
f 666 696 671
f 666 663 694
f 694 663 673
f 648 655 657
f 657 655 674
f 674 655 680
f 680 655 654
f 593 162 594
f 594 162 290
f 598 597 601
f 601 597 602
f 615 608 616
f 616 608 607
f 607 609 616
f 616 609 614
f 697 595 613
f 613 595 598
f 597 608 602
f 602 608 615
f 594 290 628
f 628 290 203
f 628 612 617
f 617 612 611
f 593 609 162
f 162 609 200
f 105 29 698
f 698 29 699
f 268 126 701
f 701 126 700
f 126 125 700
f 700 125 702
f 252 703 250
f 250 703 704
f 32 268 705
f 705 268 701
f 288 105 706
f 706 105 698
f 29 32 699
f 699 32 705
f 707 251 706
f 706 251 288
f 250 704 125
f 125 704 702
f 703 252 707
f 707 252 251
f 706 708 707
f 707 708 709
f 707 709 703
f 703 709 710
f 703 710 704
f 704 710 711
f 704 711 702
f 702 711 712
f 706 698 708
f 708 698 713
f 698 699 713
f 713 699 714
f 699 705 714
f 714 705 715
f 717 708 716
f 716 708 713
f 719 720 718
f 718 720 721
f 722 723 719
f 719 723 720
f 724 725 723
f 723 725 720
f 724 726 725
f 725 726 727
f 728 721 725
f 725 721 720
f 721 728 729
f 729 728 730
f 729 731 721
f 721 731 718
f 724 723 732
f 732 723 722
f 722 710 732
f 732 710 709
f 722 733 710
f 710 733 711
f 719 734 722
f 722 734 733
f 734 719 735
f 735 719 718
f 724 732 726
f 726 732 717
f 717 732 708
f 708 732 709
f 731 736 718
f 718 736 735
f 737 734 738
f 738 734 735
f 736 739 735
f 735 739 738
f 740 737 741
f 741 737 738
f 737 740 743
f 743 740 742
f 739 744 738
f 738 744 741
f 734 737 733
f 733 737 743
f 733 743 711
f 711 743 712
f 736 731 746
f 746 731 745
f 731 729 745
f 745 729 730
f 727 726 747
f 747 726 717
f 748 727 749
f 749 727 747
f 747 717 750
f 750 717 716
f 749 747 751
f 751 747 750
f 749 752 748
f 748 752 753
f 730 753 745
f 745 753 752
f 728 725 748
f 748 725 727
f 730 728 753
f 753 728 748
f 700 702 754
f 754 702 712
f 705 701 715
f 715 701 755
f 754 755 700
f 700 755 701
f 742 756 754
f 754 756 755
f 740 757 742
f 742 757 756
f 755 756 715
f 715 756 758
f 754 712 742
f 742 712 743
f 759 714 758
f 758 714 715
f 714 759 713
f 713 759 716
f 759 760 716
f 716 760 750
f 760 759 761
f 761 759 758
f 762 760 763
f 763 760 761
f 756 757 758
f 758 757 761
f 757 764 761
f 761 764 763
f 760 762 750
f 750 762 751
f 766 751 765
f 765 751 762
f 767 765 769
f 769 765 768
f 765 762 768
f 768 762 763
f 765 767 766
f 766 767 746
f 766 746 752
f 752 746 745
f 752 749 766
f 766 749 751
f 757 740 764
f 764 740 741
f 769 764 744
f 744 764 741
f 769 768 764
f 764 768 763
f 767 769 739
f 739 769 744
f 739 736 767
f 767 736 746
f 219 217 208
f 208 217 209
f 209 217 210
f 210 217 193
f 198 580 199
f 199 580 511
f 76 75 289
f 289 75 272
f 277 207 291
f 291 207 184
f 290 183 203
f 203 183 84
f 490 580 142
f 142 580 198
f 142 198 143
f 143 198 197
f 149 276 72
f 72 276 73
f 104 103 279
f 279 103 770
f 770 596 279
f 279 596 595
f 605 596 771
f 771 596 770
f 771 770 772
f 772 770 103
f 772 103 773
f 773 103 102
f 155 774 101
f 101 774 102
f 773 102 97
f 97 102 774
f 775 773 100
f 100 773 97
f 773 775 772
f 772 775 776
f 772 776 771
f 771 776 777
f 200 606 197
f 197 606 777
f 189 71 778
f 778 71 74
f 97 774 98
f 98 774 155
f 183 161 184
f 184 161 291
f 777 276 197
f 197 276 143
f 777 606 771
f 771 606 605
f 613 612 697
f 697 612 202
f 595 697 279
f 279 697 202
f 73 276 776
f 776 276 777
f 776 775 73
f 73 775 74
f 100 778 775
f 775 778 74
f 778 100 189
f 189 100 99
f 245 242 99
f 99 242 189
f 131 33 256
f 28 1 95
f 95 1 62
f 27 2 28
f 28 2 1
f 265 115 266
f 266 115 114
f 95 62 69
f 69 62 64
f 62 61 64
f 64 61 65
f 61 13 65
f 65 13 130
f 13 12 130
f 130 12 14
f 31 11 32
f 32 11 268
f 15 12 31
f 31 12 11
f 31 30 15
f 15 30 231
f 30 106 231
f 231 106 232
f 287 237 106
f 106 237 232
f 254 90 287
f 287 90 237
f 253 44 254
f 254 44 90
f 253 249 44
f 44 249 7
f 267 127 268
f 268 127 126
f 10 3 241
f 241 3 116
f 3 2 116
f 116 2 114
f 2 27 114
f 114 27 266
f 27 26 266
f 266 26 113
f 26 286 113
f 113 286 110
f 286 243 110
f 110 243 255
f 243 242 255
f 255 242 256
f 242 245 256
f 256 245 131
f 245 244 131
f 131 244 132
f 265 37 115
f 115 37 41
f 41 37 42
f 42 37 40
f 92 91 40
f 40 91 42
f 236 233 92
f 92 233 91
f 191 194 236
f 236 194 233
f 258 285 244
f 244 285 132
f 257 55 258
f 258 55 285
f 257 154 201
f 201 154 185
f 56 201 204
f 204 201 180
f 55 257 56
f 56 257 201
f 204 85 56
f 56 85 52
f 86 122 53
f 53 122 79
f 212 215 86
f 86 215 122
f 211 216 212
f 212 216 215
f 192 280 211
f 211 280 216
f 191 240 192
f 192 240 280
f 249 124 7
f 7 124 8
f 124 127 8
f 8 127 241
f 127 267 241
f 241 267 10
f 10 267 9
f 9 267 11
