v 0.015409212559461594 -0.008820269256830215 0.7148637771606445
v 0.02681729570031166 -0.013018195517361164 0.7148704528808594
v 0.018919028341770172 -0.015730585902929306 0.7221269607543945
v 0.009602651000022888 -0.011880374513566494 0.7215985059738159
v 0.03681322932243347 -0.019555851817131042 0.7337507009506226
v 0.04289782792329788 -0.014333118684589863 0.7420665621757507
v 0.02579411119222641 -0.01341641042381525 0.7457842230796814
v 0.02278793230652809 -0.01853109523653984 0.7381846904754639
v 0.004052326083183289 -0.010565881617367268 0.7265995740890503
v 0.011531040072441101 -0.015847988426685333 0.7270795106887817
v 0.003017932176589966 -0.003082401817664504 0.7280608415603638
v -0.004052169620990753 0.0034154148306697607 0.730760395526886
v -0.003453413024544716 -0.004067554138600826 0.7287869453430176
v -0.01148257777094841 0.006666954141110182 0.7308858036994934
v 0.002664383500814438 0.012882689945399761 0.7308407425880432
v -0.00930284708738327 0.014642687514424324 0.726810872554779
v 0.010481901466846466 0.025116417557001114 0.711155891418457
v 0.013988375663757324 0.025916798040270805 0.6989549994468689
v -0.0013412963598966599 0.02361716702580452 0.6973957419395447
v -0.0036322418600320816 0.022479325532913208 0.7103495597839355
v 0.009066935628652573 0.020215952768921852 0.6803119778633118
v 0.0023983679711818695 0.022159351035952568 0.6892662048339844
v 0.017872482538223267 0.025615552440285683 0.6910772919654846
v 0.02318047359585762 0.0234058890491724 0.6827424764633179
v 0.02346651256084442 -0.0044960519298911095 0.7025904059410095
v 0.03470175713300705 -0.006607833318412304 0.7015998959541321
v 0.03258609026670456 -0.008594091050326824 0.7061834931373596
v 0.02155766636133194 -0.005671456456184387 0.7071740031242371
v 0.004939276725053787 0.005518092308193445 0.7339703440666199
v 0.011793926358222961 0.008763076737523079 0.7364232540130615
v 0.0060280561447143555 0.005184737965464592 0.7318588495254517
v 0.0029464438557624817 0.0008468527812510729 0.7311363220214844
v 0.0603785514831543 -0.012512491084635258 0.6935280561447144
v 0.07222677022218704 -0.006748847663402557 0.6958034038543701
v 0.07155770808458328 -0.006341578438878059 0.7016882300376892
v 0.06092194467782974 -0.011482187546789646 0.6983245015144348
v 0.06388945877552032 -0.0099226338788867 0.7270376682281494
v 0.07096367329359055 -0.004129817709326744 0.7207741737365723
v 0.07508134096860886 0.005390544421970844 0.7297654747962952
v 0.06650956720113754 0.003450244665145874 0.7344232797622681
v 0.0542643666267395 -0.01346499938517809 0.7357348799705505
v 0.05759470909833908 -0.0020853544119745493 0.7410907745361328
v 0.04446189105510712 -0.0037065844517201185 0.7464325428009033
v 0.026979681104421616 -0.004584434442222118 0.7488405704498291
v 0.0737171396613121 -0.004869010299444199 0.6832382678985596
v 0.06539462506771088 -0.009286394342780113 0.679791271686554
v -0.04915369674563408 0.029470844194293022 0.6979996562004089
v -0.04692121595144272 0.02594367414712906 0.6938150525093079
v -0.0472785048186779 0.020808428525924683 0.699480414390564
v -0.048928238451480865 0.025082526728510857 0.7027945518493652
v 0.06709068268537521 0.009281452745199203 0.6707636713981628
v 0.06566772609949112 0.019247595220804214 0.6715524196624756
v 0.07281218469142914 0.018127422779798508 0.6713222861289978
v 0.07434636354446411 0.008926942944526672 0.6724439859390259
v 0.057432837784290314 0.009522419422864914 0.6687182784080505
v 0.05567166209220886 0.020086929202079773 0.6724280118942261
v -0.04005362093448639 0.03651411458849907 0.7019656896591187
v -0.04507526010274887 0.035736072808504105 0.7020054459571838
v -0.04349452629685402 0.03242336958646774 0.7065543532371521
v -0.03790774941444397 0.03282087296247482 0.7059060335159302
v 7.453747093677521e-05 -0.00795429851859808 0.7239053249359131
v 0.005190815776586533 -0.007769739255309105 0.7161989212036133
v -0.023234907537698746 -0.003748533548787236 0.7238285541534424
v -0.009457524865865707 -0.005891748704016209 0.719375491142273
v -0.010203905403614044 -0.004959337413311005 0.7267190217971802
v -0.020890964195132256 -0.0012628438416868448 0.7292262315750122
v 0.000970497727394104 -0.003700954606756568 0.6975964903831482
v 0.012705687433481216 -0.003359429771080613 0.6988791227340698
v 0.009738218039274216 -0.003574328264221549 0.7045786380767822
v -0.003443347290158272 -0.0045772735029459 0.7049822807312012
v 0.0169285349547863 -0.006224961951375008 0.685705840587616
v 0.004952955991029739 -0.006047321483492851 0.6854752898216248
v 0.00846259668469429 -0.007885475642979145 0.6779466867446899
v 0.016560785472393036 -0.008444505743682384 0.6795048713684082
v -0.017484132200479507 -0.004537342116236687 0.6880776286125183
v -0.025508558377623558 -0.001470531104132533 0.6882537007331848
v -0.02346215955913067 -0.0005936322268098593 0.6845132112503052
v -0.016023175790905952 -0.0037428142968565226 0.6836196780204773
v 0.07983062416315079 0.018117060884833336 0.6715605854988098
v 0.0810701847076416 0.008987999521195889 0.6749649047851562
v 0.018444549292325974 0.013242421671748161 0.6635162234306335
v 0.02428552508354187 0.005474378354847431 0.6580621600151062
v 0.013307325541973114 0.004052265547215939 0.6544029116630554
v 0.010265592485666275 0.0121367909014225 0.6611189246177673
v 0.06253470480442047 0.026934726163744926 0.6778023838996887
v 0.0700051411986351 0.026858976110816002 0.6754908561706543
v -0.03442718833684921 0.03500355780124664 0.6995021104812622
v -0.032910365611314774 0.031807344406843185 0.7022059559822083
v 0.045298025012016296 0.007744070142507553 0.743452787399292
v 0.027501344680786133 0.004355414304882288 0.7469018697738647
v 0.058085016906261444 0.010942945256829262 0.7381383180618286
v 0.06632424890995026 0.014466719701886177 0.733119547367096
v 0.07424455881118774 0.016842810437083244 0.7314327955245972
v -0.013459144160151482 -0.006385155953466892 0.7138815522193909
v 0.011559911072254181 -0.005509659647941589 0.7098066210746765
v 0.025082312524318695 -0.004552497528493404 0.6980611085891724
v 0.02971203252673149 -0.012537605129182339 0.6689367294311523
v 0.04034668207168579 -0.012752716429531574 0.6707098484039307
v 0.0346219465136528 -0.012817989103496075 0.6795793771743774
v 0.02648388221859932 -0.011952103115618229 0.6761099696159363
v 0.02451736479997635 -0.004036731086671352 0.6569535732269287
v 0.02118215337395668 -0.009898520074784756 0.6612628698348999
v 0.011059440672397614 -0.009594129398465157 0.6588094234466553
v 0.013804782181978226 -0.004333040677011013 0.6542634963989258
v 0.006703536957502365 0.008524896577000618 0.7402116060256958
v 0.01733580231666565 0.011121499352157116 0.7404298186302185
v 0.06783861666917801 -0.0007719032000750303 0.6735838055610657
v 0.07445839792490005 0.0001157855149358511 0.6773708462715149
v 0.08204616606235504 0.002805120777338743 0.6795540452003479
v 0.04788929224014282 -0.010812850669026375 0.6991396546363831
v 0.06141439080238342 -0.011108814738690853 0.7019459009170532
v 0.060557782649993896 -0.012282195501029491 0.7072630524635315
v 0.04744531214237213 -0.011099973693490028 0.7022674679756165
v 0.038281410932540894 -0.018438350409269333 0.7184739708900452
v 0.05028991401195526 -0.018349774181842804 0.7238706946372986
v 0.027025602757930756 -0.02023370936512947 0.7261375188827515
v 0.07247313112020493 -0.0056456271559000015 0.7101479768753052
v 0.08125948905944824 -0.004213687963783741 0.7035532593727112
v 0.08083917945623398 -0.0025713166687637568 0.7123754024505615
v 0.0822063535451889 -0.0034383966121822596 0.693848192691803
v 0.08252715319395065 -0.0012703423853963614 0.6852217316627502
v 0.07781485468149185 0.029669780284166336 0.673883855342865
v 0.07933171093463898 0.0006465506739914417 0.7201417684555054
v 0.013680167496204376 -0.016331207007169724 0.7391352653503418
v 0.005394011735916138 -0.013619705103337765 0.7396504878997803
v 0.0037283822894096375 -0.011686285957694054 0.7323809862136841
v 0.010513097047805786 -0.01487805601209402 0.7315760254859924
v -0.020159151405096054 0.011920808814466 0.7293316125869751
v -0.021767407655715942 0.0048415204510092735 0.7311716675758362
v -0.010151872411370277 -0.0004556307103484869 0.7316672801971436
v 0.05080478638410568 -0.013535420410335064 0.6871781349182129
v 0.0555759072303772 -0.011109437793493271 0.675865113735199
v -0.026083070784807205 -0.0033357262145727873 0.7177380919456482
v -0.03406315669417381 0.031602729111909866 0.7073661684989929
v -0.0391659252345562 0.030376829206943512 0.7102496027946472
v -0.029224146157503128 0.021789751946926117 0.7196998596191406
v -0.02497664839029312 0.024148937314748764 0.7154870629310608
v -0.030580859631299973 0.0043854303658008575 0.7097910046577454
v -0.030629713088274002 0.0015936766285449266 0.7151211500167847
v -0.03192693367600441 0.0051531074568629265 0.7119380831718445
v -0.030689531937241554 0.0067421384155750275 0.705894947052002
v -0.02035721205174923 -0.0002930301707237959 0.675912082195282
v -0.012856114655733109 -0.0039457352831959724 0.675354540348053
v -0.017992928624153137 0.01693500578403473 0.709057092666626
v -0.014488022774457932 0.018821917474269867 0.72030109167099
v -0.0053989458829164505 0.020631443709135056 0.7193616032600403
v 0.004066884517669678 -0.004557116888463497 0.6908625960350037
v -0.006729016080498695 -0.005120048299431801 0.6887814998626709
v -0.00569486990571022 -0.00539377611130476 0.6845054626464844
v -0.01684776321053505 -0.005518866702914238 0.7102545499801636
v -0.026263080537319183 -0.003171400399878621 0.7117605209350586
v -0.022294681519269943 -0.0032929431181401014 0.7064257860183716
v -0.013100069016218185 -0.004457937553524971 0.7047728896141052
v 0.03640326112508774 0.00807180255651474 0.6613867878913879
v 0.03716374188661575 -0.003267235355451703 0.6597835421562195
v -0.0483841598033905 0.03308282420039177 0.7008482813835144
v -0.04739385098218918 0.02907843515276909 0.7057533860206604
v 0.015505976974964142 -0.004165493883192539 0.692261815071106
v 0.007908742874860764 0.021583950147032738 0.7195573449134827
v 0.026885882019996643 -0.005293726921081543 0.6930124163627625
v -0.006112735718488693 0.011912626214325428 0.6691337823867798
v -0.007763484492897987 0.007660992443561554 0.6661869287490845
v -0.015158966183662415 0.009454511106014252 0.6685025691986084
v -0.012779943645000458 0.013296068646013737 0.6704568862915039
v -0.03644423186779022 0.016126010566949844 0.6956319808959961
v -0.041475966572761536 0.015780054032802582 0.6988025903701782
v -0.04341977834701538 0.0181572288274765 0.6951747536659241
v -0.03826428949832916 0.018153509125113487 0.6931535601615906
v -0.0309208445250988 0.003021296812221408 0.7206091284751892
v -0.029306137934327126 0.0055283959954977036 0.7263367176055908
v -0.03442336246371269 0.011102648451924324 0.7204598188400269
v -0.033857181668281555 0.007671008817851543 0.7159121036529541
v -0.028138045221567154 0.012020766735076904 0.7268167734146118
v -0.03249938040971756 0.01689811795949936 0.7215437293052673
v -0.030975140631198883 0.020141340792179108 0.6958235502243042
v -0.027460552752017975 0.02639828622341156 0.6993142366409302
v -0.021232351660728455 0.018664119765162468 0.7048977613449097
v -0.026664916425943375 0.01284943986684084 0.7027379870414734
v 0.03720918297767639 0.02674930728971958 0.6851514577865601
v 0.04096847027540207 0.022826384752988815 0.6755667328834534
v 0.027139849960803986 0.019399521872401237 0.6729509830474854
v 0.014162231236696243 0.016682010143995285 0.6699239015579224
v 0.0013604052364826202 0.012751168571412563 0.6680105924606323
v -0.0020513683557510376 0.01767044886946678 0.6772733330726624
v 0.03105190023779869 0.016183534637093544 0.6667925119400024
v -0.029406128451228142 0.011663662269711494 0.7065775394439697
v -0.021161220967769623 0.014775645919144154 0.7117827534675598
v -0.024683896452188492 0.015582741238176823 0.7076037526130676
v 0.02842215821146965 -0.008025387302041054 0.6863246560096741
v -0.04267788678407669 0.027155030518770218 0.710578203201294
v 0.06314931809902191 0.030742119997739792 0.7197360992431641
v 0.06315992772579193 0.034592155367136 0.7073969841003418
v 0.05477624386548996 0.03258303552865982 0.7089782357215881
v 0.054676130414009094 0.027772938832640648 0.7220943570137024
v -0.044942330569028854 0.017843641340732574 0.7044284343719482
v -0.04558233171701431 0.02224099636077881 0.708535373210907
v -0.012413227930665016 -0.0026256239507347345 0.668911874294281
v -0.019281910732388496 0.0017364055383950472 0.670936644077301
v -0.020163869485259056 0.005347111262381077 0.6693859696388245
v -0.013908779248595238 0.0004952389281243086 0.6641975045204163
v 0.0441792830824852 0.020252585411071777 0.6714326739311218
v 0.007211275398731232 0.0036174734123051167 0.6528279781341553
v 0.0057407282292842865 0.0112202949821949 0.6588041186332703
v 0.05318966507911682 0.025862757116556168 0.6783074736595154
v 0.05000802129507065 0.029844732955098152 0.6865630745887756
v 0.059439703822135925 0.031865864992141724 0.6870200037956238
v -0.012286478653550148 0.01700056716799736 0.6883386373519897
v 0.03252158313989639 0.028345324099063873 0.6922079920768738
v 0.04655708372592926 0.030808689072728157 0.6932865977287292
v 0.05771104246377945 0.03322921320796013 0.6941607594490051
v 0.06572389602661133 0.03545290604233742 0.6940514445304871
v 0.06685270369052887 0.03350584954023361 0.6862430572509766
v -0.02976362779736519 0.02967359684407711 0.7030473351478577
v -0.03011889010667801 0.027934374287724495 0.6983609795570374
v 0.0751456543803215 0.03684519603848457 0.684790849685669
v 0.0736488327383995 0.03827305883169174 0.6938062310218811
v 0.04340910166501999 0.031034350395202637 0.7019237875938416
v 0.0401822105050087 0.02998986840248108 0.7117847204208374
v 0.0299433134496212 0.028506847098469734 0.7004082798957825
v 0.025476310402154922 0.02740880288183689 0.7102954387664795
v -0.011568412184715271 0.021555906161665916 0.6983748078346252
v -0.03322911635041237 0.035386309027671814 0.6843181252479553
v -0.03201959282159805 0.027049511671066284 0.691512405872345
v -0.036599140614271164 0.02361072227358818 0.6892766356468201
v -0.03519958630204201 0.03204788640141487 0.6822254061698914
v -0.033277444541454315 0.021768774837255478 0.6945311427116394
v -0.03079395554959774 0.03124319761991501 0.6955378651618958
v 0.023003607988357544 0.022744562476873398 0.7213001251220703
v -0.03166697546839714 0.001920898910611868 0.7059502005577087
v 0.03931669145822525 0.02309092879295349 0.7248303294181824
v 0.01565999537706375 0.017123619094491005 0.7321130633354187
v 0.02751101925969124 0.016112273558974266 0.7350741028785706
v 0.05543065816164017 0.02198183909058571 0.7312880158424377
v 0.04271123558282852 0.016966253519058228 0.7375817894935608
v 0.07185523957014084 0.02604728937149048 0.7271293997764587
v 0.06340037286281586 0.024420149624347687 0.7283534407615662
v 0.030274011194705963 0.012145334854722023 0.7419679760932922
v -0.048855483531951904 0.03376273438334465 0.6872657537460327
v -0.0453154630959034 0.030049379914999008 0.684492826461792
v 0.07104354351758957 0.03311380743980408 0.7189469933509827
v 0.017048433423042297 -0.01824851520359516 0.7301610112190247
v 0.038713954389095306 -0.009866212494671345 0.689603328704834
v 0.037152260541915894 -0.007778988219797611 0.6943718791007996
v 0.04653039574623108 -0.01232475508004427 0.6724843978881836
v 0.04178454726934433 -0.01304811891168356 0.6830734610557556
v -0.0492197647690773 0.038091834634542465 0.6903263330459595
v -0.02623954974114895 0.0037186825647950172 0.6876000165939331
v -0.021916979923844337 0.0029126291628926992 0.6870158910751343
v 0.016056224703788757 -0.012252219952642918 0.7461685538291931
v 0.007950201630592346 -0.01098843663930893 0.7463618516921997
v 0.007123250514268875 0.001891319639980793 0.7488521933555603
v 0.007451493293046951 -0.0051642488688230515 0.7499508261680603
v 0.016994431614875793 -0.00435667484998703 0.7494263052940369
v 0.01697627454996109 0.003245481289923191 0.7478905916213989
v 0.04789800941944122 -0.010989462025463581 0.6965716481208801
v 0.04823168367147446 -0.011728310026228428 0.6928215622901917
v 0.04763437807559967 0.008664017543196678 0.6650349497795105
v 0.04782094061374664 -0.002718218369409442 0.6638021469116211
v -0.024962913244962692 0.016288120299577713 0.7247664332389832
v -0.017503125593066216 0.016648102551698685 0.7255899310112
v -0.020988978445529938 0.019139055162668228 0.7202490568161011
v -0.020770497620105743 0.022356560453772545 0.7107961773872375
v -0.03288763761520386 0.0077819498255848885 0.7049090266227722
v -0.026538025587797165 0.008959581144154072 0.7080453634262085
v 0.05594455450773239 -0.015536290593445301 0.7144894599914551
v 0.04468633234500885 -0.01402855571359396 0.7088865637779236
v 0.007126498967409134 -0.011584291234612465 0.729097843170166
v 0.0026179999113082886 -0.006408045068383217 0.729079008102417
v -0.008571265265345573 -0.0044557200744748116 0.6979274153709412
v -0.01873311772942543 0.016263114288449287 0.6909459233283997
v -0.019068695604801178 0.021403970196843147 0.6983352303504944
v -0.018981218338012695 -0.0036172845866531134 0.6978434920310974
v -0.0426148995757103 0.04295476898550987 0.6916748881340027
v -0.047237999737262726 0.04101686552166939 0.6914031505584717
v -0.018493974581360817 0.01870352029800415 0.7162301540374756
v -0.0031366441398859024 -0.007447876967489719 0.6765302419662476
v -0.011899247765541077 0.010620169341564178 0.6854040026664734
v -0.021396378055214882 0.009982923977077007 0.688198983669281
v 0.007373131811618805 -0.0036307189147919416 0.6527271866798401
v 0.07179088890552521 0.03662215918302536 0.7069809436798096
v -0.04211367294192314 0.023500431329011917 0.6897898316383362
v -0.04075579345226288 0.028572928160429 0.682501494884491
v -0.032926399260759354 0.03847886994481087 0.6872978806495667
v -0.03613252565264702 0.041809190064668655 0.6909886002540588
v 0.05712820589542389 -0.002520792419090867 0.6690534949302673
v 0.035796746611595154 -0.006728137843310833 0.6974421739578247
v 0.01930086314678192 0.009980353526771069 0.7432987093925476
v 0.007366448640823364 0.007315086200833321 0.7445381879806519
v -0.027522236108779907 -0.0013772936072200537 0.6974584460258484
v -0.00023609958589076996 0.010350637137889862 0.6646339297294617
v -0.007795302197337151 0.015701204538345337 0.6755869388580322
v -0.010162599384784698 0.01600562408566475 0.6776496171951294
v -0.011315843090415001 0.01322915405035019 0.6844633221626282
v -0.01690538413822651 0.008876663632690907 0.6877322196960449
v -0.03470561280846596 0.040895089507102966 0.6826143264770508
v -0.037996556609869 0.044026780873537064 0.6858735680580139
v -0.04409968852996826 0.04485827311873436 0.6863254308700562
v -0.04801800847053528 0.04296673461794853 0.6862663626670837
v -0.049620047211647034 0.039084095507860184 0.685914158821106
v -0.034359708428382874 0.0381922610104084 0.6793890595436096
v -0.0360410250723362 0.03538885340094566 0.6775950193405151
v -0.04058307409286499 0.031137900426983833 0.6791667342185974
v -0.03545152768492699 0.03978489339351654 0.6749105453491211
v -0.036570653319358826 0.04477279633283615 0.6754947304725647
v -0.048977963626384735 0.0492846742272377 0.674012303352356
v -0.045859672129154205 0.048429347574710846 0.678652286529541
v -0.04495101049542427 0.049369920045137405 0.6765205264091492
v -0.046730611473321915 0.050488997250795364 0.672179639339447
v -0.047137849032878876 0.05205926671624184 0.6674456596374512
v -0.05008517578244209 0.0509575754404068 0.668933093547821
v -0.04080424830317497 0.04776601493358612 0.6773688197135925
v -0.04251286759972572 0.049379862844944 0.6713342666625977
v -0.03941378742456436 0.04720637947320938 0.6696407198905945
v -0.04062168300151825 0.049365557730197906 0.6648950576782227
v -0.043325699865818024 0.051599081605672836 0.6662729382514954
v -0.03836466372013092 0.0465034618973732 0.6739515662193298
v -0.039939410984516144 0.04715834558010101 0.6791276335716248
v -0.04903049394488335 0.05158302187919617 0.6646645665168762
v -0.04689815267920494 0.05280832573771477 0.6647511124610901
v -0.04403899982571602 0.051994290202856064 0.6634692549705505
v -0.04565390571951866 0.05103495717048645 0.6611893773078918
v -0.049177855253219604 0.044395558536052704 0.6816098093986511
v -0.050843823701143265 0.047543399035930634 0.674015462398529
v -0.05109784007072449 0.04812748357653618 0.6681801080703735
v -0.04990731179714203 0.049049947410821915 0.6639847755432129
v -0.051337599754333496 0.0441310815513134 0.6719600558280945
v -0.05082118138670921 0.04538143426179886 0.6673646569252014
v -0.04956027865409851 0.04582061618566513 0.6636410355567932
v -0.05007660388946533 0.040865134447813034 0.6697137951850891
v -0.04952998831868172 0.04286537691950798 0.6660444140434265
v -0.04891104996204376 0.03639000654220581 0.680706799030304
v -0.050103284418582916 0.039743442088365555 0.6827117800712585
v -0.049337465316057205 0.043688055127859116 0.6635895371437073
v -0.046106841415166855 0.04905419796705246 0.6604937314987183
v -0.037561334669589996 0.04404984414577484 0.6696732044219971
v -0.040135759860277176 0.04637841135263443 0.6637883186340332
v -0.037605032324790955 0.04184850677847862 0.6689127087593079
v -0.039805926382541656 0.044144414365291595 0.662959098815918
v -0.041548892855644226 0.048710837960243225 0.660561203956604
v -0.04188842698931694 0.05023079738020897 0.6625726222991943
v -0.04838646203279495 0.03448048233985901 0.6844536662101746
v -0.04442398622632027 0.0312349870800972 0.68138188123703
v -0.04468155652284622 0.03300480917096138 0.677993893623352
v -0.046790510416030884 0.03808945417404175 0.6677890419960022
v -0.04087912291288376 0.03293908014893532 0.675610363483429
v -0.03704602271318436 0.036940813064575195 0.6732955574989319
v -0.03904373198747635 0.03985431045293808 0.6673880219459534
v -0.04184689372777939 0.03804633021354675 0.6668860912322998
v -0.041129499673843384 0.04196659103035927 0.6630889773368835
v -0.04335939884185791 0.04083547741174698 0.6636219620704651
v -0.04701507091522217 0.04087100178003311 0.6644083857536316
v -0.04357760027050972 0.04404041916131973 0.6607255339622498
v -0.042159553617239 0.04659834876656532 0.6602540016174316
v -0.04677550494670868 0.045811478048563004 0.6609847545623779
v -0.04439209774136543 0.042503710836172104 0.661665141582489
v -0.04701868072152138 0.043607618659734726 0.662430465221405
v -0.0548529289662838 0.02287423610687256 0.673723578453064
v -0.050407566130161285 0.02304021827876568 0.6695454716682434
v -0.047947853803634644 0.020223384723067284 0.6753188967704773
v -0.051499903202056885 0.02147071249783039 0.678875207901001
v -0.051672082394361496 0.03314027190208435 0.6820254325866699
v -0.055493906140327454 0.028882622718811035 0.6805363893508911
v -0.05137772858142853 0.028861496597528458 0.6847178936004639
v -0.04642961919307709 0.0321652777493 0.6839261651039124
v -0.04685530811548233 0.0353737398982048 0.679442822933197
v -0.04193396121263504 0.032259415835142136 0.6811944842338562
v -0.04281027987599373 0.03212660923600197 0.6866316199302673
v -0.04781641811132431 0.02740287035703659 0.688054084777832
v -0.03420088440179825 0.01698997989296913 0.700653076171875
v -0.03022565320134163 0.022654328495264053 0.6986865997314453
v -0.03195422515273094 0.003151252632960677 0.6891874670982361
v -0.03028857707977295 0.006225878372788429 0.6871948838233948
v -0.056456394493579865 0.025179272517561913 0.6771184802055359
v -0.05297601968050003 0.02473924495279789 0.6820335984230042
v -0.041019730269908905 0.01685747690498829 0.6729737520217896
v -0.045184176415205 0.01485141459852457 0.6756477355957031
v -0.04499898850917816 0.02010762318968773 0.6713542938232422
v -0.04132808372378349 0.023510823026299477 0.6700050830841064
v -0.03605448082089424 0.007807957008481026 0.6993116140365601
v -0.033671844750642776 0.003984992392361164 0.694779098033905
v -0.03595482185482979 0.01219925656914711 0.7000959515571594
v -0.03684448078274727 0.02184242196381092 0.6729777455329895
v -0.03472721204161644 0.027540119364857674 0.6757370829582214
v -0.023496169596910477 0.019903993234038353 0.6868959665298462
v -0.02576061710715294 0.013733502477407455 0.6846975088119507
v -0.05065611004829407 0.022755857557058334 0.6866464018821716
v -0.04878109320998192 0.01567981392145157 0.679807722568512
v -0.050954632461071014 0.018059847876429558 0.683424174785614
v -0.037639014422893524 0.031520213931798935 0.6818071007728577
v -0.03851509839296341 0.03133588656783104 0.6751095056533813
v -0.04928721487522125 0.039847005158662796 0.6636494994163513
v -0.041520267724990845 0.03227720037102699 0.670070469379425
v -0.04364098235964775 0.028714220970869064 0.6672328114509583
v -0.05069577321410179 0.03703419491648674 0.6599701046943665
v -0.0384427011013031 0.028136245906352997 0.6718255877494812
v -0.04254636541008949 0.0346745066344738 0.6747524738311768
v -0.06248633563518524 0.031938936561346054 0.6626380681991577
v -0.05807884782552719 0.03236037492752075 0.6584428548812866
v -0.06430574506521225 0.03339603170752525 0.6664174795150757
v -0.02551484853029251 0.02401607856154442 0.6927844882011414
v -0.06003931164741516 0.03888802230358124 0.6736339330673218
v -0.06388115882873535 0.03514045104384422 0.6701963543891907
v -0.046499356627464294 0.02501026540994644 0.6667142510414124
v -0.053900934755802155 0.034700263291597366 0.6577193737030029
v -0.05019284412264824 0.04168223962187767 0.667625367641449
v -0.054070912301540375 0.041389573365449905 0.6731984615325928
v -0.05370292067527771 0.044284336268901825 0.664191722869873
v -0.05737927183508873 0.04426635056734085 0.6690239906311035
v -0.0634208619594574 0.042010728269815445 0.6697416305541992
v -0.06640855967998505 0.03843746334314346 0.6668152213096619
v -0.06638899445533752 0.03611830249428749 0.6636109948158264
v -0.052915316075086594 0.043024372309446335 0.6604785323143005
v -0.053947851061820984 0.040579721331596375 0.6567083597183228
v -0.05643881857395172 0.03658350929617882 0.6558317542076111
v -0.05666046589612961 0.046590063720941544 0.6554191708564758
v -0.058309853076934814 0.04909683018922806 0.6584758162498474
v -0.07490476220846176 0.05293426290154457 0.6559436321258545
v -0.07197356969118118 0.049852825701236725 0.6599082350730896
v -0.07026789337396622 0.05182889476418495 0.6597107648849487
v -0.07281406968832016 0.054860230535268784 0.6560808420181274
v -0.06793519109487534 0.04829214885830879 0.6641702055931091
v -0.06732848286628723 0.050172872841358185 0.6624917387962341
v -0.06300204992294312 0.050486065447330475 0.6614253520965576
v -0.06626557558774948 0.05305132269859314 0.6574326753616333
v -0.06230849027633667 0.052466534078121185 0.6547895669937134
v -0.06472630053758621 0.056230589747428894 0.6514624357223511
v -0.06869357824325562 0.05718223378062248 0.6541517972946167
v -0.060886554419994354 0.051024775952100754 0.6583442091941833
v -0.07352539151906967 0.05695676803588867 0.6533304452896118
v -0.0751483216881752 0.05617794767022133 0.6514617800712585
v -0.061838723719120026 0.049032051116228104 0.6634624600410461
v -0.06876428425312042 0.042077116668224335 0.6648154854774475
v -0.07327885925769806 0.047415368258953094 0.6586357951164246
v -0.07581037282943726 0.0508468858897686 0.6536471843719482
v -0.07501412183046341 0.05459463223814964 0.6488484144210815
v -0.0731266438961029 0.04508760944008827 0.6552683115005493
v -0.07511154562234879 0.04918896406888962 0.6510089635848999
v -0.07398539781570435 0.05250963196158409 0.6473855376243591
v -0.07131636142730713 0.043349653482437134 0.6513881683349609
v -0.07295143604278564 0.047820258885622025 0.647705078125
v -0.06602219492197037 0.03602521866559982 0.6585168838500977
v -0.0684962347149849 0.03810396045446396 0.6619988083839417
v -0.07301998138427734 0.05040687695145607 0.646718442440033
v -0.07170270383358002 0.05886213481426239 0.6492598652839661
v -0.07215472310781479 0.05671202763915062 0.6466217637062073
v -0.07089969515800476 0.058790165930986404 0.6509430408477783
v -0.061058200895786285 0.05175601691007614 0.6532591581344604
v -0.06424406170845032 0.055302686989307404 0.6493959426879883
v -0.06033003330230713 0.050301726907491684 0.6510650515556335
v -0.06430413573980331 0.05429297685623169 0.6471897959709167
v -0.06735467165708542 0.058009546250104904 0.6474965810775757
v -0.06772946566343307 0.05859200283885002 0.6491330862045288
v -0.06385298073291779 0.03450934216380119 0.6604864001274109
v -0.05968518555164337 0.034630220383405685 0.6570058465003967
v -0.061709918081760406 0.03591784089803696 0.6551645398139954
v -0.06722374260425568 0.043395645916461945 0.648510754108429
v -0.0580483078956604 0.038336534053087234 0.6537430882453918
v -0.05670604854822159 0.04353437200188637 0.653523325920105
v -0.06059415638446808 0.04805953800678253 0.6493988037109375
v -0.06315122544765472 0.04554399847984314 0.6478660106658936
v -0.0640936866402626 0.05270330607891083 0.6456235647201538
v -0.06520328670740128 0.04957551136612892 0.6455332636833191
v -0.06951986253261566 0.04760869964957237 0.6457594037055969
v -0.06764725595712662 0.05526691675186157 0.6443507075309753
v -0.06752510368824005 0.05713848024606705 0.6459124088287354
v -0.0718253031373024 0.054665371775627136 0.6456592082977295
v -0.06767027825117111 0.05221506208181381 0.6442490220069885
v -0.07110835611820221 0.05152010917663574 0.6451435685157776
v -0.03596746176481247 0.01996062882244587 0.6989327669143677
v -0.03971448540687561 0.02232499048113823 0.6949058175086975
v -0.03926728665828705 0.018514949828386307 0.6914021372795105
v -0.035797376185655594 0.01758429780602455 0.6959245800971985
v -0.024585718289017677 0.025846797972917557 0.6972760558128357
v -0.027515271678566933 0.022622056305408478 0.699604868888855
v -0.027376802638173103 0.020932011306285858 0.6973886489868164
v -0.024271653965115547 0.02424391359090805 0.6944055557250977
v -0.025610003620386124 0.03074660524725914 0.6945592164993286
v -0.024463661015033722 0.028209228068590164 0.6908645629882812
v -0.023066174238920212 0.023574993014335632 0.693009614944458
v -0.02738320827484131 0.02012447826564312 0.6955670118331909
v -0.01876291260123253 0.011362099088728428 0.6897212266921997
v -0.01432623527944088 0.016412975266575813 0.6879035830497742
v -0.03167440742254257 0.02041984722018242 0.6999402642250061
v -0.03175874054431915 0.018835851922631264 0.6978859305381775
v -0.03739975020289421 0.02082710713148117 0.6811206340789795
v -0.03813813626766205 0.01697242632508278 0.6839301586151123
v -0.04005611687898636 0.022265342995524406 0.6875177621841431
v -0.038691550493240356 0.026735994964838028 0.6852373480796814
v -0.024259384721517563 0.0029751851689070463 0.6845521330833435
v -0.023882705718278885 0.003578996518626809 0.6784818768501282
v -0.023053478449583054 0.0067990245297551155 0.6883642673492432
v -0.03368689492344856 0.025618430227041245 0.6800304055213928
v -0.027189427986741066 0.028124835342168808 0.682100772857666
v -0.01776205375790596 0.01943942904472351 0.6753047108650208
v -0.021364256739616394 0.015034557320177555 0.6730232238769531
v -0.0316532701253891 0.017177052795886993 0.6966224908828735
v -0.03731027618050575 0.014600430615246296 0.6882766485214233
v -0.03532803803682327 0.01453803014010191 0.6938902139663696
v -0.023404370993375778 0.026524925604462624 0.6883527040481567
v -0.02852839231491089 0.03096054121851921 0.685964047908783
v -0.03764812648296356 0.040827058255672455 0.7027415037155151
v -0.03623470291495323 0.033059749752283096 0.6880291104316711
v -0.04034251347184181 0.029874032363295555 0.6898354291915894
v -0.04133329167962074 0.03948692977428436 0.703848123550415
v -0.03492693230509758 0.030472930520772934 0.6844046115875244
v -0.030094536021351814 0.033376481384038925 0.6898413896560669
v -0.039015915244817734 0.02913660556077957 0.7117220759391785
v -0.042576294392347336 0.03167957067489624 0.708598256111145
v -0.03495056927204132 0.028319235891103745 0.7111368179321289
v -0.013529263436794281 0.020181450992822647 0.6820877194404602
v -0.023485247045755386 0.008571946993470192 0.6735685467720032
v -0.02952934429049492 0.03221222385764122 0.7091745138168335
v -0.032082151621580124 0.029469218105077744 0.7106596231460571
v -0.04120337963104248 0.026182401925325394 0.6914129853248596
v -0.04352365434169769 0.036112915724515915 0.7058694362640381
v -0.03302308917045593 0.03998203203082085 0.7027648687362671
v -0.028780430555343628 0.03649672493338585 0.7052357196807861
v -0.03408154100179672 0.04180920124053955 0.705236554145813
v -0.0302475206553936 0.03835723549127579 0.7076746225357056
v -0.030381865799427032 0.03477228432893753 0.7118992209434509
v -0.032987020909786224 0.03259214758872986 0.7139328718185425
v -0.03604336082935333 0.03173601254820824 0.7146673202514648
v -0.03786475956439972 0.04340904951095581 0.7055463790893555
v -0.04105164110660553 0.04267315939068794 0.7070567607879639
v -0.043683022260665894 0.03782916069030762 0.7079426646232605
v -0.037234269082546234 0.04611892253160477 0.7084580659866333
v -0.032331787049770355 0.04592394083738327 0.7095800638198853
v -0.028527334332466125 0.047616999596357346 0.7260639071464539
v -0.029375283047556877 0.04330374673008919 0.7222524881362915
v -0.029055172577500343 0.04426860809326172 0.7215226888656616
v -0.02767334319651127 0.048708364367485046 0.7249338030815125
v -0.029179798439145088 0.0394924059510231 0.7162531614303589
v -0.028883501887321472 0.04160988703370094 0.7172205448150635
v -0.029251551255583763 0.043375641107559204 0.713738739490509
v -0.028173765167593956 0.04829524829983711 0.7180517911911011
v -0.03248894214630127 0.050944969058036804 0.7148429751396179
v -0.03121640533208847 0.054300181567668915 0.7182838916778564
v -0.02704564481973648 0.05220533162355423 0.7215204834938049
v -0.03132224455475807 0.04654967039823532 0.7117733955383301
v -0.02746182680130005 0.05169620364904404 0.7260643839836121
v -0.02743220329284668 0.05121015012264252 0.7278003096580505
v -0.02964569628238678 0.04194172844290733 0.7115535736083984
v -0.03209434077143669 0.03618357330560684 0.7178336977958679
v -0.03145241737365723 0.04182957485318184 0.7236838936805725
v -0.030776886269450188 0.046218618750572205 0.7278318405151367
v -0.030856071040034294 0.05040445178747177 0.7289516925811768
v -0.03528239205479622 0.041689880192279816 0.7239765524864197
v -0.03399992734193802 0.04613504931330681 0.7275165915489197
v -0.03397069498896599 0.04985778033733368 0.7285970449447632
v -0.03825986012816429 0.04231729730963707 0.7231006622314453
v -0.03701610118150711 0.046651843935251236 0.7263514399528503
v -0.03965316712856293 0.03420485183596611 0.7157871127128601
v -0.0358055904507637 0.034495092928409576 0.7175180912017822
v -0.03596936911344528 0.04959944635629654 0.7275205254554749
v -0.028397101908922195 0.05521928519010544 0.7254642248153687
v -0.032423850148916245 0.055144697427749634 0.726725161075592
v -0.027866698801517487 0.054233066737651825 0.7242317199707031
v -0.033886536955833435 0.05109383165836334 0.7136005163192749
v -0.033217139542102814 0.05566330999135971 0.7182371020317078
v -0.03657716512680054 0.050851140171289444 0.7134606838226318
v -0.035983458161354065 0.055478520691394806 0.7184352278709412
v -0.03129010647535324 0.05699075013399124 0.7215498685836792
v -0.03032182902097702 0.05621933937072754 0.7213629484176636
v -0.039780743420124054 0.031495027244091034 0.7134157419204712
v -0.042977817356586456 0.03397409990429878 0.7106704115867615
v -0.04275801032781601 0.036613304167985916 0.7132786512374878
v -0.04078749194741249 0.045168716460466385 0.7210478782653809
v -0.043178774416446686 0.0401819571852684 0.7103515267372131
v -0.040072545409202576 0.04572830721735954 0.7099856734275818
v -0.03899230808019638 0.049824412912130356 0.7151018977165222
v -0.04070688784122467 0.04816167429089546 0.7177757024765015
v -0.03804152458906174 0.05408649891614914 0.7195366621017456
v -0.03921845555305481 0.05175456404685974 0.7206322550773621
v -0.03946417197585106 0.04901009052991867 0.7244545221328735
v -0.03641887754201889 0.0552520826458931 0.7229033708572388
v -0.03406386822462082 0.05691097676753998 0.7221227288246155
v -0.0352601483464241 0.053650446236133575 0.7268719673156738
v -0.0380377359688282 0.05330926179885864 0.7233932018280029
v -0.03715621680021286 0.051937736570835114 0.7262914180755615
v -0.02386499010026455 0.005244173109531403 0.6747370362281799
v -0.023041624575853348 0.01829739846289158 0.6561639308929443
v -0.024583548307418823 0.018543308600783348 0.6525899171829224
v -0.022909820079803467 0.012892513535916805 0.6514413952827454
v -0.021896833553910255 0.01234168466180563 0.6552765369415283
v -0.012713393196463585 0.020905064418911934 0.6567420363426208
v -0.016715556383132935 0.019962310791015625 0.6585768461227417
v -0.015404712408781052 0.01591978594660759 0.6581393480300903
v -0.011256128549575806 0.01700247824192047 0.6561740636825562
v -0.010852908715605736 0.022233346477150917 0.652420699596405
v -0.009502390399575233 0.018329737707972527 0.6514748930931091
v -0.009857673197984695 0.017408639192581177 0.6570972800254822
v -0.013815943151712418 0.014988785609602928 0.6590225100517273
v -0.006879502907395363 0.009362610056996346 0.663835346698761
v -0.0026670601218938828 0.012056157924234867 0.6619130969047546
v 0.0015586242079734802 -0.002088024513795972 0.6507995128631592
v -0.0006524138152599335 -0.0054489439353346825 0.6550863981246948
v -0.0070903971791267395 -9.083724580705166e-05 0.6517067551612854
v -0.003598414361476898 0.001984278904274106 0.6493089199066162
v -0.020264672115445137 0.018981799483299255 0.6582556962966919
v -0.019909322261810303 0.014447174035012722 0.6577823162078857
v -0.013973729684948921 0.009106762707233429 0.6451302170753479
v -0.0177239328622818 0.00803056638687849 0.6477234959602356
v -0.02219574525952339 0.012856249697506428 0.647463858127594
v -0.018943388015031815 0.014152415096759796 0.6440198421478271
v -0.0046210139989852905 -0.004813247360289097 0.658915638923645
v -0.0075051505118608475 -0.003239185782149434 0.6623178720474243
v -0.011037532240152359 -0.0006734209600836039 0.6603878140449524
v -0.01011141762137413 -0.00024643843062222004 0.6553789973258972
v -0.012588871642947197 0.0035568277817219496 0.6634095311164856
v -0.01082482747733593 0.011876489967107773 0.6446892023086548
v -0.007652100175619125 0.015322612598538399 0.6467689275741577
v 0.003162391483783722 0.008387729525566101 0.6508710384368896
v 0.0008280426263809204 0.00452156737446785 0.6496161222457886
v -0.017568081617355347 0.011978695169091225 0.6589425802230835
v -0.020074622705578804 0.008789975196123123 0.6514180898666382
v -0.019217360764741898 0.009037048555910587 0.655784547328949
v -0.00718352198600769 0.018019791692495346 0.6520763635635376
v -0.010905120521783829 0.01812710240483284 0.6458796858787537
v -0.019475862383842468 0.030686678364872932 0.6458405256271362
v -0.016931846737861633 0.02133600413799286 0.6438522934913635
v -0.02132253721356392 0.02039589360356331 0.6450290083885193
v -0.022482722997665405 0.030191825702786446 0.6463007926940918
v -0.014092745259404182 0.015246452763676643 0.6434602737426758
v -0.012472514063119888 0.022612879052758217 0.646772027015686
v -0.02541186287999153 0.027677757665514946 0.6574796438217163
v -0.02658897265791893 0.02793010137975216 0.6526292562484741
v -0.022932153195142746 0.027779199182987213 0.6595325469970703
v 0.0017231069505214691 0.01291055791079998 0.6566330194473267
v -0.01600920595228672 0.029614359140396118 0.658431351184845
v -0.01984575018286705 0.02890259400010109 0.6602684855461121
v -0.02388693019747734 0.01924441009759903 0.6487890481948853
v -0.025134628638625145 0.029038473963737488 0.648654580116272
v -0.015758272260427475 0.031147515401244164 0.6480956077575684
v -0.013479860499501228 0.03051731362938881 0.6535084843635559
v -0.016870612278580666 0.0352637842297554 0.6497135162353516
v -0.01534571498632431 0.03402232378721237 0.65497225522995
v -0.019083943217992783 0.03342875465750694 0.6601845026016235
v -0.022305581718683243 0.031733691692352295 0.6607413291931152
v -0.025116365402936935 0.030617712065577507 0.6596527695655823
v -0.02044215053319931 0.03457092121243477 0.6469459533691406
v -0.023351948708295822 0.03347152844071388 0.6469749212265015
v -0.025965213775634766 0.03136121481657028 0.648832380771637
v -0.021867582574486732 0.038573041558265686 0.6481200456619263
v -0.02000105381011963 0.04074385017156601 0.6519216895103455
v -0.029695559293031693 0.04560009762644768 0.659697413444519
v -0.027767714112997055 0.04215898737311363 0.6600781083106995
v -0.0268514733761549 0.04268191382288933 0.6595758199691772
v -0.02876078151166439 0.04617772251367569 0.6598087549209595
v -0.023705366998910904 0.03866307809948921 0.6603114604949951
v -0.02377033419907093 0.04009530320763588 0.6594078540802002
v -0.02116655930876732 0.04002305492758751 0.6569656133651733
v -0.023818179965019226 0.04433201253414154 0.6569745540618896
v -0.023638147860765457 0.045201126486063004 0.6517308354377747
v -0.025709154084324837 0.04855241999030113 0.652376115322113
v -0.025388916954398155 0.047619570046663284 0.6570106148719788
v -0.0208473838865757 0.04196123406291008 0.6532701849937439
v -0.029016446322202682 0.048821136355400085 0.6594528555870056
v -0.030255621299147606 0.04937109351158142 0.6596452593803406
v -0.019366441294550896 0.03872160613536835 0.6571803689002991
v -0.026320040225982666 0.0356636717915535 0.6608432531356812
v -0.03018898516893387 0.04156253859400749 0.6602380275726318
v -0.03193795680999756 0.04614654555916786 0.659740149974823
v -0.03205918148159981 0.0495527908205986 0.6583021879196167
v -0.03150295838713646 0.0398167259991169 0.6588608622550964
v -0.033724330365657806 0.04534568265080452 0.658510684967041
v -0.033782873302698135 0.04857250675559044 0.6570048928260803
v -0.03268275782465935 0.03845905885100365 0.6560587882995605
v -0.03427901118993759 0.04409963637590408 0.6562013626098633
v -0.029413625597953796 0.03217380866408348 0.6560092568397522
v -0.0282730869948864 0.03372110426425934 0.6590617299079895
v -0.03396511822938919 0.047202739864587784 0.655827522277832
v -0.028556134551763535 0.051394760608673096 0.6567805409431458
v -0.031190121546387672 0.051020942628383636 0.6554735898971558
v -0.027147535234689713 0.05073720961809158 0.6568774580955505
v -0.02384265884757042 0.044855691492557526 0.6503919959068298
v -0.02659662254154682 0.04890836030244827 0.6510323286056519
v -0.02527552843093872 0.04384559765458107 0.6485809087753296
v -0.028415286913514137 0.04835538938641548 0.6499609351158142
v -0.028060346841812134 0.05121975392103195 0.6531681418418884
v -0.02670927718281746 0.05040144920349121 0.654120147228241
v -0.027643878012895584 0.030187996104359627 0.6567246913909912
v -0.02740710973739624 0.029973464086651802 0.6528066992759705
v -0.02883009798824787 0.032164253294467926 0.6519912481307983
v -0.032229986041784286 0.03834700211882591 0.6522271037101746
v -0.02679257094860077 0.033831510692834854 0.6483691930770874
v -0.024045709520578384 0.03638646751642227 0.6472724676132202
v -0.027408253401517868 0.042272914201021194 0.6480938792228699
v -0.030027618631720543 0.040388766676187515 0.6489748358726501
v -0.030390582978725433 0.047411419451236725 0.6498900055885315
v -0.03248601406812668 0.04536065086722374 0.6506466269493103
v -0.034084632992744446 0.04392987862229347 0.6530009508132935
v -0.031773701310157776 0.049666039645671844 0.6526254415512085
v -0.03029911033809185 0.050863251090049744 0.652689516544342
v -0.03266891837120056 0.04974602162837982 0.6546770334243774
v -0.03297732025384903 0.048112910240888596 0.6526210308074951
v -0.033645614981651306 0.047669991850852966 0.6540011763572693
v 0.002086542546749115 0.0018319480586797 0.6501023173332214
v -0.008207965642213821 0.006092982832342386 0.7399764060974121
v -0.007889831438660622 0.004104536026716232 0.7346354722976685
v -0.009218811988830566 -0.011933348141610622 0.7356765270233154
v -0.009556563571095467 -0.006467059254646301 0.7312109470367432
v -0.009285995736718178 -0.013287360779941082 0.7424089312553406
v -0.008511332795023918 -0.0065662069246172905 0.7507722973823547
v -0.007952839136123657 -0.011032785288989544 0.7476032376289368
v -0.008836086839437485 -0.0006860520225018263 0.7310096621513367
v -0.008007543161511421 0.005244223866611719 0.745658278465271
v -0.007967749610543251 0.00014401273801922798 0.7506951689720154
v -0.018128331750631332 0.007558561861515045 0.7450079917907715
v -0.018915079534053802 0.0011594337411224842 0.7503799796104431
v -0.019949812442064285 -0.005940563045442104 0.7506011724472046
v -0.01718030497431755 -0.011369246989488602 0.7461260557174683
v -0.016201021149754524 -0.013636144809424877 0.7416543364524841
v -0.014962483197450638 0.006877129897475243 0.7379112839698792
v -0.013633102178573608 0.004561394918709993 0.7329316139221191
v -0.013092484325170517 -0.0014075052458792925 0.7299365401268005
v -0.021387901157140732 0.006388294510543346 0.7332581877708435
v -0.030581675469875336 0.003147687530145049 0.734052836894989
v -0.04115425795316696 -0.013339242897927761 0.7333985567092896
v -0.035333700478076935 -0.012632596306502819 0.7369022965431213
v -0.036429427564144135 -0.010033819824457169 0.736772894859314
v -0.04187814146280289 -0.010912386700510979 0.7340394258499146
v -0.032082296907901764 -0.009367759339511395 0.7403663396835327
v -0.03320032358169556 -0.00790395401418209 0.7388679385185242
v -0.03204473853111267 -0.0027366040740162134 0.7379344701766968
v -0.037074677646160126 -0.0038817303720861673 0.7351112365722656
v -0.03205663710832596 0.0006818852853029966 0.7340980768203735
v -0.0349675789475441 0.00011937855742871761 0.7309391498565674
v -0.04191330820322037 -0.004755694419145584 0.7323060035705566
v -0.04523333162069321 -0.0095105841755867 0.7323595285415649
v -0.045837752521038055 -0.005708280950784683 0.7298317551612854
v -0.045246660709381104 -0.011876638047397137 0.7303048372268677
v -0.032637469470500946 -0.0007912174332886934 0.740741491317749
v -0.026338934898376465 -0.012648860923945904 0.7421376705169678
v -0.03270818293094635 -0.015035293065011501 0.7363391518592834
v -0.03897701948881149 -0.01552343089133501 0.7314103841781616
v -0.04359399527311325 -0.013282074593007565 0.7279189229011536
v -0.02987908571958542 -0.016276337206363678 0.7333294749259949
v -0.03558618575334549 -0.015638070181012154 0.7287468314170837
v -0.039477452635765076 -0.012986528687179089 0.7253677248954773
v -0.027382735162973404 -0.014830275438725948 0.7294321060180664
v -0.03326064348220825 -0.013695799745619297 0.7261908650398254
v -0.01709531992673874 -0.01279937382787466 0.7345917224884033
v -0.020778954029083252 -0.014629513956606388 0.7394506335258484
v -0.036882393062114716 -0.012132166884839535 0.7247382998466492
v -0.04690461605787277 -0.006676314398646355 0.7274494767189026
v -0.044896200299263 -0.008089152164757252 0.724818229675293
v -0.03296360373497009 0.0020262531470507383 0.7289790511131287
v -0.039752669632434845 -0.00025662430562078953 0.7285345792770386
v -0.038208141922950745 0.00021471618674695492 0.7260712385177612
v -0.0296514630317688 0.002398815704509616 0.726815938949585
v -0.03644575923681259 -0.00019476120360195637 0.7238656282424927
v -0.04333997517824173 -0.002129370579496026 0.7253953218460083
v -0.04346639662981033 -0.0021207465324550867 0.7281837463378906
v -0.014106830582022667 -0.012643483467400074 0.7357459664344788
v -0.012776914983987808 -0.007727459073066711 0.731511652469635
v -0.015309836715459824 -0.0076041510328650475 0.7306592464447021
v -0.02507171407341957 -0.009729955345392227 0.7258219122886658
v -0.016087882220745087 -0.0017857819329947233 0.7282730340957642
v -0.01853838935494423 0.0037099707406014204 0.7299004197120667
v -0.027286574244499207 0.0005310613196343184 0.7246127128601074
v -0.02523825317621231 -0.0037877990398555994 0.724054753780365
v -0.0342249870300293 -0.002632075222209096 0.7224858999252319
v -0.03274572640657425 -0.0052961017936468124 0.7225508093833923
v -0.03247782588005066 -0.01010950282216072 0.723626434803009
v -0.038770370185375214 -0.0052522774785757065 0.7222757339477539
v -0.041378624737262726 -0.0031072928104549646 0.723102867603302
v -0.04071260243654251 -0.009067372418940067 0.7232444882392883
v -0.03637286275625229 -0.0065630096942186356 0.7225409150123596
v -0.03716464340686798 -0.009493356570601463 0.7232726812362671
v 0.0053619518876075745 -0.00817835796624422 0.6575517058372498
v 0.0016852281987667084 -0.008908801712095737 0.6627742052078247
v 0.009154040366411209 -0.011071829125285149 0.6639404892921448
v 0.019450809806585312 -0.011885388754308224 0.666489839553833
v 0.02989131584763527 -0.010219469666481018 0.663442075252533
v 0.017587948590517044 -0.010927116498351097 0.6729553937911987
v 0.0073142461478710175 -0.010217977687716484 0.6700310707092285
v -0.0032944176346063614 -0.007063901983201504 0.6682312488555908
v 0.02409399300813675 -0.009039856493473053 0.681162416934967
f 2 3 1
f 1 3 4
f 5 6 8
f 8 6 7
f 9 4 10
f 10 4 3
f 12 13 11
f 11 13 9
f 14 12 16
f 16 12 15
f 18 19 17
f 17 19 20
f 22 23 21
f 21 23 24
f 26 27 25
f 25 27 28
f 30 31 29
f 29 31 32
f 33 34 36
f 36 34 35
f 37 38 40
f 40 38 39
f 41 42 6
f 6 42 43
f 6 43 7
f 7 43 44
f 45 34 46
f 46 34 33
f 48 49 47
f 47 49 50
f 52 53 51
f 51 53 54
f 56 52 55
f 55 52 51
f 58 59 57
f 57 59 60
f 61 62 4
f 4 62 1
f 64 65 63
f 63 65 66
f 68 69 67
f 67 69 70
f 72 73 71
f 71 73 74
f 76 77 75
f 75 77 78
f 53 79 54
f 54 79 80
f 82 83 81
f 81 83 84
f 85 86 52
f 52 86 53
f 57 60 87
f 87 60 88
f 89 90 43
f 43 90 44
f 43 42 89
f 89 42 91
f 40 39 92
f 92 39 93
f 94 70 64
f 64 70 69
f 13 61 9
f 9 61 4
f 25 28 69
f 69 28 95
f 96 25 68
f 68 25 69
f 98 99 97
f 97 99 100
f 101 102 104
f 104 102 103
f 106 30 105
f 105 30 29
f 51 54 107
f 107 54 108
f 54 80 108
f 108 80 109
f 111 112 110
f 110 112 113
f 115 5 114
f 114 5 116
f 115 41 5
f 5 41 6
f 36 35 111
f 111 35 117
f 35 118 117
f 117 118 119
f 34 120 35
f 35 120 118
f 34 45 120
f 120 45 121
f 125 126 124
f 124 126 127
f 128 129 14
f 14 129 130
f 33 131 46
f 46 131 132
f 133 94 63
f 63 94 64
f 134 135 137
f 137 135 136
f 139 140 138
f 138 140 141
f 77 142 78
f 78 142 143
f 144 145 20
f 20 145 146
f 148 149 147
f 147 149 72
f 151 152 150
f 150 152 153
f 82 101 83
f 83 101 104
f 101 82 155
f 155 82 154
f 156 157 58
f 58 157 59
f 158 68 147
f 147 68 67
f 159 146 15
f 15 146 16
f 68 158 96
f 96 158 160
f 129 66 130
f 130 66 65
f 162 163 161
f 161 163 164
f 166 167 165
f 165 167 168
f 170 171 169
f 169 171 172
f 174 171 173
f 173 171 170
f 176 177 175
f 175 177 178
f 180 181 179
f 179 181 24
f 182 183 21
f 21 183 184
f 81 185 82
f 82 185 154
f 186 187 188
f 188 187 144
f 158 71 160
f 160 71 189
f 190 135 157
f 157 135 59
f 169 172 139
f 139 172 140
f 147 72 158
f 158 72 71
f 192 193 191
f 191 193 194
f 167 166 49
f 49 166 195
f 196 190 50
f 50 190 157
f 197 198 200
f 200 198 199
f 21 24 182
f 182 24 181
f 146 159 20
f 20 159 17
f 182 181 81
f 81 181 185
f 201 185 180
f 180 185 181
f 202 203 83
f 83 203 84
f 205 206 204
f 204 206 85
f 207 22 184
f 184 22 21
f 179 24 208
f 208 24 23
f 208 209 179
f 179 209 205
f 209 210 205
f 205 210 206
f 212 206 211
f 211 206 210
f 179 205 180
f 180 205 204
f 213 176 88
f 88 176 214
f 86 85 212
f 212 85 206
f 193 217 218
f 217 219 218
f 218 219 220
f 219 18 220
f 220 18 17
f 19 221 20
f 20 221 144
f 222 223 225
f 225 223 224
f 175 226 176
f 176 226 214
f 227 87 214
f 214 87 88
f 220 17 228
f 228 17 159
f 134 213 60
f 60 213 88
f 138 229 151
f 151 229 152
f 193 192 210
f 210 192 211
f 230 194 218
f 218 194 193
f 231 232 228
f 228 232 230
f 233 234 91
f 91 234 89
f 235 236 93
f 93 236 92
f 230 232 234
f 234 232 237
f 47 238 48
f 48 238 239
f 240 191 235
f 235 191 236
f 5 8 116
f 116 8 241
f 242 243 189
f 189 243 160
f 244 245 98
f 98 245 99
f 156 246 47
f 47 246 238
f 76 247 77
f 77 247 248
f 250 125 249
f 249 125 124
f 252 253 251
f 251 253 254
f 111 110 36
f 36 110 255
f 256 33 255
f 255 33 36
f 257 258 154
f 154 258 155
f 63 169 133
f 133 169 139
f 66 170 63
f 63 170 169
f 173 170 129
f 129 170 66
f 129 128 173
f 173 128 259
f 128 260 259
f 259 260 261
f 213 134 262
f 262 134 137
f 263 264 186
f 186 264 187
f 112 265 113
f 113 265 266
f 11 267 268
f 234 233 230
f 230 233 194
f 153 269 70
f 70 269 67
f 175 178 165
f 165 178 141
f 150 153 94
f 94 153 70
f 271 221 270
f 270 221 207
f 269 153 272
f 272 153 152
f 121 45 109
f 109 45 108
f 47 50 156
f 156 50 157
f 57 273 58
f 58 273 274
f 145 275 260
f 260 275 261
f 276 149 143
f 143 149 78
f 148 269 75
f 75 269 272
f 207 277 270
f 270 277 278
f 195 196 49
f 49 196 50
f 59 135 60
f 60 135 134
f 83 104 202
f 202 104 279
f 149 148 78
f 78 148 75
f 247 278 248
f 248 278 277
f 183 182 84
f 84 182 81
f 48 239 281
f 281 239 282
f 227 223 283
f 283 223 222
f 223 226 224
f 224 226 168
f 281 282 224
f 224 282 225
f 165 168 175
f 175 168 226
f 264 263 138
f 138 263 229
f 14 16 128
f 128 16 260
f 220 228 218
f 218 228 230
f 87 227 284
f 284 227 283
f 260 16 145
f 145 16 146
f 244 98 258
f 258 98 155
f 58 274 156
f 156 274 246
f 107 285 51
f 51 285 55
f 243 286 160
f 160 286 96
f 234 237 89
f 89 237 90
f 46 132 107
f 107 132 285
f 253 252 249
f 249 252 250
f 286 26 96
f 96 26 25
f 106 105 287
f 287 105 288
f 272 152 289
f 289 152 229
f 138 151 139
f 139 151 133
f 183 290 161
f 161 290 162
f 291 292 277
f 277 292 293
f 151 150 133
f 133 150 94
f 262 275 177
f 177 275 187
f 144 187 145
f 145 187 275
f 273 57 284
f 284 57 87
f 174 136 190
f 190 136 135
f 111 117 112
f 112 117 38
f 117 119 38
f 38 119 123
f 112 38 265
f 265 38 37
f 287 288 254
f 254 288 251
f 228 159 231
f 231 159 15
f 223 227 226
f 226 227 214
f 147 67 148
f 148 67 269
f 224 168 281
f 281 168 167
f 199 163 200
f 200 163 162
f 45 46 108
f 108 46 107
f 281 167 48
f 48 167 49
f 161 164 291
f 291 164 292
f 38 123 39
f 293 294 277
f 277 294 248
f 284 283 296
f 296 283 295
f 284 296 273
f 273 296 297
f 274 273 298
f 298 273 297
f 246 274 299
f 299 274 298
f 283 222 295
f 295 222 300
f 222 225 300
f 300 225 301
f 301 225 302
f 302 225 282
f 303 304 300
f 300 304 295
f 306 307 305
f 305 307 308
f 309 310 308
f 308 310 305
f 308 307 312
f 312 307 311
f 313 314 312
f 312 314 315
f 311 316 312
f 312 316 313
f 317 304 311
f 311 304 316
f 315 309 312
f 312 309 308
f 318 319 321
f 321 319 320
f 319 318 309
f 309 318 310
f 311 307 317
f 317 307 306
f 306 297 317
f 317 297 296
f 306 322 297
f 297 322 298
f 305 323 306
f 306 323 322
f 323 305 324
f 324 305 310
f 304 317 295
f 295 317 296
f 318 325 310
f 310 325 324
f 323 324 326
f 326 324 327
f 324 325 327
f 327 325 328
f 326 327 329
f 329 327 330
f 329 331 326
f 326 331 332
f 333 330 328
f 328 330 327
f 323 326 322
f 322 326 332
f 322 332 298
f 298 332 299
f 325 318 334
f 334 318 321
f 313 316 335
f 335 316 304
f 335 336 313
f 313 336 314
f 304 303 335
f 335 303 337
f 336 335 338
f 338 335 337
f 336 339 314
f 314 339 340
f 246 299 238
f 238 299 341
f 239 342 282
f 282 342 302
f 342 239 341
f 341 239 238
f 341 331 342
f 342 331 343
f 331 329 343
f 343 329 344
f 342 343 302
f 302 343 345
f 341 299 331
f 331 299 332
f 346 301 345
f 345 301 302
f 346 303 301
f 301 303 300
f 347 337 346
f 346 337 303
f 347 346 348
f 348 346 345
f 349 347 350
f 350 347 348
f 343 344 345
f 345 344 348
f 344 351 348
f 348 351 350
f 337 347 338
f 338 347 349
f 353 338 352
f 352 338 349
f 352 355 354
f 354 355 356
f 352 349 355
f 355 349 350
f 352 354 353
f 353 354 334
f 353 334 339
f 339 334 321
f 339 336 353
f 353 336 338
f 329 330 344
f 344 330 351
f 356 351 333
f 333 351 330
f 356 355 351
f 351 355 350
f 354 356 328
f 328 356 333
f 328 325 354
f 354 325 334
f 309 315 319
f 319 315 320
f 320 340 321
f 321 340 339
f 320 315 340
f 340 315 314
f 137 136 261
f 261 136 259
f 140 166 141
f 141 166 165
f 172 171 195
f 195 171 196
f 171 174 196
f 196 174 190
f 178 177 264
f 264 177 187
f 172 195 140
f 140 195 166
f 137 261 262
f 262 261 275
f 178 264 141
f 141 264 138
f 262 177 213
f 213 177 176
f 136 174 259
f 259 174 173
f 358 359 357
f 357 359 360
f 362 363 361
f 361 363 364
f 361 364 365
f 365 364 366
f 367 368 370
f 370 368 369
f 76 371 247
f 247 371 372
f 373 374 362
f 362 374 363
f 376 377 375
f 375 377 378
f 289 229 380
f 380 229 379
f 381 379 263
f 263 379 229
f 383 384 382
f 382 384 385
f 386 368 374
f 374 368 363
f 76 289 371
f 371 289 380
f 377 376 359
f 359 376 387
f 388 386 360
f 360 386 374
f 389 383 366
f 366 383 390
f 392 393 391
f 391 393 394
f 383 382 390
f 390 382 395
f 396 365 390
f 390 365 366
f 389 366 367
f 367 366 364
f 357 397 358
f 358 397 398
f 373 399 357
f 357 399 397
f 389 367 400
f 400 367 370
f 382 385 375
f 375 385 372
f 357 360 373
f 373 360 374
f 361 401 362
f 362 401 402
f 387 388 359
f 359 388 360
f 363 368 364
f 364 368 367
f 358 398 403
f 403 398 404
f 396 392 405
f 405 392 391
f 392 395 393
f 393 395 378
f 393 403 394
f 394 403 404
f 375 378 382
f 382 378 395
f 365 396 406
f 406 396 405
f 362 402 373
f 373 402 399
f 271 270 400
f 400 270 384
f 401 361 406
f 406 361 365
f 381 369 386
f 386 369 368
f 392 396 395
f 395 396 390
f 393 378 403
f 403 378 377
f 403 377 358
f 358 377 359
f 406 405 408
f 408 405 407
f 406 408 401
f 401 408 409
f 401 409 402
f 402 409 410
f 402 410 399
f 399 410 411
f 405 391 407
f 407 391 412
f 391 394 412
f 412 394 413
f 394 404 413
f 413 404 414
f 415 416 412
f 412 416 407
f 418 419 417
f 417 419 420
f 421 422 418
f 418 422 419
f 419 422 424
f 424 422 423
f 425 426 424
f 424 426 427
f 423 428 424
f 424 428 425
f 427 420 424
f 424 420 419
f 420 429 417
f 417 429 430
f 423 422 431
f 431 422 421
f 421 409 431
f 431 409 408
f 421 432 409
f 409 432 410
f 418 433 421
f 421 433 432
f 434 433 417
f 417 433 418
f 431 416 423
f 423 416 428
f 416 431 407
f 407 431 408
f 435 434 430
f 430 434 417
f 433 434 436
f 436 434 437
f 434 435 437
f 437 435 438
f 436 437 439
f 439 437 440
f 439 441 436
f 436 441 442
f 438 443 437
f 437 443 440
f 436 442 433
f 433 442 432
f 432 442 410
f 410 442 411
f 435 430 445
f 445 430 444
f 430 429 444
f 444 429 446
f 425 428 447
f 447 428 416
f 426 425 448
f 448 425 447
f 416 415 447
f 447 415 449
f 447 449 448
f 448 449 450
f 451 452 448
f 448 452 426
f 446 452 444
f 444 452 451
f 399 411 397
f 397 411 453
f 398 454 404
f 404 454 414
f 454 398 453
f 453 398 397
f 453 441 454
f 454 441 455
f 441 439 455
f 455 439 456
f 454 455 414
f 414 455 457
f 441 453 442
f 442 453 411
f 458 413 457
f 457 413 414
f 458 415 413
f 413 415 412
f 458 459 415
f 415 459 449
f 459 458 460
f 460 458 457
f 461 459 462
f 462 459 460
f 455 456 457
f 457 456 460
f 456 463 460
f 460 463 462
f 459 461 449
f 449 461 450
f 465 450 464
f 464 450 461
f 464 467 466
f 466 467 468
f 464 461 467
f 467 461 462
f 464 466 465
f 465 466 445
f 465 445 451
f 451 445 444
f 451 448 465
f 465 448 450
f 439 440 456
f 456 440 463
f 468 463 443
f 443 463 440
f 468 467 463
f 463 467 462
f 466 468 438
f 438 468 443
f 438 435 466
f 466 435 445
f 420 427 429
f 429 427 446
f 446 427 452
f 452 427 426
f 370 369 188
f 188 369 186
f 371 376 372
f 372 376 375
f 380 379 387
f 387 379 388
f 379 381 388
f 388 381 386
f 385 384 278
f 278 384 270
f 380 387 371
f 371 387 376
f 400 370 271
f 271 370 188
f 385 278 372
f 372 278 247
f 400 384 389
f 389 384 383
f 369 381 186
f 186 381 263
f 221 271 144
f 144 271 188
f 221 19 207
f 207 19 22
f 19 18 22
f 22 18 23
f 18 219 23
f 23 219 208
f 469 470 472
f 472 470 471
f 474 475 473
f 473 475 476
f 473 476 477
f 477 476 478
f 480 481 479
f 479 481 482
f 483 484 474
f 474 484 475
f 486 487 485
f 485 487 488
f 489 490 77
f 77 490 142
f 491 489 248
f 248 489 77
f 493 494 492
f 492 494 495
f 496 480 484
f 484 480 475
f 486 497 487
f 487 497 471
f 498 496 472
f 472 496 484
f 499 493 478
f 478 493 500
f 501 502 504
f 504 502 503
f 493 492 500
f 500 492 505
f 506 477 500
f 500 477 478
f 499 478 479
f 479 478 476
f 469 507 470
f 470 507 508
f 483 509 469
f 469 509 507
f 479 482 499
f 499 482 510
f 492 495 485
f 485 495 511
f 483 469 484
f 484 469 472
f 473 512 474
f 474 512 513
f 497 498 471
f 471 498 472
f 475 480 476
f 476 480 479
f 470 508 514
f 514 508 515
f 506 502 516
f 516 502 501
f 503 502 488
f 488 502 505
f 514 515 503
f 503 515 504
f 485 488 492
f 492 488 505
f 477 506 517
f 517 506 516
f 474 513 483
f 483 513 509
f 510 292 494
f 494 292 164
f 512 473 517
f 517 473 477
f 491 481 496
f 496 481 480
f 502 506 505
f 505 506 500
f 503 488 514
f 514 488 487
f 514 487 470
f 470 487 471
f 517 516 519
f 519 516 518
f 517 519 512
f 512 519 520
f 512 520 513
f 513 520 521
f 513 521 509
f 509 521 522
f 516 501 518
f 518 501 523
f 501 504 523
f 523 504 524
f 524 504 525
f 525 504 515
f 526 527 523
f 523 527 518
f 529 530 528
f 528 530 531
f 532 533 529
f 529 533 530
f 530 533 535
f 535 533 534
f 536 537 535
f 535 537 538
f 534 539 535
f 535 539 536
f 538 531 535
f 535 531 530
f 540 541 531
f 531 541 528
f 533 532 534
f 534 532 542
f 532 520 542
f 542 520 519
f 532 543 520
f 520 543 521
f 529 544 532
f 532 544 543
f 544 529 545
f 545 529 528
f 534 542 539
f 539 542 527
f 527 542 518
f 518 542 519
f 541 546 528
f 528 546 545
f 547 544 548
f 548 544 545
f 546 549 545
f 545 549 548
f 550 547 551
f 551 547 548
f 547 550 553
f 553 550 552
f 549 554 548
f 548 554 551
f 544 547 543
f 543 547 553
f 543 553 521
f 521 553 522
f 546 541 556
f 556 541 555
f 541 540 555
f 555 540 557
f 536 539 558
f 558 539 527
f 537 536 559
f 559 536 558
f 527 526 558
f 558 526 560
f 559 558 561
f 561 558 560
f 559 562 537
f 537 562 563
f 557 563 555
f 555 563 562
f 509 522 507
f 507 522 564
f 508 565 515
f 515 565 525
f 565 508 564
f 564 508 507
f 564 552 565
f 565 552 566
f 552 550 566
f 566 550 567
f 565 566 525
f 525 566 568
f 564 522 552
f 552 522 553
f 569 524 568
f 568 524 525
f 569 526 524
f 524 526 523
f 570 560 569
f 569 560 526
f 570 569 571
f 571 569 568
f 572 570 573
f 573 570 571
f 566 567 568
f 568 567 571
f 567 574 571
f 571 574 573
f 570 572 560
f 560 572 561
f 576 561 575
f 575 561 572
f 575 578 577
f 577 578 579
f 575 572 578
f 578 572 573
f 575 577 576
f 576 577 556
f 576 556 562
f 562 556 555
f 562 559 576
f 576 559 561
f 550 551 567
f 567 551 574
f 579 574 554
f 554 574 551
f 579 578 574
f 574 578 573
f 579 554 577
f 577 554 549
f 549 546 577
f 577 546 556
f 531 538 540
f 540 538 557
f 557 538 563
f 563 538 537
f 481 294 482
f 482 294 293
f 580 486 511
f 511 486 485
f 490 489 497
f 497 489 498
f 489 491 498
f 498 491 496
f 163 495 164
f 164 495 494
f 580 490 486
f 486 490 497
f 482 293 510
f 510 293 292
f 495 163 511
f 511 163 199
f 494 493 510
f 510 493 499
f 481 491 294
f 294 491 248
f 582 583 581
f 581 583 584
f 586 587 585
f 585 587 588
f 585 588 589
f 589 588 590
f 592 593 591
f 591 593 594
f 595 596 598
f 598 596 597
f 599 600 586
f 586 600 587
f 601 602 604
f 604 602 603
f 605 606 608
f 608 606 607
f 609 607 200
f 200 607 606
f 610 611 613
f 613 611 612
f 600 614 587
f 587 614 592
f 596 605 597
f 597 605 608
f 602 615 603
f 603 615 583
f 616 614 584
f 584 614 600
f 611 618 617
f 617 618 590
f 620 621 619
f 619 621 622
f 610 623 611
f 611 623 618
f 624 589 618
f 618 589 590
f 617 590 591
f 591 590 588
f 581 625 582
f 582 625 626
f 599 627 581
f 581 627 625
f 591 594 617
f 617 594 628
f 601 610 598
f 598 610 613
f 581 584 599
f 599 584 600
f 585 629 586
f 586 629 630
f 615 616 583
f 583 616 584
f 587 592 588
f 588 592 591
f 582 626 631
f 631 626 632
f 624 620 633
f 633 620 619
f 621 620 604
f 604 620 623
f 631 632 621
f 621 632 622
f 610 601 623
f 623 601 604
f 589 624 634
f 634 624 633
f 586 630 599
f 599 630 627
f 203 202 628
f 628 202 612
f 629 585 634
f 634 585 589
f 609 593 614
f 614 593 592
f 620 624 623
f 623 624 618
f 631 621 603
f 603 621 604
f 582 631 583
f 583 631 603
f 634 633 636
f 636 633 635
f 634 636 629
f 629 636 637
f 629 637 630
f 630 637 638
f 630 638 627
f 627 638 639
f 633 619 635
f 635 619 640
f 619 622 640
f 640 622 641
f 641 622 642
f 642 622 632
f 644 635 643
f 643 635 640
f 645 646 648
f 648 646 647
f 649 650 646
f 646 650 647
f 647 650 652
f 652 650 651
f 652 653 655
f 655 653 654
f 651 656 652
f 652 656 653
f 655 648 652
f 652 648 647
f 648 657 645
f 645 657 658
f 650 649 651
f 651 649 659
f 649 637 659
f 659 637 636
f 649 660 637
f 637 660 638
f 661 660 646
f 646 660 649
f 662 661 645
f 645 661 646
f 651 659 656
f 656 659 644
f 644 659 635
f 635 659 636
f 663 662 658
f 658 662 645
f 664 661 665
f 665 661 662
f 663 666 662
f 662 666 665
f 667 664 668
f 668 664 665
f 664 667 670
f 670 667 669
f 666 671 665
f 665 671 668
f 661 664 660
f 660 664 670
f 660 670 638
f 638 670 639
f 658 672 663
f 663 672 673
f 658 657 672
f 672 657 674
f 653 656 675
f 675 656 644
f 653 675 654
f 654 675 676
f 675 644 677
f 677 644 643
f 676 675 678
f 678 675 677
f 679 680 676
f 676 680 654
f 674 680 672
f 672 680 679
f 627 639 625
f 625 639 681
f 626 682 632
f 632 682 642
f 681 682 625
f 625 682 626
f 669 683 681
f 681 683 682
f 667 684 669
f 669 684 683
f 682 683 642
f 642 683 685
f 681 639 669
f 669 639 670
f 686 641 685
f 685 641 642
f 641 686 640
f 640 686 643
f 686 687 643
f 643 687 677
f 687 686 688
f 688 686 685
f 689 687 690
f 690 687 688
f 683 684 685
f 685 684 688
f 684 691 688
f 688 691 690
f 687 689 677
f 677 689 678
f 693 678 692
f 692 678 689
f 692 695 694
f 694 695 696
f 692 689 695
f 695 689 690
f 692 694 693
f 693 694 673
f 693 673 679
f 679 673 672
f 679 676 693
f 693 676 678
f 684 667 691
f 691 667 668
f 696 691 671
f 671 691 668
f 696 695 691
f 691 695 690
f 694 696 666
f 666 696 671
f 666 663 694
f 694 663 673
f 648 655 657
f 657 655 674
f 674 655 680
f 680 655 654
f 593 162 594
f 594 162 290
f 598 597 601
f 601 597 602
f 615 608 616
f 616 608 607
f 607 609 616
f 616 609 614
f 697 595 613
f 613 595 598
f 597 608 602
f 602 608 615
f 594 290 628
f 628 290 203
f 628 612 617
f 617 612 611
f 593 609 162
f 162 609 200
f 105 29 698
f 698 29 699
f 268 126 701
f 701 126 700
f 126 125 700
f 700 125 702
f 252 703 250
f 250 703 704
f 32 268 705
f 705 268 701
f 288 105 706
f 706 105 698
f 29 32 699
f 699 32 705
f 707 251 706
f 706 251 288
f 250 704 125
f 125 704 702
f 703 252 707
f 707 252 251
f 706 708 707
f 707 708 709
f 707 709 703
f 703 709 710
f 703 710 704
f 704 710 711
f 704 711 702
f 702 711 712
f 706 698 708
f 708 698 713
f 698 699 713
f 713 699 714
f 699 705 714
f 714 705 715
f 717 708 716
f 716 708 713
f 719 720 718
f 718 720 721
f 722 723 719
f 719 723 720
f 724 725 723
f 723 725 720
f 724 726 725
f 725 726 727
f 728 721 725
f 725 721 720
f 721 728 729
f 729 728 730
f 729 731 721
f 721 731 718
f 724 723 732
f 732 723 722
f 722 710 732
f 732 710 709
f 722 733 710
f 710 733 711
f 719 734 722
f 722 734 733
f 734 719 735
f 735 719 718
f 724 732 726
f 726 732 717
f 717 732 708
f 708 732 709
f 731 736 718
f 718 736 735
f 737 734 738
f 738 734 735
f 736 739 735
f 735 739 738
f 740 737 741
f 741 737 738
f 737 740 743
f 743 740 742
f 739 744 738
f 738 744 741
f 734 737 733
f 733 737 743
f 733 743 711
f 711 743 712
f 736 731 746
f 746 731 745
f 731 729 745
f 745 729 730
f 727 726 747
f 747 726 717
f 748 727 749
f 749 727 747
f 747 717 750
f 750 717 716
f 749 747 751
f 751 747 750
f 749 752 748
f 748 752 753
f 730 753 745
f 745 753 752
f 728 725 748
f 748 725 727
f 730 728 753
f 753 728 748
f 700 702 754
f 754 702 712
f 705 701 715
f 715 701 755
f 754 755 700
f 700 755 701
f 742 756 754
f 754 756 755
f 740 757 742
f 742 757 756
f 755 756 715
f 715 756 758
f 754 712 742
f 742 712 743
f 759 714 758
f 758 714 715
f 714 759 713
f 713 759 716
f 759 760 716
f 716 760 750
f 760 759 761
f 761 759 758
f 762 760 763
f 763 760 761
f 756 757 758
f 758 757 761
f 757 764 761
f 761 764 763
f 760 762 750
f 750 762 751
f 766 751 765
f 765 751 762
f 767 765 769
f 769 765 768
f 765 762 768
f 768 762 763
f 765 767 766
f 766 767 746
f 766 746 752
f 752 746 745
f 752 749 766
f 766 749 751
f 757 740 764
f 764 740 741
f 769 764 744
f 744 764 741
f 769 768 764
f 764 768 763
f 767 769 739
f 739 769 744
f 739 736 767
f 767 736 746
f 219 217 208
f 208 217 209
f 209 217 210
f 210 217 193
f 198 580 199
f 199 580 511
f 76 75 289
f 289 75 272
f 277 207 291
f 291 207 184
f 290 183 203
f 203 183 84
f 490 580 142
f 142 580 198
f 142 198 143
f 143 198 197
f 149 276 72
f 72 276 73
f 104 103 279
f 279 103 770
f 770 596 279
f 279 596 595
f 605 596 771
f 771 596 770
f 771 770 772
f 772 770 103
f 772 103 773
f 773 103 102
f 155 774 101
f 101 774 102
f 773 102 97
f 97 102 774
f 775 773 100
f 100 773 97
f 773 775 772
f 772 775 776
f 772 776 771
f 771 776 777
f 200 606 197
f 197 606 777
f 189 71 778
f 778 71 74
f 97 774 98
f 98 774 155
f 183 161 184
f 184 161 291
f 777 276 197
f 197 276 143
f 777 606 771
f 771 606 605
f 613 612 697
f 697 612 202
f 595 697 279
f 279 697 202
f 73 276 776
f 776 276 777
f 776 775 73
f 73 775 74
f 100 778 775
f 775 778 74
f 778 100 189
f 189 100 99
f 245 242 99
f 99 242 189
f 131 33 256
f 28 1 95
f 95 1 62
f 27 2 28
f 28 2 1
f 265 115 266
f 266 115 114
f 95 62 69
f 69 62 64
f 62 61 64
f 64 61 65
f 61 13 65
f 65 13 130
f 13 12 130
f 130 12 14
f 31 11 32
f 32 11 268
f 15 12 31
f 31 12 11
f 31 30 15
f 15 30 231
f 30 106 231
f 231 106 232
f 287 237 106
f 106 237 232
f 254 90 287
f 287 90 237
f 253 44 254
f 254 44 90
f 253 249 44
f 44 249 7
f 267 127 268
f 268 127 126
f 10 3 241
f 241 3 116
f 3 2 116
f 116 2 114
f 2 27 114
f 114 27 266
f 27 26 266
f 266 26 113
f 26 286 113
f 113 286 110
f 286 243 110
f 110 243 255
f 243 242 255
f 255 242 256
f 242 245 256
f 256 245 131
f 245 244 131
f 131 244 132
f 265 37 115
f 115 37 41
f 41 37 42
f 42 37 40
f 92 91 40
f 40 91 42
f 236 233 92
f 92 233 91
f 191 194 236
f 236 194 233
f 258 285 244
f 244 285 132
f 257 55 258
f 258 55 285
f 257 154 201
f 201 154 185
f 56 201 204
f 204 201 180
f 55 257 56
f 56 257 201
f 204 85 56
f 56 85 52
f 86 122 53
f 53 122 79
f 212 215 86
f 86 215 122
f 211 216 212
f 212 216 215
f 192 280 211
f 211 280 216
f 191 240 192
f 192 240 280
f 249 124 7
f 7 124 8
f 124 127 8
f 8 127 241
f 127 267 241
f 241 267 10
f 10 267 9
f 9 267 11
