v -0.008684571832418442 0.07374271750450134 0.7756967544555664
v 0.004152819514274597 0.0698697417974472 0.7748115062713623
v -0.0026160255074501038 0.06478001177310944 0.7793026566505432
v -0.013772234320640564 0.06963818520307541 0.7809622883796692
v 0.014114223420619965 0.06025577336549759 0.7913559675216675
v 0.01744704693555832 0.06479164212942123 0.801668643951416
v 0.001658312976360321 0.06181088089942932 0.8014959096908569
v 0.0023405179381370544 0.05809734761714935 0.7917798161506653
v -0.01878412440419197 0.06935928016901016 0.7842437624931335
v -0.009533427655696869 0.06259819120168686 0.7820976972579956
v -0.02063511312007904 0.0749129131436348 0.7847800254821777
v -0.02885539084672928 0.08364150673151016 0.7905261516571045
v -0.02781492844223976 0.07705867290496826 0.7886723875999451
v -0.03618388995528221 0.08779174089431763 0.7919242978096008
v -0.023334428668022156 0.09323512017726898 0.7917507290840149
v -0.03465595841407776 0.09655140340328217 0.7886617183685303
v -0.014838941395282745 0.1077694520354271 0.7732346653938293
v -0.011241357773542404 0.1086312085390091 0.7609941959381104
v -0.026983065530657768 0.10688110440969467 0.7595820426940918
v -0.029115306213498116 0.10544328391551971 0.7723162174224854
v -0.01628127321600914 0.10331305116415024 0.742672860622406
v -0.023243460804224014 0.1055058091878891 0.7517300844192505
v -0.007347580045461655 0.10832085460424423 0.7531131505966187
v -0.002040587365627289 0.1061154454946518 0.7447367310523987
v -0.0015607066452503204 0.07827787846326828 0.7644597887992859
v 0.009985066950321198 0.07667390257120132 0.7635726928710938
v 0.008626237511634827 0.07521982491016388 0.7678517699241638
v -0.0031637251377105713 0.07726116478443146 0.7688606977462769
v -0.022949114441871643 0.07638147473335266 0.7893431186676025
v -0.016496166586875916 0.08471956849098206 0.7957086563110352
v -0.02035202458500862 0.08201830834150314 0.79008549451828
v -0.022263944149017334 0.07291968166828156 0.7850646376609802
v 0.03532027453184128 0.0701279565691948 0.755494236946106
v 0.0471549853682518 0.07595950365066528 0.7577455043792725
v 0.04651879519224167 0.07650277018547058 0.763673722743988
v 0.03596850484609604 0.07141929119825363 0.7604276537895203
v 0.03820313513278961 0.07246514409780502 0.788273274898529
v 0.04556672275066376 0.07889971882104874 0.7829420566558838
v 0.04930289834737778 0.08783727884292603 0.791840136051178
v 0.04005710780620575 0.0850108340382576 0.79642653465271
v 0.02841968834400177 0.06696954369544983 0.7965908646583557
v 0.03005088120698929 0.07806005328893661 0.8029714822769165
v 0.015792839229106903 0.07458923012018204 0.8080514669418335
v -0.001637198030948639 0.06853897869586945 0.807159960269928
v 0.04858126491308212 0.07784669101238251 0.7451878190040588
v 0.04025308042764664 0.07334811240434647 0.7417594790458679
v -0.08896683156490326 0.09494154155254364 0.7786092162132263
v -0.08720852434635162 0.09575596451759338 0.7730504870414734
v -0.08261966705322266 0.09105926752090454 0.7754596471786499
v -0.08464093506336212 0.09160369634628296 0.7806407809257507
v 0.04190358519554138 0.09199193120002747 0.732726514339447
v 0.040475815534591675 0.10194683074951172 0.733549952507019
v 0.04761602729558945 0.10083816945552826 0.7333182692527771
v 0.049158960580825806 0.09165152907371521 0.7344092130661011
v 0.03224729746580124 0.09224185347557068 0.7306793332099915
v 0.030487067997455597 0.10278831422328949 0.734417736530304
v -0.08525584638118744 0.10484530031681061 0.7849745750427246
v -0.0881601870059967 0.10064059495925903 0.7850323915481567
v -0.08307556807994843 0.09881040453910828 0.7870444059371948
v -0.0794144868850708 0.10298628360033035 0.7861356735229492
v -0.024417951703071594 0.0741388201713562 0.7846052646636963
v -0.019555266946554184 0.07481628656387329 0.7775998711585999
v -0.046166278421878815 0.07739423960447311 0.7841079831123352
v -0.03414789214730263 0.07679697871208191 0.7807787656784058
v -0.03437948226928711 0.0772344321012497 0.7874932289123535
v -0.04415178298950195 0.07926306873559952 0.7898826599121094
v -0.02419321984052658 0.0790027305483818 0.7595486044883728
v -0.012449786067008972 0.07932671904563904 0.7608177661895752
v -0.01535525918006897 0.079132080078125 0.7664588689804077
v -0.028601769357919693 0.07812841236591339 0.7669039964675903
v -0.008189540356397629 0.07646358758211136 0.7477092742919922
v -0.02017012983560562 0.0766986683011055 0.747497022151947
v -0.016579940915107727 0.07486042380332947 0.7400544285774231
v -0.00853133574128151 0.07422575354576111 0.7415618300437927
v -0.04232382774353027 0.07898136973381042 0.7497819066047668
v -0.05028582736849785 0.08315232396125793 0.7488093376159668
v -0.05090033635497093 0.08418187499046326 0.7442907691001892
v -0.04138877987861633 0.07953069359064102 0.7462220191955566
v 0.05463600903749466 0.10085184872150421 0.7335547208786011
v 0.055896542966365814 0.09173326939344406 0.7369272112846375
v -0.006624892354011536 0.09595232456922531 0.7254410982131958
v -0.0008025206625461578 0.08814723044633865 0.7204089164733887
v -0.011292491108179092 0.08691047877073288 0.7167456746101379
v -0.014716502279043198 0.09504180401563644 0.7230916619300842
v 0.037348173558712006 0.10960134863853455 0.7398163676261902
v 0.04480475187301636 0.10954006761312485 0.7375085353851318
v -0.08172573149204254 0.10868845880031586 0.7814934253692627
v -0.07665688544511795 0.10634230077266693 0.7818780541419983
v 0.015395581722259521 0.086777463555336 0.8066582679748535
v -0.0039049237966537476 0.07794374227523804 0.8074173331260681
v 0.03012823313474655 0.09226854890584946 0.8016471266746521
v 0.03955547511577606 0.09681455790996552 0.7962265014648438
v 0.04814714193344116 0.09936150908470154 0.7939268350601196
v -0.037866391241550446 0.0766693726181984 0.7749611735343933
v -0.0133555568754673 0.07721856981515884 0.7715054154396057
v -4.243478178977966e-05 0.07812479138374329 0.7599911689758301
v 0.004615370184183121 0.07009090483188629 0.731024980545044
v 0.015191972255706787 0.06985484063625336 0.732758641242981
v 0.009491205215454102 0.0697682797908783 0.7415731549263
v 0.0013895519077777863 0.07066775113344193 0.7381632924079895
v -0.00047597289085388184 0.07858223468065262 0.7192899584770203
v -0.0037079118192195892 0.07275959849357605 0.7235069870948792
v -0.013146370649337769 0.0729752704501152 0.7213736772537231
v -0.010415881872177124 0.07829399406909943 0.716818630695343
v -0.023638706654310226 0.0768626257777214 0.7960960865020752
v -0.012421410530805588 0.08658920228481293 0.8004634976387024
v 0.042650334537029266 0.08193225413560867 0.7355433702468872
v 0.049288250505924225 0.08283194154500961 0.7393171787261963
v 0.056898340582847595 0.08555616438388824 0.7415034770965576
v 0.02311355620622635 0.07253538072109222 0.7612819671630859
v 0.036529816687107086 0.07210931181907654 0.7641398906707764
v 0.03578290343284607 0.0714150220155716 0.7693178057670593
v 0.023052379488945007 0.07293713092803955 0.7644117474555969
v 0.016367793083190918 0.06474977731704712 0.7781432271003723
v 0.026572786271572113 0.06400521099567413 0.7845858335494995
v 0.006621614098548889 0.05985613167285919 0.7818976640701294
v 0.047331973910331726 0.07750099897384644 0.7722116708755493
v 0.05619891732931137 0.07867532968521118 0.7655352354049683
v 0.055693477392196655 0.08038581907749176 0.7743776440620422
v 0.05712950974702835 0.07937305420637131 0.7558203935623169
v 0.05740460008382797 0.08149503916501999 0.7471857666969299
v 0.05260273069143295 0.11237717419862747 0.7359084486961365
v 0.05409121513366699 0.08342502266168594 0.7821529507637024
v -0.005738444626331329 0.057547807693481445 0.7905705571174622
v -0.013277929276227951 0.05671121925115585 0.7883837223052979
v -0.01472838968038559 0.06082313135266304 0.7817793488502502
v -0.008190914988517761 0.060770146548748016 0.7829717397689819
v -0.04561612755060196 0.09196638315916061 0.7924622893333435
v -0.04577447846531868 0.08426497131586075 0.792762041091919
v -0.03451850265264511 0.08095423877239227 0.7921921610832214
v 0.025689393281936646 0.06903653591871262 0.749125063419342
v 0.030416980385780334 0.07148997485637665 0.7378441095352173
v -0.0495503731071949 0.07879588007926941 0.7781538367271423
v -0.07465865463018417 0.10403884947299957 0.7863943576812744
v -0.07714922726154327 0.09919711202383041 0.7886224985122681
v -0.0610048770904541 0.0961490273475647 0.7913656830787659
v -0.06021036207675934 0.10189782083034515 0.7884833812713623
v -0.05780746042728424 0.08710219711065292 0.7729186415672302
v -0.055566173046827316 0.08264955878257751 0.7771193981170654
v -0.058772023767232895 0.08555249869823456 0.7761281728744507
v -0.060755375772714615 0.0895843580365181 0.7716481685638428
v -0.04466467723250389 0.08192161470651627 0.7383379936218262
v -0.03718914836645126 0.07838766276836395 0.7392011880874634
v -0.04413243383169174 0.1003960371017456 0.7708075046539307
v -0.04127952829003334 0.10280457139015198 0.7829644680023193
v -0.030976831912994385 0.10330551117658615 0.7814958691596985
v -0.021085847169160843 0.07816469669342041 0.7528470158576965
v -0.031851522624492645 0.07773228734731674 0.7508245706558228
v -0.030815493315458298 0.07746318727731705 0.7468554973602295
v -0.04142692685127258 0.07763000577688217 0.7714548110961914
v -0.05055658146739006 0.08015555888414383 0.7724417448043823
v -0.04680413752794266 0.07935180515050888 0.7678831815719604
v -0.03816480189561844 0.0782667025923729 0.7666268348693848
v 0.011233367025852203 0.09079750627279282 0.7234783172607422
v 0.012007497251033783 0.07944080978631973 0.7218897342681885
v -0.08937709778547287 0.09690091758966446 0.7828549742698669
v -0.08449285477399826 0.09436741471290588 0.7850192785263062
v -0.00963328406214714 0.07852394878864288 0.7542370557785034
v -0.017748653888702393 0.103923000395298 0.7816673517227173
v 0.0017432831227779388 0.07734297215938568 0.7549722194671631
v -0.03160308673977852 0.09456700831651688 0.732155978679657
v -0.03343091532588005 0.0883660763502121 0.7277939915657043
v -0.03795304894447327 0.08949705213308334 0.7290802001953125
v -0.03716044872999191 0.09535172581672668 0.7304823398590088
v -0.07369732856750488 0.09590093046426773 0.7687369585037231
v -0.07624080777168274 0.09151767939329147 0.7716307044029236
v -0.08022409677505493 0.09322497993707657 0.7701202630996704
v -0.07729711383581161 0.0973900780081749 0.7679807543754578
v -0.054760534316301346 0.0814959704875946 0.7827579379081726
v -0.053351033478975296 0.0826101303100586 0.7890620231628418
v -0.06049707904458046 0.08524270355701447 0.7867403626441956
v -0.060025654733181 0.08478400111198425 0.7809858918190002
v -0.054463643580675125 0.08824910968542099 0.7921234965324402
v -0.060867417603731155 0.08995487540960312 0.7906967997550964
v -0.071261927485466 0.10188210755586624 0.7702639102935791
v -0.07017946243286133 0.10698838531970978 0.7760649919509888
v -0.058889493346214294 0.10369459539651871 0.7758540511131287
v -0.061492517590522766 0.09727578610181808 0.771799623966217
v 0.012014791369438171 0.10943306982517242 0.7471374869346619
v 0.01577044278383255 0.10554149001836777 0.7375441193580627
v 0.0019213110208511353 0.10211735963821411 0.7349034547805786
v -0.011013049632310867 0.09938812255859375 0.7320924401283264
v -0.02386404201388359 0.09527109563350677 0.7307414412498474
v -0.027980005368590355 0.1017410010099411 0.7401847839355469
v 0.005852684378623962 0.09893935173749924 0.7287782430648804
v -0.05575500801205635 0.09264717996120453 0.7687387466430664
v -0.05056275427341461 0.09941848367452621 0.775589108467102
v -0.051317956298589706 0.09736291319131851 0.7696672677993774
v 0.0032845064997673035 0.07459698617458344 0.748302698135376
v -0.07815198600292206 0.09458261728286743 0.7876442670822144
v 0.0374850332736969 0.11344821751117706 0.782124936580658
v 0.03786516189575195 0.11725469678640366 0.7694980502128601
v 0.029461801052093506 0.1152665838599205 0.771151065826416
v 0.028630241751670837 0.11050065606832504 0.7848691940307617
v -0.07776959240436554 0.08890318125486374 0.7777777910232544
v -0.07877300679683685 0.09002713114023209 0.7836606502532959
v -0.036116357892751694 0.078465037047863 0.7321908473968506
v -0.0415983647108078 0.08188756555318832 0.7331281304359436
v -0.040820371359586716 0.08366785198450089 0.7299743890762329
v -0.036330822855234146 0.0795414000749588 0.7257747054100037
v 0.018982209265232086 0.1029801070690155 0.733413815498352
v -0.017019696533679962 0.08730067312717438 0.7158512473106384
v -0.020689938217401505 0.0943853035569191 0.7208686470985413
v 0.028004609048366547 0.10853561758995056 0.7403108477592468
v 0.024824023246765137 0.11250434070825577 0.7485714554786682
v 0.03425181657075882 0.11451318860054016 0.749042809009552
v -0.03983418643474579 0.1021530032157898 0.7504773139953613
v 0.007334418594837189 0.1109997108578682 0.7542114853858948
v 0.021372556686401367 0.11345455795526505 0.7553055882453918
v 0.03251738101243973 0.11586839705705643 0.7561914324760437
v 0.04050878435373306 0.11809325218200684 0.7560862302780151
v 0.04164588451385498 0.11615502834320068 0.7482724189758301
v -0.07207031548023224 0.10658083856105804 0.7812878489494324
v -0.07454133778810501 0.1070374920964241 0.7761632204055786
v 0.049919940531253815 0.11951405555009842 0.7468301057815552
v 0.04841148853302002 0.12092476338148117 0.7558513879776001
v 0.018209904432296753 0.11368073523044586 0.7639637589454651
v 0.01466429978609085 0.11271902918815613 0.774152398109436
v 0.004744376987218857 0.11116746068000793 0.7624431252479553
v 0.0001536048948764801 0.11008425056934357 0.7724440693855286
v -0.038183726370334625 0.10547208786010742 0.760301411151886
v -0.08839970827102661 0.11502669006586075 0.7688806056976318
v -0.07927718758583069 0.10823649913072586 0.7705441117286682
v -0.08102262020111084 0.10346059501171112 0.7674248814582825
v -0.0879770964384079 0.11194291710853577 0.765571653842926
v -0.0750189796090126 0.10254110395908356 0.770270049571991
v -0.07916117459535599 0.11026452481746674 0.7758527398109436
v -0.003034837543964386 0.10507640242576599 0.7837523818016052
v -0.055709533393383026 0.0833011269569397 0.7672106623649597
v 0.01237533986568451 0.10547498613595963 0.7880581021308899
v -0.011618643999099731 0.09726635366678238 0.7938621044158936
v -0.0006765909492969513 0.09594043344259262 0.7973270416259766
v 0.028053484857082367 0.1041191890835762 0.7950422167778015
v 0.013563618063926697 0.09720052778720856 0.8011773228645325
v 0.046036168932914734 0.10858167707920074 0.7895711660385132
v 0.03703074902296066 0.1069217100739479 0.7912841439247131
v -0.0009263753890991211 0.08866480737924576 0.8041485548019409
v -0.09547791630029678 0.10044677555561066 0.770903468132019
v -0.09182597696781158 0.10192498564720154 0.7665578722953796
v 0.04556487500667572 0.11577418446540833 0.7811598777770996
v -0.002396579831838608 0.05914033204317093 0.7830970287322998
v 0.01361142098903656 0.0727802962064743 0.7515776753425598
v 0.012108035385608673 0.07497730106115341 0.756378173828125
v 0.021355167031288147 0.07026750594377518 0.7344820499420166
v 0.016649752855300903 0.06953133642673492 0.7450341582298279
v -0.09736582636833191 0.10186519473791122 0.7757023572921753
v -0.05296479910612106 0.0893872007727623 0.747286856174469
v -0.05259038507938385 0.08975331485271454 0.7446474432945251
v -0.006806522607803345 0.05858064442873001 0.7990524172782898
v -0.013713102787733078 0.05680796131491661 0.7960941791534424
v -0.021597500890493393 0.06584621220827103 0.8018114566802979
v -0.017768818885087967 0.05980793386697769 0.8009561896324158
v -0.010528944432735443 0.06370207667350769 0.8043575882911682
v -0.013955540955066681 0.07055316120386124 0.8049157857894897
v 0.022918134927749634 0.07183916866779327 0.7586255669593811
v 0.023141950368881226 0.07087963074445724 0.7547876834869385
v 0.02244824916124344 0.09140273928642273 0.7270179390907288
v 0.022623687982559204 0.0800100713968277 0.7258158922195435
v -0.05379778519272804 0.09453385323286057 0.7919431924819946
v -0.0448879599571228 0.09886448085308075 0.7896760702133179
v -0.05282729119062424 0.10041804611682892 0.7887792587280273
v -0.057807810604572296 0.10472327470779419 0.782873809337616
v -0.05869697034358978 0.08881212025880814 0.7671133279800415
v -0.05640669912099838 0.09319739788770676 0.7724922299385071
v 0.03163602203130722 0.0678928792476654 0.7757983207702637
v 0.02124057710170746 0.07037720084190369 0.7704809904098511
v -0.013742517679929733 0.06473933160305023 0.7822186350822449
v -0.018688522279262543 0.06677593290805817 0.7806711196899414
v -0.03363807126879692 0.0783240795135498 0.7598070502281189
v -0.048156898468732834 0.10214165598154068 0.7521031498908997
v -0.047924675047397614 0.10470320284366608 0.7600240707397461
v -0.043705202639102936 0.0792471319437027 0.7594889402389526
v -0.0964869037270546 0.1095731183886528 0.7789041996002197
v -0.09782964736223221 0.10479878634214401 0.7779175639152527
v -0.050872959196567535 0.1031060665845871 0.7832083106040955
v -0.02792038954794407 0.0752100795507431 0.7392795085906982
v -0.043956462293863297 0.09943181276321411 0.7463505864143372
v -0.050259947776794434 0.09686067700386047 0.7484182715415955
v -0.015909377485513687 0.07869067043066025 0.7155559659004211
v 0.04649583250284195 0.11927446722984314 0.7690639495849609
v -0.08440099656581879 0.09901746362447739 0.7681220769882202
v -0.08872895687818527 0.10534447431564331 0.7641201615333557
v -0.08920346200466156 0.11623923480510712 0.7729021906852722
v -0.09191983938217163 0.1142812967300415 0.777687132358551
v 0.031930111348629 0.08019173890352249 0.7310343384742737
v 0.010832220315933228 0.07619059085845947 0.7594513297080994
v -0.013445533812046051 0.08097908645868301 0.8032187819480896
v -0.02356259524822235 0.07281774282455444 0.7994400858879089
v -0.05123204365372658 0.08142682909965515 0.7584213614463806
v -0.027277471497654915 0.09229612350463867 0.7262722253799438
v -0.03578720986843109 0.10123621672391891 0.7378957867622375
v -0.040853723883628845 0.10174435377120972 0.7347795367240906
v -0.04726526886224747 0.1014423817396164 0.7382517457008362
v -0.053171735256910324 0.09688133001327515 0.7400219440460205
v -0.09345287084579468 0.11791794002056122 0.7693261504173279
v -0.09713790565729141 0.11617398262023926 0.7735618352890015
v -0.10130122303962708 0.1117405816912651 0.773764431476593
v -0.10207834839820862 0.10689655691385269 0.7731752991676331
v -0.10007070004940033 0.10315848141908646 0.7716551423072815
v -0.09223739802837372 0.11673245579004288 0.7654460668563843
v -0.09153011441230774 0.11384521424770355 0.7629342675209045
v -0.09094693511724472 0.10725429654121399 0.7627595663070679
v -0.09399273991584778 0.11757108569145203 0.761727511882782
v -0.09786611795425415 0.12001684308052063 0.7634676694869995
v -0.10971848666667938 0.11452953517436981 0.7625649571418762
v -0.10617756843566895 0.11516903340816498 0.7670305371284485
v -0.10648941993713379 0.11680757999420166 0.7651568055152893
v -0.10927334427833557 0.11732788383960724 0.7612554430961609
v -0.11145436763763428 0.11924174427986145 0.7572016716003418
v -0.11247335374355316 0.1160012036561966 0.7580759525299072
v -0.10234005004167557 0.11844904720783234 0.7658480405807495
v -0.10566459596157074 0.11978918313980103 0.7604882121086121
v -0.10222430527210236 0.12097553163766861 0.7584697008132935
v -0.10533638298511505 0.12286931276321411 0.7545794248580933
v -0.10865733027458191 0.12202857434749603 0.7563083171844482
v -0.1003120094537735 0.1201215386390686 0.7623797059059143
v -0.10129836946725845 0.11844773590564728 0.7675618529319763
v -0.11278966069221497 0.11822871118783951 0.7542643547058105
v -0.11221848428249359 0.12057048082351685 0.754843533039093
v -0.10984314978122711 0.12247791886329651 0.7536730766296387
v -0.11052791774272919 0.12120240926742554 0.7510958909988403
v -0.10515724867582321 0.10921698808670044 0.7685909271240234
v -0.10968457162380219 0.1121053695678711 0.7619743943214417
v -0.11118932068347931 0.11369384825229645 0.7565507292747498
v -0.11159221827983856 0.11614339053630829 0.7529200315475464
v -0.10795091092586517 0.1100584864616394 0.7590768337249756
v -0.10913074016571045 0.11232244223356247 0.7550715804100037
v -0.10909247398376465 0.11438257992267609 0.751724898815155
v -0.10512650012969971 0.10927855968475342 0.7561167478561401
v -0.1066550686955452 0.11187316477298737 0.7531978487968445
v -0.09939852356910706 0.1038215234875679 0.7656545042991638
v -0.10212678462266922 0.10500885546207428 0.7683065533638
v -0.10742971301078796 0.1131846234202385 0.7511330246925354
v -0.10943889617919922 0.11973360925912857 0.7499719858169556
v -0.09877125918865204 0.1201690211892128 0.757750391960144
v -0.10299619287252426 0.12151450663805008 0.7526991367340088
v -0.09744997322559357 0.11885535717010498 0.7564783096313477
v -0.10133510828018188 0.12041990458965302 0.7513427138328552
v -0.10609540343284607 0.12284187227487564 0.7502119541168213
v -0.10718834400177002 0.12314359098672867 0.7525120973587036
v -0.09646205604076385 0.10169707983732224 0.7685454487800598
v -0.0926487147808075 0.1036708652973175 0.764704704284668
v -0.09476088732481003 0.10556425154209137 0.7623291611671448
v -0.10119445621967316 0.11027321219444275 0.7537921667098999
v -0.09261708706617355 0.10892966389656067 0.7602450251579285
v -0.09323038905858994 0.11494780331850052 0.7593627572059631
v -0.09723663330078125 0.11697044968605042 0.7544258832931519
v -0.09793132543563843 0.11396005004644394 0.7532338500022888
v -0.10067190229892731 0.11804114282131195 0.7508257627487183
v -0.10131746530532837 0.11555220931768417 0.750820517539978
v -0.10372026264667511 0.11276759952306747 0.7513144016265869
v -0.10410681366920471 0.11824798583984375 0.7489746809005737
v -0.10502210259437561 0.12106329202651978 0.7493009567260742
v -0.1075257658958435 0.11702167242765427 0.7494480013847351
v -0.10346326977014542 0.1164209246635437 0.7494076490402222
v -0.10592427849769592 0.11505284905433655 0.7501940131187439
v -0.08688607811927795 0.09811042249202728 0.7396300435066223
v -0.0825541540980339 0.09997234493494034 0.7359194755554199
v -0.07916247844696045 0.09567703306674957 0.740659236907959
v -0.08262971043586731 0.09505946189165115 0.7443646788597107
v -0.08670257776975632 0.10726837813854218 0.7498022317886353
v -0.08935203403234482 0.10243229568004608 0.7472952604293823
v -0.08473509550094604 0.10136938840150833 0.7522217631340027
v -0.08090008050203323 0.10678509622812271 0.7528234720230103
v -0.08164416998624802 0.11105931550264359 0.7480539083480835
v -0.07585573196411133 0.10917577147483826 0.7499358654022217
v -0.07724843174219131 0.10818809270858765 0.7551453113555908
v -0.08001210540533066 0.10160864144563675 0.7556304931640625
v -0.061945151537656784 0.09584801644086838 0.7643752694129944
v -0.06037616729736328 0.1029721051454544 0.7634788155555725
v -0.05642435699701309 0.08668135106563568 0.7502263784408569
v -0.05632573738694191 0.09057682007551193 0.7485120296478271
v -0.08891846239566803 0.09937094897031784 0.7431546449661255
v -0.08469515293836594 0.09739840775728226 0.7486142516136169
v -0.07138075679540634 0.09784843027591705 0.7381021976470947
v -0.07426389306783676 0.09392321109771729 0.7404274940490723
v -0.07624742388725281 0.09758448600769043 0.7371565103530884
v -0.07349509745836258 0.10174985975027084 0.7365224361419678
v -0.06047165393829346 0.08727647364139557 0.7613492608070374
v -0.05748499557375908 0.08575017005205154 0.7560943365097046
v -0.06199485808610916 0.09088601171970367 0.7629874348640442
v -0.06944815069437027 0.10394424200057983 0.7392667531967163
v -0.06935913115739822 0.10953682661056519 0.7431040406227112
v -0.05496716499328613 0.10539017617702484 0.7507717609405518
v -0.05510568246245384 0.09951664507389069 0.747553825378418
v -0.08093680441379547 0.09659814834594727 0.7532343864440918
v -0.07743340730667114 0.09241035580635071 0.7447433471679688
v -0.07987776398658752 0.0928976982831955 0.7489752173423767
v -0.07276581227779388 0.11082565039396286 0.7500990629196167
v -0.0730169266462326 0.11018751561641693 0.7432479858398438
v -0.083140529692173 0.11854559183120728 0.7309482097625732
v -0.07591956853866577 0.11117979139089584 0.7378661632537842
v -0.07671666145324707 0.10734163969755173 0.7345744967460632
v -0.08303177356719971 0.11520979553461075 0.727077066898346
v -0.07233018428087234 0.10661592334508896 0.7390636205673218
v -0.07779407501220703 0.11278865486383438 0.7426321506500244
v -0.09426677227020264 0.10709205269813538 0.7283787727355957
v -0.0891428142786026 0.10865052044391632 0.7249928712844849
v -0.09713830053806305 0.10823529958724976 0.7317972183227539
v -0.057234637439250946 0.10714270919561386 0.7575452923774719
v -0.0955771654844284 0.1145910993218422 0.7396289706230164
v -0.0978371798992157 0.11014892160892487 0.7355701327323914
v -0.07878826558589935 0.10315517336130142 0.7336872220039368
v -0.08519692718982697 0.11173250526189804 0.7246193289756775
v -0.08512827008962631 0.12012890726327896 0.7348120808601379
v -0.08989857137203217 0.11815954744815826 0.740128755569458
v -0.08770021051168442 0.12215471267700195 0.7298150658607483
v -0.09291142225265503 0.12159857898950577 0.7336024641990662
v -0.09858454018831253 0.11807126551866531 0.7330722212791443
v -0.10016114264726639 0.11302295327186584 0.7303599715232849
v -0.09884176403284073 0.11018188297748566 0.728052020072937
v -0.08577041327953339 0.12030205130577087 0.7264614701271057
v -0.08555566519498825 0.11669348180294037 0.7233068943023682
v -0.08730356395244598 0.11204254627227783 0.7226981520652771
v -0.0879216343164444 0.120360367000103 0.7200692892074585
v -0.0904705673456192 0.12342176586389542 0.7219399809837341
v -0.10628905147314072 0.11969907581806183 0.7133128643035889
v -0.10442537069320679 0.11956494301557541 0.718926727771759
v -0.10299837589263916 0.12168194353580475 0.7183172106742859
v -0.10464365780353546 0.12200744450092316 0.7131890654563904
v -0.10191749781370163 0.12107916921377182 0.7244870066642761
v -0.10095944255590439 0.12235523015260696 0.722420334815979
v -0.09654722362756729 0.1237979456782341 0.7226741909980774
v -0.09875895082950592 0.1234811544418335 0.7170078754425049
v -0.09399694949388504 0.12337490916252136 0.7159913778305054
v -0.0959247425198555 0.12429369240999222 0.710863471031189
v -0.10069067031145096 0.124685138463974 0.711649477481842
v -0.09352432191371918 0.12394733726978302 0.7201793193817139
v -0.1048026904463768 0.12261147797107697 0.7096972465515137
v -0.10550836473703384 0.12083233892917633 0.7079287171363831
v -0.09589068591594696 0.12397362291812897 0.725884735584259
v -0.102174311876297 0.11530856788158417 0.7267259359359741
v -0.10497009754180908 0.11660134047269821 0.7182872295379639
v -0.10606895387172699 0.11679910123348236 0.711883008480072
v -0.10410494357347488 0.11860843002796173 0.706385612487793
v -0.10332620143890381 0.1133868396282196 0.7161334156990051
v -0.10412485897541046 0.11466261744499207 0.7104231119155884
v -0.1022057756781578 0.11664062738418579 0.7062839269638062
v -0.09990552067756653 0.11100175231695175 0.7138673663139343
v -0.10057705640792847 0.11309202015399933 0.7086907625198364
v -0.09683909267187119 0.10887496918439865 0.7235947251319885
v -0.1004730835556984 0.1109759733080864 0.7254643440246582
v -0.10064499825239182 0.11490824818611145 0.706865131855011
v -0.10199722647666931 0.12346050888299942 0.7058290839195251
v -0.10100600123405457 0.12059415876865387 0.7043632864952087
v -0.10185227543115616 0.12419134378433228 0.7075619697570801
v -0.09204240888357162 0.12272591888904572 0.7153784036636353
v -0.09454619139432907 0.12301890552043915 0.7096401453018188
v -0.09045344591140747 0.12082846462726593 0.7139796018600464
v -0.09356878697872162 0.12145856022834778 0.7080504894256592
v -0.09724587947130203 0.12357936799526215 0.7059537172317505
v -0.0982714518904686 0.12444646656513214 0.7070096731185913
v -0.09546113759279251 0.10878197103738785 0.7258456349372864
v -0.09045393764972687 0.10960937291383743 0.7235121726989746
v -0.09163688123226166 0.1091032475233078 0.7217493057250977
v -0.09493010491132736 0.11155734211206436 0.7123585343360901
v -0.08794660866260529 0.11186308413743973 0.720754086971283
v -0.0871160551905632 0.11687149852514267 0.7193281650543213
v -0.0897778570652008 0.1181502714753151 0.7132927179336548
v -0.09122053533792496 0.11460629105567932 0.7121503949165344
v -0.09250105172395706 0.11965082585811615 0.7073948979377747
v -0.09285002946853638 0.11649781465530396 0.7082875967025757
v -0.09656576812267303 0.11342214047908783 0.7080551385879517
v -0.09575600922107697 0.12014993280172348 0.7043116092681885
v -0.09662580490112305 0.1222887635231018 0.7048923969268799
v -0.09996865689754486 0.11862620711326599 0.7044994831085205
v -0.09514521807432175 0.11749040335416794 0.7054696679115295
v -0.09850489348173141 0.11599481105804443 0.7055624127388
v -0.07046391069889069 0.08951029181480408 0.715619683265686
v -0.06616543233394623 0.08694310486316681 0.7137337327003479
v -0.06372181326150894 0.08571137487888336 0.7186673879623413
v -0.06798197329044342 0.08863617479801178 0.7207483649253845
v -0.06785083562135696 0.10251922160387039 0.7164647579193115
v -0.07134506106376648 0.09881383925676346 0.716904878616333
v -0.06912947446107864 0.09838858246803284 0.7213414907455444
v -0.06500013172626495 0.10233429819345474 0.7216281294822693
v -0.06359494477510452 0.10375925898551941 0.7129525542259216
v -0.05966554582118988 0.10310070216655731 0.7190401554107666
v -0.06196603924036026 0.10372012853622437 0.7252678275108337
v -0.06650622189044952 0.0990673378109932 0.7253329753875732
v -0.056402478367090225 0.09761092811822891 0.7360155582427979
v -0.05212285369634628 0.10286186635494232 0.7339683175086975
v -0.07179327309131622 0.09400457888841629 0.7164077758789062
v -0.06974093616008759 0.09338021278381348 0.7210712432861328
v -0.05491461232304573 0.08732722699642181 0.717069149017334
v -0.05839135870337486 0.08520200103521347 0.7192441821098328
v -0.059352487325668335 0.0860191136598587 0.7158069014549255
v -0.056630928069353104 0.08849484473466873 0.7141680121421814
v -0.054591886699199677 0.08673841506242752 0.7382115125656128
v -0.04945968836545944 0.0845516175031662 0.7353808879852295
v -0.057318493723869324 0.09160975366830826 0.737096905708313
v -0.05242796987295151 0.093406081199646 0.7161961197853088
v -0.05207691341638565 0.10037213563919067 0.7178017497062683
v -0.04280715435743332 0.0976049080491066 0.7256553173065186
v -0.04308334365487099 0.09139886498451233 0.7260187268257141
v -0.06751982867717743 0.09390075504779816 0.7251731157302856
v -0.062246087938547134 0.08539681136608124 0.7225672602653503
v -0.06639155000448227 0.08856578916311264 0.724535346031189
v -0.056499361991882324 0.10395461320877075 0.7220057249069214
v -0.05571558699011803 0.09972283989191055 0.7152612209320068
v -0.06382715702056885 0.09968443214893341 0.6952812075614929
v -0.05645374581217766 0.09569836407899857 0.7097141742706299
v -0.05842123180627823 0.09018562734127045 0.7096405625343323
v -0.06405949592590332 0.09532507508993149 0.6944845914840698
v -0.05468263477087021 0.09389670193195343 0.7130686640739441
v -0.05828443169593811 0.10126625746488571 0.7108234763145447
v -0.07608383893966675 0.09163039177656174 0.6987425684928894
v -0.07112988829612732 0.08984848856925964 0.6974465250968933
v -0.07739248871803284 0.0950898602604866 0.7008399963378906
v -0.046327173709869385 0.10343602299690247 0.7297558188438416
v -0.044868260622024536 0.08566847443580627 0.7297055125236511
v -0.07587103545665741 0.10230335593223572 0.7006317973136902
v -0.0777231901884079 0.09846832603216171 0.7011420726776123
v -0.061459269374608994 0.0875159502029419 0.7113503217697144
v -0.0664275586605072 0.09145228564739227 0.6952530741691589
v -0.06595355272293091 0.10313717275857925 0.6973344683647156
v -0.07074567675590515 0.10477249324321747 0.7000230550765991
v -0.06691299378871918 0.1027546301484108 0.6919770836830139
v -0.07201440632343292 0.10436135530471802 0.6942348480224609
v -0.0771431252360344 0.10283192247152328 0.6943544149398804
v -0.07897908985614777 0.09917392581701279 0.6948566436767578
v -0.0788927748799324 0.09566475450992584 0.6948345303535461
v -0.06508366018533707 0.09913820028305054 0.69004887342453
v -0.06564593315124512 0.09529575705528259 0.6897178292274475
v -0.0676949992775917 0.09211444854736328 0.6926424503326416
v -0.06570139527320862 0.09793280065059662 0.6858450770378113
v -0.06834884732961655 0.10257592052221298 0.6851645112037659
v -0.08095867931842804 0.10095322132110596 0.6756720542907715
v -0.0799589604139328 0.10119011998176575 0.6810599565505981
v -0.07895513623952866 0.1018790602684021 0.6806742548942566
v -0.0798560306429863 0.10215425491333008 0.675201416015625
v -0.07778872549533844 0.10318748652935028 0.686873197555542
v -0.07705947756767273 0.10342657566070557 0.6848890781402588
v -0.07339201867580414 0.10408009588718414 0.6850639581680298
v -0.07433494925498962 0.10342955589294434 0.6789318323135376
v -0.06922484934329987 0.10059670358896255 0.6788197159767151
v -0.07092605531215668 0.10053814202547073 0.6742528676986694
v -0.07549063861370087 0.10348708927631378 0.6739374399185181
v -0.06945621222257614 0.1026524007320404 0.6836285591125488
v -0.07928729057312012 0.10198895633220673 0.6721901893615723
v -0.08121856302022934 0.10167629271745682 0.6715618371963501
v -0.07325150072574615 0.10432730615139008 0.6873799562454224
v -0.08055488765239716 0.10005861520767212 0.6891490817070007
v -0.08167234063148499 0.09899601340293884 0.6816450953483582
v -0.08307750523090363 0.0983787551522255 0.676050066947937
v -0.08165644109249115 0.09801581501960754 0.671992838382721
v -0.08122283965349197 0.09530146420001984 0.6819196343421936
v -0.08203952759504318 0.09538477659225464 0.6765778064727783
v -0.08091036975383759 0.09513041377067566 0.6728436946868896
v -0.07945377379655838 0.0926051065325737 0.6819794178009033
v -0.07990507781505585 0.09296134859323502 0.6769734621047974
v -0.07754771411418915 0.09284298121929169 0.6920359134674072
v -0.07996923476457596 0.09628713130950928 0.6908982396125793
v -0.07961098104715347 0.0935746356844902 0.6738572120666504
v -0.0768694207072258 0.1015409380197525 0.6695533394813538
v -0.07690094411373138 0.09731832146644592 0.6692849397659302
v -0.07643883675336838 0.10197778791189194 0.6712068915367126
v -0.0678882896900177 0.09942208975553513 0.6793707609176636
v -0.0694597139954567 0.09892173856496811 0.6732488870620728
v -0.06723257899284363 0.09665199369192123 0.6798044443130493
v -0.06889414042234421 0.09615711867809296 0.6735954284667969
v -0.07204152643680573 0.09988094866275787 0.6702806353569031
v -0.07261699438095093 0.1006305068731308 0.6710493564605713
v -0.076236292719841 0.092434361577034 0.6951431035995483
v -0.07181842625141144 0.09078992158174515 0.694170355796814
v -0.07340645045042038 0.09087787568569183 0.6914523839950562
v -0.07567601650953293 0.09067785739898682 0.6809239387512207
v -0.069069504737854 0.0915684700012207 0.6901695132255554
v -0.06672222912311554 0.09446729719638824 0.6857462525367737
v -0.06851654499769211 0.09374410659074783 0.6800423264503479
v -0.07140751928091049 0.0915074571967125 0.6800707578659058
v -0.06990262120962143 0.09362667053937912 0.6743549108505249
v -0.07199689000844955 0.09234602004289627 0.6758688688278198
v -0.07656986266374588 0.09104573726654053 0.6762167811393738
v -0.07275471091270447 0.09459976851940155 0.6716013550758362
v -0.07184892147779465 0.09705567359924316 0.6702873110771179
v -0.07712294906377792 0.09451844543218613 0.6707133054733276
v -0.07372432202100754 0.09286890923976898 0.6730986833572388
v -0.07705588638782501 0.09276813268661499 0.6725555658340454
v -0.04626069962978363 0.08392433822154999 0.7324957847595215
v -0.0473807118833065 0.09106190502643585 0.6921469569206238
v -0.043860096484422684 0.08920998871326447 0.6910133361816406
v -0.042412251234054565 0.0866953581571579 0.6939885020256042
v -0.046305492520332336 0.08729851990938187 0.695377767086029
v -0.045385729521512985 0.10008838772773743 0.6983484625816345
v -0.04829812049865723 0.09735798835754395 0.6964110732078552
v -0.04860757291316986 0.09471093118190765 0.7004489898681641
v -0.046324074268341064 0.09791074693202972 0.7019866704940796
v -0.04092641919851303 0.10100775957107544 0.6977880597114563
v -0.04176918789744377 0.09858591109514236 0.7010196447372437
v -0.04515877738595009 0.09579326957464218 0.7049282789230347
v -0.047095123678445816 0.09149524569511414 0.7045523524284363
v -0.03595724701881409 0.08787601441144943 0.7205797433853149
v -0.03242705389857292 0.09221743792295456 0.7203928828239441
v -0.020146872848272324 0.08044993877410889 0.7140058279037476
v -0.02329949662089348 0.0758286565542221 0.7173366546630859
v -0.028209403157234192 0.07952776551246643 0.710807740688324
v -0.024904124438762665 0.08324762433767319 0.7097058892250061
v -0.04878518357872963 0.09410949051380157 0.6941478848457336
v -0.04879755526781082 0.09045322239398956 0.6979501843452454
v -0.03240733593702316 0.08870819211006165 0.6974606513977051
v -0.035831891000270844 0.0853334441781044 0.6971423625946045
v -0.03824799507856369 0.08612947165966034 0.6937071084976196
v -0.03448008745908737 0.08806373178958893 0.6942802667617798
v -0.028040196746587753 0.07595337927341461 0.7203116416931152
v -0.03137640655040741 0.07729819416999817 0.7241019606590271
v -0.034247394651174545 0.07798881083726883 0.719037652015686
v -0.03224847465753555 0.07831026613712311 0.7129985094070435
v -0.03786630928516388 0.08143085986375809 0.7203987240791321
v -0.031985439360141754 0.09276459366083145 0.6986356973648071
v -0.034767962992191315 0.0967382863163948 0.7012003660202026
v -0.022792402654886246 0.09232829511165619 0.7128674387931824
v -0.02257458120584488 0.0878695622086525 0.7114840149879456
v -0.04752698913216591 0.0872446745634079 0.7022625803947449
v -0.04002360999584198 0.0842508003115654 0.6979579329490662
v -0.044496338814496994 0.08398547768592834 0.699649453163147
v -0.04052889719605446 0.09843647480010986 0.7026543617248535
v -0.03609834611415863 0.09646361321210861 0.6991547346115112
v -0.034445106983184814 0.09815295040607452 0.6846584677696228
v -0.033439308404922485 0.09323709458112717 0.6933693885803223
v -0.0357043519616127 0.0897180587053299 0.6906623840332031
v -0.03613286837935448 0.09645282477140427 0.6832106709480286
v -0.03351714834570885 0.09200065582990646 0.6962141990661621
v -0.035478606820106506 0.09828400611877441 0.6960688233375549
v -0.04793264716863632 0.0975210964679718 0.6835397481918335
v -0.0435505285859108 0.09490784257650375 0.6827068328857422
v -0.048807188868522644 0.0998833104968071 0.6853325963020325
v -0.027817588299512863 0.09512333571910858 0.7167273759841919
v -0.044803231954574585 0.10482160747051239 0.6888588070869446
v -0.0482022650539875 0.10288739204406738 0.6868574023246765
v -0.039895981550216675 0.08864428102970123 0.6903002262115479
v -0.039405934512615204 0.09507611393928528 0.6828067302703857
v -0.03485365957021713 0.10137901455163956 0.6869653463363647
v -0.0393662229180336 0.10489340871572495 0.6893073320388794
v -0.03416548669338226 0.10381064563989639 0.6831284761428833
v -0.03891133517026901 0.10687059164047241 0.6858700513839722
v -0.04461820423603058 0.10727077722549438 0.6845466494560242
v -0.047450724989175797 0.10502034425735474 0.683542013168335
v -0.04846085608005524 0.10240527242422104 0.6820025444030762
v -0.03383393585681915 0.10027255862951279 0.6807116270065308
v -0.035701751708984375 0.09810638427734375 0.6794179081916809
v -0.03928426653146744 0.09630601108074188 0.6791680455207825
v -0.0333232544362545 0.10263808071613312 0.676964521408081
v -0.033929724246263504 0.10725370049476624 0.6780319213867188
v -0.043793026357889175 0.11125527322292328 0.670001208782196
v -0.04417287930846214 0.10993856936693192 0.6736165285110474
v -0.04309801757335663 0.11048973351716995 0.6739575266838074
v -0.043283574283123016 0.11227244883775711 0.6703949570655823
v -0.04341595247387886 0.10917675495147705 0.6787418127059937
v -0.042020391672849655 0.10974705964326859 0.6778686046600342
v -0.03870058432221413 0.10923891514539719 0.6790646314620972
v -0.038983967155218124 0.11128288507461548 0.6743683815002441
v -0.03433717042207718 0.10921798646450043 0.6727264523506165
v -0.035165317356586456 0.11093384772539139 0.6692695617675781
v -0.039013415575027466 0.11285972595214844 0.671110987663269
v -0.03494461253285408 0.10882789641618729 0.6771799325942993
v -0.04232102632522583 0.11353279650211334 0.6684048175811768
v -0.04300321638584137 0.1136205717921257 0.6672230958938599
v -0.03895748779177666 0.10899515450000763 0.6807282567024231
v -0.046683527529239655 0.10641909390687943 0.6788865923881531
v -0.04585379734635353 0.10874786972999573 0.6723628044128418
v -0.044924717396497726 0.11081349849700928 0.6680976748466492
v -0.042831163853406906 0.11218558996915817 0.665557861328125
v -0.046338506042957306 0.10620876401662827 0.6721907258033752
v -0.045350611209869385 0.10883209854364395 0.6670010089874268
v -0.043153032660484314 0.11006578803062439 0.6645832061767578
v -0.045520178973674774 0.10315339267253876 0.6714991331100464
v -0.04432765394449234 0.10636046528816223 0.6669536232948303
v -0.04632657393813133 0.09985673427581787 0.6776440143585205
v -0.04730575159192085 0.10324715077877045 0.6783033013343811
v -0.04278519004583359 0.10834290832281113 0.6651812791824341
v -0.039387047290802 0.113954097032547 0.6665283441543579
v -0.03979688510298729 0.11196178197860718 0.6645720601081848
v -0.03899562731385231 0.11398328840732574 0.6678171753883362
v -0.03359301760792732 0.10806365311145782 0.6724071502685547
v -0.034550588577985764 0.1100645363330841 0.6681709289550781
v -0.03344720974564552 0.10554003715515137 0.6714617013931274
v -0.03495236486196518 0.10835546255111694 0.6669331192970276
v -0.03628378361463547 0.11217265576124191 0.6661387085914612
v -0.036709222942590714 0.11260184645652771 0.6678149700164795
v -0.04729099199175835 0.09901802241802216 0.6800639033317566
v -0.04389441758394241 0.09649883210659027 0.6798149943351746
v -0.04291728883981705 0.09771024435758591 0.6771306395530701
v -0.04248781502246857 0.1009548231959343 0.6709625720977783
v -0.03833077475428581 0.09751768410205841 0.6766457557678223
v -0.035017743706703186 0.09975352138280869 0.6766666173934937
v -0.035087160766124725 0.10324050486087799 0.6707776784896851
v -0.038053881376981735 0.1013600155711174 0.6703605651855469
v -0.03629601374268532 0.10680697858333588 0.6660315990447998
v -0.03874702379107475 0.1049482598900795 0.6660281419754028
v -0.041871972382068634 0.10457443445920944 0.6665154099464417
v -0.03833024948835373 0.1092086136341095 0.6643962860107422
v -0.0372219942510128 0.11068990081548691 0.6647019386291504
v -0.04034200310707092 0.10998249799013138 0.6642167568206787
v -0.039524227380752563 0.10764981061220169 0.6645091772079468
v -0.04105932265520096 0.1077956110239029 0.6647155284881592
v -0.020475011318922043 0.0845196396112442 0.7128362655639648
v -0.03335881233215332 0.06647628545761108 0.7886725068092346
v -0.03174233064055443 0.06701233237981796 0.7835647463798523
v -0.022653020918369293 0.053170353174209595 0.7801770567893982
v -0.026161612942814827 0.05878289043903351 0.777188777923584
v -0.02244596555829048 0.04971317946910858 0.7863363027572632
v -0.027010980993509293 0.05244968831539154 0.7962818145751953
v -0.023541919887065887 0.05027809739112854 0.7923016548156738
v -0.029460905119776726 0.06374398618936539 0.7788569927215576
v -0.0333189032971859 0.06380690634250641 0.793882429599762
v -0.030681677162647247 0.057988107204437256 0.7978036403656006
v -0.040549345314502716 0.05800715088844299 0.7905327677726746
v -0.037596747279167175 0.05173378810286522 0.7944678664207458
v -0.03332056105136871 0.04580306261777878 0.793567955493927
v -0.027465801686048508 0.04483071342110634 0.7891380786895752
v -0.02497979998588562 0.04539119452238083 0.7846707105636597
v -0.03775389865040779 0.06166313588619232 0.784806489944458
v -0.035297878086566925 0.06232251971960068 0.780034601688385
v -0.030822422355413437 0.05983131378889084 0.7761314511299133
v -0.04255562648177147 0.05674915015697479 0.7789806127548218
v -0.047665342688560486 0.047562066465616226 0.7781631946563721
v -0.043965116143226624 0.02851884812116623 0.7741953134536743
v -0.040291428565979004 0.03255310282111168 0.7782458066940308
v -0.04301009699702263 0.0336502343416214 0.7783316969871521
v -0.046315208077430725 0.029568202793598175 0.7750804424285889
v -0.040092356503009796 0.036440860480070114 0.7822334170341492
v -0.04209708794951439 0.03705122321844101 0.7809972763061523
v -0.04491346329450607 0.04160109907388687 0.7809460163116455
v -0.04781036823987961 0.03773186355829239 0.7774779200553894
v -0.0473221093416214 0.04473632574081421 0.7775875329971313
v -0.04922598972916603 0.042769961059093475 0.7740550637245178
v -0.0508880652487278 0.0340895801782608 0.7741721272468567
v -0.049757104367017746 0.02827031910419464 0.7732291221618652
v -0.053141482174396515 0.03088659793138504 0.7711161375045776
v -0.04792419821023941 0.026929259300231934 0.7708297967910767
v -0.04616495221853256 0.0420728474855423 0.7834771275520325
v -0.03333476930856705 0.037777625024318695 0.783886730670929
v -0.03651976212859154 0.032760217785835266 0.7774825692176819
v -0.0407443568110466 0.02892060950398445 0.7720857858657837
v -0.04570145905017853 0.027641668915748596 0.7684410214424133
v -0.03347581997513771 0.03452184423804283 0.7743867635726929
v -0.03826878219842911 0.031812749803066254 0.769603431224823
v -0.04298992455005646 0.03144539147615433 0.7662416696548462
v -0.03279490023851395 0.03824397921562195 0.7709222435951233
v -0.03801165148615837 0.03537265211343765 0.7674300074577332
v -0.026407521218061447 0.04671669006347656 0.7777866721153259
v -0.027763694524765015 0.041058499366045 0.7816956043243408
v -0.04176746681332588 0.034076012670993805 0.7659308910369873
v -0.053033314645290375 0.029730983078479767 0.7682772278785706
v -0.05044366419315338 0.03074653446674347 0.7656633853912354
v -0.049039945006370544 0.04601941257715225 0.772623598575592
v -0.052532557398080826 0.0393948033452034 0.7710394859313965
v -0.051726434379816055 0.041452109813690186 0.768772542476654
v -0.04683666303753853 0.049083080142736435 0.7709558010101318
v -0.05013488605618477 0.04282471910119057 0.7667086124420166
v -0.05382395163178444 0.0360238179564476 0.7671339511871338
v -0.05401578173041344 0.03545107692480087 0.7700300216674805
v -0.024089686572551727 0.049433957785367966 0.7794463038444519
v -0.02644721418619156 0.055261723697185516 0.7764908075332642
v -0.0283622145652771 0.052787989377975464 0.7751657962799072
v -0.03486296162009239 0.04437892884016037 0.7684365510940552
v -0.03311236947774887 0.05656993389129639 0.7737514972686768
v -0.03876277059316635 0.05781261622905731 0.7757346034049988
v -0.04370412230491638 0.049938350915908813 0.768871545791626
v -0.03918037936091423 0.04858410358428955 0.7677617073059082
v -0.046713266521692276 0.04304109141230583 0.7651966214179993
v -0.04370482265949249 0.042277827858924866 0.7650532722473145
v -0.040086038410663605 0.03892721235752106 0.7655205130577087
v -0.048103686422109604 0.03786438703536987 0.7640801072120667
v -0.051618076860904694 0.03720618784427643 0.7649232745170593
v -0.04673786461353302 0.033564187586307526 0.764406144618988
v -0.045464176684617996 0.038721680641174316 0.7644057273864746
v -0.04390355199575424 0.03595228120684624 0.7646997570991516
v -0.018458787351846695 0.07382797449827194 0.7201234102249146
v -0.02249227464199066 0.07301953434944153 0.7254275679588318
v -0.015390101820230484 0.07158903032541275 0.7263938188552856
v -0.005516868084669113 0.07077699899673462 0.7286778688430786
v 0.004825334995985031 0.07244580239057541 0.725594699382782
v -0.007451549172401428 0.07174535095691681 0.7350835204124451
v -0.01748301461338997 0.07243799418210983 0.7323948740959167
v -0.02773611806333065 0.0749579593539238 0.7310755848884583
v -0.001018710434436798 0.07360909879207611 0.7431774735450745
f 2 3 1
f 1 3 4
f 5 6 8
f 8 6 7
f 9 4 10
f 10 4 3
f 12 13 11
f 11 13 9
f 14 12 16
f 16 12 15
f 18 19 17
f 17 19 20
f 22 23 21
f 21 23 24
f 26 27 25
f 25 27 28
f 30 31 29
f 29 31 32
f 33 34 36
f 36 34 35
f 37 38 40
f 40 38 39
f 41 42 6
f 6 42 43
f 6 43 7
f 7 43 44
f 45 34 46
f 46 34 33
f 48 49 47
f 47 49 50
f 52 53 51
f 51 53 54
f 56 52 55
f 55 52 51
f 58 59 57
f 57 59 60
f 61 62 4
f 4 62 1
f 64 65 63
f 63 65 66
f 68 69 67
f 67 69 70
f 72 73 71
f 71 73 74
f 76 77 75
f 75 77 78
f 53 79 54
f 54 79 80
f 82 83 81
f 81 83 84
f 85 86 52
f 52 86 53
f 57 60 87
f 87 60 88
f 89 90 43
f 43 90 44
f 43 42 89
f 89 42 91
f 40 39 92
f 92 39 93
f 94 70 64
f 64 70 69
f 13 61 9
f 9 61 4
f 25 28 69
f 69 28 95
f 96 25 68
f 68 25 69
f 98 99 97
f 97 99 100
f 101 102 104
f 104 102 103
f 106 30 105
f 105 30 29
f 51 54 107
f 107 54 108
f 54 80 108
f 108 80 109
f 111 112 110
f 110 112 113
f 115 5 114
f 114 5 116
f 115 41 5
f 5 41 6
f 36 35 111
f 111 35 117
f 35 118 117
f 117 118 119
f 34 120 35
f 35 120 118
f 34 45 120
f 120 45 121
f 125 126 124
f 124 126 127
f 128 129 14
f 14 129 130
f 33 131 46
f 46 131 132
f 133 94 63
f 63 94 64
f 134 135 137
f 137 135 136
f 139 140 138
f 138 140 141
f 77 142 78
f 78 142 143
f 144 145 20
f 20 145 146
f 148 149 147
f 147 149 72
f 151 152 150
f 150 152 153
f 82 101 83
f 83 101 104
f 101 82 155
f 155 82 154
f 156 157 58
f 58 157 59
f 158 68 147
f 147 68 67
f 159 146 15
f 15 146 16
f 68 158 96
f 96 158 160
f 129 66 130
f 130 66 65
f 162 163 161
f 161 163 164
f 166 167 165
f 165 167 168
f 170 171 169
f 169 171 172
f 174 171 173
f 173 171 170
f 176 177 175
f 175 177 178
f 180 181 179
f 179 181 24
f 182 183 21
f 21 183 184
f 81 185 82
f 82 185 154
f 186 187 188
f 188 187 144
f 158 71 160
f 160 71 189
f 190 135 157
f 157 135 59
f 169 172 139
f 139 172 140
f 147 72 158
f 158 72 71
f 192 193 191
f 191 193 194
f 167 166 49
f 49 166 195
f 196 190 50
f 50 190 157
f 197 198 200
f 200 198 199
f 21 24 182
f 182 24 181
f 146 159 20
f 20 159 17
f 182 181 81
f 81 181 185
f 201 185 180
f 180 185 181
f 202 203 83
f 83 203 84
f 205 206 204
f 204 206 85
f 207 22 184
f 184 22 21
f 179 24 208
f 208 24 23
f 208 209 179
f 179 209 205
f 209 210 205
f 205 210 206
f 212 206 211
f 211 206 210
f 179 205 180
f 180 205 204
f 213 176 88
f 88 176 214
f 86 85 212
f 212 85 206
f 193 217 218
f 217 219 218
f 218 219 220
f 219 18 220
f 220 18 17
f 19 221 20
f 20 221 144
f 222 223 225
f 225 223 224
f 175 226 176
f 176 226 214
f 227 87 214
f 214 87 88
f 220 17 228
f 228 17 159
f 134 213 60
f 60 213 88
f 138 229 151
f 151 229 152
f 193 192 210
f 210 192 211
f 230 194 218
f 218 194 193
f 231 232 228
f 228 232 230
f 233 234 91
f 91 234 89
f 235 236 93
f 93 236 92
f 230 232 234
f 234 232 237
f 47 238 48
f 48 238 239
f 240 191 235
f 235 191 236
f 5 8 116
f 116 8 241
f 242 243 189
f 189 243 160
f 244 245 98
f 98 245 99
f 156 246 47
f 47 246 238
f 76 247 77
f 77 247 248
f 250 125 249
f 249 125 124
f 252 253 251
f 251 253 254
f 111 110 36
f 36 110 255
f 256 33 255
f 255 33 36
f 257 258 154
f 154 258 155
f 63 169 133
f 133 169 139
f 66 170 63
f 63 170 169
f 173 170 129
f 129 170 66
f 129 128 173
f 173 128 259
f 128 260 259
f 259 260 261
f 213 134 262
f 262 134 137
f 263 264 186
f 186 264 187
f 112 265 113
f 113 265 266
f 11 267 268
f 234 233 230
f 230 233 194
f 153 269 70
f 70 269 67
f 175 178 165
f 165 178 141
f 150 153 94
f 94 153 70
f 271 221 270
f 270 221 207
f 269 153 272
f 272 153 152
f 121 45 109
f 109 45 108
f 47 50 156
f 156 50 157
f 57 273 58
f 58 273 274
f 145 275 260
f 260 275 261
f 276 149 143
f 143 149 78
f 148 269 75
f 75 269 272
f 207 277 270
f 270 277 278
f 195 196 49
f 49 196 50
f 59 135 60
f 60 135 134
f 83 104 202
f 202 104 279
f 149 148 78
f 78 148 75
f 247 278 248
f 248 278 277
f 183 182 84
f 84 182 81
f 48 239 281
f 281 239 282
f 227 223 283
f 283 223 222
f 223 226 224
f 224 226 168
f 281 282 224
f 224 282 225
f 165 168 175
f 175 168 226
f 264 263 138
f 138 263 229
f 14 16 128
f 128 16 260
f 220 228 218
f 218 228 230
f 87 227 284
f 284 227 283
f 260 16 145
f 145 16 146
f 244 98 258
f 258 98 155
f 58 274 156
f 156 274 246
f 107 285 51
f 51 285 55
f 243 286 160
f 160 286 96
f 234 237 89
f 89 237 90
f 46 132 107
f 107 132 285
f 253 252 249
f 249 252 250
f 286 26 96
f 96 26 25
f 106 105 287
f 287 105 288
f 272 152 289
f 289 152 229
f 138 151 139
f 139 151 133
f 183 290 161
f 161 290 162
f 291 292 277
f 277 292 293
f 151 150 133
f 133 150 94
f 262 275 177
f 177 275 187
f 144 187 145
f 145 187 275
f 273 57 284
f 284 57 87
f 174 136 190
f 190 136 135
f 111 117 112
f 112 117 38
f 117 119 38
f 38 119 123
f 112 38 265
f 265 38 37
f 287 288 254
f 254 288 251
f 228 159 231
f 231 159 15
f 223 227 226
f 226 227 214
f 147 67 148
f 148 67 269
f 224 168 281
f 281 168 167
f 199 163 200
f 200 163 162
f 45 46 108
f 108 46 107
f 281 167 48
f 48 167 49
f 161 164 291
f 291 164 292
f 38 123 39
f 293 294 277
f 277 294 248
f 284 283 296
f 296 283 295
f 284 296 273
f 273 296 297
f 274 273 298
f 298 273 297
f 246 274 299
f 299 274 298
f 283 222 295
f 295 222 300
f 222 225 300
f 300 225 301
f 301 225 302
f 302 225 282
f 303 304 300
f 300 304 295
f 306 307 305
f 305 307 308
f 309 310 308
f 308 310 305
f 308 307 312
f 312 307 311
f 313 314 312
f 312 314 315
f 311 316 312
f 312 316 313
f 317 304 311
f 311 304 316
f 315 309 312
f 312 309 308
f 318 319 321
f 321 319 320
f 319 318 309
f 309 318 310
f 311 307 317
f 317 307 306
f 306 297 317
f 317 297 296
f 306 322 297
f 297 322 298
f 305 323 306
f 306 323 322
f 323 305 324
f 324 305 310
f 304 317 295
f 295 317 296
f 318 325 310
f 310 325 324
f 323 324 326
f 326 324 327
f 324 325 327
f 327 325 328
f 326 327 329
f 329 327 330
f 329 331 326
f 326 331 332
f 333 330 328
f 328 330 327
f 323 326 322
f 322 326 332
f 322 332 298
f 298 332 299
f 325 318 334
f 334 318 321
f 313 316 335
f 335 316 304
f 335 336 313
f 313 336 314
f 304 303 335
f 335 303 337
f 336 335 338
f 338 335 337
f 336 339 314
f 314 339 340
f 246 299 238
f 238 299 341
f 239 342 282
f 282 342 302
f 342 239 341
f 341 239 238
f 341 331 342
f 342 331 343
f 331 329 343
f 343 329 344
f 342 343 302
f 302 343 345
f 341 299 331
f 331 299 332
f 346 301 345
f 345 301 302
f 346 303 301
f 301 303 300
f 347 337 346
f 346 337 303
f 347 346 348
f 348 346 345
f 349 347 350
f 350 347 348
f 343 344 345
f 345 344 348
f 344 351 348
f 348 351 350
f 337 347 338
f 338 347 349
f 353 338 352
f 352 338 349
f 352 355 354
f 354 355 356
f 352 349 355
f 355 349 350
f 352 354 353
f 353 354 334
f 353 334 339
f 339 334 321
f 339 336 353
f 353 336 338
f 329 330 344
f 344 330 351
f 356 351 333
f 333 351 330
f 356 355 351
f 351 355 350
f 354 356 328
f 328 356 333
f 328 325 354
f 354 325 334
f 309 315 319
f 319 315 320
f 320 340 321
f 321 340 339
f 320 315 340
f 340 315 314
f 137 136 261
f 261 136 259
f 140 166 141
f 141 166 165
f 172 171 195
f 195 171 196
f 171 174 196
f 196 174 190
f 178 177 264
f 264 177 187
f 172 195 140
f 140 195 166
f 137 261 262
f 262 261 275
f 178 264 141
f 141 264 138
f 262 177 213
f 213 177 176
f 136 174 259
f 259 174 173
f 358 359 357
f 357 359 360
f 362 363 361
f 361 363 364
f 361 364 365
f 365 364 366
f 367 368 370
f 370 368 369
f 76 371 247
f 247 371 372
f 373 374 362
f 362 374 363
f 376 377 375
f 375 377 378
f 289 229 380
f 380 229 379
f 381 379 263
f 263 379 229
f 383 384 382
f 382 384 385
f 386 368 374
f 374 368 363
f 76 289 371
f 371 289 380
f 377 376 359
f 359 376 387
f 388 386 360
f 360 386 374
f 389 383 366
f 366 383 390
f 392 393 391
f 391 393 394
f 383 382 390
f 390 382 395
f 396 365 390
f 390 365 366
f 389 366 367
f 367 366 364
f 357 397 358
f 358 397 398
f 373 399 357
f 357 399 397
f 389 367 400
f 400 367 370
f 382 385 375
f 375 385 372
f 357 360 373
f 373 360 374
f 361 401 362
f 362 401 402
f 387 388 359
f 359 388 360
f 363 368 364
f 364 368 367
f 358 398 403
f 403 398 404
f 396 392 405
f 405 392 391
f 392 395 393
f 393 395 378
f 393 403 394
f 394 403 404
f 375 378 382
f 382 378 395
f 365 396 406
f 406 396 405
f 362 402 373
f 373 402 399
f 271 270 400
f 400 270 384
f 401 361 406
f 406 361 365
f 381 369 386
f 386 369 368
f 392 396 395
f 395 396 390
f 393 378 403
f 403 378 377
f 403 377 358
f 358 377 359
f 406 405 408
f 408 405 407
f 406 408 401
f 401 408 409
f 401 409 402
f 402 409 410
f 402 410 399
f 399 410 411
f 405 391 407
f 407 391 412
f 391 394 412
f 412 394 413
f 394 404 413
f 413 404 414
f 415 416 412
f 412 416 407
f 418 419 417
f 417 419 420
f 421 422 418
f 418 422 419
f 419 422 424
f 424 422 423
f 425 426 424
f 424 426 427
f 423 428 424
f 424 428 425
f 427 420 424
f 424 420 419
f 420 429 417
f 417 429 430
f 423 422 431
f 431 422 421
f 421 409 431
f 431 409 408
f 421 432 409
f 409 432 410
f 418 433 421
f 421 433 432
f 434 433 417
f 417 433 418
f 431 416 423
f 423 416 428
f 416 431 407
f 407 431 408
f 435 434 430
f 430 434 417
f 433 434 436
f 436 434 437
f 434 435 437
f 437 435 438
f 436 437 439
f 439 437 440
f 439 441 436
f 436 441 442
f 438 443 437
f 437 443 440
f 436 442 433
f 433 442 432
f 432 442 410
f 410 442 411
f 435 430 445
f 445 430 444
f 430 429 444
f 444 429 446
f 425 428 447
f 447 428 416
f 426 425 448
f 448 425 447
f 416 415 447
f 447 415 449
f 447 449 448
f 448 449 450
f 451 452 448
f 448 452 426
f 446 452 444
f 444 452 451
f 399 411 397
f 397 411 453
f 398 454 404
f 404 454 414
f 454 398 453
f 453 398 397
f 453 441 454
f 454 441 455
f 441 439 455
f 455 439 456
f 454 455 414
f 414 455 457
f 441 453 442
f 442 453 411
f 458 413 457
f 457 413 414
f 458 415 413
f 413 415 412
f 458 459 415
f 415 459 449
f 459 458 460
f 460 458 457
f 461 459 462
f 462 459 460
f 455 456 457
f 457 456 460
f 456 463 460
f 460 463 462
f 459 461 449
f 449 461 450
f 465 450 464
f 464 450 461
f 464 467 466
f 466 467 468
f 464 461 467
f 467 461 462
f 464 466 465
f 465 466 445
f 465 445 451
f 451 445 444
f 451 448 465
f 465 448 450
f 439 440 456
f 456 440 463
f 468 463 443
f 443 463 440
f 468 467 463
f 463 467 462
f 466 468 438
f 438 468 443
f 438 435 466
f 466 435 445
f 420 427 429
f 429 427 446
f 446 427 452
f 452 427 426
f 370 369 188
f 188 369 186
f 371 376 372
f 372 376 375
f 380 379 387
f 387 379 388
f 379 381 388
f 388 381 386
f 385 384 278
f 278 384 270
f 380 387 371
f 371 387 376
f 400 370 271
f 271 370 188
f 385 278 372
f 372 278 247
f 400 384 389
f 389 384 383
f 369 381 186
f 186 381 263
f 221 271 144
f 144 271 188
f 221 19 207
f 207 19 22
f 19 18 22
f 22 18 23
f 18 219 23
f 23 219 208
f 469 470 472
f 472 470 471
f 474 475 473
f 473 475 476
f 473 476 477
f 477 476 478
f 480 481 479
f 479 481 482
f 483 484 474
f 474 484 475
f 486 487 485
f 485 487 488
f 489 490 77
f 77 490 142
f 491 489 248
f 248 489 77
f 493 494 492
f 492 494 495
f 496 480 484
f 484 480 475
f 486 497 487
f 487 497 471
f 498 496 472
f 472 496 484
f 499 493 478
f 478 493 500
f 501 502 504
f 504 502 503
f 493 492 500
f 500 492 505
f 506 477 500
f 500 477 478
f 499 478 479
f 479 478 476
f 469 507 470
f 470 507 508
f 483 509 469
f 469 509 507
f 479 482 499
f 499 482 510
f 492 495 485
f 485 495 511
f 483 469 484
f 484 469 472
f 473 512 474
f 474 512 513
f 497 498 471
f 471 498 472
f 475 480 476
f 476 480 479
f 470 508 514
f 514 508 515
f 506 502 516
f 516 502 501
f 503 502 488
f 488 502 505
f 514 515 503
f 503 515 504
f 485 488 492
f 492 488 505
f 477 506 517
f 517 506 516
f 474 513 483
f 483 513 509
f 510 292 494
f 494 292 164
f 512 473 517
f 517 473 477
f 491 481 496
f 496 481 480
f 502 506 505
f 505 506 500
f 503 488 514
f 514 488 487
f 514 487 470
f 470 487 471
f 517 516 519
f 519 516 518
f 517 519 512
f 512 519 520
f 512 520 513
f 513 520 521
f 513 521 509
f 509 521 522
f 516 501 518
f 518 501 523
f 501 504 523
f 523 504 524
f 524 504 525
f 525 504 515
f 526 527 523
f 523 527 518
f 529 530 528
f 528 530 531
f 532 533 529
f 529 533 530
f 530 533 535
f 535 533 534
f 536 537 535
f 535 537 538
f 534 539 535
f 535 539 536
f 538 531 535
f 535 531 530
f 540 541 531
f 531 541 528
f 533 532 534
f 534 532 542
f 532 520 542
f 542 520 519
f 532 543 520
f 520 543 521
f 529 544 532
f 532 544 543
f 544 529 545
f 545 529 528
f 534 542 539
f 539 542 527
f 527 542 518
f 518 542 519
f 541 546 528
f 528 546 545
f 547 544 548
f 548 544 545
f 546 549 545
f 545 549 548
f 550 547 551
f 551 547 548
f 547 550 553
f 553 550 552
f 549 554 548
f 548 554 551
f 544 547 543
f 543 547 553
f 543 553 521
f 521 553 522
f 546 541 556
f 556 541 555
f 541 540 555
f 555 540 557
f 536 539 558
f 558 539 527
f 537 536 559
f 559 536 558
f 527 526 558
f 558 526 560
f 559 558 561
f 561 558 560
f 559 562 537
f 537 562 563
f 557 563 555
f 555 563 562
f 509 522 507
f 507 522 564
f 508 565 515
f 515 565 525
f 565 508 564
f 564 508 507
f 564 552 565
f 565 552 566
f 552 550 566
f 566 550 567
f 565 566 525
f 525 566 568
f 564 522 552
f 552 522 553
f 569 524 568
f 568 524 525
f 569 526 524
f 524 526 523
f 570 560 569
f 569 560 526
f 570 569 571
f 571 569 568
f 572 570 573
f 573 570 571
f 566 567 568
f 568 567 571
f 567 574 571
f 571 574 573
f 570 572 560
f 560 572 561
f 576 561 575
f 575 561 572
f 575 578 577
f 577 578 579
f 575 572 578
f 578 572 573
f 575 577 576
f 576 577 556
f 576 556 562
f 562 556 555
f 562 559 576
f 576 559 561
f 550 551 567
f 567 551 574
f 579 574 554
f 554 574 551
f 579 578 574
f 574 578 573
f 579 554 577
f 577 554 549
f 549 546 577
f 577 546 556
f 531 538 540
f 540 538 557
f 557 538 563
f 563 538 537
f 481 294 482
f 482 294 293
f 580 486 511
f 511 486 485
f 490 489 497
f 497 489 498
f 489 491 498
f 498 491 496
f 163 495 164
f 164 495 494
f 580 490 486
f 486 490 497
f 482 293 510
f 510 293 292
f 495 163 511
f 511 163 199
f 494 493 510
f 510 493 499
f 481 491 294
f 294 491 248
f 582 583 581
f 581 583 584
f 586 587 585
f 585 587 588
f 585 588 589
f 589 588 590
f 592 593 591
f 591 593 594
f 595 596 598
f 598 596 597
f 599 600 586
f 586 600 587
f 601 602 604
f 604 602 603
f 605 606 608
f 608 606 607
f 609 607 200
f 200 607 606
f 610 611 613
f 613 611 612
f 600 614 587
f 587 614 592
f 596 605 597
f 597 605 608
f 602 615 603
f 603 615 583
f 616 614 584
f 584 614 600
f 611 618 617
f 617 618 590
f 620 621 619
f 619 621 622
f 610 623 611
f 611 623 618
f 624 589 618
f 618 589 590
f 617 590 591
f 591 590 588
f 581 625 582
f 582 625 626
f 599 627 581
f 581 627 625
f 591 594 617
f 617 594 628
f 601 610 598
f 598 610 613
f 581 584 599
f 599 584 600
f 585 629 586
f 586 629 630
f 615 616 583
f 583 616 584
f 587 592 588
f 588 592 591
f 582 626 631
f 631 626 632
f 624 620 633
f 633 620 619
f 621 620 604
f 604 620 623
f 631 632 621
f 621 632 622
f 610 601 623
f 623 601 604
f 589 624 634
f 634 624 633
f 586 630 599
f 599 630 627
f 203 202 628
f 628 202 612
f 629 585 634
f 634 585 589
f 609 593 614
f 614 593 592
f 620 624 623
f 623 624 618
f 631 621 603
f 603 621 604
f 582 631 583
f 583 631 603
f 634 633 636
f 636 633 635
f 634 636 629
f 629 636 637
f 629 637 630
f 630 637 638
f 630 638 627
f 627 638 639
f 633 619 635
f 635 619 640
f 619 622 640
f 640 622 641
f 641 622 642
f 642 622 632
f 644 635 643
f 643 635 640
f 645 646 648
f 648 646 647
f 649 650 646
f 646 650 647
f 647 650 652
f 652 650 651
f 652 653 655
f 655 653 654
f 651 656 652
f 652 656 653
f 655 648 652
f 652 648 647
f 648 657 645
f 645 657 658
f 650 649 651
f 651 649 659
f 649 637 659
f 659 637 636
f 649 660 637
f 637 660 638
f 661 660 646
f 646 660 649
f 662 661 645
f 645 661 646
f 651 659 656
f 656 659 644
f 644 659 635
f 635 659 636
f 663 662 658
f 658 662 645
f 664 661 665
f 665 661 662
f 663 666 662
f 662 666 665
f 667 664 668
f 668 664 665
f 664 667 670
f 670 667 669
f 666 671 665
f 665 671 668
f 661 664 660
f 660 664 670
f 660 670 638
f 638 670 639
f 658 672 663
f 663 672 673
f 658 657 672
f 672 657 674
f 653 656 675
f 675 656 644
f 653 675 654
f 654 675 676
f 675 644 677
f 677 644 643
f 676 675 678
f 678 675 677
f 679 680 676
f 676 680 654
f 674 680 672
f 672 680 679
f 627 639 625
f 625 639 681
f 626 682 632
f 632 682 642
f 681 682 625
f 625 682 626
f 669 683 681
f 681 683 682
f 667 684 669
f 669 684 683
f 682 683 642
f 642 683 685
f 681 639 669
f 669 639 670
f 686 641 685
f 685 641 642
f 641 686 640
f 640 686 643
f 686 687 643
f 643 687 677
f 687 686 688
f 688 686 685
f 689 687 690
f 690 687 688
f 683 684 685
f 685 684 688
f 684 691 688
f 688 691 690
f 687 689 677
f 677 689 678
f 693 678 692
f 692 678 689
f 692 695 694
f 694 695 696
f 692 689 695
f 695 689 690
f 692 694 693
f 693 694 673
f 693 673 679
f 679 673 672
f 679 676 693
f 693 676 678
f 684 667 691
f 691 667 668
f 696 691 671
f 671 691 668
f 696 695 691
f 691 695 690
f 694 696 666
f 666 696 671
f 666 663 694
f 694 663 673
f 648 655 657
f 657 655 674
f 674 655 680
f 680 655 654
f 593 162 594
f 594 162 290
f 598 597 601
f 601 597 602
f 615 608 616
f 616 608 607
f 607 609 616
f 616 609 614
f 697 595 613
f 613 595 598
f 597 608 602
f 602 608 615
f 594 290 628
f 628 290 203
f 628 612 617
f 617 612 611
f 593 609 162
f 162 609 200
f 105 29 698
f 698 29 699
f 268 126 701
f 701 126 700
f 126 125 700
f 700 125 702
f 252 703 250
f 250 703 704
f 32 268 705
f 705 268 701
f 288 105 706
f 706 105 698
f 29 32 699
f 699 32 705
f 707 251 706
f 706 251 288
f 250 704 125
f 125 704 702
f 703 252 707
f 707 252 251
f 706 708 707
f 707 708 709
f 707 709 703
f 703 709 710
f 703 710 704
f 704 710 711
f 704 711 702
f 702 711 712
f 706 698 708
f 708 698 713
f 698 699 713
f 713 699 714
f 699 705 714
f 714 705 715
f 717 708 716
f 716 708 713
f 719 720 718
f 718 720 721
f 722 723 719
f 719 723 720
f 724 725 723
f 723 725 720
f 724 726 725
f 725 726 727
f 728 721 725
f 725 721 720
f 721 728 729
f 729 728 730
f 729 731 721
f 721 731 718
f 724 723 732
f 732 723 722
f 722 710 732
f 732 710 709
f 722 733 710
f 710 733 711
f 719 734 722
f 722 734 733
f 734 719 735
f 735 719 718
f 724 732 726
f 726 732 717
f 717 732 708
f 708 732 709
f 731 736 718
f 718 736 735
f 737 734 738
f 738 734 735
f 736 739 735
f 735 739 738
f 740 737 741
f 741 737 738
f 737 740 743
f 743 740 742
f 739 744 738
f 738 744 741
f 734 737 733
f 733 737 743
f 733 743 711
f 711 743 712
f 736 731 746
f 746 731 745
f 731 729 745
f 745 729 730
f 727 726 747
f 747 726 717
f 748 727 749
f 749 727 747
f 747 717 750
f 750 717 716
f 749 747 751
f 751 747 750
f 749 752 748
f 748 752 753
f 730 753 745
f 745 753 752
f 728 725 748
f 748 725 727
f 730 728 753
f 753 728 748
f 700 702 754
f 754 702 712
f 705 701 715
f 715 701 755
f 754 755 700
f 700 755 701
f 742 756 754
f 754 756 755
f 740 757 742
f 742 757 756
f 755 756 715
f 715 756 758
f 754 712 742
f 742 712 743
f 759 714 758
f 758 714 715
f 714 759 713
f 713 759 716
f 759 760 716
f 716 760 750
f 760 759 761
f 761 759 758
f 762 760 763
f 763 760 761
f 756 757 758
f 758 757 761
f 757 764 761
f 761 764 763
f 760 762 750
f 750 762 751
f 766 751 765
f 765 751 762
f 767 765 769
f 769 765 768
f 765 762 768
f 768 762 763
f 765 767 766
f 766 767 746
f 766 746 752
f 752 746 745
f 752 749 766
f 766 749 751
f 757 740 764
f 764 740 741
f 769 764 744
f 744 764 741
f 769 768 764
f 764 768 763
f 767 769 739
f 739 769 744
f 739 736 767
f 767 736 746
f 219 217 208
f 208 217 209
f 209 217 210
f 210 217 193
f 198 580 199
f 199 580 511
f 76 75 289
f 289 75 272
f 277 207 291
f 291 207 184
f 290 183 203
f 203 183 84
f 490 580 142
f 142 580 198
f 142 198 143
f 143 198 197
f 149 276 72
f 72 276 73
f 104 103 279
f 279 103 770
f 770 596 279
f 279 596 595
f 605 596 771
f 771 596 770
f 771 770 772
f 772 770 103
f 772 103 773
f 773 103 102
f 155 774 101
f 101 774 102
f 773 102 97
f 97 102 774
f 775 773 100
f 100 773 97
f 773 775 772
f 772 775 776
f 772 776 771
f 771 776 777
f 200 606 197
f 197 606 777
f 189 71 778
f 778 71 74
f 97 774 98
f 98 774 155
f 183 161 184
f 184 161 291
f 777 276 197
f 197 276 143
f 777 606 771
f 771 606 605
f 613 612 697
f 697 612 202
f 595 697 279
f 279 697 202
f 73 276 776
f 776 276 777
f 776 775 73
f 73 775 74
f 100 778 775
f 775 778 74
f 778 100 189
f 189 100 99
f 245 242 99
f 99 242 189
f 131 33 256
f 28 1 95
f 95 1 62
f 27 2 28
f 28 2 1
f 265 115 266
f 266 115 114
f 95 62 69
f 69 62 64
f 62 61 64
f 64 61 65
f 61 13 65
f 65 13 130
f 13 12 130
f 130 12 14
f 31 11 32
f 32 11 268
f 15 12 31
f 31 12 11
f 31 30 15
f 15 30 231
f 30 106 231
f 231 106 232
f 287 237 106
f 106 237 232
f 254 90 287
f 287 90 237
f 253 44 254
f 254 44 90
f 253 249 44
f 44 249 7
f 267 127 268
f 268 127 126
f 10 3 241
f 241 3 116
f 3 2 116
f 116 2 114
f 2 27 114
f 114 27 266
f 27 26 266
f 266 26 113
f 26 286 113
f 113 286 110
f 286 243 110
f 110 243 255
f 243 242 255
f 255 242 256
f 242 245 256
f 256 245 131
f 245 244 131
f 131 244 132
f 265 37 115
f 115 37 41
f 41 37 42
f 42 37 40
f 92 91 40
f 40 91 42
f 236 233 92
f 92 233 91
f 191 194 236
f 236 194 233
f 258 285 244
f 244 285 132
f 257 55 258
f 258 55 285
f 257 154 201
f 201 154 185
f 56 201 204
f 204 201 180
f 55 257 56
f 56 257 201
f 204 85 56
f 56 85 52
f 86 122 53
f 53 122 79
f 212 215 86
f 86 215 122
f 211 216 212
f 212 216 215
f 192 280 211
f 211 280 216
f 191 240 192
f 192 240 280
f 249 124 7
f 7 124 8
f 124 127 8
f 8 127 241
f 127 267 241
f 241 267 10
f 10 267 9
f 9 267 11
