v -0.010456807911396027 0.016748154535889626 1.6493903398513794
v 0.0014647506177425385 0.01362726092338562 1.648172378540039
v -0.006107501685619354 0.009608753025531769 1.6528903245925903
v -0.016050633043050766 0.013429809361696243 1.6549406051635742
v 0.010685432702302933 0.0013322718441486359 1.6618423461914062
v 0.01586698368191719 0.0035959165543317795 1.6723198890686035
v -0.000536598265171051 0.002108914777636528 1.6736863851547241
v -0.0021248459815979004 0.00017682090401649475 1.6637686491012573
v -0.021516751497983932 0.013958942145109177 1.6589229106903076
v -0.013385210186243057 0.007901132106781006 1.656240463256836
v -0.023065995424985886 0.020183231681585312 1.6608870029449463
v -0.030416959896683693 0.027454733848571777 1.6656458377838135
v -0.029587605968117714 0.020392075181007385 1.662956714630127
v -0.037705205380916595 0.030569808557629585 1.6663392782211304
v -0.02418646216392517 0.03669515997171402 1.6671385765075684
v -0.035953499376773834 0.039173513650894165 1.663301706314087
v -0.015904191881418228 0.04978489503264427 1.6467565298080444
v -0.012385360896587372 0.05051371082663536 1.6342583894729614
v -0.027994554489850998 0.04854773357510567 1.6329352855682373
v -0.03015405870974064 0.047346532344818115 1.6458503007888794
v -0.017742518335580826 0.045243583619594574 1.6156702041625977
v -0.02433827891945839 0.04715101048350334 1.625022530555725
v -0.008570697158575058 0.050223059952259064 1.6263344287872314
v -0.0034164413809776306 0.04811831936240196 1.6178746223449707
v -0.0027557164430618286 0.0202479287981987 1.6377110481262207
v 0.008594367653131485 0.018784400075674057 1.6368051767349243
v 0.006796497851610184 0.017921753227710724 1.6411734819412231
v -0.0045402757823467255 0.01955801621079445 1.642263650894165
v -0.023533474653959274 0.02226327173411846 1.6679328680038452
v -0.016255658119916916 0.028561407700181007 1.672350525856018
v -0.021214645355939865 0.026812028139829636 1.666800618171692
v -0.02429300919175148 0.019277017563581467 1.6633186340332031
v 0.03421003744006157 0.011916663497686386 1.6286156177520752
v 0.046061042696237564 0.017779754474759102 1.6309071779251099
v 0.04542648419737816 0.018237115815281868 1.6367896795272827
v 0.03481249138712883 0.013136958703398705 1.633445382118225
v 0.03703747317194939 0.012489063665270805 1.6602656841278076
v 0.04457255080342293 0.01977345533668995 1.6557785272598267
v 0.048507291823625565 0.02887796238064766 1.664904236793518
v 0.03941753879189491 0.025320637971162796 1.6693761348724365
v 0.026957262307405472 0.00625494122505188 1.6673661470413208
v 0.029743310064077377 0.016994737088680267 1.6752564907073975
v 0.016350585967302322 0.012465773150324821 1.6800763607025146
v -0.0012179948389530182 0.008544927462935448 1.6804256439208984
v 0.04751155897974968 0.019742239266633987 1.618371844291687
v 0.03917641565203667 0.015201784670352936 1.6148953437805176
v -0.08825575560331345 0.04153439775109291 1.6454882621765137
v -0.08446997404098511 0.042589325457811356 1.6410290002822876
v -0.08122573047876358 0.03696976229548454 1.6436922550201416
v -0.08474617451429367 0.03698815777897835 1.6480456590652466
v 0.04083012416958809 0.033959586173295975 1.6059296131134033
v 0.03938744589686394 0.0438695102930069 1.6068317890167236
v 0.04654312506318092 0.04280547425150871 1.6066136360168457
v 0.04810687527060509 0.03362974897027016 1.6076472997665405
v 0.031175363808870316 0.03426225483417511 1.6037839651107788
v 0.029371682554483414 0.044700950384140015 1.6076594591140747
v -0.08585021644830704 0.049817971885204315 1.6542904376983643
v -0.08911697566509247 0.04623523727059364 1.6526737213134766
v -0.08500325679779053 0.043173931539058685 1.6560813188552856
v -0.08094394207000732 0.04712175577878952 1.657479166984558
v -0.025972452014684677 0.01686171442270279 1.6582988500595093
v -0.020911913365125656 0.017158566042780876 1.6510601043701172
v -0.04751001298427582 0.019342508167028427 1.656255841255188
v -0.03533685952425003 0.018740125000476837 1.654004454612732
v -0.03579288721084595 0.019255924969911575 1.6607251167297363
v -0.04585415869951248 0.02085110917687416 1.6623214483261108
v -0.02525148168206215 0.02090313285589218 1.6327669620513916
v -0.013528097420930862 0.02120635285973549 1.6340121030807495
v -0.016488689929246902 0.021065235137939453 1.6397072076797485
v -0.029688691720366478 0.019993821159005165 1.6401256322860718
v -0.009156972169876099 0.01843339018523693 1.620914101600647
v -0.021054305136203766 0.018785402178764343 1.620747447013855
v -0.017209995537996292 0.017063122242689133 1.6134053468704224
v -0.009367227554321289 0.016248665750026703 1.614805817604065
v -0.04417749494314194 0.02021840214729309 1.623603343963623
v -0.052715498954057693 0.02366751804947853 1.6232926845550537
v -0.05253796651959419 0.026459649205207825 1.617958664894104
v -0.04274412617087364 0.0211203433573246 1.619614839553833
v 0.053583864122629166 0.04283232241868973 1.6068618297576904
v 0.05487250164151192 0.03370746970176697 1.6101813316345215
v -0.00873919203877449 0.03815305978059769 1.5978639125823975
v -0.0024426206946372986 0.030671630054712296 1.5931943655014038
v -0.014457359910011292 0.027009446173906326 1.589703917503357
v -0.017453312873840332 0.03604661673307419 1.595495581626892
v 0.03624163940548897 0.051456667482852936 1.613118052482605
v 0.04371163621544838 0.05144444480538368 1.6108343601226807
v -0.08078555762767792 0.053385600447654724 1.6530693769454956
v -0.076774962246418 0.05110974609851837 1.6552218198776245
v 0.01685139164328575 0.025606952607631683 1.6806310415267944
v -0.0018806196749210358 0.0181826651096344 1.6825079917907715
v 0.030553285032510757 0.03192870318889618 1.675153374671936
v 0.03929637745022774 0.03734390065073967 1.6696025133132935
v 0.04748639836907387 0.040550366044044495 1.6671897172927856
v -0.03892233967781067 0.01864563301205635 1.6480803489685059
v -0.014605384320020676 0.019352376461029053 1.6448521614074707
v -0.001163031905889511 0.019986506551504135 1.6331855058670044
v 0.003799915313720703 0.012182602658867836 1.6041017770767212
v 0.014211069792509079 0.011876750737428665 1.6057392358779907
v 0.008499283343553543 0.011668819934129715 1.614686369895935
v 0.0005387105047702789 0.012651338241994381 1.611333966255188
v -0.001638852059841156 0.020897721871733665 1.592315912246704
v -0.0042932406067848206 0.01497592031955719 1.5966641902923584
v -0.013230796903371811 0.014469709247350693 1.5954225063323975
v -0.012122880667448044 0.019084054976701736 1.5906572341918945
v -0.022917497903108597 0.021922564134001732 1.6748586893081665
v -0.011370409280061722 0.029278071597218513 1.6770561933517456
v 0.04158184304833412 0.02387252449989319 1.6086952686309814
v 0.04823550209403038 0.02477092109620571 1.6125041246414185
v 0.055875565856695175 0.027498167008161545 1.6147257089614868
v 0.021786000579595566 0.01436765305697918 1.634262204170227
v 0.035331469029188156 0.013714456930756569 1.6370173692703247
v 0.0344398058950901 0.012774674221873283 1.6418856382369995
v 0.021468613296747208 0.01487104594707489 1.6372250318527222
v 0.012846175581216812 0.007830008864402771 1.6496784687042236
v 0.023895513266324997 0.004955647513270378 1.6552096605300903
v 0.0021560005843639374 0.003885643556714058 1.6536870002746582
v 0.04627272114157677 0.018971607089042664 1.645194411277771
v 0.05514681711792946 0.020439600571990013 1.638704776763916
v 0.05465026572346687 0.022044546902179718 1.6475082635879517
v 0.056076083332300186 0.021213537082076073 1.6290087699890137
v 0.056371401995420456 0.023393884301185608 1.620398759841919
v 0.051520880311727524 0.05431099981069565 1.6092448234558105
v 0.053076062351465225 0.024996230378746986 1.6552691459655762
v -0.010583650320768356 0.0008817203342914581 1.6640081405639648
v -0.0187053345143795 0.0013975687325000763 1.6638251543045044
v -0.02031021937727928 0.006633404642343521 1.6580450534820557
v -0.013525303453207016 0.005532249808311462 1.6574461460113525
v -0.04773545637726784 0.03341083973646164 1.6663693189620972
v -0.04782097041606903 0.025731340050697327 1.6656113862991333
v -0.03610951080918312 0.023415828123688698 1.6659595966339111
v 0.024614613503217697 0.010840818285942078 1.62224543094635
v 0.02935745194554329 0.013373744674026966 1.6109191179275513
v -0.05036087706685066 0.021494323387742043 1.650386095046997
v -0.07606358081102371 0.046842023730278015 1.6591171026229858
v -0.07917119562625885 0.04185444861650467 1.65947687625885
v -0.06340215355157852 0.0366332083940506 1.663991928100586
v -0.062004100531339645 0.04290160536766052 1.6629533767700195
v -0.05775066837668419 0.0320310965180397 1.6457260847091675
v -0.055727459490299225 0.02644108049571514 1.6485844850540161
v -0.058448418974876404 0.030009057372808456 1.6473567485809326
v -0.059445951133966446 0.0352204367518425 1.6438711881637573
v -0.047185249626636505 0.02385530434548855 1.6112010478973389
v -0.03850942477583885 0.019473353400826454 1.6126400232315063
v -0.04497329890727997 0.04271664097905159 1.6447412967681885
v -0.04267237335443497 0.04457001015543938 1.6574795246124268
v -0.032039791345596313 0.04568658024072647 1.6556087732315063
v -0.02208525314927101 0.020135249942541122 1.6260725259780884
v -0.03292752802371979 0.019575271755456924 1.6241633892059326
v -0.03171521797776222 0.019351132214069366 1.620205283164978
v -0.042472098022699356 0.019734811037778854 1.6446325778961182
v -0.05129053816199303 0.02336694672703743 1.6453391313552856
v -0.04855469614267349 0.021708544343709946 1.6414051055908203
v -0.03938406705856323 0.02014833875000477 1.6399204730987549
v 0.00992133840918541 0.03326264023780823 1.596282720565796
v 0.010913874953985214 0.02178393490612507 1.594773292541504
v -0.08987949788570404 0.04307170584797859 1.649599552154541
v -0.08588020503520966 0.039075545966625214 1.6527999639511108
v -0.010669440031051636 0.02044118568301201 1.6274415254592896
v -0.01867833361029625 0.04637425020337105 1.655887484550476
v 0.0006490536034107208 0.019176509231328964 1.6281553506851196
v -0.03198801726102829 0.03563334047794342 1.6053704023361206
v -0.033411480486392975 0.029985059052705765 1.601473331451416
v -0.038861386477947235 0.03086589090526104 1.603144645690918
v -0.03713540732860565 0.03616219013929367 1.60474693775177
v -0.07108397781848907 0.04280916228890419 1.6405655145645142
v -0.07428658753633499 0.03800606727600098 1.6416428089141846
v -0.07727232575416565 0.0397527739405632 1.6399610042572021
v -0.07365697622299194 0.04378423094749451 1.639652967453003
v -0.05583098530769348 0.024113554507493973 1.653673768043518
v -0.05527250096201897 0.024042246863245964 1.6602084636688232
v -0.06211232393980026 0.027209851890802383 1.65693998336792
v -0.060590650886297226 0.028151053935289383 1.651486873626709
v -0.05693148076534271 0.02890901267528534 1.663910150527954
v -0.06320186704397202 0.030777115374803543 1.6617616415023804
v -0.06897080689668655 0.048126477748155594 1.6440283060073853
v -0.06927022337913513 0.051826171576976776 1.6510218381881714
v -0.0582834891974926 0.04773883521556854 1.6516139507293701
v -0.06000802665948868 0.0427698940038681 1.6457793712615967
v 0.010792437940835953 0.05135655403137207 1.6203521490097046
v 0.014521334320306778 0.04751521721482277 1.6107348203659058
v 0.0003849044442176819 0.044286005198955536 1.6079339981079102
v -0.01304197683930397 0.04155470430850983 1.604783535003662
v -0.025156419724225998 0.03739732503890991 1.6030371189117432
v -0.02883669175207615 0.04296956583857536 1.613498330116272
v 0.0043436139822006226 0.04116449132561684 1.601712942123413
v -0.056059278547763824 0.03779252618551254 1.642174243927002
v -0.0509612150490284 0.042907990515232086 1.6504753828048706
v -0.05121704190969467 0.041085511445999146 1.6431294679641724
v 0.002243250608444214 0.0164431594312191 1.6214599609375
v -0.07979593425989151 0.03745988756418228 1.6571487188339233
v 0.036565620452165604 0.05512280762195587 1.655483603477478
v 0.036782775074243546 0.05905646085739136 1.6427761316299438
v 0.028404224663972855 0.05705484375357628 1.6444506645202637
v 0.027953539043664932 0.05203799158334732 1.6584450006484985
v -0.07719483226537704 0.03413016349077225 1.6464053392410278
v -0.07948298752307892 0.03390331566333771 1.6520951986312866
v -0.03690927475690842 0.018698077648878098 1.6066699028015137
v -0.04395853728055954 0.02332882210612297 1.6063766479492188
v -0.04326972737908363 0.02551843971014023 1.6033790111541748
v -0.03747224062681198 0.019565412774682045 1.6020280122756958
v 0.01774619147181511 0.0449855737388134 1.6065552234649658
v -0.02276141196489334 0.022226527333259583 1.5886319875717163
v -0.023681197315454483 0.031628333032131195 1.5922305583953857
v 0.026858244091272354 0.050383809953927994 1.6135876178741455
v 0.023683886975049973 0.05433328449726105 1.6218448877334595
v 0.033140700310468674 0.056330882012844086 1.6223387718200684
v -0.04012003168463707 0.04305426776409149 1.6242507696151733
v 0.006151717156171799 0.05287432670593262 1.627447485923767
v 0.020239975303411484 0.055281125009059906 1.6285697221755981
v 0.03140829876065254 0.05767761170864105 1.6294710636138916
v 0.03941074386239052 0.05991167575120926 1.62937593460083
v 0.0405438207089901 0.057997167110443115 1.6215792894363403
v -0.07239735126495361 0.050452712923288345 1.6555383205413818
v -0.07309480756521225 0.052124135196208954 1.6503690481185913
v 0.04882041737437248 0.06138285994529724 1.6201523542404175
v 0.0473133809864521 0.06276267021894455 1.6291590929031372
v 0.017093371599912643 0.05550574138760567 1.6372244358062744
v 0.013721000403165817 0.05454113334417343 1.6476455926895142
v 0.003605317324399948 0.053027763962745667 1.635703682899475
v -0.0009002871811389923 0.05199647694826126 1.6458706855773926
v -0.038586169481277466 0.0468907356262207 1.6339563131332397
v -0.08108764886856079 0.061588022857904434 1.6395971775054932
v -0.07486139237880707 0.05382882058620453 1.6433112621307373
v -0.07584546506404877 0.049657102674245834 1.6390647888183594
v -0.08029794692993164 0.058763571083545685 1.6362910270690918
v -0.0719420462846756 0.04831967502832413 1.6435662508010864
v -0.07634659856557846 0.05529963970184326 1.6485867500305176
v -0.0037314891815185547 0.04728000611066818 1.6580229997634888
v -0.05807977542281151 0.027903025969862938 1.6409220695495605
v 0.01219906285405159 0.04713138937950134 1.6624659299850464
v -0.011738039553165436 0.040145691484212875 1.669384241104126
v -0.0002600550651550293 0.037929706275463104 1.6728285551071167
v 0.028222020715475082 0.04484444484114647 1.6690421104431152
v 0.01470644399523735 0.037566035985946655 1.6762304306030273
v 0.04518402740359306 0.05012919381260872 1.6628923416137695
v 0.036534469574689865 0.04813464730978012 1.6647992134094238
v 0.0011367090046405792 0.02945064753293991 1.6801398992538452
v -0.09076070785522461 0.049082040786743164 1.6372902393341064
v -0.08581209182739258 0.050165340304374695 1.634588599205017
v 0.04452775791287422 0.05753956362605095 1.6544512510299683
v -0.007353737950325012 0.0037242863327264786 1.6562448740005493
v 0.012508291751146317 0.014599324204027653 1.6247220039367676
v 0.01094476506114006 0.01681431010365486 1.6295429468154907
v 0.020307812839746475 0.012232691049575806 1.6074811220169067
v 0.01559222862124443 0.011382628232240677 1.618143916130066
v -0.09377773851156235 0.05033038556575775 1.6414527893066406
v -0.0539625883102417 0.02936612069606781 1.621576189994812
v -0.0531882606446743 0.031973328441381454 1.6188534498214722
v -0.009809967130422592 0.001049872487783432 1.67259681224823
v -0.01766158640384674 0.0005484931170940399 1.6715110540390015
v -0.02211007848381996 0.010127002373337746 1.679641604423523
v -0.020088762044906616 0.0035146772861480713 1.6774373054504395
v -0.011089742183685303 0.006261929869651794 1.6792874336242676
v -0.01267876848578453 0.013617543503642082 1.6814050674438477
v 0.0217336006462574 0.013638128526508808 1.6317137479782104
v 0.022029105573892593 0.01266622543334961 1.627922773361206
v 0.02130410447716713 0.033623501658439636 1.5999598503112793
v 0.021509576588869095 0.022181948646903038 1.598742127418518
v -0.05631382763385773 0.03500540181994438 1.6651781797409058
v -0.04699920117855072 0.039889730513095856 1.664328932762146
v -0.05485306307673454 0.04122306406497955 1.6635878086090088
v -0.058541230857372284 0.04688667133450508 1.6587817668914795
v -0.059592776000499725 0.034694988280534744 1.640413761138916
v -0.05596092343330383 0.038447603583335876 1.6465126276016235
v 0.02976229414343834 0.00904303789138794 1.647714614868164
v 0.018941711634397507 0.01270212046802044 1.6428332328796387
v -0.017866279929876328 0.010387871414422989 1.6575672626495361
v -0.02275056764483452 0.013233808800578117 1.6580408811569214
v -0.03484426811337471 0.02015678398311138 1.633141040802002
v -0.04601818695664406 0.04146520420908928 1.6258599758148193
v -0.04520495608448982 0.04610178619623184 1.633743166923523
v -0.0454157218337059 0.021041829138994217 1.6331021785736084
v -0.09250085800886154 0.05719766765832901 1.6460342407226562
v -0.09433859586715698 0.052961695939302444 1.643929123878479
v -0.05210915952920914 0.044876161962747574 1.6589685678482056
v -0.028380120173096657 0.016978003084659576 1.6129751205444336
v -0.04301413893699646 0.039557550102472305 1.62091064453125
v -0.049081895500421524 0.035377614200115204 1.622351050376892
v -0.0185440331697464 0.016603384166955948 1.590656042098999
v 0.0454055555164814 0.061088405549526215 1.642352819442749
v -0.07971373200416565 0.045860737562179565 1.637947678565979
v -0.08160927891731262 0.052855849266052246 1.633732557296753
v -0.08278191089630127 0.06269016861915588 1.6433897018432617
v -0.08707373589277267 0.06071877479553223 1.6467901468276978
v 0.030846085399389267 0.022185981273651123 1.6041052341461182
v 0.009599883109331131 0.018101193010807037 1.6326358318328857
v -0.010897502303123474 0.023600798100233078 1.6803202629089355
v -0.022613678127527237 0.017587576061487198 1.6783422231674194
v -0.05426124855875969 0.023516278713941574 1.6327635049819946
v -0.028224024921655655 0.032597512006759644 1.5983009338378906
v -0.03544619306921959 0.04175920784473419 1.6120390892028809
v -0.038878459483385086 0.04272003471851349 1.6099430322647095
v -0.04461763799190521 0.04363419860601425 1.6136656999588013
v -0.051490746438503265 0.04052119329571724 1.6149753332138062
v -0.08425898104906082 0.06543228030204773 1.6391539573669434
v -0.08972595632076263 0.06462349742650986 1.6421066522598267
v -0.09489645063877106 0.06182209774851799 1.6403868198394775
v -0.09663718938827515 0.057069823145866394 1.6386998891830444
v -0.09500030428171158 0.05274884030222893 1.6374008655548096
v -0.08247814327478409 0.06355924904346466 1.6354811191558838
v -0.08203089982271194 0.06047055125236511 1.632842779159546
v -0.08314036577939987 0.054281994700431824 1.6319868564605713
v -0.08258595317602158 0.06455758959054947 1.6315903663635254
v -0.08533993363380432 0.06849855929613113 1.6325676441192627
v -0.09762713313102722 0.06850674003362656 1.627652645111084
v -0.09564951062202454 0.06753300130367279 1.6331515312194824
v -0.09457464516162872 0.06919220089912415 1.6312787532806396
v -0.09565829485654831 0.07092851400375366 1.6268298625946045
v -0.09556707739830017 0.07365275919437408 1.6225709915161133
v -0.09800513088703156 0.07100853323936462 1.6226924657821655
v -0.0905381441116333 0.06895336508750916 1.6333316564559937
v -0.09125752747058868 0.07168593257665634 1.6274360418319702
v -0.08714203536510468 0.07126148045063019 1.626638412475586
v -0.08788204193115234 0.07444553077220917 1.6223317384719849
v -0.09168605506420135 0.0751027911901474 1.6229089498519897
v -0.0870327278971672 0.06959208101034164 1.6307734251022339
v -0.09034447371959686 0.06848089396953583 1.6355631351470947
v -0.09618933498859406 0.07326294481754303 1.6191916465759277
v -0.09494385123252869 0.07523192465305328 1.6202378273010254
v -0.09170759469270706 0.07610540837049484 1.620059609413147
v -0.0919768214225769 0.07515283674001694 1.6171817779541016
v -0.09760874509811401 0.06146078184247017 1.6339725255966187
v -0.09828795492649078 0.06622841954231262 1.6268174648284912
v -0.09727546572685242 0.06833629310131073 1.6213558912277222
v -0.09549291431903839 0.07078827917575836 1.6180531978607178
v -0.09667623043060303 0.06369403004646301 1.6242481470108032
v -0.0955190360546112 0.06623159348964691 1.6203430891036987
v -0.09360213577747345 0.06813887506723404 1.6173832416534424
v -0.09360010921955109 0.061733316630125046 1.6220595836639404
v -0.09295256435871124 0.06478860229253769 1.6191444396972656
v -0.09346216917037964 0.053647734224796295 1.6317596435546875
v -0.09623445570468903 0.056177057325839996 1.6337189674377441
v -0.0924413725733757 0.06640017777681351 1.6171706914901733
v -0.09122107923030853 0.07326019555330276 1.6162792444229126
v -0.08427547663450241 0.06907017529010773 1.6268287897109985
v -0.08573633432388306 0.07222561538219452 1.6210294961929321
v -0.08334895223379135 0.06726440787315369 1.6258270740509033
v -0.08437244594097137 0.07046736776828766 1.6200737953186035
v -0.08715305477380753 0.07479487359523773 1.6179068088531494
v -0.08872193098068237 0.07559409737586975 1.6198461055755615
v -0.09104572236537933 0.050556257367134094 1.6351984739303589
v -0.08612944930791855 0.05139802023768425 1.6329574584960938
v -0.08775799721479416 0.0534992441534996 1.6301175355911255
v -0.0890875980257988 0.061061613261699677 1.6210891008377075
v -0.08403956890106201 0.055814601480960846 1.6292662620544434
v -0.08224707841873169 0.061823610216379166 1.629157543182373
v -0.08324933797121048 0.06548146903514862 1.6236907243728638
v -0.08460089564323425 0.06300261616706848 1.6219408512115479
v -0.08458194136619568 0.0680009126663208 1.6194467544555664
v -0.08608284592628479 0.0659589096903801 1.6188781261444092
v -0.08946185559034348 0.06444905698299408 1.618269681930542
v -0.08684102445840836 0.06966499984264374 1.6167129278182983
v -0.08660605549812317 0.07265305519104004 1.6171001195907593
v -0.09046778082847595 0.06996171176433563 1.6159957647323608
v -0.08718922734260559 0.0677158460021019 1.617077112197876
v -0.09009483456611633 0.06747139990329742 1.6168901920318604
v -0.07912393659353256 0.05394555628299713 1.6087062358856201
v -0.07555606961250305 0.05139630660414696 1.6042252779006958
v -0.07479739934206009 0.04491410776972771 1.6096084117889404
v -0.0776517316699028 0.04778982326388359 1.613436222076416
v -0.07105907797813416 0.05954001471400261 1.617016077041626
v -0.07653416693210602 0.05829601734876633 1.6156907081604004
v -0.07488834857940674 0.0552140548825264 1.6192089319229126
v -0.06877797096967697 0.05751039832830429 1.618756651878357
v -0.06548044085502625 0.05874510109424591 1.6145886182785034
v -0.06357163190841675 0.05640927702188492 1.615920901298523
v -0.06587088108062744 0.057058803737163544 1.6208834648132324
v -0.07176131755113602 0.05334196239709854 1.6221392154693604
v -0.05985035002231598 0.04206380248069763 1.6354526281356812
v -0.05533589422702789 0.04712716490030289 1.6333962678909302
v -0.05844805762171745 0.027653038501739502 1.624413013458252
v -0.05672009289264679 0.030580800026655197 1.6221803426742554
v -0.0790756419301033 0.05623490363359451 1.612286925315857
v -0.07755720615386963 0.05168522894382477 1.6168895959854126
v -0.06582549959421158 0.04118075966835022 1.6076346635818481
v -0.07047663629055023 0.04000828415155411 1.6101899147033691
v -0.07137992978096008 0.04400946572422981 1.605962872505188
v -0.0665549784898758 0.045302391052246094 1.604566216468811
v -0.06236623600125313 0.0330471470952034 1.63431715965271
v -0.06009533628821373 0.02878321334719658 1.630049228668213
v -0.06197897717356682 0.03747177496552467 1.6349517107009888
v -0.06108753755688667 0.045401111245155334 1.6078367233276367
v -0.058067094534635544 0.050827398896217346 1.6104223728179932
v -0.048738375306129456 0.0434325709939003 1.621698260307312
v -0.051424309611320496 0.0373932421207428 1.6197060346603394
v -0.07535111159086227 0.049147699028253555 1.6207013130187988
v -0.07402116060256958 0.04136910289525986 1.61412513256073
v -0.07610023021697998 0.044403158128261566 1.6175559759140015
v -0.060673341155052185 0.055579572916030884 1.6163100004196167
v -0.06049187481403351 0.05300963297486305 1.6096259355545044
v -0.06274145841598511 0.06389158964157104 1.5990257263183594
v -0.06270945817232132 0.05279524251818657 1.6045920848846436
v -0.06660081446170807 0.051463693380355835 1.6018304824829102
v -0.06586641818284988 0.06303797662258148 1.595463752746582
v -0.06250184029340744 0.048421114683151245 1.605950951576233
v -0.06180129200220108 0.05550743639469147 1.6094363927841187
v -0.0772399976849556 0.06797865778207779 1.5988459587097168
v -0.07402963936328888 0.0654400959610939 1.594480276107788
v -0.0772315040230751 0.07004132866859436 1.6027891635894775
v -0.050469499081373215 0.04785320907831192 1.6275376081466675
v -0.07042102515697479 0.07046198844909668 1.6096878051757812
v -0.07562632113695145 0.07064496725797653 1.6065884828567505
v -0.07122503221035004 0.05078534409403801 1.6013566255569458
v -0.06978011131286621 0.06401242315769196 1.5936195850372314
v -0.061518870294094086 0.06576726585626602 1.6031264066696167
v -0.06440246850252151 0.06808512657880783 1.6090818643569946
v -0.06300289928913116 0.06921042501926422 1.59712815284729
v -0.06378808617591858 0.07261228561401367 1.6023956537246704
v -0.06845787167549133 0.07548670470714569 1.603366732597351
v -0.07321426272392273 0.07625720649957657 1.601545810699463
v -0.0757187157869339 0.07495251297950745 1.5988558530807495
v -0.0641326978802681 0.06789234280586243 1.5941162109375
v -0.06705328077077866 0.06762286275625229 1.5909295082092285
v -0.07139630615711212 0.06756278872489929 1.5911058187484741
v -0.06308352947235107 0.07052016258239746 1.5888614654541016
v -0.060958538204431534 0.07245628535747528 1.591180682182312
v -0.059527695178985596 0.08824631571769714 1.5895997285842896
v -0.06172593683004379 0.08500464260578156 1.5934815406799316
v -0.05951802432537079 0.08368311077356339 1.5930753946304321
v -0.057224564254283905 0.08655337989330292 1.5895419120788574
v -0.0627405047416687 0.08086694031953812 1.5973297357559204
v -0.060579828917980194 0.08064919710159302 1.595563530921936
v -0.059729818254709244 0.07658232748508453 1.594260811805725
v -0.057809263467788696 0.07996850460767746 1.5907268524169922
v -0.05798925459384918 0.07593082636594772 1.5881704092025757
v -0.054974861443042755 0.07859869301319122 1.584965705871582
v -0.05434663966298103 0.08277824521064758 1.587533712387085
v -0.059004101902246475 0.07456550002098083 1.5911924839019775
v -0.05557834729552269 0.0874219685792923 1.586767315864563
v -0.056897226721048355 0.08881740272045135 1.5850012302398682
v -0.06193609908223152 0.07575630396604538 1.5957971811294556
v -0.06925433874130249 0.08020012080669403 1.5989587306976318
v -0.06451490521430969 0.08580298721790314 1.5926628112792969
v -0.06194173917174339 0.08875352144241333 1.5876808166503906
v -0.05876289680600166 0.0883103534579277 1.5826573371887207
v -0.06711890548467636 0.0851561427116394 1.5897599458694458
v -0.06373298168182373 0.08768773078918457 1.5853341817855835
v -0.06080538034439087 0.0869205892086029 1.5814752578735352
v -0.06891903281211853 0.08308720588684082 1.5861502885818481
v -0.0651300847530365 0.08525963127613068 1.5822781324386597
v -0.07525543868541718 0.0763152614235878 1.59349524974823
v -0.073404461145401 0.07891103625297546 1.596711277961731
v -0.06275804340839386 0.08564981818199158 1.581069827079773
v -0.053905289620161057 0.0856795608997345 1.5825958251953125
v -0.05647717043757439 0.08563698828220367 1.5802918672561646
v -0.0535857155919075 0.08495503664016724 1.5843000411987305
v -0.05865988880395889 0.07463011145591736 1.5866447687149048
v -0.055992696434259415 0.07785803079605103 1.5829893350601196
v -0.06019541993737221 0.07367915660142899 1.584792971611023
v -0.057300642132759094 0.07767072319984436 1.5809996128082275
v -0.05420715734362602 0.08114059269428253 1.581036925315857
v -0.05342617630958557 0.0816907212138176 1.5825518369674683
v -0.07620693743228912 0.0721362754702568 1.5958818197250366
v -0.07424677908420563 0.06888087093830109 1.592387318611145
v -0.07453437149524689 0.07263554632663727 1.5900877714157104
v -0.0686260461807251 0.07933622598648071 1.5832979679107666
v -0.07143276929855347 0.07020732760429382 1.5884472131729126
v -0.066133514046669 0.07001239061355591 1.5875135660171509
v -0.06270209699869156 0.07373812049627304 1.583613395690918
v -0.06576845049858093 0.07580029964447021 1.58253812789917
v -0.05913064256310463 0.07726854085922241 1.5797184705734253
v -0.06238916143774986 0.07796869426965714 1.580062747001648
v -0.06500530987977982 0.0818764716386795 1.58046293258667
v -0.05741475895047188 0.08090731501579285 1.5783014297485352
v -0.055330920964479446 0.0810924842953682 1.5795981884002686
v -0.05853653326630592 0.08498762547969818 1.5796023607254028
v -0.060408033430576324 0.08055055141448975 1.5785717964172363
v -0.0615440309047699 0.08385781198740005 1.5794422626495361
v -0.06995140761137009 0.05024707317352295 1.589789867401123
v -0.06819567084312439 0.04586922749876976 1.5867745876312256
v -0.06848911195993423 0.04027436673641205 1.5908678770065308
v -0.07045400142669678 0.045018985867500305 1.5941755771636963
v -0.05947823449969292 0.05484025552868843 1.5959845781326294
v -0.06441441178321838 0.055289432406425476 1.5950195789337158
v -0.06515740603208542 0.05192308872938156 1.598471760749817
v -0.059746451675891876 0.051431551575660706 1.600044846534729
v -0.05488251522183418 0.05337520316243172 1.5932587385177612
v -0.05487394332885742 0.049558404833078384 1.5974996089935303
v -0.057083610445261 0.05173845216631889 1.6029678583145142
v -0.0632638931274414 0.05008641257882118 1.6023715734481812
v -0.05426609516143799 0.04310231655836105 1.6114248037338257
v -0.04845459386706352 0.046995021402835846 1.6101454496383667
v -0.06796763837337494 0.05343087762594223 1.59256911277771
v -0.06884295493364334 0.04942251741886139 1.5964490175247192
v -0.057625606656074524 0.036113351583480835 1.590508222579956
v -0.06128137186169624 0.03575580194592476 1.5928388833999634
v -0.06435927003622055 0.03855866566300392 1.5876613855361938
v -0.06058333069086075 0.038745079189538956 1.5865119695663452
v -0.055868763476610184 0.03177519142627716 1.611883521080017
v -0.051773637533187866 0.028682362288236618 1.6084063053131104
v -0.05704833194613457 0.03750032186508179 1.6115894317626953
v -0.05316387861967087 0.03964062035083771 1.5907704830169678
v -0.049650393426418304 0.04552993178367615 1.5943329334259033
v -0.04150480031967163 0.040349364280700684 1.6008673906326294
v -0.04380128160119057 0.034510135650634766 1.6002775430679321
v -0.06672035157680511 0.046554502099752426 1.6013641357421875
v -0.06502726674079895 0.037192195653915405 1.5962313413619995
v -0.06781647354364395 0.041570380330085754 1.5993367433547974
v -0.052130311727523804 0.050274357199668884 1.599377155303955
v -0.053398147225379944 0.04532849043607712 1.592368483543396
v -0.05236634612083435 0.05760437995195389 1.5760763883590698
v -0.055079419165849686 0.044053997844457626 1.5858210325241089
v -0.05987238138914108 0.04301687702536583 1.583727478981018
v -0.055341266095638275 0.0562659427523613 1.5732836723327637
v -0.05587925761938095 0.04086006060242653 1.5875673294067383
v -0.05265370383858681 0.0484316423535347 1.5896692276000977
v -0.06583540141582489 0.06267718970775604 1.5767790079116821
v -0.06392835080623627 0.058177318423986435 1.574265480041504
v -0.06483300775289536 0.06447248160839081 1.5803768634796143
v -0.04282692074775696 0.04638010263442993 1.6058735847473145
v -0.047182828187942505 0.02918652631342411 1.6029421091079712
v -0.05858930945396423 0.06647554039955139 1.583277702331543
v -0.06265269219875336 0.0661926120519638 1.5822851657867432
v -0.06402656435966492 0.043424092233181 1.584557056427002
v -0.05952730029821396 0.0561344288289547 1.5725163221359253
v -0.05183868110179901 0.06010826677083969 1.579614520072937
v -0.05393626168370247 0.06378021091222763 1.583132266998291
v -0.05107208341360092 0.06192522868514061 1.574787974357605
v -0.0528525710105896 0.06593024730682373 1.578193187713623
v -0.055896103382110596 0.06939993798732758 1.578495979309082
v -0.05959203094244003 0.06990708410739899 1.5776866674423218
v -0.062341444194316864 0.06870119273662567 1.5759248733520508
v -0.05230911821126938 0.060057878494262695 1.571184515953064
v -0.0554049015045166 0.059387803077697754 1.5691463947296143
v -0.05924440175294876 0.05909028649330139 1.5704549551010132
v -0.0520264133810997 0.06119241937994957 1.5670201778411865
v -0.04882950335741043 0.06471936404705048 1.5692862272262573
v -0.04938708245754242 0.07903806865215302 1.5639177560806274
v -0.05127456784248352 0.07625152170658112 1.5679291486740112
v -0.05010558292269707 0.07568934559822083 1.5678210258483887
v -0.047790512442588806 0.07856401056051254 1.5639207363128662
v -0.0518413744866848 0.0723540186882019 1.5729998350143433
v -0.05011899769306183 0.07264747470617294 1.5714826583862305
v -0.048714637756347656 0.0693257749080658 1.5710477828979492
v -0.046671610325574875 0.07237525284290314 1.5660619735717773
v -0.047269582748413086 0.06736762821674347 1.5634124279022217
v -0.04590874910354614 0.07055331766605377 1.5602402687072754
v -0.04479777067899704 0.07522295415401459 1.5625602006912231
v -0.04795001447200775 0.0661308765411377 1.5682716369628906
v -0.046497926115989685 0.07896728813648224 1.5613256692886353
v -0.047092780470848083 0.08107484877109528 1.5611002445220947
v -0.050252094864845276 0.068518728017807 1.5728790760040283
v -0.056157149374485016 0.07363666594028473 1.5741784572601318
v -0.053853847086429596 0.07724705338478088 1.5677555799484253
v -0.05247793346643448 0.08059327304363251 1.5633186101913452
v -0.05048225075006485 0.08055314421653748 1.5596041679382324
v -0.05692634359002113 0.07617935538291931 1.5661200284957886
v -0.054858237504959106 0.07888946682214737 1.5619542598724365
v -0.05304114520549774 0.07911230623722076 1.5585613250732422
v -0.05876484885811806 0.07403269410133362 1.5645207166671753
v -0.0563478097319603 0.07635542750358582 1.5606025457382202
v -0.06251987814903259 0.06810572743415833 1.5723940134048462
v -0.059855856001377106 0.07164208590984344 1.5737907886505127
v -0.05435775965452194 0.07734794914722443 1.5582870244979858
v -0.04489167034626007 0.07766136527061462 1.5584979057312012
v -0.04830719530582428 0.07703760266304016 1.5560808181762695
v -0.0453202947974205 0.0766684040427208 1.5599794387817383
v -0.048262886703014374 0.06579053401947021 1.562936782836914
v -0.04625176638364792 0.0692349225282669 1.558241605758667
v -0.050710856914520264 0.06454876065254211 1.561803936958313
v -0.048663944005966187 0.06812210381031036 1.5569500923156738
v -0.04501090198755264 0.07273304462432861 1.557106375694275
v -0.045018285512924194 0.07316838204860687 1.5582351684570312
v -0.06375114619731903 0.0650695264339447 1.5741312503814697
v -0.0626460537314415 0.06128852441906929 1.571738839149475
v -0.062465813010931015 0.06443716585636139 1.5700523853302002
v -0.058671142905950546 0.07085411250591278 1.561845064163208
v -0.05983607470989227 0.06135021522641182 1.5683971643447876
v -0.05516132712364197 0.0615265816450119 1.5655882358551025
v -0.05362947657704353 0.06515875458717346 1.5608896017074585
v -0.05634855479001999 0.06743607670068741 1.5605742931365967
v -0.05147554352879524 0.06831866502761841 1.5564483404159546
v -0.05381683632731438 0.06967464089393616 1.5576608180999756
v -0.05653979256749153 0.07342105358839035 1.5582566261291504
v -0.05026383697986603 0.07210592925548553 1.555556058883667
v -0.0473620742559433 0.07211551070213318 1.555545449256897
v -0.051326505839824677 0.07634842395782471 1.5557202100753784
v -0.052673548460006714 0.07220356911420822 1.5560940504074097
v -0.05361725389957428 0.07539141178131104 1.5562299489974976
v -0.04895804822444916 0.0275118425488472 1.605376124382019
v -0.048800062388181686 0.02456967905163765 1.603306770324707
v -0.04856494069099426 0.020897164940834045 1.6051404476165771
v -0.04566716402769089 0.018943198025226593 1.6028568744659424
v -0.04488775134086609 0.022626202553510666 1.6013423204421997
v -0.054563604295253754 0.024922624230384827 1.5939234495162964
v -0.052573710680007935 0.02693181112408638 1.5974571704864502
v -0.04935591667890549 0.025914713740348816 1.594443678855896
v -0.050937823951244354 0.024043649435043335 1.5905219316482544
v -0.05619031935930252 0.020271047949790955 1.5925400257110596
v -0.052516087889671326 0.01961757056415081 1.5889613628387451
v -0.04819019138813019 0.02698061801493168 1.589555263519287
v -0.04701565206050873 0.027822624891996384 1.594170093536377
v -0.03641685098409653 0.031225081533193588 1.5977988243103027
v -0.034882985055446625 0.03176545351743698 1.5936521291732788
v -0.025683004409074783 0.01479589007794857 1.5918277502059937
v -0.024326585233211517 0.012995247729122639 1.5955634117126465
v -0.033023200929164886 0.014410238713026047 1.5967273712158203
v -0.032515011727809906 0.014601487666368484 1.592746615409851
v -0.050469689071178436 0.026535972952842712 1.6005327701568604
v -0.04706566408276558 0.025352735072374344 1.5987354516983032
v -0.043195150792598724 0.011590706184506416 1.5969914197921753
v -0.04253096133470535 0.013892654329538345 1.6007202863693237
v -0.04570847749710083 0.01492665708065033 1.6031415462493896
v -0.04778597503900528 0.011630943045020103 1.601155400276184
v -0.0274587981402874 0.013911925256252289 1.599426031112671
v -0.031169172376394272 0.015881244093179703 1.6015220880508423
v -0.034653160721063614 0.01840035617351532 1.601686716079712
v -0.0346803292632103 0.016428586095571518 1.6001509428024292
v -0.0369824580848217 0.02452802285552025 1.6017571687698364
v -0.044810377061367035 0.011726418510079384 1.5928657054901123
v -0.046877019107341766 0.015201298519968987 1.5879487991333008
v -0.03202444687485695 0.020513541996479034 1.5860183238983154
v -0.03137245401740074 0.016802070662379265 1.5887513160705566
v -0.04570011794567108 0.026455508545041084 1.598361611366272
v -0.04315434396266937 0.017909476533532143 1.602263331413269
v -0.044067952781915665 0.022558065131306648 1.6011648178100586
v -0.04774235561490059 0.022302016615867615 1.5863158702850342
v -0.05274971202015877 0.01408352144062519 1.5918012857437134
v -0.06097545847296715 0.01421048492193222 1.6069891452789307
v -0.05490559712052345 0.011929754167795181 1.6005687713623047
v -0.05215365067124367 0.012938540428876877 1.60425865650177
v -0.05848637595772743 0.014538619667291641 1.6092191934585571
v -0.049556128680706024 0.011498801410198212 1.5964093208312988
v -0.05713079497218132 0.014806803315877914 1.5961192846298218
v -0.053901392966508865 0.026413768529891968 1.6085704565048218
v -0.053780317306518555 0.021236535161733627 1.6102098226547241
v -0.055480219423770905 0.02854299172759056 1.606465458869934
v -0.033378489315509796 0.028674695640802383 1.5881961584091187
v -0.06110381707549095 0.02721152827143669 1.6015163660049438
v -0.05824243277311325 0.029081787914037704 1.6044081449508667
v -0.049774378538131714 0.016864851117134094 1.605536699295044
v -0.055589523166418076 0.016945350915193558 1.610456109046936
v -0.06335367262363434 0.016654856503009796 1.6036021709442139
v -0.06316383183002472 0.022075731307268143 1.600098967552185
v -0.06601877510547638 0.018453463912010193 1.6081457138061523
v -0.06563881039619446 0.023527109995484352 1.6046454906463623
v -0.06220841780304909 0.028677422553300858 1.6061625480651855
v -0.05847525596618652 0.029111355543136597 1.6075270175933838
v -0.0557682178914547 0.02811247669160366 1.6090004444122314
v -0.06285394728183746 0.015599993988871574 1.6109580993652344
v -0.06012245640158653 0.01541784405708313 1.6123487949371338
v -0.0566820353269577 0.017316600307822227 1.6123526096343994
v -0.06438979506492615 0.017402801662683487 1.614972472190857
v -0.06641113758087158 0.021726716309785843 1.6146632432937622
v -0.05973795801401138 0.030340339988470078 1.6224093437194824
v -0.059639956802129745 0.03001144342124462 1.6182321310043335
v -0.06077843904495239 0.02963927760720253 1.6183518171310425
v -0.060817040503025055 0.03053094819188118 1.622387170791626
v -0.06129355728626251 0.029501497745513916 1.6129285097122192
v -0.0621362179517746 0.028977857902646065 1.6145004034042358
v -0.06459765881299973 0.026529312133789062 1.6133430004119873
v -0.06449857354164124 0.027462154626846313 1.6187018156051636
v -0.06575653702020645 0.022495035082101822 1.6203042268753052
v -0.06557190418243408 0.023805754259228706 1.6243062019348145
v -0.06482022255659103 0.02818281762301922 1.6225030422210693
v -0.06621478497982025 0.023320674896240234 1.6157844066619873
v -0.06193229556083679 0.030753929167985916 1.6249947547912598
v -0.06107727810740471 0.031009873375296593 1.6261155605316162
v -0.06545394659042358 0.02641652710735798 1.610835075378418
v -0.05730390548706055 0.02935447357594967 1.612300992012024
v -0.05714961513876915 0.03000798635184765 1.6191442012786865
v -0.057951249182224274 0.030450839549303055 1.624160647392273
v -0.0596984401345253 0.029711756855249405 1.6275508403778076
v -0.05521129071712494 0.02835400588810444 1.618971824645996
v -0.056148190051317215 0.0290619358420372 1.624691128730774
v -0.057921916246414185 0.028197061270475388 1.627814531326294
v -0.053884655237197876 0.025274846702814102 1.619352102279663
v -0.055352188646793365 0.026559708639979362 1.6246020793914795
v -0.0534379817545414 0.024067111313343048 1.6132142543792725
v -0.05468699336051941 0.027371354401111603 1.6127898693084717
v -0.05716736614704132 0.026752786710858345 1.6270930767059326
v -0.06396856158971786 0.02871258743107319 1.6276639699935913
v -0.06158623471856117 0.027239499613642693 1.6288695335388184
v -0.06490602344274521 0.028691090643405914 1.6262028217315674
v -0.06562574207782745 0.02105659432709217 1.6204934120178223
v -0.06522087752819061 0.02251823991537094 1.6253973245620728
v -0.06429930031299591 0.019038289785385132 1.6209005117416382
v -0.06357124447822571 0.021253658458590508 1.6261121034622192
v -0.06479156017303467 0.025112425908446312 1.6278398036956787
v -0.0654907375574112 0.02589580975472927 1.6262049674987793
v -0.053989410400390625 0.025113599374890327 1.611176609992981
v -0.054467521607875824 0.021415511146187782 1.6117877960205078
v -0.0546053983271122 0.02017681486904621 1.6139448881149292
v -0.05487851798534393 0.021313222125172615 1.6199889183044434
v -0.05771439149975777 0.01667754538357258 1.6145612001419067
v -0.06152190640568733 0.015991060063242912 1.615020751953125
v -0.061780817806720734 0.018025510013103485 1.6211766004562378
v -0.05838087946176529 0.0183824822306633 1.6211017370224
v -0.061426930129528046 0.02091502584517002 1.6264504194259644
v -0.05845267325639725 0.02108032815158367 1.6257907152175903
v -0.05591869354248047 0.023224307224154472 1.625076413154602
v -0.0608343631029129 0.024087483063340187 1.6285772323608398
v -0.06269935518503189 0.024484364315867424 1.6288073062896729
v -0.059766046702861786 0.026151714846491814 1.6287775039672852
v -0.059027403593063354 0.023684008046984673 1.627933382987976
v -0.05800800397992134 0.02501264400780201 1.627677083015442
v -0.0275733582675457 0.017565589398145676 1.5895437002182007
v -0.03734099492430687 0.014460120350122452 1.669968605041504
v -0.0358784943819046 0.01593170128762722 1.6648805141448975
v -0.03109322488307953 0.0016822870820760727 1.6573736667633057
v -0.03319629281759262 0.008811984211206436 1.6564208269119263
v -0.03124825470149517 -0.003251630812883377 1.6626160144805908
v -0.03412747383117676 -0.0024431347846984863 1.6732767820358276
v -0.031504057347774506 -0.0040149204432964325 1.6685479879379272
v -0.034612372517585754 0.013613473623991013 1.659581184387207
v -0.03735295310616493 0.010484786704182625 1.674075722694397
v -0.035998228937387466 0.0032706521451473236 1.676227331161499
v -0.04891553148627281 0.007141541689634323 1.671118140220642
v -0.04672713950276375 -0.0009809955954551697 1.6723946332931519
v -0.04371384531259537 -0.007104355841875076 1.6684505939483643
v -0.03833763301372528 -0.006837218999862671 1.6636033058166504
v -0.035988353192806244 -0.005471780896186829 1.6594537496566772
v -0.04456751421093941 0.01266845315694809 1.6666244268417358
v -0.04189576953649521 0.014487992972135544 1.6620272397994995
v -0.038330789655447006 0.012103063985705376 1.657183289527893
v -0.050606582313776016 0.011533517390489578 1.6605687141418457
v -0.055325377732515335 0.00508103147149086 1.6548397541046143
v -0.05191183462738991 -0.008527524769306183 1.640932321548462
v -0.04874958470463753 -0.008218400180339813 1.6467804908752441
v -0.05114676430821419 -0.007006794214248657 1.6474868059158325
v -0.05401718243956566 -0.00779203325510025 1.642187476158142
v -0.049021635204553604 -0.007600042968988419 1.6524622440338135
v -0.05057430639863014 -0.005989037454128265 1.6517876386642456
v -0.05286677926778793 -0.0016224309802055359 1.6543306112289429
v -0.05530069023370743 -0.0024334564805030823 1.6487891674041748
v -0.05454352870583534 0.0029599815607070923 1.6530888080596924
v -0.05577406659722328 0.003665626049041748 1.6487822532653809
v -0.057653773576021194 -0.0029257237911224365 1.6435670852661133
v -0.05697314068675041 -0.007103480398654938 1.639708161354065
v -0.059320446103811264 -0.003389202058315277 1.6391940116882324
v -0.05524132400751114 -0.007181942462921143 1.6373263597488403
v -0.05563399940729141 -0.0026531293988227844 1.6570167541503906
v -0.0431324765086174 -0.00857861340045929 1.6551156044006348
v -0.04523008316755295 -0.008352749049663544 1.6464776992797852
v -0.04874739050865173 -0.0076538994908332825 1.6396397352218628
v -0.052887286990880966 -0.005770690739154816 1.6358697414398193
v -0.04202541336417198 -0.006032269448041916 1.6451053619384766
v -0.04580472782254219 -0.0046548545360565186 1.6393309831619263
v -0.04985051229596138 -0.0022484473884105682 1.6361976861953735
v -0.04071517288684845 -0.0014696121215820312 1.6442437171936035
v -0.04507162421941757 -0.0008446797728538513 1.639567494392395
v -0.035550013184547424 -0.0001957826316356659 1.6537368297576904
v -0.03764117881655693 -0.005921434611082077 1.6549896001815796
v -0.04848146811127663 -0.00030146539211273193 1.6374249458312988
v -0.059291772544384 -0.0028740763664245605 1.6366866827011108
v -0.05669815093278885 -0.0011543221771717072 1.6353260278701782
v -0.05539636313915253 0.006845757365226746 1.6493061780929565
v -0.05853697657585144 0.0031276121735572815 1.644163966178894
v -0.05751074478030205 0.005554690957069397 1.6435166597366333
v -0.0530276857316494 0.009883712977170944 1.6496117115020752
v -0.05575304105877876 0.007578223943710327 1.6426702737808228
v -0.05941436067223549 0.002556532621383667 1.6391690969467163
v -0.05976075679063797 0.0007216855883598328 1.6409504413604736
v -0.03418586775660515 -0.00035804882645606995 1.6557008028030396
v -0.035226814448833466 0.006543964147567749 1.6551027297973633
v -0.03676311671733856 0.006642892956733704 1.6540718078613281
v -0.04181227087974548 0.00493091344833374 1.6452572345733643
v -0.04074712470173836 0.011970523744821548 1.6549583673477173
v -0.0462045855820179 0.013361994177103043 1.6581361293792725
v -0.04980569705367088 0.011264476925134659 1.648292899131775
v -0.04540807381272316 0.009741216897964478 1.6468722820281982
v -0.052416350692510605 0.008091259747743607 1.6416938304901123
v -0.049647506326436996 0.007043018937110901 1.6412533521652222
v -0.046471741050481796 0.003442719578742981 1.6398069858551025
v -0.05395983159542084 0.004786904901266098 1.6379199028015137
v -0.05718473717570305 0.004357192665338516 1.6381818056106567
v -0.05295156314969063 0.0010512210428714752 1.6358978748321533
v -0.051429662853479385 0.004850562661886215 1.6387649774551392
v -0.05020756646990776 0.0022444911301136017 1.6375123262405396
v -0.01850130409002304 0.013822123408317566 1.5955291986465454
v -0.021555963903665543 0.013498443178832531 1.6009297370910645
v -0.015023551881313324 0.013606738299131393 1.6004798412322998
v -0.006009489297866821 0.012928135693073273 1.6019519567489624
v 0.004005372524261475 0.014702966436743736 1.5986331701278687
v -0.008072204887866974 0.013874782249331474 1.6083862781524658
v -0.01742386817932129 0.01464043278247118 1.606246829032898
v -0.02732180804014206 0.015481106005609035 1.6060174703598022
v -0.0019460581243038177 0.015544330701231956 1.61635160446167
f 2 3 1
f 1 3 4
f 5 6 8
f 8 6 7
f 9 4 10
f 10 4 3
f 12 13 11
f 11 13 9
f 14 12 16
f 16 12 15
f 18 19 17
f 17 19 20
f 22 23 21
f 21 23 24
f 26 27 25
f 25 27 28
f 30 31 29
f 29 31 32
f 33 34 36
f 36 34 35
f 37 38 40
f 40 38 39
f 41 42 6
f 6 42 43
f 6 43 7
f 7 43 44
f 45 34 46
f 46 34 33
f 48 49 47
f 47 49 50
f 52 53 51
f 51 53 54
f 56 52 55
f 55 52 51
f 58 59 57
f 57 59 60
f 61 62 4
f 4 62 1
f 64 65 63
f 63 65 66
f 68 69 67
f 67 69 70
f 72 73 71
f 71 73 74
f 76 77 75
f 75 77 78
f 53 79 54
f 54 79 80
f 82 83 81
f 81 83 84
f 85 86 52
f 52 86 53
f 57 60 87
f 87 60 88
f 89 90 43
f 43 90 44
f 43 42 89
f 89 42 91
f 40 39 92
f 92 39 93
f 94 70 64
f 64 70 69
f 13 61 9
f 9 61 4
f 25 28 69
f 69 28 95
f 96 25 68
f 68 25 69
f 98 99 97
f 97 99 100
f 101 102 104
f 104 102 103
f 106 30 105
f 105 30 29
f 51 54 107
f 107 54 108
f 54 80 108
f 108 80 109
f 111 112 110
f 110 112 113
f 115 5 114
f 114 5 116
f 115 41 5
f 5 41 6
f 36 35 111
f 111 35 117
f 35 118 117
f 117 118 119
f 34 120 35
f 35 120 118
f 34 45 120
f 120 45 121
f 125 126 124
f 124 126 127
f 128 129 14
f 14 129 130
f 33 131 46
f 46 131 132
f 133 94 63
f 63 94 64
f 134 135 137
f 137 135 136
f 139 140 138
f 138 140 141
f 77 142 78
f 78 142 143
f 144 145 20
f 20 145 146
f 148 149 147
f 147 149 72
f 151 152 150
f 150 152 153
f 82 101 83
f 83 101 104
f 101 82 155
f 155 82 154
f 156 157 58
f 58 157 59
f 158 68 147
f 147 68 67
f 159 146 15
f 15 146 16
f 68 158 96
f 96 158 160
f 129 66 130
f 130 66 65
f 162 163 161
f 161 163 164
f 166 167 165
f 165 167 168
f 170 171 169
f 169 171 172
f 174 171 173
f 173 171 170
f 176 177 175
f 175 177 178
f 180 181 179
f 179 181 24
f 182 183 21
f 21 183 184
f 81 185 82
f 82 185 154
f 186 187 188
f 188 187 144
f 158 71 160
f 160 71 189
f 190 135 157
f 157 135 59
f 169 172 139
f 139 172 140
f 147 72 158
f 158 72 71
f 192 193 191
f 191 193 194
f 167 166 49
f 49 166 195
f 196 190 50
f 50 190 157
f 197 198 200
f 200 198 199
f 21 24 182
f 182 24 181
f 146 159 20
f 20 159 17
f 182 181 81
f 81 181 185
f 201 185 180
f 180 185 181
f 202 203 83
f 83 203 84
f 205 206 204
f 204 206 85
f 207 22 184
f 184 22 21
f 179 24 208
f 208 24 23
f 208 209 179
f 179 209 205
f 209 210 205
f 205 210 206
f 212 206 211
f 211 206 210
f 179 205 180
f 180 205 204
f 213 176 88
f 88 176 214
f 86 85 212
f 212 85 206
f 193 217 218
f 217 219 218
f 218 219 220
f 219 18 220
f 220 18 17
f 19 221 20
f 20 221 144
f 222 223 225
f 225 223 224
f 175 226 176
f 176 226 214
f 227 87 214
f 214 87 88
f 220 17 228
f 228 17 159
f 134 213 60
f 60 213 88
f 138 229 151
f 151 229 152
f 193 192 210
f 210 192 211
f 230 194 218
f 218 194 193
f 231 232 228
f 228 232 230
f 233 234 91
f 91 234 89
f 235 236 93
f 93 236 92
f 230 232 234
f 234 232 237
f 47 238 48
f 48 238 239
f 240 191 235
f 235 191 236
f 5 8 116
f 116 8 241
f 242 243 189
f 189 243 160
f 244 245 98
f 98 245 99
f 156 246 47
f 47 246 238
f 76 247 77
f 77 247 248
f 250 125 249
f 249 125 124
f 252 253 251
f 251 253 254
f 111 110 36
f 36 110 255
f 256 33 255
f 255 33 36
f 257 258 154
f 154 258 155
f 63 169 133
f 133 169 139
f 66 170 63
f 63 170 169
f 173 170 129
f 129 170 66
f 129 128 173
f 173 128 259
f 128 260 259
f 259 260 261
f 213 134 262
f 262 134 137
f 263 264 186
f 186 264 187
f 112 265 113
f 113 265 266
f 11 267 268
f 234 233 230
f 230 233 194
f 153 269 70
f 70 269 67
f 175 178 165
f 165 178 141
f 150 153 94
f 94 153 70
f 271 221 270
f 270 221 207
f 269 153 272
f 272 153 152
f 121 45 109
f 109 45 108
f 47 50 156
f 156 50 157
f 57 273 58
f 58 273 274
f 145 275 260
f 260 275 261
f 276 149 143
f 143 149 78
f 148 269 75
f 75 269 272
f 207 277 270
f 270 277 278
f 195 196 49
f 49 196 50
f 59 135 60
f 60 135 134
f 83 104 202
f 202 104 279
f 149 148 78
f 78 148 75
f 247 278 248
f 248 278 277
f 183 182 84
f 84 182 81
f 48 239 281
f 281 239 282
f 227 223 283
f 283 223 222
f 223 226 224
f 224 226 168
f 281 282 224
f 224 282 225
f 165 168 175
f 175 168 226
f 264 263 138
f 138 263 229
f 14 16 128
f 128 16 260
f 220 228 218
f 218 228 230
f 87 227 284
f 284 227 283
f 260 16 145
f 145 16 146
f 244 98 258
f 258 98 155
f 58 274 156
f 156 274 246
f 107 285 51
f 51 285 55
f 243 286 160
f 160 286 96
f 234 237 89
f 89 237 90
f 46 132 107
f 107 132 285
f 253 252 249
f 249 252 250
f 286 26 96
f 96 26 25
f 106 105 287
f 287 105 288
f 272 152 289
f 289 152 229
f 138 151 139
f 139 151 133
f 183 290 161
f 161 290 162
f 291 292 277
f 277 292 293
f 151 150 133
f 133 150 94
f 262 275 177
f 177 275 187
f 144 187 145
f 145 187 275
f 273 57 284
f 284 57 87
f 174 136 190
f 190 136 135
f 111 117 112
f 112 117 38
f 117 119 38
f 38 119 123
f 112 38 265
f 265 38 37
f 287 288 254
f 254 288 251
f 228 159 231
f 231 159 15
f 223 227 226
f 226 227 214
f 147 67 148
f 148 67 269
f 224 168 281
f 281 168 167
f 199 163 200
f 200 163 162
f 45 46 108
f 108 46 107
f 281 167 48
f 48 167 49
f 161 164 291
f 291 164 292
f 38 123 39
f 293 294 277
f 277 294 248
f 284 283 296
f 296 283 295
f 284 296 273
f 273 296 297
f 274 273 298
f 298 273 297
f 246 274 299
f 299 274 298
f 283 222 295
f 295 222 300
f 222 225 300
f 300 225 301
f 301 225 302
f 302 225 282
f 303 304 300
f 300 304 295
f 306 307 305
f 305 307 308
f 309 310 308
f 308 310 305
f 308 307 312
f 312 307 311
f 313 314 312
f 312 314 315
f 311 316 312
f 312 316 313
f 317 304 311
f 311 304 316
f 315 309 312
f 312 309 308
f 318 319 321
f 321 319 320
f 319 318 309
f 309 318 310
f 311 307 317
f 317 307 306
f 306 297 317
f 317 297 296
f 306 322 297
f 297 322 298
f 305 323 306
f 306 323 322
f 323 305 324
f 324 305 310
f 304 317 295
f 295 317 296
f 318 325 310
f 310 325 324
f 323 324 326
f 326 324 327
f 324 325 327
f 327 325 328
f 326 327 329
f 329 327 330
f 329 331 326
f 326 331 332
f 333 330 328
f 328 330 327
f 323 326 322
f 322 326 332
f 322 332 298
f 298 332 299
f 325 318 334
f 334 318 321
f 313 316 335
f 335 316 304
f 335 336 313
f 313 336 314
f 304 303 335
f 335 303 337
f 336 335 338
f 338 335 337
f 336 339 314
f 314 339 340
f 246 299 238
f 238 299 341
f 239 342 282
f 282 342 302
f 342 239 341
f 341 239 238
f 341 331 342
f 342 331 343
f 331 329 343
f 343 329 344
f 342 343 302
f 302 343 345
f 341 299 331
f 331 299 332
f 346 301 345
f 345 301 302
f 346 303 301
f 301 303 300
f 347 337 346
f 346 337 303
f 347 346 348
f 348 346 345
f 349 347 350
f 350 347 348
f 343 344 345
f 345 344 348
f 344 351 348
f 348 351 350
f 337 347 338
f 338 347 349
f 353 338 352
f 352 338 349
f 352 355 354
f 354 355 356
f 352 349 355
f 355 349 350
f 352 354 353
f 353 354 334
f 353 334 339
f 339 334 321
f 339 336 353
f 353 336 338
f 329 330 344
f 344 330 351
f 356 351 333
f 333 351 330
f 356 355 351
f 351 355 350
f 354 356 328
f 328 356 333
f 328 325 354
f 354 325 334
f 309 315 319
f 319 315 320
f 320 340 321
f 321 340 339
f 320 315 340
f 340 315 314
f 137 136 261
f 261 136 259
f 140 166 141
f 141 166 165
f 172 171 195
f 195 171 196
f 171 174 196
f 196 174 190
f 178 177 264
f 264 177 187
f 172 195 140
f 140 195 166
f 137 261 262
f 262 261 275
f 178 264 141
f 141 264 138
f 262 177 213
f 213 177 176
f 136 174 259
f 259 174 173
f 358 359 357
f 357 359 360
f 362 363 361
f 361 363 364
f 361 364 365
f 365 364 366
f 367 368 370
f 370 368 369
f 76 371 247
f 247 371 372
f 373 374 362
f 362 374 363
f 376 377 375
f 375 377 378
f 289 229 380
f 380 229 379
f 381 379 263
f 263 379 229
f 383 384 382
f 382 384 385
f 386 368 374
f 374 368 363
f 76 289 371
f 371 289 380
f 377 376 359
f 359 376 387
f 388 386 360
f 360 386 374
f 389 383 366
f 366 383 390
f 392 393 391
f 391 393 394
f 383 382 390
f 390 382 395
f 396 365 390
f 390 365 366
f 389 366 367
f 367 366 364
f 357 397 358
f 358 397 398
f 373 399 357
f 357 399 397
f 389 367 400
f 400 367 370
f 382 385 375
f 375 385 372
f 357 360 373
f 373 360 374
f 361 401 362
f 362 401 402
f 387 388 359
f 359 388 360
f 363 368 364
f 364 368 367
f 358 398 403
f 403 398 404
f 396 392 405
f 405 392 391
f 392 395 393
f 393 395 378
f 393 403 394
f 394 403 404
f 375 378 382
f 382 378 395
f 365 396 406
f 406 396 405
f 362 402 373
f 373 402 399
f 271 270 400
f 400 270 384
f 401 361 406
f 406 361 365
f 381 369 386
f 386 369 368
f 392 396 395
f 395 396 390
f 393 378 403
f 403 378 377
f 403 377 358
f 358 377 359
f 406 405 408
f 408 405 407
f 406 408 401
f 401 408 409
f 401 409 402
f 402 409 410
f 402 410 399
f 399 410 411
f 405 391 407
f 407 391 412
f 391 394 412
f 412 394 413
f 394 404 413
f 413 404 414
f 415 416 412
f 412 416 407
f 418 419 417
f 417 419 420
f 421 422 418
f 418 422 419
f 419 422 424
f 424 422 423
f 425 426 424
f 424 426 427
f 423 428 424
f 424 428 425
f 427 420 424
f 424 420 419
f 420 429 417
f 417 429 430
f 423 422 431
f 431 422 421
f 421 409 431
f 431 409 408
f 421 432 409
f 409 432 410
f 418 433 421
f 421 433 432
f 434 433 417
f 417 433 418
f 431 416 423
f 423 416 428
f 416 431 407
f 407 431 408
f 435 434 430
f 430 434 417
f 433 434 436
f 436 434 437
f 434 435 437
f 437 435 438
f 436 437 439
f 439 437 440
f 439 441 436
f 436 441 442
f 438 443 437
f 437 443 440
f 436 442 433
f 433 442 432
f 432 442 410
f 410 442 411
f 435 430 445
f 445 430 444
f 430 429 444
f 444 429 446
f 425 428 447
f 447 428 416
f 426 425 448
f 448 425 447
f 416 415 447
f 447 415 449
f 447 449 448
f 448 449 450
f 451 452 448
f 448 452 426
f 446 452 444
f 444 452 451
f 399 411 397
f 397 411 453
f 398 454 404
f 404 454 414
f 454 398 453
f 453 398 397
f 453 441 454
f 454 441 455
f 441 439 455
f 455 439 456
f 454 455 414
f 414 455 457
f 441 453 442
f 442 453 411
f 458 413 457
f 457 413 414
f 458 415 413
f 413 415 412
f 458 459 415
f 415 459 449
f 459 458 460
f 460 458 457
f 461 459 462
f 462 459 460
f 455 456 457
f 457 456 460
f 456 463 460
f 460 463 462
f 459 461 449
f 449 461 450
f 465 450 464
f 464 450 461
f 464 467 466
f 466 467 468
f 464 461 467
f 467 461 462
f 464 466 465
f 465 466 445
f 465 445 451
f 451 445 444
f 451 448 465
f 465 448 450
f 439 440 456
f 456 440 463
f 468 463 443
f 443 463 440
f 468 467 463
f 463 467 462
f 466 468 438
f 438 468 443
f 438 435 466
f 466 435 445
f 420 427 429
f 429 427 446
f 446 427 452
f 452 427 426
f 370 369 188
f 188 369 186
f 371 376 372
f 372 376 375
f 380 379 387
f 387 379 388
f 379 381 388
f 388 381 386
f 385 384 278
f 278 384 270
f 380 387 371
f 371 387 376
f 400 370 271
f 271 370 188
f 385 278 372
f 372 278 247
f 400 384 389
f 389 384 383
f 369 381 186
f 186 381 263
f 221 271 144
f 144 271 188
f 221 19 207
f 207 19 22
f 19 18 22
f 22 18 23
f 18 219 23
f 23 219 208
f 469 470 472
f 472 470 471
f 474 475 473
f 473 475 476
f 473 476 477
f 477 476 478
f 480 481 479
f 479 481 482
f 483 484 474
f 474 484 475
f 486 487 485
f 485 487 488
f 489 490 77
f 77 490 142
f 491 489 248
f 248 489 77
f 493 494 492
f 492 494 495
f 496 480 484
f 484 480 475
f 486 497 487
f 487 497 471
f 498 496 472
f 472 496 484
f 499 493 478
f 478 493 500
f 501 502 504
f 504 502 503
f 493 492 500
f 500 492 505
f 506 477 500
f 500 477 478
f 499 478 479
f 479 478 476
f 469 507 470
f 470 507 508
f 483 509 469
f 469 509 507
f 479 482 499
f 499 482 510
f 492 495 485
f 485 495 511
f 483 469 484
f 484 469 472
f 473 512 474
f 474 512 513
f 497 498 471
f 471 498 472
f 475 480 476
f 476 480 479
f 470 508 514
f 514 508 515
f 506 502 516
f 516 502 501
f 503 502 488
f 488 502 505
f 514 515 503
f 503 515 504
f 485 488 492
f 492 488 505
f 477 506 517
f 517 506 516
f 474 513 483
f 483 513 509
f 510 292 494
f 494 292 164
f 512 473 517
f 517 473 477
f 491 481 496
f 496 481 480
f 502 506 505
f 505 506 500
f 503 488 514
f 514 488 487
f 514 487 470
f 470 487 471
f 517 516 519
f 519 516 518
f 517 519 512
f 512 519 520
f 512 520 513
f 513 520 521
f 513 521 509
f 509 521 522
f 516 501 518
f 518 501 523
f 501 504 523
f 523 504 524
f 524 504 525
f 525 504 515
f 526 527 523
f 523 527 518
f 529 530 528
f 528 530 531
f 532 533 529
f 529 533 530
f 530 533 535
f 535 533 534
f 536 537 535
f 535 537 538
f 534 539 535
f 535 539 536
f 538 531 535
f 535 531 530
f 540 541 531
f 531 541 528
f 533 532 534
f 534 532 542
f 532 520 542
f 542 520 519
f 532 543 520
f 520 543 521
f 529 544 532
f 532 544 543
f 544 529 545
f 545 529 528
f 534 542 539
f 539 542 527
f 527 542 518
f 518 542 519
f 541 546 528
f 528 546 545
f 547 544 548
f 548 544 545
f 546 549 545
f 545 549 548
f 550 547 551
f 551 547 548
f 547 550 553
f 553 550 552
f 549 554 548
f 548 554 551
f 544 547 543
f 543 547 553
f 543 553 521
f 521 553 522
f 546 541 556
f 556 541 555
f 541 540 555
f 555 540 557
f 536 539 558
f 558 539 527
f 537 536 559
f 559 536 558
f 527 526 558
f 558 526 560
f 559 558 561
f 561 558 560
f 559 562 537
f 537 562 563
f 557 563 555
f 555 563 562
f 509 522 507
f 507 522 564
f 508 565 515
f 515 565 525
f 565 508 564
f 564 508 507
f 564 552 565
f 565 552 566
f 552 550 566
f 566 550 567
f 565 566 525
f 525 566 568
f 564 522 552
f 552 522 553
f 569 524 568
f 568 524 525
f 569 526 524
f 524 526 523
f 570 560 569
f 569 560 526
f 570 569 571
f 571 569 568
f 572 570 573
f 573 570 571
f 566 567 568
f 568 567 571
f 567 574 571
f 571 574 573
f 570 572 560
f 560 572 561
f 576 561 575
f 575 561 572
f 575 578 577
f 577 578 579
f 575 572 578
f 578 572 573
f 575 577 576
f 576 577 556
f 576 556 562
f 562 556 555
f 562 559 576
f 576 559 561
f 550 551 567
f 567 551 574
f 579 574 554
f 554 574 551
f 579 578 574
f 574 578 573
f 579 554 577
f 577 554 549
f 549 546 577
f 577 546 556
f 531 538 540
f 540 538 557
f 557 538 563
f 563 538 537
f 481 294 482
f 482 294 293
f 580 486 511
f 511 486 485
f 490 489 497
f 497 489 498
f 489 491 498
f 498 491 496
f 163 495 164
f 164 495 494
f 580 490 486
f 486 490 497
f 482 293 510
f 510 293 292
f 495 163 511
f 511 163 199
f 494 493 510
f 510 493 499
f 481 491 294
f 294 491 248
f 582 583 581
f 581 583 584
f 586 587 585
f 585 587 588
f 585 588 589
f 589 588 590
f 592 593 591
f 591 593 594
f 595 596 598
f 598 596 597
f 599 600 586
f 586 600 587
f 601 602 604
f 604 602 603
f 605 606 608
f 608 606 607
f 609 607 200
f 200 607 606
f 610 611 613
f 613 611 612
f 600 614 587
f 587 614 592
f 596 605 597
f 597 605 608
f 602 615 603
f 603 615 583
f 616 614 584
f 584 614 600
f 611 618 617
f 617 618 590
f 620 621 619
f 619 621 622
f 610 623 611
f 611 623 618
f 624 589 618
f 618 589 590
f 617 590 591
f 591 590 588
f 581 625 582
f 582 625 626
f 599 627 581
f 581 627 625
f 591 594 617
f 617 594 628
f 601 610 598
f 598 610 613
f 581 584 599
f 599 584 600
f 585 629 586
f 586 629 630
f 615 616 583
f 583 616 584
f 587 592 588
f 588 592 591
f 582 626 631
f 631 626 632
f 624 620 633
f 633 620 619
f 621 620 604
f 604 620 623
f 631 632 621
f 621 632 622
f 610 601 623
f 623 601 604
f 589 624 634
f 634 624 633
f 586 630 599
f 599 630 627
f 203 202 628
f 628 202 612
f 629 585 634
f 634 585 589
f 609 593 614
f 614 593 592
f 620 624 623
f 623 624 618
f 631 621 603
f 603 621 604
f 582 631 583
f 583 631 603
f 634 633 636
f 636 633 635
f 634 636 629
f 629 636 637
f 629 637 630
f 630 637 638
f 630 638 627
f 627 638 639
f 633 619 635
f 635 619 640
f 619 622 640
f 640 622 641
f 641 622 642
f 642 622 632
f 644 635 643
f 643 635 640
f 645 646 648
f 648 646 647
f 649 650 646
f 646 650 647
f 647 650 652
f 652 650 651
f 652 653 655
f 655 653 654
f 651 656 652
f 652 656 653
f 655 648 652
f 652 648 647
f 648 657 645
f 645 657 658
f 650 649 651
f 651 649 659
f 649 637 659
f 659 637 636
f 649 660 637
f 637 660 638
f 661 660 646
f 646 660 649
f 662 661 645
f 645 661 646
f 651 659 656
f 656 659 644
f 644 659 635
f 635 659 636
f 663 662 658
f 658 662 645
f 664 661 665
f 665 661 662
f 663 666 662
f 662 666 665
f 667 664 668
f 668 664 665
f 664 667 670
f 670 667 669
f 666 671 665
f 665 671 668
f 661 664 660
f 660 664 670
f 660 670 638
f 638 670 639
f 658 672 663
f 663 672 673
f 658 657 672
f 672 657 674
f 653 656 675
f 675 656 644
f 653 675 654
f 654 675 676
f 675 644 677
f 677 644 643
f 676 675 678
f 678 675 677
f 679 680 676
f 676 680 654
f 674 680 672
f 672 680 679
f 627 639 625
f 625 639 681
f 626 682 632
f 632 682 642
f 681 682 625
f 625 682 626
f 669 683 681
f 681 683 682
f 667 684 669
f 669 684 683
f 682 683 642
f 642 683 685
f 681 639 669
f 669 639 670
f 686 641 685
f 685 641 642
f 641 686 640
f 640 686 643
f 686 687 643
f 643 687 677
f 687 686 688
f 688 686 685
f 689 687 690
f 690 687 688
f 683 684 685
f 685 684 688
f 684 691 688
f 688 691 690
f 687 689 677
f 677 689 678
f 693 678 692
f 692 678 689
f 692 695 694
f 694 695 696
f 692 689 695
f 695 689 690
f 692 694 693
f 693 694 673
f 693 673 679
f 679 673 672
f 679 676 693
f 693 676 678
f 684 667 691
f 691 667 668
f 696 691 671
f 671 691 668
f 696 695 691
f 691 695 690
f 694 696 666
f 666 696 671
f 666 663 694
f 694 663 673
f 648 655 657
f 657 655 674
f 674 655 680
f 680 655 654
f 593 162 594
f 594 162 290
f 598 597 601
f 601 597 602
f 615 608 616
f 616 608 607
f 607 609 616
f 616 609 614
f 697 595 613
f 613 595 598
f 597 608 602
f 602 608 615
f 594 290 628
f 628 290 203
f 628 612 617
f 617 612 611
f 593 609 162
f 162 609 200
f 105 29 698
f 698 29 699
f 268 126 701
f 701 126 700
f 126 125 700
f 700 125 702
f 252 703 250
f 250 703 704
f 32 268 705
f 705 268 701
f 288 105 706
f 706 105 698
f 29 32 699
f 699 32 705
f 707 251 706
f 706 251 288
f 250 704 125
f 125 704 702
f 703 252 707
f 707 252 251
f 706 708 707
f 707 708 709
f 707 709 703
f 703 709 710
f 703 710 704
f 704 710 711
f 704 711 702
f 702 711 712
f 706 698 708
f 708 698 713
f 698 699 713
f 713 699 714
f 699 705 714
f 714 705 715
f 717 708 716
f 716 708 713
f 719 720 718
f 718 720 721
f 722 723 719
f 719 723 720
f 724 725 723
f 723 725 720
f 724 726 725
f 725 726 727
f 728 721 725
f 725 721 720
f 721 728 729
f 729 728 730
f 729 731 721
f 721 731 718
f 724 723 732
f 732 723 722
f 722 710 732
f 732 710 709
f 722 733 710
f 710 733 711
f 719 734 722
f 722 734 733
f 734 719 735
f 735 719 718
f 724 732 726
f 726 732 717
f 717 732 708
f 708 732 709
f 731 736 718
f 718 736 735
f 737 734 738
f 738 734 735
f 736 739 735
f 735 739 738
f 740 737 741
f 741 737 738
f 737 740 743
f 743 740 742
f 739 744 738
f 738 744 741
f 734 737 733
f 733 737 743
f 733 743 711
f 711 743 712
f 736 731 746
f 746 731 745
f 731 729 745
f 745 729 730
f 727 726 747
f 747 726 717
f 748 727 749
f 749 727 747
f 747 717 750
f 750 717 716
f 749 747 751
f 751 747 750
f 749 752 748
f 748 752 753
f 730 753 745
f 745 753 752
f 728 725 748
f 748 725 727
f 730 728 753
f 753 728 748
f 700 702 754
f 754 702 712
f 705 701 715
f 715 701 755
f 754 755 700
f 700 755 701
f 742 756 754
f 754 756 755
f 740 757 742
f 742 757 756
f 755 756 715
f 715 756 758
f 754 712 742
f 742 712 743
f 759 714 758
f 758 714 715
f 714 759 713
f 713 759 716
f 759 760 716
f 716 760 750
f 760 759 761
f 761 759 758
f 762 760 763
f 763 760 761
f 756 757 758
f 758 757 761
f 757 764 761
f 761 764 763
f 760 762 750
f 750 762 751
f 766 751 765
f 765 751 762
f 767 765 769
f 769 765 768
f 765 762 768
f 768 762 763
f 765 767 766
f 766 767 746
f 766 746 752
f 752 746 745
f 752 749 766
f 766 749 751
f 757 740 764
f 764 740 741
f 769 764 744
f 744 764 741
f 769 768 764
f 764 768 763
f 767 769 739
f 739 769 744
f 739 736 767
f 767 736 746
f 219 217 208
f 208 217 209
f 209 217 210
f 210 217 193
f 198 580 199
f 199 580 511
f 76 75 289
f 289 75 272
f 277 207 291
f 291 207 184
f 290 183 203
f 203 183 84
f 490 580 142
f 142 580 198
f 142 198 143
f 143 198 197
f 149 276 72
f 72 276 73
f 104 103 279
f 279 103 770
f 770 596 279
f 279 596 595
f 605 596 771
f 771 596 770
f 771 770 772
f 772 770 103
f 772 103 773
f 773 103 102
f 155 774 101
f 101 774 102
f 773 102 97
f 97 102 774
f 775 773 100
f 100 773 97
f 773 775 772
f 772 775 776
f 772 776 771
f 771 776 777
f 200 606 197
f 197 606 777
f 189 71 778
f 778 71 74
f 97 774 98
f 98 774 155
f 183 161 184
f 184 161 291
f 777 276 197
f 197 276 143
f 777 606 771
f 771 606 605
f 613 612 697
f 697 612 202
f 595 697 279
f 279 697 202
f 73 276 776
f 776 276 777
f 776 775 73
f 73 775 74
f 100 778 775
f 775 778 74
f 778 100 189
f 189 100 99
f 245 242 99
f 99 242 189
f 131 33 256
f 28 1 95
f 95 1 62
f 27 2 28
f 28 2 1
f 265 115 266
f 266 115 114
f 95 62 69
f 69 62 64
f 62 61 64
f 64 61 65
f 61 13 65
f 65 13 130
f 13 12 130
f 130 12 14
f 31 11 32
f 32 11 268
f 15 12 31
f 31 12 11
f 31 30 15
f 15 30 231
f 30 106 231
f 231 106 232
f 287 237 106
f 106 237 232
f 254 90 287
f 287 90 237
f 253 44 254
f 254 44 90
f 253 249 44
f 44 249 7
f 267 127 268
f 268 127 126
f 10 3 241
f 241 3 116
f 3 2 116
f 116 2 114
f 2 27 114
f 114 27 266
f 27 26 266
f 266 26 113
f 26 286 113
f 113 286 110
f 286 243 110
f 110 243 255
f 243 242 255
f 255 242 256
f 242 245 256
f 256 245 131
f 245 244 131
f 131 244 132
f 265 37 115
f 115 37 41
f 41 37 42
f 42 37 40
f 92 91 40
f 40 91 42
f 236 233 92
f 92 233 91
f 191 194 236
f 236 194 233
f 258 285 244
f 244 285 132
f 257 55 258
f 258 55 285
f 257 154 201
f 201 154 185
f 56 201 204
f 204 201 180
f 55 257 56
f 56 257 201
f 204 85 56
f 56 85 52
f 86 122 53
f 53 122 79
f 212 215 86
f 86 215 122
f 211 216 212
f 212 216 215
f 192 280 211
f 211 280 216
f 191 240 192
f 192 240 280
f 249 124 7
f 7 124 8
f 124 127 8
f 8 127 241
f 127 267 241
f 241 267 10
f 10 267 9
f 9 267 11
