v -0.00568004697561264 0.06246371567249298 0.8919435143470764
v 0.0073224566876888275 0.05843526870012283 0.8912717700004578
v 0.0008370392024517059 0.05331741273403168 0.8960325121879578
v -0.010608658194541931 0.05821597948670387 0.8973627686500549
v 0.01726638153195381 0.04992000013589859 0.9090213179588318
v 0.019931692630052567 0.055165231227874756 0.9192473292350769
v 0.0037348978221416473 0.05156780034303665 0.9192351698875427
v 0.00540710985660553 0.047124311327934265 0.9097335934638977
v -0.01543138176202774 0.05754625052213669 0.9005947113037109
v -0.005729995667934418 0.05091371387243271 0.8989197015762329
v -0.01744198426604271 0.062050387263298035 0.9004807472229004
v -0.025818396359682083 0.07184424251317978 0.9062928557395935
v -0.0247554499655962 0.06555970758199692 0.9048733115196228
v -0.033161066472530365 0.07643741369247437 0.907764732837677
v -0.020430948585271835 0.08150535821914673 0.9071668386459351
v -0.031184976920485497 0.08488105237483978 0.9041765928268433
v -0.011879056692123413 0.09670232981443405 0.8893203735351562
v -0.00836232677102089 0.0976494699716568 0.8771419525146484
v -0.023929795250296593 0.09563373774290085 0.8758189082145691
v -0.02591405063867569 0.09407336264848709 0.888447105884552
v -0.013664953410625458 0.09250130504369736 0.858635663986206
v -0.02037593349814415 0.09445309638977051 0.8678979277610779
v -0.004544354975223541 0.09738518297672272 0.8692516088485718
v 0.0006631612777709961 0.09523837268352509 0.8608289361000061
v 0.0013104863464832306 0.06726151704788208 0.8806129097938538
v 0.012892212718725204 0.06555572152137756 0.8797284960746765
v 0.011624593287706375 0.06392500549554825 0.884069561958313
v -0.0002532191574573517 0.06614278256893158 0.8850287795066833
v -0.020610176026821136 0.06214448809623718 0.9046468734741211
v -0.014057010412216187 0.07259844988584518 0.9105339646339417
v -0.017594214528799057 0.06923707574605942 0.9051271677017212
v -0.019453614950180054 0.05841591954231262 0.900873064994812
v 0.03817008063197136 0.05914834141731262 0.8716244101524353
v 0.05000824108719826 0.06498285382986069 0.8738869428634644
v 0.049366023391485214 0.06551815569400787 0.8798278570175171
v 0.038818616420030594 0.06043747812509537 0.8765855431556702
v 0.040944527834653854 0.0619317889213562 0.9049537181854248
v 0.048347871750593185 0.06806572526693344 0.8991953134536743
v 0.05211060121655464 0.07701395452022552 0.9080333113670349
v 0.04273946210741997 0.07444458454847336 0.9127232432365417
v 0.03109857067465782 0.05698389559984207 0.9138296842575073
v 0.03250887617468834 0.06801169365644455 0.9196449518203735
v 0.017670590430498123 0.06519649922847748 0.9248998761177063
v -0.0003072693943977356 0.05854302644729614 0.9243360161781311
v 0.051455337554216385 0.06689850240945816 0.8613317012786865
v 0.04312239959836006 0.062387268990278244 0.8578701019287109
v -0.07915277779102325 0.1000424176454544 0.8978515267372131
v -0.07940132915973663 0.09957082569599152 0.8921084403991699
v -0.07634883373975754 0.09374154359102249 0.893877387046814
v -0.07637403905391693 0.09549088031053543 0.8991458415985107
v 0.04478183761239052 0.08107800781726837 0.8488755226135254
v 0.043344419449567795 0.09101128578186035 0.8497334718704224
v 0.05049312487244606 0.08992750197649002 0.8495094776153564
v 0.052049946039915085 0.0807437151670456 0.8505771160125732
v 0.03512388840317726 0.08135174959897995 0.8467774987220764
v 0.033336471766233444 0.09184359014034271 0.8505836725234985
v -0.06987771391868591 0.10764732956886292 0.9005513191223145
v -0.07399177551269531 0.10522392392158508 0.9022440910339355
v -0.07043496519327164 0.1018354669213295 0.9031619429588318
v -0.06631048023700714 0.10402935743331909 0.9005395174026489
v -0.021466892212629318 0.06287944316864014 0.9009250998497009
v -0.016650181263685226 0.06366484612226486 0.8938274383544922
v -0.04489075019955635 0.06732576340436935 0.9013296365737915
v -0.03158717602491379 0.06562837213277817 0.8970969319343567
v -0.031962886452674866 0.06605813652276993 0.9040205478668213
v -0.042363133281469345 0.06919795274734497 0.9069063663482666
v -0.021330665796995163 0.06804164499044418 0.8757080435752869
v -0.009589239954948425 0.06837067008018494 0.8769668936729431
v -0.012495815753936768 0.06812615692615509 0.8826251029968262
v -0.025774264708161354 0.06711853295564651 0.8830811977386475
v -0.005271483212709427 0.06557783484458923 0.8638361692428589
v -0.017202913761138916 0.06586849689483643 0.8636444211006165
v -0.01349211111664772 0.06413031369447708 0.856207549571991
v -0.005548298358917236 0.06338701397180557 0.8576847910881042
v -0.03986497223377228 0.06757381558418274 0.8659753799438477
v -0.048140715807676315 0.0716225653886795 0.8651146292686462
v -0.04788847267627716 0.0723831057548523 0.860733151435852
v -0.0383608415722847 0.06822793930768967 0.8624091744422913
v 0.05752306804060936 0.08994533866643906 0.8497539758682251
v 0.058798227459192276 0.08082231879234314 0.8531055450439453
v -0.004457920789718628 0.08535749465227127 0.841009795665741
v 0.0016231387853622437 0.07775038480758667 0.8360472321510315
v -0.010344371199607849 0.07561229914426804 0.831889271736145
v -0.01308654248714447 0.08406423777341843 0.8384644985198975
v 0.0402018167078495 0.09863778948783875 0.8560064435005188
v 0.04766819253563881 0.09860265254974365 0.8537097573280334
v -0.06665229797363281 0.10925464332103729 0.8955017924308777
v -0.06377319991588593 0.10548684746026993 0.8951206803321838
v 0.01728908345103264 0.07684000581502914 0.9227743744850159
v -0.0027828477323055267 0.06760701537132263 0.9237188100814819
v 0.03260064497590065 0.08190163224935532 0.9176759719848633
v 0.04225100949406624 0.0860922709107399 0.9122747778892517
v 0.05099223926663399 0.08850833028554916 0.9100433588027954
v -0.035695623606443405 0.06538653373718262 0.8913764953613281
v -0.010474015027284622 0.06614809483289719 0.887687623500824
v 0.00281665101647377 0.06714960187673569 0.8761318325996399
v 0.007597893476486206 0.05929899960756302 0.8470293879508972
v 0.018107254058122635 0.05900736153125763 0.8487394452095032
v 0.012395303696393967 0.058854926377534866 0.857654869556427
v 0.004358593374490738 0.05980607494711876 0.8542484045028687
v 0.002183102071285248 0.06806689500808716 0.8350611329078674
v -0.0007251165807247162 0.06213252618908882 0.8394092321395874
v -0.010234646499156952 0.0621817409992218 0.8374291062355042
v -0.008619986474514008 0.06726142764091492 0.8325343728065491
v -0.021694649010896683 0.06328432261943817 0.9114384651184082
v -0.01023443415760994 0.0749521404504776 0.915465772151947
v 0.045534443110227585 0.07100376486778259 0.8516646027565002
v 0.0521775521337986 0.07190431654453278 0.8554617762565613
v 0.05979611352086067 0.07462944835424423 0.8576691746711731
v 0.026003655046224594 0.061476338654756546 0.87746262550354
v 0.03938407823443413 0.06113239750266075 0.8803390264511108
v 0.03865576162934303 0.060465019196271896 0.8856443166732788
v 0.025990400463342667 0.06180998682975769 0.8806746006011963
v 0.019666563719511032 0.053557172417640686 0.8951270580291748
v 0.029606986790895462 0.05343661829829216 0.9017753601074219
v 0.01024392619729042 0.048619259148836136 0.8992300629615784
v 0.050168637186288834 0.0665418803691864 0.88840252161026
v 0.05906055495142937 0.06767655909061432 0.881684422492981
v 0.058549974113702774 0.06939771771430969 0.8905360698699951
v 0.05999767407774925 0.06839796900749207 0.8719699382781982
v 0.0602913536131382 0.07054854184389114 0.8633459806442261
v 0.05547310784459114 0.10145089030265808 0.8521138429641724
v 0.056945908814668655 0.07247255742549896 0.8983187079429626
v -0.0029190704226493835 0.045601457357406616 0.9085776805877686
v -0.010459154844284058 0.04320276901125908 0.9065492749214172
v -0.011792253702878952 0.046621836721897125 0.8994541168212891
v -0.004826199263334274 0.04801614582538605 0.9002960324287415
v -0.04180799052119255 0.08192739635705948 0.9080399870872498
v -0.04316028207540512 0.07465661317110062 0.9093297719955444
v -0.031767621636390686 0.06971190124750137 0.908534586429596
v 0.028551224619150162 0.058060891926288605 0.8652303814888
v 0.0332966111600399 0.060553986579179764 0.8539140820503235
v -0.0483885332942009 0.06871351599693298 0.8953717350959778
v -0.06251952797174454 0.10357103496789932 0.9001299738883972
v -0.0658804327249527 0.1003728061914444 0.9035792946815491
v -0.05293801426887512 0.09199558943510056 0.906032383441925
v -0.050512902438640594 0.09633021801710129 0.9019498229026794
v -0.05527619644999504 0.07805804163217545 0.8895469903945923
v -0.05396943911910057 0.0741971880197525 0.894697368144989
v -0.056618958711624146 0.07836449146270752 0.8936066031455994
v -0.057676345109939575 0.08199777454137802 0.8885350823402405
v -0.04174289107322693 0.07024045288562775 0.8543484807014465
v -0.03388272970914841 0.06696708500385284 0.8554171919822693
v -0.040753453969955444 0.08860889077186584 0.8869513273239136
v -0.03687398135662079 0.09046895802021027 0.8982950448989868
v -0.02755589783191681 0.09167411178350449 0.8971863389015198
v -0.01818327233195305 0.06725914776325226 0.8689972162246704
v -0.028975777328014374 0.06673093885183334 0.8670003414154053
v -0.027773424983024597 0.06651605665683746 0.863045871257782
v -0.03925592452287674 0.06640546768903732 0.8878375291824341
v -0.04912635684013367 0.06949294358491898 0.8892350792884827
v -0.04474444314837456 0.06846334785223007 0.8840989470481873
v -0.03548089414834976 0.06723567843437195 0.8828139305114746
v 0.013952840119600296 0.08020000904798508 0.8393315672874451
v 0.014845546334981918 0.06876711547374725 0.8377777338027954
v -0.07722696661949158 0.10226795822381973 0.9014419317245483
v -0.07397148758172989 0.09826423227787018 0.9025872945785522
v -0.0067512765526771545 0.06759864091873169 0.8703774213790894
v -0.014730561524629593 0.09264421463012695 0.8974566459655762
v 0.004603918641805649 0.06637827306985855 0.8711044788360596
v -0.028669174760580063 0.08400870114564896 0.8480551242828369
v -0.02947797253727913 0.07842089235782623 0.8446948528289795
v -0.03508376330137253 0.07893506437540054 0.845908522605896
v -0.03481892868876457 0.0846974328160286 0.8471663594245911
v -0.06794295459985733 0.09300920367240906 0.8848697543144226
v -0.07135084271430969 0.09052875638008118 0.8888722658157349
v -0.07480993866920471 0.09419561922550201 0.887677788734436
v -0.07113242149353027 0.09657028317451477 0.884091317653656
v -0.05295736342668533 0.07400958240032196 0.9005031585693359
v -0.05075082555413246 0.07542680203914642 0.9064341187477112
v -0.056822288781404495 0.08085329830646515 0.9040974378585815
v -0.057339463382959366 0.07912691682577133 0.8986285924911499
v -0.04993830993771553 0.08168405294418335 0.9084306359291077
v -0.05506782606244087 0.0861884206533432 0.9068013429641724
v -0.06326352059841156 0.09777302294969559 0.8847941160202026
v -0.059229034930467606 0.10297441482543945 0.8890000581741333
v -0.05029790475964546 0.09510339051485062 0.8894646167755127
v -0.055583029985427856 0.08943115174770355 0.8871657252311707
v 0.014807429164648056 0.09850344061851501 0.8632798194885254
v 0.01854703202843666 0.09462963044643402 0.8536770939826965
v 0.004527870565652847 0.09133017808198929 0.8509364724159241
v -0.008746415376663208 0.08877792209386826 0.8478363156318665
v -0.02112767845392227 0.0851333886384964 0.8460948467254639
v -0.025188615545630455 0.09077206999063492 0.8562431335449219
v 0.008470125496387482 0.08818968385457993 0.8447402715682983
v -0.05256560072302818 0.08259464800357819 0.8848296999931335
v -0.04563221335411072 0.08799824118614197 0.8906738758087158
v -0.04759344086050987 0.08613890409469604 0.8859732747077942
v 0.006166644394397736 0.0636458620429039 0.8644152283668518
v -0.06891319155693054 0.09660361707210541 0.9038432240486145
v 0.04036743566393852 0.10249964892864227 0.8982107639312744
v 0.04074880853295326 0.10627894848585129 0.8856416940689087
v 0.0323309563100338 0.10429282486438751 0.8872671723365784
v 0.03147583082318306 0.09956959635019302 0.9008515477180481
v -0.07263611257076263 0.08972751349210739 0.8955528140068054
v -0.07200971245765686 0.09219314157962799 0.9011110067367554
v -0.03262755647301674 0.06670178472995758 0.8490402698516846
v -0.0386975072324276 0.07043050974607468 0.8494419455528259
v -0.03807564824819565 0.07266713678836823 0.8465498685836792
v -0.033072300255298615 0.06806154549121857 0.8441705703735352
v 0.021766360849142075 0.09208223223686218 0.8495235443115234
v -0.018595047295093536 0.07383677363395691 0.8297969102859497
v -0.019580882042646408 0.08181994408369064 0.8349425196647644
v 0.030836697667837143 0.09756408631801605 0.8564888834953308
v 0.02766040340065956 0.10152783989906311 0.8647430539131165
v 0.03710419312119484 0.10353537648916245 0.8652234077453613
v -0.036658208817243576 0.0904674157500267 0.8669739365577698
v 0.010152976959943771 0.10004839301109314 0.870358943939209
v 0.024216581135988235 0.1024816706776619 0.871465802192688
v 0.03537589684128761 0.10488985478878021 0.872356653213501
v 0.04337744787335396 0.10712073743343353 0.872256338596344
v 0.04450612887740135 0.105191670358181 0.8644570112228394
v -0.060151033103466034 0.1042025089263916 0.89421546459198
v -0.06269446760416031 0.104736328125 0.8890190124511719
v 0.05278296396136284 0.10856147110462189 0.8630211353302002
v 0.05128200724720955 0.10996059328317642 0.8720290064811707
v 0.02106970176100731 0.10270778834819794 0.8801102638244629
v 0.01753133162856102 0.10173475742340088 0.8901964426040649
v 0.007597759366035461 0.10019956529140472 0.878585159778595
v 0.0030415430665016174 0.09908246248960495 0.8885334730148315
v -0.034694939851760864 0.09353473782539368 0.8767799139022827
v -0.07355742901563644 0.11615880578756332 0.884899914264679
v -0.068384550511837 0.10636790096759796 0.8847939372062683
v -0.07304750382900238 0.10298832505941391 0.8834213614463806
v -0.07622413337230682 0.11341967433691025 0.882598340511322
v -0.0664605051279068 0.10047058761119843 0.8846153020858765
v -0.06539644300937653 0.10864321887493134 0.8892765045166016
v -0.000151023268699646 0.09395003318786621 0.8995320200920105
v -0.05418255180120468 0.07354608178138733 0.8834304213523865
v 0.015149395912885666 0.09450529515743256 0.9037452936172485
v -0.008923158049583435 0.08591179549694061 0.9090564250946045
v 0.0018568150699138641 0.08489521592855453 0.9126703143119812
v 0.030675072222948074 0.0934443473815918 0.9108204245567322
v 0.01588791236281395 0.08668696135282516 0.9167519807815552
v 0.04891711845993996 0.09767179191112518 0.9056628346443176
v 0.03982755169272423 0.09608741104602814 0.9072782397270203
v 0.0007234327495098114 0.07813055068254471 0.9196099042892456
v -0.0850784033536911 0.10832970589399338 0.8921090960502625
v -0.0834939032793045 0.10743534564971924 0.8868343830108643
v 0.048465605825185776 0.10481006652116776 0.8972857594490051
v 0.001485522836446762 0.04746343940496445 0.9004734754562378
v 0.016473714262247086 0.06179686263203621 0.8676967024803162
v 0.014972258359193802 0.06396447122097015 0.8725097179412842
v 0.024242598563432693 0.059382859617471695 0.8504990339279175
v 0.019521895796060562 0.05858476459980011 0.861127495765686
v -0.08393930643796921 0.11053530126810074 0.8966573476791382
v -0.04992825910449028 0.0776548758149147 0.8638860583305359
v -0.04940202087163925 0.07761450111865997 0.861575722694397
v -0.004649557173252106 0.04721330106258392 0.9171998500823975
v -0.0112537182867527 0.0439298190176487 0.9142371416091919
v -0.019906267523765564 0.0528939887881279 0.918556809425354
v -0.015799541026353836 0.0470515713095665 0.9187583923339844
v -0.008908774703741074 0.05265837162733078 0.9220132231712341
v -0.012623384594917297 0.059385307133197784 0.921594500541687
v 0.0257796011865139 0.060829345136880875 0.8747687339782715
v 0.025994781404733658 0.05989140644669533 0.8709132075309753
v 0.025282617658376694 0.08062294870615005 0.8430131673812866
v 0.025478322058916092 0.06920526921749115 0.8417896032333374
v -0.04758041352033615 0.08703950047492981 0.9069692492485046
v -0.03975878655910492 0.08783093094825745 0.9045130610466003
v -0.04501822218298912 0.09174460172653198 0.9027178287506104
v -0.04813157021999359 0.09695124626159668 0.8958477973937988
v -0.05615176260471344 0.0795104056596756 0.8831457495689392
v -0.052328817546367645 0.08339213579893112 0.888283908367157
v 0.03456992283463478 0.057039402425289154 0.8924354910850525
v 0.02430366352200508 0.05915918946266174 0.8869835138320923
v -0.009974468499422073 0.05192772299051285 0.8986048102378845
v -0.01554209366440773 0.0522630512714386 0.8973394632339478
v -0.030890926718711853 0.06727466732263565 0.8759782910346985
v -0.0433318130671978 0.08961047232151031 0.8690256476402283
v -0.04238066077232361 0.09260468184947968 0.8770578503608704
v -0.04133850708603859 0.06815269589424133 0.8756545186042786
v -0.07819195091724396 0.11654141545295715 0.8974900245666504
v -0.08200184255838394 0.11322835832834244 0.8981103897094727
v -0.04364527761936188 0.0925714373588562 0.8970330953598022
v -0.024600015953183174 0.06426580995321274 0.8555993437767029
v -0.04067828506231308 0.08716808259487152 0.8633833527565002
v -0.04597673937678337 0.08431646972894669 0.865323007106781
v -0.015494909137487411 0.06637686491012573 0.8314316868782043
v 0.04938249662518501 0.10830017179250717 0.8852211236953735
v -0.07749368250370026 0.10078642517328262 0.8859404921531677
v -0.08054912090301514 0.10849858075380325 0.8829730153083801
v -0.07169482111930847 0.11788278073072433 0.88835209608078
v -0.07278323173522949 0.11802799999713898 0.8938890695571899
v 0.034806136041879654 0.06928757578134537 0.8471050262451172
v 0.013707835227251053 0.06515007466077805 0.8755894303321838
v -0.012056257575750351 0.06948301941156387 0.9185903668403625
v -0.021811001002788544 0.05953952670097351 0.915290892124176
v -0.0497274175286293 0.07066464424133301 0.8745807409286499
v -0.024303540587425232 0.08200503140687943 0.8415695428848267
v -0.032992713153362274 0.08998431265354156 0.8544366955757141
v -0.03864315152168274 0.09066252410411835 0.8520894646644592
v -0.0448162779211998 0.08985750377178192 0.8560246229171753
v -0.0502987876534462 0.08487922698259354 0.8577272295951843
v -0.07465221732854843 0.12090235948562622 0.8862101435661316
v -0.07662719488143921 0.12238843739032745 0.8914930820465088
v -0.08181995153427124 0.12202736735343933 0.8936966061592102
v -0.08569633960723877 0.11853146553039551 0.894414484500885
v -0.08692985773086548 0.11382656544446945 0.8934198021888733
v -0.07634087651968002 0.1189066618680954 0.8828772306442261
v -0.07844403386116028 0.11628269404172897 0.8811619877815247
v -0.08204809576272964 0.11098948121070862 0.8823193311691284
v -0.07706838846206665 0.1207801103591919 0.8797645568847656
v -0.0767475888133049 0.12513487040996552 0.8815737366676331
v -0.08700243383646011 0.13151898980140686 0.884579062461853
v -0.08336244523525238 0.12864890694618225 0.8877814412117004
v -0.0828394889831543 0.13000503182411194 0.8857755661010742
v -0.08491560816764832 0.13305208086967468 0.882786214351654
v -0.08562804013490677 0.13635973632335663 0.8792244791984558
v -0.08852718770503998 0.13497211039066315 0.8807826638221741
v -0.07924710959196091 0.12757185101509094 0.8850557208061218
v -0.08130586892366409 0.13165269792079926 0.8807851672172546
v -0.07903960347175598 0.1297713667154312 0.8778224587440491
v -0.07997342199087143 0.13385623693466187 0.874704122543335
v -0.08206582069396973 0.13590453565120697 0.8773142099380493
v -0.07786419987678528 0.1272358000278473 0.88108891248703
v -0.07860460877418518 0.12665022909641266 0.8862858414649963
v -0.08788631856441498 0.13689658045768738 0.8768956661224365
v -0.08557446300983429 0.1379278600215912 0.8769556879997253
v -0.08299094438552856 0.13731494545936584 0.8750288486480713
v -0.08504956215620041 0.1372082531452179 0.8728687763214111
v -0.08697240054607391 0.12384626269340515 0.8904009461402893
v -0.08892084658145905 0.12992772459983826 0.8845108151435852
v -0.08990801870822906 0.13256563246250153 0.8794755935668945
v -0.08913564682006836 0.134694442152977 0.8757205605506897
v -0.09031850844621658 0.1273881047964096 0.8818601369857788
v -0.09015407413244247 0.13016755878925323 0.8778896927833557
v -0.08943482488393784 0.1317182183265686 0.8743130564689636
v -0.09014751017093658 0.12482406944036484 0.8786014914512634
v -0.08967939019203186 0.12806697189807892 0.8756307363510132
v -0.0886583924293518 0.11497434228658676 0.8876890540122986
v -0.08836717158555984 0.11833824217319489 0.8903432488441467
v -0.08961638808250427 0.12974151968955994 0.8735917806625366
v -0.08586587011814117 0.13539472222328186 0.8718692660331726
v -0.07816169410943985 0.12656015157699585 0.8764358758926392
v -0.0803263932466507 0.13129815459251404 0.8724982142448425
v -0.07880604267120361 0.12485446035861969 0.8752713203430176
v -0.08072897046804428 0.12934646010398865 0.8710326552391052
v -0.08149969577789307 0.1347818672657013 0.8707011342048645
v -0.08126252889633179 0.13570505380630493 0.8731651306152344
v -0.08640100061893463 0.11021511256694794 0.8900649547576904
v -0.08436305075883865 0.1092911958694458 0.8852758407592773
v -0.08582606911659241 0.11291099339723587 0.8831661939620972
v -0.08789777755737305 0.12261897325515747 0.8752806186676025
v -0.08286157250404358 0.11376655101776123 0.879975438117981
v -0.0789482370018959 0.11870881170034409 0.877937376499176
v -0.08053998649120331 0.123683862388134 0.8736709952354431
v -0.08347943425178528 0.12239743024110794 0.8732765913009644
v -0.0823039785027504 0.12734867632389069 0.8708743453025818
v -0.08460783213376999 0.12630608677864075 0.8714754581451416
v -0.08790770173072815 0.12646332383155823 0.8729972839355469
v -0.08441662043333054 0.13038524985313416 0.8698460459709167
v -0.08260604739189148 0.132831871509552 0.8698685169219971
v -0.08711578696966171 0.13228271901607513 0.8713303804397583
v -0.08539366722106934 0.12868686020374298 0.8705019354820251
v -0.0875917449593544 0.129721537232399 0.8720234632492065
v -0.07764595746994019 0.1028347760438919 0.8541312217712402
v -0.07232758402824402 0.10225736349821091 0.8514705300331116
v -0.07220336049795151 0.09355558454990387 0.8555419445037842
v -0.07593627274036407 0.09461541473865509 0.8590755462646484
v -0.07459902763366699 0.10623618960380554 0.8664738535881042
v -0.07888934761285782 0.1051737368106842 0.8627515435218811
v -0.0758243203163147 0.10055896639823914 0.8676863312721252
v -0.07013730704784393 0.10343635827302933 0.8690974116325378
v -0.06860291212797165 0.1065845787525177 0.8660547733306885
v -0.06452639400959015 0.10357192158699036 0.8668696284294128
v -0.06625547260046005 0.10406428575515747 0.8713321089744568
v -0.07143602520227432 0.09920351952314377 0.8713307976722717
v -0.05712920427322388 0.08765393495559692 0.8804746866226196
v -0.05344058945775032 0.09378494322299957 0.87973952293396
v -0.05409672483801842 0.07661102712154388 0.8664816617965698
v -0.05289211496710777 0.08025155961513519 0.8649359345436096
v -0.07943755388259888 0.10401921719312668 0.857974112033844
v -0.07728496193885803 0.09743471443653107 0.8637483716011047
v -0.06365151703357697 0.09277426451444626 0.8539830446243286
v -0.06799019873142242 0.09027490764856339 0.8559663891792297
v -0.06826137006282806 0.0941678062081337 0.8526185154914856
v -0.06407889723777771 0.09635801613330841 0.852703869342804
v -0.05827775225043297 0.07888523489236832 0.8773738741874695
v -0.055624041706323624 0.07618008553981781 0.8722602725028992
v -0.05859566852450371 0.08298411220312119 0.8789633512496948
v -0.05973965302109718 0.09747995436191559 0.855731189250946
v -0.05775820463895798 0.10245024412870407 0.8598201870918274
v -0.047060251235961914 0.09398146718740463 0.8674296140670776
v -0.04882575199007988 0.08838865160942078 0.8642132878303528
v -0.07417580485343933 0.09510411322116852 0.8686347007751465
v -0.07174399495124817 0.08990881592035294 0.8600764274597168
v -0.0741923451423645 0.0914100930094719 0.8640755414962769
v -0.06093016639351845 0.10486789792776108 0.8666213750839233
v -0.060844309628009796 0.10320277512073517 0.8607385754585266
v -0.06020604074001312 0.11717292666435242 0.854820966720581
v -0.061501119285821915 0.10498561710119247 0.8575462102890015
v -0.06347725540399551 0.10396052151918411 0.8530272841453552
v -0.06127213314175606 0.11636592447757721 0.8499480485916138
v -0.06149812042713165 0.09945543110370636 0.8562442064285278
v -0.06343157589435577 0.1061798483133316 0.8622027039527893
v -0.0744306892156601 0.11874301731586456 0.848365843296051
v -0.06901106238365173 0.11742224544286728 0.8457303047180176
v -0.07655701041221619 0.12018696218729019 0.8521298170089722
v -0.04906566068530083 0.09658362716436386 0.8739942312240601
v -0.07355035841464996 0.12040823698043823 0.8615860939025879
v -0.07687684893608093 0.12046940624713898 0.8563874363899231
v -0.0670815110206604 0.10287697613239288 0.8506428599357605
v -0.0643339455127716 0.11675199866294861 0.8465557098388672
v -0.06137734651565552 0.1183767169713974 0.8592008352279663
v -0.06742266565561295 0.11877188831567764 0.863331139087677
v -0.060322053730487823 0.12206718325614929 0.8541035652160645
v -0.06429283320903778 0.12506398558616638 0.858217716217041
v -0.06979653984308243 0.12727424502372742 0.8566874265670776
v -0.07386965304613113 0.1270778328180313 0.8525681495666504
v -0.07481285184621811 0.1253834068775177 0.8492087721824646
v -0.06002464517951012 0.12082688510417938 0.8504394888877869
v -0.06173773109912872 0.12021201848983765 0.8461650013923645
v -0.06591343879699707 0.11947090178728104 0.8442379832267761
v -0.0586605928838253 0.12331268936395645 0.8451590538024902
v -0.05787614360451698 0.12559308111667633 0.848153829574585
v -0.06219891831278801 0.14137046039104462 0.8429756760597229
v -0.06413114070892334 0.1378268450498581 0.8469617366790771
v -0.06161386892199516 0.13723905384540558 0.8472980260848999
v -0.05961047485470772 0.14052851498126984 0.84381103515625
v -0.06462833285331726 0.13392603397369385 0.851543664932251
v -0.0621996708214283 0.13416706025600433 0.8503404855728149
v -0.05962362512946129 0.13048014044761658 0.8502986431121826
v -0.05802629888057709 0.13426831364631653 0.8464094996452332
v -0.056037578731775284 0.1302071213722229 0.8446685671806335
v -0.05356252193450928 0.13370564579963684 0.8416480422019958
v -0.05521774664521217 0.1379932165145874 0.8433754444122314
v -0.05730484053492546 0.12860475480556488 0.8478463292121887
v -0.057615432888269424 0.14184629917144775 0.8413882851600647
v -0.05864763632416725 0.14257287979125977 0.8390952944755554
v -0.061241015791893005 0.12901924550533295 0.8522617220878601
v -0.07073371857404709 0.13162629306316376 0.850860059261322
v -0.06656166166067123 0.1377275586128235 0.8451752662658691
v -0.06390783935785294 0.1409282237291336 0.840364396572113
v -0.05936967581510544 0.14121946692466736 0.8364749550819397
v -0.06774629652500153 0.13609707355499268 0.8416448831558228
v -0.06436775624752045 0.1390918791294098 0.837809681892395
v -0.060311660170555115 0.13905952870845795 0.8350759148597717
v -0.06757144629955292 0.13321688771247864 0.8380134701728821
v -0.06375257670879364 0.1360350251197815 0.8349847197532654
v -0.07307394593954086 0.12618190050125122 0.84429931640625
v -0.07328873127698898 0.1291954219341278 0.84749835729599
v -0.06146294251084328 0.1370861828327179 0.8344199061393738
v -0.05423855036497116 0.14056286215782166 0.8381739854812622
v -0.055718421936035156 0.1393866091966629 0.8353421688079834
v -0.05427854508161545 0.14011074602603912 0.8400142788887024
v -0.055652692914009094 0.12854015827178955 0.8434069156646729
v -0.05356216803193092 0.13249938189983368 0.8397088050842285
v -0.05609532445669174 0.12708494067192078 0.8411834239959717
v -0.053897466510534286 0.13169540464878082 0.8374751806259155
v -0.052495554089546204 0.13612979650497437 0.8375676274299622
v -0.0525234155356884 0.13700342178344727 0.8390761017799377
v -0.07347182184457779 0.12281477451324463 0.8462921380996704
v -0.06940208375453949 0.12022807449102402 0.8441728949546814
v -0.07015559822320938 0.12266482412815094 0.8420275449752808
v -0.0649622455239296 0.1294964700937271 0.8361265659332275
v -0.06608568131923676 0.12090203911066055 0.8419541716575623
v -0.060886651277542114 0.12196739763021469 0.8428825736045837
v -0.057938821613788605 0.12616851925849915 0.8392841815948486
v -0.06097047030925751 0.12701106071472168 0.8369325995445251
v -0.054921019822359085 0.13055205345153809 0.835847020149231
v -0.058118876069784164 0.12996059656143188 0.8351085782051086
v -0.061868008226156235 0.13270732760429382 0.8339812755584717
v -0.054276492446660995 0.1344767063856125 0.8342060446739197
v -0.052960172295570374 0.13555891811847687 0.8359230756759644
v -0.05707965046167374 0.13795962929725647 0.8342790007591248
v -0.05683007836341858 0.13302454352378845 0.8337238430976868
v -0.05925822630524635 0.13574598729610443 0.83356112241745
v -0.07049767673015594 0.08127429336309433 0.8330237865447998
v -0.0665002167224884 0.07852767407894135 0.8306388258934021
v -0.06380800157785416 0.07537639141082764 0.8353886008262634
v -0.06791473180055618 0.07842708379030228 0.8381060361862183
v -0.06583669036626816 0.09295949339866638 0.8370386362075806
v -0.06987565010786057 0.08989075571298599 0.8366105556488037
v -0.06795677542686462 0.08786700665950775 0.8407151103019714
v -0.06332781910896301 0.09108655899763107 0.8417678475379944
v -0.061316244304180145 0.09431750327348709 0.8339809775352478
v -0.05800144746899605 0.0917864441871643 0.8391603827476501
v -0.0603242926299572 0.09233968704938889 0.8450313210487366
v -0.06506817787885666 0.08793002367019653 0.8446958661079407
v -0.05396432429552078 0.08563367277383804 0.854202389717102
v -0.0500505268573761 0.09127940237522125 0.8524754643440247
v -0.07114048302173615 0.08556454628705978 0.8349111080169678
v -0.06920807808637619 0.08326666802167892 0.839453399181366
v -0.053907763212919235 0.07711335271596909 0.8341636657714844
v -0.057206034660339355 0.07497081905603409 0.8363562822341919
v -0.05941807106137276 0.0757962167263031 0.8324253559112549
v -0.0564919076859951 0.07807421684265137 0.8311601877212524
v -0.05158216133713722 0.07483535259962082 0.8551064133644104
v -0.04667132347822189 0.07305023819208145 0.8516817092895508
v -0.054544396698474884 0.0796152651309967 0.8546864986419678
v -0.05142034590244293 0.082883320748806 0.8340312242507935
v -0.05087458714842796 0.0896974578499794 0.8367078304290771
v -0.04121860861778259 0.08717148005962372 0.8431224226951599
v -0.041243813931941986 0.08089781552553177 0.8429045081138611
v -0.06628377735614777 0.08296985924243927 0.843975841999054
v -0.06095867604017258 0.07479666918516159 0.8398310542106628
v -0.06515422463417053 0.07775026559829712 0.8425001502037048
v -0.05508992820978165 0.0929325670003891 0.8414818048477173
v -0.054440297186374664 0.08867743611335754 0.8347274661064148
v -0.06118916720151901 0.09545346349477768 0.8161790370941162
v -0.05539136379957199 0.08599099516868591 0.8287032246589661
v -0.05826258659362793 0.08132816851139069 0.8273180723190308
v -0.0621868297457695 0.09168250858783722 0.8142244815826416
v -0.05396679788827896 0.08312100917100906 0.8312187790870667
v -0.05640389025211334 0.09149420261383057 0.8312218189239502
v -0.07485032826662064 0.08965570479631424 0.8169336915016174
v -0.07019304484128952 0.0872415155172348 0.815412700176239
v -0.07566705346107483 0.0925707146525383 0.8197506666183472
v -0.04461371898651123 0.09250365197658539 0.847974956035614
v -0.04252755641937256 0.07478636503219604 0.8460336327552795
v -0.07290146499872208 0.09903274476528168 0.8213823437690735
v -0.07546865940093994 0.09574850648641586 0.8208663463592529
v -0.061716917902231216 0.07893746346235275 0.8284278512001038
v -0.06524989008903503 0.08839423954486847 0.81382817029953
v -0.06295016407966614 0.0985310971736908 0.8188997507095337
v -0.06752843409776688 0.10036312788724899 0.821590781211853
v -0.06298365443944931 0.09948132187128067 0.8138329982757568
v -0.06773442029953003 0.10168424248695374 0.8157936930656433
v -0.07250473648309708 0.1016615629196167 0.815045952796936
v -0.07517160475254059 0.09887772798538208 0.8143913745880127
v -0.07596450299024582 0.09560289233922958 0.8134430050849915
v -0.06176549196243286 0.0962785929441452 0.8112154603004456
v -0.06311407685279846 0.09293249249458313 0.8098791241645813
v -0.06607502698898315 0.09006597846746445 0.8113504648208618
v -0.0613134503364563 0.09589947015047073 0.8072720766067505
v -0.06234290823340416 0.1011197417974472 0.8076980113983154
v -0.07165864109992981 0.10630786418914795 0.7966972589492798
v -0.07198149710893631 0.10480372607707977 0.8018218278884888
v -0.07075421512126923 0.10522560030221939 0.8017882704734802
v -0.07021625339984894 0.10716754198074341 0.7967738509178162
v -0.07087630033493042 0.10426615178585052 0.8082314729690552
v -0.0695381611585617 0.1048872172832489 0.8064465522766113
v -0.066090427339077 0.10411684215068817 0.8073909282684326
v -0.06563229113817215 0.1054002195596695 0.8012956380844116
v -0.061692629009485245 0.10116930305957794 0.8010584712028503
v -0.062264833599328995 0.10276984423398972 0.7967113256454468
v -0.06551904231309891 0.10707764327526093 0.7966896295547485
v -0.06249656900763512 0.10188303887844086 0.8061164617538452
v -0.06897754967212677 0.10750080645084381 0.7941082715988159
v -0.07071231305599213 0.10813136398792267 0.7930945754051208
v -0.06692589819431305 0.10359558463096619 0.80961674451828
v -0.07488065958023071 0.10198444873094559 0.8091144561767578
v -0.07432522624731064 0.10333024710416794 0.801474928855896
v -0.0745372399687767 0.10468006134033203 0.7958692312240601
v -0.07225029170513153 0.10483381152153015 0.7922940254211426
v -0.07500897347927094 0.09980614483356476 0.8006927967071533
v -0.07452517747879028 0.10147464275360107 0.7955837249755859
v -0.07262639701366425 0.1017647236585617 0.7922358512878418
v -0.07422028481960297 0.09674802422523499 0.8002802729606628
v -0.07333900034427643 0.09845494478940964 0.7955431938171387
v -0.0747888833284378 0.09361432492733002 0.8101569414138794
v -0.07572335004806519 0.09793152660131454 0.8098158836364746
v -0.07213950157165527 0.09967774152755737 0.7928670644760132
v -0.06620527803897858 0.10691935569047928 0.7919268608093262
v -0.06738913059234619 0.10318614542484283 0.7903695106506348
v -0.06616964191198349 0.10664740204811096 0.793684184551239
v -0.06099788844585419 0.0994919165968895 0.8014287352561951
v -0.06105184927582741 0.10108610987663269 0.7955060601234436
v -0.06134538725018501 0.09663324058055878 0.8011175394058228
v -0.061423931270837784 0.0982622355222702 0.795033872127533
v -0.06243111565709114 0.1035245805978775 0.7928419709205627
v -0.06300792098045349 0.10419175028800964 0.7936553359031677
v -0.07426460087299347 0.091766357421875 0.8131896257400513
v -0.07037658989429474 0.08940383791923523 0.8120876550674438
v -0.071478933095932 0.09071125090122223 0.8094364404678345
v -0.07113593816757202 0.09405377507209778 0.7991647124290466
v -0.06711041182279587 0.09040962159633636 0.8089527487754822
v -0.06321272253990173 0.09318501502275467 0.8060733079910278
v -0.06344392150640488 0.09443743526935577 0.8002703785896301
v -0.0668117105960846 0.09355024993419647 0.799233615398407
v -0.06327538192272186 0.09613057971000671 0.7947490811347961
v -0.06602471321821213 0.09548377245664597 0.7954620122909546
v -0.07068787515163422 0.0957997590303421 0.794684648513794
v -0.06496982276439667 0.09874475002288818 0.7922033071517944
v -0.06308390200138092 0.10091081261634827 0.791944146156311
v -0.06877551972866058 0.10042470693588257 0.7906743288040161
v -0.06674870103597641 0.09719428420066833 0.7928516268730164
v -0.06970975548028946 0.09838035702705383 0.7917656302452087
v -0.04368620365858078 0.07276353240013123 0.8486103415489197
v -0.04883372783660889 0.0693923830986023 0.8433538675308228
v -0.05060967057943344 0.06596746295690536 0.8422265648841858
v -0.04686391353607178 0.06482081115245819 0.8398726582527161
v -0.04443690553307533 0.06789859384298325 0.8413971066474915
v -0.04974932596087456 0.07757935672998428 0.8364860415458679
v -0.04885771870613098 0.0759144052863121 0.8405898213386536
v -0.04488268494606018 0.07560230791568756 0.8380985260009766
v -0.04533420130610466 0.07722926139831543 0.8335859179496765
v -0.05191194638609886 0.07621919363737106 0.8320562243461609
v -0.04742737114429474 0.07566552609205246 0.8290714621543884
v -0.042558424174785614 0.07892382144927979 0.8340223431587219
v -0.04245344549417496 0.07656757533550262 0.8384182453155518
v -0.0315244197845459 0.0784403532743454 0.8416531085968018
v -0.029773153364658356 0.08134428411722183 0.8378103375434875
v -0.022006705403327942 0.06616991013288498 0.8311038613319397
v -0.02214106172323227 0.06302042305469513 0.8354201316833496
v -0.029784340411424637 0.06367005407810211 0.8343058824539185
v -0.028951112180948257 0.0653400719165802 0.8303254246711731
v -0.04845563322305679 0.07294195890426636 0.8427033424377441
v -0.04479029402136803 0.07173578441143036 0.8412181735038757
v -0.043854884803295135 0.06249212473630905 0.8308165669441223
v -0.043749723583459854 0.061680857092142105 0.8353238105773926
v -0.04859092831611633 0.06240951269865036 0.8371995687484741
v -0.050788432359695435 0.06244603171944618 0.8329522013664246
v -0.025407910346984863 0.06329036504030228 0.8395487666130066
v -0.028180085122585297 0.06481431424617767 0.8426390886306763
v -0.03114594891667366 0.06639614701271057 0.8421528339385986
v -0.03125973045825958 0.06436719000339508 0.8385379314422607
v -0.0328039675951004 0.07132347673177719 0.8439579606056213
v -0.04423581063747406 0.06536620855331421 0.8276341557502747
v -0.043978676199913025 0.07128450274467468 0.82574063539505
v -0.02728084661066532 0.0737796351313591 0.8265658617019653
v -0.027280813083052635 0.06905460357666016 0.8275664448738098
v -0.042364127933979034 0.07276803255081177 0.8410201668739319
v -0.04368304833769798 0.06369304656982422 0.8392192721366882
v -0.042485252022743225 0.06773709505796432 0.8410245776176453
v -0.042435117065906525 0.07739125192165375 0.8286657333374023
v -0.050537172704935074 0.07080470025539398 0.8273144364356995
v -0.06367073953151703 0.0678664818406105 0.8366638422012329
v -0.05659010633826256 0.06634832173585892 0.8317061066627502
v -0.05556458607316017 0.06379959732294083 0.835328996181488
v -0.06271813809871674 0.06555478274822235 0.8388004899024963
v -0.050510480999946594 0.06556045264005661 0.829117476940155
v -0.05572482571005821 0.07156442105770111 0.8304649591445923
v -0.055705055594444275 0.07002544403076172 0.8479019403457642
v -0.05781949684023857 0.06613127887248993 0.8453514575958252
v -0.055227864533662796 0.07320636510848999 0.8477973937988281
v -0.028324846178293228 0.08052019029855728 0.8314083218574524
v -0.05764699727296829 0.07817450165748596 0.8430318236351013
v -0.05625712126493454 0.07613328099250793 0.8465967774391174
v -0.052978575229644775 0.06417297571897507 0.8394435048103333
v -0.060555554926395416 0.06472760438919067 0.8420067429542542
v -0.06327539682388306 0.0723869577050209 0.8359807729721069
v -0.060240600258111954 0.07713286578655243 0.8379568457603455
v -0.06659919023513794 0.07344222068786621 0.8392545580863953
v -0.06381885707378387 0.07715335488319397 0.8416667580604553
v -0.061079587787389755 0.07699316740036011 0.847898542881012
v -0.058900486677885056 0.07440834492444992 0.8495490550994873
v -0.057850372046232224 0.07142408192157745 0.8500000238418579
v -0.0663706362247467 0.06844523549079895 0.8390141129493713
v -0.064938485622406 0.0659627616405487 0.840324878692627
v -0.06204569339752197 0.06470350921154022 0.8427971005439758
v -0.06956379860639572 0.06881444156169891 0.8417883515357971
v -0.0705099105834961 0.07227741181850433 0.844852089881897
v -0.07148689031600952 0.06709320098161697 0.8569615483283997
v -0.06836811453104019 0.06898876279592514 0.8553723692893982
v -0.06914651393890381 0.06950942426919937 0.8547219634056091
v -0.07211379706859589 0.06795167177915573 0.8567771911621094
v -0.06548919528722763 0.07278348505496979 0.8527073264122009
v -0.0671488344669342 0.07215660065412521 0.8525161743164062
v -0.06809955835342407 0.07347570359706879 0.8492740392684937
v -0.07182994484901428 0.07104654610157013 0.8517376780509949
v -0.07413557171821594 0.06883827596902847 0.84747314453125
v -0.0767846554517746 0.06726895272731781 0.849892795085907
v -0.0746617466211319 0.06963928043842316 0.8534128069877625
v -0.07107365131378174 0.07201927155256271 0.8466326594352722
v -0.07468126714229584 0.06757058203220367 0.8574152588844299
v -0.07505159080028534 0.06655437499284744 0.858296275138855
v -0.06707122921943665 0.07551627606153488 0.8480090498924255
v -0.06227786839008331 0.07061532884836197 0.8533450961112976
v -0.06749443709850311 0.06683523207902908 0.856430172920227
v -0.07175026834011078 0.06507047265768051 0.8581996560096741
v -0.07539069652557373 0.06430089473724365 0.8580473065376282
v -0.0661778599023819 0.06501524150371552 0.855352520942688
v -0.07115654647350311 0.06292643398046494 0.857728123664856
v -0.07461683452129364 0.062198929488658905 0.8574483394622803
v -0.06565918773412704 0.06266579777002335 0.8531141877174377
v -0.07061256468296051 0.061358362436294556 0.8556873202323914
v -0.060253288596868515 0.0654255598783493 0.8498868942260742
v -0.06082112714648247 0.06793880462646484 0.8522614240646362
v -0.07364583015441895 0.06145811825990677 0.8561471700668335
v -0.0779971033334732 0.06674733012914658 0.8557363748550415
v -0.07764256000518799 0.06380660086870193 0.8556705713272095
v -0.077458456158638 0.06806600838899612 0.8549795150756836
v -0.07422158122062683 0.06809458136558533 0.846356987953186
v -0.07742796838283539 0.06589439511299133 0.8492799401283264
v -0.07368048280477524 0.0660388320684433 0.8451868295669556
v -0.07699716091156006 0.06380300968885422 0.8489946126937866
v -0.07883122563362122 0.06556124985218048 0.8523970246315002
v -0.07795006036758423 0.0671885684132576 0.8523361682891846
v -0.0581691674888134 0.0676378607749939 0.8492172956466675
v -0.059262387454509735 0.06574363261461258 0.8462413549423218
v -0.06148061528801918 0.064021997153759 0.8464969992637634
v -0.06679107248783112 0.06133660674095154 0.8496410250663757
v -0.0645158588886261 0.06417326629161835 0.8428751826286316
v -0.06757691502571106 0.06625886261463165 0.8413755893707275
v -0.07224287837743759 0.06383661180734634 0.8451687097549438
v -0.06998288631439209 0.061813320964574814 0.8464564681053162
v -0.07595567405223846 0.062002550810575485 0.8495199680328369
v -0.07360236346721649 0.06041873246431351 0.8504311442375183
v -0.07139971852302551 0.06007995828986168 0.8527725338935852
v -0.07708801329135895 0.06198806315660477 0.8531264066696167
v -0.07836662232875824 0.06334476172924042 0.8528896570205688
v -0.07650667428970337 0.06210912764072418 0.8553038239479065
v -0.07551132142543793 0.060899775475263596 0.8531819581985474
v -0.0746416449546814 0.06092427298426628 0.8545572757720947
v -0.023278623819351196 0.06944731622934341 0.8293054103851318
v -0.03358961269259453 0.049538545310497284 0.9058329463005066
v -0.03142132610082626 0.050655901432037354 0.9007426500320435
v -0.020929910242557526 0.03815380111336708 0.8978760242462158
v -0.024714017286896706 0.04389268532395363 0.8948933482170105
v -0.021020419895648956 0.034352708607912064 0.9038936495780945
v -0.02621164172887802 0.03589611127972603 0.9131274819374084
v -0.02233048900961876 0.03460349515080452 0.9095764756202698
v -0.028090033680200577 0.04829391837120056 0.8964062333106995
v -0.033200256526470184 0.04652289301156998 0.9106689691543579
v -0.030240334570407867 0.040799230337142944 0.9143566489219666
v -0.04276055842638016 0.0387420728802681 0.9063822627067566
v -0.03813585638999939 0.03269045427441597 0.9092879295349121
v -0.03258584812283516 0.02794179692864418 0.906583845615387
v -0.02717650681734085 0.02936878427863121 0.9031658172607422
v -0.024538371711969376 0.0306599959731102 0.899478018283844
v -0.039897412061691284 0.04491746053099632 0.9019134640693665
v -0.03691534698009491 0.04699812829494476 0.8974498510360718
v -0.03157427906990051 0.045379772782325745 0.8939435482025146
v -0.043958257883787155 0.04148728400468826 0.8955376148223877
v -0.04438735172152519 0.03409547731280327 0.8895894289016724
v -0.03385592997074127 0.02291300520300865 0.8778687715530396
v -0.0320388525724411 0.024227209389209747 0.8840003609657288
v -0.03478170931339264 0.024419967085123062 0.8842769861221313
v -0.036239638924598694 0.02278025820851326 0.878779947757721
v -0.033553995192050934 0.024637356400489807 0.8894268274307251
v -0.03540154546499252 0.02550341561436653 0.8883681893348694
v -0.03957927227020264 0.02885385975241661 0.890133798122406
v -0.0405752956867218 0.027155820280313492 0.8846070170402527
v -0.04257770627737045 0.032394882291555405 0.8883468508720398
v -0.04316570609807968 0.03268620744347572 0.8840851783752441
v -0.041512735188007355 0.025978777557611465 0.8792589902877808
v -0.038748472929000854 0.022486362606287003 0.8759638071060181
v -0.04198475927114487 0.025069352239370346 0.8749005794525146
v -0.036828842014074326 0.023088160902261734 0.87395179271698
v -0.04251883178949356 0.026892296969890594 0.8922035098075867
v -0.02865295484662056 0.02606472745537758 0.8934233784675598
v -0.02881934680044651 0.02553720399737358 0.8844449520111084
v -0.031216315925121307 0.02497602254152298 0.8771342039108276
v -0.03504221886396408 0.02522251009941101 0.872757077217102
v -0.0265685822814703 0.028777778148651123 0.8836877346038818
v -0.02951044775545597 0.028772376477718353 0.8772029280662537
v -0.03360901400446892 0.029485195875167847 0.8733391165733337
v -0.026796855032444 0.03334007039666176 0.882826030254364
v -0.030170751735568047 0.032430268824100494 0.8773753643035889
v -0.024395206943154335 0.03577057272195816 0.8929266333580017
v -0.024799630045890808 0.030243635177612305 0.8943229913711548
v -0.03320619463920593 0.03173612430691719 0.874632716178894
v -0.041917964816093445 0.025472749024629593 0.8726056814193726
v -0.04009905084967613 0.027959223836660385 0.8714600801467896
v -0.04408011585474014 0.03570012375712395 0.8842900395393372
v -0.044719401746988297 0.03118649497628212 0.8793655633926392
v -0.04453102499246597 0.033698853105306625 0.8786286115646362
v -0.04311557114124298 0.03935620188713074 0.8847509026527405
v -0.04354829713702202 0.03626124560832977 0.8779381513595581
v -0.044387079775333405 0.03029494360089302 0.8745172619819641
v -0.04423306882381439 0.028544548898935318 0.8762713074684143
v -0.0233471542596817 0.03537235036492348 0.8955461978912354
v -0.02623942866921425 0.04110763967037201 0.8935381770133972
v -0.028078533709049225 0.04156607389450073 0.8921117186546326
v -0.030058687552809715 0.03877153992652893 0.883090078830719
v -0.033958785235881805 0.04530508071184158 0.8916342854499817
v -0.04022572189569473 0.044768355786800385 0.8938086032867432
v -0.040475137531757355 0.04186569154262543 0.8839004635810852
v -0.03549162298440933 0.04203811660408974 0.8835692405700684
v -0.040590789169073105 0.037947993725538254 0.877497136592865
v -0.037619829177856445 0.037991851568222046 0.8776015639305115
v -0.03301504626870155 0.03589248284697533 0.876987099647522
v -0.0402342714369297 0.03434799984097481 0.8738998174667358
v -0.042942266911268234 0.03278487175703049 0.8737474679946899
v -0.03761817514896393 0.03132449463009834 0.8723686337471008
v -0.03803534805774689 0.0353408046066761 0.8751398921012878
v -0.035788681358098984 0.03340822458267212 0.8743120431900024
v -0.015843920409679413 0.06234350427985191 0.8368173837661743
v -0.01896052062511444 0.061628859490156174 0.842335045337677
v -0.011986587196588516 0.060960859060287476 0.8426516056060791
v -0.0024168267846107483 0.06007285788655281 0.8447096347808838
v 0.007780719548463821 0.06175527349114418 0.8415296673774719
v -0.004372648894786835 0.060998011380434036 0.8511910438537598
v -0.014097649604082108 0.06179811805486679 0.8486745357513428
v -0.02405126579105854 0.06342975050210953 0.8479422926902771
v 0.0019176751375198364 0.06270962953567505 0.859282374382019
f 2 3 1
f 1 3 4
f 5 6 8
f 8 6 7
f 9 4 10
f 10 4 3
f 12 13 11
f 11 13 9
f 14 12 16
f 16 12 15
f 18 19 17
f 17 19 20
f 22 23 21
f 21 23 24
f 26 27 25
f 25 27 28
f 30 31 29
f 29 31 32
f 33 34 36
f 36 34 35
f 37 38 40
f 40 38 39
f 41 42 6
f 6 42 43
f 6 43 7
f 7 43 44
f 45 34 46
f 46 34 33
f 48 49 47
f 47 49 50
f 52 53 51
f 51 53 54
f 56 52 55
f 55 52 51
f 58 59 57
f 57 59 60
f 61 62 4
f 4 62 1
f 64 65 63
f 63 65 66
f 68 69 67
f 67 69 70
f 72 73 71
f 71 73 74
f 76 77 75
f 75 77 78
f 53 79 54
f 54 79 80
f 82 83 81
f 81 83 84
f 85 86 52
f 52 86 53
f 57 60 87
f 87 60 88
f 89 90 43
f 43 90 44
f 43 42 89
f 89 42 91
f 40 39 92
f 92 39 93
f 94 70 64
f 64 70 69
f 13 61 9
f 9 61 4
f 25 28 69
f 69 28 95
f 96 25 68
f 68 25 69
f 98 99 97
f 97 99 100
f 101 102 104
f 104 102 103
f 106 30 105
f 105 30 29
f 51 54 107
f 107 54 108
f 54 80 108
f 108 80 109
f 111 112 110
f 110 112 113
f 115 5 114
f 114 5 116
f 115 41 5
f 5 41 6
f 36 35 111
f 111 35 117
f 35 118 117
f 117 118 119
f 34 120 35
f 35 120 118
f 34 45 120
f 120 45 121
f 125 126 124
f 124 126 127
f 128 129 14
f 14 129 130
f 33 131 46
f 46 131 132
f 133 94 63
f 63 94 64
f 134 135 137
f 137 135 136
f 139 140 138
f 138 140 141
f 77 142 78
f 78 142 143
f 144 145 20
f 20 145 146
f 148 149 147
f 147 149 72
f 151 152 150
f 150 152 153
f 82 101 83
f 83 101 104
f 101 82 155
f 155 82 154
f 156 157 58
f 58 157 59
f 158 68 147
f 147 68 67
f 159 146 15
f 15 146 16
f 68 158 96
f 96 158 160
f 129 66 130
f 130 66 65
f 162 163 161
f 161 163 164
f 166 167 165
f 165 167 168
f 170 171 169
f 169 171 172
f 174 171 173
f 173 171 170
f 176 177 175
f 175 177 178
f 180 181 179
f 179 181 24
f 182 183 21
f 21 183 184
f 81 185 82
f 82 185 154
f 186 187 188
f 188 187 144
f 158 71 160
f 160 71 189
f 190 135 157
f 157 135 59
f 169 172 139
f 139 172 140
f 147 72 158
f 158 72 71
f 192 193 191
f 191 193 194
f 167 166 49
f 49 166 195
f 196 190 50
f 50 190 157
f 197 198 200
f 200 198 199
f 21 24 182
f 182 24 181
f 146 159 20
f 20 159 17
f 182 181 81
f 81 181 185
f 201 185 180
f 180 185 181
f 202 203 83
f 83 203 84
f 205 206 204
f 204 206 85
f 207 22 184
f 184 22 21
f 179 24 208
f 208 24 23
f 208 209 179
f 179 209 205
f 209 210 205
f 205 210 206
f 212 206 211
f 211 206 210
f 179 205 180
f 180 205 204
f 213 176 88
f 88 176 214
f 86 85 212
f 212 85 206
f 193 217 218
f 217 219 218
f 218 219 220
f 219 18 220
f 220 18 17
f 19 221 20
f 20 221 144
f 222 223 225
f 225 223 224
f 175 226 176
f 176 226 214
f 227 87 214
f 214 87 88
f 220 17 228
f 228 17 159
f 134 213 60
f 60 213 88
f 138 229 151
f 151 229 152
f 193 192 210
f 210 192 211
f 230 194 218
f 218 194 193
f 231 232 228
f 228 232 230
f 233 234 91
f 91 234 89
f 235 236 93
f 93 236 92
f 230 232 234
f 234 232 237
f 47 238 48
f 48 238 239
f 240 191 235
f 235 191 236
f 5 8 116
f 116 8 241
f 242 243 189
f 189 243 160
f 244 245 98
f 98 245 99
f 156 246 47
f 47 246 238
f 76 247 77
f 77 247 248
f 250 125 249
f 249 125 124
f 252 253 251
f 251 253 254
f 111 110 36
f 36 110 255
f 256 33 255
f 255 33 36
f 257 258 154
f 154 258 155
f 63 169 133
f 133 169 139
f 66 170 63
f 63 170 169
f 173 170 129
f 129 170 66
f 129 128 173
f 173 128 259
f 128 260 259
f 259 260 261
f 213 134 262
f 262 134 137
f 263 264 186
f 186 264 187
f 112 265 113
f 113 265 266
f 11 267 268
f 234 233 230
f 230 233 194
f 153 269 70
f 70 269 67
f 175 178 165
f 165 178 141
f 150 153 94
f 94 153 70
f 271 221 270
f 270 221 207
f 269 153 272
f 272 153 152
f 121 45 109
f 109 45 108
f 47 50 156
f 156 50 157
f 57 273 58
f 58 273 274
f 145 275 260
f 260 275 261
f 276 149 143
f 143 149 78
f 148 269 75
f 75 269 272
f 207 277 270
f 270 277 278
f 195 196 49
f 49 196 50
f 59 135 60
f 60 135 134
f 83 104 202
f 202 104 279
f 149 148 78
f 78 148 75
f 247 278 248
f 248 278 277
f 183 182 84
f 84 182 81
f 48 239 281
f 281 239 282
f 227 223 283
f 283 223 222
f 223 226 224
f 224 226 168
f 281 282 224
f 224 282 225
f 165 168 175
f 175 168 226
f 264 263 138
f 138 263 229
f 14 16 128
f 128 16 260
f 220 228 218
f 218 228 230
f 87 227 284
f 284 227 283
f 260 16 145
f 145 16 146
f 244 98 258
f 258 98 155
f 58 274 156
f 156 274 246
f 107 285 51
f 51 285 55
f 243 286 160
f 160 286 96
f 234 237 89
f 89 237 90
f 46 132 107
f 107 132 285
f 253 252 249
f 249 252 250
f 286 26 96
f 96 26 25
f 106 105 287
f 287 105 288
f 272 152 289
f 289 152 229
f 138 151 139
f 139 151 133
f 183 290 161
f 161 290 162
f 291 292 277
f 277 292 293
f 151 150 133
f 133 150 94
f 262 275 177
f 177 275 187
f 144 187 145
f 145 187 275
f 273 57 284
f 284 57 87
f 174 136 190
f 190 136 135
f 111 117 112
f 112 117 38
f 117 119 38
f 38 119 123
f 112 38 265
f 265 38 37
f 287 288 254
f 254 288 251
f 228 159 231
f 231 159 15
f 223 227 226
f 226 227 214
f 147 67 148
f 148 67 269
f 224 168 281
f 281 168 167
f 199 163 200
f 200 163 162
f 45 46 108
f 108 46 107
f 281 167 48
f 48 167 49
f 161 164 291
f 291 164 292
f 38 123 39
f 293 294 277
f 277 294 248
f 284 283 296
f 296 283 295
f 284 296 273
f 273 296 297
f 274 273 298
f 298 273 297
f 246 274 299
f 299 274 298
f 283 222 295
f 295 222 300
f 222 225 300
f 300 225 301
f 301 225 302
f 302 225 282
f 303 304 300
f 300 304 295
f 306 307 305
f 305 307 308
f 309 310 308
f 308 310 305
f 308 307 312
f 312 307 311
f 313 314 312
f 312 314 315
f 311 316 312
f 312 316 313
f 317 304 311
f 311 304 316
f 315 309 312
f 312 309 308
f 318 319 321
f 321 319 320
f 319 318 309
f 309 318 310
f 311 307 317
f 317 307 306
f 306 297 317
f 317 297 296
f 306 322 297
f 297 322 298
f 305 323 306
f 306 323 322
f 323 305 324
f 324 305 310
f 304 317 295
f 295 317 296
f 318 325 310
f 310 325 324
f 323 324 326
f 326 324 327
f 324 325 327
f 327 325 328
f 326 327 329
f 329 327 330
f 329 331 326
f 326 331 332
f 333 330 328
f 328 330 327
f 323 326 322
f 322 326 332
f 322 332 298
f 298 332 299
f 325 318 334
f 334 318 321
f 313 316 335
f 335 316 304
f 335 336 313
f 313 336 314
f 304 303 335
f 335 303 337
f 336 335 338
f 338 335 337
f 336 339 314
f 314 339 340
f 246 299 238
f 238 299 341
f 239 342 282
f 282 342 302
f 342 239 341
f 341 239 238
f 341 331 342
f 342 331 343
f 331 329 343
f 343 329 344
f 342 343 302
f 302 343 345
f 341 299 331
f 331 299 332
f 346 301 345
f 345 301 302
f 346 303 301
f 301 303 300
f 347 337 346
f 346 337 303
f 347 346 348
f 348 346 345
f 349 347 350
f 350 347 348
f 343 344 345
f 345 344 348
f 344 351 348
f 348 351 350
f 337 347 338
f 338 347 349
f 353 338 352
f 352 338 349
f 352 355 354
f 354 355 356
f 352 349 355
f 355 349 350
f 352 354 353
f 353 354 334
f 353 334 339
f 339 334 321
f 339 336 353
f 353 336 338
f 329 330 344
f 344 330 351
f 356 351 333
f 333 351 330
f 356 355 351
f 351 355 350
f 354 356 328
f 328 356 333
f 328 325 354
f 354 325 334
f 309 315 319
f 319 315 320
f 320 340 321
f 321 340 339
f 320 315 340
f 340 315 314
f 137 136 261
f 261 136 259
f 140 166 141
f 141 166 165
f 172 171 195
f 195 171 196
f 171 174 196
f 196 174 190
f 178 177 264
f 264 177 187
f 172 195 140
f 140 195 166
f 137 261 262
f 262 261 275
f 178 264 141
f 141 264 138
f 262 177 213
f 213 177 176
f 136 174 259
f 259 174 173
f 358 359 357
f 357 359 360
f 362 363 361
f 361 363 364
f 361 364 365
f 365 364 366
f 367 368 370
f 370 368 369
f 76 371 247
f 247 371 372
f 373 374 362
f 362 374 363
f 376 377 375
f 375 377 378
f 289 229 380
f 380 229 379
f 381 379 263
f 263 379 229
f 383 384 382
f 382 384 385
f 386 368 374
f 374 368 363
f 76 289 371
f 371 289 380
f 377 376 359
f 359 376 387
f 388 386 360
f 360 386 374
f 389 383 366
f 366 383 390
f 392 393 391
f 391 393 394
f 383 382 390
f 390 382 395
f 396 365 390
f 390 365 366
f 389 366 367
f 367 366 364
f 357 397 358
f 358 397 398
f 373 399 357
f 357 399 397
f 389 367 400
f 400 367 370
f 382 385 375
f 375 385 372
f 357 360 373
f 373 360 374
f 361 401 362
f 362 401 402
f 387 388 359
f 359 388 360
f 363 368 364
f 364 368 367
f 358 398 403
f 403 398 404
f 396 392 405
f 405 392 391
f 392 395 393
f 393 395 378
f 393 403 394
f 394 403 404
f 375 378 382
f 382 378 395
f 365 396 406
f 406 396 405
f 362 402 373
f 373 402 399
f 271 270 400
f 400 270 384
f 401 361 406
f 406 361 365
f 381 369 386
f 386 369 368
f 392 396 395
f 395 396 390
f 393 378 403
f 403 378 377
f 403 377 358
f 358 377 359
f 406 405 408
f 408 405 407
f 406 408 401
f 401 408 409
f 401 409 402
f 402 409 410
f 402 410 399
f 399 410 411
f 405 391 407
f 407 391 412
f 391 394 412
f 412 394 413
f 394 404 413
f 413 404 414
f 415 416 412
f 412 416 407
f 418 419 417
f 417 419 420
f 421 422 418
f 418 422 419
f 419 422 424
f 424 422 423
f 425 426 424
f 424 426 427
f 423 428 424
f 424 428 425
f 427 420 424
f 424 420 419
f 420 429 417
f 417 429 430
f 423 422 431
f 431 422 421
f 421 409 431
f 431 409 408
f 421 432 409
f 409 432 410
f 418 433 421
f 421 433 432
f 434 433 417
f 417 433 418
f 431 416 423
f 423 416 428
f 416 431 407
f 407 431 408
f 435 434 430
f 430 434 417
f 433 434 436
f 436 434 437
f 434 435 437
f 437 435 438
f 436 437 439
f 439 437 440
f 439 441 436
f 436 441 442
f 438 443 437
f 437 443 440
f 436 442 433
f 433 442 432
f 432 442 410
f 410 442 411
f 435 430 445
f 445 430 444
f 430 429 444
f 444 429 446
f 425 428 447
f 447 428 416
f 426 425 448
f 448 425 447
f 416 415 447
f 447 415 449
f 447 449 448
f 448 449 450
f 451 452 448
f 448 452 426
f 446 452 444
f 444 452 451
f 399 411 397
f 397 411 453
f 398 454 404
f 404 454 414
f 454 398 453
f 453 398 397
f 453 441 454
f 454 441 455
f 441 439 455
f 455 439 456
f 454 455 414
f 414 455 457
f 441 453 442
f 442 453 411
f 458 413 457
f 457 413 414
f 458 415 413
f 413 415 412
f 458 459 415
f 415 459 449
f 459 458 460
f 460 458 457
f 461 459 462
f 462 459 460
f 455 456 457
f 457 456 460
f 456 463 460
f 460 463 462
f 459 461 449
f 449 461 450
f 465 450 464
f 464 450 461
f 464 467 466
f 466 467 468
f 464 461 467
f 467 461 462
f 464 466 465
f 465 466 445
f 465 445 451
f 451 445 444
f 451 448 465
f 465 448 450
f 439 440 456
f 456 440 463
f 468 463 443
f 443 463 440
f 468 467 463
f 463 467 462
f 466 468 438
f 438 468 443
f 438 435 466
f 466 435 445
f 420 427 429
f 429 427 446
f 446 427 452
f 452 427 426
f 370 369 188
f 188 369 186
f 371 376 372
f 372 376 375
f 380 379 387
f 387 379 388
f 379 381 388
f 388 381 386
f 385 384 278
f 278 384 270
f 380 387 371
f 371 387 376
f 400 370 271
f 271 370 188
f 385 278 372
f 372 278 247
f 400 384 389
f 389 384 383
f 369 381 186
f 186 381 263
f 221 271 144
f 144 271 188
f 221 19 207
f 207 19 22
f 19 18 22
f 22 18 23
f 18 219 23
f 23 219 208
f 469 470 472
f 472 470 471
f 474 475 473
f 473 475 476
f 473 476 477
f 477 476 478
f 480 481 479
f 479 481 482
f 483 484 474
f 474 484 475
f 486 487 485
f 485 487 488
f 489 490 77
f 77 490 142
f 491 489 248
f 248 489 77
f 493 494 492
f 492 494 495
f 496 480 484
f 484 480 475
f 486 497 487
f 487 497 471
f 498 496 472
f 472 496 484
f 499 493 478
f 478 493 500
f 501 502 504
f 504 502 503
f 493 492 500
f 500 492 505
f 506 477 500
f 500 477 478
f 499 478 479
f 479 478 476
f 469 507 470
f 470 507 508
f 483 509 469
f 469 509 507
f 479 482 499
f 499 482 510
f 492 495 485
f 485 495 511
f 483 469 484
f 484 469 472
f 473 512 474
f 474 512 513
f 497 498 471
f 471 498 472
f 475 480 476
f 476 480 479
f 470 508 514
f 514 508 515
f 506 502 516
f 516 502 501
f 503 502 488
f 488 502 505
f 514 515 503
f 503 515 504
f 485 488 492
f 492 488 505
f 477 506 517
f 517 506 516
f 474 513 483
f 483 513 509
f 510 292 494
f 494 292 164
f 512 473 517
f 517 473 477
f 491 481 496
f 496 481 480
f 502 506 505
f 505 506 500
f 503 488 514
f 514 488 487
f 514 487 470
f 470 487 471
f 517 516 519
f 519 516 518
f 517 519 512
f 512 519 520
f 512 520 513
f 513 520 521
f 513 521 509
f 509 521 522
f 516 501 518
f 518 501 523
f 501 504 523
f 523 504 524
f 524 504 525
f 525 504 515
f 526 527 523
f 523 527 518
f 529 530 528
f 528 530 531
f 532 533 529
f 529 533 530
f 530 533 535
f 535 533 534
f 536 537 535
f 535 537 538
f 534 539 535
f 535 539 536
f 538 531 535
f 535 531 530
f 540 541 531
f 531 541 528
f 533 532 534
f 534 532 542
f 532 520 542
f 542 520 519
f 532 543 520
f 520 543 521
f 529 544 532
f 532 544 543
f 544 529 545
f 545 529 528
f 534 542 539
f 539 542 527
f 527 542 518
f 518 542 519
f 541 546 528
f 528 546 545
f 547 544 548
f 548 544 545
f 546 549 545
f 545 549 548
f 550 547 551
f 551 547 548
f 547 550 553
f 553 550 552
f 549 554 548
f 548 554 551
f 544 547 543
f 543 547 553
f 543 553 521
f 521 553 522
f 546 541 556
f 556 541 555
f 541 540 555
f 555 540 557
f 536 539 558
f 558 539 527
f 537 536 559
f 559 536 558
f 527 526 558
f 558 526 560
f 559 558 561
f 561 558 560
f 559 562 537
f 537 562 563
f 557 563 555
f 555 563 562
f 509 522 507
f 507 522 564
f 508 565 515
f 515 565 525
f 565 508 564
f 564 508 507
f 564 552 565
f 565 552 566
f 552 550 566
f 566 550 567
f 565 566 525
f 525 566 568
f 564 522 552
f 552 522 553
f 569 524 568
f 568 524 525
f 569 526 524
f 524 526 523
f 570 560 569
f 569 560 526
f 570 569 571
f 571 569 568
f 572 570 573
f 573 570 571
f 566 567 568
f 568 567 571
f 567 574 571
f 571 574 573
f 570 572 560
f 560 572 561
f 576 561 575
f 575 561 572
f 575 578 577
f 577 578 579
f 575 572 578
f 578 572 573
f 575 577 576
f 576 577 556
f 576 556 562
f 562 556 555
f 562 559 576
f 576 559 561
f 550 551 567
f 567 551 574
f 579 574 554
f 554 574 551
f 579 578 574
f 574 578 573
f 579 554 577
f 577 554 549
f 549 546 577
f 577 546 556
f 531 538 540
f 540 538 557
f 557 538 563
f 563 538 537
f 481 294 482
f 482 294 293
f 580 486 511
f 511 486 485
f 490 489 497
f 497 489 498
f 489 491 498
f 498 491 496
f 163 495 164
f 164 495 494
f 580 490 486
f 486 490 497
f 482 293 510
f 510 293 292
f 495 163 511
f 511 163 199
f 494 493 510
f 510 493 499
f 481 491 294
f 294 491 248
f 582 583 581
f 581 583 584
f 586 587 585
f 585 587 588
f 585 588 589
f 589 588 590
f 592 593 591
f 591 593 594
f 595 596 598
f 598 596 597
f 599 600 586
f 586 600 587
f 601 602 604
f 604 602 603
f 605 606 608
f 608 606 607
f 609 607 200
f 200 607 606
f 610 611 613
f 613 611 612
f 600 614 587
f 587 614 592
f 596 605 597
f 597 605 608
f 602 615 603
f 603 615 583
f 616 614 584
f 584 614 600
f 611 618 617
f 617 618 590
f 620 621 619
f 619 621 622
f 610 623 611
f 611 623 618
f 624 589 618
f 618 589 590
f 617 590 591
f 591 590 588
f 581 625 582
f 582 625 626
f 599 627 581
f 581 627 625
f 591 594 617
f 617 594 628
f 601 610 598
f 598 610 613
f 581 584 599
f 599 584 600
f 585 629 586
f 586 629 630
f 615 616 583
f 583 616 584
f 587 592 588
f 588 592 591
f 582 626 631
f 631 626 632
f 624 620 633
f 633 620 619
f 621 620 604
f 604 620 623
f 631 632 621
f 621 632 622
f 610 601 623
f 623 601 604
f 589 624 634
f 634 624 633
f 586 630 599
f 599 630 627
f 203 202 628
f 628 202 612
f 629 585 634
f 634 585 589
f 609 593 614
f 614 593 592
f 620 624 623
f 623 624 618
f 631 621 603
f 603 621 604
f 582 631 583
f 583 631 603
f 634 633 636
f 636 633 635
f 634 636 629
f 629 636 637
f 629 637 630
f 630 637 638
f 630 638 627
f 627 638 639
f 633 619 635
f 635 619 640
f 619 622 640
f 640 622 641
f 641 622 642
f 642 622 632
f 644 635 643
f 643 635 640
f 645 646 648
f 648 646 647
f 649 650 646
f 646 650 647
f 647 650 652
f 652 650 651
f 652 653 655
f 655 653 654
f 651 656 652
f 652 656 653
f 655 648 652
f 652 648 647
f 648 657 645
f 645 657 658
f 650 649 651
f 651 649 659
f 649 637 659
f 659 637 636
f 649 660 637
f 637 660 638
f 661 660 646
f 646 660 649
f 662 661 645
f 645 661 646
f 651 659 656
f 656 659 644
f 644 659 635
f 635 659 636
f 663 662 658
f 658 662 645
f 664 661 665
f 665 661 662
f 663 666 662
f 662 666 665
f 667 664 668
f 668 664 665
f 664 667 670
f 670 667 669
f 666 671 665
f 665 671 668
f 661 664 660
f 660 664 670
f 660 670 638
f 638 670 639
f 658 672 663
f 663 672 673
f 658 657 672
f 672 657 674
f 653 656 675
f 675 656 644
f 653 675 654
f 654 675 676
f 675 644 677
f 677 644 643
f 676 675 678
f 678 675 677
f 679 680 676
f 676 680 654
f 674 680 672
f 672 680 679
f 627 639 625
f 625 639 681
f 626 682 632
f 632 682 642
f 681 682 625
f 625 682 626
f 669 683 681
f 681 683 682
f 667 684 669
f 669 684 683
f 682 683 642
f 642 683 685
f 681 639 669
f 669 639 670
f 686 641 685
f 685 641 642
f 641 686 640
f 640 686 643
f 686 687 643
f 643 687 677
f 687 686 688
f 688 686 685
f 689 687 690
f 690 687 688
f 683 684 685
f 685 684 688
f 684 691 688
f 688 691 690
f 687 689 677
f 677 689 678
f 693 678 692
f 692 678 689
f 692 695 694
f 694 695 696
f 692 689 695
f 695 689 690
f 692 694 693
f 693 694 673
f 693 673 679
f 679 673 672
f 679 676 693
f 693 676 678
f 684 667 691
f 691 667 668
f 696 691 671
f 671 691 668
f 696 695 691
f 691 695 690
f 694 696 666
f 666 696 671
f 666 663 694
f 694 663 673
f 648 655 657
f 657 655 674
f 674 655 680
f 680 655 654
f 593 162 594
f 594 162 290
f 598 597 601
f 601 597 602
f 615 608 616
f 616 608 607
f 607 609 616
f 616 609 614
f 697 595 613
f 613 595 598
f 597 608 602
f 602 608 615
f 594 290 628
f 628 290 203
f 628 612 617
f 617 612 611
f 593 609 162
f 162 609 200
f 105 29 698
f 698 29 699
f 268 126 701
f 701 126 700
f 126 125 700
f 700 125 702
f 252 703 250
f 250 703 704
f 32 268 705
f 705 268 701
f 288 105 706
f 706 105 698
f 29 32 699
f 699 32 705
f 707 251 706
f 706 251 288
f 250 704 125
f 125 704 702
f 703 252 707
f 707 252 251
f 706 708 707
f 707 708 709
f 707 709 703
f 703 709 710
f 703 710 704
f 704 710 711
f 704 711 702
f 702 711 712
f 706 698 708
f 708 698 713
f 698 699 713
f 713 699 714
f 699 705 714
f 714 705 715
f 717 708 716
f 716 708 713
f 719 720 718
f 718 720 721
f 722 723 719
f 719 723 720
f 724 725 723
f 723 725 720
f 724 726 725
f 725 726 727
f 728 721 725
f 725 721 720
f 721 728 729
f 729 728 730
f 729 731 721
f 721 731 718
f 724 723 732
f 732 723 722
f 722 710 732
f 732 710 709
f 722 733 710
f 710 733 711
f 719 734 722
f 722 734 733
f 734 719 735
f 735 719 718
f 724 732 726
f 726 732 717
f 717 732 708
f 708 732 709
f 731 736 718
f 718 736 735
f 737 734 738
f 738 734 735
f 736 739 735
f 735 739 738
f 740 737 741
f 741 737 738
f 737 740 743
f 743 740 742
f 739 744 738
f 738 744 741
f 734 737 733
f 733 737 743
f 733 743 711
f 711 743 712
f 736 731 746
f 746 731 745
f 731 729 745
f 745 729 730
f 727 726 747
f 747 726 717
f 748 727 749
f 749 727 747
f 747 717 750
f 750 717 716
f 749 747 751
f 751 747 750
f 749 752 748
f 748 752 753
f 730 753 745
f 745 753 752
f 728 725 748
f 748 725 727
f 730 728 753
f 753 728 748
f 700 702 754
f 754 702 712
f 705 701 715
f 715 701 755
f 754 755 700
f 700 755 701
f 742 756 754
f 754 756 755
f 740 757 742
f 742 757 756
f 755 756 715
f 715 756 758
f 754 712 742
f 742 712 743
f 759 714 758
f 758 714 715
f 714 759 713
f 713 759 716
f 759 760 716
f 716 760 750
f 760 759 761
f 761 759 758
f 762 760 763
f 763 760 761
f 756 757 758
f 758 757 761
f 757 764 761
f 761 764 763
f 760 762 750
f 750 762 751
f 766 751 765
f 765 751 762
f 767 765 769
f 769 765 768
f 765 762 768
f 768 762 763
f 765 767 766
f 766 767 746
f 766 746 752
f 752 746 745
f 752 749 766
f 766 749 751
f 757 740 764
f 764 740 741
f 769 764 744
f 744 764 741
f 769 768 764
f 764 768 763
f 767 769 739
f 739 769 744
f 739 736 767
f 767 736 746
f 219 217 208
f 208 217 209
f 209 217 210
f 210 217 193
f 198 580 199
f 199 580 511
f 76 75 289
f 289 75 272
f 277 207 291
f 291 207 184
f 290 183 203
f 203 183 84
f 490 580 142
f 142 580 198
f 142 198 143
f 143 198 197
f 149 276 72
f 72 276 73
f 104 103 279
f 279 103 770
f 770 596 279
f 279 596 595
f 605 596 771
f 771 596 770
f 771 770 772
f 772 770 103
f 772 103 773
f 773 103 102
f 155 774 101
f 101 774 102
f 773 102 97
f 97 102 774
f 775 773 100
f 100 773 97
f 773 775 772
f 772 775 776
f 772 776 771
f 771 776 777
f 200 606 197
f 197 606 777
f 189 71 778
f 778 71 74
f 97 774 98
f 98 774 155
f 183 161 184
f 184 161 291
f 777 276 197
f 197 276 143
f 777 606 771
f 771 606 605
f 613 612 697
f 697 612 202
f 595 697 279
f 279 697 202
f 73 276 776
f 776 276 777
f 776 775 73
f 73 775 74
f 100 778 775
f 775 778 74
f 778 100 189
f 189 100 99
f 245 242 99
f 99 242 189
f 131 33 256
f 28 1 95
f 95 1 62
f 27 2 28
f 28 2 1
f 265 115 266
f 266 115 114
f 95 62 69
f 69 62 64
f 62 61 64
f 64 61 65
f 61 13 65
f 65 13 130
f 13 12 130
f 130 12 14
f 31 11 32
f 32 11 268
f 15 12 31
f 31 12 11
f 31 30 15
f 15 30 231
f 30 106 231
f 231 106 232
f 287 237 106
f 106 237 232
f 254 90 287
f 287 90 237
f 253 44 254
f 254 44 90
f 253 249 44
f 44 249 7
f 267 127 268
f 268 127 126
f 10 3 241
f 241 3 116
f 3 2 116
f 116 2 114
f 2 27 114
f 114 27 266
f 27 26 266
f 266 26 113
f 26 286 113
f 113 286 110
f 286 243 110
f 110 243 255
f 243 242 255
f 255 242 256
f 242 245 256
f 256 245 131
f 245 244 131
f 131 244 132
f 265 37 115
f 115 37 41
f 41 37 42
f 42 37 40
f 92 91 40
f 40 91 42
f 236 233 92
f 92 233 91
f 191 194 236
f 236 194 233
f 258 285 244
f 244 285 132
f 257 55 258
f 258 55 285
f 257 154 201
f 201 154 185
f 56 201 204
f 204 201 180
f 55 257 56
f 56 257 201
f 204 85 56
f 56 85 52
f 86 122 53
f 53 122 79
f 212 215 86
f 86 215 122
f 211 216 212
f 212 216 215
f 192 280 211
f 211 280 216
f 191 240 192
f 192 240 280
f 249 124 7
f 7 124 8
f 124 127 8
f 8 127 241
f 127 267 241
f 241 267 10
f 10 267 9
f 9 267 11
