v -0.011800937354564667 0.0599539577960968 0.8873682022094727
v 0.001054573804140091 0.055943235754966736 0.886705756187439
v -0.005425691604614258 0.050809621810913086 0.8918114304542542
v -0.01677251234650612 0.055696699768304825 0.8929826617240906
v 0.011606838554143906 0.04756052419543266 0.9044665694236755
v 0.014541391283273697 0.052848007529973984 0.9146643877029419
v -0.0017105750739574432 0.0490448921918869 0.9152957201004028
v -0.0002668797969818115 0.044561296701431274 0.9058107137680054
v -0.02151460200548172 0.055030256509780884 0.8965045809745789
v -0.011859048157930374 0.048386283218860626 0.8950411677360535
v -0.02323293313384056 0.059572041034698486 0.896649956703186
v -0.031816091388463974 0.06933367252349854 0.902014970779419
v -0.030784618109464645 0.06305012851953506 0.9004796743392944
v -0.039172157645225525 0.07390826940536499 0.9032723307609558
v -0.026389237493276596 0.07899264991283417 0.9028559923171997
v -0.03715335577726364 0.08232833445072174 0.8996210098266602
v -0.01781928539276123 0.09419634193181992 0.884607195854187
v -0.01425999402999878 0.09512026607990265 0.8724079132080078
v -0.02976839244365692 0.09289363771677017 0.8711352944374084
v -0.03183866664767265 0.09153901785612106 0.8837375640869141
v -0.019437972456216812 0.08963978290557861 0.8539994359016418
v -0.026137959212064743 0.09153954684734344 0.8632425665855408
v -0.010427437722682953 0.09484319388866425 0.8645235896110535
v -0.005216535180807114 0.09270183742046356 0.856105387210846
v -0.004654347896575928 0.0647721067070961 0.8759053349494934
v 0.006860349327325821 0.06307385116815567 0.8749871253967285
v 0.005463052541017532 0.0614342987537384 0.879335343837738
v -0.006281610578298569 0.06364508718252182 0.880344808101654
v -0.026122134178876877 0.05976356565952301 0.9009215831756592
v -0.01979062333703041 0.0701465904712677 0.9066818356513977
v -0.023328807204961777 0.06676821410655975 0.9012841582298279
v -0.024898547679185867 0.056017182767391205 0.8972023129463196
v 0.032227013260126114 0.05666954070329666 0.8668966889381409
v 0.04406782612204552 0.06249287724494934 0.8691648840904236
v 0.04342440143227577 0.06303084641695023 0.875094473361969
v 0.03286456689238548 0.057963866740465164 0.8718236088752747
v 0.035190556198358536 0.0595652237534523 0.900091826915741
v 0.04247916862368584 0.065621018409729 0.8943904042243958
v 0.04627517983317375 0.07458057254552841 0.903281569480896
v 0.03700972720980644 0.07207421213388443 0.9079821109771729
v 0.025545421987771988 0.05472472310066223 0.9089789390563965
v 0.02698969468474388 0.06569824367761612 0.9149478673934937
v 0.012354712933301926 0.0628458708524704 0.9204537868499756
v -0.005706902593374252 0.05604986846446991 0.9204277992248535
v 0.04552018269896507 0.06440103054046631 0.8566077947616577
v 0.037186961621046066 0.05990138649940491 0.8531445860862732
v -0.08497761934995651 0.09837837517261505 0.8927170634269714
v -0.08454884588718414 0.09810546040534973 0.8869285583496094
v -0.0820147916674614 0.09169743955135345 0.8891949653625488
v -0.0824047327041626 0.09342682361602783 0.8944284319877625
v 0.038855504244565964 0.07857823371887207 0.8441449403762817
v 0.03742184862494469 0.08851464837789536 0.8449938893318176
v 0.044571954756975174 0.08742630481719971 0.8447714447975159
v 0.04612370952963829 0.07824037969112396 0.8458473682403564
v 0.02919716015458107 0.07885199785232544 0.8420469164848328
v 0.027413416653871536 0.08934583514928818 0.8458459377288818
v -0.0756387859582901 0.1052386462688446 0.8966321349143982
v -0.08003760874271393 0.10302870720624924 0.8978442549705505
v -0.07644969969987869 0.09921938180923462 0.8990057110786438
v -0.07177478075027466 0.10106798261404037 0.8966982960700989
v -0.027504511177539825 0.060368482023477554 0.8963746428489685
v -0.02265944331884384 0.06115741282701492 0.8891814351081848
v -0.050931286066770554 0.06492996960878372 0.8966720104217529
v -0.03756370395421982 0.06312263011932373 0.8923953771591187
v -0.03796783462166786 0.06354845315217972 0.8993695974349976
v -0.048349302262067795 0.06676119565963745 0.9022549986839294
v -0.027271870523691177 0.06552624702453613 0.8709858059883118
v -0.015525683760643005 0.06586869806051254 0.8722491264343262
v -0.01844511553645134 0.06562630087137222 0.8779157996177673
v -0.03171302378177643 0.06461165100336075 0.8783607482910156
v -0.011216383427381516 0.06308535486459732 0.8590996861457825
v -0.023160714656114578 0.06334501504898071 0.8589036464691162
v -0.019456855952739716 0.06163274869322777 0.8514460325241089
v -0.011495817452669144 0.06090627238154411 0.8529364466667175
v -0.046158138662576675 0.06496482342481613 0.8613112568855286
v -0.05451412498950958 0.06890575587749481 0.8607450723648071
v -0.05425866320729256 0.07092373073101044 0.8559168577194214
v -0.04478693753480911 0.065787672996521 0.8573161959648132
v 0.05160127207636833 0.08743912726640701 0.8450167179107666
v 0.05287041887640953 0.07831557840108871 0.848377525806427
v -0.010380357503890991 0.08288761973381042 0.8362259864807129
v -0.004310786724090576 0.07529585063457489 0.8312162756919861
v -0.01635056734085083 0.07315468788146973 0.827010989189148
v -0.0190407857298851 0.08157523721456528 0.8336301445960999
v 0.03428104147315025 0.09614669531583786 0.8512635231018066
v 0.04174978658556938 0.09610773622989655 0.8489670753479004
v -0.07179439812898636 0.10673907399177551 0.8919742107391357
v -0.06883972138166428 0.10242970287799835 0.8915003538131714
v 0.011828575283288956 0.07444210350513458 0.9183593988418579
v -0.008282855153083801 0.06504077464342117 0.9198130369186401
v 0.026983890682458878 0.07951802015304565 0.912952184677124
v 0.036501724272966385 0.08367055654525757 0.907500684261322
v 0.04516857489943504 0.08606942743062973 0.9052804708480835
v -0.04170181229710579 0.06288496404886246 0.8866570591926575
v -0.016457710415124893 0.06364638358354568 0.8830047249794006
v -0.003124736249446869 0.06466316431760788 0.8714140057563782
v 0.0016575232148170471 0.05683758854866028 0.8422715663909912
v 0.012170735746622086 0.056538503617048264 0.8439929485321045
v 0.006455805152654648 0.056382566690444946 0.852920413017273
v -0.001584809273481369 0.05733747035264969 0.8495001792907715
v -0.0037655942142009735 0.06563974171876907 0.8302415013313293
v -0.006672579795122147 0.059701111167669296 0.8346179723739624
v -0.016184493899345398 0.059767067432403564 0.8326015472412109
v -0.014599457383155823 0.06484892219305038 0.8276803493499756
v -0.02733134850859642 0.060935813933610916 0.9076694250106812
v -0.01600339263677597 0.07251425087451935 0.9116241931915283
v 0.039604660123586655 0.06850632280111313 0.8469380140304565
v 0.04624594375491142 0.06940405070781708 0.8507372736930847
v 0.053864408284425735 0.0721232146024704 0.8529422879219055
v 0.020005326718091965 0.059004656970500946 0.8726725578308105
v 0.03342403843998909 0.058665305376052856 0.875538170337677
v 0.03269503638148308 0.058014631271362305 0.8807805776596069
v 0.019928615540266037 0.059344805777072906 0.8758275508880615
v 0.013498019427061081 0.051149509847164154 0.8903540372848511
v 0.023728352040052414 0.051136117428541183 0.8968161344528198
v 0.004180151969194412 0.04615412652492523 0.8949254751205444
v 0.044244829565286636 0.06406237185001373 0.8836352229118347
v 0.05312154069542885 0.06517542153596878 0.8769590258598328
v 0.05262194946408272 0.06690354645252228 0.8858039379119873
v 0.054059263318777084 0.065895214676857 0.8672440052032471
v 0.0543576143682003 0.06804333627223969 0.8586183190345764
v 0.04955572262406349 0.09895087778568268 0.847370445728302
v 0.05103160813450813 0.06999935209751129 0.8935832977294922
v -0.008536580950021744 0.0430317297577858 0.9050747156143188
v -0.01605316251516342 0.04081135615706444 0.9030163288116455
v -0.01719825714826584 0.0441577211022377 0.89594966173172
v -0.010519266128540039 0.04542185366153717 0.8969183564186096
v -0.04764935374259949 0.07942675799131393 0.9034141898155212
v -0.04907822608947754 0.0722135379910469 0.9047192931175232
v -0.03777621313929558 0.06719573587179184 0.903995156288147
v 0.0226125605404377 0.055582135915756226 0.8605077862739563
v 0.027361992746591568 0.05807408317923546 0.8491849303245544
v -0.05447185039520264 0.06636186689138412 0.8907343745231628
v -0.06738259643316269 0.10083737224340439 0.8960442543029785
v -0.07113310694694519 0.09783357381820679 0.899471640586853
v -0.05813319981098175 0.08983206003904343 0.9014573097229004
v -0.055650483816862106 0.09404508769512177 0.897317111492157
v -0.06128377467393875 0.0760359987616539 0.8849620819091797
v -0.05999302491545677 0.07201621681451797 0.8901749849319458
v -0.06257185339927673 0.07627574354410172 0.8891662955284119
v -0.06361161172389984 0.07991991192102432 0.8841003775596619
v -0.048815786838531494 0.06897434592247009 0.8486607074737549
v -0.04065801948308945 0.06460133194923401 0.8498850464820862
v -0.04664155840873718 0.08623570203781128 0.8822858929634094
v -0.04273294657468796 0.08789532631635666 0.8935263156890869
v -0.03351660817861557 0.08913443982601166 0.8925381302833557
v -0.02413105219602585 0.06473515182733536 0.8642674088478088
v -0.03499893844127655 0.06415846198797226 0.8622506856918335
v -0.03386233001947403 0.06392048299312592 0.8581936955451965
v -0.04527157545089722 0.06392184644937515 0.883129358291626
v -0.05525325983762741 0.06717409193515778 0.8846032023429871
v -0.050857726484537125 0.06610726565122604 0.8795044422149658
v -0.04145257920026779 0.0647432878613472 0.8781166076660156
v 0.008032459765672684 0.07771904021501541 0.8345571756362915
v 0.008910004049539566 0.06629808247089386 0.8330060243606567
v -0.0833498015999794 0.10033479332923889 0.8965933918952942
v -0.08009070158004761 0.09595157206058502 0.8980944156646729
v -0.012692544609308243 0.06509801745414734 0.8656498789787292
v -0.020718947052955627 0.09012647718191147 0.8928442001342773
v -0.0013332739472389221 0.06389663368463516 0.8663794994354248
v -0.033969417214393616 0.08077853173017502 0.8437228798866272
v -0.03535940498113632 0.07598507404327393 0.8397234678268433
v -0.040734775364398956 0.0769868791103363 0.8416520357131958
v -0.03921287879347801 0.08191657066345215 0.8439782857894897
v -0.07323048263788223 0.0908287838101387 0.8805853724479675
v -0.07677879184484482 0.08858206123113632 0.8846254944801331
v -0.08016786724328995 0.09202243387699127 0.8831495642662048
v -0.07620882987976074 0.09412682056427002 0.8798041343688965
v -0.05887836217880249 0.07183300703763962 0.8959717154502869
v -0.05655219405889511 0.07318896800279617 0.9018555879592896
v -0.062440164387226105 0.07882510870695114 0.8996524810791016
v -0.06314612179994583 0.0770886242389679 0.8942074775695801
v -0.055531129240989685 0.07942268997430801 0.9038187861442566
v -0.06044218689203262 0.0841166079044342 0.902295708656311
v -0.06824376434087753 0.0952250137925148 0.880571722984314
v -0.0639597624540329 0.10003253817558289 0.8849819302558899
v -0.05575340613722801 0.09274861216545105 0.8847922682762146
v -0.0612812414765358 0.08725685626268387 0.8826517462730408
v 0.008898112922906876 0.09600143134593964 0.858544647693634
v 0.012634780257940292 0.09212762862443924 0.8489384651184082
v -0.0013653822243213654 0.08882231265306473 0.8461993336677551
v -0.014608196914196014 0.08618084341287613 0.843099057674408
v -0.02694275975227356 0.0822758600115776 0.8414034843444824
v -0.030670085921883583 0.08719900995492935 0.851904571056366
v 0.002559460699558258 0.08569624274969101 0.8399831056594849
v -0.058299265801906586 0.08093371987342834 0.8800839185714722
v -0.05139565095305443 0.08576643466949463 0.8858563303947449
v -0.05326663330197334 0.08420629054307938 0.8812248110771179
v 0.00022814422845840454 0.06116706132888794 0.8596850633621216
v -0.07419139891862869 0.09434296190738678 0.899625301361084
v 0.034475911408662796 0.10002472251653671 0.8934540748596191
v 0.034835878759622574 0.10379768908023834 0.8808957934379578
v 0.026413138955831528 0.1018119528889656 0.8825198411941528
v 0.02559039369225502 0.0970965102314949 0.8960920572280884
v -0.07808320969343185 0.08787739276885986 0.8913485407829285
v -0.07740563154220581 0.09018941223621368 0.8968372941017151
v -0.03925592452287674 0.06461703777313232 0.8435481190681458
v -0.04562223702669144 0.06929756700992584 0.8438745141029358
v -0.04496055096387863 0.07190215587615967 0.8412792086601257
v -0.03967421501874924 0.06636618822813034 0.8386744260787964
v 0.015849780291318893 0.08958117663860321 0.844782829284668
v -0.02475518360733986 0.07133258879184723 0.8249520063400269
v -0.02560238540172577 0.07929354906082153 0.829988420009613
v 0.024917077273130417 0.09507177770137787 0.8517476916313171
v 0.021741662174463272 0.09903894364833832 0.8600013852119446
v 0.031183768063783646 0.10105028003454208 0.8604792952537537
v -0.04207901656627655 0.0871715247631073 0.8626242876052856
v 0.004243191331624985 0.09755056351423264 0.8656229376792908
v 0.01829802617430687 0.09999432414770126 0.8667245507240295
v 0.02945561334490776 0.10240676999092102 0.8676134347915649
v 0.037459876388311386 0.10463736951351166 0.8675127029418945
v 0.03858906403183937 0.10270459204912186 0.8597127199172974
v -0.0648699477314949 0.10117416083812714 0.8902568221092224
v -0.0676247850060463 0.10168027877807617 0.885530412197113
v 0.04686847701668739 0.10607035458087921 0.8582754731178284
v 0.04536827281117439 0.10747471451759338 0.8672835826873779
v 0.015150945633649826 0.1002224013209343 0.8753687143325806
v 0.011600818485021591 0.09924963861703873 0.885456383228302
v 0.001684080809354782 0.09770438075065613 0.8738453984260559
v -0.0028907135128974915 0.09658738225698471 0.8838027119636536
v -0.04040239378809929 0.09077401459217072 0.8722085356712341
v -0.07721760123968124 0.11516858637332916 0.8808873891830444
v -0.07254493236541748 0.10466556251049042 0.8811017870903015
v -0.07711800932884216 0.10149212181568146 0.8790884613990784
v -0.07933998107910156 0.11223828792572021 0.8780837655067444
v -0.0713847428560257 0.09770303964614868 0.8807442784309387
v -0.07005485892295837 0.10649637877941132 0.8859087228775024
v -0.006120685487985611 0.09144392609596252 0.8949010968208313
v -0.060459405183792114 0.07172900438308716 0.8789320588111877
v 0.009246181696653366 0.09201586246490479 0.8990752696990967
v -0.014834582805633545 0.08341314643621445 0.9047611355781555
v -0.003983374685049057 0.08241081982851028 0.9083635210990906
v 0.024898063391447067 0.09100718051195145 0.9060682058334351
v 0.010212849825620651 0.08424542844295502 0.912249743938446
v 0.04304992035031319 0.095216304063797 0.9009029865264893
v 0.03399457409977913 0.0936402976512909 0.9025104641914368
v -0.004915568977594376 0.07565285265445709 0.9155927896499634
v -0.08981862664222717 0.10646311938762665 0.8859504461288452
v -0.08724115043878555 0.10573272407054901 0.8808981776237488
v 0.04256897792220116 0.10233328491449356 0.8925332427024841
v -0.004476543515920639 0.044892001897096634 0.8966965079307556
v 0.010529834777116776 0.05931859090924263 0.8629679083824158
v 0.00901518389582634 0.06148912012577057 0.8677741289138794
v 0.01830986514687538 0.05690913647413254 0.8457638621330261
v 0.013583417981863022 0.05610768124461174 0.8564008474349976
v -0.08943522721529007 0.1086370199918747 0.8907291889190674
v -0.05580411106348038 0.0748496726155281 0.8596030473709106
v -0.054909661412239075 0.07594002783298492 0.8575341701507568
v -0.010262150317430496 0.044771913439035416 0.9135125279426575
v -0.01697671040892601 0.04164408519864082 0.9106212258338928
v -0.02562996745109558 0.050661973655223846 0.9147078990936279
v -0.02156149223446846 0.04478231072425842 0.9149974584579468
v -0.014556609094142914 0.05028459429740906 0.9182300567626953
v -0.018305998295545578 0.056995876133441925 0.917749285697937
v 0.019819188863039017 0.05835707113146782 0.8700186014175415
v 0.020052645355463028 0.05741535872220993 0.8661861419677734
v 0.01935959979891777 0.07812407612800598 0.8382724523544312
v 0.01954905316233635 0.06671617925167084 0.8370468020439148
v -0.05304522067308426 0.08467423915863037 0.9022740125656128
v -0.04548054188489914 0.08523499220609665 0.8997424244880676
v -0.05038245767354965 0.08929117023944855 0.897922694683075
v -0.05338349938392639 0.09454475343227386 0.891141951084137
v -0.0621030293405056 0.07793018966913223 0.8784055709838867
v -0.058165859431028366 0.08138551563024521 0.8835830688476562
v 0.028604727238416672 0.05464797094464302 0.8875136375427246
v 0.018141429871320724 0.05672455579042435 0.8820849657058716
v -0.01581067219376564 0.049385543912649155 0.8951175808906555
v -0.020932350307703018 0.049831584095954895 0.8938108086585999
v -0.036878444254398346 0.06474793702363968 0.8712848424911499
v -0.04819755256175995 0.08614914119243622 0.8646423816680908
v -0.04740506410598755 0.08990412950515747 0.8724139928817749
v -0.04744328185915947 0.06565095484256744 0.8710578680038452
v -0.08410574495792389 0.11487273871898651 0.8925793766975403
v -0.08784447610378265 0.11137621849775314 0.8925268650054932
v -0.049185045063495636 0.09004751592874527 0.8921938538551331
v -0.030786855146288872 0.06168926879763603 0.8506219983100891
v -0.04485447704792023 0.08318595588207245 0.8599727749824524
v -0.051081299781799316 0.08084429800510406 0.8610163927078247
v -0.0215267576277256 0.06395190954208374 0.8265893459320068
v 0.04347215220332146 0.10581805557012558 0.8804746270179749
v -0.08192040026187897 0.09940531849861145 0.8810931444168091
v -0.08360005915164948 0.1070125550031662 0.8775617480278015
v -0.07607642561197281 0.1168142780661583 0.8846527934074402
v -0.07812242209911346 0.11657682061195374 0.889962911605835
v 0.028876420110464096 0.06679143756628036 0.8423739075660706
v 0.007730539888143539 0.06267257034778595 0.870851993560791
v -0.017789166420698166 0.06701935082674026 0.9147315621376038
v -0.02747974917292595 0.05725983530282974 0.9114939570426941
v -0.05612492561340332 0.0682407096028328 0.8702651858329773
v -0.030144331976771355 0.0793120265007019 0.8366338014602661
v -0.03742801770567894 0.08613955974578857 0.8509735465049744
v -0.040943045169115067 0.08740580826997757 0.8504894375801086
v -0.0465259850025177 0.0873347818851471 0.8548417091369629
v -0.05329454690217972 0.08386887609958649 0.8556117415428162
v -0.07880683243274689 0.12011587619781494 0.8818638324737549
v -0.08203074336051941 0.12133507430553436 0.8866326212882996
v -0.08760178089141846 0.12034665793180466 0.8875508904457092
v -0.09133898466825485 0.11631965637207031 0.8878297209739685
v -0.09209073334932327 0.11152462661266327 0.8868331909179688
v -0.07974754273891449 0.11782722920179367 0.8783856630325317
v -0.08130061626434326 0.11476028710603714 0.8764796257019043
v -0.08484160900115967 0.10915353894233704 0.8770495057106018
v -0.07983946800231934 0.11884576827287674 0.8749262690544128
v -0.08031504601240158 0.12327875196933746 0.8762922883033752
v -0.09184446930885315 0.12823662161827087 0.8763242959976196
v -0.08859051018953323 0.1262357532978058 0.8805605173110962
v -0.0878407210111618 0.12740197777748108 0.8785080909729004
v -0.0896325558423996 0.1298222541809082 0.8748103380203247
v -0.09000109136104584 0.13268797099590302 0.8708245754241943
v -0.09297937154769897 0.1310979127883911 0.87190842628479
v -0.08387643098831177 0.12544327974319458 0.878882646560669
v -0.08550723642110825 0.12879475951194763 0.873791515827179
v -0.08244092762470245 0.12701961398124695 0.8715810179710388
v -0.0832398384809494 0.13066205382347107 0.8678773045539856
v -0.08608639985322952 0.1325957030057907 0.8697513341903687
v -0.08163304626941681 0.12497815489768982 0.8753091096878052
v -0.08331145346164703 0.12493181228637695 0.8804851174354553
v -0.0917728990316391 0.1327427327632904 0.8680447340011597
v -0.0896795392036438 0.13406658172607422 0.8684442043304443
v -0.08669023215770721 0.1336696743965149 0.8671706914901733
v -0.08820328861474991 0.13308537006378174 0.8646913766860962
v -0.09213593602180481 0.12123952805995941 0.8828206658363342
v -0.09349043667316437 0.1264493465423584 0.876003623008728
v -0.09373392164707184 0.12847810983657837 0.8706071972846985
v -0.09244827926158905 0.13032764196395874 0.8668953776359558
v -0.0939774140715599 0.12361910939216614 0.8733823895454407
v -0.09334675967693329 0.12596240639686584 0.869268000125885
v -0.0920691192150116 0.12724831700325012 0.8657832145690918
v -0.09284760057926178 0.12084077298641205 0.8705004453659058
v -0.09214580059051514 0.12376213073730469 0.8673892617225647
v -0.09245482087135315 0.11222203075885773 0.8807051777839661
v -0.09297369420528412 0.11563500016927719 0.8829987049102783
v -0.09183624386787415 0.12521377205848694 0.8652654886245728
v -0.08853967487812042 0.1311335414648056 0.8637803792953491
v -0.08086902648210526 0.12388309836387634 0.8707824945449829
v -0.08276576548814774 0.1279062181711197 0.865967869758606
v -0.0810600221157074 0.1220279410481453 0.8696848750114441
v -0.08259782195091248 0.12582579255104065 0.8646796941757202
v -0.08398764580488205 0.13101544976234436 0.8635904788970947
v -0.08440199494361877 0.13217268884181976 0.8659007549285889
v -0.0907546654343605 0.10799966007471085 0.8836737871170044
v -0.08765702694654465 0.10723912715911865 0.879483699798584
v -0.08844185620546341 0.11030866205692291 0.8771023750305176
v -0.08966027945280075 0.11865869164466858 0.8680121898651123
v -0.0849086120724678 0.11130188405513763 0.8745764493942261
v -0.08110029250383377 0.11634112149477005 0.8729144334793091
v -0.08228574693202972 0.12052586674690247 0.8678876161575317
v -0.0849098414182663 0.11886610090732574 0.8670113682746887
v -0.0838494598865509 0.12365800887346268 0.8644163012504578
v -0.08608604967594147 0.12236927449703217 0.8646153211593628
v -0.08964133262634277 0.12218709290027618 0.8653963804244995
v -0.0860627293586731 0.12624241411685944 0.8626667261123657
v -0.08462338149547577 0.12889347970485687 0.8627893328666687
v -0.08923915028572083 0.12785835564136505 0.8633306622505188
v -0.08693583309650421 0.12450762093067169 0.8632665276527405
v -0.08952870965003967 0.12534451484680176 0.8641729950904846
v -0.08112853020429611 0.10187768191099167 0.8486740589141846
v -0.0764678418636322 0.10028047859668732 0.8449833393096924
v -0.07669264823198318 0.092137411236763 0.849515438079834
v -0.08003181219100952 0.09411436319351196 0.8533575534820557
v -0.07560241222381592 0.10557301342487335 0.8597143888473511
v -0.08053252100944519 0.10479047894477844 0.856961727142334
v -0.07836294174194336 0.10054979473352432 0.8610595464706421
v -0.07233672589063644 0.10289838910102844 0.8616940379142761
v -0.06971806287765503 0.10514341294765472 0.8583628535270691
v -0.06691692769527435 0.10228102654218674 0.859176754951477
v -0.0688677504658699 0.1028469055891037 0.8637231588363647
v -0.07463718205690384 0.09875376522541046 0.8641759753227234
v -0.06216871738433838 0.08619730919599533 0.8749386668205261
v -0.05781623721122742 0.09170199185609818 0.8737236857414246
v -0.060266636312007904 0.07363095879554749 0.8620261549949646
v -0.058651141822338104 0.07700502872467041 0.8602570295333862
v -0.0820593610405922 0.10346651822328568 0.8526167273521423
v -0.08057278394699097 0.097393698990345 0.8577027916908264
v -0.06787092983722687 0.08961854130029678 0.847722053527832
v -0.07250061631202698 0.0878852903842926 0.8499196767807007
v -0.07286112010478973 0.09196598082780838 0.8462090492248535
v -0.06818906962871552 0.09355234354734421 0.8456906676292419
v -0.06431721150875092 0.07735994458198547 0.8725671768188477
v -0.06190979480743408 0.07385849207639694 0.8677673935890198
v -0.06412798166275024 0.08164017647504807 0.8737896680831909
v -0.06335491687059402 0.0939035564661026 0.8489130139350891
v -0.0606769360601902 0.09891942888498306 0.8524904251098633
v -0.05119882524013519 0.0900183916091919 0.8616837859153748
v -0.05361263081431389 0.08439124375581741 0.8588689565658569
v -0.07797090709209442 0.09479112923145294 0.8619018197059631
v -0.07620752602815628 0.08839962631464005 0.8539964556694031
v -0.07845836877822876 0.09067666530609131 0.8578211069107056
v -0.06353938579559326 0.1024329662322998 0.8590241074562073
v -0.06338930875062943 0.10048987716436386 0.8528028130531311
v -0.06225881353020668 0.11366094648838043 0.8454643487930298
v -0.06423856317996979 0.10161915421485901 0.8487622737884521
v -0.06717739999294281 0.10074851661920547 0.8448148369789124
v -0.06434410810470581 0.11301902681589127 0.8409374356269836
v -0.06472571194171906 0.09647317230701447 0.8484560251235962
v -0.06502088159322739 0.10334771871566772 0.8537343740463257
v -0.07710543274879456 0.11696833372116089 0.8418328762054443
v -0.07253370434045792 0.11500866711139679 0.8381773829460144
v -0.07831807434558868 0.11866135895252228 0.8458797931671143
v -0.05306607112288475 0.09341640770435333 0.8679543733596802
v -0.07351954281330109 0.11858745664358139 0.8544613122940063
v -0.07779843360185623 0.1189972385764122 0.8500425815582275
v -0.07143521308898926 0.10014038532972336 0.8432130813598633
v -0.06789863854646683 0.11379099637269974 0.8381530046463013
v -0.06250415742397308 0.1150173544883728 0.8499245643615723
v -0.06745152920484543 0.1162644773721695 0.8550796508789062
v -0.06194073706865311 0.1191759929060936 0.8452103137969971
v -0.06503088772296906 0.1221749484539032 0.8499252796173096
v -0.0705670565366745 0.12494710087776184 0.8495228290557861
v -0.07524685561656952 0.12495893239974976 0.8461509346961975
v -0.07679612934589386 0.12338197231292725 0.8429682850837708
v -0.06224234402179718 0.11789586395025253 0.841484546661377
v -0.06463578343391418 0.1173369288444519 0.8375654816627502
v -0.06912524253129959 0.1167823001742363 0.8362975120544434
v -0.06186961010098457 0.12136134505271912 0.8359888195991516
v -0.06064963340759277 0.12380392849445343 0.8389002084732056
v -0.0667998194694519 0.13943830132484436 0.8349223136901855
v -0.06772226095199585 0.13571786880493164 0.8391517400741577
v -0.065168097615242 0.13528528809547424 0.8389978408813477
v -0.06407453119754791 0.1386975347995758 0.8351988792419434
v -0.06700078397989273 0.13180771470069885 0.8436717987060547
v -0.06495701521635056 0.132163405418396 0.8420515656471252
v -0.06226097047328949 0.12861262261867523 0.8414310216903687
v -0.06175548583269119 0.13248708844184875 0.8372740149497986
v -0.059943877160549164 0.12859204411506653 0.8350760340690613
v -0.05830709636211395 0.13227319717407227 0.8316218256950378
v -0.05979473888874054 0.13640016317367554 0.8337724208831787
v -0.06042834371328354 0.12690547108650208 0.8385148048400879
v -0.06267934292554855 0.14017242193222046 0.8324300646781921
v -0.06415586173534393 0.1409229338169098 0.8304165005683899
v -0.06312872469425201 0.1270737648010254 0.8437148332595825
v -0.07286827266216278 0.1292886584997177 0.8440842628479004
v -0.07042673230171204 0.13553255796432495 0.8378331661224365
v -0.06897246092557907 0.13896068930625916 0.8326572179794312
v -0.06531546264886856 0.13962069153785706 0.8279252052307129
v -0.07219929993152618 0.1339205801486969 0.8345301151275635
v -0.06985500454902649 0.13717252016067505 0.8301650881767273
v -0.0664142370223999 0.1374538391828537 0.826667070388794
v -0.07259084284305573 0.13112220168113708 0.8308485150337219
v -0.06966093927621841 0.13422545790672302 0.82716965675354
v -0.07611138373613358 0.12374952435493469 0.8379600048065186
v -0.07590020447969437 0.1268208622932434 0.8412080407142639
v -0.06758254766464233 0.13543382287025452 0.8261860609054565
v -0.05996226519346237 0.13918453454971313 0.8285584449768066
v -0.06190355867147446 0.13803735375404358 0.8260137438774109
v -0.059639349579811096 0.13866613805294037 0.8303396701812744
v -0.05974568426609039 0.12697196006774902 0.8337153792381287
v -0.058666594326496124 0.1311277151107788 0.8296836614608765
v -0.060547854751348495 0.1255197376012802 0.8315603137016296
v -0.059411220252513885 0.13038286566734314 0.8275219798088074
v -0.05819857120513916 0.13488739728927612 0.8274462819099426
v -0.05798187851905823 0.13570573925971985 0.8289623260498047
v -0.07605326175689697 0.12068827450275421 0.8398391008377075
v -0.07260090112686157 0.11783413589000702 0.8368960022926331
v -0.07355090975761414 0.12020675837993622 0.8350837826728821
v -0.07017764449119568 0.1275421679019928 0.828387975692749
v -0.06951150298118591 0.1184922307729721 0.8341724872589111
v -0.06442661583423615 0.11985831707715988 0.8341215252876282
v -0.06262622773647308 0.12450266629457474 0.8299859166145325
v -0.06605886667966843 0.12522287666797638 0.8282697796821594
v -0.06061703711748123 0.12920501828193665 0.826068639755249
v -0.06384216994047165 0.12844733893871307 0.8259457349777222
v -0.06785725057125092 0.13102000951766968 0.8256797194480896
v -0.06048935651779175 0.13324551284313202 0.8244190216064453
v -0.05893847346305847 0.13435037434101105 0.8258979916572571
v -0.06337359547615051 0.13656489551067352 0.825188159942627
v -0.06301011145114899 0.1316542625427246 0.8244020342826843
v -0.06553836911916733 0.13424500823020935 0.8248434066772461
v -0.07227025926113129 0.09834934771060944 0.8340925574302673
v -0.06966611742973328 0.09576551616191864 0.8300448656082153
v -0.0698469877243042 0.08827447891235352 0.8321136832237244
v -0.07234728336334229 0.09174830466508865 0.8366612792015076
v -0.0633602887392044 0.1005231961607933 0.8431916832923889
v -0.06815201044082642 0.10084952414035797 0.8417178392410278
v -0.06844522058963776 0.09657548367977142 0.8433275818824768
v -0.06308595836162567 0.0959898829460144 0.8450182676315308
v -0.058370985090732574 0.10068966448307037 0.8409239649772644
v -0.05792269855737686 0.0957283228635788 0.8425895571708679
v -0.05980602279305458 0.09624083340167999 0.847327709197998
v -0.06593110412359238 0.0943676233291626 0.8462024927139282
v -0.05623919889330864 0.08660747110843658 0.853005051612854
v -0.050553642213344574 0.09095112979412079 0.8526440262794495
v -0.07115107774734497 0.10004960000514984 0.8380953073501587
v -0.07152076810598373 0.09505173563957214 0.8403898477554321
v -0.05909017100930214 0.08469384908676147 0.8311430811882019
v -0.06283826380968094 0.08346553146839142 0.8334633111953735
v -0.0652560144662857 0.088053859770298 0.8289899826049805
v -0.061193015426397324 0.08933928608894348 0.8283971548080444
v -0.05755934491753578 0.07583308964967728 0.8508762717247009
v -0.053434357047080994 0.07360981404781342 0.8466758728027344
v -0.05887452885508537 0.08126780390739441 0.8518896698951721
v -0.05478883907198906 0.08823085576295853 0.8325880765914917
v -0.051832132041454315 0.09314332902431488 0.8375498056411743
v -0.04373026639223099 0.0871090367436409 0.841838002204895
v -0.04586094990372658 0.08149538934230804 0.8399685621261597
v -0.06892517954111099 0.09136185795068741 0.8444198966026306
v -0.06656911969184875 0.0837474837899208 0.836896538734436
v -0.06967632472515106 0.08705759048461914 0.8410820364952087
v -0.05468464270234108 0.09628798067569733 0.8435603380203247
v -0.05562255159020424 0.09352639317512512 0.8368757963180542
v -0.054393939673900604 0.11239725351333618 0.8280998468399048
v -0.056497953832149506 0.09532508254051208 0.8303923606872559
v -0.060679055750370026 0.09516124427318573 0.8272978067398071
v -0.0567350909113884 0.11223921924829483 0.824535608291626
v -0.05712389945983887 0.09120471775531769 0.8307411074638367
v -0.05521416291594505 0.09784513711929321 0.8359641432762146
v -0.06837234646081924 0.1158234030008316 0.8284396529197693
v -0.0655776783823967 0.11298271268606186 0.8246505260467529
v -0.06811842322349548 0.11591476202011108 0.8325132727622986
v -0.04505060613155365 0.09167008846998215 0.8482052683830261
v -0.048996053636074066 0.07557939738035202 0.8415209650993347
v -0.06272047013044357 0.11687986552715302 0.8370298743247986
v -0.06649444252252579 0.11678394675254822 0.8353081345558167
v -0.0649401992559433 0.09471407532691956 0.8276321887969971
v -0.06074577942490578 0.11221617460250854 0.8230166435241699
v -0.054742176085710526 0.11317500472068787 0.8323771357536316
v -0.0577877052128315 0.11482962965965271 0.8366214632987976
v -0.05346403270959854 0.11676661670207977 0.829079270362854
v -0.05622193217277527 0.11894020438194275 0.8333373665809631
v -0.059655822813510895 0.12175415456295013 0.8343144059181213
v -0.06316035985946655 0.12237779796123505 0.8330532312393188
v -0.06543242931365967 0.12190458923578262 0.8304891586303711
v -0.05383117124438286 0.11649729311466217 0.8249034881591797
v -0.056449878960847855 0.11654579639434814 0.8222068548202515
v -0.06039905175566673 0.11566797643899918 0.8224083781242371
v -0.05286030098795891 0.11896629631519318 0.8217888474464417
v -0.05058278888463974 0.12136530876159668 0.82586270570755
v -0.05164952576160431 0.13662832975387573 0.8262584805488586
v -0.05396892502903938 0.13242372870445251 0.8284039497375488
v -0.0527442991733551 0.13199558854103088 0.8283158540725708
v -0.05003809183835983 0.13621947169303894 0.8264231085777283
v -0.05506742373108864 0.12674948573112488 0.8314065933227539
v -0.05312070995569229 0.12773874402046204 0.8304572105407715
v -0.05129127576947212 0.12486433982849121 0.8291692733764648
v -0.04865418002009392 0.12973180413246155 0.826271653175354
v -0.048162199556827545 0.12615911662578583 0.8218456506729126
v -0.04658764228224754 0.13032975792884827 0.8205147981643677
v -0.046480193734169006 0.13375353813171387 0.8246220946311951
v -0.049625296145677567 0.1230633556842804 0.8256245255470276
v -0.04830913245677948 0.13763289153575897 0.8245431184768677
v -0.04905850812792778 0.13962039351463318 0.8249931335449219
v -0.053068894892930984 0.12334363162517548 0.8302194476127625
v -0.05962266027927399 0.12730133533477783 0.8319711089134216
v -0.05655631422996521 0.1333012878894806 0.8280344009399414
v -0.05469246208667755 0.13817879557609558 0.8256148099899292
v -0.05201980471611023 0.1396426260471344 0.8227121829986572
v -0.059077225625514984 0.1328466832637787 0.8254565000534058
v -0.05654939264059067 0.13707654178142548 0.8232158422470093
v -0.054151758551597595 0.13866078853607178 0.8206673264503479
v -0.060310594737529755 0.13144442439079285 0.8228444457054138
v -0.05746737867593765 0.13524430990219116 0.8207153081893921
v -0.06488490104675293 0.12279503792524338 0.8269386291503906
v -0.06290309131145477 0.1255086064338684 0.8300678133964539
v -0.055186133831739426 0.13712039589881897 0.8194571137428284
v -0.046047478914260864 0.13756050169467926 0.8218472599983215
v -0.04884472116827965 0.13783609867095947 0.818698525428772
v -0.04663527011871338 0.13608500361442566 0.8227239847183228
v -0.04884064570069313 0.12485182285308838 0.8206403255462646
v -0.04639868438243866 0.12989342212677002 0.8181495070457458
v -0.05085238069295883 0.12408386915922165 0.8186354637145996
v -0.04835651442408562 0.1293177455663681 0.8160353899002075
v -0.045370183885097504 0.13354991376399994 0.8187207579612732
v -0.0456293523311615 0.13352712988853455 0.8198974132537842
v -0.06614673882722855 0.11931028962135315 0.8272162675857544
v -0.0642160177230835 0.11696726083755493 0.8237611055374146
v -0.0639738067984581 0.12041781842708588 0.8234113454818726
v -0.05932890996336937 0.1296127289533615 0.8192669153213501
v -0.06074070930480957 0.1183699369430542 0.8213474750518799
v -0.05563616752624512 0.1197296753525734 0.8199582695960999
v -0.05357392504811287 0.12492690980434418 0.8174058198928833
v -0.056421130895614624 0.1270570456981659 0.8173941373825073
v -0.05100734531879425 0.12963613867759705 0.815048098564148
v -0.05366254970431328 0.13033956289291382 0.816121518611908
v -0.056854248046875 0.13347235321998596 0.8174582719802856
v -0.050093673169612885 0.1334688365459442 0.8159219622612
v -0.04727951064705849 0.1335342824459076 0.8165669441223145
v -0.051631614565849304 0.13727527856826782 0.8174443244934082
v -0.05254937708377838 0.13330118358135223 0.8159090876579285
v -0.0538504421710968 0.13614918291568756 0.8170368671417236
v -0.05066249519586563 0.07327065616846085 0.8434813022613525
v -0.053115762770175934 0.06722630560398102 0.839087724685669
v -0.054292064160108566 0.06338271498680115 0.8385443687438965
v -0.05077310651540756 0.062313251197338104 0.8358260989189148
v -0.04875342920422554 0.06580539792776108 0.8367508053779602
v -0.0560990609228611 0.0741463154554367 0.8313454389572144
v -0.05456671491265297 0.0732736885547638 0.8355050683021545
v -0.05076798424124718 0.07306449860334396 0.8326647877693176
v -0.051865559071302414 0.07408659160137177 0.8281432390213013
v -0.058404237031936646 0.07179449498653412 0.8274227380752563
v -0.05405879020690918 0.07183542847633362 0.8241214156150818
v -0.04885045811533928 0.07639195770025253 0.8284381628036499
v -0.04820626229047775 0.07448118925094604 0.8330024480819702
v -0.03743252903223038 0.07668589800596237 0.8368425965309143
v -0.03582945466041565 0.07920514792203903 0.832869291305542
v -0.027976617217063904 0.06379058212041855 0.8265650272369385
v -0.028132319450378418 0.060710418969392776 0.8306677341461182
v -0.035184118896722794 0.06148170679807663 0.8302068710327148
v -0.034385040402412415 0.06280340999364853 0.8261697292327881
v -0.053462736308574677 0.07070747017860413 0.8379295468330383
v -0.04975225031375885 0.06965561956167221 0.8361105918884277
v -0.04808245599269867 0.05908916890621185 0.8272930383682251
v -0.04761562868952751 0.05888722836971283 0.8317288756370544
v -0.05206509307026863 0.05924304947257042 0.8337534070014954
v -0.05447224900126457 0.058426275849342346 0.8299214839935303
v -0.03137030452489853 0.061038389801979065 0.8347752094268799
v -0.03438987582921982 0.06261985749006271 0.8375183939933777
v -0.03724096342921257 0.0647265836596489 0.8374237418174744
v -0.03677119314670563 0.06243085861206055 0.834303617477417
v -0.038825199007987976 0.06981752067804337 0.8391104936599731
v -0.049003325402736664 0.06156494468450546 0.8237876892089844
v -0.04962635785341263 0.06733367592096329 0.8211529850959778
v -0.03321751207113266 0.07093007117509842 0.8218573331832886
v -0.03289707750082016 0.0662631243467331 0.8231179118156433
v -0.047577276825904846 0.0709727331995964 0.8359836935997009
v -0.04765981063246727 0.06143684312701225 0.8351637721061707
v -0.047051992267370224 0.06599023193120956 0.8365182280540466
v -0.04887843877077103 0.07410071045160294 0.8233118057250977
v -0.05630561709403992 0.06626422703266144 0.8232637047767639
v -0.06785383820533752 0.061807118356227875 0.8345921039581299
v -0.06104240193963051 0.06110689789056778 0.8288336396217346
v -0.05925358459353447 0.059197574853897095 0.8326596021652222
v -0.06624060869216919 0.060168832540512085 0.8369176983833313
v -0.05501098185777664 0.061181679368019104 0.8258075714111328
v -0.061352744698524475 0.06625174731016159 0.8268082737922668
v -0.05968703702092171 0.06763473153114319 0.8444172143936157
v -0.061060722917318344 0.06294392794370651 0.84262615442276
v -0.05996919050812721 0.07078437507152557 0.8438026905059814
v -0.03444816172122955 0.07805299013853073 0.8265028595924377
v -0.0638284832239151 0.07418163865804672 0.838564932346344
v -0.061743516474962234 0.07320412993431091 0.8422456383705139
v -0.056459829211235046 0.06067059934139252 0.8363231420516968
v -0.0636661946773529 0.060401104390621185 0.8398593068122864
v -0.06852556020021439 0.06606628000736237 0.8331610560417175
v -0.06649760901927948 0.07170743495225906 0.8340491652488708
v -0.07195037603378296 0.06656806170940399 0.836760938167572
v -0.0699910968542099 0.07137279212474823 0.8381550908088684
v -0.0668124407529831 0.07305258512496948 0.8438426852226257
v -0.06391722708940506 0.07147523760795593 0.8456277847290039
v -0.06211898475885391 0.06901445984840393 0.8465040326118469
v -0.07045551389455795 0.061857130378484726 0.8373519778251648
v -0.06832696497440338 0.06007035821676254 0.8388973474502563
v -0.06505032628774643 0.06007108837366104 0.8411251306533813
v -0.07346639037132263 0.06176702678203583 0.8405089974403381
v -0.07504872977733612 0.06548992544412613 0.8429367542266846
v -0.07340161502361298 0.06307240575551987 0.8558585047721863
v -0.07109804451465607 0.06530635803937912 0.8534821271896362
v -0.07205318659543991 0.06547922641038895 0.8528651595115662
v -0.07424910366535187 0.06369511783123016 0.8556272983551025
v -0.06962338089942932 0.06899845600128174 0.8497434258460999
v -0.07108178734779358 0.067998006939888 0.8499000668525696
v -0.07265601307153702 0.06825961917638779 0.8466399312019348
v -0.07533276081085205 0.06557194888591766 0.8500922322273254
v -0.07735054194927216 0.0619795098900795 0.8467011451721191
v -0.07921038568019867 0.06035558879375458 0.8497775793075562
v -0.07748875021934509 0.06388293206691742 0.8524436354637146
v -0.07537546008825302 0.06555554270744324 0.8448123335838318
v -0.07653369009494781 0.06279878318309784 0.856721043586731
v -0.07651609182357788 0.06193911284208298 0.8578283786773682
v -0.07229861617088318 0.07013504952192307 0.8449237942695618
v -0.06589508056640625 0.06788010895252228 0.8503469228744507
v -0.06957189738750458 0.06372944265604019 0.8547957539558411
v -0.07296435534954071 0.06136646494269371 0.857494592666626
v -0.07623669505119324 0.05966947227716446 0.8580459952354431
v -0.06792144477367401 0.06209230422973633 0.8539255857467651
v -0.07183805108070374 0.059386614710092545 0.8573493361473083
v -0.07497011125087738 0.05775103345513344 0.8577318787574768
v -0.06699444353580475 0.05948876217007637 0.8521370887756348
v -0.07110108435153961 0.05759437382221222 0.8555675745010376
v -0.06289923936128616 0.06270540505647659 0.8477481603622437
v -0.06389099359512329 0.06547410786151886 0.8496339321136475
v -0.07396861910820007 0.057020775973796844 0.8564429879188538
v -0.0796465277671814 0.060810450464487076 0.8557737469673157
v -0.07849124073982239 0.058117836713790894 0.8561733961105347
v -0.07956230640411377 0.06201811134815216 0.8546994924545288
v -0.07733824849128723 0.06099893897771835 0.8457735776901245
v -0.07951381802558899 0.05877705290913582 0.8495282530784607
v -0.07637256383895874 0.05891663581132889 0.8449350595474243
v -0.07855553925037384 0.0568489134311676 0.8495687246322632
v -0.0804598480463028 0.058777838945388794 0.8528521656990051
v -0.08005985617637634 0.06051388382911682 0.8523616194725037
v -0.06149369850754738 0.06512954831123352 0.8464327454566956
v -0.062359731644392014 0.06243855133652687 0.8439277410507202
v -0.06402862071990967 0.06034119054675102 0.844862163066864
v -0.06805415451526642 0.05717352032661438 0.8491703867912292
v -0.06727506220340729 0.058888912200927734 0.841743528842926
v -0.07088984549045563 0.05975334346294403 0.840333104133606
v -0.07440241426229477 0.057173434644937515 0.8451381921768188
v -0.07155037671327591 0.05610806122422218 0.8464497923851013
v -0.07701501250267029 0.055520765483379364 0.8502516150474548
v -0.07423166930675507 0.05480978637933731 0.8510713577270508
v -0.07179082185029984 0.05555529519915581 0.8530798554420471
v -0.07771909236907959 0.05600081756711006 0.8539273738861084
v -0.07934395968914032 0.05690648406744003 0.8536557555198669
v -0.07697400450706482 0.056728482246398926 0.8559412360191345
v -0.07590280473232269 0.05538065358996391 0.8539382219314575
v -0.07493796944618225 0.055926792323589325 0.8551393151283264
v -0.02929706498980522 0.06699947267770767 0.8247259855270386
v -0.03903970122337341 0.04743967577815056 0.9017642736434937
v -0.03674861788749695 0.04850281774997711 0.8967079520225525
v -0.02626003697514534 0.03590099513530731 0.8941266536712646
v -0.02990731969475746 0.041640765964984894 0.8910310864448547
v -0.026554733514785767 0.03214077651500702 0.9001495838165283
v -0.03195232152938843 0.03382275998592377 0.9092171788215637
v -0.028016548603773117 0.03245265781879425 0.9057784676551819
v -0.03331323713064194 0.046070557087659836 0.892444372177124
v -0.03879871964454651 0.04446955770254135 0.9065923690795898
v -0.03596791625022888 0.038761675357818604 0.9103502035140991
v -0.048122093081474304 0.03674701601266861 0.9021928906440735
v -0.04365851730108261 0.03067880868911743 0.9052590131759644
v -0.0381220318377018 0.02584245800971985 0.9027811884880066
v -0.03265746310353279 0.027148261666297913 0.8994212746620178
v -0.029925622045993805 0.028383947908878326 0.8957628011703491
v -0.04516893997788429 0.042815882712602615 0.8976902365684509
v -0.042084962129592896 0.04483218491077423 0.8932371139526367
v -0.036676958203315735 0.043163955211639404 0.8898511528968811
v -0.049121662974357605 0.039240747690200806 0.8912169337272644
v -0.04959108307957649 0.03164016082882881 0.8854616284370422
v -0.039007071405649185 0.01996742933988571 0.8742918968200684
v -0.03727637976408005 0.02146128937602043 0.8804019093513489
v -0.040031395852565765 0.021690018475055695 0.8806183934211731
v -0.04141857475042343 0.01988036185503006 0.8751633763313293
v -0.03887222334742546 0.02206605300307274 0.8857690095901489
v -0.04070047289133072 0.02291170507669449 0.8846523761749268
v -0.04487278684973717 0.026349492371082306 0.8862347602844238
v -0.04580366984009743 0.024485670030117035 0.8807648420333862
v -0.047804348170757294 0.029871702194213867 0.8842921257019043
v -0.04833011329174042 0.030028246343135834 0.8800258040428162
v -0.046679411083459854 0.023137442767620087 0.8754563927650452
v -0.04388757050037384 0.01951206475496292 0.8723176717758179
v -0.047097593545913696 0.022088170051574707 0.8711206316947937
v -0.041916005313396454 0.020041078329086304 0.8703132271766663
v -0.04780491441488266 0.02450014278292656 0.8882874846458435
v -0.03400450944900513 0.023569580167531967 0.8898018598556519
v -0.034041717648506165 0.022764235734939575 0.8808595538139343
v -0.03632570803165436 0.021993346512317657 0.8735367655754089
v -0.04008328169584274 0.02213018760085106 0.8690835237503052
v -0.03173954784870148 0.02597828581929207 0.8800398707389832
v -0.03458564728498459 0.025789469480514526 0.8735169768333435
v -0.03861468657851219 0.026415444910526276 0.8695610165596008
v -0.0319109782576561 0.030526306480169296 0.8790425658226013
v -0.03521126136183739 0.0294712632894516 0.8735683560371399
v -0.02963242307305336 0.03329319506883621 0.8891607522964478
v -0.030118368566036224 0.027758553624153137 0.8906607627868652
v -0.038210608065128326 0.028710559010505676 0.8707938194274902
v -0.04697635769844055 0.022426538169384003 0.8687968254089355
v -0.045100338757038116 0.02487386018037796 0.8676022291183472
v -0.04920820891857147 0.033070892095565796 0.8801275491714478
v -0.049833085387945175 0.028388001024723053 0.8753336071968079
v -0.04960197955369949 0.030895650386810303 0.8745233416557312
v -0.04820224642753601 0.03673906251788139 0.8805004954338074
v -0.04857424646615982 0.03343219310045242 0.8737719655036926
v -0.04943431168794632 0.02734868973493576 0.8705170750617981
v -0.04933491349220276 0.02563931792974472 0.8723365068435669
v -0.028601860627532005 0.03307977318763733 0.8917779326438904
v -0.03138098493218422 0.03885931149125099 0.8896376490592957
v -0.03320763260126114 0.039137788116931915 0.8881210088729858
v -0.035126425325870514 0.03600754216313362 0.8791013360023499
v -0.03902585804462433 0.04289472475647926 0.887433648109436
v -0.04533310979604721 0.042449962347745895 0.8894703388214111
v -0.04550996422767639 0.03920039162039757 0.8796292543411255
v -0.04052431881427765 0.03932597488164902 0.8793812394142151
v -0.045579925179481506 0.03508266806602478 0.8733241558074951
v -0.04260628670454025 0.03510497510433197 0.8734778761863708
v -0.038015272468328476 0.03294582664966583 0.8730252385139465
v -0.045203812420368195 0.03136223182082176 0.8698421716690063
v -0.04793979227542877 0.029810283333063126 0.8696940541267395
v -0.042593829333782196 0.02825923264026642 0.8684535622596741
v -0.043013233691453934 0.032377663999795914 0.8710858821868896
v -0.04077181592583656 0.030395876616239548 0.8703629374504089
v -0.02181510627269745 0.059945300221443176 0.831961989402771
v -0.02495165541768074 0.05922192707657814 0.837454617023468
v -0.017939254641532898 0.05852977931499481 0.8378404378890991
v -0.00836155191063881 0.05762714520096779 0.8399311900138855
v 0.00183941051363945 0.05930061638355255 0.8367573618888855
v -0.010319646447896957 0.058535560965538025 0.8464266657829285
v -0.020073655992746353 0.059335049241781235 0.8438711166381836
v -0.030215470120310783 0.06097840890288353 0.842910885810852
v -0.004025153815746307 0.06023211032152176 0.8545423150062561
f 2 3 1
f 1 3 4
f 5 6 8
f 8 6 7
f 9 4 10
f 10 4 3
f 12 13 11
f 11 13 9
f 14 12 16
f 16 12 15
f 18 19 17
f 17 19 20
f 22 23 21
f 21 23 24
f 26 27 25
f 25 27 28
f 30 31 29
f 29 31 32
f 33 34 36
f 36 34 35
f 37 38 40
f 40 38 39
f 41 42 6
f 6 42 43
f 6 43 7
f 7 43 44
f 45 34 46
f 46 34 33
f 48 49 47
f 47 49 50
f 52 53 51
f 51 53 54
f 56 52 55
f 55 52 51
f 58 59 57
f 57 59 60
f 61 62 4
f 4 62 1
f 64 65 63
f 63 65 66
f 68 69 67
f 67 69 70
f 72 73 71
f 71 73 74
f 76 77 75
f 75 77 78
f 53 79 54
f 54 79 80
f 82 83 81
f 81 83 84
f 85 86 52
f 52 86 53
f 57 60 87
f 87 60 88
f 89 90 43
f 43 90 44
f 43 42 89
f 89 42 91
f 40 39 92
f 92 39 93
f 94 70 64
f 64 70 69
f 13 61 9
f 9 61 4
f 25 28 69
f 69 28 95
f 96 25 68
f 68 25 69
f 98 99 97
f 97 99 100
f 101 102 104
f 104 102 103
f 106 30 105
f 105 30 29
f 51 54 107
f 107 54 108
f 54 80 108
f 108 80 109
f 111 112 110
f 110 112 113
f 115 5 114
f 114 5 116
f 115 41 5
f 5 41 6
f 36 35 111
f 111 35 117
f 35 118 117
f 117 118 119
f 34 120 35
f 35 120 118
f 34 45 120
f 120 45 121
f 125 126 124
f 124 126 127
f 128 129 14
f 14 129 130
f 33 131 46
f 46 131 132
f 133 94 63
f 63 94 64
f 134 135 137
f 137 135 136
f 139 140 138
f 138 140 141
f 77 142 78
f 78 142 143
f 144 145 20
f 20 145 146
f 148 149 147
f 147 149 72
f 151 152 150
f 150 152 153
f 82 101 83
f 83 101 104
f 101 82 155
f 155 82 154
f 156 157 58
f 58 157 59
f 158 68 147
f 147 68 67
f 159 146 15
f 15 146 16
f 68 158 96
f 96 158 160
f 129 66 130
f 130 66 65
f 162 163 161
f 161 163 164
f 166 167 165
f 165 167 168
f 170 171 169
f 169 171 172
f 174 171 173
f 173 171 170
f 176 177 175
f 175 177 178
f 180 181 179
f 179 181 24
f 182 183 21
f 21 183 184
f 81 185 82
f 82 185 154
f 186 187 188
f 188 187 144
f 158 71 160
f 160 71 189
f 190 135 157
f 157 135 59
f 169 172 139
f 139 172 140
f 147 72 158
f 158 72 71
f 192 193 191
f 191 193 194
f 167 166 49
f 49 166 195
f 196 190 50
f 50 190 157
f 197 198 200
f 200 198 199
f 21 24 182
f 182 24 181
f 146 159 20
f 20 159 17
f 182 181 81
f 81 181 185
f 201 185 180
f 180 185 181
f 202 203 83
f 83 203 84
f 205 206 204
f 204 206 85
f 207 22 184
f 184 22 21
f 179 24 208
f 208 24 23
f 208 209 179
f 179 209 205
f 209 210 205
f 205 210 206
f 212 206 211
f 211 206 210
f 179 205 180
f 180 205 204
f 213 176 88
f 88 176 214
f 86 85 212
f 212 85 206
f 193 217 218
f 217 219 218
f 218 219 220
f 219 18 220
f 220 18 17
f 19 221 20
f 20 221 144
f 222 223 225
f 225 223 224
f 175 226 176
f 176 226 214
f 227 87 214
f 214 87 88
f 220 17 228
f 228 17 159
f 134 213 60
f 60 213 88
f 138 229 151
f 151 229 152
f 193 192 210
f 210 192 211
f 230 194 218
f 218 194 193
f 231 232 228
f 228 232 230
f 233 234 91
f 91 234 89
f 235 236 93
f 93 236 92
f 230 232 234
f 234 232 237
f 47 238 48
f 48 238 239
f 240 191 235
f 235 191 236
f 5 8 116
f 116 8 241
f 242 243 189
f 189 243 160
f 244 245 98
f 98 245 99
f 156 246 47
f 47 246 238
f 76 247 77
f 77 247 248
f 250 125 249
f 249 125 124
f 252 253 251
f 251 253 254
f 111 110 36
f 36 110 255
f 256 33 255
f 255 33 36
f 257 258 154
f 154 258 155
f 63 169 133
f 133 169 139
f 66 170 63
f 63 170 169
f 173 170 129
f 129 170 66
f 129 128 173
f 173 128 259
f 128 260 259
f 259 260 261
f 213 134 262
f 262 134 137
f 263 264 186
f 186 264 187
f 112 265 113
f 113 265 266
f 11 267 268
f 234 233 230
f 230 233 194
f 153 269 70
f 70 269 67
f 175 178 165
f 165 178 141
f 150 153 94
f 94 153 70
f 271 221 270
f 270 221 207
f 269 153 272
f 272 153 152
f 121 45 109
f 109 45 108
f 47 50 156
f 156 50 157
f 57 273 58
f 58 273 274
f 145 275 260
f 260 275 261
f 276 149 143
f 143 149 78
f 148 269 75
f 75 269 272
f 207 277 270
f 270 277 278
f 195 196 49
f 49 196 50
f 59 135 60
f 60 135 134
f 83 104 202
f 202 104 279
f 149 148 78
f 78 148 75
f 247 278 248
f 248 278 277
f 183 182 84
f 84 182 81
f 48 239 281
f 281 239 282
f 227 223 283
f 283 223 222
f 223 226 224
f 224 226 168
f 281 282 224
f 224 282 225
f 165 168 175
f 175 168 226
f 264 263 138
f 138 263 229
f 14 16 128
f 128 16 260
f 220 228 218
f 218 228 230
f 87 227 284
f 284 227 283
f 260 16 145
f 145 16 146
f 244 98 258
f 258 98 155
f 58 274 156
f 156 274 246
f 107 285 51
f 51 285 55
f 243 286 160
f 160 286 96
f 234 237 89
f 89 237 90
f 46 132 107
f 107 132 285
f 253 252 249
f 249 252 250
f 286 26 96
f 96 26 25
f 106 105 287
f 287 105 288
f 272 152 289
f 289 152 229
f 138 151 139
f 139 151 133
f 183 290 161
f 161 290 162
f 291 292 277
f 277 292 293
f 151 150 133
f 133 150 94
f 262 275 177
f 177 275 187
f 144 187 145
f 145 187 275
f 273 57 284
f 284 57 87
f 174 136 190
f 190 136 135
f 111 117 112
f 112 117 38
f 117 119 38
f 38 119 123
f 112 38 265
f 265 38 37
f 287 288 254
f 254 288 251
f 228 159 231
f 231 159 15
f 223 227 226
f 226 227 214
f 147 67 148
f 148 67 269
f 224 168 281
f 281 168 167
f 199 163 200
f 200 163 162
f 45 46 108
f 108 46 107
f 281 167 48
f 48 167 49
f 161 164 291
f 291 164 292
f 38 123 39
f 293 294 277
f 277 294 248
f 284 283 296
f 296 283 295
f 284 296 273
f 273 296 297
f 274 273 298
f 298 273 297
f 246 274 299
f 299 274 298
f 283 222 295
f 295 222 300
f 222 225 300
f 300 225 301
f 301 225 302
f 302 225 282
f 303 304 300
f 300 304 295
f 306 307 305
f 305 307 308
f 309 310 308
f 308 310 305
f 308 307 312
f 312 307 311
f 313 314 312
f 312 314 315
f 311 316 312
f 312 316 313
f 317 304 311
f 311 304 316
f 315 309 312
f 312 309 308
f 318 319 321
f 321 319 320
f 319 318 309
f 309 318 310
f 311 307 317
f 317 307 306
f 306 297 317
f 317 297 296
f 306 322 297
f 297 322 298
f 305 323 306
f 306 323 322
f 323 305 324
f 324 305 310
f 304 317 295
f 295 317 296
f 318 325 310
f 310 325 324
f 323 324 326
f 326 324 327
f 324 325 327
f 327 325 328
f 326 327 329
f 329 327 330
f 329 331 326
f 326 331 332
f 333 330 328
f 328 330 327
f 323 326 322
f 322 326 332
f 322 332 298
f 298 332 299
f 325 318 334
f 334 318 321
f 313 316 335
f 335 316 304
f 335 336 313
f 313 336 314
f 304 303 335
f 335 303 337
f 336 335 338
f 338 335 337
f 336 339 314
f 314 339 340
f 246 299 238
f 238 299 341
f 239 342 282
f 282 342 302
f 342 239 341
f 341 239 238
f 341 331 342
f 342 331 343
f 331 329 343
f 343 329 344
f 342 343 302
f 302 343 345
f 341 299 331
f 331 299 332
f 346 301 345
f 345 301 302
f 346 303 301
f 301 303 300
f 347 337 346
f 346 337 303
f 347 346 348
f 348 346 345
f 349 347 350
f 350 347 348
f 343 344 345
f 345 344 348
f 344 351 348
f 348 351 350
f 337 347 338
f 338 347 349
f 353 338 352
f 352 338 349
f 352 355 354
f 354 355 356
f 352 349 355
f 355 349 350
f 352 354 353
f 353 354 334
f 353 334 339
f 339 334 321
f 339 336 353
f 353 336 338
f 329 330 344
f 344 330 351
f 356 351 333
f 333 351 330
f 356 355 351
f 351 355 350
f 354 356 328
f 328 356 333
f 328 325 354
f 354 325 334
f 309 315 319
f 319 315 320
f 320 340 321
f 321 340 339
f 320 315 340
f 340 315 314
f 137 136 261
f 261 136 259
f 140 166 141
f 141 166 165
f 172 171 195
f 195 171 196
f 171 174 196
f 196 174 190
f 178 177 264
f 264 177 187
f 172 195 140
f 140 195 166
f 137 261 262
f 262 261 275
f 178 264 141
f 141 264 138
f 262 177 213
f 213 177 176
f 136 174 259
f 259 174 173
f 358 359 357
f 357 359 360
f 362 363 361
f 361 363 364
f 361 364 365
f 365 364 366
f 367 368 370
f 370 368 369
f 76 371 247
f 247 371 372
f 373 374 362
f 362 374 363
f 376 377 375
f 375 377 378
f 289 229 380
f 380 229 379
f 381 379 263
f 263 379 229
f 383 384 382
f 382 384 385
f 386 368 374
f 374 368 363
f 76 289 371
f 371 289 380
f 377 376 359
f 359 376 387
f 388 386 360
f 360 386 374
f 389 383 366
f 366 383 390
f 392 393 391
f 391 393 394
f 383 382 390
f 390 382 395
f 396 365 390
f 390 365 366
f 389 366 367
f 367 366 364
f 357 397 358
f 358 397 398
f 373 399 357
f 357 399 397
f 389 367 400
f 400 367 370
f 382 385 375
f 375 385 372
f 357 360 373
f 373 360 374
f 361 401 362
f 362 401 402
f 387 388 359
f 359 388 360
f 363 368 364
f 364 368 367
f 358 398 403
f 403 398 404
f 396 392 405
f 405 392 391
f 392 395 393
f 393 395 378
f 393 403 394
f 394 403 404
f 375 378 382
f 382 378 395
f 365 396 406
f 406 396 405
f 362 402 373
f 373 402 399
f 271 270 400
f 400 270 384
f 401 361 406
f 406 361 365
f 381 369 386
f 386 369 368
f 392 396 395
f 395 396 390
f 393 378 403
f 403 378 377
f 403 377 358
f 358 377 359
f 406 405 408
f 408 405 407
f 406 408 401
f 401 408 409
f 401 409 402
f 402 409 410
f 402 410 399
f 399 410 411
f 405 391 407
f 407 391 412
f 391 394 412
f 412 394 413
f 394 404 413
f 413 404 414
f 415 416 412
f 412 416 407
f 418 419 417
f 417 419 420
f 421 422 418
f 418 422 419
f 419 422 424
f 424 422 423
f 425 426 424
f 424 426 427
f 423 428 424
f 424 428 425
f 427 420 424
f 424 420 419
f 420 429 417
f 417 429 430
f 423 422 431
f 431 422 421
f 421 409 431
f 431 409 408
f 421 432 409
f 409 432 410
f 418 433 421
f 421 433 432
f 434 433 417
f 417 433 418
f 431 416 423
f 423 416 428
f 416 431 407
f 407 431 408
f 435 434 430
f 430 434 417
f 433 434 436
f 436 434 437
f 434 435 437
f 437 435 438
f 436 437 439
f 439 437 440
f 439 441 436
f 436 441 442
f 438 443 437
f 437 443 440
f 436 442 433
f 433 442 432
f 432 442 410
f 410 442 411
f 435 430 445
f 445 430 444
f 430 429 444
f 444 429 446
f 425 428 447
f 447 428 416
f 426 425 448
f 448 425 447
f 416 415 447
f 447 415 449
f 447 449 448
f 448 449 450
f 451 452 448
f 448 452 426
f 446 452 444
f 444 452 451
f 399 411 397
f 397 411 453
f 398 454 404
f 404 454 414
f 454 398 453
f 453 398 397
f 453 441 454
f 454 441 455
f 441 439 455
f 455 439 456
f 454 455 414
f 414 455 457
f 441 453 442
f 442 453 411
f 458 413 457
f 457 413 414
f 458 415 413
f 413 415 412
f 458 459 415
f 415 459 449
f 459 458 460
f 460 458 457
f 461 459 462
f 462 459 460
f 455 456 457
f 457 456 460
f 456 463 460
f 460 463 462
f 459 461 449
f 449 461 450
f 465 450 464
f 464 450 461
f 464 467 466
f 466 467 468
f 464 461 467
f 467 461 462
f 464 466 465
f 465 466 445
f 465 445 451
f 451 445 444
f 451 448 465
f 465 448 450
f 439 440 456
f 456 440 463
f 468 463 443
f 443 463 440
f 468 467 463
f 463 467 462
f 466 468 438
f 438 468 443
f 438 435 466
f 466 435 445
f 420 427 429
f 429 427 446
f 446 427 452
f 452 427 426
f 370 369 188
f 188 369 186
f 371 376 372
f 372 376 375
f 380 379 387
f 387 379 388
f 379 381 388
f 388 381 386
f 385 384 278
f 278 384 270
f 380 387 371
f 371 387 376
f 400 370 271
f 271 370 188
f 385 278 372
f 372 278 247
f 400 384 389
f 389 384 383
f 369 381 186
f 186 381 263
f 221 271 144
f 144 271 188
f 221 19 207
f 207 19 22
f 19 18 22
f 22 18 23
f 18 219 23
f 23 219 208
f 469 470 472
f 472 470 471
f 474 475 473
f 473 475 476
f 473 476 477
f 477 476 478
f 480 481 479
f 479 481 482
f 483 484 474
f 474 484 475
f 486 487 485
f 485 487 488
f 489 490 77
f 77 490 142
f 491 489 248
f 248 489 77
f 493 494 492
f 492 494 495
f 496 480 484
f 484 480 475
f 486 497 487
f 487 497 471
f 498 496 472
f 472 496 484
f 499 493 478
f 478 493 500
f 501 502 504
f 504 502 503
f 493 492 500
f 500 492 505
f 506 477 500
f 500 477 478
f 499 478 479
f 479 478 476
f 469 507 470
f 470 507 508
f 483 509 469
f 469 509 507
f 479 482 499
f 499 482 510
f 492 495 485
f 485 495 511
f 483 469 484
f 484 469 472
f 473 512 474
f 474 512 513
f 497 498 471
f 471 498 472
f 475 480 476
f 476 480 479
f 470 508 514
f 514 508 515
f 506 502 516
f 516 502 501
f 503 502 488
f 488 502 505
f 514 515 503
f 503 515 504
f 485 488 492
f 492 488 505
f 477 506 517
f 517 506 516
f 474 513 483
f 483 513 509
f 510 292 494
f 494 292 164
f 512 473 517
f 517 473 477
f 491 481 496
f 496 481 480
f 502 506 505
f 505 506 500
f 503 488 514
f 514 488 487
f 514 487 470
f 470 487 471
f 517 516 519
f 519 516 518
f 517 519 512
f 512 519 520
f 512 520 513
f 513 520 521
f 513 521 509
f 509 521 522
f 516 501 518
f 518 501 523
f 501 504 523
f 523 504 524
f 524 504 525
f 525 504 515
f 526 527 523
f 523 527 518
f 529 530 528
f 528 530 531
f 532 533 529
f 529 533 530
f 530 533 535
f 535 533 534
f 536 537 535
f 535 537 538
f 534 539 535
f 535 539 536
f 538 531 535
f 535 531 530
f 540 541 531
f 531 541 528
f 533 532 534
f 534 532 542
f 532 520 542
f 542 520 519
f 532 543 520
f 520 543 521
f 529 544 532
f 532 544 543
f 544 529 545
f 545 529 528
f 534 542 539
f 539 542 527
f 527 542 518
f 518 542 519
f 541 546 528
f 528 546 545
f 547 544 548
f 548 544 545
f 546 549 545
f 545 549 548
f 550 547 551
f 551 547 548
f 547 550 553
f 553 550 552
f 549 554 548
f 548 554 551
f 544 547 543
f 543 547 553
f 543 553 521
f 521 553 522
f 546 541 556
f 556 541 555
f 541 540 555
f 555 540 557
f 536 539 558
f 558 539 527
f 537 536 559
f 559 536 558
f 527 526 558
f 558 526 560
f 559 558 561
f 561 558 560
f 559 562 537
f 537 562 563
f 557 563 555
f 555 563 562
f 509 522 507
f 507 522 564
f 508 565 515
f 515 565 525
f 565 508 564
f 564 508 507
f 564 552 565
f 565 552 566
f 552 550 566
f 566 550 567
f 565 566 525
f 525 566 568
f 564 522 552
f 552 522 553
f 569 524 568
f 568 524 525
f 569 526 524
f 524 526 523
f 570 560 569
f 569 560 526
f 570 569 571
f 571 569 568
f 572 570 573
f 573 570 571
f 566 567 568
f 568 567 571
f 567 574 571
f 571 574 573
f 570 572 560
f 560 572 561
f 576 561 575
f 575 561 572
f 575 578 577
f 577 578 579
f 575 572 578
f 578 572 573
f 575 577 576
f 576 577 556
f 576 556 562
f 562 556 555
f 562 559 576
f 576 559 561
f 550 551 567
f 567 551 574
f 579 574 554
f 554 574 551
f 579 578 574
f 574 578 573
f 579 554 577
f 577 554 549
f 549 546 577
f 577 546 556
f 531 538 540
f 540 538 557
f 557 538 563
f 563 538 537
f 481 294 482
f 482 294 293
f 580 486 511
f 511 486 485
f 490 489 497
f 497 489 498
f 489 491 498
f 498 491 496
f 163 495 164
f 164 495 494
f 580 490 486
f 486 490 497
f 482 293 510
f 510 293 292
f 495 163 511
f 511 163 199
f 494 493 510
f 510 493 499
f 481 491 294
f 294 491 248
f 582 583 581
f 581 583 584
f 586 587 585
f 585 587 588
f 585 588 589
f 589 588 590
f 592 593 591
f 591 593 594
f 595 596 598
f 598 596 597
f 599 600 586
f 586 600 587
f 601 602 604
f 604 602 603
f 605 606 608
f 608 606 607
f 609 607 200
f 200 607 606
f 610 611 613
f 613 611 612
f 600 614 587
f 587 614 592
f 596 605 597
f 597 605 608
f 602 615 603
f 603 615 583
f 616 614 584
f 584 614 600
f 611 618 617
f 617 618 590
f 620 621 619
f 619 621 622
f 610 623 611
f 611 623 618
f 624 589 618
f 618 589 590
f 617 590 591
f 591 590 588
f 581 625 582
f 582 625 626
f 599 627 581
f 581 627 625
f 591 594 617
f 617 594 628
f 601 610 598
f 598 610 613
f 581 584 599
f 599 584 600
f 585 629 586
f 586 629 630
f 615 616 583
f 583 616 584
f 587 592 588
f 588 592 591
f 582 626 631
f 631 626 632
f 624 620 633
f 633 620 619
f 621 620 604
f 604 620 623
f 631 632 621
f 621 632 622
f 610 601 623
f 623 601 604
f 589 624 634
f 634 624 633
f 586 630 599
f 599 630 627
f 203 202 628
f 628 202 612
f 629 585 634
f 634 585 589
f 609 593 614
f 614 593 592
f 620 624 623
f 623 624 618
f 631 621 603
f 603 621 604
f 582 631 583
f 583 631 603
f 634 633 636
f 636 633 635
f 634 636 629
f 629 636 637
f 629 637 630
f 630 637 638
f 630 638 627
f 627 638 639
f 633 619 635
f 635 619 640
f 619 622 640
f 640 622 641
f 641 622 642
f 642 622 632
f 644 635 643
f 643 635 640
f 645 646 648
f 648 646 647
f 649 650 646
f 646 650 647
f 647 650 652
f 652 650 651
f 652 653 655
f 655 653 654
f 651 656 652
f 652 656 653
f 655 648 652
f 652 648 647
f 648 657 645
f 645 657 658
f 650 649 651
f 651 649 659
f 649 637 659
f 659 637 636
f 649 660 637
f 637 660 638
f 661 660 646
f 646 660 649
f 662 661 645
f 645 661 646
f 651 659 656
f 656 659 644
f 644 659 635
f 635 659 636
f 663 662 658
f 658 662 645
f 664 661 665
f 665 661 662
f 663 666 662
f 662 666 665
f 667 664 668
f 668 664 665
f 664 667 670
f 670 667 669
f 666 671 665
f 665 671 668
f 661 664 660
f 660 664 670
f 660 670 638
f 638 670 639
f 658 672 663
f 663 672 673
f 658 657 672
f 672 657 674
f 653 656 675
f 675 656 644
f 653 675 654
f 654 675 676
f 675 644 677
f 677 644 643
f 676 675 678
f 678 675 677
f 679 680 676
f 676 680 654
f 674 680 672
f 672 680 679
f 627 639 625
f 625 639 681
f 626 682 632
f 632 682 642
f 681 682 625
f 625 682 626
f 669 683 681
f 681 683 682
f 667 684 669
f 669 684 683
f 682 683 642
f 642 683 685
f 681 639 669
f 669 639 670
f 686 641 685
f 685 641 642
f 641 686 640
f 640 686 643
f 686 687 643
f 643 687 677
f 687 686 688
f 688 686 685
f 689 687 690
f 690 687 688
f 683 684 685
f 685 684 688
f 684 691 688
f 688 691 690
f 687 689 677
f 677 689 678
f 693 678 692
f 692 678 689
f 692 695 694
f 694 695 696
f 692 689 695
f 695 689 690
f 692 694 693
f 693 694 673
f 693 673 679
f 679 673 672
f 679 676 693
f 693 676 678
f 684 667 691
f 691 667 668
f 696 691 671
f 671 691 668
f 696 695 691
f 691 695 690
f 694 696 666
f 666 696 671
f 666 663 694
f 694 663 673
f 648 655 657
f 657 655 674
f 674 655 680
f 680 655 654
f 593 162 594
f 594 162 290
f 598 597 601
f 601 597 602
f 615 608 616
f 616 608 607
f 607 609 616
f 616 609 614
f 697 595 613
f 613 595 598
f 597 608 602
f 602 608 615
f 594 290 628
f 628 290 203
f 628 612 617
f 617 612 611
f 593 609 162
f 162 609 200
f 105 29 698
f 698 29 699
f 268 126 701
f 701 126 700
f 126 125 700
f 700 125 702
f 252 703 250
f 250 703 704
f 32 268 705
f 705 268 701
f 288 105 706
f 706 105 698
f 29 32 699
f 699 32 705
f 707 251 706
f 706 251 288
f 250 704 125
f 125 704 702
f 703 252 707
f 707 252 251
f 706 708 707
f 707 708 709
f 707 709 703
f 703 709 710
f 703 710 704
f 704 710 711
f 704 711 702
f 702 711 712
f 706 698 708
f 708 698 713
f 698 699 713
f 713 699 714
f 699 705 714
f 714 705 715
f 717 708 716
f 716 708 713
f 719 720 718
f 718 720 721
f 722 723 719
f 719 723 720
f 724 725 723
f 723 725 720
f 724 726 725
f 725 726 727
f 728 721 725
f 725 721 720
f 721 728 729
f 729 728 730
f 729 731 721
f 721 731 718
f 724 723 732
f 732 723 722
f 722 710 732
f 732 710 709
f 722 733 710
f 710 733 711
f 719 734 722
f 722 734 733
f 734 719 735
f 735 719 718
f 724 732 726
f 726 732 717
f 717 732 708
f 708 732 709
f 731 736 718
f 718 736 735
f 737 734 738
f 738 734 735
f 736 739 735
f 735 739 738
f 740 737 741
f 741 737 738
f 737 740 743
f 743 740 742
f 739 744 738
f 738 744 741
f 734 737 733
f 733 737 743
f 733 743 711
f 711 743 712
f 736 731 746
f 746 731 745
f 731 729 745
f 745 729 730
f 727 726 747
f 747 726 717
f 748 727 749
f 749 727 747
f 747 717 750
f 750 717 716
f 749 747 751
f 751 747 750
f 749 752 748
f 748 752 753
f 730 753 745
f 745 753 752
f 728 725 748
f 748 725 727
f 730 728 753
f 753 728 748
f 700 702 754
f 754 702 712
f 705 701 715
f 715 701 755
f 754 755 700
f 700 755 701
f 742 756 754
f 754 756 755
f 740 757 742
f 742 757 756
f 755 756 715
f 715 756 758
f 754 712 742
f 742 712 743
f 759 714 758
f 758 714 715
f 714 759 713
f 713 759 716
f 759 760 716
f 716 760 750
f 760 759 761
f 761 759 758
f 762 760 763
f 763 760 761
f 756 757 758
f 758 757 761
f 757 764 761
f 761 764 763
f 760 762 750
f 750 762 751
f 766 751 765
f 765 751 762
f 767 765 769
f 769 765 768
f 765 762 768
f 768 762 763
f 765 767 766
f 766 767 746
f 766 746 752
f 752 746 745
f 752 749 766
f 766 749 751
f 757 740 764
f 764 740 741
f 769 764 744
f 744 764 741
f 769 768 764
f 764 768 763
f 767 769 739
f 739 769 744
f 739 736 767
f 767 736 746
f 219 217 208
f 208 217 209
f 209 217 210
f 210 217 193
f 198 580 199
f 199 580 511
f 76 75 289
f 289 75 272
f 277 207 291
f 291 207 184
f 290 183 203
f 203 183 84
f 490 580 142
f 142 580 198
f 142 198 143
f 143 198 197
f 149 276 72
f 72 276 73
f 104 103 279
f 279 103 770
f 770 596 279
f 279 596 595
f 605 596 771
f 771 596 770
f 771 770 772
f 772 770 103
f 772 103 773
f 773 103 102
f 155 774 101
f 101 774 102
f 773 102 97
f 97 102 774
f 775 773 100
f 100 773 97
f 773 775 772
f 772 775 776
f 772 776 771
f 771 776 777
f 200 606 197
f 197 606 777
f 189 71 778
f 778 71 74
f 97 774 98
f 98 774 155
f 183 161 184
f 184 161 291
f 777 276 197
f 197 276 143
f 777 606 771
f 771 606 605
f 613 612 697
f 697 612 202
f 595 697 279
f 279 697 202
f 73 276 776
f 776 276 777
f 776 775 73
f 73 775 74
f 100 778 775
f 775 778 74
f 778 100 189
f 189 100 99
f 245 242 99
f 99 242 189
f 131 33 256
f 28 1 95
f 95 1 62
f 27 2 28
f 28 2 1
f 265 115 266
f 266 115 114
f 95 62 69
f 69 62 64
f 62 61 64
f 64 61 65
f 61 13 65
f 65 13 130
f 13 12 130
f 130 12 14
f 31 11 32
f 32 11 268
f 15 12 31
f 31 12 11
f 31 30 15
f 15 30 231
f 30 106 231
f 231 106 232
f 287 237 106
f 106 237 232
f 254 90 287
f 287 90 237
f 253 44 254
f 254 44 90
f 253 249 44
f 44 249 7
f 267 127 268
f 268 127 126
f 10 3 241
f 241 3 116
f 3 2 116
f 116 2 114
f 2 27 114
f 114 27 266
f 27 26 266
f 266 26 113
f 26 286 113
f 113 286 110
f 286 243 110
f 110 243 255
f 243 242 255
f 255 242 256
f 242 245 256
f 256 245 131
f 245 244 131
f 131 244 132
f 265 37 115
f 115 37 41
f 41 37 42
f 42 37 40
f 92 91 40
f 40 91 42
f 236 233 92
f 92 233 91
f 191 194 236
f 236 194 233
f 258 285 244
f 244 285 132
f 257 55 258
f 258 55 285
f 257 154 201
f 201 154 185
f 56 201 204
f 204 201 180
f 55 257 56
f 56 257 201
f 204 85 56
f 56 85 52
f 86 122 53
f 53 122 79
f 212 215 86
f 86 215 122
f 211 216 212
f 212 216 215
f 192 280 211
f 211 280 216
f 191 240 192
f 192 240 280
f 249 124 7
f 7 124 8
f 124 127 8
f 8 127 241
f 127 267 241
f 241 267 10
f 10 267 9
f 9 267 11
