v -0.009196583181619644 0.0589127242565155 0.8682001829147339
v 0.0035223104059696198 0.05487437546253204 0.8675501942634583
v -0.003203105181455612 0.05000237375497818 0.8727198839187622
v -0.014288436621427536 0.054799437522888184 0.8738458156585693
v 0.013727512210607529 0.04641798138618469 0.8852773904800415
v 0.01700330153107643 0.05162270739674568 0.8953840732574463
v 0.0006004646420478821 0.048421576619148254 0.8960965275764465
v 0.0015539787709712982 0.04389629513025284 0.886667013168335
v -0.019200842827558517 0.054372433573007584 0.8774244785308838
v -0.009846176952123642 0.04782295972108841 0.8759925961494446
v -0.02099825069308281 0.059321485459804535 0.8777047991752625
v -0.029242437332868576 0.06865893304347992 0.8829693794250488
v -0.028232423588633537 0.06220005452632904 0.8813620209693909
v -0.03654808551073074 0.07301480323076248 0.8841772675514221
v -0.02365802973508835 0.07831531018018723 0.8838127851486206
v -0.034500330686569214 0.08142176270484924 0.880541205406189
v -0.015133950859308243 0.09310764819383621 0.8654470443725586
v -0.011612020432949066 0.09402800351381302 0.8532384037971497
v -0.027119964361190796 0.09191723167896271 0.8519364595413208
v -0.02916274033486843 0.09050635248422623 0.8645821809768677
v -0.01690998300909996 0.08872402459383011 0.8347001671791077
v -0.02351021021604538 0.09059007465839386 0.8440207839012146
v -0.007803972810506821 0.09376034885644913 0.8453428149223328
v -0.0026384033262729645 0.09164699167013168 0.8368987441062927
v -0.001975223422050476 0.06363517045974731 0.8567067980766296
v 0.009532410651445389 0.061883047223091125 0.8557800054550171
v 0.00809745118021965 0.06023797020316124 0.8601369261741638
v -0.003616131842136383 0.06252088397741318 0.8611522912979126
v -0.02369328960776329 0.0604875423014164 0.8823294639587402
v -0.016959313303232193 0.07002316415309906 0.8877872228622437
v -0.020764552056789398 0.06666848808526993 0.8824012875556946
v -0.022838015109300613 0.05662233754992485 0.8785529732704163
v 0.03491141274571419 0.05551974102854729 0.8476862907409668
v 0.04675298556685448 0.06135498359799385 0.8499631881713867
v 0.04611298069357872 0.06186689808964729 0.8558947443962097
v 0.03554851934313774 0.05678001791238785 0.8526114225387573
v 0.03787333890795708 0.05822838842868805 0.8809368014335632
v 0.045192230492830276 0.0643535628914833 0.8752018809318542
v 0.04900844767689705 0.07338161021471024 0.8841028809547424
v 0.03977929428219795 0.07087244093418121 0.8888070583343506
v 0.028107505291700363 0.053404152393341064 0.8897524476051331
v 0.029794272035360336 0.06448150426149368 0.8957264423370361
v 0.015272464603185654 0.061729978770017624 0.9011532664299011
v -0.002812255173921585 0.05569847673177719 0.9012105464935303
v 0.04820752516388893 0.06329043954610825 0.8374080061912537
v 0.03987366333603859 0.05877680331468582 0.8339325785636902
v -0.0828574001789093 0.09656252712011337 0.8722796440124512
v -0.08200100809335709 0.09680377691984177 0.8665456175804138
v -0.07956357300281525 0.08988252282142639 0.8687659502029419
v -0.08036226034164429 0.09136761724948883 0.874002993106842
v 0.041540008038282394 0.07749734073877335 0.8249509334564209
v 0.04010293260216713 0.08741972595453262 0.825829803943634
v 0.047257643193006516 0.08634241670370102 0.8256105184555054
v 0.04881325736641884 0.07715999335050583 0.8266639113426208
v 0.03188338503241539 0.07779259979724884 0.8228227496147156
v 0.030088599771261215 0.08825232833623886 0.8266685605049133
v -0.07377150654792786 0.10282847285270691 0.8773793578147888
v -0.07826267182826996 0.10060387849807739 0.8781033754348755
v -0.07469826191663742 0.09667277336120605 0.8791943192481995
v -0.0697837546467781 0.09848243743181229 0.8772456645965576
v -0.024888549000024796 0.05936455726623535 0.8772110939025879
v -0.0200035460293293 0.06008122116327286 0.8700026273727417
v -0.04822438955307007 0.06376434862613678 0.8773890733718872
v -0.0348714143037796 0.062017835676670074 0.8732108473777771
v -0.03530466556549072 0.06247055158019066 0.8801863193511963
v -0.04571470618247986 0.0656156837940216 0.883014976978302
v -0.02456728368997574 0.06443113833665848 0.8518022298812866
v -0.01283123716711998 0.06475821137428284 0.8530560731887817
v -0.015758220106363297 0.0645090639591217 0.8587250113487244
v -0.029015028849244118 0.06350238621234894 0.8591764569282532
v -0.00848177820444107 0.062001027166843414 0.8399232625961304
v -0.02039620652794838 0.06231185421347618 0.839745819568634
v -0.01660211756825447 0.060615796595811844 0.8323491215705872
v -0.008716825395822525 0.05982668697834015 0.8337891101837158
v -0.043531179428100586 0.06371205300092697 0.842456579208374
v -0.05220113694667816 0.06721319258213043 0.842140793800354
v -0.051583100110292435 0.06935817003250122 0.837207555770874
v -0.04193366318941116 0.06454867124557495 0.8384469747543335
v 0.05429404601454735 0.08635874092578888 0.8258581161499023
v 0.05557061359286308 0.07723214477300644 0.8291974663734436
v -0.00792897492647171 0.08180844783782959 0.8168768882751465
v -0.0017111487686634064 0.07427331805229187 0.8120984435081482
v -0.01376410573720932 0.07125570625066757 0.8082390427589417
v -0.01666918769478798 0.08010904490947723 0.8143420219421387
v 0.03696069493889809 0.09502590447664261 0.8321084976196289
v 0.044432271271944046 0.09500101953744888 0.8298192024230957
v -0.06961628049612045 0.10461609065532684 0.8731234669685364
v -0.06656229496002197 0.10003282874822617 0.8723402619361877
v 0.014976311475038528 0.07343729585409164 0.899091362953186
v -0.004977673292160034 0.06483733654022217 0.9006438851356506
v 0.029926221817731857 0.07832954823970795 0.8937245607376099
v 0.03933640941977501 0.0824631005525589 0.8882903456687927
v 0.04792974516749382 0.08488236367702484 0.8860911726951599
v -0.03896667808294296 0.06177525967359543 0.8674643039703369
v -0.013785101473331451 0.06253866851329803 0.8638143539428711
v -0.0004391409456729889 0.06352846324443817 0.8522160649299622
v 0.004442725330591202 0.05576510727405548 0.8230943083763123
v 0.014890987426042557 0.05545257031917572 0.8247683048248291
v 0.009178269654512405 0.05526277422904968 0.8337141275405884
v 0.0011890418827533722 0.05624055117368698 0.8303301930427551
v -0.0010000765323638916 0.06454738974571228 0.8111876845359802
v -0.0037399418652057648 0.0586150661110878 0.8155577778816223
v -0.012867625802755356 0.05836096405982971 0.8139918446540833
v -0.011600818485021591 0.06316971033811569 0.8091259002685547
v -0.024570971727371216 0.06178539991378784 0.889120876789093
v -0.012940667569637299 0.07233858853578568 0.8926612138748169
v 0.04228812828660011 0.06741564720869064 0.8277280926704407
v 0.0489351712167263 0.06830953061580658 0.831536054611206
v 0.056565869599580765 0.07102712243795395 0.8337513208389282
v 0.022682074457406998 0.05777788534760475 0.8534567356109619
v 0.03610930219292641 0.057439759373664856 0.8563252687454224
v 0.03537164255976677 0.0567113496363163 0.8615814447402954
v 0.022591207176446915 0.05805397406220436 0.8566127419471741
v 0.015795934945344925 0.04991087689995766 0.8711721897125244
v 0.026149887591600418 0.049767084419727325 0.8775994777679443
v 0.006120849400758743 0.04525201395153999 0.875835120677948
v 0.04694370552897453 0.06284474581480026 0.8644394278526306
v 0.055815573781728745 0.0640178993344307 0.8577646017074585
v 0.055317651480436325 0.06572641432285309 0.866611897945404
v 0.05675384774804115 0.06476056575775146 0.8480492234230042
v 0.057056549936532974 0.06693112105131149 0.8394266963005066
v 0.052242133766412735 0.09785354882478714 0.8282259106636047
v 0.053730327636003494 0.06882113218307495 0.8743956089019775
v -0.006893612444400787 0.0427885577082634 0.8859590888023376
v -0.014720741659402847 0.041068341583013535 0.8841599822044373
v -0.015917975455522537 0.04444817453622818 0.8771055936813354
v -0.008982304483652115 0.045212049037218094 0.8778565526008606
v -0.045126330107450485 0.07838920503854752 0.8843101859092712
v -0.04652152955532074 0.07110833376646042 0.8855226635932922
v -0.03515857830643654 0.06622335314750671 0.8848516941070557
v 0.025305163115262985 0.054440442472696304 0.8412914276123047
v 0.030053790658712387 0.05695449188351631 0.8299591541290283
v -0.05167534574866295 0.06520669162273407 0.871421754360199
v -0.06501247733831406 0.09877702593803406 0.8767163157463074
v -0.06901263445615768 0.09566472470760345 0.8798791170120239
v -0.05589043349027634 0.08843214809894562 0.8822016716003418
v -0.05332072079181671 0.09272841364145279 0.8782138228416443
v -0.05831315368413925 0.0751051977276802 0.8656665682792664
v -0.05714656785130501 0.07081872969865799 0.870719313621521
v -0.0596945658326149 0.07502399384975433 0.8696074485778809
v -0.06058871001005173 0.07871931791305542 0.864553689956665
v -0.046084512025117874 0.06727997213602066 0.8299921154975891
v -0.0376516617834568 0.06315535306930542 0.8311856985092163
v -0.04381113499403 0.08545394986867905 0.8631497025489807
v -0.04009360820055008 0.08693981915712357 0.8744887113571167
v -0.030833650380373 0.0881546288728714 0.8734245896339417
v -0.021406814455986023 0.06366658955812454 0.8450915813446045
v -0.03225565701723099 0.06308513134717941 0.8431372046470642
v -0.031035613268613815 0.06286220997571945 0.8391262888908386
v -0.04252447187900543 0.06282596290111542 0.8639475703239441
v -0.05240968242287636 0.06612766534090042 0.8653926253318787
v -0.048161350190639496 0.06512866169214249 0.8604974746704102
v -0.03875396028161049 0.06365237385034561 0.8589684367179871
v 0.010659802705049515 0.07676690816879272 0.815307080745697
v 0.01160525158047676 0.06531187146902084 0.8137840628623962
v -0.08151152729988098 0.09811240434646606 0.8764188885688782
v -0.07826506346464157 0.09360596537590027 0.8779048919677734
v -0.009982068091630936 0.06400144100189209 0.8464653491973877
v -0.017976533621549606 0.08913220465183258 0.87370765209198
v 0.0013570226728916168 0.06276087462902069 0.8471841216087341
v -0.03146129474043846 0.07966858893632889 0.8241879343986511
v -0.032966747879981995 0.0743122547864914 0.8202711939811707
v -0.03842547535896301 0.07538949698209763 0.8220546245574951
v -0.03698253259062767 0.08068537712097168 0.8239881992340088
v -0.07008056342601776 0.08931852877140045 0.8607364892959595
v -0.07382196187973022 0.08701441437005997 0.864595353603363
v -0.07737880200147629 0.09042341262102127 0.8628719449043274
v -0.07320728152990341 0.09263116121292114 0.8598591089248657
v -0.05620420351624489 0.07057270407676697 0.8765241503715515
v -0.054027900099754333 0.07192011922597885 0.8824877738952637
v -0.05997278541326523 0.0774269551038742 0.8801153302192688
v -0.06046530231833458 0.07575780898332596 0.8746320009231567
v -0.05314691737294197 0.07815002650022507 0.8845384120941162
v -0.0581466369330883 0.08268953859806061 0.882881224155426
v -0.0650830864906311 0.0936545729637146 0.8610588312149048
v -0.06103096902370453 0.09823185950517654 0.8658531904220581
v -0.052941303700208664 0.09164716303348541 0.8656684160232544
v -0.058302029967308044 0.08609114587306976 0.8632526993751526
v 0.01153605803847313 0.09490714967250824 0.8393635153770447
v 0.01526576653122902 0.09105705469846725 0.829748272895813
v 0.0011743269860744476 0.08780829608440399 0.8269641399383545
v -0.01219894364476204 0.08515717834234238 0.823793351650238
v -0.024435710161924362 0.08120103925466537 0.8219994902610779
v -0.02805611677467823 0.08642500638961792 0.8324907422065735
v 0.005119524896144867 0.08469489216804504 0.8207369446754456
v -0.05498186871409416 0.08069664239883423 0.8609212636947632
v -0.04844283312559128 0.0850929245352745 0.8667380809783936
v -0.049956969916820526 0.08391101658344269 0.861869215965271
v 0.0029349960386753082 0.060038160532712936 0.8404865264892578
v -0.07200157642364502 0.0923093855381012 0.8798075914382935
v 0.03720320388674736 0.09886821359395981 0.874276876449585
v 0.03752461448311806 0.1026519238948822 0.8617300391197205
v 0.029108013957738876 0.10066576302051544 0.8633498549461365
v 0.02837144210934639 0.09594053775072098 0.8769086003303528
v -0.07541806250810623 0.0861843153834343 0.8712660670280457
v -0.07504113018512726 0.08830183744430542 0.8767790198326111
v -0.03623727709054947 0.06277566403150558 0.8250141143798828
v -0.04304870218038559 0.06737414002418518 0.8250115513801575
v -0.04257965832948685 0.06988441944122314 0.8221301436424255
v -0.036910876631736755 0.06410066783428192 0.820154070854187
v 0.01848570629954338 0.08852224051952362 0.8255773186683655
v -0.022139571607112885 0.06753058731555939 0.8065980076789856
v -0.023139365017414093 0.07645002007484436 0.8108372092247009
v 0.027583453804254532 0.09395261108875275 0.8325852751731873
v 0.024410676211118698 0.0979083925485611 0.840840220451355
v 0.03386370465159416 0.09991293400526047 0.8413252830505371
v -0.03932010382413864 0.08624639362096786 0.8433166742324829
v 0.006893273442983627 0.09643568843603134 0.846450686454773
v 0.020969387143850327 0.09885936230421066 0.8475620746612549
v 0.032136376947164536 0.10126379132270813 0.8484550714492798
v 0.04014391079545021 0.10349679738283157 0.8483562469482422
v 0.04127122089266777 0.10157383233308792 0.8405614495277405
v -0.06219697743654251 0.09913770854473114 0.8711180090904236
v -0.06499513983726501 0.0996636301279068 0.8664646744728088
v 0.04955175891518593 0.10494831949472427 0.8391281366348267
v 0.04805276170372963 0.10633988678455353 0.8481318354606628
v 0.01782720908522606 0.09908492863178253 0.8562037348747253
v 0.01432863250374794 0.09811446070671082 0.8662832379341125
v 0.004348199814558029 0.09658209979534149 0.8546789288520813
v -0.00019554048776626587 0.09547127783298492 0.8646371960639954
v -0.037630222737789154 0.08998556435108185 0.8529274463653564
v -0.07429420202970505 0.1145031675696373 0.862545907497406
v -0.06962591409683228 0.10368643701076508 0.8621405959129333
v -0.07402786612510681 0.10074785351753235 0.8595611453056335
v -0.07606580853462219 0.11177580803632736 0.8593093156814575
v -0.06845973432064056 0.09608194977045059 0.8612642884254456
v -0.06749264895915985 0.10494739562273026 0.8672419786453247
v -0.003318898379802704 0.09041723608970642 0.8757501840591431
v -0.05767523869872093 0.07119280844926834 0.8601337671279907
v 0.01215340569615364 0.09094605594873428 0.8799019455909729
v -0.011934701353311539 0.08270595967769623 0.8856974840164185
v -0.000977788120508194 0.08164884895086288 0.8892504572868347
v 0.02783316746354103 0.08985395729541779 0.8868643045425415
v 0.013322968035936356 0.0832836925983429 0.8930653929710388
v 0.04578668996691704 0.09405507147312164 0.8817195892333984
v 0.03680114075541496 0.09246920049190521 0.8833164572715759
v -0.0015770010650157928 0.0751674473285675 0.8964484930038452
v -0.08710750192403793 0.10507997870445251 0.865781843662262
v -0.08405792713165283 0.1048596054315567 0.8609023690223694
v 0.04527060315012932 0.10118268430233002 0.8733618855476379
v -0.0027774907648563385 0.04434918612241745 0.8776435852050781
v 0.013221193104982376 0.05817187577486038 0.84376060962677
v 0.011699583381414413 0.06032373383641243 0.8485705852508545
v 0.021004226058721542 0.05580936372280121 0.826525092124939
v 0.016282815486192703 0.05497699975967407 0.8371842503547668
v -0.08717794716358185 0.10682139545679092 0.8707587122917175
v -0.053511880338191986 0.07279085367918015 0.8406823873519897
v -0.05231866240501404 0.07445941120386124 0.8385704755783081
v -0.008217208087444305 0.04472292959690094 0.8944262862205505
v -0.015290532261133194 0.04200384020805359 0.8918009400367737
v -0.023162707686424255 0.05160505697131157 0.896178662776947
v -0.019484128803014755 0.04546389356255531 0.8963189721107483
v -0.011977795511484146 0.0505632609128952 0.8992383480072021
v -0.015293162316083908 0.057516589760780334 0.8988707661628723
v 0.022501345723867416 0.05717965215444565 0.8508086800575256
v 0.0227389894425869 0.05626266449689865 0.8469774127006531
v 0.022024881094694138 0.07712646573781967 0.8190116286277771
v 0.02222081646323204 0.06570187956094742 0.8177914023399353
v -0.05069194734096527 0.08346805721521378 0.8831350207328796
v -0.042973168194293976 0.0842013731598854 0.8807395100593567
v -0.047985225915908813 0.08815591037273407 0.8789140582084656
v -0.050826605409383774 0.09336672723293304 0.8721347451210022
v -0.05898086354136467 0.07758224010467529 0.8593658804893494
v -0.05509510636329651 0.08062709867954254 0.8643408417701721
v 0.031204942613840103 0.0532941073179245 0.8683425784111023
v 0.0207136832177639 0.05538740009069443 0.8628842234611511
v -0.014017656445503235 0.04920756071805954 0.8761534690856934
v -0.019343387335538864 0.050237394869327545 0.8750444054603577
v -0.03417983278632164 0.06366274505853653 0.8521491885185242
v -0.04524818807840347 0.08459488302469254 0.8449947237968445
v -0.04407237470149994 0.08909054845571518 0.8527939319610596
v -0.044794630259275436 0.06456823647022247 0.852063775062561
v -0.0821748822927475 0.11295798420906067 0.8735982775688171
v -0.08580315858125687 0.10941661894321442 0.8729197978973389
v -0.04659455642104149 0.08903966844081879 0.873244047164917
v -0.02777993120253086 0.060578156262636185 0.8317317962646484
v -0.04221101850271225 0.0823509618639946 0.8403894901275635
v -0.048570603132247925 0.07867580652236938 0.8414992094039917
v -0.018203120678663254 0.061260394752025604 0.8086228370666504
v 0.0461595393717289 0.10467471182346344 0.8613141775131226
v -0.07897989451885223 0.09855064749717712 0.8610764741897583
v -0.08015128970146179 0.10651412606239319 0.8579986095428467
v -0.07356308400630951 0.11577919125556946 0.8665493130683899
v -0.07603499293327332 0.11498904228210449 0.8716570138931274
v 0.031554605811834335 0.06572376191616058 0.8231456875801086
v 0.01041010394692421 0.06149812787771225 0.8516470789909363
v -0.014409687370061874 0.06735662370920181 0.8958359956741333
v -0.024709995836019516 0.05826249718666077 0.8929938077926636
v -0.05368075519800186 0.0671611800789833 0.851667046546936
v -0.027752146124839783 0.07710305601358414 0.8171688318252563
v -0.03491790592670441 0.08537927269935608 0.8312023282051086
v -0.038896553218364716 0.08659567683935165 0.8300119638442993
v -0.04447398707270622 0.08656556159257889 0.8344330191612244
v -0.05101213604211807 0.08275773376226425 0.8358237743377686
v -0.0763067677617073 0.11941534280776978 0.8637132048606873
v -0.07996442168951035 0.11998544633388519 0.8683260679244995
v -0.08561632037162781 0.11861136555671692 0.8687264919281006
v -0.08913586288690567 0.11446236073970795 0.8684106469154358
v -0.0896003246307373 0.1098388209939003 0.8669472932815552
v -0.07679209113121033 0.11745929718017578 0.8599642515182495
v -0.07805529236793518 0.11449386179447174 0.857672929763794
v -0.08134787529706955 0.10869739949703217 0.8575254678726196
v -0.07694825530052185 0.11870460957288742 0.8565106987953186
v -0.07792115956544876 0.12297266721725464 0.8581833243370056
v -0.08997108787298203 0.12686601281166077 0.8577611446380615
v -0.08678552508354187 0.12486042082309723 0.8620768785476685
v -0.08602239191532135 0.1262369453907013 0.8601553440093994
v -0.08782286942005157 0.12871715426445007 0.8564829230308533
v -0.08823176473379135 0.13179831206798553 0.8526472449302673
v -0.09111927449703217 0.12992265820503235 0.8534525036811829
v -0.08190497010946274 0.124612957239151 0.8606776595115662
v -0.08355559408664703 0.1281287670135498 0.8556609153747559
v -0.0802256166934967 0.12677942216396332 0.8535377979278564
v -0.08118235319852829 0.13055819272994995 0.8499835729598999
v -0.08427492529153824 0.13210448622703552 0.8517976999282837
v -0.07941502332687378 0.12459531426429749 0.8572110533714294
v -0.0813116580247879 0.12405003607273102 0.8623290657997131
v -0.0898652896285057 0.13192448019981384 0.8497651219367981
v -0.08791480213403702 0.1333663910627365 0.8503725528717041
v -0.0848434790968895 0.1333046555519104 0.849246084690094
v -0.08617207407951355 0.13278627395629883 0.8466535806655884
v -0.08999805152416229 0.1194796934723854 0.8637173175811768
v -0.0914507657289505 0.12499506771564484 0.8572015166282654
v -0.09158694744110107 0.1273631900548935 0.8519235253334045
v -0.0902744010090828 0.12956182658672333 0.8484129905700684
v -0.09154124557971954 0.1223558858036995 0.854343056678772
v -0.09091714024543762 0.12499614804983139 0.8504323363304138
v -0.08956649899482727 0.12661553919315338 0.847124457359314
v -0.09001895785331726 0.11990582942962646 0.8513400554656982
v -0.0894186720252037 0.12304611504077911 0.8484870195388794
v -0.08946113288402557 0.11086684465408325 0.8608905673027039
v -0.09041224420070648 0.11391815543174744 0.8634194731712341
v -0.08912321925163269 0.12464773654937744 0.8464879989624023
v -0.08629028499126434 0.13090592622756958 0.8455842137336731
v -0.07831019908189774 0.12386475503444672 0.852652907371521
v -0.08035491406917572 0.12800167500972748 0.8479518294334412
v -0.0782705768942833 0.12207736074924469 0.8514067530632019
v -0.07992073893547058 0.12605620920658112 0.8465443253517151
v -0.08173976838588715 0.1311492621898651 0.845684289932251
v -0.08237257599830627 0.1320941299200058 0.8480267524719238
v -0.08784721046686172 0.10670512169599533 0.863588273525238
v -0.08431043475866318 0.10645568370819092 0.859581708908081
v -0.08504465967416763 0.10951921343803406 0.8574303984642029
v -0.08650293946266174 0.11816136538982391 0.8489243984222412
v -0.0814151018857956 0.11093415319919586 0.8552368879318237
v -0.07794111222028732 0.11624669283628464 0.8542194366455078
v -0.07928531616926193 0.1206093356013298 0.8494189381599426
v -0.08172044157981873 0.11882008612155914 0.8482553958892822
v -0.08096836507320404 0.12382817268371582 0.8460465669631958
v -0.08309172093868256 0.12235595285892487 0.8460163474082947
v -0.08666938543319702 0.12182724475860596 0.8465559482574463
v -0.08332298696041107 0.1263253092765808 0.8443304896354675
v -0.08213502168655396 0.12906207144260406 0.8447144031524658
v -0.0866679698228836 0.12762583792209625 0.8448933362960815
v -0.08406642824411392 0.12449623644351959 0.8447495102882385
v -0.08677704632282257 0.12505200505256653 0.8455500602722168
v -0.07808875292539597 0.1004645824432373 0.8304872512817383
v -0.07495863735675812 0.09816010296344757 0.8255009055137634
v -0.07451827824115753 0.09073212742805481 0.8302628993988037
v -0.0769590362906456 0.09347464889287949 0.8345202207565308
v -0.06932242959737778 0.10444306582212448 0.8385967016220093
v -0.07486244291067123 0.10380600392818451 0.837611198425293
v -0.07339879870414734 0.10030072182416916 0.8405075073242188
v -0.06734599173069 0.10237037390470505 0.8396748304367065
v -0.06399711966514587 0.1035694032907486 0.8357184529304504
v -0.06248640641570091 0.10134200751781464 0.8364567756652832
v -0.06448675692081451 0.10171355307102203 0.8415607213973999
v -0.07046391069889069 0.09818891435861588 0.8429324626922607
v -0.058608949184417725 0.08574624359607697 0.8549898862838745
v -0.0539863221347332 0.09072192013263702 0.8529768586158752
v -0.058146845549345016 0.07168933004140854 0.8434054851531982
v -0.05646578595042229 0.07463353127241135 0.8412485122680664
v -0.07769890129566193 0.1023348867893219 0.834286093711853
v -0.07644093781709671 0.09709885716438293 0.8382229804992676
v -0.06577499210834503 0.0865817591547966 0.8275519013404846
v -0.07034794241189957 0.0854632779955864 0.8302737474441528
v -0.07133349776268005 0.0899374857544899 0.826343297958374
v -0.06648607552051544 0.09110324084758759 0.8246952891349792
v -0.061481282114982605 0.07687116414308548 0.8536549210548401
v -0.05953650549054146 0.07268738001585007 0.84914231300354
v -0.06090257689356804 0.08125881105661392 0.8544081449508667
v -0.060862358659505844 0.09057160466909409 0.8277085423469543
v -0.057487305253744125 0.09570282697677612 0.8303964734077454
v -0.04807163402438164 0.08718618005514145 0.8409159183502197
v -0.051055748015642166 0.08139508217573166 0.8388089537620544
v -0.07432857155799866 0.09425736963748932 0.8414736390113831
v -0.07362827658653259 0.086742103099823 0.8344553709030151
v -0.07541301846504211 0.08971245586872101 0.8381228446960449
v -0.05961364135146141 0.1002509817481041 0.8366518020629883
v -0.059862714260816574 0.0981132835149765 0.8298171162605286
v -0.060750484466552734 0.11047449707984924 0.8208216428756714
v -0.06186193227767944 0.09855709224939346 0.8251306414604187
v -0.0660112202167511 0.09783405065536499 0.8224919438362122
v -0.06437825411558151 0.10998772084712982 0.8172776103019714
v -0.06215642765164375 0.09388242661952972 0.8260430097579956
v -0.060697007924318314 0.10059525072574615 0.830086886882782
v -0.07564455270767212 0.11495357751846313 0.8223623037338257
v -0.07279711961746216 0.11265252530574799 0.8174992799758911
v -0.07519134879112244 0.11674907058477402 0.8264996409416199
v -0.049391601234674454 0.09144695848226547 0.8469492793083191
v -0.06767197698354721 0.1163209080696106 0.8328452110290527
v -0.07318387925624847 0.11702586710453033 0.8301534652709961
v -0.07075768709182739 0.09755813330411911 0.8223429918289185
v -0.0686815157532692 0.11106549948453903 0.8159347772598267
v -0.05915301665663719 0.11182592064142227 0.8250835537910461
v -0.06189063936471939 0.11351506412029266 0.831562876701355
v -0.060326240956783295 0.1152513176202774 0.8200038075447083
v -0.06096663326025009 0.1188923716545105 0.8253469467163086
v -0.0660305768251419 0.12217114865779877 0.826608419418335
v -0.07159442454576492 0.12294591218233109 0.8250837326049805
v -0.07441066950559616 0.12162145972251892 0.8228157162666321
v -0.06221756711602211 0.11411070823669434 0.8167634010314941
v -0.06600663810968399 0.11405186355113983 0.8140060901641846
v -0.07068417966365814 0.11423490941524506 0.8145095109939575
v -0.06326219439506531 0.11632751673460007 0.8114355206489563
v -0.060629427433013916 0.11823770403862 0.8134671449661255
v -0.06372614204883575 0.13478201627731323 0.8098486661911011
v -0.06406577676534653 0.13160277903079987 0.8145425915718079
v -0.061895594000816345 0.1304752677679062 0.8136272430419922
v -0.061291906982660294 0.1333906650543213 0.8093598484992981
v -0.06297548860311508 0.1277344971895218 0.8190916180610657
v -0.06148212403059006 0.12748947739601135 0.8168097138404846
v -0.06006157398223877 0.12333977967500687 0.8157923221588135
v -0.05988020449876785 0.12684574723243713 0.8113314509391785
v -0.05990585684776306 0.12250779569149017 0.8091546297073364
v -0.05863012373447418 0.12550650537014008 0.8050436973571777
v -0.058301784098148346 0.12999427318572998 0.8070158362388611
v -0.05971037223935127 0.12109075486660004 0.8126662373542786
v -0.060553066432476044 0.13433387875556946 0.806172251701355
v -0.06243174523115158 0.13533054292201996 0.8046378493309021
v -0.060727983713150024 0.12217536568641663 0.818439245223999
v -0.06895291805267334 0.1268034279346466 0.8216814994812012
v -0.06702961772680283 0.13206923007965088 0.8142044544219971
v -0.06655952334403992 0.13479338586330414 0.8084688186645508
v -0.06462040543556213 0.13424307107925415 0.8028373122215271
v -0.07012288272380829 0.13083921372890472 0.8118614554405212
v -0.06858903169631958 0.13317878544330597 0.8066320419311523
v -0.06654557585716248 0.13237407803535461 0.8022636771202087
v -0.07237386703491211 0.12811104953289032 0.8088610172271729
v -0.07009342312812805 0.130151629447937 0.8041273355484009
v -0.07531605660915375 0.12222877144813538 0.8175964951515198
v -0.0732763409614563 0.12507595121860504 0.8202243447303772
v -0.06823570281267166 0.1307087540626526 0.8024236559867859
v -0.05957172438502312 0.13245658576488495 0.801823616027832
v -0.062469758093357086 0.1317068338394165 0.8002006411552429
v -0.05876627191901207 0.13196919858455658 0.803474485874176
v -0.06053844839334488 0.12083330005407333 0.8080106377601624
v -0.05983378365635872 0.12438708543777466 0.8034618496894836
v -0.06231541186571121 0.11959025263786316 0.8064155578613281
v -0.061388447880744934 0.12373979389667511 0.8017553687095642
v -0.059281136840581894 0.12777186930179596 0.8007931113243103
v -0.058373577892780304 0.12858366966247559 0.8020434379577637
v -0.07531404495239258 0.1189451515674591 0.8198255896568298
v -0.07349098473787308 0.11567284166812897 0.8161628842353821
v -0.07470529526472092 0.11828010529279709 0.8144629597663879
v -0.07185983657836914 0.12399260699748993 0.8062353730201721
v -0.07166191935539246 0.11570406705141068 0.8125201463699341
v -0.06654784083366394 0.11559119820594788 0.8106685280799866
v -0.06499932706356049 0.11915574967861176 0.8057631254196167
v -0.06856335699558258 0.1206945925951004 0.8051632642745972
v -0.0632999911904335 0.1229010820388794 0.8009502291679382
v -0.06648234277963638 0.12302226573228836 0.8019397854804993
v -0.06966031342744827 0.12653353810310364 0.8025989532470703
v -0.06279735267162323 0.12664085626602173 0.7989018559455872
v -0.060610294342041016 0.12736406922340393 0.7996446490287781
v -0.06443466991186142 0.13063561916351318 0.8000662326812744
v -0.06547880917787552 0.12577950954437256 0.7998620271682739
v -0.06707057356834412 0.1289576292037964 0.8007005453109741
v -0.07193658500909805 0.09512334316968918 0.8147343993186951
v -0.07038508355617523 0.09156661480665207 0.810623049736023
v -0.07046709954738617 0.08474715799093246 0.8134492039680481
v -0.07221521437168121 0.08886698633432388 0.8178523778915405
v -0.061029694974422455 0.0979449525475502 0.8210095763206482
v -0.06598581373691559 0.09856748580932617 0.8205535411834717
v -0.06662853807210922 0.09453317523002625 0.8230401277542114
v -0.06115305423736572 0.09378738701343536 0.8239544630050659
v -0.05669039487838745 0.09714844822883606 0.817690372467041
v -0.056575626134872437 0.09284447133541107 0.820763111114502
v -0.05843081325292587 0.09428311884403229 0.8263418674468994
v -0.06448938697576523 0.09230553358793259 0.8261006474494934
v -0.05424921587109566 0.08521881699562073 0.8330634832382202
v -0.04890037328004837 0.0897783413529396 0.8319105505943298
v -0.06975315511226654 0.09745560586452484 0.8180383443832397
v -0.07048109918832779 0.09265417605638504 0.8208826184272766
v -0.05913930758833885 0.08091271668672562 0.8115373253822327
v -0.06242408975958824 0.07991202175617218 0.814313530921936
v -0.06654905527830124 0.08393334597349167 0.8095206022262573
v -0.0627780482172966 0.08464638143777847 0.8079747557640076
v -0.055003754794597626 0.07406451553106308 0.832070529460907
v -0.0509164035320282 0.07172644883394241 0.8279261589050293
v -0.056600771844387054 0.0795474499464035 0.8326335549354553
v -0.05494219809770584 0.08454225957393646 0.8118882775306702
v -0.05148955434560776 0.09007545560598373 0.8161392211914062
v -0.04228518158197403 0.08512028306722641 0.8212588429450989
v -0.04413951188325882 0.07922229915857315 0.8200582265853882
v -0.06787104159593582 0.08895385265350342 0.8249685764312744
v -0.065965436398983 0.08058338612318039 0.8181725740432739
v -0.06880737841129303 0.08427321165800095 0.8222604990005493
v -0.05382014438509941 0.0938740000128746 0.8221232891082764
v -0.055369310081005096 0.0897708386182785 0.8147262334823608
v -0.055462710559368134 0.10559418052434921 0.8020598888397217
v -0.05758332833647728 0.08987530320882797 0.8080926537513733
v -0.06240125373005867 0.08952908217906952 0.8062243461608887
v -0.05862116813659668 0.10514330118894577 0.7992702722549438
v -0.05815153196454048 0.0864315778017044 0.8091549873352051
v -0.05485162138938904 0.09319408982992172 0.8127675652503967
v -0.06843038648366928 0.11060766875743866 0.8051484227180481
v -0.06688526272773743 0.10684294998645782 0.8014189004898071
v -0.06713994592428207 0.1113618016242981 0.8089669942855835
v -0.043645232915878296 0.09028679132461548 0.8271584510803223
v -0.046845145523548126 0.07333799451589584 0.8222954273223877
v -0.06069551408290863 0.11238108575344086 0.8116908073425293
v -0.06478263437747955 0.11247410625219345 0.8110518455505371
v -0.0664130300283432 0.08969537913799286 0.807523250579834
v -0.06276506185531616 0.10530316084623337 0.7988478541374207
v -0.05464532971382141 0.10708485543727875 0.8060488104820251
v -0.056267380714416504 0.1097857803106308 0.8104788661003113
v -0.05418740212917328 0.10965506732463837 0.8018026947975159
v -0.05536402389407158 0.11270927637815475 0.8061953783035278
v -0.05793273448944092 0.11591584980487823 0.8075563311576843
v -0.06152798980474472 0.11695994436740875 0.8072587251663208
v -0.06444451212882996 0.11650082468986511 0.8054871559143066
v -0.055733416229486465 0.1089567318558693 0.7979995608329773
v -0.05890650302171707 0.10904571413993835 0.7961183786392212
v -0.0625322014093399 0.10872987657785416 0.7975535988807678
v -0.0554458349943161 0.11077125370502472 0.7943445444107056
v -0.051768992096185684 0.11307328939437866 0.7972067594528198
v -0.050201382488012314 0.128190815448761 0.7959281206130981
v -0.0523955374956131 0.12469577044248581 0.7990999221801758
v -0.051300060003995895 0.12406577914953232 0.7987741827964783
v -0.0486774705350399 0.12755738198757172 0.795709490776062
v -0.053484369069337845 0.11953574419021606 0.8029340505599976
v -0.05169566720724106 0.12013977766036987 0.8014382123947144
v -0.05083734169602394 0.11687558889389038 0.8000602126121521
v -0.048418331891298294 0.12094765901565552 0.7959824800491333
v -0.04978858307003975 0.11700086295604706 0.792148232460022
v -0.048046208918094635 0.12068381160497665 0.7899262309074402
v -0.046230919659137726 0.12434510141611099 0.7933349609375
v -0.05058925598859787 0.11454667150974274 0.7965009212493896
v -0.04741569235920906 0.12843769788742065 0.7932596206665039
v -0.04769842326641083 0.13060463964939117 0.7936429977416992
v -0.05259073153138161 0.11579036712646484 0.8017011880874634
v -0.057499006390571594 0.12096568197011948 0.804720401763916
v -0.05480584502220154 0.1259850710630417 0.7993676662445068
v -0.0530630461871624 0.13025328516960144 0.7959390878677368
v -0.05116986110806465 0.13091537356376648 0.7922621965408325
v -0.05803394690155983 0.12579822540283203 0.7977340221405029
v -0.05569111928343773 0.12928757071495056 0.7943161129951477
v -0.05393676832318306 0.13016828894615173 0.7910231351852417
v -0.060223862528800964 0.12439978122711182 0.7958047389984131
v -0.05756844952702522 0.12742964923381805 0.7924570441246033
v -0.06466023623943329 0.1169201135635376 0.8020281195640564
v -0.06143863499164581 0.11961241066455841 0.8041303753852844
v -0.055496491491794586 0.12875354290008545 0.7903716564178467
v -0.04607584699988365 0.12773418426513672 0.790115237236023
v -0.04960909113287926 0.1282200962305069 0.7878465056419373
v -0.04664183780550957 0.1264496147632599 0.7913062572479248
v -0.0510396771132946 0.11575952917337418 0.791358470916748
v -0.04861816018819809 0.12000078707933426 0.7876759171485901
v -0.05368320271372795 0.1151922419667244 0.7901393175125122
v -0.05122091621160507 0.11961329728364944 0.7862880229949951
v -0.04693256691098213 0.12342513352632523 0.7874850034713745
v -0.04686041921377182 0.12356550246477127 0.788680374622345
v -0.0662790834903717 0.11360712349414825 0.802959680557251
v -0.06562384963035583 0.11062060296535492 0.7995976209640503
v -0.06516624987125397 0.11415069550275803 0.7988095879554749
v -0.06062185764312744 0.12215692549943924 0.7924033403396606
v -0.06298136711120605 0.11145572364330292 0.7962470650672913
v -0.05847366154193878 0.11184217780828476 0.7933054566383362
v -0.05648622289299965 0.11639825999736786 0.7896366119384766
v -0.05883662402629852 0.11897382140159607 0.7901502847671509
v -0.05398442968726158 0.12030871212482452 0.7860326170921326
v -0.05605320632457733 0.12160363793373108 0.7877432107925415
v -0.058211714029312134 0.12533822655677795 0.7894537448883057
v -0.05225292593240738 0.12396668642759323 0.7861378192901611
v -0.04939396306872368 0.12357784807682037 0.7859569787979126
v -0.052690181881189346 0.12808695435523987 0.7874747514724731
v -0.054605063050985336 0.12424661219120026 0.7868303656578064
v -0.055086325854063034 0.1273629069328308 0.7878401875495911
v -0.04826866090297699 0.07120323926210403 0.8245978355407715
v -0.04868585616350174 0.06686299294233322 0.8213112950325012
v -0.04815084487199783 0.062994584441185 0.8224785327911377
v -0.04504764825105667 0.061259642243385315 0.819908618927002
v -0.04448678717017174 0.06507211923599243 0.8191268444061279
v -0.05412004142999649 0.06822290271520615 0.8120844960212708
v -0.05241286754608154 0.06984218209981918 0.8157939910888672
v -0.04897012189030647 0.06931038945913315 0.8127554059028625
v -0.050373390316963196 0.06804387271404266 0.8086573481559753
v -0.055395789444446564 0.0637323409318924 0.8101093173027039
v -0.05167955160140991 0.06388428062200546 0.8064084053039551
v -0.047639843076467514 0.07122229039669037 0.808063268661499
v -0.04650520533323288 0.07124540209770203 0.8128092288970947
v -0.035819441080093384 0.07504105567932129 0.8170136213302612
v -0.03427751362323761 0.07634627819061279 0.8127768039703369
v -0.02494613453745842 0.05996859073638916 0.8092417120933533
v -0.024303443729877472 0.057724881917238235 0.8132164478302002
v -0.031907692551612854 0.05860716477036476 0.8137497901916504
v -0.031159207224845886 0.059157513082027435 0.8096846342086792
v -0.05041695386171341 0.06911908090114594 0.8188348412513733
v -0.04675525426864624 0.06818810850381851 0.816940188407898
v -0.04198766499757767 0.05496470630168915 0.8127498626708984
v -0.041487522423267365 0.056594014167785645 0.8168119192123413
v -0.04470773786306381 0.05726213753223419 0.8194846510887146
v -0.046428147703409195 0.05428373068571091 0.816907525062561
v -0.027518417686223984 0.05837424099445343 0.8172382712364197
v -0.03097948245704174 0.06024771183729172 0.8195303678512573
v -0.03431926295161247 0.06257883459329605 0.8196201920509338
v -0.03379052132368088 0.06022980809211731 0.8174332976341248
v -0.03651394322514534 0.06831558048725128 0.820321798324585
v -0.04358155280351639 0.05579359829425812 0.8086841106414795
v -0.045778412371873856 0.0599808432161808 0.8044599294662476
v -0.030814185738563538 0.06595636904239655 0.8037015199661255
v -0.029972944408655167 0.06186410039663315 0.8059629797935486
v -0.045225776731967926 0.06918306648731232 0.8167608380317688
v -0.04234038293361664 0.0602143257856369 0.818973183631897
v -0.04343988373875618 0.06492458283901215 0.8188254237174988
v -0.047126367688179016 0.06712742894887924 0.8041356205940247
v -0.05145876854658127 0.05797382444143295 0.8080801367759705
v -0.05961964651942253 0.054989855736494064 0.8224806785583496
v -0.053239960223436356 0.054466668516397476 0.8162115812301636
v -0.0507664680480957 0.055129263550043106 0.8201852440834045
v -0.057409368455410004 0.055348366498947144 0.8248063921928406
v -0.048117272555828094 0.054758161306381226 0.8121206760406494
v -0.05576720088720322 0.057733796536922455 0.812287449836731
v -0.05467890948057175 0.06747269630432129 0.8269579410552979
v -0.05387569218873978 0.062207285314798355 0.827451229095459
v -0.056366901844739914 0.06964270770549774 0.8252203464508057
v -0.032628342509269714 0.07386791706085205 0.8068844079971313
v -0.06146068125963211 0.0683804303407669 0.8199642300605774
v -0.05911105126142502 0.07019081711769104 0.8231638669967651
v -0.048884473741054535 0.05890870839357376 0.8221574425697327
v -0.05511034280061722 0.05786691606044769 0.8266147375106812
v -0.0620792880654335 0.05743241682648659 0.8196159601211548
v -0.06279876828193665 0.06327661871910095 0.81760174036026
v -0.06516914069652557 0.05781296640634537 0.8238937854766846
v -0.06582082808017731 0.06332890689373016 0.8224263787269592
v -0.06363280117511749 0.06855213642120361 0.8256529569625854
v -0.06029524654150009 0.06945179402828217 0.8271195292472839
v -0.05755574628710747 0.06877921521663666 0.8285210132598877
v -0.061654411256313324 0.05511659383773804 0.8259674310684204
v -0.05885973572731018 0.05532991141080856 0.827544093132019
v -0.055986687541007996 0.05773571878671646 0.828535258769989
v -0.06387630105018616 0.055189259350299835 0.8298863768577576
v -0.06711854040622711 0.05855817720293999 0.8305985927581787
v -0.06407791376113892 0.06485027074813843 0.841985285282135
v -0.0633712112903595 0.06610939651727676 0.8382008075714111
v -0.06433187425136566 0.06550651043653488 0.8378970623016357
v -0.06513780355453491 0.06485100090503693 0.8417870998382568
v -0.06410171836614609 0.06726090610027313 0.8328953385353088
v -0.06492576003074646 0.06604573130607605 0.8338900208473206
v -0.06646943092346191 0.06371083110570908 0.8315574526786804
v -0.06725361943244934 0.06262398511171341 0.8366227746009827
v -0.06727081537246704 0.05729290843009949 0.8361147046089172
v -0.06788735091686249 0.05709555745124817 0.8400964140892029
v -0.0681207925081253 0.06183644011616707 0.8401374220848083
v -0.06747866421937943 0.05960462987422943 0.8322141170501709
v -0.06654424965381622 0.06383358687162399 0.8438942432403564
v -0.06602774560451508 0.06385204941034317 0.8452054858207703
v -0.06700537353754044 0.06429480016231537 0.8292409181594849
v -0.06026722863316536 0.06838119775056839 0.832862913608551
v -0.061206623911857605 0.0663619339466095 0.8395509123802185
v -0.06273244321346283 0.06473378837108612 0.8440034985542297
v -0.06459108740091324 0.06244243308901787 0.8463301658630371
v -0.05894877761602402 0.06540378928184509 0.8391352295875549
v -0.060721587389707565 0.0637039840221405 0.8444370031356812
v -0.06251867115497589 0.06140466034412384 0.8465325236320496
v -0.05683426931500435 0.06289917230606079 0.838634192943573
v -0.059247665107250214 0.061701200902462006 0.8435630202293396
v -0.05512257292866707 0.06441395729780197 0.8323782086372375
v -0.057329993695020676 0.06709329038858414 0.8328854441642761
v -0.061347056180238724 0.06056879088282585 0.8454607129096985
v -0.06820590049028397 0.06060003861784935 0.8450716733932495
v -0.06580007821321487 0.05934877693653107 0.8462337851524353
v -0.06879031658172607 0.06089230999350548 0.8435831665992737
v -0.0667714849114418 0.056056879460811615 0.8358105421066284
v -0.06735807657241821 0.05569545552134514 0.8406991362571716
v -0.0648878663778305 0.05444870889186859 0.8357884883880615
v -0.06554001569747925 0.054718997329473495 0.8413131833076477
v -0.06801845133304596 0.05716331675648689 0.8438180685043335
v -0.06857369840145111 0.058313604444265366 0.8424814343452454
v -0.05508305877447128 0.06592515110969543 0.8299800157546997
v -0.05470097064971924 0.06206782907247543 0.8292166590690613
v -0.05504891276359558 0.06050747632980347 0.8313999772071838
v -0.056649573147296906 0.05906477943062782 0.8376017808914185
v -0.057095617055892944 0.05638645216822624 0.8304269909858704
v -0.06063000485301018 0.054730385541915894 0.8299382328987122
v -0.06226310133934021 0.0541205033659935 0.8362023830413818
v -0.059188783168792725 0.05529002100229263 0.8369210362434387
v -0.06349964439868927 0.05476519092917442 0.8420026302337646
v -0.06069786101579666 0.05585573613643646 0.8421225547790527
v -0.058892689645290375 0.05853336676955223 0.8426718711853027
v -0.06416629999876022 0.056869518011808395 0.8450613021850586
v -0.0660402774810791 0.056712307035923004 0.8449634313583374
v -0.0637986958026886 0.05883012339472771 0.8461686968803406
v -0.06228436902165413 0.05717359855771065 0.8447650671005249
v -0.06168603524565697 0.05864337459206581 0.8451951742172241
v -0.026646295562386513 0.06284738332033157 0.8070642948150635
v -0.03728046268224716 0.04931361973285675 0.8837704658508301
v -0.03510693460702896 0.05020307004451752 0.8786308169364929
v -0.025753598660230637 0.036854248493909836 0.8756493330001831
v -0.02905874326825142 0.04285412281751633 0.8726895451545715
v -0.026075996458530426 0.033120445907115936 0.8816807866096497
v -0.030971426516771317 0.03518378734588623 0.8909648060798645
v -0.02728121355175972 0.033524539321660995 0.8873705863952637
v -0.03205225616693497 0.047529563307762146 0.8742285370826721
v -0.03709016740322113 0.046332914382219315 0.888599157333374
v -0.03456632047891617 0.040415845811367035 0.8922516107559204
v -0.04722486436367035 0.039524175226688385 0.88458251953125
v -0.043189920485019684 0.03303205966949463 0.8874692916870117
v -0.03819715231657028 0.027741380035877228 0.8848034739494324
v -0.03270421922206879 0.028581783175468445 0.8811950087547302
v -0.030010536313056946 0.02960938960313797 0.8774166107177734
v -0.043902307748794556 0.04529847204685211 0.8799378871917725
v -0.04082229360938072 0.047052789479494095 0.8753799796104431
v -0.03571762144565582 0.04493878409266472 0.8717683553695679
v -0.048362575471401215 0.042175184935331345 0.8736361861228943
v -0.04979638755321503 0.03463171795010567 0.8679661154747009
v -0.04081717133522034 0.021960098296403885 0.8564460277557373
v -0.03870644047856331 0.02331375703215599 0.862483561038971
v -0.041416577994823456 0.02380448207259178 0.8627989292144775
v -0.04319032281637192 0.022106971591711044 0.8574070334434509
v -0.04002305120229721 0.024093735963106155 0.8679143786430359
v -0.04180213063955307 0.025105629116296768 0.8668561577796936
v -0.045563943684101105 0.0289149172604084 0.8685783743858337
v -0.04688750207424164 0.02713308110833168 0.863152027130127
v -0.048229388892650604 0.032698486000299454 0.8667263388633728
v -0.048912495374679565 0.03288382664322853 0.8624767661094666
v -0.048111602663993835 0.025848720222711563 0.8578886389732361
v -0.045803092420101166 0.021956194192171097 0.8546611070632935
v -0.04881506785750389 0.024822335690259933 0.8535733222961426
v -0.04386790841817856 0.02228682115674019 0.8525707125663757
v -0.048556145280599594 0.027347516268491745 0.8707757592201233
v -0.03485395014286041 0.025130581110715866 0.8717266917228699
v -0.0353468582034111 0.024298086762428284 0.8628014326095581
v -0.03797975182533264 0.0237126424908638 0.855567991733551
v -0.0418894961476326 0.024189241230487823 0.8512557148933411
v -0.03278477489948273 0.027280040085315704 0.861858606338501
v -0.03589596971869469 0.027329593896865845 0.8554503917694092
v -0.04000145196914673 0.028321240097284317 0.8516482710838318
v -0.03256741166114807 0.03182581067085266 0.8608294725418091
v -0.03617395833134651 0.031061924993991852 0.855496883392334
v -0.02961261011660099 0.034448087215423584 0.8708260655403137
v -0.030536293983459473 0.028958186507225037 0.8723767995834351
v -0.03933613747358322 0.030575256794691086 0.8528501987457275
v -0.04874388501048088 0.025144483894109726 0.851232647895813
v -0.04668385162949562 0.02740054950118065 0.8499512076377869
v -0.049495305866003036 0.036002207547426224 0.8625983595848083
v -0.05075295642018318 0.03137756511569023 0.8578519225120544
v -0.05031876638531685 0.033856961876153946 0.8570173978805542
v -0.04813125729560852 0.039561886340379715 0.862904965877533
v -0.04908394813537598 0.03627779334783554 0.8562095165252686
v -0.05065523460507393 0.03029296174645424 0.8530225157737732
v -0.05065200850367546 0.028583597391843796 0.8548536896705627
v -0.028463680297136307 0.03419675678014755 0.8733762502670288
v -0.03082517720758915 0.04019979387521744 0.8713524341583252
v -0.032674483954906464 0.04058791697025299 0.8699139356613159
v -0.03526284173130989 0.0375918373465538 0.860977292060852
v -0.03813117370009422 0.044846054166555405 0.8694431781768799
v -0.044356025755405426 0.04499633237719536 0.8717156648635864
v -0.04525665193796158 0.04174745827913284 0.8619096875190735
v -0.04030586779117584 0.04140008985996246 0.8614500164985657
v -0.045962944626808167 0.03762844577431679 0.8556337356567383
v -0.04299495741724968 0.03736797720193863 0.8556689023971558
v -0.038658905774354935 0.034783050417900085 0.8550472259521484
v -0.04607657715678215 0.03387727215886116 0.8521608710289001
v -0.04896114394068718 0.03259614482522011 0.8521245121955872
v -0.04382981359958649 0.030534449964761734 0.8506857752799988
v -0.04375269263982773 0.03468022495508194 0.8533099293708801
v -0.041737087070941925 0.03249305486679077 0.8525094985961914
v -0.018281951546669006 0.05801064148545265 0.8137751817703247
v -0.021374642848968506 0.05751807615160942 0.8192379474639893
v -0.014653526246547699 0.05734322965145111 0.8191362023353577
v -0.005442757159471512 0.05654694512486458 0.8208621740341187
v 0.004637852311134338 0.05827126279473305 0.8176023364067078
v -0.007465001195669174 0.05746841058135033 0.8273276090621948
v -0.016961198300123215 0.05826552212238312 0.8250159621238708
v -0.026922183111310005 0.05940470099449158 0.8244538307189941
v -0.001278519630432129 0.05912988260388374 0.8353605270385742
f 2 3 1
f 1 3 4
f 5 6 8
f 8 6 7
f 9 4 10
f 10 4 3
f 12 13 11
f 11 13 9
f 14 12 16
f 16 12 15
f 18 19 17
f 17 19 20
f 22 23 21
f 21 23 24
f 26 27 25
f 25 27 28
f 30 31 29
f 29 31 32
f 33 34 36
f 36 34 35
f 37 38 40
f 40 38 39
f 41 42 6
f 6 42 43
f 6 43 7
f 7 43 44
f 45 34 46
f 46 34 33
f 48 49 47
f 47 49 50
f 52 53 51
f 51 53 54
f 56 52 55
f 55 52 51
f 58 59 57
f 57 59 60
f 61 62 4
f 4 62 1
f 64 65 63
f 63 65 66
f 68 69 67
f 67 69 70
f 72 73 71
f 71 73 74
f 76 77 75
f 75 77 78
f 53 79 54
f 54 79 80
f 82 83 81
f 81 83 84
f 85 86 52
f 52 86 53
f 57 60 87
f 87 60 88
f 89 90 43
f 43 90 44
f 43 42 89
f 89 42 91
f 40 39 92
f 92 39 93
f 94 70 64
f 64 70 69
f 13 61 9
f 9 61 4
f 25 28 69
f 69 28 95
f 96 25 68
f 68 25 69
f 98 99 97
f 97 99 100
f 101 102 104
f 104 102 103
f 106 30 105
f 105 30 29
f 51 54 107
f 107 54 108
f 54 80 108
f 108 80 109
f 111 112 110
f 110 112 113
f 115 5 114
f 114 5 116
f 115 41 5
f 5 41 6
f 36 35 111
f 111 35 117
f 35 118 117
f 117 118 119
f 34 120 35
f 35 120 118
f 34 45 120
f 120 45 121
f 125 126 124
f 124 126 127
f 128 129 14
f 14 129 130
f 33 131 46
f 46 131 132
f 133 94 63
f 63 94 64
f 134 135 137
f 137 135 136
f 139 140 138
f 138 140 141
f 77 142 78
f 78 142 143
f 144 145 20
f 20 145 146
f 148 149 147
f 147 149 72
f 151 152 150
f 150 152 153
f 82 101 83
f 83 101 104
f 101 82 155
f 155 82 154
f 156 157 58
f 58 157 59
f 158 68 147
f 147 68 67
f 159 146 15
f 15 146 16
f 68 158 96
f 96 158 160
f 129 66 130
f 130 66 65
f 162 163 161
f 161 163 164
f 166 167 165
f 165 167 168
f 170 171 169
f 169 171 172
f 174 171 173
f 173 171 170
f 176 177 175
f 175 177 178
f 180 181 179
f 179 181 24
f 182 183 21
f 21 183 184
f 81 185 82
f 82 185 154
f 186 187 188
f 188 187 144
f 158 71 160
f 160 71 189
f 190 135 157
f 157 135 59
f 169 172 139
f 139 172 140
f 147 72 158
f 158 72 71
f 192 193 191
f 191 193 194
f 167 166 49
f 49 166 195
f 196 190 50
f 50 190 157
f 197 198 200
f 200 198 199
f 21 24 182
f 182 24 181
f 146 159 20
f 20 159 17
f 182 181 81
f 81 181 185
f 201 185 180
f 180 185 181
f 202 203 83
f 83 203 84
f 205 206 204
f 204 206 85
f 207 22 184
f 184 22 21
f 179 24 208
f 208 24 23
f 208 209 179
f 179 209 205
f 209 210 205
f 205 210 206
f 212 206 211
f 211 206 210
f 179 205 180
f 180 205 204
f 213 176 88
f 88 176 214
f 86 85 212
f 212 85 206
f 193 217 218
f 217 219 218
f 218 219 220
f 219 18 220
f 220 18 17
f 19 221 20
f 20 221 144
f 222 223 225
f 225 223 224
f 175 226 176
f 176 226 214
f 227 87 214
f 214 87 88
f 220 17 228
f 228 17 159
f 134 213 60
f 60 213 88
f 138 229 151
f 151 229 152
f 193 192 210
f 210 192 211
f 230 194 218
f 218 194 193
f 231 232 228
f 228 232 230
f 233 234 91
f 91 234 89
f 235 236 93
f 93 236 92
f 230 232 234
f 234 232 237
f 47 238 48
f 48 238 239
f 240 191 235
f 235 191 236
f 5 8 116
f 116 8 241
f 242 243 189
f 189 243 160
f 244 245 98
f 98 245 99
f 156 246 47
f 47 246 238
f 76 247 77
f 77 247 248
f 250 125 249
f 249 125 124
f 252 253 251
f 251 253 254
f 111 110 36
f 36 110 255
f 256 33 255
f 255 33 36
f 257 258 154
f 154 258 155
f 63 169 133
f 133 169 139
f 66 170 63
f 63 170 169
f 173 170 129
f 129 170 66
f 129 128 173
f 173 128 259
f 128 260 259
f 259 260 261
f 213 134 262
f 262 134 137
f 263 264 186
f 186 264 187
f 112 265 113
f 113 265 266
f 11 267 268
f 234 233 230
f 230 233 194
f 153 269 70
f 70 269 67
f 175 178 165
f 165 178 141
f 150 153 94
f 94 153 70
f 271 221 270
f 270 221 207
f 269 153 272
f 272 153 152
f 121 45 109
f 109 45 108
f 47 50 156
f 156 50 157
f 57 273 58
f 58 273 274
f 145 275 260
f 260 275 261
f 276 149 143
f 143 149 78
f 148 269 75
f 75 269 272
f 207 277 270
f 270 277 278
f 195 196 49
f 49 196 50
f 59 135 60
f 60 135 134
f 83 104 202
f 202 104 279
f 149 148 78
f 78 148 75
f 247 278 248
f 248 278 277
f 183 182 84
f 84 182 81
f 48 239 281
f 281 239 282
f 227 223 283
f 283 223 222
f 223 226 224
f 224 226 168
f 281 282 224
f 224 282 225
f 165 168 175
f 175 168 226
f 264 263 138
f 138 263 229
f 14 16 128
f 128 16 260
f 220 228 218
f 218 228 230
f 87 227 284
f 284 227 283
f 260 16 145
f 145 16 146
f 244 98 258
f 258 98 155
f 58 274 156
f 156 274 246
f 107 285 51
f 51 285 55
f 243 286 160
f 160 286 96
f 234 237 89
f 89 237 90
f 46 132 107
f 107 132 285
f 253 252 249
f 249 252 250
f 286 26 96
f 96 26 25
f 106 105 287
f 287 105 288
f 272 152 289
f 289 152 229
f 138 151 139
f 139 151 133
f 183 290 161
f 161 290 162
f 291 292 277
f 277 292 293
f 151 150 133
f 133 150 94
f 262 275 177
f 177 275 187
f 144 187 145
f 145 187 275
f 273 57 284
f 284 57 87
f 174 136 190
f 190 136 135
f 111 117 112
f 112 117 38
f 117 119 38
f 38 119 123
f 112 38 265
f 265 38 37
f 287 288 254
f 254 288 251
f 228 159 231
f 231 159 15
f 223 227 226
f 226 227 214
f 147 67 148
f 148 67 269
f 224 168 281
f 281 168 167
f 199 163 200
f 200 163 162
f 45 46 108
f 108 46 107
f 281 167 48
f 48 167 49
f 161 164 291
f 291 164 292
f 38 123 39
f 293 294 277
f 277 294 248
f 284 283 296
f 296 283 295
f 284 296 273
f 273 296 297
f 274 273 298
f 298 273 297
f 246 274 299
f 299 274 298
f 283 222 295
f 295 222 300
f 222 225 300
f 300 225 301
f 301 225 302
f 302 225 282
f 303 304 300
f 300 304 295
f 306 307 305
f 305 307 308
f 309 310 308
f 308 310 305
f 308 307 312
f 312 307 311
f 313 314 312
f 312 314 315
f 311 316 312
f 312 316 313
f 317 304 311
f 311 304 316
f 315 309 312
f 312 309 308
f 318 319 321
f 321 319 320
f 319 318 309
f 309 318 310
f 311 307 317
f 317 307 306
f 306 297 317
f 317 297 296
f 306 322 297
f 297 322 298
f 305 323 306
f 306 323 322
f 323 305 324
f 324 305 310
f 304 317 295
f 295 317 296
f 318 325 310
f 310 325 324
f 323 324 326
f 326 324 327
f 324 325 327
f 327 325 328
f 326 327 329
f 329 327 330
f 329 331 326
f 326 331 332
f 333 330 328
f 328 330 327
f 323 326 322
f 322 326 332
f 322 332 298
f 298 332 299
f 325 318 334
f 334 318 321
f 313 316 335
f 335 316 304
f 335 336 313
f 313 336 314
f 304 303 335
f 335 303 337
f 336 335 338
f 338 335 337
f 336 339 314
f 314 339 340
f 246 299 238
f 238 299 341
f 239 342 282
f 282 342 302
f 342 239 341
f 341 239 238
f 341 331 342
f 342 331 343
f 331 329 343
f 343 329 344
f 342 343 302
f 302 343 345
f 341 299 331
f 331 299 332
f 346 301 345
f 345 301 302
f 346 303 301
f 301 303 300
f 347 337 346
f 346 337 303
f 347 346 348
f 348 346 345
f 349 347 350
f 350 347 348
f 343 344 345
f 345 344 348
f 344 351 348
f 348 351 350
f 337 347 338
f 338 347 349
f 353 338 352
f 352 338 349
f 352 355 354
f 354 355 356
f 352 349 355
f 355 349 350
f 352 354 353
f 353 354 334
f 353 334 339
f 339 334 321
f 339 336 353
f 353 336 338
f 329 330 344
f 344 330 351
f 356 351 333
f 333 351 330
f 356 355 351
f 351 355 350
f 354 356 328
f 328 356 333
f 328 325 354
f 354 325 334
f 309 315 319
f 319 315 320
f 320 340 321
f 321 340 339
f 320 315 340
f 340 315 314
f 137 136 261
f 261 136 259
f 140 166 141
f 141 166 165
f 172 171 195
f 195 171 196
f 171 174 196
f 196 174 190
f 178 177 264
f 264 177 187
f 172 195 140
f 140 195 166
f 137 261 262
f 262 261 275
f 178 264 141
f 141 264 138
f 262 177 213
f 213 177 176
f 136 174 259
f 259 174 173
f 358 359 357
f 357 359 360
f 362 363 361
f 361 363 364
f 361 364 365
f 365 364 366
f 367 368 370
f 370 368 369
f 76 371 247
f 247 371 372
f 373 374 362
f 362 374 363
f 376 377 375
f 375 377 378
f 289 229 380
f 380 229 379
f 381 379 263
f 263 379 229
f 383 384 382
f 382 384 385
f 386 368 374
f 374 368 363
f 76 289 371
f 371 289 380
f 377 376 359
f 359 376 387
f 388 386 360
f 360 386 374
f 389 383 366
f 366 383 390
f 392 393 391
f 391 393 394
f 383 382 390
f 390 382 395
f 396 365 390
f 390 365 366
f 389 366 367
f 367 366 364
f 357 397 358
f 358 397 398
f 373 399 357
f 357 399 397
f 389 367 400
f 400 367 370
f 382 385 375
f 375 385 372
f 357 360 373
f 373 360 374
f 361 401 362
f 362 401 402
f 387 388 359
f 359 388 360
f 363 368 364
f 364 368 367
f 358 398 403
f 403 398 404
f 396 392 405
f 405 392 391
f 392 395 393
f 393 395 378
f 393 403 394
f 394 403 404
f 375 378 382
f 382 378 395
f 365 396 406
f 406 396 405
f 362 402 373
f 373 402 399
f 271 270 400
f 400 270 384
f 401 361 406
f 406 361 365
f 381 369 386
f 386 369 368
f 392 396 395
f 395 396 390
f 393 378 403
f 403 378 377
f 403 377 358
f 358 377 359
f 406 405 408
f 408 405 407
f 406 408 401
f 401 408 409
f 401 409 402
f 402 409 410
f 402 410 399
f 399 410 411
f 405 391 407
f 407 391 412
f 391 394 412
f 412 394 413
f 394 404 413
f 413 404 414
f 415 416 412
f 412 416 407
f 418 419 417
f 417 419 420
f 421 422 418
f 418 422 419
f 419 422 424
f 424 422 423
f 425 426 424
f 424 426 427
f 423 428 424
f 424 428 425
f 427 420 424
f 424 420 419
f 420 429 417
f 417 429 430
f 423 422 431
f 431 422 421
f 421 409 431
f 431 409 408
f 421 432 409
f 409 432 410
f 418 433 421
f 421 433 432
f 434 433 417
f 417 433 418
f 431 416 423
f 423 416 428
f 416 431 407
f 407 431 408
f 435 434 430
f 430 434 417
f 433 434 436
f 436 434 437
f 434 435 437
f 437 435 438
f 436 437 439
f 439 437 440
f 439 441 436
f 436 441 442
f 438 443 437
f 437 443 440
f 436 442 433
f 433 442 432
f 432 442 410
f 410 442 411
f 435 430 445
f 445 430 444
f 430 429 444
f 444 429 446
f 425 428 447
f 447 428 416
f 426 425 448
f 448 425 447
f 416 415 447
f 447 415 449
f 447 449 448
f 448 449 450
f 451 452 448
f 448 452 426
f 446 452 444
f 444 452 451
f 399 411 397
f 397 411 453
f 398 454 404
f 404 454 414
f 454 398 453
f 453 398 397
f 453 441 454
f 454 441 455
f 441 439 455
f 455 439 456
f 454 455 414
f 414 455 457
f 441 453 442
f 442 453 411
f 458 413 457
f 457 413 414
f 458 415 413
f 413 415 412
f 458 459 415
f 415 459 449
f 459 458 460
f 460 458 457
f 461 459 462
f 462 459 460
f 455 456 457
f 457 456 460
f 456 463 460
f 460 463 462
f 459 461 449
f 449 461 450
f 465 450 464
f 464 450 461
f 464 467 466
f 466 467 468
f 464 461 467
f 467 461 462
f 464 466 465
f 465 466 445
f 465 445 451
f 451 445 444
f 451 448 465
f 465 448 450
f 439 440 456
f 456 440 463
f 468 463 443
f 443 463 440
f 468 467 463
f 463 467 462
f 466 468 438
f 438 468 443
f 438 435 466
f 466 435 445
f 420 427 429
f 429 427 446
f 446 427 452
f 452 427 426
f 370 369 188
f 188 369 186
f 371 376 372
f 372 376 375
f 380 379 387
f 387 379 388
f 379 381 388
f 388 381 386
f 385 384 278
f 278 384 270
f 380 387 371
f 371 387 376
f 400 370 271
f 271 370 188
f 385 278 372
f 372 278 247
f 400 384 389
f 389 384 383
f 369 381 186
f 186 381 263
f 221 271 144
f 144 271 188
f 221 19 207
f 207 19 22
f 19 18 22
f 22 18 23
f 18 219 23
f 23 219 208
f 469 470 472
f 472 470 471
f 474 475 473
f 473 475 476
f 473 476 477
f 477 476 478
f 480 481 479
f 479 481 482
f 483 484 474
f 474 484 475
f 486 487 485
f 485 487 488
f 489 490 77
f 77 490 142
f 491 489 248
f 248 489 77
f 493 494 492
f 492 494 495
f 496 480 484
f 484 480 475
f 486 497 487
f 487 497 471
f 498 496 472
f 472 496 484
f 499 493 478
f 478 493 500
f 501 502 504
f 504 502 503
f 493 492 500
f 500 492 505
f 506 477 500
f 500 477 478
f 499 478 479
f 479 478 476
f 469 507 470
f 470 507 508
f 483 509 469
f 469 509 507
f 479 482 499
f 499 482 510
f 492 495 485
f 485 495 511
f 483 469 484
f 484 469 472
f 473 512 474
f 474 512 513
f 497 498 471
f 471 498 472
f 475 480 476
f 476 480 479
f 470 508 514
f 514 508 515
f 506 502 516
f 516 502 501
f 503 502 488
f 488 502 505
f 514 515 503
f 503 515 504
f 485 488 492
f 492 488 505
f 477 506 517
f 517 506 516
f 474 513 483
f 483 513 509
f 510 292 494
f 494 292 164
f 512 473 517
f 517 473 477
f 491 481 496
f 496 481 480
f 502 506 505
f 505 506 500
f 503 488 514
f 514 488 487
f 514 487 470
f 470 487 471
f 517 516 519
f 519 516 518
f 517 519 512
f 512 519 520
f 512 520 513
f 513 520 521
f 513 521 509
f 509 521 522
f 516 501 518
f 518 501 523
f 501 504 523
f 523 504 524
f 524 504 525
f 525 504 515
f 526 527 523
f 523 527 518
f 529 530 528
f 528 530 531
f 532 533 529
f 529 533 530
f 530 533 535
f 535 533 534
f 536 537 535
f 535 537 538
f 534 539 535
f 535 539 536
f 538 531 535
f 535 531 530
f 540 541 531
f 531 541 528
f 533 532 534
f 534 532 542
f 532 520 542
f 542 520 519
f 532 543 520
f 520 543 521
f 529 544 532
f 532 544 543
f 544 529 545
f 545 529 528
f 534 542 539
f 539 542 527
f 527 542 518
f 518 542 519
f 541 546 528
f 528 546 545
f 547 544 548
f 548 544 545
f 546 549 545
f 545 549 548
f 550 547 551
f 551 547 548
f 547 550 553
f 553 550 552
f 549 554 548
f 548 554 551
f 544 547 543
f 543 547 553
f 543 553 521
f 521 553 522
f 546 541 556
f 556 541 555
f 541 540 555
f 555 540 557
f 536 539 558
f 558 539 527
f 537 536 559
f 559 536 558
f 527 526 558
f 558 526 560
f 559 558 561
f 561 558 560
f 559 562 537
f 537 562 563
f 557 563 555
f 555 563 562
f 509 522 507
f 507 522 564
f 508 565 515
f 515 565 525
f 565 508 564
f 564 508 507
f 564 552 565
f 565 552 566
f 552 550 566
f 566 550 567
f 565 566 525
f 525 566 568
f 564 522 552
f 552 522 553
f 569 524 568
f 568 524 525
f 569 526 524
f 524 526 523
f 570 560 569
f 569 560 526
f 570 569 571
f 571 569 568
f 572 570 573
f 573 570 571
f 566 567 568
f 568 567 571
f 567 574 571
f 571 574 573
f 570 572 560
f 560 572 561
f 576 561 575
f 575 561 572
f 575 578 577
f 577 578 579
f 575 572 578
f 578 572 573
f 575 577 576
f 576 577 556
f 576 556 562
f 562 556 555
f 562 559 576
f 576 559 561
f 550 551 567
f 567 551 574
f 579 574 554
f 554 574 551
f 579 578 574
f 574 578 573
f 579 554 577
f 577 554 549
f 549 546 577
f 577 546 556
f 531 538 540
f 540 538 557
f 557 538 563
f 563 538 537
f 481 294 482
f 482 294 293
f 580 486 511
f 511 486 485
f 490 489 497
f 497 489 498
f 489 491 498
f 498 491 496
f 163 495 164
f 164 495 494
f 580 490 486
f 486 490 497
f 482 293 510
f 510 293 292
f 495 163 511
f 511 163 199
f 494 493 510
f 510 493 499
f 481 491 294
f 294 491 248
f 582 583 581
f 581 583 584
f 586 587 585
f 585 587 588
f 585 588 589
f 589 588 590
f 592 593 591
f 591 593 594
f 595 596 598
f 598 596 597
f 599 600 586
f 586 600 587
f 601 602 604
f 604 602 603
f 605 606 608
f 608 606 607
f 609 607 200
f 200 607 606
f 610 611 613
f 613 611 612
f 600 614 587
f 587 614 592
f 596 605 597
f 597 605 608
f 602 615 603
f 603 615 583
f 616 614 584
f 584 614 600
f 611 618 617
f 617 618 590
f 620 621 619
f 619 621 622
f 610 623 611
f 611 623 618
f 624 589 618
f 618 589 590
f 617 590 591
f 591 590 588
f 581 625 582
f 582 625 626
f 599 627 581
f 581 627 625
f 591 594 617
f 617 594 628
f 601 610 598
f 598 610 613
f 581 584 599
f 599 584 600
f 585 629 586
f 586 629 630
f 615 616 583
f 583 616 584
f 587 592 588
f 588 592 591
f 582 626 631
f 631 626 632
f 624 620 633
f 633 620 619
f 621 620 604
f 604 620 623
f 631 632 621
f 621 632 622
f 610 601 623
f 623 601 604
f 589 624 634
f 634 624 633
f 586 630 599
f 599 630 627
f 203 202 628
f 628 202 612
f 629 585 634
f 634 585 589
f 609 593 614
f 614 593 592
f 620 624 623
f 623 624 618
f 631 621 603
f 603 621 604
f 582 631 583
f 583 631 603
f 634 633 636
f 636 633 635
f 634 636 629
f 629 636 637
f 629 637 630
f 630 637 638
f 630 638 627
f 627 638 639
f 633 619 635
f 635 619 640
f 619 622 640
f 640 622 641
f 641 622 642
f 642 622 632
f 644 635 643
f 643 635 640
f 645 646 648
f 648 646 647
f 649 650 646
f 646 650 647
f 647 650 652
f 652 650 651
f 652 653 655
f 655 653 654
f 651 656 652
f 652 656 653
f 655 648 652
f 652 648 647
f 648 657 645
f 645 657 658
f 650 649 651
f 651 649 659
f 649 637 659
f 659 637 636
f 649 660 637
f 637 660 638
f 661 660 646
f 646 660 649
f 662 661 645
f 645 661 646
f 651 659 656
f 656 659 644
f 644 659 635
f 635 659 636
f 663 662 658
f 658 662 645
f 664 661 665
f 665 661 662
f 663 666 662
f 662 666 665
f 667 664 668
f 668 664 665
f 664 667 670
f 670 667 669
f 666 671 665
f 665 671 668
f 661 664 660
f 660 664 670
f 660 670 638
f 638 670 639
f 658 672 663
f 663 672 673
f 658 657 672
f 672 657 674
f 653 656 675
f 675 656 644
f 653 675 654
f 654 675 676
f 675 644 677
f 677 644 643
f 676 675 678
f 678 675 677
f 679 680 676
f 676 680 654
f 674 680 672
f 672 680 679
f 627 639 625
f 625 639 681
f 626 682 632
f 632 682 642
f 681 682 625
f 625 682 626
f 669 683 681
f 681 683 682
f 667 684 669
f 669 684 683
f 682 683 642
f 642 683 685
f 681 639 669
f 669 639 670
f 686 641 685
f 685 641 642
f 641 686 640
f 640 686 643
f 686 687 643
f 643 687 677
f 687 686 688
f 688 686 685
f 689 687 690
f 690 687 688
f 683 684 685
f 685 684 688
f 684 691 688
f 688 691 690
f 687 689 677
f 677 689 678
f 693 678 692
f 692 678 689
f 692 695 694
f 694 695 696
f 692 689 695
f 695 689 690
f 692 694 693
f 693 694 673
f 693 673 679
f 679 673 672
f 679 676 693
f 693 676 678
f 684 667 691
f 691 667 668
f 696 691 671
f 671 691 668
f 696 695 691
f 691 695 690
f 694 696 666
f 666 696 671
f 666 663 694
f 694 663 673
f 648 655 657
f 657 655 674
f 674 655 680
f 680 655 654
f 593 162 594
f 594 162 290
f 598 597 601
f 601 597 602
f 615 608 616
f 616 608 607
f 607 609 616
f 616 609 614
f 697 595 613
f 613 595 598
f 597 608 602
f 602 608 615
f 594 290 628
f 628 290 203
f 628 612 617
f 617 612 611
f 593 609 162
f 162 609 200
f 105 29 698
f 698 29 699
f 268 126 701
f 701 126 700
f 126 125 700
f 700 125 702
f 252 703 250
f 250 703 704
f 32 268 705
f 705 268 701
f 288 105 706
f 706 105 698
f 29 32 699
f 699 32 705
f 707 251 706
f 706 251 288
f 250 704 125
f 125 704 702
f 703 252 707
f 707 252 251
f 706 708 707
f 707 708 709
f 707 709 703
f 703 709 710
f 703 710 704
f 704 710 711
f 704 711 702
f 702 711 712
f 706 698 708
f 708 698 713
f 698 699 713
f 713 699 714
f 699 705 714
f 714 705 715
f 717 708 716
f 716 708 713
f 719 720 718
f 718 720 721
f 722 723 719
f 719 723 720
f 724 725 723
f 723 725 720
f 724 726 725
f 725 726 727
f 728 721 725
f 725 721 720
f 721 728 729
f 729 728 730
f 729 731 721
f 721 731 718
f 724 723 732
f 732 723 722
f 722 710 732
f 732 710 709
f 722 733 710
f 710 733 711
f 719 734 722
f 722 734 733
f 734 719 735
f 735 719 718
f 724 732 726
f 726 732 717
f 717 732 708
f 708 732 709
f 731 736 718
f 718 736 735
f 737 734 738
f 738 734 735
f 736 739 735
f 735 739 738
f 740 737 741
f 741 737 738
f 737 740 743
f 743 740 742
f 739 744 738
f 738 744 741
f 734 737 733
f 733 737 743
f 733 743 711
f 711 743 712
f 736 731 746
f 746 731 745
f 731 729 745
f 745 729 730
f 727 726 747
f 747 726 717
f 748 727 749
f 749 727 747
f 747 717 750
f 750 717 716
f 749 747 751
f 751 747 750
f 749 752 748
f 748 752 753
f 730 753 745
f 745 753 752
f 728 725 748
f 748 725 727
f 730 728 753
f 753 728 748
f 700 702 754
f 754 702 712
f 705 701 715
f 715 701 755
f 754 755 700
f 700 755 701
f 742 756 754
f 754 756 755
f 740 757 742
f 742 757 756
f 755 756 715
f 715 756 758
f 754 712 742
f 742 712 743
f 759 714 758
f 758 714 715
f 714 759 713
f 713 759 716
f 759 760 716
f 716 760 750
f 760 759 761
f 761 759 758
f 762 760 763
f 763 760 761
f 756 757 758
f 758 757 761
f 757 764 761
f 761 764 763
f 760 762 750
f 750 762 751
f 766 751 765
f 765 751 762
f 767 765 769
f 769 765 768
f 765 762 768
f 768 762 763
f 765 767 766
f 766 767 746
f 766 746 752
f 752 746 745
f 752 749 766
f 766 749 751
f 757 740 764
f 764 740 741
f 769 764 744
f 744 764 741
f 769 768 764
f 764 768 763
f 767 769 739
f 739 769 744
f 739 736 767
f 767 736 746
f 219 217 208
f 208 217 209
f 209 217 210
f 210 217 193
f 198 580 199
f 199 580 511
f 76 75 289
f 289 75 272
f 277 207 291
f 291 207 184
f 290 183 203
f 203 183 84
f 490 580 142
f 142 580 198
f 142 198 143
f 143 198 197
f 149 276 72
f 72 276 73
f 104 103 279
f 279 103 770
f 770 596 279
f 279 596 595
f 605 596 771
f 771 596 770
f 771 770 772
f 772 770 103
f 772 103 773
f 773 103 102
f 155 774 101
f 101 774 102
f 773 102 97
f 97 102 774
f 775 773 100
f 100 773 97
f 773 775 772
f 772 775 776
f 772 776 771
f 771 776 777
f 200 606 197
f 197 606 777
f 189 71 778
f 778 71 74
f 97 774 98
f 98 774 155
f 183 161 184
f 184 161 291
f 777 276 197
f 197 276 143
f 777 606 771
f 771 606 605
f 613 612 697
f 697 612 202
f 595 697 279
f 279 697 202
f 73 276 776
f 776 276 777
f 776 775 73
f 73 775 74
f 100 778 775
f 775 778 74
f 778 100 189
f 189 100 99
f 245 242 99
f 99 242 189
f 131 33 256
f 28 1 95
f 95 1 62
f 27 2 28
f 28 2 1
f 265 115 266
f 266 115 114
f 95 62 69
f 69 62 64
f 62 61 64
f 64 61 65
f 61 13 65
f 65 13 130
f 13 12 130
f 130 12 14
f 31 11 32
f 32 11 268
f 15 12 31
f 31 12 11
f 31 30 15
f 15 30 231
f 30 106 231
f 231 106 232
f 287 237 106
f 106 237 232
f 254 90 287
f 287 90 237
f 253 44 254
f 254 44 90
f 253 249 44
f 44 249 7
f 267 127 268
f 268 127 126
f 10 3 241
f 241 3 116
f 3 2 116
f 116 2 114
f 2 27 114
f 114 27 266
f 27 26 266
f 266 26 113
f 26 286 113
f 113 286 110
f 286 243 110
f 110 243 255
f 243 242 255
f 255 242 256
f 242 245 256
f 256 245 131
f 245 244 131
f 131 244 132
f 265 37 115
f 115 37 41
f 41 37 42
f 42 37 40
f 92 91 40
f 40 91 42
f 236 233 92
f 92 233 91
f 191 194 236
f 236 194 233
f 258 285 244
f 244 285 132
f 257 55 258
f 258 55 285
f 257 154 201
f 201 154 185
f 56 201 204
f 204 201 180
f 55 257 56
f 56 257 201
f 204 85 56
f 56 85 52
f 86 122 53
f 53 122 79
f 212 215 86
f 86 215 122
f 211 216 212
f 212 216 215
f 192 280 211
f 211 280 216
f 191 240 192
f 192 240 280
f 249 124 7
f 7 124 8
f 124 127 8
f 8 127 241
f 127 267 241
f 241 267 10
f 10 267 9
f 9 267 11
