v -0.0023065321147441864 0.05525054410099983 0.72751784324646
v 0.010544661432504654 0.05137662589550018 0.7266291975975037
v 0.0037314146757125854 0.046340227127075195 0.7310300469398499
v -0.007408011704683304 0.051175449043512344 0.7327280044555664
v 0.020298592746257782 0.04170474037528038 0.7431402802467346
v 0.02359597384929657 0.04620024934411049 0.75347501039505
v 0.0077636465430259705 0.04333586245775223 0.7531741261482239
v 0.008484937250614166 0.039634816348552704 0.743453860282898
v -0.012447431683540344 0.05092398077249527 0.7359446287155151
v -0.0032336749136447906 0.04419853538274765 0.7337533235549927
v -0.0143083855509758 0.056496262550354004 0.736415445804596
v -0.022503897547721863 0.06520725786685944 0.742279589176178
v -0.021467234939336777 0.05859222635626793 0.740423321723938
v -0.029839366674423218 0.06928334385156631 0.7437684535980225
v -0.016974687576293945 0.0748215988278389 0.7435216307640076
v -0.028415096923708916 0.07811239361763 0.7406096458435059
v -0.008531007915735245 0.08927913010120392 0.7250877618789673
v -0.004934486001729965 0.09012775868177414 0.7128490805625916
v -0.020814619958400726 0.08849230408668518 0.7114162445068359
v -0.02293243072926998 0.08704012632369995 0.7241769433021545
v -0.00998530164361 0.08481955528259277 0.6945144534111023
v -0.01699928194284439 0.08705400675535202 0.7035735249519348
v -0.0010277926921844482 0.08980672061443329 0.7049645185470581
v 0.00429077073931694 0.08759459853172302 0.6965892910957336
v 0.0047948360443115234 0.059751804918050766 0.7163170576095581
v 0.016356520354747772 0.05814144015312195 0.7154408097267151
v 0.01502237468957901 0.05669555068016052 0.7197179198265076
v 0.003204345703125 0.05874370038509369 0.7207118272781372
v -0.016658499836921692 0.05807163566350937 0.740868091583252
v -0.010159611701965332 0.06634785979986191 0.7473388314247131
v -0.014010712504386902 0.06364057213068008 0.7417066097259521
v -0.01599252223968506 0.05457158759236336 0.7365898489952087
v 0.04166974127292633 0.051596108824014664 0.7073544263839722
v 0.05350533127784729 0.057428136467933655 0.7096043229103088
v 0.05286906659603119 0.05796842277050018 0.7155351042747498
v 0.04232095927000046 0.05288076400756836 0.7122954726219177
v 0.04449637234210968 0.053857166320085526 0.7401729226112366
v 0.051899075508117676 0.0603308379650116 0.7348231673240662
v 0.055632174015045166 0.069277323782444 0.7437082529067993
v 0.046360187232494354 0.06642750650644302 0.7483001351356506
v 0.03463602811098099 0.04834127426147461 0.7484678626060486
v 0.03629230707883835 0.05945127457380295 0.7548379302024841
v 0.021964870393276215 0.05600909888744354 0.7598491907119751
v 0.004488099366426468 0.05008698254823685 0.7588203549385071
v 0.05493202805519104 0.05931565910577774 0.6970475316047668
v 0.04660246521234512 0.05481709539890289 0.6936175227165222
v -0.08307963609695435 0.07406066358089447 0.7295061349868774
v -0.08106246590614319 0.07556585222482681 0.7241770625114441
v -0.07617612183094025 0.07068140804767609 0.7263968586921692
v -0.07853063195943832 0.07062911242246628 0.7314659357070923
v 0.04825331270694733 0.07345953583717346 0.6845856308937073
v 0.04682570695877075 0.08341436833143234 0.6854090094566345
v 0.05396629124879837 0.08230672031641006 0.685177743434906
v 0.05550965666770935 0.0731196254491806 0.6862688660621643
v 0.03859643638134003 0.07370973378419876 0.6825371384620667
v 0.03683623671531677 0.08425572514533997 0.6862758994102478
v -0.08012552559375763 0.0832776129245758 0.7370931506156921
v -0.08284523338079453 0.0789930522441864 0.7365445494651794
v -0.07766473293304443 0.07719576358795166 0.7386429309844971
v -0.07410556077957153 0.08161132037639618 0.7383896112442017
v -0.01805708557367325 0.05565831437706947 0.7363935708999634
v -0.013193994760513306 0.056319355964660645 0.7294299006462097
v -0.039510298520326614 0.05875495448708534 0.7355382442474365
v -0.027742300182580948 0.05832190811634064 0.732581615447998
v -0.027948323637247086 0.0587344691157341 0.7392117977142334
v -0.03759193792939186 0.060494765639305115 0.7413867115974426
v -0.017832893878221512 0.060491882264614105 0.7114046216011047
v -0.006097845733165741 0.0608053021132946 0.7126745581626892
v -0.009000468999147415 0.060615625232458115 0.7183124423027039
v -0.022235285490751266 0.05962328985333443 0.7187583446502686
v -0.0018392875790596008 0.05793983116745949 0.6995645761489868
v -0.013815376907587051 0.05818113684654236 0.6993505954742432
v -0.010231316089630127 0.05634486675262451 0.6918994784355164
v -0.002182740718126297 0.05570482835173607 0.6934128999710083
v -0.03566896170377731 0.060669973492622375 0.7016384601593018
v -0.043406084179878235 0.0648747906088829 0.7005894780158997
v -0.044444240629673004 0.06546054780483246 0.6960967779159546
v -0.03490844741463661 0.060998257249593735 0.6980682015419006
v 0.06098689138889313 0.08232071995735168 0.6854147911071777
v 0.06224790960550308 0.07320185750722885 0.6887874007225037
v -0.00029647722840309143 0.07746180891990662 0.6772754192352295
v 0.005532260984182358 0.06965303421020508 0.6722235679626465
v -0.004990875720977783 0.0684986338019371 0.6685295701026917
v -0.008416518568992615 0.07661591470241547 0.6749125719070435
v 0.04369709640741348 0.09106910973787308 0.6916760802268982
v 0.051154233515262604 0.09100890159606934 0.6893689036369324
v -0.07657940685749054 0.08761691302061081 0.7342608571052551
v -0.07134437561035156 0.08553837239742279 0.7346762418746948
v 0.021652966737747192 0.06822136789560318 0.7584675550460815
v 0.0022998005151748657 0.05951181799173355 0.7590822577476501
v 0.03642676770687103 0.07368750125169754 0.7535174489021301
v 0.04587886482477188 0.07824482023715973 0.748101532459259
v 0.05448109656572342 0.08080670237541199 0.7457960247993469
v -0.031387411057949066 0.05825899541378021 0.7267354130744934
v -0.006996452808380127 0.058706946671009064 0.7233517169952393
v 0.0063078999519348145 0.059596434235572815 0.7118493318557739
v 0.010959353297948837 0.05157269537448883 0.6828714609146118
v 0.02153850346803665 0.05133223533630371 0.6846097707748413
v 0.015838712453842163 0.051244139671325684 0.6934291124343872
v 0.007735606282949448 0.05214617773890495 0.6900147199630737
v 0.005854751914739609 0.06009300425648689 0.671103298664093
v 0.002621222287416458 0.05426199734210968 0.6753305792808533
v -0.006841469556093216 0.054521918296813965 0.6731453537940979
v -0.0041144005954265594 0.05987557768821716 0.6685793399810791
v -0.01735636591911316 0.058600034564733505 0.7476263046264648
v -0.006093155592679977 0.06820834428071976 0.7521123886108398
v 0.049000561237335205 0.06339982151985168 0.6874021291732788
v 0.055639028549194336 0.06430032104253769 0.6911769509315491
v 0.06324950605630875 0.06702544540166855 0.6933642625808716
v 0.029477298259735107 0.05399315431714058 0.7131592035293579
v 0.042883917689323425 0.05356166511774063 0.7160174250602722
v 0.04213481396436691 0.05284898728132248 0.7212131023406982
v 0.02942945808172226 0.05438527464866638 0.7163047790527344
v 0.022706463932991028 0.0462079718708992 0.7299900650978088
v 0.03285340964794159 0.04539531469345093 0.7364790439605713
v 0.012884445488452911 0.041389431804418564 0.7336263656616211
v 0.053678952157497406 0.05895514413714409 0.7240820527076721
v 0.06254878640174866 0.06014546751976013 0.7173945307731628
v 0.06204098463058472 0.061851561069488525 0.7262383699417114
v 0.06348010152578354 0.06084348261356354 0.7076802253723145
v 0.06375553458929062 0.06296515464782715 0.6990465521812439
v 0.05895248055458069 0.09384690225124359 0.6877687573432922
v 0.06043550372123718 0.06488495320081711 0.7340138554573059
v 0.0003659687936306 0.03910638764500618 0.7421807050704956
v -0.007191266864538193 0.03831607103347778 0.7399895191192627
v -0.008590608835220337 0.04239887744188309 0.7333655953407288
v -0.0020019859075546265 0.04234042763710022 0.7345516681671143
v -0.0394313782453537 0.0729580819606781 0.7444389462471008
v -0.0393529087305069 0.06526799499988556 0.7443864941596985
v -0.02813519351184368 0.06243090704083443 0.7439263463020325
v 0.032037511467933655 0.05050735920667648 0.7009834051132202
v 0.03676579147577286 0.0529615581035614 0.6897007822990417
v -0.04284225404262543 0.06029987707734108 0.7296023964881897
v -0.06927764415740967 0.08304639160633087 0.738950788974762
v -0.07159329950809479 0.07786059379577637 0.7406007647514343
v -0.0552503801882267 0.07571776211261749 0.7435376644134521
v -0.05475996807217598 0.08175736665725708 0.7412210702896118
v -0.051189128309488297 0.06840386986732483 0.7245126962661743
v -0.048834335058927536 0.0640188455581665 0.7283933758735657
v -0.05204838514328003 0.06681260466575623 0.7274443507194519
v -0.05415603518486023 0.07110022753477097 0.7232816219329834
v -0.03820825740695 0.06322793662548065 0.690098226070404
v -0.030731992796063423 0.05984361469745636 0.6910108923912048
v -0.0380658395588398 0.08195304870605469 0.7227497100830078
v -0.03535236790776253 0.08444225788116455 0.735163688659668
v -0.024760888889431953 0.08493062108755112 0.7334226965904236
v -0.014728657901287079 0.05965037643909454 0.7047028541564941
v -0.025449639186263084 0.059257082641124725 0.7026821970939636
v -0.02443181350827217 0.058952704071998596 0.6987066864967346
v -0.03492007777094841 0.05921778082847595 0.723243236541748
v -0.04385363683104515 0.06175431236624718 0.7240467071533203
v -0.04012582451105118 0.06080548092722893 0.7196736335754395
v -0.03173387795686722 0.05977235734462738 0.7184781432151794
v 0.01757882535457611 0.07227586954832077 0.6753212213516235
v 0.018351592123508453 0.060919880867004395 0.6737329363822937
v -0.0837898999452591 0.07549986988306046 0.7339075803756714
v -0.07873362302780151 0.07294005900621414 0.7361021637916565
v -0.0032818354666233063 0.060000501573085785 0.7060941457748413
v -0.011420264840126038 0.08546508848667145 0.7335202097892761
v 0.008092563599348068 0.05881412327289581 0.7068305015563965
v -0.025388509035110474 0.07617306709289551 0.6839910745620728
v -0.02715333178639412 0.06999599188566208 0.6796122193336487
v -0.031702883541584015 0.07113724201917648 0.6808989644050598
v -0.03107485920190811 0.07700708508491516 0.6824150085449219
v -0.06729123741388321 0.07679110765457153 0.7206158638000488
v -0.06965677440166473 0.07198747247457504 0.7230116724967957
v -0.07366078346967697 0.07346245646476746 0.7214415073394775
v -0.07086898386478424 0.07793821394443512 0.7198687195777893
v -0.048058442771434784 0.062450870871543884 0.7338987588882446
v -0.04682169854640961 0.0632062628865242 0.740307092666626
v -0.05399258807301521 0.0653848946094513 0.7379096746444702
v -0.05336328223347664 0.06551116704940796 0.7321575880050659
v -0.048264238983392715 0.06844202429056168 0.7437062859535217
v -0.0547211617231369 0.06963204592466354 0.7422905564308167
v -0.06525973975658417 0.08272048085927963 0.722801923751831
v -0.06467382609844208 0.08724822849035263 0.729135274887085
v -0.053289320319890976 0.08478081226348877 0.728796124458313
v -0.05536480247974396 0.07868511974811554 0.7241098284721375
v 0.01835700124502182 0.09090504050254822 0.6989944577217102
v 0.022116348147392273 0.08701138943433762 0.6894006133079529
v 0.008260820060968399 0.08359526097774506 0.6867555379867554
v -0.004692636430263519 0.08089619874954224 0.6839327216148376
v -0.017582077533006668 0.07684271782636642 0.6825666427612305
v -0.021762287244200706 0.08331933617591858 0.6920444965362549
v 0.01219695433974266 0.08041654527187347 0.6806267499923706
v -0.049618542194366455 0.072996586561203 0.7203488945960999
v -0.04471050202846527 0.08072036504745483 0.7279095649719238
v -0.0455581396818161 0.07803408801555634 0.7214895486831665
v 0.00963328406214714 0.05606947839260101 0.700160026550293
v -0.0722433403134346 0.07334353774785995 0.7391623258590698
v 0.04382884502410889 0.0949128270149231 0.7339913845062256
v 0.04420951008796692 0.09872215241193771 0.7213600873947144
v 0.03580625355243683 0.0967339426279068 0.7230130434036255
v 0.03497910499572754 0.0919632762670517 0.7367390990257263
v -0.07120086997747421 0.06870865821838379 0.728833019733429
v -0.07244907319545746 0.06917357444763184 0.7347444295883179
v -0.029691509902477264 0.059989817440509796 0.6839752793312073
v -0.03516480326652527 0.06334460526704788 0.6848859786987305
v -0.03441156446933746 0.06524280458688736 0.6817299127578735
v -0.02995036169886589 0.061188213527202606 0.6775290966033936
v 0.025330156087875366 0.08444924652576447 0.6852691769599915
v -0.010740362107753754 0.06899198889732361 0.667687714099884
v -0.01441151648759842 0.07601186633110046 0.6727370619773865
v 0.034352563321590424 0.09000308811664581 0.6921696066856384
v 0.031170159578323364 0.09397216886281967 0.7004308104515076
v 0.04059921205043793 0.09598046541213989 0.7009031772613525
v -0.033761098980903625 0.08377523720264435 0.7023860812187195
v 0.013671979308128357 0.09247476607561111 0.706067681312561
v 0.027716301381587982 0.09492390602827072 0.7071647644042969
v 0.03886313736438751 0.09733572602272034 0.7080520987510681
v 0.04685520380735397 0.09956111013889313 0.7079474925994873
v 0.047993727028369904 0.09762373566627502 0.700133204460144
v -0.0666823461651802 0.08619076013565063 0.7342338562011719
v -0.06905032694339752 0.08686309307813644 0.7291731238365173
v 0.056267984211444855 0.10098367929458618 0.6986912488937378
v 0.054758064448833466 0.10239396244287491 0.7077131867408752
v 0.024551652371883392 0.09515136480331421 0.7158234119415283
v 0.021014101803302765 0.09419148415327072 0.726015031337738
v 0.011078055948019028 0.09264546632766724 0.7143014669418335
v 0.006490111351013184 0.09156917035579681 0.7243032455444336
v -0.032367512583732605 0.08725149929523468 0.7121895551681519
v -0.08295445889234543 0.0951061099767685 0.7219721674919128
v -0.073644258081913 0.0885368287563324 0.7234461307525635
v -0.07497583329677582 0.0840640738606453 0.7197384238243103
v -0.08220604062080383 0.09246158599853516 0.7183986306190491
v -0.06900419294834137 0.08293784409761429 0.7227943539619446
v -0.07387416064739227 0.0899377316236496 0.7289389371871948
v 0.0033264830708503723 0.08658525347709656 0.7356000542640686
v -0.048767611384391785 0.0641045868396759 0.7186970114707947
v 0.018745653331279755 0.08695940673351288 0.7399153113365173
v -0.005245238542556763 0.07882895320653915 0.7456258535385132
v 0.005684446543455124 0.07748294621706009 0.7491070628166199
v 0.034397244453430176 0.08556801825761795 0.7469176650047302
v 0.019896171987056732 0.07867813855409622 0.7530061602592468
v 0.05237668752670288 0.09004028141498566 0.7414381504058838
v 0.043372415006160736 0.08837319910526276 0.7431563138961792
v 0.005377292633056641 0.07022292166948318 0.7558597326278687
v -0.08937396854162216 0.08015643060207367 0.7220578789710999
v -0.08558648824691772 0.082292839884758 0.7181230783462524
v 0.051907554268836975 0.0972411185503006 0.7330238819122314
v 0.003833591938018799 0.040729787200689316 0.734735369682312
v 0.019961319863796234 0.05425048619508743 0.7034371495246887
v 0.01846199482679367 0.056445710361003876 0.7082402110099792
v 0.027703329920768738 0.05174238979816437 0.6863369941711426
v 0.022997483611106873 0.05100458115339279 0.6968921422958374
v -0.091570645570755 0.08091088384389877 0.7268595695495605
v -0.046522486954927444 0.07104944437742233 0.6990730166435242
v -0.04635460674762726 0.07100197672843933 0.6964892745018005
v -0.0007324479520320892 0.04015874117612839 0.7506735920906067
v -0.007615376263856888 0.0384712889790535 0.7476963400840759
v -0.015391770750284195 0.04762224853038788 0.7533575892448425
v -0.011610466986894608 0.04156388342380524 0.7525333166122437
v -0.004407476633787155 0.045327216386795044 0.7559641599655151
v -0.00777018815279007 0.052211225032806396 0.7565051317214966
v 0.029272377490997314 0.053304173052310944 0.7104909420013428
v 0.02949121594429016 0.05234839767217636 0.7066473364830017
v 0.028796285390853882 0.07287299633026123 0.678871750831604
v 0.0289715975522995 0.061480555683374405 0.6776686310768127
v -0.04793744534254074 0.07478587329387665 0.7440593242645264
v -0.039007700979709625 0.07998193055391312 0.7419876456260681
v -0.04725950211286545 0.0809314101934433 0.7414083480834961
v -0.052403826266527176 0.08523762226104736 0.7359411120414734
v -0.052168577909469604 0.0691821277141571 0.7186003923416138
v -0.05012834444642067 0.07447843253612518 0.724467396736145
v 0.0379723384976387 0.04930288344621658 0.7277060151100159
v 0.027625255286693573 0.05181626230478287 0.7223811745643616
v -0.0074760690331459045 0.04634630307555199 0.7338098883628845
v -0.012472204864025116 0.04837769642472267 0.7322055697441101
v -0.027219701558351517 0.059858303517103195 0.7116631269454956
v -0.042914897203445435 0.08360051363706589 0.7041319012641907
v -0.04292527586221695 0.08562082797288895 0.7118567228317261
v -0.0370919369161129 0.06080752983689308 0.7113290429115295
v -0.09121488034725189 0.08819931745529175 0.7309157848358154
v -0.09227760136127472 0.08353126049041748 0.7293475866317749
v -0.045272715389728546 0.08417587727308273 0.7359833717346191
v -0.02154693193733692 0.056701064109802246 0.691109836101532
v -0.03809940814971924 0.0809599906206131 0.6983736753463745
v -0.04461986571550369 0.07867995649576187 0.7004263401031494
v -0.00961218774318695 0.06034385785460472 0.6672975420951843
v 0.05284059792757034 0.10074296593666077 0.7209264636039734
v -0.07816994190216064 0.07945439964532852 0.7198020219802856
v -0.08255326747894287 0.08607836812734604 0.7162360548973083
v -0.08401666581630707 0.09580273181200027 0.7260487079620361
v -0.0868518128991127 0.09318329393863678 0.7304413318634033
v 0.0382794514298439 0.061659518629312515 0.6828912496566772
v 0.017191298305988312 0.057658176869153976 0.7113157510757446
v -0.007163733243942261 0.06262795627117157 0.7548232674598694
v -0.017313726246356964 0.054571956396102905 0.7509515285491943
v -0.04416293650865555 0.06283172965049744 0.7100924849510193
v -0.02101430669426918 0.07393449544906616 0.6781317591667175
v -0.02972915768623352 0.08282063156366348 0.6898506283760071
v -0.03503197431564331 0.08324087411165237 0.6868535280227661
v -0.041485968977212906 0.08262933045625687 0.6903504729270935
v -0.04723416268825531 0.0778483971953392 0.6920115351676941
v -0.08815030753612518 0.09766848385334015 0.7224435806274414
v -0.09192803502082825 0.09528961777687073 0.7262994050979614
v -0.09590549767017365 0.09066919982433319 0.7258518934249878
v -0.09641338139772415 0.08592989295721054 0.724675714969635
v -0.09413985908031464 0.08251116424798965 0.7228531241416931
v -0.08669404685497284 0.09699434041976929 0.7185075879096985
v -0.08575239032506943 0.09444911777973175 0.7157191038131714
v -0.08480878174304962 0.0879938080906868 0.7148808240890503
v -0.08844674378633499 0.09813004732131958 0.7148109078407288
v -0.09252732992172241 0.1001894623041153 0.7166508436203003
v -0.10407404601573944 0.09423738718032837 0.7146734595298767
v -0.10073065757751465 0.09455949068069458 0.7193399667739868
v -0.10106314718723297 0.09639336913824081 0.7176257967948914
v -0.10372819006443024 0.09718844294548035 0.7136753797531128
v -0.1058560460805893 0.09941071271896362 0.7097397446632385
v -0.10673481225967407 0.09604529291391373 0.7102357149124146
v -0.09703333675861359 0.09816340357065201 0.7186592221260071
v -0.10022583603858948 0.09990137070417404 0.7133138179779053
v -0.09677466750144958 0.10145770758390427 0.7115743160247803
v -0.09983938187360764 0.10358791798353195 0.707755446434021
v -0.10317201912403107 0.10241253674030304 0.7092493772506714
v -0.0949644073843956 0.10029546916484833 0.7154656052589417
v -0.09602844715118408 0.09800519794225693 0.7204280495643616
v -0.10703569650650024 0.09864815324544907 0.7066497802734375
v -0.10660384595394135 0.10094442963600159 0.7074942588806152
v -0.10428912937641144 0.10308360308408737 0.7066189646720886
v -0.10482034087181091 0.10205352306365967 0.7038890719413757
v -0.09945859014987946 0.08853108435869217 0.7202900052070618
v -0.10389120876789093 0.09188584238290787 0.7138336896896362
v -0.10527908802032471 0.0939662754535675 0.7085314393043518
v -0.10568270087242126 0.09676899015903473 0.705145537853241
v -0.10194843262434006 0.09024607390165329 0.7108030915260315
v -0.10309897363185883 0.09285952895879745 0.7069978713989258
v -0.10304903984069824 0.0952666699886322 0.7038792967796326
v -0.09897753596305847 0.08992446959018707 0.707892119884491
v -0.10053490102291107 0.09273572266101837 0.7051891684532166
v -0.09329941868782043 0.08379863202571869 0.7169978618621826
v -0.09620507061481476 0.08454592525959015 0.7196594476699829
v -0.10130438953638077 0.09422232210636139 0.7032380104064941
v -0.10361678898334503 0.10076192766427994 0.7026544213294983
v -0.09325375407934189 0.1009066179394722 0.7109256386756897
v -0.09736284613609314 0.10255908966064453 0.7058477401733398
v -0.09181512892246246 0.09979338198900223 0.7095770835876465
v -0.09559828042984009 0.10169543325901031 0.7044569849967957
v -0.10044321417808533 0.10398725420236588 0.7033689022064209
v -0.10162968933582306 0.10399284213781357 0.7056455612182617
v -0.09031173586845398 0.08160363137722015 0.7197876572608948
v -0.08642365038394928 0.08415912836790085 0.7163615822792053
v -0.0886145532131195 0.08610011637210846 0.7140744924545288
v -0.09501829743385315 0.09135423600673676 0.7058477997779846
v -0.08656282722949982 0.08976607024669647 0.7124577760696411
v -0.08747972548007965 0.09580477327108383 0.7122074961662292
v -0.09143079072237015 0.0981411561369896 0.707342267036438
v -0.09192271530628204 0.09523545950651169 0.7058122754096985
v -0.0947946310043335 0.09941355139017105 0.7037177681922913
v -0.09530656039714813 0.09690894186496735 0.7034264206886292
v -0.0975864827632904 0.09397157281637192 0.703526496887207
v -0.09817110002040863 0.09964713454246521 0.7017470002174377
v -0.09924401342868805 0.10236789286136627 0.7023219466209412
v -0.10154245048761368 0.09821148961782455 0.7019455432891846
v -0.0974503606557846 0.09781580418348312 0.7020163536071777
v -0.09986662864685059 0.09625254571437836 0.7025529742240906
v -0.08075244724750519 0.07476193457841873 0.6907831430435181
v -0.07674546539783478 0.07744383066892624 0.6871768236160278
v -0.07276860624551773 0.07374376058578491 0.6917740106582642
v -0.07617141306400299 0.07238063216209412 0.6953758597373962
v -0.0823972225189209 0.08351082354784012 0.7011678814888
v -0.08407921344041824 0.07835323363542557 0.6984758973121643
v -0.07952061295509338 0.07787465304136276 0.7033799290657043
v -0.07672619819641113 0.08387289196252823 0.7043097019195557
v -0.07803984731435776 0.0882251039147377 0.6996440291404724
v -0.07211118936538696 0.08727274090051651 0.701670229434967
v -0.07335095852613449 0.08556681871414185 0.7068349123001099
v -0.0749773234128952 0.07859057933092117 0.706893801689148
v -0.05643036216497421 0.07521218061447144 0.7158796191215515
v -0.0558406226336956 0.08247435837984085 0.7153741121292114
v -0.0494350790977478 0.06802771240472794 0.7016134858131409
v -0.049772001802921295 0.07204403728246689 0.7000390291213989
v -0.08303011953830719 0.07554797828197479 0.694287121295929
v -0.07869638502597809 0.07413480430841446 0.6996340751647949
v -0.06534263491630554 0.07735129445791245 0.6895252466201782
v -0.06758107990026474 0.07286740839481354 0.6915479898452759
v -0.0701461210846901 0.07627537101507187 0.6884279847145081
v -0.06813324987888336 0.08090589195489883 0.6880214810371399
v -0.053738418966531754 0.06730329245328903 0.7125176787376404
v -0.05049210414290428 0.06665646284818649 0.7073764801025391
v -0.05579054728150368 0.0704217255115509 0.7142743468284607
v -0.06451474130153656 0.08362522721290588 0.6910383105278015
v -0.06548412144184113 0.08892491459846497 0.6951631903648376
v -0.05062788352370262 0.08650143444538116 0.7030643224716187
v -0.0498422347009182 0.08104681223630905 0.6995614767074585
v -0.0749770775437355 0.07363393902778625 0.7042340040206909
v -0.07057693600654602 0.07060699909925461 0.695662260055542
v -0.07319007813930511 0.07043048739433289 0.6998403668403625
v -0.06922367215156555 0.08919405937194824 0.702107310295105
v -0.06929434835910797 0.08903895318508148 0.6950763463973999
v -0.08058777451515198 0.09571598470211029 0.6826268434524536
v -0.07222039997577667 0.08961870521306992 0.6895021200180054
v -0.07227074354887009 0.0857728123664856 0.68611741065979
v -0.07983264327049255 0.0925416424870491 0.6786743998527527
v -0.06788873672485352 0.08581569790840149 0.6907329559326172
v -0.07441522181034088 0.09076051414012909 0.6943017244338989
v -0.08944207429885864 0.08247895538806915 0.6796345114707947
v -0.08464619517326355 0.08502025157213211 0.6763693690299988
v -0.09251447021961212 0.08300822973251343 0.683030903339386
v -0.05318994075059891 0.08735856413841248 0.7097771763801575
v -0.09221026301383972 0.08933927863836288 0.691031277179718
v -0.09358575940132141 0.08467593044042587 0.6868299245834351
v -0.07356631010770798 0.08128781616687775 0.685097336769104
v -0.08131031692028046 0.08876694738864899 0.6761102080345154
v -0.08286011219024658 0.09681597352027893 0.6865066885948181
v -0.08725471049547195 0.09386888891458511 0.6917088627815247
v -0.0857231393456459 0.09849941730499268 0.6815863847732544
v -0.09080015122890472 0.09683746099472046 0.6852713227272034
v -0.09575429558753967 0.09229430556297302 0.6845555305480957
v -0.09632451087236404 0.08710360527038574 0.6816726326942444
v -0.0944719985127449 0.08462777733802795 0.6793175339698792
v -0.08342581242322922 0.09711660444736481 0.6781894564628601
v -0.08251143991947174 0.09366446733474731 0.6749495267868042
v -0.08338381350040436 0.08875347673892975 0.6741936802864075
v -0.08546110987663269 0.09694623947143555 0.671811044216156
v -0.08857522904872894 0.09944029897451401 0.6737281084060669
v -0.10326433926820755 0.09287818521261215 0.6645943522453308
v -0.10151980072259903 0.09298183023929596 0.6702654957771301
v -0.1005060151219368 0.09534895420074463 0.6697286367416382
v -0.10209234058856964 0.09546288102865219 0.6645568609237671
v -0.09945829957723618 0.09482801705598831 0.6759430766105652
v -0.09871453046798706 0.0963163748383522 0.6739176511764526
v -0.09466514736413956 0.09859097003936768 0.6743150949478149
v -0.09667491167783737 0.09798304736614227 0.6685631275177002
v -0.09195661544799805 0.09881959855556488 0.6676506400108337
v -0.09394101053476334 0.09945322573184967 0.662480890750885
v -0.09870561957359314 0.0988924503326416 0.6631629467010498
v -0.09167444705963135 0.09938200563192368 0.671889066696167
v -0.10230622440576553 0.09610743075609207 0.6610665321350098
v -0.1026209220290184 0.09426921606063843 0.6592425107955933
v -0.09410133957862854 0.09883835166692734 0.6775828003883362
v -0.09865430742502213 0.08904282003641129 0.6780286431312561
v -0.10147256404161453 0.08998153358697891 0.6695429086685181
v -0.10246037691831589 0.09010948240756989 0.6631054878234863
v -0.10078330338001251 0.09239882975816727 0.6576851606369019
v -0.09919761121273041 0.08719347417354584 0.6673479080200195
v -0.10011136531829834 0.08842623978853226 0.6616425514221191
v -0.09853369742631912 0.09083988517522812 0.6575857400894165
v -0.0953320562839508 0.08556684851646423 0.665107786655426
v -0.09629153460264206 0.08761842548847198 0.659957230091095
v -0.09213609993457794 0.08383211493492126 0.6748553514480591
v -0.0961344838142395 0.08515198528766632 0.6766980886459351
v -0.09667381644248962 0.08943028002977371 0.6581678986549377
v -0.09964858740568161 0.09757786244153976 0.6572769284248352
v -0.09809209406375885 0.09499809890985489 0.6557733416557312
v -0.09967988729476929 0.09828217327594757 0.659030020236969
v -0.08989724516868591 0.09858453273773193 0.6670775413513184
v -0.09231977164745331 0.09850436449050903 0.6612648963928223
v -0.08794715255498886 0.09706099331378937 0.6656613349914551
v -0.09102576225996017 0.09720903635025024 0.6596594452857971
v -0.09501320123672485 0.09861741960048676 0.6575157642364502
v -0.09620478004217148 0.09924067556858063 0.6585689783096313
v -0.09086786955595016 0.08392812311649323 0.677128791809082
v -0.08606190979480743 0.08573822677135468 0.6749089360237122
v -0.08702743053436279 0.08509695529937744 0.6731271147727966
v -0.09051752835512161 0.08712339401245117 0.6637234687805176
v -0.08389261364936829 0.08854213356971741 0.6722760200500488
v -0.08400054275989532 0.09368564933538437 0.6709963083267212
v -0.08675090223550797 0.09458105266094208 0.6649285554885864
v -0.0874595195055008 0.09084802865982056 0.6636705994606018
v -0.08961724489927292 0.09565967321395874 0.6589900851249695
v -0.0893574059009552 0.09247660636901855 0.6598072648048401
v -0.09240361303091049 0.08874210715293884 0.6594233512878418
v -0.09285378456115723 0.09558672457933426 0.6558380126953125
v -0.09413473308086395 0.09750006347894669 0.6564404368400574
v -0.09669289737939835 0.09326586127281189 0.6558929085731506
v -0.09175494313240051 0.09307089447975159 0.6569546461105347
v -0.09476184844970703 0.09094513207674026 0.6569374799728394
v -0.06403663009405136 0.07025234401226044 0.6674003005027771
v -0.059628527611494064 0.06794538348913193 0.6653578281402588
v -0.057109128683805466 0.066648468375206 0.6703476905822754
v -0.061510004103183746 0.06932001560926437 0.6725142598152161
v -0.062075961381196976 0.08330078423023224 0.6686819791793823
v -0.06539346277713776 0.079417884349823 0.6690313816070557
v -0.06314335018396378 0.07893499732017517 0.6734449863433838
v -0.05921269953250885 0.08305340260267258 0.6738533973693848
v -0.05795149505138397 0.08485694229602814 0.6651925444602966
v -0.05395093932747841 0.08416617661714554 0.6713063716888428
v -0.05623157322406769 0.08448700606822968 0.6774943470954895
v -0.06055091693997383 0.07964786887168884 0.6774260997772217
v -0.050445184111595154 0.07840751856565475 0.6880500912666321
v -0.04638541489839554 0.08387352526187897 0.6861281991004944
v -0.06560055911540985 0.0746319517493248 0.6683754324913025
v -0.06351169943809509 0.07394763827323914 0.6729974746704102
v -0.04845608025789261 0.06868217140436172 0.6688395142555237
v -0.05184701085090637 0.06633727997541428 0.6709689497947693
v -0.052768170833587646 0.06726783514022827 0.6674991846084595
v -0.05018257722258568 0.06995955854654312 0.6659103035926819
v -0.04823897033929825 0.06767556816339493 0.6899763345718384
v -0.0430268868803978 0.06571647524833679 0.6870997548103333
v -0.05114316567778587 0.07240818440914154 0.6889771819114685
v -0.04623451828956604 0.07489418983459473 0.6681416034698486
v -0.04620496556162834 0.08179715275764465 0.6699448227882385
v -0.036865536123514175 0.07920621335506439 0.6776857376098633
v -0.03689410537481308 0.07299209386110306 0.6778973937034607
v -0.061340779066085815 0.07447640597820282 0.6771184206008911
v -0.055689774453639984 0.06627917289733887 0.6742828488349915
v -0.05997362732887268 0.06921539455652237 0.6763330698013306
v -0.050788454711437225 0.08506132662296295 0.674238383769989
v -0.049835409969091415 0.08113907277584076 0.6674196720123291
v -0.05854811519384384 0.08116164058446884 0.6471033096313477
v -0.05041639879345894 0.07736679911613464 0.6615121960639954
v -0.052081264555454254 0.07176350057125092 0.6612840294837952
v -0.05851323530077934 0.076744943857193 0.6463065147399902
v -0.048522479832172394 0.0754823163151741 0.6649942398071289
v -0.05252976715564728 0.08273489773273468 0.6628904342651367
v -0.07006952166557312 0.07245123386383057 0.6513662934303284
v -0.06511460244655609 0.07096011191606522 0.6496185660362244
v -0.07151258736848831 0.07586217671632767 0.6536513566970825
v -0.0406201034784317 0.08478555083274841 0.6819277405738831
v -0.038463324308395386 0.06712497025728226 0.6814505457878113
v -0.0703900009393692 0.08332712948322296 0.6535484194755554
v -0.07202417403459549 0.07928687334060669 0.6540930867195129
v -0.05498243123292923 0.06884749978780746 0.6629464030265808
v -0.06056056171655655 0.07281610369682312 0.6472092866897583
v -0.06064051762223244 0.08456508070230484 0.6494108438491821
v -0.06534874439239502 0.0859541967511177 0.6526448130607605
v -0.06259861588478088 0.08392490446567535 0.6438332796096802
v -0.06753996014595032 0.08541403710842133 0.646858274936676
v -0.07270503044128418 0.08363008499145508 0.6477964520454407
v -0.07420080155134201 0.07965131103992462 0.6488136053085327
v -0.07380467653274536 0.07608767598867416 0.6488436460494995
v -0.06083846092224121 0.0798737034201622 0.6419442892074585
v -0.0611255057156086 0.07583632320165634 0.6419804096221924
v -0.062498368322849274 0.07306157052516937 0.6452307105064392
v -0.062254972755908966 0.07766982913017273 0.6379600167274475
v -0.06536663323640823 0.08217399567365646 0.6371594071388245
v -0.07961257547140121 0.07794451713562012 0.6308318376541138
v -0.07756294310092926 0.07939563691616058 0.635794460773468
v -0.07670510560274124 0.08007398247718811 0.6351633071899414
v -0.07873495668172836 0.0790770947933197 0.6299634575843811
v -0.07464230060577393 0.08262141793966293 0.6405258774757385
v -0.07423180341720581 0.08260497450828552 0.6385883688926697
v -0.07063479721546173 0.08340638875961304 0.6378423571586609
v -0.07265060395002365 0.08139832317829132 0.6322813034057617
v -0.06739841401576996 0.0788872241973877 0.6315922141075134
v -0.07009166479110718 0.07771670073270798 0.6274256110191345
v -0.07485784590244293 0.08029419183731079 0.6275663375854492
v -0.06687519699335098 0.08187486976385117 0.6359536051750183
v -0.07885628193616867 0.07829974591732025 0.6269252300262451
v -0.08090117573738098 0.07778662443161011 0.6267895698547363
v -0.07007293403148651 0.0841783732175827 0.6399523019790649
v -0.07681342959403992 0.07972300052642822 0.6436889171600342
v -0.07907838374376297 0.07726618647575378 0.6370407938957214
v -0.08149103075265884 0.07540864497423172 0.6320962905883789
v -0.08096465468406677 0.07424948364496231 0.6279035806655884
v -0.07842539250850677 0.07367528975009918 0.6378003358840942
v -0.0801704078912735 0.07261623442173004 0.6328881978988647
v -0.07980315387248993 0.07164416462182999 0.6290395259857178
v -0.07647237181663513 0.07101790606975555 0.6377856731414795
v -0.07778346538543701 0.07043425738811493 0.63315349817276
v -0.07276181876659393 0.07304399460554123 0.6464624404907227
v -0.07568633556365967 0.0761992409825325 0.6456358432769775
v -0.07814350724220276 0.07040482014417648 0.6300192475318909
v -0.07707954943180084 0.07749366760253906 0.6238887310028076
v -0.07680930197238922 0.07327950745820999 0.6243115067481995
v -0.07627806067466736 0.07822297513484955 0.625343918800354
v -0.06588538736104965 0.07783316820859909 0.6319998502731323
v -0.06872380524873734 0.076058030128479 0.6263818144798279
v -0.0649326965212822 0.07511892914772034 0.6326450109481812
v -0.06783522665500641 0.07345245033502579 0.6270307898521423
v -0.07206982374191284 0.07625208795070648 0.6237720251083374
v -0.07248516380786896 0.07707462459802628 0.6245733499526978
v -0.07080020010471344 0.0731218084692955 0.6486263275146484
v -0.0663575828075409 0.07169658690690994 0.64719158411026
v -0.06854340434074402 0.07127352058887482 0.6455343961715698
v -0.07266926765441895 0.06897208839654922 0.6364021897315979
v -0.06438042223453522 0.07184295356273651 0.6435804963111877
v -0.0630577802658081 0.07401442527770996 0.6385329365730286
v -0.06591031700372696 0.07215762883424759 0.6335976719856262
v -0.06859428435564041 0.06972519308328629 0.6345641613006592
v -0.06841488182544708 0.07100674510002136 0.628412663936615
v -0.07005251944065094 0.06989218294620514 0.6305528879165649
v -0.07442563772201538 0.06849916279315948 0.632085919380188
v -0.07196503132581711 0.07131167501211166 0.626162052154541
v -0.07161738723516464 0.07351143658161163 0.6242176294326782
v -0.07644728571176529 0.07081544399261475 0.6262688636779785
v -0.07241421937942505 0.0698365718126297 0.6281245350837708
v -0.07580752670764923 0.06946027278900146 0.6283305287361145
v -0.039804454892873764 0.06526903808116913 0.684204638004303
v -0.041643932461738586 0.07320912182331085 0.6449461579322815
v -0.038122713565826416 0.07149256765842438 0.6435890197753906
v -0.0365813709795475 0.0688605010509491 0.646327555179596
v -0.04042232036590576 0.06936042010784149 0.6478867530822754
v -0.03967619687318802 0.0819934755563736 0.6514608860015869
v -0.04259186238050461 0.079282246530056 0.6494906544685364
v -0.0426318421959877 0.0765218436717987 0.6532818078994751
v -0.04030996561050415 0.07966670393943787 0.6548873782157898
v -0.03520684689283371 0.08301256597042084 0.6508337259292603
v -0.035743337124586105 0.08043915778398514 0.6538141369819641
v -0.039003293961286545 0.07757068425416946 0.6575716137886047
v -0.0409550666809082 0.07329466938972473 0.6571030616760254
v -0.029672814533114433 0.06950292736291885 0.6726263761520386
v -0.026168595999479294 0.07386795431375504 0.6724715232849121
v -0.013866376131772995 0.0621626079082489 0.6657999157905579
v -0.016986936330795288 0.057498954236507416 0.669073760509491
v -0.021987799555063248 0.061304762959480286 0.6626625061035156
v -0.018705377355217934 0.06504789739847183 0.6615995168685913
v -0.04306357353925705 0.07612244039773941 0.6471235752105713
v -0.04286666959524155 0.07238593697547913 0.6506223678588867
v -0.026444464921951294 0.07074421644210815 0.6495962142944336
v -0.029870543628931046 0.06738077849149704 0.6492507457733154
v -0.03242379426956177 0.06837856769561768 0.6458583474159241
v -0.02864019013941288 0.07033981382846832 0.6463552117347717
v -0.021714331582188606 0.057593367993831635 0.6720731258392334
v -0.025027617812156677 0.05891361087560654 0.6758650541305542
v -0.027936113998293877 0.05966942384839058 0.6708672642707825
v -0.02600814774632454 0.0600568912923336 0.6648584604263306
v -0.031561680138111115 0.06308387219905853 0.6722975373268127
v -0.025992240756750107 0.07476271688938141 0.6508665680885315
v -0.028683673590421677 0.07865378260612488 0.6536270976066589
v -0.01658039540052414 0.07409903407096863 0.6649255752563477
v -0.016365356743335724 0.06964382529258728 0.6634445190429688
v -0.04141850396990776 0.06912064552307129 0.6547171473503113
v -0.03404884785413742 0.06626702100038528 0.6501293182373047
v -0.03844021260738373 0.06595278531312943 0.6519509553909302
v -0.034398384392261505 0.08028096705675125 0.6553083062171936
v -0.030132845044136047 0.07848992943763733 0.6516280770301819
v -0.029061028733849525 0.08102276921272278 0.6376668214797974
v -0.02769910916686058 0.07575401663780212 0.6457195281982422
v -0.02996661886572838 0.0722891092300415 0.6429827213287354
v -0.03064114600419998 0.07917646318674088 0.6362131237983704
v -0.027615098282694817 0.07417041808366776 0.6484224200248718
v -0.029770104214549065 0.0805828869342804 0.6487264633178711
v -0.04256866127252579 0.07957715541124344 0.6369612216949463
v -0.03805723041296005 0.07726912200450897 0.6358628869056702
v -0.04357171431183815 0.08184858411550522 0.638846755027771
v -0.021581221371889114 0.07681604474782944 0.668853223323822
v -0.03982339799404144 0.08697155863046646 0.6424030065536499
v -0.04311973601579666 0.08485855162143707 0.640434205532074
v -0.03417067974805832 0.0710965245962143 0.642719566822052
v -0.03387559577822685 0.07762344926595688 0.6358203887939453
v -0.029658157378435135 0.08422333747148514 0.6401227712631226
v -0.03432268649339676 0.0873594880104065 0.6427413821220398
v -0.029454544186592102 0.08665615320205688 0.6363348960876465
v -0.03435853496193886 0.0893591046333313 0.639173686504364
v -0.04012628272175789 0.08926858007907867 0.6379200220108032
v -0.04271663725376129 0.0867522582411766 0.6370257139205933
v -0.04348793625831604 0.08406642079353333 0.6355314254760742
v -0.02879364788532257 0.08304911851882935 0.6339408159255981
v -0.030453048646450043 0.08068012446165085 0.6326978802680969
v -0.03388896584510803 0.07866653800010681 0.6325393319129944
v -0.028593912720680237 0.0851515382528305 0.6301748156547546
v -0.029686547815799713 0.08966626226902008 0.6310597062110901
v -0.03987375274300575 0.0922607034444809 0.622849702835083
v -0.04014609009027481 0.09115312993526459 0.626595675945282
v -0.03911672905087471 0.09179027378559113 0.6268684267997742
v -0.03944908827543259 0.09331393241882324 0.6231771111488342
v -0.03929801285266876 0.09083307534456253 0.6318198442459106
v -0.03798922151327133 0.09141024947166443 0.6308388710021973
v -0.03462373465299606 0.09126352518796921 0.6320627331733704
v -0.03507146239280701 0.09292471408843994 0.6271976232528687
v -0.030286747962236404 0.09114423394203186 0.6256287693977356
v -0.03125378489494324 0.09257294237613678 0.6220484972000122
v -0.0352344736456871 0.0942787304520607 0.6238149404525757
v -0.030852708965539932 0.09102355688810349 0.6301315426826477
v -0.03858940303325653 0.09454211592674255 0.6210792660713196
v -0.039271801710128784 0.09451480954885483 0.6199002265930176
v -0.034776363521814346 0.09119035303592682 0.6338223218917847
v -0.04228154197335243 0.08784877508878708 0.6321343779563904
v -0.04172695055603981 0.08975852280855179 0.6254063844680786
v -0.04097107797861099 0.0916244313120842 0.6209629774093628
v -0.03898562490940094 0.0930166095495224 0.6182963848114014
v -0.041971851140260696 0.08719950914382935 0.6253498196601868
v -0.04122127592563629 0.0895652025938034 0.6199708580970764
v -0.03913009911775589 0.09084465354681015 0.6174352169036865
v -0.04086080566048622 0.08419904112815857 0.6247779130935669
v -0.03997666388750076 0.08720441907644272 0.6200191974639893
v -0.041290976107120514 0.08134756982326508 0.6310849785804749
v -0.042594391852617264 0.0846351832151413 0.631659746170044
v -0.03861340507864952 0.08919782936573029 0.6181100606918335
v -0.03568577766418457 0.09510861337184906 0.619145929813385
v -0.03593754395842552 0.09298911690711975 0.617302417755127
v -0.03529651090502739 0.09523420035839081 0.6204390525817871
v -0.02944786846637726 0.09007126837968826 0.6253702640533447
v -0.030559472739696503 0.09172064065933228 0.6209931373596191
v -0.029050573706626892 0.08756384253501892 0.6245522499084473
v -0.030807238072156906 0.08993086218833923 0.6198533773422241
v -0.03245671093463898 0.09356915950775146 0.6188392639160156
v -0.03290911018848419 0.09403933584690094 0.6204948425292969
v -0.042084068059921265 0.0807279422879219 0.6335530877113342
v -0.03849513828754425 0.07860139012336731 0.6332535147666931
v -0.03767154738306999 0.07952440530061722 0.6305765509605408
v -0.03759650141000748 0.0822635218501091 0.6243000626564026
v -0.03307747468352318 0.07964712381362915 0.6300677061080933
v -0.02997233346104622 0.08212792128324509 0.6299835443496704
v -0.030426613986492157 0.08512024581432343 0.6239678859710693
v -0.033198025077581406 0.08298517763614655 0.6236504316329956
v -0.031990230083465576 0.08824460953474045 0.619031548500061
v -0.03425988182425499 0.08619172871112823 0.6191319227218628
v -0.0373486652970314 0.08559951186180115 0.6196338534355164
v -0.034240398555994034 0.09036816656589508 0.617255687713623
v -0.03326742351055145 0.09194612503051758 0.617478609085083
v -0.036313991993665695 0.09096944332122803 0.6170350909233093
v -0.03528729826211929 0.08872919529676437 0.6174554228782654
v -0.036835551261901855 0.08876891434192657 0.6176494359970093
v -0.01422317698597908 0.06625977903604507 0.6646977663040161
v -0.027012713253498077 0.04837479069828987 0.7401922941207886
v -0.025472121313214302 0.04876895993947983 0.7350435853004456
v -0.016605116426944733 0.034774068742990494 0.7318934202194214
v -0.02004392258822918 0.0403241403400898 0.7287938594818115
v -0.016385484486818314 0.03145443648099899 0.7380924224853516
v -0.02077554166316986 0.034539543092250824 0.7480106353759766
v -0.01741083338856697 0.03218385577201843 0.7440502047538757
v -0.023290982469916344 0.04536866396665573 0.7303489446640015
v -0.02697238139808178 0.04585949331521988 0.7455076575279236
v -0.024364931508898735 0.04013960063457489 0.7494800090789795
v -0.03397134691476822 0.04027130454778671 0.7422457337379456
v -0.031115327030420303 0.03417656570672989 0.746306300163269
v -0.027012549340724945 0.02820124477148056 0.745538592338562
v -0.02133103460073471 0.02681497484445572 0.7411506175994873
v -0.0189250186085701 0.027141734957695007 0.736636757850647
v -0.03138405829668045 0.04354824870824814 0.7364157438278198
v -0.02902696281671524 0.04398813843727112 0.7315765619277954
v -0.02464626170694828 0.04131680727005005 0.7276918292045593
v -0.03633047267794609 0.03853125125169754 0.7307994365692139
v -0.041874028742313385 0.029506981372833252 0.7306493520736694
v -0.03919895738363266 0.010153405368328094 0.7277930378913879
v -0.035173021256923676 0.014264710247516632 0.7314316630363464
v -0.03787101432681084 0.01546061784029007 0.731542706489563
v -0.04149860143661499 0.01133805513381958 0.728707492351532
v -0.034633371978998184 0.01838591694831848 0.7351111769676208
v -0.03669358789920807 0.018962018191814423 0.7339186668395996
v -0.03934222459793091 0.02358062192797661 0.7336736917495728
v -0.04256174713373184 0.0196821466088295 0.7306301593780518
v -0.04175812005996704 0.02663426101207733 0.7302284836769104
v -0.043907757848501205 0.024573545902967453 0.7269415855407715
v -0.045959118753671646 0.01599830389022827 0.7277242541313171
v -0.04509042203426361 0.010078169405460358 0.7270928621292114
v -0.04849281162023544 0.012716583907604218 0.7249687910079956
v -0.0433846041560173 0.008521467447280884 0.7246785759925842
v -0.04032862186431885 0.0242607519030571 0.7361006736755371
v -0.02769218385219574 0.019616305828094482 0.7364204525947571
v -0.03138846158981323 0.014330379664897919 0.7305057048797607
v -0.03601987287402153 0.010338984429836273 0.7255261540412903
v -0.041215814650058746 0.00902094691991806 0.7221561670303345
v -0.028357762843370438 0.015850253403186798 0.727194607257843
v -0.033515773713588715 0.01302666962146759 0.7227743864059448
v -0.03841205686330795 0.012628234922885895 0.719624400138855
v -0.027635712176561356 0.019373521208763123 0.7234995365142822
v -0.03318173065781593 0.016460038721561432 0.7203782796859741
v -0.020563606172800064 0.028122812509536743 0.7297360301017761
v -0.022033419460058212 0.022631295025348663 0.733925461769104
v -0.037078529596328735 0.015205368399620056 0.7191053628921509
v -0.048522014170885086 0.011382251977920532 0.7221595048904419
v -0.0459708608686924 0.012143738567829132 0.7193616628646851
v -0.04361904039978981 0.027744870632886887 0.7252907752990723
v -0.04751291498541832 0.021181724965572357 0.7242972254753113
v -0.046690184623003006 0.02309258282184601 0.7218421101570129
v -0.0413290411233902 0.030635874718427658 0.7233732342720032
v -0.045101068913936615 0.024283550679683685 0.7196356654167175
v -0.04910963773727417 0.017653360962867737 0.7206384539604187
v -0.04922842979431152 0.017255358397960663 0.7236096858978271
v -0.01805707812309265 0.03098975121974945 0.7313117384910583
v -0.020341165363788605 0.03673300892114639 0.728198766708374
v -0.022397154942154884 0.034125011414289474 0.7268862128257751
v -0.029544001445174217 0.0254594087600708 0.7207244038581848
v -0.027089273557066917 0.037925347685813904 0.7253929972648621
v -0.032663945108652115 0.039358951151371 0.7274187803268433
v -0.03821998089551926 0.03128200024366379 0.7211512327194214
v -0.03376466780900955 0.029744427651166916 0.7199572920799255
v -0.04170684516429901 0.02428530901670456 0.7179931402206421
v -0.038718681782484055 0.023411978036165237 0.7177886366844177
v -0.035194024443626404 0.01997235417366028 0.7183347940444946
v -0.043368373066186905 0.01910412311553955 0.7172482013702393
v -0.04691353067755699 0.01861955225467682 0.7182614803314209
v -0.04217221587896347 0.014763377606868744 0.7177910208702087
v -0.040663108229637146 0.01988515630364418 0.717424213886261
v -0.03920049965381622 0.01707799732685089 0.71783447265625
v -0.012153074145317078 0.05542032793164253 0.6718706488609314
v -0.016173165291547775 0.05458235740661621 0.6771796941757202
v -0.009071789681911469 0.05310332030057907 0.6781907677650452
v 0.000819627195596695 0.052268534898757935 0.6805108785629272
v 0.01116551086306572 0.0539311021566391 0.6774342656135559
v -0.0011079199612140656 0.053229447454214096 0.6869261860847473
v -0.011149819940328598 0.05393625795841217 0.6842135190963745
v -0.021377531811594963 0.05648887902498245 0.6828672885894775
v 0.005329400300979614 0.055084049701690674 0.6950320601463318
f 2 3 1
f 1 3 4
f 5 6 8
f 8 6 7
f 9 4 10
f 10 4 3
f 12 13 11
f 11 13 9
f 14 12 16
f 16 12 15
f 18 19 17
f 17 19 20
f 22 23 21
f 21 23 24
f 26 27 25
f 25 27 28
f 30 31 29
f 29 31 32
f 33 34 36
f 36 34 35
f 37 38 40
f 40 38 39
f 41 42 6
f 6 42 43
f 6 43 7
f 7 43 44
f 45 34 46
f 46 34 33
f 48 49 47
f 47 49 50
f 52 53 51
f 51 53 54
f 56 52 55
f 55 52 51
f 58 59 57
f 57 59 60
f 61 62 4
f 4 62 1
f 64 65 63
f 63 65 66
f 68 69 67
f 67 69 70
f 72 73 71
f 71 73 74
f 76 77 75
f 75 77 78
f 53 79 54
f 54 79 80
f 82 83 81
f 81 83 84
f 85 86 52
f 52 86 53
f 57 60 87
f 87 60 88
f 89 90 43
f 43 90 44
f 43 42 89
f 89 42 91
f 40 39 92
f 92 39 93
f 94 70 64
f 64 70 69
f 13 61 9
f 9 61 4
f 25 28 69
f 69 28 95
f 96 25 68
f 68 25 69
f 98 99 97
f 97 99 100
f 101 102 104
f 104 102 103
f 106 30 105
f 105 30 29
f 51 54 107
f 107 54 108
f 54 80 108
f 108 80 109
f 111 112 110
f 110 112 113
f 115 5 114
f 114 5 116
f 115 41 5
f 5 41 6
f 36 35 111
f 111 35 117
f 35 118 117
f 117 118 119
f 34 120 35
f 35 120 118
f 34 45 120
f 120 45 121
f 125 126 124
f 124 126 127
f 128 129 14
f 14 129 130
f 33 131 46
f 46 131 132
f 133 94 63
f 63 94 64
f 134 135 137
f 137 135 136
f 139 140 138
f 138 140 141
f 77 142 78
f 78 142 143
f 144 145 20
f 20 145 146
f 148 149 147
f 147 149 72
f 151 152 150
f 150 152 153
f 82 101 83
f 83 101 104
f 101 82 155
f 155 82 154
f 156 157 58
f 58 157 59
f 158 68 147
f 147 68 67
f 159 146 15
f 15 146 16
f 68 158 96
f 96 158 160
f 129 66 130
f 130 66 65
f 162 163 161
f 161 163 164
f 166 167 165
f 165 167 168
f 170 171 169
f 169 171 172
f 174 171 173
f 173 171 170
f 176 177 175
f 175 177 178
f 180 181 179
f 179 181 24
f 182 183 21
f 21 183 184
f 81 185 82
f 82 185 154
f 186 187 188
f 188 187 144
f 158 71 160
f 160 71 189
f 190 135 157
f 157 135 59
f 169 172 139
f 139 172 140
f 147 72 158
f 158 72 71
f 192 193 191
f 191 193 194
f 167 166 49
f 49 166 195
f 196 190 50
f 50 190 157
f 197 198 200
f 200 198 199
f 21 24 182
f 182 24 181
f 146 159 20
f 20 159 17
f 182 181 81
f 81 181 185
f 201 185 180
f 180 185 181
f 202 203 83
f 83 203 84
f 205 206 204
f 204 206 85
f 207 22 184
f 184 22 21
f 179 24 208
f 208 24 23
f 208 209 179
f 179 209 205
f 209 210 205
f 205 210 206
f 212 206 211
f 211 206 210
f 179 205 180
f 180 205 204
f 213 176 88
f 88 176 214
f 86 85 212
f 212 85 206
f 193 217 218
f 217 219 218
f 218 219 220
f 219 18 220
f 220 18 17
f 19 221 20
f 20 221 144
f 222 223 225
f 225 223 224
f 175 226 176
f 176 226 214
f 227 87 214
f 214 87 88
f 220 17 228
f 228 17 159
f 134 213 60
f 60 213 88
f 138 229 151
f 151 229 152
f 193 192 210
f 210 192 211
f 230 194 218
f 218 194 193
f 231 232 228
f 228 232 230
f 233 234 91
f 91 234 89
f 235 236 93
f 93 236 92
f 230 232 234
f 234 232 237
f 47 238 48
f 48 238 239
f 240 191 235
f 235 191 236
f 5 8 116
f 116 8 241
f 242 243 189
f 189 243 160
f 244 245 98
f 98 245 99
f 156 246 47
f 47 246 238
f 76 247 77
f 77 247 248
f 250 125 249
f 249 125 124
f 252 253 251
f 251 253 254
f 111 110 36
f 36 110 255
f 256 33 255
f 255 33 36
f 257 258 154
f 154 258 155
f 63 169 133
f 133 169 139
f 66 170 63
f 63 170 169
f 173 170 129
f 129 170 66
f 129 128 173
f 173 128 259
f 128 260 259
f 259 260 261
f 213 134 262
f 262 134 137
f 263 264 186
f 186 264 187
f 112 265 113
f 113 265 266
f 11 267 268
f 234 233 230
f 230 233 194
f 153 269 70
f 70 269 67
f 175 178 165
f 165 178 141
f 150 153 94
f 94 153 70
f 271 221 270
f 270 221 207
f 269 153 272
f 272 153 152
f 121 45 109
f 109 45 108
f 47 50 156
f 156 50 157
f 57 273 58
f 58 273 274
f 145 275 260
f 260 275 261
f 276 149 143
f 143 149 78
f 148 269 75
f 75 269 272
f 207 277 270
f 270 277 278
f 195 196 49
f 49 196 50
f 59 135 60
f 60 135 134
f 83 104 202
f 202 104 279
f 149 148 78
f 78 148 75
f 247 278 248
f 248 278 277
f 183 182 84
f 84 182 81
f 48 239 281
f 281 239 282
f 227 223 283
f 283 223 222
f 223 226 224
f 224 226 168
f 281 282 224
f 224 282 225
f 165 168 175
f 175 168 226
f 264 263 138
f 138 263 229
f 14 16 128
f 128 16 260
f 220 228 218
f 218 228 230
f 87 227 284
f 284 227 283
f 260 16 145
f 145 16 146
f 244 98 258
f 258 98 155
f 58 274 156
f 156 274 246
f 107 285 51
f 51 285 55
f 243 286 160
f 160 286 96
f 234 237 89
f 89 237 90
f 46 132 107
f 107 132 285
f 253 252 249
f 249 252 250
f 286 26 96
f 96 26 25
f 106 105 287
f 287 105 288
f 272 152 289
f 289 152 229
f 138 151 139
f 139 151 133
f 183 290 161
f 161 290 162
f 291 292 277
f 277 292 293
f 151 150 133
f 133 150 94
f 262 275 177
f 177 275 187
f 144 187 145
f 145 187 275
f 273 57 284
f 284 57 87
f 174 136 190
f 190 136 135
f 111 117 112
f 112 117 38
f 117 119 38
f 38 119 123
f 112 38 265
f 265 38 37
f 287 288 254
f 254 288 251
f 228 159 231
f 231 159 15
f 223 227 226
f 226 227 214
f 147 67 148
f 148 67 269
f 224 168 281
f 281 168 167
f 199 163 200
f 200 163 162
f 45 46 108
f 108 46 107
f 281 167 48
f 48 167 49
f 161 164 291
f 291 164 292
f 38 123 39
f 293 294 277
f 277 294 248
f 284 283 296
f 296 283 295
f 284 296 273
f 273 296 297
f 274 273 298
f 298 273 297
f 246 274 299
f 299 274 298
f 283 222 295
f 295 222 300
f 222 225 300
f 300 225 301
f 301 225 302
f 302 225 282
f 303 304 300
f 300 304 295
f 306 307 305
f 305 307 308
f 309 310 308
f 308 310 305
f 308 307 312
f 312 307 311
f 313 314 312
f 312 314 315
f 311 316 312
f 312 316 313
f 317 304 311
f 311 304 316
f 315 309 312
f 312 309 308
f 318 319 321
f 321 319 320
f 319 318 309
f 309 318 310
f 311 307 317
f 317 307 306
f 306 297 317
f 317 297 296
f 306 322 297
f 297 322 298
f 305 323 306
f 306 323 322
f 323 305 324
f 324 305 310
f 304 317 295
f 295 317 296
f 318 325 310
f 310 325 324
f 323 324 326
f 326 324 327
f 324 325 327
f 327 325 328
f 326 327 329
f 329 327 330
f 329 331 326
f 326 331 332
f 333 330 328
f 328 330 327
f 323 326 322
f 322 326 332
f 322 332 298
f 298 332 299
f 325 318 334
f 334 318 321
f 313 316 335
f 335 316 304
f 335 336 313
f 313 336 314
f 304 303 335
f 335 303 337
f 336 335 338
f 338 335 337
f 336 339 314
f 314 339 340
f 246 299 238
f 238 299 341
f 239 342 282
f 282 342 302
f 342 239 341
f 341 239 238
f 341 331 342
f 342 331 343
f 331 329 343
f 343 329 344
f 342 343 302
f 302 343 345
f 341 299 331
f 331 299 332
f 346 301 345
f 345 301 302
f 346 303 301
f 301 303 300
f 347 337 346
f 346 337 303
f 347 346 348
f 348 346 345
f 349 347 350
f 350 347 348
f 343 344 345
f 345 344 348
f 344 351 348
f 348 351 350
f 337 347 338
f 338 347 349
f 353 338 352
f 352 338 349
f 352 355 354
f 354 355 356
f 352 349 355
f 355 349 350
f 352 354 353
f 353 354 334
f 353 334 339
f 339 334 321
f 339 336 353
f 353 336 338
f 329 330 344
f 344 330 351
f 356 351 333
f 333 351 330
f 356 355 351
f 351 355 350
f 354 356 328
f 328 356 333
f 328 325 354
f 354 325 334
f 309 315 319
f 319 315 320
f 320 340 321
f 321 340 339
f 320 315 340
f 340 315 314
f 137 136 261
f 261 136 259
f 140 166 141
f 141 166 165
f 172 171 195
f 195 171 196
f 171 174 196
f 196 174 190
f 178 177 264
f 264 177 187
f 172 195 140
f 140 195 166
f 137 261 262
f 262 261 275
f 178 264 141
f 141 264 138
f 262 177 213
f 213 177 176
f 136 174 259
f 259 174 173
f 358 359 357
f 357 359 360
f 362 363 361
f 361 363 364
f 361 364 365
f 365 364 366
f 367 368 370
f 370 368 369
f 76 371 247
f 247 371 372
f 373 374 362
f 362 374 363
f 376 377 375
f 375 377 378
f 289 229 380
f 380 229 379
f 381 379 263
f 263 379 229
f 383 384 382
f 382 384 385
f 386 368 374
f 374 368 363
f 76 289 371
f 371 289 380
f 377 376 359
f 359 376 387
f 388 386 360
f 360 386 374
f 389 383 366
f 366 383 390
f 392 393 391
f 391 393 394
f 383 382 390
f 390 382 395
f 396 365 390
f 390 365 366
f 389 366 367
f 367 366 364
f 357 397 358
f 358 397 398
f 373 399 357
f 357 399 397
f 389 367 400
f 400 367 370
f 382 385 375
f 375 385 372
f 357 360 373
f 373 360 374
f 361 401 362
f 362 401 402
f 387 388 359
f 359 388 360
f 363 368 364
f 364 368 367
f 358 398 403
f 403 398 404
f 396 392 405
f 405 392 391
f 392 395 393
f 393 395 378
f 393 403 394
f 394 403 404
f 375 378 382
f 382 378 395
f 365 396 406
f 406 396 405
f 362 402 373
f 373 402 399
f 271 270 400
f 400 270 384
f 401 361 406
f 406 361 365
f 381 369 386
f 386 369 368
f 392 396 395
f 395 396 390
f 393 378 403
f 403 378 377
f 403 377 358
f 358 377 359
f 406 405 408
f 408 405 407
f 406 408 401
f 401 408 409
f 401 409 402
f 402 409 410
f 402 410 399
f 399 410 411
f 405 391 407
f 407 391 412
f 391 394 412
f 412 394 413
f 394 404 413
f 413 404 414
f 415 416 412
f 412 416 407
f 418 419 417
f 417 419 420
f 421 422 418
f 418 422 419
f 419 422 424
f 424 422 423
f 425 426 424
f 424 426 427
f 423 428 424
f 424 428 425
f 427 420 424
f 424 420 419
f 420 429 417
f 417 429 430
f 423 422 431
f 431 422 421
f 421 409 431
f 431 409 408
f 421 432 409
f 409 432 410
f 418 433 421
f 421 433 432
f 434 433 417
f 417 433 418
f 431 416 423
f 423 416 428
f 416 431 407
f 407 431 408
f 435 434 430
f 430 434 417
f 433 434 436
f 436 434 437
f 434 435 437
f 437 435 438
f 436 437 439
f 439 437 440
f 439 441 436
f 436 441 442
f 438 443 437
f 437 443 440
f 436 442 433
f 433 442 432
f 432 442 410
f 410 442 411
f 435 430 445
f 445 430 444
f 430 429 444
f 444 429 446
f 425 428 447
f 447 428 416
f 426 425 448
f 448 425 447
f 416 415 447
f 447 415 449
f 447 449 448
f 448 449 450
f 451 452 448
f 448 452 426
f 446 452 444
f 444 452 451
f 399 411 397
f 397 411 453
f 398 454 404
f 404 454 414
f 454 398 453
f 453 398 397
f 453 441 454
f 454 441 455
f 441 439 455
f 455 439 456
f 454 455 414
f 414 455 457
f 441 453 442
f 442 453 411
f 458 413 457
f 457 413 414
f 458 415 413
f 413 415 412
f 458 459 415
f 415 459 449
f 459 458 460
f 460 458 457
f 461 459 462
f 462 459 460
f 455 456 457
f 457 456 460
f 456 463 460
f 460 463 462
f 459 461 449
f 449 461 450
f 465 450 464
f 464 450 461
f 464 467 466
f 466 467 468
f 464 461 467
f 467 461 462
f 464 466 465
f 465 466 445
f 465 445 451
f 451 445 444
f 451 448 465
f 465 448 450
f 439 440 456
f 456 440 463
f 468 463 443
f 443 463 440
f 468 467 463
f 463 467 462
f 466 468 438
f 438 468 443
f 438 435 466
f 466 435 445
f 420 427 429
f 429 427 446
f 446 427 452
f 452 427 426
f 370 369 188
f 188 369 186
f 371 376 372
f 372 376 375
f 380 379 387
f 387 379 388
f 379 381 388
f 388 381 386
f 385 384 278
f 278 384 270
f 380 387 371
f 371 387 376
f 400 370 271
f 271 370 188
f 385 278 372
f 372 278 247
f 400 384 389
f 389 384 383
f 369 381 186
f 186 381 263
f 221 271 144
f 144 271 188
f 221 19 207
f 207 19 22
f 19 18 22
f 22 18 23
f 18 219 23
f 23 219 208
f 469 470 472
f 472 470 471
f 474 475 473
f 473 475 476
f 473 476 477
f 477 476 478
f 480 481 479
f 479 481 482
f 483 484 474
f 474 484 475
f 486 487 485
f 485 487 488
f 489 490 77
f 77 490 142
f 491 489 248
f 248 489 77
f 493 494 492
f 492 494 495
f 496 480 484
f 484 480 475
f 486 497 487
f 487 497 471
f 498 496 472
f 472 496 484
f 499 493 478
f 478 493 500
f 501 502 504
f 504 502 503
f 493 492 500
f 500 492 505
f 506 477 500
f 500 477 478
f 499 478 479
f 479 478 476
f 469 507 470
f 470 507 508
f 483 509 469
f 469 509 507
f 479 482 499
f 499 482 510
f 492 495 485
f 485 495 511
f 483 469 484
f 484 469 472
f 473 512 474
f 474 512 513
f 497 498 471
f 471 498 472
f 475 480 476
f 476 480 479
f 470 508 514
f 514 508 515
f 506 502 516
f 516 502 501
f 503 502 488
f 488 502 505
f 514 515 503
f 503 515 504
f 485 488 492
f 492 488 505
f 477 506 517
f 517 506 516
f 474 513 483
f 483 513 509
f 510 292 494
f 494 292 164
f 512 473 517
f 517 473 477
f 491 481 496
f 496 481 480
f 502 506 505
f 505 506 500
f 503 488 514
f 514 488 487
f 514 487 470
f 470 487 471
f 517 516 519
f 519 516 518
f 517 519 512
f 512 519 520
f 512 520 513
f 513 520 521
f 513 521 509
f 509 521 522
f 516 501 518
f 518 501 523
f 501 504 523
f 523 504 524
f 524 504 525
f 525 504 515
f 526 527 523
f 523 527 518
f 529 530 528
f 528 530 531
f 532 533 529
f 529 533 530
f 530 533 535
f 535 533 534
f 536 537 535
f 535 537 538
f 534 539 535
f 535 539 536
f 538 531 535
f 535 531 530
f 540 541 531
f 531 541 528
f 533 532 534
f 534 532 542
f 532 520 542
f 542 520 519
f 532 543 520
f 520 543 521
f 529 544 532
f 532 544 543
f 544 529 545
f 545 529 528
f 534 542 539
f 539 542 527
f 527 542 518
f 518 542 519
f 541 546 528
f 528 546 545
f 547 544 548
f 548 544 545
f 546 549 545
f 545 549 548
f 550 547 551
f 551 547 548
f 547 550 553
f 553 550 552
f 549 554 548
f 548 554 551
f 544 547 543
f 543 547 553
f 543 553 521
f 521 553 522
f 546 541 556
f 556 541 555
f 541 540 555
f 555 540 557
f 536 539 558
f 558 539 527
f 537 536 559
f 559 536 558
f 527 526 558
f 558 526 560
f 559 558 561
f 561 558 560
f 559 562 537
f 537 562 563
f 557 563 555
f 555 563 562
f 509 522 507
f 507 522 564
f 508 565 515
f 515 565 525
f 565 508 564
f 564 508 507
f 564 552 565
f 565 552 566
f 552 550 566
f 566 550 567
f 565 566 525
f 525 566 568
f 564 522 552
f 552 522 553
f 569 524 568
f 568 524 525
f 569 526 524
f 524 526 523
f 570 560 569
f 569 560 526
f 570 569 571
f 571 569 568
f 572 570 573
f 573 570 571
f 566 567 568
f 568 567 571
f 567 574 571
f 571 574 573
f 570 572 560
f 560 572 561
f 576 561 575
f 575 561 572
f 575 578 577
f 577 578 579
f 575 572 578
f 578 572 573
f 575 577 576
f 576 577 556
f 576 556 562
f 562 556 555
f 562 559 576
f 576 559 561
f 550 551 567
f 567 551 574
f 579 574 554
f 554 574 551
f 579 578 574
f 574 578 573
f 579 554 577
f 577 554 549
f 549 546 577
f 577 546 556
f 531 538 540
f 540 538 557
f 557 538 563
f 563 538 537
f 481 294 482
f 482 294 293
f 580 486 511
f 511 486 485
f 490 489 497
f 497 489 498
f 489 491 498
f 498 491 496
f 163 495 164
f 164 495 494
f 580 490 486
f 486 490 497
f 482 293 510
f 510 293 292
f 495 163 511
f 511 163 199
f 494 493 510
f 510 493 499
f 481 491 294
f 294 491 248
f 582 583 581
f 581 583 584
f 586 587 585
f 585 587 588
f 585 588 589
f 589 588 590
f 592 593 591
f 591 593 594
f 595 596 598
f 598 596 597
f 599 600 586
f 586 600 587
f 601 602 604
f 604 602 603
f 605 606 608
f 608 606 607
f 609 607 200
f 200 607 606
f 610 611 613
f 613 611 612
f 600 614 587
f 587 614 592
f 596 605 597
f 597 605 608
f 602 615 603
f 603 615 583
f 616 614 584
f 584 614 600
f 611 618 617
f 617 618 590
f 620 621 619
f 619 621 622
f 610 623 611
f 611 623 618
f 624 589 618
f 618 589 590
f 617 590 591
f 591 590 588
f 581 625 582
f 582 625 626
f 599 627 581
f 581 627 625
f 591 594 617
f 617 594 628
f 601 610 598
f 598 610 613
f 581 584 599
f 599 584 600
f 585 629 586
f 586 629 630
f 615 616 583
f 583 616 584
f 587 592 588
f 588 592 591
f 582 626 631
f 631 626 632
f 624 620 633
f 633 620 619
f 621 620 604
f 604 620 623
f 631 632 621
f 621 632 622
f 610 601 623
f 623 601 604
f 589 624 634
f 634 624 633
f 586 630 599
f 599 630 627
f 203 202 628
f 628 202 612
f 629 585 634
f 634 585 589
f 609 593 614
f 614 593 592
f 620 624 623
f 623 624 618
f 631 621 603
f 603 621 604
f 582 631 583
f 583 631 603
f 634 633 636
f 636 633 635
f 634 636 629
f 629 636 637
f 629 637 630
f 630 637 638
f 630 638 627
f 627 638 639
f 633 619 635
f 635 619 640
f 619 622 640
f 640 622 641
f 641 622 642
f 642 622 632
f 644 635 643
f 643 635 640
f 645 646 648
f 648 646 647
f 649 650 646
f 646 650 647
f 647 650 652
f 652 650 651
f 652 653 655
f 655 653 654
f 651 656 652
f 652 656 653
f 655 648 652
f 652 648 647
f 648 657 645
f 645 657 658
f 650 649 651
f 651 649 659
f 649 637 659
f 659 637 636
f 649 660 637
f 637 660 638
f 661 660 646
f 646 660 649
f 662 661 645
f 645 661 646
f 651 659 656
f 656 659 644
f 644 659 635
f 635 659 636
f 663 662 658
f 658 662 645
f 664 661 665
f 665 661 662
f 663 666 662
f 662 666 665
f 667 664 668
f 668 664 665
f 664 667 670
f 670 667 669
f 666 671 665
f 665 671 668
f 661 664 660
f 660 664 670
f 660 670 638
f 638 670 639
f 658 672 663
f 663 672 673
f 658 657 672
f 672 657 674
f 653 656 675
f 675 656 644
f 653 675 654
f 654 675 676
f 675 644 677
f 677 644 643
f 676 675 678
f 678 675 677
f 679 680 676
f 676 680 654
f 674 680 672
f 672 680 679
f 627 639 625
f 625 639 681
f 626 682 632
f 632 682 642
f 681 682 625
f 625 682 626
f 669 683 681
f 681 683 682
f 667 684 669
f 669 684 683
f 682 683 642
f 642 683 685
f 681 639 669
f 669 639 670
f 686 641 685
f 685 641 642
f 641 686 640
f 640 686 643
f 686 687 643
f 643 687 677
f 687 686 688
f 688 686 685
f 689 687 690
f 690 687 688
f 683 684 685
f 685 684 688
f 684 691 688
f 688 691 690
f 687 689 677
f 677 689 678
f 693 678 692
f 692 678 689
f 692 695 694
f 694 695 696
f 692 689 695
f 695 689 690
f 692 694 693
f 693 694 673
f 693 673 679
f 679 673 672
f 679 676 693
f 693 676 678
f 684 667 691
f 691 667 668
f 696 691 671
f 671 691 668
f 696 695 691
f 691 695 690
f 694 696 666
f 666 696 671
f 666 663 694
f 694 663 673
f 648 655 657
f 657 655 674
f 674 655 680
f 680 655 654
f 593 162 594
f 594 162 290
f 598 597 601
f 601 597 602
f 615 608 616
f 616 608 607
f 607 609 616
f 616 609 614
f 697 595 613
f 613 595 598
f 597 608 602
f 602 608 615
f 594 290 628
f 628 290 203
f 628 612 617
f 617 612 611
f 593 609 162
f 162 609 200
f 105 29 698
f 698 29 699
f 268 126 701
f 701 126 700
f 126 125 700
f 700 125 702
f 252 703 250
f 250 703 704
f 32 268 705
f 705 268 701
f 288 105 706
f 706 105 698
f 29 32 699
f 699 32 705
f 707 251 706
f 706 251 288
f 250 704 125
f 125 704 702
f 703 252 707
f 707 252 251
f 706 708 707
f 707 708 709
f 707 709 703
f 703 709 710
f 703 710 704
f 704 710 711
f 704 711 702
f 702 711 712
f 706 698 708
f 708 698 713
f 698 699 713
f 713 699 714
f 699 705 714
f 714 705 715
f 717 708 716
f 716 708 713
f 719 720 718
f 718 720 721
f 722 723 719
f 719 723 720
f 724 725 723
f 723 725 720
f 724 726 725
f 725 726 727
f 728 721 725
f 725 721 720
f 721 728 729
f 729 728 730
f 729 731 721
f 721 731 718
f 724 723 732
f 732 723 722
f 722 710 732
f 732 710 709
f 722 733 710
f 710 733 711
f 719 734 722
f 722 734 733
f 734 719 735
f 735 719 718
f 724 732 726
f 726 732 717
f 717 732 708
f 708 732 709
f 731 736 718
f 718 736 735
f 737 734 738
f 738 734 735
f 736 739 735
f 735 739 738
f 740 737 741
f 741 737 738
f 737 740 743
f 743 740 742
f 739 744 738
f 738 744 741
f 734 737 733
f 733 737 743
f 733 743 711
f 711 743 712
f 736 731 746
f 746 731 745
f 731 729 745
f 745 729 730
f 727 726 747
f 747 726 717
f 748 727 749
f 749 727 747
f 747 717 750
f 750 717 716
f 749 747 751
f 751 747 750
f 749 752 748
f 748 752 753
f 730 753 745
f 745 753 752
f 728 725 748
f 748 725 727
f 730 728 753
f 753 728 748
f 700 702 754
f 754 702 712
f 705 701 715
f 715 701 755
f 754 755 700
f 700 755 701
f 742 756 754
f 754 756 755
f 740 757 742
f 742 757 756
f 755 756 715
f 715 756 758
f 754 712 742
f 742 712 743
f 759 714 758
f 758 714 715
f 714 759 713
f 713 759 716
f 759 760 716
f 716 760 750
f 760 759 761
f 761 759 758
f 762 760 763
f 763 760 761
f 756 757 758
f 758 757 761
f 757 764 761
f 761 764 763
f 760 762 750
f 750 762 751
f 766 751 765
f 765 751 762
f 767 765 769
f 769 765 768
f 765 762 768
f 768 762 763
f 765 767 766
f 766 767 746
f 766 746 752
f 752 746 745
f 752 749 766
f 766 749 751
f 757 740 764
f 764 740 741
f 769 764 744
f 744 764 741
f 769 768 764
f 764 768 763
f 767 769 739
f 739 769 744
f 739 736 767
f 767 736 746
f 219 217 208
f 208 217 209
f 209 217 210
f 210 217 193
f 198 580 199
f 199 580 511
f 76 75 289
f 289 75 272
f 277 207 291
f 291 207 184
f 290 183 203
f 203 183 84
f 490 580 142
f 142 580 198
f 142 198 143
f 143 198 197
f 149 276 72
f 72 276 73
f 104 103 279
f 279 103 770
f 770 596 279
f 279 596 595
f 605 596 771
f 771 596 770
f 771 770 772
f 772 770 103
f 772 103 773
f 773 103 102
f 155 774 101
f 101 774 102
f 773 102 97
f 97 102 774
f 775 773 100
f 100 773 97
f 773 775 772
f 772 775 776
f 772 776 771
f 771 776 777
f 200 606 197
f 197 606 777
f 189 71 778
f 778 71 74
f 97 774 98
f 98 774 155
f 183 161 184
f 184 161 291
f 777 276 197
f 197 276 143
f 777 606 771
f 771 606 605
f 613 612 697
f 697 612 202
f 595 697 279
f 279 697 202
f 73 276 776
f 776 276 777
f 776 775 73
f 73 775 74
f 100 778 775
f 775 778 74
f 778 100 189
f 189 100 99
f 245 242 99
f 99 242 189
f 131 33 256
f 28 1 95
f 95 1 62
f 27 2 28
f 28 2 1
f 265 115 266
f 266 115 114
f 95 62 69
f 69 62 64
f 62 61 64
f 64 61 65
f 61 13 65
f 65 13 130
f 13 12 130
f 130 12 14
f 31 11 32
f 32 11 268
f 15 12 31
f 31 12 11
f 31 30 15
f 15 30 231
f 30 106 231
f 231 106 232
f 287 237 106
f 106 237 232
f 254 90 287
f 287 90 237
f 253 44 254
f 254 44 90
f 253 249 44
f 44 249 7
f 267 127 268
f 268 127 126
f 10 3 241
f 241 3 116
f 3 2 116
f 116 2 114
f 2 27 114
f 114 27 266
f 27 26 266
f 266 26 113
f 26 286 113
f 113 286 110
f 286 243 110
f 110 243 255
f 243 242 255
f 255 242 256
f 242 245 256
f 256 245 131
f 245 244 131
f 131 244 132
f 265 37 115
f 115 37 41
f 41 37 42
f 42 37 40
f 92 91 40
f 40 91 42
f 236 233 92
f 92 233 91
f 191 194 236
f 236 194 233
f 258 285 244
f 244 285 132
f 257 55 258
f 258 55 285
f 257 154 201
f 201 154 185
f 56 201 204
f 204 201 180
f 55 257 56
f 56 257 201
f 204 85 56
f 56 85 52
f 86 122 53
f 53 122 79
f 212 215 86
f 86 215 122
f 211 216 212
f 212 216 215
f 192 280 211
f 211 280 216
f 191 240 192
f 192 240 280
f 249 124 7
f 7 124 8
f 124 127 8
f 8 127 241
f 127 267 241
f 241 267 10
f 10 267 9
f 9 267 11
