v -0.015147324651479721 0.07142167538404465 0.9881554245948792
v -0.0033738873898983 0.06679026782512665 0.9883875846862793
v -0.011799335479736328 0.06518718600273132 0.9938480854034424
v -0.02087908610701561 0.06879532337188721 0.9938333034515381
v 0.003059420734643936 0.06304468214511871 1.0079436302185059
v 0.008711453527212143 0.0692378580570221 1.0160768032073975
v -0.007331863045692444 0.07215993851423264 1.0153214931488037
v -0.009609688073396683 0.06635646522045135 1.0074429512023926
v -0.026427611708641052 0.0715271532535553 0.9970342516899109
v -0.019672982394695282 0.06681868433952332 0.9965799450874329
v -0.027454111725091934 0.08169710636138916 0.9969236850738525
v -0.03442647308111191 0.08510186523199081 1.0021617412567139
v -0.034124165773391724 0.07708055526018143 1.0008620023727417
v -0.04188408702611923 0.0872141495347023 1.0034962892532349
v -0.02771911397576332 0.09448753297328949 1.0026098489761353
v -0.03964107483625412 0.0952916294336319 0.9997707605361938
v -0.02077675610780716 0.10567761957645416 0.9850417375564575
v -0.017568986862897873 0.10659720748662949 0.9730632305145264
v -0.03365714102983475 0.1047336608171463 0.9717470407485962
v -0.03535410761833191 0.10322728753089905 0.9842745065689087
v -0.022985488176345825 0.10129491239786148 0.9546196460723877
v -0.02985992282629013 0.10323770344257355 0.9639172554016113
v -0.013736803084611893 0.10630914568901062 0.9651777744293213
v -0.008508104830980301 0.10416972637176514 0.9567490816116333
v -0.00777430459856987 0.07596379518508911 0.9766045808792114
v 0.0038030557334423065 0.0734604150056839 0.975827693939209
v 0.002269227057695389 0.07105045020580292 0.9804471731185913
v -0.009364478290081024 0.07460825145244598 0.9810596108436584
v -0.026689358055591583 0.0921662449836731 1.0021483898162842
v -0.01952812820672989 0.09283443540334702 1.0063732862472534
v -0.0247938372194767 0.08978460729122162 1.0014197826385498
v -0.02840111032128334 0.08838602900505066 0.9982761144638062
v 0.028996404260396957 0.06800637394189835 0.967587411403656
v 0.04084280505776405 0.0738307312130928 0.9698401689529419
v 0.04018298164010048 0.07418208569288254 0.9758286476135254
v 0.02959129586815834 0.06891413778066635 0.9726317524909973
v 0.03155488148331642 0.07085540890693665 1.0026466846466064
v 0.03930756077170372 0.07640215754508972 0.9955055713653564
v 0.04334457591176033 0.08608222007751465 1.0041258335113525
v 0.034492071717977524 0.08446823805570602 1.0088757276535034
v 0.02063797041773796 0.06821678578853607 1.0114938020706177
v 0.0247197188436985 0.08006470650434494 1.0154922008514404
v 0.010644104331731796 0.0803048238158226 1.0194072723388672
v -0.006487026810646057 0.08063878864049911 1.0187439918518066
v 0.04232845827937126 0.07577148824930191 0.9572697281837463
v 0.0339956097304821 0.07130613178014755 0.9537890553474426
v -0.09060509502887726 0.10592204332351685 0.9911811947822571
v -0.08937884867191315 0.10684145987033844 0.9855729341506958
v -0.0866023600101471 0.09975307434797287 0.9876668453216553
v -0.08781807124614716 0.10083630681037903 0.9928810596466064
v 0.03568737581372261 0.08998128771781921 0.9448021650314331
v 0.0342574305832386 0.09991665929555893 0.9456611275672913
v 0.04141360893845558 0.09882542490959167 0.9454399943351746
v 0.04295782372355461 0.08963091671466827 0.9465107321739197
v 0.026028666645288467 0.09027501195669174 0.9426904916763306
v 0.02424287423491478 0.10075366497039795 0.9465107917785645
v -0.0824698656797409 0.11241644620895386 0.9974698424339294
v -0.08677561581134796 0.10972833633422852 0.9976760745048523
v -0.08282798528671265 0.10601584613323212 0.9986406564712524
v -0.07790680974721909 0.10819962620735168 0.9970518350601196
v -0.03083183988928795 0.07268236577510834 0.9969537854194641
v -0.025863319635391235 0.0727313682436943 0.9898463487625122
v -0.05380083620548248 0.07605759799480438 0.9970844388008118
v -0.04064624756574631 0.07464814186096191 0.9930430054664612
v -0.04105212911963463 0.07532952725887299 0.9999293684959412
v -0.05139854550361633 0.07810570299625397 1.0027167797088623
v -0.03040171042084694 0.0769939124584198 0.9716679453849792
v -0.01868511736392975 0.07729807496070862 0.9729310870170593
v -0.02158830687403679 0.07700824737548828 0.9785916805267334
v -0.03483462333679199 0.07607404887676239 0.9790486693382263
v -0.014357369393110275 0.07454241812229156 0.9597676396369934
v -0.026273198425769806 0.0748462975025177 0.9595768451690674
v -0.022548217326402664 0.07315056771039963 0.9521220922470093
v -0.01462293416261673 0.0723697692155838 0.9536089301109314
v -0.047795724123716354 0.07720719277858734 0.9618934392929077
v -0.054860614240169525 0.08182168006896973 0.960797131061554
v -0.05692790076136589 0.08102136105298996 0.9546579122543335
v -0.04722042754292488 0.07699809223413467 0.9576396346092224
v 0.04844864830374718 0.09882420301437378 0.9456877112388611
v 0.04970837011933327 0.08968710899353027 0.949042558670044
v -0.013691715896129608 0.09440608322620392 0.9367888569831848
v -0.007532995194196701 0.08676984161138535 0.9318858981132507
v -0.01954151690006256 0.08430907130241394 0.9278196096420288
v -0.022407691925764084 0.0930894985795021 0.9342460632324219
v 0.031118113547563553 0.10753950476646423 0.9519364237785339
v 0.03859493508934975 0.10750359296798706 0.9496416449546814
v -0.0782601535320282 0.11493995785713196 0.9936802387237549
v -0.07464311271905899 0.11018897593021393 0.9924659729003906
v 0.012801919132471085 0.09059613198041916 1.015663743019104
v -0.004650767892599106 0.0895928367972374 1.0164122581481934
v 0.025918904691934586 0.09229030460119247 1.0120313167572021
v 0.03453001007437706 0.09530781954526901 1.0073245763778687
v 0.04255405440926552 0.09748007357120514 1.0056610107421875
v -0.04461663216352463 0.0743384137749672 0.9873033761978149
v -0.019594751298427582 0.07497712224721909 0.9836767911911011
v -0.006281934678554535 0.07600830495357513 0.9720988869667053
v -0.001483861356973648 0.06829427182674408 0.9429305791854858
v 0.009006205946207047 0.06798364222049713 0.9446356892585754
v 0.0032942406833171844 0.0678199827671051 0.953577995300293
v -0.004724081605672836 0.06878682971000671 0.950165331363678
v -0.00692477822303772 0.07708139717578888 0.9309390187263489
v -0.009777594357728958 0.07115007191896439 0.9353179931640625
v -0.01916951686143875 0.0710911750793457 0.933452308177948
v -0.017661061137914658 0.07604557275772095 0.9285701513290405
v -0.02551257237792015 0.09381145238876343 1.0085939168930054
v -0.01395268365740776 0.09501000493764877 1.009989619255066
v 0.03643026575446129 0.07990402728319168 0.9475868940353394
v 0.043068867176771164 0.08078718930482864 0.9513967633247375
v 0.05068859085440636 0.08347690850496292 0.9536080360412598
v 0.01678967848420143 0.06928602606058121 0.9736649394035339
v 0.03011082485318184 0.06915365159511566 0.9765564799308777
v 0.02922157570719719 0.06777438521385193 0.9824656844139099
v 0.016626175493001938 0.06860984861850739 0.9772655963897705
v 0.007022794336080551 0.06139453873038292 0.9938302040100098
v 0.01782514527440071 0.06199425458908081 1.0003868341445923
v -0.005326908081769943 0.06159883737564087 0.9988873600959778
v 0.04103373363614082 0.07480121403932571 0.9845739603042603
v 0.04987846687436104 0.07636912167072296 0.9776269197463989
v 0.04941545054316521 0.07799281179904938 0.9865225553512573
v 0.05083603784441948 0.07717032730579376 0.9679047465324402
v 0.05116524174809456 0.07937506586313248 0.9592801928520203
v 0.046412717550992966 0.11033860594034195 0.9480456709861755
v 0.04785131290555 0.08120967447757721 0.9943243265151978
v -0.01773887872695923 0.06986445188522339 1.0047285556793213
v -0.02571215108036995 0.07236096262931824 1.0024679899215698
v -0.026835214346647263 0.07635850459337234 0.9955986738204956
v -0.02001122757792473 0.07211888581514359 0.9967651963233948
v -0.05090189725160599 0.09151986986398697 1.0039024353027344
v -0.05228636786341667 0.08389711380004883 1.0051578283309937
v -0.040839746594429016 0.07995939999818802 1.0044116973876953
v 0.01941702887415886 0.06701070815324783 0.9611644744873047
v 0.024182874709367752 0.06949705630540848 0.9498233199119568
v -0.057191021740436554 0.07736804336309433 0.9910903573036194
v -0.07285887002944946 0.1092412993311882 0.9967665672302246
v -0.07681697607040405 0.10571172088384628 0.9996168613433838
v -0.06311371922492981 0.09989424794912338 1.0022543668746948
v -0.060754574835300446 0.10448327660560608 0.9984843134880066
v -0.06401363760232925 0.08557184785604477 0.9847285747528076
v -0.0628775954246521 0.08259724080562592 0.9902523159980774
v -0.06553610414266586 0.08660245686769485 0.9891137480735779
v -0.06652103364467621 0.09026253968477249 0.9840556979179382
v -0.05093418061733246 0.07937312871217728 0.9478247165679932
v -0.042922426015138626 0.07581968605518341 0.9502124786376953
v -0.05073883756995201 0.0972241759300232 0.9828940629959106
v -0.04630051180720329 0.09979156404733658 0.9943538308143616
v -0.03622981533408165 0.10131604969501495 0.9928099513053894
v -0.027257148176431656 0.07622187584638596 0.9649441242218018
v -0.037902966141700745 0.07578194886445999 0.962936520576477
v -0.03680384159088135 0.07542185485363007 0.958846926689148
v -0.04805652052164078 0.07531087845563889 0.983762800693512
v -0.05762343853712082 0.0779251977801323 0.9848738312721252
v -0.05274145305156708 0.077018141746521 0.9798536896705627
v -0.044317878782749176 0.07619658857584 0.9787877798080444
v 0.00483255460858345 0.08921195566654205 0.9351774454116821
v 0.005733054131269455 0.07777553796768188 0.9336438179016113
v -0.08968748152256012 0.1071462631225586 0.9955530166625977
v -0.08608073741197586 0.10290411114692688 0.9970000982284546
v -0.01584320142865181 0.07654328644275665 0.9663234949111938
v -0.022775165736675262 0.1021934300661087 0.9927934408187866
v -0.004497695714235306 0.07529263943433762 0.9670531749725342
v -0.03815734013915062 0.09304878115653992 0.9447587132453918
v -0.03914991393685341 0.08812502771615982 0.9403573274612427
v -0.04451678693294525 0.08961494266986847 0.942528247833252
v -0.044456012547016144 0.09451223164796829 0.9459699988365173
v -0.07656949758529663 0.10019749402999878 0.9802403450012207
v -0.08029986917972565 0.09750847518444061 0.983893632888794
v -0.08419357240200043 0.10078662633895874 0.9819608330726624
v -0.08006011694669724 0.10348901152610779 0.9792999625205994
v -0.06202899292111397 0.0823414996266365 0.9960876703262329
v -0.06002574786543846 0.08380486816167831 1.002136468887329
v -0.06631387770175934 0.08871966600418091 0.9997036457061768
v -0.06651176512241364 0.08716659247875214 0.9941527843475342
v -0.059532664716243744 0.09011466056108475 1.0043221712112427
v -0.06494221091270447 0.09400743246078491 1.0026785135269165
v -0.07191288471221924 0.10481515526771545 0.9809314012527466
v -0.06842228770256042 0.10935737192630768 0.9861125349998474
v -0.05992823466658592 0.1036987230181694 0.9859119057655334
v -0.06467780470848083 0.09784513711929321 0.9830897450447083
v 0.0056864432990550995 0.10742001235485077 0.9592112898826599
v 0.009432431310415268 0.1035577803850174 0.9495964050292969
v -0.0046377032995224 0.10030853748321533 0.9468241930007935
v -0.018032561987638474 0.09779070317745209 0.9436967372894287
v -0.03053779900074005 0.09421995282173157 0.9420647621154785
v -0.03481503948569298 0.09925620257854462 0.9527716040611267
v -0.0006786882877349854 0.09718173742294312 0.9406018257141113
v -0.06288184225559235 0.08691026270389557 0.9787813425064087
v -0.0557575561106205 0.09585250914096832 0.9865826368331909
v -0.05932791531085968 0.0915994718670845 0.9809718132019043
v -0.0029331333935260773 0.07259012013673782 0.9603491425514221
v -0.07951248437166214 0.10226443409919739 0.9993261098861694
v 0.031739477068185806 0.11125805228948593 0.9938610792160034
v 0.031730253249406815 0.11514519155025482 0.9815213680267334
v 0.023386452347040176 0.11311416327953339 0.983092725276947
v 0.023400630801916122 0.10824839770793915 0.9961327910423279
v -0.0820925161242485 0.09633907675743103 0.9905009269714355
v -0.08211524039506912 0.09822001308202744 0.9960389137268066
v -0.04158344119787216 0.07611788809299469 0.9440683722496033
v -0.04773502051830292 0.0806989073753357 0.9437087774276733
v -0.04706422984600067 0.08423665165901184 0.9414627552032471
v -0.0421861857175827 0.07838577032089233 0.9391683340072632
v 0.01265692338347435 0.10101470351219177 0.9454317092895508
v -0.027887936681509018 0.08196619153022766 0.9257994294166565
v -0.028924662619829178 0.09035462886095047 0.9305593371391296
v 0.021741408854722977 0.10646704584360123 0.9524214863777161
v 0.018563244491815567 0.11042454093694687 0.9606801271438599
v 0.028020087629556656 0.1124316155910492 0.961157500743866
v -0.046878185123205185 0.09899702668190002 0.9635488390922546
v 0.0010220818221569061 0.10896587371826172 0.9662917256355286
v 0.015113558620214462 0.11138120293617249 0.9674022793769836
v 0.02628779038786888 0.11378340423107147 0.968289852142334
v 0.0343029610812664 0.11601482331752777 0.9681863188743591
v 0.03543512895703316 0.1140914037823677 0.9603880643844604
v -0.06984914839267731 0.10988645255565643 0.9913452863693237
v -0.07279995828866959 0.11047394573688507 0.9867222309112549
v 0.04372841492295265 0.11745360493659973 0.9589479565620422
v 0.04222584143280983 0.11885049939155579 0.9679543972015381
v 0.011974882334470749 0.11160574853420258 0.9760366082191467
v 0.008972693234682083 0.11045172065496445 0.9857897758483887
v -0.0015173889696598053 0.10910971462726593 0.9745075702667236
v -0.005808837711811066 0.10794451832771301 0.9842937588691711
v -0.04582478478550911 0.10302908718585968 0.9730920791625977
v -0.08339429646730423 0.1259264200925827 0.9838770627975464
v -0.07744128257036209 0.1153552308678627 0.9827761054039001
v -0.0813300758600235 0.11225489526987076 0.9796262979507446
v -0.08431318402290344 0.12323595583438873 0.9801600575447083
v -0.0757010355591774 0.1071363091468811 0.9811514019966125
v -0.07585261762142181 0.116158626973629 0.9880931377410889
v -0.007680438458919525 0.1032671183347702 0.9945704936981201
v -0.06132270023226738 0.07940566539764404 0.9775456190109253
v 0.008557487279176712 0.10359059274196625 0.9981740713119507
v -0.014881890267133713 0.09870357066392899 1.0039006471633911
v -0.0032754652202129364 0.0976952612400055 1.0065690279006958
v 0.024059738963842392 0.10266372561454773 1.0050814151763916
v 0.011303495615720749 0.09850447624921799 1.0097880363464355
v 0.04033752158284187 0.10659880936145782 1.0012794733047485
v 0.03192711994051933 0.10498486459255219 1.00245201587677
v -0.0012246333062648773 0.09547291696071625 1.0120046138763428
v -0.09515613317489624 0.11413254588842392 0.9848979711532593
v -0.091511070728302 0.11485615372657776 0.9803029298782349
v 0.03958573564887047 0.11366043984889984 0.9930790662765503
v -0.014802064746618271 0.06593380868434906 0.9988541603088379
v 0.007355209439992905 0.07065379619598389 0.9636450409889221
v 0.005862567573785782 0.07263591885566711 0.9684778451919556
v 0.01513587310910225 0.06834736466407776 0.9464011192321777
v 0.01040593907237053 0.06753791868686676 0.9570571184158325
v -0.09598223119974136 0.11543525010347366 0.9900338649749756
v -0.0581500381231308 0.08817622810602188 0.9595335721969604
v -0.059122227132320404 0.08582527935504913 0.9560416340827942
v -0.016392141580581665 0.07244208455085754 1.0129330158233643
v -0.02447846159338951 0.07300323247909546 1.0100805759429932
v -0.02634807676076889 0.08485144376754761 1.015626072883606
v -0.025780797004699707 0.0778437927365303 1.0150691270828247
v -0.01629050448536873 0.07910232245922089 1.0170702934265137
v -0.015915710479021072 0.0866008773446083 1.016485571861267
v 0.01661127433180809 0.06937709450721741 0.9707821011543274
v 0.01685362681746483 0.06877416372299194 0.966867983341217
v 0.016179557889699936 0.08958383649587631 0.9388968348503113
v 0.016367878764867783 0.07817184925079346 0.9376749992370605
v -0.05736099183559418 0.09569782018661499 1.0031107664108276
v -0.04911226034164429 0.09717879444360733 1.0006178617477417
v -0.05496836453676224 0.10057561844587326 0.9991399049758911
v -0.05810161307454109 0.1054515391588211 0.9925268292427063
v -0.06496289372444153 0.0837317556142807 0.9765989184379578
v -0.06165913864970207 0.09064791351556778 0.9835652112960815
v 0.024380605667829514 0.06442148238420486 0.9904206991195679
v 0.014099020510911942 0.06526074558496475 0.9844734072685242
v -0.023808423429727554 0.07427596300840378 0.9956598281860352
v -0.028284214437007904 0.08207585662603378 0.9941864609718323
v -0.03974534571170807 0.0763540118932724 0.9719638228416443
v -0.05650578811764717 0.09875895082950592 0.9660432934761047
v -0.056708842515945435 0.0997503399848938 0.972771167755127
v -0.04943355917930603 0.07727731764316559 0.9716249704360962
v -0.09227793663740158 0.12200676649808884 0.9939274787902832
v -0.09523142874240875 0.11804978549480438 0.9925699234008789
v -0.053411394357681274 0.10163275897502899 0.993508517742157
v -0.03364706039428711 0.07321960479021072 0.9512954354286194
v -0.05170165002346039 0.09438282251358032 0.9609416723251343
v -0.05730864405632019 0.09531987458467484 0.9623715281486511
v -0.024490658193826675 0.07482557743787766 0.927623450756073
v 0.04035123065114021 0.11718683689832687 0.9811149835586548
v -0.08617624640464783 0.10939828306436539 0.9805591106414795
v -0.08748626708984375 0.11743047088384628 0.9779675006866455
v -0.08343490958213806 0.12677150964736938 0.988062858581543
v -0.08630098402500153 0.1250939667224884 0.992861807346344
v 0.02569916471838951 0.07821327447891235 0.9430132508277893
v 0.004616577178239822 0.07357972860336304 0.9715942144393921
v -0.012386415153741837 0.09451510012149811 1.0128118991851807
v -0.025713935494422913 0.09148991107940674 1.0123121738433838
v -0.055917080491781235 0.07921756058931351 0.9698650240898132
v -0.033798083662986755 0.09095888584852219 0.9372577667236328
v -0.04300282895565033 0.0979655310511589 0.9526702165603638
v -0.04889872670173645 0.09852120280265808 0.9529062509536743
v -0.05525858700275421 0.09617622941732407 0.9559633731842041
v -0.06064771115779877 0.09139028191566467 0.954624593257904
v -0.08698322623968124 0.13057391345500946 0.9851303696632385
v -0.09105080366134644 0.12960758805274963 0.9892208576202393
v -0.09633924067020416 0.12674617767333984 0.9888595342636108
v -0.09871400147676468 0.122109554708004 0.9880951642990112
v -0.09824931621551514 0.11793847382068634 0.9862673282623291
v -0.08639370650053024 0.12918086349964142 0.9812260866165161
v -0.08662563562393188 0.1262173354625702 0.9786407947540283
v -0.08862397819757462 0.11977437138557434 0.9777508974075317
v -0.0868147537112236 0.13037946820259094 0.9775994420051575
v -0.08955515176057816 0.13388597965240479 0.9791896343231201
v -0.10228195786476135 0.13284575939178467 0.977081298828125
v -0.09912300109863281 0.13209876418113708 0.9818113446235657
v -0.09869490563869476 0.13369125127792358 0.9800163507461548
v -0.10080002248287201 0.13531187176704407 0.9760258793830872
v -0.10185981541872025 0.1380588859319687 0.9720430374145508
v -0.10399356484413147 0.13535338640213013 0.9725706577301025
v -0.09432374686002731 0.13370156288146973 0.9811314940452576
v -0.09653481096029282 0.13635776937007904 0.9757278561592102
v -0.09274661540985107 0.13637669384479523 0.9740382432937622
v -0.09467077255249023 0.13947716355323792 0.9701759815216064
v -0.09823901951313019 0.13974930346012115 0.971593976020813
v -0.09157998114824295 0.13470235466957092 0.9779415130615234
v -0.09360015392303467 0.13350193202495575 0.9829793572425842
v -0.1031707227230072 0.1377054899930954 0.9689857959747314
v -0.10192026197910309 0.1396724283695221 0.9697632789611816
v -0.09895706176757812 0.14069147408008575 0.9689465165138245
v -0.09975692629814148 0.13983449339866638 0.9662757515907288
v -0.10036005079746246 0.12607058882713318 0.9830482006072998
v -0.1030057892203331 0.1306462287902832 0.9763054251670837
v -0.10341470688581467 0.13288021087646484 0.9709756970405579
v -0.1026141345500946 0.13543719053268433 0.9675894975662231
v -0.10185852646827698 0.12829071283340454 0.9734060168266296
v -0.1018214076757431 0.13095784187316895 0.9695588946342468
v -0.10077659785747528 0.13299188017845154 0.9664217233657837
v -0.09925661981105804 0.12667760252952576 0.9705870747566223
v -0.09950423240661621 0.12974563241004944 0.9678248763084412
v -0.09690207242965698 0.11897872388362885 0.9802704453468323
v -0.09900407493114471 0.12097020447254181 0.9827315807342529
v -0.09957729279994965 0.13132277131080627 0.9658512473106384
v -0.09911707788705826 0.13815072178840637 0.965187132358551
v -0.0897650271654129 0.1344519406557083 0.9734755754470825
v -0.09277032315731049 0.13747160136699677 0.9683535695075989
v -0.08889976143836975 0.13285447657108307 0.9722051024436951
v -0.09148475527763367 0.1359289288520813 0.9670317769050598
v -0.09497987478971481 0.13990618288516998 0.9658240079879761
v -0.09612850844860077 0.1404695063829422 0.9680324196815491
v -0.09560705721378326 0.11567316204309464 0.9828602075576782
v -0.09142331779003143 0.1166849285364151 0.9792799949645996
v -0.0917828232049942 0.11931997537612915 0.9773444533348083
v -0.09502996504306793 0.12632989883422852 0.9686475396156311
v -0.08848004788160324 0.12190020084381104 0.9756560921669006
v -0.08673727512359619 0.12772244215011597 0.9750957489013672
v -0.08915801346302032 0.13114991784095764 0.9700642824172974
v -0.09071159362792969 0.1286802887916565 0.9685975909233093
v -0.09161604940891266 0.13353231549263 0.9664028286933899
v -0.0930650383234024 0.13143593072891235 0.9661421775817871
v -0.0962735116481781 0.12963318824768066 0.9662578701972961
v -0.09456446766853333 0.1349932849407196 0.9643851518630981
v -0.0944976657629013 0.1379164457321167 0.9648715853691101
v -0.09820400178432465 0.13500119745731354 0.9645258784294128
v -0.09462028741836548 0.13305214047431946 0.9647024869918823
v -0.0974462628364563 0.13258373737335205 0.965200662612915
v -0.08300880342721939 0.09347645938396454 0.9416507482528687
v -0.07944686710834503 0.0980670154094696 0.942012369632721
v -0.0774315595626831 0.0921129509806633 0.9466299414634705
v -0.08091188967227936 0.08912861347198486 0.9479308128356934
v -0.09164310991764069 0.0963679701089859 0.9520819783210754
v -0.09037300199270248 0.09283290803432465 0.9472084641456604
v -0.08821278810501099 0.0911802425980568 0.9552164673805237
v -0.08747044950723648 0.09678459912538528 0.9588455557823181
v -0.08884435892105103 0.10167014598846436 0.9545682668685913
v -0.08310190588235855 0.10120430588722229 0.9592082500457764
v -0.08579111099243164 0.09904894232749939 0.9629650712013245
v -0.08597578853368759 0.09212037175893784 0.9609635472297668
v -0.0701269879937172 0.08904821425676346 0.9732598066329956
v -0.07041309773921967 0.09604032337665558 0.9742522835731506
v -0.05977089703083038 0.08614316582679749 0.9606115818023682
v -0.0601683109998703 0.09064480662345886 0.9597201347351074
v -0.0867156982421875 0.09235046058893204 0.9434413909912109
v -0.08518530428409576 0.08895254880189896 0.9511468410491943
v -0.07195475697517395 0.09717345982789993 0.9474726915359497
v -0.07386128604412079 0.09211212396621704 0.9476198554039001
v -0.07459312677383423 0.09587045013904572 0.9455884099006653
v -0.07398807257413864 0.10033825784921646 0.947209894657135
v -0.06586378812789917 0.08261121064424515 0.9693410992622375
v -0.06166966259479523 0.08348074555397034 0.965505838394165
v -0.06860201060771942 0.08494828641414642 0.9710418581962585
v -0.07287999242544174 0.10279446840286255 0.9507327675819397
v -0.07607965171337128 0.10653145611286163 0.9554183483123779
v -0.0637793019413948 0.10340078920125961 0.965172290802002
v -0.06132226809859276 0.09950292110443115 0.9611908197402954
v -0.08430041372776031 0.08828230202198029 0.9574219584465027
v -0.07751503586769104 0.08840472996234894 0.9499337077140808
v -0.08089441061019897 0.08667665719985962 0.9530118107795715
v -0.08130336552858353 0.10437936335802078 0.9607276320457458
v -0.07958468794822693 0.10538474470376968 0.95481938123703
v -0.08522069454193115 0.11604130268096924 0.9419907927513123
v -0.08098293840885162 0.10827774554491043 0.9500176310539246
v -0.07810867577791214 0.10642906278371811 0.9461677670478821
v -0.08161047101020813 0.11485613882541656 0.9389045238494873
v -0.07631443440914154 0.10373078286647797 0.9512031674385071
v -0.08513683080673218 0.10672716796398163 0.9525371193885803
v -0.08663977682590485 0.10514450073242188 0.9305536150932312
v -0.08158347010612488 0.10904331505298615 0.9319689869880676
v -0.09112441539764404 0.10403688997030258 0.9312061667442322
v -0.06753576546907425 0.10214553028345108 0.9705989956855774
v -0.09715007990598679 0.10646382719278336 0.9388748407363892
v -0.09462259709835052 0.1038990318775177 0.9336889982223511
v -0.07704982161521912 0.10283538699150085 0.943414568901062
v -0.08012042194604874 0.11266222596168518 0.9351397752761841
v -0.08954212069511414 0.11535042524337769 0.9433509111404419
v -0.09514543414115906 0.11030825227499008 0.9435784220695496
v -0.0879216268658638 0.11825579404830933 0.9372519254684448
v -0.09375987946987152 0.11663255095481873 0.9367365837097168
v -0.09601189196109772 0.11365398019552231 0.9326723217964172
v -0.09462990611791611 0.10968977212905884 0.9291585087776184
v -0.09141363203525543 0.10783100128173828 0.9279913902282715
v -0.08465009927749634 0.11799788475036621 0.9361382126808167
v -0.08165787160396576 0.11621740460395813 0.9337762594223022
v -0.0809253454208374 0.11262698471546173 0.9318853616714478
v -0.08161256462335587 0.11904928088188171 0.9289557337760925
v -0.08504873514175415 0.121219202876091 0.9289895296096802
v -0.09297849237918854 0.11976499855518341 0.9140122532844543
v -0.09415743499994278 0.11827204376459122 0.9193453192710876
v -0.09318216145038605 0.12052509188652039 0.9200050830841064
v -0.09184788912534714 0.12202619016170502 0.9152740836143494
v -0.09488510340452194 0.11837243288755417 0.9250403046607971
v -0.09350895881652832 0.12017419934272766 0.9242091774940491
v -0.09013265371322632 0.12149334698915482 0.9269453287124634
v -0.08905982226133347 0.12235380709171295 0.9214723706245422
v -0.08467814326286316 0.12279526889324188 0.9233083724975586
v -0.08370111882686615 0.12487056851387024 0.9186092615127563
v -0.08813153207302094 0.12495876848697662 0.9166917204856873
v -0.08642160892486572 0.12236110866069794 0.9265979528427124
v -0.09020406007766724 0.1233585774898529 0.9126021265983582
v -0.08965218812227249 0.12210392951965332 0.9104382991790771
v -0.09118922799825668 0.1205875426530838 0.9291954040527344
v -0.09532902389764786 0.11257137358188629 0.9259570240974426
v -0.09390422701835632 0.11555401235818863 0.9179893136024475
v -0.09168794006109238 0.11731387674808502 0.9124118685722351
v -0.08736542612314224 0.12032278627157211 0.9095166921615601
v -0.09103551506996155 0.11302907764911652 0.9166290760040283
v -0.08901029080152512 0.11558980494737625 0.9119135141372681
v -0.0855063796043396 0.11847339570522308 0.910106360912323
v -0.0867118090391159 0.11140681803226471 0.9162509441375732
v -0.08494164794683456 0.11452044546604156 0.9122040867805481
v -0.08832034468650818 0.10756436735391617 0.9256086945533752
v -0.09262293577194214 0.1088133379817009 0.9252150058746338
v -0.08431567251682281 0.11668140441179276 0.9110729098320007
v -0.08596277236938477 0.12512269616127014 0.9112213253974915
v -0.08398409932851791 0.12268348038196564 0.9100120067596436
v -0.08683791756629944 0.12533630430698395 0.9128212332725525
v -0.08259116858243942 0.12224797159433365 0.9235921502113342
v -0.08170977234840393 0.12388266623020172 0.9181041121482849
v -0.08031149953603745 0.12073439359664917 0.9231166243553162
v -0.0799437016248703 0.12264133989810944 0.9170486330986023
v -0.082130067050457 0.12516626715660095 0.9139232039451599
v -0.08364349603652954 0.12576982378959656 0.9143235087394714
v -0.08731180429458618 0.10796353965997696 0.9285978674888611
v -0.08251261711120605 0.11020523309707642 0.9301250576972961
v -0.08340730518102646 0.10860332101583481 0.9271366000175476
v -0.08199907094240189 0.11231611669063568 0.9178008437156677
v -0.08069516718387604 0.11152869462966919 0.9287437200546265
v -0.0799991711974144 0.11592316627502441 0.9285052418708801
v -0.07907914370298386 0.11828434467315674 0.9224175214767456
v -0.07925321906805038 0.11518551409244537 0.9200997352600098
v -0.07838248461484909 0.12111259251832962 0.9167971014976501
v -0.07880539447069168 0.11788821220397949 0.916679322719574
v -0.0813225507736206 0.11495743691921234 0.9138724207878113
v -0.0795053020119667 0.12230753153562546 0.9127109050750732
v -0.08087634295225143 0.12417928874492645 0.913170337677002
v -0.08296028524637222 0.12079016119241714 0.9103100895881653
v -0.07930956780910492 0.1194627583026886 0.9134206175804138
v -0.08196660131216049 0.11802880465984344 0.9113883376121521
v -0.07105239480733871 0.09664154797792435 0.9273532629013062
v -0.06619169563055038 0.09726582467556 0.9263171553611755
v -0.06459952890872955 0.09214599430561066 0.9304087162017822
v -0.06943726539611816 0.0927373617887497 0.9322362542152405
v -0.07487920671701431 0.10518355667591095 0.9367035031318665
v -0.07636578381061554 0.10149829089641571 0.9334257245063782
v -0.0741783082485199 0.09873393177986145 0.9377133846282959
v -0.07188937813043594 0.10205204784870148 0.9415386915206909
v -0.07124422490596771 0.10955154150724411 0.936606764793396
v -0.06721905618906021 0.10509130358695984 0.9416893720626831
v -0.0693691149353981 0.10224606096744537 0.9453328251838684
v -0.07232354581356049 0.09779147058725357 0.9417833089828491
v -0.06370791047811508 0.09273049235343933 0.9514638781547546
v -0.06006979942321777 0.09859414398670197 0.9531714916229248
v -0.07443775981664658 0.0986395850777626 0.9298943281173706
v -0.07279305160045624 0.09549824893474579 0.9344432353973389
v -0.058351412415504456 0.09486667811870575 0.931546151638031
v -0.06144086271524429 0.09145090728998184 0.9311437606811523
v -0.06067772954702377 0.09514802694320679 0.9300808906555176
v -0.05918356031179428 0.09928242862224579 0.9314605593681335
v -0.06086084619164467 0.08340172469615936 0.9477734565734863
v -0.05560358241200447 0.08307124674320221 0.9445793628692627
v -0.06390039622783661 0.08760122954845428 0.9490094184875488
v -0.0573820099234581 0.10047003626823425 0.9351491928100586
v -0.05874032527208328 0.10537024587392807 0.9398399591445923
v -0.05002259463071823 0.09959772229194641 0.9441967010498047
v -0.04962807893753052 0.0941668376326561 0.9411230087280273
v -0.0718393474817276 0.0938912183046341 0.9388314485549927
v -0.06514944136142731 0.089164137840271 0.9330908060073853
v -0.06965809315443039 0.09010758250951767 0.93559730052948
v -0.06389549374580383 0.10532437264919281 0.9440791606903076
v -0.06275662034749985 0.10586714744567871 0.9386062622070312
v -0.06725718080997467 0.12022063881158829 0.9220681190490723
v -0.06126942113041878 0.10834790766239166 0.9329177141189575
v -0.06021447479724884 0.10453614592552185 0.9287358522415161
v -0.06492701172828674 0.11761407554149628 0.9192482829093933
v -0.059709250926971436 0.10397356748580933 0.9345421195030212
v -0.06542806327342987 0.11068034172058105 0.9359077215194702
v -0.07389664649963379 0.10845356434583664 0.914181113243103
v -0.06864033639431 0.10965263843536377 0.9147101640701294
v -0.07723881304264069 0.10905109345912933 0.916759729385376
v -0.05430067330598831 0.1019366905093193 0.9505615234375
v -0.05095725506544113 0.08731959015130997 0.9410384297370911
v -0.0799521654844284 0.11450643092393875 0.921073853969574
v -0.07939985394477844 0.11103912442922592 0.9185189604759216
v -0.06195451691746712 0.100578173995018 0.9270493388175964
v -0.06500263512134552 0.11363846808671951 0.9164700508117676
v -0.07134771347045898 0.12053483724594116 0.9242685437202454
v -0.07676473259925842 0.11807343363761902 0.9246140122413635
v -0.0711921975016594 0.1240786463022232 0.9193974137306213
v -0.07678130269050598 0.12180246412754059 0.9188925623893738
v -0.0799587219953537 0.11860015243291855 0.9153025150299072
v -0.07906611263751984 0.11485796421766281 0.9131373763084412
v -0.07694527506828308 0.11247246712446213 0.9117834568023682
v -0.06690211594104767 0.12313957512378693 0.9175041317939758
v -0.06502939015626907 0.12023861706256866 0.9154793620109558
v -0.06555837392807007 0.1152990460395813 0.9150173664093018
v -0.06560705602169037 0.12452124804258347 0.9136045575141907
v -0.0703563466668129 0.1272294819355011 0.9130540490150452
v -0.07501107454299927 0.1255442351102829 0.8973388075828552
v -0.07642485201358795 0.12326283007860184 0.9023813009262085
v -0.0759320855140686 0.12431739270687103 0.9028419256210327
v -0.07475041598081589 0.1270931512117386 0.8980062007904053
v -0.07827238738536835 0.12263652682304382 0.9088649749755859
v -0.07713434100151062 0.12402763962745667 0.9077170491218567
v -0.07503185421228409 0.12604877352714539 0.9102994203567505
v -0.0730743408203125 0.12833496928215027 0.9046339988708496
v -0.06753392517566681 0.12844190001487732 0.9068593382835388
v -0.06707145273685455 0.13008169829845428 0.9021451473236084
v -0.07209882140159607 0.13054493069648743 0.899904191493988
v -0.07075304538011551 0.12740810215473175 0.9111325740814209
v -0.0732702761888504 0.1288692206144333 0.8958362340927124
v -0.07417583465576172 0.12823797762393951 0.8941963911056519
v -0.07592671364545822 0.12539851665496826 0.9125235080718994
v -0.07881485670804977 0.11785297095775604 0.9079651236534119
v -0.07642745971679688 0.12062028050422668 0.9011738300323486
v -0.07502276450395584 0.12266713380813599 0.8958146572113037
v -0.07241673767566681 0.12512926757335663 0.8932649493217468
v -0.07375640422105789 0.11802329868078232 0.9005847573280334
v -0.07259981334209442 0.12061884999275208 0.8960175514221191
v -0.07037139683961868 0.1228954941034317 0.893653929233551
v -0.07074172794818878 0.11687804758548737 0.9008234143257141
v -0.06965075433254242 0.11954540014266968 0.8968889713287354
v -0.07305949926376343 0.11244184523820877 0.9093245267868042
v -0.07646849006414413 0.11449579149484634 0.9083017706871033
v -0.06877236813306808 0.12175273895263672 0.8948531150817871
v -0.07034244388341904 0.1309841275215149 0.8950359225273132
v -0.06762976199388504 0.12802571058273315 0.8937326073646545
v -0.07086890190839767 0.13064584136009216 0.8966563940048218
v -0.06601278483867645 0.12798506021499634 0.9078004360198975
v -0.06473100185394287 0.1300685554742813 0.901803731918335
v -0.06384333968162537 0.12612074613571167 0.9076920747756958
v -0.06266899406909943 0.1282321661710739 0.90169757604599
v -0.06611474603414536 0.13131721317768097 0.8980686664581299
v -0.06721615791320801 0.1312316358089447 0.8985406160354614
v -0.07325313985347748 0.11104455590248108 0.9120633602142334
v -0.06853973120450974 0.11203700304031372 0.9131588935852051
v -0.0685243308544159 0.11300739645957947 0.9107836484909058
v -0.06628338992595673 0.11750072985887527 0.9017936587333679
v -0.06532274931669235 0.11586436629295349 0.9126954674720764
v -0.0640353336930275 0.12159651517868042 0.9118041396141052
v -0.06291025876998901 0.1233082264661789 0.9062656164169312
v -0.06346321105957031 0.1203983873128891 0.9038987159729004
v -0.06201701983809471 0.12556996941566467 0.9010099768638611
v -0.06303375959396362 0.12291212379932404 0.9006286859512329
v -0.06568149477243423 0.11989729851484299 0.8978386521339417
v -0.0636945366859436 0.1265139877796173 0.8973848819732666
v -0.06420592218637466 0.12939812242984772 0.8975127339363098
v -0.0665113553404808 0.12510639429092407 0.8940913677215576
v -0.06374053657054901 0.12404659390449524 0.8975253105163574
v -0.06595607846975327 0.12290100753307343 0.8951393961906433
v -0.052347324788570404 0.08419991284608841 0.9422090649604797
v -0.055759795010089874 0.07925581932067871 0.9394770860671997
v -0.05583466589450836 0.07518462836742401 0.9397317171096802
v -0.052501678466796875 0.07385434210300446 0.9371643662452698
v -0.05140884965658188 0.07767803221940994 0.9373524785041809
v -0.0599658340215683 0.08340947329998016 0.930427074432373
v -0.058473844081163406 0.08390511572360992 0.9345782995223999
v -0.05471750348806381 0.08365630358457565 0.9318401217460632
v -0.055862218141555786 0.08350270986557007 0.9273901581764221
v -0.06152324378490448 0.07968980073928833 0.9272994995117188
v -0.057399071753025055 0.08008994162082672 0.9240579009056091
v -0.05293930321931839 0.08636181056499481 0.927390456199646
v -0.052128493785858154 0.08534778654575348 0.9321689605712891
v -0.04145587235689163 0.0885290801525116 0.9370845556259155
v -0.039779286831617355 0.09055154770612717 0.9329678416252136
v -0.030995212495326996 0.07436930388212204 0.9278306365013123
v -0.031059809029102325 0.0715908631682396 0.9318297505378723
v -0.038078002631664276 0.07245738804340363 0.9318146109580994
v -0.03707224130630493 0.0733375996351242 0.9277516007423401
v -0.05691150948405266 0.08224304020404816 0.9375137686729431
v -0.05308648943901062 0.0813504233956337 0.9358256459236145
v -0.049221739172935486 0.06906289607286453 0.9291764497756958
v -0.048887405544519424 0.0698014348745346 0.9335232973098755
v -0.05266658216714859 0.07010224461555481 0.9358528852462769
v -0.05450138822197914 0.0679992288351059 0.932478666305542
v -0.03432894125580788 0.07205132395029068 0.9358989000320435
v -0.03721582889556885 0.07395752519369125 0.938377320766449
v -0.040512293577194214 0.07635946571826935 0.9384216666221619
v -0.04005224257707596 0.07376626878976822 0.9356660842895508
v -0.04245751351118088 0.08182380348443985 0.9397779703140259
v -0.05042397975921631 0.07078740000724792 0.925248384475708
v -0.051902711391448975 0.07590637356042862 0.9217281937599182
v -0.03616943210363388 0.08098239451646805 0.9226265549659729
v -0.03559655696153641 0.07640989124774933 0.9243859648704529
v -0.051274385303258896 0.0824691578745842 0.9357619881629944
v -0.04953207075595856 0.07297419011592865 0.9363095760345459
v -0.05003640428185463 0.07772655785083771 0.9370472431182861
v -0.05258381739258766 0.08303806185722351 0.9227317571640015
v -0.05806615203619003 0.07399135082960129 0.9243302941322327
v -0.06812524050474167 0.06916077435016632 0.936707079410553
v -0.061168424785137177 0.06910474598407745 0.9311119318008423
v -0.059105392545461655 0.06852588057518005 0.935316264629364
v -0.06622004508972168 0.06865639984607697 0.9392630457878113
v -0.05561183765530586 0.06966018676757812 0.9278249740600586
v -0.06282387673854828 0.0734790712594986 0.9279031753540039
v -0.06240743398666382 0.07936806976795197 0.9446028470993042
v -0.062291357666254044 0.07410183548927307 0.943885862827301
v -0.06356928497552872 0.08209310472011566 0.9432896375656128
v -0.037996985018253326 0.0886370912194252 0.9266207814216614
v -0.06802764534950256 0.08283835649490356 0.9374474883079529
v -0.06592576950788498 0.08349175751209259 0.9411940574645996
v -0.05701913312077522 0.07145410776138306 0.9383447170257568
v -0.06391996145248413 0.07031141221523285 0.9418808221817017
v -0.06989288330078125 0.07252272963523865 0.9343130588531494
v -0.06966571509838104 0.07866615056991577 0.9337696433067322
v -0.07348422706127167 0.07246219366788864 0.9380695819854736
v -0.07324676215648651 0.07805542647838593 0.9380671977996826
v -0.07095775008201599 0.08198660612106323 0.9428253173828125
v -0.06779329478740692 0.0819787085056305 0.9448109269142151
v -0.06537620723247528 0.08057500422000885 0.9462621212005615
v -0.070626400411129 0.06883586943149567 0.9397503733634949
v -0.06808097660541534 0.06825535744428635 0.9416186809539795
v -0.06510746479034424 0.0698731541633606 0.9435523152351379
v -0.07348628342151642 0.06837769597768784 0.9431533813476562
v -0.07634858787059784 0.07191340625286102 0.944424033164978
v -0.07441959530115128 0.07430228590965271 0.9573791027069092
v -0.0729449987411499 0.07636293768882751 0.9542592763900757
v -0.07390117645263672 0.07603105902671814 0.9536789655685425
v -0.07542069256305695 0.07453010976314545 0.9570547938346863
v -0.07265615463256836 0.07899737358093262 0.9494869709014893
v -0.07375206798315048 0.07770460098981857 0.9499881267547607
v -0.07519355416297913 0.07638519257307053 0.9469223022460938
v -0.07692117989063263 0.07414671778678894 0.9512730836868286
v -0.07752472162246704 0.0692325085401535 0.9492462873458862
v -0.07880360633134842 0.06809931993484497 0.9528559446334839
v -0.07843905687332153 0.07262403517961502 0.954236626625061
v -0.07680615782737732 0.07250092923641205 0.9462112784385681
v -0.0772772952914238 0.07326410710811615 0.9585673213005066
v -0.07699450850486755 0.07284367084503174 0.959881067276001
v -0.07532986998558044 0.07765865325927734 0.944812536239624
v -0.06877195835113525 0.07943092286586761 0.9501943588256836
v -0.07102113217115402 0.07587290555238724 0.9558738470077515
v -0.0734633058309555 0.07342785596847534 0.9594227075576782
v -0.07596071809530258 0.0709671676158905 0.9607211947441101
v -0.06887880712747574 0.07469629496335983 0.9554497599601746
v -0.07170960307121277 0.07199319452047348 0.9597853422164917
v -0.07410325109958649 0.06957793235778809 0.9608806371688843
v -0.06705409288406372 0.07211633026599884 0.9544851183891296
v -0.0703730583190918 0.07008526474237442 0.9585519433021545
v -0.06414720416069031 0.07498645782470703 0.9491351842880249
v -0.06606509536504745 0.0777292400598526 0.9501451849937439
v -0.07288645952939987 0.06887245178222656 0.9597671031951904
v -0.07950499653816223 0.0701661929488182 0.9585266709327698
v -0.07751196622848511 0.06826411932706833 0.9595773220062256
v -0.07979259639978409 0.07093743234872818 0.9571306705474854
v -0.07714414596557617 0.06806577742099762 0.9486604928970337
v -0.07855916768312454 0.06652194261550903 0.9530937671661377
v -0.07549707591533661 0.0662415400147438 0.9484062790870667
v -0.07700712978839874 0.06512695550918579 0.9536226391792297
v -0.07953713834285736 0.06720492988824844 0.9563730955123901
v -0.07971421629190445 0.06874212622642517 0.9553690552711487
v -0.06350290775299072 0.07715044915676117 0.9471845030784607
v -0.06343044340610504 0.07364918291568756 0.9454712867736816
v -0.06435831636190414 0.07158008962869644 0.9471117854118347
v -0.06717855483293533 0.06875881552696228 0.9524184465408325
v -0.06675131618976593 0.06824563443660736 0.944784939289093
v -0.07036148756742477 0.06739179790019989 0.9434356689453125
v -0.0730486512184143 0.06538864970207214 0.949006974697113
v -0.07002399116754532 0.0657934918999672 0.9503859281539917
v -0.07512465119361877 0.06464818120002747 0.9545442461967468
v -0.07227487117052078 0.06518232077360153 0.9553191661834717
v -0.07027141749858856 0.06727231293916702 0.9568286538124084
v -0.07602734863758087 0.06594966351985931 0.9579638838768005
v -0.07785992324352264 0.06614069640636444 0.9575843811035156
v -0.0756116732954979 0.0674537718296051 0.9596224427223206
v -0.07410302013158798 0.06600037217140198 0.9580084085464478
v -0.07340767234563828 0.06717737764120102 0.9589152336120605
v -0.032373540103435516 0.07748589664697647 0.9258015155792236
v -0.0413253977894783 0.08971761167049408 1.0058060884475708
v -0.04038897529244423 0.08991672098636627 1.0003724098205566
v -0.03957835212349892 0.07428350299596786 0.9954906105995178
v -0.040376223623752594 0.08112968504428864 0.9931787848472595
v -0.03994488716125488 0.07067036628723145 1.0014475584030151
v -0.040826961398124695 0.0740676075220108 1.0117511749267578
v -0.03944992274045944 0.07107143104076385 1.0073862075805664
v -0.04045474901795387 0.0866004228591919 0.9953165054321289
v -0.041588928550481796 0.08682821691036224 1.0107046365737915
v -0.04132622480392456 0.08018229901790619 1.0139048099517822
v -0.05263851583003998 0.08608788251876831 1.009220838546753
v -0.05244411155581474 0.07846526801586151 1.011574387550354
v -0.05194295942783356 0.07160467654466629 1.0089105367660522
v -0.048209916800260544 0.06910797953605652 1.0035218000411987
v -0.04647420346736908 0.06899519264698029 0.9988269805908203
v -0.04909587278962135 0.0891750156879425 1.0032533407211304
v -0.04714280366897583 0.08945269882678986 0.9980150461196899
v -0.04503414034843445 0.08560455590486526 0.9931753277778625
v -0.0562041737139225 0.08883093297481537 0.9984002113342285
v -0.06457081437110901 0.08353777229785919 0.9965402483940125
v -0.07043777406215668 0.06716814637184143 0.9879242181777954
v -0.06516026705503464 0.06751946359872818 0.9919600486755371
v -0.0668879821896553 0.06961967051029205 0.9928829669952393
v -0.07179934531450272 0.06882479786872864 0.9895085692405701
v -0.0629914253950119 0.06947732716798782 0.9966853857040405
v -0.06442520022392273 0.0712222307920456 0.9959898591041565
v -0.06458128988742828 0.07645769417285919 0.9974748492240906
v -0.06909138709306717 0.07554219663143158 0.9939688444137573
v -0.06541967391967773 0.08109135925769806 0.9954896569252014
v -0.06803058832883835 0.08136741816997528 0.9921267628669739
v -0.07343881577253342 0.07490523904561996 0.9905425310134888
v -0.07531794160604477 0.06999070942401886 0.9881749153137207
v -0.07687008380889893 0.07422059774398804 0.987428605556488
v -0.07464462518692017 0.06885743141174316 0.9853394627571106
v -0.06578882038593292 0.07685061544179916 1.000378966331482
v -0.056582972407341 0.06723026931285858 0.9976250529289246
v -0.061925895512104034 0.06630317866802216 0.9906663298606873
v -0.06773732602596283 0.06674744188785553 0.9854596853256226
v -0.07270210236310959 0.06912284344434738 0.9827998280525208
v -0.058790773153305054 0.06724320352077484 0.9877470135688782
v -0.06438462436199188 0.06861656904220581 0.9833598136901855
v -0.06880401074886322 0.07152336835861206 0.981067419052124
v -0.05669967830181122 0.07087292522192001 0.9852254390716553
v -0.06259242445230484 0.07195931673049927 0.9821560382843018
v -0.04725712537765503 0.07253998517990112 0.9923683404922485
v -0.05064748227596283 0.06794653832912445 0.9953467845916748
v -0.06651825457811356 0.07313932478427887 0.9811331629753113
v -0.07765815407037735 0.07417161762714386 0.9847937226295471
v -0.07535237073898315 0.07462619990110397 0.9820480942726135
v -0.06656748056411743 0.08432728797197342 0.9913803935050964
v -0.07254093885421753 0.08098213374614716 0.9892979860305786
v -0.071146160364151 0.08284644037485123 0.9874600172042847
v -0.06341591477394104 0.08637158572673798 0.9899977445602417
v -0.06929850578308105 0.08392008394002914 0.9854838252067566
v -0.07544088363647461 0.0798683613538742 0.985271155834198
v -0.07557018846273422 0.07860706746578217 0.9877383708953857
v -0.04411408305168152 0.0727352574467659 0.9940522909164429
v -0.04345814883708954 0.07932379841804504 0.9921910762786865
v -0.046459026634693146 0.07926388084888458 0.9910469055175781
v -0.05564214289188385 0.07740260660648346 0.9845157265663147
v -0.0487133152782917 0.08533822745084763 0.9911864399909973
v -0.05265906825661659 0.08879518508911133 0.9946888089179993
v -0.0605340413749218 0.0862872302532196 0.9875126481056213
v -0.0573221780359745 0.08324774354696274 0.9854363799095154
v -0.06647902727127075 0.08299432694911957 0.9834027886390686
v -0.06434427201747894 0.08100922405719757 0.9824878573417664
v -0.06276094168424606 0.07639807462692261 0.9814567565917969
v -0.07020969688892365 0.07975247502326965 0.9815964102745056
v -0.07327158004045486 0.08055223524570465 0.9830137491226196
v -0.07105883210897446 0.07554298639297485 0.9806714653968811
v -0.0675216093659401 0.07910019159317017 0.9815300107002258
v -0.06751789152622223 0.07604587078094482 0.9808902144432068
v -0.024753712117671967 0.07110926508903503 0.9329075813293457
v -0.027873780578374863 0.07051970064640045 0.9383612275123596
v -0.020932670682668686 0.0699690580368042 0.938628613948822
v -0.011464070528745651 0.06908935308456421 0.9406207799911499
v -0.0013028383255004883 0.07076877355575562 0.9374234080314636
v -0.013430912047624588 0.07000945508480072 0.9471061825752258
v -0.023101333528757095 0.07084029167890549 0.9446017742156982
v -0.03301842510700226 0.07242793589830399 0.9437065720558167
v -0.007169410586357117 0.07167360186576843 0.9552071690559387
f 2 3 1
f 1 3 4
f 5 6 8
f 8 6 7
f 9 4 10
f 10 4 3
f 12 13 11
f 11 13 9
f 14 12 16
f 16 12 15
f 18 19 17
f 17 19 20
f 22 23 21
f 21 23 24
f 26 27 25
f 25 27 28
f 30 31 29
f 29 31 32
f 33 34 36
f 36 34 35
f 37 38 40
f 40 38 39
f 41 42 6
f 6 42 43
f 6 43 7
f 7 43 44
f 45 34 46
f 46 34 33
f 48 49 47
f 47 49 50
f 52 53 51
f 51 53 54
f 56 52 55
f 55 52 51
f 58 59 57
f 57 59 60
f 61 62 4
f 4 62 1
f 64 65 63
f 63 65 66
f 68 69 67
f 67 69 70
f 72 73 71
f 71 73 74
f 76 77 75
f 75 77 78
f 53 79 54
f 54 79 80
f 82 83 81
f 81 83 84
f 85 86 52
f 52 86 53
f 57 60 87
f 87 60 88
f 89 90 43
f 43 90 44
f 43 42 89
f 89 42 91
f 40 39 92
f 92 39 93
f 94 70 64
f 64 70 69
f 13 61 9
f 9 61 4
f 25 28 69
f 69 28 95
f 96 25 68
f 68 25 69
f 98 99 97
f 97 99 100
f 101 102 104
f 104 102 103
f 106 30 105
f 105 30 29
f 51 54 107
f 107 54 108
f 54 80 108
f 108 80 109
f 111 112 110
f 110 112 113
f 115 5 114
f 114 5 116
f 115 41 5
f 5 41 6
f 36 35 111
f 111 35 117
f 35 118 117
f 117 118 119
f 34 120 35
f 35 120 118
f 34 45 120
f 120 45 121
f 125 126 124
f 124 126 127
f 128 129 14
f 14 129 130
f 33 131 46
f 46 131 132
f 133 94 63
f 63 94 64
f 134 135 137
f 137 135 136
f 139 140 138
f 138 140 141
f 77 142 78
f 78 142 143
f 144 145 20
f 20 145 146
f 148 149 147
f 147 149 72
f 151 152 150
f 150 152 153
f 82 101 83
f 83 101 104
f 101 82 155
f 155 82 154
f 156 157 58
f 58 157 59
f 158 68 147
f 147 68 67
f 159 146 15
f 15 146 16
f 68 158 96
f 96 158 160
f 129 66 130
f 130 66 65
f 162 163 161
f 161 163 164
f 166 167 165
f 165 167 168
f 170 171 169
f 169 171 172
f 174 171 173
f 173 171 170
f 176 177 175
f 175 177 178
f 180 181 179
f 179 181 24
f 182 183 21
f 21 183 184
f 81 185 82
f 82 185 154
f 186 187 188
f 188 187 144
f 158 71 160
f 160 71 189
f 190 135 157
f 157 135 59
f 169 172 139
f 139 172 140
f 147 72 158
f 158 72 71
f 192 193 191
f 191 193 194
f 167 166 49
f 49 166 195
f 196 190 50
f 50 190 157
f 197 198 200
f 200 198 199
f 21 24 182
f 182 24 181
f 146 159 20
f 20 159 17
f 182 181 81
f 81 181 185
f 201 185 180
f 180 185 181
f 202 203 83
f 83 203 84
f 205 206 204
f 204 206 85
f 207 22 184
f 184 22 21
f 179 24 208
f 208 24 23
f 208 209 179
f 179 209 205
f 209 210 205
f 205 210 206
f 212 206 211
f 211 206 210
f 179 205 180
f 180 205 204
f 213 176 88
f 88 176 214
f 86 85 212
f 212 85 206
f 193 217 218
f 217 219 218
f 218 219 220
f 219 18 220
f 220 18 17
f 19 221 20
f 20 221 144
f 222 223 225
f 225 223 224
f 175 226 176
f 176 226 214
f 227 87 214
f 214 87 88
f 220 17 228
f 228 17 159
f 134 213 60
f 60 213 88
f 138 229 151
f 151 229 152
f 193 192 210
f 210 192 211
f 230 194 218
f 218 194 193
f 231 232 228
f 228 232 230
f 233 234 91
f 91 234 89
f 235 236 93
f 93 236 92
f 230 232 234
f 234 232 237
f 47 238 48
f 48 238 239
f 240 191 235
f 235 191 236
f 5 8 116
f 116 8 241
f 242 243 189
f 189 243 160
f 244 245 98
f 98 245 99
f 156 246 47
f 47 246 238
f 76 247 77
f 77 247 248
f 250 125 249
f 249 125 124
f 252 253 251
f 251 253 254
f 111 110 36
f 36 110 255
f 256 33 255
f 255 33 36
f 257 258 154
f 154 258 155
f 63 169 133
f 133 169 139
f 66 170 63
f 63 170 169
f 173 170 129
f 129 170 66
f 129 128 173
f 173 128 259
f 128 260 259
f 259 260 261
f 213 134 262
f 262 134 137
f 263 264 186
f 186 264 187
f 112 265 113
f 113 265 266
f 11 267 268
f 234 233 230
f 230 233 194
f 153 269 70
f 70 269 67
f 175 178 165
f 165 178 141
f 150 153 94
f 94 153 70
f 271 221 270
f 270 221 207
f 269 153 272
f 272 153 152
f 121 45 109
f 109 45 108
f 47 50 156
f 156 50 157
f 57 273 58
f 58 273 274
f 145 275 260
f 260 275 261
f 276 149 143
f 143 149 78
f 148 269 75
f 75 269 272
f 207 277 270
f 270 277 278
f 195 196 49
f 49 196 50
f 59 135 60
f 60 135 134
f 83 104 202
f 202 104 279
f 149 148 78
f 78 148 75
f 247 278 248
f 248 278 277
f 183 182 84
f 84 182 81
f 48 239 281
f 281 239 282
f 227 223 283
f 283 223 222
f 223 226 224
f 224 226 168
f 281 282 224
f 224 282 225
f 165 168 175
f 175 168 226
f 264 263 138
f 138 263 229
f 14 16 128
f 128 16 260
f 220 228 218
f 218 228 230
f 87 227 284
f 284 227 283
f 260 16 145
f 145 16 146
f 244 98 258
f 258 98 155
f 58 274 156
f 156 274 246
f 107 285 51
f 51 285 55
f 243 286 160
f 160 286 96
f 234 237 89
f 89 237 90
f 46 132 107
f 107 132 285
f 253 252 249
f 249 252 250
f 286 26 96
f 96 26 25
f 106 105 287
f 287 105 288
f 272 152 289
f 289 152 229
f 138 151 139
f 139 151 133
f 183 290 161
f 161 290 162
f 291 292 277
f 277 292 293
f 151 150 133
f 133 150 94
f 262 275 177
f 177 275 187
f 144 187 145
f 145 187 275
f 273 57 284
f 284 57 87
f 174 136 190
f 190 136 135
f 111 117 112
f 112 117 38
f 117 119 38
f 38 119 123
f 112 38 265
f 265 38 37
f 287 288 254
f 254 288 251
f 228 159 231
f 231 159 15
f 223 227 226
f 226 227 214
f 147 67 148
f 148 67 269
f 224 168 281
f 281 168 167
f 199 163 200
f 200 163 162
f 45 46 108
f 108 46 107
f 281 167 48
f 48 167 49
f 161 164 291
f 291 164 292
f 38 123 39
f 293 294 277
f 277 294 248
f 284 283 296
f 296 283 295
f 284 296 273
f 273 296 297
f 274 273 298
f 298 273 297
f 246 274 299
f 299 274 298
f 283 222 295
f 295 222 300
f 222 225 300
f 300 225 301
f 301 225 302
f 302 225 282
f 303 304 300
f 300 304 295
f 306 307 305
f 305 307 308
f 309 310 308
f 308 310 305
f 308 307 312
f 312 307 311
f 313 314 312
f 312 314 315
f 311 316 312
f 312 316 313
f 317 304 311
f 311 304 316
f 315 309 312
f 312 309 308
f 318 319 321
f 321 319 320
f 319 318 309
f 309 318 310
f 311 307 317
f 317 307 306
f 306 297 317
f 317 297 296
f 306 322 297
f 297 322 298
f 305 323 306
f 306 323 322
f 323 305 324
f 324 305 310
f 304 317 295
f 295 317 296
f 318 325 310
f 310 325 324
f 323 324 326
f 326 324 327
f 324 325 327
f 327 325 328
f 326 327 329
f 329 327 330
f 329 331 326
f 326 331 332
f 333 330 328
f 328 330 327
f 323 326 322
f 322 326 332
f 322 332 298
f 298 332 299
f 325 318 334
f 334 318 321
f 313 316 335
f 335 316 304
f 335 336 313
f 313 336 314
f 304 303 335
f 335 303 337
f 336 335 338
f 338 335 337
f 336 339 314
f 314 339 340
f 246 299 238
f 238 299 341
f 239 342 282
f 282 342 302
f 342 239 341
f 341 239 238
f 341 331 342
f 342 331 343
f 331 329 343
f 343 329 344
f 342 343 302
f 302 343 345
f 341 299 331
f 331 299 332
f 346 301 345
f 345 301 302
f 346 303 301
f 301 303 300
f 347 337 346
f 346 337 303
f 347 346 348
f 348 346 345
f 349 347 350
f 350 347 348
f 343 344 345
f 345 344 348
f 344 351 348
f 348 351 350
f 337 347 338
f 338 347 349
f 353 338 352
f 352 338 349
f 352 355 354
f 354 355 356
f 352 349 355
f 355 349 350
f 352 354 353
f 353 354 334
f 353 334 339
f 339 334 321
f 339 336 353
f 353 336 338
f 329 330 344
f 344 330 351
f 356 351 333
f 333 351 330
f 356 355 351
f 351 355 350
f 354 356 328
f 328 356 333
f 328 325 354
f 354 325 334
f 309 315 319
f 319 315 320
f 320 340 321
f 321 340 339
f 320 315 340
f 340 315 314
f 137 136 261
f 261 136 259
f 140 166 141
f 141 166 165
f 172 171 195
f 195 171 196
f 171 174 196
f 196 174 190
f 178 177 264
f 264 177 187
f 172 195 140
f 140 195 166
f 137 261 262
f 262 261 275
f 178 264 141
f 141 264 138
f 262 177 213
f 213 177 176
f 136 174 259
f 259 174 173
f 358 359 357
f 357 359 360
f 362 363 361
f 361 363 364
f 361 364 365
f 365 364 366
f 367 368 370
f 370 368 369
f 76 371 247
f 247 371 372
f 373 374 362
f 362 374 363
f 376 377 375
f 375 377 378
f 289 229 380
f 380 229 379
f 381 379 263
f 263 379 229
f 383 384 382
f 382 384 385
f 386 368 374
f 374 368 363
f 76 289 371
f 371 289 380
f 377 376 359
f 359 376 387
f 388 386 360
f 360 386 374
f 389 383 366
f 366 383 390
f 392 393 391
f 391 393 394
f 383 382 390
f 390 382 395
f 396 365 390
f 390 365 366
f 389 366 367
f 367 366 364
f 357 397 358
f 358 397 398
f 373 399 357
f 357 399 397
f 389 367 400
f 400 367 370
f 382 385 375
f 375 385 372
f 357 360 373
f 373 360 374
f 361 401 362
f 362 401 402
f 387 388 359
f 359 388 360
f 363 368 364
f 364 368 367
f 358 398 403
f 403 398 404
f 396 392 405
f 405 392 391
f 392 395 393
f 393 395 378
f 393 403 394
f 394 403 404
f 375 378 382
f 382 378 395
f 365 396 406
f 406 396 405
f 362 402 373
f 373 402 399
f 271 270 400
f 400 270 384
f 401 361 406
f 406 361 365
f 381 369 386
f 386 369 368
f 392 396 395
f 395 396 390
f 393 378 403
f 403 378 377
f 403 377 358
f 358 377 359
f 406 405 408
f 408 405 407
f 406 408 401
f 401 408 409
f 401 409 402
f 402 409 410
f 402 410 399
f 399 410 411
f 405 391 407
f 407 391 412
f 391 394 412
f 412 394 413
f 394 404 413
f 413 404 414
f 415 416 412
f 412 416 407
f 418 419 417
f 417 419 420
f 421 422 418
f 418 422 419
f 419 422 424
f 424 422 423
f 425 426 424
f 424 426 427
f 423 428 424
f 424 428 425
f 427 420 424
f 424 420 419
f 420 429 417
f 417 429 430
f 423 422 431
f 431 422 421
f 421 409 431
f 431 409 408
f 421 432 409
f 409 432 410
f 418 433 421
f 421 433 432
f 434 433 417
f 417 433 418
f 431 416 423
f 423 416 428
f 416 431 407
f 407 431 408
f 435 434 430
f 430 434 417
f 433 434 436
f 436 434 437
f 434 435 437
f 437 435 438
f 436 437 439
f 439 437 440
f 439 441 436
f 436 441 442
f 438 443 437
f 437 443 440
f 436 442 433
f 433 442 432
f 432 442 410
f 410 442 411
f 435 430 445
f 445 430 444
f 430 429 444
f 444 429 446
f 425 428 447
f 447 428 416
f 426 425 448
f 448 425 447
f 416 415 447
f 447 415 449
f 447 449 448
f 448 449 450
f 451 452 448
f 448 452 426
f 446 452 444
f 444 452 451
f 399 411 397
f 397 411 453
f 398 454 404
f 404 454 414
f 454 398 453
f 453 398 397
f 453 441 454
f 454 441 455
f 441 439 455
f 455 439 456
f 454 455 414
f 414 455 457
f 441 453 442
f 442 453 411
f 458 413 457
f 457 413 414
f 458 415 413
f 413 415 412
f 458 459 415
f 415 459 449
f 459 458 460
f 460 458 457
f 461 459 462
f 462 459 460
f 455 456 457
f 457 456 460
f 456 463 460
f 460 463 462
f 459 461 449
f 449 461 450
f 465 450 464
f 464 450 461
f 464 467 466
f 466 467 468
f 464 461 467
f 467 461 462
f 464 466 465
f 465 466 445
f 465 445 451
f 451 445 444
f 451 448 465
f 465 448 450
f 439 440 456
f 456 440 463
f 468 463 443
f 443 463 440
f 468 467 463
f 463 467 462
f 466 468 438
f 438 468 443
f 438 435 466
f 466 435 445
f 420 427 429
f 429 427 446
f 446 427 452
f 452 427 426
f 370 369 188
f 188 369 186
f 371 376 372
f 372 376 375
f 380 379 387
f 387 379 388
f 379 381 388
f 388 381 386
f 385 384 278
f 278 384 270
f 380 387 371
f 371 387 376
f 400 370 271
f 271 370 188
f 385 278 372
f 372 278 247
f 400 384 389
f 389 384 383
f 369 381 186
f 186 381 263
f 221 271 144
f 144 271 188
f 221 19 207
f 207 19 22
f 19 18 22
f 22 18 23
f 18 219 23
f 23 219 208
f 469 470 472
f 472 470 471
f 474 475 473
f 473 475 476
f 473 476 477
f 477 476 478
f 480 481 479
f 479 481 482
f 483 484 474
f 474 484 475
f 486 487 485
f 485 487 488
f 489 490 77
f 77 490 142
f 491 489 248
f 248 489 77
f 493 494 492
f 492 494 495
f 496 480 484
f 484 480 475
f 486 497 487
f 487 497 471
f 498 496 472
f 472 496 484
f 499 493 478
f 478 493 500
f 501 502 504
f 504 502 503
f 493 492 500
f 500 492 505
f 506 477 500
f 500 477 478
f 499 478 479
f 479 478 476
f 469 507 470
f 470 507 508
f 483 509 469
f 469 509 507
f 479 482 499
f 499 482 510
f 492 495 485
f 485 495 511
f 483 469 484
f 484 469 472
f 473 512 474
f 474 512 513
f 497 498 471
f 471 498 472
f 475 480 476
f 476 480 479
f 470 508 514
f 514 508 515
f 506 502 516
f 516 502 501
f 503 502 488
f 488 502 505
f 514 515 503
f 503 515 504
f 485 488 492
f 492 488 505
f 477 506 517
f 517 506 516
f 474 513 483
f 483 513 509
f 510 292 494
f 494 292 164
f 512 473 517
f 517 473 477
f 491 481 496
f 496 481 480
f 502 506 505
f 505 506 500
f 503 488 514
f 514 488 487
f 514 487 470
f 470 487 471
f 517 516 519
f 519 516 518
f 517 519 512
f 512 519 520
f 512 520 513
f 513 520 521
f 513 521 509
f 509 521 522
f 516 501 518
f 518 501 523
f 501 504 523
f 523 504 524
f 524 504 525
f 525 504 515
f 526 527 523
f 523 527 518
f 529 530 528
f 528 530 531
f 532 533 529
f 529 533 530
f 530 533 535
f 535 533 534
f 536 537 535
f 535 537 538
f 534 539 535
f 535 539 536
f 538 531 535
f 535 531 530
f 540 541 531
f 531 541 528
f 533 532 534
f 534 532 542
f 532 520 542
f 542 520 519
f 532 543 520
f 520 543 521
f 529 544 532
f 532 544 543
f 544 529 545
f 545 529 528
f 534 542 539
f 539 542 527
f 527 542 518
f 518 542 519
f 541 546 528
f 528 546 545
f 547 544 548
f 548 544 545
f 546 549 545
f 545 549 548
f 550 547 551
f 551 547 548
f 547 550 553
f 553 550 552
f 549 554 548
f 548 554 551
f 544 547 543
f 543 547 553
f 543 553 521
f 521 553 522
f 546 541 556
f 556 541 555
f 541 540 555
f 555 540 557
f 536 539 558
f 558 539 527
f 537 536 559
f 559 536 558
f 527 526 558
f 558 526 560
f 559 558 561
f 561 558 560
f 559 562 537
f 537 562 563
f 557 563 555
f 555 563 562
f 509 522 507
f 507 522 564
f 508 565 515
f 515 565 525
f 565 508 564
f 564 508 507
f 564 552 565
f 565 552 566
f 552 550 566
f 566 550 567
f 565 566 525
f 525 566 568
f 564 522 552
f 552 522 553
f 569 524 568
f 568 524 525
f 569 526 524
f 524 526 523
f 570 560 569
f 569 560 526
f 570 569 571
f 571 569 568
f 572 570 573
f 573 570 571
f 566 567 568
f 568 567 571
f 567 574 571
f 571 574 573
f 570 572 560
f 560 572 561
f 576 561 575
f 575 561 572
f 575 578 577
f 577 578 579
f 575 572 578
f 578 572 573
f 575 577 576
f 576 577 556
f 576 556 562
f 562 556 555
f 562 559 576
f 576 559 561
f 550 551 567
f 567 551 574
f 579 574 554
f 554 574 551
f 579 578 574
f 574 578 573
f 579 554 577
f 577 554 549
f 549 546 577
f 577 546 556
f 531 538 540
f 540 538 557
f 557 538 563
f 563 538 537
f 481 294 482
f 482 294 293
f 580 486 511
f 511 486 485
f 490 489 497
f 497 489 498
f 489 491 498
f 498 491 496
f 163 495 164
f 164 495 494
f 580 490 486
f 486 490 497
f 482 293 510
f 510 293 292
f 495 163 511
f 511 163 199
f 494 493 510
f 510 493 499
f 481 491 294
f 294 491 248
f 582 583 581
f 581 583 584
f 586 587 585
f 585 587 588
f 585 588 589
f 589 588 590
f 592 593 591
f 591 593 594
f 595 596 598
f 598 596 597
f 599 600 586
f 586 600 587
f 601 602 604
f 604 602 603
f 605 606 608
f 608 606 607
f 609 607 200
f 200 607 606
f 610 611 613
f 613 611 612
f 600 614 587
f 587 614 592
f 596 605 597
f 597 605 608
f 602 615 603
f 603 615 583
f 616 614 584
f 584 614 600
f 611 618 617
f 617 618 590
f 620 621 619
f 619 621 622
f 610 623 611
f 611 623 618
f 624 589 618
f 618 589 590
f 617 590 591
f 591 590 588
f 581 625 582
f 582 625 626
f 599 627 581
f 581 627 625
f 591 594 617
f 617 594 628
f 601 610 598
f 598 610 613
f 581 584 599
f 599 584 600
f 585 629 586
f 586 629 630
f 615 616 583
f 583 616 584
f 587 592 588
f 588 592 591
f 582 626 631
f 631 626 632
f 624 620 633
f 633 620 619
f 621 620 604
f 604 620 623
f 631 632 621
f 621 632 622
f 610 601 623
f 623 601 604
f 589 624 634
f 634 624 633
f 586 630 599
f 599 630 627
f 203 202 628
f 628 202 612
f 629 585 634
f 634 585 589
f 609 593 614
f 614 593 592
f 620 624 623
f 623 624 618
f 631 621 603
f 603 621 604
f 582 631 583
f 583 631 603
f 634 633 636
f 636 633 635
f 634 636 629
f 629 636 637
f 629 637 630
f 630 637 638
f 630 638 627
f 627 638 639
f 633 619 635
f 635 619 640
f 619 622 640
f 640 622 641
f 641 622 642
f 642 622 632
f 644 635 643
f 643 635 640
f 645 646 648
f 648 646 647
f 649 650 646
f 646 650 647
f 647 650 652
f 652 650 651
f 652 653 655
f 655 653 654
f 651 656 652
f 652 656 653
f 655 648 652
f 652 648 647
f 648 657 645
f 645 657 658
f 650 649 651
f 651 649 659
f 649 637 659
f 659 637 636
f 649 660 637
f 637 660 638
f 661 660 646
f 646 660 649
f 662 661 645
f 645 661 646
f 651 659 656
f 656 659 644
f 644 659 635
f 635 659 636
f 663 662 658
f 658 662 645
f 664 661 665
f 665 661 662
f 663 666 662
f 662 666 665
f 667 664 668
f 668 664 665
f 664 667 670
f 670 667 669
f 666 671 665
f 665 671 668
f 661 664 660
f 660 664 670
f 660 670 638
f 638 670 639
f 658 672 663
f 663 672 673
f 658 657 672
f 672 657 674
f 653 656 675
f 675 656 644
f 653 675 654
f 654 675 676
f 675 644 677
f 677 644 643
f 676 675 678
f 678 675 677
f 679 680 676
f 676 680 654
f 674 680 672
f 672 680 679
f 627 639 625
f 625 639 681
f 626 682 632
f 632 682 642
f 681 682 625
f 625 682 626
f 669 683 681
f 681 683 682
f 667 684 669
f 669 684 683
f 682 683 642
f 642 683 685
f 681 639 669
f 669 639 670
f 686 641 685
f 685 641 642
f 641 686 640
f 640 686 643
f 686 687 643
f 643 687 677
f 687 686 688
f 688 686 685
f 689 687 690
f 690 687 688
f 683 684 685
f 685 684 688
f 684 691 688
f 688 691 690
f 687 689 677
f 677 689 678
f 693 678 692
f 692 678 689
f 692 695 694
f 694 695 696
f 692 689 695
f 695 689 690
f 692 694 693
f 693 694 673
f 693 673 679
f 679 673 672
f 679 676 693
f 693 676 678
f 684 667 691
f 691 667 668
f 696 691 671
f 671 691 668
f 696 695 691
f 691 695 690
f 694 696 666
f 666 696 671
f 666 663 694
f 694 663 673
f 648 655 657
f 657 655 674
f 674 655 680
f 680 655 654
f 593 162 594
f 594 162 290
f 598 597 601
f 601 597 602
f 615 608 616
f 616 608 607
f 607 609 616
f 616 609 614
f 697 595 613
f 613 595 598
f 597 608 602
f 602 608 615
f 594 290 628
f 628 290 203
f 628 612 617
f 617 612 611
f 593 609 162
f 162 609 200
f 105 29 698
f 698 29 699
f 268 126 701
f 701 126 700
f 126 125 700
f 700 125 702
f 252 703 250
f 250 703 704
f 32 268 705
f 705 268 701
f 288 105 706
f 706 105 698
f 29 32 699
f 699 32 705
f 707 251 706
f 706 251 288
f 250 704 125
f 125 704 702
f 703 252 707
f 707 252 251
f 706 708 707
f 707 708 709
f 707 709 703
f 703 709 710
f 703 710 704
f 704 710 711
f 704 711 702
f 702 711 712
f 706 698 708
f 708 698 713
f 698 699 713
f 713 699 714
f 699 705 714
f 714 705 715
f 717 708 716
f 716 708 713
f 719 720 718
f 718 720 721
f 722 723 719
f 719 723 720
f 724 725 723
f 723 725 720
f 724 726 725
f 725 726 727
f 728 721 725
f 725 721 720
f 721 728 729
f 729 728 730
f 729 731 721
f 721 731 718
f 724 723 732
f 732 723 722
f 722 710 732
f 732 710 709
f 722 733 710
f 710 733 711
f 719 734 722
f 722 734 733
f 734 719 735
f 735 719 718
f 724 732 726
f 726 732 717
f 717 732 708
f 708 732 709
f 731 736 718
f 718 736 735
f 737 734 738
f 738 734 735
f 736 739 735
f 735 739 738
f 740 737 741
f 741 737 738
f 737 740 743
f 743 740 742
f 739 744 738
f 738 744 741
f 734 737 733
f 733 737 743
f 733 743 711
f 711 743 712
f 736 731 746
f 746 731 745
f 731 729 745
f 745 729 730
f 727 726 747
f 747 726 717
f 748 727 749
f 749 727 747
f 747 717 750
f 750 717 716
f 749 747 751
f 751 747 750
f 749 752 748
f 748 752 753
f 730 753 745
f 745 753 752
f 728 725 748
f 748 725 727
f 730 728 753
f 753 728 748
f 700 702 754
f 754 702 712
f 705 701 715
f 715 701 755
f 754 755 700
f 700 755 701
f 742 756 754
f 754 756 755
f 740 757 742
f 742 757 756
f 755 756 715
f 715 756 758
f 754 712 742
f 742 712 743
f 759 714 758
f 758 714 715
f 714 759 713
f 713 759 716
f 759 760 716
f 716 760 750
f 760 759 761
f 761 759 758
f 762 760 763
f 763 760 761
f 756 757 758
f 758 757 761
f 757 764 761
f 761 764 763
f 760 762 750
f 750 762 751
f 766 751 765
f 765 751 762
f 767 765 769
f 769 765 768
f 765 762 768
f 768 762 763
f 765 767 766
f 766 767 746
f 766 746 752
f 752 746 745
f 752 749 766
f 766 749 751
f 757 740 764
f 764 740 741
f 769 764 744
f 744 764 741
f 769 768 764
f 764 768 763
f 767 769 739
f 739 769 744
f 739 736 767
f 767 736 746
f 219 217 208
f 208 217 209
f 209 217 210
f 210 217 193
f 198 580 199
f 199 580 511
f 76 75 289
f 289 75 272
f 277 207 291
f 291 207 184
f 290 183 203
f 203 183 84
f 490 580 142
f 142 580 198
f 142 198 143
f 143 198 197
f 149 276 72
f 72 276 73
f 104 103 279
f 279 103 770
f 770 596 279
f 279 596 595
f 605 596 771
f 771 596 770
f 771 770 772
f 772 770 103
f 772 103 773
f 773 103 102
f 155 774 101
f 101 774 102
f 773 102 97
f 97 102 774
f 775 773 100
f 100 773 97
f 773 775 772
f 772 775 776
f 772 776 771
f 771 776 777
f 200 606 197
f 197 606 777
f 189 71 778
f 778 71 74
f 97 774 98
f 98 774 155
f 183 161 184
f 184 161 291
f 777 276 197
f 197 276 143
f 777 606 771
f 771 606 605
f 613 612 697
f 697 612 202
f 595 697 279
f 279 697 202
f 73 276 776
f 776 276 777
f 776 775 73
f 73 775 74
f 100 778 775
f 775 778 74
f 778 100 189
f 189 100 99
f 245 242 99
f 99 242 189
f 131 33 256
f 28 1 95
f 95 1 62
f 27 2 28
f 28 2 1
f 265 115 266
f 266 115 114
f 95 62 69
f 69 62 64
f 62 61 64
f 64 61 65
f 61 13 65
f 65 13 130
f 13 12 130
f 130 12 14
f 31 11 32
f 32 11 268
f 15 12 31
f 31 12 11
f 31 30 15
f 15 30 231
f 30 106 231
f 231 106 232
f 287 237 106
f 106 237 232
f 254 90 287
f 287 90 237
f 253 44 254
f 254 44 90
f 253 249 44
f 44 249 7
f 267 127 268
f 268 127 126
f 10 3 241
f 241 3 116
f 3 2 116
f 116 2 114
f 2 27 114
f 114 27 266
f 27 26 266
f 266 26 113
f 26 286 113
f 113 286 110
f 286 243 110
f 110 243 255
f 243 242 255
f 255 242 256
f 242 245 256
f 256 245 131
f 245 244 131
f 131 244 132
f 265 37 115
f 115 37 41
f 41 37 42
f 42 37 40
f 92 91 40
f 40 91 42
f 236 233 92
f 92 233 91
f 191 194 236
f 236 194 233
f 258 285 244
f 244 285 132
f 257 55 258
f 258 55 285
f 257 154 201
f 201 154 185
f 56 201 204
f 204 201 180
f 55 257 56
f 56 257 201
f 204 85 56
f 56 85 52
f 86 122 53
f 53 122 79
f 212 215 86
f 86 215 122
f 211 216 212
f 212 216 215
f 192 280 211
f 211 280 216
f 191 240 192
f 192 240 280
f 249 124 7
f 7 124 8
f 124 127 8
f 8 127 241
f 127 267 241
f 241 267 10
f 10 267 9
f 9 267 11
