v -0.009741619229316711 0.059374626725912094 0.8687752485275269
v 0.0029933899641036987 0.055343225598335266 0.8681214451789856
v -0.003711991012096405 0.05045344680547714 0.8732706308364868
v -0.014819998294115067 0.05525297671556473 0.8744116425514221
v 0.013197354972362518 0.04688969999551773 0.8858506679534912
v 0.016431458294391632 0.052101776003837585 0.8959681391716003
v 3.349035978317261e-05 0.04885609447956085 0.8966495394706726
v 0.0010431930422782898 0.04433108866214752 0.8872154355049133
v -0.019717879593372345 0.054807864129543304 0.877970278263092
v -0.010340951383113861 0.04825315251946449 0.8765259981155396
v -0.02151477336883545 0.05971887707710266 0.8782198429107666
v -0.029779579490423203 0.06909003108739853 0.8835049271583557
v -0.028767026960849762 0.06264873594045639 0.8819252252578735
v -0.037071093916893005 0.07346860319375992 0.8847097158432007
v -0.024213865399360657 0.07874037325382233 0.884344220161438
v -0.03501764312386513 0.08185286074876785 0.8810451030731201
v -0.015679504722356796 0.09355669468641281 0.8660097718238831
v -0.012146774679422379 0.09447089582681656 0.8538037538528442
v -0.027545267716050148 0.09227137267589569 0.8524736762046814
v -0.029673615470528603 0.09088470041751862 0.8651210069656372
v -0.017371967434883118 0.08908390253782272 0.8352255821228027
v -0.02392156794667244 0.0909537598490715 0.8445191979408264
v -0.008335798978805542 0.09420249611139297 0.8459093570709229
v -0.0031663887202739716 0.09208443015813828 0.8374740481376648
v -0.0025341734290122986 0.06410124897956848 0.8572871685028076
v 0.00897776335477829 0.06235683709383011 0.8563631176948547
v 0.007551230490207672 0.0607130229473114 0.8607196807861328
v -0.004170726984739304 0.06298693269491196 0.8617323637008667
v -0.024244409054517746 0.06080519035458565 0.8827913403511047
v -0.017539173364639282 0.07041206955909729 0.8882923722267151
v -0.021313726902008057 0.06705154478549957 0.8829046487808228
v -0.023353829979896545 0.056946754455566406 0.8790231347084045
v 0.03434925526380539 0.05598797649145126 0.8482668995857239
v 0.04619088023900986 0.06182023882865906 0.8505417704582214
v 0.045550040900707245 0.06233590096235275 0.8564732074737549
v 0.03498705476522446 0.057251233607530594 0.8531932234764099
v 0.03730420768260956 0.058710284531116486 0.8815200328826904
v 0.044625021517276764 0.06483174860477448 0.8757817149162292
v 0.048438385128974915 0.07385528832674026 0.8846785426139832
v 0.03920280933380127 0.07134557515382767 0.8893845677375793
v 0.027537822723388672 0.053885988891124725 0.8903422355651855
v 0.02920439839363098 0.06495672464370728 0.896309494972229
v 0.014657437801361084 0.06220244988799095 0.9017333984375
v -0.0034358836710453033 0.056113481521606445 0.9017594456672668
v 0.04764596372842789 0.06374931335449219 0.8379862308502197
v 0.03931208699941635 0.059239670634269714 0.8345128297805786
v -0.08316968381404877 0.09729571640491486 0.8733466863632202
v -0.08253172039985657 0.09737321734428406 0.867579996585846
v -0.0800715908408165 0.09058329463005066 0.8698846101760864
v -0.08064926415681839 0.09219062328338623 0.8751040101051331
v 0.04097957909107208 0.07794927805662155 0.8255274295806885
v 0.039543263614177704 0.08787459135055542 0.8263987898826599
v 0.04669715464115143 0.08679483830928802 0.8261789083480835
v 0.048251956701278687 0.07761181890964508 0.8272383213043213
v 0.03132251650094986 0.07823941111564636 0.8234058022499084
v 0.029530011117458344 0.0887061059474945 0.8272408246994019
v -0.07389276474714279 0.10372182726860046 0.8779223561286926
v -0.07835382223129272 0.10151582956314087 0.8788771033287048
v -0.07476665824651718 0.09760792553424835 0.8799363374710083
v -0.06993978470563889 0.0993485078215599 0.8777613639831543
v -0.025434955954551697 0.05982108786702156 0.877788245677948
v -0.02055758610367775 0.06054046005010605 0.8705810904502869
v -0.04879402741789818 0.06425902992486954 0.8781065940856934
v -0.035435233265161514 0.062470823526382446 0.8738008737564087
v -0.035851798951625824 0.06293760240077972 0.8807897567749023
v -0.046221137046813965 0.06613846123218536 0.8836811184883118
v -0.02513490989804268 0.0648813471198082 0.8523758053779602
v -0.013395577669143677 0.0652160495519638 0.8536335825920105
v -0.01631961017847061 0.06496962904930115 0.8593038320541382
v -0.029580462723970413 0.0639546737074852 0.8597519397735596
v -0.009056136012077332 0.06245468556880951 0.8404936194419861
v -0.020979437977075577 0.0627497062087059 0.840310275554657
v -0.0172048918902874 0.06105457991361618 0.8328981399536133
v -0.00930071622133255 0.06028059497475624 0.8343518972396851
v -0.04376061260700226 0.0644051730632782 0.8426351547241211
v -0.051978301256895065 0.06859958171844482 0.8420806527137756
v -0.05145415663719177 0.07025722414255142 0.8382092118263245
v -0.042379554361104965 0.06510117650032043 0.8388867974281311
v 0.05373199284076691 0.08681018650531769 0.8264261484146118
v 0.055006831884384155 0.0776846706867218 0.8297715783119202
v -0.0084407739341259 0.08225551247596741 0.8174728751182556
v -0.0022535473108291626 0.07470890879631042 0.8126527070999146
v -0.014304794371128082 0.0718393325805664 0.8087209463119507
v -0.01717318966984749 0.08062227070331573 0.8148794770240784
v 0.036400966346263885 0.09548678994178772 0.8326748609542847
v 0.043872177600860596 0.09545870870351791 0.8303839564323425
v -0.06990817934274673 0.10538932681083679 0.8734609484672546
v -0.0669005736708641 0.10073080658912659 0.8726992607116699
v 0.014351993799209595 0.07389979064464569 0.8996655941009521
v -0.0056291744112968445 0.0652407705783844 0.9011845588684082
v 0.029330842196941376 0.07880306243896484 0.8943043947219849
v 0.03875576704740524 0.08293761312961578 0.8888688087463379
v 0.0473577082157135 0.08535560220479965 0.8866661787033081
v -0.039561375975608826 0.062208350747823715 0.8680709004402161
v -0.014342296868562698 0.0630006268620491 0.8643943667411804
v -0.001000862568616867 0.06399393081665039 0.8527946472167969
v 0.0038596317172050476 0.056218039244413376 0.8236638903617859
v 0.014322228729724884 0.055908363312482834 0.8253486156463623
v 0.00860806554555893 0.055725954473018646 0.8342918157577515
v 0.0006072893738746643 0.05669896677136421 0.8308985829353333
v -0.0015774630010128021 0.06499878317117691 0.8117323517799377
v -0.0043527111411094666 0.059067703783512115 0.8161044120788574
v -0.013555563986301422 0.0588669590651989 0.8144559264183044
v -0.012220382690429688 0.06371546536684036 0.8095813989639282
v -0.02515975385904312 0.06209924817085266 0.8895777463912964
v -0.013546053320169449 0.07273472100496292 0.8931757211685181
v 0.04172801226377487 0.06786996126174927 0.8283082246780396
v 0.04837368428707123 0.06876470893621445 0.8321147561073303
v 0.05600150674581528 0.07148279249668121 0.8343278765678406
v 0.022124558687210083 0.05825413018465042 0.8540412783622742
v 0.0355483740568161 0.05791422724723816 0.8569087982177734
v 0.03481230139732361 0.05719170719385147 0.8621672987937927
v 0.022038467228412628 0.05853526294231415 0.8572008609771729
v 0.015275709331035614 0.050390519201755524 0.8717515468597412
v 0.02560587227344513 0.05025250464677811 0.878191351890564
v 0.0056245774030685425 0.04570667818188667 0.8763874769210815
v 0.046379655599594116 0.06331900507211685 0.8650187253952026
v 0.055251024663448334 0.0644867867231369 0.8583412766456604
v 0.054753080010414124 0.06619787216186523 0.8671881556510925
v 0.05618969351053238 0.06522491574287415 0.8486261367797852
v 0.05649228394031525 0.06739049404859543 0.8400031924247742
v 0.051681049168109894 0.09830905497074127 0.8287895917892456
v 0.053165145218372345 0.06929322332143784 0.8749709725379944
v -0.007392570376396179 0.04318804293870926 0.8864924907684326
v -0.015193995088338852 0.04142249375581741 0.8846652507781982
v -0.016375739127397537 0.04479671269655228 0.8776054382324219
v -0.009456448256969452 0.045606859028339386 0.8783788084983826
v -0.04553365707397461 0.07890202105045319 0.8847889304161072
v -0.04696376621723175 0.07165723294019699 0.8861261010169983
v -0.03568689152598381 0.06669051200151443 0.8854286074638367
v 0.024741321802139282 0.0549079068005085 0.8418728709220886
v 0.029491223394870758 0.0574171356856823 0.830541729927063
v -0.05233006179332733 0.06564242392778397 0.8721579909324646
v -0.06522398442029953 0.09953878819942474 0.8770816326141357
v -0.06913591176271439 0.09655067324638367 0.8804491758346558
v -0.05605745315551758 0.08917136490345001 0.8825927972793579
v -0.05355410277843475 0.09331727772951126 0.8784170150756836
v -0.05909520015120506 0.07504765689373016 0.8663345575332642
v -0.05786494165658951 0.0712575688958168 0.8715451955795288
v -0.060436125844717026 0.07547955214977264 0.8704618811607361
v -0.06144728884100914 0.07903894782066345 0.8653376698493958
v -0.046579886227846146 0.06805326044559479 0.8307410478591919
v -0.03833502158522606 0.06373980641365051 0.8314921259880066
v -0.04443362355232239 0.08544944226741791 0.863602340221405
v -0.040581900626420975 0.08721435815095901 0.8748940825462341
v -0.03136446326971054 0.08856361359357834 0.8739500045776367
v -0.021980389952659607 0.06411062180995941 0.8456621766090393
v -0.03279659152030945 0.06353935599327087 0.8436421751976013
v -0.03161414712667465 0.06330177187919617 0.839628279209137
v -0.043118640780448914 0.06323032826185226 0.8645325899124146
v -0.05305837094783783 0.0663730576634407 0.8660037517547607
v -0.04856617748737335 0.06533157080411911 0.8608313798904419
v -0.03928724676370621 0.06407347321510315 0.8594920635223389
v 0.010112158954143524 0.07719246298074722 0.8158905506134033
v 0.01104215532541275 0.06574549525976181 0.814362108707428
v -0.08166671544313431 0.09896990656852722 0.8773872256278992
v -0.07839863002300262 0.09452170133590698 0.8788618445396423
v -0.010550878942012787 0.06445643305778503 0.8470391035079956
v -0.018528427928686142 0.0895763486623764 0.8742623329162598
v 0.0007937438786029816 0.06322703510522842 0.8477608561515808
v -0.03199939802289009 0.08010013401508331 0.824416995048523
v -0.03368430584669113 0.0750272274017334 0.8205884695053101
v -0.03940872848033905 0.0762142613530159 0.8224804997444153
v -0.037688612937927246 0.08126966655254364 0.8243668079376221
v -0.0709233283996582 0.08970203995704651 0.8615482449531555
v -0.07455560564994812 0.08754152804613113 0.8655767440795898
v -0.07810062915086746 0.0909641832113266 0.8639043569564819
v -0.0740262120962143 0.09307310730218887 0.8606873750686646
v -0.05676448345184326 0.07114693522453308 0.8773479461669922
v -0.054441094398498535 0.07256442308425903 0.883222758769989
v -0.06034782901406288 0.07816605269908905 0.880913257598877
v -0.06103341653943062 0.07636179029941559 0.8754909634590149
v -0.05343162268400192 0.0788356214761734 0.8851203322410583
v -0.05836557224392891 0.08348509669303894 0.8834913969039917
v -0.06587684899568558 0.09399336576461792 0.8615867495536804
v -0.06162174046039581 0.09865991026163101 0.8661113977432251
v -0.05357813835144043 0.09185942262411118 0.8659156560897827
v -0.059100326150655746 0.08633715659379959 0.8637914657592773
v 0.010987818241119385 0.0953594297170639 0.8399364352226257
v 0.014718078076839447 0.09150387346744537 0.8303228616714478
v 0.0006483942270278931 0.08824163675308228 0.827547550201416
v -0.012692004442214966 0.0855843722820282 0.8243467211723328
v -0.02495729550719261 0.0816207081079483 0.8224471211433411
v -0.028393780812621117 0.0866728276014328 0.8328632712364197
v 0.004586663097143173 0.08512800931930542 0.8213204145431519
v -0.05617056414484978 0.07968051731586456 0.8615532517433167
v -0.049254972487688065 0.08480504900217056 0.8672102689743042
v -0.05116012319922447 0.08323094993829727 0.8626075387001038
v 0.0023677796125411987 0.06050274893641472 0.8410630226135254
v -0.07217042148113251 0.09321743249893188 0.8805686831474304
v 0.03663785010576248 0.09933861345052719 0.8748471736907959
v 0.03696329891681671 0.10312068462371826 0.8622972965240479
v 0.02854706346988678 0.10113450884819031 0.8639184236526489
v 0.02780185639858246 0.09641122072935104 0.8774803280830383
v -0.07593999803066254 0.08690455555915833 0.8723136782646179
v -0.07535208016633987 0.08916287124156952 0.8777526617050171
v -0.03709728270769119 0.06350571662187576 0.8252581357955933
v -0.04398414120078087 0.06829160451889038 0.8255629539489746
v -0.0438336580991745 0.07095180451869965 0.8227561116218567
v -0.03799019008874893 0.06506741046905518 0.8203778862953186
v 0.01793627440929413 0.08896759152412415 0.8261550664901733
v -0.022703588008880615 0.06848575174808502 0.8069560527801514
v -0.023683007806539536 0.07722155749797821 0.8113070726394653
v 0.02702689915895462 0.09441250562667847 0.8331533670425415
v 0.023853622376918793 0.09837178140878677 0.8414074182510376
v 0.033303603529930115 0.10037857294082642 0.8418905138969421
v -0.039555490016937256 0.08672662079334259 0.8438272476196289
v 0.0063434988260269165 0.09689369797706604 0.8470210433006287
v 0.020412132143974304 0.09932456165552139 0.8481292724609375
v 0.031576186418533325 0.10173164308071136 0.8490208983421326
v 0.03958289325237274 0.10396400094032288 0.8489215970039368
v 0.04071080684661865 0.10203790664672852 0.8411259651184082
v -0.06259990483522415 0.09972652792930603 0.8713810443878174
v -0.06555000692605972 0.10020850598812103 0.8667770028114319
v 0.04899107664823532 0.10541030764579773 0.8396918177604675
v 0.047491610050201416 0.10680568963289261 0.8486961722373962
v 0.017269298434257507 0.09955153614282608 0.8567712306976318
v 0.013766676187515259 0.09858174622058868 0.8668528199195862
v 0.0037960633635520935 0.09704285115003586 0.8552472591400146
v -0.0007509440183639526 0.09593218564987183 0.8652040958404541
v -0.03809133172035217 0.09013877809047699 0.8534640073776245
v -0.07498310506343842 0.11498037725687027 0.8628116250038147
v -0.0703136995434761 0.10411998629570007 0.8625187873840332
v -0.07481498271226883 0.10111715644598007 0.860198438167572
v -0.07685355097055435 0.11216363310813904 0.8596914410591125
v -0.06921038031578064 0.096522755920887 0.8618165254592896
v -0.06799741834402084 0.10553526133298874 0.8675026893615723
v -0.0038835816085338593 0.09087357670068741 0.8763121962547302
v -0.05796654522418976 0.07053430378437042 0.8602958917617798
v 0.01157454401254654 0.09140916168689728 0.8804702162742615
v -0.012511953711509705 0.08313976973295212 0.886237382888794
v -0.0015700757503509521 0.08208972960710526 0.8898001909255981
v 0.02724539488554001 0.0903250128030777 0.8874396085739136
v 0.012714847922325134 0.08374147117137909 0.8936312198638916
v 0.04521862417459488 0.09452658891677856 0.882291853427887
v 0.036226287484169006 0.09294134378433228 0.8838909864425659
v -0.00221460685133934 0.07559123635292053 0.8969920873641968
v -0.08769938349723816 0.10561144351959229 0.8667422533035278
v -0.08480634540319443 0.10524950921535492 0.8617537021636963
v 0.04470720887184143 0.1016525998711586 0.8739306330680847
v -0.003257501870393753 0.04477493837475777 0.8781755566596985
v 0.012657694518566132 0.0586397722363472 0.8443400263786316
v 0.011138521134853363 0.06079518795013428 0.849149763584137
v 0.020441532135009766 0.05626813694834709 0.8271095752716064
v 0.015717625617980957 0.05544215440750122 0.8377652168273926
v -0.08760785311460495 0.10751019418239594 0.871674656867981
v -0.053414616733789444 0.07476019114255905 0.8412469625473022
v -0.05171286687254906 0.07540993392467499 0.8400002121925354
v -0.008763551712036133 0.04510865360498428 0.8949580192565918
v -0.015804030001163483 0.04235377907752991 0.8923032283782959
v -0.023746293038129807 0.05191463977098465 0.8966410160064697
v -0.020037006586790085 0.04579269886016846 0.8968029022216797
v -0.01257491484284401 0.050925418734550476 0.8997563719749451
v -0.01592385396361351 0.057860128581523895 0.8993720412254333
v 0.021940670907497406 0.05765174701809883 0.8513895869255066
v 0.022176459431648254 0.05673200637102127 0.8475574851036072
v 0.021468959748744965 0.07756010442972183 0.8196011781692505
v 0.021663285791873932 0.0661403238773346 0.8183791041374207
v -0.05094696208834648 0.0840703472495079 0.8835287690162659
v -0.04335588961839676 0.08463586866855621 0.8810887932777405
v -0.04827910661697388 0.08861957490444183 0.879133939743042
v -0.05124260485172272 0.0937366783618927 0.8722549676895142
v -0.05985071882605553 0.07654592394828796 0.8599498867988586
v -0.05602170154452324 0.08029820770025253 0.8649472594261169
v 0.03065139800310135 0.05377765744924545 0.8689294457435608
v 0.020172104239463806 0.05587272346019745 0.8634728193283081
v -0.014501549303531647 0.04960104078054428 0.8766639232635498
v -0.01981896162033081 0.05057615041732788 0.8755301833152771
v -0.03469977527856827 0.0641048327088356 0.8526527285575867
v -0.04625208303332329 0.08625693619251251 0.845963180065155
v -0.045791566371917725 0.08954598754644394 0.8536544442176819
v -0.045158691704273224 0.06499048322439194 0.8523622751235962
v -0.08254338055849075 0.113747239112854 0.8741616010665894
v -0.08617667853832245 0.11018280684947968 0.8737101554870605
v -0.04704923555254936 0.08929862827062607 0.8734374046325684
v -0.028435854241251945 0.061034418642520905 0.8321647644042969
v -0.041595831513404846 0.08299558609724045 0.8410876393318176
v -0.048982396721839905 0.08113130927085876 0.8425450921058655
v -0.018897205591201782 0.06198897957801819 0.8089640140533447
v 0.045597873628139496 0.10514304041862488 0.861880362033844
v -0.07971574366092682 0.09896104037761688 0.8619505763053894
v -0.08098766207695007 0.10684135556221008 0.8586665391921997
v -0.07414472103118896 0.116363525390625 0.866753101348877
v -0.07645511627197266 0.11574317514896393 0.8719651699066162
v 0.03099563717842102 0.06617288291454315 0.8237290382385254
v 0.009851507842540741 0.06197046488523483 0.8522277474403381
v -0.015058007091283798 0.06771448254585266 0.8963379263877869
v -0.025309909135103226 0.058566950261592865 0.8934460282325745
v -0.05355347692966461 0.06753692775964737 0.8514459729194641
v -0.028323622420430183 0.07779610902070999 0.8175687789916992
v -0.034968454390764236 0.08568079769611359 0.8314926624298096
v -0.03857940435409546 0.08693717420101166 0.830858588218689
v -0.04334484040737152 0.08682970702648163 0.8361448049545288
v -0.04985193908214569 0.08316944539546967 0.8381803035736084
v -0.07707024365663528 0.11998715996742249 0.8639760613441467
v -0.08058427274227142 0.12061378359794617 0.8686281442642212
v -0.08619330823421478 0.11917814612388611 0.8692173957824707
v -0.089658722281456 0.11502932012081146 0.8691210150718689
v -0.09015091508626938 0.11040109395980835 0.8677893877029419
v -0.0775868222117424 0.11800110340118408 0.8602915406227112
v -0.07884236425161362 0.11500390619039536 0.8580997586250305
v -0.08210776746273041 0.10913514345884323 0.8581651449203491
v -0.07780976593494415 0.11926913261413574 0.8568285703659058
v -0.07887455075979233 0.12352515757083893 0.8584585189819336
v -0.09099307656288147 0.12711289525032043 0.8582527041435242
v -0.08767971396446228 0.12525378167629242 0.8624992370605469
v -0.08699744939804077 0.126616969704628 0.860577404499054
v -0.08892586827278137 0.12899470329284668 0.8569177985191345
v -0.0894870012998581 0.13200798630714417 0.8530606627464294
v -0.09230498969554901 0.13008499145507812 0.8539500832557678
v -0.08283576369285583 0.1250976324081421 0.8610262274742126
v -0.08467420190572739 0.12849633395671844 0.8560128211975098
v -0.08136188238859177 0.12721090018749237 0.8538351655006409
v -0.08248761296272278 0.13090448081493378 0.8502581119537354
v -0.08557106554508209 0.13239175081253052 0.8521213531494141
v -0.08042074739933014 0.12510088086128235 0.8575145602226257
v -0.08219124376773834 0.12457332760095596 0.86262047290802
v -0.09118140488862991 0.13206017017364502 0.8502241373062134
v -0.08925878256559372 0.13354884088039398 0.8507689237594604
v -0.08622345328330994 0.13353431224822998 0.8495781421661377
v -0.08759162575006485 0.132961705327034 0.8470292687416077
v -0.09070908278226852 0.11984406411647797 0.864303469657898
v -0.09244601428508759 0.12520837783813477 0.8577491044998169
v -0.09274884313344955 0.12750151753425598 0.8524594306945801
v -0.09156873822212219 0.12968266010284424 0.8489038944244385
v -0.09253561496734619 0.12252506613731384 0.8549331426620483
v -0.09205898642539978 0.12513428926467896 0.8509869575500488
v -0.09082259237766266 0.12674012780189514 0.8476391434669495
v -0.09101551026105881 0.12008322030305862 0.8519392013549805
v -0.09055624902248383 0.12319686263799667 0.8490411043167114
v -0.09003729373216629 0.11126586049795151 0.8616503477096558
v -0.09100865572690964 0.1142934039235115 0.8641417622566223
v -0.09034988284111023 0.12477119266986847 0.847012996673584
v -0.08769014477729797 0.13107822835445404 0.8459817171096802
v -0.07939514517784119 0.12433287501335144 0.8529409170150757
v -0.08165107667446136 0.12834666669368744 0.8482405543327332
v -0.07932628691196442 0.12253649532794952 0.8517132997512817
v -0.08119191229343414 0.12640012800693512 0.8468443155288696
v -0.08315417170524597 0.13142332434654236 0.8459731936454773
v -0.08375971019268036 0.13237257301807404 0.8483152389526367
v -0.08847363293170929 0.10719530284404755 0.8644686937332153
v -0.08501225709915161 0.10689903050661087 0.860348105430603
v -0.08567021787166595 0.10995739698410034 0.8581087589263916
v -0.08751359581947327 0.11838726699352264 0.8494676351547241
v -0.08212458342313766 0.11141467094421387 0.8557985424995422
v -0.07878005504608154 0.11676160991191864 0.8546000719070435
v -0.08034791797399521 0.1210179403424263 0.8497684001922607
v -0.0827672928571701 0.11916060745716095 0.8486876487731934
v -0.0821925699710846 0.12414326518774033 0.8463989496231079
v -0.08427995443344116 0.12262547016143799 0.846441924571991
v -0.08782388269901276 0.12201270461082458 0.8470689654350281
v -0.08464822173118591 0.12655891478061676 0.8447107672691345
v -0.08352121710777283 0.1293238401412964 0.8450397849082947
v -0.08800393342971802 0.12778501212596893 0.8453353047370911
v -0.0853322446346283 0.1247175931930542 0.8451661467552185
v -0.08803477883338928 0.12522011995315552 0.8460264801979065
v -0.08262647688388824 0.09914367645978928 0.8329831957817078
v -0.07802030444145203 0.09864898771047592 0.8289430737495422
v -0.0767165869474411 0.09097054600715637 0.8329436779022217
v -0.0800989493727684 0.09217306226491928 0.8370017409324646
v -0.0771087184548378 0.10363635420799255 0.8438345193862915
v -0.08201169967651367 0.10195588320493698 0.8413337469100952
v -0.07894584536552429 0.09820739179849625 0.8449289202690125
v -0.07324328273534775 0.10123541206121445 0.8453720211982727
v -0.07130517065525055 0.10438604652881622 0.8420823812484741
v -0.06799700111150742 0.1014479249715805 0.842600405216217
v -0.06971627473831177 0.10130637139081955 0.8473190665245056
v -0.07493986189365387 0.09653078764677048 0.847712516784668
v -0.06066900119185448 0.08474784344434738 0.857044517993927
v -0.05689164623618126 0.09080648422241211 0.8560414910316467
v -0.05806005001068115 0.0732879489660263 0.8434181809425354
v -0.05681227147579193 0.07692333310842514 0.8418391942977905
v -0.08357663452625275 0.10044296085834503 0.8370213508605957
v -0.08088337630033493 0.0950295552611351 0.8414573073387146
v -0.06809456646442413 0.0893811583518982 0.8304396867752075
v -0.07235367596149445 0.08695504069328308 0.8326992988586426
v -0.0731576606631279 0.09155531227588654 0.8294098377227783
v -0.06877482682466507 0.093910813331604 0.8288030028343201
v -0.06201513111591339 0.07589726150035858 0.8542546033859253
v -0.05950498953461647 0.07299911230802536 0.8491703867912292
v -0.06223537027835846 0.08005385845899582 0.8557117581367493
v -0.06400424242019653 0.0940849781036377 0.8317021727561951
v -0.06172175332903862 0.09910602122545242 0.8355207443237305
v -0.050626251846551895 0.09054969996213913 0.8437040448188782
v -0.05264431983232498 0.08489569276571274 0.8406760096549988
v -0.07791869342327118 0.0923527181148529 0.8453100323677063
v -0.07586852461099625 0.08677081018686295 0.836953341960907
v -0.07814793288707733 0.08848682045936584 0.8410108685493469
v -0.06462536007165909 0.10181979835033417 0.8423841595649719
v -0.06459948420524597 0.10075738281011581 0.836036741733551
v -0.06705605983734131 0.1147690862417221 0.8291926383972168
v -0.06604618579149246 0.1024024710059166 0.8320232629776001
v -0.06903320550918579 0.10106639564037323 0.8282455801963806
v -0.06925282627344131 0.11384850740432739 0.8246980905532837
v -0.06549400836229324 0.09716854244470596 0.8315831422805786
v -0.06672942638397217 0.10372257977724075 0.8371327519416809
v -0.08262795954942703 0.11462755501270294 0.8264988660812378
v -0.07795888185501099 0.11393338441848755 0.8225567936897278
v -0.08392979204654694 0.11585010588169098 0.8306739330291748
v -0.05252833291888237 0.09336549043655396 0.8501846790313721
v -0.07862182706594467 0.11653536558151245 0.8390423655509949
v -0.08320210874080658 0.11614815890789032 0.8348215818405151
v -0.07319860905408859 0.09959718585014343 0.82686847448349
v -0.07313809543848038 0.11383648216724396 0.8221422433853149
v -0.06729649752378464 0.1157727986574173 0.8337352275848389
v -0.07205168902873993 0.11559781432151794 0.8391642570495605
v -0.06779167056083679 0.12023790180683136 0.8299311399459839
v -0.07169444859027863 0.1219743862748146 0.8347845673561096
v -0.0782049298286438 0.12335551530122757 0.8346846103668213
v -0.08283291757106781 0.12227179110050201 0.8311560153961182
v -0.08396115154027939 0.12053689360618591 0.8278822302818298
v -0.06786167621612549 0.1190710961818695 0.825884222984314
v -0.07029414921998978 0.1180366650223732 0.8218693733215332
v -0.07481469213962555 0.11639566719532013 0.8205815553665161
v -0.06847421824932098 0.12291836738586426 0.8209704756736755
v -0.06798101961612701 0.12549448013305664 0.8241758346557617
v -0.07902013510465622 0.13882635533809662 0.8199683427810669
v -0.07879509031772614 0.1348884552717209 0.8242325186729431
v -0.07619720697402954 0.13522638380527496 0.8240862488746643
v -0.07620152086019516 0.13895978033542633 0.8203006982803345
v -0.07691393792629242 0.13126958906650543 0.8289134502410889
v -0.07504026591777802 0.13221785426139832 0.8272542953491211
v -0.07130665332078934 0.12967407703399658 0.8267021179199219
v -0.07198414206504822 0.1337066888809204 0.8224717378616333
v -0.06903573125600815 0.13058385252952576 0.8201925158500671
v -0.06863890588283539 0.13475757837295532 0.816740870475769
v -0.07138043642044067 0.1381547451019287 0.8189328908920288
v -0.06898047775030136 0.12866124510765076 0.8237639665603638
v -0.07529441267251968 0.1409180760383606 0.8175609111785889
v -0.07689537853002548 0.14122146368026733 0.8155096173286438
v -0.07145734876394272 0.12782973051071167 0.8291856050491333
v -0.08184801042079926 0.1271340250968933 0.829041600227356
v -0.08128782361745834 0.13392557203769684 0.8228053450584412
v -0.08089247345924377 0.1377508044242859 0.817611813545227
v -0.0775345116853714 0.13969218730926514 0.8129556179046631
v -0.08242204040288925 0.13193881511688232 0.819358766078949
v -0.08112034946680069 0.1358531415462494 0.8150427341461182
v -0.07786887884140015 0.13731761276721954 0.8116111755371094
v -0.08186295628547668 0.12922921776771545 0.8155773878097534
v -0.07994664460420609 0.1332014948129654 0.8119743466377258
v -0.0832202360033989 0.12106509506702423 0.8225992918014526
v -0.0839584469795227 0.12397000193595886 0.8259829878807068
v -0.0783260315656662 0.13503064215183258 0.8110544681549072
v -0.07233462482690811 0.14095397293567657 0.8137177228927612
v -0.0737554132938385 0.1393345296382904 0.8110918402671814
v -0.07188523560762405 0.14051656424999237 0.8155099153518677
v -0.06827344000339508 0.1291232854127884 0.8188567757606506
v -0.06857388466596603 0.133619025349617 0.814784824848175
v -0.0685436800122261 0.12758071720600128 0.8165904879570007
v -0.0689583569765091 0.13275088369846344 0.8125619292259216
v -0.06926392763853073 0.1374606043100357 0.8125696182250977
v -0.06935124099254608 0.13824164867401123 0.8141223192214966
v -0.08269387483596802 0.11825893819332123 0.8245336413383484
v -0.07864639908075333 0.11648491024971008 0.8214053511619568
v -0.07964280247688293 0.1184307113289833 0.8196161389350891
v -0.07832502573728561 0.1266055405139923 0.8130928874015808
v -0.0751388669013977 0.11792801320552826 0.8186932802200317
v -0.07048091292381287 0.12081720679998398 0.8189250826835632
v -0.07014449685811996 0.1260014921426773 0.8149068355560303
v -0.07361895591020584 0.1256643384695053 0.8130617737770081
v -0.06971582770347595 0.13130450248718262 0.811051607131958
v -0.07252538204193115 0.12954530119895935 0.810803234577179
v -0.07716000080108643 0.13074764609336853 0.8104791641235352
v -0.0708635002374649 0.13526195287704468 0.8094547390937805
v -0.06976449489593506 0.13676941394805908 0.810984194278717
v -0.07467171549797058 0.13748624920845032 0.8101879358291626
v -0.07273507118225098 0.1329381912946701 0.8093319535255432
v -0.07597886025905609 0.13458694517612457 0.8097481727600098
v -0.07313080877065659 0.09725073724985123 0.8230911493301392
v -0.07221945375204086 0.09461399167776108 0.8181965351104736
v -0.07173541188240051 0.08750920742750168 0.8200297355651855
v -0.07270126789808273 0.09091072529554367 0.8251686692237854
v -0.06137710437178612 0.09965454787015915 0.8278727531433105
v -0.0663558840751648 0.09990578889846802 0.8283568620681763
v -0.06642360240221024 0.09577776491641998 0.8299458622932434
v -0.060839537531137466 0.09527476876974106 0.8296341896057129
v -0.057683467864990234 0.0998072624206543 0.8237821459770203
v -0.05687382444739342 0.09502454847097397 0.8256682753562927
v -0.057741858065128326 0.09537123143672943 0.8311899304389954
v -0.0638485699892044 0.09345226734876633 0.8318175077438354
v -0.05306669697165489 0.08571779727935791 0.8363618850708008
v -0.04775220900774002 0.09020829200744629 0.8347665071487427
v -0.0704917460680008 0.09898512065410614 0.8263339996337891
v -0.07052940130233765 0.0941869467496872 0.8283036351203918
v -0.06127847358584404 0.0838429406285286 0.8155603408813477
v -0.0642416775226593 0.08250381052494049 0.818879246711731
v -0.06840647011995316 0.08733660727739334 0.8154271245002747
v -0.06478063762187958 0.08854402601718903 0.81325364112854
v -0.05467214435338974 0.07487111538648605 0.834510087966919
v -0.051311761140823364 0.07264918088912964 0.8296763896942139
v -0.05584947019815445 0.08028793334960938 0.8357906937599182
v -0.05684038996696472 0.0874144583940506 0.815451979637146
v -0.05265482887625694 0.09225799888372421 0.8195828795433044
v -0.04318398982286453 0.086258664727211 0.822823703289032
v -0.045462265610694885 0.08054807037115097 0.8214827179908752
v -0.06753580272197723 0.09048765152692795 0.8310243487358093
v -0.0670107752084732 0.08284750580787659 0.8232789635658264
v -0.06906039267778397 0.08615792542695999 0.8281159400939941
v -0.053930871188640594 0.09539490193128586 0.8262706995010376
v -0.05643017590045929 0.09282663464546204 0.8191813230514526
v -0.05978723615407944 0.11130072176456451 0.810383677482605
v -0.06002908945083618 0.09435498714447021 0.8131788372993469
v -0.06512691080570221 0.09405869245529175 0.8121248483657837
v -0.06339887529611588 0.11117035150527954 0.8081688284873962
v -0.06006244570016861 0.09041652083396912 0.8138129711151123
v -0.0566481314599514 0.09691683948040009 0.8178941607475281
v -0.07228322327136993 0.11436839401721954 0.8167849779129028
v -0.07130255550146103 0.11170129477977753 0.8120778799057007
v -0.07032998651266098 0.11435065418481827 0.8204050064086914
v -0.04333227127790451 0.09095559269189835 0.8292795419692993
v -0.04806668683886528 0.07459095120429993 0.8236976265907288
v -0.06353063881397247 0.11530689150094986 0.8222014904022217
v -0.06767162680625916 0.11515162140130997 0.8222370147705078
v -0.06883300840854645 0.09359224885702133 0.8140969276428223
v -0.06763847917318344 0.11107826977968216 0.8085324168205261
v -0.05821608379483223 0.11193852871656418 0.8144389390945435
v -0.059153273701667786 0.11344322562217712 0.8196907639503479
v -0.05858873948454857 0.11557599902153015 0.8111240863800049
v -0.05925885587930679 0.11741586029529572 0.8163385987281799
v -0.06207651644945145 0.12002132833003998 0.8189183473587036
v -0.06581827998161316 0.12059482932090759 0.819305956363678
v -0.0689329206943512 0.12018389999866486 0.8178986310958862
v -0.060676753520965576 0.11552806943655014 0.8074789643287659
v -0.06414715200662613 0.11567854136228561 0.8061264157295227
v -0.06774117052555084 0.11455884575843811 0.8079726099967957
v -0.06104936823248863 0.11843381822109222 0.8045960068702698
v -0.05732503905892372 0.12061206251382828 0.8075351715087891
v -0.05825603008270264 0.13588641583919525 0.8099206686019897
v -0.059475839138031006 0.13138633966445923 0.8124194145202637
v -0.05839478224515915 0.13102324306964874 0.811806857585907
v -0.05670936033129692 0.1355319619178772 0.8093695044517517
v -0.0592079758644104 0.12538641691207886 0.814978837966919
v -0.057857587933540344 0.12657061219215393 0.8134907484054565
v -0.05668271705508232 0.12388773262500763 0.8112676739692688
v -0.05544916167855263 0.12912598252296448 0.8080838918685913
v -0.056809328496456146 0.12595577538013458 0.8035190105438232
v -0.05588372051715851 0.1303071677684784 0.8020325899124146
v -0.05413701757788658 0.13339826464653015 0.8060563206672668
v -0.056601572781801224 0.12246555089950562 0.8072331547737122
v -0.0558990053832531 0.13719673454761505 0.8070850372314453
v -0.056441374123096466 0.1390763223171234 0.8079768419265747
v -0.0577874518930912 0.12211324274539948 0.8126511573791504
v -0.06315919011831284 0.12565696239471436 0.817357063293457
v -0.06201835721731186 0.13214527070522308 0.8132003545761108
v -0.0613216757774353 0.13729256391525269 0.8106885552406311
v -0.06007754057645798 0.13914404809474945 0.8071132302284241
v -0.06538841128349304 0.1317724734544754 0.8118495941162109
v -0.06399619579315186 0.13630273938179016 0.8091690540313721
v -0.06285679340362549 0.13821221888065338 0.8060333728790283
v -0.06757288426160812 0.1305190920829773 0.8098354935646057
v -0.06585919857025146 0.1346426159143448 0.8071065545082092
v -0.06997015327215195 0.12128791213035583 0.8145597577095032
v -0.06693216413259506 0.12388011068105698 0.8168479800224304
v -0.06428861618041992 0.136729434132576 0.8052096366882324
v -0.05495039001107216 0.1374521404504776 0.8037019968032837
v -0.05879904329776764 0.13784760236740112 0.8020058274269104
v -0.05506595969200134 0.13589634001255035 0.8046010136604309
v -0.05790316313505173 0.12471111863851547 0.8025676608085632
v -0.05671355500817299 0.13008782267570496 0.7997729778289795
v -0.06054173409938812 0.12400439381599426 0.8015007376670837
v -0.05936708673834801 0.12960128486156464 0.7986136674880981
v -0.055560849606990814 0.133755624294281 0.8002051711082458
v -0.05528876185417175 0.13361406326293945 0.8013752102851868
v -0.07095366716384888 0.11778134107589722 0.8150515556335449
v -0.0706314966082573 0.11565610766410828 0.8109581470489502
v -0.07057708501815796 0.11919090896844864 0.8107790946960449
v -0.06810349225997925 0.1290118396282196 0.8060118556022644
v -0.06845251470804214 0.11744248121976852 0.8073447942733765
v -0.06432346999645233 0.11920740455389023 0.8041257262229919
v -0.06353563070297241 0.1248057410120964 0.8015745282173157
v -0.06617554277181625 0.12675271928310394 0.8028817176818848
v -0.06218523532152176 0.1298610121011734 0.7988467812538147
v -0.06419803202152252 0.13031750917434692 0.8009356260299683
v -0.06659916043281555 0.13316227495670319 0.8037369847297668
v -0.06103677302598953 0.1336555778980255 0.7995797991752625
v -0.05819248408079147 0.13381615281105042 0.7990298271179199
v -0.06185756251215935 0.13723698258399963 0.8019506931304932
v -0.06329275667667389 0.1333540380001068 0.8005587458610535
v -0.06404204666614532 0.13602031767368317 0.8023877739906311
v -0.0492258295416832 0.07229150831699371 0.8259903788566589
v -0.049461252987384796 0.06728197634220123 0.8215500116348267
v -0.0490868054330349 0.06334361433982849 0.8225111961364746
v -0.045928433537483215 0.06169288977980614 0.8198952674865723
v -0.04522373527288437 0.06552505493164062 0.8193367719650269
v -0.054671693593263626 0.06933455169200897 0.8123352527618408
v -0.052969709038734436 0.07069118320941925 0.8161563277244568
v -0.0494786761701107 0.07021868228912354 0.8131580948829651
v -0.050868064165115356 0.06921520829200745 0.8089661598205566
v -0.05606573447585106 0.0650029331445694 0.8100888729095459
v -0.05227532982826233 0.06522233784198761 0.8064603805541992
v -0.04808812588453293 0.07235676050186157 0.8085027933120728
v -0.04698781669139862 0.07211343944072723 0.8132738471031189
v -0.03634952753782272 0.07579520344734192 0.8175618052482605
v -0.034772567451000214 0.07725021988153458 0.8133156895637512
v -0.025575589388608932 0.060934003442525864 0.8094705939292908
v -0.02512149140238762 0.05854881554841995 0.8134680390357971
v -0.03250078111886978 0.05943990871310234 0.8138514757156372
v -0.03170885518193245 0.06006103754043579 0.8097778558731079
v -0.05105733871459961 0.06973248720169067 0.8191831707954407
v -0.04736470803618431 0.06879602372646332 0.8173117637634277
v -0.04285901039838791 0.055776044726371765 0.8124874830245972
v -0.04236118867993355 0.05718276649713516 0.816626787185669
v -0.04573068022727966 0.05773363634943962 0.8192592859268188
v -0.047517478466033936 0.054961107671260834 0.8164827227592468
v -0.028359856456518173 0.05916201323270798 0.8174986839294434
v -0.03184552490711212 0.06103503331542015 0.8197632431983948
v -0.035137251019477844 0.06343751400709152 0.8198848962783813
v -0.034390248358249664 0.06099356338381767 0.8175852298736572
v -0.03726188838481903 0.06909921020269394 0.820730984210968
v -0.04439425468444824 0.05683371052145958 0.8084515929222107
v -0.046452321112155914 0.06126722693443298 0.8043901920318604
v -0.03127111867070198 0.06707565486431122 0.8039798736572266
v -0.030469361692667007 0.06286050379276276 0.8061373829841614
v -0.04579097777605057 0.06983914971351624 0.8171393275260925
v -0.0431443527340889 0.060696251690387726 0.8189502954483032
v -0.04409947246313095 0.06545092165470123 0.8190177083015442
v -0.04763996601104736 0.06844107061624527 0.8043939471244812
v -0.052270591259002686 0.05923931300640106 0.8077972531318665
v -0.06081023067235947 0.05577836185693741 0.8217703104019165
v -0.05432887375354767 0.05537223815917969 0.8156458735466003
v -0.05192642658948898 0.055731769651174545 0.819693922996521
v -0.05866836756467819 0.055933885276317596 0.824171781539917
v -0.049100764095783234 0.055739447474479675 0.8117064237594604
v -0.05666857212781906 0.05892334505915642 0.8118779063224792
v -0.05562281608581543 0.06775882095098495 0.8271530270576477
v -0.05499977618455887 0.06247852370142937 0.8273455500602722
v -0.057177845388650894 0.0700729638338089 0.8255056738853455
v -0.03308022394776344 0.07493165135383606 0.8073769807815552
v -0.06214776635169983 0.06929372251033783 0.8200836181640625
v -0.059837937355041504 0.0708322748541832 0.8234290480613708
v -0.04995544254779816 0.05932232365012169 0.8219311833381653
v -0.05636118724942207 0.05825355648994446 0.8262011408805847
v -0.063104547560215 0.058449242264032364 0.8190127015113831
v -0.06360384076833725 0.06439012289047241 0.8173848986625671
v -0.0663343071937561 0.05871075391769409 0.823115885257721
v -0.06676357984542847 0.06423825025558472 0.8221036791801453
v -0.06454391777515411 0.06916775554418564 0.8258004188537598
v -0.06125326454639435 0.06985478103160858 0.8274120092391968
v -0.05858326330780983 0.06900541484355927 0.8288441300392151
v -0.06296753138303757 0.05577237159013748 0.8250987529754639
v -0.06021885573863983 0.05580294504761696 0.8267834186553955
v -0.05730729550123215 0.05802731215953827 0.8280715942382812
v -0.06542227417230606 0.05566500872373581 0.8288658261299133
v -0.06858377903699875 0.05906051769852638 0.8297392129898071
v -0.06591588258743286 0.06416153162717819 0.8417634963989258
v -0.06495755910873413 0.06570090353488922 0.8381733894348145
v -0.06591472774744034 0.06517046689987183 0.8377649784088135
v -0.0669609010219574 0.06422434002161026 0.8415104746818542
v -0.06536571681499481 0.06734810024499893 0.8329876661300659
v -0.06626713275909424 0.06608245521783829 0.8338209986686707
v -0.06777963787317276 0.06403763592243195 0.8312268257141113
v -0.06887109577655792 0.06254807859659195 0.8360838294029236
v -0.06904967874288559 0.057295821607112885 0.8350887298583984
v -0.06988440454006195 0.056780558079481125 0.8389691710472107
v -0.06994900107383728 0.06149972602725029 0.8394323587417603
v -0.06897540390491486 0.05995055288076401 0.831427812576294
v -0.06851851940155029 0.06309828162193298 0.8434237241744995
v -0.06807911396026611 0.06297963112592697 0.8447558283805847
v -0.068216972053051 0.06484974920749664 0.8289612531661987
v -0.061515215784311295 0.06831741333007812 0.833200216293335
v -0.06286691129207611 0.06574436277151108 0.8396415710449219
v -0.06469713151454926 0.06381510943174362 0.8438227772712708
v -0.06676319241523743 0.06142148748040199 0.8458148837089539
v -0.06063825264573097 0.06473573297262192 0.839226484298706
v -0.06275723874568939 0.06266867369413376 0.8442610502243042
v -0.06474468857049942 0.060286637395620346 0.8460347652435303
v -0.058595214039087296 0.06221868470311165 0.8385820388793945
v -0.06130925193428993 0.060700178146362305 0.8432697057723999
v -0.05648717284202576 0.06424883008003235 0.8325271010398865
v -0.05863920599222183 0.06692977249622345 0.8331922292709351
v -0.06355078518390656 0.05950380489230156 0.8449457883834839
v -0.0703536719083786 0.05984852463006973 0.8441996574401855
v -0.068069688975811 0.05840425193309784 0.8453701138496399
v -0.07084193825721741 0.060291923582553864 0.8427223563194275
v -0.06857945024967194 0.05608324706554413 0.8346953988075256
v -0.06943640112876892 0.05531890690326691 0.8394680023193359
v -0.06674684584140778 0.05442114174365997 0.834617018699646
v -0.06769005209207535 0.05422361195087433 0.8400841951370239
v -0.07021554559469223 0.056533534079790115 0.8426514267921448
v -0.07065221667289734 0.05781472846865654 0.8414031863212585
v -0.05623997002840042 0.06600648164749146 0.8301695585250854
v -0.05592373013496399 0.062240876257419586 0.8291002511978149
v -0.05646197497844696 0.06049155816435814 0.8311946988105774
v -0.0584823340177536 0.058523379266262054 0.8372061848640442
v -0.05861146003007889 0.05654723942279816 0.8297926187515259
v -0.0621873214840889 0.05508669838309288 0.8290072083473206
v -0.06416879594326019 0.05396611616015434 0.8351128697395325
v -0.06110861524939537 0.0549456961452961 0.8360708951950073
v -0.06569355726242065 0.054130636155605316 0.8408762812614441
v -0.06287351250648499 0.05509625002741814 0.8412349224090576
v -0.061016082763671875 0.05763164162635803 0.8421047925949097
v -0.0664602592587471 0.05598073452711105 0.8440663814544678
v -0.06832748651504517 0.05590592324733734 0.843854546546936
v -0.06609003245830536 0.05781647562980652 0.8453607559204102
v -0.06455834954977036 0.05623530596494675 0.8438974022865295
v -0.06393557786941528 0.0576317235827446 0.8444874882698059
v -0.02719687856733799 0.06387060135602951 0.8073184490203857
v -0.03778810799121857 0.0495462492108345 0.8841685652732849
v -0.035593874752521515 0.05044206604361534 0.8790392279624939
v -0.02614760398864746 0.03714289888739586 0.8761194348335266
v -0.029474720358848572 0.04311995580792427 0.8731374740600586
v -0.026478160172700882 0.03341323882341385 0.8821541666984558
v -0.0314326174557209 0.03545674309134483 0.8914130926132202
v -0.027713943272829056 0.03381611406803131 0.8878377079963684
v -0.032502442598342896 0.04778052121400833 0.8746562600135803
v -0.03760377690196037 0.046570785343647 0.8890018463134766
v -0.03506322205066681 0.04067177698016167 0.8926752805709839
v -0.04767788201570511 0.03969267010688782 0.884942889213562
v -0.04361632838845253 0.03322833776473999 0.8878623247146606
v -0.0385751947760582 0.027962926775217056 0.8852300047874451
v -0.03306649252772331 0.02883613109588623 0.88164883852005
v -0.030359946191310883 0.029875747859477997 0.8778825998306274
v -0.04436327517032623 0.04548412561416626 0.8803077936172485
v -0.04127045348286629 0.047250453382730484 0.8757641911506653
v -0.036135077476501465 0.0451614111661911 0.8721822500228882
v -0.048769474029541016 0.04232238978147507 0.8739844560623169
v -0.05012025311589241 0.034762904047966 0.8683154582977295
v -0.040989093482494354 0.02213750034570694 0.8568594455718994
v -0.03892461955547333 0.023511383682489395 0.8629090785980225
v -0.04163902997970581 0.02398505061864853 0.8632077574729919
v -0.04336822032928467 0.022270500659942627 0.8578056693077087
v -0.04027923196554184 0.024288129061460495 0.8683324456214905
v -0.042057838290929794 0.025288045406341553 0.8672626614570618
v -0.0458538718521595 0.02907463163137436 0.8689587712287903
v -0.0471322238445282 0.027278803288936615 0.8635239005088806
v -0.04853184521198273 0.032838813960552216 0.8670864701271057
v -0.049189820885658264 0.033015184104442596 0.862830638885498
v -0.04831547290086746 0.025980986654758453 0.8582528233528137
v -0.04596279561519623 0.022099867463111877 0.8550430536270142
v -0.04898582398891449 0.024945497512817383 0.8539335131645203
v -0.044017329812049866 0.022440239787101746 0.8529644012451172
v -0.04885125160217285 0.02749028429389 0.8711435198783875
v -0.035140205174684525 0.0253608338534832 0.8721726536750793
v -0.03557388111948967 0.02451617643237114 0.8632453680038452
v -0.03815761208534241 0.023906227201223373 0.8559963703155518
v -0.04204297810792923 0.0243537537753582 0.8516597747802734
v -0.033025503158569336 0.02751249074935913 0.8623138070106506
v -0.03609666973352432 0.027535606175661087 0.8558872938156128
v -0.04018424078822136 0.02849747985601425 0.8520591855049133
v -0.03283083811402321 0.032058097422122955 0.8612803220748901
v -0.03639921918511391 0.03126585856080055 0.8559277057647705
v -0.029953481629490852 0.03470911458134651 0.8712868690490723
v -0.030850477516651154 0.029216095805168152 0.872841477394104
v -0.03954114764928818 0.03075665980577469 0.853262722492218
v -0.04890231788158417 0.025265857577323914 0.8515931367874146
v -0.04684898257255554 0.02753337472677231 0.8503226637840271
v -0.04979374259710312 0.036129459738731384 0.8629460334777832
v -0.050991423428058624 0.031492628157138824 0.8581947088241577
v -0.05056839436292648 0.03397321701049805 0.8573608994483948
v -0.04845483601093292 0.03969789296388626 0.8632568717002869
v -0.04934460669755936 0.03640071302652359 0.8565579652786255
v -0.050857190042734146 0.030403435230255127 0.8533665537834167
v -0.05085424333810806 0.02869618684053421 0.8551992177963257
v -0.028821911662817 0.034466154873371124 0.8738421201705933
v -0.03121211752295494 0.04045151174068451 0.8717972040176392
v -0.03305000066757202 0.04082773998379707 0.8703508973121643
v -0.035564325749874115 0.03780659660696983 0.8614053130149841
v -0.03853045776486397 0.045051656663417816 0.8698450922966003
v -0.04476870223879814 0.04516642540693283 0.8720834255218506
v -0.04558869078755379 0.04190051555633545 0.8622758388519287
v -0.04063383862376213 0.0415835902094841 0.861845076084137
v -0.0462292842566967 0.03777075931429863 0.8559998869895935
v -0.04326028376817703 0.03752918913960457 0.8560531735420227
v -0.03890490531921387 0.03497060760855675 0.855459451675415
v -0.04629717767238617 0.03401549905538559 0.852529764175415
v -0.049172695726156235 0.032716136425733566 0.8524768352508545
v -0.044020041823387146 0.030685700476169586 0.8510714769363403
v -0.04398607090115547 0.034834299236536026 0.8536921143531799
v -0.04195167124271393 0.03265908360481262 0.8529057502746582
v -0.019022993743419647 0.05861753970384598 0.8141546845436096
v -0.02213655412197113 0.05809492617845535 0.8196072578430176
v -0.01534019410610199 0.057816628366708755 0.8196102976799011
v -0.006053965538740158 0.05700134113430977 0.8214088082313538
v 0.004052657634019852 0.05871470645070076 0.8181667327880859
v -0.008064277470111847 0.057920943945646286 0.8278793692588806
v -0.01761835813522339 0.0587180033326149 0.8255117535591125
v -0.027669155970215797 0.05997692793607712 0.8247909545898438
v -0.0018547400832176208 0.05958886817097664 0.8359320759773254
f 2 3 1
f 1 3 4
f 5 6 8
f 8 6 7
f 9 4 10
f 10 4 3
f 12 13 11
f 11 13 9
f 14 12 16
f 16 12 15
f 18 19 17
f 17 19 20
f 22 23 21
f 21 23 24
f 26 27 25
f 25 27 28
f 30 31 29
f 29 31 32
f 33 34 36
f 36 34 35
f 37 38 40
f 40 38 39
f 41 42 6
f 6 42 43
f 6 43 7
f 7 43 44
f 45 34 46
f 46 34 33
f 48 49 47
f 47 49 50
f 52 53 51
f 51 53 54
f 56 52 55
f 55 52 51
f 58 59 57
f 57 59 60
f 61 62 4
f 4 62 1
f 64 65 63
f 63 65 66
f 68 69 67
f 67 69 70
f 72 73 71
f 71 73 74
f 76 77 75
f 75 77 78
f 53 79 54
f 54 79 80
f 82 83 81
f 81 83 84
f 85 86 52
f 52 86 53
f 57 60 87
f 87 60 88
f 89 90 43
f 43 90 44
f 43 42 89
f 89 42 91
f 40 39 92
f 92 39 93
f 94 70 64
f 64 70 69
f 13 61 9
f 9 61 4
f 25 28 69
f 69 28 95
f 96 25 68
f 68 25 69
f 98 99 97
f 97 99 100
f 101 102 104
f 104 102 103
f 106 30 105
f 105 30 29
f 51 54 107
f 107 54 108
f 54 80 108
f 108 80 109
f 111 112 110
f 110 112 113
f 115 5 114
f 114 5 116
f 115 41 5
f 5 41 6
f 36 35 111
f 111 35 117
f 35 118 117
f 117 118 119
f 34 120 35
f 35 120 118
f 34 45 120
f 120 45 121
f 125 126 124
f 124 126 127
f 128 129 14
f 14 129 130
f 33 131 46
f 46 131 132
f 133 94 63
f 63 94 64
f 134 135 137
f 137 135 136
f 139 140 138
f 138 140 141
f 77 142 78
f 78 142 143
f 144 145 20
f 20 145 146
f 148 149 147
f 147 149 72
f 151 152 150
f 150 152 153
f 82 101 83
f 83 101 104
f 101 82 155
f 155 82 154
f 156 157 58
f 58 157 59
f 158 68 147
f 147 68 67
f 159 146 15
f 15 146 16
f 68 158 96
f 96 158 160
f 129 66 130
f 130 66 65
f 162 163 161
f 161 163 164
f 166 167 165
f 165 167 168
f 170 171 169
f 169 171 172
f 174 171 173
f 173 171 170
f 176 177 175
f 175 177 178
f 180 181 179
f 179 181 24
f 182 183 21
f 21 183 184
f 81 185 82
f 82 185 154
f 186 187 188
f 188 187 144
f 158 71 160
f 160 71 189
f 190 135 157
f 157 135 59
f 169 172 139
f 139 172 140
f 147 72 158
f 158 72 71
f 192 193 191
f 191 193 194
f 167 166 49
f 49 166 195
f 196 190 50
f 50 190 157
f 197 198 200
f 200 198 199
f 21 24 182
f 182 24 181
f 146 159 20
f 20 159 17
f 182 181 81
f 81 181 185
f 201 185 180
f 180 185 181
f 202 203 83
f 83 203 84
f 205 206 204
f 204 206 85
f 207 22 184
f 184 22 21
f 179 24 208
f 208 24 23
f 208 209 179
f 179 209 205
f 209 210 205
f 205 210 206
f 212 206 211
f 211 206 210
f 179 205 180
f 180 205 204
f 213 176 88
f 88 176 214
f 86 85 212
f 212 85 206
f 193 217 218
f 217 219 218
f 218 219 220
f 219 18 220
f 220 18 17
f 19 221 20
f 20 221 144
f 222 223 225
f 225 223 224
f 175 226 176
f 176 226 214
f 227 87 214
f 214 87 88
f 220 17 228
f 228 17 159
f 134 213 60
f 60 213 88
f 138 229 151
f 151 229 152
f 193 192 210
f 210 192 211
f 230 194 218
f 218 194 193
f 231 232 228
f 228 232 230
f 233 234 91
f 91 234 89
f 235 236 93
f 93 236 92
f 230 232 234
f 234 232 237
f 47 238 48
f 48 238 239
f 240 191 235
f 235 191 236
f 5 8 116
f 116 8 241
f 242 243 189
f 189 243 160
f 244 245 98
f 98 245 99
f 156 246 47
f 47 246 238
f 76 247 77
f 77 247 248
f 250 125 249
f 249 125 124
f 252 253 251
f 251 253 254
f 111 110 36
f 36 110 255
f 256 33 255
f 255 33 36
f 257 258 154
f 154 258 155
f 63 169 133
f 133 169 139
f 66 170 63
f 63 170 169
f 173 170 129
f 129 170 66
f 129 128 173
f 173 128 259
f 128 260 259
f 259 260 261
f 213 134 262
f 262 134 137
f 263 264 186
f 186 264 187
f 112 265 113
f 113 265 266
f 11 267 268
f 234 233 230
f 230 233 194
f 153 269 70
f 70 269 67
f 175 178 165
f 165 178 141
f 150 153 94
f 94 153 70
f 271 221 270
f 270 221 207
f 269 153 272
f 272 153 152
f 121 45 109
f 109 45 108
f 47 50 156
f 156 50 157
f 57 273 58
f 58 273 274
f 145 275 260
f 260 275 261
f 276 149 143
f 143 149 78
f 148 269 75
f 75 269 272
f 207 277 270
f 270 277 278
f 195 196 49
f 49 196 50
f 59 135 60
f 60 135 134
f 83 104 202
f 202 104 279
f 149 148 78
f 78 148 75
f 247 278 248
f 248 278 277
f 183 182 84
f 84 182 81
f 48 239 281
f 281 239 282
f 227 223 283
f 283 223 222
f 223 226 224
f 224 226 168
f 281 282 224
f 224 282 225
f 165 168 175
f 175 168 226
f 264 263 138
f 138 263 229
f 14 16 128
f 128 16 260
f 220 228 218
f 218 228 230
f 87 227 284
f 284 227 283
f 260 16 145
f 145 16 146
f 244 98 258
f 258 98 155
f 58 274 156
f 156 274 246
f 107 285 51
f 51 285 55
f 243 286 160
f 160 286 96
f 234 237 89
f 89 237 90
f 46 132 107
f 107 132 285
f 253 252 249
f 249 252 250
f 286 26 96
f 96 26 25
f 106 105 287
f 287 105 288
f 272 152 289
f 289 152 229
f 138 151 139
f 139 151 133
f 183 290 161
f 161 290 162
f 291 292 277
f 277 292 293
f 151 150 133
f 133 150 94
f 262 275 177
f 177 275 187
f 144 187 145
f 145 187 275
f 273 57 284
f 284 57 87
f 174 136 190
f 190 136 135
f 111 117 112
f 112 117 38
f 117 119 38
f 38 119 123
f 112 38 265
f 265 38 37
f 287 288 254
f 254 288 251
f 228 159 231
f 231 159 15
f 223 227 226
f 226 227 214
f 147 67 148
f 148 67 269
f 224 168 281
f 281 168 167
f 199 163 200
f 200 163 162
f 45 46 108
f 108 46 107
f 281 167 48
f 48 167 49
f 161 164 291
f 291 164 292
f 38 123 39
f 293 294 277
f 277 294 248
f 284 283 296
f 296 283 295
f 284 296 273
f 273 296 297
f 274 273 298
f 298 273 297
f 246 274 299
f 299 274 298
f 283 222 295
f 295 222 300
f 222 225 300
f 300 225 301
f 301 225 302
f 302 225 282
f 303 304 300
f 300 304 295
f 306 307 305
f 305 307 308
f 309 310 308
f 308 310 305
f 308 307 312
f 312 307 311
f 313 314 312
f 312 314 315
f 311 316 312
f 312 316 313
f 317 304 311
f 311 304 316
f 315 309 312
f 312 309 308
f 318 319 321
f 321 319 320
f 319 318 309
f 309 318 310
f 311 307 317
f 317 307 306
f 306 297 317
f 317 297 296
f 306 322 297
f 297 322 298
f 305 323 306
f 306 323 322
f 323 305 324
f 324 305 310
f 304 317 295
f 295 317 296
f 318 325 310
f 310 325 324
f 323 324 326
f 326 324 327
f 324 325 327
f 327 325 328
f 326 327 329
f 329 327 330
f 329 331 326
f 326 331 332
f 333 330 328
f 328 330 327
f 323 326 322
f 322 326 332
f 322 332 298
f 298 332 299
f 325 318 334
f 334 318 321
f 313 316 335
f 335 316 304
f 335 336 313
f 313 336 314
f 304 303 335
f 335 303 337
f 336 335 338
f 338 335 337
f 336 339 314
f 314 339 340
f 246 299 238
f 238 299 341
f 239 342 282
f 282 342 302
f 342 239 341
f 341 239 238
f 341 331 342
f 342 331 343
f 331 329 343
f 343 329 344
f 342 343 302
f 302 343 345
f 341 299 331
f 331 299 332
f 346 301 345
f 345 301 302
f 346 303 301
f 301 303 300
f 347 337 346
f 346 337 303
f 347 346 348
f 348 346 345
f 349 347 350
f 350 347 348
f 343 344 345
f 345 344 348
f 344 351 348
f 348 351 350
f 337 347 338
f 338 347 349
f 353 338 352
f 352 338 349
f 352 355 354
f 354 355 356
f 352 349 355
f 355 349 350
f 352 354 353
f 353 354 334
f 353 334 339
f 339 334 321
f 339 336 353
f 353 336 338
f 329 330 344
f 344 330 351
f 356 351 333
f 333 351 330
f 356 355 351
f 351 355 350
f 354 356 328
f 328 356 333
f 328 325 354
f 354 325 334
f 309 315 319
f 319 315 320
f 320 340 321
f 321 340 339
f 320 315 340
f 340 315 314
f 137 136 261
f 261 136 259
f 140 166 141
f 141 166 165
f 172 171 195
f 195 171 196
f 171 174 196
f 196 174 190
f 178 177 264
f 264 177 187
f 172 195 140
f 140 195 166
f 137 261 262
f 262 261 275
f 178 264 141
f 141 264 138
f 262 177 213
f 213 177 176
f 136 174 259
f 259 174 173
f 358 359 357
f 357 359 360
f 362 363 361
f 361 363 364
f 361 364 365
f 365 364 366
f 367 368 370
f 370 368 369
f 76 371 247
f 247 371 372
f 373 374 362
f 362 374 363
f 376 377 375
f 375 377 378
f 289 229 380
f 380 229 379
f 381 379 263
f 263 379 229
f 383 384 382
f 382 384 385
f 386 368 374
f 374 368 363
f 76 289 371
f 371 289 380
f 377 376 359
f 359 376 387
f 388 386 360
f 360 386 374
f 389 383 366
f 366 383 390
f 392 393 391
f 391 393 394
f 383 382 390
f 390 382 395
f 396 365 390
f 390 365 366
f 389 366 367
f 367 366 364
f 357 397 358
f 358 397 398
f 373 399 357
f 357 399 397
f 389 367 400
f 400 367 370
f 382 385 375
f 375 385 372
f 357 360 373
f 373 360 374
f 361 401 362
f 362 401 402
f 387 388 359
f 359 388 360
f 363 368 364
f 364 368 367
f 358 398 403
f 403 398 404
f 396 392 405
f 405 392 391
f 392 395 393
f 393 395 378
f 393 403 394
f 394 403 404
f 375 378 382
f 382 378 395
f 365 396 406
f 406 396 405
f 362 402 373
f 373 402 399
f 271 270 400
f 400 270 384
f 401 361 406
f 406 361 365
f 381 369 386
f 386 369 368
f 392 396 395
f 395 396 390
f 393 378 403
f 403 378 377
f 403 377 358
f 358 377 359
f 406 405 408
f 408 405 407
f 406 408 401
f 401 408 409
f 401 409 402
f 402 409 410
f 402 410 399
f 399 410 411
f 405 391 407
f 407 391 412
f 391 394 412
f 412 394 413
f 394 404 413
f 413 404 414
f 415 416 412
f 412 416 407
f 418 419 417
f 417 419 420
f 421 422 418
f 418 422 419
f 419 422 424
f 424 422 423
f 425 426 424
f 424 426 427
f 423 428 424
f 424 428 425
f 427 420 424
f 424 420 419
f 420 429 417
f 417 429 430
f 423 422 431
f 431 422 421
f 421 409 431
f 431 409 408
f 421 432 409
f 409 432 410
f 418 433 421
f 421 433 432
f 434 433 417
f 417 433 418
f 431 416 423
f 423 416 428
f 416 431 407
f 407 431 408
f 435 434 430
f 430 434 417
f 433 434 436
f 436 434 437
f 434 435 437
f 437 435 438
f 436 437 439
f 439 437 440
f 439 441 436
f 436 441 442
f 438 443 437
f 437 443 440
f 436 442 433
f 433 442 432
f 432 442 410
f 410 442 411
f 435 430 445
f 445 430 444
f 430 429 444
f 444 429 446
f 425 428 447
f 447 428 416
f 426 425 448
f 448 425 447
f 416 415 447
f 447 415 449
f 447 449 448
f 448 449 450
f 451 452 448
f 448 452 426
f 446 452 444
f 444 452 451
f 399 411 397
f 397 411 453
f 398 454 404
f 404 454 414
f 454 398 453
f 453 398 397
f 453 441 454
f 454 441 455
f 441 439 455
f 455 439 456
f 454 455 414
f 414 455 457
f 441 453 442
f 442 453 411
f 458 413 457
f 457 413 414
f 458 415 413
f 413 415 412
f 458 459 415
f 415 459 449
f 459 458 460
f 460 458 457
f 461 459 462
f 462 459 460
f 455 456 457
f 457 456 460
f 456 463 460
f 460 463 462
f 459 461 449
f 449 461 450
f 465 450 464
f 464 450 461
f 464 467 466
f 466 467 468
f 464 461 467
f 467 461 462
f 464 466 465
f 465 466 445
f 465 445 451
f 451 445 444
f 451 448 465
f 465 448 450
f 439 440 456
f 456 440 463
f 468 463 443
f 443 463 440
f 468 467 463
f 463 467 462
f 466 468 438
f 438 468 443
f 438 435 466
f 466 435 445
f 420 427 429
f 429 427 446
f 446 427 452
f 452 427 426
f 370 369 188
f 188 369 186
f 371 376 372
f 372 376 375
f 380 379 387
f 387 379 388
f 379 381 388
f 388 381 386
f 385 384 278
f 278 384 270
f 380 387 371
f 371 387 376
f 400 370 271
f 271 370 188
f 385 278 372
f 372 278 247
f 400 384 389
f 389 384 383
f 369 381 186
f 186 381 263
f 221 271 144
f 144 271 188
f 221 19 207
f 207 19 22
f 19 18 22
f 22 18 23
f 18 219 23
f 23 219 208
f 469 470 472
f 472 470 471
f 474 475 473
f 473 475 476
f 473 476 477
f 477 476 478
f 480 481 479
f 479 481 482
f 483 484 474
f 474 484 475
f 486 487 485
f 485 487 488
f 489 490 77
f 77 490 142
f 491 489 248
f 248 489 77
f 493 494 492
f 492 494 495
f 496 480 484
f 484 480 475
f 486 497 487
f 487 497 471
f 498 496 472
f 472 496 484
f 499 493 478
f 478 493 500
f 501 502 504
f 504 502 503
f 493 492 500
f 500 492 505
f 506 477 500
f 500 477 478
f 499 478 479
f 479 478 476
f 469 507 470
f 470 507 508
f 483 509 469
f 469 509 507
f 479 482 499
f 499 482 510
f 492 495 485
f 485 495 511
f 483 469 484
f 484 469 472
f 473 512 474
f 474 512 513
f 497 498 471
f 471 498 472
f 475 480 476
f 476 480 479
f 470 508 514
f 514 508 515
f 506 502 516
f 516 502 501
f 503 502 488
f 488 502 505
f 514 515 503
f 503 515 504
f 485 488 492
f 492 488 505
f 477 506 517
f 517 506 516
f 474 513 483
f 483 513 509
f 510 292 494
f 494 292 164
f 512 473 517
f 517 473 477
f 491 481 496
f 496 481 480
f 502 506 505
f 505 506 500
f 503 488 514
f 514 488 487
f 514 487 470
f 470 487 471
f 517 516 519
f 519 516 518
f 517 519 512
f 512 519 520
f 512 520 513
f 513 520 521
f 513 521 509
f 509 521 522
f 516 501 518
f 518 501 523
f 501 504 523
f 523 504 524
f 524 504 525
f 525 504 515
f 526 527 523
f 523 527 518
f 529 530 528
f 528 530 531
f 532 533 529
f 529 533 530
f 530 533 535
f 535 533 534
f 536 537 535
f 535 537 538
f 534 539 535
f 535 539 536
f 538 531 535
f 535 531 530
f 540 541 531
f 531 541 528
f 533 532 534
f 534 532 542
f 532 520 542
f 542 520 519
f 532 543 520
f 520 543 521
f 529 544 532
f 532 544 543
f 544 529 545
f 545 529 528
f 534 542 539
f 539 542 527
f 527 542 518
f 518 542 519
f 541 546 528
f 528 546 545
f 547 544 548
f 548 544 545
f 546 549 545
f 545 549 548
f 550 547 551
f 551 547 548
f 547 550 553
f 553 550 552
f 549 554 548
f 548 554 551
f 544 547 543
f 543 547 553
f 543 553 521
f 521 553 522
f 546 541 556
f 556 541 555
f 541 540 555
f 555 540 557
f 536 539 558
f 558 539 527
f 537 536 559
f 559 536 558
f 527 526 558
f 558 526 560
f 559 558 561
f 561 558 560
f 559 562 537
f 537 562 563
f 557 563 555
f 555 563 562
f 509 522 507
f 507 522 564
f 508 565 515
f 515 565 525
f 565 508 564
f 564 508 507
f 564 552 565
f 565 552 566
f 552 550 566
f 566 550 567
f 565 566 525
f 525 566 568
f 564 522 552
f 552 522 553
f 569 524 568
f 568 524 525
f 569 526 524
f 524 526 523
f 570 560 569
f 569 560 526
f 570 569 571
f 571 569 568
f 572 570 573
f 573 570 571
f 566 567 568
f 568 567 571
f 567 574 571
f 571 574 573
f 570 572 560
f 560 572 561
f 576 561 575
f 575 561 572
f 575 578 577
f 577 578 579
f 575 572 578
f 578 572 573
f 575 577 576
f 576 577 556
f 576 556 562
f 562 556 555
f 562 559 576
f 576 559 561
f 550 551 567
f 567 551 574
f 579 574 554
f 554 574 551
f 579 578 574
f 574 578 573
f 579 554 577
f 577 554 549
f 549 546 577
f 577 546 556
f 531 538 540
f 540 538 557
f 557 538 563
f 563 538 537
f 481 294 482
f 482 294 293
f 580 486 511
f 511 486 485
f 490 489 497
f 497 489 498
f 489 491 498
f 498 491 496
f 163 495 164
f 164 495 494
f 580 490 486
f 486 490 497
f 482 293 510
f 510 293 292
f 495 163 511
f 511 163 199
f 494 493 510
f 510 493 499
f 481 491 294
f 294 491 248
f 582 583 581
f 581 583 584
f 586 587 585
f 585 587 588
f 585 588 589
f 589 588 590
f 592 593 591
f 591 593 594
f 595 596 598
f 598 596 597
f 599 600 586
f 586 600 587
f 601 602 604
f 604 602 603
f 605 606 608
f 608 606 607
f 609 607 200
f 200 607 606
f 610 611 613
f 613 611 612
f 600 614 587
f 587 614 592
f 596 605 597
f 597 605 608
f 602 615 603
f 603 615 583
f 616 614 584
f 584 614 600
f 611 618 617
f 617 618 590
f 620 621 619
f 619 621 622
f 610 623 611
f 611 623 618
f 624 589 618
f 618 589 590
f 617 590 591
f 591 590 588
f 581 625 582
f 582 625 626
f 599 627 581
f 581 627 625
f 591 594 617
f 617 594 628
f 601 610 598
f 598 610 613
f 581 584 599
f 599 584 600
f 585 629 586
f 586 629 630
f 615 616 583
f 583 616 584
f 587 592 588
f 588 592 591
f 582 626 631
f 631 626 632
f 624 620 633
f 633 620 619
f 621 620 604
f 604 620 623
f 631 632 621
f 621 632 622
f 610 601 623
f 623 601 604
f 589 624 634
f 634 624 633
f 586 630 599
f 599 630 627
f 203 202 628
f 628 202 612
f 629 585 634
f 634 585 589
f 609 593 614
f 614 593 592
f 620 624 623
f 623 624 618
f 631 621 603
f 603 621 604
f 582 631 583
f 583 631 603
f 634 633 636
f 636 633 635
f 634 636 629
f 629 636 637
f 629 637 630
f 630 637 638
f 630 638 627
f 627 638 639
f 633 619 635
f 635 619 640
f 619 622 640
f 640 622 641
f 641 622 642
f 642 622 632
f 644 635 643
f 643 635 640
f 645 646 648
f 648 646 647
f 649 650 646
f 646 650 647
f 647 650 652
f 652 650 651
f 652 653 655
f 655 653 654
f 651 656 652
f 652 656 653
f 655 648 652
f 652 648 647
f 648 657 645
f 645 657 658
f 650 649 651
f 651 649 659
f 649 637 659
f 659 637 636
f 649 660 637
f 637 660 638
f 661 660 646
f 646 660 649
f 662 661 645
f 645 661 646
f 651 659 656
f 656 659 644
f 644 659 635
f 635 659 636
f 663 662 658
f 658 662 645
f 664 661 665
f 665 661 662
f 663 666 662
f 662 666 665
f 667 664 668
f 668 664 665
f 664 667 670
f 670 667 669
f 666 671 665
f 665 671 668
f 661 664 660
f 660 664 670
f 660 670 638
f 638 670 639
f 658 672 663
f 663 672 673
f 658 657 672
f 672 657 674
f 653 656 675
f 675 656 644
f 653 675 654
f 654 675 676
f 675 644 677
f 677 644 643
f 676 675 678
f 678 675 677
f 679 680 676
f 676 680 654
f 674 680 672
f 672 680 679
f 627 639 625
f 625 639 681
f 626 682 632
f 632 682 642
f 681 682 625
f 625 682 626
f 669 683 681
f 681 683 682
f 667 684 669
f 669 684 683
f 682 683 642
f 642 683 685
f 681 639 669
f 669 639 670
f 686 641 685
f 685 641 642
f 641 686 640
f 640 686 643
f 686 687 643
f 643 687 677
f 687 686 688
f 688 686 685
f 689 687 690
f 690 687 688
f 683 684 685
f 685 684 688
f 684 691 688
f 688 691 690
f 687 689 677
f 677 689 678
f 693 678 692
f 692 678 689
f 692 695 694
f 694 695 696
f 692 689 695
f 695 689 690
f 692 694 693
f 693 694 673
f 693 673 679
f 679 673 672
f 679 676 693
f 693 676 678
f 684 667 691
f 691 667 668
f 696 691 671
f 671 691 668
f 696 695 691
f 691 695 690
f 694 696 666
f 666 696 671
f 666 663 694
f 694 663 673
f 648 655 657
f 657 655 674
f 674 655 680
f 680 655 654
f 593 162 594
f 594 162 290
f 598 597 601
f 601 597 602
f 615 608 616
f 616 608 607
f 607 609 616
f 616 609 614
f 697 595 613
f 613 595 598
f 597 608 602
f 602 608 615
f 594 290 628
f 628 290 203
f 628 612 617
f 617 612 611
f 593 609 162
f 162 609 200
f 105 29 698
f 698 29 699
f 268 126 701
f 701 126 700
f 126 125 700
f 700 125 702
f 252 703 250
f 250 703 704
f 32 268 705
f 705 268 701
f 288 105 706
f 706 105 698
f 29 32 699
f 699 32 705
f 707 251 706
f 706 251 288
f 250 704 125
f 125 704 702
f 703 252 707
f 707 252 251
f 706 708 707
f 707 708 709
f 707 709 703
f 703 709 710
f 703 710 704
f 704 710 711
f 704 711 702
f 702 711 712
f 706 698 708
f 708 698 713
f 698 699 713
f 713 699 714
f 699 705 714
f 714 705 715
f 717 708 716
f 716 708 713
f 719 720 718
f 718 720 721
f 722 723 719
f 719 723 720
f 724 725 723
f 723 725 720
f 724 726 725
f 725 726 727
f 728 721 725
f 725 721 720
f 721 728 729
f 729 728 730
f 729 731 721
f 721 731 718
f 724 723 732
f 732 723 722
f 722 710 732
f 732 710 709
f 722 733 710
f 710 733 711
f 719 734 722
f 722 734 733
f 734 719 735
f 735 719 718
f 724 732 726
f 726 732 717
f 717 732 708
f 708 732 709
f 731 736 718
f 718 736 735
f 737 734 738
f 738 734 735
f 736 739 735
f 735 739 738
f 740 737 741
f 741 737 738
f 737 740 743
f 743 740 742
f 739 744 738
f 738 744 741
f 734 737 733
f 733 737 743
f 733 743 711
f 711 743 712
f 736 731 746
f 746 731 745
f 731 729 745
f 745 729 730
f 727 726 747
f 747 726 717
f 748 727 749
f 749 727 747
f 747 717 750
f 750 717 716
f 749 747 751
f 751 747 750
f 749 752 748
f 748 752 753
f 730 753 745
f 745 753 752
f 728 725 748
f 748 725 727
f 730 728 753
f 753 728 748
f 700 702 754
f 754 702 712
f 705 701 715
f 715 701 755
f 754 755 700
f 700 755 701
f 742 756 754
f 754 756 755
f 740 757 742
f 742 757 756
f 755 756 715
f 715 756 758
f 754 712 742
f 742 712 743
f 759 714 758
f 758 714 715
f 714 759 713
f 713 759 716
f 759 760 716
f 716 760 750
f 760 759 761
f 761 759 758
f 762 760 763
f 763 760 761
f 756 757 758
f 758 757 761
f 757 764 761
f 761 764 763
f 760 762 750
f 750 762 751
f 766 751 765
f 765 751 762
f 767 765 769
f 769 765 768
f 765 762 768
f 768 762 763
f 765 767 766
f 766 767 746
f 766 746 752
f 752 746 745
f 752 749 766
f 766 749 751
f 757 740 764
f 764 740 741
f 769 764 744
f 744 764 741
f 769 768 764
f 764 768 763
f 767 769 739
f 739 769 744
f 739 736 767
f 767 736 746
f 219 217 208
f 208 217 209
f 209 217 210
f 210 217 193
f 198 580 199
f 199 580 511
f 76 75 289
f 289 75 272
f 277 207 291
f 291 207 184
f 290 183 203
f 203 183 84
f 490 580 142
f 142 580 198
f 142 198 143
f 143 198 197
f 149 276 72
f 72 276 73
f 104 103 279
f 279 103 770
f 770 596 279
f 279 596 595
f 605 596 771
f 771 596 770
f 771 770 772
f 772 770 103
f 772 103 773
f 773 103 102
f 155 774 101
f 101 774 102
f 773 102 97
f 97 102 774
f 775 773 100
f 100 773 97
f 773 775 772
f 772 775 776
f 772 776 771
f 771 776 777
f 200 606 197
f 197 606 777
f 189 71 778
f 778 71 74
f 97 774 98
f 98 774 155
f 183 161 184
f 184 161 291
f 777 276 197
f 197 276 143
f 777 606 771
f 771 606 605
f 613 612 697
f 697 612 202
f 595 697 279
f 279 697 202
f 73 276 776
f 776 276 777
f 776 775 73
f 73 775 74
f 100 778 775
f 775 778 74
f 778 100 189
f 189 100 99
f 245 242 99
f 99 242 189
f 131 33 256
f 28 1 95
f 95 1 62
f 27 2 28
f 28 2 1
f 265 115 266
f 266 115 114
f 95 62 69
f 69 62 64
f 62 61 64
f 64 61 65
f 61 13 65
f 65 13 130
f 13 12 130
f 130 12 14
f 31 11 32
f 32 11 268
f 15 12 31
f 31 12 11
f 31 30 15
f 15 30 231
f 30 106 231
f 231 106 232
f 287 237 106
f 106 237 232
f 254 90 287
f 287 90 237
f 253 44 254
f 254 44 90
f 253 249 44
f 44 249 7
f 267 127 268
f 268 127 126
f 10 3 241
f 241 3 116
f 3 2 116
f 116 2 114
f 2 27 114
f 114 27 266
f 27 26 266
f 266 26 113
f 26 286 113
f 113 286 110
f 286 243 110
f 110 243 255
f 243 242 255
f 255 242 256
f 242 245 256
f 256 245 131
f 245 244 131
f 131 244 132
f 265 37 115
f 115 37 41
f 41 37 42
f 42 37 40
f 92 91 40
f 40 91 42
f 236 233 92
f 92 233 91
f 191 194 236
f 236 194 233
f 258 285 244
f 244 285 132
f 257 55 258
f 258 55 285
f 257 154 201
f 201 154 185
f 56 201 204
f 204 201 180
f 55 257 56
f 56 257 201
f 204 85 56
f 56 85 52
f 86 122 53
f 53 122 79
f 212 215 86
f 86 215 122
f 211 216 212
f 212 216 215
f 192 280 211
f 211 280 216
f 191 240 192
f 192 240 280
f 249 124 7
f 7 124 8
f 124 127 8
f 8 127 241
f 127 267 241
f 241 267 10
f 10 267 9
f 9 267 11
