v -0.009163454174995422 0.05960321053862572 0.8551238179206848
v 0.0035199224948883057 0.05553082004189491 0.8544955849647522
v -0.003341473639011383 0.05083731561899185 0.8596344590187073
v -0.014304477721452713 0.05558435618877411 0.8607489466667175
v 0.013356722891330719 0.04716889560222626 0.8722912669181824
v 0.016733311116695404 0.05240532010793686 0.8823255300521851
v 0.0002637133002281189 0.04961850494146347 0.8829161524772644
v 0.0010479390621185303 0.045010942965745926 0.8735403418540955
v -0.019312746822834015 0.05532747507095337 0.8642759323120117
v -0.010124750435352325 0.04884648323059082 0.8628484010696411
v -0.02119714766740799 0.06054536625742912 0.864529013633728
v -0.029231194406747818 0.06958988308906555 0.8698244094848633
v -0.028226541355252266 0.06303507834672928 0.8682555556297302
v -0.03648925945162773 0.07382584363222122 0.8710283041000366
v -0.02358688786625862 0.07923980057239532 0.8706473112106323
v -0.03443498909473419 0.08218429237604141 0.8673469424247742
v -0.015126191079616547 0.09378618001937866 0.8523368835449219
v -0.011616617441177368 0.09468575567007065 0.8401176333427429
v -0.026929225772619247 0.09242783486843109 0.8384763598442078
v -0.02913098968565464 0.09106726199388504 0.8513400554656982
v -0.016989432275295258 0.08931473642587662 0.8210808038711548
v -0.023304209113121033 0.09108886122703552 0.8303015232086182
v -0.007819440215826035 0.0944170355796814 0.8322014212608337
v -0.002667061984539032 0.09231468290090561 0.8237718343734741
v -0.0019457153975963593 0.06428156793117523 0.843636155128479
v 0.009578816592693329 0.062489040195941925 0.8427160978317261
v 0.008158273994922638 0.06082078441977501 0.8470828533172607
v -0.003576837480068207 0.06316667795181274 0.8480821251869202
v -0.023858562111854553 0.06228209286928177 0.8692454099655151
v -0.016906756907701492 0.07132069766521454 0.8746044635772705
v -0.020822100341320038 0.06796610355377197 0.8692315816879272
v -0.02318672463297844 0.05836863070726395 0.8654492497444153
v 0.03493303060531616 0.05616782233119011 0.8346084356307983
v 0.04677771031856537 0.06200327351689339 0.836887001991272
v 0.04613719880580902 0.06250397861003876 0.8428225517272949
v 0.03557318449020386 0.057405587285757065 0.8395423889160156
v 0.03784138709306717 0.05880318209528923 0.8679749369621277
v 0.04520943760871887 0.06494609266519547 0.8621602058410645
v 0.04902888089418411 0.07402011752128601 0.8710449934005737
v 0.039795324206352234 0.07153263688087463 0.8757591247558594
v 0.02794574946165085 0.054042477160692215 0.8767837285995483
v 0.029766589403152466 0.06520120054483414 0.8826687335968018
v 0.015213683247566223 0.0626092478632927 0.8879908323287964
v -0.002887628972530365 0.05703623592853546 0.8879711031913757
v 0.04823633283376694 0.06394331157207489 0.8243331909179688
v 0.03989918529987335 0.05942995846271515 0.8208494782447815
v -0.08278883248567581 0.09687866270542145 0.859086811542511
v -0.08217386156320572 0.09724219888448715 0.8533455729484558
v -0.07962636649608612 0.09033322334289551 0.8555591702461243
v -0.08024094998836517 0.09181299805641174 0.8607838749885559
v 0.04156758636236191 0.0781516283750534 0.8118748068809509
v 0.040130726993083954 0.08807005733251572 0.8127576112747192
v 0.04728741943836212 0.08699748665094376 0.812541127204895
v 0.048843979835510254 0.07781565189361572 0.8135921359062195
v 0.03191085159778595 0.07845152169466019 0.8097348809242249
v 0.03011374920606613 0.0889020636677742 0.8135890960693359
v -0.07358354330062866 0.10321079194545746 0.8639044761657715
v -0.07801243662834167 0.100899338722229 0.8647724390029907
v -0.07438565045595169 0.09704552590847015 0.8656667470932007
v -0.06957957148551941 0.0987948626279831 0.8634994029998779
v -0.024864714592695236 0.06009552255272865 0.8641349077224731
v -0.01997368037700653 0.06076207011938095 0.8569331169128418
v -0.04818120226264 0.06440214812755585 0.8644987940788269
v -0.03483026474714279 0.06267420947551727 0.8601692914962769
v -0.03525716811418533 0.0631718561053276 0.8671619296073914
v -0.045624736696481705 0.0663537010550499 0.8700615167617798
v -0.024520359933376312 0.06510020047426224 0.8387244939804077
v -0.01280141994357109 0.06541939824819565 0.8399811387062073
v -0.01572767272591591 0.06516963243484497 0.8456557989120483
v -0.02896696887910366 0.06416317075490952 0.8461074829101562
v -0.008447263389825821 0.06267380714416504 0.8268334865570068
v -0.020342636853456497 0.06299960613250732 0.8266487121582031
v -0.016545254737138748 0.06132763996720314 0.8192352056503296
v -0.008676566183567047 0.0605122447013855 0.8206908106803894
v -0.042304590344429016 0.06520981341600418 0.8283462524414062
v -0.05002359300851822 0.070406474173069 0.8276495337486267
v -0.048516176640987396 0.06963540613651276 0.8256479501724243
v -0.041201744228601456 0.06513506174087524 0.8248584866523743
v 0.054326511919498444 0.08701442927122116 0.8127911686897278
v 0.05560441315174103 0.07788749784231186 0.8161287903785706
v -0.008000053465366364 0.08256728947162628 0.8036790490150452
v -0.0017105154693126678 0.07500183582305908 0.7989453077316284
v -0.013751707971096039 0.07195962965488434 0.795138418674469
v -0.016898788511753082 0.08098607510328293 0.80098557472229
v 0.036985985934734344 0.09567277133464813 0.8190364837646484
v 0.04446015506982803 0.09565240144729614 0.816752016544342
v -0.06967389583587646 0.10510581731796265 0.8594937920570374
v -0.06658197939395905 0.10019601136445999 0.8584890365600586
v 0.015100598335266113 0.07431574910879135 0.8858670592308044
v -0.004797168076038361 0.06624580174684525 0.8873512744903564
v 0.030000798404216766 0.0790221244096756 0.8806013464927673
v 0.0393938347697258 0.08310827612876892 0.8751944303512573
v 0.047966957092285156 0.08552316576242447 0.8730140924453735
v -0.03891918808221817 0.06237393617630005 0.8544530868530273
v -0.013753831386566162 0.06320280581712723 0.8507445454597473
v -0.0004145205020904541 0.06417959928512573 0.8391401767730713
v 0.0044754184782505035 0.05645228177309036 0.8099894523620605
v 0.014917075634002686 0.05613096430897713 0.8116645216941833
v 0.009205818176269531 0.05593416839838028 0.8206242322921753
v 0.0012226514518260956 0.05692073702812195 0.8172339200973511
v -0.0009759292006492615 0.06525999307632446 0.7980579137802124
v -0.003700893372297287 0.05931998789310455 0.8024447560310364
v -0.012786861509084702 0.05906374752521515 0.8009055852890015
v -0.011529073119163513 0.06385594606399536 0.7960505485534668
v -0.02457709237933159 0.06364920735359192 0.8760448098182678
v -0.012777835130691528 0.07363573461771011 0.8794264197349548
v 0.042316801846027374 0.06806889921426773 0.8146475553512573
v 0.04896564781665802 0.06896378844976425 0.8184612989425659
v 0.05659820884466171 0.07168188691139221 0.8206819295883179
v 0.02272012084722519 0.05836981162428856 0.8403997421264648
v 0.03613666445016861 0.05803755670785904 0.8432701230049133
v 0.03539573401212692 0.05725971981883049 0.8485662937164307
v 0.022640690207481384 0.05859466642141342 0.8435828685760498
v 0.015670865774154663 0.050475507974624634 0.8582024574279785
v 0.026005461812019348 0.05030316114425659 0.8646718263626099
v 0.005766615271568298 0.046061620116233826 0.862830638885498
v 0.046968989074230194 0.06345385313034058 0.8513817191123962
v 0.05583953857421875 0.06466187536716461 0.8446907997131348
v 0.05534077435731888 0.06636200100183487 0.8535410165786743
v 0.056780435144901276 0.06540994346141815 0.8349761962890625
v 0.05708686262369156 0.06758478283882141 0.8263561725616455
v 0.05227188020944595 0.09850816428661346 0.8151597380638123
v 0.053751230239868164 0.0694589838385582 0.8613269925117493
v -0.007478818297386169 0.04417760670185089 0.8727219700813293
v -0.015423327684402466 0.04269976168870926 0.8709831237792969
v -0.016651932150125504 0.04610379785299301 0.8639208078384399
v -0.009573157876729965 0.04659320414066315 0.8646016716957092
v -0.04497454687952995 0.07919539511203766 0.8710723519325256
v -0.046390943229198456 0.071927510201931 0.8724629282951355
v -0.03510930389165878 0.06700391322374344 0.8717774748802185
v 0.025327332317829132 0.05509675294160843 0.8282086849212646
v 0.030079610645771027 0.057616375386714935 0.8168690800666809
v -0.051701486110687256 0.06568187475204468 0.8585267663002014
v -0.06473332643508911 0.0992787778377533 0.8628712296485901
v -0.06869974732398987 0.0962771624326706 0.8661972284317017
v -0.05561896786093712 0.0893196240067482 0.8686278462409973
v -0.05308014526963234 0.09339892119169235 0.864428699016571
v -0.05828307196497917 0.0740881934762001 0.8522881269454956
v -0.05730576440691948 0.07121757417917252 0.8578149676322937
v -0.05986040085554123 0.07541884481906891 0.8566381931304932
v -0.06081613153219223 0.07884085178375244 0.8514224886894226
v -0.046266019344329834 0.06803932040929794 0.817596435546875
v -0.038016561418771744 0.06390325725078583 0.8171378970146179
v -0.043746743351221085 0.08485870808362961 0.8495542407035828
v -0.04000382870435715 0.08729049563407898 0.8611636757850647
v -0.030813397839665413 0.08884537220001221 0.8602607250213623
v -0.02135855332016945 0.06434351950883865 0.8320064544677734
v -0.03203698247671127 0.06384365260601044 0.8298681378364563
v -0.03089538961648941 0.06352856010198593 0.8257960081100464
v -0.04240621626377106 0.06334875524044037 0.8508697748184204
v -0.052199944853782654 0.06613477319478989 0.8521568775177002
v -0.047255732119083405 0.06518599390983582 0.8466218709945679
v -0.038526393473148346 0.06426341831684113 0.8457541465759277
v 0.010670945048332214 0.07747048884630203 0.8021717071533203
v 0.011627040803432465 0.06600568443536758 0.8006616234779358
v -0.08130691945552826 0.09837900102138519 0.8631991744041443
v -0.07799804955720901 0.0940399020910263 0.8645560145378113
v -0.00994987040758133 0.06466656923294067 0.8333835601806641
v -0.017912879586219788 0.08985945582389832 0.8605762124061584
v 0.0013812743127346039 0.06341492384672165 0.8341042995452881
v -0.032193373888731 0.08038844168186188 0.8093788027763367
v -0.03444788604974747 0.07570847868919373 0.8063048720359802
v -0.041530974209308624 0.07719732075929642 0.8091610074043274
v -0.03891252726316452 0.08138343691825867 0.8106508255004883
v -0.07025230675935745 0.08942179381847382 0.8473545908927917
v -0.07393662631511688 0.08730650693178177 0.8513640761375427
v -0.07764444500207901 0.09080684185028076 0.8495922684669495
v -0.07354244589805603 0.09300412982702255 0.8464189767837524
v -0.0562237985432148 0.0712374672293663 0.8636440634727478
v -0.05390625074505806 0.07275192439556122 0.8695197105407715
v -0.0598614364862442 0.0782928392291069 0.867064893245697
v -0.06049909070134163 0.07640054076910019 0.8616616129875183
v -0.052931301295757294 0.07906438410282135 0.8713430166244507
v -0.057915329933166504 0.08365743607282639 0.8695785403251648
v -0.06521280109882355 0.09369049966335297 0.8474124670028687
v -0.06102645397186279 0.09832000732421875 0.8519725799560547
v -0.052963435649871826 0.0916772186756134 0.8519858717918396
v -0.05842754989862442 0.08612117171287537 0.8498173356056213
v 0.011541590094566345 0.09556294977664948 0.8262780904769897
v 0.015275940299034119 0.09171423316001892 0.8166590332984924
v 0.0011483393609523773 0.08850359171628952 0.8138474225997925
v -0.01237088069319725 0.08593379706144333 0.8104112148284912
v -0.024908054620027542 0.08220570534467697 0.8080711960792542
v -0.027919987216591835 0.08681395649909973 0.8179144859313965
v 0.005112655460834503 0.08538585156202316 0.8076098561286926
v -0.055903248488903046 0.07605060189962387 0.8469123244285583
v -0.04875776916742325 0.08358301967382431 0.8533745408058167
v -0.05113634467124939 0.08028406649827957 0.8484882712364197
v 0.002961520105600357 0.06069834530353546 0.8274013996124268
v -0.07173261791467667 0.09302476048469543 0.8663288950920105
v 0.037242330610752106 0.09951478242874146 0.8611953854560852
v 0.03754831850528717 0.10329946875572205 0.8486543893814087
v 0.02913425862789154 0.10131236165761948 0.8502686023712158
v 0.028438329696655273 0.0965876430273056 0.8638136982917786
v -0.0753917396068573 0.08673641085624695 0.8581089377403259
v -0.07488243281841278 0.08899533748626709 0.8635141849517822
v -0.03730843961238861 0.06401944160461426 0.8112182021141052
v -0.045520782470703125 0.06917615234851837 0.812581479549408
v -0.046675920486450195 0.07297442853450775 0.8107602596282959
v -0.0395212396979332 0.06616087257862091 0.8069135546684265
v 0.01850132644176483 0.08918168395757675 0.8124814629554749
v -0.022038336843252182 0.06824108958244324 0.7935613989830017
v -0.023329053074121475 0.0773603692650795 0.797552227973938
v 0.027604036033153534 0.09459814429283142 0.8195083737373352
v 0.024428918957710266 0.09855301678180695 0.8277638554573059
v 0.0338861420750618 0.10055717825889587 0.8282528519630432
v -0.038081515580415726 0.0865042507648468 0.8293634057044983
v 0.0068962424993515015 0.09709466248750687 0.8333642482757568
v 0.020985260605812073 0.09950791299343109 0.8344837427139282
v 0.032157108187675476 0.10190902650356293 0.8353809714317322
v 0.04016707092523575 0.10414370894432068 0.8352845907211304
v 0.04129600524902344 0.1022224873304367 0.8274915218353271
v -0.06205766648054123 0.09936606138944626 0.8572145700454712
v -0.06517984718084335 0.09990544617176056 0.8525678515434265
v 0.049577854573726654 0.10560007393360138 0.8260604739189148
v 0.04807700216770172 0.10699039697647095 0.8350627422332764
v 0.017844006419181824 0.09973673522472382 0.8431234359741211
v 0.014376580715179443 0.09876833111047745 0.8531904220581055
v 0.004354566335678101 0.09724299609661102 0.8415936231613159
v -0.0001699291169643402 0.09613922983407974 0.8515447378158569
v -0.03753529489040375 0.08991450816392899 0.8393587470054626
v -0.07504283636808395 0.11536255478858948 0.8494061827659607
v -0.07006556540727615 0.10437381267547607 0.8485333919525146
v -0.07452334463596344 0.10142198204994202 0.8461333513259888
v -0.07678146660327911 0.11268137395381927 0.8460860252380371
v -0.06876523047685623 0.09642284363508224 0.8475816249847412
v -0.06776954978704453 0.10553354024887085 0.8535907864570618
v -0.003220483660697937 0.09113456308841705 0.8626226186752319
v -0.05594755709171295 0.06845914572477341 0.845048725605011
v 0.012297108769416809 0.09164535254240036 0.8667636513710022
v -0.0117955282330513 0.08362943679094315 0.8725216388702393
v -0.0008042827248573303 0.0825638622045517 0.8760478496551514
v 0.02795279026031494 0.09052760154008865 0.8737356662750244
v 0.013504482805728912 0.08410978317260742 0.8798624277114868
v 0.045823633670806885 0.09470399469137192 0.8686392903327942
v 0.036867380142211914 0.09311792254447937 0.8702207207679749
v -0.0013136044144630432 0.07632621377706528 0.8831515312194824
v -0.08750538527965546 0.10534118860960007 0.8528792262077332
v -0.08456229418516159 0.105338454246521 0.8478497862815857
v 0.045297496020793915 0.10183229297399521 0.8602860569953918
v -0.0032677240669727325 0.04544777423143387 0.864516019821167
v 0.01324518769979477 0.0588223896920681 0.8306798338890076
v 0.01172773540019989 0.06096253544092178 0.8354940414428711
v 0.021030046045780182 0.05648188292980194 0.8134275078773499
v 0.016305990517139435 0.05564027279615402 0.8240991830825806
v -0.08750912547111511 0.10700489580631256 0.857916533946991
v -0.051985785365104675 0.07689692825078964 0.8282812237739563
v -0.04689577966928482 0.07414215058088303 0.8282067775726318
v -0.008634280413389206 0.04619350656867027 0.8812240362167358
v -0.0158335343003273 0.04365774989128113 0.878646731376648
v -0.02332884818315506 0.05352366715669632 0.8831462264060974
v -0.019844956696033478 0.04726973921060562 0.8832318782806396
v -0.01214141771197319 0.05216781795024872 0.8860475420951843
v -0.015221763402223587 0.05922747403383255 0.8856948614120483
v 0.02252863347530365 0.057810261845588684 0.8377360701560974
v 0.022760920226573944 0.05691133812069893 0.83389812707901
v 0.022046230733394623 0.07780381292104721 0.8059033751487732
v 0.022243842482566833 0.06637546420097351 0.8046825528144836
v -0.05046095699071884 0.08428678661584854 0.8697099685668945
v -0.042811255902051926 0.0848744660615921 0.8673743009567261
v -0.04779215529561043 0.08876807987689972 0.8652957677841187
v -0.050693437457084656 0.09370020776987076 0.8583121299743652
v -0.05889561399817467 0.07309700548648834 0.8452064990997314
v -0.055406808853149414 0.07883037626743317 0.8509527444839478
v 0.031186066567897797 0.05381549522280693 0.855390727519989
v 0.020740143954753876 0.055884845554828644 0.8498972654342651
v -0.014452815055847168 0.050526805222034454 0.8629398941993713
v -0.019930705428123474 0.051916372030973434 0.8618830442428589
v -0.03392449766397476 0.06439349055290222 0.8388843536376953
v -0.04726109653711319 0.0869930312037468 0.833391010761261
v -0.04784214496612549 0.08813723921775818 0.840388834476471
v -0.04391957074403763 0.06533656269311905 0.8382191061973572
v -0.08267557621002197 0.11327804625034332 0.8607405424118042
v -0.08617760986089706 0.10964173078536987 0.8600929379463196
v -0.046504683792591095 0.08928804099559784 0.859654426574707
v -0.02783656306564808 0.06133637577295303 0.818250834941864
v -0.03758958354592323 0.08147000521421432 0.8262965679168701
v -0.04908183217048645 0.08363140374422073 0.8305467963218689
v -0.018045656383037567 0.06191353127360344 0.7956191897392273
v 0.046182699501514435 0.10532456636428833 0.8482424020767212
v -0.07941128313541412 0.09910465776920319 0.8478036522865295
v -0.08076489716768265 0.10725285857915878 0.8448317646980286
v -0.07434158027172089 0.11650586128234863 0.8534529209136963
v -0.07664372026920319 0.11560606956481934 0.8586696982383728
v 0.03158116340637207 0.06638169288635254 0.8100541830062866
v 0.010444097220897675 0.062126047909259796 0.8385750651359558
v -0.014126397669315338 0.06897479295730591 0.8826227188110352
v -0.024725671857595444 0.06020799279212952 0.8799381256103516
v -0.05129692330956459 0.06786108762025833 0.836154043674469
v -0.028435036540031433 0.07819792628288269 0.8033338785171509
v -0.03355470299720764 0.0847661942243576 0.8160368800163269
v -0.03572256490588188 0.08507135510444641 0.8174492716789246
v -0.036269184201955795 0.08321122825145721 0.8244687914848328
v -0.041592076420784 0.07927880436182022 0.8285363912582397
v -0.07777047157287598 0.12033447623252869 0.8509235978126526
v -0.08120857179164886 0.12031436711549759 0.855570912361145
v -0.08673754334449768 0.11838801205158234 0.8561798334121704
v -0.089839406311512 0.11425016820430756 0.8558415770530701
v -0.09011226147413254 0.1098937839269638 0.85416579246521
v -0.07798513770103455 0.1188407689332962 0.8470575213432312
v -0.07900647819042206 0.11606042087078094 0.8445932865142822
v -0.08183581382036209 0.10992489010095596 0.8442740440368652
v -0.07872487604618073 0.12061721831560135 0.8436958193778992
v -0.0804222971200943 0.1245071068406105 0.8457909822463989
v -0.09300953149795532 0.126333087682724 0.8461198806762695
v -0.08936677873134613 0.1245950311422348 0.8500841856002808
v -0.08893590420484543 0.12622544169425964 0.8483619093894958
v -0.09126489609479904 0.12857937812805176 0.8449373245239258
v -0.0923461988568306 0.13178260624408722 0.8413565754890442
v -0.09485100954771042 0.12946748733520508 0.8421419858932495
v -0.08458025753498077 0.1252816915512085 0.848596453666687
v -0.08702030777931213 0.12876607477664948 0.8439005613327026
v -0.08364644646644592 0.12816548347473145 0.8415530920028687
v -0.08542054891586304 0.13189007341861725 0.8382904529571533
v -0.08857787400484085 0.1327548623085022 0.840347409248352
v -0.08228353410959244 0.12594808638095856 0.8450513482093811
v -0.08373500406742096 0.12468507885932922 0.8500418663024902
v -0.09414815902709961 0.13187938928604126 0.8385842442512512
v -0.09241722524166107 0.13352741301059723 0.8392128944396973
v -0.08947660028934479 0.13399718701839447 0.8379375338554382
v -0.09085987508296967 0.1335122138261795 0.8353974223136902
v -0.09154519438743591 0.11878564208745956 0.8514339327812195
v -0.09425608813762665 0.12432228028774261 0.8454591631889343
v -0.09503994882106781 0.12700186669826508 0.8404066562652588
v -0.0942997932434082 0.12962567806243896 0.8370364308357239
v -0.0940828025341034 0.12191639840602875 0.8423869013786316
v -0.09411410987377167 0.12489740550518036 0.8386951088905334
v -0.09322235733270645 0.12694033980369568 0.8354940414428711
v -0.09234276413917542 0.12002147734165192 0.839150607585907
v -0.09242381900548935 0.123374804854393 0.836557924747467
v -0.08984827250242233 0.11100457608699799 0.8480157852172852
v -0.09118171781301498 0.11343113332986832 0.8508304357528687
v -0.09251674264669418 0.12510734796524048 0.8346654772758484
v -0.09076845645904541 0.13178038597106934 0.8341492414474487
v -0.08130620419979095 0.12569496035575867 0.8403664231300354
v -0.08433187752962112 0.12967658042907715 0.836050808429718
v -0.08100168406963348 0.1240469217300415 0.8389469981193542
v -0.08363519608974457 0.12797710299491882 0.8344641327857971
v -0.08632345497608185 0.13268569111824036 0.8340882658958435
v -0.08695513010025024 0.13329976797103882 0.8365115523338318
v -0.08823423087596893 0.10706321150064468 0.8506148457527161
v -0.08465519547462463 0.10733339190483093 0.8463460803031921
v -0.08540535718202591 0.11050868034362793 0.8442679047584534
v -0.0887170135974884 0.11902771890163422 0.8364524245262146
v -0.08209695667028427 0.11254964768886566 0.8420142531394958
v -0.07947796583175659 0.11821793019771576 0.8412482142448425
v -0.081905797123909 0.12256914377212524 0.8368680477142334
v -0.08412396907806396 0.12051369249820709 0.8356699347496033
v -0.0843469649553299 0.12566307187080383 0.8338170647621155
v -0.0862136259675026 0.12389370054006577 0.8337823748588562
v -0.08962463587522507 0.1227448508143425 0.8344248533248901
v -0.08719591051340103 0.12784653902053833 0.832413375377655
v -0.08644168078899384 0.13068193197250366 0.8329804539680481
v -0.09065859019756317 0.12854965031147003 0.8332246541976929
v -0.08759728074073792 0.12590521574020386 0.8326982855796814
v -0.09031616151332855 0.1259629875421524 0.8336827158927917
v -0.08679428696632385 0.09041035175323486 0.8221938610076904
v -0.08292365074157715 0.09471990168094635 0.8215197324752808
v -0.07934486865997314 0.08774743974208832 0.824292778968811
v -0.08251290023326874 0.08510828018188477 0.8267734050750732
v -0.08877797424793243 0.09118789434432983 0.8354427218437195
v -0.09054605662822723 0.0887162983417511 0.8303503394126892
v -0.08532731235027313 0.08642110973596573 0.8361887335777283
v -0.08208894729614258 0.09096551686525345 0.8388194441795349
v -0.08497003465890884 0.09569784253835678 0.8367195725440979
v -0.07791392505168915 0.09421263635158539 0.837573230266571
v -0.078590989112854 0.09252645075321198 0.8420014381408691
v -0.08088277280330658 0.08607908338308334 0.8399956226348877
v -0.06261883676052094 0.07943058013916016 0.8447142839431763
v -0.06129685416817665 0.08639558404684067 0.8461401462554932
v -0.057312097400426865 0.07555542886257172 0.8288489580154419
v -0.05728400871157646 0.07993922382593155 0.828737735748291
v -0.08945361524820328 0.08892925828695297 0.8253462314605713
v -0.08508837968111038 0.08472663909196854 0.8312080502510071
v -0.07317806780338287 0.09020846337080002 0.8221673369407654
v -0.07564990222454071 0.08554863929748535 0.8228915333747864
v -0.0768403708934784 0.09122101217508316 0.8221150636672974
v -0.07516828179359436 0.09536238014698029 0.8237523436546326
v -0.06087178736925125 0.0725632756948471 0.8392255902290344
v -0.05807747319340706 0.07291030138731003 0.8338763117790222
v -0.06252840161323547 0.07525128871202469 0.8418774604797363
v -0.07154028117656708 0.0954444631934166 0.82563716173172
v -0.0716215968132019 0.09893985837697983 0.8313162922859192
v -0.056485969573259354 0.09284450113773346 0.8352198004722595
v -0.05657344311475754 0.0887918695807457 0.8306114077568054
v -0.0817132443189621 0.08242619782686234 0.8359529972076416
v -0.07851973176002502 0.08221916109323502 0.8264258503913879
v -0.08068619668483734 0.08087867498397827 0.8304741382598877
v -0.0746350884437561 0.09716822952032089 0.8381842374801636
v -0.07580050081014633 0.0986936092376709 0.8329798579216003
v -0.08787801116704941 0.11204847693443298 0.8288118243217468
v -0.07933636009693146 0.10267762094736099 0.8308688998222351
v -0.07909233123064041 0.10195939242839813 0.8258866667747498
v -0.08645831048488617 0.11227452754974365 0.8237754106521606
v -0.07477401942014694 0.09804317355155945 0.8288131952285767
v -0.08172199130058289 0.10037602484226227 0.8344822525978088
v -0.09491206705570221 0.1027873158454895 0.8169823288917542
v -0.0902995616197586 0.10714440047740936 0.8167853355407715
v -0.09819259494543076 0.10087496042251587 0.8195326328277588
v -0.058662038296461105 0.09214440733194351 0.8416615724563599
v -0.09900976717472076 0.1005692183971405 0.8297579288482666
v -0.09968779981136322 0.09967100620269775 0.8234054446220398
v -0.07985418289899826 0.09913888573646545 0.8224173188209534
v -0.08729952573776245 0.1106751561164856 0.8192265629768372
v -0.09026189893484116 0.11007644981145859 0.8321815729141235
v -0.09441263973712921 0.10406318306922913 0.8336060643196106
v -0.09423428773880005 0.11395639181137085 0.8306319713592529
v -0.09871060401201248 0.1087486669421196 0.8307211399078369
v -0.10286612808704376 0.10453452914953232 0.8256525993347168
v -0.10175944119691849 0.10292081534862518 0.8198383450508118
v -0.09932351112365723 0.10322850942611694 0.8169698715209961
v -0.09105989336967468 0.11596129834651947 0.8273122310638428
v -0.0889749675989151 0.11547468602657318 0.8225681781768799
v -0.08884744346141815 0.1118314266204834 0.8181851506233215
v -0.09295806288719177 0.119599349796772 0.8229843974113464
v -0.0972336158156395 0.11930178105831146 0.8254867792129517
v -0.10645401477813721 0.11769797652959824 0.8074706196784973
v -0.10602433979511261 0.11413493752479553 0.8126293420791626
v -0.1058315634727478 0.11648984253406525 0.8140405416488647
v -0.10646987706422806 0.11979219317436218 0.8094022274017334
v -0.10604147613048553 0.11176151037216187 0.8191215991973877
v -0.10548046231269836 0.1145109236240387 0.8187864422798157
v -0.10291709005832672 0.11673931777477264 0.8222962021827698
v -0.10352374613285065 0.12004771828651428 0.8164751529693604
v -0.09934278577566147 0.1222863644361496 0.8180964589118958
v -0.1005869209766388 0.1258317083120346 0.8134332895278931
v -0.10467956960201263 0.12391658127307892 0.8116909861564636
v -0.10004860907793045 0.11964191496372223 0.8221732974052429
v -0.1064477264881134 0.12263838946819305 0.8069987297058105
v -0.1056627482175827 0.12254980206489563 0.8044821619987488
v -0.10300013422966003 0.11472450941801071 0.8258684277534485
v -0.10337692499160767 0.10644581913948059 0.817073404788971
v -0.1045917272567749 0.11257873475551605 0.8102516531944275
v -0.1042969822883606 0.11697570979595184 0.8050711154937744
v -0.10299026221036911 0.1227378398180008 0.8030154705047607
v -0.10097403824329376 0.11268973350524902 0.807761013507843
v -0.10125690698623657 0.11735308170318604 0.8039270639419556
v -0.10026564449071884 0.12223602831363678 0.8029394745826721
v -0.09636060148477554 0.1139383390545845 0.806684136390686
v -0.09723210334777832 0.11884796619415283 0.8037485480308533
v -0.09504303336143494 0.10647077113389969 0.8137519359588623
v -0.09945264458656311 0.10529723018407822 0.8145882487297058
v -0.09804582595825195 0.12128165364265442 0.8033256530761719
v -0.1041557639837265 0.12688003480434418 0.806079626083374
v -0.10145386308431625 0.12650303542613983 0.8041433095932007
v -0.10475774854421616 0.12618103623390198 0.8077796697616577
v -0.09732295572757721 0.12297584116458893 0.818579375743866
v -0.09859845787286758 0.12637710571289062 0.8127050399780273
v -0.0946853905916214 0.12341386079788208 0.8172431588172913
v -0.09663981199264526 0.12700645625591278 0.811313807964325
v -0.10053173452615738 0.1285305917263031 0.8087465167045593
v -0.10197716951370239 0.12792813777923584 0.8094284534454346
v -0.09555289149284363 0.10470827668905258 0.8154482841491699
v -0.09111527353525162 0.10822414606809616 0.8161059617996216
v -0.09034854918718338 0.10959227383136749 0.8150650858879089
v -0.09236632287502289 0.11721988022327423 0.8086403608322144
v -0.08831784129142761 0.11338241398334503 0.81782066822052
v -0.09032031893730164 0.11817719787359238 0.820600688457489
v -0.09239460527896881 0.122519850730896 0.8156992197036743
v -0.09119915962219238 0.12062014639377594 0.8121702671051025
v -0.09464467316865921 0.12670153379440308 0.8104770183563232
v -0.0930599570274353 0.12400703132152557 0.8093553781509399
v -0.09413169324398041 0.12093749642372131 0.805661141872406
v -0.09705943614244461 0.1280573010444641 0.8066898584365845
v -0.09912282973527908 0.12871354818344116 0.8076677918434143
v -0.09944392740726471 0.12552675604820251 0.8038058876991272
v -0.09510192275047302 0.1258268505334854 0.8065523505210876
v -0.09683304280042648 0.12362861633300781 0.8040761351585388
v -0.06288819760084152 0.09193182736635208 0.8381220698356628
v -0.06489522755146027 0.09477996081113815 0.8337308764457703
v -0.06481991708278656 0.0890330970287323 0.8298269510269165
v -0.06219075620174408 0.08805819600820541 0.8348880410194397
v -0.05004441738128662 0.09291484951972961 0.8375832438468933
v -0.054220326244831085 0.09114154428243637 0.8395954370498657
v -0.054144348949193954 0.08919089287519455 0.8370370268821716
v -0.04973234981298447 0.09127938002347946 0.8340274691581726
v -0.048796866089105606 0.09749642014503479 0.8345375657081604
v -0.048218149691820145 0.09495818614959717 0.8301758766174316
v -0.04736322537064552 0.09215070307254791 0.8323661684989929
v -0.05236409232020378 0.08905881643295288 0.8351726531982422
v -0.04316223785281181 0.08140435814857483 0.8302299380302429
v -0.03886622190475464 0.08626210689544678 0.8275652527809143
v -0.05898858234286308 0.0908869057893753 0.8395988941192627
v -0.05846931412816048 0.08847148716449738 0.8373053669929504
v -0.061303384602069855 0.08977236598730087 0.8200395107269287
v -0.062219761312007904 0.08595626056194305 0.8236128687858582
v -0.06411516666412354 0.09261560440063477 0.8254271149635315
v -0.06127992644906044 0.09672482311725616 0.8232125639915466
v -0.049000538885593414 0.07286390662193298 0.8262007236480713
v -0.04927612841129303 0.07268740236759186 0.8201571106910706
v -0.04751041531562805 0.0769570991396904 0.8296008706092834
v -0.05673760920763016 0.09381800889968872 0.8186001777648926
v -0.050426315516233444 0.09610162675380707 0.8207963705062866
v -0.0433075875043869 0.0877448245882988 0.8149122595787048
v -0.04719550162553787 0.08313147723674774 0.813352108001709
v -0.05623675882816315 0.08680041879415512 0.8362048268318176
v -0.06178145483136177 0.08404804021120071 0.8279784321784973
v -0.059950560331344604 0.08429758250713348 0.8336131572723389
v -0.0471433661878109 0.0950910747051239 0.827331006526947
v -0.050870805978775024 0.09763199090957642 0.8246675133705139
v -0.05488486960530281 0.11299708485603333 0.840984046459198
v -0.056656233966350555 0.1027006283402443 0.8267711400985718
v -0.06175881624221802 0.10179485380649567 0.8281933069229126
v -0.05907931178808212 0.11318743228912354 0.8410565257072449
v -0.05666862428188324 0.09889091551303864 0.8227306008338928
v -0.0513349249958992 0.1010545939207077 0.8293508887290955
v -0.06336656957864761 0.10343765467405319 0.849701464176178
v -0.06476406753063202 0.10691051185131073 0.8459195494651794
v -0.05995407700538635 0.10105083882808685 0.8501593470573425
v -0.03853200376033783 0.08930814266204834 0.8212875127792358
v -0.0494924895465374 0.07693702727556229 0.8146790266036987
v -0.052944011986255646 0.10199779272079468 0.8497181534767151
v -0.05682460963726044 0.10085390508174896 0.8504660725593567
v -0.06425026804208755 0.09862981736660004 0.8297945261001587
v -0.06312209367752075 0.11110855638980865 0.8426864147186279
v -0.05100446194410324 0.11029265075922012 0.8421798348426819
v -0.04950664937496185 0.10522850602865219 0.8456658124923706
v -0.05144217610359192 0.11322244256734848 0.8456454277038574
v -0.05077396333217621 0.10845591127872467 0.8493056893348694
v -0.054459575563669205 0.10562164336442947 0.8534564971923828
v -0.05857672914862633 0.10489652305841446 0.8538069725036621
v -0.061674199998378754 0.1052650511264801 0.8531069755554199
v -0.05449790880084038 0.11625688523054123 0.8441759347915649
v -0.058239396661520004 0.11660091578960419 0.8440566062927246
v -0.06292745471000671 0.1128738671541214 0.8438330888748169
v -0.05427844822406769 0.11908964812755585 0.8471841812133789
v -0.05117519944906235 0.11743298918008804 0.8510543704032898
v -0.058630891144275665 0.12055007368326187 0.8663163185119629
v -0.05783887952566147 0.11575590074062347 0.8627384305000305
v -0.05698343366384506 0.11652667820453644 0.8622844219207764
v -0.05702301487326622 0.12122140824794769 0.8658207058906555
v -0.0549580417573452 0.11105549335479736 0.8583847284317017
v -0.05470091104507446 0.11311636865139008 0.8591468930244446
v -0.05222053825855255 0.11442742496728897 0.8562479019165039
v -0.05300626903772354 0.11969864368438721 0.8601704239845276
v -0.05343937128782272 0.12288293987512589 0.8548914790153503
v -0.054050613194704056 0.12645751237869263 0.8584243059158325
v -0.053515736013650894 0.12394467741250992 0.8636201620101929
v -0.05160210281610489 0.11781729757785797 0.8533090949058533
v -0.05676911026239395 0.12430261820554733 0.8670304417610168
v -0.05787600576877594 0.12413664907217026 0.8683038949966431
v -0.05150061100721359 0.11289748549461365 0.8543009757995605
v -0.059415072202682495 0.10896715521812439 0.85776686668396
v -0.060767121613025665 0.11510433256626129 0.86265629529953
v -0.06164083629846573 0.1199769675731659 0.8662534356117249
v -0.061389632523059845 0.12429798394441605 0.8672525882720947
v -0.06385056674480438 0.11618885397911072 0.8604968786239624
v -0.06387968361377716 0.12064070999622345 0.8640734553337097
v -0.06357943266630173 0.12445374578237534 0.8650360107421875
v -0.0653490498661995 0.11772280931472778 0.8580991625785828
v -0.06526096165180206 0.12181472778320312 0.8613317012786865
v -0.06477050483226776 0.1093159094452858 0.852112352848053
v -0.0625891238451004 0.10867252945899963 0.855315089225769
v -0.0644427239894867 0.12453241646289825 0.8628647327423096
v -0.05616837367415428 0.12794286012649536 0.8660382032394409
v -0.05995703488588333 0.12902647256851196 0.8645644783973694
v -0.05524018779397011 0.12675324082374573 0.8654317855834961
v -0.05349894240498543 0.12332918494939804 0.8530519604682922
v -0.0550617054104805 0.1282235085964203 0.8572291135787964
v -0.055485013872385025 0.12404520809650421 0.8513028621673584
v -0.05713116005063057 0.12888208031654358 0.8556541204452515
v -0.05545852333307266 0.12968795001506805 0.8611298203468323
v -0.054813481867313385 0.12872621417045593 0.86152184009552
v -0.06419911235570908 0.10616979002952576 0.8507177233695984
v -0.06487296521663666 0.10935144126415253 0.8468306064605713
v -0.06490008533000946 0.11224338412284851 0.8481653928756714
v -0.06535248458385468 0.12091505527496338 0.8546988368034363
v -0.06251046061515808 0.11528660356998444 0.8453801870346069
v -0.05771052464842796 0.11980501562356949 0.846703290939331
v -0.058729276061058044 0.12403467297554016 0.8510767221450806
v -0.06236683204770088 0.123390331864357 0.8521745204925537
v -0.05973656848073006 0.12828433513641357 0.8552305698394775
v -0.06205473095178604 0.12659767270088196 0.8551750183105469
v -0.06532108783721924 0.12449721992015839 0.8581489324569702
v -0.06047744303941727 0.1294994056224823 0.8589219450950623
v -0.05777493119239807 0.13038873672485352 0.8598394989967346
v -0.06251387298107147 0.12820419669151306 0.8628189563751221
v -0.06252390146255493 0.12815672159194946 0.8582457900047302
v -0.06396812945604324 0.12695515155792236 0.8611311316490173
v -0.04973950982093811 0.0738212838768959 0.8162698745727539
v -0.04891767352819443 0.06708202511072159 0.8080331683158875
v -0.04828799515962601 0.06322143971920013 0.8091838955879211
v -0.045134834945201874 0.06160055473446846 0.8066636323928833
v -0.04466971009969711 0.0654485672712326 0.8059052228927612
v -0.05418993532657623 0.06831930577754974 0.7986943125724792
v -0.052613530308008194 0.06998416781425476 0.8024462461471558
v -0.0490976944565773 0.06959789991378784 0.7994560599327087
v -0.050363391637802124 0.06829552352428436 0.7953222990036011
v -0.05528261512517929 0.06379632651805878 0.7966815233230591
v -0.051482848823070526 0.06407008320093155 0.7930232882499695
v -0.04778117686510086 0.07155311107635498 0.7947312593460083
v -0.04676532745361328 0.07164157927036285 0.7995033264160156
v -0.036744557321071625 0.07622607797384262 0.8039174675941467
v -0.03498261794447899 0.07735801488161087 0.7995362281799316
v -0.024773985147476196 0.0605352446436882 0.7963617444038391
v -0.02409917116165161 0.0583684928715229 0.8002945184707642
v -0.031861353665590286 0.059212952852249146 0.800865650177002
v -0.031011274084448814 0.059721365571022034 0.7967586517333984
v -0.05066213011741638 0.06930488348007202 0.8055335879325867
v -0.046944886445999146 0.06851518899202347 0.8036836385726929
v -0.04179850220680237 0.05537453293800354 0.7995645999908447
v -0.041435204446315765 0.057048387825489044 0.8036303520202637
v -0.04468333721160889 0.05761709064245224 0.8062301874160767
v -0.04626091942191124 0.054586753249168396 0.8036087155342102
v -0.027374932542443275 0.05908185988664627 0.8042997717857361
v -0.031482987105846405 0.06136275455355644 0.8062111735343933
v -0.03522083908319473 0.06371159106492996 0.8067821264266968
v -0.03393764793872833 0.06092539429664612 0.80455082654953
v -0.037853848189115524 0.06969808787107468 0.8075227737426758
v -0.04330403730273247 0.056141600012779236 0.795464813709259
v -0.045499037951231 0.060261666774749756 0.7911878824234009
v -0.0306576956063509 0.06660491973161697 0.7906709313392639
v -0.02975541353225708 0.06242264062166214 0.793021023273468
v -0.04564099758863449 0.06970280408859253 0.803550660610199
v -0.042414337396621704 0.06066550314426422 0.8057538270950317
v -0.04376557096838951 0.06544179469347 0.8056361675262451
v -0.04699626937508583 0.06737667322158813 0.7908035516738892
v -0.05114489793777466 0.058144744485616684 0.7946861982345581
v -0.05946706235408783 0.05487437918782234 0.8089156746864319
v -0.05294807627797127 0.05457116663455963 0.8027505278587341
v -0.05058636516332626 0.055294670164585114 0.8067917823791504
v -0.05734825134277344 0.055303752422332764 0.8113008141517639
v -0.04785836115479469 0.05500388145446777 0.7987983226776123
v -0.05549578368663788 0.05777706950902939 0.7987943291664124
v -0.055127792060375214 0.06747705489397049 0.8136294484138489
v -0.0541447289288044 0.062249261885881424 0.8140882849693298
v -0.056840334087610245 0.06959143280982971 0.811858057975769
v -0.03276008367538452 0.0746205598115921 0.7937703132629395
v -0.061740487813949585 0.06817525625228882 0.8064637780189514
v -0.05955054238438606 0.07006216794252396 0.8097302317619324
v -0.04887869954109192 0.059116166085004807 0.8088260293006897
v -0.05520544946193695 0.05788962543010712 0.8131803274154663
v -0.06192697584629059 0.057222165167331696 0.8060106635093689
v -0.06283999979496002 0.06303934007883072 0.8040438294410706
v -0.06510814279317856 0.05744459852576256 0.8101831078529358
v -0.06598585844039917 0.06295625865459442 0.8087700009346008
v -0.06412594765424728 0.068219855427742 0.8120977282524109
v -0.06090118736028671 0.06926074624061584 0.8136714696884155
v -0.05818690359592438 0.06869490444660187 0.8151653409004211
v -0.061587244272232056 0.05489782616496086 0.812342643737793
v -0.058849744498729706 0.0552276074886322 0.8140270113945007
v -0.05612332373857498 0.05772404000163078 0.8151313066482544
v -0.0639241635799408 0.054826077073812485 0.81618732213974
v -0.0673808753490448 0.058007147163152695 0.816753625869751
v -0.06525641679763794 0.06439104676246643 0.8283035755157471
v -0.06441672146320343 0.06570059061050415 0.8245735168457031
v -0.06533029675483704 0.06505540758371353 0.824212372303009
v -0.06630496680736542 0.06434732675552368 0.8280527591705322
v -0.06492172181606293 0.06683661043643951 0.8192524909973145
v -0.06574006378650665 0.06558090448379517 0.8201799392700195
v -0.0670420229434967 0.06317941099405289 0.8177767395973206
v -0.06803211569786072 0.06203708425164223 0.8227793574333191
v -0.06776190549135208 0.056715141981840134 0.8222568035125732
v -0.06857194751501083 0.05647585541009903 0.8261967301368713
v -0.06903785467147827 0.06119679659605026 0.8262386918067932
v -0.06788434833288193 0.05903061479330063 0.8183549642562866
v -0.06776267290115356 0.06325007230043411 0.8300749659538269
v -0.06731931865215302 0.06329116225242615 0.8314093947410583
v -0.06747236847877502 0.06374762952327728 0.815483570098877
v -0.06115242466330528 0.06816300749778748 0.819395124912262
v -0.06234656274318695 0.06606051325798035 0.826024055480957
v -0.06401900947093964 0.06433547288179398 0.8303799629211426
v -0.06587790697813034 0.06194741651415825 0.8325940370559692
v -0.060023266822099686 0.06522256135940552 0.8257050514221191
v -0.06198260933160782 0.06340497732162476 0.8309105038642883
v -0.06376755237579346 0.061011794954538345 0.8329018354415894
v -0.05775550752878189 0.06283928453922272 0.8252931833267212
v -0.06036467105150223 0.06148526072502136 0.8300946950912476
v -0.0557824932038784 0.06446939706802368 0.8191016912460327
v -0.058159567415714264 0.06702594459056854 0.8195250034332275
v -0.06250519305467606 0.06024238467216492 0.8318799138069153
v -0.0693165734410286 0.0599396675825119 0.8311469554901123
v -0.06692373752593994 0.058801837265491486 0.8324301242828369
v -0.0698312297463417 0.06020632013678551 0.8296394348144531
v -0.06718131899833679 0.05551338568329811 0.8219727873802185
v -0.06800477206707001 0.05510624498128891 0.8268176317214966
v -0.06520837545394897 0.05400347709655762 0.8220388889312744
v -0.06617318838834763 0.0542224645614624 0.8275230526924133
v -0.0688997209072113 0.05652293935418129 0.8298987746238708
v -0.06943346560001373 0.05765184387564659 0.8285427689552307
v -0.05563332140445709 0.06594125926494598 0.8166831135749817
v -0.05504341423511505 0.06208616495132446 0.8158782124519348
v -0.0554533451795578 0.06056628003716469 0.818094789981842
v -0.0573163703083992 0.0590374693274498 0.8242549300193787
v -0.057238660752773285 0.056372907012701035 0.8170297741889954
v -0.06065870821475983 0.054549574851989746 0.8163796663284302
v -0.06259095668792725 0.05382322892546654 0.8225749135017395
v -0.05962119251489639 0.05515443533658981 0.823441207408905
v -0.06417524814605713 0.05436737462878227 0.8283138275146484
v -0.0614435076713562 0.05560306832194328 0.8285765647888184
v -0.05980632081627846 0.05835583806037903 0.8292140364646912
v -0.06511038541793823 0.05641493573784828 0.831335186958313
v -0.06696563959121704 0.05616505816578865 0.8311411142349243
v -0.06489907205104828 0.058383241295814514 0.8324605822563171
v -0.06323260068893433 0.056816983968019485 0.8311353325843811
v -0.06273153424263 0.05830821767449379 0.8315942287445068
v -0.02650986798107624 0.06344686448574066 0.7941231727600098
v -0.03772176057100296 0.051684170961380005 0.8709732890129089
v -0.03560971841216087 0.0524841845035553 0.8658002614974976
v -0.02682056650519371 0.038810595870018005 0.8626619577407837
v -0.029967352747917175 0.04491141811013222 0.8597545027732849
v -0.027139361947774887 0.035100724548101425 0.8687054514884949
v -0.03178943321108818 0.0373324379324913 0.8781002759933472
v -0.028217874467372894 0.03554277494549751 0.8744291067123413
v -0.032758139073848724 0.04969819635152817 0.8613425493240356
v -0.037558913230895996 0.04870336130261421 0.8758147954940796
v -0.035182978957891464 0.04269729554653168 0.8794457316398621
v -0.04803631827235222 0.04236254096031189 0.8720064759254456
v -0.044237442314624786 0.03566393628716469 0.87484210729599
v -0.039521947503089905 0.03014933317899704 0.8721344470977783
v -0.03399841859936714 0.030755452811717987 0.8683834075927734
v -0.031325872987508774 0.031684063374996185 0.8645346164703369
v -0.044525694102048874 0.047959309071302414 0.867257297039032
v -0.04145649075508118 0.04956814646720886 0.862653911113739
v -0.036522265523672104 0.04723856598138809 0.858940064907074
v -0.04919382557272911 0.04504682123661041 0.8610385060310364
v -0.0511210672557354 0.03751424327492714 0.8554859161376953
v -0.042974308133125305 0.024289458990097046 0.8439192175865173
v -0.0406918004155159 0.025613166391849518 0.8499167561531067
v -0.043368302285671234 0.02624015510082245 0.850265383720398
v -0.045320622622966766 0.024564355611801147 0.8449122309684753
v -0.04187146574258804 0.026520445942878723 0.8553705215454102
v -0.04361417144536972 0.027608230710029602 0.8543259501457214
v -0.04715476930141449 0.03159821778535843 0.8560736775398254
v -0.04866057634353638 0.029831230640411377 0.8506733179092407
v -0.04966859519481659 0.035494595766067505 0.8542241454124451
v -0.05042281746864319 0.03566209226846695 0.8499730229377747
v -0.05005277693271637 0.02854512631893158 0.8454388976097107
v -0.04799330234527588 0.02450152486562729 0.8422068953514099
v -0.05089705064892769 0.027501441538333893 0.8411374092102051
v -0.046076610684394836 0.024711988866329193 0.8400747776031494
v -0.05016084387898445 0.03019556775689125 0.8583613038063049
v -0.03656744956970215 0.027328111231327057 0.8590583801269531
v -0.037282735109329224 0.026424698531627655 0.8501590490341187
v -0.040061503648757935 0.025882139801979065 0.8429675102233887
v -0.04402356594800949 0.02650252729654312 0.8387067914009094
v -0.034594159573316574 0.02927156537771225 0.8491242527961731
v -0.037813201546669006 0.02939535304903984 0.8427696824073792
v -0.04192841053009033 0.03054681047797203 0.8390231132507324
v -0.0341777503490448 0.033798012882471085 0.8480328917503357
v -0.03791573643684387 0.033146798610687256 0.8427748084068298
v -0.03089645318686962 0.03642947971820831 0.8579386472702026
v -0.032034218311309814 0.030969902873039246 0.8595602512359619
v -0.04113774746656418 0.03278243914246559 0.8401906490325928
v -0.05083730071783066 0.027800127863883972 0.8387778997421265
v -0.048680730164051056 0.029941152781248093 0.8374425768852234
v -0.050851620733737946 0.03881256282329559 0.8500798940658569
v -0.05241687223315239 0.03419915586709976 0.845383882522583
v -0.051878225058317184 0.03665420413017273 0.8445191979408264
v -0.04930926859378815 0.04230697825551033 0.850323498249054
v -0.050539735704660416 0.03899865224957466 0.8436646461486816
v -0.052465010434389114 0.03306534141302109 0.8405542373657227
v -0.0525207556784153 0.03137260675430298 0.8424095511436462
v -0.02968686819076538 0.036206282675266266 0.860440731048584
v -0.031846821308135986 0.04230402410030365 0.8584495782852173
v -0.033685438334941864 0.04269284009933472 0.8570468425750732
v -0.03660671412944794 0.03969694674015045 0.8481673002243042
v -0.03892996162176132 0.04717761278152466 0.856644332408905
v -0.04508575424551964 0.047642409801483154 0.859013020992279
v -0.0463513508439064 0.04433346539735794 0.8492528796195984
v -0.04144550859928131 0.04374206066131592 0.8486937284469604
v -0.047363072633743286 0.04018467292189598 0.8430213332176208
v -0.04440957307815552 0.039779357612133026 0.8430069088935852
v -0.040227241814136505 0.03697875887155533 0.8423352241516113
v -0.04771486669778824 0.03640623763203621 0.8395839333534241
v -0.05066915601491928 0.035270560532808304 0.8396033644676208
v -0.045659564435482025 0.03293951600790024 0.8381009697914124
v -0.04533776640892029 0.03710370883345604 0.8406840562820435
v -0.043442502617836 0.034811779856681824 0.8398692011833191
v -0.018157213926315308 0.05871209502220154 0.8007164597511292
v -0.021287448704242706 0.05829339101910591 0.8061095476150513
v -0.014578722417354584 0.05806737020611763 0.8060306906700134
v -0.005399372428655624 0.05724655091762543 0.8077526688575745
v 0.0046674758195877075 0.05896742641925812 0.8044907450675964
v -0.00742044672369957 0.05816556513309479 0.8142222166061401
v -0.01689976081252098 0.05901027470827103 0.8118802309036255
v -0.027077458798885345 0.060295768082141876 0.8110116720199585
v -0.0012459196150302887 0.05980048328638077 0.8222692608833313
f 2 3 1
f 1 3 4
f 5 6 8
f 8 6 7
f 9 4 10
f 10 4 3
f 12 13 11
f 11 13 9
f 14 12 16
f 16 12 15
f 18 19 17
f 17 19 20
f 22 23 21
f 21 23 24
f 26 27 25
f 25 27 28
f 30 31 29
f 29 31 32
f 33 34 36
f 36 34 35
f 37 38 40
f 40 38 39
f 41 42 6
f 6 42 43
f 6 43 7
f 7 43 44
f 45 34 46
f 46 34 33
f 48 49 47
f 47 49 50
f 52 53 51
f 51 53 54
f 56 52 55
f 55 52 51
f 58 59 57
f 57 59 60
f 61 62 4
f 4 62 1
f 64 65 63
f 63 65 66
f 68 69 67
f 67 69 70
f 72 73 71
f 71 73 74
f 76 77 75
f 75 77 78
f 53 79 54
f 54 79 80
f 82 83 81
f 81 83 84
f 85 86 52
f 52 86 53
f 57 60 87
f 87 60 88
f 89 90 43
f 43 90 44
f 43 42 89
f 89 42 91
f 40 39 92
f 92 39 93
f 94 70 64
f 64 70 69
f 13 61 9
f 9 61 4
f 25 28 69
f 69 28 95
f 96 25 68
f 68 25 69
f 98 99 97
f 97 99 100
f 101 102 104
f 104 102 103
f 106 30 105
f 105 30 29
f 51 54 107
f 107 54 108
f 54 80 108
f 108 80 109
f 111 112 110
f 110 112 113
f 115 5 114
f 114 5 116
f 115 41 5
f 5 41 6
f 36 35 111
f 111 35 117
f 35 118 117
f 117 118 119
f 34 120 35
f 35 120 118
f 34 45 120
f 120 45 121
f 125 126 124
f 124 126 127
f 128 129 14
f 14 129 130
f 33 131 46
f 46 131 132
f 133 94 63
f 63 94 64
f 134 135 137
f 137 135 136
f 139 140 138
f 138 140 141
f 77 142 78
f 78 142 143
f 144 145 20
f 20 145 146
f 148 149 147
f 147 149 72
f 151 152 150
f 150 152 153
f 82 101 83
f 83 101 104
f 101 82 155
f 155 82 154
f 156 157 58
f 58 157 59
f 158 68 147
f 147 68 67
f 159 146 15
f 15 146 16
f 68 158 96
f 96 158 160
f 129 66 130
f 130 66 65
f 162 163 161
f 161 163 164
f 166 167 165
f 165 167 168
f 170 171 169
f 169 171 172
f 174 171 173
f 173 171 170
f 176 177 175
f 175 177 178
f 180 181 179
f 179 181 24
f 182 183 21
f 21 183 184
f 81 185 82
f 82 185 154
f 186 187 188
f 188 187 144
f 158 71 160
f 160 71 189
f 190 135 157
f 157 135 59
f 169 172 139
f 139 172 140
f 147 72 158
f 158 72 71
f 192 193 191
f 191 193 194
f 167 166 49
f 49 166 195
f 196 190 50
f 50 190 157
f 197 198 200
f 200 198 199
f 21 24 182
f 182 24 181
f 146 159 20
f 20 159 17
f 182 181 81
f 81 181 185
f 201 185 180
f 180 185 181
f 202 203 83
f 83 203 84
f 205 206 204
f 204 206 85
f 207 22 184
f 184 22 21
f 179 24 208
f 208 24 23
f 208 209 179
f 179 209 205
f 209 210 205
f 205 210 206
f 212 206 211
f 211 206 210
f 179 205 180
f 180 205 204
f 213 176 88
f 88 176 214
f 86 85 212
f 212 85 206
f 193 217 218
f 217 219 218
f 218 219 220
f 219 18 220
f 220 18 17
f 19 221 20
f 20 221 144
f 222 223 225
f 225 223 224
f 175 226 176
f 176 226 214
f 227 87 214
f 214 87 88
f 220 17 228
f 228 17 159
f 134 213 60
f 60 213 88
f 138 229 151
f 151 229 152
f 193 192 210
f 210 192 211
f 230 194 218
f 218 194 193
f 231 232 228
f 228 232 230
f 233 234 91
f 91 234 89
f 235 236 93
f 93 236 92
f 230 232 234
f 234 232 237
f 47 238 48
f 48 238 239
f 240 191 235
f 235 191 236
f 5 8 116
f 116 8 241
f 242 243 189
f 189 243 160
f 244 245 98
f 98 245 99
f 156 246 47
f 47 246 238
f 76 247 77
f 77 247 248
f 250 125 249
f 249 125 124
f 252 253 251
f 251 253 254
f 111 110 36
f 36 110 255
f 256 33 255
f 255 33 36
f 257 258 154
f 154 258 155
f 63 169 133
f 133 169 139
f 66 170 63
f 63 170 169
f 173 170 129
f 129 170 66
f 129 128 173
f 173 128 259
f 128 260 259
f 259 260 261
f 213 134 262
f 262 134 137
f 263 264 186
f 186 264 187
f 112 265 113
f 113 265 266
f 11 267 268
f 234 233 230
f 230 233 194
f 153 269 70
f 70 269 67
f 175 178 165
f 165 178 141
f 150 153 94
f 94 153 70
f 271 221 270
f 270 221 207
f 269 153 272
f 272 153 152
f 121 45 109
f 109 45 108
f 47 50 156
f 156 50 157
f 57 273 58
f 58 273 274
f 145 275 260
f 260 275 261
f 276 149 143
f 143 149 78
f 148 269 75
f 75 269 272
f 207 277 270
f 270 277 278
f 195 196 49
f 49 196 50
f 59 135 60
f 60 135 134
f 83 104 202
f 202 104 279
f 149 148 78
f 78 148 75
f 247 278 248
f 248 278 277
f 183 182 84
f 84 182 81
f 48 239 281
f 281 239 282
f 227 223 283
f 283 223 222
f 223 226 224
f 224 226 168
f 281 282 224
f 224 282 225
f 165 168 175
f 175 168 226
f 264 263 138
f 138 263 229
f 14 16 128
f 128 16 260
f 220 228 218
f 218 228 230
f 87 227 284
f 284 227 283
f 260 16 145
f 145 16 146
f 244 98 258
f 258 98 155
f 58 274 156
f 156 274 246
f 107 285 51
f 51 285 55
f 243 286 160
f 160 286 96
f 234 237 89
f 89 237 90
f 46 132 107
f 107 132 285
f 253 252 249
f 249 252 250
f 286 26 96
f 96 26 25
f 106 105 287
f 287 105 288
f 272 152 289
f 289 152 229
f 138 151 139
f 139 151 133
f 183 290 161
f 161 290 162
f 291 292 277
f 277 292 293
f 151 150 133
f 133 150 94
f 262 275 177
f 177 275 187
f 144 187 145
f 145 187 275
f 273 57 284
f 284 57 87
f 174 136 190
f 190 136 135
f 111 117 112
f 112 117 38
f 117 119 38
f 38 119 123
f 112 38 265
f 265 38 37
f 287 288 254
f 254 288 251
f 228 159 231
f 231 159 15
f 223 227 226
f 226 227 214
f 147 67 148
f 148 67 269
f 224 168 281
f 281 168 167
f 199 163 200
f 200 163 162
f 45 46 108
f 108 46 107
f 281 167 48
f 48 167 49
f 161 164 291
f 291 164 292
f 38 123 39
f 293 294 277
f 277 294 248
f 284 283 296
f 296 283 295
f 284 296 273
f 273 296 297
f 274 273 298
f 298 273 297
f 246 274 299
f 299 274 298
f 283 222 295
f 295 222 300
f 222 225 300
f 300 225 301
f 301 225 302
f 302 225 282
f 303 304 300
f 300 304 295
f 306 307 305
f 305 307 308
f 309 310 308
f 308 310 305
f 308 307 312
f 312 307 311
f 313 314 312
f 312 314 315
f 311 316 312
f 312 316 313
f 317 304 311
f 311 304 316
f 315 309 312
f 312 309 308
f 318 319 321
f 321 319 320
f 319 318 309
f 309 318 310
f 311 307 317
f 317 307 306
f 306 297 317
f 317 297 296
f 306 322 297
f 297 322 298
f 305 323 306
f 306 323 322
f 323 305 324
f 324 305 310
f 304 317 295
f 295 317 296
f 318 325 310
f 310 325 324
f 323 324 326
f 326 324 327
f 324 325 327
f 327 325 328
f 326 327 329
f 329 327 330
f 329 331 326
f 326 331 332
f 333 330 328
f 328 330 327
f 323 326 322
f 322 326 332
f 322 332 298
f 298 332 299
f 325 318 334
f 334 318 321
f 313 316 335
f 335 316 304
f 335 336 313
f 313 336 314
f 304 303 335
f 335 303 337
f 336 335 338
f 338 335 337
f 336 339 314
f 314 339 340
f 246 299 238
f 238 299 341
f 239 342 282
f 282 342 302
f 342 239 341
f 341 239 238
f 341 331 342
f 342 331 343
f 331 329 343
f 343 329 344
f 342 343 302
f 302 343 345
f 341 299 331
f 331 299 332
f 346 301 345
f 345 301 302
f 346 303 301
f 301 303 300
f 347 337 346
f 346 337 303
f 347 346 348
f 348 346 345
f 349 347 350
f 350 347 348
f 343 344 345
f 345 344 348
f 344 351 348
f 348 351 350
f 337 347 338
f 338 347 349
f 353 338 352
f 352 338 349
f 352 355 354
f 354 355 356
f 352 349 355
f 355 349 350
f 352 354 353
f 353 354 334
f 353 334 339
f 339 334 321
f 339 336 353
f 353 336 338
f 329 330 344
f 344 330 351
f 356 351 333
f 333 351 330
f 356 355 351
f 351 355 350
f 354 356 328
f 328 356 333
f 328 325 354
f 354 325 334
f 309 315 319
f 319 315 320
f 320 340 321
f 321 340 339
f 320 315 340
f 340 315 314
f 137 136 261
f 261 136 259
f 140 166 141
f 141 166 165
f 172 171 195
f 195 171 196
f 171 174 196
f 196 174 190
f 178 177 264
f 264 177 187
f 172 195 140
f 140 195 166
f 137 261 262
f 262 261 275
f 178 264 141
f 141 264 138
f 262 177 213
f 213 177 176
f 136 174 259
f 259 174 173
f 358 359 357
f 357 359 360
f 362 363 361
f 361 363 364
f 361 364 365
f 365 364 366
f 367 368 370
f 370 368 369
f 76 371 247
f 247 371 372
f 373 374 362
f 362 374 363
f 376 377 375
f 375 377 378
f 289 229 380
f 380 229 379
f 381 379 263
f 263 379 229
f 383 384 382
f 382 384 385
f 386 368 374
f 374 368 363
f 76 289 371
f 371 289 380
f 377 376 359
f 359 376 387
f 388 386 360
f 360 386 374
f 389 383 366
f 366 383 390
f 392 393 391
f 391 393 394
f 383 382 390
f 390 382 395
f 396 365 390
f 390 365 366
f 389 366 367
f 367 366 364
f 357 397 358
f 358 397 398
f 373 399 357
f 357 399 397
f 389 367 400
f 400 367 370
f 382 385 375
f 375 385 372
f 357 360 373
f 373 360 374
f 361 401 362
f 362 401 402
f 387 388 359
f 359 388 360
f 363 368 364
f 364 368 367
f 358 398 403
f 403 398 404
f 396 392 405
f 405 392 391
f 392 395 393
f 393 395 378
f 393 403 394
f 394 403 404
f 375 378 382
f 382 378 395
f 365 396 406
f 406 396 405
f 362 402 373
f 373 402 399
f 271 270 400
f 400 270 384
f 401 361 406
f 406 361 365
f 381 369 386
f 386 369 368
f 392 396 395
f 395 396 390
f 393 378 403
f 403 378 377
f 403 377 358
f 358 377 359
f 406 405 408
f 408 405 407
f 406 408 401
f 401 408 409
f 401 409 402
f 402 409 410
f 402 410 399
f 399 410 411
f 405 391 407
f 407 391 412
f 391 394 412
f 412 394 413
f 394 404 413
f 413 404 414
f 415 416 412
f 412 416 407
f 418 419 417
f 417 419 420
f 421 422 418
f 418 422 419
f 419 422 424
f 424 422 423
f 425 426 424
f 424 426 427
f 423 428 424
f 424 428 425
f 427 420 424
f 424 420 419
f 420 429 417
f 417 429 430
f 423 422 431
f 431 422 421
f 421 409 431
f 431 409 408
f 421 432 409
f 409 432 410
f 418 433 421
f 421 433 432
f 434 433 417
f 417 433 418
f 431 416 423
f 423 416 428
f 416 431 407
f 407 431 408
f 435 434 430
f 430 434 417
f 433 434 436
f 436 434 437
f 434 435 437
f 437 435 438
f 436 437 439
f 439 437 440
f 439 441 436
f 436 441 442
f 438 443 437
f 437 443 440
f 436 442 433
f 433 442 432
f 432 442 410
f 410 442 411
f 435 430 445
f 445 430 444
f 430 429 444
f 444 429 446
f 425 428 447
f 447 428 416
f 426 425 448
f 448 425 447
f 416 415 447
f 447 415 449
f 447 449 448
f 448 449 450
f 451 452 448
f 448 452 426
f 446 452 444
f 444 452 451
f 399 411 397
f 397 411 453
f 398 454 404
f 404 454 414
f 454 398 453
f 453 398 397
f 453 441 454
f 454 441 455
f 441 439 455
f 455 439 456
f 454 455 414
f 414 455 457
f 441 453 442
f 442 453 411
f 458 413 457
f 457 413 414
f 458 415 413
f 413 415 412
f 458 459 415
f 415 459 449
f 459 458 460
f 460 458 457
f 461 459 462
f 462 459 460
f 455 456 457
f 457 456 460
f 456 463 460
f 460 463 462
f 459 461 449
f 449 461 450
f 465 450 464
f 464 450 461
f 464 467 466
f 466 467 468
f 464 461 467
f 467 461 462
f 464 466 465
f 465 466 445
f 465 445 451
f 451 445 444
f 451 448 465
f 465 448 450
f 439 440 456
f 456 440 463
f 468 463 443
f 443 463 440
f 468 467 463
f 463 467 462
f 466 468 438
f 438 468 443
f 438 435 466
f 466 435 445
f 420 427 429
f 429 427 446
f 446 427 452
f 452 427 426
f 370 369 188
f 188 369 186
f 371 376 372
f 372 376 375
f 380 379 387
f 387 379 388
f 379 381 388
f 388 381 386
f 385 384 278
f 278 384 270
f 380 387 371
f 371 387 376
f 400 370 271
f 271 370 188
f 385 278 372
f 372 278 247
f 400 384 389
f 389 384 383
f 369 381 186
f 186 381 263
f 221 271 144
f 144 271 188
f 221 19 207
f 207 19 22
f 19 18 22
f 22 18 23
f 18 219 23
f 23 219 208
f 469 470 472
f 472 470 471
f 474 475 473
f 473 475 476
f 473 476 477
f 477 476 478
f 480 481 479
f 479 481 482
f 483 484 474
f 474 484 475
f 486 487 485
f 485 487 488
f 489 490 77
f 77 490 142
f 491 489 248
f 248 489 77
f 493 494 492
f 492 494 495
f 496 480 484
f 484 480 475
f 486 497 487
f 487 497 471
f 498 496 472
f 472 496 484
f 499 493 478
f 478 493 500
f 501 502 504
f 504 502 503
f 493 492 500
f 500 492 505
f 506 477 500
f 500 477 478
f 499 478 479
f 479 478 476
f 469 507 470
f 470 507 508
f 483 509 469
f 469 509 507
f 479 482 499
f 499 482 510
f 492 495 485
f 485 495 511
f 483 469 484
f 484 469 472
f 473 512 474
f 474 512 513
f 497 498 471
f 471 498 472
f 475 480 476
f 476 480 479
f 470 508 514
f 514 508 515
f 506 502 516
f 516 502 501
f 503 502 488
f 488 502 505
f 514 515 503
f 503 515 504
f 485 488 492
f 492 488 505
f 477 506 517
f 517 506 516
f 474 513 483
f 483 513 509
f 510 292 494
f 494 292 164
f 512 473 517
f 517 473 477
f 491 481 496
f 496 481 480
f 502 506 505
f 505 506 500
f 503 488 514
f 514 488 487
f 514 487 470
f 470 487 471
f 517 516 519
f 519 516 518
f 517 519 512
f 512 519 520
f 512 520 513
f 513 520 521
f 513 521 509
f 509 521 522
f 516 501 518
f 518 501 523
f 501 504 523
f 523 504 524
f 524 504 525
f 525 504 515
f 526 527 523
f 523 527 518
f 529 530 528
f 528 530 531
f 532 533 529
f 529 533 530
f 530 533 535
f 535 533 534
f 536 537 535
f 535 537 538
f 534 539 535
f 535 539 536
f 538 531 535
f 535 531 530
f 540 541 531
f 531 541 528
f 533 532 534
f 534 532 542
f 532 520 542
f 542 520 519
f 532 543 520
f 520 543 521
f 529 544 532
f 532 544 543
f 544 529 545
f 545 529 528
f 534 542 539
f 539 542 527
f 527 542 518
f 518 542 519
f 541 546 528
f 528 546 545
f 547 544 548
f 548 544 545
f 546 549 545
f 545 549 548
f 550 547 551
f 551 547 548
f 547 550 553
f 553 550 552
f 549 554 548
f 548 554 551
f 544 547 543
f 543 547 553
f 543 553 521
f 521 553 522
f 546 541 556
f 556 541 555
f 541 540 555
f 555 540 557
f 536 539 558
f 558 539 527
f 537 536 559
f 559 536 558
f 527 526 558
f 558 526 560
f 559 558 561
f 561 558 560
f 559 562 537
f 537 562 563
f 557 563 555
f 555 563 562
f 509 522 507
f 507 522 564
f 508 565 515
f 515 565 525
f 565 508 564
f 564 508 507
f 564 552 565
f 565 552 566
f 552 550 566
f 566 550 567
f 565 566 525
f 525 566 568
f 564 522 552
f 552 522 553
f 569 524 568
f 568 524 525
f 569 526 524
f 524 526 523
f 570 560 569
f 569 560 526
f 570 569 571
f 571 569 568
f 572 570 573
f 573 570 571
f 566 567 568
f 568 567 571
f 567 574 571
f 571 574 573
f 570 572 560
f 560 572 561
f 576 561 575
f 575 561 572
f 575 578 577
f 577 578 579
f 575 572 578
f 578 572 573
f 575 577 576
f 576 577 556
f 576 556 562
f 562 556 555
f 562 559 576
f 576 559 561
f 550 551 567
f 567 551 574
f 579 574 554
f 554 574 551
f 579 578 574
f 574 578 573
f 579 554 577
f 577 554 549
f 549 546 577
f 577 546 556
f 531 538 540
f 540 538 557
f 557 538 563
f 563 538 537
f 481 294 482
f 482 294 293
f 580 486 511
f 511 486 485
f 490 489 497
f 497 489 498
f 489 491 498
f 498 491 496
f 163 495 164
f 164 495 494
f 580 490 486
f 486 490 497
f 482 293 510
f 510 293 292
f 495 163 511
f 511 163 199
f 494 493 510
f 510 493 499
f 481 491 294
f 294 491 248
f 582 583 581
f 581 583 584
f 586 587 585
f 585 587 588
f 585 588 589
f 589 588 590
f 592 593 591
f 591 593 594
f 595 596 598
f 598 596 597
f 599 600 586
f 586 600 587
f 601 602 604
f 604 602 603
f 605 606 608
f 608 606 607
f 609 607 200
f 200 607 606
f 610 611 613
f 613 611 612
f 600 614 587
f 587 614 592
f 596 605 597
f 597 605 608
f 602 615 603
f 603 615 583
f 616 614 584
f 584 614 600
f 611 618 617
f 617 618 590
f 620 621 619
f 619 621 622
f 610 623 611
f 611 623 618
f 624 589 618
f 618 589 590
f 617 590 591
f 591 590 588
f 581 625 582
f 582 625 626
f 599 627 581
f 581 627 625
f 591 594 617
f 617 594 628
f 601 610 598
f 598 610 613
f 581 584 599
f 599 584 600
f 585 629 586
f 586 629 630
f 615 616 583
f 583 616 584
f 587 592 588
f 588 592 591
f 582 626 631
f 631 626 632
f 624 620 633
f 633 620 619
f 621 620 604
f 604 620 623
f 631 632 621
f 621 632 622
f 610 601 623
f 623 601 604
f 589 624 634
f 634 624 633
f 586 630 599
f 599 630 627
f 203 202 628
f 628 202 612
f 629 585 634
f 634 585 589
f 609 593 614
f 614 593 592
f 620 624 623
f 623 624 618
f 631 621 603
f 603 621 604
f 582 631 583
f 583 631 603
f 634 633 636
f 636 633 635
f 634 636 629
f 629 636 637
f 629 637 630
f 630 637 638
f 630 638 627
f 627 638 639
f 633 619 635
f 635 619 640
f 619 622 640
f 640 622 641
f 641 622 642
f 642 622 632
f 644 635 643
f 643 635 640
f 645 646 648
f 648 646 647
f 649 650 646
f 646 650 647
f 647 650 652
f 652 650 651
f 652 653 655
f 655 653 654
f 651 656 652
f 652 656 653
f 655 648 652
f 652 648 647
f 648 657 645
f 645 657 658
f 650 649 651
f 651 649 659
f 649 637 659
f 659 637 636
f 649 660 637
f 637 660 638
f 661 660 646
f 646 660 649
f 662 661 645
f 645 661 646
f 651 659 656
f 656 659 644
f 644 659 635
f 635 659 636
f 663 662 658
f 658 662 645
f 664 661 665
f 665 661 662
f 663 666 662
f 662 666 665
f 667 664 668
f 668 664 665
f 664 667 670
f 670 667 669
f 666 671 665
f 665 671 668
f 661 664 660
f 660 664 670
f 660 670 638
f 638 670 639
f 658 672 663
f 663 672 673
f 658 657 672
f 672 657 674
f 653 656 675
f 675 656 644
f 653 675 654
f 654 675 676
f 675 644 677
f 677 644 643
f 676 675 678
f 678 675 677
f 679 680 676
f 676 680 654
f 674 680 672
f 672 680 679
f 627 639 625
f 625 639 681
f 626 682 632
f 632 682 642
f 681 682 625
f 625 682 626
f 669 683 681
f 681 683 682
f 667 684 669
f 669 684 683
f 682 683 642
f 642 683 685
f 681 639 669
f 669 639 670
f 686 641 685
f 685 641 642
f 641 686 640
f 640 686 643
f 686 687 643
f 643 687 677
f 687 686 688
f 688 686 685
f 689 687 690
f 690 687 688
f 683 684 685
f 685 684 688
f 684 691 688
f 688 691 690
f 687 689 677
f 677 689 678
f 693 678 692
f 692 678 689
f 692 695 694
f 694 695 696
f 692 689 695
f 695 689 690
f 692 694 693
f 693 694 673
f 693 673 679
f 679 673 672
f 679 676 693
f 693 676 678
f 684 667 691
f 691 667 668
f 696 691 671
f 671 691 668
f 696 695 691
f 691 695 690
f 694 696 666
f 666 696 671
f 666 663 694
f 694 663 673
f 648 655 657
f 657 655 674
f 674 655 680
f 680 655 654
f 593 162 594
f 594 162 290
f 598 597 601
f 601 597 602
f 615 608 616
f 616 608 607
f 607 609 616
f 616 609 614
f 697 595 613
f 613 595 598
f 597 608 602
f 602 608 615
f 594 290 628
f 628 290 203
f 628 612 617
f 617 612 611
f 593 609 162
f 162 609 200
f 105 29 698
f 698 29 699
f 268 126 701
f 701 126 700
f 126 125 700
f 700 125 702
f 252 703 250
f 250 703 704
f 32 268 705
f 705 268 701
f 288 105 706
f 706 105 698
f 29 32 699
f 699 32 705
f 707 251 706
f 706 251 288
f 250 704 125
f 125 704 702
f 703 252 707
f 707 252 251
f 706 708 707
f 707 708 709
f 707 709 703
f 703 709 710
f 703 710 704
f 704 710 711
f 704 711 702
f 702 711 712
f 706 698 708
f 708 698 713
f 698 699 713
f 713 699 714
f 699 705 714
f 714 705 715
f 717 708 716
f 716 708 713
f 719 720 718
f 718 720 721
f 722 723 719
f 719 723 720
f 724 725 723
f 723 725 720
f 724 726 725
f 725 726 727
f 728 721 725
f 725 721 720
f 721 728 729
f 729 728 730
f 729 731 721
f 721 731 718
f 724 723 732
f 732 723 722
f 722 710 732
f 732 710 709
f 722 733 710
f 710 733 711
f 719 734 722
f 722 734 733
f 734 719 735
f 735 719 718
f 724 732 726
f 726 732 717
f 717 732 708
f 708 732 709
f 731 736 718
f 718 736 735
f 737 734 738
f 738 734 735
f 736 739 735
f 735 739 738
f 740 737 741
f 741 737 738
f 737 740 743
f 743 740 742
f 739 744 738
f 738 744 741
f 734 737 733
f 733 737 743
f 733 743 711
f 711 743 712
f 736 731 746
f 746 731 745
f 731 729 745
f 745 729 730
f 727 726 747
f 747 726 717
f 748 727 749
f 749 727 747
f 747 717 750
f 750 717 716
f 749 747 751
f 751 747 750
f 749 752 748
f 748 752 753
f 730 753 745
f 745 753 752
f 728 725 748
f 748 725 727
f 730 728 753
f 753 728 748
f 700 702 754
f 754 702 712
f 705 701 715
f 715 701 755
f 754 755 700
f 700 755 701
f 742 756 754
f 754 756 755
f 740 757 742
f 742 757 756
f 755 756 715
f 715 756 758
f 754 712 742
f 742 712 743
f 759 714 758
f 758 714 715
f 714 759 713
f 713 759 716
f 759 760 716
f 716 760 750
f 760 759 761
f 761 759 758
f 762 760 763
f 763 760 761
f 756 757 758
f 758 757 761
f 757 764 761
f 761 764 763
f 760 762 750
f 750 762 751
f 766 751 765
f 765 751 762
f 767 765 769
f 769 765 768
f 765 762 768
f 768 762 763
f 765 767 766
f 766 767 746
f 766 746 752
f 752 746 745
f 752 749 766
f 766 749 751
f 757 740 764
f 764 740 741
f 769 764 744
f 744 764 741
f 769 768 764
f 764 768 763
f 767 769 739
f 739 769 744
f 739 736 767
f 767 736 746
f 219 217 208
f 208 217 209
f 209 217 210
f 210 217 193
f 198 580 199
f 199 580 511
f 76 75 289
f 289 75 272
f 277 207 291
f 291 207 184
f 290 183 203
f 203 183 84
f 490 580 142
f 142 580 198
f 142 198 143
f 143 198 197
f 149 276 72
f 72 276 73
f 104 103 279
f 279 103 770
f 770 596 279
f 279 596 595
f 605 596 771
f 771 596 770
f 771 770 772
f 772 770 103
f 772 103 773
f 773 103 102
f 155 774 101
f 101 774 102
f 773 102 97
f 97 102 774
f 775 773 100
f 100 773 97
f 773 775 772
f 772 775 776
f 772 776 771
f 771 776 777
f 200 606 197
f 197 606 777
f 189 71 778
f 778 71 74
f 97 774 98
f 98 774 155
f 183 161 184
f 184 161 291
f 777 276 197
f 197 276 143
f 777 606 771
f 771 606 605
f 613 612 697
f 697 612 202
f 595 697 279
f 279 697 202
f 73 276 776
f 776 276 777
f 776 775 73
f 73 775 74
f 100 778 775
f 775 778 74
f 778 100 189
f 189 100 99
f 245 242 99
f 99 242 189
f 131 33 256
f 28 1 95
f 95 1 62
f 27 2 28
f 28 2 1
f 265 115 266
f 266 115 114
f 95 62 69
f 69 62 64
f 62 61 64
f 64 61 65
f 61 13 65
f 65 13 130
f 13 12 130
f 130 12 14
f 31 11 32
f 32 11 268
f 15 12 31
f 31 12 11
f 31 30 15
f 15 30 231
f 30 106 231
f 231 106 232
f 287 237 106
f 106 237 232
f 254 90 287
f 287 90 237
f 253 44 254
f 254 44 90
f 253 249 44
f 44 249 7
f 267 127 268
f 268 127 126
f 10 3 241
f 241 3 116
f 3 2 116
f 116 2 114
f 2 27 114
f 114 27 266
f 27 26 266
f 266 26 113
f 26 286 113
f 113 286 110
f 286 243 110
f 110 243 255
f 243 242 255
f 255 242 256
f 242 245 256
f 256 245 131
f 245 244 131
f 131 244 132
f 265 37 115
f 115 37 41
f 41 37 42
f 42 37 40
f 92 91 40
f 40 91 42
f 236 233 92
f 92 233 91
f 191 194 236
f 236 194 233
f 258 285 244
f 244 285 132
f 257 55 258
f 258 55 285
f 257 154 201
f 201 154 185
f 56 201 204
f 204 201 180
f 55 257 56
f 56 257 201
f 204 85 56
f 56 85 52
f 86 122 53
f 53 122 79
f 212 215 86
f 86 215 122
f 211 216 212
f 212 216 215
f 192 280 211
f 211 280 216
f 191 240 192
f 192 240 280
f 249 124 7
f 7 124 8
f 124 127 8
f 8 127 241
f 127 267 241
f 241 267 10
f 10 267 9
f 9 267 11
