v -0.010307710617780685 0.06053101271390915 0.8843621015548706
v 0.002540145069360733 0.05651451274752617 0.8837004899978638
v -0.003983672708272934 0.0514247789978981 0.8887819647789001
v -0.015295971184968948 0.05629818141460419 0.8899615406990051
v 0.012972276657819748 0.04810984805226326 0.9014571905136108
v 0.015935223549604416 0.05338296294212341 0.9116438031196594
v -0.0003404393792152405 0.04969826340675354 0.9122220277786255
v 0.0010490603744983673 0.045208461582660675 0.9027444124221802
v -0.02007323130965233 0.055672816932201385 0.8934629559516907
v -0.010465037077665329 0.04904463142156601 0.8919846415519714
v -0.021827921271324158 0.06028449535369873 0.8936018943786621
v -0.030341962352395058 0.06997358053922653 0.8989962935447693
v -0.02931073121726513 0.06365926563739777 0.8974608778953552
v -0.037697285413742065 0.07451058179140091 0.9002717733383179
v -0.02489256113767624 0.07963383942842484 0.8998417854309082
v -0.03568083792924881 0.0829351469874382 0.8966362476348877
v -0.016327790915966034 0.09476218372583389 0.8816138505935669
v -0.012774955481290817 0.09568527340888977 0.8694169521331787
v -0.028281230479478836 0.09348920732736588 0.8681406378746033
v -0.030351337045431137 0.09210959821939468 0.8807478547096252
v -0.017958462238311768 0.09023988246917725 0.8510005474090576
v -0.024653360247612 0.09215427935123444 0.8602471351623535
v -0.00894443690776825 0.09540966153144836 0.8615321516990662
v -0.0037362240254878998 0.09326869994401932 0.853112518787384
v -0.003164108842611313 0.06533186137676239 0.8729086518287659
v 0.008357267826795578 0.06362598389387131 0.8719927072525024
v 0.006966989487409592 0.06198538467288017 0.876340925693512
v -0.004786942154169083 0.06420763581991196 0.877346396446228
v -0.024720046669244766 0.06063302606344223 0.8979066610336304
v -0.018301572650671005 0.07087744027376175 0.9036456942558289
v -0.021878618746995926 0.06750544160604477 0.898247241973877
v -0.023556817322969437 0.05686904489994049 0.8941731452941895
v 0.033714909106492996 0.05722729116678238 0.863901674747467
v 0.04555511847138405 0.0630524754524231 0.866169810295105
v 0.04491232708096504 0.06358680874109268 0.8721004128456116
v 0.034353841096162796 0.058515772223472595 0.8688310980796814
v 0.03666119650006294 0.0600830540060997 0.8971183896064758
v 0.04396546259522438 0.06615765392780304 0.8914043307304382
v 0.047760818153619766 0.07512710988521576 0.900291383266449
v 0.03849184885621071 0.07261540740728378 0.9049925208091736
v 0.026974286884069443 0.05523625388741493 0.9059938192367554
v 0.02845536544919014 0.06623353809118271 0.9119481444358826
v 0.013813477009534836 0.06340381503105164 0.9174172878265381
v -0.004252448678016663 0.056746676564216614 0.9173469543457031
v 0.04700722172856331 0.06496316194534302 0.8536130785942078
v 0.03867421671748161 0.06046183779835701 0.8501497507095337
v -0.08382297307252884 0.09845346957445145 0.8892401456832886
v -0.08326037228107452 0.0983554944396019 0.8834609389305115
v -0.0807015597820282 0.09184807538986206 0.8856804966926575
v -0.08123861253261566 0.09347556531429291 0.89093416929245
v 0.0403418131172657 0.07914254069328308 0.8411514163017273
v 0.03890756890177727 0.08907787501811981 0.8420028686523438
v 0.04605768248438835 0.08799028396606445 0.8417803049087524
v 0.04761006310582161 0.0788048505783081 0.8428541421890259
v 0.030683699995279312 0.079417385160923 0.8390523791313171
v 0.02889905497431755 0.08990940451622009 0.8428542613983154
v -0.07463307678699493 0.10525116324424744 0.893549919128418
v -0.07903935015201569 0.10297644138336182 0.8946021199226379
v -0.07543858885765076 0.09917864203453064 0.8957403302192688
v -0.07072269916534424 0.10108336061239243 0.8935571908950806
v -0.026018433272838593 0.06095196679234505 0.8933651447296143
v -0.021169178187847137 0.06172823905944824 0.8861804008483887
v -0.04942186921834946 0.06544909626245499 0.8936150670051575
v -0.03606688231229782 0.0636882409453392 0.8893965482711792
v -0.036476537585258484 0.06411715596914291 0.8963619470596313
v -0.0468786284327507 0.06728989630937576 0.8992180228233337
v -0.025783218443393707 0.06609021127223969 0.86799156665802
v -0.01403762772679329 0.0664309412240982 0.8692540526390076
v -0.01695609837770462 0.0661887377500534 0.8749199509620667
v -0.030224351212382317 0.06517450511455536 0.8753660917282104
v -0.00972575694322586 0.06364680826663971 0.8561084270477295
v -0.021668288856744766 0.06391150504350662 0.8559138178825378
v -0.017958592623472214 0.06219545751810074 0.8484637141227722
v -0.010002575814723969 0.061465784907341 0.8499489426612854
v -0.04459134116768837 0.0655779168009758 0.8582876324653625
v -0.05287551507353783 0.06961976736783981 0.8576588034629822
v -0.05270218104124069 0.07153391093015671 0.8529554605484009
v -0.043251678347587585 0.06637212634086609 0.8543804287910461
v 0.053087275475263596 0.08800362795591354 0.8420254588127136
v 0.054357271641492844 0.0788799524307251 0.8453841209411621
v -0.008899126201868057 0.08343642950057983 0.8332388401031494
v -0.0028239041566848755 0.07584916800260544 0.828247606754303
v -0.014848712831735611 0.0736466497182846 0.8240700960159302
v -0.017550602555274963 0.08208673447370529 0.8306565284729004
v 0.03576665744185448 0.09670798480510712 0.8482731580734253
v 0.04323523864150047 0.09666977822780609 0.8459768891334534
v -0.07070598751306534 0.10690385848283768 0.8890179395675659
v -0.06769721955060959 0.10255435854196548 0.8884540796279907
v 0.013341251760721207 0.07502158731222153 0.9153234958648682
v -0.006751302629709244 0.06576947122812271 0.9167379140853882
v 0.028482060879468918 0.08006352186203003 0.9099519848823547
v 0.037995997816324234 0.08421546965837479 0.9045072793960571
v 0.04665759578347206 0.08661843091249466 0.9022887349128723
v -0.04018499702215195 0.06345002353191376 0.8836544156074524
v -0.014966912567615509 0.06421120464801788 0.8800064921379089
v -0.0016365014016628265 0.06522262096405029 0.8684186339378357
v 0.003151506185531616 0.05739452317357063 0.8392848968505859
v 0.013660509139299393 0.05709683895111084 0.841001570224762
v 0.007945794612169266 0.05694015324115753 0.8499274253845215
v -9.159743785858154e-05 0.05789489299058914 0.8465116024017334
v -0.002268310636281967 0.06618572771549225 0.8272746801376343
v -0.005167003720998764 0.06024942174553871 0.8316455483436584
v -0.014653656631708145 0.06028880923986435 0.8296658396720886
v -0.013079922646284103 0.06534978747367859 0.8247512578964233
v -0.025874290615320206 0.06182163581252098 0.9046633839607239
v -0.014478031545877457 0.07323583960533142 0.9085767269134521
v 0.04109116271138191 0.06906992942094803 0.8439432978630066
v 0.04773280397057533 0.06996748596429825 0.8477425575256348
v 0.055351678282022476 0.07268669456243515 0.8499481678009033
v 0.021499108523130417 0.059550270438194275 0.8696821928024292
v 0.034914638847112656 0.059209808707237244 0.8725491762161255
v 0.03418536111712456 0.05854488164186478 0.8777998089790344
v 0.021427538245916367 0.05987894907593727 0.8728426694869995
v 0.014945868402719498 0.051685038954019547 0.8873662352561951
v 0.025167573243379593 0.0516413152217865 0.8938426971435547
v 0.005555730313062668 0.046750083565711975 0.891905665397644
v 0.04573335126042366 0.06460953503847122 0.8806447386741638
v 0.05460907146334648 0.0657333955168724 0.8739643096923828
v 0.0541093535721302 0.06745816767215729 0.8828099370002747
v 0.055546727031469345 0.06645553559064865 0.8642494678497314
v 0.055844929069280624 0.06860558688640594 0.8556241393089294
v 0.051041293889284134 0.09951364994049072 0.8443804979324341
v 0.05251846835017204 0.07055211812257767 0.8905899524688721
v -0.0072526149451732635 0.04375173896551132 0.9019686579704285
v -0.014822728931903839 0.04160049557685852 0.899939775466919
v -0.015982218086719513 0.04496157541871071 0.8928725123405457
v -0.009238924831151962 0.046150900423526764 0.8938096165657043
v -0.04625532031059265 0.07998600602149963 0.9004395008087158
v -0.047653816640377045 0.07274476438760757 0.9016972780227661
v -0.03629901260137558 0.06778207421302795 0.9009849429130554
v 0.024100739508867264 0.05614077299833298 0.8575122952461243
v 0.028849635273218155 0.05863359570503235 0.8461902141571045
v -0.05292065441608429 0.06688234210014343 0.8876606822013855
v -0.0662531852722168 0.10102242231369019 0.8929694890975952
v -0.07005903124809265 0.0979350134730339 0.896282434463501
v -0.05698905140161514 0.09019822627305984 0.8984479308128357
v -0.05448092147707939 0.09447836875915527 0.894396185874939
v -0.05971659719944 0.07648561149835587 0.8818676471710205
v -0.058442194014787674 0.07249043881893158 0.8870222568511963
v -0.061023712158203125 0.07671669870615005 0.8859632015228271
v -0.06200863793492317 0.08038970082998276 0.8809090256690979
v -0.04725700616836548 0.06943938136100769 0.845841646194458
v -0.03910822793841362 0.06513374298810959 0.8470274806022644
v -0.04516873508691788 0.08677148818969727 0.8792984485626221
v -0.04128411412239075 0.08849332481622696 0.8905987739562988
v -0.03203030675649643 0.08972349017858505 0.8895500302314758
v -0.022641360759735107 0.06530049443244934 0.861274778842926
v -0.033497780561447144 0.06473182141780853 0.859258770942688
v -0.03235853463411331 0.06449489295482635 0.855222225189209
v -0.04374914988875389 0.06448303163051605 0.8801229000091553
v -0.0536724328994751 0.06769754737615585 0.8815440535545349
v -0.049315936863422394 0.06662669777870178 0.8764687180519104
v -0.03995474427938461 0.0653015747666359 0.8751146793365479
v 0.009516429156064987 0.07828487455844879 0.8315697908401489
v 0.010399308055639267 0.06686083227396011 0.8300192952156067
v -0.08230236172676086 0.10030215978622437 0.893208920955658
v -0.07902492582798004 0.09593017399311066 0.8946920037269592
v -0.011203430593013763 0.06566031277179718 0.8626565933227539
v -0.01921619474887848 0.0907110869884491 0.8898455500602722
v 0.0001547001302242279 0.06445543467998505 0.8633853197097778
v -0.03251038119196892 0.08138836920261383 0.8406855463981628
v -0.03386042267084122 0.07646588981151581 0.8367610573768616
v -0.03925773501396179 0.07743246108293533 0.8385912775993347
v -0.03780342638492584 0.08249861747026443 0.8407353758811951
v -0.0716637521982193 0.09117883443832397 0.8772696852684021
v -0.07527761161327362 0.08885695040225983 0.8812153339385986
v -0.07872872799634933 0.09229011833667755 0.8796796798706055
v -0.07471048831939697 0.094489686191082 0.8764568567276001
v -0.05741338059306145 0.07227347791194916 0.8928263187408447
v -0.05516931787133217 0.0736282467842102 0.8987565636634827
v -0.06112051010131836 0.079170823097229 0.8964689373970032
v -0.06170383468270302 0.07747693359851837 0.8909972906112671
v -0.05424859747290611 0.07985702902078629 0.9007748365402222
v -0.059240639209747314 0.08445172011852264 0.8991901874542236
v -0.06671939790248871 0.0956135168671608 0.8774124383926392
v -0.06258168816566467 0.10038414597511292 0.8819825649261475
v -0.05432411655783653 0.09330335259437561 0.8818672299385071
v -0.05973602458834648 0.08776284009218216 0.8795603513717651
v 0.010381650179624557 0.09656457602977753 0.8555529117584229
v 0.014117833226919174 0.0926920473575592 0.8459469079971313
v 0.00011336803436279297 0.08938764035701752 0.8432070016860962
v -0.013130959123373032 0.08674447238445282 0.8401091694831848
v -0.025449611246585846 0.08283808827400208 0.8384132981300354
v -0.02918819896876812 0.08787687122821808 0.8488736152648926
v 0.004039734601974487 0.08626071363687515 0.8369932174682617
v -0.056905291974544525 0.08126728236675262 0.8770937919616699
v -0.04994474723935127 0.08629097044467926 0.8829496502876282
v -0.051901526749134064 0.08462265133857727 0.8782529234886169
v 0.0017170384526252747 0.06172560900449753 0.8566915988922119
v -0.07307634502649307 0.0944453626871109 0.8963328003883362
v 0.03596639260649681 0.10058099031448364 0.8904626965522766
v 0.03632203862071037 0.10435608774423599 0.8779047131538391
v 0.02790122851729393 0.1023702621459961 0.8795288801193237
v 0.02708926424384117 0.0976530909538269 0.8931002616882324
v -0.07671408355236053 0.08806709945201874 0.8879087567329407
v -0.07618557661771774 0.09031015634536743 0.8934295773506165
v -0.03771904110908508 0.06507530808448792 0.8406954407691956
v -0.04408350586891174 0.06967080384492874 0.8410220742225647
v -0.04343016818165779 0.07217855006456375 0.8383663892745972
v -0.03813359886407852 0.06672541797161102 0.8358268737792969
v 0.017333168536424637 0.09014628827571869 0.8417909145355225
v -0.02322731912136078 0.07170990109443665 0.8220165371894836
v -0.02409602329134941 0.07972416281700134 0.8270277380943298
v 0.026402104645967484 0.09563344717025757 0.8487569689750671
v 0.023226890712976456 0.09959964454174042 0.8570106625556946
v 0.032669540494680405 0.10161012411117554 0.8574889898300171
v -0.040619269013404846 0.0879056453704834 0.8595864772796631
v 0.0057276226580142975 0.09811210632324219 0.8626317381858826
v 0.01978353038430214 0.10055436193943024 0.8637338280677795
v 0.03094150498509407 0.10296601057052612 0.8646228313446045
v 0.03894558176398277 0.1051965206861496 0.8645220994949341
v 0.040074560791254044 0.10326459258794785 0.8567224740982056
v -0.06361665576696396 0.10142861306667328 0.8872503638267517
v -0.0663338452577591 0.10195900499820709 0.8825070858001709
v 0.048353854566812515 0.10663094371557236 0.8552855253219604
v 0.0468536876142025 0.108034148812294 0.8642932772636414
v 0.016636792570352554 0.10078201442956924 0.872377872467041
v 0.01309596374630928 0.09980970621109009 0.8824645280838013
v 0.0031695738434791565 0.09826541692018509 0.8708546757698059
v -0.0013997480273246765 0.09714969992637634 0.8808107972145081
v -0.03894231468439102 0.09138327091932297 0.8692013621330261
v -0.07597450166940689 0.11571048200130463 0.8780876398086548
v -0.07119034975767136 0.10516644269227982 0.8780876398086548
v -0.07568590342998505 0.10202018916606903 0.8758873343467712
v -0.07797669619321823 0.11283856630325317 0.875133752822876
v -0.06994587182998657 0.09807849675416946 0.8775683045387268
v -0.06882685422897339 0.10685445368289948 0.8830036520957947
v -0.0046098604798316956 0.09202350676059723 0.8919016122817993
v -0.05887598544359207 0.07208989560604095 0.875852644443512
v 0.010767381638288498 0.09258801490068436 0.8960763216018677
v -0.01331489160656929 0.08404745161533356 0.9017429947853088
v -0.0024545155465602875 0.08303497731685638 0.9053391218185425
v 0.026411283761262894 0.09156207740306854 0.9030729532241821
v 0.011742819100618362 0.08483380824327469 0.9092332124710083
v 0.04453926160931587 0.09577050805091858 0.8979112505912781
v 0.035492267459630966 0.09419255703687668 0.8995181918144226
v -0.003358110785484314 0.07632586359977722 0.9125353097915649
v -0.08858399093151093 0.10666518658399582 0.8825880885124207
v -0.08586306124925613 0.10612514615058899 0.8775731921195984
v 0.04405558481812477 0.10289052128791809 0.8895419836044312
v -0.00315069779753685 0.04555823653936386 0.8936303853988647
v 0.012018579989671707 0.05987633764743805 0.8599734306335449
v 0.010505016893148422 0.06204484403133392 0.864780068397522
v 0.01979757472872734 0.05746805667877197 0.8427696824073792
v 0.015072096139192581 0.05666603893041611 0.8534059524536133
v -0.0883537083864212 0.10870014876127243 0.8874414563179016
v -0.054242610931396484 0.07566516101360321 0.8565372824668884
v -0.0534062422811985 0.07667186111211777 0.8544635772705078
v -0.00892433151602745 0.045512426644563675 0.9104247689247131
v -0.015690430998802185 0.04243842884898186 0.9075573682785034
v -0.024226687848567963 0.05154801905155182 0.9117050766944885
v -0.020217441022396088 0.0456261970102787 0.9119649529457092
v -0.01313852146267891 0.05107244476675987 0.9151620268821716
v -0.016815215349197388 0.057825714349746704 0.9147024750709534
v 0.02130908891558647 0.05891060456633568 0.8670253157615662
v 0.0215408094227314 0.05797291919589043 0.8631912469863892
v 0.0208449549973011 0.07869178801774979 0.8352782726287842
v 0.021035518497228622 0.06728186458349228 0.834053099155426
v -0.05180056020617485 0.08515745401382446 0.899314820766449
v -0.04411544278264046 0.08582746237516403 0.8968411684036255
v -0.04913971945643425 0.0898297056555748 0.895047128200531
v -0.05209668353199959 0.09506800770759583 0.8882765173912048
v -0.06061987578868866 0.07823627442121506 0.8753917217254639
v -0.05664443224668503 0.08185045421123505 0.8805730938911438
v 0.030083265155553818 0.05516409873962402 0.8845432996749878
v 0.01963578537106514 0.05724727362394333 0.879106879234314
v -0.01447657123208046 0.05011437088251114 0.8920345902442932
v -0.01966669037938118 0.05065355449914932 0.8907504081726074
v -0.03537795692682266 0.0653134286403656 0.8682820796966553
v -0.046889595687389374 0.08704095333814621 0.8616284132003784
v -0.04618152230978012 0.0905500277876854 0.8694254159927368
v -0.04590817913413048 0.06621219217777252 0.8680264353752136
v -0.08316391706466675 0.1149512454867363 0.8896118998527527
v -0.08684775233268738 0.11140885949134827 0.8893601298332214
v -0.04783026874065399 0.09064330160617828 0.889349639415741
v -0.029268281534314156 0.06225019320845604 0.8476805686950684
v -0.04344695061445236 0.08416556566953659 0.8567993640899658
v -0.04966617375612259 0.08181598782539368 0.8579961061477661
v -0.019979599863290787 0.06438543647527695 0.8236922025680542
v 0.04495767876505852 0.10637666285037994 0.8774837851524353
v -0.08051774650812149 0.0998385101556778 0.8777311444282532
v -0.08215253055095673 0.10756434500217438 0.8743607401847839
v -0.07496681064367294 0.11724403500556946 0.8819382190704346
v -0.07713806629180908 0.1168222576379776 0.8871978521347046
v 0.03036288544535637 0.06735605746507645 0.8393793106079102
v 0.009222362190485 0.06322707235813141 0.8678577542304993
v -0.01622721180319786 0.06782940030097961 0.9116888046264648
v -0.02602699026465416 0.05816341191530228 0.9084937572479248
v -0.05448967590928078 0.06878470629453659 0.8671537041664124
v -0.028651488944888115 0.07978533208370209 0.8336581587791443
v -0.03601137548685074 0.08693352341651917 0.8477969765663147
v -0.039668262004852295 0.0882021114230156 0.8469901084899902
v -0.045303914695978165 0.08819660544395447 0.8512819409370422
v -0.05199895799160004 0.08461162447929382 0.852220892906189
v -0.0777536928653717 0.12064291536808014 0.8791714906692505
v -0.08110411465167999 0.12160766124725342 0.8839042782783508
v -0.08668867498636246 0.12044994533061981 0.8846803307533264
v -0.09032393991947174 0.11637268960475922 0.8847492933273315
v -0.09095801413059235 0.11163493990898132 0.8835724592208862
v -0.07852430641651154 0.11849406361579895 0.8755860924720764
v -0.0799577608704567 0.11547774076461792 0.8735305666923523
v -0.08338049799203873 0.10976295173168182 0.8738446235656738
v -0.07864895462989807 0.11967626959085464 0.8721479773521423
v -0.07932966947555542 0.12403720617294312 0.8736763596534729
v -0.0910610556602478 0.12855903804302216 0.8736819624900818
v -0.08780528604984283 0.12652644515037537 0.8778945207595825
v -0.0870659276843071 0.12779802083969116 0.875911295413971
v -0.08888660371303558 0.13027425110340118 0.8722653388977051
v -0.08929853141307831 0.13326182961463928 0.868373692035675
v -0.0922321081161499 0.1315375715494156 0.869352400302887
v -0.0830342024564743 0.12597540020942688 0.8762865662574768
v -0.0847097858786583 0.12943735718727112 0.8712802529335022
v -0.08154706656932831 0.12785948812961578 0.8690606951713562
v -0.08243395388126373 0.13158932328224182 0.8654646873474121
v -0.08537226915359497 0.13334576785564423 0.8673591017723083
v -0.08071470260620117 0.1257254034280777 0.8727359771728516
v -0.08245566487312317 0.12542037665843964 0.87786865234375
v -0.09103184938430786 0.13336181640625 0.8655691742897034
v -0.08899417519569397 0.13473662734031677 0.8660497069358826
v -0.0859789252281189 0.13448840379714966 0.8648089170455933
v -0.08743374049663544 0.13394974172115326 0.8622884750366211
v -0.09119351208209991 0.12134446948766708 0.8799049854278564
v -0.09264276921749115 0.12673315405845642 0.8732650876045227
v -0.0928780734539032 0.1289462447166443 0.8679403066635132
v -0.09160703420639038 0.13097423315048218 0.8643179535865784
v -0.09298546612262726 0.12398847937583923 0.8705300092697144
v -0.09238302707672119 0.1264990270137787 0.8665149807929993
v -0.09110070765018463 0.12795478105545044 0.8631027936935425
v -0.09170903265476227 0.1213669627904892 0.8675680160522461
v -0.09107188880443573 0.12441530078649521 0.8645802736282349
v -0.09115362167358398 0.11248011887073517 0.877454936504364
v -0.09184462577104568 0.11574418097734451 0.8798714876174927
v -0.09078661352396011 0.1259484589099884 0.8625141978263855
v -0.08768752217292786 0.1320313662290573 0.8612955212593079
v -0.07984082400798798 0.12481583654880524 0.8681793808937073
v -0.08183126151561737 0.12892809510231018 0.8634704351425171
v -0.07994097471237183 0.12299537658691406 0.867006778717041
v -0.0815611332654953 0.12690919637680054 0.862109899520874
v -0.08313396573066711 0.13207241892814636 0.8611817359924316
v -0.08362366259098053 0.13312265276908875 0.8635231256484985
v -0.08946805447340012 0.10825246572494507 0.880325198173523
v -0.08622703701257706 0.10770415514707565 0.8761601448059082
v -0.08700468391180038 0.11082236468791962 0.8738554120063782
v -0.08840401470661163 0.11938843876123428 0.8650570511817932
v -0.08345652371644974 0.11201460659503937 0.8714281916618347
v -0.07980097830295563 0.11720512807369232 0.8700209856033325
v -0.08109036087989807 0.12151609361171722 0.8651309013366699
v -0.0836448073387146 0.1198013499379158 0.8641493916511536
v -0.08273033797740936 0.12471162527799606 0.8617438673973083
v -0.08492152392864227 0.12334102392196655 0.861860990524292
v -0.0884808897972107 0.12300294637680054 0.8625746965408325
v -0.08501680940389633 0.1272757351398468 0.8600517511367798
v -0.08367849886417389 0.1299670785665512 0.8602953553199768
v -0.08825929462909698 0.1287529617547989 0.8607200384140015
v -0.08583220839500427 0.12549155950546265 0.860571026802063
v -0.08846834301948547 0.1262032687664032 0.8614671230316162
v -0.08041912317276001 0.10205620527267456 0.8459010720252991
v -0.0756329894065857 0.10062235593795776 0.842365026473999
v -0.07576106488704681 0.0923335924744606 0.8467671275138855
v -0.0791998878121376 0.09410663694143295 0.8505768775939941
v -0.07531905174255371 0.1057610958814621 0.857236385345459
v -0.08014416694641113 0.10489294677972794 0.8542830944061279
v -0.07786974310874939 0.10047426074743271 0.8585487008094788
v -0.07191029191017151 0.10301059484481812 0.8594132661819458
v -0.06937326490879059 0.10545071959495544 0.8560585379600525
v -0.06637163460254669 0.10259269177913666 0.8569421768188477
v -0.06837259232997894 0.10310209542512894 0.8614698648452759
v -0.07398583739995956 0.09877005219459534 0.8617749214172363
v -0.06100063771009445 0.08647047728300095 0.8721488118171692
v -0.056837908923625946 0.09217988699674606 0.8710904121398926
v -0.05864429846405983 0.07434046268463135 0.8589499592781067
v -0.057131215929985046 0.07782559096813202 0.8572564125061035
v -0.08148732036352158 0.10357300192117691 0.8498333692550659
v -0.07989637553691864 0.09728944301605225 0.8550412654876709
v -0.06678681820631027 0.09036523848772049 0.8450800180435181
v -0.07136096060276031 0.0884021446108818 0.847201943397522
v -0.07187170535326004 0.09235668182373047 0.8435559272766113
v -0.06727475672960281 0.09406543523073196 0.8431659936904907
v -0.06282508373260498 0.0776282399892807 0.8695644736289978
v -0.06029616668820381 0.07435613125562668 0.8646905422210693
v -0.062804214656353 0.08186638355255127 0.8708891868591309
v -0.062450509518384933 0.09478951245546341 0.8464383482933044
v -0.05998653173446655 0.09982378780841827 0.8501678705215454
v -0.050160203129053116 0.09107249230146408 0.8590137958526611
v -0.0523630790412426 0.08544086664915085 0.856070339679718
v -0.07713546603918076 0.09473888576030731 0.8593647480010986
v -0.07510865479707718 0.08866192400455475 0.8512707352638245
v -0.07745617628097534 0.09072805196046829 0.8551540374755859
v -0.06299734115600586 0.10304316133260727 0.8567842841148376
v -0.06277704983949661 0.10109230875968933 0.8505523800849915
v -0.061623554676771164 0.1142500638961792 0.8432767987251282
v -0.06357628107070923 0.10223793983459473 0.8465126752853394
v -0.06636849790811539 0.10129006952047348 0.8424594402313232
v -0.06354589760303497 0.11353909969329834 0.8386903405189514
v -0.06400282680988312 0.09705447405576706 0.8460809588432312
v -0.0645502582192421 0.10392826050519943 0.8514758348464966
v -0.07642021775245667 0.11726240813732147 0.83915114402771
v -0.07168740034103394 0.11536037921905518 0.8356578350067139
v -0.07779626548290253 0.11895706504583359 0.8431491255760193
v -0.05213918909430504 0.09422780573368073 0.8653522729873657
v -0.07328727096319199 0.1190076470375061 0.8519041538238525
v -0.0774201974272728 0.11932355165481567 0.8473353385925293
v -0.07054777443408966 0.10059239715337753 0.8407371044158936
v -0.06702204048633575 0.11422430723905563 0.8357847929000854
v -0.062043555080890656 0.11562693864107132 0.8477139472961426
v -0.06719356775283813 0.11679159104824066 0.8527130484580994
v -0.06139829009771347 0.11978955566883087 0.8429835438728333
v -0.06469053030014038 0.12275735288858414 0.8475695252418518
v -0.0702504962682724 0.1254272758960724 0.8469829559326172
v -0.07482561469078064 0.1253131777048111 0.8434768319129944
v -0.07624416798353195 0.12367455661296844 0.8402600884437561
v -0.061553291976451874 0.11847247183322906 0.8392678499221802
v -0.06380286812782288 0.11782395839691162 0.8352863788604736
v -0.06822924315929413 0.11716657876968384 0.8338835835456848
v -0.06110763177275658 0.12193356454372406 0.8337253928184509
v -0.06003011018037796 0.12444030493497849 0.8366478681564331
v -0.06646870076656342 0.13987615704536438 0.8323678970336914
v -0.06740639358758926 0.13616788387298584 0.836605429649353
v -0.06484010070562363 0.1358002871274948 0.8365240693092346
v -0.06373494863510132 0.13920365273952484 0.8327207565307617
v -0.06670045852661133 0.13232013583183289 0.8411741852760315
v -0.06462863832712173 0.13271281123161316 0.8396094441413879
v -0.061829205602407455 0.12922534346580505 0.8390918970108032
v -0.061319850385189056 0.1330719292163849 0.8349089026451111
v -0.05935085564851761 0.12920835614204407 0.8327961564064026
v -0.05772015452384949 0.13289999961853027 0.8293482661247253
v -0.059367403388023376 0.13700328767299652 0.8314226269721985
v -0.05987966060638428 0.12754200398921967 0.8362395167350769
v -0.06230710446834564 0.14069102704524994 0.8299742341041565
v -0.0637468472123146 0.14139068126678467 0.8279174566268921
v -0.06270896643400192 0.127688929438591 0.8413665890693665
v -0.07250285148620605 0.12966454029083252 0.8414525985717773
v -0.07006950676441193 0.1359073519706726 0.8352161645889282
v -0.0685691237449646 0.13932764530181885 0.8300499320030212
v -0.06480766087770462 0.1400415003299713 0.8254069685935974
v -0.07171382009983063 0.13422685861587524 0.8318806886672974
v -0.06934182345867157 0.137498676776886 0.8275496959686279
v -0.06581836938858032 0.1378384679555893 0.8241395950317383
v -0.0719369649887085 0.1313895732164383 0.8282142281532288
v -0.06899470090866089 0.13453379273414612 0.8245854377746582
v -0.07543417811393738 0.12399428337812424 0.8352936506271362
v -0.07539349794387817 0.12710288166999817 0.8385176062583923
v -0.06692289561033249 0.13578611612319946 0.8236457109451294
v -0.059466652572155 0.1397438794374466 0.8261823654174805
v -0.06131042167544365 0.138530433177948 0.8235971331596375
v -0.05917970836162567 0.13924598693847656 0.8279744386672974
v -0.05907749384641647 0.12758298218250275 0.8314540386199951
v -0.05800195038318634 0.131731316447258 0.8274112939834595
v -0.05978643149137497 0.12609215080738068 0.8292900323867798
v -0.05867193639278412 0.13095250725746155 0.8252369165420532
v -0.05757007375359535 0.13548506796360016 0.8251522779464722
v -0.05741474777460098 0.13631953299045563 0.8266658782958984
v -0.07534334063529968 0.1209687739610672 0.8371817469596863
v -0.07174183428287506 0.11815735697746277 0.8343656659126282
v -0.07270890474319458 0.12048372626304626 0.8325212597846985
v -0.06936773657798767 0.12784887850284576 0.8258490562438965
v -0.06860869377851486 0.11885564774274826 0.8317350149154663
v -0.06357589364051819 0.12034614384174347 0.8318037986755371
v -0.0617944672703743 0.1250089704990387 0.8276676535606384
v -0.06519588828086853 0.1256302446126938 0.8258547782897949
v -0.05980464443564415 0.1297319084405899 0.8237613439559937
v -0.06300424784421921 0.12889248132705688 0.8235604763031006
v -0.06707337498664856 0.1313621699810028 0.823168158531189
v -0.059735290706157684 0.1337636411190033 0.8220792412757874
v -0.05825427547097206 0.13491836190223694 0.8235898017883301
v -0.06272026151418686 0.13701525330543518 0.8227464556694031
v -0.062213510274887085 0.13210901618003845 0.8220102190971375
v -0.0648156926035881 0.1346389800310135 0.8223653435707092
v -0.07146066427230835 0.09772889316082001 0.8301038146018982
v -0.06905071437358856 0.09475158900022507 0.8261512517929077
v -0.06911234557628632 0.08758567273616791 0.8287045955657959
v -0.07151573896408081 0.09132576733827591 0.8330719470977783
v -0.062088415026664734 0.10068956017494202 0.8385176658630371
v -0.06694766879081726 0.10094821453094482 0.8372530341148376
v -0.0672936663031578 0.0967605859041214 0.8392783999443054
v -0.06189225614070892 0.09628444910049438 0.840858519077301
v -0.05720452219247818 0.10059559345245361 0.8359969854354858
v -0.05681938678026199 0.0957907885313034 0.8382651805877686
v -0.05877232179045677 0.09659871459007263 0.8432660698890686
v -0.06486854702234268 0.09461811929941177 0.8423348069190979
v -0.055035654455423355 0.0871836394071579 0.8494625687599182
v -0.04945240914821625 0.0916224867105484 0.8488563299179077
v -0.07011594623327255 0.09982524067163467 0.8338966369628906
v -0.07052335888147354 0.09493767470121384 0.8365331888198853
v -0.058173030614852905 0.08413388580083847 0.827721357345581
v -0.06183091551065445 0.08299426734447479 0.8301061987876892
v -0.06465154886245728 0.08715169876813889 0.8254292011260986
v -0.06068069115281105 0.08828616142272949 0.8245905041694641
v -0.056101687252521515 0.07625820487737656 0.8478465676307678
v -0.05193877965211868 0.0739312618970871 0.8437605500221252
v -0.05754781514406204 0.08171792328357697 0.8486164808273315
v -0.05392180010676384 0.08780805766582489 0.8288588523864746
v -0.05092064291238785 0.09303320944309235 0.8335385918617249
v -0.04254351556301117 0.08739037066698074 0.8382455110549927
v -0.04455149918794632 0.08164408802986145 0.8366600871086121
v -0.06791304051876068 0.09140223264694214 0.8407180309295654
v -0.06555382162332535 0.08341343700885773 0.8336102366447449
v -0.0686541348695755 0.08689902722835541 0.8376373052597046
v -0.053725846111774445 0.09645829349756241 0.8394303917884827
v -0.054714128375053406 0.09320086240768433 0.8325483798980713
v -0.05379941314458847 0.11088378727436066 0.8218638300895691
v -0.0558721125125885 0.09426538646221161 0.8259217739105225
v -0.06023083254694939 0.09380452334880829 0.823083758354187
v -0.05632814019918442 0.11040208488702774 0.8184604644775391
v -0.0564645379781723 0.09032590687274933 0.8266070485115051
v -0.054282061755657196 0.09728848189115524 0.8311874866485596
v -0.06768694519996643 0.11451258510351181 0.822588324546814
v -0.06511451303958893 0.11126218736171722 0.818964958190918
v -0.06721688061952591 0.115020252764225 0.8266152739524841
v -0.04396563768386841 0.09223106503486633 0.8443745374679565
v -0.04755460470914841 0.07572762668132782 0.8384960293769836
v -0.06157238036394119 0.11636146903038025 0.8307104110717773
v -0.06543875485658646 0.11615047603845596 0.8292196393013
v -0.06446083635091782 0.09346269071102142 0.8236415386199951
v -0.06039297953248024 0.11027777940034866 0.8171699643135071
v -0.05392230302095413 0.11209458857774734 0.826046884059906
v -0.05671104043722153 0.1142144650220871 0.8302461504936218
v -0.052798669785261154 0.11526443064212799 0.8222898244857788
v -0.05525610223412514 0.11789806187152863 0.8264469504356384
v -0.05851944163441658 0.1208338737487793 0.8273322582244873
v -0.06207973510026932 0.12142320722341537 0.8262456655502319
v -0.06451290100812912 0.12075002491474152 0.8238785266876221
v -0.053426649421453476 0.11460383236408234 0.8181959986686707
v -0.05619470775127411 0.11443580687046051 0.815669596195221
v -0.06008142977952957 0.11367280781269073 0.8162074089050293
v -0.05262484773993492 0.11665177345275879 0.8147485256195068
v -0.05001908540725708 0.1193556934595108 0.8184070587158203
v -0.05063387379050255 0.13455314934253693 0.8173926472663879
v -0.052898675203323364 0.13066163659095764 0.8200717568397522
v -0.05168946832418442 0.1301915943622589 0.8199529051780701
v -0.04902602359652519 0.13412167131900787 0.8174921274185181
v -0.053941577672958374 0.125342458486557 0.8236643075942993
v -0.05202258750796318 0.12617650628089905 0.8225106000900269
v -0.05037464573979378 0.12313812971115112 0.8213820457458496
v -0.047826312482357025 0.12761391699314117 0.8178560733795166
v -0.047733794897794724 0.1236259788274765 0.8137868642807007
v -0.046164482831954956 0.1275942325592041 0.8119637966156006
v -0.045679811388254166 0.13137909770011902 0.8156973123550415
v -0.04901072382926941 0.12096026539802551 0.8179265856742859
v -0.04740713909268379 0.13527995347976685 0.815372109413147
v -0.048069555312395096 0.13734038174152374 0.8156816363334656
v -0.052160173654556274 0.12180998921394348 0.8226909041404724
v -0.058426808565855026 0.12610268592834473 0.8245017528533936
v -0.0554773285984993 0.13158950209617615 0.8198040127754211
v -0.05368060991168022 0.1361551433801651 0.8168101906776428
v -0.051180917769670486 0.13723182678222656 0.8136078715324402
v -0.05818777158856392 0.13097941875457764 0.8174698948860168
v -0.055727120488882065 0.13488692045211792 0.8146586418151855
v -0.05347435548901558 0.13613522052764893 0.8118119239807129
v -0.05964687094092369 0.12937197089195251 0.8150981664657593
v -0.05686139687895775 0.13285130262374878 0.8124191761016846
v -0.0641411542892456 0.12128408998250961 0.8202804327011108
v -0.061876509338617325 0.12423159927129745 0.8230105638504028
v -0.05462895706295967 0.1345231533050537 0.8108320832252502
v -0.04534108191728592 0.1348787546157837 0.8125600814819336
v -0.0483432374894619 0.1349412053823471 0.8095929622650146
v -0.04592351242899895 0.13350501656532288 0.8136069774627686
v -0.04854249581694603 0.12223847210407257 0.8127583861351013
v -0.04614108428359032 0.1269221007823944 0.80964595079422
v -0.05071858689188957 0.1213480532169342 0.8109774589538574
v -0.04826412722468376 0.12620890140533447 0.8077301383018494
v -0.0449875071644783 0.13057059049606323 0.8097996711730957
v -0.04517549276351929 0.13067317008972168 0.8109846711158752
v -0.06545691937208176 0.11785221844911575 0.8209285140037537
v -0.06377460062503815 0.11515402048826218 0.8176277875900269
v -0.06353139132261276 0.1185712218284607 0.8169624209403992
v -0.05897218734025955 0.12718918919563293 0.8116602897644043
v -0.060495778918266296 0.1162605956196785 0.8149111270904541
v -0.055503442883491516 0.11732155084609985 0.8130480647087097
v -0.05349823087453842 0.1221582293510437 0.8098618388175964
v -0.056276652961969376 0.12437574565410614 0.809847354888916
v -0.05097160488367081 0.12651684880256653 0.8068893551826477
v -0.05352317914366722 0.12742078304290771 0.8080841302871704
v -0.05652924254536629 0.13076728582382202 0.8093188405036926
v -0.04989616572856903 0.13038355112075806 0.8073449730873108
v -0.04704473540186882 0.1304151713848114 0.8077871203422546
v -0.05122135952115059 0.13436441123485565 0.8085838556289673
v -0.052348118275403976 0.13029976189136505 0.807512640953064
v -0.053492359817028046 0.1332850456237793 0.8084322214126587
v -0.04916474223136902 0.07349318265914917 0.840572714805603
v -0.05175851657986641 0.06764387339353561 0.8361056447029114
v -0.052953485399484634 0.06380840390920639 0.8355634808540344
v -0.04940754920244217 0.06275088340044022 0.8328916430473328
v -0.047378059476614 0.06624985486268997 0.8338211178779602
v -0.05464128404855728 0.07455668598413467 0.8283178806304932
v -0.05315050110220909 0.07368446886539459 0.8324975371360779
v -0.04931652918457985 0.07348110526800156 0.8296880125999451
v -0.05036584287881851 0.07448389381170273 0.8251422643661499
v -0.056915879249572754 0.07221046835184097 0.8243746161460876
v -0.05253029242157936 0.07220888882875443 0.8211007118225098
v -0.04737262427806854 0.07675464451313019 0.8254259824752808
v -0.04676942899823189 0.07488176226615906 0.8300078511238098
v -0.03598099201917648 0.077094666659832 0.8337979316711426
v -0.034360647201538086 0.07958804816007614 0.8298216462135315
v -0.02645733207464218 0.06414453685283661 0.8236470222473145
v -0.026562798768281937 0.061110228300094604 0.8277896642684937
v -0.03372474014759064 0.061854928731918335 0.8272731304168701
v -0.0329291969537735 0.06317435204982758 0.8232330083847046
v -0.05207878723740578 0.07112042605876923 0.8349394798278809
v -0.04835062474012375 0.07008253037929535 0.8331636190414429
v -0.04668202996253967 0.059494517743587494 0.8243653774261475
v -0.04624594375491142 0.059313639998435974 0.8288179039955139
v -0.05072149634361267 0.05969074368476868 0.8308062553405762
v -0.053112708032131195 0.05886733531951904 0.8269401788711548
v -0.029809288680553436 0.06145714595913887 0.8318930864334106
v -0.03284075856208801 0.06304576992988586 0.8346560597419739
v -0.03571441024541855 0.06509104371070862 0.8345062136650085
v -0.035301558673381805 0.06281764805316925 0.8313724398612976
v -0.037330519407987595 0.07020371407270432 0.8361470103263855
v -0.04756712168455124 0.06194472312927246 0.8208467960357666
v -0.048148948699235916 0.06769174337387085 0.8181864619255066
v -0.031736403703689575 0.07128077745437622 0.8188793063163757
v -0.03143511712551117 0.06662996113300323 0.8201720714569092
v -0.04616886377334595 0.07139702886343002 0.8330118656158447
v -0.0462954081594944 0.0618738979101181 0.83226078748703
v -0.045671723783016205 0.06641542911529541 0.8335810899734497
v -0.047361597418785095 0.07445123791694641 0.8203091621398926
v -0.05481884256005287 0.06665276736021042 0.8202466368675232
v -0.0664992406964302 0.06231788173317909 0.8314757943153381
v -0.059637945145368576 0.06155693531036377 0.8257837295532227
v -0.05789284408092499 0.0596565343439579 0.8296279311180115
v -0.06492167711257935 0.06066768988966942 0.8338200449943542
v -0.053604308515787125 0.061594925820827484 0.82281094789505
v -0.059893898665905 0.06669116765260696 0.8237513899803162
v -0.058381445705890656 0.06807199120521545 0.8413786292076111
v -0.05977524071931839 0.06339763849973679 0.8395836353302002
v -0.058631666004657745 0.07122273743152618 0.8407565355300903
v -0.03296568989753723 0.07840882986783981 0.8234696388244629
v -0.0624142549932003 0.07465475052595139 0.8354836106300354
v -0.06037050858139992 0.07365591824054718 0.8391849398612976
v -0.055121954530477524 0.061116691678762436 0.833322286605835
v -0.06237500533461571 0.060881078243255615 0.8367934226989746
v -0.06712464243173599 0.06658446788787842 0.8300380706787109
v -0.06506268680095673 0.07220397889614105 0.830942690372467
v -0.07055389136075974 0.06713390350341797 0.8335907459259033
v -0.068565234541893 0.07192520797252655 0.8350099921226501
v -0.06543026864528656 0.0735708549618721 0.8407321572303772
v -0.06257179379463196 0.07196298986673355 0.8425516486167908
v -0.06080881506204605 0.06947891414165497 0.8434438109397888
v -0.06912225484848022 0.062412213534116745 0.8342000842094421
v -0.06702890247106552 0.06060434877872467 0.8357705473899841
v -0.06377647817134857 0.06057020649313927 0.8380312919616699
v -0.07215186953544617 0.06235553324222565 0.8373194932937622
v -0.07372935116291046 0.06610093265771866 0.8397189974784851
v -0.07228721678256989 0.06370224803686142 0.8526719212532043
v -0.06992588937282562 0.06590408831834793 0.8503215312957764
v -0.07087058573961258 0.06608471274375916 0.8496910929679871
v -0.07312548160552979 0.06433317065238953 0.8524274230003357
v -0.06836052238941193 0.06956851482391357 0.8465924263000488
v -0.06983105838298798 0.06858427822589874 0.846731960773468
v -0.07135814428329468 0.06885369122028351 0.8434501886367798
v -0.07411029934883118 0.06620590388774872 0.8468720316886902
v -0.07612107694149017 0.06262492388486862 0.8434646129608154
v -0.07804197072982788 0.061031363904476166 0.8465198874473572
v -0.0763181746006012 0.06454862654209137 0.8491982817649841
v -0.07408034801483154 0.06617450714111328 0.8415913581848145
v -0.07543507218360901 0.06346620619297028 0.8534910678863525
v -0.07544191181659698 0.06261064112186432 0.8546003103256226
v -0.07095648348331451 0.07071396708488464 0.8417354822158813
v -0.06464941799640656 0.06841480731964111 0.8472462296485901
v -0.06843382120132446 0.06431691348552704 0.8516584038734436
v -0.07189135998487473 0.061998240649700165 0.8543162941932678
v -0.07519060373306274 0.060339879244565964 0.8548275828361511
v -0.06678597629070282 0.06266123801469803 0.8508123159408569
v -0.07078446447849274 0.06000626087188721 0.85419100522995
v -0.07394042611122131 0.058406632393598557 0.8545356392860413
v -0.06585994362831116 0.060044217854738235 0.8490418195724487
v -0.07003988325595856 0.05820132791996002 0.8524243235588074
v -0.06166793033480644 0.06320200860500336 0.8446896076202393
v -0.06265817582607269 0.06598615646362305 0.8465600609779358
v -0.0729282945394516 0.05766171216964722 0.8532633781433105
v -0.07855486869812012 0.06151116266846657 0.852505087852478
v -0.07743635773658752 0.058807097375392914 0.8529301285743713
v -0.07844330370426178 0.06271378695964813 0.8514304161071777
v -0.07610549032688141 0.061642635613679886 0.8425392508506775
v -0.07835790514945984 0.05945510417222977 0.8462710380554199
v -0.07514865696430206 0.059548188000917435 0.8417190909385681
v -0.07742023468017578 0.057517219334840775 0.8463307023048401
v -0.07935014367103577 0.0594768226146698 0.8495810031890869
v -0.07892473042011261 0.06120698153972626 0.8490912914276123
v -0.060225941240787506 0.06559012830257416 0.8433783054351807
v -0.06108958646655083 0.06290405988693237 0.8408644795417786
v -0.06278695911169052 0.06083834543824196 0.8417904376983643
v -0.06690245121717453 0.057731762528419495 0.8460678458213806
v -0.06600622832775116 0.05942023918032646 0.8386386036872864
v -0.06959380954504013 0.06031852215528488 0.8371808528900146
v -0.07319533079862595 0.05778801441192627 0.8419531583786011
v -0.07037147134542465 0.05669797211885452 0.8433052897453308
v -0.0759023129940033 0.0561748743057251 0.8470380902290344
v -0.07313749194145203 0.055437907576560974 0.8478983044624329
v -0.07071708887815475 0.05616210401058197 0.8499357104301453
v -0.07665508985519409 0.05667424201965332 0.8507024049758911
v -0.07826614379882812 0.057596754282712936 0.8504052758216858
v -0.07593022286891937 0.05740048736333847 0.8527226448059082
v -0.07484513521194458 0.05603504925966263 0.8507400155067444
v -0.07389111816883087 0.05657367408275604 0.8519513607025146
v -0.027790196239948273 0.06734282523393631 0.8217859864234924
v -0.037760742008686066 0.04847103729844093 0.898841381072998
v -0.035488665103912354 0.049513496458530426 0.8937740325927734
v -0.025172531604766846 0.03679332509636879 0.8911076784133911
v -0.028773531317710876 0.04257942736148834 0.8880430459976196
v -0.025464773178100586 0.03302977979183197 0.8971295952796936
v -0.030784472823143005 0.03475645184516907 0.906240701675415
v -0.026883579790592194 0.033348068594932556 0.9027719497680664
v -0.032114796340465546 0.04704827442765236 0.8894849419593811
v -0.03752431645989418 0.04549052566289902 0.9036676287651062
v -0.03473736345767975 0.039742033928632736 0.9074035882949829
v -0.04699884355068207 0.03790769726037979 0.8993125557899475
v -0.04259370267391205 0.03176429495215416 0.9023416638374329
v -0.037133947014808655 0.026857979595661163 0.8998219966888428
v -0.03165578097105026 0.028104402124881744 0.8964284062385559
v -0.028928883373737335 0.029315125197172165 0.8927537202835083
v -0.04397865757346153 0.04394560307264328 0.8948011994361877
v -0.04089302569627762 0.04592858999967575 0.890338659286499
v -0.035530347377061844 0.04419261962175369 0.8869144916534424
v -0.04801100119948387 0.040455516427755356 0.8883485198020935
v -0.04861879348754883 0.032877419143915176 0.8825816512107849
v -0.038258977234363556 0.02108098194003105 0.8713195323944092
v -0.036476269364356995 0.02253568172454834 0.8774276971817017
v -0.03922530263662338 0.02280423417687416 0.8776581883430481
v -0.0406658798456192 0.021027978509664536 0.8722020983695984
v -0.0380365252494812 0.023150239139795303 0.8828085064888
v -0.039856523275375366 0.024026338011026382 0.8817023038864136
v -0.04396968334913254 0.027518104761838913 0.8833160400390625
v -0.04495421424508095 0.025683168321847916 0.8778406977653503
v -0.04686013609170914 0.031087715178728104 0.8813964128494263
v -0.047404542565345764 0.03126200661063194 0.8771292567253113
v -0.04587710648775101 0.02436068281531334 0.8725300431251526
v -0.04315496236085892 0.020701635628938675 0.869366466999054
v -0.046334266662597656 0.02332756295800209 0.8681915402412415
v -0.04118625447154045 0.02120548114180565 0.8673529624938965
v -0.046920716762542725 0.02570287138223648 0.8853871822357178
v -0.03312329202890396 0.024569712579250336 0.8868157863616943
v -0.03322123736143112 0.023786891251802444 0.877870500087738
v -0.03555094823241234 0.023066509515047073 0.8705548048019409
v -0.039328433573246 0.023270122706890106 0.8661195635795593
v -0.030877012759447098 0.026967834681272507 0.8770440220832825
v -0.033756911754608154 0.026835862547159195 0.8705345392227173
v -0.03779521584510803 0.02753128856420517 0.8666002750396729
v -0.030987780541181564 0.031520549207925797 0.8760561943054199
v -0.034330300986766815 0.030526578426361084 0.8705968260765076
v -0.028615789487957954 0.034234412014484406 0.8861615061759949
v -0.029168469831347466 0.028702400624752045 0.8876564502716064
v -0.037352610379457474 0.029816918075084686 0.8678367733955383
v -0.04621833190321922 0.02367059513926506 0.8658671379089355
v -0.04431193321943283 0.026092443615198135 0.8646708726882935
v -0.048239029943943024 0.03431641682982445 0.8772444725036621
v -0.04895353317260742 0.029656607657670975 0.8724374175071716
v -0.04869098216295242 0.032162051647901535 0.8716331720352173
v -0.04717893525958061 0.03796821087598801 0.8776203989982605
v -0.04763062298297882 0.03468373417854309 0.870883047580719
v -0.0485953614115715 0.02862389013171196 0.8676144480705261
v -0.04851242154836655 0.026908863335847855 0.8694291114807129
v -0.027573246508836746 0.03399977460503578 0.8887684345245361
v -0.03029358759522438 0.03981704264879227 0.8866574168205261
v -0.03211693465709686 0.0401274636387825 0.8851591348648071
v -0.0341263972222805 0.03704740107059479 0.876143753528595
v -0.03788354992866516 0.04396725818514824 0.8845151662826538
v -0.04418324679136276 0.04361075907945633 0.8865870237350464
v -0.044457048177719116 0.04039057716727257 0.8767397403717041
v -0.03947367146611214 0.040443044155836105 0.8764621615409851
v -0.044615305960178375 0.036290064454078674 0.8704246282577515
v -0.04164113104343414 0.036268118768930435 0.8705628514289856
v -0.037086501717567444 0.03404276818037033 0.8700783848762512
v -0.04430943727493286 0.032573945820331573 0.8669302463531494
v -0.04706893861293793 0.031064029783010483 0.8667905330657959
v -0.041751813143491745 0.029437080025672913 0.8655189275741577
v -0.04209890216588974 0.03355291858315468 0.8681654334068298
v -0.039889782667160034 0.031540751457214355 0.8674246072769165
v -0.020268909633159637 0.060428451746702194 0.8290570974349976
v -0.023404866456985474 0.059722766280174255 0.8345511555671692
v -0.016413409262895584 0.059070244431495667 0.8348938822746277
v -0.006858814507722855 0.05817949026823044 0.8369551301002502
v 0.003335084766149521 0.05985809490084648 0.8337748050689697
v -0.008821651339530945 0.05909217521548271 0.8434454202651978
v -0.018558166921138763 0.059887707233428955 0.8409116268157959
v -0.028681864961981773 0.06149212643504143 0.8400056958198547
v -0.00253378227353096 0.06079110503196716 0.8515515327453613
f 2 3 1
f 1 3 4
f 5 6 8
f 8 6 7
f 9 4 10
f 10 4 3
f 12 13 11
f 11 13 9
f 14 12 16
f 16 12 15
f 18 19 17
f 17 19 20
f 22 23 21
f 21 23 24
f 26 27 25
f 25 27 28
f 30 31 29
f 29 31 32
f 33 34 36
f 36 34 35
f 37 38 40
f 40 38 39
f 41 42 6
f 6 42 43
f 6 43 7
f 7 43 44
f 45 34 46
f 46 34 33
f 48 49 47
f 47 49 50
f 52 53 51
f 51 53 54
f 56 52 55
f 55 52 51
f 58 59 57
f 57 59 60
f 61 62 4
f 4 62 1
f 64 65 63
f 63 65 66
f 68 69 67
f 67 69 70
f 72 73 71
f 71 73 74
f 76 77 75
f 75 77 78
f 53 79 54
f 54 79 80
f 82 83 81
f 81 83 84
f 85 86 52
f 52 86 53
f 57 60 87
f 87 60 88
f 89 90 43
f 43 90 44
f 43 42 89
f 89 42 91
f 40 39 92
f 92 39 93
f 94 70 64
f 64 70 69
f 13 61 9
f 9 61 4
f 25 28 69
f 69 28 95
f 96 25 68
f 68 25 69
f 98 99 97
f 97 99 100
f 101 102 104
f 104 102 103
f 106 30 105
f 105 30 29
f 51 54 107
f 107 54 108
f 54 80 108
f 108 80 109
f 111 112 110
f 110 112 113
f 115 5 114
f 114 5 116
f 115 41 5
f 5 41 6
f 36 35 111
f 111 35 117
f 35 118 117
f 117 118 119
f 34 120 35
f 35 120 118
f 34 45 120
f 120 45 121
f 125 126 124
f 124 126 127
f 128 129 14
f 14 129 130
f 33 131 46
f 46 131 132
f 133 94 63
f 63 94 64
f 134 135 137
f 137 135 136
f 139 140 138
f 138 140 141
f 77 142 78
f 78 142 143
f 144 145 20
f 20 145 146
f 148 149 147
f 147 149 72
f 151 152 150
f 150 152 153
f 82 101 83
f 83 101 104
f 101 82 155
f 155 82 154
f 156 157 58
f 58 157 59
f 158 68 147
f 147 68 67
f 159 146 15
f 15 146 16
f 68 158 96
f 96 158 160
f 129 66 130
f 130 66 65
f 162 163 161
f 161 163 164
f 166 167 165
f 165 167 168
f 170 171 169
f 169 171 172
f 174 171 173
f 173 171 170
f 176 177 175
f 175 177 178
f 180 181 179
f 179 181 24
f 182 183 21
f 21 183 184
f 81 185 82
f 82 185 154
f 186 187 188
f 188 187 144
f 158 71 160
f 160 71 189
f 190 135 157
f 157 135 59
f 169 172 139
f 139 172 140
f 147 72 158
f 158 72 71
f 192 193 191
f 191 193 194
f 167 166 49
f 49 166 195
f 196 190 50
f 50 190 157
f 197 198 200
f 200 198 199
f 21 24 182
f 182 24 181
f 146 159 20
f 20 159 17
f 182 181 81
f 81 181 185
f 201 185 180
f 180 185 181
f 202 203 83
f 83 203 84
f 205 206 204
f 204 206 85
f 207 22 184
f 184 22 21
f 179 24 208
f 208 24 23
f 208 209 179
f 179 209 205
f 209 210 205
f 205 210 206
f 212 206 211
f 211 206 210
f 179 205 180
f 180 205 204
f 213 176 88
f 88 176 214
f 86 85 212
f 212 85 206
f 193 217 218
f 217 219 218
f 218 219 220
f 219 18 220
f 220 18 17
f 19 221 20
f 20 221 144
f 222 223 225
f 225 223 224
f 175 226 176
f 176 226 214
f 227 87 214
f 214 87 88
f 220 17 228
f 228 17 159
f 134 213 60
f 60 213 88
f 138 229 151
f 151 229 152
f 193 192 210
f 210 192 211
f 230 194 218
f 218 194 193
f 231 232 228
f 228 232 230
f 233 234 91
f 91 234 89
f 235 236 93
f 93 236 92
f 230 232 234
f 234 232 237
f 47 238 48
f 48 238 239
f 240 191 235
f 235 191 236
f 5 8 116
f 116 8 241
f 242 243 189
f 189 243 160
f 244 245 98
f 98 245 99
f 156 246 47
f 47 246 238
f 76 247 77
f 77 247 248
f 250 125 249
f 249 125 124
f 252 253 251
f 251 253 254
f 111 110 36
f 36 110 255
f 256 33 255
f 255 33 36
f 257 258 154
f 154 258 155
f 63 169 133
f 133 169 139
f 66 170 63
f 63 170 169
f 173 170 129
f 129 170 66
f 129 128 173
f 173 128 259
f 128 260 259
f 259 260 261
f 213 134 262
f 262 134 137
f 263 264 186
f 186 264 187
f 112 265 113
f 113 265 266
f 11 267 268
f 234 233 230
f 230 233 194
f 153 269 70
f 70 269 67
f 175 178 165
f 165 178 141
f 150 153 94
f 94 153 70
f 271 221 270
f 270 221 207
f 269 153 272
f 272 153 152
f 121 45 109
f 109 45 108
f 47 50 156
f 156 50 157
f 57 273 58
f 58 273 274
f 145 275 260
f 260 275 261
f 276 149 143
f 143 149 78
f 148 269 75
f 75 269 272
f 207 277 270
f 270 277 278
f 195 196 49
f 49 196 50
f 59 135 60
f 60 135 134
f 83 104 202
f 202 104 279
f 149 148 78
f 78 148 75
f 247 278 248
f 248 278 277
f 183 182 84
f 84 182 81
f 48 239 281
f 281 239 282
f 227 223 283
f 283 223 222
f 223 226 224
f 224 226 168
f 281 282 224
f 224 282 225
f 165 168 175
f 175 168 226
f 264 263 138
f 138 263 229
f 14 16 128
f 128 16 260
f 220 228 218
f 218 228 230
f 87 227 284
f 284 227 283
f 260 16 145
f 145 16 146
f 244 98 258
f 258 98 155
f 58 274 156
f 156 274 246
f 107 285 51
f 51 285 55
f 243 286 160
f 160 286 96
f 234 237 89
f 89 237 90
f 46 132 107
f 107 132 285
f 253 252 249
f 249 252 250
f 286 26 96
f 96 26 25
f 106 105 287
f 287 105 288
f 272 152 289
f 289 152 229
f 138 151 139
f 139 151 133
f 183 290 161
f 161 290 162
f 291 292 277
f 277 292 293
f 151 150 133
f 133 150 94
f 262 275 177
f 177 275 187
f 144 187 145
f 145 187 275
f 273 57 284
f 284 57 87
f 174 136 190
f 190 136 135
f 111 117 112
f 112 117 38
f 117 119 38
f 38 119 123
f 112 38 265
f 265 38 37
f 287 288 254
f 254 288 251
f 228 159 231
f 231 159 15
f 223 227 226
f 226 227 214
f 147 67 148
f 148 67 269
f 224 168 281
f 281 168 167
f 199 163 200
f 200 163 162
f 45 46 108
f 108 46 107
f 281 167 48
f 48 167 49
f 161 164 291
f 291 164 292
f 38 123 39
f 293 294 277
f 277 294 248
f 284 283 296
f 296 283 295
f 284 296 273
f 273 296 297
f 274 273 298
f 298 273 297
f 246 274 299
f 299 274 298
f 283 222 295
f 295 222 300
f 222 225 300
f 300 225 301
f 301 225 302
f 302 225 282
f 303 304 300
f 300 304 295
f 306 307 305
f 305 307 308
f 309 310 308
f 308 310 305
f 308 307 312
f 312 307 311
f 313 314 312
f 312 314 315
f 311 316 312
f 312 316 313
f 317 304 311
f 311 304 316
f 315 309 312
f 312 309 308
f 318 319 321
f 321 319 320
f 319 318 309
f 309 318 310
f 311 307 317
f 317 307 306
f 306 297 317
f 317 297 296
f 306 322 297
f 297 322 298
f 305 323 306
f 306 323 322
f 323 305 324
f 324 305 310
f 304 317 295
f 295 317 296
f 318 325 310
f 310 325 324
f 323 324 326
f 326 324 327
f 324 325 327
f 327 325 328
f 326 327 329
f 329 327 330
f 329 331 326
f 326 331 332
f 333 330 328
f 328 330 327
f 323 326 322
f 322 326 332
f 322 332 298
f 298 332 299
f 325 318 334
f 334 318 321
f 313 316 335
f 335 316 304
f 335 336 313
f 313 336 314
f 304 303 335
f 335 303 337
f 336 335 338
f 338 335 337
f 336 339 314
f 314 339 340
f 246 299 238
f 238 299 341
f 239 342 282
f 282 342 302
f 342 239 341
f 341 239 238
f 341 331 342
f 342 331 343
f 331 329 343
f 343 329 344
f 342 343 302
f 302 343 345
f 341 299 331
f 331 299 332
f 346 301 345
f 345 301 302
f 346 303 301
f 301 303 300
f 347 337 346
f 346 337 303
f 347 346 348
f 348 346 345
f 349 347 350
f 350 347 348
f 343 344 345
f 345 344 348
f 344 351 348
f 348 351 350
f 337 347 338
f 338 347 349
f 353 338 352
f 352 338 349
f 352 355 354
f 354 355 356
f 352 349 355
f 355 349 350
f 352 354 353
f 353 354 334
f 353 334 339
f 339 334 321
f 339 336 353
f 353 336 338
f 329 330 344
f 344 330 351
f 356 351 333
f 333 351 330
f 356 355 351
f 351 355 350
f 354 356 328
f 328 356 333
f 328 325 354
f 354 325 334
f 309 315 319
f 319 315 320
f 320 340 321
f 321 340 339
f 320 315 340
f 340 315 314
f 137 136 261
f 261 136 259
f 140 166 141
f 141 166 165
f 172 171 195
f 195 171 196
f 171 174 196
f 196 174 190
f 178 177 264
f 264 177 187
f 172 195 140
f 140 195 166
f 137 261 262
f 262 261 275
f 178 264 141
f 141 264 138
f 262 177 213
f 213 177 176
f 136 174 259
f 259 174 173
f 358 359 357
f 357 359 360
f 362 363 361
f 361 363 364
f 361 364 365
f 365 364 366
f 367 368 370
f 370 368 369
f 76 371 247
f 247 371 372
f 373 374 362
f 362 374 363
f 376 377 375
f 375 377 378
f 289 229 380
f 380 229 379
f 381 379 263
f 263 379 229
f 383 384 382
f 382 384 385
f 386 368 374
f 374 368 363
f 76 289 371
f 371 289 380
f 377 376 359
f 359 376 387
f 388 386 360
f 360 386 374
f 389 383 366
f 366 383 390
f 392 393 391
f 391 393 394
f 383 382 390
f 390 382 395
f 396 365 390
f 390 365 366
f 389 366 367
f 367 366 364
f 357 397 358
f 358 397 398
f 373 399 357
f 357 399 397
f 389 367 400
f 400 367 370
f 382 385 375
f 375 385 372
f 357 360 373
f 373 360 374
f 361 401 362
f 362 401 402
f 387 388 359
f 359 388 360
f 363 368 364
f 364 368 367
f 358 398 403
f 403 398 404
f 396 392 405
f 405 392 391
f 392 395 393
f 393 395 378
f 393 403 394
f 394 403 404
f 375 378 382
f 382 378 395
f 365 396 406
f 406 396 405
f 362 402 373
f 373 402 399
f 271 270 400
f 400 270 384
f 401 361 406
f 406 361 365
f 381 369 386
f 386 369 368
f 392 396 395
f 395 396 390
f 393 378 403
f 403 378 377
f 403 377 358
f 358 377 359
f 406 405 408
f 408 405 407
f 406 408 401
f 401 408 409
f 401 409 402
f 402 409 410
f 402 410 399
f 399 410 411
f 405 391 407
f 407 391 412
f 391 394 412
f 412 394 413
f 394 404 413
f 413 404 414
f 415 416 412
f 412 416 407
f 418 419 417
f 417 419 420
f 421 422 418
f 418 422 419
f 419 422 424
f 424 422 423
f 425 426 424
f 424 426 427
f 423 428 424
f 424 428 425
f 427 420 424
f 424 420 419
f 420 429 417
f 417 429 430
f 423 422 431
f 431 422 421
f 421 409 431
f 431 409 408
f 421 432 409
f 409 432 410
f 418 433 421
f 421 433 432
f 434 433 417
f 417 433 418
f 431 416 423
f 423 416 428
f 416 431 407
f 407 431 408
f 435 434 430
f 430 434 417
f 433 434 436
f 436 434 437
f 434 435 437
f 437 435 438
f 436 437 439
f 439 437 440
f 439 441 436
f 436 441 442
f 438 443 437
f 437 443 440
f 436 442 433
f 433 442 432
f 432 442 410
f 410 442 411
f 435 430 445
f 445 430 444
f 430 429 444
f 444 429 446
f 425 428 447
f 447 428 416
f 426 425 448
f 448 425 447
f 416 415 447
f 447 415 449
f 447 449 448
f 448 449 450
f 451 452 448
f 448 452 426
f 446 452 444
f 444 452 451
f 399 411 397
f 397 411 453
f 398 454 404
f 404 454 414
f 454 398 453
f 453 398 397
f 453 441 454
f 454 441 455
f 441 439 455
f 455 439 456
f 454 455 414
f 414 455 457
f 441 453 442
f 442 453 411
f 458 413 457
f 457 413 414
f 458 415 413
f 413 415 412
f 458 459 415
f 415 459 449
f 459 458 460
f 460 458 457
f 461 459 462
f 462 459 460
f 455 456 457
f 457 456 460
f 456 463 460
f 460 463 462
f 459 461 449
f 449 461 450
f 465 450 464
f 464 450 461
f 464 467 466
f 466 467 468
f 464 461 467
f 467 461 462
f 464 466 465
f 465 466 445
f 465 445 451
f 451 445 444
f 451 448 465
f 465 448 450
f 439 440 456
f 456 440 463
f 468 463 443
f 443 463 440
f 468 467 463
f 463 467 462
f 466 468 438
f 438 468 443
f 438 435 466
f 466 435 445
f 420 427 429
f 429 427 446
f 446 427 452
f 452 427 426
f 370 369 188
f 188 369 186
f 371 376 372
f 372 376 375
f 380 379 387
f 387 379 388
f 379 381 388
f 388 381 386
f 385 384 278
f 278 384 270
f 380 387 371
f 371 387 376
f 400 370 271
f 271 370 188
f 385 278 372
f 372 278 247
f 400 384 389
f 389 384 383
f 369 381 186
f 186 381 263
f 221 271 144
f 144 271 188
f 221 19 207
f 207 19 22
f 19 18 22
f 22 18 23
f 18 219 23
f 23 219 208
f 469 470 472
f 472 470 471
f 474 475 473
f 473 475 476
f 473 476 477
f 477 476 478
f 480 481 479
f 479 481 482
f 483 484 474
f 474 484 475
f 486 487 485
f 485 487 488
f 489 490 77
f 77 490 142
f 491 489 248
f 248 489 77
f 493 494 492
f 492 494 495
f 496 480 484
f 484 480 475
f 486 497 487
f 487 497 471
f 498 496 472
f 472 496 484
f 499 493 478
f 478 493 500
f 501 502 504
f 504 502 503
f 493 492 500
f 500 492 505
f 506 477 500
f 500 477 478
f 499 478 479
f 479 478 476
f 469 507 470
f 470 507 508
f 483 509 469
f 469 509 507
f 479 482 499
f 499 482 510
f 492 495 485
f 485 495 511
f 483 469 484
f 484 469 472
f 473 512 474
f 474 512 513
f 497 498 471
f 471 498 472
f 475 480 476
f 476 480 479
f 470 508 514
f 514 508 515
f 506 502 516
f 516 502 501
f 503 502 488
f 488 502 505
f 514 515 503
f 503 515 504
f 485 488 492
f 492 488 505
f 477 506 517
f 517 506 516
f 474 513 483
f 483 513 509
f 510 292 494
f 494 292 164
f 512 473 517
f 517 473 477
f 491 481 496
f 496 481 480
f 502 506 505
f 505 506 500
f 503 488 514
f 514 488 487
f 514 487 470
f 470 487 471
f 517 516 519
f 519 516 518
f 517 519 512
f 512 519 520
f 512 520 513
f 513 520 521
f 513 521 509
f 509 521 522
f 516 501 518
f 518 501 523
f 501 504 523
f 523 504 524
f 524 504 525
f 525 504 515
f 526 527 523
f 523 527 518
f 529 530 528
f 528 530 531
f 532 533 529
f 529 533 530
f 530 533 535
f 535 533 534
f 536 537 535
f 535 537 538
f 534 539 535
f 535 539 536
f 538 531 535
f 535 531 530
f 540 541 531
f 531 541 528
f 533 532 534
f 534 532 542
f 532 520 542
f 542 520 519
f 532 543 520
f 520 543 521
f 529 544 532
f 532 544 543
f 544 529 545
f 545 529 528
f 534 542 539
f 539 542 527
f 527 542 518
f 518 542 519
f 541 546 528
f 528 546 545
f 547 544 548
f 548 544 545
f 546 549 545
f 545 549 548
f 550 547 551
f 551 547 548
f 547 550 553
f 553 550 552
f 549 554 548
f 548 554 551
f 544 547 543
f 543 547 553
f 543 553 521
f 521 553 522
f 546 541 556
f 556 541 555
f 541 540 555
f 555 540 557
f 536 539 558
f 558 539 527
f 537 536 559
f 559 536 558
f 527 526 558
f 558 526 560
f 559 558 561
f 561 558 560
f 559 562 537
f 537 562 563
f 557 563 555
f 555 563 562
f 509 522 507
f 507 522 564
f 508 565 515
f 515 565 525
f 565 508 564
f 564 508 507
f 564 552 565
f 565 552 566
f 552 550 566
f 566 550 567
f 565 566 525
f 525 566 568
f 564 522 552
f 552 522 553
f 569 524 568
f 568 524 525
f 569 526 524
f 524 526 523
f 570 560 569
f 569 560 526
f 570 569 571
f 571 569 568
f 572 570 573
f 573 570 571
f 566 567 568
f 568 567 571
f 567 574 571
f 571 574 573
f 570 572 560
f 560 572 561
f 576 561 575
f 575 561 572
f 575 578 577
f 577 578 579
f 575 572 578
f 578 572 573
f 575 577 576
f 576 577 556
f 576 556 562
f 562 556 555
f 562 559 576
f 576 559 561
f 550 551 567
f 567 551 574
f 579 574 554
f 554 574 551
f 579 578 574
f 574 578 573
f 579 554 577
f 577 554 549
f 549 546 577
f 577 546 556
f 531 538 540
f 540 538 557
f 557 538 563
f 563 538 537
f 481 294 482
f 482 294 293
f 580 486 511
f 511 486 485
f 490 489 497
f 497 489 498
f 489 491 498
f 498 491 496
f 163 495 164
f 164 495 494
f 580 490 486
f 486 490 497
f 482 293 510
f 510 293 292
f 495 163 511
f 511 163 199
f 494 493 510
f 510 493 499
f 481 491 294
f 294 491 248
f 582 583 581
f 581 583 584
f 586 587 585
f 585 587 588
f 585 588 589
f 589 588 590
f 592 593 591
f 591 593 594
f 595 596 598
f 598 596 597
f 599 600 586
f 586 600 587
f 601 602 604
f 604 602 603
f 605 606 608
f 608 606 607
f 609 607 200
f 200 607 606
f 610 611 613
f 613 611 612
f 600 614 587
f 587 614 592
f 596 605 597
f 597 605 608
f 602 615 603
f 603 615 583
f 616 614 584
f 584 614 600
f 611 618 617
f 617 618 590
f 620 621 619
f 619 621 622
f 610 623 611
f 611 623 618
f 624 589 618
f 618 589 590
f 617 590 591
f 591 590 588
f 581 625 582
f 582 625 626
f 599 627 581
f 581 627 625
f 591 594 617
f 617 594 628
f 601 610 598
f 598 610 613
f 581 584 599
f 599 584 600
f 585 629 586
f 586 629 630
f 615 616 583
f 583 616 584
f 587 592 588
f 588 592 591
f 582 626 631
f 631 626 632
f 624 620 633
f 633 620 619
f 621 620 604
f 604 620 623
f 631 632 621
f 621 632 622
f 610 601 623
f 623 601 604
f 589 624 634
f 634 624 633
f 586 630 599
f 599 630 627
f 203 202 628
f 628 202 612
f 629 585 634
f 634 585 589
f 609 593 614
f 614 593 592
f 620 624 623
f 623 624 618
f 631 621 603
f 603 621 604
f 582 631 583
f 583 631 603
f 634 633 636
f 636 633 635
f 634 636 629
f 629 636 637
f 629 637 630
f 630 637 638
f 630 638 627
f 627 638 639
f 633 619 635
f 635 619 640
f 619 622 640
f 640 622 641
f 641 622 642
f 642 622 632
f 644 635 643
f 643 635 640
f 645 646 648
f 648 646 647
f 649 650 646
f 646 650 647
f 647 650 652
f 652 650 651
f 652 653 655
f 655 653 654
f 651 656 652
f 652 656 653
f 655 648 652
f 652 648 647
f 648 657 645
f 645 657 658
f 650 649 651
f 651 649 659
f 649 637 659
f 659 637 636
f 649 660 637
f 637 660 638
f 661 660 646
f 646 660 649
f 662 661 645
f 645 661 646
f 651 659 656
f 656 659 644
f 644 659 635
f 635 659 636
f 663 662 658
f 658 662 645
f 664 661 665
f 665 661 662
f 663 666 662
f 662 666 665
f 667 664 668
f 668 664 665
f 664 667 670
f 670 667 669
f 666 671 665
f 665 671 668
f 661 664 660
f 660 664 670
f 660 670 638
f 638 670 639
f 658 672 663
f 663 672 673
f 658 657 672
f 672 657 674
f 653 656 675
f 675 656 644
f 653 675 654
f 654 675 676
f 675 644 677
f 677 644 643
f 676 675 678
f 678 675 677
f 679 680 676
f 676 680 654
f 674 680 672
f 672 680 679
f 627 639 625
f 625 639 681
f 626 682 632
f 632 682 642
f 681 682 625
f 625 682 626
f 669 683 681
f 681 683 682
f 667 684 669
f 669 684 683
f 682 683 642
f 642 683 685
f 681 639 669
f 669 639 670
f 686 641 685
f 685 641 642
f 641 686 640
f 640 686 643
f 686 687 643
f 643 687 677
f 687 686 688
f 688 686 685
f 689 687 690
f 690 687 688
f 683 684 685
f 685 684 688
f 684 691 688
f 688 691 690
f 687 689 677
f 677 689 678
f 693 678 692
f 692 678 689
f 692 695 694
f 694 695 696
f 692 689 695
f 695 689 690
f 692 694 693
f 693 694 673
f 693 673 679
f 679 673 672
f 679 676 693
f 693 676 678
f 684 667 691
f 691 667 668
f 696 691 671
f 671 691 668
f 696 695 691
f 691 695 690
f 694 696 666
f 666 696 671
f 666 663 694
f 694 663 673
f 648 655 657
f 657 655 674
f 674 655 680
f 680 655 654
f 593 162 594
f 594 162 290
f 598 597 601
f 601 597 602
f 615 608 616
f 616 608 607
f 607 609 616
f 616 609 614
f 697 595 613
f 613 595 598
f 597 608 602
f 602 608 615
f 594 290 628
f 628 290 203
f 628 612 617
f 617 612 611
f 593 609 162
f 162 609 200
f 105 29 698
f 698 29 699
f 268 126 701
f 701 126 700
f 126 125 700
f 700 125 702
f 252 703 250
f 250 703 704
f 32 268 705
f 705 268 701
f 288 105 706
f 706 105 698
f 29 32 699
f 699 32 705
f 707 251 706
f 706 251 288
f 250 704 125
f 125 704 702
f 703 252 707
f 707 252 251
f 706 708 707
f 707 708 709
f 707 709 703
f 703 709 710
f 703 710 704
f 704 710 711
f 704 711 702
f 702 711 712
f 706 698 708
f 708 698 713
f 698 699 713
f 713 699 714
f 699 705 714
f 714 705 715
f 717 708 716
f 716 708 713
f 719 720 718
f 718 720 721
f 722 723 719
f 719 723 720
f 724 725 723
f 723 725 720
f 724 726 725
f 725 726 727
f 728 721 725
f 725 721 720
f 721 728 729
f 729 728 730
f 729 731 721
f 721 731 718
f 724 723 732
f 732 723 722
f 722 710 732
f 732 710 709
f 722 733 710
f 710 733 711
f 719 734 722
f 722 734 733
f 734 719 735
f 735 719 718
f 724 732 726
f 726 732 717
f 717 732 708
f 708 732 709
f 731 736 718
f 718 736 735
f 737 734 738
f 738 734 735
f 736 739 735
f 735 739 738
f 740 737 741
f 741 737 738
f 737 740 743
f 743 740 742
f 739 744 738
f 738 744 741
f 734 737 733
f 733 737 743
f 733 743 711
f 711 743 712
f 736 731 746
f 746 731 745
f 731 729 745
f 745 729 730
f 727 726 747
f 747 726 717
f 748 727 749
f 749 727 747
f 747 717 750
f 750 717 716
f 749 747 751
f 751 747 750
f 749 752 748
f 748 752 753
f 730 753 745
f 745 753 752
f 728 725 748
f 748 725 727
f 730 728 753
f 753 728 748
f 700 702 754
f 754 702 712
f 705 701 715
f 715 701 755
f 754 755 700
f 700 755 701
f 742 756 754
f 754 756 755
f 740 757 742
f 742 757 756
f 755 756 715
f 715 756 758
f 754 712 742
f 742 712 743
f 759 714 758
f 758 714 715
f 714 759 713
f 713 759 716
f 759 760 716
f 716 760 750
f 760 759 761
f 761 759 758
f 762 760 763
f 763 760 761
f 756 757 758
f 758 757 761
f 757 764 761
f 761 764 763
f 760 762 750
f 750 762 751
f 766 751 765
f 765 751 762
f 767 765 769
f 769 765 768
f 765 762 768
f 768 762 763
f 765 767 766
f 766 767 746
f 766 746 752
f 752 746 745
f 752 749 766
f 766 749 751
f 757 740 764
f 764 740 741
f 769 764 744
f 744 764 741
f 769 768 764
f 764 768 763
f 767 769 739
f 739 769 744
f 739 736 767
f 767 736 746
f 219 217 208
f 208 217 209
f 209 217 210
f 210 217 193
f 198 580 199
f 199 580 511
f 76 75 289
f 289 75 272
f 277 207 291
f 291 207 184
f 290 183 203
f 203 183 84
f 490 580 142
f 142 580 198
f 142 198 143
f 143 198 197
f 149 276 72
f 72 276 73
f 104 103 279
f 279 103 770
f 770 596 279
f 279 596 595
f 605 596 771
f 771 596 770
f 771 770 772
f 772 770 103
f 772 103 773
f 773 103 102
f 155 774 101
f 101 774 102
f 773 102 97
f 97 102 774
f 775 773 100
f 100 773 97
f 773 775 772
f 772 775 776
f 772 776 771
f 771 776 777
f 200 606 197
f 197 606 777
f 189 71 778
f 778 71 74
f 97 774 98
f 98 774 155
f 183 161 184
f 184 161 291
f 777 276 197
f 197 276 143
f 777 606 771
f 771 606 605
f 613 612 697
f 697 612 202
f 595 697 279
f 279 697 202
f 73 276 776
f 776 276 777
f 776 775 73
f 73 775 74
f 100 778 775
f 775 778 74
f 778 100 189
f 189 100 99
f 245 242 99
f 99 242 189
f 131 33 256
f 28 1 95
f 95 1 62
f 27 2 28
f 28 2 1
f 265 115 266
f 266 115 114
f 95 62 69
f 69 62 64
f 62 61 64
f 64 61 65
f 61 13 65
f 65 13 130
f 13 12 130
f 130 12 14
f 31 11 32
f 32 11 268
f 15 12 31
f 31 12 11
f 31 30 15
f 15 30 231
f 30 106 231
f 231 106 232
f 287 237 106
f 106 237 232
f 254 90 287
f 287 90 237
f 253 44 254
f 254 44 90
f 253 249 44
f 44 249 7
f 267 127 268
f 268 127 126
f 10 3 241
f 241 3 116
f 3 2 116
f 116 2 114
f 2 27 114
f 114 27 266
f 27 26 266
f 266 26 113
f 26 286 113
f 113 286 110
f 286 243 110
f 110 243 255
f 243 242 255
f 255 242 256
f 242 245 256
f 256 245 131
f 245 244 131
f 131 244 132
f 265 37 115
f 115 37 41
f 41 37 42
f 42 37 40
f 92 91 40
f 40 91 42
f 236 233 92
f 92 233 91
f 191 194 236
f 236 194 233
f 258 285 244
f 244 285 132
f 257 55 258
f 258 55 285
f 257 154 201
f 201 154 185
f 56 201 204
f 204 201 180
f 55 257 56
f 56 257 201
f 204 85 56
f 56 85 52
f 86 122 53
f 53 122 79
f 212 215 86
f 86 215 122
f 211 216 212
f 212 216 215
f 192 280 211
f 211 280 216
f 191 240 192
f 192 240 280
f 249 124 7
f 7 124 8
f 124 127 8
f 8 127 241
f 127 267 241
f 241 267 10
f 10 267 9
f 9 267 11
