v -0.009863581508398056 0.059940870851278305 0.8875942230224609
v 0.0031476207077503204 0.055922284722328186 0.8869316577911377
v -0.0032628215849399567 0.05072552338242531 0.8917704820632935
v -0.014759648591279984 0.055646494030952454 0.8930586576461792
v 0.013319022953510284 0.04750807583332062 0.9047428965568542
v 0.015922464430332184 0.05280552804470062 0.9149736762046814
v -0.0002845004200935364 0.048955775797367096 0.9150864481925964
v 0.0015156716108322144 0.04449513927102089 0.9056150317192078
v -0.019475117325782776 0.05491243302822113 0.8963489532470703
v -0.009714636951684952 0.048250678926706314 0.8947444558143616
v -0.02129596471786499 0.059328414499759674 0.8962237238883972
v -0.029920920729637146 0.06922037154436111 0.9019598960876465
v -0.028881758451461792 0.06298332661390305 0.9005489349365234
v -0.03731951862573624 0.0738614946603775 0.9034035801887512
v -0.02456984668970108 0.07888409495353699 0.9028153419494629
v -0.035320475697517395 0.08229244500398636 0.8997926115989685
v -0.01603848859667778 0.09420028328895569 0.8849275708198547
v -0.012492179870605469 0.09512374550104141 0.8727501034736633
v -0.028002027422189713 0.09285788238048553 0.8714714646339417
v -0.030059728771448135 0.09154843538999557 0.8840659856796265
v -0.017652105540037155 0.0895773321390152 0.8543572425842285
v -0.024369992315769196 0.09146161377429962 0.8635828495025635
v -0.008656512945890427 0.09484419971704483 0.8648679852485657
v -0.0034373700618743896 0.0927010104060173 0.8564555048942566
v -0.00286179780960083 0.0647803395986557 0.8762390613555908
v 0.008708007633686066 0.0630917102098465 0.8753489255905151
v 0.007423661649227142 0.06145269423723221 0.8796918392181396
v -0.004434727132320404 0.06365218013525009 0.8806589841842651
v -0.024450596421957016 0.0592346116900444 0.9001324772834778
v -0.018148258328437805 0.06987018883228302 0.9062158465385437
v -0.021552249789237976 0.06648588180541992 0.900812566280365
v -0.023115627467632294 0.055522702634334564 0.8964290618896484
v 0.03399845212697983 0.056680288165807724 0.8672478199005127
v 0.045837096869945526 0.06250608712434769 0.8695098757743835
v 0.045193567872047424 0.06304957717657089 0.8754484057426453
v 0.03464497625827789 0.0579800084233284 0.8722027540206909
v 0.03681694716215134 0.059567034244537354 0.9005523920059204
v 0.044185854494571686 0.0656479001045227 0.8947983980178833
v 0.04795399308204651 0.07457966357469559 0.9036445617675781
v 0.038597434759140015 0.07203990966081619 0.9083432555198669
v 0.02704460173845291 0.054663196206092834 0.9094703197479248
v 0.028391532599925995 0.06564530730247498 0.9153058528900146
v 0.013523295521736145 0.06279797106981277 0.9206422567367554
v -0.00452793762087822 0.05587758868932724 0.9201288223266602
v 0.04728548973798752 0.0644126906991005 0.8569531440734863
v 0.03895236551761627 0.05991104990243912 0.853493332862854
v -0.08231015503406525 0.09905677288770676 0.8938830494880676
v -0.08272740244865417 0.09829963743686676 0.8881778717041016
v -0.07982926815748215 0.0925358235836029 0.8899861574172974
v -0.07966703176498413 0.09443671256303787 0.8951969742774963
v 0.040617264807224274 0.078586146235466 0.8444922566413879
v 0.03918285667896271 0.08852256089448929 0.8453394174575806
v 0.04633148014545441 0.08743380755186081 0.8451161980628967
v 0.047884099185466766 0.07824951410293579 0.8461925387382507
v 0.030959680676460266 0.07885631918907166 0.8423985838890076
v 0.029176533222198486 0.08935459703207016 0.8461917638778687
v -0.07272914797067642 0.10647723823785782 0.8960101008415222
v -0.07687756419181824 0.1042872816324234 0.8979007005691528
v -0.07344502210617065 0.10080456733703613 0.8989194631576538
v -0.06931711733341217 0.10285085439682007 0.896198570728302
v -0.02563490718603134 0.060346994549036026 0.8965809941291809
v -0.020825736224651337 0.06115606054663658 0.8894633054733276
v -0.04917488619685173 0.06494162231683731 0.8969895243644714
v -0.035785138607025146 0.06313035637140274 0.8927204608917236
v -0.03617236763238907 0.0635475143790245 0.8996579051017761
v -0.046596795320510864 0.06676770746707916 0.902560830116272
v -0.02550848200917244 0.06553053110837936 0.8713276386260986
v -0.01376194879412651 0.0658738911151886 0.8725894689559937
v -0.016667604446411133 0.06563249975442886 0.8782488703727722
v -0.029948443174362183 0.064618781208992 0.8787011504173279
v -0.009458236396312714 0.06307876110076904 0.8594475388526917
v -0.021405059844255447 0.06333477795124054 0.859248697757721
v -0.017712362110614777 0.06160552799701691 0.8517957925796509
v -0.009742900729179382 0.060892801731824875 0.853286862373352
v -0.04438156262040138 0.06495774537324905 0.8616331219673157
v -0.05274449288845062 0.06884987652301788 0.8611059188842773
v -0.05255233496427536 0.07089769095182419 0.8561016321182251
v -0.043069176375865936 0.0657782107591629 0.8575224280357361
v 0.053359225392341614 0.08744802325963974 0.8453606963157654
v 0.05462908744812012 0.07832606136798859 0.8487211465835571
v -0.008554063737392426 0.08283349126577377 0.8366519808769226
v -0.002509109675884247 0.07523468136787415 0.8316267132759094
v -0.014457263052463531 0.0731320008635521 0.8274627327919006
v -0.017146728932857513 0.08149870485067368 0.8340967893600464
v 0.03604219853878021 0.09615659713745117 0.8516075611114502
v 0.04350941628217697 0.09611556679010391 0.8493103981018066
v -0.06954887509346008 0.10774089395999908 0.8908368945121765
v -0.06680867820978165 0.10412789136171341 0.8906962871551514
v 0.013064920902252197 0.07438486069440842 0.9184887409210205
v -0.007128611207008362 0.06485848873853683 0.9194512367248535
v 0.028427787125110626 0.07949619740247726 0.9133028388023376
v 0.038086578249931335 0.08367029577493668 0.9078825116157532
v 0.04683327674865723 0.08606784790754318 0.9056496024131775
v -0.0399322509765625 0.06289640814065933 0.8869976997375488
v -0.01464879885315895 0.06365098804235458 0.883318305015564
v -0.0013537071645259857 0.06466951966285706 0.8717547655105591
v 0.003413356840610504 0.056815557181835175 0.8426366448402405
v 0.01393282413482666 0.056527841836214066 0.8443562388420105
v 0.00821743905544281 0.05638008937239647 0.8532721996307373
v 0.00017100200057029724 0.05732577294111252 0.8498550653457642
v -0.001983221620321274 0.06557532399892807 0.8306430578231812
v -0.004919897764921188 0.05964432284235954 0.8350017070770264
v -0.014460694044828415 0.05970676988363266 0.832987904548645
v -0.012794017791748047 0.06479433923959732 0.8280915021896362
v -0.025781456381082535 0.06036882847547531 0.9068554639816284
v -0.014469027519226074 0.07225144654512405 0.9111744165420532
v 0.041367724537849426 0.06851566582918167 0.8472863435745239
v 0.04800882190465927 0.0694146528840065 0.8510831594467163
v 0.055624425411224365 0.07213592529296875 0.853287398815155
v 0.021824069321155548 0.05902882665395737 0.8730749487876892
v 0.035209089517593384 0.058688707649707794 0.8759491443634033
v 0.034484222531318665 0.05804944783449173 0.8812412023544312
v 0.021802060306072235 0.05937958508729935 0.876276969909668
v 0.015564285218715668 0.05112644284963608 0.890769898891449
v 0.025528036057949066 0.0510961152613163 0.8973894119262695
v 0.006269291043281555 0.046081703156232834 0.8949777483940125
v 0.04599757492542267 0.06409274786710739 0.8840151429176331
v 0.05488688498735428 0.06520018726587296 0.8773044943809509
v 0.05437903106212616 0.06693029403686523 0.8861544132232666
v 0.055824629962444305 0.06591445952653885 0.8675894737243652
v 0.056119404733181 0.06805859506130219 0.8589638471603394
v 0.0513140931725502 0.0989588052034378 0.8477141857147217
v 0.05277824401855469 0.07001344114542007 0.8939348459243774
v -0.0067225731909275055 0.042853206396102905 0.9045554399490356
v -0.014149598777294159 0.040417492389678955 0.9023408889770508
v -0.015261977910995483 0.043776705861091614 0.8952355980873108
v -0.008518114686012268 0.04523220658302307 0.8962972164154053
v -0.045876242220401764 0.07941297441720963 0.9036575555801392
v -0.04731512442231178 0.07220791280269623 0.9049804210662842
v -0.03594205528497696 0.06716524064540863 0.9041849970817566
v 0.024378955364227295 0.055590592324733734 0.8608549237251282
v 0.029126234352588654 0.05807918310165405 0.8495380282402039
v -0.052689969539642334 0.0663754791021347 0.8910444378852844
v -0.0657050684094429 0.10204204171895981 0.8958524465560913
v -0.06906312704086304 0.09899106621742249 0.8993863463401794
v -0.056450940668582916 0.08991436660289764 0.9017020463943481
v -0.05393707752227783 0.0941515862941742 0.8975644707679749
v -0.05943460389971733 0.07605297118425369 0.8852752447128296
v -0.058189526200294495 0.07203302532434464 0.89043790102005
v -0.06076238676905632 0.07632580399513245 0.8893976211547852
v -0.061770398169755936 0.0799838975071907 0.8843332529067993
v -0.04715266078710556 0.06918026506900787 0.8486140966415405
v -0.03898300975561142 0.06467544287443161 0.8499738574028015
v -0.04484935477375984 0.08629802614450455 0.882624626159668
v -0.040958113968372345 0.08791998028755188 0.8938735723495483
v -0.03170367330312729 0.08912422508001328 0.8927914500236511
v -0.02237030863761902 0.06473349034786224 0.8646106719970703
v -0.03323822841048241 0.06415525823831558 0.8625832796096802
v -0.03212076425552368 0.06390774995088577 0.8584983348846436
v -0.043496206402778625 0.06393452733755112 0.8834715485572815
v -0.053441260010004044 0.06718933582305908 0.8849382996559143
v -0.049050845205783844 0.06612210720777512 0.8798797726631165
v -0.039681099355220795 0.06475450843572617 0.8784633874893188
v 0.009807154536247253 0.07768750190734863 0.8349387645721436
v 0.010680422186851501 0.0662677064538002 0.833384096622467
v -0.08021895587444305 0.10139818489551544 0.8973018527030945
v -0.07711455225944519 0.09726462513208389 0.8985182046890259
v -0.010930892080068588 0.06509833037853241 0.8659937977790833
v -0.018911179155111313 0.09010758996009827 0.8930724859237671
v 0.00043240562081336975 0.06390072405338287 0.8667240142822266
v -0.03210294991731644 0.08065569400787354 0.8442099094390869
v -0.03345441818237305 0.07600270211696625 0.8401659727096558
v -0.038927558809518814 0.07716222107410431 0.8421862721443176
v -0.03732268884778023 0.08182865381240845 0.8448549509048462
v -0.07173552364110947 0.09141426533460617 0.8808180093765259
v -0.07514117658138275 0.08906093239784241 0.8848927617073059
v -0.07838679850101471 0.09280267357826233 0.8837568759918213
v -0.07472080737352371 0.0949602946639061 0.880048394203186
v -0.05712543800473213 0.07184416800737381 0.8962359428405762
v -0.05483889952301979 0.07319681346416473 0.902137041091919
v -0.060733988881111145 0.07887087762355804 0.8998777866363525
v -0.061384912580251694 0.07713473588228226 0.8944264650344849
v -0.05383748561143875 0.07942577451467514 0.9041003584861755
v -0.05876700580120087 0.08417432755231857 0.902531623840332
v -0.06691918522119522 0.09606044739484787 0.8806134462356567
v -0.06264407932758331 0.10124080628156662 0.8846541047096252
v -0.053951114416122437 0.09285933524370193 0.8850764036178589
v -0.05945460498332977 0.08735662698745728 0.8829100728034973
v 0.010667026042938232 0.0960083156824112 0.8588908910751343
v 0.01440456509590149 0.09213131666183472 0.8492881655693054
v 0.0004218481481075287 0.08881207555532455 0.8465609550476074
v -0.012786902487277985 0.08613935112953186 0.8434828519821167
v -0.025111597031354904 0.08219897001981735 0.841822624206543
v -0.02889450266957283 0.08700763434171677 0.8523120284080505
v 0.0043443553149700165 0.08567578345537186 0.840356171131134
v -0.05643190070986748 0.08105843514204025 0.8804613947868347
v -0.049578532576560974 0.08584529161453247 0.8862122893333435
v -0.05142771452665329 0.08441989123821259 0.8815227150917053
v 0.0019904598593711853 0.06116899847984314 0.8600329160690308
v -0.07222484797239304 0.09525436162948608 0.8997487425804138
v 0.03620249778032303 0.10003380477428436 0.8938127756118774
v 0.03658915311098099 0.10380735993385315 0.8812447786331177
v 0.028167836368083954 0.10182178765535355 0.8828703761100769
v 0.027295812964439392 0.09710559248924255 0.8964502811431885
v -0.07633955776691437 0.08834876120090485 0.8915847539901733
v -0.07551370561122894 0.0908791720867157 0.8971202373504639
v -0.03754529356956482 0.06481166183948517 0.8436792492866516
v -0.043917469680309296 0.0696629136800766 0.8439406156539917
v -0.04323972761631012 0.07244270294904709 0.8414683938026428
v -0.03788561373949051 0.06666328012943268 0.8388397097587585
v 0.01761876791715622 0.08958332985639572 0.845135509967804
v -0.022706646472215652 0.07148139923810959 0.8253850936889648
v -0.02358878403902054 0.07940519601106644 0.8305128812789917
v 0.026680879294872284 0.09508250653743744 0.8520919680595398
v 0.02350512146949768 0.09905000030994415 0.8603453040122986
v 0.032944925129413605 0.10106078535318375 0.8608232736587524
v -0.040302813053131104 0.0869591236114502 0.8630030155181885
v 0.006010293960571289 0.09755928814411163 0.8659677505493164
v 0.020061224699020386 0.10000462085008621 0.8670687675476074
v 0.031216301023960114 0.10241719335317612 0.867958128452301
v 0.039218172430992126 0.10464673489332199 0.8678576350212097
v 0.040348224341869354 0.1027134582400322 0.8600568771362305
v -0.06343024969100952 0.10260412842035294 0.8898656964302063
v -0.06589008867740631 0.10310034453868866 0.8845800161361694
v 0.04862619936466217 0.10607871413230896 0.8586201667785645
v 0.0471247062087059 0.10748347640037537 0.8676286935806274
v 0.016912899911403656 0.10023187100887299 0.8757138252258301
v 0.01335667073726654 0.09925790131092072 0.8857991695404053
v 0.0034494251012802124 0.0977131724357605 0.8741896152496338
v -0.0011221468448638916 0.09659428149461746 0.884137749671936
v -0.03862456977367401 0.09076389670372009 0.8725244402885437
v -0.07645270973443985 0.11399515718221664 0.8799885511398315
v -0.07167097926139832 0.10432659089565277 0.880300760269165
v -0.07649140059947968 0.10104819387197495 0.8791947364807129
v -0.07936996221542358 0.11133711040019989 0.8779951333999634
v -0.06990502774715424 0.09874941408634186 0.8803709745407104
v -0.06847818940877914 0.1067609116435051 0.8845812082290649
v -0.004350602626800537 0.09143009781837463 0.8951462507247925
v -0.058579206466674805 0.07173533737659454 0.8793760538101196
v 0.010929971933364868 0.09200911968946457 0.8993526101112366
v -0.013114593923091888 0.08330994099378586 0.9047147631645203
v -0.0023744702339172363 0.08232202380895615 0.90834641456604
v 0.026472672820091248 0.0910005196928978 0.9064194560050964
v 0.0116487517952919 0.08419512212276459 0.912396252155304
v 0.04475543648004532 0.09521569311618805 0.901266872882843
v 0.035652756690979004 0.09364008903503418 0.9028797149658203
v -0.003604590892791748 0.07549495249986649 0.9153397679328918
v -0.08799444139003754 0.10739380121231079 0.8879770040512085
v -0.08670975267887115 0.10614129155874252 0.882759690284729
v 0.04430757462978363 0.10234113037586212 0.8928881883621216
v -0.0023845843970775604 0.04478125646710396 0.8963636159896851
v 0.012300513684749603 0.05932658165693283 0.8633175492286682
v 0.010798625648021698 0.06149917468428612 0.8681285977363586
v 0.0200735405087471 0.05690582096576691 0.846122145652771
v 0.015348292887210846 0.056111689656972885 0.856749951839447
v -0.0865551233291626 0.10973430424928665 0.8923314809799194
v -0.05407636612653732 0.07475285977125168 0.8599778413772583
v -0.053151290863752365 0.07571668177843094 0.8579155206680298
v -0.00867479294538498 0.04449472576379776 0.913038969039917
v -0.015209674835205078 0.041183628141880035 0.909956693649292
v -0.02410760521888733 0.050030775368213654 0.9139284491539001
v -0.01993503049015999 0.044238291680812836 0.9142873287200928
v -0.013154834508895874 0.04989250749349594 0.917698085308075
v -0.016983799636363983 0.056543778628110886 0.9171465039253235
v 0.021605737507343292 0.05836982652544975 0.8703867197036743
v 0.021823309361934662 0.05742444843053818 0.8665355443954468
v 0.02112499624490738 0.07811612635850906 0.8386355042457581
v 0.021316125988960266 0.06670663505792618 0.837410569190979
v -0.05135033279657364 0.08467958122491837 0.9025819897651672
v -0.04373326152563095 0.08524058759212494 0.9000716209411621
v -0.0486702099442482 0.0893072634935379 0.8982752561569214
v -0.05163754150271416 0.09466181695461273 0.8914200067520142
v -0.06022718921303749 0.077949658036232 0.8788259625434875
v -0.05631129816174507 0.08142372220754623 0.8839201927185059
v 0.030420571565628052 0.054659150540828705 0.8880240321159363
v 0.020121194422245026 0.05674660950899124 0.8825801610946655
v -0.013748694211244583 0.049156635999679565 0.8945062756538391
v -0.01902802288532257 0.049401018768548965 0.8930424451828003
v -0.03510616347193718 0.06475590169429779 0.8716322183609009
v -0.04645552486181259 0.0861603245139122 0.8649400472640991
v -0.04570820927619934 0.0901440903544426 0.8725972771644592
v -0.0456480011343956 0.06565948575735092 0.8714252710342407
v -0.08041398227214813 0.11536701768636703 0.8926301598548889
v -0.08439424633979797 0.11234677582979202 0.8935669660568237
v -0.04741948843002319 0.09007933735847473 0.8925630450248718
v -0.029072105884552002 0.061684802174568176 0.8508971929550171
v -0.04302677512168884 0.08256684243679047 0.8605708479881287
v -0.04936107620596886 0.08076340705156326 0.8613600730895996
v -0.019688375294208527 0.06399181485176086 0.8269723057746887
v 0.045224644243717194 0.10582704842090607 0.8808223605155945
v -0.08092721551656723 0.09914878010749817 0.8819036483764648
v -0.08390775322914124 0.10678404569625854 0.8787823915481567
v -0.0743013247847557 0.11580781638622284 0.8832306265830994
v -0.07514048367738724 0.11630596965551376 0.8887573480606079
v 0.03064124286174774 0.06679610908031464 0.84272700548172
v 0.00953221321105957 0.06268554925918579 0.8712090253829956
v -0.01646392047405243 0.06663981825113297 0.9141549468040466
v -0.02600286900997162 0.056622810661792755 0.9106475710868835
v -0.05427881330251694 0.06821733713150024 0.8707031011581421
v -0.02816702052950859 0.0793536826968193 0.8371248245239258
v -0.03556983917951584 0.08570662885904312 0.8516581654548645
v -0.03888717666268349 0.08686317503452301 0.8518422842025757
v -0.044413477182388306 0.08661306649446487 0.8562799692153931
v -0.05129498243331909 0.08338230848312378 0.8566854596138
v -0.07696782797574997 0.11862692981958389 0.8810104727745056
v -0.07852528244256973 0.12068323791027069 0.8862929940223694
v -0.08356421440839767 0.12100175023078918 0.8887284994125366
v -0.08773818612098694 0.11785610020160675 0.8897780776023865
v -0.08937731385231018 0.11313846707344055 0.889123797416687
v -0.07909044623374939 0.1164989098906517 0.8779211640357971
v -0.08153258264064789 0.11396067589521408 0.8764985799789429
v -0.08545780926942825 0.10916958004236221 0.8781315088272095
v -0.07973598688840866 0.11813084781169891 0.8747506737709045
v -0.07875247299671173 0.12253613024950027 0.8761631846427917
v -0.08791874349117279 0.13042668998241425 0.8790354132652283
v -0.08450667560100555 0.12734860181808472 0.8823429346084595
v -0.08392051607370377 0.1284734308719635 0.8801653385162354
v -0.08573300391435623 0.1315527856349945 0.8770281076431274
v -0.08619143068790436 0.13465413451194763 0.8732336759567261
v -0.08918207883834839 0.13374063372612 0.875011146068573
v -0.08071102946996689 0.12555010616779327 0.8795007467269897
v -0.08242979645729065 0.12954314053058624 0.8750002384185791
v -0.08056972175836563 0.1271432489156723 0.87211674451828
v -0.08109067380428314 0.13108500838279724 0.8687165975570679
v -0.08278688788414001 0.13360075652599335 0.8712284564971924
v -0.07959233224391937 0.12472265958786011 0.8755250573158264
v -0.08015847206115723 0.12464740872383118 0.8808388710021973
v -0.08848171681165695 0.13527312874794006 0.8709407448768616
v -0.08604385703802109 0.13602276146411896 0.8708298206329346
v -0.08362722396850586 0.13495014607906342 0.868857204914093
v -0.08579786866903305 0.13491912186145782 0.866778552532196
v -0.08858059346675873 0.12321607768535614 0.885495126247406
v -0.09001295268535614 0.12906070053577423 0.8791792392730713
v -0.09090439975261688 0.1314086616039276 0.8739708662033081
v -0.09004556387662888 0.13313232362270355 0.8700106739997864
v -0.09184449166059494 0.12650611996650696 0.8768068552017212
v -0.09151691943407059 0.12893307209014893 0.8725973963737488
v -0.09077978134155273 0.13010935485363007 0.8688617944717407
v -0.09216099232435226 0.1236778199672699 0.8737612962722778
v -0.09142511337995529 0.12661921977996826 0.8704942464828491
v -0.09148314595222473 0.11425209790468216 0.8835246562957764
v -0.09062325954437256 0.11785587668418884 0.885883092880249
v -0.09123443812131882 0.12812726199626923 0.8683194518089294
v -0.08688627183437347 0.133117213845253 0.8659751415252686
v -0.08018863946199417 0.12374746054410934 0.8709716200828552
v -0.08186947554349899 0.12841738760471344 0.8667348027229309
v -0.08111117035150528 0.12205295264720917 0.8699970245361328
v -0.08260654658079147 0.12641453742980957 0.8654636740684509
v -0.08267119526863098 0.13188806176185608 0.8646934628486633
v -0.08219403028488159 0.13297927379608154 0.8670709729194641
v -0.0893150195479393 0.10929305851459503 0.8859929442405701
v -0.08769048750400543 0.10789250582456589 0.8812679648399353
v -0.08917123824357986 0.11154633015394211 0.8790741562843323
v -0.090365931391716 0.12097220122814178 0.8705449104309082
v -0.08629655092954636 0.11181776225566864 0.8757284879684448
v -0.08192610740661621 0.11617612838745117 0.8731775879859924
v -0.08303719758987427 0.12098591774702072 0.8685701489448547
v -0.08611910790205002 0.12003307789564133 0.8683903217315674
v -0.08442504703998566 0.12461726367473602 0.8655343055725098
v -0.08681457489728928 0.12391472607851028 0.8662989735603333
v -0.08999486267566681 0.12461830675601959 0.8679267168045044
v -0.0861721783876419 0.12781327962875366 0.8643233776092529
v -0.08406397700309753 0.13001318275928497 0.8640635013580322
v -0.08854544162750244 0.13015176355838776 0.8657466173171997
v -0.08733069151639938 0.12630802392959595 0.8651674389839172
v -0.08931155502796173 0.1277271807193756 0.866669774055481
v -0.07966578006744385 0.10042957961559296 0.8474947810173035
v -0.07444066554307938 0.09922683984041214 0.8446928858757019
v -0.07483227550983429 0.09095767885446548 0.8496389389038086
v -0.078433558344841 0.09274988621473312 0.8531144857406616
v -0.07595119625329971 0.10441067814826965 0.8592318892478943
v -0.08042939752340317 0.1034175455570221 0.8558574914932251
v -0.07761259377002716 0.099387988448143 0.8608334064483643
v -0.07172750681638718 0.1018461287021637 0.8616577386856079
v -0.07006564736366272 0.10436302423477173 0.8585726618766785
v -0.06635431945323944 0.10130961984395981 0.859416663646698
v -0.06787578761577606 0.10228260606527328 0.8637985587120056
v -0.07351190596818924 0.09803740680217743 0.8643854260444641
v -0.06046710163354874 0.0861746072769165 0.8752359747886658
v -0.05625426769256592 0.09176160395145416 0.8738446235656738
v -0.05853869020938873 0.07343257963657379 0.8624839782714844
v -0.05700915679335594 0.07678766548633575 0.8606417775154114
v -0.08128690719604492 0.10201805084943771 0.8512944579124451
v -0.07948803901672363 0.09610281884670258 0.8573692440986633
v -0.0665866807103157 0.08877278119325638 0.8480438590049744
v -0.07112292945384979 0.08698013424873352 0.8503121137619019
v -0.07092228531837463 0.09087904542684555 0.8465349674224854
v -0.06652621179819107 0.09274964034557343 0.8462941646575928
v -0.062478505074977875 0.07724669575691223 0.8730502724647522
v -0.060101158916950226 0.07372283935546875 0.8682528734207153
v -0.06234949454665184 0.08154953271150589 0.8742012977600098
v -0.06219959259033203 0.09322310984134674 0.849168598651886
v -0.05969611182808876 0.09838640689849854 0.8526247143745422
v -0.049771301448345184 0.08998771011829376 0.8617545366287231
v -0.05214080587029457 0.08424186706542969 0.8590484261512756
v -0.07671526074409485 0.09396979212760925 0.8622243404388428
v -0.07485057413578033 0.08750014007091522 0.8544312715530396
v -0.07711564004421234 0.08976142108440399 0.858170211315155
v -0.06257347017526627 0.10191983729600906 0.8590582609176636
v -0.06268755346536636 0.09988132119178772 0.8534167408943176
v -0.061541467905044556 0.11358431726694107 0.8470345139503479
v -0.06326061487197876 0.1014476791024208 0.8502854108810425
v -0.06544318795204163 0.10039432346820831 0.8459159731864929
v -0.06277387589216232 0.11273179948329926 0.842258870601654
v -0.06353522092103958 0.09589114785194397 0.849429190158844
v -0.06499715894460678 0.10302312672138214 0.8548385500907898
v -0.07574408501386642 0.11574749648571014 0.840930700302124
v -0.07048999518156052 0.114073246717453 0.8381372690200806
v -0.07772547751665115 0.11739470064640045 0.8446820974349976
v -0.05160059407353401 0.09348037838935852 0.8679934740066528
v -0.0744529440999031 0.11776929348707199 0.8539465665817261
v -0.07794755697250366 0.11782833933830261 0.8488909602165222
v -0.06919864565134048 0.09944935888051987 0.8436917662620544
v -0.06582755595445633 0.11320750415325165 0.838921844959259
v -0.06261514127254486 0.11498357355594635 0.8513439297676086
v -0.06843253970146179 0.11591173708438873 0.855574905872345
v -0.061533860862255096 0.11896921694278717 0.8464811444282532
v -0.06545579433441162 0.1219058483839035 0.8505817651748657
v -0.07096095383167267 0.12427031993865967 0.8492134213447571
v -0.07503414154052734 0.12397763133049011 0.845175564289093
v -0.07598227262496948 0.12224920094013214 0.84183269739151
v -0.06119150668382645 0.11761747300624847 0.8428337574005127
v -0.0628814622759819 0.11687219142913818 0.838607668876648
v -0.06705522537231445 0.11605110764503479 0.8367047905921936
v -0.05999772250652313 0.12078626453876495 0.8374272584915161
v -0.05934496223926544 0.12328188121318817 0.8403978943824768
v -0.0649264007806778 0.1386532485485077 0.8352532386779785
v -0.06650011986494064 0.13498787581920624 0.839303195476532
v -0.06394828110933304 0.1346098929643631 0.8395949602127075
v -0.06226995587348938 0.13798779249191284 0.8360094428062439
v -0.06652764976024628 0.1311475932598114 0.84391188621521
v -0.06421911716461182 0.13154040277004242 0.8426613807678223
v -0.06140034645795822 0.128048837184906 0.842557430267334
v -0.06023499742150307 0.13186611235141754 0.8385404348373413
v -0.058007191866636276 0.127972811460495 0.8367621898651123
v -0.05584908649325371 0.13161861896514893 0.8336150050163269
v -0.05775369331240654 0.13575881719589233 0.8353999257087708
v -0.05905703082680702 0.12633712589740753 0.8400419354438782
v -0.06044352799654007 0.13943494856357574 0.8335078358650208
v -0.06157539039850235 0.14010649919509888 0.8312562108039856
v -0.06270731985569 0.12652838230133057 0.8446030020713806
v -0.07236684858798981 0.1284548044204712 0.8434191346168518
v -0.06894497573375702 0.13470785319805145 0.8375681638717651
v -0.06667103618383408 0.1380830556154251 0.8326743841171265
v -0.06227191537618637 0.13872738182544708 0.8286383748054504
v -0.07009989023208618 0.13299107551574707 0.8340675234794617
v -0.06708147376775742 0.13622790575027466 0.8301170468330383
v -0.0631025955080986 0.1365155279636383 0.8272585868835449
v -0.06980806589126587 0.13012529909610748 0.830439031124115
v -0.06633291393518448 0.13323301076889038 0.8272645473480225
v -0.07443957030773163 0.12273028492927551 0.8369675874710083
v -0.07482654601335526 0.12584131956100464 0.8401432633399963
v -0.06413638591766357 0.1344669610261917 0.8266274929046631
v -0.05708389729261398 0.1384235918521881 0.8301862478256226
v -0.05855007469654083 0.13717803359031677 0.82737797498703
v -0.057054921984672546 0.13795208930969238 0.8320103287696838
v -0.0575530007481575 0.12634114921092987 0.8354811668395996
v -0.05584510415792465 0.13042624294757843 0.8316655158996582
v -0.05794990062713623 0.12483153492212296 0.8332726955413818
v -0.05620236694812775 0.12961886823177338 0.8294326663017273
v -0.055074211210012436 0.1341400146484375 0.8294854164123535
v -0.055127255618572235 0.13499832153320312 0.8309987187385559
v -0.07461521029472351 0.11956244707107544 0.8389458656311035
v -0.07059694081544876 0.11688077449798584 0.8366981744766235
v -0.07135362923145294 0.11926481872797012 0.834632933139801
v -0.06697451323270798 0.12657563388347626 0.8284905552864075
v -0.0671815574169159 0.11770042032003403 0.8344480395317078
v -0.06216389685869217 0.11919631063938141 0.8352094292640686
v -0.05973014980554581 0.12375116348266602 0.8314054012298584
v -0.06284502893686295 0.12436235696077347 0.8291309475898743
v -0.05714251846075058 0.12839247286319733 0.8278234601020813
v -0.060295309871435165 0.12757213413715363 0.8271746039390564
v -0.06425227224826813 0.13004818558692932 0.8261749744415283
v -0.056803926825523376 0.13238927721977234 0.8261520266532898
v -0.055537160485982895 0.133553147315979 0.8278478980064392
v -0.059834737330675125 0.13566046953201294 0.8263460993766785
v -0.05926275998353958 0.13075150549411774 0.8257397413253784
v -0.06187255680561066 0.13329491019248962 0.8256835341453552
v -0.06901948899030685 0.10083966702222824 0.8366158604621887
v -0.06590567529201508 0.09915369749069214 0.832561194896698
v -0.06662508845329285 0.09090724587440491 0.8331464529037476
v -0.06938168406486511 0.09380482137203217 0.8380563855171204
v -0.06154852360486984 0.10023176670074463 0.8469972610473633
v -0.06604421138763428 0.10109137743711472 0.8449851274490356
v -0.06634059548377991 0.09679064154624939 0.8455609083175659
v -0.06118455529212952 0.09567832946777344 0.8475474119186401
v -0.05630090832710266 0.10065649449825287 0.8455448150634766
v -0.055755943059921265 0.09586615115404129 0.8456851243972778
v -0.05745484679937363 0.0961461216211319 0.849696934223175
v -0.06361123919487 0.09453058987855911 0.8481221795082092
v -0.05409305915236473 0.0863417237997055 0.8543744087219238
v -0.04824405536055565 0.09048527479171753 0.8545364737510681
v -0.06852520257234573 0.10140116512775421 0.8408949375152588
v -0.06899777799844742 0.09621256589889526 0.842299222946167
v -0.05618094652891159 0.08667749166488647 0.8323332071304321
v -0.06008042022585869 0.08525300025939941 0.8345686793327332
v -0.06171074137091637 0.09106701612472534 0.830479085445404
v -0.0574025958776474 0.09254972636699677 0.8306347131729126
v -0.05576228350400925 0.07599882781505585 0.8512176871299744
v -0.05167771503329277 0.0740336924791336 0.846809983253479
v -0.056892164051532745 0.08130521327257156 0.8527270555496216
v -0.0518832691013813 0.08977623283863068 0.834421694278717
v -0.04910426586866379 0.09403476119041443 0.8399837017059326
v -0.04145580530166626 0.08752588927745819 0.8434382081031799
v -0.04376552253961563 0.08222033083438873 0.8409833908081055
v -0.06641057878732681 0.0920242965221405 0.8461321592330933
v -0.0638924390077591 0.08529774099588394 0.8377662301063538
v -0.06709382683038712 0.08819722384214401 0.8422802686691284
v -0.052119337022304535 0.0966181755065918 0.8461773991584778
v -0.05302390828728676 0.09449440985918045 0.8400964140892029
v -0.050449442118406296 0.11502513289451599 0.83690345287323
v -0.05295918136835098 0.09787064790725708 0.8343871235847473
v -0.05653039738535881 0.09879753738641739 0.8308545351028442
v -0.05217934399843216 0.11593496799468994 0.8331494927406311
v -0.05381330847740173 0.09361204504966736 0.8337246179580688
v -0.05253725126385689 0.09890660643577576 0.8404634594917297
v -0.06431275606155396 0.11897656321525574 0.83604896068573
v -0.06099173426628113 0.11711017787456512 0.8321352601051331
v -0.06470037251710892 0.11793150007724762 0.839961588382721
v -0.04267435520887375 0.09146375954151154 0.8502424955368042
v -0.04712313041090965 0.07635155320167542 0.841921865940094
v -0.060135457664728165 0.1173638254404068 0.8452962040901184
v -0.06352323293685913 0.11790958791971207 0.8430424332618713
v -0.0608418844640255 0.09842124581336975 0.830573320388794
v -0.055945564061403275 0.11654769629240036 0.8310866355895996
v -0.05142803490161896 0.11463802307844162 0.8411556482315063
v -0.055115342140197754 0.11527100205421448 0.8451988101005554
v -0.049727968871593475 0.11864970624446869 0.8394373059272766
v -0.05323203280568123 0.11975748836994171 0.8436158895492554
v -0.05700721591711044 0.12238538265228271 0.8446151614189148
v -0.06012542173266411 0.12355909496545792 0.8428569436073303
v -0.06181318312883377 0.12395688891410828 0.8399133086204529
v -0.049196381121873856 0.11953091621398926 0.8353934288024902
v -0.05118719860911369 0.1205216646194458 0.8324078321456909
v -0.05529777333140373 0.1198950782418251 0.8314016461372375
v -0.04749251529574394 0.12270959466695786 0.8338853716850281
v -0.04630313813686371 0.12368196994066238 0.8388541340827942
v -0.04738190770149231 0.13855242729187012 0.8435107469558716
v -0.05024949833750725 0.1340259611606598 0.8436715602874756
v -0.04904225841164589 0.1335696280002594 0.8437309861183167
v -0.04585257172584534 0.13795873522758484 0.843921422958374
v -0.05214076116681099 0.12766602635383606 0.8445121049880981
v -0.050011757761240005 0.12887437641620636 0.8443312644958496
v -0.04790666699409485 0.12628407776355743 0.8428131341934204
v -0.04449376463890076 0.1316271722316742 0.8423172831535339
v -0.04286542534828186 0.1294267177581787 0.8372547626495361
v -0.04086720943450928 0.13365110754966736 0.8376740217208862
v -0.04188205301761627 0.1358126848936081 0.842524528503418
v -0.04534643888473511 0.1254398077726364 0.8394567370414734
v -0.04364027827978134 0.1397377848625183 0.8430735468864441
v -0.04448752477765083 0.14150682091712952 0.8438062071800232
v -0.04978549852967262 0.12447575479745865 0.8428842425346375
v -0.056628260761499405 0.12832742929458618 0.8438994884490967
v -0.05265602469444275 0.1351117491722107 0.8428370952606201
v -0.0501016303896904 0.1403331458568573 0.8425092697143555
v -0.04675156623125076 0.14239123463630676 0.8409756422042847
v -0.054384052753448486 0.1355505883693695 0.8396369814872742
v -0.051269758492708206 0.14008387923240662 0.8395079374313354
v -0.04828222841024399 0.14214424788951874 0.8382591605186462
v -0.05487857758998871 0.13499972224235535 0.8365417122840881
v -0.05153220146894455 0.13911546766757965 0.836430013179779
v -0.060493916273117065 0.12579534947872162 0.8367847204208374
v -0.05933080241084099 0.12740997970104218 0.840856671333313
v -0.04896608740091324 0.14109507203102112 0.8364210724830627
v -0.040741488337516785 0.14024338126182556 0.841092050075531
v -0.04262232407927513 0.14157885313034058 0.8375604152679443
v -0.04145894944667816 0.1386585682630539 0.8414151668548584
v -0.043172016739845276 0.12851032614707947 0.8356313109397888
v -0.040132198482751846 0.13391399383544922 0.835390031337738
v -0.044571101665496826 0.1284545660018921 0.8330998420715332
v -0.041462384164333344 0.13410809636116028 0.8328090310096741
v -0.0392569825053215 0.13720449805259705 0.8372264504432678
v -0.03976079076528549 0.1368599534034729 0.8382711410522461
v -0.06194547563791275 0.12246862053871155 0.8359798789024353
v -0.05936478078365326 0.12102102488279343 0.8324002027511597
v -0.05871899425983429 0.12442603707313538 0.8329864144325256
v -0.052941858768463135 0.1341434121131897 0.8329833149909973
v -0.055047281086444855 0.12281068414449692 0.8312401175498962
v -0.04961790144443512 0.12413010001182556 0.8317387104034424
v -0.046859096735715866 0.12979428470134735 0.8315237760543823
v -0.049620650708675385 0.13199308514595032 0.8313279747962952
v -0.04376353323459625 0.13486993312835693 0.8313717246055603
v -0.046591535210609436 0.13540278375148773 0.8317835330963135
v -0.05003859102725983 0.1382530927658081 0.8330867886543274
v -0.043081916868686676 0.13824285566806793 0.8334012627601624
v -0.040536921471357346 0.13791221380233765 0.8347541093826294
v -0.04499166086316109 0.1415610909461975 0.835525393486023
v -0.04546688497066498 0.13825280964374542 0.8327121734619141
v -0.04703747481107712 0.14072555303573608 0.8342704176902771
v -0.04889332130551338 0.07390891015529633 0.8436300158500671
v -0.053000759333372116 0.06721147894859314 0.8389557600021362
v -0.05486416444182396 0.06383892148733139 0.8378174304962158
v -0.05110474303364754 0.06261895596981049 0.8354492783546448
v -0.04860909655690193 0.06563696265220642 0.8369801640510559
v -0.05375961586833 0.07547689974308014 0.832191526889801
v -0.052886154502630234 0.07374993711709976 0.8362661600112915
v -0.04894889518618584 0.07337837666273117 0.8337528705596924
v -0.04939783364534378 0.07505256682634354 0.8292586803436279
v -0.05597182363271713 0.0742127001285553 0.827755868434906
v -0.05154332146048546 0.07356536388397217 0.824748158454895
v -0.04661889374256134 0.07675442099571228 0.8296951055526733
v -0.04651200771331787 0.07436592876911163 0.8340603113174438
v -0.03547287732362747 0.076422780752182 0.8372320532798767
v -0.03368993103504181 0.07913269102573395 0.8334261178970337
v -0.026169974356889725 0.06390686333179474 0.8266847133636475
v -0.026379749178886414 0.060753561556339264 0.8309468030929565
v -0.033903155475854874 0.06148795410990715 0.8298851847648621
v -0.033080101013183594 0.06311126798391342 0.8258982300758362
v -0.05254097655415535 0.07075256109237671 0.8383394479751587
v -0.04891397804021835 0.06947551667690277 0.8368361592292786
v -0.04811082035303116 0.0603574737906456 0.82637619972229
v -0.0479854941368103 0.05950189754366875 0.8308638334274292
v -0.05290164798498154 0.060272570699453354 0.832768440246582
v -0.05512179806828499 0.06040041893720627 0.8285316824913025
v -0.029671739786863327 0.06110234931111336 0.8350242376327515
v -0.0326324999332428 0.06277700513601303 0.8377799391746521
v -0.03549308702349663 0.06454375386238098 0.837494432926178
v -0.035349491983652115 0.06224978342652321 0.8341113328933716
v -0.03703487291932106 0.06957270205020905 0.8393329381942749
v -0.048484787344932556 0.06325343251228333 0.8232250213623047
v -0.04816911369562149 0.06917351484298706 0.8213721513748169
v -0.03137912601232529 0.0714990645647049 0.8221688270568848
v -0.03139718621969223 0.0667957216501236 0.8231457471847534
v -0.04641088470816612 0.0705978199839592 0.836624026298523
v -0.04787394404411316 0.06146766245365143 0.8347694277763367
v -0.046573419123888016 0.06556378304958344 0.8365803956985474
v -0.04655783250927925 0.07523026317358017 0.8243311643600464
v -0.05474724620580673 0.06879253685474396 0.8229694366455078
v -0.06789171695709229 0.06614134460687637 0.8323087096214294
v -0.060895632952451706 0.06447512656450272 0.8273403644561768
v -0.05990971252322197 0.06187504529953003 0.8309234380722046
v -0.06698285043239594 0.06377126276493073 0.8344042301177979
v -0.054797254502773285 0.06354312598705292 0.8247222900390625
v -0.05990811064839363 0.06967481970787048 0.8261454105377197
v -0.05979178473353386 0.0679376870393753 0.8434997200965881
v -0.06203174218535423 0.06413324922323227 0.8409302830696106
v -0.05923068895936012 0.07110290974378586 0.843437135219574
v -0.032333675771951675 0.07826931029558182 0.8270281553268433
v -0.061544839292764664 0.07618992775678635 0.8387729525566101
v -0.060191452503204346 0.07405971735715866 0.8422876596450806
v -0.05728984996676445 0.062140896916389465 0.835030734539032
v -0.0648275762796402 0.06283856928348541 0.8375865817070007
v -0.06738006323575974 0.07066895812749863 0.8316903114318848
v -0.06419298052787781 0.07528743892908096 0.8337005972862244
v -0.07065033912658691 0.07183007895946503 0.835020899772644
v -0.0677519291639328 0.07534931600093842 0.8374399542808533
v -0.06497164070606232 0.07499698549509048 0.8436805009841919
v -0.06285078823566437 0.07230844348669052 0.8452433347702026
v -0.061874933540821075 0.06929115951061249 0.8456178903579712
v -0.07054735720157623 0.06680061668157578 0.8346632122993469
v -0.0691743940114975 0.06426246464252472 0.8358974456787109
v -0.06629112362861633 0.06286291778087616 0.838338315486908
v -0.07371127605438232 0.0672711730003357 0.837471604347229
v -0.07451976835727692 0.07062670588493347 0.8406804800033569
v -0.07554126530885696 0.06497425585985184 0.8525485396385193
v -0.07238695025444031 0.06684515625238419 0.8510129451751709
v -0.07315553724765778 0.06740713864564896 0.8503915071487427
v -0.07614490389823914 0.06585444509983063 0.852398693561554
v -0.06942836940288544 0.07067783921957016 0.8484843373298645
v -0.07110568881034851 0.07008284330368042 0.8482890129089355
v -0.07204058021306992 0.071567103266716 0.8451130390167236
v -0.07581474632024765 0.06914059072732925 0.8474966883659363
v -0.07820367813110352 0.06716840714216232 0.8431674242019653
v -0.08087284862995148 0.06557583808898926 0.8455310463905334
v -0.0786653533577919 0.06774558871984482 0.8491259217262268
v -0.07507015019655228 0.07029611617326736 0.8424410223960876
v -0.07871472090482712 0.065523661673069 0.8530412316322327
v -0.07910966128110886 0.06448182463645935 0.853882908821106
v -0.07097350060939789 0.07367188483476639 0.8438977599143982
v -0.06628789752721786 0.06839732080698013 0.8489996194839478
v -0.07157131284475327 0.06461946666240692 0.8519757986068726
v -0.07585626095533371 0.06290706992149353 0.8537083268165588
v -0.07951471954584122 0.06224726140499115 0.8535515666007996
v -0.07032450288534164 0.062809519469738 0.8508145809173584
v -0.07533101737499237 0.06076919287443161 0.8531493544578552
v -0.07880715280771255 0.06015174090862274 0.8528677821159363
v -0.06989720463752747 0.06054341793060303 0.8484793901443481
v -0.07485006004571915 0.05926908180117607 0.8510470390319824
v -0.06445108354091644 0.06329391151666641 0.8453397750854492
v -0.0649234801530838 0.06572338938713074 0.8478055596351624
v -0.07786925882101059 0.05943353474140167 0.8515332341194153
v -0.08206401020288467 0.0648576021194458 0.8513520956039429
v -0.08179015666246414 0.06191123276948929 0.8511692881584167
v -0.08149352669715881 0.06619415432214737 0.8506446480751038
v -0.07832260429859161 0.06647446751594543 0.8420247435569763
v -0.08156080543994904 0.0642429068684578 0.8448700904846191
v -0.07785399258136749 0.06445978581905365 0.8407736420631409
v -0.0811932161450386 0.062153901904821396 0.8444976210594177
v -0.08294715732336044 0.06382595002651215 0.8479762077331543
v -0.08202493190765381 0.06543249636888504 0.8479715585708618
v -0.06230096146464348 0.06554000079631805 0.8447653651237488
v -0.06345929950475693 0.06376070529222488 0.8417866826057434
v -0.06573095917701721 0.06205720081925392 0.8419399261474609
v -0.07109379768371582 0.059391800314188004 0.8449679613113403
v -0.06880216300487518 0.06243349239230156 0.8383321762084961
v -0.07181425392627716 0.06467000395059586 0.8369343280792236
v -0.07649527490139008 0.062221694737672806 0.8406471014022827
v -0.07429463416337967 0.060083914548158646 0.8418285846710205
v -0.08020377159118652 0.0603073388338089 0.8449440598487854
v -0.0778963714838028 0.05862214416265488 0.8457705974578857
v -0.07569130510091782 0.058131538331508636 0.8480852842330933
v -0.08130575716495514 0.060178495943546295 0.848555326461792
v -0.08254504203796387 0.06157836690545082 0.8483799695968628
v -0.08070928603410721 0.060197316110134125 0.8507326245307922
v -0.07976488769054413 0.05904516205191612 0.8485562205314636
v -0.07888775318861008 0.05899142473936081 0.8499284982681274
v -0.027410557493567467 0.06717758625745773 0.8248994946479797
v -0.03728083148598671 0.04653386026620865 0.9007759690284729
v -0.03493194282054901 0.04764770716428757 0.8957574963569641
v -0.024181503802537918 0.03525742143392563 0.8933296799659729
v -0.027905358001589775 0.04092429578304291 0.8901822566986084
v -0.024472422897815704 0.03148619458079338 0.8993484377861023
v -0.03002573549747467 0.033032357692718506 0.9083528518676758
v -0.026006881147623062 0.03175748884677887 0.9049634337425232
v -0.03140154108405113 0.045293159782886505 0.8915437459945679
v -0.03704484552145004 0.043554384261369705 0.9056212902069092
v -0.03415518254041672 0.03789440542459488 0.9094236493110657
v -0.04627219960093498 0.03568931668996811 0.9010570645332336
v -0.041720882058143616 0.02968529239296913 0.9041767716407776
v -0.03605082631111145 0.024960994720458984 0.9017480611801147
v -0.030523791909217834 0.02640065923333168 0.8984873294830322
v -0.02775746025145054 0.02769562229514122 0.89487624168396
v -0.04331914335489273 0.04183477908372879 0.8966238498687744
v -0.04019365459680557 0.04390863701701164 0.8922391533851624
v -0.03470546007156372 0.042327508330345154 0.88893061876297
v -0.04709866642951965 0.03829171881079674 0.890103816986084
v -0.04731426388025284 0.030766718089580536 0.8842772245407104
v -0.03632961958646774 0.01940670609474182 0.8731516003608704
v -0.03473315387964249 0.02085736021399498 0.8793161511421204
v -0.037488970905542374 0.021038711071014404 0.8794866800308228
v -0.03874821960926056 0.019274406135082245 0.8739784359931946
v -0.0364384800195694 0.02137189358472824 0.8846731185913086
v -0.038252852857112885 0.022203177213668823 0.8835293054580688
v -0.04250718653202057 0.025553792715072632 0.8850783705711365
v -0.04330624267458916 0.023741528391838074 0.8795605897903442
v -0.045462463051080704 0.02904682606458664 0.8831210136413574
v -0.0459093414247036 0.029246151447296143 0.8788408041000366
v -0.04406092315912247 0.022445514798164368 0.8742137551307678
v -0.04116041213274002 0.018902353942394257 0.8710837960243225
v -0.04438462853431702 0.021442145109176636 0.8698585033416748
v -0.03916798532009125 0.019481241703033447 0.8691225647926331
v -0.04547325521707535 0.023623373359441757 0.8870822191238403
v -0.03167346492409706 0.022904612123966217 0.8888055086135864
v -0.03153485804796219 0.02219884842634201 0.8798468708992004
v -0.03367052227258682 0.021475695073604584 0.8724679350852966
v -0.037348292768001556 0.021608807146549225 0.8679496645927429
v -0.0292744692414999 0.025447342544794083 0.8791026473045349
v -0.031992800533771515 0.025290597230196 0.8725224137306213
v -0.0359584279358387 0.025900457054376602 0.8685020804405212
v -0.029498443007469177 0.029995914548635483 0.8781462907791138
v -0.032680243253707886 0.02895471081137657 0.8726015090942383
v -0.02744835987687111 0.03267290070652962 0.8882973194122314
v -0.027867529541254044 0.02713998407125473 0.8897591233253479
v -0.03561429679393768 0.028183136135339737 0.869767427444458
v -0.04423165321350098 0.021807551383972168 0.8675482273101807
v -0.042378708720207214 0.024290986359119415 0.866417407989502
v -0.04684387519955635 0.032266877591609955 0.8789598345756531
v -0.04729640111327171 0.02764129638671875 0.8741009831428528
v -0.04709415137767792 0.03015238791704178 0.8733229041099548
v -0.0459100641310215 0.03594202175736427 0.8793873190879822
v -0.04609772562980652 0.032708849757909775 0.8726188540458679
v -0.04679561406373978 0.026661984622478485 0.8692810535430908
v -0.046698518097400665 0.024938389658927917 0.87107914686203
v -0.026461442932486534 0.03240516036748886 0.8909357786178589
v -0.029322922229766846 0.03811488300561905 0.8887746334075928
v -0.031120674684643745 0.038441501557826996 0.887256383895874
v -0.0328037291765213 0.035417214035987854 0.8781977891921997
v -0.036991968750953674 0.042115699499845505 0.8865094184875488
v -0.04332514852285385 0.04156607389450073 0.8884490132331848
v -0.043249450623989105 0.03845079988241196 0.8785852789878845
v -0.03826325386762619 0.03865166753530502 0.8784214854240417
v -0.04312855005264282 0.03440533205866814 0.8722472190856934
v -0.040160760283470154 0.03447064384818077 0.8724541664123535
v -0.03552933782339096 0.03238959237933159 0.8720487356185913
v -0.04262831434607506 0.030736051499843597 0.8687320947647095
v -0.04533069580793381 0.02915019914507866 0.8685137629508972
v -0.03994422405958176 0.02769574522972107 0.8673511743545532
v -0.040477998554706573 0.03176676109433174 0.870027482509613
v -0.03819221630692482 0.029831666499376297 0.869317889213562
v -0.0200890451669693 0.05993271991610527 0.8323387503623962
v -0.023253604769706726 0.05922931805253029 0.8378028273582458
v -0.0162326879799366 0.058471325784921646 0.8382041454315186
v -0.006617385894060135 0.05758565664291382 0.8403011560440063
v 0.0035978034138679504 0.05926438048481941 0.8371310830116272
v -0.008573472499847412 0.05850634723901749 0.8467846512794495
v -0.018353670835494995 0.05929199606180191 0.8442205786705017
v -0.02852022647857666 0.06103312596678734 0.8431838154792786
v -0.0022675953805446625 0.06022622808814049 0.8548933863639832
f 2 3 1
f 1 3 4
f 5 6 8
f 8 6 7
f 9 4 10
f 10 4 3
f 12 13 11
f 11 13 9
f 14 12 16
f 16 12 15
f 18 19 17
f 17 19 20
f 22 23 21
f 21 23 24
f 26 27 25
f 25 27 28
f 30 31 29
f 29 31 32
f 33 34 36
f 36 34 35
f 37 38 40
f 40 38 39
f 41 42 6
f 6 42 43
f 6 43 7
f 7 43 44
f 45 34 46
f 46 34 33
f 48 49 47
f 47 49 50
f 52 53 51
f 51 53 54
f 56 52 55
f 55 52 51
f 58 59 57
f 57 59 60
f 61 62 4
f 4 62 1
f 64 65 63
f 63 65 66
f 68 69 67
f 67 69 70
f 72 73 71
f 71 73 74
f 76 77 75
f 75 77 78
f 53 79 54
f 54 79 80
f 82 83 81
f 81 83 84
f 85 86 52
f 52 86 53
f 57 60 87
f 87 60 88
f 89 90 43
f 43 90 44
f 43 42 89
f 89 42 91
f 40 39 92
f 92 39 93
f 94 70 64
f 64 70 69
f 13 61 9
f 9 61 4
f 25 28 69
f 69 28 95
f 96 25 68
f 68 25 69
f 98 99 97
f 97 99 100
f 101 102 104
f 104 102 103
f 106 30 105
f 105 30 29
f 51 54 107
f 107 54 108
f 54 80 108
f 108 80 109
f 111 112 110
f 110 112 113
f 115 5 114
f 114 5 116
f 115 41 5
f 5 41 6
f 36 35 111
f 111 35 117
f 35 118 117
f 117 118 119
f 34 120 35
f 35 120 118
f 34 45 120
f 120 45 121
f 125 126 124
f 124 126 127
f 128 129 14
f 14 129 130
f 33 131 46
f 46 131 132
f 133 94 63
f 63 94 64
f 134 135 137
f 137 135 136
f 139 140 138
f 138 140 141
f 77 142 78
f 78 142 143
f 144 145 20
f 20 145 146
f 148 149 147
f 147 149 72
f 151 152 150
f 150 152 153
f 82 101 83
f 83 101 104
f 101 82 155
f 155 82 154
f 156 157 58
f 58 157 59
f 158 68 147
f 147 68 67
f 159 146 15
f 15 146 16
f 68 158 96
f 96 158 160
f 129 66 130
f 130 66 65
f 162 163 161
f 161 163 164
f 166 167 165
f 165 167 168
f 170 171 169
f 169 171 172
f 174 171 173
f 173 171 170
f 176 177 175
f 175 177 178
f 180 181 179
f 179 181 24
f 182 183 21
f 21 183 184
f 81 185 82
f 82 185 154
f 186 187 188
f 188 187 144
f 158 71 160
f 160 71 189
f 190 135 157
f 157 135 59
f 169 172 139
f 139 172 140
f 147 72 158
f 158 72 71
f 192 193 191
f 191 193 194
f 167 166 49
f 49 166 195
f 196 190 50
f 50 190 157
f 197 198 200
f 200 198 199
f 21 24 182
f 182 24 181
f 146 159 20
f 20 159 17
f 182 181 81
f 81 181 185
f 201 185 180
f 180 185 181
f 202 203 83
f 83 203 84
f 205 206 204
f 204 206 85
f 207 22 184
f 184 22 21
f 179 24 208
f 208 24 23
f 208 209 179
f 179 209 205
f 209 210 205
f 205 210 206
f 212 206 211
f 211 206 210
f 179 205 180
f 180 205 204
f 213 176 88
f 88 176 214
f 86 85 212
f 212 85 206
f 193 217 218
f 217 219 218
f 218 219 220
f 219 18 220
f 220 18 17
f 19 221 20
f 20 221 144
f 222 223 225
f 225 223 224
f 175 226 176
f 176 226 214
f 227 87 214
f 214 87 88
f 220 17 228
f 228 17 159
f 134 213 60
f 60 213 88
f 138 229 151
f 151 229 152
f 193 192 210
f 210 192 211
f 230 194 218
f 218 194 193
f 231 232 228
f 228 232 230
f 233 234 91
f 91 234 89
f 235 236 93
f 93 236 92
f 230 232 234
f 234 232 237
f 47 238 48
f 48 238 239
f 240 191 235
f 235 191 236
f 5 8 116
f 116 8 241
f 242 243 189
f 189 243 160
f 244 245 98
f 98 245 99
f 156 246 47
f 47 246 238
f 76 247 77
f 77 247 248
f 250 125 249
f 249 125 124
f 252 253 251
f 251 253 254
f 111 110 36
f 36 110 255
f 256 33 255
f 255 33 36
f 257 258 154
f 154 258 155
f 63 169 133
f 133 169 139
f 66 170 63
f 63 170 169
f 173 170 129
f 129 170 66
f 129 128 173
f 173 128 259
f 128 260 259
f 259 260 261
f 213 134 262
f 262 134 137
f 263 264 186
f 186 264 187
f 112 265 113
f 113 265 266
f 11 267 268
f 234 233 230
f 230 233 194
f 153 269 70
f 70 269 67
f 175 178 165
f 165 178 141
f 150 153 94
f 94 153 70
f 271 221 270
f 270 221 207
f 269 153 272
f 272 153 152
f 121 45 109
f 109 45 108
f 47 50 156
f 156 50 157
f 57 273 58
f 58 273 274
f 145 275 260
f 260 275 261
f 276 149 143
f 143 149 78
f 148 269 75
f 75 269 272
f 207 277 270
f 270 277 278
f 195 196 49
f 49 196 50
f 59 135 60
f 60 135 134
f 83 104 202
f 202 104 279
f 149 148 78
f 78 148 75
f 247 278 248
f 248 278 277
f 183 182 84
f 84 182 81
f 48 239 281
f 281 239 282
f 227 223 283
f 283 223 222
f 223 226 224
f 224 226 168
f 281 282 224
f 224 282 225
f 165 168 175
f 175 168 226
f 264 263 138
f 138 263 229
f 14 16 128
f 128 16 260
f 220 228 218
f 218 228 230
f 87 227 284
f 284 227 283
f 260 16 145
f 145 16 146
f 244 98 258
f 258 98 155
f 58 274 156
f 156 274 246
f 107 285 51
f 51 285 55
f 243 286 160
f 160 286 96
f 234 237 89
f 89 237 90
f 46 132 107
f 107 132 285
f 253 252 249
f 249 252 250
f 286 26 96
f 96 26 25
f 106 105 287
f 287 105 288
f 272 152 289
f 289 152 229
f 138 151 139
f 139 151 133
f 183 290 161
f 161 290 162
f 291 292 277
f 277 292 293
f 151 150 133
f 133 150 94
f 262 275 177
f 177 275 187
f 144 187 145
f 145 187 275
f 273 57 284
f 284 57 87
f 174 136 190
f 190 136 135
f 111 117 112
f 112 117 38
f 117 119 38
f 38 119 123
f 112 38 265
f 265 38 37
f 287 288 254
f 254 288 251
f 228 159 231
f 231 159 15
f 223 227 226
f 226 227 214
f 147 67 148
f 148 67 269
f 224 168 281
f 281 168 167
f 199 163 200
f 200 163 162
f 45 46 108
f 108 46 107
f 281 167 48
f 48 167 49
f 161 164 291
f 291 164 292
f 38 123 39
f 293 294 277
f 277 294 248
f 284 283 296
f 296 283 295
f 284 296 273
f 273 296 297
f 274 273 298
f 298 273 297
f 246 274 299
f 299 274 298
f 283 222 295
f 295 222 300
f 222 225 300
f 300 225 301
f 301 225 302
f 302 225 282
f 303 304 300
f 300 304 295
f 306 307 305
f 305 307 308
f 309 310 308
f 308 310 305
f 308 307 312
f 312 307 311
f 313 314 312
f 312 314 315
f 311 316 312
f 312 316 313
f 317 304 311
f 311 304 316
f 315 309 312
f 312 309 308
f 318 319 321
f 321 319 320
f 319 318 309
f 309 318 310
f 311 307 317
f 317 307 306
f 306 297 317
f 317 297 296
f 306 322 297
f 297 322 298
f 305 323 306
f 306 323 322
f 323 305 324
f 324 305 310
f 304 317 295
f 295 317 296
f 318 325 310
f 310 325 324
f 323 324 326
f 326 324 327
f 324 325 327
f 327 325 328
f 326 327 329
f 329 327 330
f 329 331 326
f 326 331 332
f 333 330 328
f 328 330 327
f 323 326 322
f 322 326 332
f 322 332 298
f 298 332 299
f 325 318 334
f 334 318 321
f 313 316 335
f 335 316 304
f 335 336 313
f 313 336 314
f 304 303 335
f 335 303 337
f 336 335 338
f 338 335 337
f 336 339 314
f 314 339 340
f 246 299 238
f 238 299 341
f 239 342 282
f 282 342 302
f 342 239 341
f 341 239 238
f 341 331 342
f 342 331 343
f 331 329 343
f 343 329 344
f 342 343 302
f 302 343 345
f 341 299 331
f 331 299 332
f 346 301 345
f 345 301 302
f 346 303 301
f 301 303 300
f 347 337 346
f 346 337 303
f 347 346 348
f 348 346 345
f 349 347 350
f 350 347 348
f 343 344 345
f 345 344 348
f 344 351 348
f 348 351 350
f 337 347 338
f 338 347 349
f 353 338 352
f 352 338 349
f 352 355 354
f 354 355 356
f 352 349 355
f 355 349 350
f 352 354 353
f 353 354 334
f 353 334 339
f 339 334 321
f 339 336 353
f 353 336 338
f 329 330 344
f 344 330 351
f 356 351 333
f 333 351 330
f 356 355 351
f 351 355 350
f 354 356 328
f 328 356 333
f 328 325 354
f 354 325 334
f 309 315 319
f 319 315 320
f 320 340 321
f 321 340 339
f 320 315 340
f 340 315 314
f 137 136 261
f 261 136 259
f 140 166 141
f 141 166 165
f 172 171 195
f 195 171 196
f 171 174 196
f 196 174 190
f 178 177 264
f 264 177 187
f 172 195 140
f 140 195 166
f 137 261 262
f 262 261 275
f 178 264 141
f 141 264 138
f 262 177 213
f 213 177 176
f 136 174 259
f 259 174 173
f 358 359 357
f 357 359 360
f 362 363 361
f 361 363 364
f 361 364 365
f 365 364 366
f 367 368 370
f 370 368 369
f 76 371 247
f 247 371 372
f 373 374 362
f 362 374 363
f 376 377 375
f 375 377 378
f 289 229 380
f 380 229 379
f 381 379 263
f 263 379 229
f 383 384 382
f 382 384 385
f 386 368 374
f 374 368 363
f 76 289 371
f 371 289 380
f 377 376 359
f 359 376 387
f 388 386 360
f 360 386 374
f 389 383 366
f 366 383 390
f 392 393 391
f 391 393 394
f 383 382 390
f 390 382 395
f 396 365 390
f 390 365 366
f 389 366 367
f 367 366 364
f 357 397 358
f 358 397 398
f 373 399 357
f 357 399 397
f 389 367 400
f 400 367 370
f 382 385 375
f 375 385 372
f 357 360 373
f 373 360 374
f 361 401 362
f 362 401 402
f 387 388 359
f 359 388 360
f 363 368 364
f 364 368 367
f 358 398 403
f 403 398 404
f 396 392 405
f 405 392 391
f 392 395 393
f 393 395 378
f 393 403 394
f 394 403 404
f 375 378 382
f 382 378 395
f 365 396 406
f 406 396 405
f 362 402 373
f 373 402 399
f 271 270 400
f 400 270 384
f 401 361 406
f 406 361 365
f 381 369 386
f 386 369 368
f 392 396 395
f 395 396 390
f 393 378 403
f 403 378 377
f 403 377 358
f 358 377 359
f 406 405 408
f 408 405 407
f 406 408 401
f 401 408 409
f 401 409 402
f 402 409 410
f 402 410 399
f 399 410 411
f 405 391 407
f 407 391 412
f 391 394 412
f 412 394 413
f 394 404 413
f 413 404 414
f 415 416 412
f 412 416 407
f 418 419 417
f 417 419 420
f 421 422 418
f 418 422 419
f 419 422 424
f 424 422 423
f 425 426 424
f 424 426 427
f 423 428 424
f 424 428 425
f 427 420 424
f 424 420 419
f 420 429 417
f 417 429 430
f 423 422 431
f 431 422 421
f 421 409 431
f 431 409 408
f 421 432 409
f 409 432 410
f 418 433 421
f 421 433 432
f 434 433 417
f 417 433 418
f 431 416 423
f 423 416 428
f 416 431 407
f 407 431 408
f 435 434 430
f 430 434 417
f 433 434 436
f 436 434 437
f 434 435 437
f 437 435 438
f 436 437 439
f 439 437 440
f 439 441 436
f 436 441 442
f 438 443 437
f 437 443 440
f 436 442 433
f 433 442 432
f 432 442 410
f 410 442 411
f 435 430 445
f 445 430 444
f 430 429 444
f 444 429 446
f 425 428 447
f 447 428 416
f 426 425 448
f 448 425 447
f 416 415 447
f 447 415 449
f 447 449 448
f 448 449 450
f 451 452 448
f 448 452 426
f 446 452 444
f 444 452 451
f 399 411 397
f 397 411 453
f 398 454 404
f 404 454 414
f 454 398 453
f 453 398 397
f 453 441 454
f 454 441 455
f 441 439 455
f 455 439 456
f 454 455 414
f 414 455 457
f 441 453 442
f 442 453 411
f 458 413 457
f 457 413 414
f 458 415 413
f 413 415 412
f 458 459 415
f 415 459 449
f 459 458 460
f 460 458 457
f 461 459 462
f 462 459 460
f 455 456 457
f 457 456 460
f 456 463 460
f 460 463 462
f 459 461 449
f 449 461 450
f 465 450 464
f 464 450 461
f 464 467 466
f 466 467 468
f 464 461 467
f 467 461 462
f 464 466 465
f 465 466 445
f 465 445 451
f 451 445 444
f 451 448 465
f 465 448 450
f 439 440 456
f 456 440 463
f 468 463 443
f 443 463 440
f 468 467 463
f 463 467 462
f 466 468 438
f 438 468 443
f 438 435 466
f 466 435 445
f 420 427 429
f 429 427 446
f 446 427 452
f 452 427 426
f 370 369 188
f 188 369 186
f 371 376 372
f 372 376 375
f 380 379 387
f 387 379 388
f 379 381 388
f 388 381 386
f 385 384 278
f 278 384 270
f 380 387 371
f 371 387 376
f 400 370 271
f 271 370 188
f 385 278 372
f 372 278 247
f 400 384 389
f 389 384 383
f 369 381 186
f 186 381 263
f 221 271 144
f 144 271 188
f 221 19 207
f 207 19 22
f 19 18 22
f 22 18 23
f 18 219 23
f 23 219 208
f 469 470 472
f 472 470 471
f 474 475 473
f 473 475 476
f 473 476 477
f 477 476 478
f 480 481 479
f 479 481 482
f 483 484 474
f 474 484 475
f 486 487 485
f 485 487 488
f 489 490 77
f 77 490 142
f 491 489 248
f 248 489 77
f 493 494 492
f 492 494 495
f 496 480 484
f 484 480 475
f 486 497 487
f 487 497 471
f 498 496 472
f 472 496 484
f 499 493 478
f 478 493 500
f 501 502 504
f 504 502 503
f 493 492 500
f 500 492 505
f 506 477 500
f 500 477 478
f 499 478 479
f 479 478 476
f 469 507 470
f 470 507 508
f 483 509 469
f 469 509 507
f 479 482 499
f 499 482 510
f 492 495 485
f 485 495 511
f 483 469 484
f 484 469 472
f 473 512 474
f 474 512 513
f 497 498 471
f 471 498 472
f 475 480 476
f 476 480 479
f 470 508 514
f 514 508 515
f 506 502 516
f 516 502 501
f 503 502 488
f 488 502 505
f 514 515 503
f 503 515 504
f 485 488 492
f 492 488 505
f 477 506 517
f 517 506 516
f 474 513 483
f 483 513 509
f 510 292 494
f 494 292 164
f 512 473 517
f 517 473 477
f 491 481 496
f 496 481 480
f 502 506 505
f 505 506 500
f 503 488 514
f 514 488 487
f 514 487 470
f 470 487 471
f 517 516 519
f 519 516 518
f 517 519 512
f 512 519 520
f 512 520 513
f 513 520 521
f 513 521 509
f 509 521 522
f 516 501 518
f 518 501 523
f 501 504 523
f 523 504 524
f 524 504 525
f 525 504 515
f 526 527 523
f 523 527 518
f 529 530 528
f 528 530 531
f 532 533 529
f 529 533 530
f 530 533 535
f 535 533 534
f 536 537 535
f 535 537 538
f 534 539 535
f 535 539 536
f 538 531 535
f 535 531 530
f 540 541 531
f 531 541 528
f 533 532 534
f 534 532 542
f 532 520 542
f 542 520 519
f 532 543 520
f 520 543 521
f 529 544 532
f 532 544 543
f 544 529 545
f 545 529 528
f 534 542 539
f 539 542 527
f 527 542 518
f 518 542 519
f 541 546 528
f 528 546 545
f 547 544 548
f 548 544 545
f 546 549 545
f 545 549 548
f 550 547 551
f 551 547 548
f 547 550 553
f 553 550 552
f 549 554 548
f 548 554 551
f 544 547 543
f 543 547 553
f 543 553 521
f 521 553 522
f 546 541 556
f 556 541 555
f 541 540 555
f 555 540 557
f 536 539 558
f 558 539 527
f 537 536 559
f 559 536 558
f 527 526 558
f 558 526 560
f 559 558 561
f 561 558 560
f 559 562 537
f 537 562 563
f 557 563 555
f 555 563 562
f 509 522 507
f 507 522 564
f 508 565 515
f 515 565 525
f 565 508 564
f 564 508 507
f 564 552 565
f 565 552 566
f 552 550 566
f 566 550 567
f 565 566 525
f 525 566 568
f 564 522 552
f 552 522 553
f 569 524 568
f 568 524 525
f 569 526 524
f 524 526 523
f 570 560 569
f 569 560 526
f 570 569 571
f 571 569 568
f 572 570 573
f 573 570 571
f 566 567 568
f 568 567 571
f 567 574 571
f 571 574 573
f 570 572 560
f 560 572 561
f 576 561 575
f 575 561 572
f 575 578 577
f 577 578 579
f 575 572 578
f 578 572 573
f 575 577 576
f 576 577 556
f 576 556 562
f 562 556 555
f 562 559 576
f 576 559 561
f 550 551 567
f 567 551 574
f 579 574 554
f 554 574 551
f 579 578 574
f 574 578 573
f 579 554 577
f 577 554 549
f 549 546 577
f 577 546 556
f 531 538 540
f 540 538 557
f 557 538 563
f 563 538 537
f 481 294 482
f 482 294 293
f 580 486 511
f 511 486 485
f 490 489 497
f 497 489 498
f 489 491 498
f 498 491 496
f 163 495 164
f 164 495 494
f 580 490 486
f 486 490 497
f 482 293 510
f 510 293 292
f 495 163 511
f 511 163 199
f 494 493 510
f 510 493 499
f 481 491 294
f 294 491 248
f 582 583 581
f 581 583 584
f 586 587 585
f 585 587 588
f 585 588 589
f 589 588 590
f 592 593 591
f 591 593 594
f 595 596 598
f 598 596 597
f 599 600 586
f 586 600 587
f 601 602 604
f 604 602 603
f 605 606 608
f 608 606 607
f 609 607 200
f 200 607 606
f 610 611 613
f 613 611 612
f 600 614 587
f 587 614 592
f 596 605 597
f 597 605 608
f 602 615 603
f 603 615 583
f 616 614 584
f 584 614 600
f 611 618 617
f 617 618 590
f 620 621 619
f 619 621 622
f 610 623 611
f 611 623 618
f 624 589 618
f 618 589 590
f 617 590 591
f 591 590 588
f 581 625 582
f 582 625 626
f 599 627 581
f 581 627 625
f 591 594 617
f 617 594 628
f 601 610 598
f 598 610 613
f 581 584 599
f 599 584 600
f 585 629 586
f 586 629 630
f 615 616 583
f 583 616 584
f 587 592 588
f 588 592 591
f 582 626 631
f 631 626 632
f 624 620 633
f 633 620 619
f 621 620 604
f 604 620 623
f 631 632 621
f 621 632 622
f 610 601 623
f 623 601 604
f 589 624 634
f 634 624 633
f 586 630 599
f 599 630 627
f 203 202 628
f 628 202 612
f 629 585 634
f 634 585 589
f 609 593 614
f 614 593 592
f 620 624 623
f 623 624 618
f 631 621 603
f 603 621 604
f 582 631 583
f 583 631 603
f 634 633 636
f 636 633 635
f 634 636 629
f 629 636 637
f 629 637 630
f 630 637 638
f 630 638 627
f 627 638 639
f 633 619 635
f 635 619 640
f 619 622 640
f 640 622 641
f 641 622 642
f 642 622 632
f 644 635 643
f 643 635 640
f 645 646 648
f 648 646 647
f 649 650 646
f 646 650 647
f 647 650 652
f 652 650 651
f 652 653 655
f 655 653 654
f 651 656 652
f 652 656 653
f 655 648 652
f 652 648 647
f 648 657 645
f 645 657 658
f 650 649 651
f 651 649 659
f 649 637 659
f 659 637 636
f 649 660 637
f 637 660 638
f 661 660 646
f 646 660 649
f 662 661 645
f 645 661 646
f 651 659 656
f 656 659 644
f 644 659 635
f 635 659 636
f 663 662 658
f 658 662 645
f 664 661 665
f 665 661 662
f 663 666 662
f 662 666 665
f 667 664 668
f 668 664 665
f 664 667 670
f 670 667 669
f 666 671 665
f 665 671 668
f 661 664 660
f 660 664 670
f 660 670 638
f 638 670 639
f 658 672 663
f 663 672 673
f 658 657 672
f 672 657 674
f 653 656 675
f 675 656 644
f 653 675 654
f 654 675 676
f 675 644 677
f 677 644 643
f 676 675 678
f 678 675 677
f 679 680 676
f 676 680 654
f 674 680 672
f 672 680 679
f 627 639 625
f 625 639 681
f 626 682 632
f 632 682 642
f 681 682 625
f 625 682 626
f 669 683 681
f 681 683 682
f 667 684 669
f 669 684 683
f 682 683 642
f 642 683 685
f 681 639 669
f 669 639 670
f 686 641 685
f 685 641 642
f 641 686 640
f 640 686 643
f 686 687 643
f 643 687 677
f 687 686 688
f 688 686 685
f 689 687 690
f 690 687 688
f 683 684 685
f 685 684 688
f 684 691 688
f 688 691 690
f 687 689 677
f 677 689 678
f 693 678 692
f 692 678 689
f 692 695 694
f 694 695 696
f 692 689 695
f 695 689 690
f 692 694 693
f 693 694 673
f 693 673 679
f 679 673 672
f 679 676 693
f 693 676 678
f 684 667 691
f 691 667 668
f 696 691 671
f 671 691 668
f 696 695 691
f 691 695 690
f 694 696 666
f 666 696 671
f 666 663 694
f 694 663 673
f 648 655 657
f 657 655 674
f 674 655 680
f 680 655 654
f 593 162 594
f 594 162 290
f 598 597 601
f 601 597 602
f 615 608 616
f 616 608 607
f 607 609 616
f 616 609 614
f 697 595 613
f 613 595 598
f 597 608 602
f 602 608 615
f 594 290 628
f 628 290 203
f 628 612 617
f 617 612 611
f 593 609 162
f 162 609 200
f 105 29 698
f 698 29 699
f 268 126 701
f 701 126 700
f 126 125 700
f 700 125 702
f 252 703 250
f 250 703 704
f 32 268 705
f 705 268 701
f 288 105 706
f 706 105 698
f 29 32 699
f 699 32 705
f 707 251 706
f 706 251 288
f 250 704 125
f 125 704 702
f 703 252 707
f 707 252 251
f 706 708 707
f 707 708 709
f 707 709 703
f 703 709 710
f 703 710 704
f 704 710 711
f 704 711 702
f 702 711 712
f 706 698 708
f 708 698 713
f 698 699 713
f 713 699 714
f 699 705 714
f 714 705 715
f 717 708 716
f 716 708 713
f 719 720 718
f 718 720 721
f 722 723 719
f 719 723 720
f 724 725 723
f 723 725 720
f 724 726 725
f 725 726 727
f 728 721 725
f 725 721 720
f 721 728 729
f 729 728 730
f 729 731 721
f 721 731 718
f 724 723 732
f 732 723 722
f 722 710 732
f 732 710 709
f 722 733 710
f 710 733 711
f 719 734 722
f 722 734 733
f 734 719 735
f 735 719 718
f 724 732 726
f 726 732 717
f 717 732 708
f 708 732 709
f 731 736 718
f 718 736 735
f 737 734 738
f 738 734 735
f 736 739 735
f 735 739 738
f 740 737 741
f 741 737 738
f 737 740 743
f 743 740 742
f 739 744 738
f 738 744 741
f 734 737 733
f 733 737 743
f 733 743 711
f 711 743 712
f 736 731 746
f 746 731 745
f 731 729 745
f 745 729 730
f 727 726 747
f 747 726 717
f 748 727 749
f 749 727 747
f 747 717 750
f 750 717 716
f 749 747 751
f 751 747 750
f 749 752 748
f 748 752 753
f 730 753 745
f 745 753 752
f 728 725 748
f 748 725 727
f 730 728 753
f 753 728 748
f 700 702 754
f 754 702 712
f 705 701 715
f 715 701 755
f 754 755 700
f 700 755 701
f 742 756 754
f 754 756 755
f 740 757 742
f 742 757 756
f 755 756 715
f 715 756 758
f 754 712 742
f 742 712 743
f 759 714 758
f 758 714 715
f 714 759 713
f 713 759 716
f 759 760 716
f 716 760 750
f 760 759 761
f 761 759 758
f 762 760 763
f 763 760 761
f 756 757 758
f 758 757 761
f 757 764 761
f 761 764 763
f 760 762 750
f 750 762 751
f 766 751 765
f 765 751 762
f 767 765 769
f 769 765 768
f 765 762 768
f 768 762 763
f 765 767 766
f 766 767 746
f 766 746 752
f 752 746 745
f 752 749 766
f 766 749 751
f 757 740 764
f 764 740 741
f 769 764 744
f 744 764 741
f 769 768 764
f 764 768 763
f 767 769 739
f 739 769 744
f 739 736 767
f 767 736 746
f 219 217 208
f 208 217 209
f 209 217 210
f 210 217 193
f 198 580 199
f 199 580 511
f 76 75 289
f 289 75 272
f 277 207 291
f 291 207 184
f 290 183 203
f 203 183 84
f 490 580 142
f 142 580 198
f 142 198 143
f 143 198 197
f 149 276 72
f 72 276 73
f 104 103 279
f 279 103 770
f 770 596 279
f 279 596 595
f 605 596 771
f 771 596 770
f 771 770 772
f 772 770 103
f 772 103 773
f 773 103 102
f 155 774 101
f 101 774 102
f 773 102 97
f 97 102 774
f 775 773 100
f 100 773 97
f 773 775 772
f 772 775 776
f 772 776 771
f 771 776 777
f 200 606 197
f 197 606 777
f 189 71 778
f 778 71 74
f 97 774 98
f 98 774 155
f 183 161 184
f 184 161 291
f 777 276 197
f 197 276 143
f 777 606 771
f 771 606 605
f 613 612 697
f 697 612 202
f 595 697 279
f 279 697 202
f 73 276 776
f 776 276 777
f 776 775 73
f 73 775 74
f 100 778 775
f 775 778 74
f 778 100 189
f 189 100 99
f 245 242 99
f 99 242 189
f 131 33 256
f 28 1 95
f 95 1 62
f 27 2 28
f 28 2 1
f 265 115 266
f 266 115 114
f 95 62 69
f 69 62 64
f 62 61 64
f 64 61 65
f 61 13 65
f 65 13 130
f 13 12 130
f 130 12 14
f 31 11 32
f 32 11 268
f 15 12 31
f 31 12 11
f 31 30 15
f 15 30 231
f 30 106 231
f 231 106 232
f 287 237 106
f 106 237 232
f 254 90 287
f 287 90 237
f 253 44 254
f 254 44 90
f 253 249 44
f 44 249 7
f 267 127 268
f 268 127 126
f 10 3 241
f 241 3 116
f 3 2 116
f 116 2 114
f 2 27 114
f 114 27 266
f 27 26 266
f 266 26 113
f 26 286 113
f 113 286 110
f 286 243 110
f 110 243 255
f 243 242 255
f 255 242 256
f 242 245 256
f 256 245 131
f 245 244 131
f 131 244 132
f 265 37 115
f 115 37 41
f 41 37 42
f 42 37 40
f 92 91 40
f 40 91 42
f 236 233 92
f 92 233 91
f 191 194 236
f 236 194 233
f 258 285 244
f 244 285 132
f 257 55 258
f 258 55 285
f 257 154 201
f 201 154 185
f 56 201 204
f 204 201 180
f 55 257 56
f 56 257 201
f 204 85 56
f 56 85 52
f 86 122 53
f 53 122 79
f 212 215 86
f 86 215 122
f 211 216 212
f 212 216 215
f 192 280 211
f 211 280 216
f 191 240 192
f 192 240 280
f 249 124 7
f 7 124 8
f 124 127 8
f 8 127 241
f 127 267 241
f 241 267 10
f 10 267 9
f 9 267 11
