v -0.0018555037677288055 0.05498678237199783 0.7231276631355286
v 0.01099594309926033 0.051111966371536255 0.7222387790679932
v 0.0041823610663414 0.04607447236776352 0.726637601852417
v -0.006958626210689545 0.0509110763669014 0.7283356785774231
v 0.02075175568461418 0.04143776372075081 0.7387465238571167
v 0.024049077183008194 0.04593178629875183 0.7490814924240112
v 0.008220057934522629 0.04306737333536148 0.7487805485725403
v 0.008940491825342178 0.03936716914176941 0.7390592694282532
v -0.012002196162939072 0.05065672844648361 0.7315515875816345
v -0.0027849115431308746 0.04393111541867256 0.7293598651885986
v -0.013869266957044601 0.05622290074825287 0.7320247888565063
v -0.022059457376599312 0.06494337320327759 0.7378908395767212
v -0.021020134910941124 0.05832839757204056 0.7360295057296753
v -0.02939312346279621 0.06901731342077255 0.7393849492073059
v -0.016530688852071762 0.0745614692568779 0.7391340732574463
v -0.027988070622086525 0.07785793393850327 0.7362382411956787
v -0.00809028372168541 0.0890212282538414 0.7206988334655762
v -0.004492182284593582 0.08986896276473999 0.7084597945213318
v -0.020403938367962837 0.08826084434986115 0.7070208191871643
v -0.02251705527305603 0.086800716817379 0.7197872400283813
v -0.009545102715492249 0.08456474542617798 0.6901205778121948
v -0.01657075434923172 0.08680915087461472 0.6991798281669617
v -0.000582624226808548 0.08954586088657379 0.700574517250061
v 0.00473828986287117 0.08733236789703369 0.6921996474266052
v 0.005246568471193314 0.05948728695511818 0.7119281888008118
v 0.016807984560728073 0.05787643790245056 0.7110522389411926
v 0.015473645180463791 0.05643118545413017 0.7153289914131165
v 0.00365578755736351 0.058479562401771545 0.7163226008415222
v -0.01621754840016365 0.05779198557138443 0.7364875078201294
v -0.009713228791952133 0.06607870012521744 0.7429490089416504
v -0.013569183647632599 0.06336989253759384 0.7373165488243103
v -0.015556443482637405 0.054289139807224274 0.7322068810462952
v 0.042121771723032 0.05133096128702164 0.702966034412384
v 0.05395755544304848 0.05716311186552048 0.7052160501480103
v 0.05332120135426521 0.0577034056186676 0.7111468315124512
v 0.042772937566041946 0.05261566862463951 0.7079071402549744
v 0.04494720324873924 0.05359078571200371 0.7357828617095947
v 0.052350472658872604 0.060065049678087234 0.7304347157478333
v 0.05608305707573891 0.06901109218597412 0.7393198609352112
v 0.04681024327874184 0.06616009026765823 0.7439108490943909
v 0.03508732095360756 0.048073433339595795 0.7440758943557739
v 0.036742616444826126 0.059182606637477875 0.750446617603302
v 0.022418703883886337 0.055739883333444595 0.7554560303688049
v 0.00494752824306488 0.049816906452178955 0.7544289231300354
v 0.0553843192756176 0.05905076116323471 0.6926593780517578
v 0.047054607421159744 0.05455198511481285 0.6892291307449341
v -0.08266635984182358 0.07341964542865753 0.7249614596366882
v -0.08062160760164261 0.07501242309808731 0.7196670174598694
v -0.07569777965545654 0.07012747973203659 0.7218686938285828
v -0.07808792591094971 0.06999926269054413 0.7269194722175598
v 0.048705387860536575 0.07319460809230804 0.680197536945343
v 0.04727771505713463 0.08314933627843857 0.6810211539268494
v 0.054418351501226425 0.0820419192314148 0.6807898879051208
v 0.055961888283491135 0.07285480946302414 0.6818808317184448
v 0.03904842212796211 0.0734449252486229 0.6781488060951233
v 0.03728810325264931 0.08399070799350739 0.6818878054618835
v -0.07984644174575806 0.08256179839372635 0.732684314250946
v -0.08252443373203278 0.07826126366853714 0.7320632338523865
v -0.07732656598091125 0.07648885250091553 0.7341778874397278
v -0.07379849255084991 0.08093762397766113 0.734001636505127
v -0.017606083303689957 0.055396683514118195 0.7319999933242798
v -0.012742351740598679 0.056057605892419815 0.7250391840934753
v -0.039006613194942474 0.05847638100385666 0.7310976386070251
v -0.02728133276104927 0.05806601792573929 0.728187084197998
v -0.02748381905257702 0.05847516655921936 0.7348077297210693
v -0.03710291534662247 0.06020085886120796 0.736954391002655
v -0.01737820729613304 0.060231275856494904 0.7070156931877136
v -0.005645103752613068 0.0605422779917717 0.7082856297492981
v -0.008547920733690262 0.06035304814577103 0.7139232158660889
v -0.021779390051960945 0.05936349928379059 0.7143693566322327
v -0.0013866163790225983 0.057676222175359726 0.6951758861541748
v -0.013361450284719467 0.057919442653656006 0.694961667060852
v -0.009778112173080444 0.05608268082141876 0.687510073184967
v -0.0017301589250564575 0.05544130131602287 0.6890239119529724
v -0.035157255828380585 0.060454707592725754 0.6972584128379822
v -0.0428493395447731 0.06466181576251984 0.6961976289749146
v -0.04397457093000412 0.06516715884208679 0.6917119026184082
v -0.03442951664328575 0.06073766574263573 0.6936856508255005
v 0.06143908575177193 0.08205606043338776 0.6810269951820374
v 0.0627002865076065 0.07293716073036194 0.684399425983429
v 0.00015250220894813538 0.07720017433166504 0.6728853583335876
v 0.005982708185911179 0.06939029693603516 0.6678332686424255
v -0.004542134702205658 0.06823673099279404 0.6641384959220886
v -0.007968410849571228 0.07635707408189774 0.6705225110054016
v 0.04414888843894005 0.09080391377210617 0.6872883439064026
v 0.051606107503175735 0.09074397385120392 0.6849812269210815
v -0.07631745934486389 0.08696795254945755 0.7299333214759827
v -0.07105191797018051 0.08493246138095856 0.7303544282913208
v 0.02210451290011406 0.06795255094766617 0.7540758848190308
v 0.0027576349675655365 0.0592426098883152 0.7546927332878113
v 0.036876607686281204 0.07341958582401276 0.7491281628608704
v 0.0463288389146328 0.07797776907682419 0.7437132596969604
v 0.05493162199854851 0.08054030686616898 0.7414080500602722
v -0.03091348335146904 0.05801185593008995 0.7223383188247681
v -0.006544623523950577 0.05844411626458168 0.7189620733261108
v 0.006759848445653915 0.05933178588747978 0.7074606418609619
v 0.011411219835281372 0.05130867660045624 0.6784823536872864
v 0.021990451961755753 0.05106790363788605 0.6802208423614502
v 0.016290809959173203 0.05097975581884384 0.68904048204422
v 0.008187726140022278 0.05188208073377609 0.6856258511543274
v 0.00630546361207962 0.05982978641986847 0.6667131185531616
v 0.0030719302594661713 0.0539984330534935 0.6709406971931458
v -0.0063931904733181 0.05425933375954628 0.6687536239624023
v -0.0036661848425865173 0.059612903743982315 0.664187490940094
v -0.016906097531318665 0.05832336097955704 0.7432489395141602
v -0.0056420303881168365 0.06793973594903946 0.7477229833602905
v 0.0494527630507946 0.0631348118185997 0.6830138564109802
v 0.05609133467078209 0.06403544545173645 0.6867887377738953
v 0.06370189785957336 0.06676077097654343 0.6889762878417969
v 0.029929038137197495 0.05372820049524307 0.7087708711624146
v 0.04333577677607536 0.05329662188887596 0.7116290926933289
v 0.04258636012673378 0.052584029734134674 0.7168245315551758
v 0.029880959540605545 0.05412071943283081 0.7119163870811462
v 0.023158375173807144 0.045943327248096466 0.7255986928939819
v 0.033305127173662186 0.04512950778007507 0.7320876121520996
v 0.013337258249521255 0.04112350195646286 0.7292329668998718
v 0.054130833595991135 0.05869001895189285 0.7196937203407288
v 0.06300099194049835 0.05988072603940964 0.713006317615509
v 0.0624929778277874 0.061586666852235794 0.7218502163887024
v 0.063932403922081 0.06057874858379364 0.7032921314239502
v 0.06420788168907166 0.06270048022270203 0.6946585774421692
v 0.0594043992459774 0.09358221292495728 0.6833810806274414
v 0.060887280851602554 0.06461968272924423 0.7296257019042969
v 0.0008140392601490021 0.038831740617752075 0.7377864718437195
v -0.006750691682100296 0.038034938275814056 0.7356035113334656
v -0.008160173892974854 0.042113665491342545 0.7289808392524719
v -0.0015583299100399017 0.04206381365656853 0.7301561832427979
v -0.039001721888780594 0.07262734323740005 0.7400640249252319
v -0.03888465091586113 0.06494122743606567 0.7399682402610779
v -0.027679841965436935 0.06216530129313469 0.7395267486572266
v 0.03248954936861992 0.0502423420548439 0.6965948939323425
v 0.037217896431684494 0.05269670486450195 0.6853122115135193
v -0.0423310361802578 0.06003325432538986 0.7251636385917664
v -0.06896677613258362 0.08242242783308029 0.7346040606498718
v -0.07124510407447815 0.07719536125659943 0.7361843585968018
v -0.05487179011106491 0.07518398761749268 0.7391623258590698
v -0.05443090945482254 0.08125513792037964 0.7369142770767212
v -0.05068217217922211 0.06807949393987656 0.7200744152069092
v -0.04831872880458832 0.06372427940368652 0.7239269018173218
v -0.051533292979002 0.06649786233901978 0.722979724407196
v -0.05366135016083717 0.07080835103988647 0.7188524603843689
v -0.03773947060108185 0.06293199211359024 0.6857088804244995
v -0.030258378013968468 0.0595763735473156 0.6866251230239868
v -0.03766784071922302 0.08169913291931152 0.7183705568313599
v -0.034971173852682114 0.08420561254024506 0.7308178544044495
v -0.02433948963880539 0.08469017595052719 0.7290470600128174
v -0.0142744742333889 0.059389278292655945 0.7003140449523926
v -0.02498636022210121 0.05900517851114273 0.6982951164245605
v -0.02397165074944496 0.05869368091225624 0.6943190097808838
v -0.03443942591547966 0.05896889418363571 0.718847930431366
v -0.04333905503153801 0.06149408966302872 0.7196258902549744
v -0.03960530832409859 0.060537535697221756 0.7152774333953857
v -0.03126443177461624 0.05951534956693649 0.7140897512435913
v 0.018030118197202682 0.07201220095157623 0.670931875705719
v 0.018803242594003677 0.06065577268600464 0.6693437099456787
v -0.08342046290636063 0.07479574531316757 0.7293757200241089
v -0.07833994925022125 0.07225553691387177 0.7315809726715088
v -0.0028290599584579468 0.059737130999565125 0.7017054557800293
v -0.010979589074850082 0.08520829677581787 0.7291345000267029
v 0.008544601500034332 0.05854932963848114 0.702441930770874
v -0.024955404922366142 0.07592867314815521 0.6795954704284668
v -0.026707572862505913 0.06975302845239639 0.6752220988273621
v -0.03126616030931473 0.07088272273540497 0.676503598690033
v -0.030667215585708618 0.07675418257713318 0.6780226230621338
v -0.06683894991874695 0.07639630138874054 0.7162067890167236
v -0.06916921585798264 0.07154107093811035 0.718541145324707
v -0.07317861914634705 0.0729856863617897 0.7169627547264099
v -0.0704192966222763 0.0775027647614479 0.7154577970504761
v -0.0475442036986351 0.06210903450846672 0.7294143438339233
v -0.046330537647008896 0.06282208859920502 0.7358339428901672
v -0.053502779453992844 0.06493167579174042 0.7334194183349609
v -0.05285397544503212 0.06513036787509918 0.7276716828346252
v -0.047819558531045914 0.06800248473882675 0.7392699718475342
v -0.054282769560813904 0.06911759078502655 0.7378475666046143
v -0.06487424671649933 0.08231956511735916 0.7184690237045288
v -0.06436151266098022 0.08677709102630615 0.7248579263687134
v -0.05294572189450264 0.0844268947839737 0.724520742893219
v -0.054942190647125244 0.0783730149269104 0.719760000705719
v 0.018807191401720047 0.09064092487096786 0.6946058869361877
v 0.02256729081273079 0.08674696087837219 0.6850121021270752
v 0.008710134774446487 0.08333234488964081 0.6823662519454956
v -0.004246562719345093 0.08063742518424988 0.6795414090156555
v -0.017137564718723297 0.076593317091465 0.6781731843948364
v -0.021335598081350327 0.08308108896017075 0.6876496076583862
v 0.012647561728954315 0.08015292882919312 0.6762375235557556
v -0.04917718097567558 0.07248333841562271 0.7158914804458618
v -0.044334761798381805 0.08040151000022888 0.723567008972168
v -0.04520215094089508 0.07758144289255142 0.7170801162719727
v 0.010085448622703552 0.055804796516895294 0.6957714557647705
v -0.07184133678674698 0.07269047200679779 0.734694242477417
v 0.04427935555577278 0.09464738517999649 0.7296038269996643
v 0.044660534709692 0.09845668077468872 0.7169724106788635
v 0.03625687584280968 0.0964684784412384 0.7186251282691956
v 0.035429228097200394 0.09169754385948181 0.7323516607284546
v -0.07070709019899368 0.06818290799856186 0.724319577217102
v -0.07198604196310043 0.06856773048639297 0.7302291989326477
v -0.02922513708472252 0.05972727760672569 0.6795876026153564
v -0.034699857234954834 0.06306514889001846 0.6804949045181274
v -0.03395089507102966 0.06497577577829361 0.6773360371589661
v -0.02949213981628418 0.06093662604689598 0.6731413006782532
v 0.02578159049153328 0.0841846689581871 0.680880606174469
v -0.010291274636983871 0.06873629242181778 0.6632931232452393
v -0.013959113508462906 0.07575592398643494 0.6683454513549805
v 0.03480411693453789 0.08973788470029831 0.6877816915512085
v 0.03162137791514397 0.09370690584182739 0.6960428953170776
v 0.0410507507622242 0.0957149937748909 0.6965155005455017
v -0.033365920186042786 0.08354645222425461 0.698002278804779
v 0.014121275395154953 0.09221109747886658 0.701678991317749
v 0.02816707268357277 0.09465883672237396 0.7027767300605774
v 0.03931441530585289 0.09707017242908478 0.7036643624305725
v 0.04730662330985069 0.09929568320512772 0.703559935092926
v 0.04844534024596214 0.09735855460166931 0.695745587348938
v -0.06638111174106598 0.08564060181379318 0.7299360632896423
v -0.06874234974384308 0.08633747696876526 0.7248817682266235
v 0.05671960487961769 0.10071875154972076 0.6943036913871765
v 0.05520947650074959 0.10212884843349457 0.7033256888389587
v 0.025002043694257736 0.09488646686077118 0.7114353775978088
v 0.021463949233293533 0.09392666071653366 0.7216270565986633
v 0.011526495218276978 0.09238222241401672 0.7099130749702454
v 0.006937768310308456 0.09130668640136719 0.7199150919914246
v -0.032034873962402344 0.08705592900514603 0.7078039646148682
v -0.08268357813358307 0.09457389265298843 0.7177001237869263
v -0.07331894338130951 0.08805889636278152 0.7191544771194458
v -0.07458077371120453 0.08362196385860443 0.7153801321983337
v -0.08186578005552292 0.09198584407567978 0.7140964865684509
v -0.06862067431211472 0.0824844092130661 0.7184541821479797
v -0.07360148429870605 0.08938446640968323 0.724660336971283
v 0.003773719072341919 0.08632294833660126 0.7312127351760864
v -0.048181597143411636 0.06369966268539429 0.7142351269721985
v 0.019195128232240677 0.08669444918632507 0.7355276942253113
v -0.004797853529453278 0.0785650834441185 0.7412366271018982
v 0.006133977323770523 0.07721783965826035 0.7447177171707153
v 0.034847136586904526 0.08530135452747345 0.742530107498169
v 0.0203462652862072 0.07841072231531143 0.7486174702644348
v 0.05282733216881752 0.08977439999580383 0.7370504140853882
v 0.043822694569826126 0.08810695260763168 0.7387685775756836
v 0.005830381065607071 0.06995491683483124 0.7514689564704895
v -0.08894167840480804 0.07954500615596771 0.717512309551239
v -0.08513207733631134 0.08177724480628967 0.7136437892913818
v 0.052358392626047134 0.09697578847408295 0.7286363244056702
v 0.004285693168640137 0.04046158865094185 0.730340838432312
v 0.020413320511579514 0.05398550257086754 0.699048638343811
v 0.018913891166448593 0.05618055537343025 0.7038518190383911
v 0.028155352920293808 0.05147787183523178 0.6819482445716858
v 0.023449499160051346 0.05073990672826767 0.6925036311149597
v -0.09119513630867004 0.08021191507577896 0.722302258014679
v -0.04605278745293617 0.07081370800733566 0.6946712136268616
v -0.045928772538900375 0.07070648670196533 0.6921006441116333
v -0.0002766363322734833 0.03988415747880936 0.7462834119796753
v -0.007160242646932602 0.03819432854652405 0.7433101534843445
v -0.014925152063369751 0.04734694957733154 0.7489792108535767
v -0.011143669486045837 0.04129195585846901 0.748151421546936
v -0.003943730145692825 0.04505223408341408 0.7515776753425598
v -0.007306031882762909 0.051936447620391846 0.7521215081214905
v 0.029724281281232834 0.053039003163576126 0.7061025500297546
v 0.02994317188858986 0.05208320543169975 0.7022588849067688
v 0.02924799546599388 0.07260867953300476 0.6744830012321472
v 0.029423478990793228 0.06121595948934555 0.673279881477356
v -0.04754528030753136 0.07435037940740585 0.739687442779541
v -0.038623981177806854 0.0796692967414856 0.7376517057418823
v -0.04691404476761818 0.08052538335323334 0.7370990514755249
v -0.05208629369735718 0.084816113114357 0.73167884349823
v -0.05165259167551994 0.0686742290854454 0.714120626449585
v -0.04967500641942024 0.0741419792175293 0.7200708985328674
v 0.03842371329665184 0.04903780668973923 0.7233164310455322
v 0.028076644986867905 0.051552146673202515 0.7179920077323914
v -0.0070322491228580475 0.04607130214571953 0.7294173240661621
v -0.012041743844747543 0.0480927899479866 0.7278187870979309
v -0.026753392070531845 0.05960797891020775 0.7072754502296448
v -0.042681608349084854 0.08329427242279053 0.6997657418251038
v -0.04272432625293732 0.08520438522100449 0.7074531316757202
v -0.036585673689842224 0.060564544051885605 0.7069416046142578
v -0.09096639603376389 0.08744653314352036 0.7264514565467834
v -0.09195852279663086 0.08278976380825043 0.7248130440711975
v -0.04492805898189545 0.08384238928556442 0.731697142124176
v -0.021088125184178352 0.056440677493810654 0.6867209672927856
v -0.03774380311369896 0.08071496337652206 0.6940015554428101
v -0.0443141907453537 0.07845631241798401 0.6960560083389282
v -0.009166661649942398 0.06008399650454521 0.6629024744033813
v 0.05329177901148796 0.1004776731133461 0.7165389657020569
v -0.07773292064666748 0.07898227870464325 0.7153632044792175
v -0.08211903274059296 0.08562509715557098 0.7118396162986755
v -0.08379697799682617 0.0952020063996315 0.7217711210250854
v -0.08665022999048233 0.09248834103345871 0.7260940074920654
v 0.038731519132852554 0.0613945871591568 0.6785027980804443
v 0.017643023282289505 0.05739304795861244 0.7069272994995117
v -0.006704974919557571 0.06235547736287117 0.7504393458366394
v -0.01685529202222824 0.0542915016412735 0.7465731501579285
v -0.043560560792684555 0.06255940347909927 0.7056758403778076
v -0.020565727725625038 0.07369112223386765 0.6737425327301025
v -0.02932855486869812 0.08257707953453064 0.6854628920555115
v -0.03467146307229996 0.082967109978199 0.6824659705162048
v -0.04113275930285454 0.08231275528669357 0.685965895652771
v -0.04685543105006218 0.07750129699707031 0.6876254081726074
v -0.08792294561862946 0.09708048403263092 0.7181533575057983
v -0.09172369539737701 0.09460236132144928 0.7219119071960449
v -0.09563174843788147 0.08994666486978531 0.7213333249092102
v -0.0960671603679657 0.08521374315023422 0.7200893759727478
v -0.09373298287391663 0.0818423479795456 0.7182556390762329
v -0.0864081010222435 0.09648150205612183 0.7142334580421448
v -0.08539395034313202 0.09399203211069107 0.7114263772964478
v -0.0843677967786789 0.0875508263707161 0.7105002403259277
v -0.08809871226549149 0.09767356514930725 0.7105394005775452
v -0.09222458302974701 0.09965462982654572 0.7123462557792664
v -0.10366222262382507 0.093623086810112 0.7100921273231506
v -0.1003957986831665 0.0938999131321907 0.7148099541664124
v -0.10072236508131027 0.09575526416301727 0.7131269574165344
v -0.10333506017923355 0.09659288078546524 0.7091540694236755
v -0.10542717576026917 0.09886246919631958 0.7052302956581116
v -0.10627499222755432 0.0954805314540863 0.7056511044502258
v -0.0967290997505188 0.09754708409309387 0.7142520546913147
v -0.09985926747322083 0.09934648871421814 0.708896279335022
v -0.0964011400938034 0.1009725034236908 0.7072380185127258
v -0.09942948818206787 0.10314004868268967 0.7034165859222412
v -0.10277116298675537 0.10190019011497498 0.7048375010490417
v -0.0946374386548996 0.09975762665271759 0.7111311554908752
v -0.09575465321540833 0.09737113118171692 0.7160224914550781
v -0.10654821991920471 0.09814295172691345 0.702112078666687
v -0.10615672171115875 0.10042724758386612 0.7030036449432373
v -0.10385304689407349 0.10260502994060516 0.7022051215171814
v -0.10432906448841095 0.10161980986595154 0.6994506120681763
v -0.09907069802284241 0.08786903321743011 0.7156825661659241
v -0.10344011336565018 0.09129040688276291 0.7092154622077942
v -0.10476939380168915 0.09345047175884247 0.7039341926574707
v -0.10515134036540985 0.09630773961544037 0.7005962133407593
v -0.10143226385116577 0.08972480893135071 0.7061907052993774
v -0.10255362093448639 0.09239542484283447 0.7024176120758057
v -0.10248240828514099 0.09485721588134766 0.6993452906608582
v -0.09841423481702805 0.08948740363121033 0.703324019908905
v -0.09996107220649719 0.09233087301254272 0.7006485462188721
v -0.09281186759471893 0.08325102925300598 0.7124223113059998
v -0.09576225280761719 0.08392580598592758 0.7150453925132751
v -0.10071659088134766 0.09384284913539886 0.6987124681472778
v -0.10309197008609772 0.1003645658493042 0.6982139945030212
v -0.09286615252494812 0.10046952962875366 0.7066320776939392
v -0.09691327810287476 0.10217192023992538 0.7015279531478882
v -0.0913955569267273 0.09939830005168915 0.7052879333496094
v -0.09511774033308029 0.10135255753993988 0.7001492977142334
v -0.09996834397315979 0.10361133515834808 0.6990318894386292
v -0.10119035840034485 0.10356184840202332 0.7012889981269836
v -0.08985729515552521 0.08101871609687805 0.715232253074646
v -0.08595462143421173 0.08367259055376053 0.7118979096412659
v -0.08811545372009277 0.08565589040517807 0.7096109986305237
v -0.09444114565849304 0.09099533408880234 0.7013671398162842
v -0.08608417212963104 0.08937282860279083 0.7080847024917603
v -0.08706116676330566 0.09540924429893494 0.707916796207428
v -0.0909574031829834 0.09779238700866699 0.7030333876609802
v -0.09139272570610046 0.0949103832244873 0.7014469504356384
v -0.09427644312381744 0.09909387677907944 0.6993845701217651
v -0.09475581347942352 0.09658945351839066 0.6990420818328857
v -0.09700077772140503 0.09362653642892838 0.6990556716918945
v -0.09762318432331085 0.09932634234428406 0.6973683834075928
v -0.09873546659946442 0.10202409327030182 0.6979753971099854
v -0.10097898542881012 0.09785079956054688 0.6974897384643555
v -0.09688547253608704 0.09749846160411835 0.6976165175437927
v -0.09929095208644867 0.09589990228414536 0.6980881094932556
v -0.08018256723880768 0.07346412539482117 0.6861608624458313
v -0.07625523209571838 0.07631117105484009 0.6825891733169556
v -0.07219098508358002 0.07275806367397308 0.687183678150177
v -0.07556770741939545 0.07124345749616623 0.690753698348999
v -0.08223536610603333 0.08209742605686188 0.69657301902771
v -0.08369801938533783 0.07688844949007034 0.6938420534133911
v -0.07917346060276031 0.07654865086078644 0.6987680196762085
v -0.07661062479019165 0.08264730125665665 0.6997641921043396
v -0.07804267108440399 0.08699043840169907 0.6951043009757996
v -0.07210255414247513 0.0862421840429306 0.6971832513809204
v -0.07329763472080231 0.08440502732992172 0.7023354768753052
v -0.07468155026435852 0.07737399637699127 0.7023172378540039
v -0.056094832718372345 0.07449221611022949 0.7113825082778931
v -0.05570318177342415 0.08175857365131378 0.7109457850456238
v -0.048840731382369995 0.067731574177742 0.6971224546432495
v -0.04926601052284241 0.07176414132118225 0.6955698132514954
v -0.08251120150089264 0.07414701581001282 0.6896499395370483
v -0.0781833678483963 0.07286972552537918 0.695002019405365
v -0.06487944722175598 0.0766509473323822 0.6850095391273499
v -0.06697612255811691 0.07207135856151581 0.6869732737541199
v -0.06963677704334259 0.07540677487850189 0.6838741302490234
v -0.06779006868600845 0.0801149308681488 0.6835132837295532
v -0.05317405238747597 0.06674134731292725 0.7079684138298035
v -0.04989323765039444 0.06627548485994339 0.7028616070747375
v -0.05531962960958481 0.06975077092647552 0.7097407579421997
v -0.06428422778844833 0.08293832838535309 0.6865847706794739
v -0.06546986848115921 0.08815854042768478 0.6907550692558289
v -0.050559937953948975 0.08609741181135178 0.6987248063087463
v -0.049595970660448074 0.08074916899204254 0.6951757073402405
v -0.07448935508728027 0.07244772464036942 0.6996138691902161
v -0.06992615014314651 0.06966757029294968 0.6910426020622253
v -0.07256156206130981 0.0693560242652893 0.6952035427093506
v -0.06925904005765915 0.08822008967399597 0.6976771950721741
v -0.06930071115493774 0.08815682679414749 0.6906155347824097
v -0.08077298104763031 0.09443402290344238 0.6780896186828613
v -0.07221174240112305 0.0886426642537117 0.684989869594574
v -0.07209070026874542 0.08480852097272873 0.681591808795929
v -0.07987236976623535 0.09130674600601196 0.6741211414337158
v -0.06774677336215973 0.08501581847667694 0.686253547668457
v -0.07447603344917297 0.0896843671798706 0.6897854208946228
v -0.08908385038375854 0.0808575451374054 0.674986720085144
v -0.08437968790531158 0.08360461890697479 0.6717674732208252
v -0.09219059348106384 0.08125191926956177 0.6783663630485535
v -0.053163450211286545 0.0867684856057167 0.7054176330566406
v -0.09217562526464462 0.0875520408153534 0.686404824256897
v -0.09334315359592438 0.08286060392856598 0.6821686625480652
v -0.07320895791053772 0.08027859777212143 0.6805458664894104
v -0.08119092881679535 0.0874795988202095 0.6715344190597534
v -0.08309680968523026 0.09542858600616455 0.6819679141044617
v -0.0873938649892807 0.09227999299764633 0.6871297359466553
v -0.08601057529449463 0.09704694896936417 0.6770903468132019
v -0.09104083478450775 0.09511958807706833 0.680732786655426
v -0.09582282602787018 0.09034393727779388 0.6799501180648804
v -0.09614941477775574 0.08515188097953796 0.6770028471946716
v -0.09418362379074097 0.08277830481529236 0.6746366024017334
v -0.08362607657909393 0.09577697515487671 0.6736753582954407
v -0.08255377411842346 0.09237094223499298 0.670405924320221
v -0.08323274552822113 0.08740703016519547 0.6696083545684814
v -0.08561235666275024 0.0956168919801712 0.6673271059989929
v -0.08884570002555847 0.09795941412448883 0.6692596077919006
v -0.10315948724746704 0.09084552526473999 0.6598596572875977
v -0.10148084163665771 0.09095539152622223 0.6655591726303101
v -0.10056090354919434 0.09337267279624939 0.6650592088699341
v -0.10210658609867096 0.0934821367263794 0.6598663330078125
v -0.09956177324056625 0.09282220900058746 0.6713004112243652
v -0.09885691106319427 0.0943680852651596 0.6692928075790405
v -0.09491686522960663 0.09682019054889679 0.6697649359703064
v -0.0968455821275711 0.09620299935340881 0.6639719009399414
v -0.09215520322322845 0.09725358337163925 0.6631162166595459
v -0.09412114322185516 0.09786459803581238 0.6579256653785706
v -0.09886385500431061 0.09708333760499954 0.6585512757301331
v -0.09193649888038635 0.09777449071407318 0.6673794984817505
v -0.10231778025627136 0.09416412562131882 0.6563785672187805
v -0.10252848267555237 0.09233477711677551 0.6545282006263733
v -0.09438936412334442 0.0970618724822998 0.6730603575706482
v -0.09852492809295654 0.0870358794927597 0.6733221411705017
v -0.10129007697105408 0.08796893060207367 0.6647992134094238
v -0.10221421718597412 0.0881350189447403 0.658344566822052
v -0.1005917489528656 0.09056966006755829 0.6529672741889954
v -0.09886804223060608 0.08531208336353302 0.6625902652740479
v -0.09977706521749496 0.08657913655042648 0.656884491443634
v -0.09827127307653427 0.08911443501710892 0.6528708338737488
v -0.0949089527130127 0.08388631045818329 0.6603691577911377
v -0.09590791165828705 0.08596522361040115 0.6552273631095886
v -0.09175410866737366 0.0821457952260971 0.6701449751853943
v -0.09582055360078812 0.08327437937259674 0.6719683408737183
v -0.09635363519191742 0.08778251707553864 0.6534547209739685
v -0.09969089925289154 0.09580244868993759 0.652633547782898
v -0.09800302237272263 0.09331537783145905 0.6511144042015076
v -0.09977290034294128 0.09648562967777252 0.6543957591056824
v -0.09008105099201202 0.09712310135364532 0.6625664234161377
v -0.09244659543037415 0.09700807929039001 0.6567150950431824
v -0.08805124461650848 0.09570741653442383 0.6611472964286804
v -0.09107638895511627 0.09579765796661377 0.65510493516922
v -0.09510762989521027 0.09705088287591934 0.6529335379600525
v -0.09633656591176987 0.09760633856058121 0.6539843678474426
v -0.0905432403087616 0.0822334885597229 0.6724610328674316
v -0.08580029010772705 0.0842621773481369 0.6702948808670044
v -0.08668416738510132 0.08365069329738617 0.668476939201355
v -0.09015126526355743 0.08567675203084946 0.6590532064437866
v -0.08368580043315887 0.08724717795848846 0.667693018913269
v -0.08400674909353256 0.09243109077215195 0.666479229927063
v -0.08673615753650665 0.09329361468553543 0.6603956818580627
v -0.08726225793361664 0.08954468369483948 0.6590816378593445
v -0.08959576487541199 0.09431793540716171 0.6544321179389954
v -0.08919700980186462 0.09113763272762299 0.6552122831344604
v -0.09206846356391907 0.08727308362722397 0.6547502279281616
v -0.09279654920101166 0.09413928538560867 0.6512437462806702
v -0.09416863322257996 0.09598738700151443 0.6518533229827881
v -0.09652642160654068 0.09164497256278992 0.6512265801429749
v -0.09159353375434875 0.0916612297296524 0.6523407101631165
v -0.09450052678585052 0.08939951658248901 0.6522643566131592
v -0.0635700598359108 0.0697784572839737 0.663002610206604
v -0.05914229154586792 0.06751731038093567 0.6609531044960022
v -0.05660956725478172 0.06622513383626938 0.6659557819366455
v -0.0610336996614933 0.06885847449302673 0.6681236028671265
v -0.0617300420999527 0.08283690363168716 0.6643224954605103
v -0.06501241773366928 0.07892349362373352 0.6646636724472046
v -0.06275314837694168 0.07844924926757812 0.6690768003463745
v -0.058858275413513184 0.08259885758161545 0.6694936752319336
v -0.05762362852692604 0.08443992584943771 0.660837709903717
v -0.0536106638610363 0.08376166224479675 0.6669521331787109
v -0.05588672682642937 0.08405604213476181 0.6731269955635071
v -0.0601663812994957 0.07918457686901093 0.6730533242225647
v -0.050059299916028976 0.07802226394414902 0.683668315410614
v -0.04603727161884308 0.08351541310548782 0.6817473769187927
v -0.06517580151557922 0.07413848489522934 0.663992166519165
v -0.06307798624038696 0.07346510887145996 0.6686164736747742
v -0.047987524420022964 0.06832753866910934 0.6644530296325684
v -0.05136244744062424 0.06595221906900406 0.6665821075439453
v -0.05227461829781532 0.06688998639583588 0.6631103157997131
v -0.04971453547477722 0.06961420178413391 0.6615233421325684
v -0.047788336873054504 0.06732134521007538 0.6855827569961548
v -0.04256381094455719 0.06539278477430344 0.682702898979187
v -0.05072161555290222 0.07202672958374023 0.6845898032188416
v -0.045814357697963715 0.07455949485301971 0.6637651920318604
v -0.04584052786231041 0.08145598322153091 0.665575385093689
v -0.03648712486028671 0.07891972362995148 0.6732980012893677
v -0.036473505198955536 0.07270706444978714 0.673504650592804
v -0.06091543287038803 0.07401261478662491 0.6727396249771118
v -0.05520160496234894 0.0658617615699768 0.6698947548866272
v -0.0595073476433754 0.06876332312822342 0.6719478964805603
v -0.05044908449053764 0.08467807620763779 0.6698706150054932
v -0.0494699701666832 0.08078552782535553 0.6630634069442749
v -0.05821147561073303 0.08078528195619583 0.6427215337753296
v -0.050019748508930206 0.0770358145236969 0.6571314334869385
v -0.05163112282752991 0.07142011821269989 0.6568854451179504
v -0.058130938559770584 0.07636845111846924 0.6419194936752319
v -0.04810751602053642 0.07515279948711395 0.6606221199035645
v -0.05218411609530449 0.08237552642822266 0.6585272550582886
v -0.06963464617729187 0.0719674751162529 0.6470036506652832
v -0.064667709171772 0.07052501291036606 0.6452372074127197
v -0.07111071050167084 0.07536208629608154 0.649298369884491
v -0.04027923569083214 0.08446888625621796 0.6775448322296143
v -0.03800512105226517 0.06683055311441422 0.6770529747009277
v -0.07005983591079712 0.08284545689821243 0.6492066383361816
v -0.07165777683258057 0.07878522574901581 0.6497492790222168
v -0.054504938423633575 0.06846971809864044 0.658542811870575
v -0.06013403460383415 0.0724257230758667 0.6428225040435791
v -0.06032927334308624 0.08416558802127838 0.645041823387146
v -0.0650414526462555 0.08550707995891571 0.6482974290847778
v -0.06232121214270592 0.08350066840648651 0.6394531726837158
v -0.0672638788819313 0.08495508879423141 0.6425011157989502
v -0.07241086661815643 0.08314071595668793 0.6434682011604309
v -0.07386694848537445 0.07914023101329803 0.6445116400718689
v -0.07343444228172302 0.07557481527328491 0.6445452570915222
v -0.060536447912454605 0.07943464070558548 0.6375767588615417
v -0.060782819986343384 0.07538660615682602 0.6376349925994873
v -0.06210875138640404 0.07263892143964767 0.6408827304840088
v -0.061956897377967834 0.07715677469968796 0.633621871471405
v -0.06511112302541733 0.08163953572511673 0.6328004002571106
v -0.07936878502368927 0.0772116556763649 0.6266205906867981
v -0.07729382812976837 0.07874345779418945 0.6315499544143677
v -0.07644620537757874 0.07942408323287964 0.6309083700180054
v -0.07850901037454605 0.07834069430828094 0.6257342100143433
v -0.0743756890296936 0.0820503979921341 0.6362191438674927
v -0.07397253811359406 0.08202098309993744 0.6342868804931641
v -0.07038619369268417 0.08283888548612595 0.6335044503211975
v -0.07242216914892197 0.08073901385068893 0.6279841065406799
v -0.06715361773967743 0.07826705276966095 0.6272842884063721
v -0.06987646222114563 0.077016681432724 0.6231482028961182
v -0.07466013729572296 0.07955488562583923 0.6232945919036865
v -0.06662410497665405 0.08131218701601028 0.6316088438034058
v -0.07865001261234283 0.0775226354598999 0.6227056980133057
v -0.08069846034049988 0.07699301838874817 0.6225905418395996
v -0.06982393562793732 0.0836426317691803 0.6356013417243958
v -0.07651421427726746 0.07916843146085739 0.6394223570823669
v -0.07879308611154556 0.07661811262369156 0.6328285932540894
v -0.08122828602790833 0.0746760442852974 0.6279284358024597
v -0.08072544634342194 0.07346759736537933 0.6237435936927795
v -0.07811616361141205 0.07304022461175919 0.6336221694946289
v -0.0798816829919815 0.07190333306789398 0.6287410259246826
v -0.07953471690416336 0.07088591903448105 0.6248977780342102
v -0.07614345848560333 0.07039297372102737 0.6336154937744141
v -0.07747375220060349 0.06974601745605469 0.6290080547332764
v -0.07238656282424927 0.07253693044185638 0.6422007083892822
v -0.07534866780042648 0.07566646486520767 0.6413853764533997
v -0.07785496115684509 0.06967378407716751 0.6258793473243713
v -0.07689572870731354 0.07669856399297714 0.6196620464324951
v -0.07658830285072327 0.07249084860086441 0.6201274991035461
v -0.07608282566070557 0.07744567096233368 0.6211076378822327
v -0.06563050299882889 0.07722429186105728 0.6276917457580566
v -0.06850175559520721 0.07536213099956512 0.6221086978912354
v -0.0646524503827095 0.07451793551445007 0.6283554434776306
v -0.06758499145507812 0.07277103513479233 0.6227781772613525
v -0.07187646627426147 0.07549674808979034 0.6195175647735596
v -0.07229021191596985 0.0763210728764534 0.6203176975250244
v -0.07039382308721542 0.07263855636119843 0.6443045139312744
v -0.0659436285495758 0.07125018537044525 0.6428539752960205
v -0.06815808266401291 0.07079385966062546 0.6412704586982727
v -0.0723273903131485 0.0683535784482956 0.6322324275970459
v -0.06400533020496368 0.0713711827993393 0.6392970085144043
v -0.0627315491437912 0.0734923928976059 0.6342352628707886
v -0.06560096144676208 0.07155539095401764 0.629346489906311
v -0.06826406717300415 0.0691102147102356 0.6303576231002808
v -0.06813214719295502 0.07033176720142365 0.624191403388977
v -0.06974922120571136 0.0692293643951416 0.626357913017273
v -0.07410475611686707 0.06782092154026031 0.6279395222663879
v -0.071710504591465 0.07058674097061157 0.6219643950462341
v -0.07139793038368225 0.07276575267314911 0.6199896335601807
v -0.0761902704834938 0.07005316764116287 0.622110903263092
v -0.0721312016248703 0.06912994384765625 0.6239466667175293
v -0.07552234828472137 0.0687263160943985 0.6241815686225891
v -0.03933744505047798 0.06496574729681015 0.6798068284988403
v -0.04126982390880585 0.07294788211584091 0.6406424641609192
v -0.03775855153799057 0.07122763246297836 0.6392656564712524
v -0.036196477711200714 0.0685974732041359 0.6420025825500488
v -0.040026552975177765 0.06910145282745361 0.6435824632644653
v -0.03925789147615433 0.08173688501119614 0.6471361517906189
v -0.04218720272183418 0.07902626693248749 0.6451845169067383
v -0.042201731353998184 0.07626502215862274 0.6489795446395874
v -0.039865851402282715 0.07940869778394699 0.6505733728408813
v -0.03478938341140747 0.08275319635868073 0.6464840173721313
v -0.03529924154281616 0.08018039911985397 0.6494777202606201
v -0.03854919597506523 0.07732386142015457 0.6532486081123352
v -0.040512099862098694 0.07305091619491577 0.6527872085571289
v -0.029222089797258377 0.06925980001688004 0.6682563424110413
v -0.025714777410030365 0.07362417876720428 0.6680954098701477
v -0.013424437493085861 0.06190371513366699 0.661406934261322
v -0.016544293612241745 0.05724373459815979 0.6646808385848999
v -0.021556027233600616 0.061046402901411057 0.6582852602005005
v -0.018271826207637787 0.06478229910135269 0.657216489315033
v -0.04267505556344986 0.07586464285850525 0.6428238749504089
v -0.04245557636022568 0.07212880253791809 0.6463239192962646
v -0.026035912334918976 0.07047157734632492 0.6452289819717407
v -0.02946896106004715 0.06711463630199432 0.6448960900306702
v -0.03204169496893883 0.06811563670635223 0.6415108442306519
v -0.02825232595205307 0.07007725536823273 0.6419861316680908
v -0.0212700292468071 0.05733836442232132 0.6676841974258423
v -0.024576015770435333 0.05865859240293503 0.6714765429496765
v -0.027492519468069077 0.05942252278327942 0.6664896607398987
v -0.025574874132871628 0.05980391055345535 0.66048663854599
v -0.03111574426293373 0.06283912062644958 0.6679259538650513
v -0.025570951402187347 0.07448866963386536 0.6464949250221252
v -0.028240546584129333 0.07838797569274902 0.649263322353363
v -0.016131028532981873 0.07383500784635544 0.6605362892150879
v -0.01592331752181053 0.06937377154827118 0.6590553522109985
v -0.04099017381668091 0.06887628138065338 0.6504045128822327
v -0.03364682197570801 0.06600844115018845 0.6457898616790771
v -0.038026321679353714 0.06570404767990112 0.6476289629936218
v -0.03394384682178497 0.08002528548240662 0.6509711742401123
v -0.029703695327043533 0.07822869718074799 0.6472601890563965
v -0.028726311400532722 0.08074621856212616 0.6332722902297974
v -0.027317650616168976 0.07548714429140091 0.6413328051567078
v -0.029604913666844368 0.07202105969190598 0.638613224029541
v -0.03031761385500431 0.0788993239402771 0.6318308711051941
v -0.027207668870687485 0.07390732318162918 0.6440460681915283
v -0.029366647824645042 0.0803195983171463 0.644346296787262
v -0.04224154353141785 0.07931608706712723 0.6326496005058289
v -0.03773884475231171 0.07700087875127792 0.6315280199050903
v -0.04323098808526993 0.08159136027097702 0.634537398815155
v -0.021125413477420807 0.076563760638237 0.664471447467804
v -0.03945491835474968 0.08671466261148453 0.6380642056465149
v -0.04276619106531143 0.08460342139005661 0.6361179947853088
v -0.03381170332431793 0.07082954049110413 0.6383748650550842
v -0.03355666622519493 0.07734999060630798 0.6314601898193359
v -0.029304571449756622 0.08395077288150787 0.6357272267341614
v -0.033951085060834885 0.08709602057933807 0.6383693218231201
v -0.029120611026883125 0.08637624233961105 0.6319290399551392
v -0.034004565328359604 0.08909230679273605 0.6347917318344116
v -0.03978067636489868 0.0890071913599968 0.6335721015930176
v -0.042379871010780334 0.08649257570505142 0.6326990723609924
v -0.043163470923900604 0.08380525559186935 0.6312144994735718
v -0.028478849679231644 0.08276235312223434 0.6295385360717773
v -0.030149105936288834 0.08039240539073944 0.6283098459243774
v -0.03358858823776245 0.07838478684425354 0.6281756162643433
v -0.02829791232943535 0.08485306799411774 0.6257654428482056
v -0.029379691928625107 0.08937063068151474 0.6266459822654724
v -0.03961004316806793 0.0919562429189682 0.6184877157211304
v -0.039862826466560364 0.09085974842309952 0.6222386360168457
v -0.03883092850446701 0.09149603545665741 0.6225036382675171
v -0.039182208478450775 0.09300969541072845 0.6188099384307861
v -0.038985542953014374 0.09055359661579132 0.6274595260620117
v -0.037681516259908676 0.09112560749053955 0.6264688968658447
v -0.03430917486548424 0.09097731113433838 0.6276739239692688
v -0.0347822904586792 0.09262499958276749 0.622806191444397
v -0.030008912086486816 0.09083390235900879 0.6212146282196045
v -0.03099466860294342 0.09225378930568695 0.6176358461380005
v -0.034962959587574005 0.09396946430206299 0.6194204688072205
v -0.030549347400665283 0.09072671830654144 0.6257210969924927
v -0.03833268955349922 0.09423055499792099 0.6167035698890686
v -0.0390218049287796 0.09420151263475418 0.6155285239219666
v -0.03445136174559593 0.09091009199619293 0.6294354200363159
v -0.04197162389755249 0.08757508546113968 0.6277989149093628
v -0.041452500969171524 0.08946454524993896 0.6210618019104004
v -0.04071918502449989 0.09131680428981781 0.616608738899231
v -0.038746852427721024 0.09269875288009644 0.6139268279075623
v -0.04170135408639908 0.08690616488456726 0.621012806892395
v -0.0409780815243721 0.08925561606884003 0.6156232357025146
v -0.03889944404363632 0.09052516520023346 0.6130719184875488
v -0.0405975878238678 0.08390293270349503 0.6204417943954468
v -0.039736308157444 0.0868934690952301 0.6156703233718872
v -0.040995873510837555 0.08107081800699234 0.6267582178115845
v -0.04229148104786873 0.0843612551689148 0.6273334622383118
v -0.03838111832737923 0.08887943625450134 0.6137481331825256
v -0.03543945774435997 0.09478795528411865 0.614751935005188
v -0.035704560577869415 0.09266427159309387 0.6129155158996582
v -0.03504285216331482 0.09491589665412903 0.6160423755645752
v -0.0291731059551239 0.08975934237241745 0.6209539175033569
v -0.030307501554489136 0.09139811247587204 0.6165788769721985
v -0.028783544898033142 0.0872495174407959 0.6201397776603699
v -0.03056412935256958 0.08960601687431335 0.6154451966285706
v -0.03221428021788597 0.09324346482753754 0.6144309043884277
v -0.03265686705708504 0.09371817857027054 0.616087794303894
v -0.041775718331336975 0.08045952022075653 0.6292335391044617
v -0.03819083049893379 0.07832854241132736 0.6289172768592834
v -0.03738166391849518 0.07924181967973709 0.6262328624725342
v -0.03733817860484123 0.08196177333593369 0.6199498772621155
v -0.03279001638293266 0.07935549318790436 0.6256970167160034
v -0.029681693762540817 0.08183097094297409 0.62558913230896
v -0.030165761709213257 0.08480658382177353 0.619568943977356
v -0.03294205665588379 0.08267484605312347 0.619272768497467
v -0.03175372630357742 0.08791951090097427 0.6146341562271118
v -0.03402547165751457 0.08587014675140381 0.6147526502609253
v -0.03711235895752907 0.08528383076190948 0.6152739524841309
v -0.03401120752096176 0.09004108607769012 0.6128657460212708
v -0.03303493186831474 0.09161815047264099 0.6130790710449219
v -0.03608522564172745 0.0906447023153305 0.6126553416252136
v -0.035059139132499695 0.08840428292751312 0.6130756139755249
v -0.036606285721063614 0.08844681084156036 0.613278329372406
v -0.013779912143945694 0.06600148230791092 0.6603061556816101
v -0.02656497061252594 0.048100147396326065 0.7358363270759583
v -0.025042548775672913 0.04848320037126541 0.7306786179542542
v -0.016196999698877335 0.03448333218693733 0.7275324463844299
v -0.019636278972029686 0.04002387449145317 0.7244299054145813
v -0.015961993485689163 0.031176205724477768 0.7337312698364258
v -0.020311839878559113 0.03429168462753296 0.7436529994010925
v -0.016966350376605988 0.03192057088017464 0.7396888732910156
v -0.02287723496556282 0.04507408291101456 0.7259787321090698
v -0.02651120349764824 0.04559929668903351 0.7411619424819946
v -0.02389349788427353 0.03989230468869209 0.7451280355453491
v -0.03348877280950546 0.040039584040641785 0.7379168272018433
v -0.030629999935626984 0.033965080976486206 0.741977334022522
v -0.026548661291599274 0.02798796072602272 0.7412078380584717
v -0.020901184529066086 0.026559092104434967 0.7368166446685791
v -0.0185149647295475 0.02686106413602829 0.7322943210601807
v -0.03094453178346157 0.04327811300754547 0.7320732474327087
v -0.0286082923412323 0.04369879513978958 0.7272209525108337
v -0.024243872612714767 0.041010238230228424 0.7233288884162903
v -0.03591479733586311 0.03825721517205238 0.7264840602874756
v -0.04150449484586716 0.029257625341415405 0.7264121770858765
v -0.03895748406648636 0.009883221238851547 0.7236591577529907
v -0.03488131985068321 0.013993710279464722 0.7272445559501648
v -0.03757596015930176 0.015201177448034286 0.7273664474487305
v -0.041248075664043427 0.011082809418439865 0.7245839834213257
v -0.03429299592971802 0.018134795129299164 0.7308903932571411
v -0.03636221960186958 0.018707673996686935 0.7297085523605347
v -0.038991622626781464 0.023333285003900528 0.7294520139694214
v -0.042255423963069916 0.019440937787294388 0.7264635562896729
v -0.041416507214307785 0.02638213336467743 0.7260076403617859
v -0.043601635843515396 0.024319082498550415 0.7227543592453003
v -0.04569576308131218 0.015761490911245346 0.7236091494560242
v -0.04486066848039627 0.009833652526140213 0.7230047583580017
v -0.04826845973730087 0.012479040771722794 0.7208921909332275
v -0.04317745938897133 0.00825546309351921 0.7205832600593567
v -0.039941348135471344 0.024033300578594208 0.7318670153617859
v -0.027328943833708763 0.019350416958332062 0.7321467995643616
v -0.031098801642656326 0.01404464989900589 0.7262915372848511
v -0.03579031676054001 0.010046366602182388 0.7213674187660217
v -0.041022349148988724 0.008732430636882782 0.7180415987968445
v -0.028078582137823105 0.015540685504674911 0.7229529619216919
v -0.03328977897763252 0.012712638825178146 0.7185838222503662
v -0.03821404650807381 0.012317374348640442 0.7154706716537476
v -0.02735992521047592 0.019043907523155212 0.7192360758781433
v -0.03295198827981949 0.016132943332195282 0.7161672711372375
v -0.02019251510500908 0.027808964252471924 0.7253948450088501
v -0.021667245775461197 0.022335924208164215 0.7296112775802612
v -0.03686833381652832 0.014887161552906036 0.7149279713630676
v -0.04832254350185394 0.011129211634397507 0.7180865406990051
v -0.04578470066189766 0.01186293363571167 0.715262770652771
v -0.043305110186338425 0.02748112753033638 0.7210808992385864
v -0.04724757745862007 0.020934324711561203 0.7201597690582275
v -0.04642920568585396 0.022829338908195496 0.7176835536956787
v -0.04101022332906723 0.0303526371717453 0.7191329598426819
v -0.04484628885984421 0.024001292884349823 0.715458869934082
v -0.04888923466205597 0.017396260052919388 0.7165313363075256
v -0.04899107664823532 0.017014551907777786 0.7195098400115967
v -0.01766025274991989 0.030691418796777725 0.7269626259803772
v -0.019942790269851685 0.03642651438713074 0.7238421440124512
v -0.022021008655428886 0.033804114907979965 0.722528338432312
v -0.02925446815788746 0.02512473613023758 0.7164393663406372
v -0.026710184291005135 0.03760889172554016 0.7210384011268616
v -0.03227218985557556 0.03906325250864029 0.7230822443962097
v -0.037910252809524536 0.03097694367170334 0.7168890237808228
v -0.03346581012010574 0.0294196680188179 0.7156749367713928
v -0.04146065190434456 0.02397889643907547 0.713793933391571
v -0.03847619146108627 0.02309224382042885 0.7135743498802185
v -0.03496125340461731 0.01964208483695984 0.7141174674034119
v -0.04315630719065666 0.01880238950252533 0.7130905985832214
v -0.04670132324099541 0.01833897829055786 0.7141314744949341
v -0.04197964817285538 0.014457978308200836 0.7136502265930176
v -0.04044300690293312 0.019572369754314423 0.7132436633110046
v -0.03899155184626579 0.016761157661676407 0.7136605381965637
v -0.011706322431564331 0.05515999346971512 0.6674777269363403
v -0.015723977237939835 0.05432255566120148 0.672787070274353
v -0.008621782064437866 0.05284088850021362 0.673799455165863
v 0.0012710019946098328 0.05200495943427086 0.6761212348937988
v 0.011617030948400497 0.053667157888412476 0.6730449199676514
v -0.0006558112800121307 0.052965983748435974 0.6825369000434875
v -0.01069791242480278 0.05367433279752731 0.6798228621482849
v -0.020921647548675537 0.05622938275337219 0.6784769892692566
v 0.005781698971986771 0.0548197403550148 0.6906433701515198
f 2 3 1
f 1 3 4
f 5 6 8
f 8 6 7
f 9 4 10
f 10 4 3
f 12 13 11
f 11 13 9
f 14 12 16
f 16 12 15
f 18 19 17
f 17 19 20
f 22 23 21
f 21 23 24
f 26 27 25
f 25 27 28
f 30 31 29
f 29 31 32
f 33 34 36
f 36 34 35
f 37 38 40
f 40 38 39
f 41 42 6
f 6 42 43
f 6 43 7
f 7 43 44
f 45 34 46
f 46 34 33
f 48 49 47
f 47 49 50
f 52 53 51
f 51 53 54
f 56 52 55
f 55 52 51
f 58 59 57
f 57 59 60
f 61 62 4
f 4 62 1
f 64 65 63
f 63 65 66
f 68 69 67
f 67 69 70
f 72 73 71
f 71 73 74
f 76 77 75
f 75 77 78
f 53 79 54
f 54 79 80
f 82 83 81
f 81 83 84
f 85 86 52
f 52 86 53
f 57 60 87
f 87 60 88
f 89 90 43
f 43 90 44
f 43 42 89
f 89 42 91
f 40 39 92
f 92 39 93
f 94 70 64
f 64 70 69
f 13 61 9
f 9 61 4
f 25 28 69
f 69 28 95
f 96 25 68
f 68 25 69
f 98 99 97
f 97 99 100
f 101 102 104
f 104 102 103
f 106 30 105
f 105 30 29
f 51 54 107
f 107 54 108
f 54 80 108
f 108 80 109
f 111 112 110
f 110 112 113
f 115 5 114
f 114 5 116
f 115 41 5
f 5 41 6
f 36 35 111
f 111 35 117
f 35 118 117
f 117 118 119
f 34 120 35
f 35 120 118
f 34 45 120
f 120 45 121
f 125 126 124
f 124 126 127
f 128 129 14
f 14 129 130
f 33 131 46
f 46 131 132
f 133 94 63
f 63 94 64
f 134 135 137
f 137 135 136
f 139 140 138
f 138 140 141
f 77 142 78
f 78 142 143
f 144 145 20
f 20 145 146
f 148 149 147
f 147 149 72
f 151 152 150
f 150 152 153
f 82 101 83
f 83 101 104
f 101 82 155
f 155 82 154
f 156 157 58
f 58 157 59
f 158 68 147
f 147 68 67
f 159 146 15
f 15 146 16
f 68 158 96
f 96 158 160
f 129 66 130
f 130 66 65
f 162 163 161
f 161 163 164
f 166 167 165
f 165 167 168
f 170 171 169
f 169 171 172
f 174 171 173
f 173 171 170
f 176 177 175
f 175 177 178
f 180 181 179
f 179 181 24
f 182 183 21
f 21 183 184
f 81 185 82
f 82 185 154
f 186 187 188
f 188 187 144
f 158 71 160
f 160 71 189
f 190 135 157
f 157 135 59
f 169 172 139
f 139 172 140
f 147 72 158
f 158 72 71
f 192 193 191
f 191 193 194
f 167 166 49
f 49 166 195
f 196 190 50
f 50 190 157
f 197 198 200
f 200 198 199
f 21 24 182
f 182 24 181
f 146 159 20
f 20 159 17
f 182 181 81
f 81 181 185
f 201 185 180
f 180 185 181
f 202 203 83
f 83 203 84
f 205 206 204
f 204 206 85
f 207 22 184
f 184 22 21
f 179 24 208
f 208 24 23
f 208 209 179
f 179 209 205
f 209 210 205
f 205 210 206
f 212 206 211
f 211 206 210
f 179 205 180
f 180 205 204
f 213 176 88
f 88 176 214
f 86 85 212
f 212 85 206
f 193 217 218
f 217 219 218
f 218 219 220
f 219 18 220
f 220 18 17
f 19 221 20
f 20 221 144
f 222 223 225
f 225 223 224
f 175 226 176
f 176 226 214
f 227 87 214
f 214 87 88
f 220 17 228
f 228 17 159
f 134 213 60
f 60 213 88
f 138 229 151
f 151 229 152
f 193 192 210
f 210 192 211
f 230 194 218
f 218 194 193
f 231 232 228
f 228 232 230
f 233 234 91
f 91 234 89
f 235 236 93
f 93 236 92
f 230 232 234
f 234 232 237
f 47 238 48
f 48 238 239
f 240 191 235
f 235 191 236
f 5 8 116
f 116 8 241
f 242 243 189
f 189 243 160
f 244 245 98
f 98 245 99
f 156 246 47
f 47 246 238
f 76 247 77
f 77 247 248
f 250 125 249
f 249 125 124
f 252 253 251
f 251 253 254
f 111 110 36
f 36 110 255
f 256 33 255
f 255 33 36
f 257 258 154
f 154 258 155
f 63 169 133
f 133 169 139
f 66 170 63
f 63 170 169
f 173 170 129
f 129 170 66
f 129 128 173
f 173 128 259
f 128 260 259
f 259 260 261
f 213 134 262
f 262 134 137
f 263 264 186
f 186 264 187
f 112 265 113
f 113 265 266
f 11 267 268
f 234 233 230
f 230 233 194
f 153 269 70
f 70 269 67
f 175 178 165
f 165 178 141
f 150 153 94
f 94 153 70
f 271 221 270
f 270 221 207
f 269 153 272
f 272 153 152
f 121 45 109
f 109 45 108
f 47 50 156
f 156 50 157
f 57 273 58
f 58 273 274
f 145 275 260
f 260 275 261
f 276 149 143
f 143 149 78
f 148 269 75
f 75 269 272
f 207 277 270
f 270 277 278
f 195 196 49
f 49 196 50
f 59 135 60
f 60 135 134
f 83 104 202
f 202 104 279
f 149 148 78
f 78 148 75
f 247 278 248
f 248 278 277
f 183 182 84
f 84 182 81
f 48 239 281
f 281 239 282
f 227 223 283
f 283 223 222
f 223 226 224
f 224 226 168
f 281 282 224
f 224 282 225
f 165 168 175
f 175 168 226
f 264 263 138
f 138 263 229
f 14 16 128
f 128 16 260
f 220 228 218
f 218 228 230
f 87 227 284
f 284 227 283
f 260 16 145
f 145 16 146
f 244 98 258
f 258 98 155
f 58 274 156
f 156 274 246
f 107 285 51
f 51 285 55
f 243 286 160
f 160 286 96
f 234 237 89
f 89 237 90
f 46 132 107
f 107 132 285
f 253 252 249
f 249 252 250
f 286 26 96
f 96 26 25
f 106 105 287
f 287 105 288
f 272 152 289
f 289 152 229
f 138 151 139
f 139 151 133
f 183 290 161
f 161 290 162
f 291 292 277
f 277 292 293
f 151 150 133
f 133 150 94
f 262 275 177
f 177 275 187
f 144 187 145
f 145 187 275
f 273 57 284
f 284 57 87
f 174 136 190
f 190 136 135
f 111 117 112
f 112 117 38
f 117 119 38
f 38 119 123
f 112 38 265
f 265 38 37
f 287 288 254
f 254 288 251
f 228 159 231
f 231 159 15
f 223 227 226
f 226 227 214
f 147 67 148
f 148 67 269
f 224 168 281
f 281 168 167
f 199 163 200
f 200 163 162
f 45 46 108
f 108 46 107
f 281 167 48
f 48 167 49
f 161 164 291
f 291 164 292
f 38 123 39
f 293 294 277
f 277 294 248
f 284 283 296
f 296 283 295
f 284 296 273
f 273 296 297
f 274 273 298
f 298 273 297
f 246 274 299
f 299 274 298
f 283 222 295
f 295 222 300
f 222 225 300
f 300 225 301
f 301 225 302
f 302 225 282
f 303 304 300
f 300 304 295
f 306 307 305
f 305 307 308
f 309 310 308
f 308 310 305
f 308 307 312
f 312 307 311
f 313 314 312
f 312 314 315
f 311 316 312
f 312 316 313
f 317 304 311
f 311 304 316
f 315 309 312
f 312 309 308
f 318 319 321
f 321 319 320
f 319 318 309
f 309 318 310
f 311 307 317
f 317 307 306
f 306 297 317
f 317 297 296
f 306 322 297
f 297 322 298
f 305 323 306
f 306 323 322
f 323 305 324
f 324 305 310
f 304 317 295
f 295 317 296
f 318 325 310
f 310 325 324
f 323 324 326
f 326 324 327
f 324 325 327
f 327 325 328
f 326 327 329
f 329 327 330
f 329 331 326
f 326 331 332
f 333 330 328
f 328 330 327
f 323 326 322
f 322 326 332
f 322 332 298
f 298 332 299
f 325 318 334
f 334 318 321
f 313 316 335
f 335 316 304
f 335 336 313
f 313 336 314
f 304 303 335
f 335 303 337
f 336 335 338
f 338 335 337
f 336 339 314
f 314 339 340
f 246 299 238
f 238 299 341
f 239 342 282
f 282 342 302
f 342 239 341
f 341 239 238
f 341 331 342
f 342 331 343
f 331 329 343
f 343 329 344
f 342 343 302
f 302 343 345
f 341 299 331
f 331 299 332
f 346 301 345
f 345 301 302
f 346 303 301
f 301 303 300
f 347 337 346
f 346 337 303
f 347 346 348
f 348 346 345
f 349 347 350
f 350 347 348
f 343 344 345
f 345 344 348
f 344 351 348
f 348 351 350
f 337 347 338
f 338 347 349
f 353 338 352
f 352 338 349
f 352 355 354
f 354 355 356
f 352 349 355
f 355 349 350
f 352 354 353
f 353 354 334
f 353 334 339
f 339 334 321
f 339 336 353
f 353 336 338
f 329 330 344
f 344 330 351
f 356 351 333
f 333 351 330
f 356 355 351
f 351 355 350
f 354 356 328
f 328 356 333
f 328 325 354
f 354 325 334
f 309 315 319
f 319 315 320
f 320 340 321
f 321 340 339
f 320 315 340
f 340 315 314
f 137 136 261
f 261 136 259
f 140 166 141
f 141 166 165
f 172 171 195
f 195 171 196
f 171 174 196
f 196 174 190
f 178 177 264
f 264 177 187
f 172 195 140
f 140 195 166
f 137 261 262
f 262 261 275
f 178 264 141
f 141 264 138
f 262 177 213
f 213 177 176
f 136 174 259
f 259 174 173
f 358 359 357
f 357 359 360
f 362 363 361
f 361 363 364
f 361 364 365
f 365 364 366
f 367 368 370
f 370 368 369
f 76 371 247
f 247 371 372
f 373 374 362
f 362 374 363
f 376 377 375
f 375 377 378
f 289 229 380
f 380 229 379
f 381 379 263
f 263 379 229
f 383 384 382
f 382 384 385
f 386 368 374
f 374 368 363
f 76 289 371
f 371 289 380
f 377 376 359
f 359 376 387
f 388 386 360
f 360 386 374
f 389 383 366
f 366 383 390
f 392 393 391
f 391 393 394
f 383 382 390
f 390 382 395
f 396 365 390
f 390 365 366
f 389 366 367
f 367 366 364
f 357 397 358
f 358 397 398
f 373 399 357
f 357 399 397
f 389 367 400
f 400 367 370
f 382 385 375
f 375 385 372
f 357 360 373
f 373 360 374
f 361 401 362
f 362 401 402
f 387 388 359
f 359 388 360
f 363 368 364
f 364 368 367
f 358 398 403
f 403 398 404
f 396 392 405
f 405 392 391
f 392 395 393
f 393 395 378
f 393 403 394
f 394 403 404
f 375 378 382
f 382 378 395
f 365 396 406
f 406 396 405
f 362 402 373
f 373 402 399
f 271 270 400
f 400 270 384
f 401 361 406
f 406 361 365
f 381 369 386
f 386 369 368
f 392 396 395
f 395 396 390
f 393 378 403
f 403 378 377
f 403 377 358
f 358 377 359
f 406 405 408
f 408 405 407
f 406 408 401
f 401 408 409
f 401 409 402
f 402 409 410
f 402 410 399
f 399 410 411
f 405 391 407
f 407 391 412
f 391 394 412
f 412 394 413
f 394 404 413
f 413 404 414
f 415 416 412
f 412 416 407
f 418 419 417
f 417 419 420
f 421 422 418
f 418 422 419
f 419 422 424
f 424 422 423
f 425 426 424
f 424 426 427
f 423 428 424
f 424 428 425
f 427 420 424
f 424 420 419
f 420 429 417
f 417 429 430
f 423 422 431
f 431 422 421
f 421 409 431
f 431 409 408
f 421 432 409
f 409 432 410
f 418 433 421
f 421 433 432
f 434 433 417
f 417 433 418
f 431 416 423
f 423 416 428
f 416 431 407
f 407 431 408
f 435 434 430
f 430 434 417
f 433 434 436
f 436 434 437
f 434 435 437
f 437 435 438
f 436 437 439
f 439 437 440
f 439 441 436
f 436 441 442
f 438 443 437
f 437 443 440
f 436 442 433
f 433 442 432
f 432 442 410
f 410 442 411
f 435 430 445
f 445 430 444
f 430 429 444
f 444 429 446
f 425 428 447
f 447 428 416
f 426 425 448
f 448 425 447
f 416 415 447
f 447 415 449
f 447 449 448
f 448 449 450
f 451 452 448
f 448 452 426
f 446 452 444
f 444 452 451
f 399 411 397
f 397 411 453
f 398 454 404
f 404 454 414
f 454 398 453
f 453 398 397
f 453 441 454
f 454 441 455
f 441 439 455
f 455 439 456
f 454 455 414
f 414 455 457
f 441 453 442
f 442 453 411
f 458 413 457
f 457 413 414
f 458 415 413
f 413 415 412
f 458 459 415
f 415 459 449
f 459 458 460
f 460 458 457
f 461 459 462
f 462 459 460
f 455 456 457
f 457 456 460
f 456 463 460
f 460 463 462
f 459 461 449
f 449 461 450
f 465 450 464
f 464 450 461
f 464 467 466
f 466 467 468
f 464 461 467
f 467 461 462
f 464 466 465
f 465 466 445
f 465 445 451
f 451 445 444
f 451 448 465
f 465 448 450
f 439 440 456
f 456 440 463
f 468 463 443
f 443 463 440
f 468 467 463
f 463 467 462
f 466 468 438
f 438 468 443
f 438 435 466
f 466 435 445
f 420 427 429
f 429 427 446
f 446 427 452
f 452 427 426
f 370 369 188
f 188 369 186
f 371 376 372
f 372 376 375
f 380 379 387
f 387 379 388
f 379 381 388
f 388 381 386
f 385 384 278
f 278 384 270
f 380 387 371
f 371 387 376
f 400 370 271
f 271 370 188
f 385 278 372
f 372 278 247
f 400 384 389
f 389 384 383
f 369 381 186
f 186 381 263
f 221 271 144
f 144 271 188
f 221 19 207
f 207 19 22
f 19 18 22
f 22 18 23
f 18 219 23
f 23 219 208
f 469 470 472
f 472 470 471
f 474 475 473
f 473 475 476
f 473 476 477
f 477 476 478
f 480 481 479
f 479 481 482
f 483 484 474
f 474 484 475
f 486 487 485
f 485 487 488
f 489 490 77
f 77 490 142
f 491 489 248
f 248 489 77
f 493 494 492
f 492 494 495
f 496 480 484
f 484 480 475
f 486 497 487
f 487 497 471
f 498 496 472
f 472 496 484
f 499 493 478
f 478 493 500
f 501 502 504
f 504 502 503
f 493 492 500
f 500 492 505
f 506 477 500
f 500 477 478
f 499 478 479
f 479 478 476
f 469 507 470
f 470 507 508
f 483 509 469
f 469 509 507
f 479 482 499
f 499 482 510
f 492 495 485
f 485 495 511
f 483 469 484
f 484 469 472
f 473 512 474
f 474 512 513
f 497 498 471
f 471 498 472
f 475 480 476
f 476 480 479
f 470 508 514
f 514 508 515
f 506 502 516
f 516 502 501
f 503 502 488
f 488 502 505
f 514 515 503
f 503 515 504
f 485 488 492
f 492 488 505
f 477 506 517
f 517 506 516
f 474 513 483
f 483 513 509
f 510 292 494
f 494 292 164
f 512 473 517
f 517 473 477
f 491 481 496
f 496 481 480
f 502 506 505
f 505 506 500
f 503 488 514
f 514 488 487
f 514 487 470
f 470 487 471
f 517 516 519
f 519 516 518
f 517 519 512
f 512 519 520
f 512 520 513
f 513 520 521
f 513 521 509
f 509 521 522
f 516 501 518
f 518 501 523
f 501 504 523
f 523 504 524
f 524 504 525
f 525 504 515
f 526 527 523
f 523 527 518
f 529 530 528
f 528 530 531
f 532 533 529
f 529 533 530
f 530 533 535
f 535 533 534
f 536 537 535
f 535 537 538
f 534 539 535
f 535 539 536
f 538 531 535
f 535 531 530
f 540 541 531
f 531 541 528
f 533 532 534
f 534 532 542
f 532 520 542
f 542 520 519
f 532 543 520
f 520 543 521
f 529 544 532
f 532 544 543
f 544 529 545
f 545 529 528
f 534 542 539
f 539 542 527
f 527 542 518
f 518 542 519
f 541 546 528
f 528 546 545
f 547 544 548
f 548 544 545
f 546 549 545
f 545 549 548
f 550 547 551
f 551 547 548
f 547 550 553
f 553 550 552
f 549 554 548
f 548 554 551
f 544 547 543
f 543 547 553
f 543 553 521
f 521 553 522
f 546 541 556
f 556 541 555
f 541 540 555
f 555 540 557
f 536 539 558
f 558 539 527
f 537 536 559
f 559 536 558
f 527 526 558
f 558 526 560
f 559 558 561
f 561 558 560
f 559 562 537
f 537 562 563
f 557 563 555
f 555 563 562
f 509 522 507
f 507 522 564
f 508 565 515
f 515 565 525
f 565 508 564
f 564 508 507
f 564 552 565
f 565 552 566
f 552 550 566
f 566 550 567
f 565 566 525
f 525 566 568
f 564 522 552
f 552 522 553
f 569 524 568
f 568 524 525
f 569 526 524
f 524 526 523
f 570 560 569
f 569 560 526
f 570 569 571
f 571 569 568
f 572 570 573
f 573 570 571
f 566 567 568
f 568 567 571
f 567 574 571
f 571 574 573
f 570 572 560
f 560 572 561
f 576 561 575
f 575 561 572
f 575 578 577
f 577 578 579
f 575 572 578
f 578 572 573
f 575 577 576
f 576 577 556
f 576 556 562
f 562 556 555
f 562 559 576
f 576 559 561
f 550 551 567
f 567 551 574
f 579 574 554
f 554 574 551
f 579 578 574
f 574 578 573
f 579 554 577
f 577 554 549
f 549 546 577
f 577 546 556
f 531 538 540
f 540 538 557
f 557 538 563
f 563 538 537
f 481 294 482
f 482 294 293
f 580 486 511
f 511 486 485
f 490 489 497
f 497 489 498
f 489 491 498
f 498 491 496
f 163 495 164
f 164 495 494
f 580 490 486
f 486 490 497
f 482 293 510
f 510 293 292
f 495 163 511
f 511 163 199
f 494 493 510
f 510 493 499
f 481 491 294
f 294 491 248
f 582 583 581
f 581 583 584
f 586 587 585
f 585 587 588
f 585 588 589
f 589 588 590
f 592 593 591
f 591 593 594
f 595 596 598
f 598 596 597
f 599 600 586
f 586 600 587
f 601 602 604
f 604 602 603
f 605 606 608
f 608 606 607
f 609 607 200
f 200 607 606
f 610 611 613
f 613 611 612
f 600 614 587
f 587 614 592
f 596 605 597
f 597 605 608
f 602 615 603
f 603 615 583
f 616 614 584
f 584 614 600
f 611 618 617
f 617 618 590
f 620 621 619
f 619 621 622
f 610 623 611
f 611 623 618
f 624 589 618
f 618 589 590
f 617 590 591
f 591 590 588
f 581 625 582
f 582 625 626
f 599 627 581
f 581 627 625
f 591 594 617
f 617 594 628
f 601 610 598
f 598 610 613
f 581 584 599
f 599 584 600
f 585 629 586
f 586 629 630
f 615 616 583
f 583 616 584
f 587 592 588
f 588 592 591
f 582 626 631
f 631 626 632
f 624 620 633
f 633 620 619
f 621 620 604
f 604 620 623
f 631 632 621
f 621 632 622
f 610 601 623
f 623 601 604
f 589 624 634
f 634 624 633
f 586 630 599
f 599 630 627
f 203 202 628
f 628 202 612
f 629 585 634
f 634 585 589
f 609 593 614
f 614 593 592
f 620 624 623
f 623 624 618
f 631 621 603
f 603 621 604
f 582 631 583
f 583 631 603
f 634 633 636
f 636 633 635
f 634 636 629
f 629 636 637
f 629 637 630
f 630 637 638
f 630 638 627
f 627 638 639
f 633 619 635
f 635 619 640
f 619 622 640
f 640 622 641
f 641 622 642
f 642 622 632
f 644 635 643
f 643 635 640
f 645 646 648
f 648 646 647
f 649 650 646
f 646 650 647
f 647 650 652
f 652 650 651
f 652 653 655
f 655 653 654
f 651 656 652
f 652 656 653
f 655 648 652
f 652 648 647
f 648 657 645
f 645 657 658
f 650 649 651
f 651 649 659
f 649 637 659
f 659 637 636
f 649 660 637
f 637 660 638
f 661 660 646
f 646 660 649
f 662 661 645
f 645 661 646
f 651 659 656
f 656 659 644
f 644 659 635
f 635 659 636
f 663 662 658
f 658 662 645
f 664 661 665
f 665 661 662
f 663 666 662
f 662 666 665
f 667 664 668
f 668 664 665
f 664 667 670
f 670 667 669
f 666 671 665
f 665 671 668
f 661 664 660
f 660 664 670
f 660 670 638
f 638 670 639
f 658 672 663
f 663 672 673
f 658 657 672
f 672 657 674
f 653 656 675
f 675 656 644
f 653 675 654
f 654 675 676
f 675 644 677
f 677 644 643
f 676 675 678
f 678 675 677
f 679 680 676
f 676 680 654
f 674 680 672
f 672 680 679
f 627 639 625
f 625 639 681
f 626 682 632
f 632 682 642
f 681 682 625
f 625 682 626
f 669 683 681
f 681 683 682
f 667 684 669
f 669 684 683
f 682 683 642
f 642 683 685
f 681 639 669
f 669 639 670
f 686 641 685
f 685 641 642
f 641 686 640
f 640 686 643
f 686 687 643
f 643 687 677
f 687 686 688
f 688 686 685
f 689 687 690
f 690 687 688
f 683 684 685
f 685 684 688
f 684 691 688
f 688 691 690
f 687 689 677
f 677 689 678
f 693 678 692
f 692 678 689
f 692 695 694
f 694 695 696
f 692 689 695
f 695 689 690
f 692 694 693
f 693 694 673
f 693 673 679
f 679 673 672
f 679 676 693
f 693 676 678
f 684 667 691
f 691 667 668
f 696 691 671
f 671 691 668
f 696 695 691
f 691 695 690
f 694 696 666
f 666 696 671
f 666 663 694
f 694 663 673
f 648 655 657
f 657 655 674
f 674 655 680
f 680 655 654
f 593 162 594
f 594 162 290
f 598 597 601
f 601 597 602
f 615 608 616
f 616 608 607
f 607 609 616
f 616 609 614
f 697 595 613
f 613 595 598
f 597 608 602
f 602 608 615
f 594 290 628
f 628 290 203
f 628 612 617
f 617 612 611
f 593 609 162
f 162 609 200
f 105 29 698
f 698 29 699
f 268 126 701
f 701 126 700
f 126 125 700
f 700 125 702
f 252 703 250
f 250 703 704
f 32 268 705
f 705 268 701
f 288 105 706
f 706 105 698
f 29 32 699
f 699 32 705
f 707 251 706
f 706 251 288
f 250 704 125
f 125 704 702
f 703 252 707
f 707 252 251
f 706 708 707
f 707 708 709
f 707 709 703
f 703 709 710
f 703 710 704
f 704 710 711
f 704 711 702
f 702 711 712
f 706 698 708
f 708 698 713
f 698 699 713
f 713 699 714
f 699 705 714
f 714 705 715
f 717 708 716
f 716 708 713
f 719 720 718
f 718 720 721
f 722 723 719
f 719 723 720
f 724 725 723
f 723 725 720
f 724 726 725
f 725 726 727
f 728 721 725
f 725 721 720
f 721 728 729
f 729 728 730
f 729 731 721
f 721 731 718
f 724 723 732
f 732 723 722
f 722 710 732
f 732 710 709
f 722 733 710
f 710 733 711
f 719 734 722
f 722 734 733
f 734 719 735
f 735 719 718
f 724 732 726
f 726 732 717
f 717 732 708
f 708 732 709
f 731 736 718
f 718 736 735
f 737 734 738
f 738 734 735
f 736 739 735
f 735 739 738
f 740 737 741
f 741 737 738
f 737 740 743
f 743 740 742
f 739 744 738
f 738 744 741
f 734 737 733
f 733 737 743
f 733 743 711
f 711 743 712
f 736 731 746
f 746 731 745
f 731 729 745
f 745 729 730
f 727 726 747
f 747 726 717
f 748 727 749
f 749 727 747
f 747 717 750
f 750 717 716
f 749 747 751
f 751 747 750
f 749 752 748
f 748 752 753
f 730 753 745
f 745 753 752
f 728 725 748
f 748 725 727
f 730 728 753
f 753 728 748
f 700 702 754
f 754 702 712
f 705 701 715
f 715 701 755
f 754 755 700
f 700 755 701
f 742 756 754
f 754 756 755
f 740 757 742
f 742 757 756
f 755 756 715
f 715 756 758
f 754 712 742
f 742 712 743
f 759 714 758
f 758 714 715
f 714 759 713
f 713 759 716
f 759 760 716
f 716 760 750
f 760 759 761
f 761 759 758
f 762 760 763
f 763 760 761
f 756 757 758
f 758 757 761
f 757 764 761
f 761 764 763
f 760 762 750
f 750 762 751
f 766 751 765
f 765 751 762
f 767 765 769
f 769 765 768
f 765 762 768
f 768 762 763
f 765 767 766
f 766 767 746
f 766 746 752
f 752 746 745
f 752 749 766
f 766 749 751
f 757 740 764
f 764 740 741
f 769 764 744
f 744 764 741
f 769 768 764
f 764 768 763
f 767 769 739
f 739 769 744
f 739 736 767
f 767 736 746
f 219 217 208
f 208 217 209
f 209 217 210
f 210 217 193
f 198 580 199
f 199 580 511
f 76 75 289
f 289 75 272
f 277 207 291
f 291 207 184
f 290 183 203
f 203 183 84
f 490 580 142
f 142 580 198
f 142 198 143
f 143 198 197
f 149 276 72
f 72 276 73
f 104 103 279
f 279 103 770
f 770 596 279
f 279 596 595
f 605 596 771
f 771 596 770
f 771 770 772
f 772 770 103
f 772 103 773
f 773 103 102
f 155 774 101
f 101 774 102
f 773 102 97
f 97 102 774
f 775 773 100
f 100 773 97
f 773 775 772
f 772 775 776
f 772 776 771
f 771 776 777
f 200 606 197
f 197 606 777
f 189 71 778
f 778 71 74
f 97 774 98
f 98 774 155
f 183 161 184
f 184 161 291
f 777 276 197
f 197 276 143
f 777 606 771
f 771 606 605
f 613 612 697
f 697 612 202
f 595 697 279
f 279 697 202
f 73 276 776
f 776 276 777
f 776 775 73
f 73 775 74
f 100 778 775
f 775 778 74
f 778 100 189
f 189 100 99
f 245 242 99
f 99 242 189
f 131 33 256
f 28 1 95
f 95 1 62
f 27 2 28
f 28 2 1
f 265 115 266
f 266 115 114
f 95 62 69
f 69 62 64
f 62 61 64
f 64 61 65
f 61 13 65
f 65 13 130
f 13 12 130
f 130 12 14
f 31 11 32
f 32 11 268
f 15 12 31
f 31 12 11
f 31 30 15
f 15 30 231
f 30 106 231
f 231 106 232
f 287 237 106
f 106 237 232
f 254 90 287
f 287 90 237
f 253 44 254
f 254 44 90
f 253 249 44
f 44 249 7
f 267 127 268
f 268 127 126
f 10 3 241
f 241 3 116
f 3 2 116
f 116 2 114
f 2 27 114
f 114 27 266
f 27 26 266
f 266 26 113
f 26 286 113
f 113 286 110
f 286 243 110
f 110 243 255
f 243 242 255
f 255 242 256
f 242 245 256
f 256 245 131
f 245 244 131
f 131 244 132
f 265 37 115
f 115 37 41
f 41 37 42
f 42 37 40
f 92 91 40
f 40 91 42
f 236 233 92
f 92 233 91
f 191 194 236
f 236 194 233
f 258 285 244
f 244 285 132
f 257 55 258
f 258 55 285
f 257 154 201
f 201 154 185
f 56 201 204
f 204 201 180
f 55 257 56
f 56 257 201
f 204 85 56
f 56 85 52
f 86 122 53
f 53 122 79
f 212 215 86
f 86 215 122
f 211 216 212
f 212 216 215
f 192 280 211
f 211 280 216
f 191 240 192
f 192 240 280
f 249 124 7
f 7 124 8
f 124 127 8
f 8 127 241
f 127 267 241
f 241 267 10
f 10 267 9
f 9 267 11
