v -0.009127996861934662 0.06059419363737106 0.8751907348632812
v 0.003673963248729706 0.05656728148460388 0.8745288252830505
v -0.0029679611325263977 0.051601603627204895 0.8795850872993469
v -0.01416970044374466 0.05643192678689957 0.8807730078697205
v 0.013863086700439453 0.04809192195534706 0.8922488689422607
v 0.016953952610492706 0.05331197381019592 0.9024057388305664
v 0.00061822310090065 0.04993673413991928 0.9029315114021301
v 0.0018057823181152344 0.0454426109790802 0.8934661746025085
v -0.019042234867811203 0.0559212751686573 0.8842588663101196
v -0.00956796109676361 0.04933794215321541 0.8827574849128723
v -0.020876746624708176 0.060724567621946335 0.8844314813613892
v -0.02920389547944069 0.07021255046129227 0.8898419141769409
v -0.028173914179205894 0.0638127252459526 0.8882812261581421
v -0.036551348865032196 0.07464298605918884 0.8911340832710266
v -0.02368391677737236 0.0798744484782219 0.8906989097595215
v -0.03454507887363434 0.08308161795139313 0.8875380754470825
v -0.01512964814901352 0.09479279816150665 0.8724613189697266
v -0.011595357209444046 0.09571592509746552 0.8602627515792847
v -0.027072902768850327 0.09361036121845245 0.8589479327201843
v -0.0291450172662735 0.09215882420539856 0.8715927600860596
v -0.016840685158967972 0.0904032438993454 0.8417670726776123
v -0.02347344532608986 0.09233839064836502 0.8510379791259766
v -0.007778838276863098 0.09544632583856583 0.8523721098899841
v -0.0025931261479854584 0.09331538528203964 0.8439396619796753
v -0.0019693486392498016 0.06534191966056824 0.8637439012527466
v 0.009557664394378662 0.06361234188079834 0.8628296256065369
v 0.00816626101732254 0.061974603682756424 0.8671795725822449
v -0.0035903342068195343 0.06422686576843262 0.8681809306144714
v -0.023717626929283142 0.06150281801819801 0.8888985514640808
v -0.017075814306735992 0.07135926932096481 0.8945145606994629
v -0.020780086517333984 0.06800996512174606 0.8891156911849976
v -0.02273569256067276 0.057693399488925934 0.8851228356361389
v 0.03490905463695526 0.05722808837890625 0.8547311425209045
v 0.04675029218196869 0.06305933743715286 0.8570020794868469
v 0.04610908031463623 0.06358244270086288 0.8629352450370789
v 0.03554963320493698 0.05850061774253845 0.8596644997596741
v 0.037828944623470306 0.05997477471828461 0.8879879713058472
v 0.04516316205263138 0.06609699130058289 0.8822547197341919
v 0.04896342009305954 0.07509874552488327 0.8911381363868713
v 0.039696983993053436 0.07257221639156342 0.8958403468132019
v 0.028058908879756927 0.055115558207035065 0.8968210220336914
v 0.0296497642993927 0.06616773456335068 0.9027665853500366
v 0.015037335455417633 0.06338386237621307 0.9081653356552124
v -0.0030272789299488068 0.0570995956659317 0.9080601334571838
v 0.048203423619270325 0.06498119980096817 0.8444461822509766
v 0.03986956924200058 0.060473427176475525 0.8409765958786011
v -0.08360631763935089 0.09715799987316132 0.8785505294799805
v -0.08258572220802307 0.09767377376556396 0.8728682994842529
v -0.08000954985618591 0.09062894433736801 0.8749282360076904
v -0.08104413747787476 0.09193909913301468 0.8801823258399963
v 0.04153618961572647 0.07917226105928421 0.8319863677024841
v 0.040100328624248505 0.08910231292247772 0.8328501582145691
v 0.04725278168916702 0.08801987022161484 0.8326288461685181
v 0.04880734533071518 0.07883519679307938 0.8336938619613647
v 0.03187800943851471 0.0794559046626091 0.8298746347427368
v 0.030088454484939575 0.08993341028690338 0.8336967825889587
v -0.0748366191983223 0.10337096452713013 0.8841841816902161
v -0.07929413765668869 0.10101988911628723 0.8846688866615295
v -0.07569488883018494 0.09716638177633286 0.8857036828994751
v -0.07077536731958389 0.09914356470108032 0.8839597702026367
v -0.024844054132699966 0.06103254854679108 0.8841861486434937
v -0.019978996366262436 0.06177200749516487 0.8770121335983276
v -0.0481451153755188 0.06534337997436523 0.8842805027961731
v -0.03484576195478439 0.06371767818927765 0.8802258968353271
v -0.035271055996418 0.06415523588657379 0.8871716260910034
v -0.04571187123656273 0.0672079399228096 0.8899373412132263
v -0.02458176761865616 0.06611938029527664 0.8588305115699768
v -0.012840155512094498 0.0664530098438263 0.8600905537605286
v -0.015759821981191635 0.06620887666940689 0.8657566905021667
v -0.029024606570601463 0.06519687175750732 0.8662043213844299
v -0.008510619401931763 0.06368335336446762 0.8469492793083191
v -0.02044079080224037 0.06397100538015366 0.8467633724212646
v -0.016692262142896652 0.06226731464266777 0.8393345475196838
v -0.008768845349550247 0.061506323516368866 0.8407999277114868
v -0.04326236993074417 0.06572432816028595 0.849066436290741
v -0.05156126618385315 0.070008784532547 0.8483026027679443
v -0.0513758510351181 0.07174079865217209 0.8440430760383606
v -0.041916340589523315 0.06645891815423965 0.8454374074935913
v 0.054285936057567596 0.08803505450487137 0.8328752517700195
v 0.05555972456932068 0.07891014218330383 0.8362260460853577
v -0.00782129168510437 0.08348844945430756 0.8239812850952148
v -0.0016804784536361694 0.0759214460849762 0.8190914392471313
v -0.013746984302997589 0.0733528584241867 0.8150209188461304
v -0.01652771234512329 0.08198700100183487 0.8214011192321777
v 0.036957986652851105 0.09672154486179352 0.8391250371932983
v 0.04442794620990753 0.09669043868780136 0.8368315100669861
v -0.0705963671207428 0.10543414950370789 0.8801407217979431
v -0.06743834912776947 0.10095496475696564 0.8792228698730469
v 0.014690257608890533 0.07506507635116577 0.9060938358306885
v -0.005323193967342377 0.06620588153600693 0.907487690448761
v 0.02975456416606903 0.08002554625272751 0.9007788300514221
v 0.03923475742340088 0.08417902141809464 0.89534592628479
v 0.047871336340904236 0.08659729361534119 0.8931326270103455
v -0.03890419006347656 0.06347931176424026 0.8744716644287109
v -0.013772204518318176 0.06423773616552353 0.870840311050415
v -0.00044194236397743225 0.06523322314023972 0.8592535853385925
v 0.004385136067867279 0.05743962526321411 0.8301184177398682
v 0.014868281781673431 0.05713168531656265 0.8318181037902832
v 0.009154722094535828 0.05695900693535805 0.8407554030418396
v 0.0011384151875972748 0.05792698636651039 0.83735191822052
v -0.0010551437735557556 0.06623450666666031 0.8181453943252563
v -0.003879651427268982 0.06030089408159256 0.8225180506706238
v -0.013212628662586212 0.060212697833776474 0.8207097053527832
v -0.011787142604589462 0.0651569664478302 0.815809428691864
v -0.02469734475016594 0.06273142993450165 0.8956851363182068
v -0.013136476278305054 0.07368398457765579 0.8994152545928955
v 0.04228536784648895 0.06909511983394623 0.8347716331481934
v 0.04892980307340622 0.06999178230762482 0.8385750651359558
v 0.05655485391616821 0.07271209359169006 0.8407852649688721
v 0.02269750088453293 0.059516988694667816 0.8605195879936218
v 0.03611203283071518 0.059174634516239166 0.8633877635002136
v 0.03537866473197937 0.058471113443374634 0.8686530590057373
v 0.022627681493759155 0.05981694906949997 0.8636889457702637
v 0.015986531972885132 0.05164411664009094 0.878199577331543
v 0.02622807025909424 0.05151360481977463 0.8846861124038696
v 0.006413489580154419 0.04687117785215378 0.8827080130577087
v 0.04693254828453064 0.06457934528589249 0.8714863061904907
v 0.05580832064151764 0.06573475152254105 0.864800214767456
v 0.05530758947134018 0.0674503743648529 0.8736478686332703
v 0.056746505200862885 0.06646591424942017 0.8550850749015808
v 0.05704677850008011 0.06862477958202362 0.8464612364768982
v 0.05223540961742401 0.09953898191452026 0.8352358937263489
v 0.053715892136096954 0.07054157555103302 0.88142991065979
v -0.006586000323295593 0.04418736696243286 0.892646312713623
v -0.014307413250207901 0.04224491864442825 0.8907374739646912
v -0.015522226691246033 0.045648038387298584 0.8836801648139954
v -0.008618231862783432 0.046619780361652374 0.8844994902610779
v -0.04532167315483093 0.07998266816139221 0.8913444876670837
v -0.04662175849080086 0.07266367226839066 0.8924640417098999
v -0.03514009341597557 0.06786990910768509 0.8918055891990662
v 0.02529735118150711 0.05614582449197769 0.8483380079269409
v 0.030046679079532623 0.05864889174699783 0.8370099663734436
v -0.051532115787267685 0.06678397208452225 0.8782861828804016
v -0.06598033010959625 0.0997205525636673 0.8836088180541992
v -0.06998808681964874 0.09639495611190796 0.886552095413208
v -0.05672970786690712 0.08960457891225815 0.8892240524291992
v -0.05417676270008087 0.0940670296549797 0.8854228258132935
v -0.05823647975921631 0.07625039666891098 0.8725057244300842
v -0.057048872113227844 0.07226041704416275 0.8774366974830627
v -0.05963670462369919 0.07638422399759293 0.8762422800064087
v -0.06048143282532692 0.08014257252216339 0.8712338209152222
v -0.04597123712301254 0.06918800622224808 0.8373346328735352
v -0.03771528601646423 0.06502680480480194 0.8383388519287109
v -0.04389651492238045 0.08677142858505249 0.8701128363609314
v -0.040192436426877975 0.08862528949975967 0.8816187977790833
v -0.03085273876786232 0.08982259035110474 0.8804282546043396
v -0.02143171802163124 0.06534266471862793 0.8521175384521484
v -0.032258182764053345 0.06479306519031525 0.8501086235046387
v -0.031089728698134422 0.06456796079874039 0.8461381196975708
v -0.04245299473404884 0.06450480222702026 0.8709321618080139
v -0.05220133811235428 0.06763586401939392 0.8722354173660278
v -0.04796595871448517 0.06657176464796066 0.8672371506690979
v -0.03872974216938019 0.06531541794538498 0.8659363389015198
v 0.010683074593544006 0.07837753742933273 0.8223719596862793
v 0.011592693626880646 0.06694033741950989 0.8208329677581787
v -0.08242711424827576 0.09854432940483093 0.8827934861183167
v -0.07913179695606232 0.09408527612686157 0.8842117190361023
v -0.009999003261327744 0.06568951904773712 0.8534958958625793
v -0.017992381006479263 0.0907939150929451 0.8806976079940796
v 0.00135064497590065 0.06446604430675507 0.8542202711105347
v -0.03145868331193924 0.08144202083349228 0.8312269449234009
v -0.03288843110203743 0.0761769562959671 0.8274772763252258
v -0.038275107741355896 0.07690776884555817 0.829120397567749
v -0.036920465528964996 0.08228126168251038 0.8306410908699036
v -0.07014941424131393 0.09053318202495575 0.8672332763671875
v -0.0739595964550972 0.08801267296075821 0.8709090948104858
v -0.07763242721557617 0.0914144366979599 0.8691174387931824
v -0.07341350615024567 0.09384070336818695 0.8663092255592346
v -0.056249335408210754 0.07193736732006073 0.8832479119300842
v -0.05423187091946602 0.07327917963266373 0.8892955780029297
v -0.06034860014915466 0.07854810357093811 0.886776864528656
v -0.06059965863823891 0.07698582112789154 0.8812455534934998
v -0.053597308695316315 0.07948394119739532 0.8914598822593689
v -0.058803629130125046 0.08378368616104126 0.8897039890289307
v -0.06530865281820297 0.09502530097961426 0.8678451180458069
v -0.06158456951379776 0.09960084408521652 0.8728994727134705
v -0.05331585183739662 0.0932687520980835 0.87291020154953
v -0.05839236453175545 0.08760346472263336 0.8701542019844055
v 0.011553280055522919 0.09658999741077423 0.8463932275772095
v 0.015286900103092194 0.09272714704275131 0.8367824554443359
v 0.001238938421010971 0.08944996446371078 0.8340197205543518
v -0.012071888893842697 0.08682256191968918 0.830880343914032
v -0.02435484156012535 0.08291034400463104 0.8291151523590088
v -0.028033072128891945 0.08824636042118073 0.839474081993103
v 0.005175590515136719 0.08633223921060562 0.8277978301048279
v -0.05554720386862755 0.08086513727903366 0.8680498600006104
v -0.04871252179145813 0.08627695590257645 0.8740219473838806
v -0.050571881234645844 0.08440282195806503 0.8691145777702332
v 0.0029199011623859406 0.061739481985569 0.8475240468978882
v -0.07286737859249115 0.09298164397478104 0.8863039612770081
v 0.037173718214035034 0.10058034956455231 0.8813090324401855
v 0.03751508146524429 0.1043609231710434 0.8687525391578674
v 0.02909788489341736 0.10237464308738708 0.8703757524490356
v 0.02832093834877014 0.09765191376209259 0.8839468955993652
v -0.07576945424079895 0.08696562051773071 0.8775066137313843
v -0.07567092031240463 0.08896564692258835 0.8830755352973938
v -0.03637111186981201 0.06466487795114517 0.8320534825325012
v -0.042925477027893066 0.06904030591249466 0.8323821425437927
v -0.04237645864486694 0.07126567512750626 0.8295222520828247
v -0.036962270736694336 0.0659954845905304 0.8272036910057068
v 0.018504932522773743 0.09018624573945999 0.8326199650764465
v -0.022202320396900177 0.07062412053346634 0.8130722641944885
v -0.023108527064323425 0.07898488640785217 0.817771315574646
v 0.027587398886680603 0.09564690291881561 0.8396058082580566
v 0.024412870407104492 0.09960909932851791 0.8478599786758423
v 0.0338602289557457 0.10161716490983963 0.8483412861824036
v -0.039429619908332825 0.08839117735624313 0.850172758102417
v 0.006904914975166321 0.09812920540571213 0.8534762263298035
v 0.020970188081264496 0.10056304186582565 0.8545825481414795
v 0.03213220834732056 0.10297145694494247 0.8554731607437134
v 0.04013751447200775 0.10520345717668533 0.8553731441497803
v 0.04126614332199097 0.1032753586769104 0.8475755453109741
v -0.0629710778594017 0.10030674934387207 0.8781293034553528
v -0.0656190887093544 0.10084985196590424 0.8734109401702881
v 0.049545496702194214 0.10664623975753784 0.8461400270462036
v 0.048045314848423004 0.10804426670074463 0.8551464080810547
v 0.017825409770011902 0.10079030692577362 0.8632257580757141
v 0.014309518039226532 0.09981992840766907 0.8733114004135132
v 0.004353325814008713 0.09828034043312073 0.8617023825645447
v -0.00020016729831695557 0.0971687063574791 0.8716586828231812
v -0.03771089389920235 0.09153015911579132 0.8598812818527222
v -0.0751970186829567 0.11571680754423141 0.869915246963501
v -0.07022738456726074 0.10498987883329391 0.8691337704658508
v -0.07449326664209366 0.10208660364151001 0.8662930130958557
v -0.07681234925985336 0.11313198506832123 0.8664898872375488
v -0.06881576776504517 0.09737353026866913 0.867987871170044
v -0.06827044486999512 0.10605844110250473 0.8743647933006287
v -0.0033583976328372955 0.09208936989307404 0.8827489614486694
v -0.05729570984840393 0.07174838334321976 0.8666679263114929
v 0.012059785425662994 0.09262941777706146 0.8869217038154602
v -0.012029461562633514 0.08426424860954285 0.892591118812561
v -0.0011264346539974213 0.08321826159954071 0.8961676955223083
v 0.027700677514076233 0.09155348688364029 0.8939155340194702
v 0.013100750744342804 0.08491110056638718 0.9000577926635742
v 0.045747265219688416 0.0957651361823082 0.8887560367584229
v 0.03672851622104645 0.09417964518070221 0.8903619647026062
v -0.0018993169069290161 0.07662700861692429 0.9033173322677612
v -0.08788219094276428 0.10588879883289337 0.8723655939102173
v -0.08468873053789139 0.10596967488527298 0.8675633072853088
v 0.045251645147800446 0.10289345681667328 0.8803892135620117
v -0.0024194568395614624 0.045862652361392975 0.8843767046928406
v 0.013215355575084686 0.05988007038831711 0.8508036732673645
v 0.011700935661792755 0.062040723860263824 0.8556137084960938
v 0.02099549025297165 0.057494502514600754 0.8335826396942139
v 0.01627136766910553 0.05667766183614731 0.8442310094833374
v -0.0881439819931984 0.10738532990217209 0.8774159550666809
v -0.05317118391394615 0.07626059651374817 0.8471811413764954
v -0.05216218903660774 0.07722489535808563 0.8451905250549316
v -0.008067995309829712 0.046004362404346466 0.9011473655700684
v -0.014990773051977158 0.04309885948896408 0.8983861207962036
v -0.023167070001363754 0.052462927997112274 0.9027276039123535
v -0.019330736249685287 0.0464237704873085 0.9028904438018799
v -0.012030020356178284 0.05169706419110298 0.90595543384552
v -0.01550251618027687 0.058566220104694366 0.905572235584259
v 0.022504553198814392 0.0588994175195694 0.8578581213951111
v 0.0227353572845459 0.05797276273369789 0.8540212512016296
v 0.02203010767698288 0.07875814288854599 0.826082706451416
v 0.022222593426704407 0.06734286993741989 0.8248594403266907
v -0.051270630210638046 0.08491877466440201 0.8902327418327332
v -0.04327220469713211 0.08591796457767487 0.887933611869812
v -0.048634469509124756 0.08974458277225494 0.8861929178237915
v -0.05148505046963692 0.09492234140634537 0.8794679641723633
v -0.05914894491434097 0.07777391374111176 0.8664059638977051
v -0.055243466049432755 0.08167451620101929 0.8714315891265869
v 0.031240075826644897 0.05505771189928055 0.8754128813743591
v 0.02080574631690979 0.057163089513778687 0.8699614405632019
v -0.013723477721214294 0.05059438571333885 0.8827943205833435
v -0.01907110959291458 0.051395244896411896 0.8816121220588684
v -0.03414854779839516 0.06534744799137115 0.8590989708900452
v -0.04608388990163803 0.08778113126754761 0.852142870426178
v -0.0453416183590889 0.09079090505838394 0.8600965738296509
v -0.0446123331785202 0.06624308973550797 0.8587839603424072
v -0.08335497975349426 0.1134728491306305 0.8806881904602051
v -0.08688810467720032 0.10990393161773682 0.8797379732131958
v -0.047023046761751175 0.09073501080274582 0.8805890083312988
v -0.027921615168452263 0.062287621200084686 0.8387032747268677
v -0.042329512536525726 0.08528346568346024 0.8468769192695618
v -0.04884859174489975 0.08270977437496185 0.8485164642333984
v -0.018594704568386078 0.06376317888498306 0.8149659037590027
v 0.04614967852830887 0.1063830628991127 0.8683339953422546
v -0.07944093644618988 0.09972228854894638 0.8675710558891296
v -0.08074425160884857 0.10785524547100067 0.8648398518562317
v -0.07461762428283691 0.11680066585540771 0.874004602432251
v -0.07720568776130676 0.11574167013168335 0.8790192604064941
v 0.031553804874420166 0.06739107519388199 0.8301992416381836
v 0.01041906327009201 0.06321925669908524 0.8586928844451904
v -0.014740273356437683 0.0685078427195549 0.9025673866271973
v -0.02483811229467392 0.05912181735038757 0.8995376229286194
v -0.05301669239997864 0.06882350146770477 0.8577933311462402
v -0.027697371318936348 0.07933149486780167 0.8243204951286316
v -0.03496319428086281 0.08746335655450821 0.8378713726997375
v -0.03898075595498085 0.08859172463417053 0.8360675573348999
v -0.04462595283985138 0.08891710638999939 0.840305745601654
v -0.05112750455737114 0.08516837656497955 0.8419845104217529
v -0.07748594880104065 0.1205395758152008 0.871289849281311
v -0.08122771978378296 0.12072639167308807 0.8758378624916077
v -0.08685608953237534 0.11915242671966553 0.8760757446289062
v -0.09021466225385666 0.11501171439886093 0.8754481673240662
v -0.09051943570375443 0.11052042245864868 0.8737061619758606
v -0.07776369154453278 0.11887140572071075 0.867415726184845
v -0.07886875420808792 0.11606580018997192 0.8649054169654846
v -0.08195332437753677 0.1101708710193634 0.8643690347671509
v -0.07801666855812073 0.12045840919017792 0.8640486001968384
v -0.07926000654697418 0.12454904615879059 0.8660106062889099
v -0.09149423241615295 0.1278812438249588 0.8656786680221558
v -0.08827674388885498 0.12573276460170746 0.8698753714561462
v -0.08755958080291748 0.1272861659526825 0.8680956959724426
v -0.08942675590515137 0.12991873919963837 0.8645713329315186
v -0.08993548154830933 0.13322967290878296 0.8609479069709778
v -0.09273576736450195 0.1311771273612976 0.8615827560424805
v -0.08337268233299255 0.12583380937576294 0.8685626983642578
v -0.08512991666793823 0.12959730625152588 0.8637707829475403
v -0.08171646296977997 0.12856633961200714 0.8616103529930115
v -0.08282299339771271 0.13251422345638275 0.8582979440689087
v -0.08599714934825897 0.13377554714679718 0.8601714968681335
v -0.08083989471197128 0.1261836290359497 0.8651449084281921
v -0.08275140076875687 0.12516097724437714 0.8701375126838684
v -0.09154371917247772 0.13348639011383057 0.8580619692802429
v -0.08967113494873047 0.13496387004852295 0.8587946891784668
v -0.0865965485572815 0.13511717319488525 0.8577046394348145
v -0.08787389099597931 0.13473279774188995 0.8550677299499512
v -0.09122832119464874 0.12013038992881775 0.8710944056510925
v -0.0928870141506195 0.12599001824855804 0.8649665117263794
v -0.09307438135147095 0.1287134736776352 0.8598662614822388
v -0.09183433651924133 0.13121582567691803 0.8565353751182556
v -0.09281662106513977 0.12355199456214905 0.8619275093078613
v -0.09228064119815826 0.12649324536323547 0.8582218289375305
v -0.09097521752119064 0.12840476632118225 0.8550574779510498
v -0.09113825112581253 0.1214049831032753 0.8587888479232788
v -0.09066615998744965 0.12476126104593277 0.8561727404594421
v -0.09022462368011475 0.1118585467338562 0.8677068948745728
v -0.09138321876525879 0.11463186144828796 0.870431125164032
v -0.0904332846403122 0.1265067756175995 0.8542881608009338
v -0.08789577335119247 0.1329415887594223 0.8538569808006287
v -0.07964421808719635 0.12581701576709747 0.8605548143386841
v -0.0818568766117096 0.13015419244766235 0.8561097383499146
v -0.07949179410934448 0.12412509322166443 0.8591822981834412
v -0.08130444586277008 0.12834233045578003 0.854574978351593
v -0.08336701989173889 0.1333787441253662 0.8540429472923279
v -0.0840669721364975 0.1341150999069214 0.8564355373382568
v -0.08858072757720947 0.10763488709926605 0.8702206015586853
v -0.08490902185440063 0.10772697627544403 0.8662457466125488
v -0.08569461107254028 0.11092422902584076 0.8642261624336243
v -0.0875154361128807 0.1200013980269432 0.8563051819801331
v -0.08209928125143051 0.11263493448495865 0.8621802926063538
v -0.07887370139360428 0.1181304082274437 0.8615803718566895
v -0.08041854202747345 0.1227497011423111 0.8570767641067505
v -0.08275936543941498 0.12093425542116165 0.8557581901550293
v -0.08223932981491089 0.12610802054405212 0.8539044857025146
v -0.08428974449634552 0.1245465874671936 0.8537490963935852
v -0.08784277737140656 0.12381113320589066 0.8541995286941528
v -0.0847015529870987 0.12860490381717682 0.8523322343826294
v -0.08365215361118317 0.1313573718070984 0.8529255986213684
v -0.08810822665691376 0.12970423698425293 0.8529391288757324
v -0.08535614609718323 0.12671788036823273 0.8526104688644409
v -0.08809910714626312 0.12708929181098938 0.8534161448478699
v -0.08203736692667007 0.10146301239728928 0.8391808867454529
v -0.07746344804763794 0.10022785514593124 0.8353608250617981
v -0.07700161635875702 0.09164359420537949 0.8393756151199341
v -0.08027812093496323 0.09307198226451874 0.8434453010559082
v -0.07642679661512375 0.10497992485761642 0.850492537021637
v -0.08138363808393478 0.10404923558235168 0.8476648926734924
v -0.07881754636764526 0.0992395356297493 0.8518033623695374
v -0.07291305065155029 0.10214955359697342 0.8526895046234131
v -0.07046783715486526 0.10479340702295303 0.849051833152771
v -0.06731291860342026 0.10217557847499847 0.8498741388320923
v -0.069273442029953 0.10241593420505524 0.8545480966567993
v -0.07454866170883179 0.09764482080936432 0.8548582792282104
v -0.06012190133333206 0.08588195592164993 0.8636844754219055
v -0.05638796463608742 0.09198110550642014 0.862773597240448
v -0.057564087212085724 0.07469725608825684 0.8497780561447144
v -0.056373223662376404 0.07837140560150146 0.8481848239898682
v -0.0828835517168045 0.10280812531709671 0.8431844115257263
v -0.08081508427858353 0.09603850543498993 0.8481883406639099
v -0.06765678524971008 0.0907372459769249 0.8373174071311951
v -0.071981281042099 0.08832991123199463 0.839533269405365
v -0.07326029241085052 0.09202399104833603 0.8360589146614075
v -0.0687745213508606 0.09389105439186096 0.8355284929275513
v -0.06143813207745552 0.07707688212394714 0.8607338070869446
v -0.05894496664404869 0.07428846508264542 0.855582058429718
v -0.06167533993721008 0.08119984716176987 0.8622715473175049
v -0.06358791887760162 0.09539123624563217 0.8387489914894104
v -0.06127388775348663 0.10042626410722733 0.8426384925842285
v -0.05025746300816536 0.0919916182756424 0.8502945899963379
v -0.05223856493830681 0.08638660609722137 0.8471969366073608
v -0.07750396430492401 0.0935044214129448 0.8523507118225098
v -0.07551273703575134 0.08807683736085892 0.8437753915786743
v -0.07778280973434448 0.08972577005624771 0.8479201793670654
v -0.06413579732179642 0.10306081175804138 0.8495998382568359
v -0.06408033519983292 0.1010766476392746 0.8431270122528076
v -0.0634569600224495 0.11392715573310852 0.8356825709342957
v -0.06522674858570099 0.10200974345207214 0.8388383984565735
v -0.06823384016752243 0.10101806372404099 0.8349206447601318
v -0.06563776731491089 0.11325524747371674 0.8312089443206787
v -0.06557446718215942 0.09694305807352066 0.8383843302726746
v -0.06589160859584808 0.10363751649856567 0.8439731001853943
v -0.07846628129482269 0.11693397909402847 0.8324216604232788
v -0.07393510639667511 0.11509663611650467 0.8286852240562439
v -0.07960660010576248 0.1185712218284607 0.8365027904510498
v -0.05210031941533089 0.09467139840126038 0.8568831086158752
v -0.07462485134601593 0.11851031333208084 0.8450366258621216
v -0.07898721098899841 0.1188654750585556 0.8406820893287659
v -0.07249578833580017 0.10029742121696472 0.8334366679191589
v -0.06928372383117676 0.11397873610258102 0.8285226821899414
v -0.06358103454113007 0.11524847149848938 0.8401564955711365
v -0.06843577325344086 0.11631277203559875 0.8454599976539612
v -0.06321655213832855 0.1194305419921875 0.8353946208953857
v -0.06622626632452011 0.12235935032367706 0.8402038812637329
v -0.07181848585605621 0.12504133582115173 0.8399645686149597
v -0.07654598355293274 0.12499971687793732 0.8366901874542236
v -0.07814811170101166 0.12342026084661484 0.8335168361663818
v -0.06358277052640915 0.11815369129180908 0.8316800594329834
v -0.06603493541479111 0.11757773160934448 0.8277989029884338
v -0.07055328786373138 0.11695869266986847 0.8266506791114807
v -0.06320710480213165 0.12166889011859894 0.8262854814529419
v -0.061981599777936935 0.1240948736667633 0.8291827440261841
v -0.06802240014076233 0.1397463083267212 0.8255235552787781
v -0.06895048916339874 0.1359744518995285 0.82969069480896
v -0.06639612466096878 0.1355404406785965 0.8295157551765442
v -0.0652911514043808 0.13900983333587646 0.825778603553772
v -0.06824140250682831 0.13199938833713531 0.8341366052627563
v -0.0661960318684578 0.1323801428079605 0.8325035572052002
v -0.06352420151233673 0.12884455919265747 0.8318037390708923
v -0.06299814581871033 0.13276445865631104 0.8277339339256287
v -0.061222534626722336 0.12889502942562103 0.8254668712615967
v -0.0595535971224308 0.1326133906841278 0.8220763206481934
v -0.061010003089904785 0.1367189884185791 0.8243021368980408
v -0.06171489506959915 0.12717263400554657 0.8288635015487671
v -0.06389555335044861 0.14051437377929688 0.8230297565460205
v -0.06539089977741241 0.14128318428993225 0.8210338354110718
v -0.06443659216165543 0.12728247046470642 0.8340189456939697
v -0.0741305872797966 0.12943288683891296 0.8346031308174133
v -0.07166453450918198 0.13579022884368896 0.8283993005752563
v -0.0702071413397789 0.13928952813148499 0.823270857334137
v -0.06657058745622635 0.14001336693763733 0.8185346126556396
v -0.07345885038375854 0.13421058654785156 0.8251011967658997
v -0.07110822200775146 0.13753563165664673 0.8207665681838989
v -0.06768529862165451 0.13786610960960388 0.8172512650489807
v -0.07387986779212952 0.13146355748176575 0.8213915824890137
v -0.07094863802194595 0.13463325798511505 0.8177310228347778
v -0.07745037972927094 0.12392198294401169 0.82845139503479
v -0.0771929919719696 0.12696558237075806 0.831737220287323
v -0.06886459141969681 0.13585753738880157 0.8167482018470764
v -0.06119949743151665 0.13956615328788757 0.8191308975219727
v -0.06316543370485306 0.13845160603523254 0.8165827393531799
v -0.06085887923836708 0.13903015851974487 0.8209059238433838
v -0.06104104965925217 0.1273016333580017 0.8240808844566345
v -0.059926941990852356 0.1314932405948639 0.8201208710670471
v -0.061854004859924316 0.12586930394172668 0.8219311237335205
v -0.06068815290927887 0.13077163696289062 0.8179579973220825
v -0.05944781005382538 0.1352764070034027 0.8179429173469543
v -0.05921456217765808 0.13607841730117798 0.819473385810852
v -0.07745831459760666 0.12074632197618484 0.8303565382957458
v -0.07403786480426788 0.11794908344745636 0.8273396492004395
v -0.0749221071600914 0.12042633444070816 0.825495719909668
v -0.07151200622320175 0.12792067229747772 0.8188658952713013
v -0.07088522613048553 0.11875925958156586 0.8245129585266113
v -0.06576590240001678 0.12017110735177994 0.8244307637214661
v -0.06394656002521515 0.12487270683050156 0.820367157459259
v -0.06739341467618942 0.1256093978881836 0.8186913132667542
v -0.06192252039909363 0.12961909174919128 0.8165005445480347
v -0.06515666097402573 0.12887148559093475 0.8163912892341614
v -0.06916677951812744 0.1314511001110077 0.8161899447441101
v -0.06178189069032669 0.13367792963981628 0.8149122595787048
v -0.06020635738968849 0.13475888967514038 0.816392719745636
v -0.06464967131614685 0.13699215650558472 0.8157431483268738
v -0.06431356817483902 0.13209310173988342 0.814889132976532
v -0.06683095544576645 0.13468199968338013 0.8153800964355469
v -0.07212107628583908 0.09518945217132568 0.8193415403366089
v -0.07075546681880951 0.09094536304473877 0.8158124685287476
v -0.07081949710845947 0.08477772772312164 0.8194206357002258
v -0.0724869966506958 0.08940407633781433 0.8232405185699463
v -0.06098216027021408 0.09883378446102142 0.8247442245483398
v -0.06593535840511322 0.09952590614557266 0.8243125677108765
v -0.06665661931037903 0.09586000442504883 0.8275387287139893
v -0.061196986585855484 0.09515922516584396 0.8285620808601379
v -0.05676624923944473 0.09738413989543915 0.8214852809906006
v -0.0566863976418972 0.09361870586872101 0.825467586517334
v -0.05861370265483856 0.09580785036087036 0.8311775326728821
v -0.06464388966560364 0.09384112805128098 0.8311037421226501
v -0.054404113441705704 0.08729147911071777 0.8389211297035217
v -0.04910334199666977 0.09177587181329727 0.8373512625694275
v -0.06977172195911407 0.09806868433952332 0.8221498131752014
v -0.07061852514743805 0.09361358731985092 0.8256909847259521
v -0.05940384417772293 0.08082922548055649 0.8179641962051392
v -0.06263627111911774 0.08012422919273376 0.8207135200500488
v -0.0670463964343071 0.08338050544261932 0.8155934810638428
v -0.0634036734700203 0.08369718492031097 0.8139997720718384
v -0.05496615916490555 0.07606552541255951 0.8389517664909363
v -0.05083433911204338 0.07338219881057739 0.8351278901100159
v -0.05667414888739586 0.08156660199165344 0.839024007320404
v -0.05524659529328346 0.08449097722768784 0.8178895711898804
v -0.05174063891172409 0.09048353880643845 0.821514368057251
v -0.042334191501140594 0.0861867219209671 0.8272686004638672
v -0.04409700632095337 0.0801890641450882 0.8266521692276001
v -0.06807646155357361 0.09024280309677124 0.8303107023239136
v -0.06619573384523392 0.08119987696409225 0.8245130181312561
v -0.0690215528011322 0.08528637886047363 0.8281398415565491
v -0.054031871259212494 0.094892218708992 0.8270576000213623
v -0.05569986253976822 0.08974218368530273 0.8197998404502869
v -0.05592990666627884 0.10282355546951294 0.8044987320899963
v -0.058043934404850006 0.08863139152526855 0.813330352306366
v -0.0629536509513855 0.08801813423633575 0.8117139339447021
v -0.05919892340898514 0.10195421427488327 0.8019309639930725
v -0.05866709351539612 0.08556794375181198 0.8148177266120911
v -0.0551057904958725 0.09264535456895828 0.8172940611839294
v -0.06856507807970047 0.10862953215837479 0.8070216178894043
v -0.06723631173372269 0.10416725277900696 0.8040103912353516
v -0.06711924076080322 0.11006953567266464 0.8105794787406921
v -0.043808966875076294 0.0918663889169693 0.8326115012168884
v -0.046742167323827744 0.07448302954435349 0.829444944858551
v -0.06052742153406143 0.11138910055160522 0.8128088116645813
v -0.06465598940849304 0.11151878535747528 0.8123523592948914
v -0.06692057102918625 0.08852533996105194 0.8130077123641968
v -0.06327720731496811 0.10210360586643219 0.8016353249549866
v -0.05498367175459862 0.10499221086502075 0.8080794215202332
v -0.05632641538977623 0.1084756851196289 0.8119328022003174
v -0.05475335568189621 0.10666654258966446 0.8031741976737976
v -0.05553213506937027 0.11046318709850311 0.8069390058517456
v -0.057663872838020325 0.11391608417034149 0.807786226272583
v -0.06119866669178009 0.11513840407133102 0.8075990676879883
v -0.06425610184669495 0.11451616138219833 0.8061211109161377
v -0.056612737476825714 0.10542325675487518 0.7996759414672852
v -0.05989518016576767 0.10532119870185852 0.798026978969574
v -0.06315524876117706 0.10544411838054657 0.7997564077377319
v -0.056749120354652405 0.10636959224939346 0.7955428957939148
v -0.052650321274995804 0.10883060097694397 0.7975861430168152
v -0.05019226297736168 0.12311791628599167 0.7935603857040405
v -0.05221889540553093 0.12044495344161987 0.7974322438240051
v -0.05118311196565628 0.1196879893541336 0.7971554398536682
v -0.048738494515419006 0.12237865477800369 0.7933176159858704
v -0.053239718079566956 0.11618655920028687 0.8021349906921387
v -0.051521096378564835 0.1163441464304924 0.8004757761955261
v -0.051089052110910416 0.11285290867090225 0.7995843291282654
v -0.04892748221755028 0.11592012643814087 0.7946552634239197
v -0.0509454682469368 0.11152844876050949 0.7917755246162415
v -0.04927749186754227 0.11464792490005493 0.7888062000274658
v -0.04685591533780098 0.11861695349216461 0.7913010120391846
v -0.05141713097691536 0.10994984209537506 0.796500027179718
v -0.0477491170167923 0.12269306927919388 0.7906532287597656
v -0.0478135421872139 0.12498180568218231 0.7906802892684937
v -0.052860505878925323 0.11234035342931747 0.8015329241752625
v -0.05688020959496498 0.11832357943058014 0.8041015267372131
v -0.05444849282503128 0.12200875580310822 0.7977266907691956
v -0.05289163812994957 0.1254992038011551 0.7934908270835876
v -0.05139521509408951 0.12531481683254242 0.7895966172218323
v -0.05784044787287712 0.12187658250331879 0.7965140342712402
v -0.05574018880724907 0.12449218332767487 0.7923244833946228
v -0.05432061105966568 0.12462619692087173 0.7887651920318604
v -0.06035403162240982 0.12036992609500885 0.7950835227966309
v -0.0579112209379673 0.1224934533238411 0.7910236716270447
v -0.06458138674497604 0.11440394818782806 0.8028149008750916
v -0.06094730645418167 0.1171979233622551 0.8041495084762573
v -0.056025438010692596 0.12326210737228394 0.7885394096374512
v -0.046794574707746506 0.1213793233036995 0.7875982522964478
v -0.05051634833216667 0.12176871299743652 0.7856221199035645
v -0.04740534722805023 0.12033730000257492 0.7890490293502808
v -0.05241352319717407 0.11031674593687057 0.791323721408844
v -0.050093874335289 0.11360932886600494 0.7867753505706787
v -0.05524872615933418 0.10978773236274719 0.7904791235923767
v -0.05288514867424965 0.11320473253726959 0.7857317924499512
v -0.04822073131799698 0.11678671836853027 0.785855770111084
v -0.048058412969112396 0.11713849008083344 0.7869969606399536
v -0.06631364673376083 0.1112465038895607 0.8042916655540466
v -0.06599412113428116 0.10772556811571121 0.8015326261520386
v -0.06556820124387741 0.11122223734855652 0.8002503514289856
v -0.06130947172641754 0.1176610067486763 0.792195737361908
v -0.06383949518203735 0.10800404846668243 0.7980543375015259
v -0.059820543974637985 0.10752502083778381 0.7946512699127197
v -0.05800624564290047 0.11113514006137848 0.790056049823761
v -0.06005854904651642 0.1139947697520256 0.7903556823730469
v -0.05563317984342575 0.11406998336315155 0.7855992913246155
v -0.057363398373126984 0.11587990075349808 0.7873028516769409
v -0.059050656855106354 0.12002095580101013 0.788520097732544
v -0.05360963195562363 0.11756114661693573 0.7849623560905457
v -0.05083002150058746 0.11689914762973785 0.7845590114593506
v -0.05361262336373329 0.12186427414417267 0.7855587601661682
v -0.05583655461668968 0.11816166341304779 0.785814642906189
v -0.056000106036663055 0.12143857777118683 0.786254346370697
v -0.048156850039958954 0.07256722450256348 0.8319056630134583
v -0.049184009432792664 0.06838332116603851 0.827608048915863
v -0.04908343032002449 0.06435774266719818 0.82813560962677
v -0.04588291049003601 0.06287690252065659 0.8253921866416931
v -0.04493095725774765 0.06670334935188293 0.8252735733985901
v -0.054055411368608475 0.07174243032932281 0.8185917735099792
v -0.05234582722187042 0.07256387174129486 0.8225755095481873
v -0.04879263788461685 0.07223139703273773 0.8195981979370117
v -0.050173912197351456 0.07176932692527771 0.8152768015861511
v -0.05567053332924843 0.067783422768116 0.815848708152771
v -0.051777325570583344 0.06816067546606064 0.8123013973236084
v -0.047270651906728745 0.0747765451669693 0.815070629119873
v -0.04621833562850952 0.07399444282054901 0.8198326826095581
v -0.0354250930249691 0.07703041285276413 0.824293851852417
v -0.03389084339141846 0.07895845174789429 0.8200965523719788
v -0.02515275403857231 0.06309366971254349 0.815257728099823
v -0.024991456419229507 0.06040782481431961 0.8192917704582214
v -0.03202897310256958 0.061242662370204926 0.8194282650947571
v -0.031198058277368546 0.06208477169275284 0.8153563141822815
v -0.050563059747219086 0.07116763293743134 0.8255113363265991
v -0.04684700816869736 0.07024542987346649 0.8236086368560791
v -0.04289351403713226 0.05771711468696594 0.817484974861145
v -0.0423794724047184 0.05866047739982605 0.821753203868866
v -0.0459369495511055 0.05903178080916405 0.8243299722671509
v -0.04785007983446121 0.05669316276907921 0.8212168216705322
v -0.028214991092681885 0.06085699796676636 0.8233907222747803
v -0.031419456005096436 0.06246788799762726 0.8260464668273926
v -0.03453175723552704 0.0648055300116539 0.8260146379470825
v -0.03387540206313133 0.06255422532558441 0.8232854604721069
v -0.036418866366147995 0.07016146183013916 0.8271843194961548
v -0.0443372018635273 0.05923829227685928 0.8135550022125244
v -0.04614589735865593 0.06413818895816803 0.8098971247673035
v -0.03062118962407112 0.06950696557760239 0.8100314736366272
v -0.029900042340159416 0.06510613113641739 0.8118922114372253
v -0.04512367025017738 0.07125377655029297 0.8234733939170837
v -0.04301600158214569 0.061938509345054626 0.8244094848632812
v -0.04365682974457741 0.06665477156639099 0.8249383568763733
v -0.04700823500752449 0.07130727916955948 0.8106006979942322
v -0.05215775966644287 0.06209474056959152 0.8129644393920898
v -0.06125083193182945 0.05773058906197548 0.8263115882873535
v -0.054628994315862656 0.057556863874197006 0.8202846050262451
v -0.052321452647447586 0.05732942372560501 0.8243948221206665
v -0.05920879542827606 0.05749249830842018 0.8287850022315979
v -0.04927714169025421 0.05806192755699158 0.8165306448936462
v -0.05666159838438034 0.06161809712648392 0.8168997764587402
v -0.0555734857916832 0.06863615661859512 0.8331878185272217
v -0.05527039244771004 0.06336865574121475 0.8328016400337219
v -0.056916676461696625 0.07119971513748169 0.8317587971687317
v -0.032330092042684555 0.07712659984827042 0.8139249086380005
v -0.06172242388129234 0.07133816182613373 0.8261560797691345
v -0.05944559723138809 0.07235302031040192 0.8297105431556702
v -0.05018709599971771 0.06050630286335945 0.8270800113677979
v -0.05685674026608467 0.05941532179713249 0.8311378955841064
v -0.06327705085277557 0.06080686300992966 0.8238168358802795
v -0.0633997693657875 0.06687742471694946 0.82288658618927
v -0.06662265211343765 0.06084747239947319 0.8277524709701538
v -0.06671100109815598 0.06643122434616089 0.8274221420288086
v -0.06438536942005157 0.07075165212154388 0.8317611217498779
v -0.06116116791963577 0.07104907929897308 0.8335645794868469
v -0.05861242860555649 0.06987558305263519 0.8349949717521667
v -0.06355419754981995 0.057517148554325104 0.8295124173164368
v -0.06088801100850105 0.057193633168935776 0.8313168287277222
v -0.057917892932891846 0.059043385088443756 0.8329759240150452
v -0.06622575223445892 0.05716618895530701 0.833123505115509
v -0.06925326585769653 0.060620687901973724 0.834215521812439
v -0.0671500563621521 0.06413332372903824 0.8468940854072571
v -0.0658421665430069 0.06597849726676941 0.8435936570167542
v -0.0667944997549057 0.06556833535432816 0.8430605530738831
v -0.06816890835762024 0.06429722905158997 0.8465840220451355
v -0.06577794253826141 0.0682140588760376 0.8386412262916565
v -0.06680475175380707 0.06693167984485626 0.8392472863197327
v -0.06825564801692963 0.06530246138572693 0.8363582491874695
v -0.06978020071983337 0.06336809694766998 0.8408966064453125
v -0.07020042836666107 0.058289799839258194 0.8392857909202576
v -0.07134556025266647 0.05741043761372566 0.8430020809173584
v -0.07115988433361053 0.06203903630375862 0.8440061211585999
v -0.06970860064029694 0.0613274946808815 0.835978627204895
v -0.06992854177951813 0.0630858987569809 0.8482367992401123
v -0.06959432363510132 0.06279174983501434 0.8495686054229736
v -0.06849835067987442 0.06639058887958527 0.8342118859291077
v -0.0619048997759819 0.06890721619129181 0.839168131351471
v -0.06386612355709076 0.06572048366069794 0.8451749682426453
v -0.06611145287752151 0.06348170340061188 0.8489612936973572
v -0.06845816969871521 0.061042916029691696 0.8505133390426636
v -0.06167750433087349 0.06462191045284271 0.8447582721710205
v -0.06428046524524689 0.06216336786746979 0.8493797183036804
v -0.06653010100126266 0.05975310504436493 0.8507287502288818
v -0.05974103882908821 0.06207869574427605 0.8439316749572754
v -0.0628795176744461 0.06023170053958893 0.8482450842857361
v -0.0570673905313015 0.06464815884828568 0.8382421731948853
v -0.05912071093916893 0.06735445559024811 0.8391175270080566
v -0.06531143933534622 0.05902077630162239 0.8496273159980774
v -0.07200416177511215 0.05991075560450554 0.8484975695610046
v -0.0699075311422348 0.0581926554441452 0.849639892578125
v -0.07235796749591827 0.06054392084479332 0.8470608592033386
v -0.06977257132530212 0.057108402252197266 0.8387794494628906
v -0.07101821899414062 0.05587908253073692 0.843353271484375
v -0.06802727282047272 0.05535398796200752 0.8386167287826538
v -0.06938571482896805 0.0546092763543129 0.8439490795135498
v -0.07195298373699188 0.05678549408912659 0.8465901017189026
v -0.07222005724906921 0.0582222044467926 0.8454787731170654
v -0.056510429829359055 0.06661900877952576 0.8360541462898254
v -0.05633744224905968 0.06299487501382828 0.834532618522644
v -0.057147689163684845 0.06108918786048889 0.836456835269928
v -0.05973678454756737 0.05859175696969032 0.8421376347541809
v -0.05943284556269646 0.05749847739934921 0.8345073461532593
v -0.06303554028272629 0.056382715702056885 0.8333662748336792
v -0.06551633775234222 0.05469973757863045 0.8392012715339661
v -0.06248129904270172 0.05536968633532524 0.8404420018196106
v -0.06745648384094238 0.054299794137477875 0.8448460698127747
v -0.06461872160434723 0.05503657087683678 0.8454899787902832
v -0.06268247961997986 0.05731774866580963 0.8467523455619812
v -0.06835170090198517 0.05582934617996216 0.8481694459915161
v -0.07020032405853271 0.05590321496129036 0.8478297591209412
v -0.06796889007091522 0.057479895651340485 0.8496833443641663
v -0.06642891466617584 0.055975764989852905 0.8481518626213074
v -0.06576807796955109 0.05724811553955078 0.8489335775375366
v -0.026655783876776695 0.06612510234117508 0.8132127523422241
v -0.03708138316869736 0.04982021078467369 0.8901444673538208
v -0.03488258272409439 0.05080333724617958 0.88503497838974
v -0.02508600801229477 0.03775576129555702 0.8821031451225281
v -0.028552215546369553 0.04367125779390335 0.8791349530220032
v -0.02535858005285263 0.033982500433921814 0.8881188631057739
v -0.030415132641792297 0.035842783749103546 0.8973615765571594
v -0.026635099202394485 0.03432062268257141 0.893798828125
v -0.031699635088443756 0.04824681580066681 0.8806630969047546
v -0.036844536662101746 0.04681466519832611 0.8949640393257141
v -0.03417722508311272 0.04095640778541565 0.8986246585845947
v -0.04673582687973976 0.03965212404727936 0.8907893300056458
v -0.042500995099544525 0.03330474719405174 0.8936928510665894
v -0.03728846460580826 0.02820529043674469 0.8910366296768188
v -0.03180331364274025 0.02926475927233696 0.8875191807746887
v -0.02910793013870716 0.03039773553609848 0.883786141872406
v -0.043557848781347275 0.0455838143825531 0.8862308263778687
v -0.040489085018634796 0.04746747761964798 0.8817213773727417
v -0.03527519479393959 0.04554150998592377 0.8781672120094299
v -0.04784446954727173 0.042336829006671906 0.8798647522926331
v -0.04889244958758354 0.03482307493686676 0.8740885257720947
v -0.039275601506233215 0.022657349705696106 0.8625441789627075
v -0.03730321675539017 0.024008046835660934 0.8686253428459167
v -0.04003141447901726 0.024391375482082367 0.8689129948616028
v -0.041662029922008514 0.02270302176475525 0.8634755611419678
v -0.0387234203517437 0.024662595242261887 0.8740476965904236
v -0.04052460193634033 0.025621309876441956 0.8729804754257202
v -0.04445112124085426 0.02926965057849884 0.8746978044509888
v -0.045627743005752563 0.02750799059867859 0.8692294359207153
v -0.04723059758543968 0.03296883404254913 0.8728540539741516
v -0.04785744845867157 0.033185847103595734 0.8685956597328186
v -0.04672133922576904 0.026251070201396942 0.8639302253723145
v -0.04422489553689957 0.02249389886856079 0.8606907725334167
v -0.04731851443648338 0.025258198380470276 0.8595948815345764
v -0.0422796905040741 0.022922471165657043 0.8586363196372986
v -0.04743291810154915 0.027562718838453293 0.8768359422683716
v -0.033662788569927216 0.025848153978586197 0.8779486417770386
v -0.033990852534770966 0.025113560259342194 0.8690027594566345
v -0.03650019317865372 0.02452576905488968 0.8617289662361145
v -0.04036048799753189 0.02491207793354988 0.8573727011680603
v -0.031533174216747284 0.028195593506097794 0.8681353330612183
v -0.034551575779914856 0.028214942663908005 0.8616852164268494
v -0.03863805532455444 0.02910088747739792 0.8578397035598755
v -0.03147297352552414 0.0327543169260025 0.867164671421051
v -0.034970059990882874 0.03192749619483948 0.8617732524871826
v -0.028769493103027344 0.03533089905977249 0.8772183060646057
v -0.02951151877641678 0.02981407567858696 0.8787072896957397
v -0.03807473182678223 0.03135961294174194 0.859076738357544
v -0.04723399877548218 0.02560930699110031 0.8572677373886108
v -0.04525015875697136 0.027953438460826874 0.8560434579849243
v -0.048561662435531616 0.03627258539199829 0.868743896484375
v -0.04957101121544838 0.03167232125997543 0.8639272451400757
v -0.04922117665410042 0.03416891396045685 0.8631290197372437
v -0.04734162241220474 0.03987427055835724 0.8691109418869019
v -0.04807117581367493 0.036644596606492996 0.8623674511909485
v -0.049361832439899445 0.030650846660137177 0.8590902090072632
v -0.049314871430397034 0.028924331068992615 0.8608961701393127
v -0.027669990435242653 0.03504716232419014 0.8797942996025085
v -0.030216757208108902 0.040969349443912506 0.8777737021446228
v -0.032051846385002136 0.04135890305042267 0.8763255476951599
v -0.0343802347779274 0.03840778023004532 0.8673401474952698
v -0.03766339272260666 0.04543078690767288 0.8758262395858765
v -0.04392208158969879 0.04532992094755173 0.8780308961868286
v -0.04454146698117256 0.04218049719929695 0.8681802749633789
v -0.03957163915038109 0.042022787034511566 0.8677894473075867
v -0.045000866055488586 0.03812059387564659 0.8618528842926025
v -0.04202789068222046 0.03797147423028946 0.8619269132614136
v -0.037586405873298645 0.035558562725782394 0.8613317608833313
v -0.044924162328243256 0.03441379964351654 0.8583354353904724
v -0.047749776393175125 0.03302595764398575 0.8582447171211243
v -0.04253185912966728 0.03117961809039116 0.8568530678749084
v -0.04264935106039047 0.035289496183395386 0.8595274686813354
v -0.04054250940680504 0.0331905297935009 0.8587285876274109
v -0.01876203343272209 0.06012912467122078 0.8202566504478455
v -0.021869532763957977 0.05950317159295082 0.825760006904602
v -0.014976151287555695 0.05908532813191414 0.8259066343307495
v -0.0055723004043102264 0.058230314403772354 0.8278273940086365
v 0.004572160542011261 0.05992450937628746 0.8246139287948608
v -0.007558301091194153 0.05914401262998581 0.83431077003479
v -0.01718762144446373 0.05994290113449097 0.8318746089935303
v -0.027234096080064774 0.061303652822971344 0.8311938643455505
v -0.001314215362071991 0.06081916391849518 0.8423889875411987
f 2 3 1
f 1 3 4
f 5 6 8
f 8 6 7
f 9 4 10
f 10 4 3
f 12 13 11
f 11 13 9
f 14 12 16
f 16 12 15
f 18 19 17
f 17 19 20
f 22 23 21
f 21 23 24
f 26 27 25
f 25 27 28
f 30 31 29
f 29 31 32
f 33 34 36
f 36 34 35
f 37 38 40
f 40 38 39
f 41 42 6
f 6 42 43
f 6 43 7
f 7 43 44
f 45 34 46
f 46 34 33
f 48 49 47
f 47 49 50
f 52 53 51
f 51 53 54
f 56 52 55
f 55 52 51
f 58 59 57
f 57 59 60
f 61 62 4
f 4 62 1
f 64 65 63
f 63 65 66
f 68 69 67
f 67 69 70
f 72 73 71
f 71 73 74
f 76 77 75
f 75 77 78
f 53 79 54
f 54 79 80
f 82 83 81
f 81 83 84
f 85 86 52
f 52 86 53
f 57 60 87
f 87 60 88
f 89 90 43
f 43 90 44
f 43 42 89
f 89 42 91
f 40 39 92
f 92 39 93
f 94 70 64
f 64 70 69
f 13 61 9
f 9 61 4
f 25 28 69
f 69 28 95
f 96 25 68
f 68 25 69
f 98 99 97
f 97 99 100
f 101 102 104
f 104 102 103
f 106 30 105
f 105 30 29
f 51 54 107
f 107 54 108
f 54 80 108
f 108 80 109
f 111 112 110
f 110 112 113
f 115 5 114
f 114 5 116
f 115 41 5
f 5 41 6
f 36 35 111
f 111 35 117
f 35 118 117
f 117 118 119
f 34 120 35
f 35 120 118
f 34 45 120
f 120 45 121
f 125 126 124
f 124 126 127
f 128 129 14
f 14 129 130
f 33 131 46
f 46 131 132
f 133 94 63
f 63 94 64
f 134 135 137
f 137 135 136
f 139 140 138
f 138 140 141
f 77 142 78
f 78 142 143
f 144 145 20
f 20 145 146
f 148 149 147
f 147 149 72
f 151 152 150
f 150 152 153
f 82 101 83
f 83 101 104
f 101 82 155
f 155 82 154
f 156 157 58
f 58 157 59
f 158 68 147
f 147 68 67
f 159 146 15
f 15 146 16
f 68 158 96
f 96 158 160
f 129 66 130
f 130 66 65
f 162 163 161
f 161 163 164
f 166 167 165
f 165 167 168
f 170 171 169
f 169 171 172
f 174 171 173
f 173 171 170
f 176 177 175
f 175 177 178
f 180 181 179
f 179 181 24
f 182 183 21
f 21 183 184
f 81 185 82
f 82 185 154
f 186 187 188
f 188 187 144
f 158 71 160
f 160 71 189
f 190 135 157
f 157 135 59
f 169 172 139
f 139 172 140
f 147 72 158
f 158 72 71
f 192 193 191
f 191 193 194
f 167 166 49
f 49 166 195
f 196 190 50
f 50 190 157
f 197 198 200
f 200 198 199
f 21 24 182
f 182 24 181
f 146 159 20
f 20 159 17
f 182 181 81
f 81 181 185
f 201 185 180
f 180 185 181
f 202 203 83
f 83 203 84
f 205 206 204
f 204 206 85
f 207 22 184
f 184 22 21
f 179 24 208
f 208 24 23
f 208 209 179
f 179 209 205
f 209 210 205
f 205 210 206
f 212 206 211
f 211 206 210
f 179 205 180
f 180 205 204
f 213 176 88
f 88 176 214
f 86 85 212
f 212 85 206
f 193 217 218
f 217 219 218
f 218 219 220
f 219 18 220
f 220 18 17
f 19 221 20
f 20 221 144
f 222 223 225
f 225 223 224
f 175 226 176
f 176 226 214
f 227 87 214
f 214 87 88
f 220 17 228
f 228 17 159
f 134 213 60
f 60 213 88
f 138 229 151
f 151 229 152
f 193 192 210
f 210 192 211
f 230 194 218
f 218 194 193
f 231 232 228
f 228 232 230
f 233 234 91
f 91 234 89
f 235 236 93
f 93 236 92
f 230 232 234
f 234 232 237
f 47 238 48
f 48 238 239
f 240 191 235
f 235 191 236
f 5 8 116
f 116 8 241
f 242 243 189
f 189 243 160
f 244 245 98
f 98 245 99
f 156 246 47
f 47 246 238
f 76 247 77
f 77 247 248
f 250 125 249
f 249 125 124
f 252 253 251
f 251 253 254
f 111 110 36
f 36 110 255
f 256 33 255
f 255 33 36
f 257 258 154
f 154 258 155
f 63 169 133
f 133 169 139
f 66 170 63
f 63 170 169
f 173 170 129
f 129 170 66
f 129 128 173
f 173 128 259
f 128 260 259
f 259 260 261
f 213 134 262
f 262 134 137
f 263 264 186
f 186 264 187
f 112 265 113
f 113 265 266
f 11 267 268
f 234 233 230
f 230 233 194
f 153 269 70
f 70 269 67
f 175 178 165
f 165 178 141
f 150 153 94
f 94 153 70
f 271 221 270
f 270 221 207
f 269 153 272
f 272 153 152
f 121 45 109
f 109 45 108
f 47 50 156
f 156 50 157
f 57 273 58
f 58 273 274
f 145 275 260
f 260 275 261
f 276 149 143
f 143 149 78
f 148 269 75
f 75 269 272
f 207 277 270
f 270 277 278
f 195 196 49
f 49 196 50
f 59 135 60
f 60 135 134
f 83 104 202
f 202 104 279
f 149 148 78
f 78 148 75
f 247 278 248
f 248 278 277
f 183 182 84
f 84 182 81
f 48 239 281
f 281 239 282
f 227 223 283
f 283 223 222
f 223 226 224
f 224 226 168
f 281 282 224
f 224 282 225
f 165 168 175
f 175 168 226
f 264 263 138
f 138 263 229
f 14 16 128
f 128 16 260
f 220 228 218
f 218 228 230
f 87 227 284
f 284 227 283
f 260 16 145
f 145 16 146
f 244 98 258
f 258 98 155
f 58 274 156
f 156 274 246
f 107 285 51
f 51 285 55
f 243 286 160
f 160 286 96
f 234 237 89
f 89 237 90
f 46 132 107
f 107 132 285
f 253 252 249
f 249 252 250
f 286 26 96
f 96 26 25
f 106 105 287
f 287 105 288
f 272 152 289
f 289 152 229
f 138 151 139
f 139 151 133
f 183 290 161
f 161 290 162
f 291 292 277
f 277 292 293
f 151 150 133
f 133 150 94
f 262 275 177
f 177 275 187
f 144 187 145
f 145 187 275
f 273 57 284
f 284 57 87
f 174 136 190
f 190 136 135
f 111 117 112
f 112 117 38
f 117 119 38
f 38 119 123
f 112 38 265
f 265 38 37
f 287 288 254
f 254 288 251
f 228 159 231
f 231 159 15
f 223 227 226
f 226 227 214
f 147 67 148
f 148 67 269
f 224 168 281
f 281 168 167
f 199 163 200
f 200 163 162
f 45 46 108
f 108 46 107
f 281 167 48
f 48 167 49
f 161 164 291
f 291 164 292
f 38 123 39
f 293 294 277
f 277 294 248
f 284 283 296
f 296 283 295
f 284 296 273
f 273 296 297
f 274 273 298
f 298 273 297
f 246 274 299
f 299 274 298
f 283 222 295
f 295 222 300
f 222 225 300
f 300 225 301
f 301 225 302
f 302 225 282
f 303 304 300
f 300 304 295
f 306 307 305
f 305 307 308
f 309 310 308
f 308 310 305
f 308 307 312
f 312 307 311
f 313 314 312
f 312 314 315
f 311 316 312
f 312 316 313
f 317 304 311
f 311 304 316
f 315 309 312
f 312 309 308
f 318 319 321
f 321 319 320
f 319 318 309
f 309 318 310
f 311 307 317
f 317 307 306
f 306 297 317
f 317 297 296
f 306 322 297
f 297 322 298
f 305 323 306
f 306 323 322
f 323 305 324
f 324 305 310
f 304 317 295
f 295 317 296
f 318 325 310
f 310 325 324
f 323 324 326
f 326 324 327
f 324 325 327
f 327 325 328
f 326 327 329
f 329 327 330
f 329 331 326
f 326 331 332
f 333 330 328
f 328 330 327
f 323 326 322
f 322 326 332
f 322 332 298
f 298 332 299
f 325 318 334
f 334 318 321
f 313 316 335
f 335 316 304
f 335 336 313
f 313 336 314
f 304 303 335
f 335 303 337
f 336 335 338
f 338 335 337
f 336 339 314
f 314 339 340
f 246 299 238
f 238 299 341
f 239 342 282
f 282 342 302
f 342 239 341
f 341 239 238
f 341 331 342
f 342 331 343
f 331 329 343
f 343 329 344
f 342 343 302
f 302 343 345
f 341 299 331
f 331 299 332
f 346 301 345
f 345 301 302
f 346 303 301
f 301 303 300
f 347 337 346
f 346 337 303
f 347 346 348
f 348 346 345
f 349 347 350
f 350 347 348
f 343 344 345
f 345 344 348
f 344 351 348
f 348 351 350
f 337 347 338
f 338 347 349
f 353 338 352
f 352 338 349
f 352 355 354
f 354 355 356
f 352 349 355
f 355 349 350
f 352 354 353
f 353 354 334
f 353 334 339
f 339 334 321
f 339 336 353
f 353 336 338
f 329 330 344
f 344 330 351
f 356 351 333
f 333 351 330
f 356 355 351
f 351 355 350
f 354 356 328
f 328 356 333
f 328 325 354
f 354 325 334
f 309 315 319
f 319 315 320
f 320 340 321
f 321 340 339
f 320 315 340
f 340 315 314
f 137 136 261
f 261 136 259
f 140 166 141
f 141 166 165
f 172 171 195
f 195 171 196
f 171 174 196
f 196 174 190
f 178 177 264
f 264 177 187
f 172 195 140
f 140 195 166
f 137 261 262
f 262 261 275
f 178 264 141
f 141 264 138
f 262 177 213
f 213 177 176
f 136 174 259
f 259 174 173
f 358 359 357
f 357 359 360
f 362 363 361
f 361 363 364
f 361 364 365
f 365 364 366
f 367 368 370
f 370 368 369
f 76 371 247
f 247 371 372
f 373 374 362
f 362 374 363
f 376 377 375
f 375 377 378
f 289 229 380
f 380 229 379
f 381 379 263
f 263 379 229
f 383 384 382
f 382 384 385
f 386 368 374
f 374 368 363
f 76 289 371
f 371 289 380
f 377 376 359
f 359 376 387
f 388 386 360
f 360 386 374
f 389 383 366
f 366 383 390
f 392 393 391
f 391 393 394
f 383 382 390
f 390 382 395
f 396 365 390
f 390 365 366
f 389 366 367
f 367 366 364
f 357 397 358
f 358 397 398
f 373 399 357
f 357 399 397
f 389 367 400
f 400 367 370
f 382 385 375
f 375 385 372
f 357 360 373
f 373 360 374
f 361 401 362
f 362 401 402
f 387 388 359
f 359 388 360
f 363 368 364
f 364 368 367
f 358 398 403
f 403 398 404
f 396 392 405
f 405 392 391
f 392 395 393
f 393 395 378
f 393 403 394
f 394 403 404
f 375 378 382
f 382 378 395
f 365 396 406
f 406 396 405
f 362 402 373
f 373 402 399
f 271 270 400
f 400 270 384
f 401 361 406
f 406 361 365
f 381 369 386
f 386 369 368
f 392 396 395
f 395 396 390
f 393 378 403
f 403 378 377
f 403 377 358
f 358 377 359
f 406 405 408
f 408 405 407
f 406 408 401
f 401 408 409
f 401 409 402
f 402 409 410
f 402 410 399
f 399 410 411
f 405 391 407
f 407 391 412
f 391 394 412
f 412 394 413
f 394 404 413
f 413 404 414
f 415 416 412
f 412 416 407
f 418 419 417
f 417 419 420
f 421 422 418
f 418 422 419
f 419 422 424
f 424 422 423
f 425 426 424
f 424 426 427
f 423 428 424
f 424 428 425
f 427 420 424
f 424 420 419
f 420 429 417
f 417 429 430
f 423 422 431
f 431 422 421
f 421 409 431
f 431 409 408
f 421 432 409
f 409 432 410
f 418 433 421
f 421 433 432
f 434 433 417
f 417 433 418
f 431 416 423
f 423 416 428
f 416 431 407
f 407 431 408
f 435 434 430
f 430 434 417
f 433 434 436
f 436 434 437
f 434 435 437
f 437 435 438
f 436 437 439
f 439 437 440
f 439 441 436
f 436 441 442
f 438 443 437
f 437 443 440
f 436 442 433
f 433 442 432
f 432 442 410
f 410 442 411
f 435 430 445
f 445 430 444
f 430 429 444
f 444 429 446
f 425 428 447
f 447 428 416
f 426 425 448
f 448 425 447
f 416 415 447
f 447 415 449
f 447 449 448
f 448 449 450
f 451 452 448
f 448 452 426
f 446 452 444
f 444 452 451
f 399 411 397
f 397 411 453
f 398 454 404
f 404 454 414
f 454 398 453
f 453 398 397
f 453 441 454
f 454 441 455
f 441 439 455
f 455 439 456
f 454 455 414
f 414 455 457
f 441 453 442
f 442 453 411
f 458 413 457
f 457 413 414
f 458 415 413
f 413 415 412
f 458 459 415
f 415 459 449
f 459 458 460
f 460 458 457
f 461 459 462
f 462 459 460
f 455 456 457
f 457 456 460
f 456 463 460
f 460 463 462
f 459 461 449
f 449 461 450
f 465 450 464
f 464 450 461
f 464 467 466
f 466 467 468
f 464 461 467
f 467 461 462
f 464 466 465
f 465 466 445
f 465 445 451
f 451 445 444
f 451 448 465
f 465 448 450
f 439 440 456
f 456 440 463
f 468 463 443
f 443 463 440
f 468 467 463
f 463 467 462
f 466 468 438
f 438 468 443
f 438 435 466
f 466 435 445
f 420 427 429
f 429 427 446
f 446 427 452
f 452 427 426
f 370 369 188
f 188 369 186
f 371 376 372
f 372 376 375
f 380 379 387
f 387 379 388
f 379 381 388
f 388 381 386
f 385 384 278
f 278 384 270
f 380 387 371
f 371 387 376
f 400 370 271
f 271 370 188
f 385 278 372
f 372 278 247
f 400 384 389
f 389 384 383
f 369 381 186
f 186 381 263
f 221 271 144
f 144 271 188
f 221 19 207
f 207 19 22
f 19 18 22
f 22 18 23
f 18 219 23
f 23 219 208
f 469 470 472
f 472 470 471
f 474 475 473
f 473 475 476
f 473 476 477
f 477 476 478
f 480 481 479
f 479 481 482
f 483 484 474
f 474 484 475
f 486 487 485
f 485 487 488
f 489 490 77
f 77 490 142
f 491 489 248
f 248 489 77
f 493 494 492
f 492 494 495
f 496 480 484
f 484 480 475
f 486 497 487
f 487 497 471
f 498 496 472
f 472 496 484
f 499 493 478
f 478 493 500
f 501 502 504
f 504 502 503
f 493 492 500
f 500 492 505
f 506 477 500
f 500 477 478
f 499 478 479
f 479 478 476
f 469 507 470
f 470 507 508
f 483 509 469
f 469 509 507
f 479 482 499
f 499 482 510
f 492 495 485
f 485 495 511
f 483 469 484
f 484 469 472
f 473 512 474
f 474 512 513
f 497 498 471
f 471 498 472
f 475 480 476
f 476 480 479
f 470 508 514
f 514 508 515
f 506 502 516
f 516 502 501
f 503 502 488
f 488 502 505
f 514 515 503
f 503 515 504
f 485 488 492
f 492 488 505
f 477 506 517
f 517 506 516
f 474 513 483
f 483 513 509
f 510 292 494
f 494 292 164
f 512 473 517
f 517 473 477
f 491 481 496
f 496 481 480
f 502 506 505
f 505 506 500
f 503 488 514
f 514 488 487
f 514 487 470
f 470 487 471
f 517 516 519
f 519 516 518
f 517 519 512
f 512 519 520
f 512 520 513
f 513 520 521
f 513 521 509
f 509 521 522
f 516 501 518
f 518 501 523
f 501 504 523
f 523 504 524
f 524 504 525
f 525 504 515
f 526 527 523
f 523 527 518
f 529 530 528
f 528 530 531
f 532 533 529
f 529 533 530
f 530 533 535
f 535 533 534
f 536 537 535
f 535 537 538
f 534 539 535
f 535 539 536
f 538 531 535
f 535 531 530
f 540 541 531
f 531 541 528
f 533 532 534
f 534 532 542
f 532 520 542
f 542 520 519
f 532 543 520
f 520 543 521
f 529 544 532
f 532 544 543
f 544 529 545
f 545 529 528
f 534 542 539
f 539 542 527
f 527 542 518
f 518 542 519
f 541 546 528
f 528 546 545
f 547 544 548
f 548 544 545
f 546 549 545
f 545 549 548
f 550 547 551
f 551 547 548
f 547 550 553
f 553 550 552
f 549 554 548
f 548 554 551
f 544 547 543
f 543 547 553
f 543 553 521
f 521 553 522
f 546 541 556
f 556 541 555
f 541 540 555
f 555 540 557
f 536 539 558
f 558 539 527
f 537 536 559
f 559 536 558
f 527 526 558
f 558 526 560
f 559 558 561
f 561 558 560
f 559 562 537
f 537 562 563
f 557 563 555
f 555 563 562
f 509 522 507
f 507 522 564
f 508 565 515
f 515 565 525
f 565 508 564
f 564 508 507
f 564 552 565
f 565 552 566
f 552 550 566
f 566 550 567
f 565 566 525
f 525 566 568
f 564 522 552
f 552 522 553
f 569 524 568
f 568 524 525
f 569 526 524
f 524 526 523
f 570 560 569
f 569 560 526
f 570 569 571
f 571 569 568
f 572 570 573
f 573 570 571
f 566 567 568
f 568 567 571
f 567 574 571
f 571 574 573
f 570 572 560
f 560 572 561
f 576 561 575
f 575 561 572
f 575 578 577
f 577 578 579
f 575 572 578
f 578 572 573
f 575 577 576
f 576 577 556
f 576 556 562
f 562 556 555
f 562 559 576
f 576 559 561
f 550 551 567
f 567 551 574
f 579 574 554
f 554 574 551
f 579 578 574
f 574 578 573
f 579 554 577
f 577 554 549
f 549 546 577
f 577 546 556
f 531 538 540
f 540 538 557
f 557 538 563
f 563 538 537
f 481 294 482
f 482 294 293
f 580 486 511
f 511 486 485
f 490 489 497
f 497 489 498
f 489 491 498
f 498 491 496
f 163 495 164
f 164 495 494
f 580 490 486
f 486 490 497
f 482 293 510
f 510 293 292
f 495 163 511
f 511 163 199
f 494 493 510
f 510 493 499
f 481 491 294
f 294 491 248
f 582 583 581
f 581 583 584
f 586 587 585
f 585 587 588
f 585 588 589
f 589 588 590
f 592 593 591
f 591 593 594
f 595 596 598
f 598 596 597
f 599 600 586
f 586 600 587
f 601 602 604
f 604 602 603
f 605 606 608
f 608 606 607
f 609 607 200
f 200 607 606
f 610 611 613
f 613 611 612
f 600 614 587
f 587 614 592
f 596 605 597
f 597 605 608
f 602 615 603
f 603 615 583
f 616 614 584
f 584 614 600
f 611 618 617
f 617 618 590
f 620 621 619
f 619 621 622
f 610 623 611
f 611 623 618
f 624 589 618
f 618 589 590
f 617 590 591
f 591 590 588
f 581 625 582
f 582 625 626
f 599 627 581
f 581 627 625
f 591 594 617
f 617 594 628
f 601 610 598
f 598 610 613
f 581 584 599
f 599 584 600
f 585 629 586
f 586 629 630
f 615 616 583
f 583 616 584
f 587 592 588
f 588 592 591
f 582 626 631
f 631 626 632
f 624 620 633
f 633 620 619
f 621 620 604
f 604 620 623
f 631 632 621
f 621 632 622
f 610 601 623
f 623 601 604
f 589 624 634
f 634 624 633
f 586 630 599
f 599 630 627
f 203 202 628
f 628 202 612
f 629 585 634
f 634 585 589
f 609 593 614
f 614 593 592
f 620 624 623
f 623 624 618
f 631 621 603
f 603 621 604
f 582 631 583
f 583 631 603
f 634 633 636
f 636 633 635
f 634 636 629
f 629 636 637
f 629 637 630
f 630 637 638
f 630 638 627
f 627 638 639
f 633 619 635
f 635 619 640
f 619 622 640
f 640 622 641
f 641 622 642
f 642 622 632
f 644 635 643
f 643 635 640
f 645 646 648
f 648 646 647
f 649 650 646
f 646 650 647
f 647 650 652
f 652 650 651
f 652 653 655
f 655 653 654
f 651 656 652
f 652 656 653
f 655 648 652
f 652 648 647
f 648 657 645
f 645 657 658
f 650 649 651
f 651 649 659
f 649 637 659
f 659 637 636
f 649 660 637
f 637 660 638
f 661 660 646
f 646 660 649
f 662 661 645
f 645 661 646
f 651 659 656
f 656 659 644
f 644 659 635
f 635 659 636
f 663 662 658
f 658 662 645
f 664 661 665
f 665 661 662
f 663 666 662
f 662 666 665
f 667 664 668
f 668 664 665
f 664 667 670
f 670 667 669
f 666 671 665
f 665 671 668
f 661 664 660
f 660 664 670
f 660 670 638
f 638 670 639
f 658 672 663
f 663 672 673
f 658 657 672
f 672 657 674
f 653 656 675
f 675 656 644
f 653 675 654
f 654 675 676
f 675 644 677
f 677 644 643
f 676 675 678
f 678 675 677
f 679 680 676
f 676 680 654
f 674 680 672
f 672 680 679
f 627 639 625
f 625 639 681
f 626 682 632
f 632 682 642
f 681 682 625
f 625 682 626
f 669 683 681
f 681 683 682
f 667 684 669
f 669 684 683
f 682 683 642
f 642 683 685
f 681 639 669
f 669 639 670
f 686 641 685
f 685 641 642
f 641 686 640
f 640 686 643
f 686 687 643
f 643 687 677
f 687 686 688
f 688 686 685
f 689 687 690
f 690 687 688
f 683 684 685
f 685 684 688
f 684 691 688
f 688 691 690
f 687 689 677
f 677 689 678
f 693 678 692
f 692 678 689
f 692 695 694
f 694 695 696
f 692 689 695
f 695 689 690
f 692 694 693
f 693 694 673
f 693 673 679
f 679 673 672
f 679 676 693
f 693 676 678
f 684 667 691
f 691 667 668
f 696 691 671
f 671 691 668
f 696 695 691
f 691 695 690
f 694 696 666
f 666 696 671
f 666 663 694
f 694 663 673
f 648 655 657
f 657 655 674
f 674 655 680
f 680 655 654
f 593 162 594
f 594 162 290
f 598 597 601
f 601 597 602
f 615 608 616
f 616 608 607
f 607 609 616
f 616 609 614
f 697 595 613
f 613 595 598
f 597 608 602
f 602 608 615
f 594 290 628
f 628 290 203
f 628 612 617
f 617 612 611
f 593 609 162
f 162 609 200
f 105 29 698
f 698 29 699
f 268 126 701
f 701 126 700
f 126 125 700
f 700 125 702
f 252 703 250
f 250 703 704
f 32 268 705
f 705 268 701
f 288 105 706
f 706 105 698
f 29 32 699
f 699 32 705
f 707 251 706
f 706 251 288
f 250 704 125
f 125 704 702
f 703 252 707
f 707 252 251
f 706 708 707
f 707 708 709
f 707 709 703
f 703 709 710
f 703 710 704
f 704 710 711
f 704 711 702
f 702 711 712
f 706 698 708
f 708 698 713
f 698 699 713
f 713 699 714
f 699 705 714
f 714 705 715
f 717 708 716
f 716 708 713
f 719 720 718
f 718 720 721
f 722 723 719
f 719 723 720
f 724 725 723
f 723 725 720
f 724 726 725
f 725 726 727
f 728 721 725
f 725 721 720
f 721 728 729
f 729 728 730
f 729 731 721
f 721 731 718
f 724 723 732
f 732 723 722
f 722 710 732
f 732 710 709
f 722 733 710
f 710 733 711
f 719 734 722
f 722 734 733
f 734 719 735
f 735 719 718
f 724 732 726
f 726 732 717
f 717 732 708
f 708 732 709
f 731 736 718
f 718 736 735
f 737 734 738
f 738 734 735
f 736 739 735
f 735 739 738
f 740 737 741
f 741 737 738
f 737 740 743
f 743 740 742
f 739 744 738
f 738 744 741
f 734 737 733
f 733 737 743
f 733 743 711
f 711 743 712
f 736 731 746
f 746 731 745
f 731 729 745
f 745 729 730
f 727 726 747
f 747 726 717
f 748 727 749
f 749 727 747
f 747 717 750
f 750 717 716
f 749 747 751
f 751 747 750
f 749 752 748
f 748 752 753
f 730 753 745
f 745 753 752
f 728 725 748
f 748 725 727
f 730 728 753
f 753 728 748
f 700 702 754
f 754 702 712
f 705 701 715
f 715 701 755
f 754 755 700
f 700 755 701
f 742 756 754
f 754 756 755
f 740 757 742
f 742 757 756
f 755 756 715
f 715 756 758
f 754 712 742
f 742 712 743
f 759 714 758
f 758 714 715
f 714 759 713
f 713 759 716
f 759 760 716
f 716 760 750
f 760 759 761
f 761 759 758
f 762 760 763
f 763 760 761
f 756 757 758
f 758 757 761
f 757 764 761
f 761 764 763
f 760 762 750
f 750 762 751
f 766 751 765
f 765 751 762
f 767 765 769
f 769 765 768
f 765 762 768
f 768 762 763
f 765 767 766
f 766 767 746
f 766 746 752
f 752 746 745
f 752 749 766
f 766 749 751
f 757 740 764
f 764 740 741
f 769 764 744
f 744 764 741
f 769 768 764
f 764 768 763
f 767 769 739
f 739 769 744
f 739 736 767
f 767 736 746
f 219 217 208
f 208 217 209
f 209 217 210
f 210 217 193
f 198 580 199
f 199 580 511
f 76 75 289
f 289 75 272
f 277 207 291
f 291 207 184
f 290 183 203
f 203 183 84
f 490 580 142
f 142 580 198
f 142 198 143
f 143 198 197
f 149 276 72
f 72 276 73
f 104 103 279
f 279 103 770
f 770 596 279
f 279 596 595
f 605 596 771
f 771 596 770
f 771 770 772
f 772 770 103
f 772 103 773
f 773 103 102
f 155 774 101
f 101 774 102
f 773 102 97
f 97 102 774
f 775 773 100
f 100 773 97
f 773 775 772
f 772 775 776
f 772 776 771
f 771 776 777
f 200 606 197
f 197 606 777
f 189 71 778
f 778 71 74
f 97 774 98
f 98 774 155
f 183 161 184
f 184 161 291
f 777 276 197
f 197 276 143
f 777 606 771
f 771 606 605
f 613 612 697
f 697 612 202
f 595 697 279
f 279 697 202
f 73 276 776
f 776 276 777
f 776 775 73
f 73 775 74
f 100 778 775
f 775 778 74
f 778 100 189
f 189 100 99
f 245 242 99
f 99 242 189
f 131 33 256
f 28 1 95
f 95 1 62
f 27 2 28
f 28 2 1
f 265 115 266
f 266 115 114
f 95 62 69
f 69 62 64
f 62 61 64
f 64 61 65
f 61 13 65
f 65 13 130
f 13 12 130
f 130 12 14
f 31 11 32
f 32 11 268
f 15 12 31
f 31 12 11
f 31 30 15
f 15 30 231
f 30 106 231
f 231 106 232
f 287 237 106
f 106 237 232
f 254 90 287
f 287 90 237
f 253 44 254
f 254 44 90
f 253 249 44
f 44 249 7
f 267 127 268
f 268 127 126
f 10 3 241
f 241 3 116
f 3 2 116
f 116 2 114
f 2 27 114
f 114 27 266
f 27 26 266
f 266 26 113
f 26 286 113
f 113 286 110
f 286 243 110
f 110 243 255
f 243 242 255
f 255 242 256
f 242 245 256
f 256 245 131
f 245 244 131
f 131 244 132
f 265 37 115
f 115 37 41
f 41 37 42
f 42 37 40
f 92 91 40
f 40 91 42
f 236 233 92
f 92 233 91
f 191 194 236
f 236 194 233
f 258 285 244
f 244 285 132
f 257 55 258
f 258 55 285
f 257 154 201
f 201 154 185
f 56 201 204
f 204 201 180
f 55 257 56
f 56 257 201
f 204 85 56
f 56 85 52
f 86 122 53
f 53 122 79
f 212 215 86
f 86 215 122
f 211 216 212
f 212 216 215
f 192 280 211
f 211 280 216
f 191 240 192
f 192 240 280
f 249 124 7
f 7 124 8
f 124 127 8
f 8 127 241
f 127 267 241
f 241 267 10
f 10 267 9
f 9 267 11
