v -0.006125543266534805 0.05971745774149895 0.7730708122253418
v 0.006736468523740768 0.05584856867790222 0.7721840739250183
v -8.052214980125427e-05 0.05082947388291359 0.7765713334083557
v -0.01121533289551735 0.055649638175964355 0.7782790660858154
v 0.016414538025856018 0.04620024189352989 0.7887287735939026
v 0.019694142043590546 0.05071199685335159 0.799059271812439
v 0.0038469359278678894 0.04788869619369507 0.7987203001976013
v 0.004583150148391724 0.04416908323764801 0.7889989018440247
v -0.016255564987659454 0.055408649146556854 0.7814725637435913
v -0.007061205804347992 0.04870247840881348 0.779269278049469
v -0.018158569931983948 0.060986921191215515 0.7819029688835144
v -0.026306603103876114 0.06965390592813492 0.7877968549728394
v -0.025282006710767746 0.06304559111595154 0.7859910726547241
v -0.033647678792476654 0.07373591512441635 0.7892582416534424
v -0.020768247544765472 0.07924601435661316 0.7890192270278931
v -0.03201870992779732 0.08244436979293823 0.7860009074211121
v -0.012289315462112427 0.09370259940624237 0.7706352472305298
v -0.00870652124285698 0.09455475211143494 0.7584030032157898
v -0.024387862533330917 0.09271376579999924 0.7570301294326782
v -0.026523170992732048 0.09130605310201645 0.7697426080703735
v -0.013703517615795135 0.08915915340185165 0.7401268482208252
v -0.020650867372751236 0.0913393422961235 0.7491811513900757
v -0.004814650863409042 0.09424502402544022 0.7505254745483398
v 0.0004915259778499603 0.09204016625881195 0.742150604724884
v 0.0009574629366397858 0.06422257423400879 0.761871337890625
v 0.012528277933597565 0.06261494010686874 0.7609958052635193
v 0.011207237839698792 0.06116228550672531 0.765275239944458
v -0.0006250329315662384 0.06321161240339279 0.766266405582428
v -0.02053932473063469 0.06261390447616577 0.7863239049911499
v -0.014013871550559998 0.07085942476987839 0.7928032279014587
v -0.017864808440208435 0.06813058257102966 0.7871840000152588
v -0.019887998700141907 0.059103839099407196 0.7820651531219482
v 0.03782656043767929 0.05607305467128754 0.7529056668281555
v 0.049660637974739075 0.061903223395347595 0.7551540732383728
v 0.0490250289440155 0.0624433271586895 0.7610858082771301
v 0.038479581475257874 0.05735556781291962 0.7578492164611816
v 0.04064439237117767 0.05833427608013153 0.7857518792152405
v 0.048054181039333344 0.06480766832828522 0.7803806066513062
v 0.05178680270910263 0.07375781238079071 0.7892599701881409
v 0.04251080006361008 0.07091549038887024 0.7938554883003235
v 0.03075987845659256 0.052828993648290634 0.7940621376037598
v 0.03242463618516922 0.06395462900400162 0.8004011511802673
v 0.018066175282001495 0.060544032603502274 0.8054024577140808
v 0.0005776658654212952 0.054663173854351044 0.8043516874313354
v 0.05108650028705597 0.06378886848688126 0.7425963282585144
v 0.04275815188884735 0.05929333716630936 0.7391684055328369
v -0.08617518842220306 0.08382169902324677 0.7756190299987793
v -0.08428986370563507 0.08459790050983429 0.770110011100769
v -0.07978149503469467 0.07914622873067856 0.7724354863166809
v -0.0819852203130722 0.07974323630332947 0.7775500416755676
v 0.04440966993570328 0.07793164998292923 0.7301337718963623
v 0.04298298805952072 0.08788780868053436 0.7309538722038269
v 0.050122976303100586 0.08677779138088226 0.7307224869728088
v 0.051664456725120544 0.0775909572839737 0.7318160533905029
v 0.0347539484500885 0.0781799703836441 0.7280870676040649
v 0.03299524635076523 0.08872894942760468 0.7318221926689148
v -0.08135998249053955 0.09283813089132309 0.7823770642280579
v -0.08476784825325012 0.08905147761106491 0.7822601199150085
v -0.07995903491973877 0.08655242621898651 0.7842583656311035
v -0.0758022591471672 0.09041613340377808 0.7836283445358276
v -0.02189098671078682 0.06010262295603752 0.7819743752479553
v -0.017029307782649994 0.06076710671186447 0.7749941945075989
v -0.043975867331027985 0.06343276798725128 0.7814760208129883
v -0.031690146774053574 0.06270718574523926 0.778183102607727
v -0.031960006803274155 0.06313301622867584 0.7848893404006958
v -0.04192294552922249 0.06524808704853058 0.7872713804244995
v -0.02169618010520935 0.06492999941110611 0.756959855556488
v -0.009946830570697784 0.06526269018650055 0.7582294344902039
v -0.012846522033214569 0.06506989896297455 0.7638689279556274
v -0.026107823476195335 0.06405529379844666 0.764315128326416
v -0.005690142512321472 0.06239987164735794 0.7451168894767761
v -0.017678100615739822 0.06262143701314926 0.7449034452438354
v -0.014092963188886642 0.06078806519508362 0.7374525666236877
v -0.006034594029188156 0.06016460806131363 0.738964855670929
v -0.03995479643344879 0.06489898264408112 0.7471689581871033
v -0.04787072166800499 0.06924550235271454 0.7462208271026611
v -0.04845575988292694 0.07057824730873108 0.7416703701019287
v -0.039026178419589996 0.06552144885063171 0.7435641884803772
v 0.057142339646816254 0.08679056167602539 0.730958878993988
v 0.058401256799697876 0.07767245918512344 0.7343340516090393
v -0.004105415195226669 0.08190945535898209 0.722840428352356
v 0.0017052367329597473 0.07411635667085648 0.717767596244812
v -0.00881684198975563 0.07301703840494156 0.7140740156173706
v -0.012228656560182571 0.08105479180812836 0.7204759120941162
v 0.03985636681318283 0.09554493427276611 0.7372191548347473
v 0.047312818467617035 0.09548191726207733 0.7349115014076233
v -0.07731734216213226 0.09633289277553558 0.779097855091095
v -0.07262241840362549 0.09372884780168533 0.7796063423156738
v 0.017781905829906464 0.07275065779685974 0.8039922714233398
v -0.001583695411682129 0.06409270316362381 0.8045881986618042
v 0.03257206082344055 0.07818571478128433 0.7990603446960449
v 0.04203270375728607 0.08273144066333771 0.793648362159729
v 0.050637535750865936 0.08528780937194824 0.7913439273834229
v -0.0354616716504097 0.06257167458534241 0.7723625302314758
v -0.010833989828824997 0.0631638690829277 0.7689103484153748
v 0.002466101199388504 0.06406805664300919 0.7574024796485901
v 0.007113795727491379 0.05604139715433121 0.7284230589866638
v 0.017694629728794098 0.055803082883358 0.7301633358001709
v 0.011993683874607086 0.05571542680263519 0.7389808893203735
v 0.003888264298439026 0.05661416053771973 0.7355656027793884
v 0.002016395330429077 0.06457109749317169 0.7166439890861511
v -0.0012225806713104248 0.05873868241906166 0.7208738923072815
v -0.010678388178348541 0.05902274698019028 0.7186664342880249
v -0.007944408804178238 0.06440901011228561 0.7141000628471375
v -0.021220192313194275 0.06316452473402023 0.7930803298950195
v -0.00993766263127327 0.07273290306329727 0.7975698113441467
v 0.04515582323074341 0.0678732618689537 0.7329521179199219
v 0.051793187856674194 0.06877277791500092 0.7367257475852966
v 0.059402644634246826 0.07149657607078552 0.7389112114906311
v 0.02564309537410736 0.05846550688147545 0.7587161660194397
v 0.03904430568218231 0.058034077286720276 0.7615749835968018
v 0.03829798102378845 0.05731707811355591 0.7667794227600098
v 0.02560357004404068 0.05885085090994835 0.7618688941001892
v 0.018881261348724365 0.050670355558395386 0.7755745649337769
v 0.029003463685512543 0.04986099898815155 0.7820809483528137
v 0.009037420153617859 0.04587865620851517 0.7791905999183655
v 0.04983562231063843 0.06342940032482147 0.769635796546936
v 0.05870355665683746 0.06461922079324722 0.762942910194397
v 0.05819667875766754 0.06632596999406815 0.7717874646186829
v 0.05963435024023056 0.0653165653347969 0.7532281875610352
v 0.059909164905548096 0.06743697077035904 0.7445935606956482
v 0.0551103800535202 0.09831788390874863 0.7333112955093384
v 0.05659151077270508 0.06936062127351761 0.7795628905296326
v -0.0035357438027858734 0.04366769269108772 0.7877012491226196
v -0.01105482131242752 0.04286462813615799 0.7855396270751953
v -0.012471921741962433 0.046943094581365585 0.7788863778114319
v -0.005895882844924927 0.04689335823059082 0.7800443172454834
v -0.043107036501169205 0.07796938717365265 0.7898542284965515
v -0.043463125824928284 0.07029923051595688 0.7901418805122375
v -0.032048724591732025 0.06687929481267929 0.7895600199699402
v 0.028193652629852295 0.05498422682285309 0.7465349435806274
v 0.03292154520750046 0.057436417788267136 0.7352532744407654
v -0.04731128364801407 0.06495877355337143 0.7755218148231506
v -0.0709291622042656 0.09133145958185196 0.7839985489845276
v -0.07386641949415207 0.08660223335027695 0.7860419750213623
v -0.058128729462623596 0.08289603888988495 0.7888320088386536
v -0.05696842074394226 0.08861903846263885 0.7860763072967529
v -0.05529715493321419 0.07367789000272751 0.7703019976615906
v -0.05324389040470123 0.06919621676206589 0.7744619250297546
v -0.056341059505939484 0.0723700299859047 0.7734612226486206
v -0.05804537609219551 0.07658407092094421 0.7690497636795044
v -0.042368460446596146 0.06819633394479752 0.7356290221214294
v -0.03490268439054489 0.06437060236930847 0.7364811301231384
v -0.04154522344470024 0.08619653433561325 0.7683027982711792
v -0.03853216767311096 0.08853315562009811 0.7804326415061951
v -0.028330417349934578 0.08918002992868423 0.7788479924201965
v -0.01858987659215927 0.06408945471048355 0.7502564191818237
v -0.029386691749095917 0.06363800913095474 0.748226523399353
v -0.028363283723592758 0.06337343901395798 0.7442426085472107
v -0.03902360796928406 0.06355907022953033 0.7688570022583008
v -0.04823178052902222 0.06629746407270432 0.7698157429695129
v -0.0444701611995697 0.06531153619289398 0.7652603387832642
v -0.0357067845761776 0.06418856233358383 0.7640342116355896
v 0.013745538890361786 0.07673373818397522 0.7208757996559143
v 0.014510728418827057 0.06538598239421844 0.7192855477333069
v -0.08639924228191376 0.0856078565120697 0.7799190282821655
v -0.08170507848262787 0.08233074843883514 0.7820221781730652
v -0.007131997495889664 0.06445962190628052 0.7516466975212097
v -0.01516704261302948 0.08987400680780411 0.779026448726654
v 0.004249162971973419 0.06328707188367844 0.7523823380470276
v -0.028967631980776787 0.0803154855966568 0.7296649217605591
v -0.030949849635362625 0.07417427003383636 0.7251856327056885
v -0.035365525633096695 0.07548011094331741 0.726558268070221
v -0.034248922020196915 0.08125334233045578 0.7280946969985962
v -0.07027684152126312 0.083686962723732 0.7661046981811523
v -0.07319792360067368 0.07942123711109161 0.7688711285591125
v -0.07705339789390564 0.08121433854103088 0.7672412991523743
v -0.07368811219930649 0.0851154550909996 0.7653047442436218
v -0.05254992097616196 0.06798312813043594 0.7800918221473694
v -0.05113877356052399 0.06898047029972076 0.7864207029342651
v -0.05817057937383652 0.07204356789588928 0.7840524911880493
v -0.05767456069588661 0.07162543386220932 0.7783032655715942
v -0.05206167697906494 0.07463979721069336 0.7895069718360901
v -0.05833306908607483 0.07671818137168884 0.7880613803863525
v -0.06740087270736694 0.08941857516765594 0.76784747838974
v -0.06603582948446274 0.09424163401126862 0.7738508582115173
v -0.05541388690471649 0.09051716327667236 0.773517906665802
v -0.05831693857908249 0.08432446420192719 0.769344687461853
v 0.014531023800373077 0.09537104517221451 0.744544506072998
v 0.018285267055034637 0.09147872775793076 0.7349502444267273
v 0.004449240863323212 0.0880468562245369 0.7323139905929565
v -0.008464723825454712 0.0852946862578392 0.7295147776603699
v -0.02135046198964119 0.08109693974256516 0.7281798124313354
v -0.025314604863524437 0.08743707835674286 0.7377154231071472
v 0.008372649550437927 0.08487381786108017 0.7261828184127808
v -0.053334590047597885 0.07878264039754868 0.7661116719245911
v -0.04773460328578949 0.08548866212368011 0.7731381058692932
v -0.04878481104969978 0.08322638273239136 0.7671523690223694
v 0.005788013339042664 0.060541942715644836 0.7457116842269897
v -0.07514599710702896 0.08215885609388351 0.7849218845367432
v 0.039993882179260254 0.09939040243625641 0.779535710811615
v 0.04037292301654816 0.10320039093494415 0.7669038772583008
v 0.031973160803318024 0.1012122631072998 0.7685580253601074
v 0.031147509813308716 0.0964432805776596 0.7822810411453247
v -0.07499991357326508 0.07677783817052841 0.7749359607696533
v -0.07601600885391235 0.07779452204704285 0.7808126211166382
v -0.03378993272781372 0.06448260694742203 0.7294403910636902
v -0.03927692025899887 0.06808486580848694 0.730418860912323
v -0.03848179802298546 0.0698406994342804 0.7273167967796326
v -0.033976614475250244 0.06557908654212952 0.7229892015457153
v 0.021494843065738678 0.08891716599464417 0.7308194637298584
v -0.014591194689273834 0.07348664849996567 0.7133802771568298
v -0.018295850604772568 0.08043911308050156 0.7184140682220459
v 0.03051438182592392 0.09447915107011795 0.7377142906188965
v 0.027334287762641907 0.09844925999641418 0.745975136756897
v 0.03676026314496994 0.10045918822288513 0.7464458346366882
v -0.037140198051929474 0.08795232325792313 0.7480230331420898
v 0.009851396083831787 0.09693911671638489 0.751618504524231
v 0.023883283138275146 0.09939954429864883 0.7527100443840027
v 0.035025835037231445 0.10181489586830139 0.7535953521728516
v 0.043016642332077026 0.10403920710086823 0.7534903287887573
v 0.04415424168109894 0.10209974646568298 0.7456757426261902
v -0.06803940236568451 0.09379961341619492 0.7790412902832031
v -0.07030238956212997 0.09431853145360947 0.773962140083313
v 0.05242812633514404 0.10545762628316879 0.7442333102226257
v 0.050919316709041595 0.10686975717544556 0.753255307674408
v 0.020721018314361572 0.09962571412324905 0.7613688707351685
v 0.01718907803297043 0.09866560250520706 0.7715587615966797
v 0.007262479513883591 0.09710712730884552 0.7598487138748169
v 0.002681143581867218 0.09602624922990799 0.769847571849823
v -0.03550020977854729 0.09116977453231812 0.7578457593917847
v -0.08297080546617508 0.10349434614181519 0.7662484645843506
v -0.07496203482151031 0.09597650915384293 0.7679915428161621
v -0.07720375061035156 0.09154727309942245 0.7647154331207275
v -0.0833854228258133 0.10064732283353806 0.763019323348999
v -0.07103140652179718 0.08999650180339813 0.7678488492965698
v -0.07458414882421494 0.09776057302951813 0.7734305262565613
v -0.00047469139099121094 0.09104254096746445 0.7811236381530762
v -0.05351180210709572 0.06950031965970993 0.7645017504692078
v 0.014923013746738434 0.09143856167793274 0.7854435443878174
v -0.00906355306506157 0.08330511301755905 0.7911216616630554
v 0.0018546096980571747 0.08197781443595886 0.7946034669876099
v 0.030557945370674133 0.09005695581436157 0.792453408241272
v 0.016051210463047028 0.083187535405159 0.7985191941261292
v 0.048537299036979675 0.09451960027217865 0.7869839668273926
v 0.03953343629837036 0.0928555354475975 0.7887008786201477
v 0.0015233606100082397 0.0747671127319336 0.8013415336608887
v -0.09208051860332489 0.09083221852779388 0.7688875198364258
v -0.08869916200637817 0.09186771512031555 0.7644137740135193
v 0.04807034134864807 0.10171787440776825 0.778567910194397
v -3.135204315185547e-05 0.04525439441204071 0.7802544236183167
v 0.016118690371513367 0.058726318180561066 0.7489886283874512
v 0.014622069895267487 0.06092240288853645 0.7537917494773865
v 0.02386002242565155 0.056214652955532074 0.7318906784057617
v 0.019153647124767303 0.05547841638326645 0.7424437999725342
v -0.09339550882577896 0.0922357439994812 0.7737934589385986
v -0.05026749148964882 0.07563142478466034 0.7448107004165649
v -0.04988785460591316 0.0762324333190918 0.7421671152114868
v -0.004632007330656052 0.04471980407834053 0.796215295791626
v -0.011487171053886414 0.04302814602851868 0.79326331615448
v -0.019284803420305252 0.05220789834856987 0.7989102602005005
v -0.01550333946943283 0.04613098129630089 0.7981091737747192
v -0.008302509784698486 0.049904342740774155 0.8015063405036926
v -0.011653590947389603 0.056790806353092194 0.8020310997962952
v 0.025432594120502472 0.05778057500720024 0.756043553352356
v 0.025648824870586395 0.05682609975337982 0.7521986365318298
v 0.0249573215842247 0.07733689248561859 0.7244253754615784
v 0.025130443274974823 0.0659484937787056 0.7232224345207214
v -0.05112519487738609 0.08085337281227112 0.7893953323364258
v -0.04217272996902466 0.08474066853523254 0.7871417999267578
v -0.04984012991189957 0.08671776950359344 0.7863343954086304
v -0.054362859576940536 0.09137968719005585 0.7805497646331787
v -0.05633576959371567 0.07516398280858994 0.7644011378288269
v -0.05364019423723221 0.0797213688492775 0.7699799537658691
v 0.0341358482837677 0.053766828030347824 0.773288369178772
v 0.023808293044567108 0.056273043155670166 0.7679572701454163
v -0.011347085237503052 0.05088076367974281 0.7792894244194031
v -0.016369696706533432 0.052905164659023285 0.7777059078216553
v -0.031172044575214386 0.06423140317201614 0.757215678691864
v -0.04511934891343117 0.08799704909324646 0.7498048543930054
v -0.04491869732737541 0.09047343581914902 0.7577019333839417
v -0.04131947457790375 0.06515885144472122 0.7568811178207397
v -0.09069284051656723 0.09942010790109634 0.7772188186645508
v -0.09305968880653381 0.09505579620599747 0.7762077450752258
v -0.04780968278646469 0.08929023146629333 0.780809760093689
v -0.025496292859315872 0.061119358986616135 0.73663729429245
v -0.040905777364969254 0.08534999936819077 0.7440388798713684
v -0.04723314568400383 0.08290323615074158 0.7461138963699341
v -0.013405591249465942 0.06489455699920654 0.7128603458404541
v 0.04900263994932175 0.10521990805864334 0.7664691209793091
v -0.08107995241880417 0.08763056248426437 0.7653384208679199
v -0.08536891639232635 0.09461192786693573 0.7617804408073425
v -0.08320525288581848 0.10463836789131165 0.7704124450683594
v -0.08572165668010712 0.10307367146015167 0.7755172848701477
v 0.034436240792274475 0.06613155454397202 0.7284426093101501
v 0.013355322182178497 0.062133949249982834 0.7568684816360474
v -0.011017955839633942 0.06719379872083664 0.8002990484237671
v -0.021184410899877548 0.05918107181787491 0.7964485883712769
v -0.0489937923848629 0.0674460381269455 0.755761981010437
v -0.024847207590937614 0.07812734693288803 0.7237502932548523
v -0.03286776691675186 0.0870145708322525 0.7355354428291321
v -0.03742210566997528 0.08778370171785355 0.7325899600982666
v -0.043706029653549194 0.08783266693353653 0.7360900044441223
v -0.049927517771720886 0.08362943679094315 0.7377334237098694
v -0.08709761500358582 0.10691981017589569 0.767241895198822
v -0.09014546871185303 0.1057753637433052 0.7724172472953796
v -0.09523649513721466 0.10230927169322968 0.7738637924194336
v -0.0970902368426323 0.09794674068689346 0.7731902003288269
v -0.09608893096446991 0.0941212996840477 0.77110755443573
v -0.08677329123020172 0.10559411346912384 0.763022780418396
v -0.08733577281236649 0.10266244411468506 0.7603797912597656
v -0.08785702288150787 0.09643588215112686 0.7603027820587158
v -0.0900518149137497 0.10648144781589508 0.7597454786300659
v -0.09309717267751694 0.109730064868927 0.762373685836792
v -0.10594873130321503 0.10582537949085236 0.7648990154266357
v -0.101247638463974 0.10614775121212006 0.768461287021637
v -0.10179850459098816 0.10786662995815277 0.7663990259170532
v -0.1054556667804718 0.10850699990987778 0.7631396651268005
v -0.10838508605957031 0.11041110754013062 0.7594044208526611
v -0.10958175361156464 0.10740552842617035 0.7609103918075562
v -0.09736424684524536 0.10900882631540298 0.7659069299697876
v -0.10182034969329834 0.11042159050703049 0.7611640095710754
v -0.09882479906082153 0.1108572706580162 0.7582459449768066
v -0.10269783437252045 0.1127985417842865 0.7548699378967285
v -0.10552823543548584 0.11266760528087616 0.7574349641799927
v -0.09602842479944229 0.11011775583028793 0.7617877721786499
v -0.09564715623855591 0.1088133156299591 0.7676631212234497
v -0.11069701611995697 0.10941552370786667 0.7569358348846436
v -0.10960671305656433 0.11169660836458206 0.7570911645889282
v -0.1074003279209137 0.11316712200641632 0.755055844783783
v -0.10900475084781647 0.11181361973285675 0.7528558373451233
v -0.10084200650453568 0.10021234303712845 0.7699890732765198
v -0.10645247995853424 0.1033250093460083 0.7645248174667358
v -0.10913728177547455 0.10473369061946869 0.7593496441841125
v -0.11021943390369415 0.10700491815805435 0.7555567622184753
v -0.10589716583490372 0.10087554156780243 0.7613639235496521
v -0.1077837347984314 0.10293447971343994 0.7574714422225952
v -0.10836939513683319 0.10478125512599945 0.7539384961128235
v -0.10406914353370667 0.09946213662624359 0.7577743530273438
v -0.10596266388893127 0.1020134910941124 0.7550308704376221
v -0.09689906984567642 0.09409317374229431 0.7655292749404907
v -0.09877918660640717 0.0957028716802597 0.7689142823219299
v -0.10708388686180115 0.10332754254341125 0.7530804872512817
v -0.10851867496967316 0.11007525026798248 0.7515740990638733
v -0.09571173787117004 0.10955405235290527 0.756821870803833
v -0.10108466446399689 0.11101144552230835 0.7526605129241943
v -0.0949450358748436 0.10787747800350189 0.755352258682251
v -0.09999814629554749 0.10959047079086304 0.7510671615600586
v -0.10469000041484833 0.11261184513568878 0.7507563233375549
v -0.10503894090652466 0.1132671907544136 0.7532235383987427
v -0.09333059191703796 0.09225812554359436 0.7672824859619141
v -0.08990204334259033 0.09341747313737869 0.7627556324005127
v -0.09278800338506699 0.09474840015172958 0.761013388633728
v -0.10071802139282227 0.09971209615468979 0.7544305324554443
v -0.0905853733420372 0.09757055342197418 0.7583343386650085
v -0.09055997431278229 0.10351486504077911 0.7573939561843872
v -0.09562665969133377 0.10576611757278442 0.7534340023994446
v -0.0970718264579773 0.10276926308870316 0.7527084946632385
v -0.09989370405673981 0.10706645250320435 0.7505794763565063
v -0.10086306929588318 0.10470651090145111 0.7509540319442749
v -0.10355626046657562 0.1023760661482811 0.7523234486579895
v -0.10373547673225403 0.10767236351966858 0.7495542168617249
v -0.10413789749145508 0.1106249988079071 0.7497761249542236
v -0.10713738203048706 0.10704291611909866 0.7509849071502686
v -0.10328245162963867 0.10580017417669296 0.7500075101852417
v -0.10567004978656769 0.10488700866699219 0.7515266537666321
v -0.0829731822013855 0.08690547943115234 0.7358614206314087
v -0.07829559594392776 0.08863160014152527 0.7325736880302429
v -0.07552003860473633 0.08369570970535278 0.7373649477958679
v -0.0791766494512558 0.08319780230522156 0.7408531308174133
v -0.08271970599889755 0.09544989466667175 0.7465435266494751
v -0.08559049665927887 0.0909932404756546 0.7436166405677795
v -0.08120977133512497 0.08938140422105789 0.7488928437232971
v -0.07700797915458679 0.09445495903491974 0.7498974800109863
v -0.07729776203632355 0.09888014942407608 0.7453023195266724
v -0.07166148722171783 0.09652157872915268 0.7473365068435669
v -0.07337550818920135 0.09573615342378616 0.7523674368858337
v -0.07660654187202454 0.08936034142971039 0.7525709271430969
v -0.059272438287734985 0.08234836906194687 0.761686384677887
v -0.057282768189907074 0.08936169743537903 0.7609671354293823
v -0.05387875810265541 0.07302586734294891 0.7475728988647461
v -0.05351889133453369 0.07697777450084686 0.7459509372711182
v -0.08512823283672333 0.0881347507238388 0.7393302321434021
v -0.0812830999493599 0.0855453610420227 0.7451242804527283
v -0.06761015951633453 0.08546650409698486 0.7352318167686462
v -0.07084685564041138 0.08170401304960251 0.7373466491699219
v -0.0723000168800354 0.08551657199859619 0.7341025471687317
v -0.06924374401569366 0.08944998681545258 0.7337753772735596
v -0.05819935351610184 0.07370893657207489 0.7585504651069641
v -0.0551358163356781 0.07203832268714905 0.7533763647079468
v -0.059556249529123306 0.0774204432964325 0.760201096534729
v -0.06530933082103729 0.09136617183685303 0.7366678714752197
v -0.0649883821606636 0.09683572500944138 0.7406603097915649
v -0.05136256664991379 0.09165659546852112 0.7485057711601257
v -0.051715437322854996 0.08585474640130997 0.7452041506767273
v -0.07778246700763702 0.08450345695018768 0.749994695186615
v -0.07427246868610382 0.08030201494693756 0.741508960723877
v -0.0768275111913681 0.08084756135940552 0.7456541657447815
v -0.06855324655771255 0.09818768501281738 0.7475490570068359
v -0.06851084530353546 0.09757837653160095 0.7408531904220581
v -0.076991505920887 0.10752633213996887 0.7286381125450134
v -0.07098161429166794 0.09913977235555649 0.735569953918457
v -0.071831613779068 0.09556492418050766 0.7320079803466797
v -0.07682959735393524 0.1043928861618042 0.7246002554893494
v -0.06788906455039978 0.09409253299236298 0.7366228103637695
v -0.07306785881519318 0.10060527920722961 0.7402426600456238
v -0.08874914050102234 0.09710755199193954 0.7246628403663635
v -0.08326007425785065 0.09842771291732788 0.7217403650283813
v -0.09178592264652252 0.09829957038164139 0.7279292345046997
v -0.053762126713991165 0.0934300348162651 0.7551916241645813
v -0.09035170078277588 0.10410112142562866 0.7361975312232971
v -0.0926346704363823 0.10006921738386154 0.7317469716072083
v -0.07414162158966064 0.09162777662277222 0.7307665944099426
v -0.07905156910419464 0.1012125015258789 0.7218097448348999
v -0.07915272563695908 0.10904192924499512 0.7324291467666626
v -0.0844603031873703 0.10715878009796143 0.7372816205024719
v -0.08120976388454437 0.11157804727554321 0.7274156808853149
v -0.08672993630170822 0.11117537319660187 0.7307773232460022
v -0.09260398149490356 0.10810598731040955 0.7296581268310547
v -0.09431235492229462 0.10331021994352341 0.7265862226486206
v -0.09300822019577026 0.10049932450056076 0.7242348790168762
v -0.07914496958255768 0.10975716263055801 0.7241078615188599
v -0.07892318069934845 0.10627932846546173 0.7208085656166077
v -0.08094402402639389 0.10179453343153 0.7198172807693481
v -0.08083467185497284 0.11018996685743332 0.7175620794296265
v -0.08333918452262878 0.11336147785186768 0.7193959951400757
v -0.09873402118682861 0.11074001342058182 0.7094615697860718
v -0.09729362279176712 0.11035121232271194 0.7152070999145508
v -0.09570588916540146 0.11239871382713318 0.7147733569145203
v -0.0969509482383728 0.11294452100992203 0.709536075592041
v -0.09511903673410416 0.1115744337439537 0.720999538898468
v -0.09393736720085144 0.11285217106342316 0.7190552949905396
v -0.08947063237428665 0.1140454038977623 0.7196888327598572
v -0.09128417819738388 0.11398972570896149 0.7138352394104004
v -0.0864688903093338 0.11365047842264175 0.7131557464599609
v -0.08798028528690338 0.11479394137859344 0.7079118490219116
v -0.0927586480975151 0.11542302370071411 0.7083674669265747
v -0.08626445382833481 0.11409290879964828 0.7174149751663208
v -0.09682905673980713 0.11365058273077011 0.7060524225234985
v -0.09750648587942123 0.11197823286056519 0.7041736245155334
v -0.08902347832918167 0.11412084847688675 0.7229812741279602
v -0.09588271379470825 0.10577747225761414 0.7229611873626709
v -0.09796415269374847 0.10744323581457138 0.7144107222557068
v -0.09857754409313202 0.10787539929151535 0.7079432010650635
v -0.09612099081277847 0.10972744226455688 0.7026538252830505
v -0.09635467082262039 0.10420192778110504 0.7122501730918884
v -0.09665447473526001 0.10567344725131989 0.7065451145172119
v -0.09432985633611679 0.10766013711690903 0.7026197910308838
v -0.09290781617164612 0.10169126838445663 0.7101461887359619
v -0.09307655692100525 0.10396057367324829 0.7050127983093262
v -0.09070868790149689 0.09916786849498749 0.7199490666389465
v -0.09435632079839706 0.10140785574913025 0.7216395139694214
v -0.0929097905755043 0.10582610964775085 0.7032521367073059
v -0.09371565282344818 0.1144522875547409 0.7024168372154236
v -0.09278199076652527 0.11158673465251923 0.7009222507476807
v -0.09365307539701462 0.11511377990245819 0.7041819095611572
v -0.08450518548488617 0.11291235685348511 0.7126675844192505
v -0.08659180253744125 0.11348168551921844 0.706748902797699
v -0.08292775601148605 0.11096225678920746 0.711301326751709
v -0.08559130132198334 0.11191961914300919 0.7051712870597839
v -0.08899132907390594 0.11429603397846222 0.702884316444397
v -0.09003816545009613 0.11518112570047379 0.7038958668708801
v -0.089563749730587 0.09897837042808533 0.7222039103507996
v -0.08433075994253159 0.09955330193042755 0.7202749252319336
v -0.08535489439964294 0.09914179891347885 0.7184960842132568
v -0.0877896174788475 0.10202013701200485 0.7090150713920593
v -0.08141958713531494 0.10169512778520584 0.7178868055343628
v -0.08018997311592102 0.10667267441749573 0.7167373299598694
v -0.08234871178865433 0.10827052593231201 0.7105593681335449
v -0.08390291780233383 0.10485062003135681 0.7091812491416931
v -0.08457137644290924 0.11008486896753311 0.7045252323150635
v -0.085150808095932 0.10693300515413284 0.7052783966064453
v -0.08900770545005798 0.10408179461956024 0.7046732306480408
v -0.08757150173187256 0.1108519434928894 0.7012274265289307
v -0.08836774528026581 0.11301112920045853 0.7018219232559204
v -0.09186558425426483 0.10956346243619919 0.7010648846626282
v -0.08718746900558472 0.10813238471746445 0.7023338675498962
v -0.09062445908784866 0.10682712495326996 0.7021387815475464
v -0.06752730906009674 0.07862940430641174 0.7129920721054077
v -0.06340982019901276 0.07594175636768341 0.7109575867652893
v -0.06103119999170303 0.07417705655097961 0.7159729599952698
v -0.06507902592420578 0.0772949755191803 0.7181613445281982
v -0.06416137516498566 0.09136302769184113 0.7146779894828796
v -0.06786004453897476 0.08784925192594528 0.7149161696434021
v -0.06561163812875748 0.08699200302362442 0.7193017601966858
v -0.061233095824718475 0.09061761200428009 0.719780445098877
v -0.05985298380255699 0.09256710112094879 0.7112407684326172
v -0.05591146647930145 0.09115861356258392 0.7172723412513733
v -0.058073267340660095 0.09163103252649307 0.7233792543411255
v -0.0629386380314827 0.08731313794851303 0.7232466340065002
v -0.05303839594125748 0.0847868025302887 0.7337789535522461
v -0.048345331102609634 0.08977673202753067 0.731914222240448
v -0.06859508901834488 0.08311419188976288 0.7140840291976929
v -0.06654578447341919 0.08209884166717529 0.7187390327453613
v -0.052237045019865036 0.07512552291154861 0.7145297527313232
v -0.05589411035180092 0.07317769527435303 0.7166304588317871
v -0.056643128395080566 0.07436724752187729 0.7131575345993042
v -0.05377073585987091 0.07680800557136536 0.7116128206253052
v -0.052075546234846115 0.07370011508464813 0.7356334924697876
v -0.04711080715060234 0.07121911644935608 0.7327407598495483
v -0.054431479424238205 0.07882440090179443 0.7346545457839966
v -0.049296192824840546 0.08104272931814194 0.7139347195625305
v -0.048449814319610596 0.08787088096141815 0.7158033847808838
v -0.03950231522321701 0.08409906178712845 0.723418116569519
v -0.04026211425662041 0.07791239023208618 0.7235972881317139
v -0.06432977318763733 0.08228560537099838 0.7228593230247498
v -0.05969955772161484 0.07353542745113373 0.7199292182922363
v -0.06360307335853577 0.07692375034093857 0.7220019102096558
v -0.052605483680963516 0.09160865098237991 0.7201194167137146
v -0.052183277904987335 0.08778765052556992 0.713373064994812
v -0.06032032147049904 0.08982280641794205 0.6932689547538757
v -0.05320307984948158 0.08434506505727768 0.7074891328811646
v -0.05549219250679016 0.07899697124958038 0.7070329785346985
v -0.060777608305215836 0.08551984280347824 0.6922433972358704
v -0.05152729153633118 0.08211608231067657 0.7108321785926819
v -0.054715052247047424 0.08989832550287247 0.7089462876319885
v -0.07303493469953537 0.08223642408847809 0.6963050961494446
v -0.06816579401493073 0.08026286959648132 0.694892168045044
v -0.07417900860309601 0.08563205599784851 0.6985744833946228
v -0.04253366217017174 0.09005406498908997 0.7277109622955322
v -0.04246101528406143 0.07220345735549927 0.7271267771720886
v -0.07229965180158615 0.09277985990047455 0.6987580060958862
v -0.0743611603975296 0.08901619166135788 0.6990575194358826
v -0.05867155268788338 0.07638036459684372 0.7086014151573181
v -0.06336142867803574 0.08173505961894989 0.6927916407585144
v -0.06229901313781738 0.09324829280376434 0.6955129504203796
v -0.06702734529972076 0.09494699537754059 0.6983121037483215
v -0.06326550990343094 0.09321857988834381 0.6899638175964355
v -0.06832864135503769 0.09495343267917633 0.692244827747345
v -0.07353198528289795 0.09370936453342438 0.6922386288642883
v -0.07555676996707916 0.09010487794876099 0.6926348805427551
v -0.07564204186201096 0.08658547699451447 0.6925116181373596
v -0.06159494072198868 0.08951827883720398 0.6879522800445557
v -0.06235223263502121 0.08567965775728226 0.6875470876693726
v -0.06458768993616104 0.08259646594524384 0.6902946829795837
v -0.06217261031270027 0.0882718563079834 0.6837480068206787
v -0.0645957738161087 0.09308274835348129 0.6830940246582031
v -0.07712358981370926 0.09197206795215607 0.673470139503479
v -0.07619696855545044 0.09219972789287567 0.6788620948791504
v -0.0751522034406662 0.0928349494934082 0.6784959435462952
v -0.0759592056274414 0.09310953319072723 0.6730214953422546
v -0.07403521984815598 0.0941358357667923 0.6846773028373718
v -0.07325088232755661 0.09433658421039581 0.6827273964881897
v -0.06954491138458252 0.09481038898229599 0.6829519271850586
v -0.07043170928955078 0.09411144256591797 0.6768243908882141
v -0.06545538455247879 0.0910484567284584 0.6767813563346863
v -0.06712624430656433 0.09100569784641266 0.6722156405448914
v -0.07151760905981064 0.09417881071567535 0.6718319058418274
v -0.06564552336931229 0.09317146241664886 0.681564211845398
v -0.07535813748836517 0.09289753437042236 0.670027494430542
v -0.07730631530284882 0.0927051305770874 0.6693532466888428
v -0.06946733593940735 0.0950855016708374 0.6852565407752991
v -0.0770467221736908 0.09115845710039139 0.6868873238563538
v -0.07806183397769928 0.09011981636285782 0.6793985962867737
v -0.07942183315753937 0.08953499048948288 0.6738019585609436
v -0.07794979214668274 0.08907429128885269 0.6697681546211243
v -0.07781384140253067 0.08641491085290909 0.6796480417251587
v -0.07854773849248886 0.08649662137031555 0.674331784248352
v -0.0773714929819107 0.08616305887699127 0.6706123948097229
v -0.07618367671966553 0.0836292952299118 0.6796959638595581
v -0.07653158158063889 0.08397835493087769 0.6747389435768127
v -0.07442852854728699 0.08376413583755493 0.6896669268608093
v -0.07665230333805084 0.08734271675348282 0.6885761022567749
v -0.07615915685892105 0.08455080538988113 0.6716458797454834
v -0.07292991876602173 0.09233290702104568 0.6674186587333679
v -0.07317733764648438 0.0881214290857315 0.6671382188796997
v -0.07250026613473892 0.09271329641342163 0.6690965890884399
v -0.06418545544147491 0.08980647474527359 0.6773375272750854
v -0.06571055948734283 0.08934783190488815 0.6712220907211304
v -0.0636712834239006 0.0869889184832573 0.6777454614639282
v -0.06527125835418701 0.08656176179647446 0.6715599894523621
v -0.06820310652256012 0.09042073786258698 0.6682239174842834
v -0.0687587782740593 0.09117721021175385 0.6689915657043457
v -0.07312628626823425 0.08324701339006424 0.6927327513694763
v -0.06878732144832611 0.08142206072807312 0.6917200684547424
v -0.07037913054227829 0.0816037654876709 0.6891143918037415
v -0.07248777896165848 0.08147403597831726 0.6786940693855286
v -0.06598056852817535 0.08207430690526962 0.6879265904426575
v -0.06340503692626953 0.0848311260342598 0.6836129426956177
v -0.065116286277771 0.08413607627153397 0.6779447793960571
v -0.0681517943739891 0.08206364512443542 0.677903413772583
v -0.0664152055978775 0.08406876027584076 0.6722830533981323
v -0.06861903518438339 0.08291461318731308 0.6737573742866516
v -0.07328099012374878 0.08186711370944977 0.6740298867225647
v -0.06920451670885086 0.08520203828811646 0.6695125699043274
v -0.06815182417631149 0.08759915828704834 0.6682194471359253
v -0.07356985658407211 0.08534480631351471 0.6685526371002197
v -0.07028397172689438 0.08352680504322052 0.6709754467010498
v -0.07362109422683716 0.08359626680612564 0.6703740358352661
v -0.04395978897809982 0.07044938206672668 0.7298486232757568
v -0.04478389024734497 0.07892540842294693 0.6896860599517822
v -0.0411812961101532 0.07726836204528809 0.6884602308273315
v -0.039795659482479095 0.07441592961549759 0.6911925673484802
v -0.04374978691339493 0.07480575144290924 0.6925478577613831
v -0.04315370321273804 0.08732877671718597 0.6967832446098328
v -0.045955508947372437 0.08474844694137573 0.6945337057113647
v -0.046310409903526306 0.08171091228723526 0.6982278823852539
v -0.04414334520697594 0.08477140218019485 0.7000794410705566
v -0.038710299879312515 0.08836831897497177 0.6964004635810852
v -0.03959600254893303 0.08557584881782532 0.69926518201828
v -0.04295867308974266 0.08240111917257309 0.7027795314788818
v -0.044768739491701126 0.0781155526638031 0.7020760774612427
v -0.033537399023771286 0.07380467653274536 0.7180593609809875
v -0.030080141499638557 0.07816462218761444 0.7180699706077576
v -0.017619341611862183 0.06675011664628983 0.7113499045372009
v -0.020732935518026352 0.062005721032619476 0.7145723104476929
v -0.025634953752160072 0.0660800188779831 0.7079550623893738
v -0.02238379791378975 0.06996959447860718 0.7070652842521667
v -0.04630998522043228 0.08173080533742905 0.6919539570808411
v -0.04635169357061386 0.07770541310310364 0.6953564286231995
v -0.029899653047323227 0.0762561485171318 0.695060670375824
v -0.03323215991258621 0.0728260800242424 0.6944378018379211
v -0.03560145944356918 0.0739220380783081 0.6909604668617249
v -0.031878501176834106 0.07582928240299225 0.6917895674705505
v -0.02547616884112358 0.062088675796985626 0.7175264358520508
v -0.028908414766192436 0.06337499618530273 0.7213239669799805
v -0.031733591109514236 0.06407380104064941 0.7161726951599121
v -0.0296736191958189 0.06471855193376541 0.7100574970245361
v -0.0353943407535553 0.06744424253702164 0.7175751328468323
v -0.02960660122334957 0.080233633518219 0.6965430974960327
v -0.03254621475934982 0.08388879150152206 0.6993527412414551
v -0.02045328915119171 0.07892131805419922 0.7107593417167664
v -0.0201481431722641 0.07458239048719406 0.7091334462165833
v -0.045070014894008636 0.07405537366867065 0.6994874477386475
v -0.0374087318778038 0.07158403098583221 0.6951053142547607
v -0.041934069246053696 0.07105006277561188 0.6967021226882935
v -0.03837636113166809 0.08532515168190002 0.7007826566696167
v -0.033823490142822266 0.08372959494590759 0.6973603367805481
v -0.031787335872650146 0.08704003691673279 0.6833437085151672
v -0.03088177926838398 0.08127675205469131 0.6914176940917969
v -0.0330006442964077 0.07798802107572556 0.6883342862129211
v -0.03338354080915451 0.08540128171443939 0.6817076206207275
v -0.03106348030269146 0.07956188917160034 0.6941124200820923
v -0.033140625804662704 0.08597493171691895 0.6945478320121765
v -0.04527667909860611 0.08605142682790756 0.6818568110466003
v -0.040776509791612625 0.08367913961410522 0.6808834075927734
v -0.04628322273492813 0.08821535855531693 0.6838410496711731
v -0.025524213910102844 0.0813337191939354 0.7146254181861877
v -0.04253603518009186 0.09295825660228729 0.6879088878631592
v -0.045823730528354645 0.09109003841876984 0.6856491565704346
v -0.03717872500419617 0.07686403393745422 0.6877822279930115
v -0.03662669658660889 0.08395957946777344 0.6810979247093201
v -0.03237639367580414 0.0900442823767662 0.6859414577484131
v -0.03708934411406517 0.09316479414701462 0.6884956955909729
v -0.0317213349044323 0.09279890358448029 0.6823716759681702
v -0.036672815680503845 0.09543849527835846 0.6852189302444458
v -0.04235169291496277 0.09572066366672516 0.6837765574455261
v -0.04506516084074974 0.09344294667243958 0.6825290322303772
v -0.04592449963092804 0.09092995524406433 0.6807535886764526
v -0.03116445057094097 0.08945730328559875 0.6796784400939941
v -0.032894425094127655 0.08732210844755173 0.6781623363494873
v -0.036419034004211426 0.08542874455451965 0.6776667833328247
v -0.030630655586719513 0.0920478105545044 0.6761596202850342
v -0.031479109078645706 0.09651986509561539 0.6775244474411011
v -0.04125954583287239 0.10056820511817932 0.6694556474685669
v -0.04169560223817825 0.09901949763298035 0.6729760766029358
v -0.04065242409706116 0.09959036856889725 0.6733804941177368
v -0.04080725461244583 0.10157988965511322 0.6699314713478088
v -0.0410626046359539 0.09799198806285858 0.6780828237533569
v -0.039665982127189636 0.09865821152925491 0.6772760152816772
v -0.03636329993605614 0.09821473807096481 0.6785476207733154
v -0.03659272938966751 0.10051639378070831 0.6739622950553894
v -0.0318077877163887 0.09876567870378494 0.6723431944847107
v -0.03261317312717438 0.10064953565597534 0.6689684391021729
v -0.03659786656498909 0.10228178650140762 0.6708032488822937
v -0.03253110498189926 0.09808315336704254 0.6767480969429016
v -0.03983966261148453 0.1029944121837616 0.6680492758750916
v -0.040488988161087036 0.10313969850540161 0.6668573021888733
v -0.03665875270962715 0.0978814959526062 0.6802063584327698
v -0.04421444609761238 0.09511502087116241 0.6779442429542542
v -0.04328794777393341 0.09784949570894241 0.67159104347229
v -0.042317718267440796 0.1002109944820404 0.6674888134002686
v -0.040207430720329285 0.10182639956474304 0.6651055812835693
v -0.043660350143909454 0.09531719982624054 0.6712294816970825
v -0.04263129085302353 0.09829743951559067 0.6662496328353882
v -0.0404144711792469 0.09977363049983978 0.6639820337295532
v -0.042685046792030334 0.09235872328281403 0.6703552007675171
v -0.0414990559220314 0.09588275104761124 0.6660680174827576
v -0.04353199899196625 0.08870064467191696 0.6762298345565796
v -0.04468098655343056 0.09197913855314255 0.6771125793457031
v -0.039990272372961044 0.09803097695112228 0.6644768714904785
v -0.03687579929828644 0.10365907102823257 0.666297972202301
v -0.03714054077863693 0.10179164260625839 0.6642049551010132
v -0.03653109818696976 0.10361140221357346 0.667589545249939
v -0.031008940190076828 0.09767601639032364 0.6719704270362854
v -0.031928498297929764 0.09988780319690704 0.6678392887115479
v -0.030717719346284866 0.09523932635784149 0.6708635091781616
v -0.032217808067798615 0.09825611859560013 0.6664808392524719
v -0.03368838503956795 0.10204461961984634 0.6658904552459717
v -0.034187201410532 0.1023380383849144 0.667574405670166
v -0.044559888541698456 0.08773528039455414 0.6785588264465332
v -0.041078947484493256 0.08541321009397507 0.6782011985778809
v -0.040019646286964417 0.08676444739103317 0.6756575107574463
v -0.039529915899038315 0.09033855050802231 0.6697628498077393
v -0.03539491444826126 0.08677597343921661 0.675311803817749
v -0.03217725455760956 0.08913033455610275 0.6755988597869873
v -0.03222152590751648 0.09292897582054138 0.6699666380882263
v -0.0350906066596508 0.09095984697341919 0.6693278551101685
v -0.03345799446105957 0.09672008454799652 0.6654312014579773
v -0.03582172095775604 0.09476596117019653 0.6652250289916992
v -0.03894592821598053 0.09423521161079407 0.6655880808830261
v -0.035550087690353394 0.09912481158971786 0.6638923287391663
v -0.03451898694038391 0.1006246954202652 0.6643304228782654
v -0.037587977945804596 0.09982462972402573 0.6636990308761597
v -0.036676712334156036 0.097518190741539 0.6638626456260681
v -0.03822466358542442 0.09758865088224411 0.664029598236084
v -0.018009338527917862 0.07088087499141693 0.7103183269500732
v -0.03081737831234932 0.052915625274181366 0.7856654524803162
v -0.02924157865345478 0.05328097939491272 0.7805576324462891
v -0.020263556391000748 0.03926639258861542 0.7775153517723083
v -0.023756451904773712 0.044803351163864136 0.7743800282478333
v -0.020039431750774384 0.03597725182771683 0.7837714552879333
v -0.024568215012550354 0.039042048156261444 0.793701708316803
v -0.021123692393302917 0.03670815750956535 0.7897437214851379
v -0.027042463421821594 0.0498453825712204 0.7759268283843994
v -0.030801910907030106 0.0504104346036911 0.7909955382347107
v -0.02820080704987049 0.0446808747947216 0.7950856685638428
v -0.03787965327501297 0.04464784264564514 0.787778913974762
v -0.03501235693693161 0.03853229433298111 0.7919754981994629
v -0.030785376206040382 0.032566554844379425 0.7913470268249512
v -0.024900276213884354 0.03131268918514252 0.7869402170181274
v -0.022431086748838425 0.031696438789367676 0.7824307680130005
v -0.0350903756916523 0.04798293486237526 0.7819353342056274
v -0.032671015709638596 0.04841452091932297 0.7771626710891724
v -0.028249114751815796 0.045764610171318054 0.7733289003372192
v -0.039929114282131195 0.04283818602561951 0.7763239741325378
v -0.04526635631918907 0.03368344530463219 0.7760893106460571
v -0.04196406155824661 0.01432010531425476 0.7732811570167542
v -0.0381794199347496 0.018565140664577484 0.777040421962738
v -0.040894653648138046 0.019701972603797913 0.7770662307739258
v -0.04430728405714035 0.015453621745109558 0.7741096615791321
v -0.037864647805690765 0.022705838084220886 0.7807568311691284
v -0.039887234568595886 0.023262888193130493 0.779502272605896
v -0.04263490438461304 0.027828097343444824 0.7791938781738281
v -0.04564008116722107 0.02379632741212845 0.7759930491447449
v -0.04501761496067047 0.030805502086877823 0.7756569385528564
v -0.04700827598571777 0.028641551733016968 0.7722654938697815
v -0.048845164477825165 0.01998663693666458 0.772957444190979
v -0.04780549183487892 0.014070749282836914 0.7723712921142578
v -0.05120575800538063 0.016606904566287994 0.770116925239563
v -0.045987650752067566 0.012542210519313812 0.7700339555740356
v -0.043771229684352875 0.028489165008068085 0.7816691398620605
v -0.031014908105134964 0.024033766239881516 0.782233715057373
v -0.034384071826934814 0.018665868788957596 0.7762286067008972
v -0.03872443735599518 0.014543555676937103 0.7711203694343567
v -0.04375161975622177 0.013085715472698212 0.7675855755805969
v -0.03130728006362915 0.02020322158932686 0.7729790210723877
v -0.03621982783079147 0.017261184751987457 0.7684258222579956
v -0.040982332080602646 0.016742557287216187 0.7651223540306091
v -0.030586346983909607 0.023724745959043503 0.7692686319351196
v -0.03592038154602051 0.020692717283964157 0.7660117149353027
v -0.02395874261856079 0.03263895586133003 0.7755533456802368
v -0.025364290922880173 0.02713659405708313 0.7797911763191223
v -0.03971794247627258 0.019348233938217163 0.7646328210830688
v -0.05110197141766548 0.015254974365234375 0.7673134803771973
v -0.04848172888159752 0.016080304980278015 0.7646166682243347
v -0.04676318168640137 0.03182273730635643 0.770634651184082
v -0.05041731894016266 0.025118403136730194 0.7694778442382812
v -0.049582164734601974 0.02704760432243347 0.7670649886131287
v -0.04450414702296257 0.03475836664438248 0.7687733173370361
v -0.04796977341175079 0.02826569974422455 0.7649112939834595
v -0.05180591717362404 0.02151937037706375 0.7657694816589355
v -0.05200863629579544 0.021131180226802826 0.7687263488769531
v -0.02157643809914589 0.035514429211616516 0.7770389318466187
v -0.023921746760606766 0.04120916500687599 0.7738586068153381
v -0.02583293244242668 0.0386059433221817 0.7726617455482483
v -0.03259499371051788 0.029766961932182312 0.7664207816123962
v -0.030544321984052658 0.04231589287519455 0.7710933089256287
v -0.036159880459308624 0.043675944209098816 0.7730105519294739
v -0.04135981202125549 0.03544849902391434 0.766633152961731
v -0.036866288632154465 0.03397515416145325 0.7655484080314636
v -0.04453607276082039 0.028344571590423584 0.7633727788925171
v -0.041529081761837006 0.02753680944442749 0.7632591724395752
v -0.03796125575900078 0.02416394278407097 0.7639075517654419
v -0.04601944610476494 0.023104049265384674 0.7625786066055298
v -0.04957003891468048 0.022533491253852844 0.7634726166725159
v -0.04472063481807709 0.01879100501537323 0.763166069984436
v -0.043360453099012375 0.023952126502990723 0.7628371119499207
v -0.04183589667081833 0.021174244582653046 0.7632932662963867
v -0.01596704125404358 0.059937939047813416 0.7173868417739868
v -0.020018327981233597 0.05906602367758751 0.7226897478103638
v -0.012922592461109161 0.0575697161257267 0.723728597164154
v -0.00302756205201149 0.056736454367637634 0.7260584235191345
v 0.007321670651435852 0.05840035155415535 0.7229844927787781
v -0.00495871901512146 0.057689815759658813 0.7324770092964172
v -0.015012845396995544 0.058383263647556305 0.7297606468200684
v -0.025307152420282364 0.060931600630283356 0.7283768653869629
v 0.001481432467699051 0.0595523826777935 0.7405834794044495
f 2 3 1
f 1 3 4
f 5 6 8
f 8 6 7
f 9 4 10
f 10 4 3
f 12 13 11
f 11 13 9
f 14 12 16
f 16 12 15
f 18 19 17
f 17 19 20
f 22 23 21
f 21 23 24
f 26 27 25
f 25 27 28
f 30 31 29
f 29 31 32
f 33 34 36
f 36 34 35
f 37 38 40
f 40 38 39
f 41 42 6
f 6 42 43
f 6 43 7
f 7 43 44
f 45 34 46
f 46 34 33
f 48 49 47
f 47 49 50
f 52 53 51
f 51 53 54
f 56 52 55
f 55 52 51
f 58 59 57
f 57 59 60
f 61 62 4
f 4 62 1
f 64 65 63
f 63 65 66
f 68 69 67
f 67 69 70
f 72 73 71
f 71 73 74
f 76 77 75
f 75 77 78
f 53 79 54
f 54 79 80
f 82 83 81
f 81 83 84
f 85 86 52
f 52 86 53
f 57 60 87
f 87 60 88
f 89 90 43
f 43 90 44
f 43 42 89
f 89 42 91
f 40 39 92
f 92 39 93
f 94 70 64
f 64 70 69
f 13 61 9
f 9 61 4
f 25 28 69
f 69 28 95
f 96 25 68
f 68 25 69
f 98 99 97
f 97 99 100
f 101 102 104
f 104 102 103
f 106 30 105
f 105 30 29
f 51 54 107
f 107 54 108
f 54 80 108
f 108 80 109
f 111 112 110
f 110 112 113
f 115 5 114
f 114 5 116
f 115 41 5
f 5 41 6
f 36 35 111
f 111 35 117
f 35 118 117
f 117 118 119
f 34 120 35
f 35 120 118
f 34 45 120
f 120 45 121
f 125 126 124
f 124 126 127
f 128 129 14
f 14 129 130
f 33 131 46
f 46 131 132
f 133 94 63
f 63 94 64
f 134 135 137
f 137 135 136
f 139 140 138
f 138 140 141
f 77 142 78
f 78 142 143
f 144 145 20
f 20 145 146
f 148 149 147
f 147 149 72
f 151 152 150
f 150 152 153
f 82 101 83
f 83 101 104
f 101 82 155
f 155 82 154
f 156 157 58
f 58 157 59
f 158 68 147
f 147 68 67
f 159 146 15
f 15 146 16
f 68 158 96
f 96 158 160
f 129 66 130
f 130 66 65
f 162 163 161
f 161 163 164
f 166 167 165
f 165 167 168
f 170 171 169
f 169 171 172
f 174 171 173
f 173 171 170
f 176 177 175
f 175 177 178
f 180 181 179
f 179 181 24
f 182 183 21
f 21 183 184
f 81 185 82
f 82 185 154
f 186 187 188
f 188 187 144
f 158 71 160
f 160 71 189
f 190 135 157
f 157 135 59
f 169 172 139
f 139 172 140
f 147 72 158
f 158 72 71
f 192 193 191
f 191 193 194
f 167 166 49
f 49 166 195
f 196 190 50
f 50 190 157
f 197 198 200
f 200 198 199
f 21 24 182
f 182 24 181
f 146 159 20
f 20 159 17
f 182 181 81
f 81 181 185
f 201 185 180
f 180 185 181
f 202 203 83
f 83 203 84
f 205 206 204
f 204 206 85
f 207 22 184
f 184 22 21
f 179 24 208
f 208 24 23
f 208 209 179
f 179 209 205
f 209 210 205
f 205 210 206
f 212 206 211
f 211 206 210
f 179 205 180
f 180 205 204
f 213 176 88
f 88 176 214
f 86 85 212
f 212 85 206
f 193 217 218
f 217 219 218
f 218 219 220
f 219 18 220
f 220 18 17
f 19 221 20
f 20 221 144
f 222 223 225
f 225 223 224
f 175 226 176
f 176 226 214
f 227 87 214
f 214 87 88
f 220 17 228
f 228 17 159
f 134 213 60
f 60 213 88
f 138 229 151
f 151 229 152
f 193 192 210
f 210 192 211
f 230 194 218
f 218 194 193
f 231 232 228
f 228 232 230
f 233 234 91
f 91 234 89
f 235 236 93
f 93 236 92
f 230 232 234
f 234 232 237
f 47 238 48
f 48 238 239
f 240 191 235
f 235 191 236
f 5 8 116
f 116 8 241
f 242 243 189
f 189 243 160
f 244 245 98
f 98 245 99
f 156 246 47
f 47 246 238
f 76 247 77
f 77 247 248
f 250 125 249
f 249 125 124
f 252 253 251
f 251 253 254
f 111 110 36
f 36 110 255
f 256 33 255
f 255 33 36
f 257 258 154
f 154 258 155
f 63 169 133
f 133 169 139
f 66 170 63
f 63 170 169
f 173 170 129
f 129 170 66
f 129 128 173
f 173 128 259
f 128 260 259
f 259 260 261
f 213 134 262
f 262 134 137
f 263 264 186
f 186 264 187
f 112 265 113
f 113 265 266
f 11 267 268
f 234 233 230
f 230 233 194
f 153 269 70
f 70 269 67
f 175 178 165
f 165 178 141
f 150 153 94
f 94 153 70
f 271 221 270
f 270 221 207
f 269 153 272
f 272 153 152
f 121 45 109
f 109 45 108
f 47 50 156
f 156 50 157
f 57 273 58
f 58 273 274
f 145 275 260
f 260 275 261
f 276 149 143
f 143 149 78
f 148 269 75
f 75 269 272
f 207 277 270
f 270 277 278
f 195 196 49
f 49 196 50
f 59 135 60
f 60 135 134
f 83 104 202
f 202 104 279
f 149 148 78
f 78 148 75
f 247 278 248
f 248 278 277
f 183 182 84
f 84 182 81
f 48 239 281
f 281 239 282
f 227 223 283
f 283 223 222
f 223 226 224
f 224 226 168
f 281 282 224
f 224 282 225
f 165 168 175
f 175 168 226
f 264 263 138
f 138 263 229
f 14 16 128
f 128 16 260
f 220 228 218
f 218 228 230
f 87 227 284
f 284 227 283
f 260 16 145
f 145 16 146
f 244 98 258
f 258 98 155
f 58 274 156
f 156 274 246
f 107 285 51
f 51 285 55
f 243 286 160
f 160 286 96
f 234 237 89
f 89 237 90
f 46 132 107
f 107 132 285
f 253 252 249
f 249 252 250
f 286 26 96
f 96 26 25
f 106 105 287
f 287 105 288
f 272 152 289
f 289 152 229
f 138 151 139
f 139 151 133
f 183 290 161
f 161 290 162
f 291 292 277
f 277 292 293
f 151 150 133
f 133 150 94
f 262 275 177
f 177 275 187
f 144 187 145
f 145 187 275
f 273 57 284
f 284 57 87
f 174 136 190
f 190 136 135
f 111 117 112
f 112 117 38
f 117 119 38
f 38 119 123
f 112 38 265
f 265 38 37
f 287 288 254
f 254 288 251
f 228 159 231
f 231 159 15
f 223 227 226
f 226 227 214
f 147 67 148
f 148 67 269
f 224 168 281
f 281 168 167
f 199 163 200
f 200 163 162
f 45 46 108
f 108 46 107
f 281 167 48
f 48 167 49
f 161 164 291
f 291 164 292
f 38 123 39
f 293 294 277
f 277 294 248
f 284 283 296
f 296 283 295
f 284 296 273
f 273 296 297
f 274 273 298
f 298 273 297
f 246 274 299
f 299 274 298
f 283 222 295
f 295 222 300
f 222 225 300
f 300 225 301
f 301 225 302
f 302 225 282
f 303 304 300
f 300 304 295
f 306 307 305
f 305 307 308
f 309 310 308
f 308 310 305
f 308 307 312
f 312 307 311
f 313 314 312
f 312 314 315
f 311 316 312
f 312 316 313
f 317 304 311
f 311 304 316
f 315 309 312
f 312 309 308
f 318 319 321
f 321 319 320
f 319 318 309
f 309 318 310
f 311 307 317
f 317 307 306
f 306 297 317
f 317 297 296
f 306 322 297
f 297 322 298
f 305 323 306
f 306 323 322
f 323 305 324
f 324 305 310
f 304 317 295
f 295 317 296
f 318 325 310
f 310 325 324
f 323 324 326
f 326 324 327
f 324 325 327
f 327 325 328
f 326 327 329
f 329 327 330
f 329 331 326
f 326 331 332
f 333 330 328
f 328 330 327
f 323 326 322
f 322 326 332
f 322 332 298
f 298 332 299
f 325 318 334
f 334 318 321
f 313 316 335
f 335 316 304
f 335 336 313
f 313 336 314
f 304 303 335
f 335 303 337
f 336 335 338
f 338 335 337
f 336 339 314
f 314 339 340
f 246 299 238
f 238 299 341
f 239 342 282
f 282 342 302
f 342 239 341
f 341 239 238
f 341 331 342
f 342 331 343
f 331 329 343
f 343 329 344
f 342 343 302
f 302 343 345
f 341 299 331
f 331 299 332
f 346 301 345
f 345 301 302
f 346 303 301
f 301 303 300
f 347 337 346
f 346 337 303
f 347 346 348
f 348 346 345
f 349 347 350
f 350 347 348
f 343 344 345
f 345 344 348
f 344 351 348
f 348 351 350
f 337 347 338
f 338 347 349
f 353 338 352
f 352 338 349
f 352 355 354
f 354 355 356
f 352 349 355
f 355 349 350
f 352 354 353
f 353 354 334
f 353 334 339
f 339 334 321
f 339 336 353
f 353 336 338
f 329 330 344
f 344 330 351
f 356 351 333
f 333 351 330
f 356 355 351
f 351 355 350
f 354 356 328
f 328 356 333
f 328 325 354
f 354 325 334
f 309 315 319
f 319 315 320
f 320 340 321
f 321 340 339
f 320 315 340
f 340 315 314
f 137 136 261
f 261 136 259
f 140 166 141
f 141 166 165
f 172 171 195
f 195 171 196
f 171 174 196
f 196 174 190
f 178 177 264
f 264 177 187
f 172 195 140
f 140 195 166
f 137 261 262
f 262 261 275
f 178 264 141
f 141 264 138
f 262 177 213
f 213 177 176
f 136 174 259
f 259 174 173
f 358 359 357
f 357 359 360
f 362 363 361
f 361 363 364
f 361 364 365
f 365 364 366
f 367 368 370
f 370 368 369
f 76 371 247
f 247 371 372
f 373 374 362
f 362 374 363
f 376 377 375
f 375 377 378
f 289 229 380
f 380 229 379
f 381 379 263
f 263 379 229
f 383 384 382
f 382 384 385
f 386 368 374
f 374 368 363
f 76 289 371
f 371 289 380
f 377 376 359
f 359 376 387
f 388 386 360
f 360 386 374
f 389 383 366
f 366 383 390
f 392 393 391
f 391 393 394
f 383 382 390
f 390 382 395
f 396 365 390
f 390 365 366
f 389 366 367
f 367 366 364
f 357 397 358
f 358 397 398
f 373 399 357
f 357 399 397
f 389 367 400
f 400 367 370
f 382 385 375
f 375 385 372
f 357 360 373
f 373 360 374
f 361 401 362
f 362 401 402
f 387 388 359
f 359 388 360
f 363 368 364
f 364 368 367
f 358 398 403
f 403 398 404
f 396 392 405
f 405 392 391
f 392 395 393
f 393 395 378
f 393 403 394
f 394 403 404
f 375 378 382
f 382 378 395
f 365 396 406
f 406 396 405
f 362 402 373
f 373 402 399
f 271 270 400
f 400 270 384
f 401 361 406
f 406 361 365
f 381 369 386
f 386 369 368
f 392 396 395
f 395 396 390
f 393 378 403
f 403 378 377
f 403 377 358
f 358 377 359
f 406 405 408
f 408 405 407
f 406 408 401
f 401 408 409
f 401 409 402
f 402 409 410
f 402 410 399
f 399 410 411
f 405 391 407
f 407 391 412
f 391 394 412
f 412 394 413
f 394 404 413
f 413 404 414
f 415 416 412
f 412 416 407
f 418 419 417
f 417 419 420
f 421 422 418
f 418 422 419
f 419 422 424
f 424 422 423
f 425 426 424
f 424 426 427
f 423 428 424
f 424 428 425
f 427 420 424
f 424 420 419
f 420 429 417
f 417 429 430
f 423 422 431
f 431 422 421
f 421 409 431
f 431 409 408
f 421 432 409
f 409 432 410
f 418 433 421
f 421 433 432
f 434 433 417
f 417 433 418
f 431 416 423
f 423 416 428
f 416 431 407
f 407 431 408
f 435 434 430
f 430 434 417
f 433 434 436
f 436 434 437
f 434 435 437
f 437 435 438
f 436 437 439
f 439 437 440
f 439 441 436
f 436 441 442
f 438 443 437
f 437 443 440
f 436 442 433
f 433 442 432
f 432 442 410
f 410 442 411
f 435 430 445
f 445 430 444
f 430 429 444
f 444 429 446
f 425 428 447
f 447 428 416
f 426 425 448
f 448 425 447
f 416 415 447
f 447 415 449
f 447 449 448
f 448 449 450
f 451 452 448
f 448 452 426
f 446 452 444
f 444 452 451
f 399 411 397
f 397 411 453
f 398 454 404
f 404 454 414
f 454 398 453
f 453 398 397
f 453 441 454
f 454 441 455
f 441 439 455
f 455 439 456
f 454 455 414
f 414 455 457
f 441 453 442
f 442 453 411
f 458 413 457
f 457 413 414
f 458 415 413
f 413 415 412
f 458 459 415
f 415 459 449
f 459 458 460
f 460 458 457
f 461 459 462
f 462 459 460
f 455 456 457
f 457 456 460
f 456 463 460
f 460 463 462
f 459 461 449
f 449 461 450
f 465 450 464
f 464 450 461
f 464 467 466
f 466 467 468
f 464 461 467
f 467 461 462
f 464 466 465
f 465 466 445
f 465 445 451
f 451 445 444
f 451 448 465
f 465 448 450
f 439 440 456
f 456 440 463
f 468 463 443
f 443 463 440
f 468 467 463
f 463 467 462
f 466 468 438
f 438 468 443
f 438 435 466
f 466 435 445
f 420 427 429
f 429 427 446
f 446 427 452
f 452 427 426
f 370 369 188
f 188 369 186
f 371 376 372
f 372 376 375
f 380 379 387
f 387 379 388
f 379 381 388
f 388 381 386
f 385 384 278
f 278 384 270
f 380 387 371
f 371 387 376
f 400 370 271
f 271 370 188
f 385 278 372
f 372 278 247
f 400 384 389
f 389 384 383
f 369 381 186
f 186 381 263
f 221 271 144
f 144 271 188
f 221 19 207
f 207 19 22
f 19 18 22
f 22 18 23
f 18 219 23
f 23 219 208
f 469 470 472
f 472 470 471
f 474 475 473
f 473 475 476
f 473 476 477
f 477 476 478
f 480 481 479
f 479 481 482
f 483 484 474
f 474 484 475
f 486 487 485
f 485 487 488
f 489 490 77
f 77 490 142
f 491 489 248
f 248 489 77
f 493 494 492
f 492 494 495
f 496 480 484
f 484 480 475
f 486 497 487
f 487 497 471
f 498 496 472
f 472 496 484
f 499 493 478
f 478 493 500
f 501 502 504
f 504 502 503
f 493 492 500
f 500 492 505
f 506 477 500
f 500 477 478
f 499 478 479
f 479 478 476
f 469 507 470
f 470 507 508
f 483 509 469
f 469 509 507
f 479 482 499
f 499 482 510
f 492 495 485
f 485 495 511
f 483 469 484
f 484 469 472
f 473 512 474
f 474 512 513
f 497 498 471
f 471 498 472
f 475 480 476
f 476 480 479
f 470 508 514
f 514 508 515
f 506 502 516
f 516 502 501
f 503 502 488
f 488 502 505
f 514 515 503
f 503 515 504
f 485 488 492
f 492 488 505
f 477 506 517
f 517 506 516
f 474 513 483
f 483 513 509
f 510 292 494
f 494 292 164
f 512 473 517
f 517 473 477
f 491 481 496
f 496 481 480
f 502 506 505
f 505 506 500
f 503 488 514
f 514 488 487
f 514 487 470
f 470 487 471
f 517 516 519
f 519 516 518
f 517 519 512
f 512 519 520
f 512 520 513
f 513 520 521
f 513 521 509
f 509 521 522
f 516 501 518
f 518 501 523
f 501 504 523
f 523 504 524
f 524 504 525
f 525 504 515
f 526 527 523
f 523 527 518
f 529 530 528
f 528 530 531
f 532 533 529
f 529 533 530
f 530 533 535
f 535 533 534
f 536 537 535
f 535 537 538
f 534 539 535
f 535 539 536
f 538 531 535
f 535 531 530
f 540 541 531
f 531 541 528
f 533 532 534
f 534 532 542
f 532 520 542
f 542 520 519
f 532 543 520
f 520 543 521
f 529 544 532
f 532 544 543
f 544 529 545
f 545 529 528
f 534 542 539
f 539 542 527
f 527 542 518
f 518 542 519
f 541 546 528
f 528 546 545
f 547 544 548
f 548 544 545
f 546 549 545
f 545 549 548
f 550 547 551
f 551 547 548
f 547 550 553
f 553 550 552
f 549 554 548
f 548 554 551
f 544 547 543
f 543 547 553
f 543 553 521
f 521 553 522
f 546 541 556
f 556 541 555
f 541 540 555
f 555 540 557
f 536 539 558
f 558 539 527
f 537 536 559
f 559 536 558
f 527 526 558
f 558 526 560
f 559 558 561
f 561 558 560
f 559 562 537
f 537 562 563
f 557 563 555
f 555 563 562
f 509 522 507
f 507 522 564
f 508 565 515
f 515 565 525
f 565 508 564
f 564 508 507
f 564 552 565
f 565 552 566
f 552 550 566
f 566 550 567
f 565 566 525
f 525 566 568
f 564 522 552
f 552 522 553
f 569 524 568
f 568 524 525
f 569 526 524
f 524 526 523
f 570 560 569
f 569 560 526
f 570 569 571
f 571 569 568
f 572 570 573
f 573 570 571
f 566 567 568
f 568 567 571
f 567 574 571
f 571 574 573
f 570 572 560
f 560 572 561
f 576 561 575
f 575 561 572
f 575 578 577
f 577 578 579
f 575 572 578
f 578 572 573
f 575 577 576
f 576 577 556
f 576 556 562
f 562 556 555
f 562 559 576
f 576 559 561
f 550 551 567
f 567 551 574
f 579 574 554
f 554 574 551
f 579 578 574
f 574 578 573
f 579 554 577
f 577 554 549
f 549 546 577
f 577 546 556
f 531 538 540
f 540 538 557
f 557 538 563
f 563 538 537
f 481 294 482
f 482 294 293
f 580 486 511
f 511 486 485
f 490 489 497
f 497 489 498
f 489 491 498
f 498 491 496
f 163 495 164
f 164 495 494
f 580 490 486
f 486 490 497
f 482 293 510
f 510 293 292
f 495 163 511
f 511 163 199
f 494 493 510
f 510 493 499
f 481 491 294
f 294 491 248
f 582 583 581
f 581 583 584
f 586 587 585
f 585 587 588
f 585 588 589
f 589 588 590
f 592 593 591
f 591 593 594
f 595 596 598
f 598 596 597
f 599 600 586
f 586 600 587
f 601 602 604
f 604 602 603
f 605 606 608
f 608 606 607
f 609 607 200
f 200 607 606
f 610 611 613
f 613 611 612
f 600 614 587
f 587 614 592
f 596 605 597
f 597 605 608
f 602 615 603
f 603 615 583
f 616 614 584
f 584 614 600
f 611 618 617
f 617 618 590
f 620 621 619
f 619 621 622
f 610 623 611
f 611 623 618
f 624 589 618
f 618 589 590
f 617 590 591
f 591 590 588
f 581 625 582
f 582 625 626
f 599 627 581
f 581 627 625
f 591 594 617
f 617 594 628
f 601 610 598
f 598 610 613
f 581 584 599
f 599 584 600
f 585 629 586
f 586 629 630
f 615 616 583
f 583 616 584
f 587 592 588
f 588 592 591
f 582 626 631
f 631 626 632
f 624 620 633
f 633 620 619
f 621 620 604
f 604 620 623
f 631 632 621
f 621 632 622
f 610 601 623
f 623 601 604
f 589 624 634
f 634 624 633
f 586 630 599
f 599 630 627
f 203 202 628
f 628 202 612
f 629 585 634
f 634 585 589
f 609 593 614
f 614 593 592
f 620 624 623
f 623 624 618
f 631 621 603
f 603 621 604
f 582 631 583
f 583 631 603
f 634 633 636
f 636 633 635
f 634 636 629
f 629 636 637
f 629 637 630
f 630 637 638
f 630 638 627
f 627 638 639
f 633 619 635
f 635 619 640
f 619 622 640
f 640 622 641
f 641 622 642
f 642 622 632
f 644 635 643
f 643 635 640
f 645 646 648
f 648 646 647
f 649 650 646
f 646 650 647
f 647 650 652
f 652 650 651
f 652 653 655
f 655 653 654
f 651 656 652
f 652 656 653
f 655 648 652
f 652 648 647
f 648 657 645
f 645 657 658
f 650 649 651
f 651 649 659
f 649 637 659
f 659 637 636
f 649 660 637
f 637 660 638
f 661 660 646
f 646 660 649
f 662 661 645
f 645 661 646
f 651 659 656
f 656 659 644
f 644 659 635
f 635 659 636
f 663 662 658
f 658 662 645
f 664 661 665
f 665 661 662
f 663 666 662
f 662 666 665
f 667 664 668
f 668 664 665
f 664 667 670
f 670 667 669
f 666 671 665
f 665 671 668
f 661 664 660
f 660 664 670
f 660 670 638
f 638 670 639
f 658 672 663
f 663 672 673
f 658 657 672
f 672 657 674
f 653 656 675
f 675 656 644
f 653 675 654
f 654 675 676
f 675 644 677
f 677 644 643
f 676 675 678
f 678 675 677
f 679 680 676
f 676 680 654
f 674 680 672
f 672 680 679
f 627 639 625
f 625 639 681
f 626 682 632
f 632 682 642
f 681 682 625
f 625 682 626
f 669 683 681
f 681 683 682
f 667 684 669
f 669 684 683
f 682 683 642
f 642 683 685
f 681 639 669
f 669 639 670
f 686 641 685
f 685 641 642
f 641 686 640
f 640 686 643
f 686 687 643
f 643 687 677
f 687 686 688
f 688 686 685
f 689 687 690
f 690 687 688
f 683 684 685
f 685 684 688
f 684 691 688
f 688 691 690
f 687 689 677
f 677 689 678
f 693 678 692
f 692 678 689
f 692 695 694
f 694 695 696
f 692 689 695
f 695 689 690
f 692 694 693
f 693 694 673
f 693 673 679
f 679 673 672
f 679 676 693
f 693 676 678
f 684 667 691
f 691 667 668
f 696 691 671
f 671 691 668
f 696 695 691
f 691 695 690
f 694 696 666
f 666 696 671
f 666 663 694
f 694 663 673
f 648 655 657
f 657 655 674
f 674 655 680
f 680 655 654
f 593 162 594
f 594 162 290
f 598 597 601
f 601 597 602
f 615 608 616
f 616 608 607
f 607 609 616
f 616 609 614
f 697 595 613
f 613 595 598
f 597 608 602
f 602 608 615
f 594 290 628
f 628 290 203
f 628 612 617
f 617 612 611
f 593 609 162
f 162 609 200
f 105 29 698
f 698 29 699
f 268 126 701
f 701 126 700
f 126 125 700
f 700 125 702
f 252 703 250
f 250 703 704
f 32 268 705
f 705 268 701
f 288 105 706
f 706 105 698
f 29 32 699
f 699 32 705
f 707 251 706
f 706 251 288
f 250 704 125
f 125 704 702
f 703 252 707
f 707 252 251
f 706 708 707
f 707 708 709
f 707 709 703
f 703 709 710
f 703 710 704
f 704 710 711
f 704 711 702
f 702 711 712
f 706 698 708
f 708 698 713
f 698 699 713
f 713 699 714
f 699 705 714
f 714 705 715
f 717 708 716
f 716 708 713
f 719 720 718
f 718 720 721
f 722 723 719
f 719 723 720
f 724 725 723
f 723 725 720
f 724 726 725
f 725 726 727
f 728 721 725
f 725 721 720
f 721 728 729
f 729 728 730
f 729 731 721
f 721 731 718
f 724 723 732
f 732 723 722
f 722 710 732
f 732 710 709
f 722 733 710
f 710 733 711
f 719 734 722
f 722 734 733
f 734 719 735
f 735 719 718
f 724 732 726
f 726 732 717
f 717 732 708
f 708 732 709
f 731 736 718
f 718 736 735
f 737 734 738
f 738 734 735
f 736 739 735
f 735 739 738
f 740 737 741
f 741 737 738
f 737 740 743
f 743 740 742
f 739 744 738
f 738 744 741
f 734 737 733
f 733 737 743
f 733 743 711
f 711 743 712
f 736 731 746
f 746 731 745
f 731 729 745
f 745 729 730
f 727 726 747
f 747 726 717
f 748 727 749
f 749 727 747
f 747 717 750
f 750 717 716
f 749 747 751
f 751 747 750
f 749 752 748
f 748 752 753
f 730 753 745
f 745 753 752
f 728 725 748
f 748 725 727
f 730 728 753
f 753 728 748
f 700 702 754
f 754 702 712
f 705 701 715
f 715 701 755
f 754 755 700
f 700 755 701
f 742 756 754
f 754 756 755
f 740 757 742
f 742 757 756
f 755 756 715
f 715 756 758
f 754 712 742
f 742 712 743
f 759 714 758
f 758 714 715
f 714 759 713
f 713 759 716
f 759 760 716
f 716 760 750
f 760 759 761
f 761 759 758
f 762 760 763
f 763 760 761
f 756 757 758
f 758 757 761
f 757 764 761
f 761 764 763
f 760 762 750
f 750 762 751
f 766 751 765
f 765 751 762
f 767 765 769
f 769 765 768
f 765 762 768
f 768 762 763
f 765 767 766
f 766 767 746
f 766 746 752
f 752 746 745
f 752 749 766
f 766 749 751
f 757 740 764
f 764 740 741
f 769 764 744
f 744 764 741
f 769 768 764
f 764 768 763
f 767 769 739
f 739 769 744
f 739 736 767
f 767 736 746
f 219 217 208
f 208 217 209
f 209 217 210
f 210 217 193
f 198 580 199
f 199 580 511
f 76 75 289
f 289 75 272
f 277 207 291
f 291 207 184
f 290 183 203
f 203 183 84
f 490 580 142
f 142 580 198
f 142 198 143
f 143 198 197
f 149 276 72
f 72 276 73
f 104 103 279
f 279 103 770
f 770 596 279
f 279 596 595
f 605 596 771
f 771 596 770
f 771 770 772
f 772 770 103
f 772 103 773
f 773 103 102
f 155 774 101
f 101 774 102
f 773 102 97
f 97 102 774
f 775 773 100
f 100 773 97
f 773 775 772
f 772 775 776
f 772 776 771
f 771 776 777
f 200 606 197
f 197 606 777
f 189 71 778
f 778 71 74
f 97 774 98
f 98 774 155
f 183 161 184
f 184 161 291
f 777 276 197
f 197 276 143
f 777 606 771
f 771 606 605
f 613 612 697
f 697 612 202
f 595 697 279
f 279 697 202
f 73 276 776
f 776 276 777
f 776 775 73
f 73 775 74
f 100 778 775
f 775 778 74
f 778 100 189
f 189 100 99
f 245 242 99
f 99 242 189
f 131 33 256
f 28 1 95
f 95 1 62
f 27 2 28
f 28 2 1
f 265 115 266
f 266 115 114
f 95 62 69
f 69 62 64
f 62 61 64
f 64 61 65
f 61 13 65
f 65 13 130
f 13 12 130
f 130 12 14
f 31 11 32
f 32 11 268
f 15 12 31
f 31 12 11
f 31 30 15
f 15 30 231
f 30 106 231
f 231 106 232
f 287 237 106
f 106 237 232
f 254 90 287
f 287 90 237
f 253 44 254
f 254 44 90
f 253 249 44
f 44 249 7
f 267 127 268
f 268 127 126
f 10 3 241
f 241 3 116
f 3 2 116
f 116 2 114
f 2 27 114
f 114 27 266
f 27 26 266
f 266 26 113
f 26 286 113
f 113 286 110
f 286 243 110
f 110 243 255
f 243 242 255
f 255 242 256
f 242 245 256
f 256 245 131
f 245 244 131
f 131 244 132
f 265 37 115
f 115 37 41
f 41 37 42
f 42 37 40
f 92 91 40
f 40 91 42
f 236 233 92
f 92 233 91
f 191 194 236
f 236 194 233
f 258 285 244
f 244 285 132
f 257 55 258
f 258 55 285
f 257 154 201
f 201 154 185
f 56 201 204
f 204 201 180
f 55 257 56
f 56 257 201
f 204 85 56
f 56 85 52
f 86 122 53
f 53 122 79
f 212 215 86
f 86 215 122
f 211 216 212
f 212 216 215
f 192 280 211
f 211 280 216
f 191 240 192
f 192 240 280
f 249 124 7
f 7 124 8
f 124 127 8
f 8 127 241
f 127 267 241
f 241 267 10
f 10 267 9
f 9 267 11
