v -0.005530230700969696 0.07051201164722443 0.8908919095993042
v 0.0075594522058963776 0.06644375622272491 0.8902184367179871
v 0.0010587163269519806 0.06137613207101822 0.8947318196296692
v -0.01043928787112236 0.0662931576371193 0.8961739540100098
v 0.017061863094568253 0.05777209624648094 0.9079045653343201
v 0.01958300545811653 0.06295540928840637 0.9181572794914246
v 0.0034169405698776245 0.05957880616188049 0.9177088737487793
v 0.005195043981075287 0.05517835542559624 0.9081889390945435
v -0.015323054045438766 0.06564456224441528 0.8992149829864502
v -0.005606282502412796 0.059020642191171646 0.8973791003227234
v -0.017529312521219254 0.0701356902718544 0.8989471793174744
v -0.025752268731594086 0.07995640486478806 0.905082106590271
v -0.0246675256639719 0.07365219295024872 0.9037057757377625
v -0.033075347542762756 0.0845727026462555 0.9067108631134033
v -0.02038489282131195 0.0896303653717041 0.9059886932373047
v -0.03119947947561741 0.09308598190546036 0.9031795263290405
v -0.01199360191822052 0.10485212504863739 0.8883956670761108
v -0.008586492389440536 0.10585782676935196 0.8761917948722839
v -0.02474423497915268 0.10450655221939087 0.8746183514595032
v -0.02625935897231102 0.10253218561410904 0.8874699473381042
v -0.014778323471546173 0.10148648172616959 0.8570897579193115
v -0.02145180106163025 0.10338117182254791 0.8665258288383484
v -0.004820525646209717 0.1056041419506073 0.8682469725608826
v 0.0003728717565536499 0.10347934812307358 0.8597862124443054
v 0.0013729631900787354 0.0752740427851677 0.8796495795249939
v 0.012988749891519547 0.07352679967880249 0.8787921667098999
v 0.011799108237028122 0.07191258668899536 0.8831332325935364
v -0.00015855208039283752 0.07416480034589767 0.8840504884719849
v -0.02085329219698906 0.07020847499370575 0.9030851721763611
v -0.01411723718047142 0.08066865801811218 0.909031867980957
v -0.01768934354186058 0.07733036577701569 0.903618574142456
v -0.01978280022740364 0.06648164987564087 0.8992637395858765
v 0.03823358938097954 0.06713348627090454 0.8706640601158142
v 0.05007965490221977 0.07298541069030762 0.872931957244873
v 0.04943781718611717 0.0735093280673027 0.8788842558860779
v 0.03888750448822975 0.06841161847114563 0.8756532669067383
v 0.0408506877720356 0.06977436691522598 0.9041022062301636
v 0.04835182800889015 0.0759858563542366 0.898315966129303
v 0.05209788307547569 0.08493876457214355 0.9071192741394043
v 0.042641494423151016 0.08230388164520264 0.9117985367774963
v 0.030859623104333878 0.06473063677549362 0.9129392504692078
v 0.032268423587083817 0.0758010596036911 0.9186757802963257
v 0.017322074621915817 0.07301503419876099 0.9237364530563354
v -0.0005975328385829926 0.06655366718769073 0.9228079319000244
v 0.051525551825761795 0.07492780685424805 0.860382616519928
v 0.04318465664982796 0.07039224356412888 0.8568997979164124
v -0.08033472299575806 0.10628752410411835 0.8967154026031494
v -0.08041837066411972 0.10584825277328491 0.8909611105918884
v -0.07710426300764084 0.10009558498859406 0.8928219676017761
v -0.07732295244932175 0.10184551775455475 0.8980944156646729
v 0.044835109263658524 0.08912455290555954 0.8479324579238892
v 0.04339255765080452 0.09904550015926361 0.8488261699676514
v 0.05054634436964989 0.09798282384872437 0.8486067056655884
v 0.052113767713308334 0.08879804611206055 0.8496469855308533
v 0.0351741798222065 0.0894203931093216 0.8457974195480347
v 0.03337372466921806 0.09988142549991608 0.8496535420417786
v -0.07149207592010498 0.11427588760852814 0.8996636271476746
v -0.07551983743906021 0.11165659129619598 0.9012592434883118
v -0.07174664735794067 0.10843384265899658 0.9022492170333862
v -0.06763282418251038 0.11080232262611389 0.8997007012367249
v -0.021364260464906693 0.0709567666053772 0.8998532295227051
v -0.016563348472118378 0.07173126935958862 0.8928203582763672
v -0.04461889714002609 0.07526110112667084 0.9003545641899109
v -0.031476810574531555 0.07372075319290161 0.8961309790611267
v -0.03182517737150192 0.07414375990629196 0.9030131697654724
v -0.042148247361183167 0.07718819379806519 0.9059215188026428
v -0.02119593694806099 0.0761999636888504 0.8747648000717163
v -0.009508930146694183 0.07645212858915329 0.8760088682174683
v -0.012426003813743591 0.07619139552116394 0.8816630840301514
v -0.025657610967755318 0.07524374127388 0.8821403980255127
v -0.0051405169069767 0.07369309663772583 0.8628842830657959
v -0.016975313425064087 0.07412140816450119 0.8627097010612488
v -0.013218291103839874 0.07241050899028778 0.8552655577659607
v -0.005387809127569199 0.07152274250984192 0.8567334413528442
v -0.03834362328052521 0.07564932107925415 0.8657147288322449
v -0.046086184680461884 0.0780014917254448 0.8650022149085999
v -0.04517735540866852 0.07667309790849686 0.8610575795173645
v -0.03665988892316818 0.07609593868255615 0.8623988032341003
v 0.057588133960962296 0.09801099449396133 0.8488568067550659
v 0.058878105133771896 0.0888821929693222 0.8521808385848999
v -0.004806458950042725 0.09378274530172348 0.8397799730300903
v 0.0015132538974285126 0.086070716381073 0.8349817395210266
v -0.010547306388616562 0.08388770371675491 0.83094722032547
v -0.013767454773187637 0.09280027449131012 0.8372280597686768
v 0.040241096168756485 0.10664758086204529 0.8551151156425476
v 0.04771137610077858 0.10663743317127228 0.8528299927711487
v -0.06824152171611786 0.11605770885944366 0.8946893811225891
v -0.06508556008338928 0.11237519979476929 0.8943296074867249
v 0.017062459141016006 0.08472035080194473 0.9216281175613403
v -0.002965036779642105 0.0756879672408104 0.9222294688224792
v 0.03245236352086067 0.08976615965366364 0.9167467355728149
v 0.04218464717268944 0.09399516135454178 0.9113818407058716
v 0.050976213067770004 0.09643977135419846 0.9091455340385437
v -0.03549014776945114 0.0734812468290329 0.8904287815093994
v -0.010400835424661636 0.07420279085636139 0.8867018818855286
v 0.0028759315609931946 0.07516428828239441 0.8751722574234009
v 0.007700689136981964 0.06742053478956223 0.8460361957550049
v 0.018175039440393448 0.0670899748802185 0.84773188829422
v 0.012479592114686966 0.06690610945224762 0.8566821217536926
v 0.004478968679904938 0.06789734959602356 0.853283703327179
v 0.002191346138715744 0.07630667090415955 0.8340269327163696
v -0.0006202049553394318 0.07033535093069077 0.8384020328521729
v -0.010052196681499481 0.0703994557261467 0.8364652395248413
v -0.008606798946857452 0.0754665732383728 0.8315901160240173
v -0.0218091681599617 0.07133353501558304 0.9099135994911194
v -0.010245028883218765 0.0829896479845047 0.9139540195465088
v 0.04559357091784477 0.07903780043125153 0.8507006168365479
v 0.05224635824561119 0.07994453608989716 0.8545113801956177
v 0.05987918749451637 0.08268138766288757 0.8567362427711487
v 0.026089537888765335 0.06943362951278687 0.876554548740387
v 0.039452459663152695 0.06909340620040894 0.8794371485710144
v 0.03871166333556175 0.06839773803949356 0.8847928047180176
v 0.02610565349459648 0.06975602358579636 0.8798114061355591
v 0.019817207008600235 0.061468660831451416 0.8941928744316101
v 0.029571842402219772 0.06123215705156326 0.9009608030319214
v 0.010298911482095718 0.056614577770233154 0.8979582190513611
v 0.05022171512246132 0.07451076060533524 0.8874885439872742
v 0.05914035812020302 0.07568653672933578 0.880744218826294
v 0.05861469730734825 0.07739344984292984 0.8896033763885498
v 0.06007901206612587 0.07642253488302231 0.8710303902626038
v 0.060372818261384964 0.07859102636575699 0.8624135255813599
v 0.05552155151963234 0.10950437188148499 0.8512378931045532
v 0.05699682608246803 0.08044708520174026 0.8973922729492188
v -0.0031787604093551636 0.05369965359568596 0.9067518711090088
v -0.010746743530035019 0.05121171474456787 0.9048042893409729
v -0.012228898704051971 0.05468977242708206 0.8977009057998657
v -0.005044091492891312 0.056151166558265686 0.8983972668647766
v -0.04181571677327156 0.09002078324556351 0.9070737957954407
v -0.043028224259614944 0.08265096694231033 0.9083397388458252
v -0.03165320307016373 0.07781504839658737 0.9074702262878418
v 0.02861395850777626 0.066057488322258 0.8642575144767761
v 0.033358264714479446 0.06857548654079437 0.8529250621795654
v -0.04809228703379631 0.07654117047786713 0.894399881362915
v -0.06367131322622299 0.11053432524204254 0.8992725014686584
v -0.0669645220041275 0.1072024255990982 0.9026963710784912
v -0.05351979658007622 0.0995342880487442 0.9051629304885864
v -0.05127616226673126 0.1039971187710762 0.9010946750640869
v -0.055061984807252884 0.08530132472515106 0.8886606097221375
v -0.053783901035785675 0.08176366239786148 0.893733561038971
v -0.05651715025305748 0.08576444536447525 0.8926510810852051
v -0.05771646276116371 0.08929247409105301 0.8875569701194763
v -0.03842044621706009 0.07564221322536469 0.855310320854187
v -0.03165376931428909 0.07520429790019989 0.8558506965637207
v -0.0411420539021492 0.0974624752998352 0.8859382271766663
v -0.037133216857910156 0.09897035360336304 0.897419273853302
v -0.02769157849252224 0.09998120367527008 0.8962918519973755
v -0.018009748309850693 0.07547374814748764 0.8680582046508789
v -0.028495553880929947 0.07510983943939209 0.8662101626396179
v -0.02715829201042652 0.07494592666625977 0.8623400926589966
v -0.03896276652812958 0.0744858831167221 0.8869197964668274
v -0.04867234826087952 0.07724655419588089 0.8883667588233948
v -0.04387181997299194 0.07644243538379669 0.8834686279296875
v -0.03517511487007141 0.07539058476686478 0.8819488883018494
v 0.01391652598977089 0.08842269331216812 0.8382701873779297
v 0.014873567968606949 0.07693591713905334 0.8367472887039185
v -0.07860143482685089 0.10856886208057404 0.9003642201423645
v -0.07510293275117874 0.10471873730421066 0.9015933275222778
v -0.0066434890031814575 0.07569997757673264 0.8694285154342651
v -0.014741457998752594 0.10079433023929596 0.896486759185791
v 0.004668831825256348 0.07439091801643372 0.8701493740081787
v -0.030608579516410828 0.09235043823719025 0.8462225198745728
v -0.030493658035993576 0.08604729175567627 0.8437877297401428
v -0.03528611361980438 0.08373187482357025 0.8445315957069397
v -0.037449441850185394 0.08891589939594269 0.8447583913803101
v -0.06848248094320297 0.09978283941745758 0.8839184045791626
v -0.07181241363286972 0.09715308994054794 0.887904703617096
v -0.07549630105495453 0.10061456263065338 0.8866593837738037
v -0.07188243418931961 0.10314422845840454 0.8831411004066467
v -0.05278496444225311 0.08161619305610657 0.8995329737663269
v -0.05065324157476425 0.08314135670661926 0.9054701924324036
v -0.0569084994494915 0.08822882920503616 0.9031573534011841
v -0.05730748921632767 0.08649150282144547 0.8976746797561646
v -0.05005114898085594 0.08944587409496307 0.9075019955635071
v -0.0553901344537735 0.09363055974245071 0.9058977365493774
v -0.06402218341827393 0.10472908616065979 0.8838993906974792
v -0.060265906155109406 0.11006112396717072 0.8881750106811523
v -0.05098731070756912 0.10277784615755081 0.8885564208030701
v -0.05595484375953674 0.09683376550674438 0.8862274289131165
v 0.014739785343408585 0.10658729076385498 0.8623288869857788
v 0.01850118860602379 0.102725550532341 0.852715790271759
v 0.004295807331800461 0.09957879781723022 0.8498805165290833
v -0.009491384029388428 0.09743710607290268 0.8465167284011841
v -0.02245684154331684 0.09465861320495605 0.8444262146949768
v -0.02771386131644249 0.10082235932350159 0.8539223074913025
v 0.008342813700437546 0.09640757739543915 0.8436813950538635
v -0.052880458533763885 0.08999297022819519 0.8838613629341125
v -0.046180807054042816 0.09629067778587341 0.8896842002868652
v -0.04878877475857735 0.09491200745105743 0.8845514059066772
v 0.006248701363801956 0.07167334109544754 0.8634535074234009
v -0.06979940086603165 0.10330846160650253 0.9029161930084229
v 0.04038257524371147 0.11047777533531189 0.8973222970962524
v 0.04077640548348427 0.11426181346178055 0.8847518563270569
v 0.03235192969441414 0.11227470636367798 0.8863663077354431
v 0.031488824635744095 0.10754022002220154 0.8999620079994202
v -0.07310905307531357 0.09629711508750916 0.8945754766464233
v -0.07266281545162201 0.09876497834920883 0.9001415967941284
v -0.030541658401489258 0.07447072118520737 0.8494486212730408
v -0.035922542214393616 0.07570700347423553 0.8502814173698425
v -0.03552388399839401 0.07755933701992035 0.8467632532119751
v -0.031569696962833405 0.07507400959730148 0.8448225259780884
v 0.021748986095190048 0.10017485916614532 0.8485451936721802
v -0.01876239851117134 0.0817781463265419 0.829015851020813
v -0.020152520388364792 0.09024643152952194 0.8339855074882507
v 0.030853990465402603 0.10557487607002258 0.8555809855461121
v 0.027670245617628098 0.10952386260032654 0.8638430237770081
v 0.03713700547814369 0.11151999980211258 0.8643398880958557
v -0.038079969584941864 0.09902174770832062 0.8652851581573486
v 0.010078009217977524 0.10811686515808105 0.8694173693656921
v 0.024218600243330002 0.11048146337270737 0.8705623149871826
v 0.03540436550974846 0.11286856234073639 0.8714690208435059
v 0.04341202601790428 0.11510799825191498 0.8713748455047607
v 0.04454116150736809 0.11319606006145477 0.8635791540145874
v -0.06128823757171631 0.1112360805273056 0.8933943510055542
v -0.0639243945479393 0.11167629808187485 0.888254702091217
v 0.052818167954683304 0.11658428609371185 0.8621491193771362
v 0.05131502076983452 0.11796362698078156 0.8711555004119873
v 0.021073687821626663 0.11070720851421356 0.8792048096656799
v 0.017551239579916 0.10973604023456573 0.8892844915390015
v 0.007538538426160812 0.10825727134943008 0.87766432762146
v 0.0030163079500198364 0.10714591294527054 0.8876198530197144
v -0.0361461415886879 0.10333044081926346 0.8753209114074707
v -0.07524341344833374 0.12282028049230576 0.8839623332023621
v -0.06961985677480698 0.1132214218378067 0.8839496970176697
v -0.07405680418014526 0.10962167382240295 0.8824491500854492
v -0.07765151560306549 0.11993393301963806 0.8815561532974243
v -0.06741359829902649 0.10724951326847076 0.8837639093399048
v -0.06686143577098846 0.1155780702829361 0.8884994983673096
v -0.0001108609139919281 0.10201874375343323 0.898565411567688
v -0.05287020653486252 0.08029013127088547 0.8829822540283203
v 0.015187006443738937 0.10251574218273163 0.9027993679046631
v -0.008876264095306396 0.09399367868900299 0.9078646898269653
v 0.001875750720500946 0.09293647855520248 0.9114815592765808
v 0.03063828870654106 0.10137535631656647 0.9099248051643372
v 0.01580515131354332 0.09463433921337128 0.9156914949417114
v 0.04892464354634285 0.10562755167484283 0.9047713279724121
v 0.03981662914156914 0.1040293425321579 0.9063869714736938
v 0.0006445646286010742 0.08614861965179443 0.9182105660438538
v -0.08650748431682587 0.11423849314451218 0.8907316327095032
v -0.08469145745038986 0.11348515748977661 0.8854992389678955
v 0.04848529025912285 0.1127929836511612 0.8964006304740906
v 0.0014642253518104553 0.0555751696228981 0.8988409042358398
v 0.016540247946977615 0.06979313492774963 0.8667358160018921
v 0.015040773898363113 0.07194042950868607 0.871562123298645
v 0.024298597127199173 0.06743992865085602 0.8494943976402283
v 0.019587356597185135 0.06660839915275574 0.8601539731025696
v -0.08564439415931702 0.1164645180106163 0.8953279256820679
v -0.04898770898580551 0.08290112018585205 0.8628510236740112
v -0.04800667613744736 0.08071433752775192 0.8607715368270874
v -0.004862431436777115 0.05522444471716881 0.9155135154724121
v -0.011395450681447983 0.051873158663511276 0.9125528335571289
v -0.01996370032429695 0.06086087226867676 0.9170878529548645
v -0.015865039080381393 0.05501929298043251 0.9171980619430542
v -0.009030558168888092 0.06065414845943451 0.9204297065734863
v -0.012684736400842667 0.06742604076862335 0.9200947284698486
v 0.025849003344774246 0.0687980204820633 0.8738292455673218
v 0.02605576440691948 0.06787186115980148 0.8699521422386169
v 0.025301266461610794 0.08876334130764008 0.8419827818870544
v 0.02550867572426796 0.0773157998919487 0.8407648205757141
v -0.04788108170032501 0.0949571430683136 0.906073272228241
v -0.03993791341781616 0.09608913213014603 0.9036048650741577
v -0.04551459848880768 0.09981076419353485 0.9018451571464539
v -0.0488872267305851 0.10474961996078491 0.8949875831604004
v -0.05579449608922005 0.08578366041183472 0.8823911547660828
v -0.05250701680779457 0.09078804403543472 0.8873308897018433
v 0.03461175039410591 0.06491609662771225 0.8916233777999878
v 0.024470914155244827 0.06708163768053055 0.8861565589904785
v -0.010062407702207565 0.060055844485759735 0.8968052268028259
v -0.015959415584802628 0.06032732501626015 0.8956094980239868
v -0.03053014911711216 0.07555222511291504 0.8751266002655029
v -0.04615272581577301 0.09786798059940338 0.86663419008255
v -0.04586774855852127 0.10204318910837173 0.8744809627532959
v -0.04041428118944168 0.07631713151931763 0.8750576972961426
v -0.08032815158367157 0.12279558181762695 0.8963729739189148
v -0.08393236994743347 0.11925046890974045 0.8968511819839478
v -0.044131726026535034 0.10079531371593475 0.8961421251296997
v -0.023777613416314125 0.07284507155418396 0.8549961447715759
v -0.044052284210920334 0.0930359736084938 0.8608777523040771
v -0.04757886752486229 0.09087111055850983 0.8632233738899231
v -0.015404000878334045 0.07441846281290054 0.8306123614311218
v 0.049412067979574203 0.11628979444503784 0.8843414187431335
v -0.07843881845474243 0.10719215869903564 0.8848581910133362
v -0.08168300986289978 0.11475363373756409 0.881744921207428
v -0.07361368089914322 0.12461856007575989 0.8874785304069519
v -0.07489905506372452 0.12462441623210907 0.8929654955863953
v 0.034853722900152206 0.07734162360429764 0.8461167216300964
v 0.013780612498521805 0.07312293350696564 0.8746461868286133
v -0.012057989835739136 0.07756258547306061 0.9171048998832703
v -0.021890360862016678 0.06754801422357559 0.9137943983078003
v -0.04779559001326561 0.07784776389598846 0.8744359612464905
v -0.0255642868578434 0.09069908410310745 0.8404869437217712
v -0.0365673303604126 0.09680375456809998 0.8517821431159973
v -0.044513531029224396 0.09231772273778915 0.8480820655822754
v -0.050330329686403275 0.08927527815103531 0.8521533012390137
v -0.05227129906415939 0.08325712382793427 0.8554391860961914
v -0.07663707435131073 0.1274971067905426 0.8852567076683044
v -0.07894589751958847 0.12884275615215302 0.8904383182525635
v -0.08418858796358109 0.12814822793006897 0.8923813700675964
v -0.08786933124065399 0.12436997145414352 0.8929476737976074
v -0.08875715732574463 0.11957952380180359 0.8919216394424438
v -0.078077532351017 0.12537674605846405 0.88187175989151
v -0.07992790639400482 0.12260289490222931 0.8800849318504333
v -0.0832662284374237 0.11709491163492203 0.8810746669769287
v -0.0786767303943634 0.12713773548603058 0.878713071346283
v -0.07867737114429474 0.13150537014007568 0.8804888725280762
v -0.08941001445055008 0.13730040192604065 0.8829028606414795
v -0.08577945083379745 0.1346631497144699 0.8863182663917542
v -0.0852343812584877 0.13602790236473083 0.8843218088150024
v -0.08732284605503082 0.1389390230178833 0.8812087774276733
v -0.08803535997867584 0.14218533039093018 0.877593457698822
v -0.0909295380115509 0.14063946902751923 0.8790057897567749
v -0.0814763754606247 0.13379758596420288 0.883812427520752
v -0.08353748172521591 0.13773787021636963 0.8794147372245789
v -0.08101194351911545 0.13597580790519714 0.8765876293182373
v -0.0820041224360466 0.1399911642074585 0.8734019994735718
v -0.08435273170471191 0.14192822575569153 0.8758826851844788
v -0.07987088710069656 0.1335219442844391 0.8799249529838562
v -0.08085857331752777 0.13293850421905518 0.8850945830345154
v -0.09019233286380768 0.14257599413394928 0.8751452565193176
v -0.0879509225487709 0.14374200999736786 0.8753198981285095
v -0.08523335307836533 0.1432708501815796 0.8735409379005432
v -0.08716176450252533 0.14303018152713776 0.8712745308876038
v -0.08925123512744904 0.129665806889534 0.8887929320335388
v -0.09122373908758163 0.1356019824743271 0.8827478885650635
v -0.09209252893924713 0.13815276324748993 0.877649188041687
v -0.09124395251274109 0.1402989625930786 0.8739250302314758
v -0.09233353286981583 0.1329769790172577 0.8800521492958069
v -0.09211348742246628 0.13573655486106873 0.8760736584663391
v -0.09129387140274048 0.1373036801815033 0.8725272417068481
v -0.09184607118368149 0.13040778040885925 0.8768286108970642
v -0.09140041470527649 0.13365338742733002 0.8738592863082886
v -0.09030351042747498 0.12066096812486649 0.8860838413238525
v -0.09032342582941055 0.12406452745199203 0.8887084126472473
v -0.0913209468126297 0.13531634211540222 0.8718141913414001
v -0.0878150463104248 0.14116470515727997 0.8702520132064819
v -0.07988332957029343 0.13281476497650146 0.8752720355987549
v -0.08208897709846497 0.13740481436252594 0.8711966276168823
v -0.0803692489862442 0.13107237219810486 0.8740919828414917
v -0.08230335265398026 0.1354246586561203 0.869728147983551
v -0.08336141705513 0.14080502092838287 0.8693177700042725
v -0.0833122581243515 0.14175589382648468 0.8717838525772095
v -0.08787395060062408 0.11602070182561874 0.8885972499847412
v -0.0855918824672699 0.11524277925491333 0.8839145302772522
v -0.08713081479072571 0.11876602470874786 0.8817297220230103
v -0.08929779380559921 0.12831656634807587 0.8736495971679688
v -0.08406301587820053 0.1197865903377533 0.8786892294883728
v -0.08032466471195221 0.12494882196187973 0.8768067359924316
v -0.08194109797477722 0.1297973096370697 0.8724154233932495
v -0.08477538079023361 0.12834110856056213 0.8718777298927307
v -0.0837494283914566 0.13333824276924133 0.8695064783096313
v -0.08601970225572586 0.13216567039489746 0.8699914813041687
v -0.08939884603023529 0.13213786482810974 0.8713375329971313
v -0.08597122132778168 0.13623939454555511 0.8683450222015381
v -0.08430728316307068 0.138787642121315 0.868442714214325
v -0.0888526663184166 0.1379832923412323 0.8696689605712891
v -0.08688405156135559 0.1344909369945526 0.8689631223678589
v -0.08921720087528229 0.1354028433561325 0.8703563213348389
v -0.08316035568714142 0.08855602890253067 0.8519300222396851
v -0.07848530262708664 0.08946092426776886 0.8483196496963501
v -0.07523681223392487 0.08619043976068497 0.85383141040802
v -0.07898645102977753 0.0861748605966568 0.85733962059021
v -0.08368584513664246 0.0998983234167099 0.8598850965499878
v -0.08617508411407471 0.09445870667695999 0.8581974506378174
v -0.08200466632843018 0.09404473751783371 0.8637349605560303
v -0.07842791825532913 0.10013002902269363 0.8638567924499512
v -0.07813768088817596 0.10339315235614777 0.857958197593689
v -0.07285580039024353 0.10250432044267654 0.8608211874961853
v -0.07500512897968292 0.10200322419404984 0.8661469221115112
v -0.0774214118719101 0.09539836645126343 0.8675395250320435
v -0.0595175139605999 0.09245438128709793 0.878480851650238
v -0.058341000229120255 0.09938494861125946 0.8766684532165527
v -0.052653197199106216 0.08162413537502289 0.8657096028327942
v -0.052450694143772125 0.08498408645391464 0.8635090589523315
v -0.08534638583660126 0.090554378926754 0.8548620343208313
v -0.0813804417848587 0.08938402682542801 0.8609896898269653
v -0.06702874600887299 0.08949302136898041 0.8514032363891602
v -0.06993182003498077 0.08580439537763596 0.8541537523269653
v -0.07199940085411072 0.08768485486507416 0.8504173755645752
v -0.06911511719226837 0.09162788838148117 0.8492619395256042
v -0.057510264217853546 0.08370707929134369 0.8765840530395508
v -0.054195523262023926 0.08165299892425537 0.8716248273849487
v -0.059234507381916046 0.08743299543857574 0.8777505159378052
v -0.06561397016048431 0.09583992511034012 0.8517521619796753
v -0.06621421128511429 0.10204840451478958 0.8545873165130615
v -0.05236678570508957 0.10028856992721558 0.8640757203102112
v -0.051851801574230194 0.09389949589967728 0.8615462183952332
v -0.07777397334575653 0.09001172333955765 0.8659449815750122
v -0.07339010387659073 0.08474680781364441 0.8584277629852295
v -0.07618261873722076 0.08572319895029068 0.8624342083930969
v -0.0702269896864891 0.10418741405010223 0.8610737323760986
v -0.06941306591033936 0.10197017341852188 0.8541363477706909
v -0.07744105160236359 0.10597676038742065 0.839179515838623
v -0.07164216041564941 0.10073176771402359 0.8482553362846375
v -0.07222191989421844 0.09614385664463043 0.8459608554840088
v -0.07728039473295212 0.10183479636907578 0.8363122344017029
v -0.06837019324302673 0.09687821567058563 0.8507282137870789
v -0.07383053004741669 0.10376955568790436 0.8523343801498413
v -0.08909004926681519 0.09528762847185135 0.8378256559371948
v -0.08362707495689392 0.09564968943595886 0.8348943591117859
v -0.09208572655916214 0.09744025766849518 0.8405101895332336
v -0.05507500842213631 0.10293692350387573 0.8705568313598633
v -0.09077510237693787 0.10535809397697449 0.8468074798583984
v -0.09291937947273254 0.10024502128362656 0.8436886668205261
v -0.07440444827079773 0.09193218499422073 0.8458069562911987
v -0.07955402880907059 0.09820400178432465 0.834428071975708
v -0.07955729961395264 0.10885719954967499 0.8421927094459534
v -0.0849519744515419 0.10872428864240646 0.8471704721450806
v -0.08068212866783142 0.10832640528678894 0.8358108401298523
v -0.08603730797767639 0.11040125042200089 0.8386113047599792
v -0.09157048165798187 0.10791691392660141 0.8380454182624817
v -0.09403836727142334 0.10303083062171936 0.8363884687423706
v -0.09327751398086548 0.0994219034910202 0.8350633382797241
v -0.07912473380565643 0.10553547739982605 0.8336272239685059
v -0.07941296696662903 0.10156700015068054 0.8313153386116028
v -0.08189117163419724 0.09766434133052826 0.8316610455513
v -0.07937520742416382 0.10468250513076782 0.8273845911026001
v -0.08078044652938843 0.10826735198497772 0.8280832767486572
v -0.09370990842580795 0.11109516024589539 0.8174328804016113
v -0.0932508111000061 0.11058700829744339 0.8230525255203247
v -0.09104445576667786 0.11192227154970169 0.8227275013923645
v -0.09130195528268814 0.11261393874883652 0.817594051361084
v -0.09154532104730606 0.11111143231391907 0.8287304639816284
v -0.08979949355125427 0.11184892058372498 0.826850950717926
v -0.0854698121547699 0.11127025634050369 0.8278252482414246
v -0.08632751554250717 0.11168726533651352 0.822296679019928
v -0.0820065587759018 0.10954640060663223 0.8223842978477478
v -0.0820850282907486 0.11092424392700195 0.81731116771698
v -0.08630715310573578 0.11339844763278961 0.8170015811920166
v -0.08227774500846863 0.11001598834991455 0.8261116743087769
v -0.090418741106987 0.11290886253118515 0.8143115043640137
v -0.0914381667971611 0.11129088699817657 0.8125315308570862
v -0.08590032905340195 0.11082097887992859 0.8305664658546448
v -0.0944528728723526 0.1060883179306984 0.8316587805747986
v -0.09480276703834534 0.10803753137588501 0.8226011395454407
v -0.09441810846328735 0.10823796689510345 0.816264271736145
v -0.09082770347595215 0.10850830376148224 0.8114615678787231
v -0.09423555433750153 0.10427607595920563 0.821176290512085
v -0.09329920262098312 0.1053776666522026 0.8154176473617554
v -0.08997505903244019 0.10593488812446594 0.8118462562561035
v -0.09181911498308182 0.10055280476808548 0.8198386430740356
v -0.09055094420909882 0.10229615867137909 0.814613401889801
v -0.09177027642726898 0.09768608212471008 0.8304526209831238
v -0.09437072277069092 0.10123071819543839 0.8313211798667908
v -0.08947795629501343 0.10380586981773376 0.812782883644104
v -0.08673872798681259 0.11209473013877869 0.8112759590148926
v -0.08679427206516266 0.10885275155305862 0.810215950012207
v -0.08665536344051361 0.11296829581260681 0.8129464983940125
v -0.08051469922065735 0.10806208103895187 0.8221311569213867
v -0.08111725747585297 0.10903754085302353 0.8164404630661011
v -0.07962768524885178 0.10562890022993088 0.8213825225830078
v -0.08062668144702911 0.1070060282945633 0.8152594566345215
v -0.08247092366218567 0.11026965081691742 0.8124817609786987
v -0.08322024345397949 0.1116739809513092 0.8132063746452332
v -0.09021911025047302 0.09687427431344986 0.833889901638031
v -0.08514626324176788 0.09619484841823578 0.8323677778244019
v -0.08696050941944122 0.09592319279909134 0.8295809626579285
v -0.08720892667770386 0.09881449490785599 0.8194179534912109
v -0.08273786306381226 0.09717393666505814 0.8289926052093506
v -0.07980996370315552 0.10123409330844879 0.8272091746330261
v -0.0801515132188797 0.10289352387189865 0.8210602402687073
v -0.08269935101270676 0.10015960037708282 0.8198902010917664
v -0.08044673502445221 0.10479575395584106 0.8149634599685669
v -0.08236494660377502 0.1022191196680069 0.8158490657806396
v -0.08685760200023651 0.10090639442205429 0.8148924112319946
v -0.0823802724480629 0.10627008974552155 0.8113757371902466
v -0.08228245377540588 0.10866984724998474 0.8116722702980042
v -0.08676574379205704 0.10664647072553635 0.8106276988983154
v -0.08328337967395782 0.10374265909194946 0.8126852512359619
v -0.08686760067939758 0.10377137362957001 0.8120191693305969
v -0.05585188418626785 0.059264518320560455 0.8408148884773254
v -0.05028175190091133 0.060202375054359436 0.8397873640060425
v -0.05025660991668701 0.06202775239944458 0.8415154218673706
v -0.05550152435898781 0.06178373098373413 0.8432878255844116
v -0.06291690468788147 0.06650425493717194 0.8322574496269226
v -0.06282845884561539 0.06244277209043503 0.8354905843734741
v -0.0632953941822052 0.06649771332740784 0.8385764360427856
v -0.0637592077255249 0.07171104103326797 0.8358052372932434
v -0.059098925441503525 0.06844030320644379 0.827997088432312
v -0.05978959798812866 0.07530342042446136 0.8312448859214783
v -0.06320934742689133 0.07623187452554703 0.8391134142875671
v -0.06281758099794388 0.07040566205978394 0.8419590592384338
v -0.05522678419947624 0.07988543063402176 0.8516809344291687
v -0.05552441626787186 0.08529751747846603 0.8478076457977295
v -0.0599692165851593 0.06029181927442551 0.8385210633277893
v -0.059835612773895264 0.06337623298168182 0.84156334400177
v -0.045503076165914536 0.06794809550046921 0.8357903957366943
v -0.046620823442935944 0.06508055329322815 0.8388678431510925
v -0.04662584885954857 0.06370212137699127 0.837935745716095
v -0.04575526714324951 0.06651577353477478 0.8351513147354126
v -0.046785999089479446 0.07421305030584335 0.8554816842079163
v -0.04185061156749725 0.07478896528482437 0.8521461486816406
v -0.051606230437755585 0.07578147202730179 0.854172945022583
v -0.04789892956614494 0.07303646206855774 0.8322288990020752
v -0.053116146475076675 0.07827405631542206 0.8309101462364197
v -0.044331394135951996 0.08535213768482208 0.8392977118492126
v -0.04038031026721001 0.08104666322469711 0.8407266736030579
v -0.05944111570715904 0.06667372584342957 0.8440612554550171
v -0.0498269759118557 0.06347886472940445 0.8432055711746216
v -0.05488024279475212 0.06381230056285858 0.8451268076896667
v -0.05907981097698212 0.0791664645075798 0.8349412679672241
v -0.05313793197274208 0.07373978942632675 0.8289815783500671
v -0.04740545526146889 0.057583436369895935 0.819327175617218
v -0.048042185604572296 0.06888623535633087 0.8289034962654114
v -0.045507460832595825 0.06565238535404205 0.8333711624145508
v -0.044392023235559464 0.05595574155449867 0.8220869302749634
v -0.04763869196176529 0.07054372131824493 0.8308255076408386
v -0.05326363444328308 0.07038082182407379 0.8266749978065491
v -0.050859954208135605 0.04704464599490166 0.8306600451469421
v -0.046381935477256775 0.04990093410015106 0.8297420740127563
v -0.05492578446865082 0.04797845333814621 0.8296549320220947
v -0.051243942230939865 0.08813584595918655 0.8427553176879883
v -0.038438376039266586 0.07669392973184586 0.8454619646072388
v -0.058574799448251724 0.05091394484043121 0.8241122961044312
v -0.05724376440048218 0.04881620407104492 0.8274955749511719
v -0.04662104696035385 0.06283236294984818 0.8366737365722656
v -0.043525196611881256 0.05316966027021408 0.8260529041290283
v -0.052076470106840134 0.057872407138347626 0.818617582321167
v -0.05725418031215668 0.055656999349594116 0.8205171823501587
v -0.050503216683864594 0.054855652153491974 0.8157676458358765
v -0.055006079375743866 0.05172360688447952 0.8174393773078918
v -0.05595715716481209 0.04696076363325119 0.8201773166656494
v -0.05412691459059715 0.04493867605924606 0.8232823014259338
v -0.05168436840176582 0.044290076941251755 0.8255515694618225
v -0.0461738184094429 0.05509548634290695 0.8160078525543213
v -0.043566957116127014 0.053769346326589584 0.8182696104049683
v -0.043058402836322784 0.052260201424360275 0.8238387107849121
v -0.04469284415245056 0.053106628358364105 0.8133200407028198
v -0.04888792335987091 0.05103284865617752 0.8109586834907532
v -0.046202242374420166 0.03510311618447304 0.8076357841491699
v -0.048898063600063324 0.03814685344696045 0.8117305040359497
v -0.04878055676817894 0.03900127857923508 0.8107841610908508
v -0.04658517241477966 0.03623124212026596 0.8063318729400635
v -0.053049299865961075 0.043027304112911224 0.8147546052932739
v -0.0515918955206871 0.042611055076122284 0.8128991723060608
v -0.051455821841955185 0.04630967229604721 0.8116090297698975
v -0.04815250262618065 0.0428907573223114 0.8071110248565674
v -0.04411504417657852 0.04735999554395676 0.8073049783706665
v -0.04236910119652748 0.04427313059568405 0.8040033578872681
v -0.04602557048201561 0.04000668227672577 0.8033092021942139
v -0.04841286689043045 0.049257636070251465 0.8101276755332947
v -0.04487425088882446 0.03562357276678085 0.8037344813346863
v -0.044748470187187195 0.03381458669900894 0.8039715886116028
v -0.05298491194844246 0.047877851873636246 0.8129929900169373
v -0.05197030305862427 0.041284263134002686 0.8191619515419006
v -0.047672539949417114 0.03676043078303337 0.8139998912811279
v -0.044773783534765244 0.03343237191438675 0.8099297881126404
v -0.042121320962905884 0.03316517919301987 0.8064873218536377
v -0.04445026069879532 0.03716988489031792 0.8161211013793945
v -0.042255569249391556 0.034332405775785446 0.811750590801239
v -0.039974845945835114 0.03395630419254303 0.8086199164390564
v -0.04186278581619263 0.03863409906625748 0.8171356320381165
v -0.039806004613637924 0.03616870939731598 0.8129293918609619
v -0.04691034555435181 0.044019944965839386 0.8248096108436584
v -0.0496147945523262 0.04198811203241348 0.822485089302063
v -0.03877255693078041 0.03537747263908386 0.8099582195281982
v -0.04239222779870033 0.03699181228876114 0.8013033270835876
v -0.038837868720293045 0.03650839626789093 0.8035216331481934
v -0.04358656704425812 0.037919096648693085 0.8019809722900391
v -0.04322988539934158 0.04885135963559151 0.8078927397727966
v -0.04010170325636864 0.04501243680715561 0.8038592338562012
v -0.04111073911190033 0.04944557696580887 0.8094583749771118
v -0.03787264600396156 0.04541461169719696 0.805431604385376
v -0.04008874669671059 0.041673481464385986 0.8016495704650879
v -0.041285865008831024 0.041501566767692566 0.8018128871917725
v -0.04862753301858902 0.045800432562828064 0.8276031017303467
v -0.04489456117153168 0.04896913096308708 0.8269693851470947
v -0.04353290796279907 0.04738522320985794 0.8243513107299805
v -0.0386844128370285 0.04163554310798645 0.816222608089447
v -0.04218707233667374 0.050866223871707916 0.8215480446815491
v -0.04207674413919449 0.05194152891635895 0.8152686953544617
v -0.0391581729054451 0.04809441789984703 0.8115837574005127
v -0.03800258785486221 0.045317936688661575 0.8137269020080566
v -0.036544620990753174 0.04447854310274124 0.8076478242874146
v -0.03657405823469162 0.04315514862537384 0.8101511597633362
v -0.036937545984983444 0.03891495242714882 0.8124150037765503
v -0.036516398191452026 0.04102768376469612 0.8057660460472107
v -0.037740714848041534 0.04165011644363403 0.8031650185585022
v -0.037311382591724396 0.03662334010004997 0.8063000440597534
v -0.03606991469860077 0.040496163070201874 0.8081782460212708
v -0.03679177910089493 0.037217289209365845 0.8087173700332642
v -0.03903535008430481 0.07532455027103424 0.8488243222236633
v -0.04822410270571709 0.07727248966693878 0.8425382971763611
v -0.049666814506053925 0.07361385226249695 0.8416313529014587
v -0.04608466103672981 0.0726722702383995 0.8391954302787781
v -0.04390942305326462 0.07602030783891678 0.8405085802078247
v -0.04998648911714554 0.08486075699329376 0.8350750803947449
v -0.048891134560108185 0.08359357714653015 0.8392983675003052
v -0.04493977501988411 0.08346135169267654 0.8367656469345093
v -0.04555291682481766 0.08476066589355469 0.8321877121925354
v -0.05208681523799896 0.08298146724700928 0.8308137059211731
v -0.04755592346191406 0.08281339704990387 0.8278059363365173
v -0.042757757008075714 0.08668866008520126 0.8326156139373779
v -0.0425974503159523 0.08462651073932648 0.8371549844741821
v -0.032530125230550766 0.08632031828165054 0.841070294380188
v -0.030744777992367744 0.08937028050422668 0.8370314836502075
v -0.02202332392334938 0.07377362996339798 0.8305306434631348
v -0.021832197904586792 0.07073745131492615 0.8347781300544739
v -0.029966620728373528 0.07120268046855927 0.833957314491272
v -0.028990477323532104 0.07289557158946991 0.829892635345459
v -0.04819172993302345 0.08081267774105072 0.841633141040802
v -0.04450147598981857 0.07985039800405502 0.8400869965553284
v -0.04318813979625702 0.0697658360004425 0.8304341435432434
v -0.043093834072351456 0.06930539011955261 0.8349624872207642
v -0.04753171280026436 0.06990410387516022 0.8367499709129333
v -0.049715012311935425 0.06946161389350891 0.83260178565979
v -0.024906765669584274 0.0708332285284996 0.8390429019927979
v -0.02724294364452362 0.0725732296705246 0.8423927426338196
v -0.031117506325244904 0.07360463589429855 0.8420519828796387
v -0.03168730437755585 0.07189351320266724 0.8381760120391846
v -0.033299170434474945 0.07860521227121353 0.8437368273735046
v -0.04364844784140587 0.07245124131441116 0.8270397186279297
v -0.043677784502506256 0.07831332087516785 0.82475346326828
v -0.02733580395579338 0.0813760906457901 0.8258203864097595
v -0.027265919372439384 0.07657453417778015 0.826982319355011
v -0.04248308390378952 0.08095499128103256 0.8400225043296814
v -0.04316696524620056 0.0716753751039505 0.838645875453949
v -0.042430005967617035 0.07588551938533783 0.8402981758117676
v -0.04244622588157654 0.0847700908780098 0.8273179531097412
v -0.050234969705343246 0.07754693925380707 0.826396107673645
v -0.06286416947841644 0.07361768186092377 0.8364247679710388
v -0.055687274783849716 0.0726090595126152 0.8312185406684875
v -0.05440126731991768 0.070360466837883 0.8350253701210022
v -0.061705537140369415 0.07165516912937164 0.8387746810913086
v -0.049721796065568924 0.07238470762968063 0.8286083340644836
v -0.05538557469844818 0.07782333344221115 0.8295823335647583
v -0.05527855455875397 0.07769808173179626 0.8473871946334839
v -0.056905362755060196 0.0733727291226387 0.8451611995697021
v -0.0551563985645771 0.08090101182460785 0.8469696640968323
v -0.02870100550353527 0.08832418918609619 0.8306056261062622
v -0.05810699611902237 0.08508390188217163 0.8417067527770996
v -0.05650002881884575 0.08360721170902252 0.8454782366752625
v -0.05185380205512047 0.07131486386060715 0.8390318155288696
v -0.05946846306324005 0.07138549536466599 0.8419899940490723
v -0.06296415627002716 0.0780075192451477 0.8352879285812378
v -0.060573261231184006 0.08328744769096375 0.8367986083030701
v -0.06645587831735611 0.07877049595117569 0.8384466767311096
v -0.06419894844293594 0.0832144170999527 0.840479850769043
v -0.061526935547590256 0.08412028849124908 0.8465416431427002
v -0.059129029512405396 0.08209065347909927 0.8485425710678101
v -0.05776564031839371 0.07932330667972565 0.8494022488594055
v -0.06572943925857544 0.073970727622509 0.8388746976852417
v -0.06406057626008987 0.07183242589235306 0.8405420184135437
v -0.061102062463760376 0.07122217863798141 0.8430715799331665
v -0.06903471052646637 0.07420987635850906 0.8416828513145447
v -0.07043904066085815 0.07809179276227951 0.8440240621566772
v -0.07121118158102036 0.07541657984256744 0.8569833040237427
v -0.06824876368045807 0.07720797508955002 0.8550381064414978
v -0.06905412673950195 0.0775429904460907 0.854287326335907
v -0.07191162556409836 0.07617365568876266 0.8566493988037109
v -0.06566713005304337 0.08057147264480591 0.8516846299171448
v -0.06725725531578064 0.07985172420740128 0.8515692949295044
v -0.06827735900878906 0.08037236332893372 0.8481552600860596
v -0.07182835042476654 0.07820319384336472 0.8510648608207703
v -0.07386654615402222 0.07499422878026962 0.8473286032676697
v -0.07642961293458939 0.07372687757015228 0.850045382976532
v -0.07457456737756729 0.07693453878164291 0.8530170321464539
v -0.07105733454227448 0.07819259166717529 0.8458484411239624
v -0.0744488313794136 0.07569793611764908 0.8573668003082275
v -0.07472404092550278 0.07484529912471771 0.8584345579147339
v -0.06740349531173706 0.08210025727748871 0.8466535806655884
v -0.06224021688103676 0.07890550792217255 0.8527332544326782
v -0.06718526780605316 0.0754200667142868 0.856484055519104
v -0.07129257172346115 0.07367652654647827 0.8585828542709351
v -0.07484626770019531 0.07257109880447388 0.8586175441741943
v -0.06565482914447784 0.07355958223342896 0.85576331615448
v -0.07047945261001587 0.0715392455458641 0.8585246801376343
v -0.07386060059070587 0.07045973837375641 0.8584193587303162
v -0.06484396755695343 0.07087815552949905 0.8540236949920654
v -0.06974507868289948 0.06966200470924377 0.8568087816238403
v -0.059580519795417786 0.07340913265943527 0.8502339124679565
v -0.060480691492557526 0.07625886052846909 0.8521307706832886
v -0.0728006586432457 0.0695815235376358 0.8572661280632019
v -0.077654168009758 0.07426633685827255 0.85591059923172
v -0.07703255116939545 0.07141155749559402 0.8564128279685974
v -0.077235147356987 0.07545135915279388 0.8549017310142517
v -0.0738450139760971 0.07402883470058441 0.846377968788147
v -0.07692690193653107 0.07220359891653061 0.8497112989425659
v -0.07306560128927231 0.07182284444570541 0.8456201553344727
v -0.07629183679819107 0.07013820111751556 0.8498414158821106
v -0.07835078984498978 0.07237356901168823 0.8528602123260498
v -0.07761507481336594 0.0740320011973381 0.8524816036224365
v -0.0576532743871212 0.07543886452913284 0.8490964770317078
v -0.05847946181893349 0.07298948615789413 0.8462995290756226
v -0.0605916790664196 0.0712679773569107 0.8470725417137146
v -0.06575624644756317 0.06879211962223053 0.8508857488632202
v -0.06352894008159637 0.07043656706809998 0.8435750007629395
v -0.06675350666046143 0.0718713104724884 0.8417626023292542
v -0.07137586176395416 0.06983007490634918 0.8460453748703003
v -0.06892254948616028 0.0683475062251091 0.847705066204071
v -0.07507065683603287 0.06858137995004654 0.850700855255127
v -0.07256840914487839 0.06744948029518127 0.8518981337547302
v -0.07036289572715759 0.06777399778366089 0.8542256951332092
v -0.0762714073061943 0.06918539106845856 0.8542500734329224
v -0.07767971605062485 0.07034686207771301 0.853766679763794
v -0.07572060823440552 0.06978915631771088 0.8563560843467712
v -0.07457981258630753 0.0682826116681099 0.8545047640800476
v -0.07372495532035828 0.06865756213665009 0.8558293581008911
v -0.02338947169482708 0.07711420953273773 0.8286845088005066
v -0.033919818699359894 0.0575205460190773 0.9046075344085693
v -0.031860411167144775 0.05864165350794792 0.8994768261909485
v -0.021512862294912338 0.04611698165535927 0.8963820338249207
v -0.02535589598119259 0.05187361687421799 0.8934857249259949
v -0.021447133272886276 0.0423026867210865 0.9023969769477844
v -0.026409387588500977 0.043820224702358246 0.9117791652679443
v -0.02260512486100197 0.042536549270153046 0.9081242680549622
v -0.028661547228693962 0.05628986284136772 0.8950717449188232
v -0.033424731343984604 0.054486725479364395 0.9094613194465637
v -0.03040078654885292 0.048739198595285416 0.9130946397781372
v -0.04325253516435623 0.04680677875876427 0.9053693413734436
v -0.038571007549762726 0.040711455047130585 0.9081435203552246
v -0.03310125321149826 0.03595317155122757 0.9052688479423523
v -0.02771902084350586 0.037381723523139954 0.901745080947876
v -0.02515733800828457 0.03867214173078537 0.8980053663253784
v -0.04040737822651863 0.05298406630754471 0.900863766670227
v -0.037503499537706375 0.05504947155714035 0.8963640332221985
v -0.03225812688469887 0.053393978625535965 0.8927316665649414
v -0.044621288776397705 0.04971470683813095 0.8946177959442139
v -0.04521080106496811 0.042427875101566315 0.8886057734489441
v -0.03502322733402252 0.0313233956694603 0.8764974474906921
v -0.033058665692806244 0.03254026919603348 0.8826137781143188
v -0.03578774631023407 0.03275290131568909 0.8829531073570251
v -0.03738168999552727 0.031203612685203552 0.8774582743644714
v -0.034454166889190674 0.032889243215322495 0.8880906105041504
v -0.03631044179201126 0.03378716856241226 0.887079119682312
v -0.04041929543018341 0.037148572504520416 0.8889830112457275
v -0.041548751294612885 0.03553709387779236 0.8834458589553833
v -0.04342794790863991 0.040735915303230286 0.8873043656349182
v -0.044102318584918976 0.04109115153551102 0.8830540776252747
v -0.04261068254709244 0.034445635974407196 0.8780951499938965
v -0.03995500132441521 0.030972808599472046 0.8746934533119202
v -0.04318522661924362 0.03360052406787872 0.8737351894378662
v -0.038080472499132156 0.03157774358987808 0.8726509213447571
v -0.043357864022254944 0.03517057001590729 0.8911108374595642
v -0.029459292069077492 0.03422137722373009 0.891996443271637
v -0.029823536053299904 0.0338078998029232 0.8830070495605469
v -0.032383453100919724 0.03336291015148163 0.8757328987121582
v -0.036301784217357635 0.03370457887649536 0.8714441657066345
v -0.027563264593482018 0.03702671080827713 0.8822410702705383
v -0.030641213059425354 0.03713395074009895 0.875812292098999
v -0.0348166823387146 0.03793582320213318 0.8720484375953674
v -0.027766643092036247 0.041596077382564545 0.8814345598220825
v -0.031266771256923676 0.04078911617398262 0.8760427832603455
v -0.025133758783340454 0.0438663586974144 0.8914812803268433
v -0.025547577068209648 0.03835158050060272 0.8928452730178833
v -0.0343656986951828 0.04016229882836342 0.8733607530593872
v -0.04316768795251846 0.03402958810329437 0.8714533448219299
v -0.04135669022798538 0.03650490567088127 0.8703027367591858
v -0.04499119520187378 0.04410375654697418 0.8833151459693909
v -0.04576709121465683 0.03967274725437164 0.8783469200134277
v -0.04557586833834648 0.04218325763940811 0.8776364326477051
v -0.0439903549849987 0.04774066060781479 0.8837960362434387
v -0.04458779841661453 0.04473986104130745 0.8769568800926208
v -0.04554865509271622 0.038839153945446014 0.873481035232544
v -0.045370057225227356 0.03707209229469299 0.8752045631408691
v -0.024034976959228516 0.04336618632078171 0.8940865397453308
v -0.026952221989631653 0.04909069091081619 0.8921754360198975
v -0.028810949996113777 0.0496651828289032 0.8908209800720215
v -0.0309769120067358 0.04704582318663597 0.8818268775939941
v -0.03467289358377457 0.053460199385881424 0.8905178904533386
v -0.040892548859119415 0.05296714976429939 0.8928377032279968
v -0.04135381802916527 0.050231870263814926 0.8829140067100525
v -0.03637605160474777 0.05035847797989845 0.8824694752693176
v -0.04163022339344025 0.04639824479818344 0.8764774203300476
v -0.03865809738636017 0.04641209542751312 0.8765174150466919
v -0.03408762812614441 0.044281020760536194 0.8757628202438354
v -0.04138193279504776 0.042846620082855225 0.8728289604187012
v -0.04410254582762718 0.04131781682372093 0.8727118372917175
v -0.03882714360952377 0.03982497751712799 0.871197521686554
v -0.0391477532684803 0.04379847273230553 0.8740348219871521
v -0.036937013268470764 0.04186002165079117 0.8731282353401184
v -0.015560198575258255 0.07047725468873978 0.8359358906745911
v -0.018480025231838226 0.0698152631521225 0.8415067791938782
v -0.011703316122293472 0.0692191869020462 0.8417066335678101
v -0.002267390489578247 0.06824713945388794 0.8437248468399048
v 0.0078626349568367 0.0699182078242302 0.8405271172523499
v -0.004198338836431503 0.06916379183530807 0.8502303957939148
v -0.01374824345111847 0.07011529803276062 0.8477535247802734
v -0.023154612630605698 0.07176381349563599 0.8474125862121582
v 0.002034880220890045 0.07078094035387039 0.8583225607872009
f 2 3 1
f 1 3 4
f 5 6 8
f 8 6 7
f 9 4 10
f 10 4 3
f 12 13 11
f 11 13 9
f 14 12 16
f 16 12 15
f 18 19 17
f 17 19 20
f 22 23 21
f 21 23 24
f 26 27 25
f 25 27 28
f 30 31 29
f 29 31 32
f 33 34 36
f 36 34 35
f 37 38 40
f 40 38 39
f 41 42 6
f 6 42 43
f 6 43 7
f 7 43 44
f 45 34 46
f 46 34 33
f 48 49 47
f 47 49 50
f 52 53 51
f 51 53 54
f 56 52 55
f 55 52 51
f 58 59 57
f 57 59 60
f 61 62 4
f 4 62 1
f 64 65 63
f 63 65 66
f 68 69 67
f 67 69 70
f 72 73 71
f 71 73 74
f 76 77 75
f 75 77 78
f 53 79 54
f 54 79 80
f 82 83 81
f 81 83 84
f 85 86 52
f 52 86 53
f 57 60 87
f 87 60 88
f 89 90 43
f 43 90 44
f 43 42 89
f 89 42 91
f 40 39 92
f 92 39 93
f 94 70 64
f 64 70 69
f 13 61 9
f 9 61 4
f 25 28 69
f 69 28 95
f 96 25 68
f 68 25 69
f 98 99 97
f 97 99 100
f 101 102 104
f 104 102 103
f 106 30 105
f 105 30 29
f 51 54 107
f 107 54 108
f 54 80 108
f 108 80 109
f 111 112 110
f 110 112 113
f 115 5 114
f 114 5 116
f 115 41 5
f 5 41 6
f 36 35 111
f 111 35 117
f 35 118 117
f 117 118 119
f 34 120 35
f 35 120 118
f 34 45 120
f 120 45 121
f 125 126 124
f 124 126 127
f 128 129 14
f 14 129 130
f 33 131 46
f 46 131 132
f 133 94 63
f 63 94 64
f 134 135 137
f 137 135 136
f 139 140 138
f 138 140 141
f 77 142 78
f 78 142 143
f 144 145 20
f 20 145 146
f 148 149 147
f 147 149 72
f 151 152 150
f 150 152 153
f 82 101 83
f 83 101 104
f 101 82 155
f 155 82 154
f 156 157 58
f 58 157 59
f 158 68 147
f 147 68 67
f 159 146 15
f 15 146 16
f 68 158 96
f 96 158 160
f 129 66 130
f 130 66 65
f 162 163 161
f 161 163 164
f 166 167 165
f 165 167 168
f 170 171 169
f 169 171 172
f 174 171 173
f 173 171 170
f 176 177 175
f 175 177 178
f 180 181 179
f 179 181 24
f 182 183 21
f 21 183 184
f 81 185 82
f 82 185 154
f 186 187 188
f 188 187 144
f 158 71 160
f 160 71 189
f 190 135 157
f 157 135 59
f 169 172 139
f 139 172 140
f 147 72 158
f 158 72 71
f 192 193 191
f 191 193 194
f 167 166 49
f 49 166 195
f 196 190 50
f 50 190 157
f 197 198 200
f 200 198 199
f 21 24 182
f 182 24 181
f 146 159 20
f 20 159 17
f 182 181 81
f 81 181 185
f 201 185 180
f 180 185 181
f 202 203 83
f 83 203 84
f 205 206 204
f 204 206 85
f 207 22 184
f 184 22 21
f 179 24 208
f 208 24 23
f 208 209 179
f 179 209 205
f 209 210 205
f 205 210 206
f 212 206 211
f 211 206 210
f 179 205 180
f 180 205 204
f 213 176 88
f 88 176 214
f 86 85 212
f 212 85 206
f 193 217 218
f 217 219 218
f 218 219 220
f 219 18 220
f 220 18 17
f 19 221 20
f 20 221 144
f 222 223 225
f 225 223 224
f 175 226 176
f 176 226 214
f 227 87 214
f 214 87 88
f 220 17 228
f 228 17 159
f 134 213 60
f 60 213 88
f 138 229 151
f 151 229 152
f 193 192 210
f 210 192 211
f 230 194 218
f 218 194 193
f 231 232 228
f 228 232 230
f 233 234 91
f 91 234 89
f 235 236 93
f 93 236 92
f 230 232 234
f 234 232 237
f 47 238 48
f 48 238 239
f 240 191 235
f 235 191 236
f 5 8 116
f 116 8 241
f 242 243 189
f 189 243 160
f 244 245 98
f 98 245 99
f 156 246 47
f 47 246 238
f 76 247 77
f 77 247 248
f 250 125 249
f 249 125 124
f 252 253 251
f 251 253 254
f 111 110 36
f 36 110 255
f 256 33 255
f 255 33 36
f 257 258 154
f 154 258 155
f 63 169 133
f 133 169 139
f 66 170 63
f 63 170 169
f 173 170 129
f 129 170 66
f 129 128 173
f 173 128 259
f 128 260 259
f 259 260 261
f 213 134 262
f 262 134 137
f 263 264 186
f 186 264 187
f 112 265 113
f 113 265 266
f 11 267 268
f 234 233 230
f 230 233 194
f 153 269 70
f 70 269 67
f 175 178 165
f 165 178 141
f 150 153 94
f 94 153 70
f 271 221 270
f 270 221 207
f 269 153 272
f 272 153 152
f 121 45 109
f 109 45 108
f 47 50 156
f 156 50 157
f 57 273 58
f 58 273 274
f 145 275 260
f 260 275 261
f 276 149 143
f 143 149 78
f 148 269 75
f 75 269 272
f 207 277 270
f 270 277 278
f 195 196 49
f 49 196 50
f 59 135 60
f 60 135 134
f 83 104 202
f 202 104 279
f 149 148 78
f 78 148 75
f 247 278 248
f 248 278 277
f 183 182 84
f 84 182 81
f 48 239 281
f 281 239 282
f 227 223 283
f 283 223 222
f 223 226 224
f 224 226 168
f 281 282 224
f 224 282 225
f 165 168 175
f 175 168 226
f 264 263 138
f 138 263 229
f 14 16 128
f 128 16 260
f 220 228 218
f 218 228 230
f 87 227 284
f 284 227 283
f 260 16 145
f 145 16 146
f 244 98 258
f 258 98 155
f 58 274 156
f 156 274 246
f 107 285 51
f 51 285 55
f 243 286 160
f 160 286 96
f 234 237 89
f 89 237 90
f 46 132 107
f 107 132 285
f 253 252 249
f 249 252 250
f 286 26 96
f 96 26 25
f 106 105 287
f 287 105 288
f 272 152 289
f 289 152 229
f 138 151 139
f 139 151 133
f 183 290 161
f 161 290 162
f 291 292 277
f 277 292 293
f 151 150 133
f 133 150 94
f 262 275 177
f 177 275 187
f 144 187 145
f 145 187 275
f 273 57 284
f 284 57 87
f 174 136 190
f 190 136 135
f 111 117 112
f 112 117 38
f 117 119 38
f 38 119 123
f 112 38 265
f 265 38 37
f 287 288 254
f 254 288 251
f 228 159 231
f 231 159 15
f 223 227 226
f 226 227 214
f 147 67 148
f 148 67 269
f 224 168 281
f 281 168 167
f 199 163 200
f 200 163 162
f 45 46 108
f 108 46 107
f 281 167 48
f 48 167 49
f 161 164 291
f 291 164 292
f 38 123 39
f 293 294 277
f 277 294 248
f 284 283 296
f 296 283 295
f 284 296 273
f 273 296 297
f 274 273 298
f 298 273 297
f 246 274 299
f 299 274 298
f 283 222 295
f 295 222 300
f 222 225 300
f 300 225 301
f 301 225 302
f 302 225 282
f 303 304 300
f 300 304 295
f 306 307 305
f 305 307 308
f 309 310 308
f 308 310 305
f 308 307 312
f 312 307 311
f 313 314 312
f 312 314 315
f 311 316 312
f 312 316 313
f 317 304 311
f 311 304 316
f 315 309 312
f 312 309 308
f 318 319 321
f 321 319 320
f 319 318 309
f 309 318 310
f 311 307 317
f 317 307 306
f 306 297 317
f 317 297 296
f 306 322 297
f 297 322 298
f 305 323 306
f 306 323 322
f 323 305 324
f 324 305 310
f 304 317 295
f 295 317 296
f 318 325 310
f 310 325 324
f 323 324 326
f 326 324 327
f 324 325 327
f 327 325 328
f 326 327 329
f 329 327 330
f 329 331 326
f 326 331 332
f 333 330 328
f 328 330 327
f 323 326 322
f 322 326 332
f 322 332 298
f 298 332 299
f 325 318 334
f 334 318 321
f 313 316 335
f 335 316 304
f 335 336 313
f 313 336 314
f 304 303 335
f 335 303 337
f 336 335 338
f 338 335 337
f 336 339 314
f 314 339 340
f 246 299 238
f 238 299 341
f 239 342 282
f 282 342 302
f 342 239 341
f 341 239 238
f 341 331 342
f 342 331 343
f 331 329 343
f 343 329 344
f 342 343 302
f 302 343 345
f 341 299 331
f 331 299 332
f 346 301 345
f 345 301 302
f 346 303 301
f 301 303 300
f 347 337 346
f 346 337 303
f 347 346 348
f 348 346 345
f 349 347 350
f 350 347 348
f 343 344 345
f 345 344 348
f 344 351 348
f 348 351 350
f 337 347 338
f 338 347 349
f 353 338 352
f 352 338 349
f 352 355 354
f 354 355 356
f 352 349 355
f 355 349 350
f 352 354 353
f 353 354 334
f 353 334 339
f 339 334 321
f 339 336 353
f 353 336 338
f 329 330 344
f 344 330 351
f 356 351 333
f 333 351 330
f 356 355 351
f 351 355 350
f 354 356 328
f 328 356 333
f 328 325 354
f 354 325 334
f 309 315 319
f 319 315 320
f 320 340 321
f 321 340 339
f 320 315 340
f 340 315 314
f 137 136 261
f 261 136 259
f 140 166 141
f 141 166 165
f 172 171 195
f 195 171 196
f 171 174 196
f 196 174 190
f 178 177 264
f 264 177 187
f 172 195 140
f 140 195 166
f 137 261 262
f 262 261 275
f 178 264 141
f 141 264 138
f 262 177 213
f 213 177 176
f 136 174 259
f 259 174 173
f 358 359 357
f 357 359 360
f 362 363 361
f 361 363 364
f 361 364 365
f 365 364 366
f 367 368 370
f 370 368 369
f 76 371 247
f 247 371 372
f 373 374 362
f 362 374 363
f 376 377 375
f 375 377 378
f 289 229 380
f 380 229 379
f 381 379 263
f 263 379 229
f 383 384 382
f 382 384 385
f 386 368 374
f 374 368 363
f 76 289 371
f 371 289 380
f 377 376 359
f 359 376 387
f 388 386 360
f 360 386 374
f 389 383 366
f 366 383 390
f 392 393 391
f 391 393 394
f 383 382 390
f 390 382 395
f 396 365 390
f 390 365 366
f 389 366 367
f 367 366 364
f 357 397 358
f 358 397 398
f 373 399 357
f 357 399 397
f 389 367 400
f 400 367 370
f 382 385 375
f 375 385 372
f 357 360 373
f 373 360 374
f 361 401 362
f 362 401 402
f 387 388 359
f 359 388 360
f 363 368 364
f 364 368 367
f 358 398 403
f 403 398 404
f 396 392 405
f 405 392 391
f 392 395 393
f 393 395 378
f 393 403 394
f 394 403 404
f 375 378 382
f 382 378 395
f 365 396 406
f 406 396 405
f 362 402 373
f 373 402 399
f 271 270 400
f 400 270 384
f 401 361 406
f 406 361 365
f 381 369 386
f 386 369 368
f 392 396 395
f 395 396 390
f 393 378 403
f 403 378 377
f 403 377 358
f 358 377 359
f 406 405 408
f 408 405 407
f 406 408 401
f 401 408 409
f 401 409 402
f 402 409 410
f 402 410 399
f 399 410 411
f 405 391 407
f 407 391 412
f 391 394 412
f 412 394 413
f 394 404 413
f 413 404 414
f 415 416 412
f 412 416 407
f 418 419 417
f 417 419 420
f 421 422 418
f 418 422 419
f 419 422 424
f 424 422 423
f 425 426 424
f 424 426 427
f 423 428 424
f 424 428 425
f 427 420 424
f 424 420 419
f 420 429 417
f 417 429 430
f 423 422 431
f 431 422 421
f 421 409 431
f 431 409 408
f 421 432 409
f 409 432 410
f 418 433 421
f 421 433 432
f 434 433 417
f 417 433 418
f 431 416 423
f 423 416 428
f 416 431 407
f 407 431 408
f 435 434 430
f 430 434 417
f 433 434 436
f 436 434 437
f 434 435 437
f 437 435 438
f 436 437 439
f 439 437 440
f 439 441 436
f 436 441 442
f 438 443 437
f 437 443 440
f 436 442 433
f 433 442 432
f 432 442 410
f 410 442 411
f 435 430 445
f 445 430 444
f 430 429 444
f 444 429 446
f 425 428 447
f 447 428 416
f 426 425 448
f 448 425 447
f 416 415 447
f 447 415 449
f 447 449 448
f 448 449 450
f 451 452 448
f 448 452 426
f 446 452 444
f 444 452 451
f 399 411 397
f 397 411 453
f 398 454 404
f 404 454 414
f 454 398 453
f 453 398 397
f 453 441 454
f 454 441 455
f 441 439 455
f 455 439 456
f 454 455 414
f 414 455 457
f 441 453 442
f 442 453 411
f 458 413 457
f 457 413 414
f 458 415 413
f 413 415 412
f 458 459 415
f 415 459 449
f 459 458 460
f 460 458 457
f 461 459 462
f 462 459 460
f 455 456 457
f 457 456 460
f 456 463 460
f 460 463 462
f 459 461 449
f 449 461 450
f 465 450 464
f 464 450 461
f 464 467 466
f 466 467 468
f 464 461 467
f 467 461 462
f 464 466 465
f 465 466 445
f 465 445 451
f 451 445 444
f 451 448 465
f 465 448 450
f 439 440 456
f 456 440 463
f 468 463 443
f 443 463 440
f 468 467 463
f 463 467 462
f 466 468 438
f 438 468 443
f 438 435 466
f 466 435 445
f 420 427 429
f 429 427 446
f 446 427 452
f 452 427 426
f 370 369 188
f 188 369 186
f 371 376 372
f 372 376 375
f 380 379 387
f 387 379 388
f 379 381 388
f 388 381 386
f 385 384 278
f 278 384 270
f 380 387 371
f 371 387 376
f 400 370 271
f 271 370 188
f 385 278 372
f 372 278 247
f 400 384 389
f 389 384 383
f 369 381 186
f 186 381 263
f 221 271 144
f 144 271 188
f 221 19 207
f 207 19 22
f 19 18 22
f 22 18 23
f 18 219 23
f 23 219 208
f 469 470 472
f 472 470 471
f 474 475 473
f 473 475 476
f 473 476 477
f 477 476 478
f 480 481 479
f 479 481 482
f 483 484 474
f 474 484 475
f 486 487 485
f 485 487 488
f 489 490 77
f 77 490 142
f 491 489 248
f 248 489 77
f 493 494 492
f 492 494 495
f 496 480 484
f 484 480 475
f 486 497 487
f 487 497 471
f 498 496 472
f 472 496 484
f 499 493 478
f 478 493 500
f 501 502 504
f 504 502 503
f 493 492 500
f 500 492 505
f 506 477 500
f 500 477 478
f 499 478 479
f 479 478 476
f 469 507 470
f 470 507 508
f 483 509 469
f 469 509 507
f 479 482 499
f 499 482 510
f 492 495 485
f 485 495 511
f 483 469 484
f 484 469 472
f 473 512 474
f 474 512 513
f 497 498 471
f 471 498 472
f 475 480 476
f 476 480 479
f 470 508 514
f 514 508 515
f 506 502 516
f 516 502 501
f 503 502 488
f 488 502 505
f 514 515 503
f 503 515 504
f 485 488 492
f 492 488 505
f 477 506 517
f 517 506 516
f 474 513 483
f 483 513 509
f 510 292 494
f 494 292 164
f 512 473 517
f 517 473 477
f 491 481 496
f 496 481 480
f 502 506 505
f 505 506 500
f 503 488 514
f 514 488 487
f 514 487 470
f 470 487 471
f 517 516 519
f 519 516 518
f 517 519 512
f 512 519 520
f 512 520 513
f 513 520 521
f 513 521 509
f 509 521 522
f 516 501 518
f 518 501 523
f 501 504 523
f 523 504 524
f 524 504 525
f 525 504 515
f 526 527 523
f 523 527 518
f 529 530 528
f 528 530 531
f 532 533 529
f 529 533 530
f 530 533 535
f 535 533 534
f 536 537 535
f 535 537 538
f 534 539 535
f 535 539 536
f 538 531 535
f 535 531 530
f 540 541 531
f 531 541 528
f 533 532 534
f 534 532 542
f 532 520 542
f 542 520 519
f 532 543 520
f 520 543 521
f 529 544 532
f 532 544 543
f 544 529 545
f 545 529 528
f 534 542 539
f 539 542 527
f 527 542 518
f 518 542 519
f 541 546 528
f 528 546 545
f 547 544 548
f 548 544 545
f 546 549 545
f 545 549 548
f 550 547 551
f 551 547 548
f 547 550 553
f 553 550 552
f 549 554 548
f 548 554 551
f 544 547 543
f 543 547 553
f 543 553 521
f 521 553 522
f 546 541 556
f 556 541 555
f 541 540 555
f 555 540 557
f 536 539 558
f 558 539 527
f 537 536 559
f 559 536 558
f 527 526 558
f 558 526 560
f 559 558 561
f 561 558 560
f 559 562 537
f 537 562 563
f 557 563 555
f 555 563 562
f 509 522 507
f 507 522 564
f 508 565 515
f 515 565 525
f 565 508 564
f 564 508 507
f 564 552 565
f 565 552 566
f 552 550 566
f 566 550 567
f 565 566 525
f 525 566 568
f 564 522 552
f 552 522 553
f 569 524 568
f 568 524 525
f 569 526 524
f 524 526 523
f 570 560 569
f 569 560 526
f 570 569 571
f 571 569 568
f 572 570 573
f 573 570 571
f 566 567 568
f 568 567 571
f 567 574 571
f 571 574 573
f 570 572 560
f 560 572 561
f 576 561 575
f 575 561 572
f 575 578 577
f 577 578 579
f 575 572 578
f 578 572 573
f 575 577 576
f 576 577 556
f 576 556 562
f 562 556 555
f 562 559 576
f 576 559 561
f 550 551 567
f 567 551 574
f 579 574 554
f 554 574 551
f 579 578 574
f 574 578 573
f 579 554 577
f 577 554 549
f 549 546 577
f 577 546 556
f 531 538 540
f 540 538 557
f 557 538 563
f 563 538 537
f 481 294 482
f 482 294 293
f 580 486 511
f 511 486 485
f 490 489 497
f 497 489 498
f 489 491 498
f 498 491 496
f 163 495 164
f 164 495 494
f 580 490 486
f 486 490 497
f 482 293 510
f 510 293 292
f 495 163 511
f 511 163 199
f 494 493 510
f 510 493 499
f 481 491 294
f 294 491 248
f 582 583 581
f 581 583 584
f 586 587 585
f 585 587 588
f 585 588 589
f 589 588 590
f 592 593 591
f 591 593 594
f 595 596 598
f 598 596 597
f 599 600 586
f 586 600 587
f 601 602 604
f 604 602 603
f 605 606 608
f 608 606 607
f 609 607 200
f 200 607 606
f 610 611 613
f 613 611 612
f 600 614 587
f 587 614 592
f 596 605 597
f 597 605 608
f 602 615 603
f 603 615 583
f 616 614 584
f 584 614 600
f 611 618 617
f 617 618 590
f 620 621 619
f 619 621 622
f 610 623 611
f 611 623 618
f 624 589 618
f 618 589 590
f 617 590 591
f 591 590 588
f 581 625 582
f 582 625 626
f 599 627 581
f 581 627 625
f 591 594 617
f 617 594 628
f 601 610 598
f 598 610 613
f 581 584 599
f 599 584 600
f 585 629 586
f 586 629 630
f 615 616 583
f 583 616 584
f 587 592 588
f 588 592 591
f 582 626 631
f 631 626 632
f 624 620 633
f 633 620 619
f 621 620 604
f 604 620 623
f 631 632 621
f 621 632 622
f 610 601 623
f 623 601 604
f 589 624 634
f 634 624 633
f 586 630 599
f 599 630 627
f 203 202 628
f 628 202 612
f 629 585 634
f 634 585 589
f 609 593 614
f 614 593 592
f 620 624 623
f 623 624 618
f 631 621 603
f 603 621 604
f 582 631 583
f 583 631 603
f 634 633 636
f 636 633 635
f 634 636 629
f 629 636 637
f 629 637 630
f 630 637 638
f 630 638 627
f 627 638 639
f 633 619 635
f 635 619 640
f 619 622 640
f 640 622 641
f 641 622 642
f 642 622 632
f 644 635 643
f 643 635 640
f 645 646 648
f 648 646 647
f 649 650 646
f 646 650 647
f 647 650 652
f 652 650 651
f 652 653 655
f 655 653 654
f 651 656 652
f 652 656 653
f 655 648 652
f 652 648 647
f 648 657 645
f 645 657 658
f 650 649 651
f 651 649 659
f 649 637 659
f 659 637 636
f 649 660 637
f 637 660 638
f 661 660 646
f 646 660 649
f 662 661 645
f 645 661 646
f 651 659 656
f 656 659 644
f 644 659 635
f 635 659 636
f 663 662 658
f 658 662 645
f 664 661 665
f 665 661 662
f 663 666 662
f 662 666 665
f 667 664 668
f 668 664 665
f 664 667 670
f 670 667 669
f 666 671 665
f 665 671 668
f 661 664 660
f 660 664 670
f 660 670 638
f 638 670 639
f 658 672 663
f 663 672 673
f 658 657 672
f 672 657 674
f 653 656 675
f 675 656 644
f 653 675 654
f 654 675 676
f 675 644 677
f 677 644 643
f 676 675 678
f 678 675 677
f 679 680 676
f 676 680 654
f 674 680 672
f 672 680 679
f 627 639 625
f 625 639 681
f 626 682 632
f 632 682 642
f 681 682 625
f 625 682 626
f 669 683 681
f 681 683 682
f 667 684 669
f 669 684 683
f 682 683 642
f 642 683 685
f 681 639 669
f 669 639 670
f 686 641 685
f 685 641 642
f 641 686 640
f 640 686 643
f 686 687 643
f 643 687 677
f 687 686 688
f 688 686 685
f 689 687 690
f 690 687 688
f 683 684 685
f 685 684 688
f 684 691 688
f 688 691 690
f 687 689 677
f 677 689 678
f 693 678 692
f 692 678 689
f 692 695 694
f 694 695 696
f 692 689 695
f 695 689 690
f 692 694 693
f 693 694 673
f 693 673 679
f 679 673 672
f 679 676 693
f 693 676 678
f 684 667 691
f 691 667 668
f 696 691 671
f 671 691 668
f 696 695 691
f 691 695 690
f 694 696 666
f 666 696 671
f 666 663 694
f 694 663 673
f 648 655 657
f 657 655 674
f 674 655 680
f 680 655 654
f 593 162 594
f 594 162 290
f 598 597 601
f 601 597 602
f 615 608 616
f 616 608 607
f 607 609 616
f 616 609 614
f 697 595 613
f 613 595 598
f 597 608 602
f 602 608 615
f 594 290 628
f 628 290 203
f 628 612 617
f 617 612 611
f 593 609 162
f 162 609 200
f 105 29 698
f 698 29 699
f 268 126 701
f 701 126 700
f 126 125 700
f 700 125 702
f 252 703 250
f 250 703 704
f 32 268 705
f 705 268 701
f 288 105 706
f 706 105 698
f 29 32 699
f 699 32 705
f 707 251 706
f 706 251 288
f 250 704 125
f 125 704 702
f 703 252 707
f 707 252 251
f 706 708 707
f 707 708 709
f 707 709 703
f 703 709 710
f 703 710 704
f 704 710 711
f 704 711 702
f 702 711 712
f 706 698 708
f 708 698 713
f 698 699 713
f 713 699 714
f 699 705 714
f 714 705 715
f 717 708 716
f 716 708 713
f 719 720 718
f 718 720 721
f 722 723 719
f 719 723 720
f 724 725 723
f 723 725 720
f 724 726 725
f 725 726 727
f 728 721 725
f 725 721 720
f 721 728 729
f 729 728 730
f 729 731 721
f 721 731 718
f 724 723 732
f 732 723 722
f 722 710 732
f 732 710 709
f 722 733 710
f 710 733 711
f 719 734 722
f 722 734 733
f 734 719 735
f 735 719 718
f 724 732 726
f 726 732 717
f 717 732 708
f 708 732 709
f 731 736 718
f 718 736 735
f 737 734 738
f 738 734 735
f 736 739 735
f 735 739 738
f 740 737 741
f 741 737 738
f 737 740 743
f 743 740 742
f 739 744 738
f 738 744 741
f 734 737 733
f 733 737 743
f 733 743 711
f 711 743 712
f 736 731 746
f 746 731 745
f 731 729 745
f 745 729 730
f 727 726 747
f 747 726 717
f 748 727 749
f 749 727 747
f 747 717 750
f 750 717 716
f 749 747 751
f 751 747 750
f 749 752 748
f 748 752 753
f 730 753 745
f 745 753 752
f 728 725 748
f 748 725 727
f 730 728 753
f 753 728 748
f 700 702 754
f 754 702 712
f 705 701 715
f 715 701 755
f 754 755 700
f 700 755 701
f 742 756 754
f 754 756 755
f 740 757 742
f 742 757 756
f 755 756 715
f 715 756 758
f 754 712 742
f 742 712 743
f 759 714 758
f 758 714 715
f 714 759 713
f 713 759 716
f 759 760 716
f 716 760 750
f 760 759 761
f 761 759 758
f 762 760 763
f 763 760 761
f 756 757 758
f 758 757 761
f 757 764 761
f 761 764 763
f 760 762 750
f 750 762 751
f 766 751 765
f 765 751 762
f 767 765 769
f 769 765 768
f 765 762 768
f 768 762 763
f 765 767 766
f 766 767 746
f 766 746 752
f 752 746 745
f 752 749 766
f 766 749 751
f 757 740 764
f 764 740 741
f 769 764 744
f 744 764 741
f 769 768 764
f 764 768 763
f 767 769 739
f 739 769 744
f 739 736 767
f 767 736 746
f 219 217 208
f 208 217 209
f 209 217 210
f 210 217 193
f 198 580 199
f 199 580 511
f 76 75 289
f 289 75 272
f 277 207 291
f 291 207 184
f 290 183 203
f 203 183 84
f 490 580 142
f 142 580 198
f 142 198 143
f 143 198 197
f 149 276 72
f 72 276 73
f 104 103 279
f 279 103 770
f 770 596 279
f 279 596 595
f 605 596 771
f 771 596 770
f 771 770 772
f 772 770 103
f 772 103 773
f 773 103 102
f 155 774 101
f 101 774 102
f 773 102 97
f 97 102 774
f 775 773 100
f 100 773 97
f 773 775 772
f 772 775 776
f 772 776 771
f 771 776 777
f 200 606 197
f 197 606 777
f 189 71 778
f 778 71 74
f 97 774 98
f 98 774 155
f 183 161 184
f 184 161 291
f 777 276 197
f 197 276 143
f 777 606 771
f 771 606 605
f 613 612 697
f 697 612 202
f 595 697 279
f 279 697 202
f 73 276 776
f 776 276 777
f 776 775 73
f 73 775 74
f 100 778 775
f 775 778 74
f 778 100 189
f 189 100 99
f 245 242 99
f 99 242 189
f 131 33 256
f 28 1 95
f 95 1 62
f 27 2 28
f 28 2 1
f 265 115 266
f 266 115 114
f 95 62 69
f 69 62 64
f 62 61 64
f 64 61 65
f 61 13 65
f 65 13 130
f 13 12 130
f 130 12 14
f 31 11 32
f 32 11 268
f 15 12 31
f 31 12 11
f 31 30 15
f 15 30 231
f 30 106 231
f 231 106 232
f 287 237 106
f 106 237 232
f 254 90 287
f 287 90 237
f 253 44 254
f 254 44 90
f 253 249 44
f 44 249 7
f 267 127 268
f 268 127 126
f 10 3 241
f 241 3 116
f 3 2 116
f 116 2 114
f 2 27 114
f 114 27 266
f 27 26 266
f 266 26 113
f 26 286 113
f 113 286 110
f 286 243 110
f 110 243 255
f 243 242 255
f 255 242 256
f 242 245 256
f 256 245 131
f 245 244 131
f 131 244 132
f 265 37 115
f 115 37 41
f 41 37 42
f 42 37 40
f 92 91 40
f 40 91 42
f 236 233 92
f 92 233 91
f 191 194 236
f 236 194 233
f 258 285 244
f 244 285 132
f 257 55 258
f 258 55 285
f 257 154 201
f 201 154 185
f 56 201 204
f 204 201 180
f 55 257 56
f 56 257 201
f 204 85 56
f 56 85 52
f 86 122 53
f 53 122 79
f 212 215 86
f 86 215 122
f 211 216 212
f 212 216 215
f 192 280 211
f 211 280 216
f 191 240 192
f 192 240 280
f 249 124 7
f 7 124 8
f 124 127 8
f 8 127 241
f 127 267 241
f 241 267 10
f 10 267 9
f 9 267 11
