v -0.012091860175132751 0.059920601546764374 0.8895648717880249
v 0.0009041726589202881 0.05590258166193962 0.8889062404632568
v -0.005476504564285278 0.05067703127861023 0.8938153386116028
v -0.01698371022939682 0.055606916546821594 0.8950691819190979
v 0.011240214109420776 0.047538429498672485 0.906741738319397
v 0.01385747641324997 0.05286083370447159 0.9169749021530151
v -0.0023470818996429443 0.0489022359251976 0.9172223806381226
v -0.0005345419049263 0.044429704546928406 0.9077486395835876
v -0.021668527275323868 0.05483802407979965 0.8984167575836182
v -0.011878825724124908 0.048169590532779694 0.8968582153320312
v -0.023435845971107483 0.05918804556131363 0.8983312845230103
v -0.032124172896146774 0.06915095448493958 0.90398108959198
v -0.031086375936865807 0.06293968111276627 0.9025560021400452
v -0.03951886296272278 0.07382822781801224 0.9053829312324524
v -0.026783619076013565 0.07881499081850052 0.9048232436180115
v -0.03751732409000397 0.08225446939468384 0.901749312877655
v -0.018244683742523193 0.09419543296098709 0.886875569820404
v -0.014692321419715881 0.09512551128864288 0.8746944069862366
v -0.030209308490157127 0.09288917481899261 0.8734187483787537
v -0.03226299211382866 0.09155299514532089 0.8860098719596863
v -0.019853997975587845 0.08960407972335815 0.8563075065612793
v -0.02657705545425415 0.09150205552577972 0.8655350804328918
v -0.010856244713068008 0.09484647214412689 0.8668124675750732
v -0.005637373775243759 0.09270205348730087 0.8583990335464478
v -0.005066409707069397 0.0647781565785408 0.8781840801239014
v 0.006489567458629608 0.06309130042791367 0.877286970615387
v 0.005183041095733643 0.06144874915480614 0.8816308975219727
v -0.006651081144809723 0.0636453852057457 0.8826081156730652
v -0.026548709720373154 0.05898662284016609 0.9022492170333862
v -0.0203310027718544 0.0697370246052742 0.9082945585250854
v -0.023713454604148865 0.06633415073156357 0.9028996825218201
v -0.025169238448143005 0.05527520552277565 0.8985726833343506
v 0.031799353659152985 0.05667979270219803 0.8691902160644531
v 0.043638333678245544 0.06250467896461487 0.871453583240509
v 0.04299437254667282 0.06304983794689178 0.8773899674415588
v 0.032443225383758545 0.05798355117440224 0.8741388320922852
v 0.0346539244055748 0.05961216241121292 0.9024680256843567
v 0.041997142136096954 0.06566635519266129 0.8967260122299194
v 0.045770347118377686 0.07459314167499542 0.9055824875831604
v 0.036429136991500854 0.07206855714321136 0.9102826714515686
v 0.02493617683649063 0.05473455786705017 0.911403238773346
v 0.02626146376132965 0.06569268554449081 0.9172621965408325
v 0.011421337723731995 0.06283776462078094 0.9226611256599426
v -0.006642378866672516 0.05580338463187218 0.9222691059112549
v 0.045087315142154694 0.06441095471382141 0.8588965535163879
v 0.036754414439201355 0.05990959703922272 0.8554365634918213
v -0.08434489369392395 0.09924108535051346 0.8960997462272644
v -0.08478997647762299 0.09837856143712997 0.890404224395752
v -0.08189932256937027 0.09271837770938873 0.8923060894012451
v -0.08166281878948212 0.09468322992324829 0.8974809646606445
v 0.03841976821422577 0.07858479022979736 0.8464353680610657
v 0.03698539733886719 0.08852146565914154 0.8472825884819031
v 0.04413417726755142 0.08743266016244888 0.8470593094825745
v 0.04568669945001602 0.07824799418449402 0.848135769367218
v 0.02876202017068863 0.07885512709617615 0.8443415760993958
v 0.026978783309459686 0.08935324847698212 0.848135232925415
v -0.07477377355098724 0.1067689061164856 0.8980298042297363
v -0.07889940589666367 0.10458693653345108 0.8999941945075989
v -0.07538945227861404 0.10111057758331299 0.901050865650177
v -0.07126488536596298 0.10311804711818695 0.8982599973678589
v -0.027846716344356537 0.060324911028146744 0.8985589146614075
v -0.023036323487758636 0.06114457920193672 0.8914211392402649
v -0.051384925842285156 0.06497874855995178 0.8990043997764587
v -0.03799261152744293 0.0631253570318222 0.8946723937988281
v -0.03837621957063675 0.06354115903377533 0.9016249179840088
v -0.04877089709043503 0.06680069118738174 0.9045552611351013
v -0.027706582099199295 0.06553050875663757 0.8732714653015137
v -0.015959881246089935 0.06587338447570801 0.874533474445343
v -0.01886870339512825 0.06563034653663635 0.8801942467689514
v -0.03214706480503082 0.06461820006370544 0.880645215511322
v -0.01165541261434555 0.06307969242334366 0.8613907098770142
v -0.02360207587480545 0.06333616375923157 0.8611926436424255
v -0.019908525049686432 0.06160808354616165 0.8537391424179077
v -0.011939812451601028 0.060894086956977844 0.8552297353744507
v -0.04664582014083862 0.06492602825164795 0.8636607527732849
v -0.05509547144174576 0.06871270388364792 0.8631834387779236
v -0.054798584431409836 0.07086843997240067 0.8580952286720276
v -0.045272111892700195 0.06577712297439575 0.8595442771911621
v 0.05116208642721176 0.08744668960571289 0.8473038673400879
v 0.05243181437253952 0.07832446694374084 0.8506645560264587
v -0.010758280754089355 0.0828380435705185 0.8385878801345825
v -0.004712183028459549 0.07524101436138153 0.8335614204406738
v -0.01667765900492668 0.07314053922891617 0.8293862342834473
v -0.01935875415802002 0.08150526136159897 0.8360306024551392
v 0.033844687044620514 0.09615543484687805 0.8535509705543518
v 0.041312076151371 0.09611465781927109 0.8512537479400635
v -0.07163771986961365 0.1079542264342308 0.8928088545799255
v -0.06883303821086884 0.10429295897483826 0.8927115797996521
v 0.010906703770160675 0.07439500838518143 0.9205007553100586
v -0.009310491383075714 0.06474629789590836 0.9215757846832275
v 0.026263386011123657 0.0795227661728859 0.9152478575706482
v 0.035908184945583344 0.08368714898824692 0.9098175168037415
v 0.044649459421634674 0.08607843518257141 0.9075866937637329
v -0.04215563088655472 0.06289125233888626 0.888953447341919
v -0.016856234520673752 0.06364493817090988 0.8852681517601013
v -0.0035531707108020782 0.06466884166002274 0.8736987113952637
v 0.0012158118188381195 0.05681782215833664 0.8445773720741272
v 0.01173517107963562 0.056528665125370026 0.8462976813316345
v 0.006019771099090576 0.05638011544942856 0.8552150130271912
v -0.0020263493061065674 0.05732685327529907 0.8517972230911255
v -0.004185326397418976 0.06558352708816528 0.8325775265693665
v -0.007119297981262207 0.059651561081409454 0.8369384407997131
v -0.01666264235973358 0.05971761792898178 0.8349183797836304
v -0.015006404370069504 0.06480737030506134 0.8300178050994873
v -0.02792207896709442 0.06013524904847145 0.9089638590812683
v -0.016676194965839386 0.07213503122329712 0.9132629632949829
v 0.03917007893323898 0.06851408630609512 0.8492295145988464
v 0.04581104964017868 0.06941293925046921 0.8530264496803284
v 0.05342697352170944 0.07213400304317474 0.8552305698394775
v 0.01961284875869751 0.05903450399637222 0.8750047087669373
v 0.03300556540489197 0.05869762599468231 0.8778774738311768
v 0.03228073567152023 0.05806956812739372 0.8831560611724854
v 0.01957869529724121 0.05939177796244621 0.8781946897506714
v 0.013360626995563507 0.05114388465881348 0.892711877822876
v 0.023370355367660522 0.051157087087631226 0.8992977142333984
v 0.004129283130168915 0.046055641025304794 0.8970145583152771
v 0.04380032420158386 0.06409905850887299 0.8859499096870422
v 0.052688755095005035 0.06519754976034164 0.8792480826377869
v 0.05218222737312317 0.06692985445261002 0.8880967497825623
v 0.053626418113708496 0.0659119263291359 0.8695328235626221
v 0.053921714425086975 0.06805633753538132 0.8609070181846619
v 0.04911685734987259 0.09895780682563782 0.8496572971343994
v 0.050583548843860626 0.07001663744449615 0.8958768248558044
v -0.008753310889005661 0.042722851037979126 0.906787097454071
v -0.0161345973610878 0.04024020954966545 0.904589831829071
v -0.01722784712910652 0.04355902969837189 0.8974765539169312
v -0.010558873414993286 0.04507620260119438 0.8985340595245361
v -0.04798806458711624 0.07942262291908264 0.9055895805358887
v -0.04944932088255882 0.07224232703447342 0.906961977481842
v -0.03813928738236427 0.06714518368244171 0.906167209148407
v 0.02218087762594223 0.05558933690190315 0.8627984523773193
v 0.026928454637527466 0.05807818844914436 0.8514807224273682
v -0.054943278431892395 0.06640277057886124 0.8930759429931641
v -0.06761352717876434 0.10221507400274277 0.8978497982025146
v -0.07095212489366531 0.09924903512001038 0.9014759659767151
v -0.05832669138908386 0.09008797258138657 0.9036264419555664
v -0.055849045515060425 0.09425322711467743 0.8993933796882629
v -0.061710018664598465 0.0761360451579094 0.8873172402381897
v -0.060447320342063904 0.07209232449531555 0.8925448656082153
v -0.06301889568567276 0.07640163600444794 0.8915473818778992
v -0.06408780813217163 0.08001603186130524 0.8864621520042419
v -0.04930470511317253 0.06908819079399109 0.8507012724876404
v -0.04115217179059982 0.06464739143848419 0.8520457744598389
v -0.04703037068247795 0.08635076135396957 0.884555995464325
v -0.04312476888298988 0.08789106458425522 0.8957493305206299
v -0.03391120955348015 0.08910118788480759 0.8947429656982422
v -0.024567846208810806 0.06473425775766373 0.8665544390678406
v -0.03544251620769501 0.06415578722953796 0.8645412921905518
v -0.03431615233421326 0.06391257047653198 0.860464334487915
v -0.045725010335445404 0.06393271684646606 0.8854309320449829
v -0.05572550743818283 0.06721394509077072 0.8869547843933105
v -0.05129572004079819 0.06616715341806412 0.8818714022636414
v -0.04188764840364456 0.06475973129272461 0.8804157972335815
v 0.007608242332935333 0.07768961042165756 0.8368788361549377
v 0.008481547236442566 0.0662701427936554 0.8353238701820374
v -0.08223989605903625 0.10166095197200775 0.899463415145874
v -0.07906763255596161 0.09756279736757278 0.9007367491722107
v -0.013128470629453659 0.0650985836982727 0.8679373860359192
v -0.02113049104809761 0.09008593112230301 0.89503413438797
v -0.0017657950520515442 0.06390051543712616 0.868667483329773
v -0.03432257100939751 0.08070103079080582 0.8461481332778931
v -0.0356464609503746 0.075971320271492 0.8421342968940735
v -0.04107563942670822 0.07705409824848175 0.8440847992897034
v -0.03952648490667343 0.08185291290283203 0.8465989828109741
v -0.07400287687778473 0.09144994616508484 0.8830509781837463
v -0.07734987139701843 0.08918289095163345 0.8872048854827881
v -0.08054432272911072 0.09288587421178818 0.8860723376274109
v -0.0769268274307251 0.09497152268886566 0.882297694683075
v -0.0592951625585556 0.07194724678993225 0.898334801197052
v -0.056925736367702484 0.07331233471632004 0.90418541431427
v -0.06276308000087738 0.07905980199575424 0.9019994139671326
v -0.06353627890348434 0.07727088034152985 0.8965804576873779
v -0.05583098903298378 0.07955183833837509 0.9060832858085632
v -0.06068643927574158 0.08438003808259964 0.9045631885528564
v -0.06915074586868286 0.09603756666183472 0.8827016949653625
v -0.06476320326328278 0.1012226790189743 0.8866101503372192
v -0.05612455680966377 0.0928131639957428 0.8869077563285828
v -0.06172812357544899 0.0873461365699768 0.8849173188209534
v 0.008468471467494965 0.09600736945867538 0.8608343601226807
v 0.012206070125102997 0.09213050454854965 0.8512313365936279
v -0.0017783641815185547 0.08881199359893799 0.8485032916069031
v -0.014989275485277176 0.0861448124051094 0.8454288840293884
v -0.027311168611049652 0.08220843225717545 0.8437740206718445
v -0.031102541834115982 0.08709141612052917 0.8542560935020447
v 0.0021444931626319885 0.08567704260349274 0.8422973155975342
v -0.05850864574313164 0.08129488676786423 0.882392168045044
v -0.051740359514951706 0.08587674051523209 0.88805091381073
v -0.05347723513841629 0.08458813279867172 0.8834235072135925
v -0.00020717456936836243 0.06116880476474762 0.8619760870933533
v -0.0741233229637146 0.09552813321352005 0.9019281268119812
v 0.03400757163763046 0.10003481805324554 0.8957517743110657
v 0.034393325448036194 0.10380642861127853 0.883186936378479
v 0.02597001940011978 0.10182095319032669 0.8848118782043457
v 0.025096416473388672 0.09710665792226791 0.8983873724937439
v -0.07843004912137985 0.08856816589832306 0.8939225673675537
v -0.07748402655124664 0.09114644676446915 0.8994070887565613
v -0.039717718958854675 0.06473300606012344 0.8457316160202026
v -0.04604420065879822 0.06949140876531601 0.8460049629211426
v -0.0453372523188591 0.07216601818799973 0.8434778451919556
v -0.04004306718707085 0.06652018427848816 0.8408887982368469
v 0.015420451760292053 0.08958248794078827 0.8470785617828369
v -0.024959176778793335 0.07148348540067673 0.8273094296455383
v -0.025822661817073822 0.0793917328119278 0.8324358463287354
v 0.02448306977748871 0.09508112818002701 0.8540355563163757
v 0.02130734920501709 0.09904858469963074 0.8622889518737793
v 0.030747488141059875 0.10105957090854645 0.862766683101654
v -0.042516812682151794 0.08704282343387604 0.8649253845214844
v 0.003811866044998169 0.09755811095237732 0.8679112792015076
v 0.017863519489765167 0.10000327974557877 0.8690122961997986
v 0.029019102454185486 0.10241594910621643 0.8699014186859131
v 0.037021487951278687 0.1046457439661026 0.8698007464408875
v 0.03815111517906189 0.10271251946687698 0.8620001673698425
v -0.06544337421655655 0.10266849398612976 0.8918265700340271
v -0.06803729385137558 0.10316021740436554 0.8866052031517029
v 0.04642929136753082 0.10607781261205673 0.8605632185935974
v 0.04492838680744171 0.10748255252838135 0.8695716261863708
v 0.014715343713760376 0.10023050010204315 0.8776570558547974
v 0.011152409017086029 0.09925547987222672 0.8877407908439636
v 0.0012508407235145569 0.09771179407835007 0.8761330246925354
v -0.003325231373310089 0.09659092873334885 0.8860821723937988
v -0.04081195592880249 0.09083668887615204 0.8744598627090454
v -0.07867290079593658 0.11405541002750397 0.8818601965904236
v -0.07382256537675858 0.10436903685331345 0.8823540210723877
v -0.07861818373203278 0.10102219879627228 0.8813430666923523
v -0.08153651654720306 0.11127156019210815 0.8799108266830444
v -0.07210054248571396 0.09874704480171204 0.8825061321258545
v -0.07063630223274231 0.10689365863800049 0.8865624070167542
v -0.006570849567651749 0.09141203761100769 0.8971040844917297
v -0.06085508316755295 0.0719391331076622 0.8814167976379395
v 0.008713267743587494 0.09199833869934082 0.901301920413971
v -0.015336170792579651 0.08325061202049255 0.9067208766937256
v -0.004590611904859543 0.08227633684873581 0.9103561639785767
v 0.024277962744235992 0.09100987762212753 0.9083556532859802
v 0.009454682469367981 0.08418498933315277 0.9143776297569275
v 0.04256530851125717 0.09522036463022232 0.9032050371170044
v 0.03346148133277893 0.09364790469408035 0.904815137386322
v -0.005818895995616913 0.0754254087805748 0.9174147844314575
v -0.09015870839357376 0.10732778906822205 0.8899773955345154
v -0.08883142471313477 0.10598933696746826 0.8847672939300537
v 0.042114339768886566 0.10234121233224869 0.8948287963867188
v -0.00447690486907959 0.0446925163269043 0.8985069394111633
v 0.010101228952407837 0.05932595953345299 0.8652601838111877
v 0.008596040308475494 0.061499081552028656 0.8700697422027588
v 0.017875857651233673 0.05690576136112213 0.8480643630027771
v 0.013150408864021301 0.05611094459891319 0.8586931824684143
v -0.08875203877687454 0.10979825258255005 0.8942921161651611
v -0.05638955906033516 0.07452380657196045 0.861941933631897
v -0.05545042082667351 0.07575754821300507 0.8597775101661682
v -0.010732851922512054 0.04437781125307083 0.9152442216873169
v -0.017233513295650482 0.04103901982307434 0.9121882319450378
v -0.026206299662590027 0.0498417392373085 0.9160729050636292
v -0.02199554815888405 0.04407797381281853 0.9164788722991943
v -0.015263065695762634 0.049761004745960236 0.9198771715164185
v -0.019148051738739014 0.05637732148170471 0.9192905426025391
v 0.0194026380777359 0.05837145447731018 0.87232506275177
v 0.0196242555975914 0.05742388218641281 0.8684782981872559
v 0.01892714947462082 0.0781158059835434 0.8405776023864746
v 0.019118070602416992 0.06670672446489334 0.8393524885177612
v -0.053315140306949615 0.08475819230079651 0.9044705033302307
v -0.04581796005368233 0.08521725237369537 0.9019168615341187
v -0.05064229667186737 0.08932580798864365 0.9000681638717651
v -0.05366760864853859 0.09466418623924255 0.8931919932365417
v -0.06240075081586838 0.07820136100053787 0.8807910680770874
v -0.058544933795928955 0.08149336278438568 0.8858630657196045
v 0.028224579989910126 0.054697200655937195 0.8899276256561279
v 0.01788744330406189 0.05676804482936859 0.8844892382621765
v -0.015840992331504822 0.049006760120391846 0.8966958522796631
v -0.02102792263031006 0.04916498064994812 0.8952429890632629
v -0.03731510788202286 0.06475745886564255 0.8735869526863098
v -0.048540860414505005 0.08597606420516968 0.8667774200439453
v -0.047650523483753204 0.09012079238891602 0.8744845390319824
v -0.04789016768336296 0.0656687393784523 0.8734151721000671
v -0.08272735029459 0.11558067798614502 0.8944765329360962
v -0.08664534986019135 0.11248832941055298 0.8954749703407288
v -0.04950299859046936 0.09003627300262451 0.8943285346031189
v -0.03125988692045212 0.06168234720826149 0.8528761267662048
v -0.04532459005713463 0.08278954029083252 0.8623782396316528
v -0.05157211050391197 0.08044858276844025 0.8631888628005981
v -0.021915454417467117 0.06400308012962341 0.8288959860801697
v 0.04302947223186493 0.10582607984542847 0.8827648162841797
v -0.08303231745958328 0.099128358066082 0.8841115236282349
v -0.08601339161396027 0.10661086440086365 0.8807715773582458
v -0.07657270133495331 0.11597052216529846 0.8850716948509216
v -0.07744568586349487 0.11653582751750946 0.8905913233757019
v 0.028443418443202972 0.06679487228393555 0.8446698784828186
v 0.007324941456317902 0.0626855194568634 0.8731490969657898
v -0.01868894323706627 0.06646531075239182 0.9162615537643433
v -0.028134889900684357 0.0564035065472126 0.9127680063247681
v -0.056617673486471176 0.0682508647441864 0.8727883696556091
v -0.03038676455616951 0.07934541255235672 0.8390713930130005
v -0.03783143311738968 0.08589673042297363 0.8534844517707825
v -0.041229456663131714 0.0871187299489975 0.8533233404159546
v -0.04683844745159149 0.08697903156280518 0.8576400279998779
v -0.0536826029419899 0.08365252614021301 0.8581501245498657
v -0.07930318266153336 0.11874840408563614 0.882758378982544
v -0.08098038285970688 0.12088102102279663 0.8879774212837219
v -0.08606286346912384 0.12108395248651505 0.890330970287323
v -0.0901675894856453 0.11781410872936249 0.8914765119552612
v -0.09168246388435364 0.11303206533193588 0.8909550309181213
v -0.08136136829853058 0.11646854132413864 0.8797293305397034
v -0.08372528851032257 0.11378805339336395 0.8783754110336304
v -0.08756281435489655 0.10891690850257874 0.8801082372665405
v -0.08200516551733017 0.11788707971572876 0.8764781951904297
v -0.08117126673460007 0.12235691398382187 0.8777348399162292
v -0.09065646678209305 0.12999889254570007 0.8802411556243896
v -0.08715760707855225 0.12716728448867798 0.8836880326271057
v -0.0865999385714531 0.1282227337360382 0.8814723491668701
v -0.0884988009929657 0.13111990690231323 0.878212034702301
v -0.0890350267291069 0.13406935334205627 0.8743090629577637
v -0.09200579673051834 0.13312239944934845 0.8760920166969299
v -0.08327790349721909 0.1253901720046997 0.8809482455253601
v -0.0851028561592102 0.12915854156017303 0.8762915134429932
v -0.08312979340553284 0.12672848999500275 0.8735105991363525
v -0.0837642177939415 0.13053061068058014 0.869970440864563
v -0.08557592332363129 0.1330699771642685 0.8723756670951843
v -0.08209247142076492 0.12446463108062744 0.8770105838775635
v -0.08268790692090988 0.12458502501249313 0.8823358416557312
v -0.09132291376590729 0.1345304697751999 0.8719793558120728
v -0.08891582489013672 0.13535894453525543 0.8718609809875488
v -0.08644399046897888 0.13430359959602356 0.8699520230293274
v -0.08858918398618698 0.13412019610404968 0.867861807346344
v -0.09112374484539032 0.12301308661699295 0.8869463205337524
v -0.09269937872886658 0.12857377529144287 0.8804112076759338
v -0.09362934529781342 0.13070352375507355 0.8751188516616821
v -0.09279624372720718 0.13230840861797333 0.8711131811141968
v -0.09441536664962769 0.12588709592819214 0.8781138062477112
v -0.09414017200469971 0.12816356122493744 0.8738297820091248
v -0.09341035038232803 0.1292247474193573 0.8700656890869141
v -0.09460941702127457 0.12294573336839676 0.8751682043075562
v -0.09394697099924088 0.12578004598617554 0.8718113303184509
v -0.0937356948852539 0.11391651630401611 0.8852787017822266
v -0.09300262480974197 0.11760449409484863 0.8875075578689575
v -0.09378772974014282 0.12720902264118195 0.8695904612541199
v -0.0895993560552597 0.13225801289081573 0.8671184182167053
v -0.08261401951313019 0.12331168353557587 0.872490406036377
v -0.0844244435429573 0.1277674436569214 0.8680799007415771
v -0.08346947282552719 0.121556356549263 0.8715674877166748
v -0.08507587015628815 0.12569886445999146 0.8668745160102844
v -0.08533418923616409 0.13113155961036682 0.8659139275550842
v -0.08492124825716019 0.13232409954071045 0.8682500720024109
v -0.09151072800159454 0.1091136634349823 0.8879221677780151
v -0.08980027586221695 0.10764601081609726 0.8832530379295349
v -0.09128095209598541 0.11115683615207672 0.880946695804596
v -0.09268710762262344 0.12018558382987976 0.8720710873603821
v -0.08837845176458359 0.11141107976436615 0.8776215314865112
v -0.08411761373281479 0.1157970055937767 0.8749510645866394
v -0.08534425497055054 0.12037728726863861 0.8701634407043457
v -0.08838983625173569 0.11931907385587692 0.8699890971183777
v -0.08682875335216522 0.12384695559740067 0.866994321346283
v -0.08919988572597504 0.1230897307395935 0.8677598834037781
v -0.09241883456707001 0.12373560667037964 0.8693340420722961
v -0.08867798745632172 0.12692999839782715 0.8656603693962097
v -0.08664906024932861 0.129190593957901 0.8653414249420166
v -0.0911477655172348 0.12923108041286469 0.8669770956039429
v -0.08978919684886932 0.1254180669784546 0.8665437698364258
v -0.091834656894207 0.12681782245635986 0.8679764866828918
v -0.08127430081367493 0.10078296810388565 0.8492485284805298
v -0.0761794000864029 0.09933798015117645 0.8462352156639099
v -0.07666982710361481 0.09117218852043152 0.8513263463973999
v -0.08015013486146927 0.09320857375860214 0.8548615574836731
v -0.07699524611234665 0.10474938899278641 0.860689640045166
v -0.08162370324134827 0.10388094931840897 0.8575429916381836
v -0.07890259474515915 0.09995649009943008 0.8623086810112
v -0.07293801009654999 0.10221783816814423 0.8628740906715393
v -0.0711478665471077 0.10451507568359375 0.8598170876502991
v -0.06767892092466354 0.10147373378276825 0.860554575920105
v -0.06913905590772629 0.10249987244606018 0.8649466633796692
v -0.07492686808109283 0.09850765019655228 0.8657147288322449
v -0.06233447417616844 0.08644814044237137 0.8769515156745911
v -0.05794766917824745 0.09182127565145493 0.875376284122467
v -0.0608941875398159 0.07326206564903259 0.8645399212837219
v -0.05928416922688484 0.07648958265781403 0.8625964522361755
v -0.08271375298500061 0.10247141867876053 0.8530821204185486
v -0.0809972807765007 0.09668756276369095 0.8590148091316223
v -0.0685085728764534 0.08846242725849152 0.8496520519256592
v -0.07308944314718246 0.08691445738077164 0.8520117998123169
v -0.0728224366903305 0.0908697247505188 0.8481175303459167
v -0.06832785904407501 0.0925859659910202 0.8477166891098022
v -0.06466756761074066 0.0775340273976326 0.8750168681144714
v -0.062426161020994186 0.07377929985523224 0.8703073263168335
v -0.06437065452337265 0.08187326788902283 0.8760484457015991
v -0.06394273042678833 0.0927673727273941 0.850578248500824
v -0.0612095445394516 0.09792020171880722 0.8538471460342407
v -0.0515902154147625 0.08945479243993759 0.8632996678352356
v -0.05417340621352196 0.08370175957679749 0.8607621192932129
v -0.0783214122056961 0.09450894594192505 0.8637160062789917
v -0.07675307989120483 0.08770371228456497 0.8561400771141052
v -0.07890661060810089 0.09018948674201965 0.8598133325576782
v -0.0639081597328186 0.10176655650138855 0.8601871132850647
v -0.06410504877567291 0.09968574345111847 0.8545432686805725
v -0.0627567246556282 0.1133207380771637 0.8480326533317566
v -0.0646849274635315 0.10117866843938828 0.851386547088623
v -0.06707531958818436 0.10019874572753906 0.8471217751502991
v -0.0642225444316864 0.11249607801437378 0.8433015942573547
v -0.06511141359806061 0.09566283226013184 0.8506733775138855
v -0.06620033085346222 0.10284123569726944 0.85597825050354
v -0.07716167718172073 0.11588956415653229 0.8425338268280029
v -0.07208124548196793 0.11405482143163681 0.8395168781280518
v -0.07893136888742447 0.11760672926902771 0.8463653326034546
v -0.053273819386959076 0.09320010989904404 0.8694764375686646
v -0.07524332404136658 0.11790783703327179 0.8554600477218628
v -0.07895597070455551 0.11806060373783112 0.8505664467811584
v -0.07096853107213974 0.09937883913516998 0.8450486660003662
v -0.06741813570261002 0.11304605007171631 0.8400973081588745
v -0.06360849738121033 0.1147531121969223 0.8523901104927063
v -0.06923200935125351 0.11586356908082962 0.8568537831306458
v -0.06260840594768524 0.11864659190177917 0.8474923372268677
v -0.06627026945352554 0.12174525856971741 0.8517361879348755
v -0.07177110016345978 0.12427613139152527 0.8505663871765137
v -0.07605814188718796 0.12409548461437225 0.8467020392417908
v -0.07721273601055145 0.12237953394651413 0.8434292674064636
v -0.06248947232961655 0.11727824807167053 0.8438207507133484
v -0.0644254982471466 0.11657729744911194 0.8396795988082886
v -0.06871415674686432 0.11589504033327103 0.837957501411438
v -0.06153608113527298 0.12027663737535477 0.838294506072998
v -0.060635022819042206 0.12275797128677368 0.8412198424339294
v -0.06610549986362457 0.13825419545173645 0.8360375761985779
v -0.06755129992961884 0.1347019076347351 0.8402469754219055
v -0.06499975919723511 0.13424447178840637 0.8404045701026917
v -0.06343553215265274 0.13751494884490967 0.8366629481315613
v -0.06743215024471283 0.13093258440494537 0.8449410200119019
v -0.06518379598855972 0.13122861087322235 0.8435589671134949
v -0.06246696412563324 0.1276445984840393 0.8433829545974731
v -0.06141839921474457 0.13137738406658173 0.8392192721366882
v -0.0593956857919693 0.1273876130580902 0.8373957276344299
v -0.05733449384570122 0.13092513382434845 0.834059476852417
v -0.059027042239904404 0.13514794409275055 0.8358587622642517
v -0.06030480936169624 0.12582172453403473 0.8407704830169678
v -0.06171035021543503 0.1388729214668274 0.8340389728546143
v -0.06293705850839615 0.13954494893550873 0.8318368792533875
v -0.06368397921323776 0.126186802983284 0.8455725312232971
v -0.0733678787946701 0.12844318151474 0.8447592854499817
v -0.07009140402078629 0.1344827115535736 0.8386390805244446
v -0.06800070405006409 0.13770365715026855 0.8335613012313843
v -0.06380844116210938 0.13814294338226318 0.829285204410553
v -0.07148052752017975 0.13275505602359772 0.8352214694023132
v -0.06859666109085083 0.1358191967010498 0.8310595750808716
v -0.06477067619562149 0.135932058095932 0.8279926776885986
v -0.07146597653627396 0.12982189655303955 0.8316272497177124
v -0.06807899475097656 0.1327524185180664 0.8282267451286316
v -0.07593517005443573 0.12273982167243958 0.8385001420974731
v -0.07606768608093262 0.1258835643529892 0.8416416049003601
v -0.06589099764823914 0.13390211760997772 0.8274557590484619
v -0.058562710881233215 0.1377088725566864 0.8305630683898926
v -0.06020590662956238 0.13645988702774048 0.827860951423645
v -0.058452606201171875 0.13726487755775452 0.8323922157287598
v -0.0590510293841362 0.12571513652801514 0.8361283540725708
v -0.057463742792606354 0.12970122694969177 0.8321388959884644
v -0.059609416872262955 0.1241934597492218 0.8339539766311646
v -0.05795435234904289 0.12886960804462433 0.8299398422241211
v -0.056714072823524475 0.13335737586021423 0.8298452496528625
v -0.05666574835777283 0.13423922657966614 0.831340491771698
v -0.0760636180639267 0.1196502298116684 0.8404991030693054
v -0.07222303003072739 0.11683794856071472 0.8380997180938721
v -0.0730733647942543 0.11915289610624313 0.8360762000083923
v -0.06882788240909576 0.12615306675434113 0.8295990824699402
v -0.0689663365483284 0.11743694543838501 0.8357146382331848
v -0.06387186795473099 0.11874762177467346 0.8362056016921997
v -0.06151822954416275 0.12314313650131226 0.8321967720985413
v -0.06472986191511154 0.12381971627473831 0.8300710916519165
v -0.05900860205292702 0.12764592468738556 0.8284046649932861
v -0.06221066415309906 0.12690597772598267 0.8279334902763367
v -0.06614412367343903 0.12948422133922577 0.8270913362503052
v -0.05865638703107834 0.13160105049610138 0.8266414999961853
v -0.05727475881576538 0.132757306098938 0.8282455801963806
v -0.06158287078142166 0.1349639892578125 0.8269278407096863
v -0.06117352843284607 0.13002924621105194 0.8263882398605347
v -0.06371317058801651 0.13264767825603485 0.8264174461364746
v -0.07152697443962097 0.09978596866130829 0.8369074463844299
v -0.06843331456184387 0.09782098233699799 0.832952082157135
v -0.06902097910642624 0.08970081806182861 0.8341110348701477
v -0.07181572914123535 0.0928647369146347 0.8388183116912842
v -0.06393647193908691 0.1000841036438942 0.8472390174865723
v -0.06846778094768524 0.10074213892221451 0.8452199101448059
v -0.06875213235616684 0.09646262228488922 0.8461345434188843
v -0.06357988715171814 0.09555261582136154 0.8481846451759338
v -0.05871274322271347 0.10045991837978363 0.8457075357437134
v -0.058172598481178284 0.09564340859651566 0.8462871313095093
v -0.059948354959487915 0.09609993547201157 0.8503772020339966
v -0.06606876105070114 0.09433227777481079 0.8488695621490479
v -0.05652201920747757 0.08653268218040466 0.8556100726127625
v -0.05072849616408348 0.09075611084699631 0.855593204498291
v -0.07098866999149323 0.10069816559553146 0.8411432504653931
v -0.07143092900514603 0.09558635205030441 0.8429025411605835
v -0.05848098546266556 0.08564792573451996 0.8335734605789185
v -0.06236625462770462 0.08430828899145126 0.8358323574066162
v -0.06412526220083237 0.08974038809537888 0.8314225077629089
v -0.05986872315406799 0.09124240279197693 0.831447422504425
v -0.05801193788647652 0.07595372200012207 0.8529933094978333
v -0.053852781653404236 0.07384384423494339 0.8487282395362854
v -0.05923081189393997 0.08134428411722183 0.854218065738678
v -0.05423438549041748 0.08894084393978119 0.8355033993721008
v -0.05152351036667824 0.09353552013635635 0.8408384323120117
v -0.043769121170043945 0.08730395138263702 0.8447474837303162
v -0.04598076641559601 0.08184202015399933 0.8425564169883728
v -0.06884916126728058 0.0916459932923317 0.8469693660736084
v -0.06620657444000244 0.08447755873203278 0.8390194773674011
v -0.06946826726198196 0.08758921176195145 0.8433328866958618
v -0.05460450425744057 0.09641442447900772 0.8468598127365112
v -0.05543183535337448 0.09395463764667511 0.8407699465751648
v -0.05314722657203674 0.11417128145694733 0.8358455896377563
v -0.05546373873949051 0.09684382379055023 0.834762454032898
v -0.05909239500761032 0.09743788838386536 0.8312020301818848
v -0.054931946098804474 0.11478643119335175 0.8320530652999878
v -0.0562482625246048 0.0925883948802948 0.8344389796257019
v -0.054979510605335236 0.09836258739233017 0.8407450914382935
v -0.0669940635561943 0.11790592223405838 0.8349120020866394
v -0.06371476501226425 0.11575589329004288 0.8310948610305786
v -0.06732092052698135 0.11716769635677338 0.8389003276824951
v -0.045118845999240875 0.09157636016607285 0.8513095378875732
v -0.04926939308643341 0.07596519589424133 0.8437601327896118
v -0.06264842301607132 0.11705449223518372 0.8441824913024902
v -0.0661022812128067 0.1174011304974556 0.841970682144165
v -0.06339189410209656 0.09700071066617966 0.8309816718101501
v -0.05869927629828453 0.11517950892448425 0.8300210237503052
v -0.054071150720119476 0.11410575360059738 0.840100884437561
v -0.05765656381845474 0.11501343548297882 0.8441309928894043
v -0.05240903049707413 0.11803016066551208 0.8379210829734802
v -0.05579217150807381 0.11938557028770447 0.842101514339447
v -0.059472836554050446 0.1220221221446991 0.8430681228637695
v -0.0626775473356247 0.12305323779582977 0.841383159160614
v -0.06446200609207153 0.12323085963726044 0.8384660482406616
v -0.05203638970851898 0.11864955723285675 0.8338145017623901
v -0.05412761867046356 0.11941249668598175 0.8308378458023071
v -0.05816761776804924 0.11865681409835815 0.8300963044166565
v -0.0504472590982914 0.12175831198692322 0.8318937420845032
v -0.04901834949851036 0.12304218858480453 0.836729884147644
v -0.050007984042167664 0.13805660605430603 0.840612530708313
v -0.05278666317462921 0.13355442881584167 0.8411608338356018
v -0.051572285592556 0.133107990026474 0.8412100076675415
v -0.048457641154527664 0.1375219076871872 0.8409928679466248
v -0.05455637723207474 0.12728077173233032 0.8424273729324341
v -0.05244554579257965 0.12846428155899048 0.842117965221405
v -0.05040421709418297 0.1258293092250824 0.8406128287315369
v -0.04710758104920387 0.13114476203918457 0.839640200138092
v -0.045720066875219345 0.12867458164691925 0.8346591591835022
v -0.04377995803952217 0.13293783366680145 0.8347405791282654
v -0.044558025896549225 0.13534371554851532 0.8394910097122192
v -0.048027947545051575 0.12481950223445892 0.8371846079826355
v -0.046331461519002914 0.1392553746700287 0.8399189114570618
v -0.04716617241501808 0.14108368754386902 0.8406177759170532
v -0.05231250822544098 0.12405571341514587 0.8408535122871399
v -0.05908758565783501 0.12788160145282745 0.8420775532722473
v -0.055241603404283524 0.13458019495010376 0.8404229283332825
v -0.052816521376371384 0.13979610800743103 0.8396750688552856
v -0.0495760478079319 0.1417725682258606 0.837848424911499
v -0.0571591816842556 0.1348324567079544 0.8373256921768188
v -0.05413360521197319 0.13936355710029602 0.836755633354187
v -0.0512390173971653 0.14136922359466553 0.8352309465408325
v -0.057824261486530304 0.134101003408432 0.8342870473861694
v -0.05453593656420708 0.13820913434028625 0.8337603807449341
v -0.06327367573976517 0.1248648464679718 0.8352875113487244
v -0.061939340084791183 0.12674863636493683 0.8392354846000671
v -0.052004363387823105 0.14021095633506775 0.8334993720054626
v -0.04354923591017723 0.13967865705490112 0.837787389755249
v -0.04562080278992653 0.14079612493515015 0.8342833518981934
v -0.04426130652427673 0.13809189200401306 0.838205099105835
v -0.04612518474459648 0.12768319249153137 0.8330886363983154
v -0.04314578324556351 0.13306587934494019 0.8324124217033386
v -0.04767322167754173 0.12747333943843842 0.8306294083595276
v -0.044624123722314835 0.13309849798679352 0.829886257648468
v -0.04222366586327553 0.13645139336585999 0.8340259790420532
v -0.042691439390182495 0.13616564869880676 0.8351044058799744
v -0.06465935707092285 0.12144620716571808 0.8346373438835144
v -0.06218193098902702 0.1197882890701294 0.8311086893081665
v -0.0616798959672451 0.12329301238059998 0.8315219879150391
v -0.05608290433883667 0.13307133316993713 0.8306929469108582
v -0.05808911845088005 0.1216154620051384 0.8297014236450195
v -0.05272222310304642 0.12303768843412399 0.8297950625419617
v -0.05006083846092224 0.12869895994663239 0.8291091918945312
v -0.05284537374973297 0.13086269795894623 0.8289625644683838
v -0.047008972615003586 0.13375547528266907 0.8285130858421326
v -0.04982459172606468 0.13429945707321167 0.8290858864784241
v -0.05322492867708206 0.13718575239181519 0.830402672290802
v -0.046261098235845566 0.1372394859790802 0.8303566575050354
v -0.04364318773150444 0.13701394200325012 0.8315823674201965
v -0.04808763042092323 0.14065662026405334 0.8323773145675659
v -0.04867643117904663 0.13718965649604797 0.8297957181930542
v -0.05018622800707817 0.1397431194782257 0.83127361536026
v -0.05102590471506119 0.07359685003757477 0.8455771207809448
v -0.054886918514966965 0.06727039068937302 0.840968906879425
v -0.056672655045986176 0.06381543725728989 0.8399255275726318
v -0.05294068530201912 0.06263229250907898 0.8374888896942139
v -0.05048818141222 0.06572520732879639 0.8389226794242859
v -0.056012172251939774 0.07538455724716187 0.8340461850166321
v -0.05501167103648186 0.07376866042613983 0.8381433486938477
v -0.05109072104096413 0.07341673225164413 0.8355651497840881
v -0.05166160687804222 0.07501158118247986 0.8310576677322388
v -0.05827848240733147 0.07396526634693146 0.8296805620193481
v -0.05384691432118416 0.07342743873596191 0.8266205787658691
v -0.048819445073604584 0.07679957151412964 0.831487774848938
v -0.04862195998430252 0.07447157800197601 0.8358891606330872
v -0.03765501827001572 0.07645834982395172 0.8391817212104797
v -0.03590833768248558 0.07915964722633362 0.8353515267372131
v -0.028389502316713333 0.06392644345760345 0.8286473751068115
v -0.02859981171786785 0.06077222526073456 0.8328814506530762
v -0.036025967448949814 0.06152898073196411 0.8319235444068909
v -0.03520924597978592 0.06310676038265228 0.8279303908348083
v -0.05454285815358162 0.07081937789916992 0.8402713537216187
v -0.05089809000492096 0.0695689246058464 0.8387066125869751
v -0.05003891885280609 0.06021497771143913 0.8285250663757324
v -0.049842629581689835 0.05945700779557228 0.8330063819885254
v -0.05469632148742676 0.06017417088150978 0.8349078297615051
v -0.056982506066560745 0.06017160043120384 0.8307348489761353
v -0.03187918663024902 0.061108868569135666 0.8369671106338501
v -0.03483215346932411 0.0627332553267479 0.839758038520813
v -0.03766937926411629 0.06456677615642548 0.8394892811775208
v -0.037484802305698395 0.06231074407696724 0.8361302018165588
v -0.0391947366297245 0.06958392262458801 0.8413115739822388
v -0.0505000539124012 0.06305364519357681 0.8253123164176941
v -0.05031647905707359 0.06897281855344772 0.8233221173286438
v -0.0335831418633461 0.07145264744758606 0.8241151571273804
v -0.03355404734611511 0.06675446778535843 0.8251295685768127
v -0.04843365401029587 0.07072686403989792 0.8385201692581177
v -0.049730755388736725 0.061518535017967224 0.836837112903595
v -0.048503123223781586 0.06569509953260422 0.8385735750198364
v -0.04879504814743996 0.07515989243984222 0.8261558413505554
v -0.05694714933633804 0.06852373480796814 0.8249939680099487
v -0.06988585740327835 0.06553823500871658 0.8346881866455078
v -0.06291797757148743 0.06404155492782593 0.8295570611953735
v -0.0617903508245945 0.06152234971523285 0.8331751227378845
v -0.06884806603193283 0.06326215714216232 0.836825430393219
v -0.05679526925086975 0.06327692419290543 0.8268839716911316
v -0.062112949788570404 0.0692589059472084 0.8282337784767151
v -0.06163090467453003 0.06795389950275421 0.8456765413284302
v -0.063778355717659 0.06399320811033249 0.8432298898696899
v -0.06119297444820404 0.07113607227802277 0.8455249667167664
v -0.03456254303455353 0.07827280461788177 0.8289530277252197
v -0.06378354132175446 0.07600191235542297 0.840758204460144
v -0.062286440283060074 0.07402978092432022 0.8443085551261902
v -0.05909830704331398 0.06196396425366402 0.8372203707695007
v -0.06659051775932312 0.0624985545873642 0.8399742841720581
v -0.06955105066299438 0.07005617767572403 0.8339349031448364
v -0.06648966670036316 0.07485543936491013 0.835762619972229
v -0.07286219298839569 0.07112475484609604 0.8373161554336548
v -0.07005038857460022 0.07485431432723999 0.8395682573318481
v -0.06713147461414337 0.07480739802122116 0.8457459211349487
v -0.06486326456069946 0.07226324826478958 0.8473448157310486
v -0.06375344097614288 0.06930853426456451 0.8477982878684998
v -0.0725460946559906 0.0660957545042038 0.8371087908744812
v -0.07104024291038513 0.06365364789962769 0.8383902311325073
v -0.06805241852998734 0.06246086210012436 0.840805172920227
v -0.07569323480129242 0.06648200005292892 0.8399764895439148
v -0.07657682150602341 0.06990347802639008 0.8430944085121155
v -0.07703698426485062 0.06459428369998932 0.8551617860794067
v -0.07401242852210999 0.06656593829393387 0.8534874320030212
v -0.07482228428125381 0.06707409769296646 0.8528692126274109
v -0.07768398523330688 0.06544075906276703 0.855002760887146
v -0.0712975561618805 0.07044900208711624 0.8507642149925232
v -0.07295207679271698 0.06977766007184982 0.8506295680999756
v -0.07403232157230377 0.07111149281263351 0.8474307656288147
v -0.07763255387544632 0.06858417391777039 0.8499924540519714
v -0.08003290742635727 0.06636849045753479 0.8457861542701721
v -0.08256472647190094 0.06472377479076385 0.8482707738876343
v -0.0803743302822113 0.06710365414619446 0.8517417907714844
v -0.0770687609910965 0.06961368024349213 0.8448809385299683
v -0.08022016286849976 0.06500361859798431 0.8557230830192566
v -0.08054450154304504 0.0639701783657074 0.8566070795059204
v -0.07308734953403473 0.07321935892105103 0.8461266160011292
v -0.06804583221673965 0.06832675635814667 0.8512787222862244
v -0.07307088375091553 0.06441064178943634 0.8544995784759521
v -0.07722444087266922 0.06254878640174866 0.8563950657844543
v -0.0808507576584816 0.06170792132616043 0.8563530445098877
v -0.07177312672138214 0.06262068450450897 0.8533694744110107
v -0.0766114741563797 0.060419876128435135 0.8558890223503113
v -0.0800611600279808 0.05962787941098213 0.8557143807411194
v -0.07130124419927597 0.060298383235931396 0.8510980606079102
v -0.07611624896526337 0.05887842923402786 0.85382080078125
v -0.06607608497142792 0.06319109350442886 0.8477514982223511
v -0.06659427285194397 0.06567703187465668 0.8501455783843994
v -0.07912403345108032 0.05891406908631325 0.8543767333030701
v -0.08357854187488556 0.06412563472986221 0.8541465997695923
v -0.08316678553819656 0.061191946268081665 0.8540412783622742
v -0.08308756351470947 0.06546495854854584 0.8533819317817688
v -0.08014929294586182 0.06563174724578857 0.8446685671806335
v -0.08320636302232742 0.06334239989519119 0.8476677536964417
v -0.07962064445018768 0.06359954923391342 0.8434664607048035
v -0.08275057375431061 0.061262279748916626 0.8473478555679321
v -0.08449551463127136 0.06295467913150787 0.8508234620094299
v -0.0836489200592041 0.06460072845220566 0.8507466316223145
v -0.06403574347496033 0.06550970673561096 0.8470675349235535
v -0.0651886984705925 0.06359051167964935 0.8441594839096069
v -0.06738217175006866 0.061792440712451935 0.8444222211837769
v -0.07253235578536987 0.058979734778404236 0.8476516008377075
v -0.07054968178272247 0.061902761459350586 0.8408748507499695
v -0.07369116693735123 0.06395001709461212 0.839479386806488
v -0.07816732674837112 0.06141801178455353 0.843376100063324
v -0.07584072649478912 0.05941961705684662 0.8445695042610168
v -0.0816660076379776 0.05947750061750412 0.8478235006332397
v -0.07926169782876968 0.0579259991645813 0.848639726638794
v -0.07697724550962448 0.057610951364040375 0.8509136438369751
v -0.08266671746969223 0.059406645596027374 0.8514648079872131
v -0.08397575467824936 0.06074070185422897 0.851282000541687
v -0.08201742172241211 0.059518635272979736 0.8536264896392822
v -0.0810745358467102 0.05834658443927765 0.8514589667320251
v -0.08016129583120346 0.05837688595056534 0.8528106212615967
v -0.029637029394507408 0.06718984246253967 0.8268605470657349
v -0.039255768060684204 0.04622291773557663 0.9028746485710144
v -0.03688933327794075 0.04731291905045509 0.8978585004806519
v -0.026027951389551163 0.03498363122344017 0.8955880403518677
v -0.0297737717628479 0.040594540536403656 0.8923763036727905
v -0.02633032202720642 0.03125522658228874 0.901631772518158
v -0.03194684907793999 0.03283746540546417 0.9105920195579529
v -0.02790268510580063 0.03156086429953575 0.907233715057373
v -0.03331673890352249 0.04494687169790268 0.8936823010444641
v -0.03902741149067879 0.043287135660648346 0.907742440700531
v -0.036117106676101685 0.037681695073843 0.9116062521934509
v -0.04811042174696922 0.03531235456466675 0.9032151699066162
v -0.04353815317153931 0.02937489002943039 0.9064215421676636
v -0.03782281279563904 0.024667754769325256 0.9040868878364563
v -0.032296258956193924 0.0261119082570076 0.900825560092926
v -0.029521863907575607 0.027394920587539673 0.8972100615501404
v -0.04519554600119591 0.04142937436699867 0.8987241983413696
v -0.04206829518079758 0.043483540415763855 0.8943281769752502
v -0.03655155003070831 0.04192062467336655 0.8910616040229797
v -0.04890957474708557 0.037755727767944336 0.8922104239463806
v -0.049055516719818115 0.03012889251112938 0.8864941596984863
v -0.03793492168188095 0.01867562159895897 0.8755990266799927
v -0.03637907654047012 0.02023785188794136 0.8817463517189026
v -0.03913901746273041 0.020400431007146835 0.8818994760513306
v -0.04035882279276848 0.018536154180765152 0.8764156103134155
v -0.038112372159957886 0.02082567662000656 0.8870835304260254
v -0.03992930427193642 0.02162361517548561 0.8859186768531799
v -0.04421677440404892 0.02496199682354927 0.8873944878578186
v -0.044977396726608276 0.023056495934724808 0.8819040656089783
v -0.04719007387757301 0.02840288355946541 0.8853696584701538
v -0.047621093690395355 0.028529275208711624 0.8810857534408569
v -0.045700423419475555 0.021667007356882095 0.8765769004821777
v -0.04275508224964142 0.018096353858709335 0.8735156655311584
v -0.0459979772567749 0.020590122789144516 0.8722354173660278
v -0.04075472801923752 0.018661756068468094 0.8715531826019287
v -0.04716254770755768 0.023044895380735397 0.8894103169441223
v -0.03337361291050911 0.02245989814400673 0.8912103772163391
v -0.03319140523672104 0.021613996475934982 0.8822696805000305
v -0.035286158323287964 0.020756591111421585 0.874894380569458
v -0.03894472494721413 0.020787369459867477 0.8703557848930359
v -0.030951164662837982 0.024872690439224243 0.8814833760261536
v -0.03363969177007675 0.024588685482740402 0.8748961091041565
v -0.03759100288152695 0.025103017687797546 0.870847761631012
v -0.0312074925750494 0.029407180845737457 0.8804560303688049
v -0.03435683250427246 0.028251733630895615 0.8749147653579712
v -0.02922210469841957 0.03227313235402107 0.8905844688415527
v -0.029602915048599243 0.026745859533548355 0.8921175003051758
v -0.03727135807275772 0.027410108596086502 0.8720793128013611
v -0.045833125710487366 0.020922433584928513 0.8699157238006592
v -0.043990928679704666 0.02340596914291382 0.8687546253204346
v -0.048578180372714996 0.031547609716653824 0.8811553716659546
v -0.048975374549627304 0.02683718129992485 0.8763646483421326
v -0.04878850281238556 0.02934233471751213 0.8755490779876709
v -0.047672584652900696 0.03523857519030571 0.8815315961837769
v -0.04780711233615875 0.03189639747142792 0.8748099207878113
v -0.04844525083899498 0.025787677615880966 0.8715611100196838
v -0.04834533855319023 0.024090293794870377 0.8733887076377869
v -0.028243955224752426 0.03208218514919281 0.8932204842567444
v -0.031138591468334198 0.03775574266910553 0.8909837007522583
v -0.032927803695201874 0.03800484538078308 0.8894439339637756
v -0.03455822169780731 0.034805502742528915 0.8804118633270264
v -0.03881911188364029 0.041614826768636703 0.8886162042617798
v -0.04515504837036133 0.04103756323456764 0.8905254006385803
v -0.04502497613430023 0.037756383419036865 0.8807049989700317
v -0.04004136100411415 0.03799641504883766 0.8805601596832275
v -0.044846467673778534 0.033612072467803955 0.874424397945404
v -0.04187919944524765 0.033705051988363266 0.8746439814567566
v -0.03723085671663284 0.03165464475750923 0.8742958903312683
v -0.04430084303021431 0.029890529811382294 0.8709678649902344
v -0.04699335992336273 0.028277404606342316 0.8707617521286011
v -0.0415862500667572 0.026848208159208298 0.8696476817131042
v -0.04216468334197998 0.03095972165465355 0.8722562789916992
v -0.039859920740127563 0.029031120240688324 0.8715888261795044
v -0.02229633554816246 0.05994213744997978 0.834265947341919
v -0.02545417845249176 0.05922883003950119 0.8397394418716431
v -0.01842956617474556 0.05847892910242081 0.8401403427124023
v -0.008814956992864609 0.057590655982494354 0.8422402143478394
v 0.001399647444486618 0.05926816165447235 0.8390704393386841
v -0.010770335793495178 0.05850949138402939 0.8487259745597839
v -0.020549077540636063 0.05929567664861679 0.8461626172065735
v -0.030709808692336082 0.06101493164896965 0.8451582789421082
v -0.004464875906705856 0.060226794332265854 0.8568360805511475
f 2 3 1
f 1 3 4
f 5 6 8
f 8 6 7
f 9 4 10
f 10 4 3
f 12 13 11
f 11 13 9
f 14 12 16
f 16 12 15
f 18 19 17
f 17 19 20
f 22 23 21
f 21 23 24
f 26 27 25
f 25 27 28
f 30 31 29
f 29 31 32
f 33 34 36
f 36 34 35
f 37 38 40
f 40 38 39
f 41 42 6
f 6 42 43
f 6 43 7
f 7 43 44
f 45 34 46
f 46 34 33
f 48 49 47
f 47 49 50
f 52 53 51
f 51 53 54
f 56 52 55
f 55 52 51
f 58 59 57
f 57 59 60
f 61 62 4
f 4 62 1
f 64 65 63
f 63 65 66
f 68 69 67
f 67 69 70
f 72 73 71
f 71 73 74
f 76 77 75
f 75 77 78
f 53 79 54
f 54 79 80
f 82 83 81
f 81 83 84
f 85 86 52
f 52 86 53
f 57 60 87
f 87 60 88
f 89 90 43
f 43 90 44
f 43 42 89
f 89 42 91
f 40 39 92
f 92 39 93
f 94 70 64
f 64 70 69
f 13 61 9
f 9 61 4
f 25 28 69
f 69 28 95
f 96 25 68
f 68 25 69
f 98 99 97
f 97 99 100
f 101 102 104
f 104 102 103
f 106 30 105
f 105 30 29
f 51 54 107
f 107 54 108
f 54 80 108
f 108 80 109
f 111 112 110
f 110 112 113
f 115 5 114
f 114 5 116
f 115 41 5
f 5 41 6
f 36 35 111
f 111 35 117
f 35 118 117
f 117 118 119
f 34 120 35
f 35 120 118
f 34 45 120
f 120 45 121
f 125 126 124
f 124 126 127
f 128 129 14
f 14 129 130
f 33 131 46
f 46 131 132
f 133 94 63
f 63 94 64
f 134 135 137
f 137 135 136
f 139 140 138
f 138 140 141
f 77 142 78
f 78 142 143
f 144 145 20
f 20 145 146
f 148 149 147
f 147 149 72
f 151 152 150
f 150 152 153
f 82 101 83
f 83 101 104
f 101 82 155
f 155 82 154
f 156 157 58
f 58 157 59
f 158 68 147
f 147 68 67
f 159 146 15
f 15 146 16
f 68 158 96
f 96 158 160
f 129 66 130
f 130 66 65
f 162 163 161
f 161 163 164
f 166 167 165
f 165 167 168
f 170 171 169
f 169 171 172
f 174 171 173
f 173 171 170
f 176 177 175
f 175 177 178
f 180 181 179
f 179 181 24
f 182 183 21
f 21 183 184
f 81 185 82
f 82 185 154
f 186 187 188
f 188 187 144
f 158 71 160
f 160 71 189
f 190 135 157
f 157 135 59
f 169 172 139
f 139 172 140
f 147 72 158
f 158 72 71
f 192 193 191
f 191 193 194
f 167 166 49
f 49 166 195
f 196 190 50
f 50 190 157
f 197 198 200
f 200 198 199
f 21 24 182
f 182 24 181
f 146 159 20
f 20 159 17
f 182 181 81
f 81 181 185
f 201 185 180
f 180 185 181
f 202 203 83
f 83 203 84
f 205 206 204
f 204 206 85
f 207 22 184
f 184 22 21
f 179 24 208
f 208 24 23
f 208 209 179
f 179 209 205
f 209 210 205
f 205 210 206
f 212 206 211
f 211 206 210
f 179 205 180
f 180 205 204
f 213 176 88
f 88 176 214
f 86 85 212
f 212 85 206
f 193 217 218
f 217 219 218
f 218 219 220
f 219 18 220
f 220 18 17
f 19 221 20
f 20 221 144
f 222 223 225
f 225 223 224
f 175 226 176
f 176 226 214
f 227 87 214
f 214 87 88
f 220 17 228
f 228 17 159
f 134 213 60
f 60 213 88
f 138 229 151
f 151 229 152
f 193 192 210
f 210 192 211
f 230 194 218
f 218 194 193
f 231 232 228
f 228 232 230
f 233 234 91
f 91 234 89
f 235 236 93
f 93 236 92
f 230 232 234
f 234 232 237
f 47 238 48
f 48 238 239
f 240 191 235
f 235 191 236
f 5 8 116
f 116 8 241
f 242 243 189
f 189 243 160
f 244 245 98
f 98 245 99
f 156 246 47
f 47 246 238
f 76 247 77
f 77 247 248
f 250 125 249
f 249 125 124
f 252 253 251
f 251 253 254
f 111 110 36
f 36 110 255
f 256 33 255
f 255 33 36
f 257 258 154
f 154 258 155
f 63 169 133
f 133 169 139
f 66 170 63
f 63 170 169
f 173 170 129
f 129 170 66
f 129 128 173
f 173 128 259
f 128 260 259
f 259 260 261
f 213 134 262
f 262 134 137
f 263 264 186
f 186 264 187
f 112 265 113
f 113 265 266
f 11 267 268
f 234 233 230
f 230 233 194
f 153 269 70
f 70 269 67
f 175 178 165
f 165 178 141
f 150 153 94
f 94 153 70
f 271 221 270
f 270 221 207
f 269 153 272
f 272 153 152
f 121 45 109
f 109 45 108
f 47 50 156
f 156 50 157
f 57 273 58
f 58 273 274
f 145 275 260
f 260 275 261
f 276 149 143
f 143 149 78
f 148 269 75
f 75 269 272
f 207 277 270
f 270 277 278
f 195 196 49
f 49 196 50
f 59 135 60
f 60 135 134
f 83 104 202
f 202 104 279
f 149 148 78
f 78 148 75
f 247 278 248
f 248 278 277
f 183 182 84
f 84 182 81
f 48 239 281
f 281 239 282
f 227 223 283
f 283 223 222
f 223 226 224
f 224 226 168
f 281 282 224
f 224 282 225
f 165 168 175
f 175 168 226
f 264 263 138
f 138 263 229
f 14 16 128
f 128 16 260
f 220 228 218
f 218 228 230
f 87 227 284
f 284 227 283
f 260 16 145
f 145 16 146
f 244 98 258
f 258 98 155
f 58 274 156
f 156 274 246
f 107 285 51
f 51 285 55
f 243 286 160
f 160 286 96
f 234 237 89
f 89 237 90
f 46 132 107
f 107 132 285
f 253 252 249
f 249 252 250
f 286 26 96
f 96 26 25
f 106 105 287
f 287 105 288
f 272 152 289
f 289 152 229
f 138 151 139
f 139 151 133
f 183 290 161
f 161 290 162
f 291 292 277
f 277 292 293
f 151 150 133
f 133 150 94
f 262 275 177
f 177 275 187
f 144 187 145
f 145 187 275
f 273 57 284
f 284 57 87
f 174 136 190
f 190 136 135
f 111 117 112
f 112 117 38
f 117 119 38
f 38 119 123
f 112 38 265
f 265 38 37
f 287 288 254
f 254 288 251
f 228 159 231
f 231 159 15
f 223 227 226
f 226 227 214
f 147 67 148
f 148 67 269
f 224 168 281
f 281 168 167
f 199 163 200
f 200 163 162
f 45 46 108
f 108 46 107
f 281 167 48
f 48 167 49
f 161 164 291
f 291 164 292
f 38 123 39
f 293 294 277
f 277 294 248
f 284 283 296
f 296 283 295
f 284 296 273
f 273 296 297
f 274 273 298
f 298 273 297
f 246 274 299
f 299 274 298
f 283 222 295
f 295 222 300
f 222 225 300
f 300 225 301
f 301 225 302
f 302 225 282
f 303 304 300
f 300 304 295
f 306 307 305
f 305 307 308
f 309 310 308
f 308 310 305
f 308 307 312
f 312 307 311
f 313 314 312
f 312 314 315
f 311 316 312
f 312 316 313
f 317 304 311
f 311 304 316
f 315 309 312
f 312 309 308
f 318 319 321
f 321 319 320
f 319 318 309
f 309 318 310
f 311 307 317
f 317 307 306
f 306 297 317
f 317 297 296
f 306 322 297
f 297 322 298
f 305 323 306
f 306 323 322
f 323 305 324
f 324 305 310
f 304 317 295
f 295 317 296
f 318 325 310
f 310 325 324
f 323 324 326
f 326 324 327
f 324 325 327
f 327 325 328
f 326 327 329
f 329 327 330
f 329 331 326
f 326 331 332
f 333 330 328
f 328 330 327
f 323 326 322
f 322 326 332
f 322 332 298
f 298 332 299
f 325 318 334
f 334 318 321
f 313 316 335
f 335 316 304
f 335 336 313
f 313 336 314
f 304 303 335
f 335 303 337
f 336 335 338
f 338 335 337
f 336 339 314
f 314 339 340
f 246 299 238
f 238 299 341
f 239 342 282
f 282 342 302
f 342 239 341
f 341 239 238
f 341 331 342
f 342 331 343
f 331 329 343
f 343 329 344
f 342 343 302
f 302 343 345
f 341 299 331
f 331 299 332
f 346 301 345
f 345 301 302
f 346 303 301
f 301 303 300
f 347 337 346
f 346 337 303
f 347 346 348
f 348 346 345
f 349 347 350
f 350 347 348
f 343 344 345
f 345 344 348
f 344 351 348
f 348 351 350
f 337 347 338
f 338 347 349
f 353 338 352
f 352 338 349
f 352 355 354
f 354 355 356
f 352 349 355
f 355 349 350
f 352 354 353
f 353 354 334
f 353 334 339
f 339 334 321
f 339 336 353
f 353 336 338
f 329 330 344
f 344 330 351
f 356 351 333
f 333 351 330
f 356 355 351
f 351 355 350
f 354 356 328
f 328 356 333
f 328 325 354
f 354 325 334
f 309 315 319
f 319 315 320
f 320 340 321
f 321 340 339
f 320 315 340
f 340 315 314
f 137 136 261
f 261 136 259
f 140 166 141
f 141 166 165
f 172 171 195
f 195 171 196
f 171 174 196
f 196 174 190
f 178 177 264
f 264 177 187
f 172 195 140
f 140 195 166
f 137 261 262
f 262 261 275
f 178 264 141
f 141 264 138
f 262 177 213
f 213 177 176
f 136 174 259
f 259 174 173
f 358 359 357
f 357 359 360
f 362 363 361
f 361 363 364
f 361 364 365
f 365 364 366
f 367 368 370
f 370 368 369
f 76 371 247
f 247 371 372
f 373 374 362
f 362 374 363
f 376 377 375
f 375 377 378
f 289 229 380
f 380 229 379
f 381 379 263
f 263 379 229
f 383 384 382
f 382 384 385
f 386 368 374
f 374 368 363
f 76 289 371
f 371 289 380
f 377 376 359
f 359 376 387
f 388 386 360
f 360 386 374
f 389 383 366
f 366 383 390
f 392 393 391
f 391 393 394
f 383 382 390
f 390 382 395
f 396 365 390
f 390 365 366
f 389 366 367
f 367 366 364
f 357 397 358
f 358 397 398
f 373 399 357
f 357 399 397
f 389 367 400
f 400 367 370
f 382 385 375
f 375 385 372
f 357 360 373
f 373 360 374
f 361 401 362
f 362 401 402
f 387 388 359
f 359 388 360
f 363 368 364
f 364 368 367
f 358 398 403
f 403 398 404
f 396 392 405
f 405 392 391
f 392 395 393
f 393 395 378
f 393 403 394
f 394 403 404
f 375 378 382
f 382 378 395
f 365 396 406
f 406 396 405
f 362 402 373
f 373 402 399
f 271 270 400
f 400 270 384
f 401 361 406
f 406 361 365
f 381 369 386
f 386 369 368
f 392 396 395
f 395 396 390
f 393 378 403
f 403 378 377
f 403 377 358
f 358 377 359
f 406 405 408
f 408 405 407
f 406 408 401
f 401 408 409
f 401 409 402
f 402 409 410
f 402 410 399
f 399 410 411
f 405 391 407
f 407 391 412
f 391 394 412
f 412 394 413
f 394 404 413
f 413 404 414
f 415 416 412
f 412 416 407
f 418 419 417
f 417 419 420
f 421 422 418
f 418 422 419
f 419 422 424
f 424 422 423
f 425 426 424
f 424 426 427
f 423 428 424
f 424 428 425
f 427 420 424
f 424 420 419
f 420 429 417
f 417 429 430
f 423 422 431
f 431 422 421
f 421 409 431
f 431 409 408
f 421 432 409
f 409 432 410
f 418 433 421
f 421 433 432
f 434 433 417
f 417 433 418
f 431 416 423
f 423 416 428
f 416 431 407
f 407 431 408
f 435 434 430
f 430 434 417
f 433 434 436
f 436 434 437
f 434 435 437
f 437 435 438
f 436 437 439
f 439 437 440
f 439 441 436
f 436 441 442
f 438 443 437
f 437 443 440
f 436 442 433
f 433 442 432
f 432 442 410
f 410 442 411
f 435 430 445
f 445 430 444
f 430 429 444
f 444 429 446
f 425 428 447
f 447 428 416
f 426 425 448
f 448 425 447
f 416 415 447
f 447 415 449
f 447 449 448
f 448 449 450
f 451 452 448
f 448 452 426
f 446 452 444
f 444 452 451
f 399 411 397
f 397 411 453
f 398 454 404
f 404 454 414
f 454 398 453
f 453 398 397
f 453 441 454
f 454 441 455
f 441 439 455
f 455 439 456
f 454 455 414
f 414 455 457
f 441 453 442
f 442 453 411
f 458 413 457
f 457 413 414
f 458 415 413
f 413 415 412
f 458 459 415
f 415 459 449
f 459 458 460
f 460 458 457
f 461 459 462
f 462 459 460
f 455 456 457
f 457 456 460
f 456 463 460
f 460 463 462
f 459 461 449
f 449 461 450
f 465 450 464
f 464 450 461
f 464 467 466
f 466 467 468
f 464 461 467
f 467 461 462
f 464 466 465
f 465 466 445
f 465 445 451
f 451 445 444
f 451 448 465
f 465 448 450
f 439 440 456
f 456 440 463
f 468 463 443
f 443 463 440
f 468 467 463
f 463 467 462
f 466 468 438
f 438 468 443
f 438 435 466
f 466 435 445
f 420 427 429
f 429 427 446
f 446 427 452
f 452 427 426
f 370 369 188
f 188 369 186
f 371 376 372
f 372 376 375
f 380 379 387
f 387 379 388
f 379 381 388
f 388 381 386
f 385 384 278
f 278 384 270
f 380 387 371
f 371 387 376
f 400 370 271
f 271 370 188
f 385 278 372
f 372 278 247
f 400 384 389
f 389 384 383
f 369 381 186
f 186 381 263
f 221 271 144
f 144 271 188
f 221 19 207
f 207 19 22
f 19 18 22
f 22 18 23
f 18 219 23
f 23 219 208
f 469 470 472
f 472 470 471
f 474 475 473
f 473 475 476
f 473 476 477
f 477 476 478
f 480 481 479
f 479 481 482
f 483 484 474
f 474 484 475
f 486 487 485
f 485 487 488
f 489 490 77
f 77 490 142
f 491 489 248
f 248 489 77
f 493 494 492
f 492 494 495
f 496 480 484
f 484 480 475
f 486 497 487
f 487 497 471
f 498 496 472
f 472 496 484
f 499 493 478
f 478 493 500
f 501 502 504
f 504 502 503
f 493 492 500
f 500 492 505
f 506 477 500
f 500 477 478
f 499 478 479
f 479 478 476
f 469 507 470
f 470 507 508
f 483 509 469
f 469 509 507
f 479 482 499
f 499 482 510
f 492 495 485
f 485 495 511
f 483 469 484
f 484 469 472
f 473 512 474
f 474 512 513
f 497 498 471
f 471 498 472
f 475 480 476
f 476 480 479
f 470 508 514
f 514 508 515
f 506 502 516
f 516 502 501
f 503 502 488
f 488 502 505
f 514 515 503
f 503 515 504
f 485 488 492
f 492 488 505
f 477 506 517
f 517 506 516
f 474 513 483
f 483 513 509
f 510 292 494
f 494 292 164
f 512 473 517
f 517 473 477
f 491 481 496
f 496 481 480
f 502 506 505
f 505 506 500
f 503 488 514
f 514 488 487
f 514 487 470
f 470 487 471
f 517 516 519
f 519 516 518
f 517 519 512
f 512 519 520
f 512 520 513
f 513 520 521
f 513 521 509
f 509 521 522
f 516 501 518
f 518 501 523
f 501 504 523
f 523 504 524
f 524 504 525
f 525 504 515
f 526 527 523
f 523 527 518
f 529 530 528
f 528 530 531
f 532 533 529
f 529 533 530
f 530 533 535
f 535 533 534
f 536 537 535
f 535 537 538
f 534 539 535
f 535 539 536
f 538 531 535
f 535 531 530
f 540 541 531
f 531 541 528
f 533 532 534
f 534 532 542
f 532 520 542
f 542 520 519
f 532 543 520
f 520 543 521
f 529 544 532
f 532 544 543
f 544 529 545
f 545 529 528
f 534 542 539
f 539 542 527
f 527 542 518
f 518 542 519
f 541 546 528
f 528 546 545
f 547 544 548
f 548 544 545
f 546 549 545
f 545 549 548
f 550 547 551
f 551 547 548
f 547 550 553
f 553 550 552
f 549 554 548
f 548 554 551
f 544 547 543
f 543 547 553
f 543 553 521
f 521 553 522
f 546 541 556
f 556 541 555
f 541 540 555
f 555 540 557
f 536 539 558
f 558 539 527
f 537 536 559
f 559 536 558
f 527 526 558
f 558 526 560
f 559 558 561
f 561 558 560
f 559 562 537
f 537 562 563
f 557 563 555
f 555 563 562
f 509 522 507
f 507 522 564
f 508 565 515
f 515 565 525
f 565 508 564
f 564 508 507
f 564 552 565
f 565 552 566
f 552 550 566
f 566 550 567
f 565 566 525
f 525 566 568
f 564 522 552
f 552 522 553
f 569 524 568
f 568 524 525
f 569 526 524
f 524 526 523
f 570 560 569
f 569 560 526
f 570 569 571
f 571 569 568
f 572 570 573
f 573 570 571
f 566 567 568
f 568 567 571
f 567 574 571
f 571 574 573
f 570 572 560
f 560 572 561
f 576 561 575
f 575 561 572
f 575 578 577
f 577 578 579
f 575 572 578
f 578 572 573
f 575 577 576
f 576 577 556
f 576 556 562
f 562 556 555
f 562 559 576
f 576 559 561
f 550 551 567
f 567 551 574
f 579 574 554
f 554 574 551
f 579 578 574
f 574 578 573
f 579 554 577
f 577 554 549
f 549 546 577
f 577 546 556
f 531 538 540
f 540 538 557
f 557 538 563
f 563 538 537
f 481 294 482
f 482 294 293
f 580 486 511
f 511 486 485
f 490 489 497
f 497 489 498
f 489 491 498
f 498 491 496
f 163 495 164
f 164 495 494
f 580 490 486
f 486 490 497
f 482 293 510
f 510 293 292
f 495 163 511
f 511 163 199
f 494 493 510
f 510 493 499
f 481 491 294
f 294 491 248
f 582 583 581
f 581 583 584
f 586 587 585
f 585 587 588
f 585 588 589
f 589 588 590
f 592 593 591
f 591 593 594
f 595 596 598
f 598 596 597
f 599 600 586
f 586 600 587
f 601 602 604
f 604 602 603
f 605 606 608
f 608 606 607
f 609 607 200
f 200 607 606
f 610 611 613
f 613 611 612
f 600 614 587
f 587 614 592
f 596 605 597
f 597 605 608
f 602 615 603
f 603 615 583
f 616 614 584
f 584 614 600
f 611 618 617
f 617 618 590
f 620 621 619
f 619 621 622
f 610 623 611
f 611 623 618
f 624 589 618
f 618 589 590
f 617 590 591
f 591 590 588
f 581 625 582
f 582 625 626
f 599 627 581
f 581 627 625
f 591 594 617
f 617 594 628
f 601 610 598
f 598 610 613
f 581 584 599
f 599 584 600
f 585 629 586
f 586 629 630
f 615 616 583
f 583 616 584
f 587 592 588
f 588 592 591
f 582 626 631
f 631 626 632
f 624 620 633
f 633 620 619
f 621 620 604
f 604 620 623
f 631 632 621
f 621 632 622
f 610 601 623
f 623 601 604
f 589 624 634
f 634 624 633
f 586 630 599
f 599 630 627
f 203 202 628
f 628 202 612
f 629 585 634
f 634 585 589
f 609 593 614
f 614 593 592
f 620 624 623
f 623 624 618
f 631 621 603
f 603 621 604
f 582 631 583
f 583 631 603
f 634 633 636
f 636 633 635
f 634 636 629
f 629 636 637
f 629 637 630
f 630 637 638
f 630 638 627
f 627 638 639
f 633 619 635
f 635 619 640
f 619 622 640
f 640 622 641
f 641 622 642
f 642 622 632
f 644 635 643
f 643 635 640
f 645 646 648
f 648 646 647
f 649 650 646
f 646 650 647
f 647 650 652
f 652 650 651
f 652 653 655
f 655 653 654
f 651 656 652
f 652 656 653
f 655 648 652
f 652 648 647
f 648 657 645
f 645 657 658
f 650 649 651
f 651 649 659
f 649 637 659
f 659 637 636
f 649 660 637
f 637 660 638
f 661 660 646
f 646 660 649
f 662 661 645
f 645 661 646
f 651 659 656
f 656 659 644
f 644 659 635
f 635 659 636
f 663 662 658
f 658 662 645
f 664 661 665
f 665 661 662
f 663 666 662
f 662 666 665
f 667 664 668
f 668 664 665
f 664 667 670
f 670 667 669
f 666 671 665
f 665 671 668
f 661 664 660
f 660 664 670
f 660 670 638
f 638 670 639
f 658 672 663
f 663 672 673
f 658 657 672
f 672 657 674
f 653 656 675
f 675 656 644
f 653 675 654
f 654 675 676
f 675 644 677
f 677 644 643
f 676 675 678
f 678 675 677
f 679 680 676
f 676 680 654
f 674 680 672
f 672 680 679
f 627 639 625
f 625 639 681
f 626 682 632
f 632 682 642
f 681 682 625
f 625 682 626
f 669 683 681
f 681 683 682
f 667 684 669
f 669 684 683
f 682 683 642
f 642 683 685
f 681 639 669
f 669 639 670
f 686 641 685
f 685 641 642
f 641 686 640
f 640 686 643
f 686 687 643
f 643 687 677
f 687 686 688
f 688 686 685
f 689 687 690
f 690 687 688
f 683 684 685
f 685 684 688
f 684 691 688
f 688 691 690
f 687 689 677
f 677 689 678
f 693 678 692
f 692 678 689
f 692 695 694
f 694 695 696
f 692 689 695
f 695 689 690
f 692 694 693
f 693 694 673
f 693 673 679
f 679 673 672
f 679 676 693
f 693 676 678
f 684 667 691
f 691 667 668
f 696 691 671
f 671 691 668
f 696 695 691
f 691 695 690
f 694 696 666
f 666 696 671
f 666 663 694
f 694 663 673
f 648 655 657
f 657 655 674
f 674 655 680
f 680 655 654
f 593 162 594
f 594 162 290
f 598 597 601
f 601 597 602
f 615 608 616
f 616 608 607
f 607 609 616
f 616 609 614
f 697 595 613
f 613 595 598
f 597 608 602
f 602 608 615
f 594 290 628
f 628 290 203
f 628 612 617
f 617 612 611
f 593 609 162
f 162 609 200
f 105 29 698
f 698 29 699
f 268 126 701
f 701 126 700
f 126 125 700
f 700 125 702
f 252 703 250
f 250 703 704
f 32 268 705
f 705 268 701
f 288 105 706
f 706 105 698
f 29 32 699
f 699 32 705
f 707 251 706
f 706 251 288
f 250 704 125
f 125 704 702
f 703 252 707
f 707 252 251
f 706 708 707
f 707 708 709
f 707 709 703
f 703 709 710
f 703 710 704
f 704 710 711
f 704 711 702
f 702 711 712
f 706 698 708
f 708 698 713
f 698 699 713
f 713 699 714
f 699 705 714
f 714 705 715
f 717 708 716
f 716 708 713
f 719 720 718
f 718 720 721
f 722 723 719
f 719 723 720
f 724 725 723
f 723 725 720
f 724 726 725
f 725 726 727
f 728 721 725
f 725 721 720
f 721 728 729
f 729 728 730
f 729 731 721
f 721 731 718
f 724 723 732
f 732 723 722
f 722 710 732
f 732 710 709
f 722 733 710
f 710 733 711
f 719 734 722
f 722 734 733
f 734 719 735
f 735 719 718
f 724 732 726
f 726 732 717
f 717 732 708
f 708 732 709
f 731 736 718
f 718 736 735
f 737 734 738
f 738 734 735
f 736 739 735
f 735 739 738
f 740 737 741
f 741 737 738
f 737 740 743
f 743 740 742
f 739 744 738
f 738 744 741
f 734 737 733
f 733 737 743
f 733 743 711
f 711 743 712
f 736 731 746
f 746 731 745
f 731 729 745
f 745 729 730
f 727 726 747
f 747 726 717
f 748 727 749
f 749 727 747
f 747 717 750
f 750 717 716
f 749 747 751
f 751 747 750
f 749 752 748
f 748 752 753
f 730 753 745
f 745 753 752
f 728 725 748
f 748 725 727
f 730 728 753
f 753 728 748
f 700 702 754
f 754 702 712
f 705 701 715
f 715 701 755
f 754 755 700
f 700 755 701
f 742 756 754
f 754 756 755
f 740 757 742
f 742 757 756
f 755 756 715
f 715 756 758
f 754 712 742
f 742 712 743
f 759 714 758
f 758 714 715
f 714 759 713
f 713 759 716
f 759 760 716
f 716 760 750
f 760 759 761
f 761 759 758
f 762 760 763
f 763 760 761
f 756 757 758
f 758 757 761
f 757 764 761
f 761 764 763
f 760 762 750
f 750 762 751
f 766 751 765
f 765 751 762
f 767 765 769
f 769 765 768
f 765 762 768
f 768 762 763
f 765 767 766
f 766 767 746
f 766 746 752
f 752 746 745
f 752 749 766
f 766 749 751
f 757 740 764
f 764 740 741
f 769 764 744
f 744 764 741
f 769 768 764
f 764 768 763
f 767 769 739
f 739 769 744
f 739 736 767
f 767 736 746
f 219 217 208
f 208 217 209
f 209 217 210
f 210 217 193
f 198 580 199
f 199 580 511
f 76 75 289
f 289 75 272
f 277 207 291
f 291 207 184
f 290 183 203
f 203 183 84
f 490 580 142
f 142 580 198
f 142 198 143
f 143 198 197
f 149 276 72
f 72 276 73
f 104 103 279
f 279 103 770
f 770 596 279
f 279 596 595
f 605 596 771
f 771 596 770
f 771 770 772
f 772 770 103
f 772 103 773
f 773 103 102
f 155 774 101
f 101 774 102
f 773 102 97
f 97 102 774
f 775 773 100
f 100 773 97
f 773 775 772
f 772 775 776
f 772 776 771
f 771 776 777
f 200 606 197
f 197 606 777
f 189 71 778
f 778 71 74
f 97 774 98
f 98 774 155
f 183 161 184
f 184 161 291
f 777 276 197
f 197 276 143
f 777 606 771
f 771 606 605
f 613 612 697
f 697 612 202
f 595 697 279
f 279 697 202
f 73 276 776
f 776 276 777
f 776 775 73
f 73 775 74
f 100 778 775
f 775 778 74
f 778 100 189
f 189 100 99
f 245 242 99
f 99 242 189
f 131 33 256
f 28 1 95
f 95 1 62
f 27 2 28
f 28 2 1
f 265 115 266
f 266 115 114
f 95 62 69
f 69 62 64
f 62 61 64
f 64 61 65
f 61 13 65
f 65 13 130
f 13 12 130
f 130 12 14
f 31 11 32
f 32 11 268
f 15 12 31
f 31 12 11
f 31 30 15
f 15 30 231
f 30 106 231
f 231 106 232
f 287 237 106
f 106 237 232
f 254 90 287
f 287 90 237
f 253 44 254
f 254 44 90
f 253 249 44
f 44 249 7
f 267 127 268
f 268 127 126
f 10 3 241
f 241 3 116
f 3 2 116
f 116 2 114
f 2 27 114
f 114 27 266
f 27 26 266
f 266 26 113
f 26 286 113
f 113 286 110
f 286 243 110
f 110 243 255
f 243 242 255
f 255 242 256
f 242 245 256
f 256 245 131
f 245 244 131
f 131 244 132
f 265 37 115
f 115 37 41
f 41 37 42
f 42 37 40
f 92 91 40
f 40 91 42
f 236 233 92
f 92 233 91
f 191 194 236
f 236 194 233
f 258 285 244
f 244 285 132
f 257 55 258
f 258 55 285
f 257 154 201
f 201 154 185
f 56 201 204
f 204 201 180
f 55 257 56
f 56 257 201
f 204 85 56
f 56 85 52
f 86 122 53
f 53 122 79
f 212 215 86
f 86 215 122
f 211 216 212
f 212 216 215
f 192 280 211
f 211 280 216
f 191 240 192
f 192 240 280
f 249 124 7
f 7 124 8
f 124 127 8
f 8 127 241
f 127 267 241
f 241 267 10
f 10 267 9
f 9 267 11
